<svg width="320" height="480" viewBox="0 0 320 480" fill="none" xmlns="http://www.w3.org/2000/svg">
<rect width="320" height="480" rx="24" fill="white"/>
<path d="M40.3631 72H44.4842V80.25H40.3631V72ZM36.2421 80.25H40.3631V88.5H36.2421V80.25ZM48.6052 80.25V88.5H44.4842V80.25H48.6052ZM48.6052 92.625V88.5H52.7263V96.75H32.121V88.5H36.2421V92.625H48.6052ZM32.121 105H28V96.75H32.121V105ZM52.7263 105V96.75H56.8473V105H52.7263Z" fill="#E84040"/>
<path d="M65.0704 80.25H69.1914V84.375H73.3124V88.5H69.1914V105H65.0704V80.25ZM81.5545 84.375H73.3124V80.25H81.5545V84.375Z" fill="#E84040"/>
<path d="M106.308 84.375H93.9449V80.25H106.308V84.375ZM93.9449 88.5H89.8238V84.375H93.9449V88.5ZM85.7028 88.5H89.8238V100.875H85.7028V88.5ZM106.308 105H89.8238V100.875H106.308V105Z" fill="#E84040"/>
<path d="M122.796 80.25H131.038V84.375H122.796V80.25ZM118.675 84.375H122.796V88.5H118.675V84.375ZM131.038 100.875V84.375H135.159V100.875H131.038ZM114.554 100.875V88.5H118.675V100.875H114.554ZM131.038 105H118.675V100.875H131.038V105ZM135.159 105V100.875H139.28V105H135.159Z" fill="#E84040"/>
<path d="M164.028 80.25V72H168.149V105H151.664V100.875H164.028V84.375H151.664V80.25H164.028ZM147.543 100.875V84.375H151.664V100.875H147.543Z" fill="#E84040"/>
<path d="M180.516 80.25H192.879V84.375H180.516V80.25ZM192.879 92.625V96.75H180.516V100.875H176.395V84.375H180.516V92.625H192.879ZM197 84.375V92.625H192.879V84.375H197ZM197 100.875V105H180.516V100.875H197Z" fill="#E84040"/>
<path fill-rule="evenodd" clip-rule="evenodd" d="M231.742 412.674C233.228 406.291 239.262 401.531 246.486 401.531C253.709 401.531 259.744 406.291 261.26 412.674C261.646 414.381 260.665 416.117 258.971 416.845C251.034 420.177 241.968 420.177 234.031 416.845C232.307 416.117 231.355 414.381 231.742 412.674ZM210.875 425.428L210.875 413.406C210.875 414.464 211.427 415.521 212.53 416.035L243.802 430.63C245.501 431.415 247.499 431.415 249.198 430.63L280.47 416.035C280.608 415.971 280.738 415.898 280.858 415.818C281.703 415.257 282.125 414.332 282.125 413.406V425.428C282.125 428.936 280.037 432.1 276.727 433.567L250.392 445.243C247.917 446.336 245.083 446.336 242.608 445.243L216.273 433.567C212.993 432.1 210.875 428.936 210.875 425.428Z" fill="#533566"/>
<path d="M212.53 410.777L243.802 396.183C245.501 395.397 247.469 395.397 249.198 396.183L280.47 410.777C282.677 411.805 282.677 415.008 280.47 416.035L249.198 430.63C247.499 431.415 245.501 431.415 243.802 430.63L212.53 416.035C210.323 415.008 210.323 411.805 212.53 410.777ZM231.742 412.674C231.355 414.381 232.307 416.117 234.031 416.845C241.968 420.177 251.034 420.177 258.971 416.845C260.665 416.117 261.646 414.381 261.26 412.674C259.744 406.291 253.709 401.531 246.486 401.531C239.262 401.531 233.228 406.291 231.742 412.674Z" fill="#635994"/>
<path d="M211.269 411.922C211.544 412.397 211.965 412.803 212.53 413.066L243.802 427.661C245.501 428.446 247.499 428.446 249.198 427.661L280.47 413.066C281.035 412.803 281.456 412.397 281.731 411.922C282.532 413.303 282.111 415.271 280.47 416.035L249.198 430.629C247.499 431.415 245.501 431.415 243.802 430.629L212.53 416.035C210.889 415.271 210.468 413.303 211.269 411.922Z" fill="#6B438B"/>
<path d="M246.5 374.812C248.14 374.812 249.469 376.142 249.469 377.781V402.273C249.469 403.913 248.14 404.5 246.5 404.5C244.86 404.5 243.531 403.913 243.531 402.273V377.781C243.531 376.142 244.86 374.812 246.5 374.812Z" fill="#D3D3D3"/>
<path d="M260.394 376.831C260.394 384.505 254.173 390.725 246.5 390.725C238.827 390.725 232.606 384.505 232.606 376.831C232.606 369.158 238.827 362.938 246.5 362.938C254.173 362.938 260.394 369.158 260.394 376.831ZM218.163 412.694C218.579 410.794 220.301 409.339 222.349 409.339C224.398 409.339 226.119 410.794 226.565 412.694C226.684 413.198 226.387 413.733 225.912 413.941C223.655 414.95 221.073 414.95 218.816 413.941C218.312 413.733 218.044 413.198 218.163 412.694Z" fill="#F8312F"/>
<circle cx="20" cy="20" r="20" transform="matrix(-1 0 0 1 142 222)" fill="#F8312F"/>
<circle cx="20" cy="20" r="20" transform="matrix(-1 0 0 1 64 222)" fill="#F8312F"/>
<circle cx="20" cy="20" r="20" transform="matrix(-1 0 0 1 103 183)" fill="#F8312F"/>
<circle cx="20" cy="20" r="20" transform="matrix(-1 0 0 1 103 261)" fill="#F8312F"/>
<path d="M252 187C252 184.791 250.209 183 248 183H222C219.791 183 218 184.791 218 187V221C218 223.209 216.209 225 214 225H180C177.791 225 176 226.791 176 229V255C176 257.209 177.791 259 180 259H214C216.209 259 218 260.791 218 263V297C218 299.209 219.791 301 222 301H248C250.209 301 252 299.209 252 297V263C252 260.791 253.791 259 256 259H290C292.209 259 294 257.209 294 255V229C294 226.791 292.209 225 290 225H256C253.791 225 252 223.209 252 221V187Z" fill="#F8312F"/>
</svg>
