<svg width="401" height="400" viewBox="0 0 401 400" fill="none" xmlns="http://www.w3.org/2000/svg">
<rect x="0.841797" width="400" height="400" rx="200" fill="white"/>
<path d="M253.697 151.277L248.708 147.281C310.221 119.339 351.352 103.47 358.97 111.818C359.941 121.811 337.121 139.902 288.622 173.254L284.131 169.758C310.578 148.798 318.601 141.04 315.065 137.291C305.956 134.958 285.374 139.075 253.697 151.277Z" fill="black"/>
<path d="M148.303 247.551L153.292 251.547C91.7791 279.489 50.6479 295.358 43.0297 287.01C42.0588 277.017 64.8786 258.926 113.378 225.574L117.868 229.071C91.4219 250.031 83.3986 257.788 86.9351 261.537C96.0439 263.871 116.626 259.754 148.303 247.551Z" fill="black"/>
<path d="M201.53 67.7833C201.509 67.5844 201.42 67.3976 201.279 67.2562C200.937 66.9146 200.384 66.9146 200.043 67.2562C199.902 67.3976 199.813 67.5844 199.792 67.7832C192.339 136.552 137.783 191.169 69.091 198.63C68.8924 198.651 68.7058 198.74 68.5645 198.882C68.2233 199.223 68.2233 199.777 68.5645 200.118C68.7058 200.26 68.8924 200.349 69.091 200.37C137.783 207.831 192.339 262.448 199.792 331.217C199.813 331.416 199.902 331.602 200.043 331.744C200.384 332.085 200.937 332.085 201.279 331.744C201.42 331.602 201.509 331.416 201.53 331.217C208.983 262.448 263.539 207.831 332.231 200.37C332.429 200.349 332.616 200.26 332.757 200.118C333.098 199.777 333.098 199.223 332.757 198.882C332.616 198.74 332.429 198.651 332.231 198.63C263.539 191.169 208.983 136.552 201.53 67.7833Z" fill="black"/>
</svg>
