<svg width="320" height="480" viewBox="0 0 320 480" fill="none" xmlns="http://www.w3.org/2000/svg">
<g filter="url(#filter0_b_115_699)">
<rect width="320" height="480" rx="24" fill="white"/>
<path d="M27.216 102.56V84.656C25.68 84.656 24.672 83.888 24.672 82.208C24.672 80.48 25.536 79.664 27.264 79.664H35.088C42.672 79.664 45.504 82.448 45.552 86.48C45.6 88.928 44.544 91.136 42.384 92.288C44.928 93.152 46.752 94.736 46.704 98.144C46.656 102.176 44.304 104.24 41.04 104.816C39.744 105.056 37.92 105.248 30.144 105.248C28.176 105.248 27.216 104.432 27.216 102.56ZM41.568 97.808C41.568 95.408 38.928 94.928 37.104 94.928H32.304V100.544H36.912C39.552 100.544 41.568 99.92 41.568 97.808ZM40.368 87.2C40.368 85.568 39.504 84.416 35.04 84.416H32.352V90.368H35.088C37.344 90.368 40.368 89.648 40.368 87.2ZM49.1197 98.528V90.08C49.1197 88.64 49.7917 87.92 51.6157 87.92C53.1517 87.92 54.1117 88.592 54.1117 90.032V97.808C54.1117 100.16 56.0317 101.12 57.9037 101.12C59.8717 101.12 61.1198 100.16 61.8397 99.008V89.936C61.8397 88.736 62.9918 87.92 64.2878 87.92C65.5837 87.92 66.8318 88.64 66.8318 89.888V103.376C66.8318 104.528 66.1597 105.488 64.4797 105.488C62.9437 105.488 61.9838 104.912 61.9357 103.952C60.7838 104.864 59.0078 105.488 57.2318 105.488C52.5277 105.488 49.1197 102.752 49.1197 98.528ZM86.7547 91.04C87.4268 91.952 87.3307 93.488 86.3228 94.208C85.1707 94.976 84.1627 94.976 83.3947 94.016C82.0507 92.384 80.8987 92 78.9787 92C76.4347 92 74.5147 93.824 74.5147 96.944C74.5147 100.064 76.7227 101.408 79.0267 101.552C80.5627 101.648 82.3387 101.168 84.0187 100.112C84.8828 99.536 86.2747 99.824 86.8027 100.688C87.6187 102.032 87.5227 103.04 86.1787 104C84.4987 105.248 82.0027 106.208 78.7387 106.064C74.2267 105.872 69.7147 102.992 69.7147 96.992C69.7147 90.56 74.2747 87.44 79.1227 87.44C83.0587 87.44 85.2667 88.976 86.7547 91.04ZM106.403 104.144C105.779 105.296 104.291 105.872 103.043 105.104L95.2673 100.208V103.472C95.2673 104.624 94.3073 105.44 92.6273 105.44C91.2353 105.44 90.2753 104.672 90.2753 103.472V82.304C90.2753 81.008 91.3793 80.288 92.7713 80.288C94.2593 80.288 95.2673 81.104 95.2673 82.304V91.04L103.475 86.816C104.483 86.288 105.827 86.528 106.451 87.632C106.931 88.592 106.787 90.368 105.683 90.944L96.6593 95.552L105.539 100.784C106.883 101.6 107.171 102.896 106.403 104.144ZM126.449 93.536C126.449 96.848 124.337 99.248 119.297 99.44C117.281 99.536 115.601 99.104 114.305 98.528C114.929 100.4 116.321 101.36 118.289 101.552C120.161 101.744 121.649 101.408 122.657 100.784C123.857 100.064 124.865 100.352 125.489 101.408C126.209 102.608 126.017 103.712 124.577 104.624C122.993 105.68 120.881 106.256 117.809 106.016C113.009 105.632 109.361 102.512 109.361 96.272C109.361 91.136 112.721 87.008 118.289 87.008C123.089 87.008 126.449 89.696 126.449 93.536ZM121.937 93.44C121.937 92.384 120.305 91.52 118.337 91.472C116.801 91.424 115.169 92.624 114.641 94.208C115.457 94.688 116.465 94.928 118.673 95.024C121.601 95.12 121.937 93.92 121.937 93.44ZM138.662 100.16H143.99C145.43 100.16 146.294 101.072 146.246 102.416C146.198 103.904 145.286 104.72 143.942 104.72H136.646C134.726 104.72 133.67 103.952 133.67 101.984V93.584H130.598C129.494 93.584 128.678 92.672 128.678 91.376C128.678 90.032 129.35 89.168 130.694 89.168H133.67V84.944C133.67 83.744 134.726 82.976 136.166 82.976C137.654 82.976 138.662 83.792 138.662 84.992V89.168H144.662C145.862 89.168 146.678 89.984 146.678 91.328C146.678 92.72 145.814 93.584 144.614 93.584H138.662V100.16Z" fill="#FFCC49"/>
<path d="M220.294 389.063L219.006 398.856L215.997 405.858L217.466 410.563L212.877 445.459C212.605 447.476 213.798 449.372 215.642 449.879L263.645 463.058C265.489 463.564 267.448 462.533 268.197 460.647L288.932 407.908L256.18 392.38L220.294 389.063Z" fill="#FFCC49"/>
<path d="M219.349 399.297L217.829 410.843C216.344 412.797 215.018 414.702 213.931 416.529C211.609 420.43 210.756 423.356 211.056 425.35C211.287 426.883 212.371 428.756 216.757 430.173C221.049 431.558 224.724 431.782 228.059 431.172C231.41 430.561 234.596 429.076 237.861 426.789C243.569 422.79 249.125 416.657 255.943 409.13L255.946 409.126C257.112 407.839 258.315 406.511 259.562 405.146C260.714 403.885 262.642 403.82 263.869 405.001C265.096 406.183 265.157 408.163 264.005 409.424C262.81 410.732 261.639 412.027 260.486 413.301C253.721 420.778 247.616 427.526 241.292 431.956C237.513 434.604 233.529 436.528 229.12 437.333C224.697 438.141 220.024 437.789 214.921 436.142C209.315 434.33 205.754 431.093 205.033 426.314C204.382 421.995 206.27 417.406 208.731 413.271C211.268 409.008 214.827 404.56 218.456 400.332C218.753 399.986 219.051 399.641 219.349 399.297Z" fill="#D3D3D3"/>
<path d="M217.772 385.959L218.659 378.271C218.814 377.065 219.962 376.233 221.1 376.545L295.212 396.893C296.35 397.205 296.938 398.514 296.484 399.638L293.47 406.743C292.786 408.377 291.079 409.259 289.462 408.815L220.261 389.816C218.614 389.363 217.566 387.726 217.772 385.959Z" fill="#EDAB00"/>
</g>
<defs>
<filter id="filter0_b_115_699" x="-4" y="-4" width="328" height="488" filterUnits="userSpaceOnUse" color-interpolation-filters="sRGB">
<feFlood flood-opacity="0" result="BackgroundImageFix"/>
<feGaussianBlur in="BackgroundImageFix" stdDeviation="2"/>
<feComposite in2="SourceAlpha" operator="in" result="effect1_backgroundBlur_115_699"/>
<feBlend mode="normal" in="SourceGraphic" in2="effect1_backgroundBlur_115_699" result="shape"/>
</filter>
</defs>
</svg>
