<svg width="396" height="395" viewBox="0 0 396 395" fill="none" xmlns="http://www.w3.org/2000/svg">
<rect x="0.951172" width="395" height="395" rx="197.5" fill="white"/>
<path d="M120.909 105.352L117.238 133.266L108.662 153.225L112.85 166.639L99.7685 266.11C98.9921 271.859 102.394 277.265 107.651 278.708L244.484 316.276C249.74 317.719 255.325 314.781 257.458 309.404L316.564 159.069L223.205 114.806L120.909 105.352Z" fill="#FFCC49"/>
<path d="M118.216 134.525L113.881 167.436C109.649 173.005 105.87 178.436 102.771 183.643C96.1532 194.764 93.7194 203.104 94.5763 208.787C95.2351 213.157 98.3245 218.496 110.826 222.536C123.061 226.486 133.536 227.122 143.044 225.385C152.595 223.641 161.677 219.409 170.983 212.89C187.255 201.49 203.091 184.007 222.526 162.552L222.534 162.543C225.858 158.873 229.287 155.088 232.842 151.196C236.126 147.601 241.623 147.417 245.121 150.784C248.619 154.151 248.792 159.795 245.508 163.39C242.102 167.119 238.762 170.81 235.477 174.441C216.193 195.757 198.791 214.991 180.764 227.62C169.992 235.166 158.634 240.652 146.068 242.947C133.459 245.25 120.139 244.247 105.592 239.551C89.6133 234.387 79.461 225.159 77.4069 211.535C75.5509 199.225 80.9327 186.145 87.9488 174.356C95.179 162.207 105.324 149.527 115.67 137.475C116.516 136.489 117.365 135.506 118.216 134.525Z" fill="#D3D3D3"/>
<path d="M113.721 96.495L116.25 74.5799C116.692 71.1414 119.966 68.769 123.209 69.6595L334.466 127.66C337.709 128.551 339.387 132.283 338.091 135.487L329.502 155.738C327.552 160.398 322.686 162.91 318.077 161.645L120.819 107.487C116.124 106.198 113.137 101.53 113.721 96.495Z" fill="#EDAB00"/>
</svg>
