<svg width="320" height="480" viewBox="0 0 320 480" fill="none" xmlns="http://www.w3.org/2000/svg">
<g filter="url(#filter0_b_115_702)">
<rect width="320" height="480" rx="24" fill="white"/>
<path d="M41.808 109.092C32.568 109.092 26.1 102.372 26.1 92.838C26.1 83.262 32.568 76.542 41.808 76.584C46.176 76.584 50.082 78.432 52.896 81.33L48.822 85.824C47.352 83.64 44.622 82.128 41.766 82.128C36.054 82.086 32.484 86.202 32.484 92.838C32.484 99.432 36.054 103.548 41.766 103.548C45.126 103.548 47.31 101.784 48.528 100.104L52.896 104.346C50.082 107.244 46.68 109.176 41.808 109.092ZM56.2455 76.92H62.6295V108.756H56.2455V76.92ZM67.6695 86.202H74.0535V108.756H67.6695V86.202ZM67.5435 79.356C67.5435 77.424 68.9295 76.038 70.8615 76.038C72.7935 76.038 74.1795 77.424 74.1795 79.356C74.1795 81.288 72.7935 82.674 70.8615 82.674C68.9295 82.674 67.5435 81.288 67.5435 79.356ZM91.5281 103.716C94.6361 103.716 96.5681 101.238 96.5681 97.248C96.5681 93.3 94.6361 90.822 91.5281 90.822C88.3781 90.822 85.9001 93.636 85.9001 97.248C85.9001 100.86 88.3781 103.716 91.5281 103.716ZM79.5161 117.744V85.866H85.9001V88.554C88.0001 86.16 91.4021 85.782 92.1161 85.782C98.4581 85.782 102.952 90.528 102.952 97.248C102.952 104.01 98.4581 108.756 92.1161 108.756C91.4021 108.756 88.0001 108.672 85.9001 105.9V117.744H79.5161Z" fill="#CCBAFF"/>
<path fill-rule="evenodd" clip-rule="evenodd" d="M247.5 358C220.714 358 199 379.714 199 406.5C199 433.286 220.714 455 247.5 455C274.286 455 296 433.286 296 406.5C296 379.714 274.286 358 247.5 358ZM226.035 425.539C230.108 427.89 234.453 428.447 239.071 427.21L268.431 419.343C269.084 419.168 269.567 418.81 269.879 418.269C270.191 417.728 270.26 417.131 270.085 416.479C269.91 415.826 269.552 415.344 269.011 415.032C268.47 414.719 267.874 414.651 267.221 414.825L237.86 422.693C234.548 423.58 231.396 423.161 228.405 421.434C225.414 419.707 223.475 417.187 222.587 413.875C221.699 410.562 222.119 407.41 223.846 404.419C225.573 401.428 228.092 399.489 231.405 398.602L263.024 390.129C265.133 389.564 267.109 389.815 268.955 390.88C270.8 391.946 272.006 393.532 272.57 395.64C273.135 397.748 272.885 399.725 271.819 401.571C270.754 403.416 269.167 404.621 267.059 405.186L238.451 412.852C237.598 413.08 236.805 412.983 236.073 412.561C235.341 412.138 234.861 411.5 234.633 410.647C234.404 409.794 234.501 409.001 234.923 408.27C235.346 407.538 235.984 407.057 236.837 406.829L263.187 399.768C263.839 399.594 264.322 399.236 264.634 398.695C264.946 398.154 265.015 397.557 264.84 396.905C264.665 396.252 264.307 395.77 263.766 395.458C263.226 395.145 262.629 395.077 261.976 395.251L235.627 402.312C233.519 402.877 231.932 404.082 230.866 405.927C229.801 407.773 229.55 409.75 230.115 411.857C230.68 413.965 231.886 415.552 233.731 416.618C235.577 417.683 237.553 417.934 239.661 417.369L268.27 409.703C271.582 408.816 274.102 406.876 275.828 403.885C277.555 400.894 277.975 397.743 277.087 394.43C276.2 391.117 274.26 388.598 271.27 386.871C268.279 385.144 265.127 384.724 261.814 385.612L230.195 394.084C225.577 395.322 222.093 397.977 219.741 402.05C217.39 406.122 216.833 410.468 218.07 415.085C219.307 419.703 221.962 423.187 226.035 425.539Z" fill="#CCBAFF"/>
</g>
<defs>
<filter id="filter0_b_115_702" x="-4" y="-4" width="328" height="488" filterUnits="userSpaceOnUse" color-interpolation-filters="sRGB">
<feFlood flood-opacity="0" result="BackgroundImageFix"/>
<feGaussianBlur in="BackgroundImageFix" stdDeviation="2"/>
<feComposite in2="SourceAlpha" operator="in" result="effect1_backgroundBlur_115_702"/>
<feBlend mode="normal" in="SourceGraphic" in2="effect1_backgroundBlur_115_702" result="shape"/>
</filter>
</defs>
</svg>
