<svg width="320" height="480" viewBox="0 0 320 480" fill="none" xmlns="http://www.w3.org/2000/svg">
<g filter="url(#filter0_b_397_712)">
<g clip-path="url(#clip0_397_712)">
<rect width="320" height="480" rx="24" fill="white"/>
<path d="M-45.408 187.408L-36.408 178.408L-35.04 179.824L-42.6 187.408L-35.04 195.016L-36.408 196.408L-45.408 187.408ZM-28.1916 178.408L-28.5036 191.68H-30.3756L-30.7356 178.408H-28.1916ZM-30.7356 195.088C-30.7356 194.32 -30.1836 193.792 -29.4156 193.792C-28.6716 193.792 -28.1436 194.32 -28.1436 195.088C-28.1436 195.856 -28.6716 196.408 -29.4156 196.408C-30.1836 196.408 -30.7356 195.856 -30.7356 195.088ZM-18.8023 194.296C-14.8183 194.296 -12.0583 191.44 -12.0583 187.336C-12.0583 183.232 -14.8183 180.376 -18.8023 180.376H-21.4903V194.296H-18.8023ZM-23.5063 196.072V178.6H-18.8023C-13.6903 178.6 -10.0903 182.2 -10.0903 187.336C-10.0903 192.472 -13.6903 196.072 -18.8023 196.072H-23.5063ZM0.902626 194.488C4.81463 194.488 7.50263 191.56 7.50263 187.336C7.50263 183.112 4.81463 180.184 0.902626 180.184C-2.98537 180.184 -5.67337 183.112 -5.67337 187.336C-5.67337 191.56 -2.98537 194.488 0.902626 194.488ZM-7.71337 187.336C-7.71337 182.104 -4.13737 178.408 0.902626 178.408C5.96663 178.408 9.54263 182.104 9.54263 187.336C9.54263 192.568 5.96663 196.264 0.902626 196.264C-4.13737 196.264 -7.71337 192.568 -7.71337 187.336ZM20.5181 196.264C15.4541 196.264 11.9021 192.568 11.9021 187.336C11.9021 182.08 15.4541 178.408 20.5181 178.408C22.9181 178.408 25.0541 179.44 26.6141 181.024L25.2701 182.224C24.0941 180.952 22.3421 180.184 20.5181 180.184C16.6301 180.184 13.9421 183.112 13.9421 187.336C13.9421 191.56 16.6301 194.488 20.5181 194.488C22.3901 194.488 24.0461 193.696 25.1981 192.472L26.6141 193.648C25.0541 195.232 22.9421 196.264 20.5181 196.264ZM41.3391 178.6V180.376H36.2271V196.072H34.2111V180.376H29.0991V178.6H41.3391ZM57.3668 178.6L51.3668 189.256V196.072H49.3748V189.256L43.3508 178.6H45.6788L50.3588 187L55.0628 178.6H57.3668ZM66.4251 187.288C68.4891 187.288 69.9291 185.848 69.9291 183.832C69.9291 181.816 68.4651 180.376 66.4011 180.376H62.3211L62.3451 187.288H66.4251ZM60.3291 196.072V178.6H66.4731C69.6651 178.6 71.8971 180.76 71.8971 183.832C71.8971 186.88 69.6651 189.04 66.4731 189.04H62.3451V196.072H60.3291ZM85.9628 178.6V180.376H77.0108V186.184H84.7388V187.96H77.0108V194.296H85.9628V196.072H74.9948V178.6H85.9628ZM102.574 189.856C102.574 187.936 101.566 186.616 100.054 186.616C98.4223 186.616 97.0543 188.272 97.0543 190.216V196H95.0383V179.128H97.0543V186.52C97.7263 185.536 98.8543 184.84 100.054 184.84C102.694 184.84 104.59 186.88 104.59 189.688V196H102.574V189.856ZM108.988 196.072V186.64H106.948V184.864H108.988V181H111.004V184.864H113.644V186.64H111.004V196.072H108.988ZM130.691 189.4C130.691 187.768 129.731 186.664 128.339 186.664C126.731 186.664 125.627 187.72 125.627 189.208V196.072H123.611V189.4C123.611 187.768 122.675 186.664 121.307 186.664C119.675 186.664 118.547 188.032 118.547 189.616V196.072H116.555V184.888H118.547V186.496C119.219 185.536 120.323 184.888 121.379 184.888C122.771 184.888 124.139 185.728 124.787 186.952C125.531 185.728 126.995 184.888 128.387 184.888C130.907 184.888 132.707 186.688 132.707 189.256V196.072H130.691V189.4ZM135.882 179.128H137.874V196.072H135.882V179.128ZM151.548 187.408L142.572 196.408L141.18 195.016L148.764 187.408L141.18 179.824L142.572 178.408L151.548 187.408ZM162.272 187.408L171.272 178.408L172.64 179.824L165.08 187.408L172.64 195.016L171.272 196.408L162.272 187.408ZM183.832 189.856C183.832 187.936 182.824 186.616 181.312 186.616C179.68 186.616 178.312 188.272 178.312 190.216V196H176.296V179.128H178.312V186.52C178.984 185.536 180.112 184.84 181.312 184.84C183.952 184.84 185.848 186.88 185.848 189.688V196H183.832V189.856ZM190.246 196.072V186.64H188.206V184.864H190.246V181H192.262V184.864H194.902V186.64H192.262V196.072H190.246ZM211.948 189.4C211.948 187.768 210.988 186.664 209.596 186.664C207.988 186.664 206.884 187.72 206.884 189.208V196.072H204.868V189.4C204.868 187.768 203.932 186.664 202.564 186.664C200.932 186.664 199.804 188.032 199.804 189.616V196.072H197.812V184.888H199.804V186.496C200.476 185.536 201.58 184.888 202.636 184.888C204.028 184.888 205.396 185.728 206.044 186.952C206.788 185.728 208.252 184.888 209.644 184.888C212.164 184.888 213.964 186.688 213.964 189.256V196.072H211.948V189.4ZM217.14 179.128H219.132V196.072H217.14V179.128ZM227.921 179.128H229.913V196.072H227.921V179.128ZM237.742 196.216C234.646 196.216 232.438 193.864 232.438 190.576C232.438 187.264 234.646 184.912 237.742 184.912C238.942 184.912 240.262 185.512 241.222 186.808V184.888H243.214V196.072H241.222V194.272C240.238 195.688 238.942 196.216 237.742 196.216ZM234.43 190.576C234.43 192.856 235.822 194.464 237.814 194.464C239.614 194.464 241.222 192.832 241.246 190.576C241.222 188.32 239.614 186.664 237.814 186.664C235.822 186.664 234.43 188.248 234.43 190.576ZM253.91 189.64C253.91 187.84 252.854 186.664 251.27 186.664C249.494 186.664 248.246 188.032 248.246 189.64V196.072H246.254V184.888H248.246V186.52C249.014 185.56 250.262 184.888 251.366 184.888C253.814 184.888 255.902 186.568 255.902 189.496V196.072H253.91V189.64ZM263.994 194.416C265.914 194.416 267.378 192.664 267.378 190.528C267.378 188.44 265.89 186.64 263.994 186.64C262.002 186.64 260.61 188.248 260.61 190.528C260.61 192.856 262.002 194.416 263.994 194.416ZM258.618 190.552C258.618 187.264 260.826 184.864 263.922 184.864C265.314 184.864 266.634 185.608 267.378 186.784V184.864H269.394V195.352C269.394 198.592 267.234 201.184 263.874 201.184C262.05 201.184 260.37 200.368 259.242 198.592L260.874 197.56C261.666 198.832 262.65 199.384 263.874 199.384C266.082 199.384 267.378 197.608 267.378 195.4V194.2C266.562 195.4 265.17 196.192 263.922 196.192C260.826 196.192 258.618 193.84 258.618 190.552ZM273.811 183.256H284.995V185.2H273.811V183.256ZM273.811 191.2V189.232H284.995V191.2H273.811ZM291.37 177.232L291.082 182.08H289.642L289.378 177.232H291.37ZM292.906 177.232H294.874L294.61 182.104H293.146L292.906 177.232ZM301.704 196.168C298.56 196.168 296.352 193.816 296.352 190.528C296.352 187.216 298.56 184.888 301.704 184.888C305.16 184.888 306.216 187.672 306.312 187.936C306.984 189.664 306.768 191.32 306.768 191.392H298.368C298.656 193.168 300.048 194.416 301.704 194.416C303.912 194.416 304.728 193.024 304.896 192.76L306.48 193.576C305.928 194.824 304.344 196.168 301.704 196.168ZM298.368 189.688L304.824 189.664C304.608 187.96 303.768 186.64 301.704 186.64C300 186.64 298.656 187.888 298.368 189.688ZM317.214 189.64C317.214 187.84 316.158 186.664 314.574 186.664C312.798 186.664 311.55 188.032 311.55 189.64V196.072H309.558V184.888H311.55V186.52C312.318 185.56 313.566 184.888 314.67 184.888C317.118 184.888 319.206 186.568 319.206 189.496V196.072H317.214V189.64ZM323.855 177.232L323.567 182.08H322.127L321.863 177.232H323.855ZM325.391 177.232H327.359L327.095 182.104H325.631L325.391 177.232ZM341.204 187.408L332.228 196.408L330.836 195.016L338.42 187.408L330.836 179.824L332.228 178.408L341.204 187.408ZM-45.408 211.408L-36.408 202.408L-35.04 203.824L-42.6 211.408L-35.04 219.016L-36.408 220.408L-45.408 211.408ZM-23.8476 213.856C-23.8476 211.936 -24.8556 210.616 -26.3676 210.616C-27.9996 210.616 -29.3676 212.272 -29.3676 214.216V220H-31.3836V203.128H-29.3676V210.52C-28.6956 209.536 -27.5676 208.84 -26.3676 208.84C-23.7276 208.84 -21.8316 210.88 -21.8316 213.688V220H-23.8476V213.856ZM-13.4597 220.168C-16.6037 220.168 -18.8117 217.816 -18.8117 214.528C-18.8117 211.216 -16.6037 208.888 -13.4597 208.888C-10.0037 208.888 -8.94769 211.672 -8.85169 211.936C-8.17969 213.664 -8.39569 215.32 -8.39569 215.392H-16.7957C-16.5077 217.168 -15.1157 218.416 -13.4597 218.416C-11.2517 218.416 -10.4357 217.024 -10.2677 216.76L-8.68369 217.576C-9.23569 218.824 -10.8197 220.168 -13.4597 220.168ZM-16.7957 213.688L-10.3397 213.664C-10.5557 211.96 -11.3957 210.64 -13.4597 210.64C-15.1637 210.64 -16.5077 211.888 -16.7957 213.688ZM-0.734249 220.216C-3.83025 220.216 -6.03825 217.864 -6.03825 214.576C-6.03825 211.264 -3.83025 208.912 -0.734249 208.912C0.46575 208.912 1.78575 209.512 2.74575 210.808V208.888H4.73775V220.072H2.74575V218.272C1.76175 219.688 0.46575 220.216 -0.734249 220.216ZM-4.04625 214.576C-4.04625 216.856 -2.65425 218.464 -0.66225 218.464C1.13775 218.464 2.74575 216.832 2.76975 214.576C2.74575 212.32 1.13775 210.664 -0.66225 210.664C-2.65425 210.664 -4.04625 212.248 -4.04625 214.576ZM13.0476 220.216C9.92756 220.216 7.71956 217.864 7.71956 214.528C7.71956 211.216 9.92756 208.864 13.0476 208.864C14.2476 208.864 15.6636 209.416 16.5996 210.832V203.128H18.5916V220.072H16.5996V218.248C15.6396 219.616 14.2476 220.216 13.0476 220.216ZM9.71156 214.528C9.71156 216.856 11.1036 218.464 13.1436 218.464C14.9916 218.464 16.5996 216.712 16.5996 214.528C16.5996 212.392 14.9916 210.616 13.1436 210.616C11.1036 210.616 9.71156 212.224 9.71156 214.528ZM32.4855 211.408L23.5095 220.408L22.1175 219.016L29.7015 211.408L22.1175 203.824L23.5095 202.408L32.4855 211.408ZM43.2092 211.408L52.2092 202.408L53.5772 203.824L46.0172 211.408L53.5772 219.016L52.2092 220.408L43.2092 211.408ZM71.3936 213.4C71.3936 211.768 70.4336 210.664 69.0416 210.664C67.4336 210.664 66.3296 211.72 66.3296 213.208V220.072H64.3136V213.4C64.3136 211.768 63.3776 210.664 62.0096 210.664C60.3776 210.664 59.2496 212.032 59.2496 213.616V220.072H57.2576V208.888H59.2496V210.496C59.9216 209.536 61.0256 208.888 62.0816 208.888C63.4736 208.888 64.8416 209.728 65.4896 210.952C66.2336 209.728 67.6976 208.888 69.0896 208.888C71.6096 208.888 73.4096 210.688 73.4096 213.256V220.072H71.3936V213.4ZM81.6731 220.168C78.5291 220.168 76.3211 217.816 76.3211 214.528C76.3211 211.216 78.5291 208.888 81.6731 208.888C85.1291 208.888 86.1851 211.672 86.2811 211.936C86.9531 213.664 86.7371 215.32 86.7371 215.392H78.3371C78.6251 217.168 80.0171 218.416 81.6731 218.416C83.8811 218.416 84.6971 217.024 84.8651 216.76L86.4491 217.576C85.8971 218.824 84.3131 220.168 81.6731 220.168ZM78.3371 213.688L84.7931 213.664C84.5771 211.96 83.7371 210.64 81.6731 210.64C79.9691 210.64 78.6251 211.888 78.3371 213.688ZM90.3789 220.072V210.64H88.3389V208.864H90.3789V205H92.3949V208.864H95.0349V210.64H92.3949V220.072H90.3789ZM101.922 220.216C98.826 220.216 96.618 217.864 96.618 214.576C96.618 211.264 98.826 208.912 101.922 208.912C103.122 208.912 104.442 209.512 105.402 210.808V208.888H107.394V220.072H105.402V218.272C104.418 219.688 103.122 220.216 101.922 220.216ZM98.61 214.576C98.61 216.856 100.002 218.464 101.994 218.464C103.794 218.464 105.402 216.832 105.426 214.576C105.402 212.32 103.794 210.664 101.994 210.664C100.002 210.664 98.61 212.248 98.61 214.576ZM121.229 218.272C122.213 218.272 123.365 217.792 124.013 217.048L125.453 218.392C124.469 219.448 122.717 220.192 121.325 220.192C117.989 220.192 115.637 217.816 115.637 214.528C115.637 211.216 117.989 208.864 121.325 208.864C122.741 208.864 124.445 209.632 125.453 210.688L124.013 212.008C123.365 211.264 122.213 210.784 121.229 210.784C119.117 210.784 117.629 212.296 117.629 214.528C117.629 216.76 119.117 218.272 121.229 218.272ZM135.481 213.856C135.481 211.936 134.473 210.616 132.961 210.616C131.329 210.616 129.961 212.272 129.961 214.216V220H127.945V203.128H129.961V210.52C130.633 209.536 131.761 208.84 132.961 208.84C135.601 208.84 137.497 210.88 137.497 213.688V220H135.481V213.856ZM145.82 220.216C142.724 220.216 140.516 217.864 140.516 214.576C140.516 211.264 142.724 208.912 145.82 208.912C147.02 208.912 148.34 209.512 149.3 210.808V208.888H151.292V220.072H149.3V218.272C148.316 219.688 147.02 220.216 145.82 220.216ZM142.508 214.576C142.508 216.856 143.9 218.464 145.892 218.464C147.692 218.464 149.3 216.832 149.324 214.576C149.3 212.32 147.692 210.664 145.892 210.664C143.9 210.664 142.508 212.248 142.508 214.576ZM154.212 220.072V208.888H156.204V210.736C156.948 209.536 158.46 208.72 159.948 208.792V210.712C157.908 210.64 156.204 212.416 156.204 214.384V220.072H154.212ZM163.195 216.496C163.819 217.84 165.139 218.416 165.979 218.416C167.323 218.416 168.283 217.84 168.283 216.88C168.283 215.968 167.035 215.608 165.787 215.176C164.251 214.648 162.091 213.976 162.091 211.84C162.091 209.944 163.843 208.768 166.075 208.768C167.395 208.768 169.507 209.536 170.035 211.528L168.283 212.128C167.923 210.808 166.723 210.544 166.075 210.544C164.923 210.544 164.083 211.024 164.083 211.84C164.083 212.752 165.235 213.064 166.579 213.52C168.187 214.072 170.275 214.744 170.275 216.88C170.275 218.872 168.451 220.168 165.979 220.168C164.275 220.168 162.499 219.208 161.587 217.456L163.195 216.496ZM178.142 220.168C174.998 220.168 172.79 217.816 172.79 214.528C172.79 211.216 174.998 208.888 178.142 208.888C181.598 208.888 182.654 211.672 182.75 211.936C183.422 213.664 183.206 215.32 183.206 215.392H174.806C175.094 217.168 176.486 218.416 178.142 218.416C180.35 218.416 181.166 217.024 181.334 216.76L182.918 217.576C182.366 218.824 180.782 220.168 178.142 220.168ZM174.806 213.688L181.262 213.664C181.046 211.96 180.206 210.64 178.142 210.64C176.438 210.64 175.094 211.888 174.806 213.688ZM186.848 220.072V210.64H184.808V208.864H186.848V205H188.864V208.864H191.504V210.64H188.864V220.072H186.848ZM195.412 207.256H206.596V209.2H195.412V207.256ZM195.412 215.2V213.232H206.596V215.2H195.412ZM212.972 201.232L212.684 206.08H211.244L210.98 201.232H212.972ZM214.508 201.232H216.476L216.212 206.104H214.748L214.508 201.232ZM226.889 220.24C222.761 220.24 220.361 217.336 220.361 213.232V202.6H222.377V213.256C222.377 216.304 223.937 218.416 226.889 218.416C229.841 218.416 231.425 216.304 231.425 213.256V202.6H233.441V213.232C233.441 217.336 231.017 220.24 226.889 220.24ZM248.972 202.6V204.376H243.86V220.072H241.844V204.376H236.732V202.6H248.972ZM263.057 202.6V204.376H254.345V210.424H261.713V212.176H254.345V220.072H252.329V202.6H263.057ZM265.796 210.16H276.044V212.152H265.796V210.16ZM284.696 218.512C286.904 218.512 288.44 217.096 288.44 215.08C288.44 213.136 286.904 211.744 284.696 211.744C282.512 211.744 280.952 213.136 280.952 215.08C280.952 217.096 282.512 218.512 284.696 218.512ZM278.96 215.056C278.96 213.544 280.136 211.792 281.792 210.856C280.4 209.896 279.416 208.36 279.416 207.112C279.416 204.304 281.6 202.336 284.696 202.336C287.816 202.336 290 204.304 290 207.112C290 208.36 289.04 209.92 287.624 210.856C289.28 211.816 290.456 213.544 290.456 215.056C290.456 218.128 288.08 220.264 284.696 220.264C281.336 220.264 278.96 218.128 278.96 215.056ZM281.432 207.088C281.432 208.792 282.776 209.992 284.696 209.992C286.64 209.992 288.008 208.792 288.008 207.088C288.008 205.312 286.64 204.088 284.696 204.088C282.776 204.088 281.432 205.312 281.432 207.088ZM295.519 201.232L295.231 206.08H293.791L293.527 201.232H295.519ZM297.055 201.232H299.023L298.759 206.104H297.295L297.055 201.232ZM312.868 211.408L303.892 220.408L302.5 219.016L310.084 211.408L302.5 203.824L303.892 202.408L312.868 211.408ZM-45.408 235.408L-36.408 226.408L-35.04 227.824L-42.6 235.408L-35.04 243.016L-36.408 244.408L-45.408 235.408ZM-17.2236 237.4C-17.2236 235.768 -18.1836 234.664 -19.5756 234.664C-21.1836 234.664 -22.2876 235.72 -22.2876 237.208V244.072H-24.3036V237.4C-24.3036 235.768 -25.2396 234.664 -26.6076 234.664C-28.2396 234.664 -29.3676 236.032 -29.3676 237.616V244.072H-31.3596V232.888H-29.3676V234.496C-28.6956 233.536 -27.5916 232.888 -26.5356 232.888C-25.1436 232.888 -23.7756 233.728 -23.1276 234.952C-22.3836 233.728 -20.9196 232.888 -19.5276 232.888C-17.0076 232.888 -15.2076 234.688 -15.2076 237.256V244.072H-17.2236V237.4ZM-6.94406 244.168C-10.0881 244.168 -12.2961 241.816 -12.2961 238.528C-12.2961 235.216 -10.0881 232.888 -6.94406 232.888C-3.48806 232.888 -2.43206 235.672 -2.33606 235.936C-1.66406 237.664 -1.88006 239.32 -1.88006 239.392H-10.2801C-9.99206 241.168 -8.60006 242.416 -6.94406 242.416C-4.73606 242.416 -3.92006 241.024 -3.75206 240.76L-2.16806 241.576C-2.72006 242.824 -4.30406 244.168 -6.94406 244.168ZM-10.2801 237.688L-3.82406 237.664C-4.04006 235.96 -4.88006 234.64 -6.94406 234.64C-8.64806 234.64 -9.99206 235.888 -10.2801 237.688ZM1.76175 244.072V234.64H-0.27825V232.864H1.76175V229H3.77775V232.864H6.41775V234.64H3.77775V244.072H1.76175ZM13.3048 244.216C10.2088 244.216 8.00081 241.864 8.00081 238.576C8.00081 235.264 10.2088 232.912 13.3048 232.912C14.5048 232.912 15.8248 233.512 16.7848 234.808V232.888H18.7768V244.072H16.7848V242.272C15.8008 243.688 14.5048 244.216 13.3048 244.216ZM9.99281 238.576C9.99281 240.856 11.3848 242.464 13.3768 242.464C15.1768 242.464 16.7848 240.832 16.8088 238.576C16.7848 236.32 15.1768 234.664 13.3768 234.664C11.3848 234.664 9.99281 236.248 9.99281 238.576ZM35.6363 237.64C35.6363 235.84 34.5803 234.664 32.9963 234.664C31.2203 234.664 29.9723 236.032 29.9723 237.64V244.072H27.9803V232.888H29.9723V234.52C30.7403 233.56 31.9883 232.888 33.0923 232.888C35.5403 232.888 37.6283 234.568 37.6283 237.496V244.072H35.6363V237.64ZM45.6486 244.216C42.5526 244.216 40.3446 241.864 40.3446 238.576C40.3446 235.264 42.5526 232.912 45.6486 232.912C46.8486 232.912 48.1686 233.512 49.1286 234.808V232.888H51.1206V244.072H49.1286V242.272C48.1446 243.688 46.8486 244.216 45.6486 244.216ZM42.3366 238.576C42.3366 240.856 43.7286 242.464 45.7206 242.464C47.5206 242.464 49.1286 240.832 49.1526 238.576C49.1286 236.32 47.5206 234.664 45.7206 234.664C43.7286 234.664 42.3366 236.248 42.3366 238.576ZM68.4639 237.4C68.4639 235.768 67.5039 234.664 66.1119 234.664C64.5039 234.664 63.3999 235.72 63.3999 237.208V244.072H61.3839V237.4C61.3839 235.768 60.4479 234.664 59.0799 234.664C57.4479 234.664 56.3199 236.032 56.3199 237.616V244.072H54.3279V232.888H56.3199V234.496C56.9919 233.536 58.0959 232.888 59.1519 232.888C60.5439 232.888 61.9119 233.728 62.5599 234.952C63.3039 233.728 64.7679 232.888 66.1599 232.888C68.6799 232.888 70.4799 234.688 70.4799 237.256V244.072H68.4639V237.4ZM78.7434 244.168C75.5994 244.168 73.3914 241.816 73.3914 238.528C73.3914 235.216 75.5994 232.888 78.7434 232.888C82.1994 232.888 83.2554 235.672 83.3514 235.936C84.0234 237.664 83.8074 239.32 83.8074 239.392H75.4074C75.6954 241.168 77.0874 242.416 78.7434 242.416C80.9514 242.416 81.7674 241.024 81.9354 240.76L83.5194 241.576C82.9674 242.824 81.3834 244.168 78.7434 244.168ZM75.4074 237.688L81.8634 237.664C81.6474 235.96 80.8074 234.64 78.7434 234.64C77.0394 234.64 75.6954 235.888 75.4074 237.688ZM87.8342 231.256H99.0182V233.2H87.8342V231.256ZM87.8342 239.2V237.232H99.0182V239.2H87.8342ZM105.394 225.232L105.106 230.08H103.666L103.402 225.232H105.394ZM106.93 225.232H108.898L108.634 230.104H107.17L106.93 225.232ZM122.983 232.888L118.303 244.072H116.479L111.823 232.888H114.007L117.391 241.36L120.775 232.888H122.983ZM125.577 232.864H127.569V244.072H125.577V232.864ZM125.361 228.52C125.361 227.824 125.865 227.32 126.585 227.32C127.281 227.32 127.785 227.824 127.785 228.52C127.785 229.24 127.281 229.744 126.585 229.744C125.865 229.744 125.361 229.24 125.361 228.52ZM136.072 244.168C132.928 244.168 130.72 241.816 130.72 238.528C130.72 235.216 132.928 232.888 136.072 232.888C139.528 232.888 140.584 235.672 140.68 235.936C141.352 237.664 141.136 239.32 141.136 239.392H132.736C133.024 241.168 134.416 242.416 136.072 242.416C138.28 242.416 139.096 241.024 139.264 240.76L140.848 241.576C140.296 242.824 138.712 244.168 136.072 244.168ZM132.736 237.688L139.192 237.664C138.976 235.96 138.136 234.64 136.072 234.64C134.368 234.64 133.024 235.888 132.736 237.688ZM157.581 232.888L154.269 244.072H152.445L149.997 236.248L147.597 244.072H145.773L142.389 232.888H144.453L146.709 240.664L148.965 232.888H150.981L153.333 240.688L155.517 232.888H157.581ZM165.619 242.44C167.659 242.44 169.027 240.856 169.027 238.528C169.027 236.224 167.659 234.616 165.619 234.616C163.771 234.616 162.211 236.392 162.211 238.528C162.211 240.688 163.771 242.44 165.619 242.44ZM160.195 249.184V232.864H162.187V234.76C163.027 233.488 164.563 232.864 165.691 232.864C168.811 232.864 171.019 235.216 171.019 238.528C171.019 241.864 168.811 244.216 165.691 244.216C164.515 244.216 163.027 243.496 162.187 242.296V249.184H160.195ZM178.634 242.44C180.626 242.44 181.994 240.856 181.994 238.552C181.994 236.248 180.626 234.64 178.634 234.64C176.666 234.64 175.298 236.224 175.298 238.552C175.298 240.88 176.642 242.44 178.634 242.44ZM173.306 238.552C173.306 235.24 175.514 232.864 178.634 232.864C181.778 232.864 184.01 235.24 184.01 238.552C184.01 241.84 181.778 244.216 178.634 244.216C175.514 244.216 173.306 241.84 173.306 238.552ZM186.579 244.072V232.888H188.571V234.736C189.315 233.536 190.827 232.72 192.315 232.792V234.712C190.275 234.64 188.571 236.416 188.571 238.384V244.072H186.579ZM196.48 244.072V234.64H194.441V232.864H196.48V229H198.497V232.864H201.137V234.64H198.497V244.072H196.48ZM206.245 225.232L205.957 230.08H204.517L204.253 225.232H206.245ZM207.781 225.232H209.749L209.485 230.104H208.021L207.781 225.232ZM-41.544 266.272C-40.56 266.272 -39.408 265.792 -38.76 265.048L-37.32 266.392C-38.304 267.448 -40.056 268.192 -41.448 268.192C-44.784 268.192 -47.136 265.816 -47.136 262.528C-47.136 259.216 -44.784 256.864 -41.448 256.864C-40.032 256.864 -38.328 257.632 -37.32 258.688L-38.76 260.008C-39.408 259.264 -40.56 258.784 -41.544 258.784C-43.656 258.784 -45.144 260.296 -45.144 262.528C-45.144 264.76 -43.656 266.272 -41.544 266.272ZM-30.3352 266.44C-28.3432 266.44 -26.9752 264.856 -26.9752 262.552C-26.9752 260.248 -28.3432 258.64 -30.3352 258.64C-32.3032 258.64 -33.6712 260.224 -33.6712 262.552C-33.6712 264.88 -32.3272 266.44 -30.3352 266.44ZM-35.6632 262.552C-35.6632 259.24 -33.4552 256.864 -30.3352 256.864C-27.1912 256.864 -24.9592 259.24 -24.9592 262.552C-24.9592 265.84 -27.1912 268.216 -30.3352 268.216C-33.4552 268.216 -35.6632 265.84 -35.6632 262.552ZM-14.6137 261.64C-14.6137 259.84 -15.6697 258.664 -17.2537 258.664C-19.0297 258.664 -20.2777 260.032 -20.2777 261.64V268.072H-22.2697V256.888H-20.2777V258.52C-19.5097 257.56 -18.2617 256.888 -17.1577 256.888C-14.7097 256.888 -12.6217 258.568 -12.6217 261.496V268.072H-14.6137V261.64ZM-8.52731 268.072V258.64H-10.5673V256.864H-8.52731V253H-6.51131V256.864H-3.87131V258.64H-6.51131V268.072H-8.52731ZM3.06375 268.168C-0.0802499 268.168 -2.28825 265.816 -2.28825 262.528C-2.28825 259.216 -0.0802499 256.888 3.06375 256.888C6.51975 256.888 7.57575 259.672 7.67175 259.936C8.34375 261.664 8.12775 263.32 8.12775 263.392H-0.27225C0.0157503 265.168 1.40775 266.416 3.06375 266.416C5.27175 266.416 6.08775 265.024 6.25575 264.76L7.83975 265.576C7.28775 266.824 5.70375 268.168 3.06375 268.168ZM-0.27225 261.688L6.18375 261.664C5.96775 259.96 5.12775 258.64 3.06375 258.64C1.35975 258.64 0.0157503 259.888 -0.27225 261.688ZM18.5738 261.64C18.5738 259.84 17.5178 258.664 15.9338 258.664C14.1578 258.664 12.9098 260.032 12.9098 261.64V268.072H10.9178V256.888H12.9098V258.52C13.6778 257.56 14.9258 256.888 16.0298 256.888C18.4778 256.888 20.5658 258.568 20.5658 261.496V268.072H18.5738V261.64ZM24.6602 268.072V258.64H22.6202V256.864H24.6602V253H26.6762V256.864H29.3162V258.64H26.6762V268.072H24.6602ZM33.2248 255.256H44.4088V257.2H33.2248V255.256ZM33.2248 263.2V261.232H44.4088V263.2H33.2248ZM50.7842 249.232L50.4962 254.08H49.0562L48.7922 249.232H50.7842ZM52.3202 249.232H54.2882L54.0242 254.104H52.5602L52.3202 249.232ZM72.5259 256.888L69.2139 268.072H67.3899L64.9419 260.248L62.5419 268.072H60.7179L57.3339 256.888H59.3979L61.6539 264.664L63.9099 256.888H65.9259L68.2779 264.688L70.4619 256.888H72.5259ZM75.0456 256.864H77.0376V268.072H75.0456V256.864ZM74.8296 252.52C74.8296 251.824 75.3336 251.32 76.0536 251.32C76.7496 251.32 77.2536 251.824 77.2536 252.52C77.2536 253.24 76.7496 253.744 76.0536 253.744C75.3336 253.744 74.8296 253.24 74.8296 252.52ZM85.5163 268.216C82.3963 268.216 80.1883 265.864 80.1883 262.528C80.1883 259.216 82.3963 256.864 85.5163 256.864C86.7163 256.864 88.1323 257.416 89.0683 258.832V251.128H91.0603V268.072H89.0683V266.248C88.1083 267.616 86.7163 268.216 85.5163 268.216ZM82.1803 262.528C82.1803 264.856 83.5723 266.464 85.6123 266.464C87.4603 266.464 89.0683 264.712 89.0683 262.528C89.0683 260.392 87.4603 258.616 85.6123 258.616C83.5723 258.616 82.1803 260.224 82.1803 262.528ZM95.3477 268.072V258.64H93.3077V256.864H95.3477V253H97.3637V256.864H100.004V258.64H97.3637V268.072H95.3477ZM110.098 261.856C110.098 259.936 109.09 258.616 107.578 258.616C105.946 258.616 104.578 260.272 104.578 262.216V268H102.562V251.128H104.578V258.52C105.25 257.536 106.378 256.84 107.578 256.84C110.218 256.84 112.114 258.88 112.114 261.688V268H110.098V261.856ZM116.592 255.256H127.776V257.2H116.592V255.256ZM116.592 263.2V261.232H127.776V263.2H116.592ZM137.055 268.216C133.935 268.216 131.727 265.864 131.727 262.528C131.727 259.216 133.935 256.864 137.055 256.864C138.255 256.864 139.671 257.416 140.607 258.832V251.128H142.599V268.072H140.607V266.248C139.647 267.616 138.255 268.216 137.055 268.216ZM133.719 262.528C133.719 264.856 135.111 266.464 137.151 266.464C138.999 266.464 140.607 264.712 140.607 262.528C140.607 260.392 138.999 258.616 137.151 258.616C135.111 258.616 133.719 260.224 133.719 262.528ZM150.697 268.168C147.553 268.168 145.345 265.816 145.345 262.528C145.345 259.216 147.553 256.888 150.697 256.888C154.153 256.888 155.209 259.672 155.305 259.936C155.977 261.664 155.761 263.32 155.761 263.392H147.361C147.649 265.168 149.041 266.416 150.697 266.416C152.905 266.416 153.721 265.024 153.889 264.76L155.473 265.576C154.921 266.824 153.337 268.168 150.697 268.168ZM147.361 261.688L153.817 261.664C153.601 259.96 152.761 258.64 150.697 258.64C148.993 258.64 147.649 259.888 147.361 261.688ZM168.054 256.888L163.374 268.072H161.55L156.894 256.888H159.078L162.462 265.36L165.846 256.888H168.054ZM170.647 256.864H172.639V268.072H170.647V256.864ZM170.431 252.52C170.431 251.824 170.935 251.32 171.655 251.32C172.351 251.32 172.855 251.824 172.855 252.52C172.855 253.24 172.351 253.744 171.655 253.744C170.935 253.744 170.431 253.24 170.431 252.52ZM180.878 266.272C181.862 266.272 183.014 265.792 183.662 265.048L185.102 266.392C184.118 267.448 182.366 268.192 180.974 268.192C177.638 268.192 175.286 265.816 175.286 262.528C175.286 259.216 177.638 256.864 180.974 256.864C182.39 256.864 184.094 257.632 185.102 258.688L183.662 260.008C183.014 259.264 181.862 258.784 180.878 258.784C178.766 258.784 177.278 260.296 177.278 262.528C177.278 264.76 178.766 266.272 180.878 266.272ZM192.111 268.168C188.967 268.168 186.759 265.816 186.759 262.528C186.759 259.216 188.967 256.888 192.111 256.888C195.567 256.888 196.623 259.672 196.719 259.936C197.391 261.664 197.175 263.32 197.175 263.392H188.775C189.063 265.168 190.455 266.416 192.111 266.416C194.319 266.416 195.135 265.024 195.303 264.76L196.887 265.576C196.335 266.824 194.751 268.168 192.111 268.168ZM188.775 261.688L195.231 261.664C195.015 259.96 194.175 258.64 192.111 258.64C190.407 258.64 189.063 259.888 188.775 261.688ZM200.241 258.16H210.489V260.152H200.241V258.16ZM228.573 256.888L225.261 268.072H223.437L220.989 260.248L218.589 268.072H216.765L213.381 256.888H215.445L217.701 264.664L219.957 256.888H221.973L224.325 264.688L226.509 256.888H228.573ZM231.092 256.864H233.084V268.072H231.092V256.864ZM230.876 252.52C230.876 251.824 231.38 251.32 232.1 251.32C232.796 251.32 233.3 251.824 233.3 252.52C233.3 253.24 232.796 253.744 232.1 253.744C231.38 253.744 230.876 253.24 230.876 252.52ZM241.563 268.216C238.443 268.216 236.235 265.864 236.235 262.528C236.235 259.216 238.443 256.864 241.563 256.864C242.763 256.864 244.179 257.416 245.115 258.832V251.128H247.107V268.072H245.115V266.248C244.155 267.616 242.763 268.216 241.563 268.216ZM238.227 262.528C238.227 264.856 239.619 266.464 241.659 266.464C243.507 266.464 245.115 264.712 245.115 262.528C245.115 260.392 243.507 258.616 241.659 258.616C239.619 258.616 238.227 260.224 238.227 262.528ZM251.395 268.072V258.64H249.355V256.864H251.395V253H253.411V256.864H256.051V258.64H253.411V268.072H251.395ZM266.145 261.856C266.145 259.936 265.137 258.616 263.625 258.616C261.993 258.616 260.625 260.272 260.625 262.216V268H258.609V251.128H260.625V258.52C261.297 257.536 262.425 256.84 263.625 256.84C266.265 256.84 268.161 258.88 268.161 261.688V268H266.145V261.856ZM273.935 266.056L272.519 270.856H271.031L271.823 266.056H273.935ZM284.249 256.864H286.241V268.072H284.249V256.864ZM284.033 252.52C284.033 251.824 284.537 251.32 285.257 251.32C285.953 251.32 286.457 251.824 286.457 252.52C286.457 253.24 285.953 253.744 285.257 253.744C284.537 253.744 284.033 253.24 284.033 252.52ZM297.503 261.64C297.503 259.84 296.447 258.664 294.863 258.664C293.087 258.664 291.839 260.032 291.839 261.64V268.072H289.847V256.888H291.839V258.52C292.607 257.56 293.855 256.888 294.959 256.888C297.407 256.888 299.495 258.568 299.495 261.496V268.072H297.503V261.64ZM302.788 256.864H304.78V268.072H302.788V256.864ZM302.572 252.52C302.572 251.824 303.076 251.32 303.796 251.32C304.492 251.32 304.996 251.824 304.996 252.52C304.996 253.24 304.492 253.744 303.796 253.744C303.076 253.744 302.572 253.24 302.572 252.52ZM309.73 268.072V258.64H307.691V256.864H309.73V253H311.747V256.864H314.387V258.64H311.747V268.072H309.73ZM316.921 256.864H318.913V268.072H316.921V256.864ZM316.705 252.52C316.705 251.824 317.209 251.32 317.929 251.32C318.625 251.32 319.129 251.824 319.129 252.52C319.129 253.24 318.625 253.744 317.929 253.744C317.209 253.744 316.705 253.24 316.705 252.52ZM327.367 268.216C324.271 268.216 322.063 265.864 322.063 262.576C322.063 259.264 324.271 256.912 327.367 256.912C328.567 256.912 329.887 257.512 330.847 258.808V256.888H332.839V268.072H330.847V266.272C329.863 267.688 328.567 268.216 327.367 268.216ZM324.055 262.576C324.055 264.856 325.447 266.464 327.439 266.464C329.239 266.464 330.847 264.832 330.871 262.576C330.847 260.32 329.239 258.664 327.439 258.664C325.447 258.664 324.055 260.248 324.055 262.576ZM336.085 251.128H338.077V268.072H336.085V251.128ZM341.335 258.16H351.583V260.152H341.335V258.16ZM-45.024 288.496C-44.4 289.84 -43.08 290.416 -42.24 290.416C-40.896 290.416 -39.936 289.84 -39.936 288.88C-39.936 287.968 -41.184 287.608 -42.432 287.176C-43.968 286.648 -46.128 285.976 -46.128 283.84C-46.128 281.944 -44.376 280.768 -42.144 280.768C-40.824 280.768 -38.712 281.536 -38.184 283.528L-39.936 284.128C-40.296 282.808 -41.496 282.544 -42.144 282.544C-43.296 282.544 -44.136 283.024 -44.136 283.84C-44.136 284.752 -42.984 285.064 -41.64 285.52C-40.032 286.072 -37.944 286.744 -37.944 288.88C-37.944 290.872 -39.768 292.168 -42.24 292.168C-43.944 292.168 -45.72 291.208 -46.632 289.456L-45.024 288.496ZM-30.3409 290.272C-29.3569 290.272 -28.2049 289.792 -27.5569 289.048L-26.1169 290.392C-27.1009 291.448 -28.8529 292.192 -30.2449 292.192C-33.5809 292.192 -35.9329 289.816 -35.9329 286.528C-35.9329 283.216 -33.5809 280.864 -30.2449 280.864C-28.8289 280.864 -27.1249 281.632 -26.1169 282.688L-27.5569 284.008C-28.2049 283.264 -29.3569 282.784 -30.3409 282.784C-32.4529 282.784 -33.9409 284.296 -33.9409 286.528C-33.9409 288.76 -32.4529 290.272 -30.3409 290.272ZM-19.1561 292.216C-22.2521 292.216 -24.4601 289.864 -24.4601 286.576C-24.4601 283.264 -22.2521 280.912 -19.1561 280.912C-17.9561 280.912 -16.6361 281.512 -15.6761 282.808V280.888H-13.6841V292.072H-15.6761V290.272C-16.6601 291.688 -17.9561 292.216 -19.1561 292.216ZM-22.4681 286.576C-22.4681 288.856 -21.0761 290.464 -19.0841 290.464C-17.2841 290.464 -15.6761 288.832 -15.6521 286.576C-15.6761 284.32 -17.2841 282.664 -19.0841 282.664C-21.0761 282.664 -22.4681 284.248 -22.4681 286.576ZM-10.4383 275.128H-8.44631V292.072H-10.4383V275.128ZM-0.569062 292.168C-3.71306 292.168 -5.92106 289.816 -5.92106 286.528C-5.92106 283.216 -3.71306 280.888 -0.569062 280.888C2.88694 280.888 3.94294 283.672 4.03894 283.936C4.71094 285.664 4.49494 287.32 4.49494 287.392H-3.90506C-3.61706 289.168 -2.22506 290.416 -0.569062 290.416C1.63894 290.416 2.45494 289.024 2.62294 288.76L4.20694 289.576C3.65494 290.824 2.07094 292.168 -0.569062 292.168ZM-3.90506 285.688L2.55094 285.664C2.33494 283.96 1.49494 282.64 -0.569062 282.64C-2.27306 282.64 -3.61706 283.888 -3.90506 285.688ZM8.52169 279.256H19.7057V281.2H8.52169V279.256ZM8.52169 287.2V285.232H19.7057V287.2H8.52169ZM29.2011 274.672V292.024H27.2091V276.88L24.3771 278.704L23.3931 277.12L27.2091 274.672H29.2011ZM34.3298 289.792C35.0738 289.792 35.6018 290.32 35.6018 291.088C35.6018 291.856 35.0738 292.408 34.3298 292.408C33.5618 292.408 33.0098 291.856 33.0098 291.088C33.0098 290.32 33.5618 289.792 34.3298 289.792ZM45.5756 290.416C48.0956 290.416 49.8476 287.512 49.8476 283.336C49.8476 279.16 48.0956 276.256 45.5756 276.256C43.0316 276.256 41.2556 279.16 41.2556 283.336C41.2556 287.512 43.0316 290.416 45.5756 290.416ZM39.2636 283.336C39.2636 278.152 41.8556 274.504 45.5756 274.504C49.2476 274.504 51.8396 278.152 51.8396 283.336C51.8396 288.52 49.2476 292.192 45.5756 292.192C41.8556 292.192 39.2636 288.52 39.2636 283.336ZM56.9014 273.232L56.6134 278.08H55.1734L54.9094 273.232H56.9014ZM58.4374 273.232H60.4054L60.1414 278.104H58.6774L58.4374 273.232ZM74.2511 283.408L65.2751 292.408L63.8831 291.016L71.4671 283.408L63.8831 275.824L65.2751 274.408L74.2511 283.408ZM84.9748 283.408L93.9748 274.408L95.3428 275.824L87.7828 283.408L95.3428 291.016L93.9748 292.408L84.9748 283.408ZM100.199 292.072V282.64H98.1593V280.864H100.199V277H102.215V280.864H104.855V282.64H102.215V292.072H100.199ZM107.389 280.864H109.381V292.072H107.389V280.864ZM107.173 276.52C107.173 275.824 107.677 275.32 108.397 275.32C109.093 275.32 109.597 275.824 109.597 276.52C109.597 277.24 109.093 277.744 108.397 277.744C107.677 277.744 107.173 277.24 107.173 276.52ZM114.332 292.072V282.64H112.292V280.864H114.332V277H116.348V280.864H118.988V282.64H116.348V292.072H114.332ZM121.21 275.128H123.202V292.072H121.21V275.128ZM131.079 292.168C127.935 292.168 125.727 289.816 125.727 286.528C125.727 283.216 127.935 280.888 131.079 280.888C134.535 280.888 135.591 283.672 135.687 283.936C136.359 285.664 136.143 287.32 136.143 287.392H127.743C128.031 289.168 129.423 290.416 131.079 290.416C133.287 290.416 134.103 289.024 134.271 288.76L135.855 289.576C135.303 290.824 133.719 292.168 131.079 292.168ZM127.743 285.688L134.199 285.664C133.983 283.96 133.143 282.64 131.079 282.64C129.375 282.64 128.031 283.888 127.743 285.688ZM149.626 283.408L140.65 292.408L139.258 291.016L146.842 283.408L139.258 275.824L140.65 274.408L149.626 283.408ZM158.995 290.296C162.979 290.296 165.739 287.44 165.739 283.336C165.739 279.232 162.979 276.376 158.995 276.376H156.307V290.296H158.995ZM154.291 292.072V274.6H158.995C164.107 274.6 167.707 278.2 167.707 283.336C167.707 288.472 164.107 292.072 158.995 292.072H154.291ZM175.282 290.44C177.274 290.44 178.642 288.856 178.642 286.552C178.642 284.248 177.274 282.64 175.282 282.64C173.314 282.64 171.946 284.224 171.946 286.552C171.946 288.88 173.29 290.44 175.282 290.44ZM169.954 286.552C169.954 283.24 172.162 280.864 175.282 280.864C178.426 280.864 180.658 283.24 180.658 286.552C180.658 289.84 178.426 292.216 175.282 292.216C172.162 292.216 169.954 289.84 169.954 286.552ZM188.003 290.272C188.987 290.272 190.139 289.792 190.787 289.048L192.227 290.392C191.243 291.448 189.491 292.192 188.099 292.192C184.763 292.192 182.411 289.816 182.411 286.528C182.411 283.216 184.763 280.864 188.099 280.864C189.515 280.864 191.219 281.632 192.227 282.688L190.787 284.008C190.139 283.264 188.987 282.784 188.003 282.784C185.891 282.784 184.403 284.296 184.403 286.528C184.403 288.76 185.891 290.272 188.003 290.272ZM196.59 287.392C196.59 289.168 197.67 290.464 199.23 290.464C201.006 290.464 202.23 289.336 202.23 287.56V280.888H204.246V292.072H202.23V290.656C201.486 291.616 200.238 292.24 199.11 292.24C196.47 292.24 194.574 290.248 194.574 287.56V280.888H196.59V287.392ZM221.956 285.4C221.956 283.768 220.996 282.664 219.604 282.664C217.996 282.664 216.892 283.72 216.892 285.208V292.072H214.876V285.4C214.876 283.768 213.94 282.664 212.572 282.664C210.94 282.664 209.812 284.032 209.812 285.616V292.072H207.82V280.888H209.812V282.496C210.484 281.536 211.588 280.888 212.644 280.888C214.036 280.888 215.404 281.728 216.052 282.952C216.796 281.728 218.26 280.888 219.652 280.888C222.172 280.888 223.972 282.688 223.972 285.256V292.072H221.956V285.4ZM232.236 292.168C229.092 292.168 226.884 289.816 226.884 286.528C226.884 283.216 229.092 280.888 232.236 280.888C235.692 280.888 236.748 283.672 236.844 283.936C237.516 285.664 237.3 287.32 237.3 287.392H228.9C229.188 289.168 230.58 290.416 232.236 290.416C234.444 290.416 235.26 289.024 235.428 288.76L237.012 289.576C236.46 290.824 234.876 292.168 232.236 292.168ZM228.9 285.688L235.356 285.664C235.14 283.96 234.3 282.64 232.236 282.64C230.532 282.64 229.188 283.888 228.9 285.688ZM247.746 285.64C247.746 283.84 246.69 282.664 245.106 282.664C243.33 282.664 242.082 284.032 242.082 285.64V292.072H240.09V280.888H242.082V282.52C242.85 281.56 244.098 280.888 245.202 280.888C247.65 280.888 249.738 282.568 249.738 285.496V292.072H247.746V285.64ZM253.832 292.072V282.64H251.792V280.864H253.832V277H255.848V280.864H258.488V282.64H255.848V292.072H253.832ZM262.397 283.408L271.397 274.408L272.765 275.824L265.205 283.408L272.765 291.016L271.397 292.408L262.397 283.408ZM282.613 273.592L277.573 293.224H275.557L280.621 273.592H282.613ZM287.371 292.072V282.64H285.331V280.864H287.371V277H289.387V280.864H292.027V282.64H289.387V292.072H287.371ZM294.561 280.864H296.553V292.072H294.561V280.864ZM294.345 276.52C294.345 275.824 294.849 275.32 295.569 275.32C296.265 275.32 296.769 275.824 296.769 276.52C296.769 277.24 296.265 277.744 295.569 277.744C294.849 277.744 294.345 277.24 294.345 276.52ZM301.504 292.072V282.64H299.464V280.864H301.504V277H303.52V280.864H306.16V282.64H303.52V292.072H301.504ZM308.382 275.128H310.374V292.072H308.382V275.128ZM318.251 292.168C315.107 292.168 312.899 289.816 312.899 286.528C312.899 283.216 315.107 280.888 318.251 280.888C321.707 280.888 322.763 283.672 322.859 283.936C323.531 285.664 323.315 287.32 323.315 287.392H314.915C315.203 289.168 316.595 290.416 318.251 290.416C320.459 290.416 321.275 289.024 321.443 288.76L323.027 289.576C322.475 290.824 320.891 292.168 318.251 292.168ZM314.915 285.688L321.371 285.664C321.155 283.96 320.315 282.64 318.251 282.64C316.547 282.64 315.203 283.888 314.915 285.688ZM336.798 283.408L327.822 292.408L326.43 291.016L334.014 283.408L326.43 275.824L327.822 274.408L336.798 283.408ZM-45.408 307.408L-36.408 298.408L-35.04 299.824L-42.6 307.408L-35.04 315.016L-36.408 316.408L-45.408 307.408ZM-25.1916 297.592L-30.2316 317.224H-32.2476L-27.1836 297.592H-25.1916ZM-14.0976 309.856C-14.0976 307.936 -15.1056 306.616 -16.6176 306.616C-18.2496 306.616 -19.6176 308.272 -19.6176 310.216V316H-21.6336V299.128H-19.6176V306.52C-18.9456 305.536 -17.8176 304.84 -16.6176 304.84C-13.9776 304.84 -12.0816 306.88 -12.0816 309.688V316H-14.0976V309.856ZM-3.70969 316.168C-6.85369 316.168 -9.06169 313.816 -9.06169 310.528C-9.06169 307.216 -6.85369 304.888 -3.70969 304.888C-0.253687 304.888 0.802313 307.672 0.898313 307.936C1.57031 309.664 1.35431 311.32 1.35431 311.392H-7.04569C-6.75769 313.168 -5.36569 314.416 -3.70969 314.416C-1.50169 314.416 -0.685687 313.024 -0.517687 312.76L1.06631 313.576C0.514313 314.824 -1.06969 316.168 -3.70969 316.168ZM-7.04569 309.688L-0.589687 309.664C-0.805687 307.96 -1.64569 306.64 -3.70969 306.64C-5.41369 306.64 -6.75769 307.888 -7.04569 309.688ZM9.01575 316.216C5.91975 316.216 3.71175 313.864 3.71175 310.576C3.71175 307.264 5.91975 304.912 9.01575 304.912C10.2158 304.912 11.5358 305.512 12.4958 306.808V304.888H14.4878V316.072H12.4958V314.272C11.5118 315.688 10.2158 316.216 9.01575 316.216ZM5.70375 310.576C5.70375 312.856 7.09575 314.464 9.08775 314.464C10.8878 314.464 12.4958 312.832 12.5198 310.576C12.4958 308.32 10.8878 306.664 9.08775 306.664C7.09575 306.664 5.70375 308.248 5.70375 310.576ZM22.7976 316.216C19.6776 316.216 17.4696 313.864 17.4696 310.528C17.4696 307.216 19.6776 304.864 22.7976 304.864C23.9976 304.864 25.4136 305.416 26.3496 306.832V299.128H28.3416V316.072H26.3496V314.248C25.3896 315.616 23.9976 316.216 22.7976 316.216ZM19.4616 310.528C19.4616 312.856 20.8536 314.464 22.8936 314.464C24.7416 314.464 26.3496 312.712 26.3496 310.528C26.3496 308.392 24.7416 306.616 22.8936 306.616C20.8536 306.616 19.4616 308.224 19.4616 310.528ZM42.2355 307.408L33.2595 316.408L31.8675 315.016L39.4515 307.408L31.8675 299.824L33.2595 298.408L42.2355 307.408ZM52.9592 307.408L61.9592 298.408L63.3272 299.824L55.7672 307.408L63.3272 315.016L61.9592 316.408L52.9592 307.408ZM72.3596 316.264C71.3036 316.264 69.8876 315.808 68.8556 314.296V316.12H66.8636V299.128H68.8556V306.856C69.8876 305.344 71.3036 304.912 72.3836 304.912C75.5036 304.912 77.7356 307.264 77.7356 310.576C77.7356 313.912 75.5036 316.264 72.3596 316.264ZM68.8556 310.576C68.8556 312.76 70.4156 314.512 72.2876 314.512C74.3276 314.512 75.7436 312.904 75.7436 310.576C75.7436 308.272 74.3276 306.688 72.2876 306.688C70.4156 306.688 68.8556 308.44 68.8556 310.576ZM85.3523 314.44C87.3443 314.44 88.7123 312.856 88.7123 310.552C88.7123 308.248 87.3443 306.64 85.3523 306.64C83.3843 306.64 82.0163 308.224 82.0163 310.552C82.0163 312.88 83.3603 314.44 85.3523 314.44ZM80.0243 310.552C80.0243 307.24 82.2323 304.864 85.3523 304.864C88.4963 304.864 90.7283 307.24 90.7283 310.552C90.7283 313.84 88.4963 316.216 85.3523 316.216C82.2323 316.216 80.0243 313.84 80.0243 310.552ZM98.3132 316.216C95.1932 316.216 92.9852 313.864 92.9852 310.528C92.9852 307.216 95.1932 304.864 98.3132 304.864C99.5132 304.864 100.929 305.416 101.865 306.832V299.128H103.857V316.072H101.865V314.248C100.905 315.616 99.5132 316.216 98.3132 316.216ZM94.9772 310.528C94.9772 312.856 96.3692 314.464 98.4092 314.464C100.257 314.464 101.865 312.712 101.865 310.528C101.865 308.392 100.257 306.616 98.4092 306.616C96.3692 306.616 94.9772 308.224 94.9772 310.528ZM111.085 321.16H108.901L111.253 315.424L106.741 304.888H108.925L112.309 313.048L115.549 304.888H117.709L111.085 321.16ZM130.9 307.408L121.924 316.408L120.532 315.016L128.116 307.408L120.532 299.824L121.924 298.408L130.9 307.408ZM141.623 307.408L150.623 298.408L151.991 299.824L144.431 307.408L151.991 315.016L150.623 316.408L141.623 307.408ZM161.84 297.592L156.8 317.224H154.784L159.848 297.592H161.84ZM170.774 316.264C169.718 316.264 168.302 315.808 167.27 314.296V316.12H165.278V299.128H167.27V306.856C168.302 305.344 169.718 304.912 170.798 304.912C173.918 304.912 176.15 307.264 176.15 310.576C176.15 313.912 173.918 316.264 170.774 316.264ZM167.27 310.576C167.27 312.76 168.83 314.512 170.702 314.512C172.742 314.512 174.158 312.904 174.158 310.576C174.158 308.272 172.742 306.688 170.702 306.688C168.83 306.688 167.27 308.44 167.27 310.576ZM183.766 314.44C185.758 314.44 187.126 312.856 187.126 310.552C187.126 308.248 185.758 306.64 183.766 306.64C181.798 306.64 180.43 308.224 180.43 310.552C180.43 312.88 181.774 314.44 183.766 314.44ZM178.438 310.552C178.438 307.24 180.646 304.864 183.766 304.864C186.91 304.864 189.142 307.24 189.142 310.552C189.142 313.84 186.91 316.216 183.766 316.216C180.646 316.216 178.438 313.84 178.438 310.552ZM196.727 316.216C193.607 316.216 191.399 313.864 191.399 310.528C191.399 307.216 193.607 304.864 196.727 304.864C197.927 304.864 199.343 305.416 200.279 306.832V299.128H202.271V316.072H200.279V314.248C199.319 315.616 197.927 316.216 196.727 316.216ZM193.391 310.528C193.391 312.856 194.783 314.464 196.823 314.464C198.671 314.464 200.279 312.712 200.279 310.528C200.279 308.392 198.671 306.616 196.823 306.616C194.783 306.616 193.391 308.224 193.391 310.528ZM209.499 321.16H207.315L209.667 315.424L205.155 304.888H207.339L210.723 313.048L213.963 304.888H216.123L209.499 321.16ZM229.314 307.408L220.338 316.408L218.946 315.016L226.53 307.408L218.946 299.824L220.338 298.408L229.314 307.408ZM240.037 307.408L249.037 298.408L250.405 299.824L242.845 307.408L250.405 315.016L249.037 316.408L240.037 307.408ZM260.254 297.592L255.214 317.224H253.198L258.262 297.592H260.254ZM271.348 309.856C271.348 307.936 270.34 306.616 268.828 306.616C267.196 306.616 265.828 308.272 265.828 310.216V316H263.812V299.128H265.828V306.52C266.5 305.536 267.628 304.84 268.828 304.84C271.468 304.84 273.364 306.88 273.364 309.688V316H271.348V309.856ZM277.762 316.072V306.64H275.722V304.864H277.762V301H279.778V304.864H282.418V306.64H279.778V316.072H277.762ZM299.464 309.4C299.464 307.768 298.504 306.664 297.112 306.664C295.504 306.664 294.4 307.72 294.4 309.208V316.072H292.384V309.4C292.384 307.768 291.448 306.664 290.08 306.664C288.448 306.664 287.32 308.032 287.32 309.616V316.072H285.328V304.888H287.32V306.496C287.992 305.536 289.096 304.888 290.152 304.888C291.544 304.888 292.912 305.728 293.56 306.952C294.304 305.728 295.768 304.888 297.16 304.888C299.68 304.888 301.48 306.688 301.48 309.256V316.072H299.464V309.4ZM304.655 299.128H306.647V316.072H304.655V299.128ZM320.321 307.408L311.345 316.408L309.953 315.016L317.537 307.408L309.953 299.824L311.345 298.408L320.321 307.408Z" fill="url(#paint0_linear_397_712)"/>
<path d="M224.448 365.411C229.092 357.368 239.376 354.612 247.419 359.256L287.589 382.448C295.632 387.092 298.388 397.376 293.744 405.419L270.552 445.589C265.908 453.632 255.624 456.388 247.581 451.744L207.411 428.552C199.368 423.908 196.612 413.624 201.256 405.581L224.448 365.411Z" fill="url(#paint1_linear_397_712)"/>
<path d="M24 72.42H45.252C48.234 72.42 50.964 72.588 53.358 72.966C55.794 73.344 57.81 73.848 59.406 74.562C61.044 75.276 62.43 76.032 63.564 76.914C64.698 77.754 65.58 78.72 66.21 79.812C66.798 80.904 67.26 81.954 67.512 83.004C67.806 84.054 67.932 85.146 67.932 86.322V87.54C67.932 88.926 67.764 90.228 67.386 91.446C67.05 92.706 66.378 93.966 65.37 95.268C64.32 96.612 63.018 97.746 61.422 98.67C59.784 99.594 57.6 100.35 54.828 100.938C52.098 101.568 48.906 101.862 45.294 101.862H24V72.42ZM34.038 79.35V94.764H44.496C53.106 94.764 57.39 92.244 57.39 87.162V86.952C57.39 81.87 53.106 79.35 44.496 79.35H34.038Z" fill="#CE91FF"/>
<path d="M81.6552 72.546V101.862H71.6592V72.546H81.6552Z" fill="#CE91FF"/>
<path d="M104.353 102.408C101.161 102.408 98.3469 102.156 95.9949 101.652C93.6009 101.148 91.7529 100.56 90.4509 99.846C89.1909 99.132 88.1409 98.25 87.3849 97.242C86.6289 96.234 86.1249 95.31 85.9149 94.512C85.7049 93.714 85.6209 92.832 85.6209 91.908V91.488H96.0789C96.2889 94.596 98.5569 96.15 104.689 96.15H106.999C109.015 96.15 109.855 96.024 111.199 95.856C112.501 95.688 113.467 95.478 114.055 95.142C114.685 94.806 115.063 94.512 115.273 94.176C115.483 93.84 115.567 93.462 115.567 93C115.567 92.37 115.399 91.866 115.063 91.488C114.727 91.152 113.887 90.816 112.627 90.522C111.367 90.27 109.561 90.102 107.167 90.06L104.017 89.976L101.665 89.934C91.2489 89.682 86.0409 86.784 86.0409 81.324V80.946C86.0409 80.022 86.1669 79.14 86.4189 78.342C86.6709 77.544 87.1749 76.746 87.9729 75.906C88.7289 75.108 89.7369 74.436 90.9969 73.89C92.2569 73.344 93.9369 72.882 96.0789 72.546C98.1789 72.168 100.657 72 103.471 72H106.453C109.351 72 111.955 72.168 114.181 72.546C116.449 72.924 118.213 73.386 119.557 73.974C120.901 74.562 121.993 75.276 122.833 76.116C123.673 76.956 124.261 77.796 124.555 78.594C124.891 79.434 125.059 80.316 125.059 81.282V81.66H114.643C114.559 81.366 114.475 81.072 114.391 80.862C114.307 80.652 114.055 80.358 113.677 79.98C113.299 79.602 112.837 79.308 112.207 79.056C111.619 78.846 110.695 78.636 109.519 78.426C108.343 78.258 107.419 78.174 105.823 78.174H104.353C101.917 78.174 100.405 78.3 99.1029 78.552C97.8429 78.846 97.0449 79.14 96.7929 79.434C96.4989 79.728 96.3729 80.148 96.3729 80.694C96.3729 81.198 96.4989 81.576 96.8349 81.912C97.1289 82.206 97.8429 82.5 98.9769 82.794C100.111 83.046 101.707 83.172 103.765 83.214L106.117 83.256L109.141 83.298C115.147 83.382 119.431 84.138 122.077 85.524C124.765 86.91 126.067 89.052 126.067 92.034V92.58C126.067 93.672 125.941 94.638 125.689 95.478C125.437 96.318 124.891 97.2 124.093 98.124C123.295 99.006 122.245 99.762 120.901 100.35C119.557 100.98 117.751 101.442 115.441 101.82C113.131 102.24 110.401 102.408 107.293 102.408H104.353Z" fill="#CE91FF"/>
<path d="M130.025 72.504H141.197L161.651 90.984V72.504H171.563V101.904H161.651L139.895 82.416V101.904H130.025V72.504Z" fill="#CE91FF"/>
<path d="M194.3 102.408C191.108 102.408 188.294 102.156 185.942 101.652C183.548 101.148 181.7 100.56 180.398 99.846C179.138 99.132 178.088 98.25 177.332 97.242C176.576 96.234 176.072 95.31 175.862 94.512C175.652 93.714 175.568 92.832 175.568 91.908V91.488H186.026C186.236 94.596 188.504 96.15 194.636 96.15H196.946C198.962 96.15 199.802 96.024 201.146 95.856C202.448 95.688 203.414 95.478 204.002 95.142C204.632 94.806 205.01 94.512 205.22 94.176C205.43 93.84 205.514 93.462 205.514 93C205.514 92.37 205.346 91.866 205.01 91.488C204.674 91.152 203.834 90.816 202.574 90.522C201.314 90.27 199.508 90.102 197.114 90.06L193.964 89.976L191.612 89.934C181.196 89.682 175.988 86.784 175.988 81.324V80.946C175.988 80.022 176.114 79.14 176.366 78.342C176.618 77.544 177.122 76.746 177.92 75.906C178.676 75.108 179.684 74.436 180.944 73.89C182.204 73.344 183.884 72.882 186.026 72.546C188.126 72.168 190.604 72 193.418 72H196.4C199.298 72 201.902 72.168 204.128 72.546C206.396 72.924 208.16 73.386 209.504 73.974C210.848 74.562 211.94 75.276 212.78 76.116C213.62 76.956 214.208 77.796 214.502 78.594C214.838 79.434 215.006 80.316 215.006 81.282V81.66H204.59C204.506 81.366 204.422 81.072 204.338 80.862C204.254 80.652 204.002 80.358 203.624 79.98C203.246 79.602 202.784 79.308 202.154 79.056C201.566 78.846 200.642 78.636 199.466 78.426C198.29 78.258 197.366 78.174 195.77 78.174H194.3C191.864 78.174 190.352 78.3 189.05 78.552C187.79 78.846 186.992 79.14 186.74 79.434C186.446 79.728 186.32 80.148 186.32 80.694C186.32 81.198 186.446 81.576 186.782 81.912C187.076 82.206 187.79 82.5 188.924 82.794C190.058 83.046 191.654 83.172 193.712 83.214L196.064 83.256L199.088 83.298C205.094 83.382 209.378 84.138 212.024 85.524C214.712 86.91 216.014 89.052 216.014 92.034V92.58C216.014 93.672 215.888 94.638 215.636 95.478C215.384 96.318 214.838 97.2 214.04 98.124C213.242 99.006 212.192 99.762 210.848 100.35C209.504 100.98 207.698 101.442 205.388 101.82C203.078 102.24 200.348 102.408 197.24 102.408H194.3Z" fill="#CE91FF"/>
</g>
</g>
<defs>
<filter id="filter0_b_397_712" x="-4" y="-4" width="328" height="488" filterUnits="userSpaceOnUse" color-interpolation-filters="sRGB">
<feFlood flood-opacity="0" result="BackgroundImageFix"/>
<feGaussianBlur in="BackgroundImageFix" stdDeviation="2"/>
<feComposite in2="SourceAlpha" operator="in" result="effect1_backgroundBlur_397_712"/>
<feBlend mode="normal" in="SourceGraphic" in2="effect1_backgroundBlur_397_712" result="shape"/>
</filter>
<linearGradient id="paint0_linear_397_712" x1="-12.5" y1="175" x2="150.723" y2="126.943" gradientUnits="userSpaceOnUse">
<stop stop-color="#DB00FF"/>
<stop offset="1" stop-color="#0085FF" stop-opacity="0"/>
</linearGradient>
<linearGradient id="paint1_linear_397_712" x1="277.361" y1="370.004" x2="234.541" y2="445.503" gradientUnits="userSpaceOnUse">
<stop stop-color="#DB00FF"/>
<stop offset="1" stop-color="#0085FF" stop-opacity="0"/>
</linearGradient>
<clipPath id="clip0_397_712">
<rect width="320" height="480" rx="24" fill="white"/>
</clipPath>
</defs>
</svg>
