<svg width="336" height="504" viewBox="0 0 336 504" fill="none" xmlns="http://www.w3.org/2000/svg">
<g filter="url(#filter0_b_117_718)">
<rect width="336" height="504" rx="25.2" fill="white"/>
<path d="M26.52 76.5579H47.772C50.754 76.5579 53.484 76.7259 55.878 77.1039C58.314 77.4819 60.33 77.9859 61.926 78.6999C63.564 79.4139 64.95 80.1699 66.084 81.0519C67.218 81.8919 68.1 82.8579 68.73 83.9499C69.318 85.0419 69.78 86.0919 70.032 87.1419C70.326 88.1919 70.452 89.2839 70.452 90.4599V91.6779C70.452 93.0639 70.284 94.3659 69.906 95.5839C69.57 96.8439 68.898 98.1039 67.89 99.4059C66.84 100.75 65.538 101.884 63.942 102.808C62.304 103.732 60.12 104.488 57.348 105.076C54.618 105.706 51.426 106 47.814 106H26.52V76.5579ZM36.558 83.4879V98.9019H47.016C55.626 98.9019 59.91 96.3819 59.91 91.2999V91.0899C59.91 86.0079 55.626 83.4879 47.016 83.4879H36.558Z" fill="#A181FF"/>
<path d="M26.52 76.5579H47.772C50.754 76.5579 53.484 76.7259 55.878 77.1039C58.314 77.4819 60.33 77.9859 61.926 78.6999C63.564 79.4139 64.95 80.1699 66.084 81.0519C67.218 81.8919 68.1 82.8579 68.73 83.9499C69.318 85.0419 69.78 86.0919 70.032 87.1419C70.326 88.1919 70.452 89.2839 70.452 90.4599V91.6779C70.452 93.0639 70.284 94.3659 69.906 95.5839C69.57 96.8439 68.898 98.1039 67.89 99.4059C66.84 100.75 65.538 101.884 63.942 102.808C62.304 103.732 60.12 104.488 57.348 105.076C54.618 105.706 51.426 106 47.814 106H26.52V76.5579ZM36.558 83.4879V98.9019H47.016C55.626 98.9019 59.91 96.3819 59.91 91.2999V91.0899C59.91 86.0079 55.626 83.4879 47.016 83.4879H36.558Z" fill="#CE91FF"/>
<path d="M84.1752 76.6839V106H74.1792V76.6839H84.1752Z" fill="#A181FF"/>
<path d="M84.1752 76.6839V106H74.1792V76.6839H84.1752Z" fill="#CE91FF"/>
<path d="M106.873 106.546C103.681 106.546 100.867 106.294 98.5149 105.79C96.1209 105.286 94.2729 104.698 92.9709 103.984C91.7109 103.27 90.6609 102.388 89.9049 101.38C89.1489 100.372 88.6449 99.4479 88.4349 98.6499C88.2249 97.8519 88.1409 96.9699 88.1409 96.0459V95.6259H98.5989C98.8089 98.7339 101.077 100.288 107.209 100.288H109.519C111.535 100.288 112.375 100.162 113.719 99.9939C115.021 99.8259 115.987 99.6159 116.575 99.2799C117.205 98.9439 117.583 98.6499 117.793 98.3139C118.003 97.9779 118.087 97.5999 118.087 97.1379C118.087 96.5079 117.919 96.0039 117.583 95.6259C117.247 95.2899 116.407 94.9539 115.147 94.6599C113.887 94.4079 112.081 94.2399 109.687 94.1979L106.537 94.1139L104.185 94.0719C93.7689 93.8199 88.5609 90.9219 88.5609 85.4619V85.0839C88.5609 84.1599 88.6869 83.2779 88.9389 82.4799C89.1909 81.6819 89.6949 80.8839 90.4929 80.0439C91.2489 79.2459 92.2569 78.5739 93.5169 78.0279C94.7769 77.4819 96.4569 77.0199 98.5989 76.6839C100.699 76.3059 103.177 76.1379 105.991 76.1379H108.973C111.871 76.1379 114.475 76.3059 116.701 76.6839C118.969 77.0619 120.733 77.5239 122.077 78.1119C123.421 78.6999 124.513 79.4139 125.353 80.2539C126.193 81.0939 126.781 81.9339 127.075 82.7319C127.411 83.5719 127.579 84.4539 127.579 85.4199V85.7979H117.163C117.079 85.5039 116.995 85.2099 116.911 84.9999C116.827 84.7899 116.575 84.4959 116.197 84.1179C115.819 83.7399 115.357 83.4459 114.727 83.1939C114.139 82.9839 113.215 82.7739 112.039 82.5639C110.863 82.3959 109.939 82.3119 108.343 82.3119H106.873C104.437 82.3119 102.925 82.4379 101.623 82.6899C100.363 82.9839 99.5649 83.2779 99.3129 83.5719C99.0189 83.8659 98.8929 84.2859 98.8929 84.8319C98.8929 85.3359 99.0189 85.7139 99.3549 86.0499C99.6489 86.3439 100.363 86.6379 101.497 86.9319C102.631 87.1839 104.227 87.3099 106.285 87.3519L108.637 87.3939L111.661 87.4359C117.667 87.5199 121.951 88.2759 124.597 89.6619C127.285 91.0479 128.587 93.1899 128.587 96.1719V96.7179C128.587 97.8099 128.461 98.7759 128.209 99.6159C127.957 100.456 127.411 101.338 126.613 102.262C125.815 103.144 124.765 103.9 123.421 104.488C122.077 105.118 120.271 105.58 117.961 105.958C115.651 106.378 112.921 106.546 109.813 106.546H106.873Z" fill="#A181FF"/>
<path d="M106.873 106.546C103.681 106.546 100.867 106.294 98.5149 105.79C96.1209 105.286 94.2729 104.698 92.9709 103.984C91.7109 103.27 90.6609 102.388 89.9049 101.38C89.1489 100.372 88.6449 99.4479 88.4349 98.6499C88.2249 97.8519 88.1409 96.9699 88.1409 96.0459V95.6259H98.5989C98.8089 98.7339 101.077 100.288 107.209 100.288H109.519C111.535 100.288 112.375 100.162 113.719 99.9939C115.021 99.8259 115.987 99.6159 116.575 99.2799C117.205 98.9439 117.583 98.6499 117.793 98.3139C118.003 97.9779 118.087 97.5999 118.087 97.1379C118.087 96.5079 117.919 96.0039 117.583 95.6259C117.247 95.2899 116.407 94.9539 115.147 94.6599C113.887 94.4079 112.081 94.2399 109.687 94.1979L106.537 94.1139L104.185 94.0719C93.7689 93.8199 88.5609 90.9219 88.5609 85.4619V85.0839C88.5609 84.1599 88.6869 83.2779 88.9389 82.4799C89.1909 81.6819 89.6949 80.8839 90.4929 80.0439C91.2489 79.2459 92.2569 78.5739 93.5169 78.0279C94.7769 77.4819 96.4569 77.0199 98.5989 76.6839C100.699 76.3059 103.177 76.1379 105.991 76.1379H108.973C111.871 76.1379 114.475 76.3059 116.701 76.6839C118.969 77.0619 120.733 77.5239 122.077 78.1119C123.421 78.6999 124.513 79.4139 125.353 80.2539C126.193 81.0939 126.781 81.9339 127.075 82.7319C127.411 83.5719 127.579 84.4539 127.579 85.4199V85.7979H117.163C117.079 85.5039 116.995 85.2099 116.911 84.9999C116.827 84.7899 116.575 84.4959 116.197 84.1179C115.819 83.7399 115.357 83.4459 114.727 83.1939C114.139 82.9839 113.215 82.7739 112.039 82.5639C110.863 82.3959 109.939 82.3119 108.343 82.3119H106.873C104.437 82.3119 102.925 82.4379 101.623 82.6899C100.363 82.9839 99.5649 83.2779 99.3129 83.5719C99.0189 83.8659 98.8929 84.2859 98.8929 84.8319C98.8929 85.3359 99.0189 85.7139 99.3549 86.0499C99.6489 86.3439 100.363 86.6379 101.497 86.9319C102.631 87.1839 104.227 87.3099 106.285 87.3519L108.637 87.3939L111.661 87.4359C117.667 87.5199 121.951 88.2759 124.597 89.6619C127.285 91.0479 128.587 93.1899 128.587 96.1719V96.7179C128.587 97.8099 128.461 98.7759 128.209 99.6159C127.957 100.456 127.411 101.338 126.613 102.262C125.815 103.144 124.765 103.9 123.421 104.488C122.077 105.118 120.271 105.58 117.961 105.958C115.651 106.378 112.921 106.546 109.813 106.546H106.873Z" fill="#CE91FF"/>
<path d="M132.545 76.6419H143.717L164.171 95.1219V76.6419H174.083V106.042H164.171L142.415 86.5539V106.042H132.545V76.6419Z" fill="#A181FF"/>
<path d="M132.545 76.6419H143.717L164.171 95.1219V76.6419H174.083V106.042H164.171L142.415 86.5539V106.042H132.545V76.6419Z" fill="#CE91FF"/>
<path d="M196.82 106.546C193.628 106.546 190.814 106.294 188.462 105.79C186.068 105.286 184.22 104.698 182.918 103.984C181.658 103.27 180.608 102.388 179.852 101.38C179.096 100.372 178.592 99.4479 178.382 98.6499C178.172 97.8519 178.088 96.9699 178.088 96.0459V95.6259H188.546C188.756 98.7339 191.024 100.288 197.156 100.288H199.466C201.482 100.288 202.322 100.162 203.666 99.9939C204.968 99.8259 205.934 99.6159 206.522 99.2799C207.152 98.9439 207.53 98.6499 207.74 98.3139C207.95 97.9779 208.034 97.5999 208.034 97.1379C208.034 96.5079 207.866 96.0039 207.53 95.6259C207.194 95.2899 206.354 94.9539 205.094 94.6599C203.834 94.4079 202.028 94.2399 199.634 94.1979L196.484 94.1139L194.132 94.0719C183.716 93.8199 178.508 90.9219 178.508 85.4619V85.0839C178.508 84.1599 178.634 83.2779 178.886 82.4799C179.138 81.6819 179.642 80.8839 180.44 80.0439C181.196 79.2459 182.204 78.5739 183.464 78.0279C184.724 77.4819 186.404 77.0199 188.546 76.6839C190.646 76.3059 193.124 76.1379 195.938 76.1379H198.92C201.818 76.1379 204.422 76.3059 206.648 76.6839C208.916 77.0619 210.68 77.5239 212.024 78.1119C213.368 78.6999 214.46 79.4139 215.3 80.2539C216.14 81.0939 216.728 81.9339 217.022 82.7319C217.358 83.5719 217.526 84.4539 217.526 85.4199V85.7979H207.11C207.026 85.5039 206.942 85.2099 206.858 84.9999C206.774 84.7899 206.522 84.4959 206.144 84.1179C205.766 83.7399 205.304 83.4459 204.674 83.1939C204.086 82.9839 203.162 82.7739 201.986 82.5639C200.81 82.3959 199.886 82.3119 198.29 82.3119H196.82C194.384 82.3119 192.872 82.4379 191.57 82.6899C190.31 82.9839 189.512 83.2779 189.26 83.5719C188.966 83.8659 188.84 84.2859 188.84 84.8319C188.84 85.3359 188.966 85.7139 189.302 86.0499C189.596 86.3439 190.31 86.6379 191.444 86.9319C192.578 87.1839 194.174 87.3099 196.232 87.3519L198.584 87.3939L201.608 87.4359C207.614 87.5199 211.898 88.2759 214.544 89.6619C217.232 91.0479 218.534 93.1899 218.534 96.1719V96.7179C218.534 97.8099 218.408 98.7759 218.156 99.6159C217.904 100.456 217.358 101.338 216.56 102.262C215.762 103.144 214.712 103.9 213.368 104.488C212.024 105.118 210.218 105.58 207.908 105.958C205.598 106.378 202.868 106.546 199.76 106.546H196.82Z" fill="#A181FF"/>
<path d="M196.82 106.546C193.628 106.546 190.814 106.294 188.462 105.79C186.068 105.286 184.22 104.698 182.918 103.984C181.658 103.27 180.608 102.388 179.852 101.38C179.096 100.372 178.592 99.4479 178.382 98.6499C178.172 97.8519 178.088 96.9699 178.088 96.0459V95.6259H188.546C188.756 98.7339 191.024 100.288 197.156 100.288H199.466C201.482 100.288 202.322 100.162 203.666 99.9939C204.968 99.8259 205.934 99.6159 206.522 99.2799C207.152 98.9439 207.53 98.6499 207.74 98.3139C207.95 97.9779 208.034 97.5999 208.034 97.1379C208.034 96.5079 207.866 96.0039 207.53 95.6259C207.194 95.2899 206.354 94.9539 205.094 94.6599C203.834 94.4079 202.028 94.2399 199.634 94.1979L196.484 94.1139L194.132 94.0719C183.716 93.8199 178.508 90.9219 178.508 85.4619V85.0839C178.508 84.1599 178.634 83.2779 178.886 82.4799C179.138 81.6819 179.642 80.8839 180.44 80.0439C181.196 79.2459 182.204 78.5739 183.464 78.0279C184.724 77.4819 186.404 77.0199 188.546 76.6839C190.646 76.3059 193.124 76.1379 195.938 76.1379H198.92C201.818 76.1379 204.422 76.3059 206.648 76.6839C208.916 77.0619 210.68 77.5239 212.024 78.1119C213.368 78.6999 214.46 79.4139 215.3 80.2539C216.14 81.0939 216.728 81.9339 217.022 82.7319C217.358 83.5719 217.526 84.4539 217.526 85.4199V85.7979H207.11C207.026 85.5039 206.942 85.2099 206.858 84.9999C206.774 84.7899 206.522 84.4959 206.144 84.1179C205.766 83.7399 205.304 83.4459 204.674 83.1939C204.086 82.9839 203.162 82.7739 201.986 82.5639C200.81 82.3959 199.886 82.3119 198.29 82.3119H196.82C194.384 82.3119 192.872 82.4379 191.57 82.6899C190.31 82.9839 189.512 83.2779 189.26 83.5719C188.966 83.8659 188.84 84.2859 188.84 84.8319C188.84 85.3359 188.966 85.7139 189.302 86.0499C189.596 86.3439 190.31 86.6379 191.444 86.9319C192.578 87.1839 194.174 87.3099 196.232 87.3519L198.584 87.3939L201.608 87.4359C207.614 87.5199 211.898 88.2759 214.544 89.6619C217.232 91.0479 218.534 93.1899 218.534 96.1719V96.7179C218.534 97.8099 218.408 98.7759 218.156 99.6159C217.904 100.456 217.358 101.338 216.56 102.262C215.762 103.144 214.712 103.9 213.368 104.488C212.024 105.118 210.218 105.58 207.908 105.958C205.598 106.378 202.868 106.546 199.76 106.546H196.82Z" fill="#CE91FF"/>
<path d="M246.701 376L312 413.701L274.299 479L209 441.299L246.701 376Z" fill="url(#paint0_linear_117_718)"/>
</g>
<defs>
<filter id="filter0_b_117_718" x="-4" y="-4" width="344" height="512" filterUnits="userSpaceOnUse" color-interpolation-filters="sRGB">
<feFlood flood-opacity="0" result="BackgroundImageFix"/>
<feGaussianBlur in="BackgroundImageFix" stdDeviation="2"/>
<feComposite in2="SourceAlpha" operator="in" result="effect1_backgroundBlur_117_718"/>
<feBlend mode="normal" in="SourceGraphic" in2="effect1_backgroundBlur_117_718" result="shape"/>
</filter>
<linearGradient id="paint0_linear_117_718" x1="288.639" y1="394.052" x2="248.289" y2="465.196" gradientUnits="userSpaceOnUse">
<stop stop-color="#DB00FF"/>
<stop offset="1" stop-color="#0085FF" stop-opacity="0"/>
</linearGradient>
</defs>
</svg>
