<svg width="64" height="64" viewBox="0 0 64 64" fill="none" xmlns="http://www.w3.org/2000/svg">
<rect width="64" height="64" rx="32" fill="white" fill-opacity="0.2"/>
<mask id="mask0_707_33069" style="mask-type:alpha" maskUnits="userSpaceOnUse" x="16" y="16" width="32" height="32">
<rect x="16" y="16" width="32" height="32" fill="#D9D9D9"/>
</mask>
<g mask="url(#mask0_707_33069)">
<path d="M22.8574 45.3346V19.968C22.8574 19.5902 22.9852 19.2791 23.2408 19.0346C23.4963 18.7902 23.813 18.668 24.1908 18.668C24.5685 18.668 24.8852 18.7957 25.1408 19.0513C25.3963 19.3069 25.5241 19.6235 25.5241 20.0013V21.3346H42.2241C42.6908 21.3346 43.0574 21.5291 43.3241 21.918C43.5908 22.3069 43.6352 22.7235 43.4574 23.168L41.5241 28.0013L43.4574 32.8346C43.6352 33.2791 43.5908 33.6957 43.3241 34.0846C43.0574 34.4735 42.6908 34.668 42.2241 34.668H25.5241V45.3346H22.8574ZM25.5241 32.0013H40.2574L38.6574 28.0013L40.2574 24.0013H25.5241V32.0013Z" fill="white"/>
</g>
</svg>
