<svg width="500" height="500" viewBox="0 0 500 500" fill="none" xmlns="http://www.w3.org/2000/svg">
<g clip-path="url(#clip0_1134_5709)">
<rect width="500" height="500" rx="250" fill="white"/>
<path d="M53.8877 290.9C51.3538 290.9 49.4485 288.59 49.9314 286.102L64.1964 212.615C64.5641 210.721 66.223 209.353 68.1527 209.353H89.2062C103.873 209.353 115.403 219.723 112.875 236.772C110.599 252.251 98.2589 262.622 78.8891 262.622H70.9821C69.0537 262.622 67.3954 263.988 67.0264 265.881L62.7845 287.641C62.4155 289.534 60.7573 290.9 58.8288 290.9H53.8877ZM81.3167 249.975C92.2912 250.025 99.0175 244.714 100.282 236.67C101.597 227.615 94.9716 222.05 86.7787 222.05H78.8743C76.9446 222.05 75.2857 223.418 74.918 225.313L71.0671 245.148C70.5856 247.628 72.4787 249.935 75.0051 249.946L81.3167 249.975Z" fill="#098BFA"/>
<path d="M129.184 273.351C128.7 275.84 130.605 278.152 133.14 278.152H157.782C160.323 278.152 162.229 280.474 161.735 282.967L160.805 287.654C160.431 289.541 158.776 290.9 156.852 290.9H117.51C114.976 290.9 113.07 288.59 113.553 286.102L127.818 212.615C128.186 210.721 129.845 209.353 131.775 209.353H136.76C139.295 209.353 141.201 211.666 140.716 214.154L129.184 273.351Z" fill="#098BFA"/>
<path d="M227.932 290.9C226.041 290.9 224.404 289.585 223.997 287.737L222.659 281.669C222.252 279.822 220.615 278.506 218.724 278.506H188.699C187.279 278.506 185.964 279.254 185.237 280.474L180.197 288.933C179.471 290.153 178.155 290.9 176.735 290.9H171.029C167.863 290.9 165.933 287.416 167.613 284.732L215.323 208.514C215.647 207.997 216.213 207.684 216.823 207.684C217.642 207.684 218.354 208.246 218.544 209.043L236.862 285.936C237.466 288.469 235.545 290.9 232.942 290.9H227.932ZM196.561 261.437C194.961 264.123 196.897 267.529 200.024 267.529H214.51C217.089 267.529 219.004 265.141 218.444 262.624L214.506 244.91C213.714 241.349 208.976 240.588 207.109 243.723L196.561 261.437Z" fill="#098BFA"/>
<path d="M312.006 212.409C312.375 210.516 314.033 209.151 315.961 209.151H320.853C323.387 209.151 325.292 211.461 324.809 213.948L309.743 291.617C309.664 292.024 309.308 292.317 308.895 292.317C308.612 292.317 308.348 292.179 308.186 291.947L275.96 245.7C273.924 242.778 269.376 243.74 268.697 247.236L260.83 287.74C260.462 289.634 258.803 291.001 256.874 291.001H251.989C249.454 291.001 247.548 288.689 248.033 286.201L263.145 208.635C263.224 208.229 263.58 207.937 263.993 207.937C264.276 207.937 264.541 208.075 264.702 208.307L296.834 254.456C298.869 257.377 303.415 256.419 304.097 252.925L312.006 212.409Z" fill="#098BFA"/>
<path d="M386.098 218.682C385.732 220.579 384.072 221.949 382.14 221.949H355.515C353.584 221.949 351.925 223.318 351.558 225.213L349.073 238.046C348.591 240.533 350.497 242.842 353.03 242.842H371.779C374.313 242.842 376.219 245.153 375.735 247.641L374.824 252.329C374.456 254.223 372.797 255.59 370.868 255.59H348.986C347.058 255.59 345.4 256.956 345.031 258.849L342.203 273.351C341.717 275.839 343.623 278.152 346.158 278.152H369.655C372.189 278.152 374.095 280.464 373.611 282.951L372.7 287.639C372.331 289.533 370.673 290.9 368.744 290.9H330.527C327.993 290.9 326.087 288.59 326.57 286.102L340.835 212.615C341.203 210.721 342.862 209.353 344.792 209.353H383.014C385.546 209.353 387.451 211.66 386.972 214.146L386.098 218.682Z" fill="#098BFA"/>
<path d="M445.107 209.353C447.643 209.353 449.548 211.667 449.063 214.155L448.158 218.792C447.788 220.685 446.13 222.05 444.202 222.05H430.411C428.482 222.05 426.824 223.417 426.455 225.311L414.323 287.64C413.954 289.534 412.296 290.9 410.367 290.9H405.429C402.894 290.9 400.989 288.588 401.473 286.1L413.006 226.851C413.491 224.363 411.585 222.05 409.051 222.05H398.301C395.765 222.05 393.859 219.737 394.345 217.248L395.25 212.611C395.619 210.719 397.277 209.353 399.206 209.353H445.107Z" fill="#098BFA"/>
<path d="M253.161 237.557C253.194 237.556 253.226 237.555 253.258 237.554C254.406 237.511 255.067 237.317 255.162 236.96C255.258 236.603 254.783 236.105 253.81 235.493C253.801 235.488 253.791 235.482 253.782 235.476C253.764 235.465 253.746 235.454 253.728 235.442C248.987 232.515 233.116 227.051 213.963 221.918C194.81 216.784 178.334 213.578 172.765 213.742C172.732 213.743 172.7 213.744 172.668 213.746C171.52 213.789 170.86 213.982 170.764 214.339C170.668 214.697 171.144 215.195 172.116 215.806C172.143 215.823 172.171 215.84 172.198 215.857C175.85 218.112 186.103 221.871 199.372 225.824C199.834 225.962 200.332 225.762 200.569 225.343C200.897 224.763 200.6 224.028 199.961 223.838C193.473 221.904 187.72 220.021 183.127 218.344C182.198 218.005 182.499 216.883 183.473 217.054C191.213 218.412 201.813 220.807 213.427 223.919C225.04 227.032 235.417 230.26 242.799 232.955C243.728 233.294 243.428 234.416 242.453 234.245C238.366 233.528 233.48 232.522 228.07 231.273C227.341 231.105 226.677 231.739 226.815 232.474C226.891 232.878 227.2 233.199 227.6 233.291C239.676 236.078 249.191 237.674 253.161 237.557Z" fill="#098BFA"/>
</g>
<defs>
<clipPath id="clip0_1134_5709">
<rect width="500" height="500" rx="250" fill="white"/>
</clipPath>
</defs>
</svg>
