<svg width="500" height="500" viewBox="0 0 500 500" fill="none" xmlns="http://www.w3.org/2000/svg">
<g clip-path="url(#clip0_1063_35748)">
<rect width="500" height="500" rx="250" fill="white"/>
<path fill-rule="evenodd" clip-rule="evenodd" d="M249.5 -1C111.153 -1 -1 111.153 -1 249.5C-1 387.847 111.153 500 249.5 500C387.847 500 500 387.847 500 249.5C500 111.153 387.847 -1 249.5 -1ZM138.634 347.833C159.67 359.978 182.113 362.856 205.962 356.465L357.61 315.831C360.981 314.928 363.473 313.08 365.085 310.286C366.698 307.492 367.053 304.41 366.15 301.04C365.247 297.67 363.399 295.179 360.606 293.566C357.811 291.953 354.73 291.598 351.36 292.501L199.711 333.135C182.601 337.719 166.322 335.552 150.874 326.633C135.426 317.713 125.41 304.699 120.825 287.59C116.241 270.481 118.408 254.202 127.327 238.754C136.247 223.306 149.261 213.289 166.37 208.705L329.683 164.945C340.572 162.028 350.781 163.321 360.313 168.824C369.845 174.327 376.07 182.523 378.987 193.41C381.904 204.298 380.611 214.508 375.108 224.04C369.604 233.572 361.409 239.796 350.522 242.714L202.761 282.306C198.354 283.487 194.262 282.986 190.481 280.804C186.701 278.621 184.221 275.327 183.04 270.92C181.859 266.513 182.36 262.419 184.542 258.64C186.725 254.86 190.02 252.379 194.427 251.198L330.521 214.732C333.891 213.829 336.382 211.98 337.996 209.187C339.609 206.393 339.964 203.311 339.061 199.941C338.158 196.571 336.309 194.079 333.515 192.466C330.722 190.853 327.639 190.498 324.27 191.401L188.175 227.868C177.287 230.785 169.092 237.01 163.589 246.542C158.085 256.074 156.792 266.284 159.709 277.171C162.627 288.059 168.852 296.254 178.384 301.758C187.916 307.261 198.125 308.554 209.013 305.637L356.773 266.044C373.883 261.46 386.896 251.444 395.815 235.995C404.734 220.547 406.902 204.268 402.317 187.159C397.733 170.05 387.717 157.036 372.268 148.117C356.82 139.198 340.541 137.03 323.432 141.615L160.119 185.374C136.27 191.765 118.272 205.478 106.127 226.514C93.9821 247.55 91.104 269.993 97.4949 293.842C103.885 317.691 117.599 335.688 138.634 347.833Z" fill="#CCBAFF"/>
</g>
<defs>
<clipPath id="clip0_1063_35748">
<rect width="500" height="500" rx="250" fill="white"/>
</clipPath>
</defs>
</svg>
