<svg width="500" height="500" viewBox="0 0 500 500" fill="none" xmlns="http://www.w3.org/2000/svg">
<rect width="500" height="500" rx="250" fill="white"/>
<path d="M151.847 133.356L147.2 168.69L136.344 193.955L141.645 210.934L125.086 336.847C124.104 344.124 128.41 350.967 135.064 352.794L308.271 400.348C314.924 402.175 321.993 398.455 324.693 391.65L399.511 201.352L281.335 145.323L151.847 133.356Z" fill="#FFCC49"/>
<path d="M148.439 170.282L142.951 211.942C137.594 218.991 132.811 225.866 128.889 232.457C120.511 246.534 117.43 257.091 118.515 264.285C119.349 269.816 123.26 276.575 139.084 281.689C154.571 286.688 167.831 287.494 179.866 285.295C191.956 283.087 203.453 277.73 215.232 269.478C235.83 255.048 255.875 232.918 280.477 205.759L280.487 205.748C284.694 201.103 289.035 196.311 293.535 191.385C297.692 186.834 304.65 186.601 309.078 190.863C313.505 195.126 313.725 202.27 309.568 206.82C305.256 211.541 301.029 216.213 296.871 220.809C272.46 247.791 250.432 272.138 227.614 288.124C213.978 297.676 199.601 304.62 183.694 307.525C167.734 310.44 150.873 309.171 132.459 303.226C112.233 296.69 99.3818 285.009 96.7816 267.764C94.4322 252.181 101.245 235.624 110.126 220.701C119.278 205.322 132.12 189.273 145.216 174.016C146.286 172.768 147.361 171.523 148.439 170.282Z" fill="#D3D3D3"/>
<path d="M142.745 122.141L145.947 94.4006C146.506 90.0481 150.649 87.045 154.755 88.1723L422.169 161.591C426.274 162.718 428.397 167.442 426.758 171.498L415.885 197.132C413.416 203.031 407.258 206.211 401.423 204.61L151.729 136.056C145.787 134.424 142.005 128.514 142.745 122.141Z" fill="#EDAB00"/>
</svg>
