<svg width="500" height="500" viewBox="0 0 500 500" fill="none" xmlns="http://www.w3.org/2000/svg">
<g clip-path="url(#clip0_1134_5768)">
<rect width="500" height="500" rx="250" fill="white"/>
<path fill-rule="evenodd" clip-rule="evenodd" d="M199.701 278.635C204.817 256.663 225.588 240.281 250.452 240.281C275.316 240.281 296.087 256.663 301.306 278.635C302.636 284.513 299.259 290.488 293.427 292.993C266.108 304.461 234.9 304.461 207.58 292.993C201.645 290.488 198.371 284.513 199.701 278.635ZM127.876 281.155H127.876C127.876 283.658 128.774 286.16 130.568 288.055C131.384 288.916 132.385 289.651 133.571 290.204L241.215 340.439C247.064 343.143 253.939 343.143 259.788 340.439L367.431 290.204C371.2 288.448 373.098 284.849 373.126 281.235V322.534C373.126 334.611 365.94 345.501 354.545 350.549L263.898 390.74C255.377 394.502 245.625 394.502 237.104 390.74L146.457 350.549C135.165 345.501 127.876 334.611 127.876 322.534V281.155Z" fill="#533566"/>
<path d="M133.57 272.108L241.213 221.872C247.062 219.168 253.835 219.168 259.787 221.872L367.43 272.108C375.023 275.644 375.023 286.669 367.43 290.205L259.787 340.441C253.938 343.145 247.062 343.145 241.213 340.441L133.57 290.205C125.977 286.669 125.977 275.644 133.57 272.108ZM199.701 278.635C198.37 284.513 201.645 290.488 207.579 292.993C234.899 304.461 266.107 304.461 293.427 292.993C299.259 290.488 302.635 284.513 301.305 278.635C296.087 256.663 275.316 240.281 250.452 240.281C225.588 240.281 204.817 256.663 199.701 278.635Z" fill="#635994"/>
<path d="M129.23 276.047C130.179 277.683 131.625 279.08 133.57 279.986L241.213 330.222C247.062 332.926 253.938 332.926 259.787 330.222L367.43 279.986C369.375 279.08 370.822 277.683 371.77 276.047C374.525 280.8 373.078 287.574 367.43 290.205L259.787 340.44C253.938 343.145 247.062 343.145 241.213 340.44L133.57 290.205C127.922 287.574 126.475 280.8 129.23 276.047Z" fill="#6B438B"/>
<path d="M250.5 148.312C256.144 148.312 260.719 152.888 260.719 158.531V242.836C260.719 248.48 256.144 250.5 250.5 250.5C244.856 250.5 240.281 248.48 240.281 242.836V158.531C240.281 152.888 244.856 148.312 250.5 148.312Z" fill="#D3D3D3"/>
<path d="M298.323 155.261C298.323 181.674 276.912 203.085 250.5 203.085C224.087 203.085 202.676 181.674 202.676 155.261C202.676 128.849 224.087 107.438 250.5 107.438C276.912 107.438 298.323 128.849 298.323 155.261ZM152.962 278.704C154.392 272.164 160.319 267.157 167.37 267.157C174.421 267.157 180.348 272.164 181.881 278.704C182.289 280.441 181.267 282.28 179.632 282.996C171.866 286.47 162.976 286.47 155.21 282.996C153.472 282.28 152.553 280.441 152.962 278.704Z" fill="#F8312F"/>
</g>
<defs>
<clipPath id="clip0_1134_5768">
<rect width="500" height="500" rx="250" fill="white"/>
</clipPath>
</defs>
</svg>
