<svg width="320" height="480" viewBox="0 0 320 480" fill="none" xmlns="http://www.w3.org/2000/svg">
<g filter="url(#filter0_b_115_703)">
<rect width="320" height="480" rx="24" fill="white"/>
<path d="M242.465 401.092L248.039 390.764L253.613 401.092L248.039 407.213L242.465 401.092Z" fill="#EBC284"/>
<path fill-rule="evenodd" clip-rule="evenodd" d="M247.5 454C274.286 454 296 432.286 296 405.5C296 378.714 274.286 357 247.5 357C220.714 357 199 378.714 199 405.5C199 432.286 220.714 454 247.5 454ZM224.548 408.361C223.429 420.104 230.52 424.81 231.317 424.81V435.139C227.202 433.226 218.894 428.33 218.576 424.045C218.257 419.761 218.443 404.153 218.576 396.885L222.557 393.442C224.15 395.737 228.052 400.174 230.919 399.562L231.021 399.541C234.643 398.768 242.067 397.185 242.067 387.703L239.678 383.878L248.039 373.167L256.4 383.878L254.011 387.703C254.011 397.185 261.434 398.768 265.057 399.541L265.159 399.562C268.026 400.174 271.928 395.737 273.52 393.442L277.502 396.885C277.635 404.153 277.82 419.761 277.502 424.045C277.183 428.33 268.875 433.226 264.761 435.139V424.81C265.557 424.81 272.649 420.104 271.53 408.361C271.582 410.613 248.039 413.716 248.039 413.716C248.039 413.716 224.496 410.613 224.548 408.361ZM247.641 422.132C246.181 422.642 243.261 423.739 243.261 424.045C243.261 424.351 246.181 426.723 247.641 427.87C249.101 426.723 252.02 424.351 252.02 424.045C252.02 423.739 249.101 422.642 247.641 422.132ZM231.321 415.011C231.318 415.089 231.317 415.167 231.317 415.247C231.317 418.627 234.169 421.367 237.687 421.367C240.218 421.367 242.405 419.949 243.432 417.894L231.321 415.011ZM264.136 415.247C264.136 415.167 264.135 415.089 264.132 415.011L252.02 417.894C253.048 419.949 255.234 421.367 257.766 421.367C261.284 421.367 264.136 418.627 264.136 415.247Z" fill="#EBC284"/>
<path d="M38.196 106.042V83.614H24.42V76.642H62.136V83.614H48.318V106.042H38.196ZM65.0737 76.684H98.0857V83.32H75.0277V87.688H97.5397V94.366H75.0277V106H65.0737V76.684ZM113.583 106.042V83.614H99.8067V76.642H137.523V83.614H123.705V106.042H113.583ZM163.387 76.936L179.011 105.958H169.141L166.411 100.666H145.453L142.723 105.958H132.895L148.477 76.936H163.387ZM148.855 94.114H163.051L157.507 83.446H154.357L148.855 94.114Z" fill="#EBC284"/>
</g>
<defs>
<filter id="filter0_b_115_703" x="-4" y="-4" width="328" height="488" filterUnits="userSpaceOnUse" color-interpolation-filters="sRGB">
<feFlood flood-opacity="0" result="BackgroundImageFix"/>
<feGaussianBlur in="BackgroundImageFix" stdDeviation="2"/>
<feComposite in2="SourceAlpha" operator="in" result="effect1_backgroundBlur_115_703"/>
<feBlend mode="normal" in="SourceGraphic" in2="effect1_backgroundBlur_115_703" result="shape"/>
</filter>
</defs>
</svg>
