<svg width="160" height="260" viewBox="0 0 160 260" fill="none" xmlns="http://www.w3.org/2000/svg">
<path fill-rule="evenodd" clip-rule="evenodd" d="M82.5199 53.0077C85.1492 50.4184 86.8292 47.0424 88.4586 43.7331C92.4266 35.6744 82.1332 31.6717 76.0186 31.4077C63.0986 30.8451 50.1839 38.5731 44.5839 50.2291C44.3234 50.7712 44.0663 51.3309 43.8063 51.8969C42.0627 55.6929 40.1895 59.771 36.2746 60.7411C35.7151 60.8801 35.1329 60.9443 34.5528 61.0081C33.6091 61.112 32.6709 61.2153 31.8452 61.6397C30.5119 62.3251 29.7679 64.4904 31.0452 65.2904C31.4719 65.5117 31.9466 65.6291 32.4266 65.6317L38.6426 66.1491C38.0292 68.3437 38.0826 71.6184 40.3466 71.8664C41.3039 71.9704 42.1866 71.3811 42.9332 70.7731C43.6005 70.2275 44.4316 69.7097 45.2854 69.1776C46.844 68.2064 48.4787 67.1878 49.3332 65.8664C50.1095 64.6653 50.4621 63.2855 50.8114 61.9185C51.2361 60.2565 51.656 58.6133 52.8266 57.3331C56.2666 53.5997 62.0452 52.2264 66.7946 54.0477C67.561 54.3357 68.2997 54.6988 69.0377 55.0616C70.1587 55.6128 71.2781 56.1631 72.4906 56.4477C76.0826 57.2904 79.8906 55.5971 82.5199 53.0077ZM109.912 51.7474C106.824 45.6327 96.8585 41.3927 89.9999 41.4674C89.9999 41.4674 84.9705 50.8434 83.4665 52.6674C81.4159 55.166 74.9332 57.734 74.9332 57.734C76.196 58.3169 77.6711 58.5812 79.2391 58.8623C81.9757 59.3527 84.9955 59.894 87.6639 62.2674C89.7945 64.6914 90.7519 68.0274 90.5599 71.2487C90.5323 71.712 90.4823 72.1773 90.4324 72.6425C90.299 73.8858 90.1655 75.129 90.4585 76.334C90.8612 77.99 92.4719 79.5394 94.1145 79.0887L106.979 86.6887C107.304 88.3207 109.475 88.6327 110.808 87.7554C112.141 86.878 112.768 85.2567 113.109 83.6967C113.135 83.5771 113.161 83.4563 113.186 83.3349C113.389 82.3707 113.599 81.3711 114.309 80.6914C115.089 79.9258 116.195 79.8071 117.316 79.6868C118.233 79.5883 119.161 79.4887 119.931 79.0327C121.891 77.8727 121.909 74.9127 120.787 72.9314C120.096 71.7129 119.109 70.7133 118.12 69.7112C117.5 69.0837 116.88 68.4552 116.331 67.7714C114.198 65.1138 113.256 61.8189 112.309 58.5044C111.648 56.1916 110.985 53.8693 109.912 51.7474Z" fill="black"/>
<path d="M72.4898 56.4419C70.4791 55.9699 68.7244 54.7672 66.7938 54.0419C62.0444 52.2259 56.2658 53.5992 52.8258 57.3326L50.6658 66.9326C49.0658 69.3326 48.7991 72.2659 47.9991 75.1992C47.9991 76.0419 44.7564 87.4232 52.2658 94.9326C54.9324 97.5992 58.3991 98.6659 61.9991 99.4659C65.2284 99.9646 68.7564 100.466 71.8658 99.1992C71.6871 101.975 71.6604 103.957 71.7884 106.735L90.5884 104.799C90.2818 101.151 90.9538 97.8686 92.5404 94.5672C92.8978 93.8206 93.6738 93.8286 94.4391 93.5859C95.1164 93.3726 95.7884 93.1272 96.4444 92.8499C97.7804 92.2952 99.0418 91.5779 100.204 90.7166C102.503 88.9806 104.292 86.5432 104.967 83.7166C105.578 81.1539 105.148 78.1032 102.287 76.6606C100.282 75.6472 98.4818 76.0072 95.4231 78.6952L94.1058 79.1006C92.4631 79.5512 90.8524 78.0019 90.4498 76.3459C90.0471 74.6899 90.4498 72.9619 90.5511 71.2606C90.7431 68.0392 89.7858 64.7032 87.6551 62.2792C85.5244 59.8552 82.1804 58.4552 78.9911 58.9486" fill="#FFD39F"/>
<path fill-rule="evenodd" clip-rule="evenodd" d="M40.576 73.4795C40.4453 73.4795 40.3093 73.4715 40.1733 73.4581C39.0853 73.3381 38.1893 72.7968 37.576 71.8928C36.7786 70.7141 36.608 69.1008 36.752 67.5995L32.3493 67.2341C31.64 67.2208 30.9333 67.0395 30.304 66.7115C30.2666 66.6928 30.2293 66.6715 30.1946 66.6475C29.2506 66.0555 28.736 65.0421 28.7866 63.8635C28.848 62.3888 29.8053 60.8901 31.112 60.2181C32.1879 59.6643 33.3318 59.5356 34.3422 59.4219L34.376 59.4181C34.92 59.3595 35.432 59.3008 35.888 59.1888C39.0539 58.4053 40.7285 54.7615 42.3488 51.2356L42.352 51.2288L42.434 51.0505L42.4341 51.0504L42.4341 51.0503C42.6703 50.5372 42.9047 50.0278 43.1413 49.5355C49.0053 37.3301 62.5573 29.2181 76.088 29.8075C80.1573 29.9835 87.1866 31.8901 89.8746 36.4261C90.864 38.0928 91.6693 40.8368 89.896 44.4395C88.3066 47.6715 86.5013 51.3328 83.6453 54.1461C80.328 57.4128 75.9146 58.8928 72.128 58.0048C70.7605 57.6846 69.5558 57.0957 68.3892 56.5255L68.3333 56.4981L68.3075 56.4855L68.3074 56.4854L68.3072 56.4853C67.5942 56.1354 66.9196 55.8043 66.2346 55.5461C62.128 53.9701 56.9893 55.1808 54.0053 58.4181C53.153 59.3503 52.8594 60.7985 52.5478 62.3351L52.5466 62.3408L52.5425 62.3611C52.2852 63.6283 52.021 64.9294 51.4301 66.1549C51.9016 66.5879 52.0851 67.2819 51.8394 67.9147C50.0207 72.592 49.1407 76.3707 48.922 78.3467C48.1994 84.9467 49.922 90.7253 53.6527 94.1973C55.6474 96.0533 58.1994 97.2027 61.6847 97.816C65.2474 98.4373 68.426 98.856 71.2394 97.7067C71.7487 97.4987 72.33 97.568 72.778 97.888C73.226 98.208 73.4767 98.7387 73.442 99.288C73.2714 101.971 73.242 102.563 73.37 105.315C73.41 106.197 72.7274 106.947 71.8447 106.987C71.8181 106.997 71.7941 106.997 71.7674 106.997H71.7674C70.9167 106.997 70.21 106.328 70.17 105.469C70.0847 103.592 70.066 102.648 70.1194 101.36C66.914 101.979 63.65 101.411 61.1327 100.971C57.066 100.253 53.906 98.8053 51.4714 96.5413C46.9967 92.3733 44.9087 85.616 45.7407 77.9973C45.978 75.8492 46.7076 72.9034 47.765 69.7608C47.3088 70.0274 46.8411 70.2806 46.3774 70.5316L46.3653 70.5381L46.3534 70.5445C45.4298 71.0435 44.5547 71.5163 43.9493 72.0128C43.0906 72.7088 41.9546 73.4795 40.576 73.4795ZM31.9866 63.9568C32.1306 64.0048 32.2826 64.0315 32.4346 64.0315C32.4749 64.0315 32.5128 64.0338 32.5528 64.0363L32.56 64.0368L38.776 64.5541C39.2506 64.5941 39.6853 64.8421 39.9573 65.2341C40.2293 65.6261 40.312 66.1195 40.184 66.5781C39.8 67.9488 39.8213 69.4955 40.2293 70.0981C40.312 70.2208 40.376 70.2581 40.5226 70.2741C40.951 70.3211 41.6556 69.7491 41.9099 69.5426L41.9253 69.5301C42.768 68.8421 43.8213 68.2715 44.8426 67.7195L44.8564 67.712C46.2414 66.9623 47.6712 66.1884 48.2586 65.2768C48.88 64.3141 49.1386 63.0448 49.4106 61.7008C49.776 59.8928 50.192 57.8421 51.648 56.2501C55.5493 52.0155 62.0133 50.4955 67.3706 52.5515C68.1979 52.8627 68.9828 53.2482 69.741 53.6207L69.7411 53.6207L69.7466 53.6235L69.7562 53.6282C70.822 54.1517 71.827 54.6455 72.8586 54.8875C76.1173 55.6501 79.408 53.8261 81.4 51.8661C83.8683 49.4351 85.4699 46.1851 87.0197 43.0402L87.0266 43.0261C87.9546 41.1408 87.9866 39.5141 87.1253 38.0581C85.384 35.1221 80.08 33.1835 75.9546 33.0048C63.656 32.4688 51.3573 39.8368 46.032 50.9195C45.7808 51.4427 45.5323 51.9838 45.2812 52.5304L45.2666 52.5621C43.4213 56.5808 41.328 61.1355 36.6666 62.2901C36.0215 62.4514 35.3916 62.5213 34.7818 62.589L34.736 62.5941L34.7296 62.5948C33.9159 62.6852 33.1452 62.7709 32.584 63.0581C32.2453 63.2341 32.0133 63.7035 31.9866 63.9568ZM91.4159 80.1752C92.0879 80.5726 92.8159 80.7752 93.5385 80.7752C93.8745 80.7752 94.2079 80.7299 94.5305 80.6446C94.7928 80.5733 95.022 80.441 95.2071 80.2672C95.6444 80.3213 96.1018 80.1954 96.4589 79.8813C99.3896 77.3053 100.459 77.5213 101.55 78.0733C104.048 79.3346 103.664 82.1666 103.382 83.332C102.832 85.644 101.35 87.8093 99.2215 89.4173C98.1656 90.2013 97.0162 90.8546 95.7922 91.3613C95.1869 91.6173 94.5602 91.8466 93.9256 92.0466C93.8288 92.0782 93.7205 92.1047 93.6058 92.1329L93.5122 92.156C92.8242 92.3213 91.6749 92.5986 91.0669 93.86C89.4082 97.3133 88.6269 99.1533 88.9656 103.169C89.0349 104.004 89.7362 104.636 90.5576 104.636C90.6029 104.636 90.6482 104.633 90.6962 104.623C91.5762 104.551 92.2296 103.775 92.1549 102.895C91.8882 99.7586 92.3629 98.556 93.8962 95.356C93.972 95.3314 94.0794 95.3052 94.1783 95.2811C94.208 95.2738 94.2371 95.2668 94.2642 95.26C94.4509 95.2146 94.6642 95.1613 94.8856 95.092C95.6136 94.8653 96.3362 94.5986 97.0269 94.308C98.4829 93.7053 99.8642 92.9213 101.139 91.9746C102.97 90.5927 104.428 88.8751 105.407 86.9803L105.411 87.0015C105.635 88.1375 106.397 89.0522 107.496 89.5108C108.016 89.7268 108.587 89.8335 109.16 89.8335C110.045 89.8335 110.944 89.5802 111.683 89.0868C113.16 88.1135 114.136 86.4602 114.667 84.0335L114.747 83.6575L114.749 83.6446C114.908 82.8894 115.058 82.1782 115.424 81.8282C115.805 81.4524 116.58 81.3696 117.478 81.2737L117.48 81.2735C118.507 81.1642 119.672 81.0388 120.739 80.4068C122.093 79.6068 122.931 78.1988 123.101 76.4415C123.24 74.9962 122.904 73.4282 122.173 72.1402C121.379 70.7385 120.3 69.6458 119.256 68.5878L119.253 68.5855C118.645 67.9695 118.072 67.3882 117.573 66.7695C115.643 64.3642 114.768 61.3055 113.843 58.0655L113.837 58.0441L113.837 58.044C113.167 55.6987 112.474 53.2746 111.336 51.0255C107.949 44.3188 101.133 40.0148 93.9307 40.0148H93.7334C92.8507 40.0228 92.1414 40.7482 92.1521 41.6308C92.1627 42.5082 92.8774 43.2122 93.7521 43.2122H93.7707H93.9334C99.9387 43.2122 105.637 46.8282 108.483 52.4655C109.488 54.4522 110.112 56.6308 110.771 58.9402C111.741 62.3428 112.747 65.8602 115.083 68.7695C115.681 69.5143 116.341 70.1822 116.977 70.8261L116.977 70.8263L116.977 70.8265L116.981 70.8308L116.994 70.8434C117.928 71.7907 118.811 72.6861 119.395 73.7162C120.133 75.0228 120.173 77.0255 119.115 77.6522C118.647 77.9313 117.922 78.009 117.154 78.0914L117.147 78.0922L117.144 78.0925C115.907 78.2258 114.367 78.3917 113.205 79.5322C112.136 80.5561 111.851 81.9133 111.621 83.0039L111.621 83.0039L111.621 83.0042L111.621 83.005C111.597 83.1221 111.573 83.2391 111.547 83.3535C111.203 84.9242 110.672 85.9268 109.928 86.4175C109.595 86.6362 109.069 86.6975 108.731 86.5562C108.573 86.4895 108.56 86.4282 108.549 86.3748C108.376 85.5082 107.533 84.9455 106.667 85.1188C106.466 85.1591 106.281 85.2353 106.118 85.3395C106.265 84.9237 106.39 84.502 106.491 84.076C107.435 80.1773 106.094 76.7826 102.99 75.2146C100.99 74.204 98.5549 73.7773 94.3469 77.476C94.3335 77.4878 94.3203 77.4998 94.3073 77.5119C94.1075 77.4874 93.8997 77.5004 93.6932 77.5566L93.6918 77.5569C93.6184 77.576 93.4003 77.6325 93.0452 77.4232C92.5679 77.1406 92.1519 76.5566 92.0105 75.9699C91.7839 75.0312 91.8985 73.9592 92.0212 72.8205L92.0253 72.7825C92.0747 72.3196 92.126 71.8392 92.1545 71.3539C92.3812 67.5512 91.1812 63.8579 88.8639 61.2206C86.0079 57.9699 82.7972 57.9566 79.7545 58.4259C78.8799 58.5592 78.2825 59.3779 78.4159 60.2499C78.5492 61.1246 79.3679 61.7219 80.2399 61.5886C83.2852 61.1192 84.9145 61.5752 86.4585 63.3326C88.2265 65.3406 89.1359 68.1939 88.9599 71.1619C88.9384 71.5428 88.8979 71.928 88.8553 72.3325L88.8399 72.4792L88.8372 72.5043C88.694 73.8565 88.5461 75.2536 88.9012 76.7192C89.2505 78.1566 90.1892 79.4499 91.4159 80.1752ZM58.2483 74.6919C59.2792 74.6919 60.115 73.6771 60.115 72.4253C60.115 71.1734 59.2792 70.1586 58.2483 70.1586C57.2174 70.1586 56.3816 71.1734 56.3816 72.4253C56.3816 73.6771 57.2174 74.6919 58.2483 74.6919ZM67.3139 75.3201C68.3449 75.3201 69.1806 74.3052 69.1806 73.0534C69.1806 71.8015 68.3449 70.7867 67.3139 70.7867C66.283 70.7867 65.4473 71.8015 65.4473 73.0534C65.4473 74.3052 66.283 75.3201 67.3139 75.3201Z" fill="black"/>
<path fill-rule="evenodd" clip-rule="evenodd" d="M95.9394 107.867C91.8407 108.779 90.7394 102.693 90.4994 100H72.6007C72.4528 100.448 72.3159 101.245 72.1639 102.13C71.894 103.701 71.5765 105.55 71.0647 106.213C70.9974 106.294 70.9124 106.398 70.8131 106.519C70.0282 107.476 68.3531 109.52 67.4914 110.064C66.7287 110.544 65.8994 111.016 64.9981 110.989H64.7101C62.7287 114.176 64.3021 117.893 67.2941 120.576C70.2861 123.259 74.5394 124.216 78.5394 123.923C83.0754 123.6 87.3741 121.765 90.7447 118.712C94.0621 115.659 96.1794 112.712 96.3794 108.533L95.9394 107.867ZM100.172 142.665L100.542 143.086C100.316 162.195 102.285 181.287 104.29 200.738V200.738L104.291 200.74C104.834 206.012 105.38 211.31 105.886 216.641C104.961 216.718 104.081 217.078 103.372 217.676C102.66 218.273 102.15 219.076 101.916 219.974C101.678 220.873 101.729 221.822 102.054 222.692C102.38 223.561 102.969 224.308 103.737 224.83C104.174 225.126 104.657 225.342 105.14 225.558L105.14 225.558C105.572 225.75 106.004 225.943 106.404 226.193C108.288 227.368 109.15 229.544 110.005 231.705C110.914 234.002 111.817 236.282 113.934 237.324C116.966 238.814 120.766 236.54 122.14 233.449C123.513 230.358 123.137 226.814 122.729 223.46C120.988 209.188 116.836 167.382 116.11 158.633C116.11 158.633 112.633 126.292 111.737 122.577C110.841 118.862 107.804 115.684 105.036 113.049L104.438 112.663C102.569 117.39 97.4224 137.649 100.172 142.665ZM57.4057 115.94L57.899 114.409C56.3364 114.836 55.1577 116.103 54.1657 117.377C51.0804 121.321 49.451 126.324 48.683 131.271C48.1314 134.825 47.5057 138.819 46.8301 143.131L46.8301 143.131C43.7789 162.604 39.7103 188.57 36.859 209.927C35.9977 209.823 35.123 209.972 34.3417 210.351C33.5604 210.729 32.9044 211.327 32.4537 212.068C32.003 212.809 31.771 213.665 31.7924 214.532C31.811 215.401 32.0804 216.244 32.5657 216.964C32.6906 217.147 32.8289 217.321 32.9672 217.496L32.9672 217.496C33.1478 217.724 33.3282 217.951 33.4777 218.196C34.1524 219.321 34.115 220.721 34.035 222.033L34.0217 222.251C33.8753 224.636 33.7221 227.131 34.7444 229.284C35.7977 231.503 38.6137 233.095 40.771 231.921C42.275 231.1 42.9204 229.313 43.4377 227.681C44.1657 225.527 44.7844 223.335 45.2884 221.116C45.8617 218.383 48.2217 206.255 48.451 203.468L46.3124 202.42C46.3124 202.42 53.995 145.025 57.4057 115.94Z" fill="#FFD39F"/>
<path d="M100.17 142.667C97.4211 137.651 102.568 117.393 104.434 112.665C104.624 112.302 104.365 112.547 104.322 112.142C104.192 111.521 98.8451 108.145 96.4505 107.867C95.9971 112.401 94.0985 115.63 90.7411 118.713C87.3705 121.766 83.0718 123.601 78.5358 123.923C74.5358 124.217 70.2825 123.259 67.2905 120.577C64.2985 117.894 62.8905 113.297 64.8718 110.118L59.4665 112.598C58.8238 112.891 58.1331 113.217 57.7678 113.817C57.4025 114.417 57.5011 115.219 57.4211 115.95C53.9998 145.035 45.3358 200.785 46.1091 200.87C63.9971 202.987 87.1118 204.894 104.448 199.998H104.49C103.066 180.798 100.333 161.961 100.562 143.094" fill="black"/>
<path fill-rule="evenodd" clip-rule="evenodd" d="M95.4951 106.584C95.8207 106.342 96.2286 106.233 96.6317 106.279C98.349 106.479 100.752 107.751 102.032 108.492C105.061 110.247 105.65 111.074 105.821 111.57C105.85 111.614 105.877 111.66 105.903 111.707C105.986 111.761 106.066 111.823 106.14 111.895C109.287 114.887 112.332 118.209 113.295 122.207C114.202 125.98 117.559 157.14 117.7 158.465C117.7 158.479 117.703 158.492 117.703 158.505C118.455 167.575 122.594 209.151 124.316 223.271L124.317 223.273C124.709 226.499 125.196 230.511 123.602 234.103C122.631 236.289 120.65 238.145 118.431 238.951C117.61 239.239 116.783 239.388 115.978 239.388C115.012 239.388 114.076 239.177 113.226 238.759C110.556 237.445 109.473 234.712 108.516 232.297L108.514 232.292L108.509 232.281C107.727 230.306 106.988 228.442 105.554 227.548C105.253 227.36 104.891 227.197 104.507 227.025L104.484 227.015L104.451 227C103.947 226.774 103.377 226.519 102.836 226.151C101.788 225.439 100.999 224.436 100.554 223.249C100.108 222.063 100.044 220.788 100.367 219.564C100.69 218.34 101.372 217.263 102.343 216.447C102.89 215.988 103.503 215.633 104.162 215.393C103.731 210.93 103.271 206.449 102.821 202.079C95.1374 203.977 86.4654 204.668 77.661 204.668C68.2015 204.668 58.5855 203.87 49.8586 202.908C49.2343 207.662 47.3873 218.9 46.8558 221.44C46.8544 221.444 46.8538 221.449 46.8531 221.453C46.8524 221.458 46.8518 221.463 46.8504 221.466C46.3358 223.725 45.7011 225.981 44.9598 228.173C44.4878 229.664 43.6958 232.141 41.5384 233.32C40.8158 233.72 40.0104 233.917 39.1784 233.917C38.6051 233.917 38.0184 233.824 37.4371 233.635C35.6851 233.064 34.0984 231.661 33.2984 229.973C32.0995 227.45 32.2714 224.642 32.4233 222.161L32.4238 222.154L32.4371 221.938C32.5064 220.808 32.5331 219.736 32.1038 219.021C32.0203 218.884 31.8893 218.717 31.7483 218.537L31.7482 218.537L31.7118 218.491C31.5651 218.307 31.3998 218.099 31.2424 217.869C30.5784 216.885 30.2158 215.749 30.1891 214.571C30.1624 213.395 30.4718 212.24 31.0851 211.235C31.6984 210.229 32.5811 209.427 33.6398 208.912C34.2158 208.632 34.8291 208.445 35.4558 208.354C38.273 187.677 41.9827 163.923 44.9765 144.752L44.9811 144.722L45.4181 141.922L45.4185 141.92C46.0309 137.995 46.602 134.336 47.1118 131.029C48.0318 125.066 49.9838 120.141 52.9144 116.394C53.7756 115.288 54.8175 114.115 56.1949 113.384C56.2521 113.25 56.3197 113.117 56.3997 112.986C57.026 111.956 58.0856 111.47 58.7897 111.148L58.7997 111.143L64.205 108.666C64.8146 108.387 65.5299 108.517 65.9978 108.984C67.0678 108.525 67.8451 107.824 68.4184 107.307L68.4284 107.298L68.5244 107.21C69.5537 106.282 69.663 106.034 69.8817 105.536C69.8986 105.496 69.9162 105.457 69.9342 105.417C69.9503 105.381 69.9667 105.344 69.983 105.306C70.3484 104.501 71.295 104.144 72.1004 104.509C72.9057 104.874 73.263 105.821 72.8977 106.626L72.8097 106.824C72.4337 107.68 72.103 108.296 70.6657 109.589L70.5724 109.672L70.5689 109.675C69.6834 110.475 68.1083 111.899 65.6603 112.443C65.224 114.674 66.2519 117.498 68.357 119.388C70.7677 121.551 74.4343 122.623 78.4183 122.33C82.581 122.034 86.5757 120.33 89.6663 117.53C92.3456 115.07 93.8726 112.639 94.5428 109.67C92.3287 109.213 91.502 107.741 90.8239 106.53L90.7941 106.477L90.794 106.477C90.6034 106.139 90.4065 105.789 90.1759 105.447C89.6826 104.714 89.8772 103.719 90.6079 103.226C91.3412 102.733 92.3359 102.927 92.8292 103.658C93.1466 104.127 93.3946 104.57 93.6132 104.962L93.6162 104.967C94.2625 106.118 94.4663 106.481 95.4951 106.584ZM48.5838 199.541C48.6401 199.546 48.6954 199.553 48.7498 199.563C65.777 201.496 86.5162 202.928 102.49 198.863C100.544 179.961 98.7646 162.016 98.9365 143.692C98.8716 143.614 98.8131 143.529 98.7623 143.436C97.3783 140.914 97.4557 135.471 98.9944 127.263C100.064 121.556 101.645 115.66 102.693 112.735C101.797 112.02 99.509 110.634 97.7597 109.908C97.0023 113.719 95.1223 116.858 91.821 119.887C88.1943 123.172 83.5197 125.17 78.6477 125.516C73.805 125.868 69.277 124.503 66.221 121.764C63.8637 119.65 62.213 116.26 62.3677 113.023L60.1303 114.05L60.1175 114.055C59.9413 114.137 59.7072 114.244 59.5087 114.356C59.5249 114.801 59.3536 115.227 59.0502 115.536C59.0424 115.72 59.0309 115.919 59.0077 116.122C59.0023 116.172 58.9943 116.223 58.9837 116.271C53.7757 141.524 48.0983 191.002 47.6637 199.439C47.9484 199.472 48.2342 199.505 48.5211 199.537C48.542 199.538 48.5628 199.54 48.5838 199.541ZM47.7837 168.226C48.9869 158.57 52.0268 135.249 55.2595 118.599C52.7671 121.887 51.0922 126.23 50.2744 131.52C49.7455 134.953 49.1507 138.765 48.5121 142.857L48.5119 142.859L48.1438 145.218C45.0851 164.802 41.2798 189.176 38.4451 210.141C38.3278 211.008 37.5358 211.616 36.6718 211.514C36.1118 211.448 35.5491 211.544 35.0424 211.789C34.5358 212.035 34.1118 212.419 33.8211 212.901C33.5278 213.381 33.3811 213.933 33.3918 214.496C33.4051 215.058 33.5784 215.603 33.8931 216.069C33.9811 216.197 34.0984 216.347 34.2211 216.501L34.2535 216.542L34.2536 216.542C34.4428 216.783 34.6533 217.05 34.8424 217.36C35.7464 218.869 35.7278 220.544 35.6318 222.128L35.6184 222.346C35.4824 224.544 35.3438 226.816 36.1891 228.595C36.6211 229.501 37.4984 230.285 38.4291 230.587C38.8398 230.72 39.4478 230.816 40.0078 230.512C40.9598 229.992 41.4718 228.587 41.9144 227.195C41.9171 227.184 41.9198 227.176 41.9251 227.165C42.6318 225.075 43.2371 222.923 43.7278 220.771C44.2421 218.308 46.0746 207.139 46.6798 202.547C46.4255 202.517 46.1721 202.487 45.9197 202.458C45.477 202.404 45.061 202.159 44.797 201.799C44.3623 201.202 44.1837 200.954 45.189 190.932C45.8183 184.66 46.7383 176.596 47.7837 168.226ZM102.141 127.852C103.063 122.929 104.287 118.28 105.177 115.421C107.49 117.741 109.53 120.242 110.183 122.953C110.868 125.812 113.316 147.631 114.516 158.785C115.274 167.913 119.415 209.516 121.14 223.652C121.578 227.257 121.823 230.22 120.676 232.799C120.055 234.196 118.746 235.428 117.338 235.937C116.655 236.185 115.634 236.375 114.639 235.887C113.08 235.12 112.312 233.182 111.497 231.128L111.492 231.116L111.491 231.113C110.595 228.849 109.582 226.289 107.252 224.836C106.756 224.527 106.244 224.297 105.791 224.095C105.359 223.903 104.951 223.721 104.634 223.505C104.138 223.167 103.762 222.692 103.551 222.129C103.34 221.567 103.311 220.961 103.463 220.38C103.615 219.799 103.938 219.289 104.399 218.903C104.86 218.516 105.418 218.284 106.018 218.236C106.444 218.201 106.839 217.996 107.114 217.668C107.388 217.34 107.519 216.916 107.479 216.489C106.976 211.184 106.425 205.842 105.892 200.675C106.05 200.339 106.093 199.945 105.984 199.559C105.928 199.363 105.838 199.186 105.723 199.032C103.745 179.827 101.922 161.628 102.143 143.105C102.149 142.591 101.911 142.13 101.537 141.833C101.152 141.059 100.247 137.977 102.141 127.852ZM46.285 199.279C46.2887 199.279 46.2924 199.28 46.2964 199.28C46.301 199.281 46.306 199.282 46.3117 199.282L46.3067 199.281L46.3038 199.28C46.2968 199.279 46.2909 199.279 46.285 199.279Z" fill="black"/>
</svg>
