<svg width="160" height="260" viewBox="0 0 160 260" fill="none" xmlns="http://www.w3.org/2000/svg">
<path d="M44.7524 78.6219C42.315 77.5233 40.819 75.0086 39.9657 72.4886C37.6084 65.5099 39.0964 57.5953 42.867 51.2673C46.6377 44.9393 52.491 40.0673 58.867 36.3579C63.803 33.4859 69.267 31.2086 74.9817 31.1233C80.6964 31.0379 86.6777 33.4779 89.7044 38.3233L93.4884 41.6566C98.2884 40.9233 102.963 43.5926 106.648 46.7553C111.182 50.6379 114.96 55.4913 117.094 61.0646C119.227 66.6379 119.63 72.9499 117.688 78.5926C115.923 83.7153 111.382 88.5286 105.979 88.1126" fill="black"/>
<path d="M71.771 106.731C71.643 103.953 71.6697 101.971 71.8457 99.1953C68.5177 100.555 64.8377 99.9953 61.4084 99.398C58.1204 98.8193 55.0457 97.6833 52.563 95.374C47.9044 91.0353 46.667 84.2673 47.3337 78.1767C47.6004 75.758 48.6297 71.7633 50.3497 67.3393L52.3924 64.438C54.3924 61.1473 56.8964 58.1073 60.059 55.9047C63.2217 53.702 67.091 52.406 70.9257 52.7287C71.9924 52.8193 73.0937 53.046 73.9897 53.646C74.8857 54.246 75.5524 55.2753 75.475 56.35L79.507 58.6753C81.2217 57.5047 83.7444 58.4087 84.9337 60.1233C86.123 61.838 86.2857 64.0353 86.2137 66.1127C86.1417 68.19 85.875 70.302 86.3604 72.3207C86.779 73.95 87.6564 75.4247 88.891 76.5687C90.1257 77.7127 91.6617 78.478 93.3177 78.7713L95.403 78.67C98.4617 75.982 100.262 75.622 102.27 76.6353C105.128 78.078 105.558 81.1287 104.936 83.6913C104.264 86.518 102.472 88.9553 100.174 90.6913C99.0137 91.5527 97.7497 92.27 96.4137 92.8247C95.7577 93.102 95.0884 93.3473 94.4084 93.5607C93.643 93.8033 92.8697 93.7953 92.5097 94.542C90.9257 97.8433 90.251 100.977 90.5604 104.625" fill="#FFD39F"/>
<path fill-rule="evenodd" clip-rule="evenodd" d="M44.1002 80.0743C44.3135 80.1676 44.5322 80.213 44.7509 80.213C45.048 80.213 45.3394 80.129 45.5908 79.9746C45.2929 86.779 47.3888 92.7403 51.4729 96.5444C53.9076 98.8084 57.0676 100.256 61.1343 100.974C63.6516 101.414 66.9156 101.982 70.1209 101.363C70.0676 102.651 70.0863 103.595 70.1716 105.472C70.2116 106.331 70.9183 107 71.7689 107C71.7929 107 71.8169 107 71.8463 106.99C72.7289 106.95 73.4116 106.2 73.3716 105.318C73.2436 102.566 73.2729 101.974 73.4436 99.2911C73.4783 98.7418 73.2276 98.2138 72.7796 97.8911C72.3316 97.5711 71.7503 97.5018 71.2409 97.7098C68.4303 98.8591 65.2489 98.4405 61.6863 97.8191C58.2009 97.2058 55.6489 96.0564 53.6543 94.2004C49.9236 90.7284 48.2009 84.9498 48.9236 78.3498C49.1423 76.3738 50.0223 72.5951 51.8409 67.9178C52.1609 67.0938 51.7529 66.1658 50.9289 65.8458C50.1049 65.5258 49.1769 65.9338 48.8569 66.7578C47.3257 70.6942 46.2106 74.619 45.8154 77.4209C45.6952 77.3139 45.5566 77.2234 45.4015 77.1543C43.2842 76.2103 42.1002 73.8156 41.4789 71.9676C39.4095 65.8636 40.4389 58.429 44.2309 52.0796C47.4895 46.6236 52.6816 41.797 59.6629 37.733C65.3429 34.4263 70.3589 32.7863 74.9962 32.7143C80.6042 32.6316 85.8362 35.1596 88.3375 39.1623C88.8069 39.9116 89.7936 40.141 90.5429 39.6716C91.2922 39.2023 91.5216 38.2156 91.0522 37.4663C87.9242 32.4556 81.7402 29.4103 74.9482 29.5143C69.7455 29.5943 64.2202 31.3756 58.0522 34.965C50.5989 39.3036 45.0229 44.509 41.4842 50.437C37.2202 57.581 36.0842 66.013 38.4495 72.989C39.6335 76.5063 41.5855 78.9543 44.1002 80.0743ZM106.628 89.729C106.366 89.729 106.108 89.7183 105.846 89.6996C105.173 89.6486 104.628 89.1854 104.44 88.5765C103.553 89.842 102.439 90.9948 101.137 91.9778C99.8627 92.9244 98.4813 93.7084 97.0253 94.3111C96.3347 94.6018 95.612 94.8684 94.884 95.0951C94.6627 95.1644 94.4493 95.2178 94.2627 95.2631C94.2476 95.2669 94.2319 95.2707 94.2158 95.2747C94.203 95.2778 94.1899 95.281 94.1767 95.2842C94.0778 95.3083 93.9705 95.3345 93.8947 95.3591C92.3613 98.5591 91.8867 99.7617 92.1533 102.898C92.228 103.778 91.5747 104.551 90.6947 104.626C90.6467 104.636 90.6013 104.639 90.556 104.639C89.7347 104.639 89.0333 104.01 88.964 103.172C88.6253 99.1564 89.4067 97.3191 91.0653 93.8631C91.6733 92.6018 92.8227 92.3244 93.5107 92.1591L93.6042 92.136C93.7189 92.1079 93.8273 92.0813 93.924 92.0498C94.5587 91.8498 95.1853 91.6204 95.7907 91.3644C97.0147 90.8577 98.164 90.2044 99.22 89.4204C101.348 87.8124 102.831 85.6498 103.38 83.3351C103.663 82.1698 104.047 79.3378 101.548 78.0764C100.457 77.5244 99.388 77.3084 96.4573 79.8844C95.8706 80.4004 95.0133 80.4085 94.4188 79.9453C94.1279 80.2209 93.7359 80.3853 93.3182 80.3853C93.2248 80.3853 93.1315 80.3773 93.0355 80.3613C91.0728 80.0119 89.2622 79.1106 87.8008 77.7559C86.3395 76.4012 85.3048 74.6626 84.8088 72.7319C84.3635 70.8759 84.4595 69.0706 84.5528 67.3213L84.5664 67.0598V67.0597V67.0596V67.0596V67.0595V67.0594V67.0593C84.5837 66.7289 84.6009 66.3997 84.6115 66.0706C84.6675 64.4813 84.6035 62.4733 83.6168 61.0493C82.9288 60.0573 81.3422 59.3719 80.4062 60.0119C79.6755 60.5106 78.6808 60.3213 78.1822 59.5933C77.6835 58.8626 77.8728 57.8679 78.6008 57.3693C80.6835 55.9479 84.2515 56.3533 86.2435 59.2279C87.7688 61.4253 87.8808 64.0999 87.8088 66.1853C87.7928 66.6226 87.7715 67.0599 87.7475 67.4973C87.6622 69.0866 87.5822 70.5853 87.9128 71.9639C88.2488 73.2759 88.9635 74.4759 89.9742 75.4146C90.9848 76.3533 92.2355 76.9746 93.5928 77.2173C93.8568 77.2642 94.0942 77.3736 94.2926 77.5276C94.3097 77.5111 94.3273 77.495 94.3453 77.4791C98.5533 73.7804 100.985 74.2071 102.988 75.2178C106.092 76.7858 107.433 80.1804 106.489 84.0791C106.289 84.9215 105.998 85.7468 105.622 86.5437C105.773 86.5102 105.93 86.4981 106.092 86.5103C110.676 86.865 114.628 82.5289 116.166 78.065C117.91 72.9956 117.705 67.1583 115.59 61.6303C113.686 56.6596 110.233 51.9316 105.598 47.9636C101.3 44.2756 97.3051 42.6836 93.7211 43.2303C92.8464 43.3636 92.0304 42.7636 91.8971 41.8916C91.7637 41.0196 92.3637 40.201 93.2357 40.0676C97.7851 39.3716 102.644 41.2116 107.678 45.5343C112.713 49.8463 116.484 55.017 118.577 60.4863C120.961 66.7156 121.18 73.3263 119.19 79.1076C118.182 82.0303 116.428 84.6996 114.246 86.625C111.929 88.6623 109.31 89.7263 106.628 89.729ZM51.5539 65.8194C51.8126 65.9768 52.0979 66.0514 52.3806 66.0514C52.9219 66.0514 53.4499 65.7768 53.7486 65.2834C55.8606 61.7981 58.2873 59.0914 60.9593 57.2354C64.0446 55.0941 67.5326 54.0648 70.7806 54.3394C71.8046 54.4248 72.562 54.6381 73.0926 54.9928C73.5726 55.3128 73.8979 55.8408 73.8686 56.2488C73.8046 57.1314 74.4686 57.8968 75.3486 57.9608C76.2339 58.0248 76.9966 57.3634 77.0606 56.4808C77.1726 54.9208 76.3113 53.2914 74.8659 52.3288C73.8606 51.6568 72.6473 51.2834 71.0499 51.1474C67.0659 50.8114 62.8339 52.0381 59.1379 54.6034C56.0926 56.7154 53.3619 59.7501 51.0153 63.6221C50.5566 64.3768 50.7993 65.3608 51.5539 65.8194ZM58.2467 74.695C59.2777 74.695 60.1134 73.6802 60.1134 72.4284C60.1134 71.1765 59.2777 70.1617 58.2467 70.1617C57.2158 70.1617 56.3801 71.1765 56.3801 72.4284C56.3801 73.6802 57.2158 74.695 58.2467 74.695ZM69.1806 73.0565C69.1806 74.3084 68.3449 75.3232 67.3139 75.3232C66.283 75.3232 65.4473 74.3084 65.4473 73.0565C65.4473 71.8047 66.283 70.7898 67.3139 70.7898C68.3449 70.7898 69.1806 71.8047 69.1806 73.0565Z" fill="black"/>
<g clip-path="url(#clip0_1123_38308)">
<path fill-rule="evenodd" clip-rule="evenodd" d="M90.499 99.9988C90.739 102.692 91.8403 108.777 95.939 107.865L96.379 108.532C96.179 112.711 94.0617 115.657 90.7443 118.711C87.3737 121.764 83.075 123.599 78.539 123.921C74.539 124.215 70.2857 123.257 67.2937 120.575C64.3017 117.892 62.7283 114.175 64.7097 110.988H64.9977C65.899 111.015 66.7283 110.543 67.491 110.063C68.0507 109.709 68.2655 108.563 68.4616 107.517C68.6055 106.748 68.7394 106.034 68.9923 105.727C69.7923 104.689 72.187 101.239 72.5977 99.9961H90.499V99.9988ZM105.384 216.815C102.816 217.644 99.6825 220.175 101.856 223.023C102.842 224.32 104.245 225.122 105.637 225.918C105.93 226.086 106.223 226.254 106.512 226.426C107.464 226.991 107.894 228.562 108.256 229.886L108.256 229.886C108.379 230.335 108.494 230.755 108.618 231.098C109.866 234.522 112.29 237.332 116.266 237.066C120.309 236.799 122.824 233.356 123.592 229.644C124.381 225.822 123.614 221.289 122.962 217.434C122.927 217.227 122.892 217.023 122.858 216.82L105.384 216.815ZM30.7602 213.669C30.2269 211.536 31.8269 209.936 33.6936 209.24L46.9469 211.229C47.4642 215.723 46.4216 219.533 45.1789 223.267C44.9764 223.878 44.853 224.518 44.7301 225.156C44.5245 226.223 44.3204 227.282 43.7496 228.187C42.8376 229.632 41.1816 230.344 39.4109 230.432C36.6109 230.547 33.1602 230.184 33.1602 226.469C33.1876 226.031 33.2206 225.585 33.254 225.133C33.5461 221.18 33.8713 216.78 30.7602 213.669Z" fill="#FFD39F"/>
<path d="M53.2544 183.404C52.5317 190.644 51.4037 197.836 49.8677 204.948C48.5317 204.353 47.0891 204.03 45.6277 204.001L42.1611 203.774C39.4517 203.444 37.2757 203.116 34.5664 202.788C35.6891 190.401 37.1291 178.046 38.8864 165.721C40.4144 154.988 42.1931 144.252 45.3504 133.881C48.1557 124.665 52.6064 115.134 61.0571 110.513L62.0411 108.99L70.2411 102.377C70.7344 103.19 70.3557 104.244 70.0624 103.977L68.9557 107.929C68.8117 108.334 68.7557 108.766 68.7851 109.196C68.9664 110.438 70.4464 110.95 71.6731 111.209L72.8011 111.31C78.0091 109.177 81.9317 107.201 85.8517 105.222C88.8064 103.732 91.8571 102.214 95.1584 101.961L96.4171 106.401C101.134 107.665 104.793 111.3 107.74 115.022C110.953 119.086 113.473 123.652 115.201 128.534C116.169 131.262 117.7 134.332 118.332 137.153L119.174 139.734C124.438 162.401 124.716 185.892 124.966 209.164L101.75 208.782C100.721 200.945 99.9104 193.086 99.3184 185.201L98.2864 185.236C87.9344 186.556 77.3184 185.452 67.3184 184.182C62.0144 184.82 56.5957 184.422 51.5637 182.801" fill="black"/>
<path fill-rule="evenodd" clip-rule="evenodd" d="M72.8012 111.314L75.3558 122.402L75.3804 122.394L75.3805 122.394C79.4336 120.97 83.497 119.542 87.3558 117.656C88.7478 116.976 90.1452 116.208 91.1532 115.032C92.3452 113.642 92.8785 111.832 93.3825 110.064L93.4048 109.985C94.1547 107.345 94.905 104.703 95.1532 101.965C91.8518 102.218 88.8012 103.736 85.8465 105.226L85.7208 105.289C81.8399 107.245 77.9456 109.206 72.8012 111.314ZM34.1855 209.149C34.3562 207.163 34.5695 204.789 35.4229 202.987L49.2682 204.267C49.1135 206.189 48.1482 208.877 47.4202 210.667C47.4069 210.717 47.3775 210.763 47.3375 210.797C47.2709 210.832 47.1935 210.843 47.1215 210.821C45.9464 210.635 44.2322 210.47 42.4029 210.294C39.3092 209.997 35.8865 209.667 34.1855 209.149ZM102.669 215.202C102.525 213.125 102.663 211.039 103.085 208.999L122.746 209.274L122.938 214.189C122.957 214.789 122.917 215.498 122.405 215.789C122.154 215.903 121.879 215.954 121.605 215.933L103.471 215.983C103.277 216.005 103.079 215.959 102.911 215.858C102.829 215.77 102.765 215.666 102.722 215.554C102.679 215.442 102.663 215.322 102.669 215.202ZM68.9476 107.934L70.0543 103.982C70.3476 104.228 70.7263 103.188 70.2303 102.374L62.0303 108.988C61.8329 111.004 62.0649 113.038 62.7156 114.958C63.3663 116.878 64.4169 118.636 65.7983 120.118C68.2943 117.545 70.2863 114.524 71.6649 111.214C70.4383 110.956 68.9583 110.444 68.7769 109.201C68.7476 108.772 68.8036 108.34 68.9476 107.934Z" fill="white"/>
<path fill-rule="evenodd" clip-rule="evenodd" d="M75.3535 124C75.0868 124 74.8202 123.934 74.5828 123.803C74.1828 123.584 73.8975 123.203 73.7962 122.76L73.0187 119.386C72.4778 128.504 71.8654 137.661 71.2687 146.571L71.2426 146.962C70.4565 158.727 69.6447 170.877 69.0102 182.817C79.6277 184.451 89.002 184.737 97.608 183.692C96.4855 167.873 96.2404 151.97 96.8814 136.173C96.9161 135.29 97.6628 134.602 98.5454 134.64C99.4281 134.674 100.116 135.421 100.079 136.304C99.1214 159.912 100.156 183.754 103.156 207.194L123.345 207.525C123.338 206.709 123.331 205.897 123.324 205.087L123.324 205.073L123.323 205.049C123.316 204.169 123.308 203.293 123.3 202.421L123.3 202.401V202.401C123.135 182.318 122.979 163.345 118.273 143.069C118.073 142.208 118.609 141.349 119.471 141.149C120.329 140.949 121.191 141.485 121.391 142.346C126.173 162.967 126.332 182.111 126.5 202.376V202.376L126.5 202.394L126.502 202.603C126.52 204.759 126.538 206.932 126.561 209.133C126.567 209.565 126.396 209.981 126.089 210.285C125.793 210.584 125.385 210.752 124.964 210.752H124.937L124.4 210.743L124.532 214.122C124.545 214.538 124.576 215.561 124.031 216.392C124.233 216.612 124.376 216.891 124.43 217.208L124.477 217.483L124.519 217.726L124.556 217.946C124.584 218.108 124.612 218.27 124.641 218.432L124.643 218.445C125.293 222.188 125.965 226.058 125.158 229.965C124.123 234.963 120.675 238.376 116.371 238.659C116.166 238.677 115.961 238.683 115.761 238.683C111.886 238.683 108.755 236.149 107.115 231.645C106.969 231.24 106.843 230.787 106.713 230.309L106.709 230.295C106.52 229.607 106.089 228.036 105.694 227.803C105.411 227.635 105.129 227.472 104.843 227.309C103.401 226.485 101.766 225.549 100.582 223.992C99.2995 222.312 99.3955 220.797 99.6995 219.824C100.052 218.698 100.854 217.763 101.821 217.032C101.81 217.022 101.8 217.012 101.789 217.002C101.776 216.989 101.763 216.976 101.75 216.962C101.516 216.714 101.334 216.429 101.217 216.109C101.113 215.832 101.062 215.538 101.062 215.24C100.952 213.586 101.011 211.926 101.236 210.287C100.672 210.096 100.243 209.597 100.161 208.978C99.1987 201.648 98.4268 194.277 97.8467 186.886C94.3979 187.302 90.8294 187.508 87.1189 187.508C80.9456 187.508 74.3749 186.935 67.2789 185.783C62.976 186.277 58.6826 186.094 54.6648 185.256C53.9355 191.968 52.8494 198.697 51.4251 205.287C51.2916 205.914 50.7991 206.383 50.1968 206.511C49.9605 208.126 49.5325 209.705 48.9192 211.221C48.8202 211.497 48.6598 211.746 48.448 211.949L46.7642 223.5C46.5188 225.188 46.2121 227.287 45.1055 229.044C43.9828 230.823 41.9375 231.911 39.4922 232.034C39.2095 232.044 38.9108 232.052 38.6015 232.052C36.7828 232.052 34.5588 231.778 33.0682 230.348C32.0682 229.388 31.5588 228.084 31.5588 226.474C31.5588 226.442 31.5588 226.407 31.5615 226.375C31.5867 225.956 31.6192 225.527 31.652 225.093L31.6575 225.02C31.9348 221.274 32.2202 217.399 29.6282 214.804C29.4228 214.599 29.2788 214.343 29.2068 214.06C28.577 211.541 29.965 209.127 32.6813 207.927C32.8026 206.624 32.986 205.247 33.4215 203.909C33.0943 203.584 32.9099 203.122 32.9558 202.628C34.0758 190.263 35.5318 177.764 37.2864 165.479C38.7691 155.066 40.5851 143.972 43.8038 133.399C47.6304 120.876 52.8651 113.156 60.2811 109.1C60.3261 109.076 60.3718 109.053 60.418 109.034C60.4238 108.965 60.4301 108.897 60.4368 108.828C60.4795 108.402 60.6901 108.007 61.0261 107.738L69.2261 101.124C69.5861 100.836 70.0501 100.714 70.5035 100.794C70.9568 100.874 71.3541 101.143 71.5941 101.538C72.2955 102.687 72.1995 104.263 71.4075 105.074L70.4875 108.362C70.4821 108.379 70.4768 108.396 70.4715 108.412C70.4661 108.429 70.4608 108.446 70.4555 108.463C70.3968 108.631 70.3675 108.804 70.3675 108.98C70.4181 109.052 70.7275 109.378 71.9941 109.644C72.1198 109.671 72.2405 109.712 72.354 109.766C77.3642 107.705 81.2468 105.751 85.0042 103.856L85.1268 103.795C88.0495 102.32 91.3642 100.648 95.0308 100.368C95.5002 100.331 95.9615 100.504 96.2922 100.84C96.6228 101.176 96.7881 101.64 96.7455 102.107C96.6631 103.018 96.5286 103.916 96.3595 104.802C96.5137 104.796 96.6713 104.813 96.828 104.855C102.404 106.348 106.441 110.807 108.991 114.028C112.319 118.239 114.916 122.94 116.705 127.999C117.018 128.881 117.394 129.801 117.791 130.773L117.791 130.773L117.828 130.863C118.625 132.812 119.447 134.828 119.889 136.802C120.081 137.663 119.54 138.519 118.679 138.714C118.561 138.74 118.444 138.754 118.327 138.754C117.593 138.754 116.935 138.247 116.767 137.503C116.383 135.791 115.612 133.903 114.865 132.076C114.457 131.082 114.039 130.052 113.689 129.071C112.017 124.34 109.591 119.948 106.481 116.015C104.215 113.148 100.66 109.196 95.9987 107.946C95.8801 107.914 95.7683 107.869 95.6641 107.814C95.4343 108.688 95.189 109.552 94.9465 110.406L94.9428 110.419L94.9215 110.496C94.4281 112.23 93.8121 114.384 92.3668 116.07C91.1828 117.451 89.5962 118.339 88.0575 119.088C84.1162 121.014 79.9482 122.48 75.9162 123.896L75.8842 123.907C75.7108 123.971 75.5322 124 75.3535 124ZM36.5534 204.643C36.1859 205.655 36.0121 206.773 35.8979 207.904C37.6499 208.227 40.2232 208.475 42.5512 208.699C43.9112 208.829 45.2152 208.955 46.2979 209.091C46.6237 208.13 46.8638 207.145 47.0161 206.144C46.8847 206.121 46.7535 206.098 46.623 206.075L46.6228 206.075L46.5691 206.066L46.4546 206.046C45.7663 205.925 45.1169 205.811 44.5584 205.74L40.6011 205.178C39.4623 205.039 38.6438 204.928 37.8912 204.825L37.8906 204.825L37.4998 204.772L37.3152 204.747L37.3146 204.747C37.0636 204.713 36.8136 204.678 36.5534 204.643ZM34.1278 210.792C33.6067 211.007 32.2115 211.699 32.2602 212.93C35.4936 216.523 35.1377 221.347 34.8498 225.251L34.8495 225.255L34.8469 225.29L34.8469 225.29C34.8158 225.705 34.7848 226.117 34.7615 226.519C34.7721 227.546 35.1569 227.914 35.2859 228.038L35.2868 228.039C35.9242 228.652 37.2922 228.919 39.3482 228.836C40.7242 228.767 41.8415 228.22 42.3988 227.335C43.1423 226.159 43.3729 224.583 43.596 223.059L43.5988 223.039L45.1819 212.179C44.323 212.083 43.3456 211.989 42.3334 211.891L42.2446 211.883C39.1917 211.59 36.0442 211.286 34.1278 210.792ZM51.0709 184.308C51.2243 184.357 51.3783 184.406 51.5329 184.453C50.8679 190.716 49.8842 197.001 48.6038 203.17C48.1158 203.092 47.6171 203.004 47.1238 202.916C46.3558 202.78 45.6304 202.652 44.9878 202.57L41.0358 202.007C41.0251 202.004 41.0144 202.002 41.0038 202.002C39.7847 201.852 38.9371 201.736 38.1396 201.627L37.9371 201.599C37.4224 201.527 36.8998 201.455 36.2811 201.375C37.3771 189.567 38.7798 177.652 40.4518 165.93C41.9158 155.644 43.7078 144.698 46.8624 134.332C50.1924 123.433 54.5577 116.498 60.5252 112.673C60.6635 113.617 60.8884 114.551 61.1995 115.468C61.9275 117.618 63.0795 119.548 64.6261 121.207C64.9248 121.527 65.3435 121.711 65.7808 121.716H65.7968C66.2288 121.716 66.6448 121.54 66.9461 121.228C68.032 120.109 69.0229 118.917 69.915 117.658C69.3602 127.139 68.7228 136.683 68.1029 145.966L68.0767 146.358L68.0501 146.756L68.05 146.758C67.2627 158.552 66.4496 170.732 65.8122 182.712C61.0212 183.123 56.288 182.627 52.0522 181.263C51.6442 181.132 51.4709 181.031 51.4016 180.983C51.3758 180.826 51.4073 180.474 51.4215 180.316L51.4229 180.3C52.553 168.169 53.6881 156.041 54.8233 143.911L54.8242 143.902L54.9776 142.263C55.3136 138.687 55.2736 134.289 51.9909 132.017C51.2629 131.513 50.2656 131.695 49.7642 132.423C49.2602 133.151 49.4416 134.148 50.1696 134.649C52.0896 135.975 52.0442 139.255 51.7909 141.964C50.6042 154.641 49.4176 167.321 48.2362 180.001L48.2361 180.003C48.1774 180.638 48.0794 181.698 48.6656 182.663C49.2549 183.631 50.3189 184.065 51.0709 184.308ZM74.6628 112.27L76.5108 120.296C79.9295 119.086 83.4042 117.803 86.6495 116.216C87.7962 115.656 89.0868 114.976 89.9348 113.99C90.9242 112.835 91.3908 111.203 91.8415 109.624L91.8628 109.547L91.868 109.529L91.868 109.529C92.4155 107.599 92.9412 105.746 93.2762 103.88C90.9642 104.435 88.7348 105.558 86.5642 106.654L86.4415 106.715L86.4159 106.728L86.4159 106.728L86.4158 106.728C82.8878 108.505 79.249 110.338 74.6628 112.27ZM121.251 217.531L106.766 217.572C106.606 218.029 106.242 218.409 105.745 218.568C104.262 219.048 103.003 219.979 102.75 220.781C102.702 220.933 102.577 221.336 103.123 222.053C103.915 223.093 105.134 223.792 106.427 224.531L106.645 224.655C106.874 224.786 107.101 224.917 107.326 225.051C108.831 225.943 109.365 227.892 109.794 229.46L109.795 229.464L109.821 229.557C109.926 229.936 110.024 230.29 110.118 230.549C110.982 232.92 112.726 235.691 116.155 235.469C118.409 235.32 121.129 233.627 122.022 229.32C122.707 226.008 122.087 222.44 121.487 218.989L121.486 218.981L121.449 218.765L121.448 218.763C121.389 218.42 121.33 218.08 121.273 217.741C121.261 217.671 121.254 217.601 121.251 217.531ZM121.195 210.69L104.451 210.415C104.25 211.728 104.174 213.056 104.222 214.384L121.337 214.336C121.337 214.306 121.337 214.274 121.334 214.24L121.195 210.69ZM64.2288 114.444C63.7195 112.938 63.4981 111.375 63.5728 109.796L67.6901 106.474L67.4155 107.455C67.2101 108.055 67.1301 108.679 67.1755 109.314C67.1779 109.349 67.1824 109.383 67.1871 109.418L67.1888 109.431C67.3675 110.642 68.1301 111.564 69.4635 112.183C68.4901 114.154 67.2848 115.988 65.8608 117.666C65.1675 116.682 64.6208 115.602 64.2288 114.444Z" fill="black"/>
</g>
<defs>
<clipPath id="clip0_1123_38308">
<rect width="160" height="160" fill="white" transform="translate(0 100)"/>
</clipPath>
</defs>
</svg>
