<svg width="160" height="260" viewBox="0 0 160 260" fill="none" xmlns="http://www.w3.org/2000/svg">
<path d="M95.6372 98.5115C96.5892 99.9275 97.5785 101.384 98.9945 102.338C100.411 103.293 102.376 103.64 103.819 102.728C105.419 101.712 106.421 99.2608 108.304 99.5275C109.048 99.6368 109.637 100.186 110.197 100.696C111.763 102.144 113.573 103.562 115.704 103.696C117.835 103.829 120.171 102.042 119.8 99.9408C119.669 99.1995 119.232 98.5168 119.24 97.7648C119.253 96.4528 120.573 95.5622 121.144 94.3835C122.515 91.6022 119.603 87.9648 121.197 85.3035C121.688 84.4902 122.517 83.9515 123.229 83.3222C126.765 80.1888 127.099 74.1008 123.923 70.5995C122.747 69.3035 121.149 68.2902 120.523 66.6555C120.133 65.6395 120.176 64.5222 120.195 63.4315C120.296 57.2022 119.328 50.8262 116.36 45.3462C113.392 39.8662 109.597 38.3568 103.48 37.1755L98.6985 34.2048C97.2052 31.8315 94.3732 30.6902 91.6638 29.9702C83.1305 27.7088 72.4745 25.2662 64.3919 28.7995C56.3092 32.3328 49.5279 38.8928 46.0239 46.9888C44.2159 51.1675 43.1972 55.8235 40.2452 59.2902C37.7279 62.2475 34.0692 64.0075 31.3359 66.7568C28.6025 69.5062 26.9865 74.2235 29.4879 77.1942C29.9945 77.7968 30.6559 78.3062 30.9439 79.0422C31.9332 81.5675 28.1359 83.1915 26.9119 85.6128C25.7679 87.8795 27.1199 90.6288 28.8399 92.4982C30.5599 94.3675 32.7332 95.9648 33.6719 98.3195C34.3679 100.069 34.4159 102.264 35.9279 103.386C37.6212 104.645 40.0425 103.744 42.1012 104.21C44.1599 104.677 45.6372 106.461 47.2425 107.856C48.8479 109.25 51.2292 110.333 53.0319 109.205C53.9919 108.602 54.5439 107.496 55.4985 106.888C57.4212 105.661 59.8772 106.901 62.0505 107.592C64.2239 108.282 67.4958 107.562 67.3652 105.285" fill="black"/>
<path d="M90.5702 104.644C90.2662 100.994 90.9436 97.8631 92.5329 94.5618C92.8929 93.8151 93.6662 93.8231 94.4316 93.5804C95.1116 93.3671 95.7782 93.1218 96.4369 92.8444C97.7729 92.2898 99.0369 91.5724 100.197 90.7111C102.496 88.9751 104.288 86.5378 104.96 83.7111C105.57 81.1484 105.141 78.0978 102.293 76.6551C100.285 75.6418 98.4849 76.0018 95.4262 78.6898L94.5196 76.5324C95.4742 71.8578 95.8636 67.0818 95.6796 62.3138C95.5942 60.0738 92.5596 56.5538 90.4876 55.6978L86.8982 52.0444C85.0316 48.3111 71.5302 47.1084 67.5249 48.2684C60.5702 50.5271 58.5516 51.7218 56.5382 54.4311C54.5249 57.1404 53.4422 60.4124 52.3942 63.6204L50.3489 67.3324C48.6289 71.7564 47.5942 75.7511 47.3329 78.1698C46.6742 84.2604 47.9036 91.0284 52.5622 95.3671C55.0449 97.6764 58.1196 98.8124 61.4076 99.3911C64.8369 99.9964 68.5169 100.548 71.8449 99.1884C71.6689 101.964 71.6422 104.212 71.7702 106.991" fill="#FFD39F"/>
<path fill-rule="evenodd" clip-rule="evenodd" d="M46.1903 109.064C47.5877 110.277 49.4757 111.28 51.3477 111.28C52.2117 111.28 53.073 111.066 53.8757 110.546C54.5557 110.12 55.041 109.57 55.4677 109.085L55.483 109.068C55.7866 108.725 56.0724 108.402 56.353 108.224C57.3023 107.618 58.817 108.149 60.4197 108.714C60.793 108.848 61.1797 108.981 61.561 109.104C63.6117 109.757 66.0623 109.421 67.5183 108.29C68.5183 107.514 69.0277 106.41 68.9583 105.181C68.9077 104.298 68.153 103.624 67.2703 103.674C66.3877 103.725 65.713 104.48 65.7637 105.362C65.7717 105.49 65.761 105.602 65.5557 105.76C64.937 106.242 63.5503 106.376 62.5317 106.053C62.1877 105.944 61.8383 105.821 61.4837 105.696L61.4765 105.693C59.4351 104.976 56.8944 104.084 54.6357 105.525C53.9754 105.945 53.5008 106.483 53.0824 106.957L53.0703 106.97C52.7583 107.325 52.465 107.658 52.1797 107.837C51.1717 108.469 49.4997 107.69 48.289 106.637C47.9836 106.372 47.6831 106.09 47.3647 105.792L47.3646 105.792L47.3103 105.741L47.3017 105.733C45.9811 104.498 44.4872 103.1 42.4517 102.64C41.4543 102.413 40.4437 102.442 39.553 102.469L39.5413 102.469H39.5412C38.4289 102.501 37.4656 102.529 36.8783 102.09C36.2788 101.643 36.0254 100.687 35.7324 99.5813L35.7317 99.5784C35.5717 98.9677 35.4037 98.3384 35.1557 97.7144C34.3397 95.6717 32.8437 94.2104 31.3957 92.7971L31.2452 92.6493L31.245 92.649C30.812 92.2237 30.3993 91.8181 30.0143 91.3997C28.7503 90.0264 27.553 87.8717 28.337 86.3197C28.673 85.6557 29.3903 84.9571 30.0837 84.2824C31.4997 82.9064 33.4383 81.0184 32.4303 78.4451C32.1103 77.6291 31.5557 77.0504 31.1103 76.5864C30.961 76.4317 30.8223 76.2851 30.7077 76.1491C28.873 73.9731 30.193 70.1571 32.465 67.8717C33.6057 66.7231 34.9328 65.7529 36.3399 64.7242L36.3423 64.7224L36.3441 64.7211L36.3442 64.7211C38.1196 63.4228 39.9535 62.0818 41.457 60.3144C43.7393 57.6353 44.9285 54.387 46.0791 51.2442L46.0791 51.2441L46.0837 51.2317L46.1221 51.1271C46.5527 49.9543 46.9969 48.7447 47.4863 47.6131C50.7743 40.0157 57.169 33.6877 65.0277 30.2531C72.513 26.9811 82.489 29.1837 91.249 31.5064C93.241 32.0371 96.0383 32.9784 97.3397 35.0477C97.809 35.7944 98.7957 36.0184 99.545 35.5491C100.292 35.0797 100.516 34.0904 100.046 33.3437C98.145 30.3224 94.5823 29.0851 92.0677 28.4157C82.785 25.9571 72.1743 23.6397 63.745 27.3251C55.153 31.0824 48.1557 38.0157 44.5503 46.3464C44.009 47.5971 43.5343 48.8904 43.0783 50.1384C41.9743 53.1544 40.9317 56.0024 39.0197 58.2477C37.765 59.7225 36.1674 60.8913 34.4787 62.1266L34.4787 62.1267L34.4517 62.1464C33.0063 63.2024 31.513 64.2957 30.193 65.6237C28.5743 67.2504 27.3663 69.4051 26.881 71.5304C26.2943 74.0957 26.7823 76.4691 28.2543 78.2184C28.4201 78.4183 28.5881 78.5937 28.7502 78.7629L28.7502 78.7629L28.7957 78.8104C29.0863 79.1117 29.3583 79.3944 29.4463 79.6211C29.6463 80.1331 29.1397 80.7411 27.8463 81.9997L27.8359 82.0099C26.9984 82.8261 26.0493 83.7511 25.4757 84.8877C24.4783 86.8611 24.529 90.1811 27.6543 93.5784C28.1423 94.1091 28.657 94.6131 29.1557 95.0984L29.1627 95.1053L29.1628 95.1054C30.4242 96.3375 31.6154 97.5011 32.177 98.9091C32.3524 99.3528 32.488 99.8628 32.6315 100.402L32.6315 100.402L32.633 100.408C33.0223 101.882 33.465 103.554 34.9663 104.669C36.4459 105.768 38.1379 105.72 39.6343 105.677L39.6437 105.677L39.6622 105.677C40.426 105.655 41.1445 105.636 41.7423 105.77C42.937 106.042 43.9983 107.034 45.121 108.088L45.2368 108.196L45.2369 108.196C45.5467 108.484 45.8632 108.779 46.1903 109.064ZM115.6 105.305C115.71 105.313 115.822 105.316 115.934 105.316C117.534 105.316 119.158 104.593 120.238 103.393C121.203 102.316 121.606 100.998 121.374 99.6838C121.296 99.2464 121.163 98.8651 121.043 98.5291C120.942 98.2438 120.838 97.9504 120.838 97.8011C120.84 97.5212 121.203 97.0654 121.555 96.6229L121.555 96.6228L121.555 96.6224C121.899 96.1904 122.288 95.6998 122.579 95.1104C123.497 93.2469 123.061 91.3064 122.674 89.5912L122.672 89.5824L122.671 89.5749C122.354 88.1701 122.081 86.9596 122.568 86.1477C122.792 85.7771 123.227 85.4198 123.688 85.0438C123.891 84.8784 124.094 84.7131 124.288 84.5397C126.291 82.7717 127.531 80.1024 127.691 77.2171C127.854 74.3264 126.912 71.5291 125.11 69.5424C124.702 69.0944 124.27 68.6918 123.851 68.3051C123.064 67.5771 122.32 66.8864 122.019 66.1024C121.764 65.4325 121.779 64.5691 121.795 63.6576L121.795 63.6491L121.798 63.4758C121.918 56.1078 120.563 49.7557 117.771 44.6011C114.579 38.7077 110.392 36.8971 103.787 35.6224C102.918 35.4544 102.08 36.0224 101.912 36.8891C101.744 37.7557 102.312 38.5957 103.179 38.7637C109.072 39.9024 112.339 41.2944 114.955 46.1238C117.483 50.7904 118.71 56.6091 118.598 63.4198L118.595 63.5877L118.595 63.6064V63.6066C118.576 64.7273 118.555 65.9974 119.032 67.2438C119.6 68.7238 120.704 69.7477 121.678 70.6491C122.064 71.0064 122.427 71.3424 122.742 71.6891C123.971 73.0464 124.611 74.9958 124.499 77.0384C124.387 79.0758 123.539 80.9344 122.174 82.1397C122.05 82.2498 121.921 82.3553 121.793 82.4608C121.75 82.4959 121.707 82.5311 121.664 82.5664C121.043 83.0731 120.339 83.6491 119.827 84.4971C118.678 86.4117 119.142 88.4678 119.552 90.2837C119.851 91.6011 120.131 92.8438 119.712 93.6918C119.574 93.9744 119.32 94.2944 119.054 94.6304C118.43 95.4117 117.656 96.3878 117.643 97.7798C117.643 98.4969 117.859 99.1048 118.032 99.5928L118.032 99.5931L118.041 99.6168C118.12 99.8455 118.196 100.063 118.227 100.233C118.302 100.652 118.067 101.017 117.859 101.252C117.363 101.804 116.52 102.158 115.808 102.113C114.166 102.009 112.603 100.75 111.283 99.5318L111.251 99.5024L111.244 99.4961C110.61 98.9153 109.745 98.1232 108.531 97.9584C106.488 97.6704 105.171 99.1291 104.211 100.196C103.774 100.681 103.36 101.14 102.966 101.39C102.067 101.961 100.742 101.601 99.891 101.028C98.7117 100.232 97.8274 98.915 96.9728 97.6423L96.9683 97.6358C96.475 96.9024 95.4803 96.7051 94.747 97.1984C94.0137 97.6918 93.8163 98.6864 94.3097 99.4198L94.3246 99.442C95.3023 100.895 96.409 102.54 98.1017 103.681C100.227 105.113 102.808 105.276 104.68 104.092C105.445 103.604 106.05 102.933 106.585 102.339L106.587 102.337L106.599 102.324C107.152 101.709 107.723 101.076 108.088 101.129C108.318 101.158 108.752 101.556 109.074 101.852L109.083 101.86L109.11 101.884C110.835 103.481 112.958 105.137 115.6 105.305ZM52.3922 65.225C52.2269 65.225 52.0589 65.1983 51.8962 65.145C51.0562 64.8703 50.5976 63.9663 50.8722 63.1263C51.8962 59.9876 53.0589 56.4303 55.2536 53.4783C56.6696 51.5716 58.3042 50.2276 60.7149 48.9796C64.9922 46.769 69.8936 45.8356 74.8909 46.2783C78.3229 46.5823 86.5069 47.6836 88.3282 51.329C88.7229 52.1183 88.4029 53.081 87.6136 53.4756C86.8242 53.8703 85.8616 53.5503 85.4669 52.761C84.8669 51.561 80.6402 50.001 74.6082 49.465C70.2162 49.0756 65.9202 49.8916 62.1842 51.8223C60.2055 52.8436 58.9416 53.8756 57.8216 55.3876C55.9392 57.9206 54.9099 61.0719 53.9154 64.1168L53.9149 64.1183C53.6936 64.7957 53.0669 65.225 52.3922 65.225ZM97.2946 62.2641C97.4675 66.8531 97.1203 71.4655 96.262 75.9843C99.3325 73.9314 101.311 74.3682 102.988 75.2146C106.092 76.7826 107.433 80.1773 106.489 84.076C105.769 87.1053 103.868 89.9133 101.137 91.9746C99.8627 92.9213 98.4813 93.7053 97.0253 94.308C96.3347 94.5986 95.612 94.8653 94.884 95.092C94.6627 95.1613 94.4493 95.2146 94.2627 95.26C94.2359 95.2666 94.2074 95.2736 94.1782 95.2807L94.1767 95.2811C94.0778 95.3052 93.9705 95.3314 93.8947 95.356C92.3613 98.556 91.8867 99.7586 92.1533 102.895C92.228 103.775 91.5747 104.548 90.6947 104.623C90.6467 104.633 90.6013 104.636 90.556 104.636C89.7347 104.636 89.0333 104.007 88.964 103.169C88.6253 99.1533 89.4067 97.316 91.0653 93.86C91.6733 92.5986 92.8227 92.3213 93.5107 92.156L93.6043 92.1328L93.6044 92.1328C93.719 92.1047 93.8273 92.0782 93.924 92.0466C94.5587 91.8466 95.1853 91.6173 95.7907 91.3613C97.0147 90.8546 98.164 90.2013 99.22 89.4173C101.348 87.8093 102.831 85.6466 103.38 83.332C103.663 82.1666 104.047 79.3346 101.548 78.0733C100.457 77.5213 99.388 77.3053 96.4573 79.8813C95.7933 80.4653 94.7827 80.3986 94.1987 79.7346C93.7719 79.2494 93.6926 78.579 93.94 78.0253C93.2245 77.7476 92.7931 76.9881 92.9533 76.2135C93.8866 71.6695 94.2706 67.0135 94.0946 62.3761C94.0466 60.9281 91.5693 57.8721 89.8893 57.1788C89.0733 56.8401 88.684 55.9068 89.0226 55.0881C89.3613 54.2721 90.2946 53.8828 91.1133 54.2215C92.364 54.7388 93.852 55.9575 95.0893 57.4801C95.8867 58.4615 97.2306 60.3841 97.2946 62.2641ZM58.2467 74.6919C59.2777 74.6919 60.1134 73.6771 60.1134 72.4253C60.1134 71.1734 59.2777 70.1586 58.2467 70.1586C57.2158 70.1586 56.3801 71.1734 56.3801 72.4253C56.3801 73.6771 57.2158 74.6919 58.2467 74.6919ZM69.179 73.0534C69.179 74.3052 68.3433 75.3201 67.3124 75.3201C66.2814 75.3201 65.4457 74.3052 65.4457 73.0534C65.4457 71.8015 66.2814 70.7867 67.3124 70.7867C68.3433 70.7867 69.179 71.8015 69.179 73.0534ZM70.1716 105.469C70.2116 106.328 70.9183 106.997 71.7689 106.997C71.7929 106.997 71.8169 106.997 71.8463 106.987C72.7289 106.947 73.4116 106.197 73.3716 105.315C73.2436 102.563 73.2729 101.971 73.4436 99.288C73.4783 98.7387 73.2276 98.2107 72.7796 97.888C72.3316 97.568 71.7503 97.4987 71.2409 97.7067C68.4303 98.856 65.2489 98.4373 61.6863 97.816C58.2009 97.2027 55.6489 96.0533 53.6543 94.1973C49.9236 90.7253 48.2009 84.9467 48.9236 78.3467C49.1423 76.3707 50.0223 72.592 51.8409 67.9147C52.1609 67.0907 51.7529 66.1627 50.9289 65.8427C50.1049 65.5227 49.1769 65.9307 48.8569 66.7547C47.2169 70.9707 46.0543 75.1733 45.7423 77.9973C44.9103 85.616 46.9983 92.3733 51.4729 96.5413C53.9076 98.8053 57.0676 100.253 61.1343 100.971C63.6516 101.411 66.9156 101.979 70.1209 101.36C70.0676 102.648 70.0863 103.592 70.1716 105.469Z" fill="black"/>
<path d="M90.499 100C90.739 102.693 91.8403 108.779 95.939 107.867L96.379 108.533C96.179 112.712 94.0617 115.659 90.7443 118.712C87.3737 121.765 83.075 123.6 78.539 123.923C74.539 124.216 70.2857 123.259 67.2937 120.576C64.3017 117.893 62.7283 114.176 64.7097 110.989H64.9977C65.899 111.016 66.7283 110.544 67.491 110.064C68.4617 109.451 70.4643 106.936 71.0643 106.213C71.8643 105.176 72.1897 101.243 72.6003 100H90.499V100Z" fill="#FFD39F"/>
<path d="M39.3083 230.576C38.0017 230.533 36.735 230.125 35.647 229.4C34.559 228.674 33.6977 227.661 33.1563 226.472C33.423 222.205 34.223 217.138 30.7563 213.672C30.223 211.538 31.823 209.938 33.6897 209.242L41.1777 210.213L39.3083 230.576Z" fill="#FFD39F"/>
<path fill-rule="evenodd" clip-rule="evenodd" d="M38.4744 203.278C39.6897 203.402 40.8983 203.525 42.1524 203.763L42.2804 203.779L40.4537 219.529L40.4522 219.541C40.0527 222.98 39.6535 226.415 39.5017 229.878C39.4644 230.75 39.4617 231.691 39.963 232.406C40.5683 233.278 41.7044 233.542 42.739 233.739L54.2057 235.934L57.5577 236.326C75.3257 239.323 93.1257 238.545 110.862 235.363L123.254 232.897C124.385 232.546 125.623 232.391 126.871 232.235C129.491 231.908 132.154 231.576 133.96 229.409C134.179 228.905 134.27 228.355 134.227 227.809C133.456 224.106 131.078 217.458 128.892 211.348C127.3 206.897 125.81 202.731 125.118 200.198L124.851 199.763C124.55 179.587 123.731 159.353 119.174 139.734L118.326 137.171C116.086 129.945 113.152 123.011 109.024 116.747L108.491 111.627C108.502 110.793 108.291 109.966 107.88 109.238C107.47 108.51 106.875 107.902 106.155 107.475C105.435 107.049 104.616 106.822 103.779 106.814C102.942 106.806 102.118 107.019 101.39 107.433C102.36 106.153 101.878 104.147 100.611 103.166C99.3444 102.185 97.555 102.102 96.027 102.582C94.499 103.062 93.1817 104.035 91.9284 105.033C91.0207 105.757 90.1225 106.51 89.2223 107.264C85.4412 110.431 81.6244 113.628 76.9204 114.921L73.7684 113.934C72.011 113.539 70.8324 111.889 70.1444 110.227C69.9059 109.652 69.7072 109.058 69.5087 108.465C69.1344 107.346 68.7608 106.23 68.123 105.241C67.147 103.726 65.3017 102.545 63.5897 103.094C61.491 103.766 60.9177 106.395 60.5283 108.566C60.4937 108.897 60.379 109.217 60.1924 109.491C59.8939 109.862 59.3902 109.969 58.9187 110.07C58.8889 110.076 58.8592 110.082 58.8297 110.089C57.763 110.318 56.6777 110.729 55.8964 111.505C55.115 112.281 54.683 113.478 55.0403 114.521L53.691 116.75C52.9443 117.59 51.0243 120.337 51.0243 120.337C46.0925 128.643 44.1926 137.202 42.1275 146.505C42.071 146.76 42.0144 147.014 41.9577 147.27C38.2596 164.774 36.6129 181.367 34.9102 198.523C34.7713 199.924 34.6319 201.328 34.491 202.737C35.8688 203.012 37.1754 203.145 38.4744 203.278ZM41.1829 210.211C38.8122 210.195 36.4549 209.835 34.1855 209.144C34.3455 207.157 34.5189 205.117 35.3749 203.317L41.9695 204.053L41.1829 210.211Z" fill="black"/>
<path d="M105.258 216.266C102.687 217.095 99.6816 220.183 101.855 223.031C103.05 224.602 104.855 225.447 106.511 226.434C107.786 227.191 108.124 229.751 108.618 231.106C109.866 234.522 112.29 237.332 116.266 237.066C120.308 236.799 122.823 233.356 123.591 229.644C124.423 225.618 123.004 220.332 122.335 216.351L105.258 216.266Z" fill="#FFD39F"/>
<path fill-rule="evenodd" clip-rule="evenodd" d="M82.4202 124.518C82.4762 125.366 83.1802 126.014 84.0149 126.014C84.0522 126.014 84.0869 126.014 84.1189 126.006C91.2522 125.539 98.2362 123.304 104.319 119.55C105.575 118.776 106.628 117.966 107.476 117.124C107.518 117.295 107.59 117.462 107.692 117.617C111.383 123.217 114.362 129.767 116.802 137.636C117.015 138.324 117.647 138.764 118.33 138.764C118.487 138.764 118.647 138.74 118.802 138.692C119.647 138.431 120.119 137.535 119.858 136.689C117.327 128.527 114.223 121.713 110.364 115.857C110.063 115.399 109.568 115.147 109.058 115.138C109.725 114.024 110.069 112.861 110.084 111.656C110.098 110.539 109.815 109.435 109.268 108.462C108.722 107.488 107.924 106.672 106.962 106.104C106.002 105.536 104.903 105.232 103.786 105.222C103.679 105.222 103.575 105.222 103.468 105.227C103.314 103.974 102.666 102.747 101.583 101.91C100.007 100.688 97.7455 100.371 95.5402 101.064C93.7242 101.635 92.2069 102.768 90.9242 103.79C89.5174 104.912 88.3396 106.013 87.2006 107.079L87.2006 107.079L87.1589 107.118L87.1561 107.12C84.4587 109.644 82.3282 111.638 78.5829 112.667C77.7295 112.902 77.2282 113.782 77.4629 114.635C77.6975 115.488 78.5802 115.99 79.4309 115.755C83.9402 114.518 86.5669 112.059 89.3455 109.456L89.3889 109.416C90.4821 108.394 91.6135 107.336 92.9189 106.294C94.0229 105.416 95.2069 104.523 96.5002 104.118C97.6895 103.744 98.8869 103.867 99.6255 104.44C100.258 104.931 100.5 105.958 100.108 106.475C99.6495 107.08 99.6789 107.926 100.18 108.496C100.682 109.067 101.514 109.208 102.175 108.835C102.65 108.566 103.188 108.424 103.732 108.424H103.759C104.314 108.427 104.86 108.579 105.338 108.862C105.815 109.144 106.21 109.547 106.482 110.032C106.754 110.518 106.895 111.064 106.887 111.619C106.866 113.355 105.436 115.107 102.642 116.83C97.0015 120.312 90.5242 122.382 83.9109 122.816C83.0309 122.875 82.3615 123.635 82.4202 124.518ZM52.1429 237.152C52.0442 237.152 51.9429 237.142 51.8415 237.123L42.4442 235.323C41.3935 235.112 39.6629 234.763 38.6602 233.339C38.3712 232.927 38.1865 232.492 38.071 232.052C36.8919 231.848 35.765 231.399 34.7615 230.728C33.4255 229.838 32.3668 228.595 31.7028 227.134C31.5935 226.894 31.5455 226.632 31.5615 226.371C31.5867 225.952 31.6191 225.523 31.6519 225.09L31.6519 225.09L31.652 225.089L31.652 225.089L31.6575 225.016C31.9348 221.27 32.2202 217.395 29.6282 214.8C29.4228 214.595 29.2788 214.339 29.2068 214.056C28.577 211.537 29.9651 209.123 32.6816 207.923C32.8026 206.624 32.9855 205.252 33.4184 203.918C33.0562 203.588 32.853 203.097 32.9054 202.577C33.0213 201.423 33.1353 200.271 33.249 199.123L33.3241 198.364L33.3315 198.29C35.0567 180.917 36.6867 164.504 40.3988 146.937L40.5721 146.156C42.6388 136.841 44.5935 128.044 49.6548 119.516C49.6761 119.481 49.6974 119.449 49.7188 119.417L49.748 119.376C50.0541 118.94 51.7455 116.534 52.5028 115.684C52.7872 115.363 53.1718 115.184 53.5677 115.152C53.5539 115.115 53.5404 115.078 53.5275 115.041C52.9915 113.481 53.4795 111.649 54.7701 110.369C55.6741 109.473 56.8901 108.87 58.4955 108.524L58.5888 108.502C58.6928 108.481 58.8315 108.452 58.9355 108.422C58.9355 108.418 58.9361 108.415 58.9368 108.412C58.9372 108.41 58.9376 108.408 58.9378 108.405C58.938 108.404 58.9381 108.402 58.9381 108.401C58.9435 108.358 58.9488 108.318 58.9568 108.278L58.9581 108.271C59.3476 106.134 59.9976 102.568 63.1035 101.569C64.9541 100.977 67.7355 101.609 69.4821 104.388C69.6704 104.687 69.8378 104.991 69.9893 105.298C70.3051 104.612 71.0766 104.225 71.8355 104.419C72.6915 104.635 73.2115 105.507 72.9928 106.363C72.7517 107.32 72.3658 107.96 71.3667 108.939C71.45 109.168 71.5356 109.392 71.6261 109.612C72.0021 110.516 72.8261 112.078 74.1221 112.372C74.9835 112.566 75.5248 113.422 75.3328 114.284C75.1381 115.145 74.2821 115.686 73.4208 115.494C71.4155 115.044 69.7275 113.39 68.6688 110.841C68.4075 110.212 68.1915 109.58 67.9861 108.966L67.9761 108.937C67.6225 107.897 67.2879 106.913 66.7701 106.092C66.1701 105.137 64.9995 104.324 64.0795 104.617C62.9115 104.993 62.4501 106.964 62.1141 108.798C62.0448 109.366 61.8395 109.913 61.5195 110.388C61.4955 110.422 61.4688 110.457 61.4422 110.491L61.4422 110.491L61.4421 110.492C60.7882 111.305 59.872 111.501 59.2614 111.632L59.2555 111.633L59.1701 111.652C58.1968 111.862 57.4768 112.193 57.0261 112.638C56.6288 113.033 56.4261 113.62 56.5568 114.001C56.6795 114.358 57.0848 114.742 57.4635 115.068C60.8981 118.076 65.0768 120.089 69.5568 120.894C70.4261 121.052 71.0048 121.884 70.8475 122.753C70.7035 123.526 70.0288 124.07 69.2715 124.07C69.1781 124.07 69.0821 124.062 68.9861 124.044C63.9355 123.134 59.2235 120.865 55.3621 117.484C55.3047 117.434 55.2467 117.383 55.1885 117.331C55.121 117.503 55.0224 117.666 54.8921 117.812C54.3428 118.428 52.9215 120.423 52.3748 121.201C47.5961 129.273 45.7001 137.809 43.6948 146.849L43.5241 147.615C39.8477 165.013 38.2263 181.358 36.5095 198.665L36.5081 198.679C36.4174 199.585 36.3268 200.495 36.2361 201.407C37.0334 201.519 37.8228 201.601 38.6414 201.684L38.6848 201.688C39.4044 201.762 40.1379 201.837 40.8884 201.938L42.1002 191.488L42.1093 191.411C44.3038 172.627 46.573 153.204 50.9882 134.464C51.1909 133.606 52.0522 133.07 52.9135 133.275C53.7722 133.478 54.3055 134.339 54.1029 135.2C49.729 153.767 47.4705 173.102 45.2861 191.802L45.2789 191.864L45.2015 192.531L42.0469 219.731L42.0452 219.745C41.6564 223.098 41.2546 226.563 41.1029 229.966C41.0842 230.39 41.0495 231.184 41.2762 231.504C41.5429 231.883 42.4922 232.075 43.0575 232.187L52.4389 233.982C53.3055 234.147 53.8762 234.987 53.7082 235.854C53.5669 236.619 52.8975 237.152 52.1429 237.152ZM32.2602 212.926C32.2119 211.706 33.5822 211.016 34.1138 210.794C35.9534 211.322 37.8413 211.648 39.7488 211.765L38.8682 219.358L38.8571 219.454C38.5062 222.486 38.1447 225.61 37.9633 228.741C37.4611 228.588 36.9818 228.361 36.5402 228.067C35.8068 227.576 35.2042 226.918 34.7855 226.144C34.7973 225.956 34.8113 225.768 34.8255 225.579C34.8336 225.47 34.8417 225.361 34.8495 225.251L34.8498 225.247C35.1377 221.344 35.4936 216.519 32.2602 212.926ZM40.5195 205.118L40.118 208.581C38.6933 208.505 37.2784 208.295 35.8926 207.956C36.0059 206.819 36.1761 205.694 36.5416 204.675C37.1446 204.749 37.735 204.809 38.3161 204.868L38.4389 204.881L38.4397 204.881L38.44 204.881C39.1474 204.954 39.8333 205.025 40.5195 205.118ZM57.2895 237.9C64.8415 239.175 72.5535 239.812 80.5242 239.812C90.1816 239.812 100.217 238.873 110.783 236.998C112.217 238.101 113.904 238.683 115.762 238.683C115.962 238.683 116.167 238.678 116.372 238.662C119.2 238.476 121.658 236.939 123.306 234.489C123.445 234.484 123.585 234.461 123.726 234.421C124.721 234.112 125.862 233.968 127.068 233.818C129.838 233.474 132.977 233.082 135.188 230.429C135.286 230.312 135.366 230.181 135.428 230.04C135.745 229.301 135.881 228.485 135.82 227.682C135.814 227.613 135.804 227.546 135.79 227.48C134.996 223.667 132.658 217.13 130.396 210.808L130.396 210.805C128.82 206.405 127.334 202.248 126.657 199.773C126.611 199.606 126.541 199.452 126.45 199.314C126.187 180.034 125.48 161.478 120.943 141.919C120.743 141.058 119.884 140.522 119.023 140.722C118.161 140.922 117.625 141.78 117.825 142.642C122.889 164.474 123.108 185.187 123.34 207.115V207.115L123.34 207.122L123.345 207.527L103.156 207.196C100.156 183.756 99.1214 159.914 100.079 136.306C100.116 135.423 99.4281 134.676 98.5454 134.642C97.6628 134.61 96.9161 135.292 96.8814 136.175C95.8974 160.423 97.0014 184.919 100.161 208.98C100.243 209.599 100.671 210.097 101.236 210.288C101.011 211.926 100.952 213.584 101.062 215.237C101.062 215.536 101.113 215.829 101.217 216.109C101.337 216.429 101.516 216.717 101.75 216.962C101.773 216.986 101.796 217.009 101.82 217.032C100.854 217.762 100.053 218.697 99.7004 219.822C99.3964 220.795 99.303 222.31 100.583 223.99C101.767 225.547 103.402 226.483 104.844 227.307C105.13 227.47 105.412 227.633 105.695 227.801C106.09 228.034 106.521 229.606 106.71 230.293L106.714 230.307C106.844 230.787 106.97 231.241 107.116 231.646C107.455 232.575 107.857 233.421 108.315 234.177C90.1485 237.224 73.6081 237.408 57.8202 234.745C56.9482 234.596 56.1242 235.185 55.9775 236.057C55.8309 236.927 56.4175 237.753 57.2895 237.9ZM106.767 217.569C106.608 218.027 106.243 218.407 105.746 218.566C104.263 219.046 103.004 219.977 102.754 220.779C102.706 220.931 102.58 221.334 103.127 222.051C103.919 223.091 105.139 223.789 106.429 224.528L106.431 224.529L106.649 224.654C106.878 224.785 107.105 224.915 107.33 225.049C108.834 225.941 109.368 227.888 109.797 229.452L109.799 229.459C109.911 229.873 110.02 230.265 110.122 230.547C110.986 232.918 112.73 235.689 116.159 235.467C118.412 235.318 121.132 233.625 122.026 229.318C122.71 226.007 122.091 222.443 121.492 218.994L121.49 218.982L121.459 218.803C121.397 218.447 121.336 218.093 121.276 217.739C121.264 217.669 121.257 217.598 121.255 217.528L106.767 217.569ZM124.031 216.39C124.234 216.611 124.378 216.891 124.431 217.209C124.5 217.617 124.57 218.025 124.642 218.435L124.644 218.449C125.294 222.191 125.966 226.061 125.159 229.969C125.095 230.278 125.022 230.581 124.94 230.878C125.518 230.785 126.097 230.713 126.668 230.642C129.068 230.344 131.156 230.082 132.558 228.57C132.612 228.392 132.636 228.202 132.63 228.016C131.855 224.4 129.486 217.773 127.389 211.91L127.389 211.91L127.38 211.882L127.31 211.687L127.31 211.687L127.309 211.684L127.298 211.656L127.292 211.637C127.033 210.912 126.776 210.195 126.526 209.491C126.461 209.79 126.311 210.068 126.089 210.287C125.793 210.586 125.385 210.754 124.964 210.754H124.937L124.4 210.745L124.532 214.122C124.545 214.538 124.576 215.56 124.031 216.39ZM121.195 210.692L104.45 210.417C104.25 211.729 104.174 213.057 104.222 214.384L121.337 214.336V214.335L121.337 214.312L121.337 214.297C121.337 214.279 121.336 214.26 121.334 214.24L121.195 210.692Z" fill="black"/>
</svg>
