<svg width="160" height="260" viewBox="0 0 160 260" fill="none" xmlns="http://www.w3.org/2000/svg">
<path d="M100.111 73.6012C99.8818 72.1079 98.4552 71.1292 97.1165 70.4306C95.7778 69.7319 94.2818 69.0146 93.6658 67.6332C92.5138 65.0546 95.1485 61.9159 93.9832 59.3426C93.4632 58.1932 92.2658 57.4759 91.0338 57.1906C89.8018 56.9052 88.5218 57.0279 87.2632 57.1399L83.9538 55.4119C81.7378 51.8732 76.9005 50.7452 72.8232 51.6572C68.7458 52.5692 65.2472 55.0972 61.8658 57.5559L51.2765 65.2759C49.5538 66.5319 47.1192 67.7906 45.4738 66.4332C43.0205 64.4119 46.0072 59.7879 43.9032 57.4146C43.3992 56.8492 42.6792 56.5292 42.1032 56.0359C40.5032 54.6546 40.3032 52.2386 40.5272 50.1292C41.3938 41.9879 46.7725 34.5986 54.0018 30.7559C61.2312 26.9132 70.0818 26.5292 77.8312 29.1559C82.2792 30.6706 86.8498 33.7906 87.4045 38.4546L90.3618 39.4172C93.9938 36.2172 99.5378 36.9319 104.202 38.1932C107.549 39.0972 110.882 40.2146 113.802 42.0786C116.722 43.9426 119.226 46.6359 120.311 49.9292C120.981 51.9559 121.111 54.1959 122.277 55.9932C123.031 57.1612 124.157 58.0412 124.986 59.1559C127.367 62.3559 126.618 67.4439 123.413 69.8226C121.863 70.9719 119.786 71.6306 118.922 73.3586C118.199 74.8066 118.53 76.6892 117.535 77.9639C116.087 79.8172 112.735 79.2786 111.469 81.2599C111.119 81.8066 110.989 82.4812 110.575 82.9799C110.162 83.4786 109.242 83.6706 108.925 83.1106L101.101 83.4679L100.111 73.6012Z" fill="black"/>
<path d="M50.3489 67.3393C48.6289 71.7633 47.5942 75.758 47.3329 78.1767C46.6742 84.2673 47.9036 91.0353 52.5622 95.374C55.0449 97.6833 58.1196 98.8193 61.4076 99.398C64.8369 100.003 68.5169 100.555 71.8449 99.1953C71.6689 101.971 71.6422 103.686 71.7702 106.465L90.5329 104.534C90.2289 100.883 90.9436 97.8647 92.5329 94.5633C92.8929 93.8167 93.6662 93.8247 94.4316 93.582C95.1116 93.3687 95.7782 93.1233 96.4369 92.846C97.7729 92.2913 99.0369 91.574 100.197 90.7127C102.496 88.9767 104.288 86.5393 104.96 83.7127C105.57 81.15 105.141 78.0993 102.293 76.6567C100.285 75.6433 98.4849 76.0033 95.4262 78.6913L100.136 73.6247C99.9062 72.1313 98.4796 71.1527 97.1409 70.454C95.8022 69.7553 94.3062 69.038 93.6902 67.6567C92.5382 65.078 95.1729 61.9393 94.0076 59.366C93.4876 58.2167 92.2902 57.4993 91.0582 57.214C89.8262 56.9287 88.5462 57.0513 87.2876 57.1633L83.9782 55.4353C81.7622 51.8967 76.9249 50.7687 72.8476 51.6807C68.7702 52.5927 65.2476 55.0967 61.8662 57.5553L51.2769 65.2753" fill="#FFD39F"/>
<path fill-rule="evenodd" clip-rule="evenodd" d="M47.1533 68.6277C45.9746 68.6277 45.0893 68.193 44.4546 67.6677C42.5278 66.0794 42.7796 63.6708 42.9822 61.7327L42.9826 61.729C43.124 60.377 43.2573 59.097 42.7053 58.4757C42.5479 58.2997 42.2679 58.113 41.9719 57.9157C41.6919 57.729 41.372 57.5157 41.0626 57.2517C39.324 55.7504 38.5906 53.2304 38.9373 49.961C39.844 41.457 45.3266 33.5557 53.2519 29.345C60.5959 25.441 69.9746 24.8064 78.3453 27.6437C84.4706 29.729 88.4493 33.7024 88.9933 38.2677C89.0973 39.145 88.4706 39.9424 87.5933 40.0464C86.716 40.1504 85.9213 39.5237 85.8146 38.6464C85.2306 33.7344 79.1613 31.3024 77.3133 30.673C69.7639 28.1157 61.3293 28.6757 54.7506 32.1717C47.7506 35.8917 42.9106 42.8384 42.1159 50.3024C41.9559 51.8224 42.0013 53.841 43.1453 54.8277C43.3026 54.961 43.5159 55.105 43.7399 55.2544L43.7448 55.2576C44.173 55.5422 44.6616 55.8669 45.092 56.353C46.5809 58.0311 46.3485 60.2651 46.1619 62.0587L46.1613 62.065C45.9906 63.7077 45.9266 64.7397 46.4866 65.201C47.4333 65.9824 49.668 64.4677 50.3293 63.985L60.9186 56.265L60.9315 56.2557L60.9315 56.2557L60.9315 56.2557C64.2564 53.8393 68.0204 51.1038 72.468 50.1077C77.9506 48.881 82.4333 50.3157 84.7666 54.041C85.236 54.7904 85.0093 55.777 84.26 56.2464C83.5106 56.7157 82.524 56.489 82.0546 55.7397C79.8253 52.1797 75.0946 52.7984 73.1666 53.2304C69.3613 54.081 66.0253 56.505 62.8013 58.8517L52.2146 66.5717C52.0966 66.6578 51.9799 66.7408 51.8646 66.8206C51.9816 67.1647 51.9827 67.5503 51.8409 67.9154C50.0223 72.5928 49.1423 76.3714 48.9236 78.3474C48.2009 84.9474 49.9236 90.7261 53.6543 94.1981C55.6489 96.0541 58.2009 97.2034 61.6863 97.8168C65.2489 98.4381 68.4303 98.8568 71.2409 97.7074C71.7503 97.4994 72.3316 97.5688 72.7796 97.8888C73.2276 98.2114 73.4783 98.7394 73.4436 99.2888C73.2729 101.971 73.2436 102.563 73.3716 105.315C73.4116 106.198 72.7289 106.947 71.8463 106.987C71.8169 106.998 71.7929 106.998 71.7689 106.998C70.9183 106.998 70.2116 106.329 70.1716 105.47C70.0863 103.593 70.0676 102.649 70.1209 101.361C66.9156 101.979 63.6516 101.411 61.1343 100.971C57.0676 100.254 53.9076 98.8061 51.4729 96.5421C46.9983 92.3741 44.9103 85.6168 45.7423 77.9981C46.0106 75.5694 46.9081 72.1211 48.1972 68.5216C47.8261 68.5947 47.4784 68.6277 47.1533 68.6277ZM109.575 85.0629C109.498 85.0629 109.423 85.0602 109.349 85.0522C108.57 84.9829 107.911 84.5669 107.538 83.9109C107.103 83.1429 107.373 82.1669 108.141 81.7296C108.581 81.4789 109.093 81.4629 109.527 81.6389C109.559 81.5642 109.594 81.4842 109.629 81.4069L109.639 81.3829C109.764 81.0874 109.907 80.7523 110.125 80.4122C111.101 78.8869 112.762 78.4016 114.095 78.0122C115.021 77.7429 115.895 77.4869 116.279 76.9935C116.578 76.6129 116.68 75.9701 116.799 75.2238L116.802 75.2042L116.807 75.1757C116.931 74.3933 117.071 73.5085 117.495 72.6575C118.304 71.0394 119.77 70.1862 121.064 69.4327L121.071 69.4282C121.578 69.1349 122.055 68.8549 122.466 68.5509C123.655 67.6682 124.477 66.2202 124.719 64.5775C124.962 62.9349 124.594 61.3109 123.711 60.1242C123.399 59.7056 123.015 59.3002 122.607 58.8736L122.6 58.8656L122.6 58.8655L122.6 58.8654C122.029 58.2652 121.437 57.6434 120.941 56.8735C120.021 55.4549 119.663 53.9135 119.319 52.4229L119.309 52.3781L119.309 52.3779C119.15 51.6959 119 51.0522 118.799 50.4442C117.919 47.7749 115.842 45.2869 112.949 43.4415C110.039 41.5829 106.687 40.5349 103.791 39.7509C98.234 38.2469 94.762 38.5749 92.1833 40.8495C91.5193 41.4335 90.5086 41.3695 89.9246 40.7055C89.3406 40.0415 89.4046 39.0309 90.0686 38.4469C94.474 34.5669 100.162 35.4549 104.626 36.6602C107.754 37.5055 111.394 38.6522 114.669 40.7429C118.181 42.9855 120.727 46.0735 121.837 49.4415C122.087 50.1992 122.262 50.9595 122.432 51.6961L122.432 51.6964L122.434 51.7029C122.73 52.9802 123.01 54.1882 123.623 55.1349C123.96 55.6538 124.422 56.1411 124.911 56.6569L124.922 56.6682L124.959 56.7073L124.959 56.7073L124.959 56.7074C125.401 57.1726 125.859 57.6546 126.274 58.2149C127.661 60.0789 128.247 62.5669 127.882 65.0442C127.517 67.5215 126.237 69.7376 124.37 71.1216C123.819 71.5314 123.242 71.8668 122.683 72.1915L122.679 72.1936C121.639 72.7989 120.738 73.3242 120.357 74.0869C120.152 74.4959 120.061 75.0646 119.964 75.6691L119.964 75.6692L119.959 75.7002C119.797 76.7402 119.61 77.9216 118.799 78.9616C117.778 80.2682 116.298 80.7002 114.991 81.0815C114.002 81.3695 113.149 81.6202 112.821 82.1349C112.743 82.2575 112.661 82.4496 112.575 82.6549C112.407 83.0549 112.197 83.5509 111.813 84.0149C111.271 84.6655 110.413 85.0629 109.575 85.0629ZM98.5294 73.8432C98.5802 74.1783 98.7316 74.4728 98.9483 74.7011C97.6772 75.0388 96.1801 75.8672 94.3453 77.4799C93.6813 78.0639 93.6147 79.0745 94.1987 79.7385C94.7827 80.4025 95.7933 80.4692 96.4573 79.8852C99.388 77.3092 100.457 77.5252 101.548 78.0772C104.047 79.3385 103.663 82.1705 103.38 83.3359C102.831 85.6505 101.348 87.8132 99.22 89.4212C98.164 90.2052 97.0147 90.8585 95.7907 91.3652C95.1853 91.6212 94.5587 91.8505 93.924 92.0505C93.8272 92.0821 93.7188 92.1087 93.604 92.1368L93.5107 92.1599C92.8227 92.3252 91.6733 92.6025 91.0653 93.8639C89.4067 97.3199 88.6253 99.1572 88.964 103.173C89.0333 104.011 89.7347 104.64 90.556 104.64C90.6013 104.64 90.6467 104.637 90.6947 104.627C91.5747 104.552 92.228 103.779 92.1533 102.899C91.8867 99.7625 92.3613 98.5599 93.8947 95.3599C93.9704 95.3353 94.0776 95.3092 94.1764 95.2851C94.2063 95.2778 94.2354 95.2707 94.2627 95.2639C94.4493 95.2185 94.6627 95.1652 94.884 95.0959C95.612 94.8692 96.3347 94.6025 97.0253 94.3119C98.4813 93.7092 99.8627 92.9252 101.137 91.9785C103.868 89.9172 105.769 87.1092 106.489 84.0799C107.433 80.1812 106.092 76.7865 102.988 75.2185C102.475 74.9597 101.934 74.7392 101.342 74.6164C101.62 74.2776 101.758 73.8261 101.687 73.3579C101.337 71.0726 99.3321 69.7819 97.8521 69.0112L97.6361 68.8992C96.5774 68.3499 95.4814 67.7792 95.1241 66.9819C94.7781 66.2076 95.0668 65.0881 95.3727 63.9016L95.3747 63.8939C95.7881 62.2966 96.2547 60.4859 95.4387 58.6832C94.7614 57.1819 93.2867 56.0699 91.3934 55.6326C89.9416 55.2943 88.4872 55.4243 87.2055 55.5389L87.2014 55.5392L87.1214 55.5472C86.2414 55.6272 85.5934 56.4032 85.6707 57.2832C85.7507 58.1632 86.5241 58.8139 87.4067 58.7339L87.4867 58.7259L87.4903 58.7256L87.4904 58.7256C88.6357 58.6244 89.7171 58.5288 90.6734 58.7499C91.5587 58.9552 92.2707 59.4352 92.5267 60.0032C92.8752 60.7774 92.6 61.8462 92.281 63.0852L92.2787 63.0939L92.2771 63.1001C91.8668 64.6906 91.4024 66.4909 92.204 68.2859C93.0147 70.1046 94.7614 71.0112 96.1641 71.7392L96.3747 71.8486C97.7267 72.5526 98.4307 73.2059 98.5294 73.8432ZM58.2467 74.6958C59.2777 74.6958 60.1134 73.681 60.1134 72.4292C60.1134 71.1773 59.2777 70.1625 58.2467 70.1625C57.2158 70.1625 56.3801 71.1773 56.3801 72.4292C56.3801 73.681 57.2158 74.6958 58.2467 74.6958ZM69.1806 73.0542C69.1806 74.306 68.3449 75.3208 67.3139 75.3208C66.283 75.3208 65.4473 74.306 65.4473 73.0542C65.4473 71.8023 66.283 70.7875 67.3139 70.7875C68.3449 70.7875 69.1806 71.8023 69.1806 73.0542Z" fill="black"/>
<g clip-path="url(#clip0_1123_38248)">
<path d="M90.499 100C90.739 102.693 91.8403 108.779 95.939 107.867L96.379 108.533C96.179 112.712 94.0617 115.659 90.7443 118.712C87.3737 121.765 83.075 123.6 78.539 123.923C74.539 124.216 70.2857 123.259 67.2937 120.576C64.3017 117.893 62.7283 114.176 64.7097 110.989H64.9977C65.899 111.016 66.7283 110.544 67.491 110.064C68.4617 109.451 70.4643 106.936 71.0643 106.213C71.8643 105.176 72.1897 101.243 72.6003 100H90.499V100Z" fill="#FFD39F"/>
<path d="M33.8791 209.262C32.0124 209.958 30.4124 211.558 30.9458 213.691C34.4124 217.158 33.6124 222.224 33.3458 226.491C33.8871 227.68 34.7511 228.694 35.8364 229.419C36.9244 230.144 38.1911 230.552 39.4978 230.595L41.7324 210.23L33.8791 209.262Z" fill="#FFD39F"/>
<path d="M96.6034 106.43C101.321 107.694 104.979 111.328 107.926 115.048C111.139 119.115 113.662 123.683 115.393 128.568C116.361 131.294 117.891 134.366 118.523 137.187L119.366 139.75C123.899 159.302 124.737 179.462 125.041 199.568L125.307 200.214C126.934 206.227 133.067 221.427 134.401 227.827C134.443 228.374 134.353 228.923 134.134 229.427C131.467 232.627 126.934 231.827 123.427 232.912L111.035 235.382C93.2994 238.563 86.966 240.939 69.2007 237.944L68.4007 237.744C67.2327 227.92 66.3714 217.712 65.8727 207.427L65.75 207.96C64.0674 217.795 62.4914 226.894 62.1607 236.864L62.11 237.288C58.2887 236.558 46.7367 234.491 42.91 233.76C41.8754 233.56 40.7394 233.299 40.134 232.427C39.6327 231.712 39.6354 230.771 39.6727 229.899C39.8247 226.432 40.2247 222.99 40.6247 219.547L42.454 203.79H42.3154C39.606 203.462 37.43 203.134 34.7207 202.806C35.8434 190.416 37.2834 178.062 39.0407 165.739C40.5714 155.006 42.3474 144.27 45.5047 133.899C48.31 124.683 55.694 112.486 64.1447 107.864L69.406 108.704C72.8727 112.15 78.7047 112.88 82.902 110.392L96.6034 106.43Z" fill="black"/>
<path d="M105.762 216.001C103.194 216.83 99.8713 220.198 102.042 223.046C103.237 224.617 105.042 225.462 106.698 226.446C107.975 227.206 108.311 229.763 108.805 231.121C110.053 234.542 112.477 237.342 116.447 237.083C120.49 236.817 123.005 233.374 123.773 229.659C124.607 225.633 123.271 219.793 122.602 215.809L105.762 216.001Z" fill="#FFD39F"/>
<path fill-rule="evenodd" clip-rule="evenodd" d="M68.5527 150.277L68.7607 110.781C68.7607 109.237 69.0647 103.824 69.5367 103.075C66.07 105.347 63.9553 109.112 61.9607 112.733C60.8167 114.811 59.6353 117.037 59.7927 119.4C59.9088 121.169 60.7498 122.752 61.5933 124.34C62.3573 125.778 63.1234 127.22 63.3553 128.808C63.6774 131.012 62.9389 133.134 62.1945 135.273C61.6382 136.871 61.0785 138.479 60.9553 140.139C60.8087 142.219 61.6247 146.805 62.1713 148.827L66.1553 163.536L66.0193 176.947C70.6487 167.293 76.0567 158.032 82.1927 149.259C84.102 146.523 86.1927 143.483 85.782 140.171C85.6918 139.449 85.4864 138.726 85.2819 138.007C84.8819 136.599 84.486 135.206 84.966 133.867C85.2753 133.003 85.918 132.307 86.542 131.635L95.558 121.965C96.174 121.304 96.8087 120.611 97.078 119.747C97.382 118.76 97.166 117.696 96.9473 116.685L94.2007 104.029C93.958 102.912 93.4913 101.568 92.3607 101.387C89.6487 103.173 87.2407 105.837 85.1313 108.627C83.7752 110.422 82.526 112.277 81.3717 114.183L82.8995 110.393C78.7022 112.881 72.8702 112.151 69.4035 108.705V143.868L71.1934 139.429C70.2163 143.112 69.3702 146.846 68.598 150.592L68.5527 150.277ZM34.3691 209.172C34.5291 207.183 34.7051 205.146 35.5585 203.343L42.0891 204.055L41.3665 210.239C38.9958 210.223 36.6385 209.863 34.3691 209.172ZM102.86 215.224C102.714 213.146 102.852 211.061 103.268 209.021L122.932 209.309L123.13 214.224C123.146 214.81 123.106 215.52 122.596 215.81C122.346 215.925 122.071 215.973 121.796 215.952L103.663 216.002C103.468 216.026 103.271 215.981 103.103 215.88C103.02 215.792 102.956 215.688 102.914 215.576C102.874 215.464 102.855 215.344 102.86 215.224Z" fill="white"/>
<path fill-rule="evenodd" clip-rule="evenodd" d="M68.9432 239.52C74.8019 240.51 79.4392 240.923 83.6392 240.923C90.4206 240.923 96.0659 239.843 103.879 238.344L104.507 238.225L104.508 238.225L104.509 238.224L104.509 238.224L104.51 238.224L104.512 238.224L104.518 238.223C106.541 237.837 108.64 237.436 110.971 237.016C112.407 238.118 114.096 238.7 115.958 238.7C116.155 238.7 116.352 238.694 116.544 238.678C119.369 238.491 121.826 236.956 123.473 234.51C123.615 234.506 123.757 234.482 123.899 234.436C124.894 234.127 126.032 233.986 127.238 233.836C130.011 233.492 133.152 233.1 135.363 230.447C135.462 230.33 135.542 230.199 135.603 230.058C135.92 229.319 136.056 228.503 135.995 227.7L135.993 227.678C135.991 227.656 135.988 227.634 135.985 227.612C135.98 227.574 135.973 227.535 135.966 227.498C135.179 223.717 132.868 217.246 130.628 210.974L130.603 210.906L130.553 210.766C128.988 206.383 127.513 202.255 126.846 199.794C126.802 199.634 126.737 199.488 126.653 199.355C126.452 179.879 125.975 161.275 121.428 141.674C121.228 140.813 120.37 140.277 119.508 140.477C118.647 140.677 118.111 141.536 118.311 142.397C123.119 163.13 123.303 182.882 123.495 203.794L123.496 203.848C123.506 205.078 123.517 206.314 123.53 207.554L103.34 207.224C100.34 183.784 99.3058 159.938 100.263 136.333C100.3 135.45 99.6124 134.704 98.7298 134.669C97.8445 134.637 97.1005 135.32 97.0658 136.202C96.0818 160.45 97.1858 184.944 100.346 209.008C100.428 209.63 100.86 210.13 101.429 210.319C101.207 211.955 101.151 213.611 101.262 215.262C101.259 215.558 101.312 215.848 101.416 216.134C101.534 216.451 101.712 216.736 101.944 216.982C101.967 217.005 101.991 217.028 102.015 217.05C101.045 217.782 100.242 218.719 99.8883 219.846C99.5816 220.82 99.4883 222.334 100.768 224.014C101.955 225.574 103.592 226.51 105.038 227.334L105.242 227.452C105.456 227.574 105.67 227.697 105.88 227.822C106.275 228.058 106.706 229.63 106.895 230.317L106.899 230.332C107.03 230.812 107.155 231.262 107.302 231.67C107.642 232.605 108.048 233.455 108.51 234.214C106.632 234.562 104.879 234.896 103.279 235.203L103.275 235.204C91.0988 237.534 84.344 238.827 69.8686 236.43C68.798 227.21 68.0208 217.802 67.5446 208.454L67.5896 208.194C67.6432 207.881 67.6023 207.574 67.4874 207.301C67.0095 197.411 66.8695 187.599 67.0766 178.16C67.2366 178.022 67.3726 177.848 67.4712 177.643C72.0472 168.096 77.4446 158.856 83.5139 150.179C85.4499 147.406 87.8606 143.952 87.3806 139.984C87.2766 139.131 87.0499 138.328 86.8286 137.552C86.4792 136.323 86.1779 135.262 86.4819 134.411C86.6794 133.855 87.1996 133.294 87.7032 132.751L87.7032 132.751L87.7219 132.731L96.7379 123.062L96.7425 123.057L96.7425 123.057C97.4084 122.34 98.2374 121.448 98.6152 120.224C99.0508 118.814 98.7457 117.401 98.5219 116.365L98.5192 116.352L96.7353 108.134C101.125 109.533 104.49 113.289 106.669 116.04C109.781 119.976 112.208 124.371 113.882 129.104C114.232 130.083 114.65 131.109 115.056 132.101L115.067 132.129L115.067 132.13L115.067 132.13L115.067 132.13L115.067 132.13L115.067 132.13L115.067 132.13L115.067 132.13C115.81 133.951 116.578 135.83 116.96 137.536C117.128 138.28 117.786 138.787 118.52 138.787C118.637 138.787 118.754 138.773 118.872 138.747C119.733 138.552 120.274 137.696 120.082 136.835C119.64 134.859 118.816 132.84 118.018 130.888C117.608 129.885 117.221 128.939 116.898 128.032C115.106 122.968 112.509 118.267 109.178 114.053C106.626 110.832 102.589 106.376 97.0156 104.883C96.6804 104.792 96.3415 104.816 96.0396 104.929L95.7726 103.699C95.2739 101.376 94.2126 100.07 92.6206 99.8137C92.2259 99.7497 91.8206 99.835 91.4872 100.056C88.9779 101.707 86.4846 104.198 83.8606 107.667C83.5787 108.04 83.3014 108.416 83.0286 108.794C82.7184 108.774 82.3992 108.844 82.1116 109.015C78.706 111.035 73.8913 110.53 70.9191 107.906C71.2021 106.888 71.5218 105.959 71.693 105.663C72.0957 105.025 71.997 104.196 71.461 103.668C70.925 103.14 70.093 103.057 69.4637 103.471C67.9254 104.479 66.5071 105.442 65.2228 106.493C65.0437 106.52 64.8661 106.579 64.6977 106.671C55.3964 111.759 46.7111 124.524 43.9991 133.433C40.7884 143.98 38.9697 155.084 37.4817 165.513C35.7297 177.801 34.2711 190.297 33.1511 202.663C33.1056 203.152 33.2866 203.611 33.6089 203.936C33.1729 205.273 32.99 206.647 32.8691 207.947C30.1526 209.147 28.7645 211.561 29.3943 214.081C29.4663 214.363 29.6103 214.619 29.8157 214.825C32.4077 217.419 32.1223 221.294 31.845 225.041L31.8395 225.113L31.8395 225.114L31.8394 225.114L31.8394 225.114C31.8066 225.548 31.7742 225.976 31.749 226.395C31.733 226.657 31.781 226.918 31.8903 227.158C32.5543 228.619 33.613 229.862 34.949 230.753C35.9522 231.425 37.0807 231.873 38.2618 232.077C38.3772 232.518 38.5619 232.953 38.8509 233.365C39.8442 234.779 41.5074 235.118 42.63 235.348L42.6349 235.349C44.3528 235.676 47.6595 236.279 51.0609 236.898L52.4056 237.143C53.1273 237.275 53.854 237.408 54.5703 237.538C57.5351 238.079 60.3207 238.587 61.8349 238.877C61.9336 238.895 62.0323 238.906 62.1336 238.906C62.4696 238.906 62.8029 238.799 63.0803 238.594C63.4403 238.333 63.6723 237.933 63.7256 237.493L63.7763 237.069C63.7816 237.023 63.7843 236.978 63.7869 236.933L63.7869 236.933C63.9552 231.858 64.5098 226.998 65.2401 222.128C65.6724 227.43 66.1997 232.712 66.8206 237.931C66.8979 238.59 67.3752 239.134 68.0206 239.294L68.8206 239.494C68.8605 239.504 68.9032 239.512 68.9432 239.52ZM58.9552 115.227C53.4732 120.844 48.8427 128.503 47.0577 134.364C44.0844 144.127 42.3457 154.057 40.6471 165.964C38.9751 177.687 37.5724 189.604 36.4791 201.409C37.1394 201.494 37.7754 201.579 38.3995 201.663L38.7564 201.711C39.5073 201.811 40.275 201.914 41.0755 202.017L42.2163 192.181L42.2188 192.159C44.426 173.142 46.7086 153.475 51.1843 134.485C51.3869 133.626 52.2483 133.093 53.1096 133.295C53.9683 133.498 54.5016 134.359 54.2989 135.221C49.8647 154.035 47.5928 173.611 45.3956 192.543L45.3956 192.543L45.3949 192.549L42.2403 219.749C41.8509 223.103 41.4483 226.575 41.2963 229.986C41.2776 230.41 41.2429 231.205 41.4696 231.525C41.7321 231.896 42.6377 232.083 43.2457 232.208L43.2563 232.21C45.1363 232.57 49.0173 233.276 52.8017 233.964L52.8122 233.966L52.8282 233.969L52.9789 233.997C55.7496 234.501 58.5923 235.018 60.6456 235.399C61.0349 227.117 62.3789 219.431 63.7976 211.319C63.8713 210.895 63.9456 210.47 64.0201 210.043L64.0225 210.03L64.0231 210.026L64.0234 210.025C64.125 209.443 64.2269 208.86 64.328 208.275C63.5549 192.869 63.5943 177.629 64.4819 163.651C64.4853 163.609 64.4897 163.566 64.496 163.524L60.629 149.247C60.0824 147.228 59.1917 142.423 59.3624 140.028C59.501 138.153 60.1037 136.423 60.6877 134.748L60.6894 134.743C61.3847 132.745 62.0422 130.856 61.7757 129.041C61.5837 127.727 60.9037 126.447 60.1837 125.092L60.1774 125.08C59.2727 123.374 58.338 121.612 58.1997 119.505C58.0974 117.98 58.4409 116.546 58.9552 115.227ZM67.7569 163.499L67.8846 162.835L67.8847 162.834C71.1433 145.066 74.8367 124.928 86.4126 109.592C88.4819 106.854 90.4312 104.806 92.3379 103.366C92.4312 103.582 92.5406 103.899 92.6419 104.371L95.3886 117.027L95.3919 117.042L95.3919 117.043C95.5564 117.807 95.7419 118.668 95.5539 119.278C95.3931 119.8 94.8933 120.337 94.4079 120.86L94.3912 120.878L85.3726 130.55L85.3581 130.565C84.6993 131.277 83.8815 132.161 83.4632 133.331C82.8126 135.147 83.3086 136.891 83.7459 138.427C83.9432 139.115 84.1272 139.763 84.1992 140.368C84.5326 143.123 82.5966 145.899 80.8872 148.347C75.8872 155.499 71.3326 163.027 67.3086 170.792C67.4053 168.531 67.5226 166.294 67.6603 164.089C67.7285 163.903 67.7625 163.703 67.7569 163.499ZM65.8466 156.275L63.717 148.412C63.1624 146.359 62.4264 142.028 62.5517 140.26C62.6583 138.811 63.1667 137.351 63.7048 135.806L63.7064 135.801L63.7077 135.798C64.4993 133.521 65.3168 131.171 64.9384 128.58C64.6667 126.721 63.8234 125.134 63.0084 123.6L63.005 123.593L62.9918 123.568C62.2153 122.103 61.4818 120.719 61.389 119.297C61.269 117.473 62.1704 115.673 63.3624 113.508C64.413 111.601 65.757 110.169 67.4024 108.844C67.2557 109.58 67.1624 110.26 67.1624 110.775L66.9544 150.271C66.9538 150.359 66.9605 150.446 66.9739 150.53C66.5789 152.458 66.206 154.375 65.8466 156.275ZM70.2248 136.899C72.5473 128.654 75.6289 120.551 80.1225 113.176C79.2217 113.37 78.3 113.465 77.3783 113.465C74.9151 113.465 72.4447 112.785 70.3587 111.473L70.2248 136.899ZM36.0827 207.982C36.1969 206.838 36.3671 205.705 36.7391 204.675C37.251 204.742 37.751 204.809 38.2445 204.875L38.2447 204.875L38.2468 204.876L38.2488 204.876L38.2507 204.876L38.3297 204.887L38.7857 204.947C39.4092 205.03 40.0458 205.115 40.7063 205.2L40.3113 208.606C38.8855 208.53 37.4696 208.321 36.0827 207.982ZM34.2999 210.819C36.1418 211.348 38.0321 211.674 39.942 211.79L39.0616 219.381L39.0505 219.477C38.6996 222.509 38.338 225.634 38.1567 228.767C37.6524 228.614 37.1711 228.387 36.7277 228.091C35.9943 227.601 35.3916 226.942 34.973 226.169C34.9848 225.981 34.9988 225.793 35.0129 225.603L35.013 225.603C35.0211 225.494 35.0292 225.385 35.037 225.275L35.0373 225.271C35.3252 221.368 35.6811 216.543 32.4477 212.95C32.3995 211.731 33.7673 211.041 34.2999 210.819ZM106.953 217.591C106.794 218.05 106.429 218.431 105.931 218.59C104.448 219.068 103.19 219.998 102.939 220.801C102.891 220.953 102.766 221.358 103.312 222.076C104.097 223.109 105.306 223.801 106.585 224.535L106.622 224.556C106.92 224.726 107.219 224.897 107.512 225.07C109.022 225.969 109.555 227.921 109.982 229.486C110.094 229.9 110.203 230.292 110.304 230.574C111.166 232.937 112.92 235.713 116.339 235.486C118.59 235.337 121.31 233.644 122.203 229.334C122.887 226.032 122.271 222.476 121.674 219.034L121.672 219.022C121.598 218.598 121.526 218.177 121.454 217.756C121.442 217.687 121.435 217.618 121.432 217.55L106.953 217.591ZM124.222 216.422C124.418 216.64 124.556 216.915 124.608 217.225C124.667 217.579 124.728 217.932 124.789 218.287L124.79 218.291L124.822 218.476L124.824 218.489C125.471 222.224 126.141 226.086 125.331 229.982C125.266 230.294 125.192 230.6 125.11 230.899C125.69 230.806 126.272 230.734 126.846 230.663L126.849 230.662C129.25 230.364 131.334 230.105 132.739 228.591C132.792 228.412 132.816 228.223 132.811 228.036C132.04 224.431 129.678 217.82 127.59 211.983L127.558 211.893L127.555 211.887C127.27 211.088 126.988 210.296 126.712 209.521C126.647 209.82 126.497 210.096 126.276 210.314C125.978 210.613 125.57 210.781 125.148 210.781H125.122L124.592 210.772L124.728 214.158C124.74 214.578 124.768 215.596 124.222 216.422ZM121.389 210.72L104.644 210.445C104.448 211.753 104.374 213.077 104.422 214.4L121.536 214.352C121.536 214.326 121.536 214.296 121.534 214.267L121.389 210.72Z" fill="black"/>
</g>
<defs>
<clipPath id="clip0_1123_38248">
<rect width="160" height="160" fill="white" transform="translate(0 100)"/>
</clipPath>
</defs>
</svg>
