<svg width="160" height="260" viewBox="0 0 160 260" fill="none" xmlns="http://www.w3.org/2000/svg">
<path d="M94.5304 78.8856C92.5331 78.739 91.3971 76.3923 91.5198 74.3976C91.6424 72.403 92.5864 70.5416 92.8824 68.563C93.5624 64.123 90.5384 59.411 86.2158 58.1816C85.0344 57.8456 83.7678 57.7363 82.6931 57.1416C81.7971 56.643 81.0504 55.8083 80.0451 55.6323C78.1918 55.291 76.6664 57.2323 74.7918 57.4403C72.3038 57.707 70.3811 54.8563 67.8771 54.8616C65.2904 54.8616 63.5011 57.8803 60.9198 58.003C59.1891 58.0856 57.6424 56.827 55.9118 56.7416C53.6744 56.635 51.8158 58.5096 50.8024 60.507C49.7891 62.5043 49.2878 64.7603 48.0398 66.6216C46.8984 68.323 44.5144 69.635 42.8504 68.4403C41.7011 67.619 41.4798 66.0083 41.5624 64.6003C41.7304 61.7123 42.7304 58.9336 44.4398 56.6003C44.9731 55.891 45.5651 55.1923 45.7571 54.3336C46.0238 53.0696 45.3731 51.8136 45.1171 50.5443C44.5544 47.7443 46.2878 44.6616 48.9731 43.6856C50.2424 43.227 51.6611 43.1923 52.8504 42.555C54.0398 41.9176 54.8824 40.7096 55.7091 39.6056C60.0851 33.7603 67.0958 28.9763 74.2798 30.2723C78.6878 31.0723 82.5464 34.0403 88.0291 35.0723C91.8451 32.2376 97.7251 32.6723 101.064 36.067C105.376 40.4296 105.208 48.163 110.13 51.8323C110.914 52.419 111.826 52.899 112.362 53.715C113.501 55.4483 112.474 57.803 112.962 59.8216C113.389 61.5736 114.877 62.8216 115.984 64.2456C117.09 65.6696 117.8 67.827 116.618 69.1896C116.104 69.7816 115.338 70.083 114.733 70.579C113.245 71.795 112.949 73.9603 113.133 75.8723C113.317 77.7843 113.978 80.2136 113.6 81.6003C112.077 87.235 108.554 85.7976 106.882 86.667" fill="black"/>
<path d="M50.6658 66.9326C49.0658 69.3326 48.7991 72.266 47.9991 75.1993C47.9991 76.042 44.7564 87.4233 52.2658 94.9326C54.9324 97.5993 58.3991 98.666 61.9991 99.466C65.2284 99.9646 68.7564 100.466 71.8658 99.1993C71.6871 101.975 71.6604 103.957 71.7884 106.735L90.5324 104.799C90.2258 101.151 90.9538 97.8686 92.5404 94.5673C92.8978 93.8206 93.6738 93.8286 94.4391 93.586C95.1164 93.3726 95.7884 93.1273 96.4444 92.85C97.7804 92.2953 99.0418 91.578 100.204 90.7166C102.503 88.9806 104.292 86.5433 104.967 83.7166C105.578 81.154 105.148 78.1033 102.287 76.6606C100.282 75.6473 98.4818 76.0073 95.4231 78.6953L94.5218 78.8873C92.5244 78.7406 91.3884 76.394 91.5111 74.3993C91.6338 72.4046 92.5778 70.5433 92.8738 68.5646C93.5538 64.1246 90.5298 59.4126 86.2071 58.1833C85.0258 57.8473 83.7591 57.738 82.6844 57.1433C81.7884 56.6446 81.0418 55.81 80.0364 55.634C78.1831 55.2926 76.6578 57.234 74.7831 57.442C72.2951 57.7086 70.3724 54.858 67.8684 54.8633C65.2818 54.8633 63.4924 57.882 60.9111 58.0046C59.1804 58.0873 57.6338 56.8286 55.9031 56.7433C53.6658 56.6366 51.8071 58.5113 50.7938 60.5086C49.7804 62.506 49.2791 64.762 48.0311 66.6233" fill="#FFD39F"/>
<path fill-rule="evenodd" clip-rule="evenodd" d="M105.463 87.407C105.748 87.9537 106.306 88.2683 106.884 88.2683C107.135 88.2683 107.386 88.2097 107.623 88.0763C107.797 87.9854 108.247 87.9274 108.653 87.8751L108.653 87.8751L108.684 87.871L108.688 87.8705C110.58 87.6278 113.741 87.2219 115.148 82.0123C115.499 80.7293 115.238 79.0969 114.986 77.516L114.986 77.5159L114.983 77.4977C114.882 76.8603 114.786 76.255 114.732 75.711C114.65 74.8577 114.586 72.7643 115.754 71.8097C115.904 71.6845 116.103 71.5594 116.317 71.4254L116.359 71.399L116.366 71.3949C116.836 71.1 117.367 70.7672 117.834 70.231C119.596 68.199 118.812 65.263 117.252 63.2577C116.932 62.847 116.596 62.4603 116.268 62.087L116.263 62.0808C115.481 61.1871 114.745 60.3462 114.524 59.439C114.38 58.8417 114.426 58.1003 114.476 57.3137C114.567 55.9003 114.668 54.295 113.706 52.831C113.13 51.9539 112.338 51.4099 111.64 50.93L111.639 50.9297L111.536 50.8585C111.387 50.7548 111.238 50.6515 111.092 50.543C108.835 48.8612 107.768 46.0258 106.638 43.0221L106.636 43.0177C105.562 40.159 104.45 37.2043 102.21 34.9377C98.4978 31.1643 92.1378 30.5217 87.6898 33.3617C85.2733 32.8241 83.1543 31.8881 81.0995 30.9805L81.0871 30.975C78.9111 30.0123 76.8578 29.1057 74.5698 28.6897C66.3271 27.2043 58.7644 32.855 54.4338 38.639L54.2471 38.8897L54.2449 38.8926C53.5763 39.7903 52.8862 40.7168 52.1004 41.1377C51.5992 41.4069 50.9487 41.5456 50.2609 41.6922L50.2604 41.6923C49.6711 41.8177 49.0604 41.9483 48.4311 42.175C45.0284 43.4123 42.8418 47.3057 43.5538 50.855C43.6444 51.311 43.7698 51.7323 43.8924 52.143L43.8945 52.1502C44.1123 52.8831 44.3001 53.5152 44.2018 53.9803C44.1088 54.3997 43.7464 54.8746 43.3617 55.3787L43.3564 55.3857L43.1538 55.6523C41.2578 58.239 40.1564 61.3003 39.9698 64.503C39.7911 67.5483 40.9351 69.031 41.9218 69.7377C42.8444 70.399 43.9591 70.6363 45.1458 70.423C46.1495 70.242 47.1616 69.7347 48.0267 69.0081C46.8295 72.4313 45.9993 75.6809 45.743 78.0004C44.911 85.6191 46.999 92.3765 51.4737 96.5444C53.9084 98.8084 57.0684 100.256 61.135 100.974C63.6524 101.414 66.9164 101.982 70.1217 101.363C70.0684 102.651 70.087 103.595 70.1724 105.472C70.2124 106.331 70.919 107 71.7697 107H71.7698C71.7964 107 71.8204 107 71.847 106.99C72.7297 106.95 73.4124 106.2 73.3724 105.318C73.2444 102.566 73.2737 101.974 73.4444 99.2911C73.479 98.7418 73.2284 98.2111 72.7804 97.8911C72.3324 97.5711 71.751 97.5018 71.2417 97.7098C68.4284 98.8591 65.2497 98.4405 61.687 97.8191C58.2017 97.2058 55.6497 96.0565 53.655 94.2004C49.9244 90.7284 48.2017 84.9498 48.9244 78.3498C49.143 76.3738 50.023 72.5951 51.8417 67.9178C52.1617 67.0938 51.7537 66.1658 50.9297 65.8458C50.7418 65.7728 50.5484 65.7377 50.3581 65.7367C50.6896 65.0223 50.9671 64.2986 51.2391 63.5883C51.5591 62.751 51.8604 61.9643 52.2338 61.2283C52.9324 59.8497 54.2978 58.263 55.8364 58.3377C56.3884 58.3643 57.0204 58.607 57.6871 58.8657L57.7029 58.8718C58.6618 59.241 59.75 59.66 60.9991 59.599C62.7264 59.5193 64.067 58.5763 65.2506 57.7437L65.2631 57.735C66.2338 57.0497 67.0711 56.4603 67.8844 56.4603H67.8871C68.6364 56.4603 69.4844 56.9803 70.3804 57.5323C71.6711 58.327 73.1324 59.2257 74.9724 59.0283C76.1218 58.903 77.0684 58.3697 77.9058 57.8977C78.6498 57.479 79.2924 57.119 79.7751 57.207C80.0684 57.2577 80.4578 57.5403 80.8684 57.839L80.8735 57.8427C81.1816 58.0658 81.5293 58.3175 81.9244 58.5377C82.8631 59.055 83.8578 59.2737 84.7378 59.4657C85.1058 59.5457 85.4551 59.623 85.7831 59.7163C89.3378 60.727 91.8658 64.6657 91.3058 68.3217C91.1911 69.0817 90.9591 69.855 90.7111 70.6737L90.7069 70.6876C90.3642 71.8246 90.0094 73.0016 89.9298 74.295C89.7564 77.0977 91.4258 80.2577 94.4204 80.4763C94.7434 80.5008 95.0512 80.4269 95.3147 80.28C95.7188 80.3027 96.1316 80.173 96.4597 79.8844C99.3903 77.3084 100.46 77.5244 101.55 78.0764C104.049 79.3378 103.665 82.1698 103.382 83.3351C102.833 85.6471 101.35 87.8124 99.2223 89.4204C98.1663 90.2044 97.017 90.8578 95.793 91.3644C95.1877 91.6204 94.561 91.8498 93.9263 92.0498C93.8296 92.0813 93.7213 92.1079 93.6066 92.136L93.6066 92.136L93.513 92.1591C92.825 92.3244 91.6757 92.6018 91.0677 93.8631C89.409 97.3164 88.6277 99.1564 88.9663 103.172C89.0357 104.007 89.737 104.639 90.5583 104.639C90.6037 104.639 90.649 104.636 90.697 104.626C91.577 104.554 92.2303 103.778 92.1557 102.898C91.889 99.7618 92.3637 98.5591 93.897 95.3591C93.9728 95.3345 94.0802 95.3083 94.179 95.2842C94.2088 95.277 94.2378 95.2699 94.265 95.2631C94.4517 95.2178 94.665 95.1644 94.8863 95.0951C95.6143 94.8684 96.337 94.6018 97.0277 94.3111C98.4837 93.7084 99.865 92.9244 101.14 91.9778C102.931 90.6257 104.365 88.9524 105.343 87.1061C105.372 87.2083 105.412 87.3091 105.463 87.407ZM93.1244 74.4923C93.0518 75.694 93.6662 77.1356 94.5792 77.2782C98.6455 73.7964 101.027 74.2258 102.99 75.2178C106.094 76.7858 107.436 80.1804 106.492 84.0791C106.398 84.4722 106.285 84.8617 106.152 85.2462C106.833 84.8944 107.567 84.7987 108.276 84.7083L108.278 84.7081C109.915 84.4975 111.207 84.3312 112.058 81.183C112.228 80.5573 112.002 79.15 111.821 78.0202L111.82 78.015C111.714 77.3537 111.604 76.671 111.543 76.0283C111.26 73.0977 112.034 70.7217 113.724 69.343C114.042 69.0817 114.37 68.8763 114.66 68.6977L114.694 68.6764C114.991 68.4897 115.269 68.3151 115.415 68.143C115.932 67.5457 115.471 66.191 114.724 65.231C114.465 64.8979 114.175 64.5647 113.868 64.2134L113.86 64.2043C112.903 63.1137 111.82 61.8763 111.412 60.2017C111.154 59.1297 111.22 58.063 111.282 57.119C111.348 56.071 111.404 55.167 111.031 54.5963C110.799 54.2443 110.327 53.919 109.826 53.575C109.607 53.4257 109.388 53.2737 109.178 53.1163C106.17 50.8737 104.884 47.4577 103.642 44.1537C102.642 41.4923 101.695 38.9803 99.9324 37.1937C97.1698 34.3857 92.1591 34.0043 88.9911 36.359C88.6338 36.6257 88.1804 36.7297 87.7404 36.647C84.6871 36.071 82.0871 34.9243 79.7964 33.911C77.7991 33.0283 75.9138 32.1963 74.0018 31.847C69.5431 31.0417 62.7298 32.9083 56.9964 40.5643L56.8151 40.807C55.9778 41.9323 55.0284 43.2043 53.6124 43.9643C52.7138 44.447 51.7671 44.6497 50.9298 44.8257L50.8777 44.8369L50.8777 44.8369C50.3902 44.942 49.9286 45.0415 49.5218 45.1883C47.5804 45.8923 46.2844 48.2017 46.6898 50.2283C46.7538 50.5403 46.8524 50.879 46.9591 51.2363L46.9609 51.2423C47.2591 52.2488 47.5959 53.3855 47.3271 54.663C47.0764 55.7857 46.4524 56.6043 45.9004 57.327L45.7244 57.559C44.2044 59.6337 43.3164 62.103 43.1644 64.6897C43.0924 65.911 43.3191 66.8017 43.7858 67.135C43.9218 67.2337 44.1484 67.351 44.5778 67.2737C45.3164 67.1403 46.1964 66.5057 46.7164 65.727C47.3565 64.7735 47.7876 63.6482 48.2442 62.4562L48.2498 62.4417L48.2552 62.4274L48.2552 62.4274L48.2553 62.4273C48.5896 61.5571 48.9349 60.6582 49.3804 59.7803C50.5671 57.4417 52.9298 54.9937 55.9938 55.1403C57.0594 55.1935 58.0033 55.5565 58.8332 55.8757L58.8418 55.879L58.8619 55.8868C59.6186 56.1795 60.2682 56.4307 60.8498 56.4017C61.652 56.3643 62.5103 55.7596 63.4218 55.1172L63.4231 55.1163L63.4232 55.1163C64.6605 54.2443 66.0605 53.2577 67.8844 53.2577H67.8951C69.5458 53.2577 70.8818 54.079 72.0604 54.8043L72.071 54.8108C73.0425 55.4081 73.8818 55.924 74.6284 55.8443C75.1218 55.7883 75.7111 55.4577 76.3378 55.1057C77.4044 54.5057 78.7324 53.759 80.3431 54.055C81.3509 54.2305 82.1254 54.7932 82.7485 55.2459L82.7538 55.2497L82.8172 55.2955C83.0522 55.4653 83.2735 55.6253 83.4791 55.7403C84.0005 56.0288 84.6822 56.1781 85.4068 56.3368L85.4231 56.3403L85.4584 56.3481L85.4585 56.3481C85.8476 56.4337 86.2515 56.5225 86.6604 56.639C91.7724 58.0923 95.2764 63.5483 94.4711 68.8017C94.3262 69.774 94.0511 70.6864 93.7847 71.5698L93.7751 71.6017C93.4684 72.6123 93.1804 73.567 93.1244 74.4923ZM58.2491 74.6951C59.28 74.6951 60.1158 73.6802 60.1158 72.4284C60.1158 71.1765 59.28 70.1617 58.2491 70.1617C57.2182 70.1617 56.3824 71.1765 56.3824 72.4284C56.3824 73.6802 57.2182 74.6951 58.2491 74.6951ZM67.3163 75.3232C68.3472 75.3232 69.1829 74.3084 69.1829 73.0565C69.1829 71.8047 68.3472 70.7898 67.3163 70.7898C66.2853 70.7898 65.4496 71.8047 65.4496 73.0565C65.4496 74.3084 66.2853 75.3232 67.3163 75.3232Z" fill="black"/>
<path d="M90.499 100C90.739 102.693 91.8403 108.779 95.939 107.867L96.379 108.533C96.179 112.712 94.0617 115.659 90.7443 118.712C87.3737 121.765 83.075 123.6 78.539 123.923C74.539 124.216 70.2857 123.259 67.2937 120.576C64.3017 117.893 62.7283 114.176 64.7097 110.989H64.9977C65.899 111.016 66.7283 110.544 67.491 110.064C68.4617 109.451 70.4643 106.936 71.0643 106.213C71.8643 105.176 72.1897 101.243 72.6003 100H90.499V100Z" fill="#FFD39F"/>
<path d="M39.3083 230.576C38.0017 230.533 36.735 230.125 35.647 229.4C34.559 228.674 33.6977 227.661 33.1563 226.472C33.423 222.205 34.223 217.138 30.7563 213.672C30.223 211.538 31.823 209.938 33.6897 209.242L41.1777 210.213L39.3083 230.576Z" fill="#FFD39F"/>
<path fill-rule="evenodd" clip-rule="evenodd" d="M38.4744 203.278C39.6897 203.402 40.8983 203.525 42.1524 203.763L42.2804 203.779L40.4537 219.529L40.4522 219.541C40.0527 222.98 39.6535 226.415 39.5017 229.878C39.4644 230.75 39.4617 231.691 39.963 232.406C40.5683 233.278 41.7044 233.542 42.739 233.739L54.2057 235.934L57.5577 236.326C75.3257 239.323 93.1257 238.545 110.862 235.363L123.254 232.897C124.385 232.546 125.623 232.391 126.871 232.235C129.491 231.908 132.154 231.576 133.96 229.409C134.179 228.905 134.27 228.355 134.227 227.809C133.456 224.106 131.078 217.458 128.892 211.348C127.3 206.897 125.81 202.731 125.118 200.198L124.851 199.763C124.55 179.587 123.731 159.353 119.174 139.734L118.326 137.171C116.086 129.945 113.152 123.011 109.024 116.747L108.491 111.627C108.502 110.793 108.291 109.966 107.88 109.238C107.47 108.51 106.875 107.902 106.155 107.475C105.435 107.049 104.616 106.822 103.779 106.814C102.942 106.806 102.118 107.019 101.39 107.433C102.36 106.153 101.878 104.147 100.611 103.166C99.3444 102.185 97.555 102.102 96.027 102.582C94.499 103.062 93.1817 104.035 91.9284 105.033C91.0207 105.757 90.1225 106.51 89.2223 107.264C85.4412 110.431 81.6244 113.628 76.9204 114.921L73.7684 113.934C72.011 113.539 70.8324 111.889 70.1444 110.227C69.9059 109.652 69.7072 109.058 69.5087 108.465C69.1344 107.346 68.7608 106.23 68.123 105.241C67.147 103.726 65.3017 102.545 63.5897 103.094C61.491 103.766 60.9177 106.395 60.5283 108.566C60.4937 108.897 60.379 109.217 60.1924 109.491C59.8939 109.862 59.3902 109.969 58.9187 110.07C58.8889 110.076 58.8592 110.082 58.8297 110.089C57.763 110.318 56.6777 110.729 55.8964 111.505C55.115 112.281 54.683 113.478 55.0403 114.521L53.691 116.75C52.9443 117.59 51.0243 120.337 51.0243 120.337C46.0925 128.643 44.1926 137.202 42.1275 146.505C42.071 146.76 42.0144 147.014 41.9577 147.27C38.2596 164.774 36.6129 181.367 34.9102 198.523C34.7713 199.924 34.6319 201.328 34.491 202.737C35.8688 203.012 37.1754 203.145 38.4744 203.278ZM41.1829 210.211C38.8122 210.195 36.4549 209.835 34.1855 209.144C34.3455 207.157 34.5189 205.117 35.3749 203.317L41.9695 204.053L41.1829 210.211Z" fill="black"/>
<path d="M105.258 216.266C102.687 217.095 99.6816 220.183 101.855 223.031C103.05 224.602 104.855 225.447 106.511 226.434C107.786 227.191 108.124 229.751 108.618 231.106C109.866 234.522 112.29 237.332 116.266 237.066C120.308 236.799 122.823 233.356 123.591 229.644C124.423 225.618 123.004 220.332 122.335 216.351L105.258 216.266Z" fill="#FFD39F"/>
<path fill-rule="evenodd" clip-rule="evenodd" d="M82.4202 124.518C82.4762 125.366 83.1802 126.014 84.0149 126.014C84.0522 126.014 84.0869 126.014 84.1189 126.006C91.2522 125.539 98.2362 123.304 104.319 119.55C105.575 118.776 106.628 117.966 107.476 117.124C107.518 117.295 107.59 117.462 107.692 117.617C111.383 123.217 114.362 129.767 116.802 137.636C117.015 138.324 117.647 138.764 118.33 138.764C118.487 138.764 118.647 138.74 118.802 138.692C119.647 138.431 120.119 137.535 119.858 136.689C117.327 128.527 114.223 121.713 110.364 115.857C110.063 115.399 109.568 115.147 109.058 115.138C109.725 114.024 110.069 112.861 110.084 111.656C110.098 110.539 109.815 109.435 109.268 108.462C108.722 107.488 107.924 106.672 106.962 106.104C106.002 105.536 104.903 105.232 103.786 105.222C103.679 105.222 103.575 105.222 103.468 105.227C103.314 103.974 102.666 102.747 101.583 101.91C100.007 100.688 97.7455 100.371 95.5402 101.064C93.7242 101.635 92.2069 102.768 90.9242 103.79C89.5174 104.912 88.3396 106.013 87.2006 107.079L87.2006 107.079L87.1589 107.118L87.1561 107.12C84.4587 109.644 82.3282 111.638 78.5829 112.667C77.7295 112.902 77.2282 113.782 77.4629 114.635C77.6975 115.488 78.5802 115.99 79.4309 115.755C83.9402 114.518 86.5669 112.059 89.3455 109.456L89.3889 109.416C90.4821 108.394 91.6135 107.336 92.9189 106.294C94.0229 105.416 95.2069 104.523 96.5002 104.118C97.6895 103.744 98.8869 103.867 99.6255 104.44C100.258 104.931 100.5 105.958 100.108 106.475C99.6495 107.08 99.6789 107.926 100.18 108.496C100.682 109.067 101.514 109.208 102.175 108.835C102.65 108.566 103.188 108.424 103.732 108.424H103.759C104.314 108.427 104.86 108.579 105.338 108.862C105.815 109.144 106.21 109.547 106.482 110.032C106.754 110.518 106.895 111.064 106.887 111.619C106.866 113.355 105.436 115.107 102.642 116.83C97.0015 120.312 90.5242 122.382 83.9109 122.816C83.0309 122.875 82.3615 123.635 82.4202 124.518ZM52.1429 237.152C52.0442 237.152 51.9429 237.142 51.8415 237.123L42.4442 235.323C41.3935 235.112 39.6629 234.763 38.6602 233.339C38.3712 232.927 38.1865 232.492 38.071 232.052C36.8919 231.848 35.765 231.399 34.7615 230.728C33.4255 229.838 32.3668 228.595 31.7028 227.134C31.5935 226.894 31.5455 226.632 31.5615 226.371C31.5867 225.952 31.6191 225.523 31.6519 225.09L31.6519 225.09L31.652 225.089L31.652 225.089L31.6575 225.016C31.9348 221.27 32.2202 217.395 29.6282 214.8C29.4228 214.595 29.2788 214.339 29.2068 214.056C28.577 211.537 29.9651 209.123 32.6816 207.923C32.8026 206.624 32.9855 205.252 33.4184 203.918C33.0562 203.588 32.853 203.097 32.9054 202.577C33.0213 201.423 33.1353 200.271 33.249 199.123L33.3241 198.364L33.3315 198.29C35.0567 180.917 36.6867 164.504 40.3988 146.937L40.5721 146.156C42.6388 136.841 44.5935 128.044 49.6548 119.516C49.6761 119.481 49.6974 119.449 49.7188 119.417L49.748 119.376C50.0541 118.94 51.7455 116.534 52.5028 115.684C52.7872 115.363 53.1718 115.184 53.5677 115.152C53.5539 115.115 53.5404 115.078 53.5275 115.041C52.9915 113.481 53.4795 111.649 54.7701 110.369C55.6741 109.473 56.8901 108.87 58.4955 108.524L58.5888 108.502C58.6928 108.481 58.8315 108.452 58.9355 108.422C58.9355 108.418 58.9361 108.415 58.9368 108.412C58.9372 108.41 58.9376 108.408 58.9378 108.405C58.938 108.404 58.9381 108.402 58.9381 108.401C58.9435 108.358 58.9488 108.318 58.9568 108.278L58.9581 108.271C59.3476 106.134 59.9976 102.568 63.1035 101.569C64.9541 100.977 67.7355 101.609 69.4821 104.388C69.6704 104.687 69.8378 104.991 69.9893 105.298C70.3051 104.612 71.0766 104.225 71.8355 104.419C72.6915 104.635 73.2115 105.507 72.9928 106.363C72.7517 107.32 72.3658 107.96 71.3667 108.939C71.45 109.168 71.5356 109.392 71.6261 109.612C72.0021 110.516 72.8261 112.078 74.1221 112.372C74.9835 112.566 75.5248 113.422 75.3328 114.284C75.1381 115.145 74.2821 115.686 73.4208 115.494C71.4155 115.044 69.7275 113.39 68.6688 110.841C68.4075 110.212 68.1915 109.58 67.9861 108.966L67.9761 108.937C67.6225 107.897 67.2879 106.913 66.7701 106.092C66.1701 105.137 64.9995 104.324 64.0795 104.617C62.9115 104.993 62.4501 106.964 62.1141 108.798C62.0448 109.366 61.8395 109.913 61.5195 110.388C61.4955 110.422 61.4688 110.457 61.4422 110.491L61.4422 110.491L61.4421 110.492C60.7882 111.305 59.872 111.501 59.2614 111.632L59.2555 111.633L59.1701 111.652C58.1968 111.862 57.4768 112.193 57.0261 112.638C56.6288 113.033 56.4261 113.62 56.5568 114.001C56.6795 114.358 57.0848 114.742 57.4635 115.068C60.8981 118.076 65.0768 120.089 69.5568 120.894C70.4261 121.052 71.0048 121.884 70.8475 122.753C70.7035 123.526 70.0288 124.07 69.2715 124.07C69.1781 124.07 69.0821 124.062 68.9861 124.044C63.9355 123.134 59.2235 120.865 55.3621 117.484C55.3047 117.434 55.2467 117.383 55.1885 117.331C55.121 117.503 55.0224 117.666 54.8921 117.812C54.3428 118.428 52.9215 120.423 52.3748 121.201C47.5961 129.273 45.7001 137.809 43.6948 146.849L43.5241 147.615C39.8477 165.013 38.2263 181.358 36.5095 198.665L36.5081 198.679C36.4174 199.585 36.3268 200.495 36.2361 201.407C37.0334 201.519 37.8228 201.601 38.6414 201.684L38.6848 201.688C39.4044 201.762 40.1379 201.837 40.8884 201.938L42.1002 191.488L42.1093 191.411C44.3038 172.627 46.573 153.204 50.9882 134.464C51.1909 133.606 52.0522 133.07 52.9135 133.275C53.7722 133.478 54.3055 134.339 54.1029 135.2C49.729 153.767 47.4705 173.102 45.2861 191.802L45.2789 191.864L45.2015 192.531L42.0469 219.731L42.0452 219.745C41.6564 223.098 41.2546 226.563 41.1029 229.966C41.0842 230.39 41.0495 231.184 41.2762 231.504C41.5429 231.883 42.4922 232.075 43.0575 232.187L52.4389 233.982C53.3055 234.147 53.8762 234.987 53.7082 235.854C53.5669 236.619 52.8975 237.152 52.1429 237.152ZM32.2602 212.926C32.2119 211.706 33.5822 211.016 34.1138 210.794C35.9534 211.322 37.8413 211.648 39.7488 211.765L38.8682 219.358L38.8571 219.454C38.5062 222.486 38.1447 225.61 37.9633 228.741C37.4611 228.588 36.9818 228.361 36.5402 228.067C35.8068 227.576 35.2042 226.918 34.7855 226.144C34.7973 225.956 34.8113 225.768 34.8255 225.579C34.8336 225.47 34.8417 225.361 34.8495 225.251L34.8498 225.247C35.1377 221.344 35.4936 216.519 32.2602 212.926ZM40.5195 205.118L40.118 208.581C38.6933 208.505 37.2784 208.295 35.8926 207.956C36.0059 206.819 36.1761 205.694 36.5416 204.675C37.1446 204.749 37.735 204.809 38.3161 204.868L38.4389 204.881L38.4397 204.881L38.44 204.881C39.1474 204.954 39.8333 205.025 40.5195 205.118ZM57.2895 237.9C64.8415 239.175 72.5535 239.812 80.5242 239.812C90.1816 239.812 100.217 238.873 110.783 236.998C112.217 238.101 113.904 238.683 115.762 238.683C115.962 238.683 116.167 238.678 116.372 238.662C119.2 238.476 121.658 236.939 123.306 234.489C123.445 234.484 123.585 234.461 123.726 234.421C124.721 234.112 125.862 233.968 127.068 233.818C129.838 233.474 132.977 233.082 135.188 230.429C135.286 230.312 135.366 230.181 135.428 230.04C135.745 229.301 135.881 228.485 135.82 227.682C135.814 227.613 135.804 227.546 135.79 227.48C134.996 223.667 132.658 217.13 130.396 210.808L130.396 210.805C128.82 206.405 127.334 202.248 126.657 199.773C126.611 199.606 126.541 199.452 126.45 199.314C126.187 180.034 125.48 161.478 120.943 141.919C120.743 141.058 119.884 140.522 119.023 140.722C118.161 140.922 117.625 141.78 117.825 142.642C122.889 164.474 123.108 185.187 123.34 207.115V207.115L123.34 207.122L123.345 207.527L103.156 207.196C100.156 183.756 99.1214 159.914 100.079 136.306C100.116 135.423 99.4281 134.676 98.5454 134.642C97.6628 134.61 96.9161 135.292 96.8814 136.175C95.8974 160.423 97.0014 184.919 100.161 208.98C100.243 209.599 100.671 210.097 101.236 210.288C101.011 211.926 100.952 213.584 101.062 215.237C101.062 215.536 101.113 215.829 101.217 216.109C101.337 216.429 101.516 216.717 101.75 216.962C101.773 216.986 101.796 217.009 101.82 217.032C100.854 217.762 100.053 218.697 99.7004 219.822C99.3964 220.795 99.303 222.31 100.583 223.99C101.767 225.547 103.402 226.483 104.844 227.307C105.13 227.47 105.412 227.633 105.695 227.801C106.09 228.034 106.521 229.606 106.71 230.293L106.714 230.307C106.844 230.787 106.97 231.241 107.116 231.646C107.455 232.575 107.857 233.421 108.315 234.177C90.1485 237.224 73.6081 237.408 57.8202 234.745C56.9482 234.596 56.1242 235.185 55.9775 236.057C55.8309 236.927 56.4175 237.753 57.2895 237.9ZM106.767 217.569C106.608 218.027 106.243 218.407 105.746 218.566C104.263 219.046 103.004 219.977 102.754 220.779C102.706 220.931 102.58 221.334 103.127 222.051C103.919 223.091 105.139 223.789 106.429 224.528L106.431 224.529L106.649 224.654C106.878 224.785 107.105 224.915 107.33 225.049C108.834 225.941 109.368 227.888 109.797 229.452L109.799 229.459C109.911 229.873 110.02 230.265 110.122 230.547C110.986 232.918 112.73 235.689 116.159 235.467C118.412 235.318 121.132 233.625 122.026 229.318C122.71 226.007 122.091 222.443 121.492 218.994L121.49 218.982L121.459 218.803C121.397 218.447 121.336 218.093 121.276 217.739C121.264 217.669 121.257 217.598 121.255 217.528L106.767 217.569ZM124.031 216.39C124.234 216.611 124.378 216.891 124.431 217.209C124.5 217.617 124.57 218.025 124.642 218.435L124.644 218.449C125.294 222.191 125.966 226.061 125.159 229.969C125.095 230.278 125.022 230.581 124.94 230.878C125.518 230.785 126.097 230.713 126.668 230.642C129.068 230.344 131.156 230.082 132.558 228.57C132.612 228.392 132.636 228.202 132.63 228.016C131.855 224.4 129.486 217.773 127.389 211.91L127.389 211.91L127.38 211.882L127.31 211.687L127.31 211.687L127.309 211.684L127.298 211.656L127.292 211.637C127.033 210.912 126.776 210.195 126.526 209.491C126.461 209.79 126.311 210.068 126.089 210.287C125.793 210.586 125.385 210.754 124.964 210.754H124.937L124.4 210.745L124.532 214.122C124.545 214.538 124.576 215.56 124.031 216.39ZM121.195 210.692L104.45 210.417C104.25 211.729 104.174 213.057 104.222 214.384L121.337 214.336V214.335L121.337 214.312L121.337 214.297C121.337 214.279 121.336 214.26 121.334 214.24L121.195 210.692Z" fill="black"/>
</svg>
