<svg width="160" height="260" viewBox="0 0 160 260" fill="none" xmlns="http://www.w3.org/2000/svg">
<path d="M95.6372 98.5115C96.5892 99.9275 97.5785 101.384 98.9945 102.338C100.411 103.293 102.376 103.64 103.819 102.728C105.419 101.712 106.421 99.2608 108.304 99.5275C109.048 99.6368 109.637 100.186 110.197 100.696C111.763 102.144 113.573 103.562 115.704 103.696C117.835 103.829 120.171 102.042 119.8 99.9408C119.669 99.1995 119.232 98.5168 119.24 97.7648C119.253 96.4528 120.573 95.5622 121.144 94.3835C122.515 91.6022 119.603 87.9648 121.197 85.3035C121.688 84.4902 122.517 83.9515 123.229 83.3222C126.765 80.1888 127.099 74.1008 123.923 70.5995C122.747 69.3035 121.149 68.2902 120.523 66.6555C120.133 65.6395 120.176 64.5222 120.195 63.4315C120.296 57.2022 119.328 50.8262 116.36 45.3462C113.392 39.8662 109.597 38.3568 103.48 37.1755L98.6985 34.2048C97.2052 31.8315 94.3732 30.6902 91.6638 29.9702C83.1305 27.7088 72.4745 25.2662 64.3919 28.7995C56.3092 32.3328 49.5279 38.8928 46.0239 46.9888C44.2159 51.1675 43.1972 55.8235 40.2452 59.2902C37.7279 62.2475 34.0692 64.0075 31.3359 66.7568C28.6025 69.5062 26.9865 74.2235 29.4879 77.1942C29.9945 77.7968 30.6559 78.3062 30.9439 79.0422C31.9332 81.5675 28.1359 83.1915 26.9119 85.6128C25.7679 87.8795 27.1199 90.6288 28.8399 92.4982C30.5599 94.3675 32.7332 95.9648 33.6719 98.3195C34.3679 100.069 34.4159 102.264 35.9279 103.386C37.6212 104.645 40.0425 103.744 42.1012 104.21C44.1599 104.677 45.6372 106.461 47.2425 107.856C48.8479 109.25 51.2292 110.333 53.0319 109.205C53.9919 108.602 54.5438 107.496 55.4985 106.888C57.4212 105.661 59.8772 106.901 62.0505 107.592C64.2239 108.282 67.4958 107.562 67.3652 105.285" fill="black"/>
<path d="M90.5702 104.644C90.2662 100.994 90.9436 97.8631 92.5329 94.5618C92.8929 93.8151 93.6662 93.8231 94.4316 93.5804C95.1116 93.3671 95.7782 93.1218 96.4369 92.8444C97.7729 92.2898 99.0369 91.5724 100.197 90.7111C102.496 88.9751 104.288 86.5378 104.96 83.7111C105.57 81.1484 105.141 78.0978 102.293 76.6551C100.285 75.6418 98.4849 76.0018 95.4262 78.6898L94.5196 76.5324C95.4742 71.8578 95.8636 67.0818 95.6796 62.3138C95.5942 60.0738 92.5596 56.5538 90.4876 55.6978L86.8982 52.0444C85.0316 48.3111 71.5302 47.1084 67.5249 48.2684C60.5702 50.5271 58.5516 51.7218 56.5382 54.4311C54.5249 57.1404 53.4422 60.4124 52.3942 63.6204L50.3489 67.3324C48.6289 71.7564 47.5942 75.7511 47.3329 78.1698C46.6742 84.2604 47.9036 91.0284 52.5622 95.3671C55.0449 97.6764 58.1196 98.8124 61.4076 99.3911C64.8369 99.9964 68.5169 100.548 71.8449 99.1884C71.6689 101.964 71.6422 104.212 71.7702 106.991" fill="#FFD39F"/>
<path fill-rule="evenodd" clip-rule="evenodd" d="M46.1903 109.064C47.5877 110.277 49.4757 111.28 51.3477 111.28C52.2117 111.28 53.073 111.066 53.8757 110.546C54.5557 110.12 55.041 109.57 55.4677 109.085L55.483 109.068C55.7866 108.725 56.0724 108.402 56.353 108.224C57.3023 107.618 58.817 108.149 60.4197 108.714C60.793 108.848 61.1797 108.981 61.561 109.104C63.6117 109.757 66.0623 109.421 67.5183 108.29C68.5183 107.514 69.0277 106.41 68.9583 105.181C68.9077 104.298 68.153 103.624 67.2703 103.674C66.3877 103.725 65.713 104.48 65.7637 105.362C65.7717 105.49 65.761 105.602 65.5557 105.76C64.937 106.242 63.5503 106.376 62.5317 106.053C62.1877 105.944 61.8383 105.821 61.4837 105.696L61.4765 105.693C59.4351 104.976 56.8944 104.084 54.6357 105.525C53.9754 105.945 53.5008 106.483 53.0824 106.957L53.0703 106.97C52.7583 107.325 52.465 107.658 52.1797 107.837C51.1717 108.469 49.4997 107.69 48.289 106.637C47.9836 106.372 47.6831 106.09 47.3647 105.792L47.3646 105.792L47.3103 105.741L47.3017 105.733C45.9811 104.498 44.4872 103.1 42.4517 102.64C41.4543 102.413 40.4437 102.442 39.553 102.469L39.5413 102.469H39.5412C38.4289 102.501 37.4656 102.529 36.8783 102.09C36.2788 101.643 36.0254 100.687 35.7324 99.5813L35.7317 99.5784C35.5717 98.9678 35.4037 98.3384 35.1557 97.7144C34.3397 95.6717 32.8437 94.2104 31.3957 92.7971L31.2452 92.6493L31.245 92.649C30.812 92.2237 30.3993 91.8181 30.0143 91.3997C28.7503 90.0264 27.553 87.8717 28.337 86.3197C28.673 85.6557 29.3903 84.9571 30.0837 84.2824C31.4997 82.9064 33.4383 81.0184 32.4303 78.4451C32.1103 77.6291 31.5557 77.0504 31.1103 76.5864C30.961 76.4317 30.8223 76.2851 30.7077 76.1491C28.873 73.9731 30.193 70.1571 32.465 67.8717C33.6057 66.7231 34.9328 65.7529 36.3399 64.7242L36.3423 64.7224L36.3441 64.7211L36.3442 64.7211C38.1196 63.4228 39.9535 62.0818 41.457 60.3144C43.7393 57.6353 44.9285 54.387 46.0791 51.2442L46.0791 51.2441L46.0837 51.2317L46.1221 51.1271C46.5527 49.9543 46.9969 48.7447 47.4863 47.6131C50.7743 40.0157 57.169 33.6877 65.0277 30.2531C72.513 26.9811 82.489 29.1837 91.249 31.5064C93.241 32.0371 96.0383 32.9784 97.3397 35.0477C97.809 35.7944 98.7957 36.0184 99.545 35.5491C100.292 35.0797 100.516 34.0904 100.046 33.3437C98.145 30.3224 94.5823 29.0851 92.0677 28.4157C82.785 25.9571 72.1743 23.6397 63.745 27.3251C55.153 31.0824 48.1557 38.0157 44.5503 46.3464C44.009 47.5971 43.5343 48.8904 43.0783 50.1384C41.9743 53.1544 40.9317 56.0024 39.0197 58.2477C37.765 59.7225 36.1674 60.8913 34.4787 62.1266L34.4787 62.1267L34.4517 62.1464C33.0063 63.2024 31.513 64.2957 30.193 65.6237C28.5743 67.2504 27.3663 69.4051 26.881 71.5304C26.2943 74.0957 26.7823 76.4691 28.2543 78.2184C28.4201 78.4183 28.5881 78.5937 28.7502 78.7629L28.7502 78.7629L28.7957 78.8104C29.0863 79.1117 29.3583 79.3944 29.4463 79.6211C29.6463 80.1331 29.1397 80.7411 27.8463 81.9997L27.8359 82.0099C26.9984 82.8261 26.0493 83.7511 25.4757 84.8877C24.4783 86.8611 24.529 90.1811 27.6543 93.5784C28.1423 94.1091 28.657 94.6131 29.1557 95.0984L29.1627 95.1053L29.1628 95.1054C30.4242 96.3375 31.6154 97.5011 32.177 98.9091C32.3524 99.3529 32.488 99.8628 32.6315 100.402L32.6315 100.402L32.633 100.408C33.0223 101.882 33.465 103.554 34.9663 104.669C36.4459 105.768 38.1379 105.72 39.6343 105.677L39.6437 105.677L39.6622 105.677C40.426 105.655 41.1445 105.636 41.7423 105.77C42.937 106.042 43.9983 107.034 45.121 108.088L45.2368 108.196L45.2369 108.196C45.5467 108.484 45.8632 108.779 46.1903 109.064ZM115.6 105.305C115.71 105.313 115.822 105.316 115.934 105.316C117.534 105.316 119.158 104.593 120.238 103.393C121.203 102.316 121.606 100.998 121.374 99.6838C121.296 99.2464 121.163 98.8651 121.043 98.5291C120.942 98.2438 120.838 97.9504 120.838 97.8011C120.84 97.5212 121.203 97.0654 121.555 96.6229L121.555 96.6228L121.555 96.6224C121.899 96.1904 122.288 95.6998 122.579 95.1104C123.497 93.2469 123.061 91.3064 122.674 89.5912L122.672 89.5824L122.671 89.5749C122.354 88.1701 122.081 86.9596 122.568 86.1477C122.792 85.7771 123.227 85.4198 123.688 85.0438C123.891 84.8784 124.094 84.7131 124.288 84.5397C126.291 82.7717 127.531 80.1024 127.691 77.2171C127.854 74.3264 126.912 71.5291 125.11 69.5424C124.702 69.0944 124.27 68.6918 123.851 68.3051C123.064 67.5771 122.32 66.8864 122.019 66.1024C121.764 65.4325 121.779 64.5691 121.795 63.6576L121.795 63.6491L121.798 63.4757C121.918 56.1077 120.563 49.7557 117.771 44.6011C114.579 38.7077 110.392 36.8971 103.787 35.6224C102.918 35.4544 102.08 36.0224 101.912 36.8891C101.744 37.7557 102.312 38.5957 103.179 38.7637C109.072 39.9024 112.339 41.2944 114.955 46.1238C117.483 50.7904 118.71 56.6091 118.598 63.4198L118.595 63.5877L118.595 63.6064V63.6066C118.576 64.7273 118.555 65.9974 119.032 67.2438C119.6 68.7238 120.704 69.7477 121.678 70.6491C122.064 71.0064 122.427 71.3424 122.742 71.6891C123.971 73.0464 124.611 74.9958 124.499 77.0384C124.387 79.0758 123.539 80.9344 122.174 82.1397C122.05 82.2498 121.921 82.3553 121.793 82.4608C121.75 82.4959 121.707 82.5311 121.664 82.5664C121.043 83.0731 120.339 83.6491 119.827 84.4971C118.678 86.4117 119.142 88.4678 119.552 90.2838C119.851 91.6011 120.131 92.8438 119.712 93.6918C119.574 93.9744 119.32 94.2944 119.054 94.6304C118.43 95.4118 117.656 96.3878 117.643 97.7798C117.643 98.4969 117.859 99.1048 118.032 99.5928L118.032 99.5931L118.041 99.6168C118.12 99.8455 118.196 100.063 118.227 100.233C118.302 100.652 118.067 101.017 117.859 101.252C117.363 101.804 116.52 102.158 115.808 102.113C114.166 102.009 112.603 100.75 111.283 99.5318L111.251 99.5024L111.244 99.4961C110.61 98.9153 109.745 98.1232 108.531 97.9584C106.488 97.6704 105.171 99.1291 104.211 100.196C103.774 100.681 103.36 101.14 102.966 101.39C102.067 101.961 100.742 101.601 99.891 101.028C98.7117 100.232 97.8274 98.915 96.9728 97.6423L96.9683 97.6358C96.475 96.9024 95.4803 96.7051 94.747 97.1984C94.0137 97.6918 93.8163 98.6864 94.3097 99.4198L94.3246 99.442C95.3023 100.895 96.409 102.54 98.1017 103.681C100.227 105.113 102.808 105.276 104.68 104.092C105.445 103.604 106.05 102.933 106.585 102.339L106.587 102.337L106.599 102.324C107.152 101.709 107.723 101.076 108.088 101.129C108.318 101.158 108.752 101.556 109.074 101.852L109.083 101.86L109.11 101.884C110.835 103.481 112.958 105.137 115.6 105.305ZM52.3922 65.225C52.2269 65.225 52.0589 65.1983 51.8962 65.145C51.0562 64.8703 50.5976 63.9663 50.8722 63.1263C51.8962 59.9876 53.0589 56.4303 55.2536 53.4783C56.6696 51.5716 58.3042 50.2276 60.7149 48.9796C64.9922 46.769 69.8936 45.8356 74.8909 46.2783C78.3229 46.5823 86.5069 47.6836 88.3282 51.329C88.7229 52.1183 88.4029 53.081 87.6136 53.4756C86.8242 53.8703 85.8616 53.5503 85.4669 52.761C84.8669 51.561 80.6402 50.001 74.6082 49.465C70.2162 49.0756 65.9202 49.8916 62.1842 51.8223C60.2056 52.8436 58.9416 53.8756 57.8216 55.3876C55.9392 57.9206 54.9099 61.0719 53.9154 64.1168L53.9149 64.1183C53.6936 64.7957 53.0669 65.225 52.3922 65.225ZM97.2946 62.2641C97.4675 66.8531 97.1203 71.4655 96.262 75.9843C99.3325 73.9314 101.311 74.3682 102.988 75.2146C106.092 76.7826 107.433 80.1773 106.489 84.076C105.769 87.1053 103.868 89.9133 101.137 91.9746C99.8627 92.9213 98.4813 93.7053 97.0253 94.308C96.3347 94.5986 95.612 94.8653 94.884 95.092C94.6627 95.1613 94.4493 95.2146 94.2627 95.26C94.2359 95.2666 94.2074 95.2736 94.1782 95.2807L94.1767 95.2811C94.0778 95.3052 93.9705 95.3314 93.8947 95.356C92.3613 98.556 91.8867 99.7586 92.1533 102.895C92.228 103.775 91.5747 104.548 90.6947 104.623C90.6467 104.633 90.6013 104.636 90.556 104.636C89.7347 104.636 89.0333 104.007 88.964 103.169C88.6253 99.1533 89.4067 97.316 91.0653 93.86C91.6733 92.5986 92.8227 92.3213 93.5107 92.156L93.6043 92.1328L93.6044 92.1328C93.719 92.1047 93.8273 92.0782 93.924 92.0466C94.5587 91.8466 95.1853 91.6173 95.7907 91.3613C97.0147 90.8546 98.164 90.2013 99.22 89.4173C101.348 87.8093 102.831 85.6466 103.38 83.332C103.663 82.1666 104.047 79.3346 101.548 78.0733C100.457 77.5213 99.388 77.3053 96.4573 79.8813C95.7933 80.4653 94.7827 80.3986 94.1987 79.7346C93.7719 79.2494 93.6926 78.579 93.94 78.0253C93.2245 77.7476 92.7931 76.9881 92.9533 76.2135C93.8866 71.6695 94.2706 67.0135 94.0946 62.3761C94.0466 60.9281 91.5693 57.8721 89.8893 57.1788C89.0733 56.8401 88.684 55.9068 89.0226 55.0881C89.3613 54.2721 90.2946 53.8828 91.1133 54.2215C92.364 54.7388 93.852 55.9575 95.0893 57.4801C95.8867 58.4615 97.2306 60.3841 97.2946 62.2641ZM58.2467 74.6919C59.2777 74.6919 60.1134 73.6771 60.1134 72.4253C60.1134 71.1734 59.2777 70.1586 58.2467 70.1586C57.2158 70.1586 56.3801 71.1734 56.3801 72.4253C56.3801 73.6771 57.2158 74.6919 58.2467 74.6919ZM69.179 73.0534C69.179 74.3052 68.3433 75.3201 67.3124 75.3201C66.2814 75.3201 65.4457 74.3052 65.4457 73.0534C65.4457 71.8015 66.2814 70.7867 67.3124 70.7867C68.3433 70.7867 69.179 71.8015 69.179 73.0534ZM70.1716 105.469C70.2116 106.328 70.9183 106.997 71.7689 106.997C71.7929 106.997 71.8169 106.997 71.8463 106.987C72.7289 106.947 73.4116 106.197 73.3716 105.315C73.2436 102.563 73.2729 101.971 73.4436 99.288C73.4783 98.7387 73.2276 98.2107 72.7796 97.888C72.3316 97.568 71.7503 97.4987 71.2409 97.7067C68.4303 98.856 65.2489 98.4373 61.6863 97.816C58.2009 97.2027 55.6489 96.0533 53.6543 94.1973C49.9236 90.7253 48.2009 84.9467 48.9236 78.3467C49.1423 76.3707 50.0223 72.592 51.8409 67.9147C52.1609 67.0907 51.7529 66.1627 50.9289 65.8427C50.1049 65.5227 49.1769 65.9307 48.8569 66.7547C47.2169 70.9707 46.0543 75.1733 45.7423 77.9973C44.9103 85.616 46.9983 92.3733 51.4729 96.5413C53.9076 98.8053 57.0676 100.253 61.1343 100.971C63.6516 101.411 66.9156 101.979 70.1209 101.36C70.0676 102.648 70.0863 103.592 70.1716 105.469Z" fill="black"/>
<path d="M90.499 100C90.739 102.693 91.8403 108.779 95.939 107.867L96.379 108.533C96.179 112.712 94.0617 115.659 90.7443 118.712C87.3737 121.765 83.075 123.6 78.539 123.923C74.539 124.216 70.2857 123.259 67.2937 120.576C64.3017 117.893 62.7283 114.176 64.7097 110.989H64.9977C65.899 111.016 66.7283 110.544 67.491 110.064C68.4617 109.451 70.4643 106.936 71.0643 106.213C71.8643 105.176 72.1897 101.243 72.6003 100H90.499V100Z" fill="#FFD39F"/>
<path d="M96.4148 106.398C101.132 107.662 104.791 111.297 107.737 115.02C110.951 119.084 113.471 123.649 115.199 128.532C116.167 131.26 117.697 134.329 118.329 137.15L119.172 139.732C123.737 159.393 124.553 179.673 124.852 199.892L125.119 200.196C126.761 206.206 132.895 221.406 134.228 227.806C134.271 228.353 134.18 228.902 133.961 229.406C131.295 232.606 126.761 231.806 123.255 232.894L110.863 235.361C93.1268 238.542 75.3268 239.321 57.5588 236.324L54.2068 235.932L42.7401 233.737C41.7054 233.54 40.5694 233.276 39.9641 232.404C39.4628 231.689 39.4654 230.748 39.5028 229.876C39.6548 226.409 40.0548 222.969 40.4548 219.526L42.2841 203.756H42.1454C39.4361 203.425 37.2601 203.097 34.5508 202.769C35.6734 190.382 37.1134 178.028 38.8708 165.702C40.3988 154.969 42.1774 144.233 45.3348 133.862C48.1401 124.646 52.5908 115.116 61.0414 110.494L72.7748 111.294L96.4148 106.398Z" fill="black"/>
<path fill-rule="evenodd" clip-rule="evenodd" d="M33.1583 226.472C34.2249 228.872 36.8116 230.496 39.4969 230.6L41.6916 208.824L33.6916 209.243C31.8249 209.939 30.2249 211.539 30.7583 213.672C33.8693 216.783 33.5442 221.183 33.252 225.136C33.2186 225.588 33.1856 226.035 33.1583 226.472ZM101.852 222.602C99.6919 219.754 103.017 216.813 105.585 215.984H122.647C122.721 216.423 122.8 216.878 122.881 217.345C123.536 221.103 124.325 225.634 123.583 229.216C122.815 232.93 120.3 236.373 116.257 236.64C112.289 236.896 109.863 234.098 108.617 230.677C108.491 230.332 108.375 229.909 108.252 229.458C107.89 228.136 107.461 226.569 106.508 226.002C106.223 225.833 105.934 225.668 105.644 225.503C104.25 224.706 102.843 223.903 101.852 222.602Z" fill="#FFD39F"/>
<path fill-rule="evenodd" clip-rule="evenodd" d="M75.3558 122.402L72.8012 111.314C77.9456 109.206 81.8399 107.245 85.7208 105.289L85.8465 105.226C88.8012 103.736 91.8518 102.218 95.1532 101.965C94.905 104.703 94.1547 107.345 93.4048 109.985L93.3825 110.064C92.8785 111.832 92.3452 113.642 91.1532 115.032C90.1452 116.208 88.7478 116.976 87.3558 117.656C83.497 119.542 79.4336 120.97 75.3805 122.394L75.3804 122.394L75.3558 122.402ZM68.9476 107.934L70.0543 103.982C70.3476 104.228 70.7263 103.188 70.2303 102.374L62.0303 108.988C61.8329 111.004 62.0649 113.038 62.7156 114.958C63.3663 116.878 64.4169 118.636 65.7983 120.118C68.2943 117.545 70.2863 114.524 71.6649 111.214C70.4383 110.956 68.9583 110.444 68.7769 109.201C68.7476 108.772 68.8036 108.34 68.9476 107.934ZM103.085 208.999C102.663 211.039 102.525 213.125 102.669 215.202C102.663 215.322 102.679 215.442 102.722 215.554C102.765 215.666 102.829 215.77 102.911 215.858C103.079 215.959 103.277 216.005 103.471 215.983L121.605 215.933C121.879 215.954 122.154 215.903 122.405 215.789C122.917 215.498 122.957 214.789 122.938 214.189L122.746 209.274L103.085 208.999ZM34.1855 209.148C34.3455 207.161 34.5189 205.121 35.3749 203.321L42.0255 203.942L41.1829 210.214C38.8122 210.198 36.4549 209.838 34.1855 209.148Z" fill="white"/>
<path fill-rule="evenodd" clip-rule="evenodd" d="M74.593 123.795C74.8277 123.923 75.097 123.99 75.3637 123.99C75.5477 123.99 75.7317 123.96 75.8997 123.902C79.9344 122.486 84.105 121.019 88.049 119.091C89.5877 118.342 91.1717 117.456 92.3584 116.072C93.8064 114.387 94.4197 112.232 94.913 110.499L94.937 110.419L94.9377 110.417C95.1819 109.557 95.4288 108.687 95.6601 107.807C95.7654 107.863 95.8786 107.908 95.9987 107.94C100.657 109.191 104.212 113.143 106.481 116.01C109.591 119.943 112.015 124.335 113.689 129.066C114.039 130.047 114.457 131.076 114.865 132.071C115.612 133.898 116.383 135.786 116.767 137.498C116.935 138.242 117.593 138.748 118.327 138.748C118.444 138.748 118.561 138.735 118.679 138.708C119.54 138.514 120.081 137.658 119.889 136.796C119.447 134.823 118.625 132.807 117.828 130.858L117.791 130.768C117.394 129.796 117.018 128.876 116.705 127.994C114.916 122.932 112.319 118.234 108.991 114.023C106.441 110.802 102.404 106.343 96.828 104.85C96.6696 104.807 96.5104 104.79 96.3546 104.796C96.5234 103.911 96.6574 103.015 96.7397 102.107C96.7824 101.64 96.617 101.176 96.2864 100.84C95.9557 100.504 95.4944 100.331 95.025 100.368C91.3578 100.648 88.0474 102.318 85.126 103.792L85.121 103.795L84.993 103.859L84.8776 103.917L84.8776 103.917C81.159 105.788 77.3075 107.726 72.3516 109.763C72.2388 109.71 72.1189 109.669 71.9941 109.642C70.7275 109.376 70.4181 109.05 70.3675 108.978C70.3675 108.824 70.3888 108.672 70.4341 108.525L72.0821 105.018C72.3755 104.394 72.2341 103.65 71.7328 103.176C71.2315 102.701 70.4821 102.602 69.8741 102.93L61.2688 107.57C60.8021 107.824 60.4875 108.293 60.4368 108.824C60.4299 108.894 60.4234 108.965 60.4175 109.035C60.3725 109.055 60.3281 109.076 60.2842 109.1C52.8682 113.156 47.6336 120.876 43.8069 133.399C40.5882 143.972 38.7722 155.066 37.2896 165.479C35.5349 177.764 34.0789 190.263 32.9589 202.628C32.9132 203.12 33.0962 203.582 33.4215 203.906C32.9864 205.243 32.8029 206.618 32.6816 207.921C29.9651 209.121 28.577 211.535 29.2068 214.054C29.2788 214.337 29.4228 214.593 29.6282 214.798C32.2202 217.393 31.9348 221.267 31.6575 225.014L31.652 225.087L31.652 225.087L31.6519 225.087L31.6519 225.087C31.6191 225.521 31.5867 225.95 31.5615 226.369C31.5455 226.63 31.5935 226.891 31.7028 227.131C32.3668 228.593 33.4255 229.835 34.7615 230.726C35.7659 231.398 36.894 231.846 38.0743 232.05C38.1898 232.491 38.3744 232.925 38.6633 233.337C39.666 234.761 41.3966 235.11 42.4473 235.321L51.5007 237.054C51.602 237.073 51.7033 237.083 51.802 237.083C52.554 237.083 53.2233 236.55 53.37 235.787C53.538 234.921 52.9673 234.081 52.1007 233.915L43.0606 232.185C42.4953 232.073 41.546 231.881 41.2793 231.502C41.0526 231.182 41.0873 230.387 41.106 229.963C41.2578 226.56 41.6595 223.096 42.0483 219.743L42.05 219.729L45.2046 192.529L45.282 191.862L45.2892 191.8C47.4736 173.099 49.7322 153.764 54.106 135.198C54.3086 134.337 53.7753 133.475 52.9166 133.273C52.0553 133.067 51.194 133.603 50.9913 134.462C46.5761 153.202 44.3069 172.624 42.1124 191.408L42.1033 191.486L40.8855 201.987C40.2731 201.908 39.6799 201.828 39.098 201.75L38.6282 201.687C37.8682 201.583 37.0949 201.479 36.2842 201.375C37.3802 189.57 38.7802 177.652 40.4549 165.93C41.9189 155.644 43.7109 144.698 46.8656 134.332C50.1952 123.434 54.5598 116.5 60.5262 112.674C60.6646 113.616 60.8891 114.547 61.1995 115.464C61.9275 117.613 63.0795 119.544 64.6261 121.202C64.9248 121.522 65.3435 121.706 65.7808 121.712H65.7968C66.2288 121.712 66.6448 121.536 66.9461 121.226C68.0154 120.124 68.9929 118.951 69.8746 117.713L66.833 165.632L66.8307 165.668C65.3695 188.693 63.86 212.478 66.4083 235.903C63.5179 235.608 60.6569 235.221 57.8202 234.743C56.9482 234.593 56.1242 235.183 55.9775 236.055C55.8309 236.924 56.4175 237.751 57.2895 237.897C60.7191 238.476 64.1816 238.924 67.6864 239.24C67.8557 239.301 68.0374 239.333 68.225 239.333C68.289 239.333 68.353 239.331 68.417 239.323C68.445 239.319 68.4727 239.315 68.5002 239.311C72.4495 239.643 76.4531 239.809 80.5242 239.809C90.1816 239.809 100.217 238.871 110.783 236.995C112.217 238.099 113.904 238.681 115.762 238.681C115.962 238.681 116.167 238.676 116.372 238.66C119.2 238.474 121.658 236.937 123.306 234.487C123.445 234.482 123.585 234.459 123.726 234.419C124.721 234.109 125.862 233.965 127.068 233.816C129.838 233.472 132.977 233.08 135.188 230.427C135.286 230.309 135.366 230.179 135.428 230.037C135.745 229.299 135.881 228.483 135.82 227.68C135.814 227.611 135.804 227.544 135.79 227.477C134.996 223.665 132.658 217.127 130.396 210.805L130.396 210.803C128.82 206.403 127.334 202.245 126.657 199.771C126.613 199.611 126.547 199.463 126.462 199.33C126.242 179.662 125.704 160.858 121.153 141.242C120.953 140.38 120.095 139.844 119.233 140.044C118.372 140.244 117.836 141.103 118.036 141.964C122.911 162.98 123.108 183.204 123.316 204.618C123.321 205.103 123.326 205.59 123.331 206.077L123.331 206.079L123.331 206.082C123.336 206.561 123.34 207.041 123.345 207.522L103.156 207.191C100.156 183.751 99.1214 159.908 100.079 136.3C100.116 135.418 99.4281 134.671 98.5454 134.636C97.6601 134.604 96.9161 135.287 96.8814 136.17C95.8974 160.418 97.0014 184.914 100.161 208.975C100.243 209.594 100.672 210.092 101.236 210.283C101.011 211.921 100.952 213.581 101.062 215.235C101.062 215.533 101.113 215.827 101.217 216.107C101.337 216.427 101.516 216.715 101.75 216.96C101.773 216.984 101.796 217.007 101.82 217.029C100.854 217.76 100.053 218.695 99.7004 219.82C99.3964 220.793 99.303 222.308 100.583 223.988C101.767 225.545 103.402 226.481 104.844 227.305C105.13 227.468 105.412 227.63 105.695 227.798C106.09 228.032 106.521 229.603 106.71 230.291L106.714 230.305C106.844 230.785 106.97 231.238 107.116 231.644C107.455 232.573 107.857 233.418 108.315 234.175C94.6324 236.47 81.8721 237.141 69.6611 236.194C67.0435 212.826 68.56 188.944 70.0277 165.835L72.9846 119.249L73.793 122.758C73.897 123.2 74.193 123.576 74.593 123.795ZM34.1138 210.792C33.5822 211.013 32.2119 211.704 32.2602 212.923C35.4936 216.517 35.1377 221.341 34.8498 225.244L34.8495 225.249C34.8417 225.359 34.8336 225.468 34.8255 225.576L34.8255 225.577C34.8113 225.766 34.7973 225.954 34.7855 226.142C35.2042 226.915 35.8068 227.574 36.5402 228.065C36.9827 228.36 37.4631 228.587 37.9664 228.74C38.1477 225.608 38.5093 222.484 38.8602 219.452L38.8713 219.355L39.7519 211.762C37.8434 211.646 35.9543 211.32 34.1138 210.792ZM40.1211 208.579L40.5166 205.168C39.7162 205.065 38.9503 204.961 38.2016 204.86L37.8253 204.81L37.8252 204.81L37.8251 204.81L37.8249 204.81L37.8247 204.81C37.4075 204.754 36.9845 204.697 36.5532 204.64C36.1797 205.668 36.0071 206.805 35.8926 207.954C37.2794 208.293 38.6953 208.503 40.1211 208.579ZM104.222 214.381C104.174 213.054 104.25 211.725 104.451 210.412L121.195 210.687L121.334 214.237C121.337 214.272 121.337 214.304 121.337 214.333V214.333L104.222 214.381ZM124.532 214.12L124.4 210.739L124.937 210.748H124.964C125.385 210.748 125.793 210.58 126.089 210.284C126.31 210.065 126.461 209.788 126.526 209.488C126.782 210.209 127.045 210.943 127.31 211.684L127.31 211.685L127.38 211.88L127.389 211.907L127.389 211.908C129.486 217.77 131.855 224.398 132.63 228.013C132.636 228.2 132.612 228.389 132.558 228.568C131.156 230.08 129.068 230.341 126.668 230.64C126.097 230.711 125.518 230.783 124.94 230.876C125.022 230.579 125.095 230.276 125.159 229.966C125.966 226.059 125.294 222.189 124.644 218.447L124.642 218.433C124.57 218.022 124.5 217.614 124.431 217.206C124.378 216.889 124.234 216.609 124.031 216.388C124.576 215.558 124.545 214.535 124.532 214.12ZM106.766 217.567L121.255 217.526C121.257 217.596 121.264 217.666 121.276 217.737C121.336 218.09 121.397 218.443 121.458 218.798L121.459 218.801L121.49 218.98L121.492 218.991C122.091 222.441 122.71 226.005 122.026 229.316C121.132 233.622 118.412 235.316 116.159 235.465C112.73 235.686 110.986 232.916 110.122 230.545C110.02 230.262 109.911 229.87 109.799 229.457L109.797 229.449C109.368 227.885 108.834 225.938 107.33 225.046C107.105 224.913 106.878 224.783 106.649 224.652L106.431 224.526L106.429 224.525C105.139 223.787 103.919 223.089 103.127 222.049C102.58 221.332 102.706 220.929 102.754 220.777C103.004 219.974 104.263 219.044 105.746 218.564C106.244 218.405 106.608 218.025 106.766 217.567ZM76.5104 120.294L74.6624 112.267C79.257 110.331 82.9024 108.496 86.4277 106.718L86.5584 106.651C88.729 105.555 90.9584 104.432 93.2704 103.878C92.9393 105.737 92.4162 107.58 91.8709 109.502L91.8709 109.502L91.8597 109.542L91.8384 109.622C91.3904 111.2 90.9237 112.832 89.9344 113.987C89.0864 114.974 87.793 115.654 86.649 116.214C83.409 117.798 79.9397 119.08 76.5104 120.294ZM63.5675 109.97C63.5168 111.49 63.7408 112.989 64.2315 114.44C64.6235 115.597 65.1701 116.674 65.8635 117.661C67.2875 115.984 68.4928 114.149 69.4661 112.178C68.1328 111.56 67.3701 110.637 67.1915 109.426L67.1898 109.414L67.1898 109.413C67.185 109.378 67.1805 109.345 67.1781 109.309C67.1461 108.856 67.1781 108.408 67.2715 107.968L63.5675 109.97Z" fill="black"/>
</svg>
