<svg width="160" height="260" viewBox="0 0 160 260" fill="none" xmlns="http://www.w3.org/2000/svg">
<path d="M44.7524 78.6219C42.315 77.5233 40.819 75.0086 39.9657 72.4886C37.6084 65.5099 39.0964 57.5953 42.867 51.2673C46.6377 44.9393 52.491 40.0673 58.867 36.3579C63.803 33.4859 69.267 31.2086 74.9817 31.1233C80.6964 31.0379 86.6777 33.4779 89.7044 38.3233L93.4884 41.6566C98.2884 40.9233 102.963 43.5926 106.648 46.7553C111.182 50.6379 114.96 55.4913 117.094 61.0646C119.227 66.6379 119.63 72.9499 117.688 78.5926C115.923 83.7153 111.382 88.5286 105.979 88.1126" fill="black"/>
<path d="M71.771 106.731C71.643 103.953 71.6697 101.971 71.8457 99.1953C68.5177 100.555 64.8377 99.9953 61.4084 99.398C58.1204 98.8193 55.0457 97.6833 52.563 95.374C47.9044 91.0353 46.667 84.2673 47.3337 78.1767C47.6004 75.758 48.6297 71.7633 50.3497 67.3393L52.3924 64.438C54.3924 61.1473 56.8964 58.1073 60.059 55.9047C63.2217 53.702 67.091 52.406 70.9257 52.7287C71.9924 52.8193 73.0937 53.046 73.9897 53.646C74.8857 54.246 75.5524 55.2753 75.475 56.35L79.507 58.6753C81.2217 57.5047 83.7444 58.4087 84.9337 60.1233C86.123 61.838 86.2857 64.0353 86.2137 66.1127C86.1417 68.19 85.875 70.302 86.3604 72.3207C86.779 73.95 87.6564 75.4247 88.891 76.5687C90.1257 77.7127 91.6617 78.478 93.3177 78.7713L95.403 78.67C98.4617 75.982 100.262 75.622 102.27 76.6353C105.128 78.078 105.558 81.1287 104.936 83.6913C104.264 86.518 102.472 88.9553 100.174 90.6913C99.0137 91.5527 97.7497 92.27 96.4137 92.8247C95.7577 93.102 95.0884 93.3473 94.4084 93.5607C93.643 93.8033 92.8697 93.7953 92.5097 94.542C90.9257 97.8433 90.251 100.977 90.5604 104.625" fill="#FFD39F"/>
<path fill-rule="evenodd" clip-rule="evenodd" d="M44.1002 80.0743C44.3135 80.1676 44.5322 80.213 44.7509 80.213C45.048 80.213 45.3394 80.129 45.5908 79.9746C45.2929 86.779 47.3888 92.7403 51.4729 96.5444C53.9076 98.8084 57.0676 100.256 61.1343 100.974C63.6516 101.414 66.9156 101.982 70.1209 101.363C70.0676 102.651 70.0863 103.595 70.1716 105.472C70.2116 106.331 70.9183 107 71.7689 107C71.7929 107 71.8169 107 71.8463 106.99C72.7289 106.95 73.4116 106.2 73.3716 105.318C73.2436 102.566 73.2729 101.974 73.4436 99.2911C73.4783 98.7418 73.2276 98.2138 72.7796 97.8911C72.3316 97.5711 71.7503 97.5018 71.2409 97.7098C68.4303 98.8591 65.2489 98.4405 61.6863 97.8191C58.2009 97.2058 55.6489 96.0564 53.6543 94.2004C49.9236 90.7284 48.2009 84.9498 48.9236 78.3498C49.1423 76.3738 50.0223 72.5951 51.8409 67.9178C52.1609 67.0938 51.7529 66.1658 50.9289 65.8458C50.1049 65.5258 49.1769 65.9338 48.8569 66.7578C47.3257 70.6942 46.2106 74.619 45.8154 77.4209C45.6952 77.3139 45.5566 77.2234 45.4015 77.1543C43.2842 76.2103 42.1002 73.8156 41.4789 71.9676C39.4095 65.8636 40.4389 58.429 44.2309 52.0796C47.4895 46.6236 52.6816 41.797 59.6629 37.733C65.3429 34.4263 70.3589 32.7863 74.9962 32.7143C80.6042 32.6316 85.8362 35.1596 88.3375 39.1623C88.8069 39.9116 89.7936 40.141 90.5429 39.6716C91.2922 39.2023 91.5216 38.2156 91.0522 37.4663C87.9242 32.4556 81.7402 29.4103 74.9482 29.5143C69.7455 29.5943 64.2202 31.3756 58.0522 34.965C50.5989 39.3036 45.0229 44.509 41.4842 50.437C37.2202 57.581 36.0842 66.013 38.4495 72.989C39.6335 76.5063 41.5855 78.9543 44.1002 80.0743ZM106.628 89.729C106.366 89.729 106.108 89.7183 105.846 89.6996C105.173 89.6486 104.628 89.1854 104.44 88.5765C103.553 89.842 102.439 90.9948 101.137 91.9778C99.8627 92.9244 98.4813 93.7084 97.0253 94.3111C96.3347 94.6018 95.612 94.8684 94.884 95.0951C94.6627 95.1644 94.4493 95.2178 94.2627 95.2631C94.2476 95.2669 94.2319 95.2707 94.2158 95.2747C94.203 95.2778 94.1899 95.281 94.1767 95.2842C94.0778 95.3083 93.9705 95.3345 93.8947 95.3591C92.3613 98.5591 91.8867 99.7617 92.1533 102.898C92.228 103.778 91.5747 104.551 90.6947 104.626C90.6467 104.636 90.6013 104.639 90.556 104.639C89.7347 104.639 89.0333 104.01 88.964 103.172C88.6253 99.1564 89.4067 97.3191 91.0653 93.8631C91.6733 92.6018 92.8227 92.3244 93.5107 92.1591L93.6042 92.136C93.7189 92.1079 93.8273 92.0813 93.924 92.0498C94.5587 91.8498 95.1853 91.6204 95.7907 91.3644C97.0147 90.8577 98.164 90.2044 99.22 89.4204C101.348 87.8124 102.831 85.6498 103.38 83.3351C103.663 82.1698 104.047 79.3378 101.548 78.0764C100.457 77.5244 99.388 77.3084 96.4573 79.8844C95.8706 80.4004 95.0133 80.4085 94.4188 79.9453C94.1279 80.2209 93.7359 80.3853 93.3182 80.3853C93.2248 80.3853 93.1315 80.3773 93.0355 80.3613C91.0728 80.0119 89.2622 79.1106 87.8008 77.7559C86.3395 76.4012 85.3048 74.6626 84.8088 72.7319C84.3635 70.8759 84.4595 69.0706 84.5528 67.3213L84.5664 67.0598V67.0597V67.0596V67.0596V67.0595V67.0594V67.0593C84.5837 66.7289 84.6009 66.3997 84.6115 66.0706C84.6675 64.4813 84.6035 62.4733 83.6168 61.0493C82.9288 60.0573 81.3422 59.3719 80.4062 60.0119C79.6755 60.5106 78.6808 60.3213 78.1822 59.5933C77.6835 58.8626 77.8728 57.8679 78.6008 57.3693C80.6835 55.9479 84.2515 56.3533 86.2435 59.2279C87.7688 61.4253 87.8808 64.0999 87.8088 66.1853C87.7928 66.6226 87.7715 67.0599 87.7475 67.4973C87.6622 69.0866 87.5822 70.5853 87.9128 71.9639C88.2488 73.2759 88.9635 74.4759 89.9742 75.4146C90.9848 76.3533 92.2355 76.9746 93.5928 77.2173C93.8568 77.2642 94.0942 77.3736 94.2926 77.5276C94.3097 77.5111 94.3273 77.495 94.3453 77.4791C98.5533 73.7804 100.985 74.2071 102.988 75.2178C106.092 76.7858 107.433 80.1804 106.489 84.0791C106.289 84.9215 105.998 85.7468 105.622 86.5437C105.773 86.5102 105.93 86.4981 106.092 86.5103C110.676 86.865 114.628 82.5289 116.166 78.065C117.91 72.9956 117.705 67.1583 115.59 61.6303C113.686 56.6596 110.233 51.9316 105.598 47.9636C101.3 44.2756 97.3051 42.6836 93.7211 43.2303C92.8464 43.3636 92.0304 42.7636 91.8971 41.8916C91.7637 41.0196 92.3637 40.201 93.2357 40.0676C97.7851 39.3716 102.644 41.2116 107.678 45.5343C112.713 49.8463 116.484 55.017 118.577 60.4863C120.961 66.7156 121.18 73.3263 119.19 79.1076C118.182 82.0303 116.428 84.6996 114.246 86.625C111.929 88.6623 109.31 89.7263 106.628 89.729ZM51.5539 65.8194C51.8126 65.9768 52.0979 66.0514 52.3806 66.0514C52.9219 66.0514 53.4499 65.7768 53.7486 65.2834C55.8606 61.7981 58.2873 59.0914 60.9593 57.2354C64.0446 55.0941 67.5326 54.0648 70.7806 54.3394C71.8046 54.4248 72.562 54.6381 73.0926 54.9928C73.5726 55.3128 73.8979 55.8408 73.8686 56.2488C73.8046 57.1314 74.4686 57.8968 75.3486 57.9608C76.2339 58.0248 76.9966 57.3634 77.0606 56.4808C77.1726 54.9208 76.3113 53.2914 74.8659 52.3288C73.8606 51.6568 72.6473 51.2834 71.0499 51.1474C67.0659 50.8114 62.8339 52.0381 59.1379 54.6034C56.0926 56.7154 53.3619 59.7501 51.0153 63.6221C50.5566 64.3768 50.7993 65.3608 51.5539 65.8194ZM58.2467 74.695C59.2777 74.695 60.1134 73.6802 60.1134 72.4284C60.1134 71.1765 59.2777 70.1617 58.2467 70.1617C57.2158 70.1617 56.3801 71.1765 56.3801 72.4284C56.3801 73.6802 57.2158 74.695 58.2467 74.695ZM69.1806 73.0565C69.1806 74.3084 68.3449 75.3232 67.3139 75.3232C66.283 75.3232 65.4473 74.3084 65.4473 73.0565C65.4473 71.8047 66.283 70.7898 67.3139 70.7898C68.3449 70.7898 69.1806 71.8047 69.1806 73.0565Z" fill="black"/>
<path d="M90.499 100C90.739 102.693 91.8403 108.779 95.939 107.867L96.379 108.533C96.179 112.712 94.0617 115.659 90.7443 118.712C87.3737 121.765 83.075 123.6 78.539 123.923C74.539 124.216 70.2857 123.259 67.2937 120.576C64.3017 117.893 62.7283 114.176 64.7097 110.989H64.9977C65.899 111.016 66.7283 110.544 67.491 110.064C68.4617 109.451 70.4643 106.936 71.0643 106.213C71.8643 105.176 72.1897 101.243 72.6003 100H90.499V100Z" fill="#FFD39F"/>
<path d="M96.5034 106.376C100.586 107.467 103.935 110.4 106.685 113.6C110.159 117.662 112.914 122.288 114.834 127.278C119.082 138.326 119.085 150.779 124.207 161.451C121.426 162.275 118.597 162.915 115.733 163.371L118.042 174.323C123.949 192.611 128.058 206.638 133.455 224.288C133.722 225.19 134.789 228.376 134.295 229.174C133.965 229.707 133.41 230.048 132.869 230.355C129.909 232.038 126.677 232.179 123.338 232.851L110.946 235.318C93.21 238.499 75.41 239.278 57.642 236.28L54.29 235.888L42.8234 233.694C41.7887 233.496 40.6527 233.232 40.0474 232.36C39.546 231.646 39.5487 230.704 39.586 229.832C39.738 226.366 40.138 222.926 40.538 219.483L43.6927 192.283C45.066 180.664 46.3994 168.998 48.266 157.419L48.138 157.366C45.0367 156.299 41.9834 155.115 38.9274 153.928C38.506 153.808 38.1274 153.574 37.8287 153.254C37.2287 152.48 37.7434 151.371 38.258 150.536C42.7994 143.15 46.682 135.379 49.866 127.312C52.298 121.152 54.8367 114.222 60.7727 111.286L67.5007 108.47C66.93 109.443 67.6527 112.219 68.4234 113.043C69.194 113.867 70.29 114.299 71.3567 114.643C74.9354 115.758 78.8234 116.054 82.4554 115.176C86.0874 114.299 89.482 112.168 91.6154 109.083C92.1487 108.326 92.594 107.504 93.2554 106.862C93.9167 106.219 94.8554 105.766 95.754 105.966L96.5034 106.376Z" fill="black"/>
<path fill-rule="evenodd" clip-rule="evenodd" d="M37.4743 202.815L41.4449 155.543L48.5036 155.391C46.4903 167.639 45.0556 179.993 43.6236 192.327L40.4689 219.527L40.4675 219.539C40.068 222.978 39.6688 226.414 39.5169 229.876L39.3169 230.567C37.2663 230.199 35.0103 229.591 33.9223 227.815C32.9705 226.268 33.228 224.429 33.4885 222.567C33.7142 220.955 33.9422 219.326 33.3889 217.857C33.1006 217.089 32.605 216.354 32.1165 215.629C31.1956 214.263 30.3 212.934 30.8663 211.495C31.3134 210.368 32.4444 209.842 33.5885 209.309C34.3074 208.975 35.0314 208.638 35.5943 208.148C37.0529 206.879 37.3116 204.745 37.4743 202.815ZM107.642 216.568C105.514 199.262 104.21 181.896 103.733 164.475L116.896 164.075L123.376 223.163C123.773 226.795 124.082 230.798 121.968 233.779C121.157 234.92 120.042 235.816 118.752 236.363C117.461 236.91 116.045 237.086 114.658 236.872C113.274 236.659 111.976 236.062 110.909 235.152C109.842 234.243 109.053 233.054 108.624 231.718C108.469 231.231 108.361 230.726 108.253 230.222C108.027 229.171 107.804 228.128 107.165 227.28C106.494 226.392 105.468 225.863 104.45 225.338C103.282 224.737 102.125 224.14 101.525 223.014C100.698 221.451 101.376 219.4 102.714 218.251C104.053 217.102 105.88 216.678 107.642 216.568Z" fill="#FFD39F"/>
<path fill-rule="evenodd" clip-rule="evenodd" d="M90.8204 106.526C90.8965 106.661 90.9733 106.798 91.0525 106.935C90.8978 107.156 90.7544 107.375 90.6177 107.583C90.4844 107.786 90.351 107.988 90.2044 108.199C88.375 110.844 85.3804 112.831 81.9857 113.647C78.8017 114.412 75.2604 114.239 71.7537 113.146C70.8897 112.866 70.0177 112.532 69.4977 111.975C69.1928 111.649 69.0325 111.172 69.1113 110.878C69.73 110.439 70.2131 110.003 70.5693 109.681L70.5827 109.669L70.6761 109.583C71.9908 108.397 72.3881 107.695 72.7374 106.965C72.7774 106.879 72.8174 106.797 72.8627 106.709C73.2734 105.927 72.9748 104.959 72.1934 104.546C71.4121 104.135 70.4441 104.434 70.0308 105.215C69.9641 105.343 69.9054 105.463 69.8467 105.586C69.6632 105.972 69.5125 106.286 68.779 106.98C68.3133 106.442 67.5271 106.263 66.86 106.594L62.5427 108.727C62.0186 108.986 61.6989 109.494 61.6561 110.038C61.1872 109.678 60.5361 109.592 59.9706 109.872C53.7066 112.968 50.9733 119.912 48.5626 126.04L48.2853 126.746C45.1413 134.704 41.2746 142.434 36.7946 149.72C35.664 151.557 35.552 153.082 36.464 154.258C36.4933 154.296 36.5226 154.33 36.5546 154.365C37.032 154.88 37.6373 155.258 38.3066 155.466L38.312 155.469C38.8032 155.66 39.2972 155.852 39.7936 156.044L35.8767 202.675C35.7274 204.438 35.5141 206.089 34.5407 206.937C34.1487 207.278 33.5487 207.558 32.9114 207.854L32.9039 207.858C31.6359 208.449 30.0567 209.186 29.3754 210.905C28.5034 213.126 29.77 215.006 30.7887 216.518L30.7887 216.518L30.8282 216.577C31.2643 217.227 31.6752 217.84 31.8901 218.417C32.3007 219.505 32.1087 220.883 31.9034 222.342C31.6234 224.342 31.3061 226.611 32.5567 228.646C33.7793 230.641 35.9297 231.473 38.0483 231.941C38.1614 232.418 38.3518 232.89 38.6641 233.335C39.6668 234.759 41.3974 235.109 42.4481 235.319L52.2001 237.186C52.3014 237.205 52.4028 237.215 52.5014 237.215C53.2534 237.215 53.9254 236.682 54.0694 235.919C54.2374 235.053 53.6668 234.213 52.8001 234.047L43.0614 232.183C42.4961 232.071 41.5468 231.879 41.2801 231.501C41.0534 231.181 41.0881 230.386 41.1068 229.962C41.2585 226.559 41.6603 223.094 42.0491 219.742L42.0491 219.741L42.0508 219.727L45.2054 192.527L45.2828 191.861L45.29 191.798C47.4744 173.098 49.7329 153.763 54.1068 135.197C54.3094 134.335 53.7761 133.474 52.9174 133.271C52.0534 133.066 51.1948 133.602 50.9921 134.461C49.373 141.333 48.0424 148.297 46.8983 155.287C44.4145 154.398 41.9313 153.434 39.5148 152.496L39.472 152.48L39.408 152.456L39.4078 152.456C39.3625 152.44 39.3172 152.424 39.2693 152.41C39.2 152.392 39.136 152.362 39.0773 152.328C39.112 152.178 39.216 151.888 39.52 151.394C44.0986 143.949 48.0506 136.05 51.2613 127.92L51.5413 127.21C53.848 121.349 56.2346 115.288 61.3893 112.741C61.9133 112.482 62.233 111.974 62.2759 111.43C62.4599 111.571 62.6721 111.67 62.8961 111.721C62.4244 112.102 62.1916 112.735 62.3513 113.361C63.0819 116.238 65.6446 117.934 67.9886 119.297C70.2793 120.63 72.9139 120.891 75.2046 121.033C76.3006 121.102 77.5059 121.155 78.7753 121.155C81.4126 121.155 84.3326 120.923 87.1353 120.094C91.9753 118.667 95.0686 114.161 96.4819 111.603C96.9086 110.83 96.6286 109.857 95.8553 109.43C95.0819 109.003 94.1086 109.283 93.6819 110.057C92.5059 112.185 89.9753 115.921 86.2313 117.025C82.5726 118.105 78.7006 118.043 75.3993 117.841C73.4766 117.721 71.2819 117.513 69.5966 116.531C67.8153 115.497 65.8793 114.249 65.4526 112.574C65.306 111.991 64.8573 111.566 64.3164 111.421L65.9156 110.631C65.7865 111.846 66.2223 113.157 67.1617 114.162C68.1804 115.25 69.5004 115.78 70.7884 116.196C73.1777 116.943 75.5884 117.316 77.9297 117.316C79.5777 117.316 81.1884 117.132 82.7377 116.759C86.887 115.759 90.567 113.303 92.831 110.031C92.9909 109.804 93.1428 109.573 93.2947 109.341L93.2948 109.341L93.2949 109.341L93.295 109.34L93.3038 109.327C93.6259 108.836 93.9302 108.372 94.2764 108.036C94.6162 107.704 95.0446 107.503 95.3018 107.552C95.4915 107.737 95.7299 107.878 96.0041 107.951C99.1641 108.797 102.233 110.999 105.383 114.679C108.748 118.613 111.396 123.058 113.255 127.89C115.129 132.762 116.185 138.063 117.207 143.194L117.208 143.2L117.208 143.2C118.357 148.966 119.541 154.908 121.897 160.45C113.807 162.602 105.511 163.189 97.1934 162.197L97.8814 138.09C97.9054 137.207 97.2094 136.469 96.3268 136.445C95.4441 136.413 94.7054 137.117 94.6814 137.999L93.9534 163.551C93.9294 164.365 94.5214 165.066 95.3294 165.181C97.6119 165.502 99.893 165.709 102.17 165.804C102.661 182.242 103.901 198.837 105.861 215.171C104.157 215.483 102.752 216.107 101.672 217.035C99.6637 218.758 98.9944 221.649 100.112 223.763C100.945 225.33 102.415 226.087 103.712 226.756L103.717 226.758C104.602 227.214 105.437 227.646 105.888 228.241C106.312 228.806 106.488 229.617 106.688 230.555C106.8 231.089 106.92 231.638 107.098 232.203C107.327 232.915 107.64 233.592 108.029 234.221C89.9751 237.222 73.5257 237.391 57.821 234.741C56.949 234.592 56.125 235.181 55.9783 236.053C55.8317 236.923 56.4183 237.749 57.2903 237.896C64.8423 239.171 72.5543 239.808 80.525 239.808C90.1604 239.808 100.172 238.873 110.712 237.007C111.821 237.753 113.083 238.247 114.413 238.451C114.88 238.523 115.346 238.558 115.813 238.558C117.034 238.558 118.245 238.315 119.381 237.835C120.946 237.171 122.293 236.089 123.277 234.702C123.291 234.682 123.306 234.661 123.32 234.641C123.334 234.621 123.348 234.6 123.363 234.579L123.391 234.538L123.43 234.479C123.475 234.475 123.52 234.468 123.565 234.46C124.321 234.306 125.091 234.18 125.841 234.057L125.843 234.056L125.933 234.041L125.938 234.041L125.939 234.041C128.47 233.625 131.087 233.195 133.568 231.785C134.259 231.393 135.04 230.905 135.568 230.052C136.259 228.932 135.904 227.135 135.005 224.212C134.963 224.079 134.928 223.964 134.896 223.857C133.421 219.033 132.035 214.46 130.696 210.036L130.584 209.666L130.583 209.665L130.583 209.664L130.582 209.661C127.108 198.194 123.812 187.318 119.641 174.385L118.558 164.515C120.575 164.11 122.583 163.614 124.577 163.029C125.025 162.895 125.393 162.573 125.585 162.143C125.777 161.714 125.769 161.226 125.567 160.802C122.855 155.153 121.641 149.063 120.356 142.617L120.348 142.575C119.3 137.314 118.215 131.874 116.244 126.746C114.255 121.573 111.42 116.813 107.817 112.602C104.233 108.413 100.639 105.879 96.8334 104.861C96.814 104.855 96.7947 104.851 96.7753 104.846C96.5697 104.646 96.3077 104.498 96.007 104.431C95.1854 104.249 94.3081 104.364 93.4867 104.741C93.2982 104.405 93.0851 104.038 92.8257 103.654C92.3324 102.923 91.3377 102.729 90.6044 103.222C89.8737 103.715 89.679 104.71 90.1724 105.443C90.403 105.785 90.5998 106.135 90.7904 106.473L90.7906 106.473L90.8204 106.526ZM124.896 230.966C125.071 230.938 125.244 230.909 125.416 230.881L125.438 230.878C127.787 230.492 130.006 230.129 131.987 229.001L132.022 228.981C132.24 228.856 132.554 228.677 132.736 228.497C132.731 228.103 132.571 227.196 131.944 225.153L131.914 225.058C131.881 224.951 131.852 224.857 131.829 224.78C130.357 219.967 128.971 215.391 127.632 210.964L127.518 210.589L127.518 210.589L127.517 210.586L127.516 210.582C125.493 203.904 123.532 197.428 121.422 190.629L124.97 222.985L124.971 222.989C125.211 225.187 125.535 228.151 124.896 230.966ZM116.383 174.042C116.33 174.303 116.341 174.581 116.429 174.852L116.494 175.053L121.789 223.334C122.186 226.958 122.397 230.411 120.666 232.851C120.026 233.753 119.152 234.457 118.133 234.889C117.114 235.318 116 235.457 114.906 235.289C113.816 235.121 112.792 234.651 111.952 233.934C111.112 233.214 110.488 232.278 110.152 231.23C110.027 230.837 109.934 230.407 109.836 229.953L109.821 229.883L109.82 229.88C109.575 228.737 109.298 227.442 108.445 226.313C107.557 225.138 106.304 224.491 105.198 223.919L105.186 223.913L105.175 223.907C104.172 223.389 103.305 222.942 102.944 222.262C102.522 221.467 102.888 220.211 103.76 219.462C104.634 218.71 105.976 218.273 107.744 218.163C108.184 218.137 108.592 217.929 108.874 217.59C109.157 217.249 109.285 216.809 109.232 216.371C107.178 199.672 105.881 182.688 105.374 165.862C108.732 165.846 112.078 165.582 115.4 165.073L116.383 174.042ZM42.1132 191.407C43.3794 180.569 44.6704 169.518 46.3842 158.509C45.2199 158.098 44.0586 157.67 42.9052 157.236L39.0661 202.942C38.8687 205.289 38.5194 207.715 36.6421 209.347C35.9087 209.985 35.0341 210.393 34.2607 210.753L34.2583 210.754C33.3473 211.177 32.5619 211.543 32.3514 212.078C32.1114 212.686 32.6047 213.486 33.4421 214.729C33.9781 215.523 34.5301 216.345 34.8847 217.289C35.5787 219.134 35.3103 221.064 35.0735 222.767L35.0714 222.782L35.0714 222.782C34.8367 224.462 34.6341 225.913 35.2821 226.969C35.7986 227.81 36.8272 228.301 37.9738 228.625C38.1573 225.531 38.5143 222.446 38.861 219.45L38.8721 219.354L42.1041 191.485L42.1132 191.407Z" fill="black"/>
</svg>
