<svg width="160" height="260" viewBox="0 0 160 260" fill="none" xmlns="http://www.w3.org/2000/svg">
<path d="M48.3944 94.7166C47.9598 95.4366 47.3438 96.0313 46.6104 96.4393C45.8744 96.8473 45.0451 97.0553 44.2051 97.0446C43.3651 97.0313 42.5411 96.7993 41.8184 96.3699C41.0958 95.9406 40.4984 95.3299 40.0824 94.5966C39.2691 93.1539 38.9171 91.0526 37.2931 90.7353C35.9438 90.4686 34.8424 91.7193 33.8264 92.6446C32.6131 93.7406 31.0398 94.5299 29.4051 94.4899C27.7704 94.4499 26.1091 93.4473 25.6078 91.8899C24.8904 89.6686 26.5838 87.3806 26.5704 85.0499C26.6024 84.4206 26.3944 83.8046 25.9891 83.3219C25.0478 82.3459 23.4371 82.8393 22.0878 82.7113C19.2664 82.4446 17.5544 79.0366 18.2478 76.2899C18.9411 73.5433 21.3224 71.5273 23.8478 70.2473C26.3731 68.9673 29.1544 68.2339 31.6691 66.9219C34.7864 65.2873 37.3918 62.8233 39.1998 59.8019C40.6078 57.4473 41.4958 54.8019 42.9891 52.5006C45.6558 48.4046 50.0371 45.7113 54.5944 43.9486C59.1518 42.1859 63.9731 41.2339 68.6398 39.7913C72.1438 38.7086 75.6984 37.3326 79.3491 37.6579C81.7678 37.8739 84.3144 39.0633 85.2158 41.3139L91.4691 43.5139C98.8611 43.8126 105.936 48.3513 109.288 54.9486C110.44 57.2099 111.202 59.7219 112.856 61.6473C115.122 64.2873 118.989 65.7699 119.917 69.1139C121.146 73.5273 116.397 77.466 116.104 82.0366C115.938 84.6046 117.17 87.4206 115.837 89.6206C114.682 91.5193 112.104 92.0339 110.64 93.7086C108.893 95.7033 108.952 99.0819 106.696 100.474C105.808 101.021 102.373 101.666 101.429 101.231C97.5571 99.4526 97.1491 101.853 93.8744 102.162" fill="black"/>
<path d="M90.5699 104.644C90.2659 100.993 90.9432 97.8628 92.5325 94.5614C92.8925 93.8148 93.6659 93.8228 94.4312 93.5801C95.1112 93.3668 95.7779 93.1215 96.4365 92.8441C97.7725 92.2895 99.0339 91.5721 100.197 90.7108C102.495 88.9748 104.287 86.5374 104.959 83.7108C105.57 81.1481 105.141 78.0974 102.293 76.6548C100.285 75.6414 98.4845 76.0014 95.4259 78.6894L93.0499 78.0894C90.0152 77.9054 87.6232 75.2494 86.6285 72.3801C85.6339 69.5108 85.6979 66.3988 85.4765 63.3694C85.3779 62.0174 85.1645 60.5534 84.1859 59.6148C83.1192 58.5961 81.4952 58.5188 80.0232 58.4974L77.6765 57.6974C76.7725 56.7188 75.6659 55.9481 74.4365 55.4334C73.2072 54.9214 71.8819 54.6788 70.5485 54.7241C69.2179 54.7694 67.9112 55.1001 66.7192 55.6948C65.5272 56.2894 64.4765 57.1348 63.6392 58.1721C62.6392 59.4121 61.8845 60.9721 60.4392 61.6521C58.9939 62.3321 57.3539 61.9374 55.7832 61.9668C54.2125 61.9961 52.3405 62.8468 52.3005 64.4148L50.3645 67.3481C48.6445 71.7721 47.6099 75.7668 47.3485 78.1854C46.6899 84.2761 47.9192 91.0441 52.5779 95.3828C55.0605 97.6921 58.1352 98.8281 61.4232 99.4068C64.8525 100.012 68.5325 100.564 71.8605 99.2041C71.6845 101.98 71.6579 103.961 71.7859 106.74" fill="#FFD39F"/>
<path d="M44.274 98.6546C44.242 98.6546 44.2126 98.6546 44.1806 98.6546C43.0633 98.6386 41.962 98.3293 40.9993 97.7559C40.0366 97.1853 39.2393 96.3693 38.6873 95.3959C38.426 94.9319 38.2206 94.4493 38.0206 93.9853C37.7006 93.2359 37.3406 92.3879 36.9833 92.3186C36.61 92.2439 35.818 92.9879 35.2926 93.4786C35.1593 93.6039 35.0286 93.7266 34.898 93.8439C33.2233 95.3453 31.2633 96.1453 29.3646 96.1026C26.938 96.0466 24.7673 94.5213 24.082 92.3933C23.5086 90.6226 24.0126 88.9559 24.458 87.4839C24.7193 86.6146 24.9673 85.7959 24.9673 85.0626C24.9673 85.0359 24.9673 85.0066 24.97 84.9799C24.9806 84.7799 24.922 84.5853 24.8073 84.4226C24.5993 84.2786 23.9086 84.3079 23.3993 84.3266C22.93 84.3453 22.4446 84.3639 21.9353 84.3159C20.322 84.1639 18.8686 83.2866 17.8446 81.8413C16.6446 80.1479 16.2046 77.8786 16.6953 75.9159C17.3993 73.0919 19.682 70.5746 23.1246 68.8333C24.426 68.1746 25.7753 67.6573 27.0793 67.1586C28.4366 66.6386 29.7166 66.1479 30.9273 65.5159C33.7886 64.0173 36.1806 61.7586 37.842 58.9853C38.45 57.9693 38.9566 56.8893 39.4926 55.7453C40.1353 54.3799 40.7966 52.9666 41.6606 51.6333C44.194 47.7346 48.3566 44.6493 54.0313 42.4599C56.9513 41.3346 59.986 40.5266 62.9193 39.7426C64.6553 39.2786 66.45 38.8013 68.1806 38.2653C68.6606 38.1159 69.1406 37.9639 69.6206 37.8093C72.7753 36.7986 76.0366 35.7559 79.506 36.0679C82.178 36.3079 85.4766 37.6573 86.714 40.7186C87.0446 41.5373 86.65 42.4706 85.8286 42.8013C85.01 43.1319 84.0766 42.7373 83.746 41.9159C83.0473 40.1879 80.8713 39.4039 79.218 39.2546C76.394 39.0013 73.578 39.9026 70.594 40.8573C70.1033 41.0146 69.6126 41.1719 69.1246 41.3239C67.3353 41.8759 65.5086 42.3639 63.7433 42.8359C60.89 43.5959 57.9406 44.3826 55.1833 45.4466C50.1486 47.3879 46.5006 50.0573 44.3433 53.3773C43.5993 54.5239 43.01 55.7773 42.3886 57.1053C41.842 58.2679 41.2766 59.4733 40.586 60.6279C38.6233 63.9079 35.794 66.5799 32.4073 68.3533C31.0313 69.0706 29.602 69.6173 28.2206 70.1479C26.9353 70.6386 25.722 71.1053 24.5673 71.6893C23.0606 72.4519 20.4393 74.1159 19.7966 76.6919C19.53 77.7586 19.7886 79.0546 20.4526 79.9933C20.7886 80.4679 21.3726 81.0519 22.234 81.1319C22.53 81.1613 22.89 81.1453 23.2713 81.1319C24.4153 81.0866 25.9806 81.0253 27.138 82.2253C27.162 82.2519 27.186 82.2759 27.21 82.3053C27.8713 83.0893 28.21 84.0813 28.1673 85.1053C28.1593 86.2973 27.8206 87.4199 27.5193 88.4119C27.1646 89.5826 26.8606 90.5906 27.1273 91.4119C27.394 92.2386 28.386 92.8813 29.4393 92.9053C30.5246 92.9239 31.6953 92.4199 32.7566 91.4679C32.8686 91.3666 32.9886 91.2546 33.1113 91.1399C34.1726 90.1479 35.6286 88.7879 37.6046 89.1799C39.6233 89.5746 40.3993 91.3986 40.9673 92.7319C41.1406 93.1346 41.3006 93.5159 41.4766 93.8253C41.7513 94.3133 42.1513 94.7213 42.634 95.0066C43.1166 95.2919 43.666 95.4493 44.226 95.4573C44.7886 95.4653 45.3406 95.3266 45.8313 95.0546C46.322 94.7826 46.7326 94.3853 47.0233 93.9053C47.4793 93.1479 48.4633 92.9053 49.2206 93.3613C49.978 93.8173 50.2206 94.8013 49.7646 95.5586C49.186 96.5159 48.3646 97.3079 47.386 97.8519C46.434 98.3773 45.3593 98.6546 44.274 98.6546Z" fill="black"/>
<path d="M93.8869 103.767C93.0709 103.767 92.3749 103.146 92.2949 102.317C92.2123 101.437 92.8576 100.655 93.7376 100.573C94.6656 100.485 95.2736 100.186 95.9776 99.8366C97.3829 99.1432 98.9723 98.3566 102.058 99.7565C102.77 99.9059 105.3 99.4392 105.876 99.1112C106.684 98.6126 107.095 97.5112 107.572 96.2392C108.01 95.0686 108.506 93.7406 109.452 92.6579C110.282 91.7112 111.335 91.0899 112.268 90.5459C113.231 89.9806 114.063 89.4926 114.487 88.7939C115.058 87.8499 114.895 86.5406 114.708 85.0232C114.586 84.0286 114.458 82.9992 114.524 81.9379C114.674 79.6152 115.73 77.5806 116.751 75.6126C117.914 73.3726 118.919 71.4366 118.394 69.5486C117.948 67.9406 116.492 66.8099 114.807 65.5032C113.719 64.6579 112.596 63.7859 111.658 62.6952C110.351 61.1752 109.572 59.4099 108.815 57.7032C108.503 56.9966 108.207 56.3272 107.876 55.6792C104.804 49.6339 98.1909 45.3912 91.4176 45.1166C90.5349 45.0819 89.8469 44.3352 89.8843 43.4526C89.9189 42.5699 90.6709 41.8846 91.5483 41.9192C99.5643 42.2419 107.095 47.0739 110.73 54.2286C111.098 54.9512 111.426 55.6926 111.743 56.4072C112.434 57.9699 113.087 59.4472 114.087 60.6099C114.812 61.4552 115.764 62.1939 116.77 62.9752C118.634 64.4232 120.746 66.0632 121.476 68.6899C122.34 71.7912 120.879 74.6046 119.591 77.0872C118.682 78.8392 117.823 80.4926 117.716 82.1432C117.668 82.9032 117.772 83.7406 117.882 84.6286C118.111 86.4712 118.37 88.5592 117.22 90.4526C116.375 91.8446 115.052 92.6206 113.884 93.3032C113.092 93.7672 112.346 94.2046 111.858 94.7646C111.295 95.4072 110.943 96.3539 110.567 97.3566C109.972 98.9512 109.298 100.759 107.548 101.839C106.394 102.549 102.367 103.423 100.772 102.687C99.0389 101.89 98.5243 102.146 97.3936 102.706C96.5749 103.111 95.5536 103.615 94.0389 103.759C93.9883 103.765 93.9376 103.767 93.8869 103.767ZM102.111 99.7806C102.111 99.7832 102.111 99.7832 102.111 99.7806C102.111 99.7832 102.111 99.7832 102.111 99.7806Z" fill="black"/>
<path d="M52.277 66.0221C52.2636 66.0221 52.2503 66.0221 52.2343 66.0221C51.3516 66.0007 50.653 65.2647 50.6743 64.3821C50.7383 61.8407 53.325 60.4194 55.7276 60.3741C56.2343 60.3634 56.7223 60.3927 57.1943 60.4194C58.197 60.4781 59.0636 60.5261 59.733 60.2114C60.413 59.8914 60.941 59.1474 61.549 58.2834C61.8076 57.9181 62.0716 57.5421 62.3703 57.1741C63.357 55.9501 64.573 54.9741 65.981 54.2701C67.389 53.5687 68.901 53.1847 70.4716 53.1314C72.045 53.0781 73.5783 53.3581 75.029 53.9634C76.4796 54.5687 77.7596 55.4621 78.8263 56.6167C79.4263 57.2647 79.3863 58.2781 78.7383 58.8781C78.0903 59.4781 77.077 59.4381 76.477 58.7901C75.7223 57.9741 74.821 57.3447 73.7943 56.9181C72.7703 56.4914 71.685 56.2914 70.5783 56.3314C69.469 56.3687 68.4023 56.6381 67.4076 57.1341C66.413 57.6301 65.557 58.3207 64.8583 59.1847C64.6263 59.4727 64.3996 59.7927 64.1623 60.1314C63.4023 61.2087 62.541 62.4274 61.0956 63.1074C59.693 63.7687 58.269 63.6861 57.013 63.6141C56.581 63.5901 56.173 63.5661 55.789 63.5741C54.789 63.5927 53.885 64.0861 53.877 64.4621C53.8556 65.3314 53.1436 66.0221 52.277 66.0221Z" fill="black"/>
<path d="M93.0272 79.6867C92.9952 79.6867 92.9606 79.6867 92.9286 79.684C90.3446 79.5267 86.7392 77.6574 85.0912 72.9027C84.2326 70.4254 84.0992 67.8707 83.9686 65.3987C83.9366 64.7667 83.9019 64.1161 83.8566 63.4841C83.7766 62.3961 83.6246 61.3161 83.0539 60.7667C82.4406 60.1774 81.2459 60.1134 79.9766 60.0947C79.0939 60.0814 78.3872 59.3561 78.4006 58.4707C78.4139 57.5881 79.1419 56.8814 80.0246 56.8947C81.4859 56.9161 83.6966 56.9481 85.2699 58.4574C86.6246 59.7587 86.9312 61.6094 87.0512 63.252C87.0992 63.9134 87.1339 64.5827 87.1686 65.2307C87.2912 67.5827 87.4086 69.8067 88.1179 71.8547C88.8806 74.0574 90.7259 76.3454 93.1232 76.492C94.0059 76.5454 94.6779 77.3027 94.6246 78.1854C94.5712 79.0334 93.8646 79.6867 93.0272 79.6867Z" fill="black"/>
<path d="M58.2475 74.6935C59.2785 74.6935 60.1142 73.6787 60.1142 72.4268C60.1142 71.175 59.2785 70.1602 58.2475 70.1602C57.2166 70.1602 56.3809 71.175 56.3809 72.4268C56.3809 73.6787 57.2166 74.6935 58.2475 74.6935Z" fill="black"/>
<path d="M67.3139 75.3185C68.3449 75.3185 69.1806 74.3037 69.1806 73.0518C69.1806 71.8 68.3449 70.7852 67.3139 70.7852C66.283 70.7852 65.4473 71.8 65.4473 73.0518C65.4473 74.3037 66.283 75.3185 67.3139 75.3185Z" fill="black"/>
<path d="M90.5564 104.639C89.7351 104.639 89.0337 104.01 88.9644 103.172C88.6257 99.1564 89.4071 97.3191 91.0657 93.8631C91.6737 92.6018 92.8231 92.3244 93.5111 92.1591C93.6604 92.1218 93.8017 92.0898 93.9244 92.0498C94.5591 91.8498 95.1857 91.6204 95.7911 91.3644C97.0151 90.8577 98.1644 90.2044 99.2204 89.4204C101.348 87.8124 102.831 85.6498 103.38 83.3351C103.663 82.1698 104.047 79.3378 101.548 78.0764C100.458 77.5244 99.3884 77.3084 96.4577 79.8844C95.7937 80.4684 94.7831 80.4018 94.1991 79.7378C93.6151 79.0738 93.6817 78.0631 94.3457 77.4791C98.5537 73.7804 100.986 74.2071 102.988 75.2178C106.092 76.7858 107.434 80.1804 106.49 84.0791C105.77 87.1084 103.868 89.9164 101.138 91.9778C99.863 92.9244 98.4817 93.7084 97.0257 94.3111C96.3351 94.6018 95.6124 94.8684 94.8844 95.0951C94.6631 95.1644 94.4497 95.2178 94.263 95.2631C94.1457 95.2924 93.9937 95.3271 93.895 95.3591C92.3617 98.5591 91.887 99.7617 92.1537 102.898C92.2284 103.778 91.575 104.551 90.695 104.626C90.647 104.636 90.6017 104.639 90.5564 104.639Z" fill="black"/>
<path d="M71.7705 106.998C70.9198 106.998 70.2132 106.329 70.1732 105.47C70.0878 103.593 70.0692 102.649 70.1225 101.361C66.9172 101.979 63.6532 101.411 61.1358 100.971C57.0692 100.254 53.9092 98.8061 51.4745 96.5421C46.9998 92.3741 44.9118 85.6168 45.7438 77.9981C46.0558 75.1741 47.2185 70.9714 48.8585 66.7554C49.1785 65.9314 50.1065 65.5234 50.9305 65.8434C51.7545 66.1634 52.1625 67.0914 51.8425 67.9154C50.0238 72.5928 49.1438 76.3714 48.9252 78.3474C48.2025 84.9474 49.9252 90.7261 53.6558 94.1981C55.6505 96.0541 58.2025 97.2034 61.6878 97.8168C65.2505 98.4381 68.4318 98.8568 71.2425 97.7074C71.7518 97.4994 72.3332 97.5688 72.7812 97.8888C73.2292 98.2114 73.4798 98.7394 73.4452 99.2888C73.2745 101.971 73.2452 102.563 73.3732 105.315C73.4132 106.198 72.7305 106.947 71.8478 106.987C71.8185 106.998 71.7945 106.998 71.7705 106.998Z" fill="black"/>
<path d="M90.499 100C90.739 102.693 91.8403 108.779 95.939 107.867L96.379 108.533C96.179 112.712 94.0617 115.659 90.7443 118.712C87.3737 121.765 83.075 123.6 78.539 123.923C74.539 124.216 70.2857 123.259 67.2937 120.576C64.3017 117.893 62.7283 114.176 64.7097 110.989H64.9977C65.899 111.016 66.7283 110.544 67.491 110.064C68.4617 109.451 70.4643 106.936 71.0643 106.213C71.8643 105.176 72.1897 101.243 72.6003 100H90.499V100Z" fill="#FFD39F"/>
<path d="M96.4148 106.398C101.132 107.662 104.791 111.297 107.737 115.02C110.951 119.084 113.471 123.649 115.199 128.532C116.167 131.26 117.697 134.329 118.329 137.15L119.172 139.732C123.737 159.393 124.553 179.673 124.852 199.892L125.119 200.196C126.761 206.206 132.895 221.406 134.228 227.806C134.271 228.353 134.18 228.902 133.961 229.406C131.295 232.606 126.761 231.806 123.255 232.894L110.863 235.361C93.1268 238.542 75.3268 239.321 57.5588 236.324L54.2068 235.932L42.7401 233.737C41.7054 233.54 40.5694 233.276 39.9641 232.404C39.4628 231.689 39.4654 230.748 39.5028 229.876C39.6548 226.409 40.0548 222.969 40.4548 219.526L42.2841 203.756H42.1454C39.4361 203.425 37.2601 203.097 34.5508 202.769C35.6734 190.382 37.1134 178.028 38.8708 165.702C40.3988 154.969 42.1774 144.233 45.3348 133.862C48.1401 124.646 52.5908 115.116 61.0414 110.494L72.7748 111.294L96.4148 106.398Z" fill="black"/>
<path fill-rule="evenodd" clip-rule="evenodd" d="M33.1583 226.472C34.2249 228.872 36.8116 230.496 39.4969 230.6L41.6916 208.824L33.6916 209.243C31.8249 209.939 30.2249 211.539 30.7583 213.672C33.8693 216.783 33.5442 221.183 33.252 225.136C33.2186 225.588 33.1856 226.035 33.1583 226.472ZM101.852 222.602C99.6919 219.754 103.017 216.813 105.585 215.984H122.647C122.721 216.423 122.8 216.878 122.881 217.345C123.536 221.103 124.325 225.634 123.583 229.216C122.815 232.93 120.3 236.373 116.257 236.64C112.289 236.896 109.863 234.098 108.617 230.677C108.491 230.332 108.375 229.909 108.252 229.458C107.89 228.136 107.461 226.569 106.508 226.002C106.223 225.833 105.934 225.668 105.644 225.503C104.25 224.706 102.843 223.903 101.852 222.602Z" fill="#FFD39F"/>
<path fill-rule="evenodd" clip-rule="evenodd" d="M75.3558 122.402L72.8012 111.314C77.9456 109.206 81.8399 107.245 85.7208 105.289L85.8465 105.226C88.8012 103.736 91.8518 102.218 95.1532 101.965C94.905 104.703 94.1547 107.345 93.4048 109.985L93.3825 110.064C92.8785 111.832 92.3452 113.642 91.1532 115.032C90.1452 116.208 88.7478 116.976 87.3558 117.656C83.497 119.542 79.4336 120.97 75.3805 122.394L75.3804 122.394L75.3558 122.402ZM68.9476 107.934L70.0543 103.982C70.3476 104.228 70.7263 103.188 70.2303 102.374L62.0303 108.988C61.8329 111.004 62.0649 113.038 62.7156 114.958C63.3663 116.878 64.4169 118.636 65.7983 120.118C68.2943 117.545 70.2863 114.524 71.6649 111.214C70.4383 110.956 68.9583 110.444 68.7769 109.201C68.7476 108.772 68.8036 108.34 68.9476 107.934ZM103.085 208.999C102.663 211.039 102.525 213.125 102.669 215.202C102.663 215.322 102.679 215.442 102.722 215.554C102.765 215.666 102.829 215.77 102.911 215.858C103.079 215.959 103.277 216.005 103.471 215.983L121.605 215.933C121.879 215.954 122.154 215.903 122.405 215.789C122.917 215.498 122.957 214.789 122.938 214.189L122.746 209.274L103.085 208.999ZM34.1855 209.148C34.3455 207.161 34.5189 205.121 35.3749 203.321L42.0255 203.942L41.1829 210.214C38.8122 210.198 36.4549 209.838 34.1855 209.148Z" fill="white"/>
<path fill-rule="evenodd" clip-rule="evenodd" d="M74.593 123.795C74.8277 123.923 75.097 123.99 75.3637 123.99C75.5477 123.99 75.7317 123.96 75.8997 123.902C79.9344 122.486 84.105 121.019 88.049 119.091C89.5877 118.342 91.1717 117.456 92.3584 116.072C93.8064 114.387 94.4197 112.232 94.913 110.499L94.937 110.419L94.9377 110.417C95.1819 109.557 95.4288 108.687 95.6601 107.807C95.7654 107.863 95.8786 107.908 95.9987 107.94C100.657 109.191 104.212 113.143 106.481 116.01C109.591 119.943 112.015 124.335 113.689 129.066C114.039 130.047 114.457 131.076 114.865 132.071C115.612 133.898 116.383 135.786 116.767 137.498C116.935 138.242 117.593 138.748 118.327 138.748C118.444 138.748 118.561 138.735 118.679 138.708C119.54 138.514 120.081 137.658 119.889 136.796C119.447 134.823 118.625 132.807 117.828 130.858L117.791 130.768C117.394 129.796 117.018 128.876 116.705 127.994C114.916 122.932 112.319 118.234 108.991 114.023C106.441 110.802 102.404 106.343 96.828 104.85C96.6696 104.807 96.5104 104.79 96.3546 104.796C96.5234 103.911 96.6574 103.015 96.7397 102.107C96.7824 101.64 96.617 101.176 96.2864 100.84C95.9557 100.504 95.4944 100.331 95.025 100.368C91.3578 100.648 88.0474 102.318 85.126 103.792L85.121 103.795L84.993 103.859L84.8776 103.917L84.8776 103.917C81.159 105.788 77.3075 107.726 72.3516 109.763C72.2388 109.71 72.1189 109.669 71.9941 109.642C70.7275 109.376 70.4181 109.05 70.3675 108.978C70.3675 108.824 70.3888 108.672 70.4341 108.525L72.0821 105.018C72.3755 104.394 72.2341 103.65 71.7328 103.176C71.2315 102.701 70.4821 102.602 69.8741 102.93L61.2688 107.57C60.8021 107.824 60.4875 108.293 60.4368 108.824C60.4299 108.894 60.4234 108.965 60.4175 109.035C60.3725 109.055 60.3281 109.076 60.2842 109.1C52.8682 113.156 47.6336 120.876 43.8069 133.399C40.5882 143.972 38.7722 155.066 37.2896 165.479C35.5349 177.764 34.0789 190.263 32.9589 202.628C32.9132 203.12 33.0962 203.582 33.4215 203.906C32.9864 205.243 32.8029 206.618 32.6816 207.921C29.9651 209.121 28.577 211.535 29.2068 214.054C29.2788 214.337 29.4228 214.593 29.6282 214.798C32.2202 217.393 31.9348 221.267 31.6575 225.014L31.652 225.087L31.652 225.087L31.6519 225.087L31.6519 225.087C31.6191 225.521 31.5867 225.95 31.5615 226.369C31.5455 226.63 31.5935 226.891 31.7028 227.131C32.3668 228.593 33.4255 229.835 34.7615 230.726C35.7659 231.398 36.894 231.846 38.0743 232.05C38.1898 232.491 38.3744 232.925 38.6633 233.337C39.666 234.761 41.3966 235.11 42.4473 235.321L51.5007 237.054C51.602 237.073 51.7033 237.083 51.802 237.083C52.554 237.083 53.2233 236.55 53.37 235.787C53.538 234.921 52.9673 234.081 52.1007 233.915L43.0606 232.185C42.4953 232.073 41.546 231.881 41.2793 231.502C41.0526 231.182 41.0873 230.387 41.106 229.963C41.2578 226.56 41.6595 223.096 42.0483 219.743L42.05 219.729L45.2046 192.529L45.282 191.862L45.2892 191.8C47.4736 173.099 49.7322 153.764 54.106 135.198C54.3086 134.337 53.7753 133.475 52.9166 133.273C52.0553 133.067 51.194 133.603 50.9913 134.462C46.5761 153.202 44.3069 172.624 42.1124 191.408L42.1033 191.486L40.8855 201.987C40.2731 201.908 39.6799 201.828 39.098 201.75L38.6282 201.687C37.8682 201.583 37.0949 201.479 36.2842 201.375C37.3802 189.57 38.7802 177.652 40.4549 165.93C41.9189 155.644 43.7109 144.698 46.8656 134.332C50.1952 123.434 54.5598 116.5 60.5262 112.674C60.6646 113.616 60.8891 114.547 61.1995 115.464C61.9275 117.613 63.0795 119.544 64.6261 121.202C64.9248 121.522 65.3435 121.706 65.7808 121.712H65.7968C66.2288 121.712 66.6448 121.536 66.9461 121.226C68.0154 120.124 68.9929 118.951 69.8746 117.713L66.833 165.632L66.8307 165.668C65.3695 188.693 63.86 212.478 66.4083 235.903C63.5179 235.608 60.6569 235.221 57.8202 234.743C56.9482 234.593 56.1242 235.183 55.9775 236.055C55.8309 236.924 56.4175 237.751 57.2895 237.897C60.7191 238.476 64.1816 238.924 67.6864 239.24C67.8557 239.301 68.0374 239.333 68.225 239.333C68.289 239.333 68.353 239.331 68.417 239.323C68.445 239.319 68.4727 239.315 68.5002 239.311C72.4495 239.643 76.4531 239.809 80.5242 239.809C90.1816 239.809 100.217 238.871 110.783 236.995C112.217 238.099 113.904 238.681 115.762 238.681C115.962 238.681 116.167 238.676 116.372 238.66C119.2 238.474 121.658 236.937 123.306 234.487C123.445 234.482 123.585 234.459 123.726 234.419C124.721 234.109 125.862 233.965 127.068 233.816C129.838 233.472 132.977 233.08 135.188 230.427C135.286 230.309 135.366 230.179 135.428 230.037C135.745 229.299 135.881 228.483 135.82 227.68C135.814 227.611 135.804 227.544 135.79 227.477C134.996 223.665 132.658 217.127 130.396 210.805L130.396 210.803C128.82 206.403 127.334 202.245 126.657 199.771C126.613 199.611 126.547 199.463 126.462 199.33C126.242 179.662 125.704 160.858 121.153 141.242C120.953 140.38 120.095 139.844 119.233 140.044C118.372 140.244 117.836 141.103 118.036 141.964C122.911 162.98 123.108 183.204 123.316 204.618C123.321 205.103 123.326 205.59 123.331 206.077L123.331 206.079L123.331 206.082C123.336 206.561 123.34 207.041 123.345 207.522L103.156 207.191C100.156 183.751 99.1214 159.908 100.079 136.3C100.116 135.418 99.4281 134.671 98.5454 134.636C97.6601 134.604 96.9161 135.287 96.8814 136.17C95.8974 160.418 97.0014 184.914 100.161 208.975C100.243 209.594 100.672 210.092 101.236 210.283C101.011 211.921 100.952 213.581 101.062 215.235C101.062 215.533 101.113 215.827 101.217 216.107C101.337 216.427 101.516 216.715 101.75 216.96C101.773 216.984 101.796 217.007 101.82 217.029C100.854 217.76 100.053 218.695 99.7004 219.82C99.3964 220.793 99.303 222.308 100.583 223.988C101.767 225.545 103.402 226.481 104.844 227.305C105.13 227.468 105.412 227.63 105.695 227.798C106.09 228.032 106.521 229.603 106.71 230.291L106.714 230.305C106.844 230.785 106.97 231.238 107.116 231.644C107.455 232.573 107.857 233.418 108.315 234.175C94.6324 236.47 81.8721 237.141 69.6611 236.194C67.0435 212.826 68.56 188.944 70.0277 165.835L72.9846 119.249L73.793 122.758C73.897 123.2 74.193 123.576 74.593 123.795ZM34.1138 210.792C33.5822 211.013 32.2119 211.704 32.2602 212.923C35.4936 216.517 35.1377 221.341 34.8498 225.244L34.8495 225.249C34.8417 225.359 34.8336 225.468 34.8255 225.576L34.8255 225.577C34.8113 225.766 34.7973 225.954 34.7855 226.142C35.2042 226.915 35.8068 227.574 36.5402 228.065C36.9827 228.36 37.4631 228.587 37.9664 228.74C38.1477 225.608 38.5093 222.484 38.8602 219.452L38.8713 219.355L39.7519 211.762C37.8434 211.646 35.9543 211.32 34.1138 210.792ZM40.1211 208.579L40.5166 205.168C39.7162 205.065 38.9503 204.961 38.2016 204.86L37.8253 204.81L37.8252 204.81L37.8251 204.81L37.8249 204.81L37.8247 204.81C37.4075 204.754 36.9845 204.697 36.5532 204.64C36.1797 205.668 36.0071 206.805 35.8926 207.954C37.2794 208.293 38.6953 208.503 40.1211 208.579ZM104.222 214.381C104.174 213.054 104.25 211.725 104.451 210.412L121.195 210.687L121.334 214.237C121.337 214.272 121.337 214.304 121.337 214.333V214.333L104.222 214.381ZM124.532 214.12L124.4 210.739L124.937 210.748H124.964C125.385 210.748 125.793 210.58 126.089 210.284C126.31 210.065 126.461 209.788 126.526 209.488C126.782 210.209 127.045 210.943 127.31 211.684L127.31 211.685L127.38 211.88L127.389 211.907L127.389 211.908C129.486 217.77 131.855 224.398 132.63 228.013C132.636 228.2 132.612 228.389 132.558 228.568C131.156 230.08 129.068 230.341 126.668 230.64C126.097 230.711 125.518 230.783 124.94 230.876C125.022 230.579 125.095 230.276 125.159 229.966C125.966 226.059 125.294 222.189 124.644 218.447L124.642 218.433C124.57 218.022 124.5 217.614 124.431 217.206C124.378 216.889 124.234 216.609 124.031 216.388C124.576 215.558 124.545 214.535 124.532 214.12ZM106.766 217.567L121.255 217.526C121.257 217.596 121.264 217.666 121.276 217.737C121.336 218.09 121.397 218.443 121.458 218.798L121.459 218.801L121.49 218.98L121.492 218.991C122.091 222.441 122.71 226.005 122.026 229.316C121.132 233.622 118.412 235.316 116.159 235.465C112.73 235.686 110.986 232.916 110.122 230.545C110.02 230.262 109.911 229.87 109.799 229.457L109.797 229.449C109.368 227.885 108.834 225.938 107.33 225.046C107.105 224.913 106.878 224.783 106.649 224.652L106.431 224.526L106.429 224.525C105.139 223.787 103.919 223.089 103.127 222.049C102.58 221.332 102.706 220.929 102.754 220.777C103.004 219.974 104.263 219.044 105.746 218.564C106.244 218.405 106.608 218.025 106.766 217.567ZM76.5104 120.294L74.6624 112.267C79.257 110.331 82.9024 108.496 86.4277 106.718L86.5584 106.651C88.729 105.555 90.9584 104.432 93.2704 103.878C92.9393 105.737 92.4162 107.58 91.8709 109.502L91.8709 109.502L91.8597 109.542L91.8384 109.622C91.3904 111.2 90.9237 112.832 89.9344 113.987C89.0864 114.974 87.793 115.654 86.649 116.214C83.409 117.798 79.9397 119.08 76.5104 120.294ZM63.5675 109.97C63.5168 111.49 63.7408 112.989 64.2315 114.44C64.6235 115.597 65.1701 116.674 65.8635 117.661C67.2875 115.984 68.4928 114.149 69.4661 112.178C68.1328 111.56 67.3701 110.637 67.1915 109.426L67.1898 109.414L67.1898 109.413C67.185 109.378 67.1805 109.345 67.1781 109.309C67.1461 108.856 67.1781 108.408 67.2715 107.968L63.5675 109.97Z" fill="black"/>
</svg>
