<svg width="160" height="260" viewBox="0 0 160 260" fill="none" xmlns="http://www.w3.org/2000/svg">
<path d="M48.3944 94.7166C47.9598 95.4366 47.3438 96.0313 46.6104 96.4393C45.8744 96.8473 45.0451 97.0553 44.2051 97.0446C43.3651 97.0313 42.5411 96.7993 41.8184 96.3699C41.0958 95.9406 40.4984 95.3299 40.0824 94.5966C39.2691 93.1539 38.9171 91.0526 37.2931 90.7353C35.9438 90.4686 34.8424 91.7193 33.8264 92.6446C32.6131 93.7406 31.0398 94.5299 29.4051 94.4899C27.7704 94.4499 26.1091 93.4473 25.6078 91.8899C24.8904 89.6686 26.5838 87.3806 26.5704 85.0499C26.6024 84.4206 26.3944 83.8046 25.9891 83.3219C25.0478 82.3459 23.4371 82.8393 22.0878 82.7113C19.2664 82.4446 17.5544 79.0366 18.2478 76.2899C18.9411 73.5433 21.3224 71.5273 23.8478 70.2473C26.3731 68.9673 29.1544 68.2339 31.6691 66.9219C34.7864 65.2873 37.3918 62.8233 39.1998 59.8019C40.6078 57.4473 41.4958 54.8019 42.9891 52.5006C45.6558 48.4046 50.0371 45.7113 54.5944 43.9486C59.1518 42.1859 63.9731 41.2339 68.6398 39.7913C72.1438 38.7086 75.6984 37.3326 79.3491 37.6579C81.7678 37.8739 84.3144 39.0633 85.2158 41.3139L91.4691 43.5139C98.8611 43.8126 105.936 48.3513 109.288 54.9486C110.44 57.2099 111.202 59.7219 112.856 61.6473C115.122 64.2873 118.989 65.7699 119.917 69.1139C121.146 73.5273 116.397 77.466 116.104 82.0366C115.938 84.6046 117.17 87.4206 115.837 89.6206C114.682 91.5193 112.104 92.0339 110.64 93.7086C108.893 95.7033 108.952 99.0819 106.696 100.474C105.808 101.021 102.373 101.666 101.429 101.231C97.5571 99.4526 97.1491 101.853 93.8744 102.162" fill="black"/>
<path d="M90.5699 104.644C90.2659 100.993 90.9432 97.8628 92.5325 94.5614C92.8925 93.8148 93.6659 93.8228 94.4312 93.5801C95.1112 93.3668 95.7779 93.1215 96.4365 92.8441C97.7725 92.2895 99.0339 91.5721 100.197 90.7108C102.495 88.9748 104.287 86.5374 104.959 83.7108C105.57 81.1481 105.141 78.0974 102.293 76.6548C100.285 75.6414 98.4845 76.0014 95.4259 78.6894L93.0499 78.0894C90.0152 77.9054 87.6232 75.2494 86.6285 72.3801C85.6339 69.5108 85.6979 66.3988 85.4765 63.3694C85.3779 62.0174 85.1645 60.5534 84.1859 59.6148C83.1192 58.5961 81.4952 58.5188 80.0232 58.4974L77.6765 57.6974C76.7725 56.7188 75.6659 55.9481 74.4365 55.4334C73.2072 54.9214 71.8819 54.6788 70.5485 54.7241C69.2179 54.7694 67.9112 55.1001 66.7192 55.6948C65.5272 56.2894 64.4765 57.1348 63.6392 58.1721C62.6392 59.4121 61.8845 60.9721 60.4392 61.6521C58.9939 62.3321 57.3539 61.9374 55.7832 61.9668C54.2125 61.9961 52.3405 62.8468 52.3005 64.4148L50.3645 67.3481C48.6445 71.7721 47.6099 75.7668 47.3485 78.1854C46.6899 84.2761 47.9192 91.0441 52.5779 95.3828C55.0605 97.6921 58.1352 98.8281 61.4232 99.4068C64.8525 100.012 68.5325 100.564 71.8605 99.2041C71.6845 101.98 71.6579 103.961 71.7859 106.74" fill="#FFD39F"/>
<path d="M44.274 98.6546C44.242 98.6546 44.2126 98.6546 44.1806 98.6546C43.0633 98.6386 41.962 98.3293 40.9993 97.7559C40.0366 97.1853 39.2393 96.3693 38.6873 95.3959C38.426 94.9319 38.2206 94.4493 38.0206 93.9853C37.7006 93.2359 37.3406 92.3879 36.9833 92.3186C36.61 92.2439 35.818 92.9879 35.2926 93.4786C35.1593 93.6039 35.0286 93.7266 34.898 93.8439C33.2233 95.3453 31.2633 96.1453 29.3646 96.1026C26.938 96.0466 24.7673 94.5213 24.082 92.3933C23.5086 90.6226 24.0126 88.9559 24.458 87.4839C24.7193 86.6146 24.9673 85.7959 24.9673 85.0626C24.9673 85.0359 24.9673 85.0066 24.97 84.9799C24.9806 84.7799 24.922 84.5853 24.8073 84.4226C24.5993 84.2786 23.9086 84.3079 23.3993 84.3266C22.93 84.3453 22.4446 84.3639 21.9353 84.3159C20.322 84.1639 18.8686 83.2866 17.8446 81.8413C16.6446 80.1479 16.2046 77.8786 16.6953 75.9159C17.3993 73.0919 19.682 70.5746 23.1246 68.8333C24.426 68.1746 25.7753 67.6573 27.0793 67.1586C28.4366 66.6386 29.7166 66.1479 30.9273 65.5159C33.7886 64.0173 36.1806 61.7586 37.842 58.9853C38.45 57.9693 38.9566 56.8893 39.4926 55.7453C40.1353 54.3799 40.7966 52.9666 41.6606 51.6333C44.194 47.7346 48.3566 44.6493 54.0313 42.4599C56.9513 41.3346 59.986 40.5266 62.9193 39.7426C64.6553 39.2786 66.45 38.8013 68.1806 38.2653C68.6606 38.1159 69.1406 37.9639 69.6206 37.8093C72.7753 36.7986 76.0366 35.7559 79.506 36.0679C82.178 36.3079 85.4766 37.6573 86.714 40.7186C87.0446 41.5373 86.65 42.4706 85.8286 42.8013C85.01 43.1319 84.0766 42.7373 83.746 41.9159C83.0473 40.1879 80.8713 39.4039 79.218 39.2546C76.394 39.0013 73.578 39.9026 70.594 40.8573C70.1033 41.0146 69.6126 41.1719 69.1246 41.3239C67.3353 41.8759 65.5086 42.3639 63.7433 42.8359C60.89 43.5959 57.9406 44.3826 55.1833 45.4466C50.1486 47.3879 46.5006 50.0573 44.3433 53.3773C43.5993 54.5239 43.01 55.7773 42.3886 57.1053C41.842 58.2679 41.2766 59.4733 40.586 60.6279C38.6233 63.9079 35.794 66.5799 32.4073 68.3533C31.0313 69.0706 29.602 69.6173 28.2206 70.1479C26.9353 70.6386 25.722 71.1053 24.5673 71.6893C23.0606 72.4519 20.4393 74.1159 19.7966 76.6919C19.53 77.7586 19.7886 79.0546 20.4526 79.9933C20.7886 80.4679 21.3726 81.0519 22.234 81.1319C22.53 81.1613 22.89 81.1453 23.2713 81.1319C24.4153 81.0866 25.9806 81.0253 27.138 82.2253C27.162 82.2519 27.186 82.2759 27.21 82.3053C27.8713 83.0893 28.21 84.0813 28.1673 85.1053C28.1593 86.2973 27.8206 87.4199 27.5193 88.4119C27.1646 89.5826 26.8606 90.5906 27.1273 91.4119C27.394 92.2386 28.386 92.8813 29.4393 92.9053C30.5246 92.9239 31.6953 92.4199 32.7566 91.4679C32.8686 91.3666 32.9886 91.2546 33.1113 91.1399C34.1726 90.1479 35.6286 88.7879 37.6046 89.1799C39.6233 89.5746 40.3993 91.3986 40.9673 92.7319C41.1406 93.1346 41.3006 93.5159 41.4766 93.8253C41.7513 94.3133 42.1513 94.7213 42.634 95.0066C43.1166 95.2919 43.666 95.4493 44.226 95.4573C44.7886 95.4653 45.3406 95.3266 45.8313 95.0546C46.322 94.7826 46.7326 94.3853 47.0233 93.9053C47.4793 93.1479 48.4633 92.9053 49.2206 93.3613C49.978 93.8173 50.2206 94.8013 49.7646 95.5586C49.186 96.5159 48.3646 97.3079 47.386 97.8519C46.434 98.3773 45.3593 98.6546 44.274 98.6546Z" fill="black"/>
<path d="M93.8869 103.767C93.0709 103.767 92.3749 103.146 92.2949 102.317C92.2123 101.437 92.8576 100.655 93.7376 100.573C94.6656 100.485 95.2736 100.186 95.9776 99.8366C97.3829 99.1432 98.9723 98.3566 102.058 99.7565C102.77 99.9059 105.3 99.4392 105.876 99.1112C106.684 98.6126 107.095 97.5112 107.572 96.2392C108.01 95.0686 108.506 93.7406 109.452 92.6579C110.282 91.7112 111.335 91.0899 112.268 90.5459C113.231 89.9806 114.063 89.4926 114.487 88.7939C115.058 87.8499 114.895 86.5406 114.708 85.0232C114.586 84.0286 114.458 82.9992 114.524 81.9379C114.674 79.6152 115.73 77.5806 116.751 75.6126C117.914 73.3726 118.919 71.4366 118.394 69.5486C117.948 67.9406 116.492 66.8099 114.807 65.5032C113.719 64.6579 112.596 63.7859 111.658 62.6952C110.351 61.1752 109.572 59.4099 108.815 57.7032C108.503 56.9966 108.207 56.3272 107.876 55.6792C104.804 49.6339 98.1909 45.3912 91.4176 45.1166C90.5349 45.0819 89.8469 44.3352 89.8843 43.4526C89.9189 42.5699 90.6709 41.8846 91.5483 41.9192C99.5643 42.2419 107.095 47.0739 110.73 54.2286C111.098 54.9512 111.426 55.6926 111.743 56.4072C112.434 57.9699 113.087 59.4472 114.087 60.6099C114.812 61.4552 115.764 62.1939 116.77 62.9752C118.634 64.4232 120.746 66.0632 121.476 68.6899C122.34 71.7912 120.879 74.6046 119.591 77.0872C118.682 78.8392 117.823 80.4926 117.716 82.1432C117.668 82.9032 117.772 83.7406 117.882 84.6286C118.111 86.4712 118.37 88.5592 117.22 90.4526C116.375 91.8446 115.052 92.6206 113.884 93.3032C113.092 93.7672 112.346 94.2046 111.858 94.7646C111.295 95.4072 110.943 96.3539 110.567 97.3566C109.972 98.9512 109.298 100.759 107.548 101.839C106.394 102.549 102.367 103.423 100.772 102.687C99.0389 101.89 98.5243 102.146 97.3936 102.706C96.5749 103.111 95.5536 103.615 94.0389 103.759C93.9883 103.765 93.9376 103.767 93.8869 103.767ZM102.111 99.7806C102.111 99.7832 102.111 99.7832 102.111 99.7806C102.111 99.7832 102.111 99.7832 102.111 99.7806Z" fill="black"/>
<path d="M52.277 66.0221C52.2636 66.0221 52.2503 66.0221 52.2343 66.0221C51.3516 66.0007 50.653 65.2647 50.6743 64.3821C50.7383 61.8407 53.325 60.4194 55.7276 60.3741C56.2343 60.3634 56.7223 60.3927 57.1943 60.4194C58.197 60.4781 59.0636 60.5261 59.733 60.2114C60.413 59.8914 60.941 59.1474 61.549 58.2834C61.8076 57.9181 62.0716 57.5421 62.3703 57.1741C63.357 55.9501 64.573 54.9741 65.981 54.2701C67.389 53.5687 68.901 53.1847 70.4716 53.1314C72.045 53.0781 73.5783 53.3581 75.029 53.9634C76.4796 54.5687 77.7596 55.4621 78.8263 56.6167C79.4263 57.2647 79.3863 58.2781 78.7383 58.8781C78.0903 59.4781 77.077 59.4381 76.477 58.7901C75.7223 57.9741 74.821 57.3447 73.7943 56.9181C72.7703 56.4914 71.685 56.2914 70.5783 56.3314C69.469 56.3687 68.4023 56.6381 67.4076 57.1341C66.413 57.6301 65.557 58.3207 64.8583 59.1847C64.6263 59.4727 64.3996 59.7927 64.1623 60.1314C63.4023 61.2087 62.541 62.4274 61.0956 63.1074C59.693 63.7687 58.269 63.6861 57.013 63.6141C56.581 63.5901 56.173 63.5661 55.789 63.5741C54.789 63.5927 53.885 64.0861 53.877 64.4621C53.8556 65.3314 53.1436 66.0221 52.277 66.0221Z" fill="black"/>
<path d="M93.0272 79.6867C92.9952 79.6867 92.9606 79.6867 92.9286 79.684C90.3446 79.5267 86.7392 77.6574 85.0912 72.9027C84.2326 70.4254 84.0992 67.8707 83.9686 65.3987C83.9366 64.7667 83.9019 64.1161 83.8566 63.4841C83.7766 62.3961 83.6246 61.3161 83.0539 60.7667C82.4406 60.1774 81.2459 60.1134 79.9766 60.0947C79.0939 60.0814 78.3872 59.3561 78.4006 58.4707C78.4139 57.5881 79.1419 56.8814 80.0246 56.8947C81.4859 56.9161 83.6966 56.9481 85.2699 58.4574C86.6246 59.7587 86.9312 61.6094 87.0512 63.252C87.0992 63.9134 87.1339 64.5827 87.1686 65.2307C87.2912 67.5827 87.4086 69.8067 88.1179 71.8547C88.8806 74.0574 90.7259 76.3454 93.1232 76.492C94.0059 76.5454 94.6779 77.3027 94.6246 78.1854C94.5712 79.0334 93.8646 79.6867 93.0272 79.6867Z" fill="black"/>
<path d="M58.2475 74.6935C59.2785 74.6935 60.1142 73.6787 60.1142 72.4268C60.1142 71.175 59.2785 70.1602 58.2475 70.1602C57.2166 70.1602 56.3809 71.175 56.3809 72.4268C56.3809 73.6787 57.2166 74.6935 58.2475 74.6935Z" fill="black"/>
<path d="M67.3139 75.3185C68.3449 75.3185 69.1806 74.3037 69.1806 73.0518C69.1806 71.8 68.3449 70.7852 67.3139 70.7852C66.283 70.7852 65.4473 71.8 65.4473 73.0518C65.4473 74.3037 66.283 75.3185 67.3139 75.3185Z" fill="black"/>
<path d="M90.5564 104.639C89.7351 104.639 89.0337 104.01 88.9644 103.172C88.6257 99.1564 89.4071 97.3191 91.0657 93.8631C91.6737 92.6018 92.8231 92.3244 93.5111 92.1591C93.6604 92.1218 93.8017 92.0898 93.9244 92.0498C94.5591 91.8498 95.1857 91.6204 95.7911 91.3644C97.0151 90.8577 98.1644 90.2044 99.2204 89.4204C101.348 87.8124 102.831 85.6498 103.38 83.3351C103.663 82.1698 104.047 79.3378 101.548 78.0764C100.458 77.5244 99.3884 77.3084 96.4577 79.8844C95.7937 80.4684 94.7831 80.4018 94.1991 79.7378C93.6151 79.0738 93.6817 78.0631 94.3457 77.4791C98.5537 73.7804 100.986 74.2071 102.988 75.2178C106.092 76.7858 107.434 80.1804 106.49 84.0791C105.77 87.1084 103.868 89.9164 101.138 91.9778C99.863 92.9244 98.4817 93.7084 97.0257 94.3111C96.3351 94.6018 95.6124 94.8684 94.8844 95.0951C94.6631 95.1644 94.4497 95.2178 94.263 95.2631C94.1457 95.2924 93.9937 95.3271 93.895 95.3591C92.3617 98.5591 91.887 99.7617 92.1537 102.898C92.2284 103.778 91.575 104.551 90.695 104.626C90.647 104.636 90.6017 104.639 90.5564 104.639Z" fill="black"/>
<path d="M71.7705 106.998C70.9198 106.998 70.2132 106.329 70.1732 105.47C70.0878 103.593 70.0692 102.649 70.1225 101.361C66.9172 101.979 63.6532 101.411 61.1358 100.971C57.0692 100.254 53.9092 98.8061 51.4745 96.5421C46.9998 92.3741 44.9118 85.6168 45.7438 77.9981C46.0558 75.1741 47.2185 70.9714 48.8585 66.7554C49.1785 65.9314 50.1065 65.5234 50.9305 65.8434C51.7545 66.1634 52.1625 67.0914 51.8425 67.9154C50.0238 72.5928 49.1438 76.3714 48.9252 78.3474C48.2025 84.9474 49.9252 90.7261 53.6558 94.1981C55.6505 96.0541 58.2025 97.2034 61.6878 97.8168C65.2505 98.4381 68.4318 98.8568 71.2425 97.7074C71.7518 97.4994 72.3332 97.5688 72.7812 97.8888C73.2292 98.2114 73.4798 98.7394 73.4452 99.2888C73.2745 101.971 73.2452 102.563 73.3732 105.315C73.4132 106.198 72.7305 106.947 71.8478 106.987C71.8185 106.998 71.7945 106.998 71.7705 106.998Z" fill="black"/>
<path fill-rule="evenodd" clip-rule="evenodd" d="M90.4994 100C90.7394 102.693 91.8407 108.779 95.9394 107.867L96.3794 108.533C96.1794 112.712 94.0621 115.659 90.7447 118.712C87.3741 121.765 83.0754 123.6 78.5394 123.923C74.5394 124.216 70.2861 123.259 67.2941 120.576C64.3021 117.893 62.7287 114.176 64.7101 110.989H64.9981C65.8994 111.016 66.7287 110.544 67.4914 110.064C68.3531 109.52 70.0282 107.476 70.8131 106.519C70.9124 106.398 70.9974 106.294 71.0647 106.213C71.5765 105.55 71.894 103.701 72.1639 102.13C72.3159 101.245 72.4528 100.448 72.6007 100H90.4994ZM113.892 132.844C113.31 133.782 112.681 134.689 112.009 135.564C109.708 138.534 106.708 141.086 103.121 142.23L102.604 143.052C102.316 167.34 103.513 191.646 105.886 216.652C104.964 216.729 104.089 217.092 103.38 217.689C102.67 218.286 102.164 219.086 101.929 219.982C101.694 220.878 101.74 221.825 102.065 222.692C102.388 223.558 102.972 224.305 103.737 224.828C104.174 225.124 104.657 225.339 105.14 225.555L105.14 225.555L105.14 225.555C105.572 225.747 106.004 225.94 106.404 226.19C108.288 227.365 109.15 229.542 110.005 231.703C110.915 234 111.817 236.28 113.934 237.321C116.966 238.812 120.766 236.537 122.14 233.446C123.513 230.356 123.137 226.812 122.729 223.457C120.988 209.185 116.836 167.38 116.11 158.63L114.07 134.025L113.892 132.844ZM46.3761 135.42C46.4731 134.802 46.57 134.185 46.667 133.566L46.8244 133.044C48.5364 134.604 49.8537 136.545 50.667 138.713L47.651 196.462L46.3177 212.804L46.3113 212.882C46.0841 215.643 45.8563 218.411 45.2884 221.118C44.7844 223.337 44.1657 225.529 43.4377 227.684C42.9204 229.316 42.275 231.102 40.771 231.924C38.6137 233.097 35.7977 231.505 34.7444 229.286C33.7221 227.133 33.8753 224.639 34.0217 222.253C34.0262 222.181 34.0306 222.108 34.035 222.036C34.115 220.724 34.1524 219.324 33.4777 218.198C33.3281 217.954 33.1478 217.726 32.9672 217.498C32.8289 217.324 32.6906 217.149 32.5657 216.966C32.0804 216.246 31.811 215.404 31.7924 214.534C31.771 213.668 32.003 212.812 32.4537 212.07C32.9044 211.329 33.5604 210.732 34.3417 210.353C35.123 209.974 35.9977 209.825 36.859 209.929C38.7294 184.139 42.5133 160.031 46.3761 135.42Z" fill="#FFD39F"/>
<path fill-rule="evenodd" clip-rule="evenodd" d="M43.6579 130.845C46.8873 132.509 49.3859 135.312 50.6659 138.712L51.0979 140.269C49.2553 156.69 46.4233 172.986 42.6179 189.069C40.8126 191.178 41.8099 194.978 44.4179 195.93C46.085 196.54 47.8578 196.076 49.619 195.614C50.182 195.467 50.7438 195.319 51.3006 195.208C54.7808 194.516 58.3064 195.238 61.8358 195.961C65.2593 196.663 68.6864 197.365 72.0793 196.778C73.1002 196.601 74.0967 196.31 75.093 196.018C76.2019 195.693 77.3106 195.368 78.4526 195.202C81.9706 194.694 85.4475 195.713 88.8957 196.724C89.7524 196.976 90.6073 197.226 91.4606 197.453C95.7486 198.592 100.778 198.984 104.186 196.144L104.199 195.994C102.975 178.17 102.407 160.613 102.615 143.064L103.133 142.242C106.719 141.098 109.719 138.549 112.021 135.576C114.322 132.602 115.997 129.205 117.655 125.832C114.21 124.466 111.626 121.568 109.463 118.549C108.936 117.812 108.423 117.062 107.911 116.313C106.324 113.99 104.738 111.668 102.698 109.749C99.9993 107.21 96.2499 105.429 92.6206 106.176C92.0686 109.082 89.7379 110.949 87.3379 112.213C82.8259 114.568 77.6873 115.448 72.6473 114.73C71.4499 114.554 70.2419 114.28 69.2099 113.645C68.1779 113.01 67.3459 111.96 67.2339 110.754C67.0633 109.029 68.3353 107.536 69.1006 106.696C61.1059 109.6 54.3539 115.17 49.9833 122.469C49.654 123.023 49.3344 123.591 49.0138 124.161C47.5741 126.721 46.1137 129.318 43.6579 130.845ZM123.599 190.231C123.599 190.231 121.06 183.743 117.887 177.191L119.53 192.698C120.33 194.149 122.842 194.09 123.57 192.599C123.847 191.837 123.858 191.002 123.599 190.231Z" fill="black"/>
<path fill-rule="evenodd" clip-rule="evenodd" d="M102.647 140.718C102.119 140.888 101.739 141.306 101.596 141.803C101.242 142.092 101.014 142.53 101.008 143.023C100.808 159.911 101.312 177.182 102.546 195.355C100.124 196.964 96.5319 197.149 91.8482 195.906C91.0853 195.703 90.2978 195.473 89.5308 195.249L89.5305 195.249L89.5299 195.249L89.5298 195.249L89.3229 195.188C85.7549 194.14 82.0642 193.058 78.2002 193.618C76.9442 193.799 75.7629 194.146 74.6189 194.482C73.6402 194.77 72.7149 195.042 71.7842 195.202C68.6947 195.735 65.5146 195.082 62.1506 194.392L62.1469 194.391C58.5175 193.644 54.7655 192.874 50.9655 193.636C50.3644 193.755 49.7712 193.91 49.196 194.06L49.1762 194.066L49.1661 194.068C47.6045 194.475 46.131 194.859 44.9442 194.426C44.2135 194.156 43.6322 193.444 43.3895 192.519C43.1495 191.596 43.3069 190.695 43.8109 190.106C43.9762 189.911 44.0935 189.682 44.1522 189.434C48.4589 171.258 51.5442 152.612 53.3255 134.018C53.4109 133.14 52.7655 132.359 51.8855 132.274C51.0082 132.191 50.2269 132.834 50.1415 133.714C50.123 133.907 50.1043 134.101 50.0855 134.295C49.0721 132.905 47.8422 131.682 46.4368 130.673C48.1126 129.032 49.2747 126.965 50.4071 124.95L50.4071 124.95L50.4072 124.95L50.4101 124.945C50.7328 124.366 51.0394 123.822 51.3568 123.289C54.6234 117.833 59.5061 113.449 65.6181 110.444C65.6181 110.59 65.6261 110.742 65.6421 110.9C65.7914 112.513 66.8128 114.046 68.3728 115.006C69.7194 115.836 71.2421 116.14 72.4234 116.313C77.8261 117.084 83.2394 116.156 88.0848 113.628C91.1168 112.033 93.0634 110.014 93.8901 107.62C96.3914 107.47 99.2074 108.66 101.605 110.916C103.517 112.716 105.01 114.9 106.591 117.214L106.713 117.391L106.713 117.392C107.184 118.08 107.669 118.789 108.165 119.481C109.903 121.91 112.258 124.804 115.503 126.582C114.119 129.364 112.642 132.161 110.757 134.596C109.098 136.737 106.346 139.54 102.647 140.718ZM97.3469 199.916C99.3968 199.916 101.215 199.564 102.792 198.861C103.185 204.286 103.643 209.793 104.165 215.396C103.507 215.636 102.891 215.991 102.344 216.45C101.373 217.266 100.691 218.343 100.368 219.567C100.045 220.791 100.109 222.066 100.555 223.252C101 224.439 101.789 225.442 102.837 226.154C103.377 226.521 103.948 226.777 104.452 227.003L104.485 227.018L104.508 227.028C104.892 227.2 105.254 227.363 105.555 227.551C106.989 228.445 107.728 230.309 108.51 232.284L108.515 232.295L108.517 232.3C109.473 234.715 110.556 237.448 113.227 238.762C114.077 239.18 115.013 239.391 115.979 239.391C116.784 239.391 117.611 239.242 118.437 238.943C120.656 238.138 122.637 236.282 123.608 234.095C125.202 230.504 124.715 226.491 124.323 223.265L124.323 223.265L124.323 223.263C123.598 217.326 122.447 206.536 121.3 195.349C121.369 195.352 121.439 195.354 121.509 195.354H121.618C123.109 195.317 124.407 194.53 125.007 193.303C125.031 193.253 125.055 193.202 125.074 193.149C125.474 192.05 125.487 190.834 125.117 189.725C125.113 189.712 125.109 189.699 125.105 189.687C125.1 189.675 125.096 189.662 125.09 189.65L125.084 189.634C124.942 189.275 122.468 183.009 119.426 176.7C118.614 168.442 117.965 161.585 117.709 158.498L115.669 133.892C115.652 133.683 115.595 133.488 115.506 133.311C116.84 131.12 117.966 128.832 119.068 126.593L119.068 126.593L119.068 126.593L119.093 126.542C119.29 126.14 119.309 125.676 119.149 125.26C118.986 124.844 118.661 124.513 118.245 124.348C114.951 123.041 112.517 120.065 110.765 117.62C110.247 116.897 109.73 116.142 109.231 115.412C107.623 113.057 105.959 110.622 103.794 108.585C100.33 105.326 96.0341 103.841 92.2981 104.609C91.6608 104.74 91.1674 105.241 91.0474 105.878C90.6821 107.801 89.2234 109.412 86.5968 110.796C82.3541 113.006 77.6074 113.822 72.8794 113.148C71.9541 113.012 70.8928 112.801 70.0474 112.281C69.3514 111.852 68.8821 111.209 68.8261 110.596C68.7648 109.956 69.1194 109.518 69.8874 108.74C70.0394 108.585 70.1861 108.436 70.3194 108.289C70.8154 107.745 70.8741 106.932 70.4661 106.321C70.0581 105.71 69.2848 105.457 68.5914 105.708C59.8661 108.878 52.9568 114.388 48.6101 121.649C48.2714 122.22 47.9408 122.806 47.6208 123.374C46.2341 125.844 44.9221 128.174 42.8154 129.484C42.3248 129.788 42.0368 130.332 42.0608 130.908C42.0848 131.484 42.4154 132.001 42.9274 132.265C43.6784 132.652 44.3842 133.107 45.0376 133.622L44.7944 135.174C40.9278 159.793 37.2744 183.073 35.3678 208.372C34.7704 208.468 34.1891 208.649 33.6398 208.916C32.5811 209.43 31.6984 210.233 31.0851 211.238C30.4718 212.244 30.1624 213.398 30.1891 214.574C30.2158 215.753 30.5784 216.889 31.2424 217.873C31.3998 218.1 31.5651 218.31 31.7118 218.494L31.7195 218.504C31.8713 218.695 32.0146 218.876 32.1038 219.022C32.5331 219.737 32.5064 220.809 32.4371 221.94L32.4238 222.156L32.4233 222.163C32.2714 224.644 32.0995 227.451 33.2984 229.974C34.0984 231.662 35.6851 233.065 37.4371 233.636C38.0184 233.825 38.6051 233.918 39.1784 233.918C40.0104 233.918 40.8158 233.721 41.5384 233.326C43.6958 232.148 44.4878 229.67 44.9598 228.18C45.7011 225.988 46.3358 223.732 46.8504 221.473C46.8531 221.465 46.8531 221.454 46.8558 221.446C47.4424 218.641 47.6798 215.78 47.9064 213.012L49.1817 197.371C49.4546 197.303 49.7232 197.233 49.9869 197.164C50.5469 197.018 51.0749 196.882 51.5949 196.778C54.7602 196.143 58.0349 196.815 61.5042 197.527C65.0135 198.25 68.6429 198.994 72.3309 198.356C73.4207 198.168 74.4617 197.863 75.4664 197.569L75.5202 197.554L75.5609 197.542C76.6312 197.229 77.6424 196.933 78.6589 196.786C81.8295 196.327 85.0322 197.266 88.4215 198.26L88.5586 198.3C89.3668 198.536 90.2016 198.779 91.0269 198.999C93.3282 199.61 95.4375 199.916 97.3469 199.916ZM45.9347 197.817C45.2462 197.799 44.5487 197.688 43.8509 197.434C42.1309 196.804 40.8029 195.271 40.2962 193.332C40.1723 192.858 40.1031 192.381 40.0866 191.91C39.4524 197.868 38.9013 203.897 38.4558 210.046C38.4238 210.484 38.2158 210.886 37.8771 211.164C37.5411 211.441 37.1038 211.572 36.6691 211.518C36.1091 211.452 35.5464 211.548 35.0398 211.793C34.5331 212.038 34.1091 212.422 33.8184 212.905C33.5251 213.385 33.3784 213.937 33.3891 214.5C33.4024 215.062 33.5758 215.606 33.8904 216.073C33.9784 216.201 34.0958 216.35 34.2184 216.505L34.2508 216.546C34.44 216.786 34.6506 217.054 34.8398 217.364C35.7438 218.873 35.7251 220.548 35.6291 222.132L35.6158 222.35C35.4798 224.548 35.3411 226.82 36.1864 228.598C36.6184 229.505 37.4958 230.289 38.4264 230.59C38.8371 230.724 39.4451 230.82 40.0051 230.516C40.9571 229.996 41.4691 228.59 41.9118 227.198C41.9144 227.188 41.9171 227.18 41.9224 227.169C42.6291 225.078 43.2344 222.929 43.7251 220.774C44.2718 218.166 44.4984 215.412 44.7171 212.748L45.9347 197.817ZM40.2738 190.176C42.246 172.146 44.9641 154.735 47.808 136.62C48.3571 137.443 48.8152 138.331 49.1701 139.273C49.2487 139.481 49.366 139.663 49.5107 139.815C47.6991 156.121 44.8829 172.419 41.1202 188.359C40.7292 188.902 40.4449 189.518 40.2738 190.176ZM121.538 192.154C121.285 192.161 121.051 192.082 120.954 191.962C120.775 190.204 120.597 188.447 120.422 186.709C121.367 188.942 121.987 190.505 122.093 190.775C122.213 191.154 122.215 191.565 122.101 191.946C122.005 192.063 121.781 192.149 121.538 192.154ZM104.202 143.571C107.304 142.445 110.23 140.276 112.736 137.247L114.52 158.764C115.272 167.852 119.419 209.506 121.144 223.652C121.581 227.258 121.827 230.22 120.68 232.799C120.059 234.196 118.749 235.428 117.341 235.938C116.659 236.186 115.637 236.375 114.643 235.887C113.083 235.12 112.315 233.183 111.501 231.129L111.496 231.116L111.495 231.113C110.599 228.85 109.585 226.289 107.256 224.836C106.76 224.527 106.248 224.298 105.795 224.095C105.363 223.903 104.955 223.722 104.637 223.506C104.141 223.167 103.765 222.692 103.555 222.13C103.344 221.567 103.315 220.962 103.467 220.38C103.619 219.799 103.941 219.29 104.403 218.903C104.864 218.516 105.421 218.284 106.021 218.236C106.448 218.202 106.843 217.996 107.117 217.668C107.392 217.34 107.523 216.916 107.483 216.49C105.021 190.55 103.949 166.691 104.202 143.571Z" fill="black"/>
</svg>
