<svg width="160" height="260" viewBox="0 0 160 260" fill="none" xmlns="http://www.w3.org/2000/svg">
<path d="M95.6372 98.5115C96.5892 99.9275 97.5785 101.384 98.9945 102.338C100.411 103.293 102.376 103.64 103.819 102.728C105.419 101.712 106.421 99.2608 108.304 99.5275C109.048 99.6368 109.637 100.186 110.197 100.696C111.763 102.144 113.573 103.562 115.704 103.696C117.835 103.829 120.171 102.042 119.8 99.9408C119.669 99.1995 119.232 98.5168 119.24 97.7648C119.253 96.4528 120.573 95.5622 121.144 94.3835C122.515 91.6022 119.603 87.9648 121.197 85.3035C121.688 84.4902 122.517 83.9515 123.229 83.3222C126.765 80.1888 127.099 74.1008 123.923 70.5995C122.747 69.3035 121.149 68.2902 120.523 66.6555C120.133 65.6395 120.176 64.5222 120.195 63.4315C120.296 57.2022 119.328 50.8262 116.36 45.3462C113.392 39.8662 109.597 38.3568 103.48 37.1755L98.6985 34.2048C97.2052 31.8315 94.3732 30.6902 91.6638 29.9702C83.1305 27.7088 72.4745 25.2662 64.3919 28.7995C56.3092 32.3328 49.5279 38.8928 46.0239 46.9888C44.2159 51.1675 43.1972 55.8235 40.2452 59.2902C37.7279 62.2475 34.0692 64.0075 31.3359 66.7568C28.6025 69.5062 26.9865 74.2235 29.4879 77.1942C29.9945 77.7968 30.6559 78.3062 30.9439 79.0422C31.9332 81.5675 28.1359 83.1915 26.9119 85.6128C25.7679 87.8795 27.1199 90.6288 28.8399 92.4982C30.5599 94.3675 32.7332 95.9648 33.6719 98.3195C34.3679 100.069 34.4159 102.264 35.9279 103.386C37.6212 104.645 40.0425 103.744 42.1012 104.21C44.1599 104.677 45.6372 106.461 47.2425 107.856C48.8479 109.25 51.2292 110.333 53.0319 109.205C53.9919 108.602 54.5438 107.496 55.4985 106.888C57.4212 105.661 59.8772 106.901 62.0505 107.592C64.2239 108.282 67.4958 107.562 67.3652 105.285" fill="black"/>
<path d="M90.5702 104.644C90.2662 100.994 90.9436 97.8631 92.5329 94.5618C92.8929 93.8151 93.6662 93.8231 94.4316 93.5804C95.1116 93.3671 95.7782 93.1218 96.4369 92.8444C97.7729 92.2898 99.0369 91.5724 100.197 90.7111C102.496 88.9751 104.288 86.5378 104.96 83.7111C105.57 81.1484 105.141 78.0978 102.293 76.6551C100.285 75.6418 98.4849 76.0018 95.4262 78.6898L94.5196 76.5324C95.4742 71.8578 95.8636 67.0818 95.6796 62.3138C95.5942 60.0738 92.5596 56.5538 90.4876 55.6978L86.8982 52.0444C85.0316 48.3111 71.5302 47.1084 67.5249 48.2684C60.5702 50.5271 58.5516 51.7218 56.5382 54.4311C54.5249 57.1404 53.4422 60.4124 52.3942 63.6204L50.3489 67.3324C48.6289 71.7564 47.5942 75.7511 47.3329 78.1698C46.6742 84.2604 47.9036 91.0284 52.5622 95.3671C55.0449 97.6764 58.1196 98.8124 61.4076 99.3911C64.8369 99.9964 68.5169 100.548 71.8449 99.1884C71.6689 101.964 71.6422 104.212 71.7702 106.991" fill="#FFD39F"/>
<path fill-rule="evenodd" clip-rule="evenodd" d="M46.1903 109.064C47.5877 110.277 49.4757 111.28 51.3477 111.28C52.2117 111.28 53.073 111.066 53.8757 110.546C54.5557 110.12 55.041 109.57 55.4677 109.085L55.483 109.068C55.7866 108.725 56.0724 108.402 56.353 108.224C57.3023 107.618 58.817 108.149 60.4197 108.714C60.793 108.848 61.1797 108.981 61.561 109.104C63.6117 109.757 66.0623 109.421 67.5183 108.29C68.5183 107.514 69.0277 106.41 68.9583 105.181C68.9077 104.298 68.153 103.624 67.2703 103.674C66.3877 103.725 65.713 104.48 65.7637 105.362C65.7717 105.49 65.761 105.602 65.5557 105.76C64.937 106.242 63.5503 106.376 62.5317 106.053C62.1877 105.944 61.8383 105.821 61.4837 105.696L61.4765 105.693C59.4351 104.976 56.8944 104.084 54.6357 105.525C53.9754 105.945 53.5008 106.483 53.0824 106.957L53.0703 106.97C52.7583 107.325 52.465 107.658 52.1797 107.837C51.1717 108.469 49.4997 107.69 48.289 106.637C47.9836 106.372 47.6831 106.09 47.3647 105.792L47.3646 105.792L47.3103 105.741L47.3017 105.733C45.9811 104.498 44.4872 103.1 42.4517 102.64C41.4543 102.413 40.4437 102.442 39.553 102.469L39.5413 102.469H39.5412C38.4289 102.501 37.4656 102.529 36.8783 102.09C36.2788 101.643 36.0254 100.687 35.7324 99.5813L35.7317 99.5784C35.5717 98.9678 35.4037 98.3384 35.1557 97.7144C34.3397 95.6717 32.8437 94.2104 31.3957 92.7971L31.2452 92.6493L31.245 92.649C30.812 92.2237 30.3993 91.8181 30.0143 91.3997C28.7503 90.0264 27.553 87.8717 28.337 86.3197C28.673 85.6557 29.3903 84.9571 30.0837 84.2824C31.4997 82.9064 33.4383 81.0184 32.4303 78.4451C32.1103 77.6291 31.5557 77.0504 31.1103 76.5864C30.961 76.4317 30.8223 76.2851 30.7077 76.1491C28.873 73.9731 30.193 70.1571 32.465 67.8717C33.6057 66.7231 34.9328 65.7529 36.3399 64.7242L36.3423 64.7224L36.3441 64.7211L36.3442 64.7211C38.1196 63.4228 39.9535 62.0818 41.457 60.3144C43.7393 57.6353 44.9285 54.387 46.0791 51.2442L46.0791 51.2441L46.0837 51.2317L46.1221 51.1271C46.5527 49.9543 46.9969 48.7447 47.4863 47.6131C50.7743 40.0157 57.169 33.6877 65.0277 30.2531C72.513 26.9811 82.489 29.1837 91.249 31.5064C93.241 32.0371 96.0383 32.9784 97.3397 35.0477C97.809 35.7944 98.7957 36.0184 99.545 35.5491C100.292 35.0797 100.516 34.0904 100.046 33.3437C98.145 30.3224 94.5823 29.0851 92.0677 28.4157C82.785 25.9571 72.1743 23.6397 63.745 27.3251C55.153 31.0824 48.1557 38.0157 44.5503 46.3464C44.009 47.5971 43.5343 48.8904 43.0783 50.1384C41.9743 53.1544 40.9317 56.0024 39.0197 58.2477C37.765 59.7225 36.1674 60.8913 34.4787 62.1266L34.4787 62.1267L34.4517 62.1464C33.0063 63.2024 31.513 64.2957 30.193 65.6237C28.5743 67.2504 27.3663 69.4051 26.881 71.5304C26.2943 74.0957 26.7823 76.4691 28.2543 78.2184C28.4201 78.4183 28.5881 78.5937 28.7502 78.7629L28.7502 78.7629L28.7957 78.8104C29.0863 79.1117 29.3583 79.3944 29.4463 79.6211C29.6463 80.1331 29.1397 80.7411 27.8463 81.9997L27.8359 82.0099C26.9984 82.8261 26.0493 83.7511 25.4757 84.8877C24.4783 86.8611 24.529 90.1811 27.6543 93.5784C28.1423 94.1091 28.657 94.6131 29.1557 95.0984L29.1627 95.1053L29.1628 95.1054C30.4242 96.3375 31.6154 97.5011 32.177 98.9091C32.3524 99.3529 32.488 99.8628 32.6315 100.402L32.6315 100.402L32.633 100.408C33.0223 101.882 33.465 103.554 34.9663 104.669C36.4459 105.768 38.1379 105.72 39.6343 105.677L39.6437 105.677L39.6622 105.677C40.426 105.655 41.1445 105.636 41.7423 105.77C42.937 106.042 43.9983 107.034 45.121 108.088L45.2368 108.196L45.2369 108.196C45.5467 108.484 45.8632 108.779 46.1903 109.064ZM115.6 105.305C115.71 105.313 115.822 105.316 115.934 105.316C117.534 105.316 119.158 104.593 120.238 103.393C121.203 102.316 121.606 100.998 121.374 99.6838C121.296 99.2464 121.163 98.8651 121.043 98.5291C120.942 98.2438 120.838 97.9504 120.838 97.8011C120.84 97.5212 121.203 97.0654 121.555 96.6229L121.555 96.6228L121.555 96.6224C121.899 96.1904 122.288 95.6998 122.579 95.1104C123.497 93.2469 123.061 91.3064 122.674 89.5912L122.672 89.5824L122.671 89.5749C122.354 88.1701 122.081 86.9596 122.568 86.1477C122.792 85.7771 123.227 85.4198 123.688 85.0438C123.891 84.8784 124.094 84.7131 124.288 84.5397C126.291 82.7717 127.531 80.1024 127.691 77.2171C127.854 74.3264 126.912 71.5291 125.11 69.5424C124.702 69.0944 124.27 68.6918 123.851 68.3051C123.064 67.5771 122.32 66.8864 122.019 66.1024C121.764 65.4325 121.779 64.5691 121.795 63.6576L121.795 63.6491L121.798 63.4757C121.918 56.1077 120.563 49.7557 117.771 44.6011C114.579 38.7077 110.392 36.8971 103.787 35.6224C102.918 35.4544 102.08 36.0224 101.912 36.8891C101.744 37.7557 102.312 38.5957 103.179 38.7637C109.072 39.9024 112.339 41.2944 114.955 46.1238C117.483 50.7904 118.71 56.6091 118.598 63.4198L118.595 63.5877L118.595 63.6064V63.6066C118.576 64.7273 118.555 65.9974 119.032 67.2438C119.6 68.7238 120.704 69.7477 121.678 70.6491C122.064 71.0064 122.427 71.3424 122.742 71.6891C123.971 73.0464 124.611 74.9958 124.499 77.0384C124.387 79.0758 123.539 80.9344 122.174 82.1397C122.05 82.2498 121.921 82.3553 121.793 82.4608C121.75 82.4959 121.707 82.5311 121.664 82.5664C121.043 83.0731 120.339 83.6491 119.827 84.4971C118.678 86.4117 119.142 88.4678 119.552 90.2838C119.851 91.6011 120.131 92.8438 119.712 93.6918C119.574 93.9744 119.32 94.2944 119.054 94.6304C118.43 95.4118 117.656 96.3878 117.643 97.7798C117.643 98.4969 117.859 99.1048 118.032 99.5928L118.032 99.5931L118.041 99.6168C118.12 99.8455 118.196 100.063 118.227 100.233C118.302 100.652 118.067 101.017 117.859 101.252C117.363 101.804 116.52 102.158 115.808 102.113C114.166 102.009 112.603 100.75 111.283 99.5318L111.251 99.5024L111.244 99.4961C110.61 98.9153 109.745 98.1232 108.531 97.9584C106.488 97.6704 105.171 99.1291 104.211 100.196C103.774 100.681 103.36 101.14 102.966 101.39C102.067 101.961 100.742 101.601 99.891 101.028C98.7117 100.232 97.8274 98.915 96.9728 97.6423L96.9683 97.6358C96.475 96.9024 95.4803 96.7051 94.747 97.1984C94.0137 97.6918 93.8163 98.6864 94.3097 99.4198L94.3246 99.442C95.3023 100.895 96.409 102.54 98.1017 103.681C100.227 105.113 102.808 105.276 104.68 104.092C105.445 103.604 106.05 102.933 106.585 102.339L106.587 102.337L106.599 102.324C107.152 101.709 107.723 101.076 108.088 101.129C108.318 101.158 108.752 101.556 109.074 101.852L109.083 101.86L109.11 101.884C110.835 103.481 112.958 105.137 115.6 105.305ZM52.3922 65.225C52.2269 65.225 52.0589 65.1983 51.8962 65.145C51.0562 64.8703 50.5976 63.9663 50.8722 63.1263C51.8962 59.9876 53.0589 56.4303 55.2536 53.4783C56.6696 51.5716 58.3042 50.2276 60.7149 48.9796C64.9922 46.769 69.8936 45.8356 74.8909 46.2783C78.3229 46.5823 86.5069 47.6836 88.3282 51.329C88.7229 52.1183 88.4029 53.081 87.6136 53.4756C86.8242 53.8703 85.8616 53.5503 85.4669 52.761C84.8669 51.561 80.6402 50.001 74.6082 49.465C70.2162 49.0756 65.9202 49.8916 62.1842 51.8223C60.2056 52.8436 58.9416 53.8756 57.8216 55.3876C55.9392 57.9206 54.9099 61.0719 53.9154 64.1168L53.9149 64.1183C53.6936 64.7957 53.0669 65.225 52.3922 65.225ZM97.2946 62.2641C97.4675 66.8531 97.1203 71.4655 96.262 75.9843C99.3325 73.9314 101.311 74.3682 102.988 75.2146C106.092 76.7826 107.433 80.1773 106.489 84.076C105.769 87.1053 103.868 89.9133 101.137 91.9746C99.8627 92.9213 98.4813 93.7053 97.0253 94.308C96.3347 94.5986 95.612 94.8653 94.884 95.092C94.6627 95.1613 94.4493 95.2146 94.2627 95.26C94.2359 95.2666 94.2074 95.2736 94.1782 95.2807L94.1767 95.2811C94.0778 95.3052 93.9705 95.3314 93.8947 95.356C92.3613 98.556 91.8867 99.7586 92.1533 102.895C92.228 103.775 91.5747 104.548 90.6947 104.623C90.6467 104.633 90.6013 104.636 90.556 104.636C89.7347 104.636 89.0333 104.007 88.964 103.169C88.6253 99.1533 89.4067 97.316 91.0653 93.86C91.6733 92.5986 92.8227 92.3213 93.5107 92.156L93.6043 92.1328L93.6044 92.1328C93.719 92.1047 93.8273 92.0782 93.924 92.0466C94.5587 91.8466 95.1853 91.6173 95.7907 91.3613C97.0147 90.8546 98.164 90.2013 99.22 89.4173C101.348 87.8093 102.831 85.6466 103.38 83.332C103.663 82.1666 104.047 79.3346 101.548 78.0733C100.457 77.5213 99.388 77.3053 96.4573 79.8813C95.7933 80.4653 94.7827 80.3986 94.1987 79.7346C93.7719 79.2494 93.6926 78.579 93.94 78.0253C93.2245 77.7476 92.7931 76.9881 92.9533 76.2135C93.8866 71.6695 94.2706 67.0135 94.0946 62.3761C94.0466 60.9281 91.5693 57.8721 89.8893 57.1788C89.0733 56.8401 88.684 55.9068 89.0226 55.0881C89.3613 54.2721 90.2946 53.8828 91.1133 54.2215C92.364 54.7388 93.852 55.9575 95.0893 57.4801C95.8867 58.4615 97.2306 60.3841 97.2946 62.2641ZM58.2467 74.6919C59.2777 74.6919 60.1134 73.6771 60.1134 72.4253C60.1134 71.1734 59.2777 70.1586 58.2467 70.1586C57.2158 70.1586 56.3801 71.1734 56.3801 72.4253C56.3801 73.6771 57.2158 74.6919 58.2467 74.6919ZM69.179 73.0534C69.179 74.3052 68.3433 75.3201 67.3124 75.3201C66.2814 75.3201 65.4457 74.3052 65.4457 73.0534C65.4457 71.8015 66.2814 70.7867 67.3124 70.7867C68.3433 70.7867 69.179 71.8015 69.179 73.0534ZM70.1716 105.469C70.2116 106.328 70.9183 106.997 71.7689 106.997C71.7929 106.997 71.8169 106.997 71.8463 106.987C72.7289 106.947 73.4116 106.197 73.3716 105.315C73.2436 102.563 73.2729 101.971 73.4436 99.288C73.4783 98.7387 73.2276 98.2107 72.7796 97.888C72.3316 97.568 71.7503 97.4987 71.2409 97.7067C68.4303 98.856 65.2489 98.4373 61.6863 97.816C58.2009 97.2027 55.6489 96.0533 53.6543 94.1973C49.9236 90.7253 48.2009 84.9467 48.9236 78.3467C49.1423 76.3707 50.0223 72.592 51.8409 67.9147C52.1609 67.0907 51.7529 66.1627 50.9289 65.8427C50.1049 65.5227 49.1769 65.9307 48.8569 66.7547C47.2169 70.9707 46.0543 75.1733 45.7423 77.9973C44.9103 85.616 46.9983 92.3733 51.4729 96.5413C53.9076 98.8053 57.0676 100.253 61.1343 100.971C63.6516 101.411 66.9156 101.979 70.1209 101.36C70.0676 102.648 70.0863 103.592 70.1716 105.469Z" fill="black"/>
<path fill-rule="evenodd" clip-rule="evenodd" d="M95.9394 107.867C91.8407 108.779 90.7394 102.693 90.4994 100H72.6007C72.4528 100.448 72.3159 101.245 72.1639 102.13C71.894 103.701 71.5765 105.55 71.0647 106.213C70.9974 106.294 70.9124 106.398 70.8131 106.519C70.0282 107.476 68.3531 109.52 67.4914 110.064C66.7287 110.544 65.8994 111.016 64.9981 110.989H64.7101C62.7287 114.176 64.3021 117.893 67.2941 120.576C70.2861 123.259 74.5394 124.216 78.5394 123.923C83.0754 123.6 87.3741 121.765 90.7447 118.712C94.0621 115.659 96.1794 112.712 96.3794 108.533L95.9394 107.867ZM100.172 142.665L100.542 143.086C100.316 162.195 102.285 181.287 104.29 200.738V200.738L104.291 200.74C104.834 206.012 105.38 211.31 105.886 216.641C104.961 216.718 104.081 217.078 103.372 217.676C102.66 218.273 102.15 219.076 101.916 219.974C101.678 220.873 101.729 221.822 102.054 222.692C102.38 223.561 102.969 224.308 103.737 224.83C104.174 225.126 104.657 225.342 105.14 225.558L105.14 225.558C105.572 225.75 106.004 225.943 106.404 226.193C108.288 227.368 109.15 229.544 110.005 231.705C110.914 234.002 111.817 236.282 113.934 237.324C116.966 238.814 120.766 236.54 122.14 233.449C123.513 230.358 123.137 226.814 122.729 223.46C120.988 209.188 116.836 167.382 116.11 158.633C116.11 158.633 112.633 126.292 111.737 122.577C110.841 118.862 107.804 115.684 105.036 113.049L104.438 112.663C102.569 117.39 97.4224 137.649 100.172 142.665ZM57.4057 115.94L57.899 114.409C56.3364 114.836 55.1577 116.103 54.1657 117.377C51.0804 121.321 49.451 126.324 48.683 131.271C48.1314 134.825 47.5057 138.819 46.8301 143.131L46.8301 143.131C43.7789 162.604 39.7103 188.57 36.859 209.927C35.9977 209.823 35.123 209.972 34.3417 210.351C33.5604 210.729 32.9044 211.327 32.4537 212.068C32.003 212.809 31.771 213.665 31.7924 214.532C31.811 215.401 32.0804 216.244 32.5657 216.964C32.6906 217.147 32.8289 217.321 32.9672 217.496L32.9672 217.496C33.1478 217.724 33.3282 217.951 33.4777 218.196C34.1524 219.321 34.115 220.721 34.035 222.033L34.0217 222.251C33.8753 224.636 33.7221 227.131 34.7444 229.284C35.7977 231.503 38.6137 233.095 40.771 231.921C42.275 231.1 42.9204 229.313 43.4377 227.681C44.1657 225.527 44.7844 223.335 45.2884 221.116C45.8617 218.383 48.2217 206.255 48.451 203.468L46.3124 202.42C46.3124 202.42 53.995 145.025 57.4057 115.94Z" fill="#FFD39F"/>
<path d="M100.17 142.667C97.4211 137.651 102.568 117.393 104.434 112.665C104.624 112.302 104.365 112.547 104.322 112.142C104.192 111.521 98.8451 108.145 96.4505 107.867C95.9971 112.401 94.0985 115.63 90.7411 118.713C87.3705 121.766 83.0718 123.601 78.5358 123.923C74.5358 124.217 70.2825 123.259 67.2905 120.577C64.2985 117.894 62.8905 113.297 64.8718 110.118L59.4665 112.598C58.8238 112.891 58.1331 113.217 57.7678 113.817C57.4025 114.417 57.5011 115.219 57.4211 115.95C53.9998 145.035 45.3358 200.785 46.1091 200.87C63.9971 202.987 87.1118 204.894 104.448 199.998H104.49C103.066 180.798 100.333 161.961 100.562 143.094" fill="black"/>
<path fill-rule="evenodd" clip-rule="evenodd" d="M95.4951 106.584C95.8207 106.342 96.2286 106.233 96.6317 106.279C98.349 106.479 100.752 107.751 102.032 108.492C105.061 110.247 105.65 111.074 105.821 111.57C105.85 111.614 105.877 111.66 105.903 111.707C105.986 111.761 106.066 111.823 106.14 111.895C109.287 114.887 112.332 118.209 113.295 122.207C114.202 125.98 117.559 157.14 117.7 158.465C117.7 158.479 117.703 158.492 117.703 158.505C118.455 167.575 122.594 209.151 124.316 223.271L124.317 223.273C124.709 226.499 125.196 230.511 123.602 234.103C122.631 236.289 120.65 238.145 118.431 238.951C117.61 239.239 116.783 239.388 115.978 239.388C115.012 239.388 114.076 239.177 113.226 238.759C110.556 237.445 109.473 234.712 108.516 232.297L108.514 232.292L108.509 232.281C107.727 230.306 106.988 228.442 105.554 227.548C105.253 227.36 104.891 227.197 104.507 227.025L104.484 227.015L104.451 227C103.947 226.774 103.377 226.519 102.836 226.151C101.788 225.439 100.999 224.436 100.554 223.249C100.108 222.063 100.044 220.788 100.367 219.564C100.69 218.34 101.372 217.263 102.343 216.447C102.89 215.988 103.503 215.633 104.162 215.393C103.731 210.93 103.271 206.449 102.821 202.079C95.1374 203.977 86.4654 204.668 77.661 204.668C68.2015 204.668 58.5855 203.87 49.8586 202.908C49.2343 207.662 47.3873 218.9 46.8558 221.44C46.8544 221.444 46.8538 221.449 46.8531 221.453C46.8524 221.458 46.8518 221.463 46.8504 221.466C46.3358 223.725 45.7011 225.981 44.9598 228.173C44.4878 229.664 43.6958 232.141 41.5384 233.32C40.8158 233.72 40.0104 233.917 39.1784 233.917C38.6051 233.917 38.0184 233.824 37.4371 233.635C35.6851 233.064 34.0984 231.661 33.2984 229.973C32.0995 227.45 32.2714 224.642 32.4233 222.161L32.4238 222.154L32.4371 221.938C32.5064 220.808 32.5331 219.736 32.1038 219.021C32.0203 218.884 31.8893 218.717 31.7483 218.537L31.7482 218.537L31.7118 218.491C31.5651 218.307 31.3998 218.099 31.2424 217.869C30.5784 216.885 30.2158 215.749 30.1891 214.571C30.1624 213.395 30.4718 212.24 31.0851 211.235C31.6984 210.229 32.5811 209.427 33.6398 208.912C34.2158 208.632 34.8291 208.445 35.4558 208.354C38.273 187.677 41.9827 163.923 44.9765 144.752L44.9811 144.722L45.4181 141.922L45.4185 141.92C46.0309 137.995 46.602 134.336 47.1118 131.029C48.0318 125.066 49.9838 120.141 52.9144 116.394C53.7756 115.288 54.8175 114.115 56.1949 113.384C56.2521 113.25 56.3197 113.117 56.3997 112.986C57.026 111.956 58.0856 111.47 58.7897 111.148L58.7997 111.143L64.205 108.666C64.8146 108.387 65.5299 108.517 65.9978 108.984C67.0678 108.525 67.8451 107.824 68.4184 107.307L68.4284 107.298L68.5244 107.21C69.5537 106.282 69.663 106.034 69.8817 105.536C69.8986 105.496 69.9162 105.457 69.9342 105.417C69.9503 105.381 69.9667 105.344 69.983 105.306C70.3484 104.501 71.295 104.144 72.1004 104.509C72.9057 104.874 73.263 105.821 72.8977 106.626L72.8097 106.824C72.4337 107.68 72.103 108.296 70.6657 109.589L70.5724 109.672L70.5689 109.675C69.6834 110.475 68.1083 111.899 65.6603 112.443C65.224 114.674 66.2519 117.498 68.357 119.388C70.7677 121.551 74.4343 122.623 78.4183 122.33C82.581 122.034 86.5757 120.33 89.6663 117.53C92.3456 115.07 93.8726 112.639 94.5428 109.67C92.3287 109.213 91.502 107.741 90.8239 106.53L90.7941 106.477L90.794 106.477C90.6034 106.139 90.4065 105.789 90.1759 105.447C89.6826 104.714 89.8772 103.719 90.6079 103.226C91.3412 102.733 92.3359 102.927 92.8292 103.658C93.1466 104.127 93.3946 104.57 93.6132 104.962L93.6162 104.967C94.2625 106.118 94.4663 106.481 95.4951 106.584ZM48.5838 199.541C48.6401 199.546 48.6954 199.553 48.7498 199.563C65.777 201.496 86.5162 202.928 102.49 198.863C100.544 179.961 98.7646 162.016 98.9365 143.692C98.8716 143.614 98.8131 143.529 98.7623 143.436C97.3783 140.914 97.4557 135.471 98.9944 127.263C100.064 121.556 101.645 115.66 102.693 112.735C101.797 112.02 99.509 110.634 97.7597 109.908C97.0023 113.719 95.1223 116.858 91.821 119.887C88.1943 123.172 83.5197 125.17 78.6477 125.516C73.805 125.868 69.277 124.503 66.221 121.764C63.8637 119.65 62.213 116.26 62.3677 113.023L60.1303 114.05L60.1175 114.055C59.9413 114.137 59.7072 114.244 59.5087 114.356C59.5249 114.801 59.3536 115.227 59.0502 115.536C59.0424 115.72 59.0309 115.919 59.0077 116.122C59.0023 116.172 58.9943 116.223 58.9837 116.271C53.7757 141.524 48.0983 191.002 47.6637 199.439C47.9484 199.472 48.2342 199.505 48.5211 199.537C48.542 199.538 48.5628 199.54 48.5838 199.541ZM47.7837 168.226C48.9869 158.57 52.0268 135.249 55.2595 118.599C52.7671 121.887 51.0922 126.23 50.2744 131.52C49.7455 134.953 49.1507 138.765 48.5121 142.857L48.5119 142.859L48.1438 145.218C45.0851 164.802 41.2798 189.176 38.4451 210.141C38.3278 211.008 37.5358 211.616 36.6718 211.514C36.1118 211.448 35.5491 211.544 35.0424 211.789C34.5358 212.035 34.1118 212.419 33.8211 212.901C33.5278 213.381 33.3811 213.933 33.3918 214.496C33.4051 215.058 33.5784 215.603 33.8931 216.069C33.9811 216.197 34.0984 216.347 34.2211 216.501L34.2535 216.542L34.2536 216.542C34.4428 216.783 34.6533 217.05 34.8424 217.36C35.7464 218.869 35.7278 220.544 35.6318 222.128L35.6184 222.346C35.4824 224.544 35.3438 226.816 36.1891 228.595C36.6211 229.501 37.4984 230.285 38.4291 230.587C38.8398 230.72 39.4478 230.816 40.0078 230.512C40.9598 229.992 41.4718 228.587 41.9144 227.195C41.9171 227.184 41.9198 227.176 41.9251 227.165C42.6318 225.075 43.2371 222.923 43.7278 220.771C44.2421 218.308 46.0746 207.139 46.6798 202.547C46.4255 202.517 46.1721 202.487 45.9197 202.458C45.477 202.404 45.061 202.159 44.797 201.799C44.3623 201.202 44.1837 200.954 45.189 190.932C45.8183 184.66 46.7383 176.596 47.7837 168.226ZM102.141 127.852C103.063 122.929 104.287 118.28 105.177 115.421C107.49 117.741 109.53 120.242 110.183 122.953C110.868 125.812 113.316 147.631 114.516 158.785C115.274 167.913 119.415 209.516 121.14 223.652C121.578 227.257 121.823 230.22 120.676 232.799C120.055 234.196 118.746 235.428 117.338 235.937C116.655 236.185 115.634 236.375 114.639 235.887C113.08 235.12 112.312 233.182 111.497 231.128L111.492 231.116L111.491 231.113C110.595 228.849 109.582 226.289 107.252 224.836C106.756 224.527 106.244 224.297 105.791 224.095C105.359 223.903 104.951 223.721 104.634 223.505C104.138 223.167 103.762 222.692 103.551 222.129C103.34 221.567 103.311 220.961 103.463 220.38C103.615 219.799 103.938 219.289 104.399 218.903C104.86 218.516 105.418 218.284 106.018 218.236C106.444 218.201 106.839 217.996 107.114 217.668C107.388 217.34 107.519 216.916 107.479 216.489C106.976 211.184 106.425 205.842 105.892 200.675C106.05 200.339 106.093 199.945 105.984 199.559C105.928 199.363 105.838 199.186 105.723 199.032C103.745 179.827 101.922 161.628 102.143 143.105C102.149 142.591 101.911 142.13 101.537 141.833C101.152 141.059 100.247 137.977 102.141 127.852ZM46.285 199.279C46.2887 199.279 46.2924 199.28 46.2964 199.28C46.301 199.281 46.306 199.282 46.3117 199.282L46.3067 199.281L46.3038 199.28C46.2968 199.279 46.2909 199.279 46.285 199.279Z" fill="black"/>
</svg>
