<svg width="160" height="260" viewBox="0 0 160 260" fill="none" xmlns="http://www.w3.org/2000/svg">
<path d="M95.6372 98.5115C96.5892 99.9275 97.5785 101.384 98.9945 102.338C100.411 103.293 102.376 103.64 103.819 102.728C105.419 101.712 106.421 99.2608 108.304 99.5275C109.048 99.6368 109.637 100.186 110.197 100.696C111.763 102.144 113.573 103.562 115.704 103.696C117.835 103.829 120.171 102.042 119.8 99.9408C119.669 99.1995 119.232 98.5168 119.24 97.7648C119.253 96.4528 120.573 95.5622 121.144 94.3835C122.515 91.6022 119.603 87.9648 121.197 85.3035C121.688 84.4902 122.517 83.9515 123.229 83.3222C126.765 80.1888 127.099 74.1008 123.923 70.5995C122.747 69.3035 121.149 68.2902 120.523 66.6555C120.133 65.6395 120.176 64.5222 120.195 63.4315C120.296 57.2022 119.328 50.8262 116.36 45.3462C113.392 39.8662 109.597 38.3568 103.48 37.1755L98.6985 34.2048C97.2052 31.8315 94.3732 30.6902 91.6638 29.9702C83.1305 27.7088 72.4745 25.2662 64.3919 28.7995C56.3092 32.3328 49.5279 38.8928 46.0239 46.9888C44.2159 51.1675 43.1972 55.8235 40.2452 59.2902C37.7279 62.2475 34.0692 64.0075 31.3359 66.7568C28.6025 69.5062 26.9865 74.2235 29.4879 77.1942C29.9945 77.7968 30.6559 78.3062 30.9439 79.0422C31.9332 81.5675 28.1359 83.1915 26.9119 85.6128C25.7679 87.8795 27.1199 90.6288 28.8399 92.4982C30.5599 94.3675 32.7332 95.9648 33.6719 98.3195C34.3679 100.069 34.4159 102.264 35.9279 103.386C37.6212 104.645 40.0425 103.744 42.1012 104.21C44.1599 104.677 45.6372 106.461 47.2425 107.856C48.8479 109.25 51.2292 110.333 53.0319 109.205C53.9919 108.602 54.5438 107.496 55.4985 106.888C57.4212 105.661 59.8772 106.901 62.0505 107.592C64.2239 108.282 67.4958 107.562 67.3652 105.285" fill="black"/>
<path d="M90.5702 104.644C90.2662 100.994 90.9436 97.8631 92.5329 94.5618C92.8929 93.8151 93.6662 93.8231 94.4316 93.5804C95.1116 93.3671 95.7782 93.1218 96.4369 92.8444C97.7729 92.2898 99.0369 91.5724 100.197 90.7111C102.496 88.9751 104.288 86.5378 104.96 83.7111C105.57 81.1484 105.141 78.0978 102.293 76.6551C100.285 75.6418 98.4849 76.0018 95.4262 78.6898L94.5196 76.5324C95.4742 71.8578 95.8636 67.0818 95.6796 62.3138C95.5942 60.0738 92.5596 56.5538 90.4876 55.6978L86.8982 52.0444C85.0316 48.3111 71.5302 47.1084 67.5249 48.2684C60.5702 50.5271 58.5516 51.7218 56.5382 54.4311C54.5249 57.1404 53.4422 60.4124 52.3942 63.6204L50.3489 67.3324C48.6289 71.7564 47.5942 75.7511 47.3329 78.1698C46.6742 84.2604 47.9036 91.0284 52.5622 95.3671C55.0449 97.6764 58.1196 98.8124 61.4076 99.3911C64.8369 99.9964 68.5169 100.548 71.8449 99.1884C71.6689 101.964 71.6422 104.212 71.7702 106.991" fill="#FFD39F"/>
<path fill-rule="evenodd" clip-rule="evenodd" d="M46.1903 109.064C47.5877 110.277 49.4757 111.28 51.3477 111.28C52.2117 111.28 53.073 111.066 53.8757 110.546C54.5557 110.12 55.041 109.57 55.4677 109.085L55.483 109.068C55.7866 108.725 56.0724 108.402 56.353 108.224C57.3023 107.618 58.817 108.149 60.4197 108.714C60.793 108.848 61.1797 108.981 61.561 109.104C63.6117 109.757 66.0623 109.421 67.5183 108.29C68.5183 107.514 69.0277 106.41 68.9583 105.181C68.9077 104.298 68.153 103.624 67.2703 103.674C66.3877 103.725 65.713 104.48 65.7637 105.362C65.7717 105.49 65.761 105.602 65.5557 105.76C64.937 106.242 63.5503 106.376 62.5317 106.053C62.1877 105.944 61.8383 105.821 61.4837 105.696L61.4765 105.693C59.4351 104.976 56.8944 104.084 54.6357 105.525C53.9754 105.945 53.5008 106.483 53.0824 106.957L53.0703 106.97C52.7583 107.325 52.465 107.658 52.1797 107.837C51.1717 108.469 49.4997 107.69 48.289 106.637C47.9836 106.372 47.6831 106.09 47.3647 105.792L47.3646 105.792L47.3103 105.741L47.3017 105.733C45.9811 104.498 44.4872 103.1 42.4517 102.64C41.4543 102.413 40.4437 102.442 39.553 102.469L39.5413 102.469H39.5412C38.4289 102.501 37.4656 102.529 36.8783 102.09C36.2788 101.643 36.0254 100.687 35.7324 99.5813L35.7317 99.5784C35.5717 98.9678 35.4037 98.3384 35.1557 97.7144C34.3397 95.6717 32.8437 94.2104 31.3957 92.7971L31.2452 92.6493L31.245 92.649C30.812 92.2237 30.3993 91.8181 30.0143 91.3997C28.7503 90.0264 27.553 87.8717 28.337 86.3197C28.673 85.6557 29.3903 84.9571 30.0837 84.2824C31.4997 82.9064 33.4383 81.0184 32.4303 78.4451C32.1103 77.6291 31.5557 77.0504 31.1103 76.5864C30.961 76.4317 30.8223 76.2851 30.7077 76.1491C28.873 73.9731 30.193 70.1571 32.465 67.8717C33.6057 66.7231 34.9328 65.7529 36.3399 64.7242L36.3423 64.7224L36.3441 64.7211L36.3442 64.7211C38.1196 63.4228 39.9535 62.0818 41.457 60.3144C43.7393 57.6353 44.9285 54.387 46.0791 51.2442L46.0791 51.2441L46.0837 51.2317L46.1221 51.1271C46.5527 49.9543 46.9969 48.7447 47.4863 47.6131C50.7743 40.0157 57.169 33.6877 65.0277 30.2531C72.513 26.9811 82.489 29.1837 91.249 31.5064C93.241 32.0371 96.0383 32.9784 97.3397 35.0477C97.809 35.7944 98.7957 36.0184 99.545 35.5491C100.292 35.0797 100.516 34.0904 100.046 33.3437C98.145 30.3224 94.5823 29.0851 92.0677 28.4157C82.785 25.9571 72.1743 23.6397 63.745 27.3251C55.153 31.0824 48.1557 38.0157 44.5503 46.3464C44.009 47.5971 43.5343 48.8904 43.0783 50.1384C41.9743 53.1544 40.9317 56.0024 39.0197 58.2477C37.765 59.7225 36.1674 60.8913 34.4787 62.1266L34.4787 62.1267L34.4517 62.1464C33.0063 63.2024 31.513 64.2957 30.193 65.6237C28.5743 67.2504 27.3663 69.4051 26.881 71.5304C26.2943 74.0957 26.7823 76.4691 28.2543 78.2184C28.4201 78.4183 28.5881 78.5937 28.7502 78.7629L28.7502 78.7629L28.7957 78.8104C29.0863 79.1117 29.3583 79.3944 29.4463 79.6211C29.6463 80.1331 29.1397 80.7411 27.8463 81.9997L27.8359 82.0099C26.9984 82.8261 26.0493 83.7511 25.4757 84.8877C24.4783 86.8611 24.529 90.1811 27.6543 93.5784C28.1423 94.1091 28.657 94.6131 29.1557 95.0984L29.1627 95.1053L29.1628 95.1054C30.4242 96.3375 31.6154 97.5011 32.177 98.9091C32.3524 99.3529 32.488 99.8628 32.6315 100.402L32.6315 100.402L32.633 100.408C33.0223 101.882 33.465 103.554 34.9663 104.669C36.4459 105.768 38.1379 105.72 39.6343 105.677L39.6437 105.677L39.6622 105.677C40.426 105.655 41.1445 105.636 41.7423 105.77C42.937 106.042 43.9983 107.034 45.121 108.088L45.2368 108.196L45.2369 108.196C45.5467 108.484 45.8632 108.779 46.1903 109.064ZM115.6 105.305C115.71 105.313 115.822 105.316 115.934 105.316C117.534 105.316 119.158 104.593 120.238 103.393C121.203 102.316 121.606 100.998 121.374 99.6838C121.296 99.2464 121.163 98.8651 121.043 98.5291C120.942 98.2438 120.838 97.9504 120.838 97.8011C120.84 97.5212 121.203 97.0654 121.555 96.6229L121.555 96.6228L121.555 96.6224C121.899 96.1904 122.288 95.6998 122.579 95.1104C123.497 93.2469 123.061 91.3064 122.674 89.5912L122.672 89.5824L122.671 89.5749C122.354 88.1701 122.081 86.9596 122.568 86.1477C122.792 85.7771 123.227 85.4198 123.688 85.0438C123.891 84.8784 124.094 84.7131 124.288 84.5397C126.291 82.7717 127.531 80.1024 127.691 77.2171C127.854 74.3264 126.912 71.5291 125.11 69.5424C124.702 69.0944 124.27 68.6918 123.851 68.3051C123.064 67.5771 122.32 66.8864 122.019 66.1024C121.764 65.4325 121.779 64.5691 121.795 63.6576L121.795 63.6491L121.798 63.4757C121.918 56.1077 120.563 49.7557 117.771 44.6011C114.579 38.7077 110.392 36.8971 103.787 35.6224C102.918 35.4544 102.08 36.0224 101.912 36.8891C101.744 37.7557 102.312 38.5957 103.179 38.7637C109.072 39.9024 112.339 41.2944 114.955 46.1238C117.483 50.7904 118.71 56.6091 118.598 63.4198L118.595 63.5877L118.595 63.6064V63.6066C118.576 64.7273 118.555 65.9974 119.032 67.2438C119.6 68.7238 120.704 69.7477 121.678 70.6491C122.064 71.0064 122.427 71.3424 122.742 71.6891C123.971 73.0464 124.611 74.9958 124.499 77.0384C124.387 79.0758 123.539 80.9344 122.174 82.1397C122.05 82.2498 121.921 82.3553 121.793 82.4608C121.75 82.4959 121.707 82.5311 121.664 82.5664C121.043 83.0731 120.339 83.6491 119.827 84.4971C118.678 86.4117 119.142 88.4678 119.552 90.2838C119.851 91.6011 120.131 92.8438 119.712 93.6918C119.574 93.9744 119.32 94.2944 119.054 94.6304C118.43 95.4118 117.656 96.3878 117.643 97.7798C117.643 98.4969 117.859 99.1048 118.032 99.5928L118.032 99.5931L118.041 99.6168C118.12 99.8455 118.196 100.063 118.227 100.233C118.302 100.652 118.067 101.017 117.859 101.252C117.363 101.804 116.52 102.158 115.808 102.113C114.166 102.009 112.603 100.75 111.283 99.5318L111.251 99.5024L111.244 99.4961C110.61 98.9153 109.745 98.1232 108.531 97.9584C106.488 97.6704 105.171 99.1291 104.211 100.196C103.774 100.681 103.36 101.14 102.966 101.39C102.067 101.961 100.742 101.601 99.891 101.028C98.7117 100.232 97.8274 98.915 96.9728 97.6423L96.9683 97.6358C96.475 96.9024 95.4803 96.7051 94.747 97.1984C94.0137 97.6918 93.8163 98.6864 94.3097 99.4198L94.3246 99.442C95.3023 100.895 96.409 102.54 98.1017 103.681C100.227 105.113 102.808 105.276 104.68 104.092C105.445 103.604 106.05 102.933 106.585 102.339L106.587 102.337L106.599 102.324C107.152 101.709 107.723 101.076 108.088 101.129C108.318 101.158 108.752 101.556 109.074 101.852L109.083 101.86L109.11 101.884C110.835 103.481 112.958 105.137 115.6 105.305ZM52.3922 65.225C52.2269 65.225 52.0589 65.1983 51.8962 65.145C51.0562 64.8703 50.5976 63.9663 50.8722 63.1263C51.8962 59.9876 53.0589 56.4303 55.2536 53.4783C56.6696 51.5716 58.3042 50.2276 60.7149 48.9796C64.9922 46.769 69.8936 45.8356 74.8909 46.2783C78.3229 46.5823 86.5069 47.6836 88.3282 51.329C88.7229 52.1183 88.4029 53.081 87.6136 53.4756C86.8242 53.8703 85.8616 53.5503 85.4669 52.761C84.8669 51.561 80.6402 50.001 74.6082 49.465C70.2162 49.0756 65.9202 49.8916 62.1842 51.8223C60.2056 52.8436 58.9416 53.8756 57.8216 55.3876C55.9392 57.9206 54.9099 61.0719 53.9154 64.1168L53.9149 64.1183C53.6936 64.7957 53.0669 65.225 52.3922 65.225ZM97.2946 62.2641C97.4675 66.8531 97.1203 71.4655 96.262 75.9843C99.3325 73.9314 101.311 74.3682 102.988 75.2146C106.092 76.7826 107.433 80.1773 106.489 84.076C105.769 87.1053 103.868 89.9133 101.137 91.9746C99.8627 92.9213 98.4813 93.7053 97.0253 94.308C96.3347 94.5986 95.612 94.8653 94.884 95.092C94.6627 95.1613 94.4493 95.2146 94.2627 95.26C94.2359 95.2666 94.2074 95.2736 94.1782 95.2807L94.1767 95.2811C94.0778 95.3052 93.9705 95.3314 93.8947 95.356C92.3613 98.556 91.8867 99.7586 92.1533 102.895C92.228 103.775 91.5747 104.548 90.6947 104.623C90.6467 104.633 90.6013 104.636 90.556 104.636C89.7347 104.636 89.0333 104.007 88.964 103.169C88.6253 99.1533 89.4067 97.316 91.0653 93.86C91.6733 92.5986 92.8227 92.3213 93.5107 92.156L93.6043 92.1328L93.6044 92.1328C93.719 92.1047 93.8273 92.0782 93.924 92.0466C94.5587 91.8466 95.1853 91.6173 95.7907 91.3613C97.0147 90.8546 98.164 90.2013 99.22 89.4173C101.348 87.8093 102.831 85.6466 103.38 83.332C103.663 82.1666 104.047 79.3346 101.548 78.0733C100.457 77.5213 99.388 77.3053 96.4573 79.8813C95.7933 80.4653 94.7827 80.3986 94.1987 79.7346C93.7719 79.2494 93.6926 78.579 93.94 78.0253C93.2245 77.7476 92.7931 76.9881 92.9533 76.2135C93.8866 71.6695 94.2706 67.0135 94.0946 62.3761C94.0466 60.9281 91.5693 57.8721 89.8893 57.1788C89.0733 56.8401 88.684 55.9068 89.0226 55.0881C89.3613 54.2721 90.2946 53.8828 91.1133 54.2215C92.364 54.7388 93.852 55.9575 95.0893 57.4801C95.8867 58.4615 97.2306 60.3841 97.2946 62.2641ZM58.2467 74.6919C59.2777 74.6919 60.1134 73.6771 60.1134 72.4253C60.1134 71.1734 59.2777 70.1586 58.2467 70.1586C57.2158 70.1586 56.3801 71.1734 56.3801 72.4253C56.3801 73.6771 57.2158 74.6919 58.2467 74.6919ZM69.179 73.0534C69.179 74.3052 68.3433 75.3201 67.3124 75.3201C66.2814 75.3201 65.4457 74.3052 65.4457 73.0534C65.4457 71.8015 66.2814 70.7867 67.3124 70.7867C68.3433 70.7867 69.179 71.8015 69.179 73.0534ZM70.1716 105.469C70.2116 106.328 70.9183 106.997 71.7689 106.997C71.7929 106.997 71.8169 106.997 71.8463 106.987C72.7289 106.947 73.4116 106.197 73.3716 105.315C73.2436 102.563 73.2729 101.971 73.4436 99.288C73.4783 98.7387 73.2276 98.2107 72.7796 97.888C72.3316 97.568 71.7503 97.4987 71.2409 97.7067C68.4303 98.856 65.2489 98.4373 61.6863 97.816C58.2009 97.2027 55.6489 96.0533 53.6543 94.1973C49.9236 90.7253 48.2009 84.9467 48.9236 78.3467C49.1423 76.3707 50.0223 72.592 51.8409 67.9147C52.1609 67.0907 51.7529 66.1627 50.9289 65.8427C50.1049 65.5227 49.1769 65.9307 48.8569 66.7547C47.2169 70.9707 46.0543 75.1733 45.7423 77.9973C44.9103 85.616 46.9983 92.3733 51.4729 96.5413C53.9076 98.8053 57.0676 100.253 61.1343 100.971C63.6516 101.411 66.9156 101.979 70.1209 101.36C70.0676 102.648 70.0863 103.592 70.1716 105.469Z" fill="black"/>
<path d="M90.499 100C90.739 102.693 91.8403 108.779 95.939 107.867L96.379 108.533C96.179 112.712 94.0617 115.659 90.7443 118.712C87.3737 121.765 83.075 123.6 78.539 123.923C74.539 124.216 70.2857 123.259 67.2937 120.576C64.3017 117.893 62.7283 114.176 64.7097 110.989H64.9977C65.899 111.016 66.7283 110.544 67.491 110.064C68.4617 109.451 70.4643 106.936 71.0643 106.213C71.8643 105.176 72.1897 101.243 72.6003 100H90.499V100Z" fill="#FFD39F"/>
<path d="M96.5034 106.376C100.586 107.467 103.935 110.4 106.685 113.6C110.159 117.662 112.914 122.288 114.834 127.278C119.082 138.326 119.085 150.779 124.207 161.451C121.426 162.275 118.597 162.915 115.733 163.371L118.042 174.323C123.949 192.611 128.058 206.638 133.455 224.288C133.722 225.19 134.789 228.376 134.295 229.174C133.965 229.707 133.41 230.048 132.869 230.355C129.909 232.038 126.677 232.179 123.338 232.851L110.946 235.318C93.21 238.499 75.41 239.278 57.642 236.28L54.29 235.888L42.8234 233.694C41.7887 233.496 40.6527 233.232 40.0474 232.36C39.546 231.646 39.5487 230.704 39.586 229.832C39.738 226.366 40.138 222.926 40.538 219.483L43.6927 192.283C45.066 180.664 46.3994 168.998 48.266 157.419L48.138 157.366C45.0367 156.299 41.9834 155.115 38.9274 153.928C38.506 153.808 38.1274 153.574 37.8287 153.254C37.2287 152.48 37.7434 151.371 38.258 150.536C42.7994 143.15 46.682 135.379 49.866 127.312C52.298 121.152 54.8367 114.222 60.7727 111.286L67.5007 108.47C66.93 109.443 67.6527 112.219 68.4234 113.043C69.194 113.867 70.29 114.299 71.3567 114.643C74.9354 115.758 78.8234 116.054 82.4554 115.176C86.0874 114.299 89.482 112.168 91.6154 109.083C92.1487 108.326 92.594 107.504 93.2554 106.862C93.9167 106.219 94.8554 105.766 95.754 105.966L96.5034 106.376Z" fill="black"/>
<path fill-rule="evenodd" clip-rule="evenodd" d="M37.4743 202.815L41.4449 155.543L48.5036 155.391C46.4903 167.639 45.0556 179.993 43.6236 192.327L40.4689 219.527L40.4675 219.539C40.068 222.978 39.6688 226.414 39.5169 229.876L39.3169 230.567C37.2663 230.199 35.0103 229.591 33.9223 227.815C32.9705 226.268 33.228 224.429 33.4885 222.567C33.7142 220.955 33.9422 219.326 33.3889 217.857C33.1006 217.089 32.605 216.354 32.1165 215.629C31.1956 214.263 30.3 212.934 30.8663 211.495C31.3134 210.368 32.4444 209.842 33.5885 209.309C34.3074 208.975 35.0314 208.638 35.5943 208.148C37.0529 206.879 37.3116 204.745 37.4743 202.815ZM107.642 216.568C105.514 199.262 104.21 181.896 103.733 164.475L116.896 164.075L123.376 223.163C123.773 226.795 124.082 230.798 121.968 233.779C121.157 234.92 120.042 235.816 118.752 236.363C117.461 236.91 116.045 237.086 114.658 236.872C113.274 236.659 111.976 236.062 110.909 235.152C109.842 234.243 109.053 233.054 108.624 231.718C108.469 231.231 108.361 230.726 108.253 230.222C108.027 229.171 107.804 228.128 107.165 227.28C106.494 226.392 105.468 225.863 104.45 225.338C103.282 224.737 102.125 224.14 101.525 223.014C100.698 221.451 101.376 219.4 102.714 218.251C104.053 217.102 105.88 216.678 107.642 216.568Z" fill="#FFD39F"/>
<path fill-rule="evenodd" clip-rule="evenodd" d="M90.8204 106.526C90.8965 106.661 90.9733 106.798 91.0525 106.935C90.8978 107.156 90.7544 107.375 90.6177 107.583C90.4844 107.786 90.351 107.988 90.2044 108.199C88.375 110.844 85.3804 112.831 81.9857 113.647C78.8017 114.412 75.2604 114.239 71.7537 113.146C70.8897 112.866 70.0177 112.532 69.4977 111.975C69.1928 111.649 69.0325 111.172 69.1113 110.878C69.73 110.439 70.2131 110.003 70.5693 109.681L70.5827 109.669L70.6761 109.583C71.9908 108.397 72.3881 107.695 72.7374 106.965C72.7774 106.879 72.8174 106.797 72.8627 106.709C73.2734 105.927 72.9748 104.959 72.1934 104.546C71.4121 104.135 70.4441 104.434 70.0308 105.215C69.9641 105.343 69.9054 105.463 69.8467 105.586C69.6632 105.972 69.5125 106.286 68.779 106.98C68.3133 106.442 67.5271 106.263 66.86 106.594L62.5427 108.727C62.0186 108.986 61.6989 109.494 61.6561 110.038C61.1872 109.678 60.5361 109.592 59.9706 109.872C53.7066 112.968 50.9733 119.912 48.5626 126.04L48.2853 126.746C45.1413 134.704 41.2746 142.434 36.7946 149.72C35.664 151.557 35.552 153.082 36.464 154.258C36.4933 154.296 36.5226 154.33 36.5546 154.365C37.032 154.88 37.6373 155.258 38.3066 155.466L38.312 155.469C38.8032 155.66 39.2972 155.852 39.7936 156.044L35.8767 202.675C35.7274 204.438 35.5141 206.089 34.5407 206.937C34.1487 207.278 33.5487 207.558 32.9114 207.854L32.9039 207.858C31.6359 208.449 30.0567 209.186 29.3754 210.905C28.5034 213.126 29.77 215.006 30.7887 216.518L30.7887 216.518L30.8282 216.577C31.2643 217.227 31.6752 217.84 31.8901 218.417C32.3007 219.505 32.1087 220.883 31.9034 222.342C31.6234 224.342 31.3061 226.611 32.5567 228.646C33.7793 230.641 35.9297 231.473 38.0483 231.941C38.1614 232.418 38.3518 232.89 38.6641 233.335C39.6668 234.759 41.3974 235.109 42.4481 235.319L52.2001 237.186C52.3014 237.205 52.4028 237.215 52.5014 237.215C53.2534 237.215 53.9254 236.682 54.0694 235.919C54.2374 235.053 53.6668 234.213 52.8001 234.047L43.0614 232.183C42.4961 232.071 41.5468 231.879 41.2801 231.501C41.0534 231.181 41.0881 230.386 41.1068 229.962C41.2585 226.559 41.6603 223.094 42.0491 219.742L42.0491 219.741L42.0508 219.727L45.2054 192.527L45.2828 191.861L45.29 191.798C47.4744 173.098 49.7329 153.763 54.1068 135.197C54.3094 134.335 53.7761 133.474 52.9174 133.271C52.0534 133.066 51.1948 133.602 50.9921 134.461C49.373 141.333 48.0424 148.297 46.8983 155.287C44.4145 154.398 41.9313 153.434 39.5148 152.496L39.472 152.48L39.408 152.456L39.4078 152.456C39.3625 152.44 39.3172 152.424 39.2693 152.41C39.2 152.392 39.136 152.362 39.0773 152.328C39.112 152.178 39.216 151.888 39.52 151.394C44.0986 143.949 48.0506 136.05 51.2613 127.92L51.5413 127.21C53.848 121.349 56.2346 115.288 61.3893 112.741C61.9133 112.482 62.233 111.974 62.2759 111.43C62.4599 111.571 62.6721 111.67 62.8961 111.721C62.4244 112.102 62.1916 112.735 62.3513 113.361C63.0819 116.238 65.6446 117.934 67.9886 119.297C70.2793 120.63 72.9139 120.891 75.2046 121.033C76.3006 121.102 77.5059 121.155 78.7753 121.155C81.4126 121.155 84.3326 120.923 87.1353 120.094C91.9753 118.667 95.0686 114.161 96.4819 111.603C96.9086 110.83 96.6286 109.857 95.8553 109.43C95.0819 109.003 94.1086 109.283 93.6819 110.057C92.5059 112.185 89.9753 115.921 86.2313 117.025C82.5726 118.105 78.7006 118.043 75.3993 117.841C73.4766 117.721 71.2819 117.513 69.5966 116.531C67.8153 115.497 65.8793 114.249 65.4526 112.574C65.306 111.991 64.8573 111.566 64.3164 111.421L65.9156 110.631C65.7865 111.846 66.2223 113.157 67.1617 114.162C68.1804 115.25 69.5004 115.78 70.7884 116.196C73.1777 116.943 75.5884 117.316 77.9297 117.316C79.5777 117.316 81.1884 117.132 82.7377 116.759C86.887 115.759 90.567 113.303 92.831 110.031C92.9909 109.804 93.1428 109.573 93.2947 109.341L93.2948 109.341L93.2949 109.341L93.295 109.34L93.3038 109.327C93.6259 108.836 93.9302 108.372 94.2764 108.036C94.6162 107.704 95.0446 107.503 95.3018 107.552C95.4915 107.737 95.7299 107.878 96.0041 107.951C99.1641 108.797 102.233 110.999 105.383 114.679C108.748 118.613 111.396 123.058 113.255 127.89C115.129 132.762 116.185 138.063 117.207 143.194L117.208 143.2L117.208 143.2C118.357 148.966 119.541 154.908 121.897 160.45C113.807 162.602 105.511 163.189 97.1934 162.197L97.8814 138.09C97.9054 137.207 97.2094 136.469 96.3268 136.445C95.4441 136.413 94.7054 137.117 94.6814 137.999L93.9534 163.551C93.9294 164.365 94.5214 165.066 95.3294 165.181C97.6119 165.502 99.893 165.709 102.17 165.804C102.661 182.242 103.901 198.837 105.861 215.171C104.157 215.483 102.752 216.107 101.672 217.035C99.6637 218.758 98.9944 221.649 100.112 223.763C100.945 225.33 102.415 226.087 103.712 226.756L103.717 226.758C104.602 227.214 105.437 227.646 105.888 228.241C106.312 228.806 106.488 229.617 106.688 230.555C106.8 231.089 106.92 231.638 107.098 232.203C107.327 232.915 107.64 233.592 108.029 234.221C89.9751 237.222 73.5257 237.391 57.821 234.741C56.949 234.592 56.125 235.181 55.9783 236.053C55.8317 236.923 56.4183 237.749 57.2903 237.896C64.8423 239.171 72.5543 239.808 80.525 239.808C90.1604 239.808 100.172 238.873 110.712 237.007C111.821 237.753 113.083 238.247 114.413 238.451C114.88 238.523 115.346 238.558 115.813 238.558C117.034 238.558 118.245 238.315 119.381 237.835C120.946 237.171 122.293 236.089 123.277 234.702C123.291 234.682 123.306 234.661 123.32 234.641C123.334 234.621 123.348 234.6 123.363 234.579L123.391 234.538L123.43 234.479C123.475 234.475 123.52 234.468 123.565 234.46C124.321 234.306 125.091 234.18 125.841 234.057L125.843 234.056L125.933 234.041L125.938 234.041L125.939 234.041C128.47 233.625 131.087 233.195 133.568 231.785C134.259 231.393 135.04 230.905 135.568 230.052C136.259 228.932 135.904 227.135 135.005 224.212C134.963 224.079 134.928 223.964 134.896 223.857C133.421 219.033 132.035 214.46 130.696 210.036L130.584 209.666L130.583 209.665L130.583 209.664L130.582 209.661C127.108 198.194 123.812 187.318 119.641 174.385L118.558 164.515C120.575 164.11 122.583 163.614 124.577 163.029C125.025 162.895 125.393 162.573 125.585 162.143C125.777 161.714 125.769 161.226 125.567 160.802C122.855 155.153 121.641 149.063 120.356 142.617L120.348 142.575C119.3 137.314 118.215 131.874 116.244 126.746C114.255 121.573 111.42 116.813 107.817 112.602C104.233 108.413 100.639 105.879 96.8334 104.861C96.814 104.855 96.7947 104.851 96.7753 104.846C96.5697 104.646 96.3077 104.498 96.007 104.431C95.1854 104.249 94.3081 104.364 93.4867 104.741C93.2982 104.405 93.0851 104.038 92.8257 103.654C92.3324 102.923 91.3377 102.729 90.6044 103.222C89.8737 103.715 89.679 104.71 90.1724 105.443C90.403 105.785 90.5998 106.135 90.7904 106.473L90.7906 106.473L90.8204 106.526ZM124.896 230.966C125.071 230.938 125.244 230.909 125.416 230.881L125.438 230.878C127.787 230.492 130.006 230.129 131.987 229.001L132.022 228.981C132.24 228.856 132.554 228.677 132.736 228.497C132.731 228.103 132.571 227.196 131.944 225.153L131.914 225.058C131.881 224.951 131.852 224.857 131.829 224.78C130.357 219.967 128.971 215.391 127.632 210.964L127.518 210.589L127.518 210.589L127.517 210.586L127.516 210.582C125.493 203.904 123.532 197.428 121.422 190.629L124.97 222.985L124.971 222.989C125.211 225.187 125.535 228.151 124.896 230.966ZM116.383 174.042C116.33 174.303 116.341 174.581 116.429 174.852L116.494 175.053L121.789 223.334C122.186 226.958 122.397 230.411 120.666 232.851C120.026 233.753 119.152 234.457 118.133 234.889C117.114 235.318 116 235.457 114.906 235.289C113.816 235.121 112.792 234.651 111.952 233.934C111.112 233.214 110.488 232.278 110.152 231.23C110.027 230.837 109.934 230.407 109.836 229.953L109.821 229.883L109.82 229.88C109.575 228.737 109.298 227.442 108.445 226.313C107.557 225.138 106.304 224.491 105.198 223.919L105.186 223.913L105.175 223.907C104.172 223.389 103.305 222.942 102.944 222.262C102.522 221.467 102.888 220.211 103.76 219.462C104.634 218.71 105.976 218.273 107.744 218.163C108.184 218.137 108.592 217.929 108.874 217.59C109.157 217.249 109.285 216.809 109.232 216.371C107.178 199.672 105.881 182.688 105.374 165.862C108.732 165.846 112.078 165.582 115.4 165.073L116.383 174.042ZM42.1132 191.407C43.3794 180.569 44.6704 169.518 46.3842 158.509C45.2199 158.098 44.0586 157.67 42.9052 157.236L39.0661 202.942C38.8687 205.289 38.5194 207.715 36.6421 209.347C35.9087 209.985 35.0341 210.393 34.2607 210.753L34.2583 210.754C33.3473 211.177 32.5619 211.543 32.3514 212.078C32.1114 212.686 32.6047 213.486 33.4421 214.729C33.9781 215.523 34.5301 216.345 34.8847 217.289C35.5787 219.134 35.3103 221.064 35.0735 222.767L35.0714 222.782L35.0714 222.782C34.8367 224.462 34.6341 225.913 35.2821 226.969C35.7986 227.81 36.8272 228.301 37.9738 228.625C38.1573 225.531 38.5143 222.446 38.861 219.45L38.8721 219.354L42.1041 191.485L42.1132 191.407Z" fill="black"/>
</svg>
