<svg width="160" height="260" viewBox="0 0 160 260" fill="none" xmlns="http://www.w3.org/2000/svg">
<path d="M100.111 73.6012C99.8818 72.1079 98.4552 71.1292 97.1165 70.4306C95.7778 69.7319 94.2818 69.0146 93.6658 67.6332C92.5138 65.0546 95.1485 61.9159 93.9832 59.3426C93.4632 58.1932 92.2658 57.4759 91.0338 57.1906C89.8018 56.9052 88.5218 57.0279 87.2632 57.1399L83.9538 55.4119C81.7378 51.8732 76.9005 50.7452 72.8232 51.6572C68.7458 52.5692 65.2472 55.0972 61.8658 57.5559L51.2765 65.2759C49.5538 66.5319 47.1192 67.7906 45.4738 66.4332C43.0205 64.4119 46.0072 59.7879 43.9032 57.4146C43.3992 56.8492 42.6792 56.5292 42.1032 56.0359C40.5032 54.6546 40.3032 52.2386 40.5272 50.1292C41.3938 41.9879 46.7725 34.5986 54.0018 30.7559C61.2312 26.9132 70.0818 26.5292 77.8312 29.1559C82.2792 30.6706 86.8498 33.7906 87.4045 38.4546L90.3618 39.4172C93.9938 36.2172 99.5378 36.9319 104.202 38.1932C107.549 39.0972 110.882 40.2146 113.802 42.0786C116.722 43.9426 119.226 46.6359 120.311 49.9292C120.981 51.9559 121.111 54.1959 122.277 55.9932C123.031 57.1612 124.157 58.0412 124.986 59.1559C127.367 62.3559 126.618 67.4439 123.413 69.8226C121.863 70.9719 119.786 71.6306 118.922 73.3586C118.199 74.8066 118.53 76.6892 117.535 77.9639C116.087 79.8172 112.735 79.2786 111.469 81.2599C111.119 81.8066 110.989 82.4812 110.575 82.9799C110.162 83.4786 109.242 83.6706 108.925 83.1106L101.101 83.4679L100.111 73.6012Z" fill="black"/>
<path d="M50.3489 67.3393C48.6289 71.7633 47.5942 75.758 47.3329 78.1767C46.6742 84.2673 47.9036 91.0353 52.5622 95.374C55.0449 97.6833 58.1196 98.8193 61.4076 99.398C64.8369 100.003 68.5169 100.555 71.8449 99.1953C71.6689 101.971 71.6422 103.686 71.7702 106.465L90.5329 104.534C90.2289 100.883 90.9436 97.8647 92.5329 94.5633C92.8929 93.8167 93.6662 93.8247 94.4316 93.582C95.1116 93.3687 95.7782 93.1233 96.4369 92.846C97.7729 92.2913 99.0369 91.574 100.197 90.7127C102.496 88.9767 104.288 86.5393 104.96 83.7127C105.57 81.15 105.141 78.0993 102.293 76.6567C100.285 75.6433 98.4849 76.0033 95.4262 78.6913L100.136 73.6247C99.9062 72.1313 98.4796 71.1527 97.1409 70.454C95.8022 69.7553 94.3062 69.038 93.6902 67.6567C92.5382 65.078 95.1729 61.9393 94.0076 59.366C93.4876 58.2167 92.2902 57.4993 91.0582 57.214C89.8262 56.9287 88.5462 57.0513 87.2876 57.1633L83.9782 55.4353C81.7622 51.8967 76.9249 50.7687 72.8476 51.6807C68.7702 52.5927 65.2476 55.0967 61.8662 57.5553L51.2769 65.2753" fill="#FFD39F"/>
<path fill-rule="evenodd" clip-rule="evenodd" d="M47.1533 68.6277C45.9746 68.6277 45.0893 68.193 44.4546 67.6677C42.5278 66.0794 42.7796 63.6708 42.9822 61.7327L42.9826 61.729C43.124 60.377 43.2573 59.097 42.7053 58.4757C42.5479 58.2997 42.2679 58.113 41.9719 57.9157C41.6919 57.729 41.372 57.5157 41.0626 57.2517C39.324 55.7504 38.5906 53.2304 38.9373 49.961C39.844 41.457 45.3266 33.5557 53.2519 29.345C60.5959 25.441 69.9746 24.8064 78.3453 27.6437C84.4706 29.729 88.4493 33.7024 88.9933 38.2677C89.0973 39.145 88.4706 39.9424 87.5933 40.0464C86.716 40.1504 85.9213 39.5237 85.8146 38.6464C85.2306 33.7344 79.1613 31.3024 77.3133 30.673C69.7639 28.1157 61.3293 28.6757 54.7506 32.1717C47.7506 35.8917 42.9106 42.8384 42.1159 50.3024C41.9559 51.8224 42.0013 53.841 43.1453 54.8277C43.3026 54.961 43.5159 55.105 43.7399 55.2544L43.7448 55.2576C44.173 55.5422 44.6616 55.8669 45.092 56.353C46.5809 58.0311 46.3485 60.2651 46.1619 62.0587L46.1613 62.065C45.9906 63.7077 45.9266 64.7397 46.4866 65.201C47.4333 65.9824 49.668 64.4677 50.3293 63.985L60.9186 56.265L60.9315 56.2557L60.9315 56.2557L60.9315 56.2557C64.2564 53.8393 68.0204 51.1038 72.468 50.1077C77.9506 48.881 82.4333 50.3157 84.7666 54.041C85.236 54.7904 85.0093 55.777 84.26 56.2464C83.5106 56.7157 82.524 56.489 82.0546 55.7397C79.8253 52.1797 75.0946 52.7984 73.1666 53.2304C69.3613 54.081 66.0253 56.505 62.8013 58.8517L52.2146 66.5717C52.0966 66.6578 51.9799 66.7408 51.8646 66.8206C51.9816 67.1647 51.9827 67.5503 51.8409 67.9154C50.0223 72.5928 49.1423 76.3714 48.9236 78.3474C48.2009 84.9474 49.9236 90.7261 53.6543 94.1981C55.6489 96.0541 58.2009 97.2034 61.6863 97.8168C65.2489 98.4381 68.4303 98.8568 71.2409 97.7074C71.7503 97.4994 72.3316 97.5688 72.7796 97.8888C73.2276 98.2114 73.4783 98.7394 73.4436 99.2888C73.2729 101.971 73.2436 102.563 73.3716 105.315C73.4116 106.198 72.7289 106.947 71.8463 106.987C71.8169 106.998 71.7929 106.998 71.7689 106.998C70.9183 106.998 70.2116 106.329 70.1716 105.47C70.0863 103.593 70.0676 102.649 70.1209 101.361C66.9156 101.979 63.6516 101.411 61.1343 100.971C57.0676 100.254 53.9076 98.8061 51.4729 96.5421C46.9983 92.3741 44.9103 85.6168 45.7423 77.9981C46.0106 75.5694 46.9081 72.1211 48.1972 68.5216C47.8261 68.5947 47.4784 68.6277 47.1533 68.6277ZM109.575 85.0629C109.498 85.0629 109.423 85.0602 109.349 85.0522C108.57 84.9829 107.911 84.5669 107.538 83.9109C107.103 83.1429 107.373 82.1669 108.141 81.7296C108.581 81.4789 109.093 81.4629 109.527 81.6389C109.559 81.5642 109.594 81.4842 109.629 81.4069L109.639 81.3829C109.764 81.0874 109.907 80.7523 110.125 80.4122C111.101 78.8869 112.762 78.4016 114.095 78.0122C115.021 77.7429 115.895 77.4869 116.279 76.9935C116.578 76.6129 116.68 75.9701 116.799 75.2238L116.802 75.2042L116.807 75.1757C116.931 74.3933 117.071 73.5085 117.495 72.6575C118.304 71.0394 119.77 70.1862 121.064 69.4327L121.071 69.4282C121.578 69.1349 122.055 68.8549 122.466 68.5509C123.655 67.6682 124.477 66.2202 124.719 64.5775C124.962 62.9349 124.594 61.3109 123.711 60.1242C123.399 59.7056 123.015 59.3002 122.607 58.8736L122.6 58.8656L122.6 58.8655L122.6 58.8654C122.029 58.2652 121.437 57.6434 120.941 56.8735C120.021 55.4549 119.663 53.9135 119.319 52.4229L119.309 52.3781L119.309 52.3779C119.15 51.6959 119 51.0522 118.799 50.4442C117.919 47.7749 115.842 45.2869 112.949 43.4415C110.039 41.5829 106.687 40.5349 103.791 39.7509C98.234 38.2469 94.762 38.5749 92.1833 40.8495C91.5193 41.4335 90.5086 41.3695 89.9246 40.7055C89.3406 40.0415 89.4046 39.0309 90.0686 38.4469C94.474 34.5669 100.162 35.4549 104.626 36.6602C107.754 37.5055 111.394 38.6522 114.669 40.7429C118.181 42.9855 120.727 46.0735 121.837 49.4415C122.087 50.1992 122.262 50.9595 122.432 51.6961L122.432 51.6964L122.434 51.7029C122.73 52.9802 123.01 54.1882 123.623 55.1349C123.96 55.6538 124.422 56.1411 124.911 56.6569L124.922 56.6682L124.959 56.7073L124.959 56.7073L124.959 56.7074C125.401 57.1726 125.859 57.6546 126.274 58.2149C127.661 60.0789 128.247 62.5669 127.882 65.0442C127.517 67.5215 126.237 69.7376 124.37 71.1216C123.819 71.5314 123.242 71.8668 122.683 72.1915L122.679 72.1936C121.639 72.7989 120.738 73.3242 120.357 74.0869C120.152 74.4959 120.061 75.0646 119.964 75.6691L119.964 75.6692L119.959 75.7002C119.797 76.7402 119.61 77.9216 118.799 78.9616C117.778 80.2682 116.298 80.7002 114.991 81.0815C114.002 81.3695 113.149 81.6202 112.821 82.1349C112.743 82.2575 112.661 82.4496 112.575 82.6549C112.407 83.0549 112.197 83.5509 111.813 84.0149C111.271 84.6655 110.413 85.0629 109.575 85.0629ZM98.5294 73.8432C98.5802 74.1783 98.7316 74.4728 98.9483 74.7011C97.6772 75.0388 96.1801 75.8672 94.3453 77.4799C93.6813 78.0639 93.6147 79.0745 94.1987 79.7385C94.7827 80.4025 95.7933 80.4692 96.4573 79.8852C99.388 77.3092 100.457 77.5252 101.548 78.0772C104.047 79.3385 103.663 82.1705 103.38 83.3359C102.831 85.6505 101.348 87.8132 99.22 89.4212C98.164 90.2052 97.0147 90.8585 95.7907 91.3652C95.1853 91.6212 94.5587 91.8505 93.924 92.0505C93.8272 92.0821 93.7188 92.1087 93.604 92.1368L93.5107 92.1599C92.8227 92.3252 91.6733 92.6025 91.0653 93.8639C89.4067 97.3199 88.6253 99.1572 88.964 103.173C89.0333 104.011 89.7347 104.64 90.556 104.64C90.6013 104.64 90.6467 104.637 90.6947 104.627C91.5747 104.552 92.228 103.779 92.1533 102.899C91.8867 99.7625 92.3613 98.5599 93.8947 95.3599C93.9704 95.3353 94.0776 95.3092 94.1764 95.2851C94.2063 95.2778 94.2354 95.2707 94.2627 95.2639C94.4493 95.2185 94.6627 95.1652 94.884 95.0959C95.612 94.8692 96.3347 94.6025 97.0253 94.3119C98.4813 93.7092 99.8627 92.9252 101.137 91.9785C103.868 89.9172 105.769 87.1092 106.489 84.0799C107.433 80.1812 106.092 76.7865 102.988 75.2185C102.475 74.9597 101.934 74.7392 101.342 74.6164C101.62 74.2776 101.758 73.8261 101.687 73.3579C101.337 71.0726 99.3321 69.7819 97.8521 69.0112L97.6361 68.8992C96.5774 68.3499 95.4814 67.7792 95.1241 66.9819C94.7781 66.2076 95.0668 65.0881 95.3727 63.9016L95.3747 63.8939C95.7881 62.2966 96.2547 60.4859 95.4387 58.6832C94.7614 57.1819 93.2867 56.0699 91.3934 55.6326C89.9416 55.2943 88.4872 55.4243 87.2055 55.5389L87.2014 55.5392L87.1214 55.5472C86.2414 55.6272 85.5934 56.4032 85.6707 57.2832C85.7507 58.1632 86.5241 58.8139 87.4067 58.7339L87.4867 58.7259L87.4903 58.7256L87.4904 58.7256C88.6357 58.6244 89.7171 58.5288 90.6734 58.7499C91.5587 58.9552 92.2707 59.4352 92.5267 60.0032C92.8752 60.7774 92.6 61.8462 92.281 63.0852L92.2787 63.0939L92.2771 63.1001C91.8668 64.6906 91.4024 66.4909 92.204 68.2859C93.0147 70.1046 94.7614 71.0112 96.1641 71.7392L96.3747 71.8486C97.7267 72.5526 98.4307 73.2059 98.5294 73.8432ZM58.2467 74.6958C59.2777 74.6958 60.1134 73.681 60.1134 72.4292C60.1134 71.1773 59.2777 70.1625 58.2467 70.1625C57.2158 70.1625 56.3801 71.1773 56.3801 72.4292C56.3801 73.681 57.2158 74.6958 58.2467 74.6958ZM69.1806 73.0542C69.1806 74.306 68.3449 75.3208 67.3139 75.3208C66.283 75.3208 65.4473 74.306 65.4473 73.0542C65.4473 71.8023 66.283 70.7875 67.3139 70.7875C68.3449 70.7875 69.1806 71.8023 69.1806 73.0542Z" fill="black"/>
<path fill-rule="evenodd" clip-rule="evenodd" d="M95.9394 107.867C91.8407 108.779 90.7394 102.693 90.4994 100H72.6007C72.4528 100.448 72.3159 101.245 72.1639 102.13C71.894 103.701 71.5765 105.55 71.0647 106.213C70.9974 106.294 70.9124 106.398 70.8131 106.519C70.0282 107.476 68.3531 109.52 67.4914 110.064C66.7287 110.544 65.8994 111.016 64.9981 110.989H64.7101C62.7287 114.176 64.3021 117.893 67.2941 120.576C70.2861 123.259 74.5394 124.216 78.5394 123.923C83.0754 123.6 87.3741 121.765 90.7447 118.712C94.0621 115.659 96.1794 112.712 96.3794 108.533L95.9394 107.867ZM100.172 142.665L100.542 143.086C100.316 162.195 102.285 181.287 104.29 200.738V200.738L104.291 200.74C104.834 206.012 105.38 211.31 105.886 216.641C104.961 216.718 104.081 217.078 103.372 217.676C102.66 218.273 102.15 219.076 101.916 219.974C101.678 220.873 101.729 221.822 102.054 222.692C102.38 223.561 102.969 224.308 103.737 224.83C104.174 225.126 104.657 225.342 105.14 225.558L105.14 225.558C105.572 225.75 106.004 225.943 106.404 226.193C108.288 227.368 109.15 229.544 110.005 231.705C110.914 234.002 111.817 236.282 113.934 237.324C116.966 238.814 120.766 236.54 122.14 233.449C123.513 230.358 123.137 226.814 122.729 223.46C120.988 209.188 116.836 167.382 116.11 158.633C116.11 158.633 112.633 126.292 111.737 122.577C110.841 118.862 107.804 115.684 105.036 113.049L104.438 112.663C102.569 117.39 97.4224 137.649 100.172 142.665ZM57.4057 115.94L57.899 114.409C56.3364 114.836 55.1577 116.103 54.1657 117.377C51.0804 121.321 49.451 126.324 48.683 131.271C48.1314 134.825 47.5057 138.819 46.8301 143.131L46.8301 143.131C43.7789 162.604 39.7103 188.57 36.859 209.927C35.9977 209.823 35.123 209.972 34.3417 210.351C33.5604 210.729 32.9044 211.327 32.4537 212.068C32.003 212.809 31.771 213.665 31.7924 214.532C31.811 215.401 32.0804 216.244 32.5657 216.964C32.6906 217.147 32.8289 217.321 32.9672 217.496L32.9672 217.496C33.1478 217.724 33.3282 217.951 33.4777 218.196C34.1524 219.321 34.115 220.721 34.035 222.033L34.0217 222.251C33.8753 224.636 33.7221 227.131 34.7444 229.284C35.7977 231.503 38.6137 233.095 40.771 231.921C42.275 231.1 42.9204 229.313 43.4377 227.681C44.1657 225.527 44.7844 223.335 45.2884 221.116C45.8617 218.383 48.2217 206.255 48.451 203.468L46.3124 202.42C46.3124 202.42 53.995 145.025 57.4057 115.94Z" fill="#FFD39F"/>
<path d="M100.17 142.667C97.4211 137.651 102.568 117.393 104.434 112.665C104.624 112.302 104.365 112.547 104.322 112.142C104.192 111.521 98.8451 108.145 96.4505 107.867C95.9971 112.401 94.0985 115.63 90.7411 118.713C87.3705 121.766 83.0718 123.601 78.5358 123.923C74.5358 124.217 70.2825 123.259 67.2905 120.577C64.2985 117.894 62.8905 113.297 64.8718 110.118L59.4665 112.598C58.8238 112.891 58.1331 113.217 57.7678 113.817C57.4025 114.417 57.5011 115.219 57.4211 115.95C53.9998 145.035 45.3358 200.785 46.1091 200.87C63.9971 202.987 87.1118 204.894 104.448 199.998H104.49C103.066 180.798 100.333 161.961 100.562 143.094" fill="black"/>
<path fill-rule="evenodd" clip-rule="evenodd" d="M95.4951 106.584C95.8207 106.342 96.2286 106.233 96.6317 106.279C98.349 106.479 100.752 107.751 102.032 108.492C105.061 110.247 105.65 111.074 105.821 111.57C105.85 111.614 105.877 111.66 105.903 111.707C105.986 111.761 106.066 111.823 106.14 111.895C109.287 114.887 112.332 118.209 113.295 122.207C114.202 125.98 117.559 157.14 117.7 158.465C117.7 158.479 117.703 158.492 117.703 158.505C118.455 167.575 122.594 209.151 124.316 223.271L124.317 223.273C124.709 226.499 125.196 230.511 123.602 234.103C122.631 236.289 120.65 238.145 118.431 238.951C117.61 239.239 116.783 239.388 115.978 239.388C115.012 239.388 114.076 239.177 113.226 238.759C110.556 237.445 109.473 234.712 108.516 232.297L108.514 232.292L108.509 232.281C107.727 230.306 106.988 228.442 105.554 227.548C105.253 227.36 104.891 227.197 104.507 227.025L104.484 227.015L104.451 227C103.947 226.774 103.377 226.519 102.836 226.151C101.788 225.439 100.999 224.436 100.554 223.249C100.108 222.063 100.044 220.788 100.367 219.564C100.69 218.34 101.372 217.263 102.343 216.447C102.89 215.988 103.503 215.633 104.162 215.393C103.731 210.93 103.271 206.449 102.821 202.079C95.1374 203.977 86.4654 204.668 77.661 204.668C68.2015 204.668 58.5855 203.87 49.8586 202.908C49.2343 207.662 47.3873 218.9 46.8558 221.44C46.8544 221.444 46.8538 221.449 46.8531 221.453C46.8524 221.458 46.8518 221.463 46.8504 221.466C46.3358 223.725 45.7011 225.981 44.9598 228.173C44.4878 229.664 43.6958 232.141 41.5384 233.32C40.8158 233.72 40.0104 233.917 39.1784 233.917C38.6051 233.917 38.0184 233.824 37.4371 233.635C35.6851 233.064 34.0984 231.661 33.2984 229.973C32.0995 227.45 32.2714 224.642 32.4233 222.161L32.4238 222.154L32.4371 221.938C32.5064 220.808 32.5331 219.736 32.1038 219.021C32.0203 218.884 31.8893 218.717 31.7483 218.537L31.7482 218.537L31.7118 218.491C31.5651 218.307 31.3998 218.099 31.2424 217.869C30.5784 216.885 30.2158 215.749 30.1891 214.571C30.1624 213.395 30.4718 212.24 31.0851 211.235C31.6984 210.229 32.5811 209.427 33.6398 208.912C34.2158 208.632 34.8291 208.445 35.4558 208.354C38.273 187.677 41.9827 163.923 44.9765 144.752L44.9811 144.722L45.4181 141.922L45.4185 141.92C46.0309 137.995 46.602 134.336 47.1118 131.029C48.0318 125.066 49.9838 120.141 52.9144 116.394C53.7756 115.288 54.8175 114.115 56.1949 113.384C56.2521 113.25 56.3197 113.117 56.3997 112.986C57.026 111.956 58.0856 111.47 58.7897 111.148L58.7997 111.143L64.205 108.666C64.8146 108.387 65.5299 108.517 65.9978 108.984C67.0678 108.525 67.8451 107.824 68.4184 107.307L68.4284 107.298L68.5244 107.21C69.5537 106.282 69.663 106.034 69.8817 105.536C69.8986 105.496 69.9162 105.457 69.9342 105.417C69.9503 105.381 69.9667 105.344 69.983 105.306C70.3484 104.501 71.295 104.144 72.1004 104.509C72.9057 104.874 73.263 105.821 72.8977 106.626L72.8097 106.824C72.4337 107.68 72.103 108.296 70.6657 109.589L70.5724 109.672L70.5689 109.675C69.6834 110.475 68.1083 111.899 65.6603 112.443C65.224 114.674 66.2519 117.498 68.357 119.388C70.7677 121.551 74.4343 122.623 78.4183 122.33C82.581 122.034 86.5757 120.33 89.6663 117.53C92.3456 115.07 93.8726 112.639 94.5428 109.67C92.3287 109.213 91.502 107.741 90.8239 106.53L90.7941 106.477L90.794 106.477C90.6034 106.139 90.4065 105.789 90.1759 105.447C89.6826 104.714 89.8772 103.719 90.6079 103.226C91.3412 102.733 92.3359 102.927 92.8292 103.658C93.1466 104.127 93.3946 104.57 93.6132 104.962L93.6162 104.967C94.2625 106.118 94.4663 106.481 95.4951 106.584ZM48.5838 199.541C48.6401 199.546 48.6954 199.553 48.7498 199.563C65.777 201.496 86.5162 202.928 102.49 198.863C100.544 179.961 98.7646 162.016 98.9365 143.692C98.8716 143.614 98.8131 143.529 98.7623 143.436C97.3783 140.914 97.4557 135.471 98.9944 127.263C100.064 121.556 101.645 115.66 102.693 112.735C101.797 112.02 99.509 110.634 97.7597 109.908C97.0023 113.719 95.1223 116.858 91.821 119.887C88.1943 123.172 83.5197 125.17 78.6477 125.516C73.805 125.868 69.277 124.503 66.221 121.764C63.8637 119.65 62.213 116.26 62.3677 113.023L60.1303 114.05L60.1175 114.055C59.9413 114.137 59.7072 114.244 59.5087 114.356C59.5249 114.801 59.3536 115.227 59.0502 115.536C59.0424 115.72 59.0309 115.919 59.0077 116.122C59.0023 116.172 58.9943 116.223 58.9837 116.271C53.7757 141.524 48.0983 191.002 47.6637 199.439C47.9484 199.472 48.2342 199.505 48.5211 199.537C48.542 199.538 48.5628 199.54 48.5838 199.541ZM47.7837 168.226C48.9869 158.57 52.0268 135.249 55.2595 118.599C52.7671 121.887 51.0922 126.23 50.2744 131.52C49.7455 134.953 49.1507 138.765 48.5121 142.857L48.5119 142.859L48.1438 145.218C45.0851 164.802 41.2798 189.176 38.4451 210.141C38.3278 211.008 37.5358 211.616 36.6718 211.514C36.1118 211.448 35.5491 211.544 35.0424 211.789C34.5358 212.035 34.1118 212.419 33.8211 212.901C33.5278 213.381 33.3811 213.933 33.3918 214.496C33.4051 215.058 33.5784 215.603 33.8931 216.069C33.9811 216.197 34.0984 216.347 34.2211 216.501L34.2535 216.542L34.2536 216.542C34.4428 216.783 34.6533 217.05 34.8424 217.36C35.7464 218.869 35.7278 220.544 35.6318 222.128L35.6184 222.346C35.4824 224.544 35.3438 226.816 36.1891 228.595C36.6211 229.501 37.4984 230.285 38.4291 230.587C38.8398 230.72 39.4478 230.816 40.0078 230.512C40.9598 229.992 41.4718 228.587 41.9144 227.195C41.9171 227.184 41.9198 227.176 41.9251 227.165C42.6318 225.075 43.2371 222.923 43.7278 220.771C44.2421 218.308 46.0746 207.139 46.6798 202.547C46.4255 202.517 46.1721 202.487 45.9197 202.458C45.477 202.404 45.061 202.159 44.797 201.799C44.3623 201.202 44.1837 200.954 45.189 190.932C45.8183 184.66 46.7383 176.596 47.7837 168.226ZM102.141 127.852C103.063 122.929 104.287 118.28 105.177 115.421C107.49 117.741 109.53 120.242 110.183 122.953C110.868 125.812 113.316 147.631 114.516 158.785C115.274 167.913 119.415 209.516 121.14 223.652C121.578 227.257 121.823 230.22 120.676 232.799C120.055 234.196 118.746 235.428 117.338 235.937C116.655 236.185 115.634 236.375 114.639 235.887C113.08 235.12 112.312 233.182 111.497 231.128L111.492 231.116L111.491 231.113C110.595 228.849 109.582 226.289 107.252 224.836C106.756 224.527 106.244 224.297 105.791 224.095C105.359 223.903 104.951 223.721 104.634 223.505C104.138 223.167 103.762 222.692 103.551 222.129C103.34 221.567 103.311 220.961 103.463 220.38C103.615 219.799 103.938 219.289 104.399 218.903C104.86 218.516 105.418 218.284 106.018 218.236C106.444 218.201 106.839 217.996 107.114 217.668C107.388 217.34 107.519 216.916 107.479 216.489C106.976 211.184 106.425 205.842 105.892 200.675C106.05 200.339 106.093 199.945 105.984 199.559C105.928 199.363 105.838 199.186 105.723 199.032C103.745 179.827 101.922 161.628 102.143 143.105C102.149 142.591 101.911 142.13 101.537 141.833C101.152 141.059 100.247 137.977 102.141 127.852ZM46.285 199.279C46.2887 199.279 46.2924 199.28 46.2964 199.28C46.301 199.281 46.306 199.282 46.3117 199.282L46.3067 199.281L46.3038 199.28C46.2968 199.279 46.2909 199.279 46.285 199.279Z" fill="black"/>
</svg>
