<svg width="160" height="260" viewBox="0 0 160 260" fill="none" xmlns="http://www.w3.org/2000/svg">
<path fill-rule="evenodd" clip-rule="evenodd" d="M82.5199 53.0077C85.1492 50.4184 86.8292 47.0424 88.4586 43.7331C92.4266 35.6744 82.1332 31.6717 76.0186 31.4077C63.0986 30.8451 50.1839 38.5731 44.5839 50.2291C44.3234 50.7712 44.0663 51.3309 43.8063 51.8969C42.0627 55.6929 40.1895 59.771 36.2746 60.7411C35.7151 60.8801 35.1329 60.9443 34.5528 61.0081C33.6091 61.112 32.6709 61.2153 31.8452 61.6397C30.5119 62.3251 29.7679 64.4904 31.0452 65.2904C31.4719 65.5117 31.9466 65.6291 32.4266 65.6317L38.6426 66.1491C38.0292 68.3437 38.0826 71.6184 40.3466 71.8664C41.3039 71.9704 42.1866 71.3811 42.9332 70.7731C43.6005 70.2275 44.4316 69.7097 45.2854 69.1776C46.844 68.2064 48.4787 67.1878 49.3332 65.8664C50.1095 64.6653 50.4621 63.2855 50.8114 61.9185C51.2361 60.2565 51.656 58.6133 52.8266 57.3331C56.2666 53.5997 62.0452 52.2264 66.7946 54.0477C67.561 54.3357 68.2997 54.6988 69.0377 55.0616C70.1587 55.6128 71.2781 56.1631 72.4906 56.4477C76.0826 57.2904 79.8906 55.5971 82.5199 53.0077ZM109.912 51.7474C106.824 45.6327 96.8585 41.3927 89.9999 41.4674C89.9999 41.4674 84.9705 50.8434 83.4665 52.6674C81.4159 55.166 74.9332 57.734 74.9332 57.734C76.196 58.3169 77.6711 58.5812 79.2391 58.8623C81.9757 59.3527 84.9955 59.894 87.6639 62.2674C89.7945 64.6914 90.7519 68.0274 90.5599 71.2487C90.5323 71.712 90.4823 72.1773 90.4324 72.6425C90.299 73.8858 90.1655 75.129 90.4585 76.334C90.8612 77.99 92.4719 79.5394 94.1145 79.0887L106.979 86.6887C107.304 88.3207 109.475 88.6327 110.808 87.7554C112.141 86.878 112.768 85.2567 113.109 83.6967C113.135 83.5771 113.161 83.4563 113.186 83.3349C113.389 82.3707 113.599 81.3711 114.309 80.6914C115.089 79.9258 116.195 79.8071 117.316 79.6868C118.233 79.5883 119.161 79.4887 119.931 79.0327C121.891 77.8727 121.909 74.9127 120.787 72.9314C120.096 71.7129 119.109 70.7133 118.12 69.7112C117.5 69.0837 116.88 68.4552 116.331 67.7714C114.198 65.1138 113.256 61.8189 112.309 58.5044C111.648 56.1916 110.985 53.8693 109.912 51.7474Z" fill="black"/>
<path d="M72.4898 56.4419C70.4791 55.9699 68.7244 54.7672 66.7938 54.0419C62.0444 52.2259 56.2658 53.5992 52.8258 57.3326L50.6658 66.9326C49.0658 69.3326 48.7991 72.2659 47.9991 75.1992C47.9991 76.0419 44.7564 87.4232 52.2658 94.9326C54.9324 97.5992 58.3991 98.6659 61.9991 99.4659C65.2284 99.9646 68.7564 100.466 71.8658 99.1992C71.6871 101.975 71.6604 103.957 71.7884 106.735L90.5884 104.799C90.2818 101.151 90.9538 97.8686 92.5404 94.5672C92.8978 93.8206 93.6738 93.8286 94.4391 93.5859C95.1164 93.3726 95.7884 93.1272 96.4444 92.8499C97.7804 92.2952 99.0418 91.5779 100.204 90.7166C102.503 88.9806 104.292 86.5432 104.967 83.7166C105.578 81.1539 105.148 78.1032 102.287 76.6606C100.282 75.6472 98.4818 76.0072 95.4231 78.6952L94.1058 79.1006C92.4631 79.5512 90.8524 78.0019 90.4498 76.3459C90.0471 74.6899 90.4498 72.9619 90.5511 71.2606C90.7431 68.0392 89.7858 64.7032 87.6551 62.2792C85.5244 59.8552 82.1804 58.4552 78.9911 58.9486" fill="#FFD39F"/>
<path fill-rule="evenodd" clip-rule="evenodd" d="M40.576 73.4795C40.4453 73.4795 40.3093 73.4715 40.1733 73.4581C39.0853 73.3381 38.1893 72.7968 37.576 71.8928C36.7786 70.7141 36.608 69.1008 36.752 67.5995L32.3493 67.2341C31.64 67.2208 30.9333 67.0395 30.304 66.7115C30.2666 66.6928 30.2293 66.6715 30.1946 66.6475C29.2506 66.0555 28.736 65.0421 28.7866 63.8635C28.848 62.3888 29.8053 60.8901 31.112 60.2181C32.1879 59.6643 33.3318 59.5356 34.3422 59.4219L34.376 59.4181C34.92 59.3595 35.432 59.3008 35.888 59.1888C39.0539 58.4053 40.7285 54.7615 42.3488 51.2356L42.352 51.2288L42.434 51.0505L42.4341 51.0504L42.4341 51.0503C42.6703 50.5372 42.9047 50.0278 43.1413 49.5355C49.0053 37.3301 62.5573 29.2181 76.088 29.8075C80.1573 29.9835 87.1866 31.8901 89.8746 36.4261C90.864 38.0928 91.6693 40.8368 89.896 44.4395C88.3066 47.6715 86.5013 51.3328 83.6453 54.1461C80.328 57.4128 75.9146 58.8928 72.128 58.0048C70.7605 57.6846 69.5558 57.0957 68.3892 56.5255L68.3333 56.4981L68.3075 56.4855L68.3074 56.4854L68.3072 56.4853C67.5942 56.1354 66.9196 55.8043 66.2346 55.5461C62.128 53.9701 56.9893 55.1808 54.0053 58.4181C53.153 59.3503 52.8594 60.7985 52.5478 62.3351L52.5466 62.3408L52.5425 62.3611C52.2852 63.6283 52.021 64.9294 51.4301 66.1549C51.9016 66.5879 52.0851 67.2819 51.8394 67.9147C50.0207 72.592 49.1407 76.3707 48.922 78.3467C48.1994 84.9467 49.922 90.7253 53.6527 94.1973C55.6474 96.0533 58.1994 97.2027 61.6847 97.816C65.2474 98.4373 68.426 98.856 71.2394 97.7067C71.7487 97.4987 72.33 97.568 72.778 97.888C73.226 98.208 73.4767 98.7387 73.442 99.288C73.2714 101.971 73.242 102.563 73.37 105.315C73.41 106.197 72.7274 106.947 71.8447 106.987C71.8181 106.997 71.7941 106.997 71.7674 106.997H71.7674C70.9167 106.997 70.21 106.328 70.17 105.469C70.0847 103.592 70.066 102.648 70.1194 101.36C66.914 101.979 63.65 101.411 61.1327 100.971C57.066 100.253 53.906 98.8053 51.4714 96.5413C46.9967 92.3733 44.9087 85.616 45.7407 77.9973C45.978 75.8492 46.7076 72.9034 47.765 69.7608C47.3088 70.0274 46.8411 70.2806 46.3774 70.5316L46.3653 70.5381L46.3534 70.5445C45.4298 71.0435 44.5547 71.5163 43.9493 72.0128C43.0906 72.7088 41.9546 73.4795 40.576 73.4795ZM31.9866 63.9568C32.1306 64.0048 32.2826 64.0315 32.4346 64.0315C32.4749 64.0315 32.5128 64.0338 32.5528 64.0363L32.56 64.0368L38.776 64.5541C39.2506 64.5941 39.6853 64.8421 39.9573 65.2341C40.2293 65.6261 40.312 66.1195 40.184 66.5781C39.8 67.9488 39.8213 69.4955 40.2293 70.0981C40.312 70.2208 40.376 70.2581 40.5226 70.2741C40.951 70.3211 41.6556 69.7491 41.9099 69.5426L41.9253 69.5301C42.768 68.8421 43.8213 68.2715 44.8426 67.7195L44.8564 67.712C46.2414 66.9623 47.6712 66.1884 48.2586 65.2768C48.88 64.3141 49.1386 63.0448 49.4106 61.7008C49.776 59.8928 50.192 57.8421 51.648 56.2501C55.5493 52.0155 62.0133 50.4955 67.3706 52.5515C68.1979 52.8627 68.9828 53.2482 69.741 53.6207L69.7411 53.6207L69.7466 53.6235L69.7562 53.6282C70.822 54.1517 71.827 54.6455 72.8586 54.8875C76.1173 55.6501 79.408 53.8261 81.4 51.8661C83.8683 49.4351 85.4699 46.1851 87.0197 43.0402L87.0266 43.0261C87.9546 41.1408 87.9866 39.5141 87.1253 38.0581C85.384 35.1221 80.08 33.1835 75.9546 33.0048C63.656 32.4688 51.3573 39.8368 46.032 50.9195C45.7808 51.4427 45.5323 51.9838 45.2812 52.5304L45.2666 52.5621C43.4213 56.5808 41.328 61.1355 36.6666 62.2901C36.0215 62.4514 35.3916 62.5213 34.7818 62.589L34.736 62.5941L34.7296 62.5948C33.9159 62.6852 33.1452 62.7709 32.584 63.0581C32.2453 63.2341 32.0133 63.7035 31.9866 63.9568ZM91.4159 80.1752C92.0879 80.5726 92.8159 80.7752 93.5385 80.7752C93.8745 80.7752 94.2079 80.7299 94.5305 80.6446C94.7928 80.5733 95.022 80.441 95.2071 80.2672C95.6444 80.3213 96.1018 80.1954 96.4589 79.8813C99.3896 77.3053 100.459 77.5213 101.55 78.0733C104.048 79.3346 103.664 82.1666 103.382 83.332C102.832 85.644 101.35 87.8093 99.2215 89.4173C98.1656 90.2013 97.0162 90.8546 95.7922 91.3613C95.1869 91.6173 94.5602 91.8466 93.9256 92.0466C93.8288 92.0782 93.7205 92.1047 93.6058 92.1329L93.5122 92.156C92.8242 92.3213 91.6749 92.5986 91.0669 93.86C89.4082 97.3133 88.6269 99.1533 88.9656 103.169C89.0349 104.004 89.7362 104.636 90.5576 104.636C90.6029 104.636 90.6482 104.633 90.6962 104.623C91.5762 104.551 92.2296 103.775 92.1549 102.895C91.8882 99.7586 92.3629 98.556 93.8962 95.356C93.972 95.3314 94.0794 95.3052 94.1783 95.2811C94.208 95.2738 94.2371 95.2668 94.2642 95.26C94.4509 95.2146 94.6642 95.1613 94.8856 95.092C95.6136 94.8653 96.3362 94.5986 97.0269 94.308C98.4829 93.7053 99.8642 92.9213 101.139 91.9746C102.97 90.5927 104.428 88.8751 105.407 86.9803L105.411 87.0015C105.635 88.1375 106.397 89.0522 107.496 89.5108C108.016 89.7268 108.587 89.8335 109.16 89.8335C110.045 89.8335 110.944 89.5802 111.683 89.0868C113.16 88.1135 114.136 86.4602 114.667 84.0335L114.747 83.6575L114.749 83.6446C114.908 82.8894 115.058 82.1782 115.424 81.8282C115.805 81.4524 116.58 81.3696 117.478 81.2737L117.48 81.2735C118.507 81.1642 119.672 81.0388 120.739 80.4068C122.093 79.6068 122.931 78.1988 123.101 76.4415C123.24 74.9962 122.904 73.4282 122.173 72.1402C121.379 70.7385 120.3 69.6458 119.256 68.5878L119.253 68.5855C118.645 67.9695 118.072 67.3882 117.573 66.7695C115.643 64.3642 114.768 61.3055 113.843 58.0655L113.837 58.0441L113.837 58.044C113.167 55.6987 112.474 53.2746 111.336 51.0255C107.949 44.3188 101.133 40.0148 93.9307 40.0148H93.7334C92.8507 40.0228 92.1414 40.7482 92.1521 41.6308C92.1627 42.5082 92.8774 43.2122 93.7521 43.2122H93.7707H93.9334C99.9387 43.2122 105.637 46.8282 108.483 52.4655C109.488 54.4522 110.112 56.6308 110.771 58.9402C111.741 62.3428 112.747 65.8602 115.083 68.7695C115.681 69.5143 116.341 70.1822 116.977 70.8261L116.977 70.8263L116.977 70.8265L116.981 70.8308L116.994 70.8434C117.928 71.7907 118.811 72.6861 119.395 73.7162C120.133 75.0228 120.173 77.0255 119.115 77.6522C118.647 77.9313 117.922 78.009 117.154 78.0914L117.147 78.0922L117.144 78.0925C115.907 78.2258 114.367 78.3917 113.205 79.5322C112.136 80.5561 111.851 81.9133 111.621 83.0039L111.621 83.0039L111.621 83.0042L111.621 83.005C111.597 83.1221 111.573 83.2391 111.547 83.3535C111.203 84.9242 110.672 85.9268 109.928 86.4175C109.595 86.6362 109.069 86.6975 108.731 86.5562C108.573 86.4895 108.56 86.4282 108.549 86.3748C108.376 85.5082 107.533 84.9455 106.667 85.1188C106.466 85.1591 106.281 85.2353 106.118 85.3395C106.265 84.9237 106.39 84.502 106.491 84.076C107.435 80.1773 106.094 76.7826 102.99 75.2146C100.99 74.204 98.5549 73.7773 94.3469 77.476C94.3335 77.4878 94.3203 77.4998 94.3073 77.5119C94.1075 77.4874 93.8997 77.5004 93.6932 77.5566L93.6918 77.5569C93.6184 77.576 93.4003 77.6325 93.0452 77.4232C92.5679 77.1406 92.1519 76.5566 92.0105 75.9699C91.7839 75.0312 91.8985 73.9592 92.0212 72.8205L92.0253 72.7825C92.0747 72.3196 92.126 71.8392 92.1545 71.3539C92.3812 67.5512 91.1812 63.8579 88.8639 61.2206C86.0079 57.9699 82.7972 57.9566 79.7545 58.4259C78.8799 58.5592 78.2825 59.3779 78.4159 60.2499C78.5492 61.1246 79.3679 61.7219 80.2399 61.5886C83.2852 61.1192 84.9145 61.5752 86.4585 63.3326C88.2265 65.3406 89.1359 68.1939 88.9599 71.1619C88.9384 71.5428 88.8979 71.928 88.8553 72.3325L88.8399 72.4792L88.8372 72.5043C88.694 73.8565 88.5461 75.2536 88.9012 76.7192C89.2505 78.1566 90.1892 79.4499 91.4159 80.1752ZM58.2483 74.6919C59.2792 74.6919 60.115 73.6771 60.115 72.4253C60.115 71.1734 59.2792 70.1586 58.2483 70.1586C57.2174 70.1586 56.3816 71.1734 56.3816 72.4253C56.3816 73.6771 57.2174 74.6919 58.2483 74.6919ZM67.3139 75.3201C68.3449 75.3201 69.1806 74.3052 69.1806 73.0534C69.1806 71.8015 68.3449 70.7867 67.3139 70.7867C66.283 70.7867 65.4473 71.8015 65.4473 73.0534C65.4473 74.3052 66.283 75.3201 67.3139 75.3201Z" fill="black"/>
<path d="M90.499 100C90.739 102.693 91.8403 108.779 95.939 107.867L96.379 108.533C96.179 112.712 94.0617 115.659 90.7443 118.712C87.3737 121.765 83.075 123.6 78.539 123.923C74.539 124.216 70.2857 123.259 67.2937 120.576C64.3017 117.893 62.7283 114.176 64.7097 110.989H64.9977C65.899 111.016 66.7283 110.544 67.491 110.064C68.4617 109.451 70.4643 106.936 71.0643 106.213C71.8643 105.176 72.1897 101.243 72.6003 100H90.499V100Z" fill="#FFD39F"/>
<path d="M96.4148 106.398C101.132 107.662 104.791 111.297 107.737 115.02C110.951 119.084 113.471 123.649 115.199 128.532C116.167 131.26 117.697 134.329 118.329 137.15L119.172 139.732C123.737 159.393 124.553 179.673 124.852 199.892L125.119 200.196C126.761 206.206 132.895 221.406 134.228 227.806C134.271 228.353 134.18 228.902 133.961 229.406C131.295 232.606 126.761 231.806 123.255 232.894L110.863 235.361C93.1268 238.542 75.3268 239.321 57.5588 236.324L54.2068 235.932L42.7401 233.737C41.7054 233.54 40.5694 233.276 39.9641 232.404C39.4628 231.689 39.4654 230.748 39.5028 229.876C39.6548 226.409 40.0548 222.969 40.4548 219.526L42.2841 203.756H42.1454C39.4361 203.425 37.2601 203.097 34.5508 202.769C35.6734 190.382 37.1134 178.028 38.8708 165.702C40.3988 154.969 42.1774 144.233 45.3348 133.862C48.1401 124.646 52.5908 115.116 61.0414 110.494L72.7748 111.294L96.4148 106.398Z" fill="black"/>
<path fill-rule="evenodd" clip-rule="evenodd" d="M33.1583 226.472C34.2249 228.872 36.8116 230.496 39.4969 230.6L41.6916 208.824L33.6916 209.243C31.8249 209.939 30.2249 211.539 30.7583 213.672C33.8693 216.783 33.5442 221.183 33.252 225.136C33.2186 225.588 33.1856 226.035 33.1583 226.472ZM101.852 222.602C99.6919 219.754 103.017 216.813 105.585 215.984H122.647C122.721 216.423 122.8 216.878 122.881 217.345C123.536 221.103 124.325 225.634 123.583 229.216C122.815 232.93 120.3 236.373 116.257 236.64C112.289 236.896 109.863 234.098 108.617 230.677C108.491 230.332 108.375 229.909 108.252 229.458C107.89 228.136 107.461 226.569 106.508 226.002C106.223 225.833 105.934 225.668 105.644 225.503C104.25 224.706 102.843 223.903 101.852 222.602Z" fill="#FFD39F"/>
<path fill-rule="evenodd" clip-rule="evenodd" d="M75.3558 122.402L72.8012 111.314C77.9456 109.206 81.8399 107.245 85.7208 105.289L85.8465 105.226C88.8012 103.736 91.8518 102.218 95.1532 101.965C94.905 104.703 94.1547 107.345 93.4048 109.985L93.3825 110.064C92.8785 111.832 92.3452 113.642 91.1532 115.032C90.1452 116.208 88.7478 116.976 87.3558 117.656C83.497 119.542 79.4336 120.97 75.3805 122.394L75.3804 122.394L75.3558 122.402ZM68.9476 107.934L70.0543 103.982C70.3476 104.228 70.7263 103.188 70.2303 102.374L62.0303 108.988C61.8329 111.004 62.0649 113.038 62.7156 114.958C63.3663 116.878 64.4169 118.636 65.7983 120.118C68.2943 117.545 70.2863 114.524 71.6649 111.214C70.4383 110.956 68.9583 110.444 68.7769 109.201C68.7476 108.772 68.8036 108.34 68.9476 107.934ZM103.085 208.999C102.663 211.039 102.525 213.125 102.669 215.202C102.663 215.322 102.679 215.442 102.722 215.554C102.765 215.666 102.829 215.77 102.911 215.858C103.079 215.959 103.277 216.005 103.471 215.983L121.605 215.933C121.879 215.954 122.154 215.903 122.405 215.789C122.917 215.498 122.957 214.789 122.938 214.189L122.746 209.274L103.085 208.999ZM34.1855 209.148C34.3455 207.161 34.5189 205.121 35.3749 203.321L42.0255 203.942L41.1829 210.214C38.8122 210.198 36.4549 209.838 34.1855 209.148Z" fill="white"/>
<path fill-rule="evenodd" clip-rule="evenodd" d="M74.593 123.795C74.8277 123.923 75.097 123.99 75.3637 123.99C75.5477 123.99 75.7317 123.96 75.8997 123.902C79.9344 122.486 84.105 121.019 88.049 119.091C89.5877 118.342 91.1717 117.456 92.3584 116.072C93.8064 114.387 94.4197 112.232 94.913 110.499L94.937 110.419L94.9377 110.417C95.1819 109.557 95.4288 108.687 95.6601 107.807C95.7654 107.863 95.8786 107.908 95.9987 107.94C100.657 109.191 104.212 113.143 106.481 116.01C109.591 119.943 112.015 124.335 113.689 129.066C114.039 130.047 114.457 131.076 114.865 132.071C115.612 133.898 116.383 135.786 116.767 137.498C116.935 138.242 117.593 138.748 118.327 138.748C118.444 138.748 118.561 138.735 118.679 138.708C119.54 138.514 120.081 137.658 119.889 136.796C119.447 134.823 118.625 132.807 117.828 130.858L117.791 130.768C117.394 129.796 117.018 128.876 116.705 127.994C114.916 122.932 112.319 118.234 108.991 114.023C106.441 110.802 102.404 106.343 96.828 104.85C96.6696 104.807 96.5104 104.79 96.3546 104.796C96.5234 103.911 96.6574 103.015 96.7397 102.107C96.7824 101.64 96.617 101.176 96.2864 100.84C95.9557 100.504 95.4944 100.331 95.025 100.368C91.3578 100.648 88.0474 102.318 85.126 103.792L85.121 103.795L84.993 103.859L84.8776 103.917L84.8776 103.917C81.159 105.788 77.3075 107.726 72.3516 109.763C72.2388 109.71 72.1189 109.669 71.9941 109.642C70.7275 109.376 70.4181 109.05 70.3675 108.978C70.3675 108.824 70.3888 108.672 70.4341 108.525L72.0821 105.018C72.3755 104.394 72.2341 103.65 71.7328 103.176C71.2315 102.701 70.4821 102.602 69.8741 102.93L61.2688 107.57C60.8021 107.824 60.4875 108.293 60.4368 108.824C60.4299 108.894 60.4234 108.965 60.4175 109.035C60.3725 109.055 60.3281 109.076 60.2842 109.1C52.8682 113.156 47.6336 120.876 43.8069 133.399C40.5882 143.972 38.7722 155.066 37.2896 165.479C35.5349 177.764 34.0789 190.263 32.9589 202.628C32.9132 203.12 33.0962 203.582 33.4215 203.906C32.9864 205.243 32.8029 206.618 32.6816 207.921C29.9651 209.121 28.577 211.535 29.2068 214.054C29.2788 214.337 29.4228 214.593 29.6282 214.798C32.2202 217.393 31.9348 221.267 31.6575 225.014L31.652 225.087L31.652 225.087L31.6519 225.087L31.6519 225.087C31.6191 225.521 31.5867 225.95 31.5615 226.369C31.5455 226.63 31.5935 226.891 31.7028 227.131C32.3668 228.593 33.4255 229.835 34.7615 230.726C35.7659 231.398 36.894 231.846 38.0743 232.05C38.1898 232.491 38.3744 232.925 38.6633 233.337C39.666 234.761 41.3966 235.11 42.4473 235.321L51.5007 237.054C51.602 237.073 51.7033 237.083 51.802 237.083C52.554 237.083 53.2233 236.55 53.37 235.787C53.538 234.921 52.9673 234.081 52.1007 233.915L43.0606 232.185C42.4953 232.073 41.546 231.881 41.2793 231.502C41.0526 231.182 41.0873 230.387 41.106 229.963C41.2578 226.56 41.6595 223.096 42.0483 219.743L42.05 219.729L45.2046 192.529L45.282 191.862L45.2892 191.8C47.4736 173.099 49.7322 153.764 54.106 135.198C54.3086 134.337 53.7753 133.475 52.9166 133.273C52.0553 133.067 51.194 133.603 50.9913 134.462C46.5761 153.202 44.3069 172.624 42.1124 191.408L42.1033 191.486L40.8855 201.987C40.2731 201.908 39.6799 201.828 39.098 201.75L38.6282 201.687C37.8682 201.583 37.0949 201.479 36.2842 201.375C37.3802 189.57 38.7802 177.652 40.4549 165.93C41.9189 155.644 43.7109 144.698 46.8656 134.332C50.1952 123.434 54.5598 116.5 60.5262 112.674C60.6646 113.616 60.8891 114.547 61.1995 115.464C61.9275 117.613 63.0795 119.544 64.6261 121.202C64.9248 121.522 65.3435 121.706 65.7808 121.712H65.7968C66.2288 121.712 66.6448 121.536 66.9461 121.226C68.0154 120.124 68.9929 118.951 69.8746 117.713L66.833 165.632L66.8307 165.668C65.3695 188.693 63.86 212.478 66.4083 235.903C63.5179 235.608 60.6569 235.221 57.8202 234.743C56.9482 234.593 56.1242 235.183 55.9775 236.055C55.8309 236.924 56.4175 237.751 57.2895 237.897C60.7191 238.476 64.1816 238.924 67.6864 239.24C67.8557 239.301 68.0374 239.333 68.225 239.333C68.289 239.333 68.353 239.331 68.417 239.323C68.445 239.319 68.4727 239.315 68.5002 239.311C72.4495 239.643 76.4531 239.809 80.5242 239.809C90.1816 239.809 100.217 238.871 110.783 236.995C112.217 238.099 113.904 238.681 115.762 238.681C115.962 238.681 116.167 238.676 116.372 238.66C119.2 238.474 121.658 236.937 123.306 234.487C123.445 234.482 123.585 234.459 123.726 234.419C124.721 234.109 125.862 233.965 127.068 233.816C129.838 233.472 132.977 233.08 135.188 230.427C135.286 230.309 135.366 230.179 135.428 230.037C135.745 229.299 135.881 228.483 135.82 227.68C135.814 227.611 135.804 227.544 135.79 227.477C134.996 223.665 132.658 217.127 130.396 210.805L130.396 210.803C128.82 206.403 127.334 202.245 126.657 199.771C126.613 199.611 126.547 199.463 126.462 199.33C126.242 179.662 125.704 160.858 121.153 141.242C120.953 140.38 120.095 139.844 119.233 140.044C118.372 140.244 117.836 141.103 118.036 141.964C122.911 162.98 123.108 183.204 123.316 204.618C123.321 205.103 123.326 205.59 123.331 206.077L123.331 206.079L123.331 206.082C123.336 206.561 123.34 207.041 123.345 207.522L103.156 207.191C100.156 183.751 99.1214 159.908 100.079 136.3C100.116 135.418 99.4281 134.671 98.5454 134.636C97.6601 134.604 96.9161 135.287 96.8814 136.17C95.8974 160.418 97.0014 184.914 100.161 208.975C100.243 209.594 100.672 210.092 101.236 210.283C101.011 211.921 100.952 213.581 101.062 215.235C101.062 215.533 101.113 215.827 101.217 216.107C101.337 216.427 101.516 216.715 101.75 216.96C101.773 216.984 101.796 217.007 101.82 217.029C100.854 217.76 100.053 218.695 99.7004 219.82C99.3964 220.793 99.303 222.308 100.583 223.988C101.767 225.545 103.402 226.481 104.844 227.305C105.13 227.468 105.412 227.63 105.695 227.798C106.09 228.032 106.521 229.603 106.71 230.291L106.714 230.305C106.844 230.785 106.97 231.238 107.116 231.644C107.455 232.573 107.857 233.418 108.315 234.175C94.6324 236.47 81.8721 237.141 69.6611 236.194C67.0435 212.826 68.56 188.944 70.0277 165.835L72.9846 119.249L73.793 122.758C73.897 123.2 74.193 123.576 74.593 123.795ZM34.1138 210.792C33.5822 211.013 32.2119 211.704 32.2602 212.923C35.4936 216.517 35.1377 221.341 34.8498 225.244L34.8495 225.249C34.8417 225.359 34.8336 225.468 34.8255 225.576L34.8255 225.577C34.8113 225.766 34.7973 225.954 34.7855 226.142C35.2042 226.915 35.8068 227.574 36.5402 228.065C36.9827 228.36 37.4631 228.587 37.9664 228.74C38.1477 225.608 38.5093 222.484 38.8602 219.452L38.8713 219.355L39.7519 211.762C37.8434 211.646 35.9543 211.32 34.1138 210.792ZM40.1211 208.579L40.5166 205.168C39.7162 205.065 38.9503 204.961 38.2016 204.86L37.8253 204.81L37.8252 204.81L37.8251 204.81L37.8249 204.81L37.8247 204.81C37.4075 204.754 36.9845 204.697 36.5532 204.64C36.1797 205.668 36.0071 206.805 35.8926 207.954C37.2794 208.293 38.6953 208.503 40.1211 208.579ZM104.222 214.381C104.174 213.054 104.25 211.725 104.451 210.412L121.195 210.687L121.334 214.237C121.337 214.272 121.337 214.304 121.337 214.333V214.333L104.222 214.381ZM124.532 214.12L124.4 210.739L124.937 210.748H124.964C125.385 210.748 125.793 210.58 126.089 210.284C126.31 210.065 126.461 209.788 126.526 209.488C126.782 210.209 127.045 210.943 127.31 211.684L127.31 211.685L127.38 211.88L127.389 211.907L127.389 211.908C129.486 217.77 131.855 224.398 132.63 228.013C132.636 228.2 132.612 228.389 132.558 228.568C131.156 230.08 129.068 230.341 126.668 230.64C126.097 230.711 125.518 230.783 124.94 230.876C125.022 230.579 125.095 230.276 125.159 229.966C125.966 226.059 125.294 222.189 124.644 218.447L124.642 218.433C124.57 218.022 124.5 217.614 124.431 217.206C124.378 216.889 124.234 216.609 124.031 216.388C124.576 215.558 124.545 214.535 124.532 214.12ZM106.766 217.567L121.255 217.526C121.257 217.596 121.264 217.666 121.276 217.737C121.336 218.09 121.397 218.443 121.458 218.798L121.459 218.801L121.49 218.98L121.492 218.991C122.091 222.441 122.71 226.005 122.026 229.316C121.132 233.622 118.412 235.316 116.159 235.465C112.73 235.686 110.986 232.916 110.122 230.545C110.02 230.262 109.911 229.87 109.799 229.457L109.797 229.449C109.368 227.885 108.834 225.938 107.33 225.046C107.105 224.913 106.878 224.783 106.649 224.652L106.431 224.526L106.429 224.525C105.139 223.787 103.919 223.089 103.127 222.049C102.58 221.332 102.706 220.929 102.754 220.777C103.004 219.974 104.263 219.044 105.746 218.564C106.244 218.405 106.608 218.025 106.766 217.567ZM76.5104 120.294L74.6624 112.267C79.257 110.331 82.9024 108.496 86.4277 106.718L86.5584 106.651C88.729 105.555 90.9584 104.432 93.2704 103.878C92.9393 105.737 92.4162 107.58 91.8709 109.502L91.8709 109.502L91.8597 109.542L91.8384 109.622C91.3904 111.2 90.9237 112.832 89.9344 113.987C89.0864 114.974 87.793 115.654 86.649 116.214C83.409 117.798 79.9397 119.08 76.5104 120.294ZM63.5675 109.97C63.5168 111.49 63.7408 112.989 64.2315 114.44C64.6235 115.597 65.1701 116.674 65.8635 117.661C67.2875 115.984 68.4928 114.149 69.4661 112.178C68.1328 111.56 67.3701 110.637 67.1915 109.426L67.1898 109.414L67.1898 109.413C67.185 109.378 67.1805 109.345 67.1781 109.309C67.1461 108.856 67.1781 108.408 67.2715 107.968L63.5675 109.97Z" fill="black"/>
</svg>
