<svg width="160" height="260" viewBox="0 0 160 260" fill="none" xmlns="http://www.w3.org/2000/svg">
<path d="M100.533 92.4314C101.067 94.0687 103.563 93.4287 104.915 92.3567C111.357 87.2447 115.187 79.098 115.373 70.874C115.56 62.65 112.203 54.4714 106.557 48.49C103.184 44.9194 98.6346 41.9807 93.7306 42.2314L85.8666 38.3327C84.7759 35.9087 81.8932 34.7967 79.2399 34.6687C76.5866 34.5407 73.9332 35.1434 71.2799 35.0234C69.1652 34.9274 67.0799 34.3754 64.9653 34.434C60.0506 34.5674 55.8426 37.9167 52.4053 41.434C46.6266 47.346 41.6346 54.8127 41.6506 63.082C41.6506 67.77 42.9839 73.3274 39.5173 76.49C39.0693 76.9007 38.5013 77.4234 38.7173 77.9914C38.7946 78.1407 38.8986 78.274 39.0293 78.3807C39.1599 78.4874 39.3093 78.5674 39.4693 78.6127C42.3679 79.7887 46.0826 78.1114 47.1146 75.146L52.3359 65.2954C54.0853 62.6287 57.7066 61.8447 60.8826 62.17C64.0586 62.4954 67.1039 63.674 70.2853 63.9594C72.8453 64.1674 75.4212 63.7994 77.8212 62.882C80.2212 61.9647 82.3839 60.5167 84.1519 58.65L85.7519 59.082C87.2826 59.8394 88.5732 61.01 89.4799 62.458C90.3839 63.9087 90.8693 65.5807 90.8773 67.29C90.8613 69.042 90.3439 70.7434 90.0559 72.474C89.7679 74.2047 89.7706 76.0874 90.6959 77.5754C91.6212 79.0634 93.7279 79.9114 95.2079 78.97" fill="black"/>
<path d="M90.5591 104.368C90.2524 100.72 90.9618 97.8721 92.5484 94.5707C92.9058 93.8241 93.6818 93.8321 94.4471 93.5894C95.1244 93.3761 95.7964 93.1307 96.4524 92.8534C97.7884 92.2987 99.0498 91.5814 100.212 90.7201C102.511 88.9841 104.3 86.5467 104.975 83.7201C105.586 81.1574 105.156 78.1067 102.295 76.6641C100.29 75.6507 98.4898 76.0107 95.4311 78.6987L95.2151 78.9841C93.7351 79.9254 91.6258 79.0801 90.7031 77.5894C89.7804 76.0987 89.7831 74.2187 90.0631 72.4881C90.3431 70.7574 90.8631 69.0561 90.8844 67.3041C90.8764 65.5947 90.3911 63.9227 89.4871 62.4721C88.5831 61.0214 87.2924 59.8534 85.7591 59.0961L84.1591 58.6641C82.3911 60.5307 80.2284 61.9761 77.8284 62.8961C75.4284 63.8161 72.8524 64.1841 70.2924 63.9734C67.1111 63.6881 64.0658 62.5121 60.8898 62.1841C57.7138 61.8561 54.0924 62.6374 52.3431 65.3094L50.6658 66.9307C49.0658 69.3307 48.7991 72.2641 47.9991 75.1974C47.9991 76.0401 44.7564 87.4214 52.2658 94.9307C54.9324 97.5974 58.3991 98.6641 61.9991 99.4641C65.2284 99.9627 68.7564 100.464 71.8658 99.1974C71.6871 101.973 71.7164 104.416 71.8444 107.195" fill="#FFD39F"/>
<path fill-rule="evenodd" clip-rule="evenodd" d="M38.9323 80.1172C39.7269 80.4319 40.5856 80.5866 41.4576 80.5866C42.5296 80.5866 43.6229 80.3545 44.6576 79.8852C44.9937 79.733 45.3158 79.5593 45.6219 79.3662C45.1693 86.4218 47.2666 92.6247 51.4714 96.5413C53.906 98.8053 57.066 100.253 61.1327 100.971C63.65 101.411 66.914 101.979 70.1194 101.36C70.066 102.648 70.0847 103.592 70.17 105.469C70.21 106.328 70.9167 106.997 71.7674 106.997C71.794 106.997 71.818 106.997 71.8447 106.987C72.7274 106.947 73.41 106.197 73.37 105.315C73.242 102.563 73.2714 101.971 73.442 99.288C73.4767 98.7387 73.226 98.208 72.778 97.888C72.33 97.568 71.7487 97.4987 71.2394 97.7067C68.426 98.856 65.2474 98.4373 61.6847 97.816C58.1994 97.2027 55.6474 96.0533 53.6527 94.1973C49.922 90.7253 48.1994 84.9467 48.922 78.3467C49.1407 76.3707 50.0207 72.592 51.8394 67.9147C51.9794 67.5541 51.98 67.1737 51.8674 66.833C52.0201 66.8795 52.1769 66.9024 52.3329 66.9024C52.8556 66.9024 53.3649 66.6491 53.6689 66.1771C55.0876 64.0144 58.2396 63.5131 60.7143 63.7664C62.1477 63.9118 63.5628 64.2488 65.061 64.6055L65.061 64.6055L65.0983 64.6144C66.7169 65.001 68.3943 65.4011 70.1489 65.5584C72.9329 65.7851 75.7809 65.377 78.3889 64.3797C80.7471 63.4779 82.9287 62.0834 84.7445 60.3262C84.8374 60.4026 84.9404 60.4697 85.0528 60.5254C86.3195 61.152 87.3835 62.1174 88.1328 63.3147C88.8795 64.5147 89.2795 65.896 89.2875 67.2854C89.2795 68.328 89.0555 69.3974 88.8182 70.528L88.8072 70.5805C88.6959 71.111 88.5804 71.6612 88.4875 72.2214C88.0608 74.7814 88.3408 76.8134 89.3462 78.4294C90.0955 79.632 91.3675 80.5387 92.7515 80.8534C93.1062 80.9334 93.4608 80.9734 93.8102 80.9734C94.6235 80.9734 95.4048 80.7547 96.0768 80.3307C96.3194 80.176 96.5064 79.9668 96.6318 79.7293C99.431 77.3141 100.479 77.5324 101.548 78.0733C104.047 79.3346 103.663 82.1666 103.38 83.332C102.831 85.644 101.348 87.8093 99.22 89.4173C98.164 90.2013 97.0147 90.8546 95.7907 91.3613C95.1853 91.6173 94.5587 91.8466 93.924 92.0466C93.8273 92.0782 93.719 92.1047 93.6043 92.1329L93.6042 92.1329L93.5107 92.156C92.8227 92.3213 91.6733 92.5986 91.0653 93.86C89.4067 97.3133 88.6253 99.1533 88.964 103.169C89.0333 104.004 89.7347 104.636 90.556 104.636C90.6013 104.636 90.6467 104.633 90.6947 104.623C91.5747 104.551 92.228 103.775 92.1533 102.895C91.8867 99.7586 92.3613 98.556 93.8947 95.356C93.9704 95.3314 94.0776 95.3053 94.1763 95.2812L94.1764 95.2812C94.2063 95.2739 94.2354 95.2668 94.2627 95.26C94.4493 95.2146 94.6627 95.1613 94.884 95.092C95.612 94.8653 96.3347 94.5986 97.0253 94.308C97.7494 94.0083 98.455 93.6637 99.1382 93.2766C99.4995 94.0569 100.149 94.6165 100.997 94.8711C101.344 94.9751 101.706 95.0205 102.074 95.0205C103.464 95.0205 104.941 94.3618 105.898 93.6045C112.624 88.2685 116.762 79.7831 116.962 70.9058C117.154 62.3938 113.784 53.8205 107.709 47.3858C103.362 42.7858 98.3677 40.3858 93.6371 40.6285C92.7544 40.6738 92.0744 41.4258 92.1197 42.3085C92.1651 43.1911 92.9171 43.8738 93.7997 43.8258C98.8957 43.5698 103.245 47.3245 105.381 49.5858C110.882 55.4151 113.936 63.1591 113.762 70.8365C113.581 78.7751 109.898 86.3511 103.912 91.1005C103.218 91.6471 102.349 91.8631 102.002 91.8258C101.947 91.6904 101.875 91.5661 101.79 91.4548C104.171 89.453 105.828 86.8578 106.489 84.076C107.433 80.1773 106.092 76.7826 102.988 75.2146C100.988 74.204 98.5533 73.7773 94.3453 77.476C94.253 77.5572 94.1721 77.6467 94.103 77.7424C93.8756 77.8015 93.6404 77.7764 93.4635 77.736C92.9115 77.608 92.3622 77.2187 92.0662 76.7414C91.4982 75.8267 91.3568 74.4827 91.6448 72.7467C91.7171 72.2966 91.8098 71.8506 91.9069 71.3836L91.9069 71.3836L91.9069 71.3835L91.9069 71.3835L91.9069 71.3834L91.9488 71.1814C92.2075 69.9467 92.4742 68.672 92.4875 67.2907C92.4768 65.2827 91.9115 63.3227 90.8475 61.6187C89.7835 59.9174 88.2715 58.5467 86.4715 57.656C86.0957 57.47 85.682 57.4455 85.3091 57.5558C85.2893 57.5349 85.2688 57.5144 85.2476 57.4944C84.6076 56.8864 83.5943 56.913 82.9863 57.5557C81.3916 59.2384 79.4076 60.5637 77.2449 61.393C75.0823 62.2224 72.7169 62.5584 70.4236 62.3717C68.9267 62.2397 67.4507 61.8881 65.8894 61.5163L65.8893 61.5163L65.8893 61.5162L65.8892 61.5162L65.8423 61.505C64.2983 61.137 62.6983 60.7557 61.0423 60.585C56.6263 60.1344 52.8689 61.5691 50.9943 64.4251C50.7173 64.8489 50.6669 65.3562 50.8138 65.8033C50.0198 65.5608 49.1607 65.9683 48.8554 66.7547C47.9315 69.1297 47.1591 71.5006 46.6049 73.6231C46.1539 73.7761 45.7757 74.1286 45.6069 74.6132C45.2576 75.6132 44.4309 76.4719 43.3349 76.9679C42.5429 77.3279 41.7029 77.4559 40.9269 77.3492C43.8629 74.3545 43.6043 69.9812 43.3749 66.1039C43.3109 65.0425 43.2523 64.0399 43.2523 63.0719C43.2389 56.4585 46.7056 49.5519 53.5509 42.5465C56.2283 39.8079 60.3269 36.1545 65.0123 36.0265C66.0896 35.9972 67.1909 36.1492 68.3589 36.3119C69.2789 36.4399 70.2309 36.5705 71.2096 36.6159C72.6336 36.6799 74.0336 36.5545 75.3829 36.4319L75.4083 36.4296C76.7136 36.3131 77.9481 36.2029 79.1643 36.2612C81.1509 36.3572 83.5723 37.1225 84.4096 38.9839C84.7723 39.7892 85.7189 40.1492 86.5243 39.7865C87.3296 39.4239 87.6896 38.4772 87.3269 37.6719C85.8976 34.4932 82.2523 33.2079 79.3189 33.0665C77.8809 32.9976 76.4746 33.1239 75.1157 33.246L75.0949 33.2479C73.7936 33.3652 72.5643 33.4745 71.3536 33.4212C70.5387 33.3846 69.7188 33.2713 68.8511 33.1515L68.7963 33.1439C67.5509 32.9705 66.2629 32.7919 64.9216 32.8292C59.0736 32.9865 54.3243 37.1732 51.2603 40.3092C43.8069 47.9332 40.0363 55.5945 40.0496 63.0745C40.0496 64.0835 40.1102 65.1288 40.1689 66.1435L40.1776 66.2932L40.1779 66.2985C40.3911 69.9179 40.5925 73.3368 38.4363 75.3039C37.8923 75.8026 36.6203 76.9705 37.2229 78.5545C37.2416 78.6105 37.2656 78.6639 37.2923 78.7145C37.4683 79.0585 37.7109 79.3599 38.0096 79.6079C38.2843 79.8372 38.5936 80.0079 38.9323 80.1172ZM60.1134 72.4253C60.1134 73.6771 59.2777 74.6919 58.2467 74.6919C57.2158 74.6919 56.3801 73.6771 56.3801 72.4253C56.3801 71.1734 57.2158 70.1586 58.2467 70.1586C59.2777 70.1586 60.1134 71.1734 60.1134 72.4253ZM69.1806 73.0534C69.1806 74.3052 68.3449 75.3201 67.3139 75.3201C66.283 75.3201 65.4473 74.3052 65.4473 73.0534C65.4473 71.8015 66.283 70.7867 67.3139 70.7867C68.3449 70.7867 69.1806 71.8015 69.1806 73.0534Z" fill="black"/>
<path d="M90.499 100C90.739 102.693 91.8403 108.779 95.939 107.867L96.379 108.533C96.179 112.712 94.0617 115.659 90.7443 118.712C87.3737 121.765 83.075 123.6 78.539 123.923C74.539 124.216 70.2857 123.259 67.2937 120.576C64.3017 117.893 62.7283 114.176 64.7097 110.989H64.9977C65.899 111.016 66.7283 110.544 67.491 110.064C68.4617 109.451 70.4643 106.936 71.0643 106.213C71.8643 105.176 72.1897 101.243 72.6003 100H90.499V100Z" fill="#FFD39F"/>
<path d="M39.3083 230.576C38.0017 230.533 36.735 230.125 35.647 229.4C34.559 228.674 33.6977 227.661 33.1563 226.472C33.423 222.205 34.223 217.138 30.7563 213.672C30.223 211.538 31.823 209.938 33.6897 209.242L41.1777 210.213L39.3083 230.576Z" fill="#FFD39F"/>
<path fill-rule="evenodd" clip-rule="evenodd" d="M38.4744 203.278C39.6897 203.402 40.8983 203.525 42.1524 203.763L42.2804 203.779L40.4537 219.529L40.4522 219.541C40.0527 222.98 39.6535 226.415 39.5017 229.878C39.4644 230.75 39.4617 231.691 39.963 232.406C40.5683 233.278 41.7044 233.542 42.739 233.739L54.2057 235.934L57.5577 236.326C75.3257 239.323 93.1257 238.545 110.862 235.363L123.254 232.897C124.385 232.546 125.623 232.391 126.871 232.235C129.491 231.908 132.154 231.576 133.96 229.409C134.179 228.905 134.27 228.355 134.227 227.809C133.456 224.106 131.078 217.458 128.892 211.348C127.3 206.897 125.81 202.731 125.118 200.198L124.851 199.763C124.55 179.587 123.731 159.353 119.174 139.734L118.326 137.171C116.086 129.945 113.152 123.011 109.024 116.747L108.491 111.627C108.502 110.793 108.291 109.966 107.88 109.238C107.47 108.51 106.875 107.902 106.155 107.475C105.435 107.049 104.616 106.822 103.779 106.814C102.942 106.806 102.118 107.019 101.39 107.433C102.36 106.153 101.878 104.147 100.611 103.166C99.3444 102.185 97.555 102.102 96.027 102.582C94.499 103.062 93.1817 104.035 91.9284 105.033C91.0207 105.757 90.1225 106.51 89.2223 107.264C85.4412 110.431 81.6244 113.628 76.9204 114.921L73.7684 113.934C72.011 113.539 70.8324 111.889 70.1444 110.227C69.9059 109.652 69.7072 109.058 69.5087 108.465C69.1344 107.346 68.7608 106.23 68.123 105.241C67.147 103.726 65.3017 102.545 63.5897 103.094C61.491 103.766 60.9177 106.395 60.5283 108.566C60.4937 108.897 60.379 109.217 60.1924 109.491C59.8939 109.862 59.3902 109.969 58.9187 110.07C58.8889 110.076 58.8592 110.082 58.8297 110.089C57.763 110.318 56.6777 110.729 55.8964 111.505C55.115 112.281 54.683 113.478 55.0403 114.521L53.691 116.75C52.9443 117.59 51.0243 120.337 51.0243 120.337C46.0925 128.643 44.1926 137.202 42.1275 146.505C42.071 146.76 42.0144 147.014 41.9577 147.27C38.2596 164.774 36.6129 181.367 34.9102 198.523C34.7713 199.924 34.6319 201.328 34.491 202.737C35.8688 203.012 37.1754 203.145 38.4744 203.278ZM41.1829 210.211C38.8122 210.195 36.4549 209.835 34.1855 209.144C34.3455 207.157 34.5189 205.117 35.3749 203.317L41.9695 204.053L41.1829 210.211Z" fill="black"/>
<path d="M105.258 216.266C102.687 217.095 99.6816 220.183 101.855 223.031C103.05 224.602 104.855 225.447 106.511 226.434C107.786 227.191 108.124 229.751 108.618 231.106C109.866 234.522 112.29 237.332 116.266 237.066C120.308 236.799 122.823 233.356 123.591 229.644C124.423 225.618 123.004 220.332 122.335 216.351L105.258 216.266Z" fill="#FFD39F"/>
<path fill-rule="evenodd" clip-rule="evenodd" d="M82.4202 124.518C82.4762 125.366 83.1802 126.014 84.0149 126.014C84.0522 126.014 84.0869 126.014 84.1189 126.006C91.2522 125.539 98.2362 123.304 104.319 119.55C105.575 118.776 106.628 117.966 107.476 117.124C107.518 117.295 107.59 117.462 107.692 117.617C111.383 123.217 114.362 129.767 116.802 137.636C117.015 138.324 117.647 138.764 118.33 138.764C118.487 138.764 118.647 138.74 118.802 138.692C119.647 138.431 120.119 137.535 119.858 136.689C117.327 128.527 114.223 121.713 110.364 115.857C110.063 115.399 109.568 115.147 109.058 115.138C109.725 114.024 110.069 112.861 110.084 111.656C110.098 110.539 109.815 109.435 109.268 108.462C108.722 107.488 107.924 106.672 106.962 106.104C106.002 105.536 104.903 105.232 103.786 105.222C103.679 105.222 103.575 105.222 103.468 105.227C103.314 103.974 102.666 102.747 101.583 101.91C100.007 100.688 97.7455 100.371 95.5402 101.064C93.7242 101.635 92.2069 102.768 90.9242 103.79C89.5174 104.912 88.3396 106.013 87.2006 107.079L87.2006 107.079L87.1589 107.118L87.1561 107.12C84.4587 109.644 82.3282 111.638 78.5829 112.667C77.7295 112.902 77.2282 113.782 77.4629 114.635C77.6975 115.488 78.5802 115.99 79.4309 115.755C83.9402 114.518 86.5669 112.059 89.3455 109.456L89.3889 109.416C90.4821 108.394 91.6135 107.336 92.9189 106.294C94.0229 105.416 95.2069 104.523 96.5002 104.118C97.6895 103.744 98.8869 103.867 99.6255 104.44C100.258 104.931 100.5 105.958 100.108 106.475C99.6495 107.08 99.6789 107.926 100.18 108.496C100.682 109.067 101.514 109.208 102.175 108.835C102.65 108.566 103.188 108.424 103.732 108.424H103.759C104.314 108.427 104.86 108.579 105.338 108.862C105.815 109.144 106.21 109.547 106.482 110.032C106.754 110.518 106.895 111.064 106.887 111.619C106.866 113.355 105.436 115.107 102.642 116.83C97.0015 120.312 90.5242 122.382 83.9109 122.816C83.0309 122.875 82.3615 123.635 82.4202 124.518ZM52.1429 237.152C52.0442 237.152 51.9429 237.142 51.8415 237.123L42.4442 235.323C41.3935 235.112 39.6629 234.763 38.6602 233.339C38.3712 232.927 38.1865 232.492 38.071 232.052C36.8919 231.848 35.765 231.399 34.7615 230.728C33.4255 229.838 32.3668 228.595 31.7028 227.134C31.5935 226.894 31.5455 226.632 31.5615 226.371C31.5867 225.952 31.6191 225.523 31.6519 225.09L31.6519 225.09L31.652 225.089L31.652 225.089L31.6575 225.016C31.9348 221.27 32.2202 217.395 29.6282 214.8C29.4228 214.595 29.2788 214.339 29.2068 214.056C28.577 211.537 29.9651 209.123 32.6816 207.923C32.8026 206.624 32.9855 205.252 33.4184 203.918C33.0562 203.588 32.853 203.097 32.9054 202.577C33.0213 201.423 33.1353 200.271 33.249 199.123L33.3241 198.364L33.3315 198.29C35.0567 180.917 36.6867 164.504 40.3988 146.937L40.5721 146.156C42.6388 136.841 44.5935 128.044 49.6548 119.516C49.6761 119.481 49.6974 119.449 49.7188 119.417L49.748 119.376C50.0541 118.94 51.7455 116.534 52.5028 115.684C52.7872 115.363 53.1718 115.184 53.5677 115.152C53.5539 115.115 53.5404 115.078 53.5275 115.041C52.9915 113.481 53.4795 111.649 54.7701 110.369C55.6741 109.473 56.8901 108.87 58.4955 108.524L58.5888 108.502C58.6928 108.481 58.8315 108.452 58.9355 108.422C58.9355 108.418 58.9361 108.415 58.9368 108.412C58.9372 108.41 58.9376 108.408 58.9378 108.405C58.938 108.404 58.9381 108.402 58.9381 108.401C58.9435 108.358 58.9488 108.318 58.9568 108.278L58.9581 108.271C59.3476 106.134 59.9976 102.568 63.1035 101.569C64.9541 100.977 67.7355 101.609 69.4821 104.388C69.6704 104.687 69.8378 104.991 69.9893 105.298C70.3051 104.612 71.0766 104.225 71.8355 104.419C72.6915 104.635 73.2115 105.507 72.9928 106.363C72.7517 107.32 72.3658 107.96 71.3667 108.939C71.45 109.168 71.5356 109.392 71.6261 109.612C72.0021 110.516 72.8261 112.078 74.1221 112.372C74.9835 112.566 75.5248 113.422 75.3328 114.284C75.1381 115.145 74.2821 115.686 73.4208 115.494C71.4155 115.044 69.7275 113.39 68.6688 110.841C68.4075 110.212 68.1915 109.58 67.9861 108.966L67.9761 108.937C67.6225 107.897 67.2879 106.913 66.7701 106.092C66.1701 105.137 64.9995 104.324 64.0795 104.617C62.9115 104.993 62.4501 106.964 62.1141 108.798C62.0448 109.366 61.8395 109.913 61.5195 110.388C61.4955 110.422 61.4688 110.457 61.4422 110.491L61.4422 110.491L61.4421 110.492C60.7882 111.305 59.872 111.501 59.2614 111.632L59.2555 111.633L59.1701 111.652C58.1968 111.862 57.4768 112.193 57.0261 112.638C56.6288 113.033 56.4261 113.62 56.5568 114.001C56.6795 114.358 57.0848 114.742 57.4635 115.068C60.8981 118.076 65.0768 120.089 69.5568 120.894C70.4261 121.052 71.0048 121.884 70.8475 122.753C70.7035 123.526 70.0288 124.07 69.2715 124.07C69.1781 124.07 69.0821 124.062 68.9861 124.044C63.9355 123.134 59.2235 120.865 55.3621 117.484C55.3047 117.434 55.2467 117.383 55.1885 117.331C55.121 117.503 55.0224 117.666 54.8921 117.812C54.3428 118.428 52.9215 120.423 52.3748 121.201C47.5961 129.273 45.7001 137.809 43.6948 146.849L43.5241 147.615C39.8477 165.013 38.2263 181.358 36.5095 198.665L36.5081 198.679C36.4174 199.585 36.3268 200.495 36.2361 201.407C37.0334 201.519 37.8228 201.601 38.6414 201.684L38.6848 201.688C39.4044 201.762 40.1379 201.837 40.8884 201.938L42.1002 191.488L42.1093 191.411C44.3038 172.627 46.573 153.204 50.9882 134.464C51.1909 133.606 52.0522 133.07 52.9135 133.275C53.7722 133.478 54.3055 134.339 54.1029 135.2C49.729 153.767 47.4705 173.102 45.2861 191.802L45.2789 191.864L45.2015 192.531L42.0469 219.731L42.0452 219.745C41.6564 223.098 41.2546 226.563 41.1029 229.966C41.0842 230.39 41.0495 231.184 41.2762 231.504C41.5429 231.883 42.4922 232.075 43.0575 232.187L52.4389 233.982C53.3055 234.147 53.8762 234.987 53.7082 235.854C53.5669 236.619 52.8975 237.152 52.1429 237.152ZM32.2602 212.926C32.2119 211.706 33.5822 211.016 34.1138 210.794C35.9534 211.322 37.8413 211.648 39.7488 211.765L38.8682 219.358L38.8571 219.454C38.5062 222.486 38.1447 225.61 37.9633 228.741C37.4611 228.588 36.9818 228.361 36.5402 228.067C35.8068 227.576 35.2042 226.918 34.7855 226.144C34.7973 225.956 34.8113 225.768 34.8255 225.579C34.8336 225.47 34.8417 225.361 34.8495 225.251L34.8498 225.247C35.1377 221.344 35.4936 216.519 32.2602 212.926ZM40.5195 205.118L40.118 208.581C38.6933 208.505 37.2784 208.295 35.8926 207.956C36.0059 206.819 36.1761 205.694 36.5416 204.675C37.1446 204.749 37.735 204.809 38.3161 204.868L38.4389 204.881L38.4397 204.881L38.44 204.881C39.1474 204.954 39.8333 205.025 40.5195 205.118ZM57.2895 237.9C64.8415 239.175 72.5535 239.812 80.5242 239.812C90.1816 239.812 100.217 238.873 110.783 236.998C112.217 238.101 113.904 238.683 115.762 238.683C115.962 238.683 116.167 238.678 116.372 238.662C119.2 238.476 121.658 236.939 123.306 234.489C123.445 234.484 123.585 234.461 123.726 234.421C124.721 234.112 125.862 233.968 127.068 233.818C129.838 233.474 132.977 233.082 135.188 230.429C135.286 230.312 135.366 230.181 135.428 230.04C135.745 229.301 135.881 228.485 135.82 227.682C135.814 227.613 135.804 227.546 135.79 227.48C134.996 223.667 132.658 217.13 130.396 210.808L130.396 210.805C128.82 206.405 127.334 202.248 126.657 199.773C126.611 199.606 126.541 199.452 126.45 199.314C126.187 180.034 125.48 161.478 120.943 141.919C120.743 141.058 119.884 140.522 119.023 140.722C118.161 140.922 117.625 141.78 117.825 142.642C122.889 164.474 123.108 185.187 123.34 207.115V207.115L123.34 207.122L123.345 207.527L103.156 207.196C100.156 183.756 99.1214 159.914 100.079 136.306C100.116 135.423 99.4281 134.676 98.5454 134.642C97.6628 134.61 96.9161 135.292 96.8814 136.175C95.8974 160.423 97.0014 184.919 100.161 208.98C100.243 209.599 100.671 210.097 101.236 210.288C101.011 211.926 100.952 213.584 101.062 215.237C101.062 215.536 101.113 215.829 101.217 216.109C101.337 216.429 101.516 216.717 101.75 216.962C101.773 216.986 101.796 217.009 101.82 217.032C100.854 217.762 100.053 218.697 99.7004 219.822C99.3964 220.795 99.303 222.31 100.583 223.99C101.767 225.547 103.402 226.483 104.844 227.307C105.13 227.47 105.412 227.633 105.695 227.801C106.09 228.034 106.521 229.606 106.71 230.293L106.714 230.307C106.844 230.787 106.97 231.241 107.116 231.646C107.455 232.575 107.857 233.421 108.315 234.177C90.1485 237.224 73.6081 237.408 57.8202 234.745C56.9482 234.596 56.1242 235.185 55.9775 236.057C55.8309 236.927 56.4175 237.753 57.2895 237.9ZM106.767 217.569C106.608 218.027 106.243 218.407 105.746 218.566C104.263 219.046 103.004 219.977 102.754 220.779C102.706 220.931 102.58 221.334 103.127 222.051C103.919 223.091 105.139 223.789 106.429 224.528L106.431 224.529L106.649 224.654C106.878 224.785 107.105 224.915 107.33 225.049C108.834 225.941 109.368 227.888 109.797 229.452L109.799 229.459C109.911 229.873 110.02 230.265 110.122 230.547C110.986 232.918 112.73 235.689 116.159 235.467C118.412 235.318 121.132 233.625 122.026 229.318C122.71 226.007 122.091 222.443 121.492 218.994L121.49 218.982L121.459 218.803C121.397 218.447 121.336 218.093 121.276 217.739C121.264 217.669 121.257 217.598 121.255 217.528L106.767 217.569ZM124.031 216.39C124.234 216.611 124.378 216.891 124.431 217.209C124.5 217.617 124.57 218.025 124.642 218.435L124.644 218.449C125.294 222.191 125.966 226.061 125.159 229.969C125.095 230.278 125.022 230.581 124.94 230.878C125.518 230.785 126.097 230.713 126.668 230.642C129.068 230.344 131.156 230.082 132.558 228.57C132.612 228.392 132.636 228.202 132.63 228.016C131.855 224.4 129.486 217.773 127.389 211.91L127.389 211.91L127.38 211.882L127.31 211.687L127.31 211.687L127.309 211.684L127.298 211.656L127.292 211.637C127.033 210.912 126.776 210.195 126.526 209.491C126.461 209.79 126.311 210.068 126.089 210.287C125.793 210.586 125.385 210.754 124.964 210.754H124.937L124.4 210.745L124.532 214.122C124.545 214.538 124.576 215.56 124.031 216.39ZM121.195 210.692L104.45 210.417C104.25 211.729 104.174 213.057 104.222 214.384L121.337 214.336V214.335L121.337 214.312L121.337 214.297C121.337 214.279 121.336 214.26 121.334 214.24L121.195 210.692Z" fill="black"/>
</svg>
