<svg width="160" height="260" viewBox="0 0 160 260" fill="none" xmlns="http://www.w3.org/2000/svg">
<path d="M94.5304 78.8856C92.5331 78.739 91.3971 76.3923 91.5198 74.3976C91.6424 72.403 92.5864 70.5416 92.8824 68.563C93.5624 64.123 90.5384 59.411 86.2158 58.1816C85.0344 57.8456 83.7678 57.7363 82.6931 57.1416C81.7971 56.643 81.0504 55.8083 80.0451 55.6323C78.1918 55.291 76.6664 57.2323 74.7918 57.4403C72.3038 57.707 70.3811 54.8563 67.8771 54.8616C65.2904 54.8616 63.5011 57.8803 60.9198 58.003C59.1891 58.0856 57.6424 56.827 55.9118 56.7416C53.6744 56.635 51.8158 58.5096 50.8024 60.507C49.7891 62.5043 49.2878 64.7603 48.0398 66.6216C46.8984 68.323 44.5144 69.635 42.8504 68.4403C41.7011 67.619 41.4798 66.0083 41.5624 64.6003C41.7304 61.7123 42.7304 58.9336 44.4398 56.6003C44.9731 55.891 45.5651 55.1923 45.7571 54.3336C46.0238 53.0696 45.3731 51.8136 45.1171 50.5443C44.5544 47.7443 46.2878 44.6616 48.9731 43.6856C50.2424 43.227 51.6611 43.1923 52.8504 42.555C54.0398 41.9176 54.8824 40.7096 55.7091 39.6056C60.0851 33.7603 67.0958 28.9763 74.2798 30.2723C78.6878 31.0723 82.5464 34.0403 88.0291 35.0723C91.8451 32.2376 97.7251 32.6723 101.064 36.067C105.376 40.4296 105.208 48.163 110.13 51.8323C110.914 52.419 111.826 52.899 112.362 53.715C113.501 55.4483 112.474 57.803 112.962 59.8216C113.389 61.5736 114.877 62.8216 115.984 64.2456C117.09 65.6696 117.8 67.827 116.618 69.1896C116.104 69.7816 115.338 70.083 114.733 70.579C113.245 71.795 112.949 73.9603 113.133 75.8723C113.317 77.7843 113.978 80.2136 113.6 81.6003C112.077 87.235 108.554 85.7976 106.882 86.667" fill="black"/>
<path d="M50.6658 66.9326C49.0658 69.3326 48.7991 72.266 47.9991 75.1993C47.9991 76.042 44.7564 87.4233 52.2658 94.9326C54.9324 97.5993 58.3991 98.666 61.9991 99.466C65.2284 99.9646 68.7564 100.466 71.8658 99.1993C71.6871 101.975 71.6604 103.957 71.7884 106.735L90.5324 104.799C90.2258 101.151 90.9538 97.8686 92.5404 94.5673C92.8978 93.8206 93.6738 93.8286 94.4391 93.586C95.1164 93.3726 95.7884 93.1273 96.4444 92.85C97.7804 92.2953 99.0418 91.578 100.204 90.7166C102.503 88.9806 104.292 86.5433 104.967 83.7166C105.578 81.154 105.148 78.1033 102.287 76.6606C100.282 75.6473 98.4818 76.0073 95.4231 78.6953L94.5218 78.8873C92.5244 78.7406 91.3884 76.394 91.5111 74.3993C91.6338 72.4046 92.5778 70.5433 92.8738 68.5646C93.5538 64.1246 90.5298 59.4126 86.2071 58.1833C85.0258 57.8473 83.7591 57.738 82.6844 57.1433C81.7884 56.6446 81.0418 55.81 80.0364 55.634C78.1831 55.2926 76.6578 57.234 74.7831 57.442C72.2951 57.7086 70.3724 54.858 67.8684 54.8633C65.2818 54.8633 63.4924 57.882 60.9111 58.0046C59.1804 58.0873 57.6338 56.8286 55.9031 56.7433C53.6658 56.6366 51.8071 58.5113 50.7938 60.5086C49.7804 62.506 49.2791 64.762 48.0311 66.6233" fill="#FFD39F"/>
<path fill-rule="evenodd" clip-rule="evenodd" d="M105.463 87.407C105.748 87.9537 106.306 88.2683 106.884 88.2683C107.135 88.2683 107.386 88.2097 107.623 88.0763C107.797 87.9854 108.247 87.9274 108.653 87.8751L108.653 87.8751L108.684 87.871L108.688 87.8705C110.58 87.6278 113.741 87.2219 115.148 82.0123C115.499 80.7293 115.238 79.0969 114.986 77.516L114.986 77.5159L114.983 77.4977C114.882 76.8603 114.786 76.255 114.732 75.711C114.65 74.8577 114.586 72.7643 115.754 71.8097C115.904 71.6845 116.103 71.5593 116.317 71.4254L116.359 71.399L116.366 71.3949C116.836 71.1 117.367 70.7672 117.834 70.231C119.596 68.199 118.812 65.263 117.252 63.2577C116.932 62.847 116.596 62.4603 116.268 62.087L116.263 62.0808C115.481 61.1871 114.745 60.3462 114.524 59.439C114.38 58.8417 114.426 58.1003 114.476 57.3137C114.567 55.9003 114.668 54.295 113.706 52.831C113.13 51.9539 112.338 51.4099 111.64 50.93L111.639 50.9297L111.536 50.8585C111.387 50.7548 111.238 50.6515 111.092 50.543C108.835 48.8612 107.768 46.0258 106.638 43.0221L106.636 43.0177C105.562 40.159 104.45 37.2043 102.21 34.9377C98.4978 31.1643 92.1378 30.5217 87.6898 33.3617C85.2733 32.8241 83.1543 31.8881 81.0995 30.9805L81.0871 30.975C78.9111 30.0123 76.8578 29.1057 74.5698 28.6897C66.3271 27.2043 58.7644 32.855 54.4338 38.639L54.2471 38.8897L54.2449 38.8926C53.5763 39.7903 52.8862 40.7168 52.1004 41.1377C51.5992 41.4069 50.9487 41.5456 50.2609 41.6922L50.2604 41.6923C49.6711 41.8177 49.0604 41.9483 48.4311 42.175C45.0284 43.4123 42.8418 47.3057 43.5538 50.855C43.6444 51.311 43.7698 51.7323 43.8924 52.143L43.8945 52.1502C44.1123 52.8831 44.3001 53.5152 44.2018 53.9803C44.1088 54.3997 43.7464 54.8746 43.3617 55.3787L43.3564 55.3857L43.1538 55.6523C41.2578 58.239 40.1564 61.3003 39.9698 64.503C39.7911 67.5483 40.9351 69.031 41.9218 69.7377C42.8444 70.399 43.9591 70.6363 45.1458 70.423C46.1495 70.242 47.1616 69.7347 48.0267 69.0081C46.8295 72.4313 45.9993 75.6809 45.743 78.0004C44.911 85.6191 46.999 92.3764 51.4737 96.5444C53.9084 98.8084 57.0684 100.256 61.135 100.974C63.6524 101.414 66.9164 101.982 70.1217 101.363C70.0684 102.651 70.087 103.595 70.1724 105.472C70.2124 106.331 70.919 107 71.7697 107H71.7698C71.7964 107 71.8204 107 71.847 106.99C72.7297 106.95 73.4124 106.2 73.3724 105.318C73.2444 102.566 73.2737 101.974 73.4444 99.2911C73.479 98.7418 73.2284 98.2111 72.7804 97.8911C72.3324 97.5711 71.751 97.5018 71.2417 97.7098C68.4284 98.8591 65.2497 98.4405 61.687 97.8191C58.2017 97.2058 55.6497 96.0564 53.655 94.2004C49.9244 90.7284 48.2017 84.9498 48.9244 78.3498C49.143 76.3738 50.023 72.5951 51.8417 67.9178C52.1617 67.0938 51.7537 66.1658 50.9297 65.8458C50.7418 65.7728 50.5484 65.7377 50.3581 65.7367C50.6896 65.0223 50.9671 64.2986 51.2391 63.5883C51.5591 62.751 51.8604 61.9643 52.2338 61.2283C52.9324 59.8497 54.2978 58.263 55.8364 58.3377C56.3884 58.3643 57.0204 58.607 57.6871 58.8657L57.7029 58.8718C58.6618 59.241 59.75 59.66 60.9991 59.599C62.7264 59.5193 64.067 58.5763 65.2506 57.7437L65.2631 57.735C66.2338 57.0497 67.0711 56.4603 67.8844 56.4603H67.8871C68.6364 56.4603 69.4844 56.9803 70.3804 57.5323C71.6711 58.327 73.1324 59.2257 74.9724 59.0283C76.1218 58.903 77.0684 58.3697 77.9058 57.8977C78.6498 57.479 79.2924 57.119 79.7751 57.207C80.0684 57.2577 80.4578 57.5403 80.8684 57.839L80.8735 57.8427C81.1816 58.0658 81.5293 58.3175 81.9244 58.5377C82.8631 59.055 83.8578 59.2737 84.7378 59.4657C85.1058 59.5457 85.4551 59.623 85.7831 59.7163C89.3378 60.727 91.8658 64.6657 91.3058 68.3217C91.1911 69.0817 90.9591 69.855 90.7111 70.6737L90.7069 70.6876C90.3642 71.8246 90.0094 73.0016 89.9298 74.295C89.7564 77.0977 91.4258 80.2577 94.4204 80.4763C94.7434 80.5008 95.0512 80.4269 95.3147 80.28C95.7188 80.3027 96.1316 80.173 96.4597 79.8844C99.3903 77.3084 100.46 77.5244 101.55 78.0764C104.049 79.3378 103.665 82.1698 103.382 83.3351C102.833 85.6471 101.35 87.8124 99.2223 89.4204C98.1663 90.2044 97.017 90.8577 95.793 91.3644C95.1877 91.6204 94.561 91.8498 93.9263 92.0498C93.8296 92.0813 93.7213 92.1078 93.6066 92.136L93.6066 92.136L93.513 92.1591C92.825 92.3244 91.6757 92.6018 91.0677 93.8631C89.409 97.3164 88.6277 99.1564 88.9663 103.172C89.0357 104.007 89.737 104.639 90.5583 104.639C90.6037 104.639 90.649 104.636 90.697 104.626C91.577 104.554 92.2303 103.778 92.1557 102.898C91.889 99.7617 92.3637 98.5591 93.897 95.3591C93.9728 95.3345 94.0802 95.3083 94.179 95.2842C94.2088 95.277 94.2378 95.2699 94.265 95.2631C94.4517 95.2178 94.665 95.1644 94.8863 95.0951C95.6143 94.8684 96.337 94.6018 97.0277 94.3111C98.4837 93.7084 99.865 92.9244 101.14 91.9778C102.931 90.6257 104.365 88.9524 105.343 87.1061C105.372 87.2083 105.412 87.3091 105.463 87.407ZM93.1244 74.4923C93.0518 75.694 93.6662 77.1356 94.5792 77.2782C98.6455 73.7964 101.027 74.2258 102.99 75.2178C106.094 76.7858 107.436 80.1804 106.492 84.0791C106.398 84.4722 106.285 84.8617 106.152 85.2462C106.833 84.8944 107.567 84.7987 108.276 84.7083L108.278 84.7081C109.915 84.4975 111.207 84.3312 112.058 81.183C112.228 80.5573 112.002 79.15 111.821 78.0202L111.82 78.015C111.714 77.3537 111.604 76.671 111.543 76.0283C111.26 73.0977 112.034 70.7217 113.724 69.343C114.042 69.0817 114.37 68.8763 114.66 68.6977L114.694 68.6764C114.991 68.4897 115.269 68.3151 115.415 68.143C115.932 67.5457 115.471 66.191 114.724 65.231C114.465 64.8979 114.175 64.5647 113.868 64.2134L113.86 64.2043C112.903 63.1137 111.82 61.8763 111.412 60.2017C111.154 59.1297 111.22 58.063 111.282 57.119C111.348 56.071 111.404 55.167 111.031 54.5963C110.799 54.2443 110.327 53.919 109.826 53.575C109.607 53.4257 109.388 53.2737 109.178 53.1163C106.17 50.8737 104.884 47.4577 103.642 44.1537C102.642 41.4923 101.695 38.9803 99.9324 37.1937C97.1698 34.3857 92.1591 34.0043 88.9911 36.359C88.6338 36.6257 88.1804 36.7297 87.7404 36.647C84.6871 36.071 82.0871 34.9243 79.7964 33.911C77.7991 33.0283 75.9138 32.1963 74.0018 31.847C69.5431 31.0417 62.7298 32.9083 56.9964 40.5643L56.8151 40.807C55.9778 41.9323 55.0284 43.2043 53.6124 43.9643C52.7138 44.447 51.7671 44.6497 50.9298 44.8257L50.8777 44.8369L50.8777 44.8369C50.3902 44.942 49.9286 45.0415 49.5218 45.1883C47.5804 45.8923 46.2844 48.2017 46.6898 50.2283C46.7538 50.5403 46.8524 50.879 46.9591 51.2363L46.9609 51.2423C47.2591 52.2488 47.5959 53.3855 47.3271 54.663C47.0764 55.7857 46.4524 56.6043 45.9004 57.327L45.7244 57.559C44.2044 59.6337 43.3164 62.103 43.1644 64.6897C43.0924 65.911 43.3191 66.8017 43.7858 67.135C43.9218 67.2337 44.1484 67.351 44.5778 67.2737C45.3164 67.1403 46.1964 66.5057 46.7164 65.727C47.3565 64.7735 47.7876 63.6482 48.2442 62.4562L48.2498 62.4417L48.2552 62.4274L48.2552 62.4274L48.2553 62.4273C48.5896 61.5571 48.9349 60.6582 49.3804 59.7803C50.5671 57.4417 52.9298 54.9937 55.9938 55.1403C57.0594 55.1935 58.0033 55.5565 58.8332 55.8757L58.8418 55.879L58.8619 55.8868C59.6186 56.1795 60.2682 56.4307 60.8498 56.4017C61.652 56.3643 62.5103 55.7596 63.4218 55.1172L63.4231 55.1163L63.4232 55.1163C64.6605 54.2443 66.0605 53.2577 67.8844 53.2577H67.8951C69.5458 53.2577 70.8818 54.079 72.0604 54.8043L72.071 54.8108C73.0425 55.4081 73.8818 55.924 74.6284 55.8443C75.1218 55.7883 75.7111 55.4577 76.3378 55.1057C77.4044 54.5057 78.7324 53.759 80.3431 54.055C81.3509 54.2305 82.1254 54.7932 82.7485 55.2459L82.7538 55.2497L82.8172 55.2955C83.0522 55.4653 83.2735 55.6253 83.4791 55.7403C84.0005 56.0288 84.6822 56.1781 85.4068 56.3368L85.4231 56.3403L85.4584 56.3481L85.4585 56.3481C85.8476 56.4337 86.2515 56.5225 86.6604 56.639C91.7724 58.0923 95.2764 63.5483 94.4711 68.8017C94.3262 69.774 94.0511 70.6864 93.7847 71.5698L93.7751 71.6017C93.4684 72.6123 93.1804 73.567 93.1244 74.4923ZM58.2491 74.695C59.28 74.695 60.1158 73.6802 60.1158 72.4284C60.1158 71.1765 59.28 70.1617 58.2491 70.1617C57.2182 70.1617 56.3824 71.1765 56.3824 72.4284C56.3824 73.6802 57.2182 74.695 58.2491 74.695ZM67.3163 75.3232C68.3472 75.3232 69.1829 74.3084 69.1829 73.0565C69.1829 71.8047 68.3472 70.7898 67.3163 70.7898C66.2853 70.7898 65.4496 71.8047 65.4496 73.0565C65.4496 74.3084 66.2853 75.3232 67.3163 75.3232Z" fill="black"/>
<path d="M90.499 100C90.739 102.693 91.8403 108.779 95.939 107.867L96.379 108.533C96.179 112.712 94.0617 115.659 90.7443 118.712C87.3737 121.765 83.075 123.6 78.539 123.923C74.539 124.216 70.2857 123.259 67.2937 120.576C64.3017 117.893 62.7283 114.176 64.7097 110.989H64.9977C65.899 111.016 66.7283 110.544 67.491 110.064C68.4617 109.451 69.2883 106.696 69.8883 105.973C70.6883 104.936 72.187 101.243 72.5977 100H90.499V100Z" fill="#FFD39F"/>
<path d="M117.955 174.361C123.861 192.649 127.971 206.676 133.368 224.326C133.635 225.228 134.701 228.414 134.208 229.212C133.877 229.745 133.323 230.086 132.781 230.393C129.821 232.076 126.589 232.217 123.251 232.889L110.859 235.356C93.1227 238.537 75.3227 239.316 57.5547 236.318L54.2027 235.926L42.736 233.732C41.7014 233.534 40.5654 233.27 39.96 232.398C39.4587 231.684 39.4614 230.742 39.4987 229.87C39.6507 226.404 40.0507 222.964 40.4507 219.521L43.6054 192.321C44.9574 180.668 46.312 168.996 48.1547 157.414L48.0267 157.374C44.9254 156.308 41.872 155.124 38.816 153.937C38.3947 153.817 38.016 153.582 37.7174 153.262C37.1174 152.489 37.632 151.38 38.1467 150.545C42.6907 143.158 46.576 135.388 49.7627 127.321C52.1947 121.161 54.7334 114.23 60.6694 111.294L73.0747 112.71L96.416 106.398C100.499 107.492 103.848 110.42 106.597 113.633C110.072 117.694 112.827 122.321 114.747 127.31C118.995 138.358 118.997 150.812 124.12 161.484C121.691 162.204 119.224 162.782 116.731 163.222L117.955 174.361Z" fill="black"/>
<path fill-rule="evenodd" clip-rule="evenodd" d="M74.6121 122.131C73.3614 119.681 72.6121 117.006 72.4121 114.262C79.1534 108.379 86.0254 105.115 93.1748 102.686C93.6174 102.537 94.2228 102.443 94.4574 102.849C94.5454 103.049 94.5668 103.273 94.5214 103.489L94.0441 107.721C93.8201 109.702 93.5721 111.755 92.5321 113.459C91.4334 115.265 89.5721 116.454 87.7321 117.499C84.1241 119.55 80.3481 121.294 76.4468 122.71C76.0148 122.867 75.5054 123.014 75.1134 122.774C74.8921 122.609 74.7188 122.387 74.6121 122.131ZM68.6951 108.797C68.5564 107.186 69.3564 105.656 70.1324 104.237C70.5991 104.205 70.1004 103.37 69.4817 103.29C68.8631 103.21 68.2897 103.624 67.7964 104.01C65.7697 105.592 63.7964 107.264 62.1004 109.194C61.7671 109.469 61.5297 109.84 61.4151 110.256C61.3031 110.672 61.3191 111.112 61.4657 111.517C62.1084 114.432 63.1431 117.245 64.5404 119.882C64.7644 120.306 65.1484 120.792 65.6071 120.661C65.7991 120.586 65.9644 120.458 66.0871 120.293L69.3884 116.56C70.6577 115.128 72.0071 113.488 71.9164 111.576C70.3564 111.997 68.8337 110.408 68.6951 108.797Z" fill="white"/>
<path fill-rule="evenodd" clip-rule="evenodd" d="M39.5091 229.882C39.6611 226.421 40.0611 222.976 40.4611 219.533L43.6185 192.344C44.9518 180.704 46.3118 169.042 48.1518 157.469L48.0291 157.397C45.8505 156.65 43.6958 155.842 41.5465 155.016L41.4371 155.549L37.4665 202.821C37.3038 204.744 37.0691 206.856 35.5865 208.154C35.0088 208.66 34.2733 209.001 33.5479 209.338C32.4114 209.865 31.2996 210.381 30.8585 211.501C30.2922 212.94 31.1877 214.269 32.1087 215.635C32.5972 216.36 33.0928 217.096 33.3811 217.864C33.9393 219.336 33.7111 220.969 33.4852 222.585C33.2255 224.442 32.9689 226.278 33.9145 227.821C35.0025 229.597 37.2585 230.205 39.3091 230.573L39.5091 229.882ZM107.646 216.573C105.499 199.259 104.179 181.896 103.683 164.483L116.846 164.072C117.489 169.884 118.132 175.696 118.776 181.51C120.312 195.388 121.849 209.27 123.384 223.157C123.787 226.789 124.102 230.789 121.99 233.773C121.179 234.917 120.067 235.816 118.776 236.363C117.486 236.909 116.07 237.088 114.683 236.875C113.296 236.661 111.998 236.067 110.931 235.157C109.864 234.248 109.072 233.061 108.643 231.725C108.487 231.238 108.378 230.732 108.269 230.227C108.042 229.177 107.817 228.135 107.179 227.291C106.507 226.399 105.479 225.869 104.458 225.344C103.291 224.744 102.135 224.149 101.536 223.024C100.707 221.459 101.384 219.411 102.72 218.259C104.056 217.107 105.883 216.683 107.646 216.573Z" fill="#FFD39F"/>
<path fill-rule="evenodd" clip-rule="evenodd" d="M75.5994 124.505C75.1807 124.505 74.7221 124.414 74.2794 124.142C74.2394 124.118 74.2021 124.092 74.1647 124.065C73.7274 123.742 73.3834 123.31 73.1647 122.814C72.2543 121.023 71.5983 119.14 71.2031 117.191C71.0319 117.391 70.8676 117.577 70.7167 117.747L67.45 121.437C67.1567 121.811 66.7674 122.101 66.3247 122.275C66.274 122.293 66.2234 122.312 66.1727 122.325C66.0527 122.355 65.8447 122.4 65.5834 122.4C64.9407 122.4 63.986 122.125 63.258 120.749C62.0093 118.394 61.0381 115.901 60.3611 113.323C55.9057 116.129 53.6888 121.76 51.5413 127.217L51.2613 127.926C48.0506 136.057 44.0986 143.955 39.52 151.401C39.216 151.894 39.112 152.185 39.0773 152.334C39.136 152.369 39.2 152.398 39.2693 152.417C39.3173 152.43 39.3626 152.446 39.408 152.462L39.472 152.486L39.5148 152.503C41.9304 153.44 44.4126 154.404 46.8954 155.292C48.0394 148.302 49.3699 141.338 50.989 134.467C51.1916 133.608 52.0503 133.072 52.9143 133.277C53.773 133.48 54.3063 134.341 54.1036 135.203C49.7298 153.769 47.4713 173.104 45.2869 191.805L45.2796 191.867L45.2023 192.533L42.0476 219.733L42.046 219.748C41.6572 223.101 41.2554 226.565 41.1036 229.968C41.085 230.392 41.0503 231.187 41.277 231.507C41.5436 231.885 42.493 232.077 43.0583 232.189L52.341 233.965C53.2076 234.131 53.7783 234.971 53.6103 235.837C53.469 236.6 52.7996 237.133 52.045 237.133C51.9463 237.133 51.845 237.123 51.7436 237.104L42.445 235.325C41.3943 235.115 39.6636 234.765 38.661 233.341C38.3485 232.896 38.158 232.424 38.045 231.947C35.9275 231.479 33.7787 230.647 32.5567 228.652C31.3061 226.618 31.6234 224.348 31.9034 222.348C32.1087 220.89 32.3007 219.511 31.8901 218.423C31.6752 217.846 31.2643 217.233 30.8281 216.583L30.7887 216.524L30.7886 216.524C29.77 215.012 28.5034 213.132 29.3754 210.911C30.0567 209.192 31.6359 208.455 32.9039 207.864L32.9114 207.86C33.5487 207.564 34.1487 207.284 34.5407 206.943C35.5141 206.095 35.7274 204.444 35.8767 202.682L39.7936 156.051C39.2972 155.858 38.8032 155.666 38.312 155.475L38.3066 155.473C37.6373 155.265 37.032 154.886 36.5546 154.371C36.5226 154.337 36.4933 154.302 36.464 154.265C35.552 153.089 35.664 151.563 36.7946 149.726C41.2746 142.441 45.1413 134.71 48.2853 126.753L48.5626 126.046C50.9733 119.918 53.7066 112.974 59.9706 109.878C59.9964 109.865 60.0224 109.853 60.0485 109.842C60.2613 109.223 60.6148 108.659 61.0767 108.197C62.8634 106.243 64.8394 104.445 66.954 102.853C67.5034 102.427 68.5114 101.645 69.826 101.821C70.8607 101.96 72.3407 103 72.298 104.32C72.282 104.8 72.0794 105.224 71.7514 105.523L71.7513 105.523C71.674 105.656 71.5967 105.79 71.5194 105.925L71.5153 105.933C70.9405 106.928 70.3462 107.957 70.4154 108.789C70.4474 109.176 70.7274 109.613 72.522 110.173C73.031 110.332 73.4178 110.729 73.5727 111.222C79.0113 106.921 85.0147 103.772 92.6634 101.174C94.3141 100.617 95.3887 101.262 95.8447 102.049C95.8741 102.102 95.9007 102.156 95.9247 102.209C96.1354 102.692 96.1967 103.214 96.1061 103.732L95.9779 104.871C96.248 104.793 96.5421 104.785 96.8334 104.864C100.639 105.882 104.233 108.416 107.817 112.605C111.42 116.816 114.255 121.576 116.244 126.749C118.215 131.877 119.3 137.317 120.348 142.578L120.356 142.62C121.641 149.066 122.855 155.156 125.567 160.805C125.769 161.229 125.777 161.717 125.585 162.146C125.393 162.576 125.025 162.898 124.577 163.032C122.582 163.617 120.575 164.113 118.558 164.518L119.641 174.391C123.812 187.324 127.107 198.199 130.582 209.665L130.583 209.669L130.584 209.672L130.584 209.672L130.696 210.042C132.035 214.466 133.421 219.04 134.896 223.864C134.928 223.97 134.963 224.085 135.005 224.218C135.904 227.141 136.259 228.938 135.568 230.058C135.04 230.912 134.259 231.4 133.568 231.792C131.087 233.201 128.47 233.631 125.939 234.047L125.938 234.047L125.933 234.048L125.845 234.062L125.844 234.062L125.844 234.062C125.093 234.186 124.322 234.312 123.565 234.466C123.52 234.474 123.475 234.481 123.43 234.486C123.404 234.525 123.377 234.564 123.351 234.603C123.326 234.638 123.302 234.673 123.277 234.708C122.293 236.095 120.946 237.178 119.381 237.842C118.245 238.322 117.034 238.564 115.813 238.564C115.346 238.564 114.88 238.53 114.413 238.458C113.083 238.253 111.821 237.759 110.712 237.013C100.172 238.88 90.1604 239.814 80.525 239.814C72.5543 239.814 64.8423 239.177 57.2903 237.902C56.4183 237.756 55.8317 236.929 55.9783 236.06C56.125 235.188 56.949 234.598 57.821 234.748C73.5257 237.397 89.9751 237.228 108.029 234.228C107.64 233.598 107.327 232.921 107.098 232.21C106.92 231.644 106.8 231.095 106.688 230.562C106.488 229.623 106.312 228.812 105.888 228.247C105.437 227.652 104.602 227.22 103.717 226.764L103.712 226.762C102.415 226.093 100.945 225.336 100.112 223.77C98.9944 221.655 99.6637 218.764 101.672 217.042C102.752 216.114 104.157 215.49 105.861 215.178C103.901 198.843 102.661 182.247 102.17 165.807C99.8929 165.712 97.6118 165.505 95.3294 165.184C94.5214 165.069 93.9294 164.368 93.9534 163.554L94.6814 138.002C94.7054 137.12 95.4414 136.416 96.3268 136.448C97.2094 136.472 97.9054 137.21 97.8814 138.093L97.1934 162.2C105.511 163.192 113.807 162.605 121.897 160.453C119.541 154.911 118.357 148.969 117.208 143.203L117.208 143.203L117.207 143.197C116.185 138.066 115.129 132.765 113.255 127.893C111.396 123.061 108.748 118.616 105.383 114.682C102.233 111.002 99.1641 108.8 96.0041 107.954C95.8769 107.92 95.7575 107.872 95.647 107.811L95.6367 107.902C95.4181 109.844 95.1434 112.257 93.9007 114.294C92.5754 116.473 90.4314 117.809 88.5247 118.892C84.8474 120.982 80.9701 122.772 76.9941 124.214C76.7301 124.316 76.2074 124.505 75.5994 124.505ZM74.0821 114.942C74.3327 117.124 74.9541 119.225 75.9327 121.201C79.7274 119.822 83.4314 118.11 86.9434 116.116C88.5007 115.23 90.2394 114.161 91.1674 112.636C92.0428 111.204 92.2518 109.353 92.454 107.562L92.4554 107.55L92.7967 104.518C85.2501 107.172 79.4127 110.422 74.0821 114.942ZM125.416 230.888C125.244 230.916 125.071 230.944 124.896 230.972C125.535 228.157 125.211 225.193 124.971 222.995L124.97 222.991L121.422 190.636C123.532 197.435 125.494 203.913 127.517 210.591L127.518 210.595L127.518 210.596L127.632 210.97C128.971 215.397 130.357 219.973 131.829 224.786C131.852 224.863 131.881 224.957 131.914 225.064L131.944 225.16C132.571 227.202 132.731 228.109 132.736 228.504C132.554 228.683 132.24 228.863 132.022 228.988L131.987 229.008C130.006 230.135 127.787 230.499 125.438 230.884L125.416 230.888ZM116.429 174.858C116.341 174.587 116.33 174.309 116.383 174.048L115.399 165.076C112.078 165.585 108.732 165.849 105.374 165.866C105.881 182.692 107.178 199.677 109.232 216.378C109.285 216.815 109.157 217.255 108.874 217.596C108.592 217.935 108.184 218.143 107.744 218.17C105.976 218.279 104.634 218.716 103.76 219.468C102.888 220.218 102.522 221.474 102.944 222.268C103.305 222.948 104.172 223.396 105.175 223.913L105.186 223.919L105.198 223.925C106.304 224.497 107.557 225.144 108.445 226.319C109.297 227.448 109.575 228.743 109.82 229.886L109.82 229.886L109.82 229.886L109.821 229.89L109.836 229.959C109.934 230.414 110.027 230.843 110.152 231.236C110.488 232.284 111.112 233.22 111.952 233.94C112.792 234.658 113.816 235.127 114.906 235.295C116 235.463 117.114 235.324 118.133 234.895C119.152 234.463 120.026 233.759 120.666 232.858C122.397 230.418 122.186 226.964 121.789 223.34L116.494 175.06L116.429 174.858ZM46.3812 158.514C44.6674 169.524 43.3763 180.575 42.1101 191.413L42.101 191.491L38.869 219.36L38.8579 219.456C38.5112 222.452 38.1542 225.537 37.9708 228.63C36.8253 228.306 35.7981 227.816 35.2821 226.975C34.6341 225.919 34.8367 224.469 35.0714 222.789L35.0714 222.788L35.0735 222.774C35.3103 221.071 35.5787 219.14 34.8847 217.295C34.5301 216.351 33.9781 215.53 33.4421 214.735C32.6047 213.492 32.1114 212.692 32.3514 212.084C32.5619 211.549 33.3473 211.184 34.2582 210.76L34.2607 210.759C35.0341 210.399 35.9087 209.991 36.6421 209.354C38.5194 207.722 38.8687 205.295 39.0661 202.948L42.9052 157.242C44.0577 157.676 45.2179 158.103 46.3812 158.514ZM63.138 111.189C63.106 111.072 63.09 110.955 63.0954 110.835C63.1514 110.693 63.2394 110.563 63.3514 110.453L63.3515 110.453C63.3755 110.429 63.3967 110.408 63.418 110.384C64.746 108.928 66.186 107.568 67.7167 106.323C67.37 107.157 67.1514 108.064 67.234 109.053C67.41 111.155 68.978 112.203 70.29 112.765C69.9514 113.723 69.146 114.691 68.3247 115.619L65.7274 118.552C64.578 116.245 63.7167 113.805 63.162 111.285L63.138 111.189ZM69.9991 127.204C70.8091 127.204 71.4658 126.548 71.4658 125.738C71.4658 124.928 70.8091 124.271 69.9991 124.271C69.1891 124.271 68.5324 124.928 68.5324 125.738C68.5324 126.548 69.1891 127.204 69.9991 127.204ZM70.4001 135.869C70.4001 136.679 69.7435 137.336 68.9335 137.336C68.1234 137.336 67.4668 136.679 67.4668 135.869C67.4668 135.059 68.1234 134.402 68.9335 134.402C69.7435 134.402 70.4001 135.059 70.4001 135.869Z" fill="black"/>
</svg>
