<svg width="160" height="260" viewBox="0 0 160 260" fill="none" xmlns="http://www.w3.org/2000/svg">
<path d="M100.533 92.4314C101.067 94.0687 103.563 93.4287 104.915 92.3567C111.357 87.2447 115.187 79.098 115.373 70.874C115.56 62.65 112.203 54.4714 106.557 48.49C103.184 44.9194 98.6346 41.9807 93.7306 42.2314L85.8666 38.3327C84.7759 35.9087 81.8932 34.7967 79.2399 34.6687C76.5866 34.5407 73.9333 35.1434 71.2799 35.0234C69.1652 34.9274 67.0799 34.3754 64.9653 34.434C60.0506 34.5674 55.8426 37.9167 52.4053 41.434C46.6266 47.346 41.6346 54.8127 41.6506 63.082C41.6506 67.77 42.9839 73.3274 39.5173 76.49C39.0693 76.9007 38.5013 77.4234 38.7173 77.9914C38.7946 78.1407 38.8986 78.274 39.0293 78.3807C39.1599 78.4874 39.3093 78.5674 39.4693 78.6127C42.3679 79.7887 46.0826 78.1114 47.1146 75.146L52.3359 65.2954C54.0853 62.6287 57.7066 61.8447 60.8826 62.17C64.0586 62.4954 67.1039 63.674 70.2853 63.9594C72.8453 64.1674 75.4212 63.7994 77.8212 62.882C80.2212 61.9647 82.3839 60.5167 84.1519 58.65L85.7519 59.082C87.2826 59.8394 88.5732 61.01 89.4799 62.458C90.3839 63.9087 90.8693 65.5807 90.8773 67.29C90.8613 69.042 90.3439 70.7434 90.0559 72.474C89.7679 74.2047 89.7706 76.0874 90.6959 77.5754C91.6212 79.0634 93.7279 79.9114 95.2079 78.97" fill="black"/>
<path d="M90.5591 104.368C90.2524 100.72 90.9618 97.8721 92.5484 94.5707C92.9058 93.8241 93.6818 93.8321 94.4471 93.5894C95.1244 93.3761 95.7964 93.1307 96.4524 92.8534C97.7884 92.2987 99.0498 91.5814 100.212 90.7201C102.511 88.9841 104.3 86.5467 104.975 83.7201C105.586 81.1574 105.156 78.1067 102.295 76.6641C100.29 75.6507 98.4898 76.0107 95.4311 78.6987L95.2151 78.9841C93.7351 79.9254 91.6258 79.0801 90.7031 77.5894C89.7804 76.0987 89.7831 74.2187 90.0631 72.4881C90.3431 70.7574 90.8631 69.0561 90.8844 67.3041C90.8764 65.5947 90.3911 63.9227 89.4871 62.4721C88.5831 61.0214 87.2924 59.8534 85.7591 59.0961L84.1591 58.6641C82.3911 60.5307 80.2284 61.9761 77.8284 62.8961C75.4284 63.8161 72.8524 64.1841 70.2924 63.9734C67.1111 63.6881 64.0658 62.5121 60.8898 62.1841C57.7138 61.8561 54.0924 62.6374 52.3431 65.3094L50.6658 66.9307C49.0658 69.3307 48.7991 72.2641 47.9991 75.1974C47.9991 76.0401 44.7564 87.4214 52.2658 94.9307C54.9324 97.5974 58.3991 98.6641 61.9991 99.4641C65.2284 99.9627 68.7564 100.464 71.8658 99.1974C71.6871 101.973 71.7164 104.416 71.8444 107.195" fill="#FFD39F"/>
<path fill-rule="evenodd" clip-rule="evenodd" d="M38.9323 80.1172C39.7269 80.4319 40.5856 80.5866 41.4576 80.5866C42.5296 80.5866 43.6229 80.3545 44.6576 79.8852C44.9937 79.733 45.3158 79.5593 45.6219 79.3662C45.1693 86.4218 47.2666 92.6247 51.4714 96.5413C53.906 98.8053 57.066 100.253 61.1327 100.971C63.65 101.411 66.914 101.979 70.1194 101.36C70.066 102.648 70.0847 103.592 70.17 105.469C70.21 106.328 70.9167 106.997 71.7674 106.997C71.794 106.997 71.818 106.997 71.8447 106.987C72.7274 106.947 73.41 106.197 73.37 105.315C73.242 102.563 73.2714 101.971 73.442 99.288C73.4767 98.7387 73.226 98.208 72.778 97.888C72.33 97.568 71.7487 97.4987 71.2394 97.7067C68.426 98.856 65.2474 98.4373 61.6847 97.816C58.1994 97.2027 55.6474 96.0533 53.6527 94.1973C49.922 90.7253 48.1994 84.9467 48.922 78.3467C49.1407 76.3707 50.0207 72.592 51.8394 67.9147C51.9794 67.5541 51.98 67.1737 51.8674 66.833C52.0201 66.8795 52.1769 66.9024 52.3329 66.9024C52.8556 66.9024 53.3649 66.6491 53.6689 66.1771C55.0876 64.0144 58.2396 63.5131 60.7143 63.7664C62.1477 63.9118 63.5628 64.2488 65.061 64.6055L65.061 64.6055L65.0983 64.6144C66.7169 65.001 68.3943 65.4011 70.1489 65.5584C72.9329 65.7851 75.7809 65.377 78.3889 64.3797C80.7471 63.4779 82.9287 62.0834 84.7445 60.3262C84.8374 60.4026 84.9404 60.4697 85.0528 60.5254C86.3195 61.152 87.3835 62.1174 88.1328 63.3147C88.8795 64.5147 89.2795 65.896 89.2875 67.2854C89.2795 68.328 89.0555 69.3974 88.8182 70.528L88.8072 70.5805C88.6959 71.111 88.5804 71.6612 88.4875 72.2214C88.0608 74.7814 88.3408 76.8134 89.3462 78.4294C90.0955 79.632 91.3675 80.5387 92.7515 80.8534C93.1062 80.9334 93.4608 80.9734 93.8102 80.9734C94.6235 80.9734 95.4048 80.7547 96.0768 80.3307C96.3194 80.176 96.5064 79.9668 96.6318 79.7293C99.431 77.3141 100.479 77.5324 101.548 78.0733C104.047 79.3346 103.663 82.1666 103.38 83.332C102.831 85.644 101.348 87.8093 99.22 89.4173C98.164 90.2013 97.0147 90.8546 95.7907 91.3613C95.1853 91.6173 94.5587 91.8466 93.924 92.0466C93.8273 92.0782 93.719 92.1047 93.6043 92.1329L93.6042 92.1329L93.5107 92.156C92.8227 92.3213 91.6733 92.5986 91.0653 93.86C89.4067 97.3133 88.6253 99.1533 88.964 103.169C89.0333 104.004 89.7347 104.636 90.556 104.636C90.6013 104.636 90.6467 104.633 90.6947 104.623C91.5747 104.551 92.228 103.775 92.1533 102.895C91.8867 99.7586 92.3613 98.556 93.8947 95.356C93.9704 95.3314 94.0776 95.3053 94.1763 95.2812L94.1764 95.2812C94.2063 95.2739 94.2354 95.2668 94.2627 95.26C94.4493 95.2146 94.6627 95.1613 94.884 95.092C95.612 94.8653 96.3347 94.5986 97.0253 94.308C97.7494 94.0083 98.455 93.6637 99.1382 93.2766C99.4995 94.0569 100.149 94.6165 100.997 94.8711C101.344 94.9751 101.706 95.0205 102.074 95.0205C103.464 95.0205 104.941 94.3618 105.898 93.6045C112.624 88.2685 116.762 79.7831 116.962 70.9058C117.154 62.3938 113.784 53.8205 107.709 47.3858C103.362 42.7858 98.3677 40.3858 93.6371 40.6285C92.7544 40.6738 92.0744 41.4258 92.1197 42.3085C92.1651 43.1911 92.9171 43.8738 93.7997 43.8258C98.8957 43.5698 103.245 47.3245 105.381 49.5858C110.882 55.4151 113.936 63.1591 113.762 70.8365C113.581 78.7751 109.898 86.3511 103.912 91.1005C103.218 91.6471 102.349 91.8631 102.002 91.8258C101.947 91.6904 101.875 91.5661 101.79 91.4548C104.171 89.453 105.828 86.8578 106.489 84.076C107.433 80.1773 106.092 76.7826 102.988 75.2146C100.988 74.204 98.5533 73.7773 94.3453 77.476C94.253 77.5572 94.1721 77.6467 94.103 77.7424C93.8756 77.8015 93.6404 77.7764 93.4635 77.736C92.9115 77.608 92.3622 77.2187 92.0662 76.7414C91.4982 75.8267 91.3568 74.4827 91.6448 72.7467C91.7171 72.2966 91.8098 71.8506 91.9069 71.3836L91.9069 71.3836L91.9069 71.3835L91.9069 71.3835L91.9069 71.3834L91.9488 71.1814C92.2075 69.9467 92.4742 68.672 92.4875 67.2907C92.4768 65.2827 91.9115 63.3227 90.8475 61.6187C89.7835 59.9174 88.2715 58.5467 86.4715 57.656C86.0957 57.47 85.682 57.4455 85.3091 57.5558C85.2893 57.5349 85.2688 57.5144 85.2476 57.4944C84.6076 56.8864 83.5943 56.913 82.9863 57.5557C81.3916 59.2384 79.4076 60.5637 77.2449 61.393C75.0823 62.2224 72.7169 62.5584 70.4236 62.3717C68.9267 62.2397 67.4507 61.8881 65.8894 61.5163L65.8893 61.5163L65.8893 61.5162L65.8892 61.5162L65.8423 61.505C64.2983 61.137 62.6983 60.7557 61.0423 60.585C56.6263 60.1344 52.8689 61.5691 50.9943 64.4251C50.7173 64.8489 50.6669 65.3562 50.8138 65.8033C50.0198 65.5608 49.1607 65.9683 48.8554 66.7547C47.9315 69.1297 47.1591 71.5006 46.6049 73.6231C46.1539 73.7761 45.7757 74.1286 45.6069 74.6132C45.2576 75.6132 44.4309 76.4719 43.3349 76.9679C42.5429 77.3279 41.7029 77.4559 40.9269 77.3492C43.8629 74.3545 43.6043 69.9812 43.3749 66.1039C43.3109 65.0425 43.2523 64.0399 43.2523 63.0719C43.2389 56.4585 46.7056 49.5519 53.5509 42.5465C56.2283 39.8079 60.3269 36.1545 65.0123 36.0265C66.0896 35.9972 67.1909 36.1492 68.3589 36.3119C69.2789 36.4399 70.2309 36.5705 71.2096 36.6159C72.6336 36.6799 74.0336 36.5545 75.3829 36.4319L75.4083 36.4296C76.7136 36.3131 77.9481 36.2029 79.1643 36.2612C81.1509 36.3572 83.5723 37.1225 84.4096 38.9839C84.7723 39.7892 85.7189 40.1492 86.5243 39.7865C87.3296 39.4239 87.6896 38.4772 87.3269 37.6719C85.8976 34.4932 82.2523 33.2079 79.3189 33.0665C77.8809 32.9976 76.4746 33.1239 75.1157 33.246L75.0949 33.2479C73.7936 33.3652 72.5643 33.4745 71.3536 33.4212C70.5387 33.3846 69.7188 33.2713 68.8511 33.1515L68.7963 33.1439C67.5509 32.9705 66.2629 32.7919 64.9216 32.8292C59.0736 32.9865 54.3243 37.1732 51.2603 40.3092C43.8069 47.9332 40.0363 55.5945 40.0496 63.0745C40.0496 64.0835 40.1102 65.1288 40.1689 66.1435L40.1776 66.2932L40.1779 66.2985C40.3911 69.9179 40.5925 73.3368 38.4363 75.3039C37.8923 75.8026 36.6203 76.9705 37.2229 78.5545C37.2416 78.6105 37.2656 78.6639 37.2923 78.7145C37.4683 79.0585 37.7109 79.3599 38.0096 79.6079C38.2843 79.8372 38.5936 80.0079 38.9323 80.1172ZM60.1134 72.4253C60.1134 73.6771 59.2777 74.6919 58.2467 74.6919C57.2158 74.6919 56.3801 73.6771 56.3801 72.4253C56.3801 71.1734 57.2158 70.1586 58.2467 70.1586C59.2777 70.1586 60.1134 71.1734 60.1134 72.4253ZM69.1806 73.0534C69.1806 74.3052 68.3449 75.3201 67.3139 75.3201C66.283 75.3201 65.4473 74.3052 65.4473 73.0534C65.4473 71.8015 66.283 70.7867 67.3139 70.7867C68.3449 70.7867 69.1806 71.8015 69.1806 73.0534Z" fill="black"/>
<path d="M90.499 100C90.739 102.693 91.8403 108.779 95.939 107.867L96.379 108.533C96.179 112.712 94.0617 115.659 90.7443 118.712C87.3737 121.765 83.075 123.6 78.539 123.923C74.539 124.216 70.2857 123.259 67.2937 120.576C64.3017 117.893 62.7283 114.176 64.7097 110.989H64.9977C65.899 111.016 66.7283 110.544 67.491 110.064C68.4617 109.451 70.4643 106.936 71.0643 106.213C71.8643 105.176 72.1897 101.243 72.6003 100H90.499V100Z" fill="#FFD39F"/>
<path d="M96.5034 106.376C100.586 107.467 103.935 110.4 106.685 113.6C110.159 117.662 112.914 122.288 114.834 127.278C119.082 138.326 119.085 150.779 124.207 161.451C121.426 162.275 118.597 162.915 115.733 163.371L118.042 174.323C123.949 192.611 128.058 206.638 133.455 224.288C133.722 225.19 134.789 228.376 134.295 229.174C133.965 229.707 133.41 230.048 132.869 230.355C129.909 232.038 126.677 232.179 123.338 232.851L110.946 235.318C93.21 238.499 75.41 239.278 57.642 236.28L54.29 235.888L42.8234 233.694C41.7887 233.496 40.6527 233.232 40.0474 232.36C39.546 231.646 39.5487 230.704 39.586 229.832C39.738 226.366 40.138 222.926 40.538 219.483L43.6927 192.283C45.066 180.664 46.3994 168.998 48.266 157.419L48.138 157.366C45.0367 156.299 41.9834 155.115 38.9274 153.928C38.506 153.808 38.1274 153.574 37.8287 153.254C37.2287 152.48 37.7434 151.371 38.258 150.536C42.7994 143.15 46.682 135.379 49.866 127.312C52.298 121.152 54.8367 114.222 60.7727 111.286L67.5007 108.47C66.93 109.443 67.6527 112.219 68.4234 113.043C69.194 113.867 70.29 114.299 71.3567 114.643C74.9354 115.758 78.8234 116.054 82.4554 115.176C86.0874 114.299 89.482 112.168 91.6154 109.083C92.1487 108.326 92.594 107.504 93.2554 106.862C93.9167 106.219 94.8554 105.766 95.754 105.966L96.5034 106.376Z" fill="black"/>
<path fill-rule="evenodd" clip-rule="evenodd" d="M37.4743 202.815L41.4449 155.543L48.5036 155.391C46.4903 167.639 45.0556 179.993 43.6236 192.327L40.4689 219.527L40.4675 219.539C40.068 222.978 39.6688 226.414 39.5169 229.876L39.3169 230.567C37.2663 230.199 35.0103 229.591 33.9223 227.815C32.9705 226.268 33.228 224.429 33.4885 222.567C33.7142 220.955 33.9422 219.326 33.3889 217.857C33.1006 217.089 32.605 216.354 32.1165 215.629C31.1956 214.263 30.3 212.934 30.8663 211.495C31.3134 210.368 32.4444 209.842 33.5885 209.309C34.3074 208.975 35.0314 208.638 35.5943 208.148C37.0529 206.879 37.3116 204.745 37.4743 202.815ZM107.642 216.568C105.514 199.262 104.21 181.896 103.733 164.475L116.896 164.075L123.376 223.163C123.773 226.795 124.082 230.798 121.968 233.779C121.157 234.92 120.042 235.816 118.752 236.363C117.461 236.91 116.045 237.086 114.658 236.872C113.274 236.659 111.976 236.062 110.909 235.152C109.842 234.243 109.053 233.054 108.624 231.718C108.469 231.231 108.361 230.726 108.253 230.222C108.027 229.171 107.804 228.128 107.165 227.28C106.494 226.392 105.468 225.863 104.45 225.338C103.282 224.737 102.125 224.14 101.525 223.014C100.698 221.451 101.376 219.4 102.714 218.251C104.053 217.102 105.88 216.678 107.642 216.568Z" fill="#FFD39F"/>
<path fill-rule="evenodd" clip-rule="evenodd" d="M90.8204 106.526C90.8965 106.661 90.9733 106.798 91.0525 106.935C90.8978 107.156 90.7544 107.375 90.6177 107.583C90.4844 107.786 90.351 107.988 90.2044 108.199C88.375 110.844 85.3804 112.831 81.9857 113.647C78.8017 114.412 75.2604 114.239 71.7537 113.146C70.8897 112.866 70.0177 112.532 69.4977 111.975C69.1928 111.649 69.0325 111.172 69.1113 110.878C69.73 110.439 70.2131 110.003 70.5693 109.681L70.5827 109.669L70.6761 109.583C71.9908 108.397 72.3881 107.695 72.7374 106.965C72.7774 106.879 72.8174 106.797 72.8627 106.709C73.2734 105.927 72.9748 104.959 72.1934 104.546C71.4121 104.135 70.4441 104.434 70.0308 105.215C69.9641 105.343 69.9054 105.463 69.8467 105.586C69.6632 105.972 69.5125 106.286 68.779 106.98C68.3133 106.442 67.5271 106.263 66.86 106.594L62.5427 108.727C62.0186 108.986 61.6989 109.494 61.6561 110.038C61.1872 109.678 60.5361 109.592 59.9706 109.872C53.7066 112.968 50.9733 119.912 48.5626 126.04L48.2853 126.746C45.1413 134.704 41.2746 142.434 36.7946 149.72C35.664 151.557 35.552 153.082 36.464 154.258C36.4933 154.296 36.5226 154.33 36.5546 154.365C37.032 154.88 37.6373 155.258 38.3066 155.466L38.312 155.469C38.8032 155.66 39.2972 155.852 39.7936 156.044L35.8767 202.675C35.7274 204.438 35.5141 206.089 34.5407 206.937C34.1487 207.278 33.5487 207.558 32.9114 207.854L32.9039 207.858C31.6359 208.449 30.0567 209.186 29.3754 210.905C28.5034 213.126 29.77 215.006 30.7887 216.518L30.7887 216.518L30.8282 216.577C31.2643 217.227 31.6752 217.84 31.8901 218.417C32.3007 219.505 32.1087 220.883 31.9034 222.342C31.6234 224.342 31.3061 226.611 32.5567 228.646C33.7793 230.641 35.9297 231.473 38.0483 231.941C38.1614 232.418 38.3518 232.89 38.6641 233.335C39.6668 234.759 41.3974 235.109 42.4481 235.319L52.2001 237.186C52.3014 237.205 52.4028 237.215 52.5014 237.215C53.2534 237.215 53.9254 236.682 54.0694 235.919C54.2374 235.053 53.6668 234.213 52.8001 234.047L43.0614 232.183C42.4961 232.071 41.5468 231.879 41.2801 231.501C41.0534 231.181 41.0881 230.386 41.1068 229.962C41.2585 226.559 41.6603 223.094 42.0491 219.742L42.0491 219.741L42.0508 219.727L45.2054 192.527L45.2828 191.861L45.29 191.798C47.4744 173.098 49.7329 153.763 54.1068 135.197C54.3094 134.335 53.7761 133.474 52.9174 133.271C52.0534 133.066 51.1948 133.602 50.9921 134.461C49.373 141.333 48.0424 148.297 46.8983 155.287C44.4145 154.398 41.9313 153.434 39.5148 152.496L39.472 152.48L39.408 152.456L39.4078 152.456C39.3625 152.44 39.3172 152.424 39.2693 152.41C39.2 152.392 39.136 152.362 39.0773 152.328C39.112 152.178 39.216 151.888 39.52 151.394C44.0986 143.949 48.0506 136.05 51.2613 127.92L51.5413 127.21C53.848 121.349 56.2346 115.288 61.3893 112.741C61.9133 112.482 62.233 111.974 62.2759 111.43C62.4599 111.571 62.6721 111.67 62.8961 111.721C62.4244 112.102 62.1916 112.735 62.3513 113.361C63.0819 116.238 65.6446 117.934 67.9886 119.297C70.2793 120.63 72.9139 120.891 75.2046 121.033C76.3006 121.102 77.5059 121.155 78.7753 121.155C81.4126 121.155 84.3326 120.923 87.1353 120.094C91.9753 118.667 95.0686 114.161 96.4819 111.603C96.9086 110.83 96.6286 109.857 95.8553 109.43C95.0819 109.003 94.1086 109.283 93.6819 110.057C92.5059 112.185 89.9753 115.921 86.2313 117.025C82.5726 118.105 78.7006 118.043 75.3993 117.841C73.4766 117.721 71.2819 117.513 69.5966 116.531C67.8153 115.497 65.8793 114.249 65.4526 112.574C65.306 111.991 64.8573 111.566 64.3164 111.421L65.9156 110.631C65.7865 111.846 66.2223 113.157 67.1617 114.162C68.1804 115.25 69.5004 115.78 70.7884 116.196C73.1777 116.943 75.5884 117.316 77.9297 117.316C79.5777 117.316 81.1884 117.132 82.7377 116.759C86.887 115.759 90.567 113.303 92.831 110.031C92.9909 109.804 93.1428 109.573 93.2947 109.341L93.2948 109.341L93.2949 109.341L93.295 109.34L93.3038 109.327C93.6259 108.836 93.9302 108.372 94.2764 108.036C94.6162 107.704 95.0446 107.503 95.3018 107.552C95.4915 107.737 95.7299 107.878 96.0041 107.951C99.1641 108.797 102.233 110.999 105.383 114.679C108.748 118.613 111.396 123.058 113.255 127.89C115.129 132.762 116.185 138.063 117.207 143.194L117.208 143.2L117.208 143.2C118.357 148.966 119.541 154.908 121.897 160.45C113.807 162.602 105.511 163.189 97.1934 162.197L97.8814 138.09C97.9054 137.207 97.2094 136.469 96.3268 136.445C95.4441 136.413 94.7054 137.117 94.6814 137.999L93.9534 163.551C93.9294 164.365 94.5214 165.066 95.3294 165.181C97.6119 165.502 99.893 165.709 102.17 165.804C102.661 182.242 103.901 198.837 105.861 215.171C104.157 215.483 102.752 216.107 101.672 217.035C99.6637 218.758 98.9944 221.649 100.112 223.763C100.945 225.33 102.415 226.087 103.712 226.756L103.717 226.758C104.602 227.214 105.437 227.646 105.888 228.241C106.312 228.806 106.488 229.617 106.688 230.555C106.8 231.089 106.92 231.638 107.098 232.203C107.327 232.915 107.64 233.592 108.029 234.221C89.9751 237.222 73.5257 237.391 57.821 234.741C56.949 234.592 56.125 235.181 55.9783 236.053C55.8317 236.923 56.4183 237.749 57.2903 237.896C64.8423 239.171 72.5543 239.808 80.525 239.808C90.1604 239.808 100.172 238.873 110.712 237.007C111.821 237.753 113.083 238.247 114.413 238.451C114.88 238.523 115.346 238.558 115.813 238.558C117.034 238.558 118.245 238.315 119.381 237.835C120.946 237.171 122.293 236.089 123.277 234.702C123.291 234.682 123.306 234.661 123.32 234.641C123.334 234.621 123.348 234.6 123.363 234.579L123.391 234.538L123.43 234.479C123.475 234.475 123.52 234.468 123.565 234.46C124.321 234.306 125.091 234.18 125.841 234.057L125.843 234.056L125.933 234.041L125.938 234.041L125.939 234.041C128.47 233.625 131.087 233.195 133.568 231.785C134.259 231.393 135.04 230.905 135.568 230.052C136.259 228.932 135.904 227.135 135.005 224.212C134.963 224.079 134.928 223.964 134.896 223.857C133.421 219.033 132.035 214.46 130.696 210.036L130.584 209.666L130.583 209.665L130.583 209.664L130.582 209.661C127.108 198.194 123.812 187.318 119.641 174.385L118.558 164.515C120.575 164.11 122.583 163.614 124.577 163.029C125.025 162.895 125.393 162.573 125.585 162.143C125.777 161.714 125.769 161.226 125.567 160.802C122.855 155.153 121.641 149.063 120.356 142.617L120.348 142.575C119.3 137.314 118.215 131.874 116.244 126.746C114.255 121.573 111.42 116.813 107.817 112.602C104.233 108.413 100.639 105.879 96.8334 104.861C96.814 104.855 96.7947 104.851 96.7753 104.846C96.5697 104.646 96.3077 104.498 96.007 104.431C95.1854 104.249 94.3081 104.364 93.4867 104.741C93.2982 104.405 93.0851 104.038 92.8257 103.654C92.3324 102.923 91.3377 102.729 90.6044 103.222C89.8737 103.715 89.679 104.71 90.1724 105.443C90.403 105.785 90.5998 106.135 90.7904 106.473L90.7906 106.473L90.8204 106.526ZM124.896 230.966C125.071 230.938 125.244 230.909 125.416 230.881L125.438 230.878C127.787 230.492 130.006 230.129 131.987 229.001L132.022 228.981C132.24 228.856 132.554 228.677 132.736 228.497C132.731 228.103 132.571 227.196 131.944 225.153L131.914 225.058C131.881 224.951 131.852 224.857 131.829 224.78C130.357 219.967 128.971 215.391 127.632 210.964L127.518 210.589L127.518 210.589L127.517 210.586L127.516 210.582C125.493 203.904 123.532 197.428 121.422 190.629L124.97 222.985L124.971 222.989C125.211 225.187 125.535 228.151 124.896 230.966ZM116.383 174.042C116.33 174.303 116.341 174.581 116.429 174.852L116.494 175.053L121.789 223.334C122.186 226.958 122.397 230.411 120.666 232.851C120.026 233.753 119.152 234.457 118.133 234.889C117.114 235.318 116 235.457 114.906 235.289C113.816 235.121 112.792 234.651 111.952 233.934C111.112 233.214 110.488 232.278 110.152 231.23C110.027 230.837 109.934 230.407 109.836 229.953L109.821 229.883L109.82 229.88C109.575 228.737 109.298 227.442 108.445 226.313C107.557 225.138 106.304 224.491 105.198 223.919L105.186 223.913L105.175 223.907C104.172 223.389 103.305 222.942 102.944 222.262C102.522 221.467 102.888 220.211 103.76 219.462C104.634 218.71 105.976 218.273 107.744 218.163C108.184 218.137 108.592 217.929 108.874 217.59C109.157 217.249 109.285 216.809 109.232 216.371C107.178 199.672 105.881 182.688 105.374 165.862C108.732 165.846 112.078 165.582 115.4 165.073L116.383 174.042ZM42.1132 191.407C43.3794 180.569 44.6704 169.518 46.3842 158.509C45.2199 158.098 44.0586 157.67 42.9052 157.236L39.0661 202.942C38.8687 205.289 38.5194 207.715 36.6421 209.347C35.9087 209.985 35.0341 210.393 34.2607 210.753L34.2583 210.754C33.3473 211.177 32.5619 211.543 32.3514 212.078C32.1114 212.686 32.6047 213.486 33.4421 214.729C33.9781 215.523 34.5301 216.345 34.8847 217.289C35.5787 219.134 35.3103 221.064 35.0735 222.767L35.0714 222.782L35.0714 222.782C34.8367 224.462 34.6341 225.913 35.2821 226.969C35.7986 227.81 36.8272 228.301 37.9738 228.625C38.1573 225.531 38.5143 222.446 38.861 219.45L38.8721 219.354L42.1041 191.485L42.1132 191.407Z" fill="black"/>
</svg>
