<svg width="160" height="260" viewBox="0 0 160 260" fill="none" xmlns="http://www.w3.org/2000/svg">
<path fill-rule="evenodd" clip-rule="evenodd" d="M82.5199 53.0077C85.1492 50.4184 86.8292 47.0424 88.4586 43.7331C92.4266 35.6744 82.1332 31.6717 76.0186 31.4077C63.0986 30.8451 50.1839 38.5731 44.5839 50.2291C44.3234 50.7712 44.0663 51.3309 43.8063 51.8969C42.0627 55.6929 40.1895 59.771 36.2746 60.7411C35.7151 60.8801 35.1329 60.9443 34.5528 61.0081C33.6091 61.112 32.6709 61.2153 31.8452 61.6397C30.5119 62.3251 29.7679 64.4904 31.0452 65.2904C31.4719 65.5117 31.9466 65.6291 32.4266 65.6317L38.6426 66.1491C38.0292 68.3437 38.0826 71.6184 40.3466 71.8664C41.3039 71.9704 42.1866 71.3811 42.9332 70.7731C43.6005 70.2275 44.4316 69.7097 45.2854 69.1776C46.844 68.2064 48.4787 67.1878 49.3332 65.8664C50.1095 64.6653 50.4621 63.2855 50.8114 61.9185C51.2361 60.2565 51.656 58.6133 52.8266 57.3331C56.2666 53.5997 62.0452 52.2264 66.7946 54.0477C67.561 54.3357 68.2997 54.6988 69.0377 55.0616C70.1587 55.6128 71.2781 56.1631 72.4906 56.4477C76.0826 57.2904 79.8906 55.5971 82.5199 53.0077ZM109.912 51.7474C106.824 45.6327 96.8585 41.3927 89.9999 41.4674C89.9999 41.4674 84.9705 50.8434 83.4665 52.6674C81.4159 55.166 74.9332 57.734 74.9332 57.734C76.196 58.3169 77.6711 58.5812 79.2391 58.8623C81.9757 59.3527 84.9955 59.894 87.6639 62.2674C89.7945 64.6914 90.7519 68.0274 90.5599 71.2487C90.5323 71.712 90.4823 72.1773 90.4324 72.6425C90.299 73.8858 90.1655 75.129 90.4585 76.334C90.8612 77.99 92.4719 79.5394 94.1145 79.0887L106.979 86.6887C107.304 88.3207 109.475 88.6327 110.808 87.7554C112.141 86.878 112.768 85.2567 113.109 83.6967C113.135 83.5771 113.161 83.4563 113.186 83.3349C113.389 82.3707 113.599 81.3711 114.309 80.6914C115.089 79.9258 116.195 79.8071 117.316 79.6868C118.233 79.5883 119.161 79.4887 119.931 79.0327C121.891 77.8727 121.909 74.9127 120.787 72.9314C120.096 71.7129 119.109 70.7133 118.12 69.7112C117.5 69.0837 116.88 68.4552 116.331 67.7714C114.198 65.1138 113.256 61.8189 112.309 58.5044C111.648 56.1916 110.985 53.8693 109.912 51.7474Z" fill="black"/>
<path d="M72.4898 56.4419C70.4791 55.9699 68.7244 54.7672 66.7938 54.0419C62.0444 52.2259 56.2658 53.5992 52.8258 57.3326L50.6658 66.9326C49.0658 69.3326 48.7991 72.2659 47.9991 75.1992C47.9991 76.0419 44.7564 87.4232 52.2658 94.9326C54.9324 97.5992 58.3991 98.6659 61.9991 99.4659C65.2284 99.9646 68.7564 100.466 71.8658 99.1992C71.6871 101.975 71.6604 103.957 71.7884 106.735L90.5884 104.799C90.2818 101.151 90.9538 97.8686 92.5404 94.5672C92.8978 93.8206 93.6738 93.8286 94.4391 93.5859C95.1164 93.3726 95.7884 93.1272 96.4444 92.8499C97.7804 92.2952 99.0418 91.5779 100.204 90.7166C102.503 88.9806 104.292 86.5432 104.967 83.7166C105.578 81.1539 105.148 78.1032 102.287 76.6606C100.282 75.6472 98.4818 76.0072 95.4231 78.6952L94.1058 79.1006C92.4631 79.5512 90.8524 78.0019 90.4498 76.3459C90.0471 74.6899 90.4498 72.9619 90.5511 71.2606C90.7431 68.0392 89.7858 64.7032 87.6551 62.2792C85.5244 59.8552 82.1804 58.4552 78.9911 58.9486" fill="#FFD39F"/>
<path fill-rule="evenodd" clip-rule="evenodd" d="M40.576 73.4795C40.4453 73.4795 40.3093 73.4715 40.1733 73.4581C39.0853 73.3381 38.1893 72.7968 37.576 71.8928C36.7786 70.7141 36.608 69.1008 36.752 67.5995L32.3493 67.2341C31.64 67.2208 30.9333 67.0395 30.304 66.7115C30.2666 66.6928 30.2293 66.6715 30.1946 66.6475C29.2506 66.0555 28.736 65.0421 28.7866 63.8635C28.848 62.3888 29.8053 60.8901 31.112 60.2181C32.1879 59.6643 33.3318 59.5356 34.3422 59.4219L34.376 59.4181C34.92 59.3595 35.432 59.3008 35.888 59.1888C39.0539 58.4053 40.7285 54.7615 42.3488 51.2356L42.352 51.2288L42.434 51.0505L42.4341 51.0504L42.4341 51.0503C42.6703 50.5372 42.9047 50.0278 43.1413 49.5355C49.0053 37.3301 62.5573 29.2181 76.088 29.8075C80.1573 29.9835 87.1866 31.8901 89.8746 36.4261C90.864 38.0928 91.6693 40.8368 89.896 44.4395C88.3066 47.6715 86.5013 51.3328 83.6453 54.1461C80.328 57.4128 75.9146 58.8928 72.128 58.0048C70.7605 57.6846 69.5558 57.0957 68.3892 56.5255L68.3333 56.4981L68.3075 56.4855L68.3074 56.4854L68.3072 56.4853C67.5942 56.1354 66.9196 55.8043 66.2346 55.5461C62.128 53.9701 56.9893 55.1808 54.0053 58.4181C53.153 59.3503 52.8594 60.7985 52.5478 62.3351L52.5466 62.3408L52.5425 62.3611C52.2852 63.6283 52.021 64.9294 51.4301 66.1549C51.9016 66.5879 52.0851 67.2819 51.8394 67.9147C50.0207 72.592 49.1407 76.3707 48.922 78.3467C48.1994 84.9467 49.922 90.7253 53.6527 94.1973C55.6474 96.0533 58.1994 97.2027 61.6847 97.816C65.2474 98.4373 68.426 98.856 71.2394 97.7067C71.7487 97.4987 72.33 97.568 72.778 97.888C73.226 98.208 73.4767 98.7387 73.442 99.288C73.2714 101.971 73.242 102.563 73.37 105.315C73.41 106.197 72.7274 106.947 71.8447 106.987C71.8181 106.997 71.7941 106.997 71.7674 106.997H71.7674C70.9167 106.997 70.21 106.328 70.17 105.469C70.0847 103.592 70.066 102.648 70.1194 101.36C66.914 101.979 63.65 101.411 61.1327 100.971C57.066 100.253 53.906 98.8053 51.4714 96.5413C46.9967 92.3733 44.9087 85.616 45.7407 77.9973C45.978 75.8492 46.7076 72.9034 47.765 69.7608C47.3088 70.0274 46.8411 70.2806 46.3774 70.5316L46.3653 70.5381L46.3534 70.5445C45.4298 71.0435 44.5547 71.5163 43.9493 72.0128C43.0906 72.7088 41.9546 73.4795 40.576 73.4795ZM31.9866 63.9568C32.1306 64.0048 32.2826 64.0315 32.4346 64.0315C32.4749 64.0315 32.5128 64.0338 32.5528 64.0363L32.56 64.0368L38.776 64.5541C39.2506 64.5941 39.6853 64.8421 39.9573 65.2341C40.2293 65.6261 40.312 66.1195 40.184 66.5781C39.8 67.9488 39.8213 69.4955 40.2293 70.0981C40.312 70.2208 40.376 70.2581 40.5226 70.2741C40.951 70.3211 41.6556 69.7491 41.9099 69.5426L41.9253 69.5301C42.768 68.8421 43.8213 68.2715 44.8426 67.7195L44.8564 67.712C46.2414 66.9623 47.6712 66.1884 48.2586 65.2768C48.88 64.3141 49.1386 63.0448 49.4106 61.7008C49.776 59.8928 50.192 57.8421 51.648 56.2501C55.5493 52.0155 62.0133 50.4955 67.3706 52.5515C68.1979 52.8627 68.9828 53.2482 69.741 53.6207L69.7411 53.6207L69.7466 53.6235L69.7562 53.6282C70.822 54.1517 71.827 54.6455 72.8586 54.8875C76.1173 55.6501 79.408 53.8261 81.4 51.8661C83.8683 49.4351 85.4699 46.1851 87.0197 43.0402L87.0266 43.0261C87.9546 41.1408 87.9866 39.5141 87.1253 38.0581C85.384 35.1221 80.08 33.1835 75.9546 33.0048C63.656 32.4688 51.3573 39.8368 46.032 50.9195C45.7808 51.4427 45.5323 51.9838 45.2812 52.5304L45.2666 52.5621C43.4213 56.5808 41.328 61.1355 36.6666 62.2901C36.0215 62.4514 35.3916 62.5213 34.7818 62.589L34.736 62.5941L34.7296 62.5948C33.9159 62.6852 33.1452 62.7709 32.584 63.0581C32.2453 63.2341 32.0133 63.7035 31.9866 63.9568ZM91.4159 80.1752C92.0879 80.5726 92.8159 80.7752 93.5385 80.7752C93.8745 80.7752 94.2079 80.7299 94.5305 80.6446C94.7928 80.5733 95.022 80.441 95.2071 80.2672C95.6444 80.3213 96.1018 80.1954 96.4589 79.8813C99.3896 77.3053 100.459 77.5213 101.55 78.0733C104.048 79.3346 103.664 82.1666 103.382 83.332C102.832 85.644 101.35 87.8093 99.2215 89.4173C98.1656 90.2013 97.0162 90.8546 95.7922 91.3613C95.1869 91.6173 94.5602 91.8466 93.9256 92.0466C93.8288 92.0782 93.7205 92.1047 93.6058 92.1329L93.5122 92.156C92.8242 92.3213 91.6749 92.5986 91.0669 93.86C89.4082 97.3133 88.6269 99.1533 88.9656 103.169C89.0349 104.004 89.7362 104.636 90.5576 104.636C90.6029 104.636 90.6482 104.633 90.6962 104.623C91.5762 104.551 92.2296 103.775 92.1549 102.895C91.8882 99.7586 92.3629 98.556 93.8962 95.356C93.972 95.3314 94.0794 95.3052 94.1783 95.2811C94.208 95.2738 94.2371 95.2668 94.2642 95.26C94.4509 95.2146 94.6642 95.1613 94.8856 95.092C95.6136 94.8653 96.3362 94.5986 97.0269 94.308C98.4829 93.7053 99.8642 92.9213 101.139 91.9746C102.97 90.5927 104.428 88.8751 105.407 86.9803L105.411 87.0015C105.635 88.1375 106.397 89.0522 107.496 89.5108C108.016 89.7268 108.587 89.8335 109.16 89.8335C110.045 89.8335 110.944 89.5802 111.683 89.0868C113.16 88.1135 114.136 86.4602 114.667 84.0335L114.747 83.6575L114.749 83.6446C114.908 82.8894 115.058 82.1782 115.424 81.8282C115.805 81.4524 116.58 81.3696 117.478 81.2737L117.48 81.2735C118.507 81.1642 119.672 81.0388 120.739 80.4068C122.093 79.6068 122.931 78.1988 123.101 76.4415C123.24 74.9962 122.904 73.4282 122.173 72.1402C121.379 70.7385 120.3 69.6458 119.256 68.5878L119.253 68.5855C118.645 67.9695 118.072 67.3882 117.573 66.7695C115.643 64.3642 114.768 61.3055 113.843 58.0655L113.837 58.0441L113.837 58.044C113.167 55.6987 112.474 53.2746 111.336 51.0255C107.949 44.3188 101.133 40.0148 93.9307 40.0148H93.7334C92.8507 40.0228 92.1414 40.7482 92.1521 41.6308C92.1627 42.5082 92.8774 43.2122 93.7521 43.2122H93.7707H93.9334C99.9387 43.2122 105.637 46.8282 108.483 52.4655C109.488 54.4522 110.112 56.6308 110.771 58.9402C111.741 62.3428 112.747 65.8602 115.083 68.7695C115.681 69.5143 116.341 70.1822 116.977 70.8261L116.977 70.8263L116.977 70.8265L116.981 70.8308L116.994 70.8434C117.928 71.7907 118.811 72.6861 119.395 73.7162C120.133 75.0228 120.173 77.0255 119.115 77.6522C118.647 77.9313 117.922 78.009 117.154 78.0914L117.147 78.0922L117.144 78.0925C115.907 78.2258 114.367 78.3917 113.205 79.5322C112.136 80.5561 111.851 81.9133 111.621 83.0039L111.621 83.0039L111.621 83.0042L111.621 83.005C111.597 83.1221 111.573 83.2391 111.547 83.3535C111.203 84.9242 110.672 85.9268 109.928 86.4175C109.595 86.6362 109.069 86.6975 108.731 86.5562C108.573 86.4895 108.56 86.4282 108.549 86.3748C108.376 85.5082 107.533 84.9455 106.667 85.1188C106.466 85.1591 106.281 85.2353 106.118 85.3395C106.265 84.9237 106.39 84.502 106.491 84.076C107.435 80.1773 106.094 76.7826 102.99 75.2146C100.99 74.204 98.5549 73.7773 94.3469 77.476C94.3335 77.4878 94.3203 77.4998 94.3073 77.5119C94.1075 77.4874 93.8997 77.5004 93.6932 77.5566L93.6918 77.5569C93.6184 77.576 93.4003 77.6325 93.0452 77.4232C92.5679 77.1406 92.1519 76.5566 92.0105 75.9699C91.7839 75.0312 91.8985 73.9592 92.0212 72.8205L92.0253 72.7825C92.0747 72.3196 92.126 71.8392 92.1545 71.3539C92.3812 67.5512 91.1812 63.8579 88.8639 61.2206C86.0079 57.9699 82.7972 57.9566 79.7545 58.4259C78.8799 58.5592 78.2825 59.3779 78.4159 60.2499C78.5492 61.1246 79.3679 61.7219 80.2399 61.5886C83.2852 61.1192 84.9145 61.5752 86.4585 63.3326C88.2265 65.3406 89.1359 68.1939 88.9599 71.1619C88.9384 71.5428 88.8979 71.928 88.8553 72.3325L88.8399 72.4792L88.8372 72.5043C88.694 73.8565 88.5461 75.2536 88.9012 76.7192C89.2505 78.1566 90.1892 79.4499 91.4159 80.1752ZM58.2483 74.6919C59.2792 74.6919 60.115 73.6771 60.115 72.4253C60.115 71.1734 59.2792 70.1586 58.2483 70.1586C57.2174 70.1586 56.3816 71.1734 56.3816 72.4253C56.3816 73.6771 57.2174 74.6919 58.2483 74.6919ZM67.3139 75.3201C68.3449 75.3201 69.1806 74.3052 69.1806 73.0534C69.1806 71.8015 68.3449 70.7867 67.3139 70.7867C66.283 70.7867 65.4473 71.8015 65.4473 73.0534C65.4473 74.3052 66.283 75.3201 67.3139 75.3201Z" fill="black"/>
<g clip-path="url(#clip0_1123_38265)">
<path d="M90.499 100C90.739 102.693 91.8403 108.779 95.939 107.867L96.379 108.533C96.179 112.712 94.0617 115.659 90.7443 118.712C87.3737 121.765 83.075 123.6 78.539 123.923C74.539 124.216 70.2857 123.259 67.2937 120.576C64.3017 117.893 62.7283 114.176 64.7097 110.989H64.9977C65.899 111.016 66.7283 110.544 67.491 110.064C68.4617 109.451 70.4643 106.936 71.0643 106.213C71.8643 105.176 72.1897 101.243 72.6003 100H90.499V100Z" fill="#FFD39F"/>
<path d="M33.8791 209.262C32.0124 209.958 30.4124 211.558 30.9458 213.691C34.4124 217.158 33.6124 222.224 33.3458 226.491C33.8871 227.68 34.7511 228.694 35.8364 229.419C36.9244 230.144 38.1911 230.552 39.4978 230.595L41.7324 210.23L33.8791 209.262Z" fill="#FFD39F"/>
<path d="M96.6034 106.43C101.321 107.694 104.979 111.328 107.926 115.048C111.139 119.115 113.662 123.683 115.393 128.568C116.361 131.294 117.891 134.366 118.523 137.187L119.366 139.75C123.899 159.302 124.737 179.462 125.041 199.568L125.307 200.214C126.934 206.227 133.067 221.427 134.401 227.827C134.443 228.374 134.353 228.923 134.134 229.427C131.467 232.627 126.934 231.827 123.427 232.912L111.035 235.382C93.2994 238.563 86.966 240.939 69.2007 237.944L68.4007 237.744C67.2327 227.92 66.3714 217.712 65.8727 207.427L65.75 207.96C64.0674 217.795 62.4914 226.894 62.1607 236.864L62.11 237.288C58.2887 236.558 46.7367 234.491 42.91 233.76C41.8754 233.56 40.7394 233.299 40.134 232.427C39.6327 231.712 39.6354 230.771 39.6727 229.899C39.8247 226.432 40.2247 222.99 40.6247 219.547L42.454 203.79H42.3154C39.606 203.462 37.43 203.134 34.7207 202.806C35.8434 190.416 37.2834 178.062 39.0407 165.739C40.5714 155.006 42.3474 144.27 45.5047 133.899C48.31 124.683 55.694 112.486 64.1447 107.864L69.406 108.704C72.8727 112.15 78.7047 112.88 82.902 110.392L96.6034 106.43Z" fill="black"/>
<path d="M105.762 216.001C103.194 216.83 99.8713 220.198 102.042 223.046C103.237 224.617 105.042 225.462 106.698 226.446C107.975 227.206 108.311 229.763 108.805 231.121C110.053 234.542 112.477 237.342 116.447 237.083C120.49 236.817 123.005 233.374 123.773 229.659C124.607 225.633 123.271 219.793 122.602 215.809L105.762 216.001Z" fill="#FFD39F"/>
<path fill-rule="evenodd" clip-rule="evenodd" d="M68.5527 150.277L68.7607 110.781C68.7607 109.237 69.0647 103.824 69.5367 103.075C66.07 105.347 63.9553 109.112 61.9607 112.733C60.8167 114.811 59.6353 117.037 59.7927 119.4C59.9088 121.169 60.7498 122.752 61.5933 124.34C62.3573 125.778 63.1234 127.22 63.3553 128.808C63.6774 131.012 62.9389 133.134 62.1945 135.273C61.6382 136.871 61.0785 138.479 60.9553 140.139C60.8087 142.219 61.6247 146.805 62.1713 148.827L66.1553 163.536L66.0193 176.947C70.6487 167.293 76.0567 158.032 82.1927 149.259C84.102 146.523 86.1927 143.483 85.782 140.171C85.6918 139.449 85.4864 138.726 85.2819 138.007C84.8819 136.599 84.486 135.206 84.966 133.867C85.2753 133.003 85.918 132.307 86.542 131.635L95.558 121.965C96.174 121.304 96.8087 120.611 97.078 119.747C97.382 118.76 97.166 117.696 96.9473 116.685L94.2007 104.029C93.958 102.912 93.4913 101.568 92.3607 101.387C89.6487 103.173 87.2407 105.837 85.1313 108.627C83.7752 110.422 82.526 112.277 81.3717 114.183L82.8995 110.393C78.7022 112.881 72.8702 112.151 69.4035 108.705V143.868L71.1934 139.429C70.2163 143.112 69.3702 146.846 68.598 150.592L68.5527 150.277ZM34.3691 209.172C34.5291 207.183 34.7051 205.146 35.5585 203.343L42.0891 204.055L41.3665 210.239C38.9958 210.223 36.6385 209.863 34.3691 209.172ZM102.86 215.224C102.714 213.146 102.852 211.061 103.268 209.021L122.932 209.309L123.13 214.224C123.146 214.81 123.106 215.52 122.596 215.81C122.346 215.925 122.071 215.973 121.796 215.952L103.663 216.002C103.468 216.026 103.271 215.981 103.103 215.88C103.02 215.792 102.956 215.688 102.914 215.576C102.874 215.464 102.855 215.344 102.86 215.224Z" fill="white"/>
<path fill-rule="evenodd" clip-rule="evenodd" d="M68.9432 239.52C74.8019 240.51 79.4392 240.923 83.6392 240.923C90.4206 240.923 96.0659 239.843 103.879 238.344L104.507 238.225L104.508 238.225L104.509 238.224L104.509 238.224L104.51 238.224L104.512 238.224L104.518 238.223C106.541 237.837 108.64 237.436 110.971 237.016C112.407 238.118 114.096 238.7 115.958 238.7C116.155 238.7 116.352 238.694 116.544 238.678C119.369 238.491 121.826 236.956 123.473 234.51C123.615 234.506 123.757 234.482 123.899 234.436C124.894 234.127 126.032 233.986 127.238 233.836C130.011 233.492 133.152 233.1 135.363 230.447C135.462 230.33 135.542 230.199 135.603 230.058C135.92 229.319 136.056 228.503 135.995 227.7L135.993 227.678C135.991 227.656 135.988 227.634 135.985 227.612C135.98 227.574 135.973 227.535 135.966 227.498C135.179 223.717 132.868 217.246 130.628 210.974L130.603 210.906L130.553 210.766C128.988 206.383 127.513 202.255 126.846 199.794C126.802 199.634 126.737 199.488 126.653 199.355C126.452 179.879 125.975 161.275 121.428 141.674C121.228 140.813 120.37 140.277 119.508 140.477C118.647 140.677 118.111 141.536 118.311 142.397C123.119 163.13 123.303 182.882 123.495 203.794L123.496 203.848C123.506 205.078 123.517 206.314 123.53 207.554L103.34 207.224C100.34 183.784 99.3058 159.938 100.263 136.333C100.3 135.45 99.6124 134.704 98.7298 134.669C97.8445 134.637 97.1005 135.32 97.0658 136.202C96.0818 160.45 97.1858 184.944 100.346 209.008C100.428 209.63 100.86 210.13 101.429 210.319C101.207 211.955 101.151 213.611 101.262 215.262C101.259 215.558 101.312 215.848 101.416 216.134C101.534 216.451 101.712 216.736 101.944 216.982C101.967 217.005 101.991 217.028 102.015 217.05C101.045 217.782 100.242 218.719 99.8883 219.846C99.5816 220.82 99.4883 222.334 100.768 224.014C101.955 225.574 103.592 226.51 105.038 227.334L105.242 227.452C105.456 227.574 105.67 227.697 105.88 227.822C106.275 228.058 106.706 229.63 106.895 230.317L106.899 230.332C107.03 230.812 107.155 231.262 107.302 231.67C107.642 232.605 108.048 233.455 108.51 234.214C106.632 234.562 104.879 234.896 103.279 235.203L103.275 235.204C91.0988 237.534 84.344 238.827 69.8686 236.43C68.798 227.21 68.0208 217.802 67.5446 208.454L67.5896 208.194C67.6432 207.881 67.6023 207.574 67.4874 207.301C67.0095 197.411 66.8695 187.599 67.0766 178.16C67.2366 178.022 67.3726 177.848 67.4712 177.643C72.0472 168.096 77.4446 158.856 83.5139 150.179C85.4499 147.406 87.8606 143.952 87.3806 139.984C87.2766 139.131 87.0499 138.328 86.8286 137.552C86.4792 136.323 86.1779 135.262 86.4819 134.411C86.6794 133.855 87.1996 133.294 87.7032 132.751L87.7032 132.751L87.7219 132.731L96.7379 123.062L96.7425 123.057L96.7425 123.057C97.4084 122.34 98.2374 121.448 98.6152 120.224C99.0508 118.814 98.7457 117.401 98.5219 116.365L98.5192 116.352L96.7353 108.134C101.125 109.533 104.49 113.289 106.669 116.04C109.781 119.976 112.208 124.371 113.882 129.104C114.232 130.083 114.65 131.109 115.056 132.101L115.067 132.129L115.067 132.13L115.067 132.13L115.067 132.13L115.067 132.13L115.067 132.13L115.067 132.13L115.067 132.13C115.81 133.951 116.578 135.83 116.96 137.536C117.128 138.28 117.786 138.787 118.52 138.787C118.637 138.787 118.754 138.773 118.872 138.747C119.733 138.552 120.274 137.696 120.082 136.835C119.64 134.859 118.816 132.84 118.018 130.888C117.608 129.885 117.221 128.939 116.898 128.032C115.106 122.968 112.509 118.267 109.178 114.053C106.626 110.832 102.589 106.376 97.0156 104.883C96.6804 104.792 96.3415 104.816 96.0396 104.929L95.7726 103.699C95.2739 101.376 94.2126 100.07 92.6206 99.8137C92.2259 99.7497 91.8206 99.835 91.4872 100.056C88.9779 101.707 86.4846 104.198 83.8606 107.667C83.5787 108.04 83.3014 108.416 83.0286 108.794C82.7184 108.774 82.3992 108.844 82.1116 109.015C78.706 111.035 73.8913 110.53 70.9191 107.906C71.2021 106.888 71.5218 105.959 71.693 105.663C72.0957 105.025 71.997 104.196 71.461 103.668C70.925 103.14 70.093 103.057 69.4637 103.471C67.9254 104.479 66.5071 105.442 65.2228 106.493C65.0437 106.52 64.8661 106.579 64.6977 106.671C55.3964 111.759 46.7111 124.524 43.9991 133.433C40.7884 143.98 38.9697 155.084 37.4817 165.513C35.7297 177.801 34.2711 190.297 33.1511 202.663C33.1056 203.152 33.2866 203.611 33.6089 203.936C33.1729 205.273 32.99 206.647 32.8691 207.947C30.1526 209.147 28.7645 211.561 29.3943 214.081C29.4663 214.363 29.6103 214.619 29.8157 214.825C32.4077 217.419 32.1223 221.294 31.845 225.041L31.8395 225.113L31.8395 225.114L31.8394 225.114L31.8394 225.114C31.8066 225.548 31.7742 225.976 31.749 226.395C31.733 226.657 31.781 226.918 31.8903 227.158C32.5543 228.619 33.613 229.862 34.949 230.753C35.9522 231.425 37.0807 231.873 38.2618 232.077C38.3772 232.518 38.5619 232.953 38.8509 233.365C39.8442 234.779 41.5074 235.118 42.63 235.348L42.6349 235.349C44.3528 235.676 47.6595 236.279 51.0609 236.898L52.4056 237.143C53.1273 237.275 53.854 237.408 54.5703 237.538C57.5351 238.079 60.3207 238.587 61.8349 238.877C61.9336 238.895 62.0323 238.906 62.1336 238.906C62.4696 238.906 62.8029 238.799 63.0803 238.594C63.4403 238.333 63.6723 237.933 63.7256 237.493L63.7763 237.069C63.7816 237.023 63.7843 236.978 63.7869 236.933L63.7869 236.933C63.9552 231.858 64.5098 226.998 65.2401 222.128C65.6724 227.43 66.1997 232.712 66.8206 237.931C66.8979 238.59 67.3752 239.134 68.0206 239.294L68.8206 239.494C68.8605 239.504 68.9032 239.512 68.9432 239.52ZM58.9552 115.227C53.4732 120.844 48.8427 128.503 47.0577 134.364C44.0844 144.127 42.3457 154.057 40.6471 165.964C38.9751 177.687 37.5724 189.604 36.4791 201.409C37.1394 201.494 37.7754 201.579 38.3995 201.663L38.7564 201.711C39.5073 201.811 40.275 201.914 41.0755 202.017L42.2163 192.181L42.2188 192.159C44.426 173.142 46.7086 153.475 51.1843 134.485C51.3869 133.626 52.2483 133.093 53.1096 133.295C53.9683 133.498 54.5016 134.359 54.2989 135.221C49.8647 154.035 47.5928 173.611 45.3956 192.543L45.3956 192.543L45.3949 192.549L42.2403 219.749C41.8509 223.103 41.4483 226.575 41.2963 229.986C41.2776 230.41 41.2429 231.205 41.4696 231.525C41.7321 231.896 42.6377 232.083 43.2457 232.208L43.2563 232.21C45.1363 232.57 49.0173 233.276 52.8017 233.964L52.8122 233.966L52.8282 233.969L52.9789 233.997C55.7496 234.501 58.5923 235.018 60.6456 235.399C61.0349 227.117 62.3789 219.431 63.7976 211.319C63.8713 210.895 63.9456 210.47 64.0201 210.043L64.0225 210.03L64.0231 210.026L64.0234 210.025C64.125 209.443 64.2269 208.86 64.328 208.275C63.5549 192.869 63.5943 177.629 64.4819 163.651C64.4853 163.609 64.4897 163.566 64.496 163.524L60.629 149.247C60.0824 147.228 59.1917 142.423 59.3624 140.028C59.501 138.153 60.1037 136.423 60.6877 134.748L60.6894 134.743C61.3847 132.745 62.0422 130.856 61.7757 129.041C61.5837 127.727 60.9037 126.447 60.1837 125.092L60.1774 125.08C59.2727 123.374 58.338 121.612 58.1997 119.505C58.0974 117.98 58.4409 116.546 58.9552 115.227ZM67.7569 163.499L67.8846 162.835L67.8847 162.834C71.1433 145.066 74.8367 124.928 86.4126 109.592C88.4819 106.854 90.4312 104.806 92.3379 103.366C92.4312 103.582 92.5406 103.899 92.6419 104.371L95.3886 117.027L95.3919 117.042L95.3919 117.043C95.5564 117.807 95.7419 118.668 95.5539 119.278C95.3931 119.8 94.8933 120.337 94.4079 120.86L94.3912 120.878L85.3726 130.55L85.3581 130.565C84.6993 131.277 83.8815 132.161 83.4632 133.331C82.8126 135.147 83.3086 136.891 83.7459 138.427C83.9432 139.115 84.1272 139.763 84.1992 140.368C84.5326 143.123 82.5966 145.899 80.8872 148.347C75.8872 155.499 71.3326 163.027 67.3086 170.792C67.4053 168.531 67.5226 166.294 67.6603 164.089C67.7285 163.903 67.7625 163.703 67.7569 163.499ZM65.8466 156.275L63.717 148.412C63.1624 146.359 62.4264 142.028 62.5517 140.26C62.6583 138.811 63.1667 137.351 63.7048 135.806L63.7064 135.801L63.7077 135.798C64.4993 133.521 65.3168 131.171 64.9384 128.58C64.6667 126.721 63.8234 125.134 63.0084 123.6L63.005 123.593L62.9918 123.568C62.2153 122.103 61.4818 120.719 61.389 119.297C61.269 117.473 62.1704 115.673 63.3624 113.508C64.413 111.601 65.757 110.169 67.4024 108.844C67.2557 109.58 67.1624 110.26 67.1624 110.775L66.9544 150.271C66.9538 150.359 66.9605 150.446 66.9739 150.53C66.5789 152.458 66.206 154.375 65.8466 156.275ZM70.2248 136.899C72.5473 128.654 75.6289 120.551 80.1225 113.176C79.2217 113.37 78.3 113.465 77.3783 113.465C74.9151 113.465 72.4447 112.785 70.3587 111.473L70.2248 136.899ZM36.0827 207.982C36.1969 206.838 36.3671 205.705 36.7391 204.675C37.251 204.742 37.751 204.809 38.2445 204.875L38.2447 204.875L38.2468 204.876L38.2488 204.876L38.2507 204.876L38.3297 204.887L38.7857 204.947C39.4092 205.03 40.0458 205.115 40.7063 205.2L40.3113 208.606C38.8855 208.53 37.4696 208.321 36.0827 207.982ZM34.2999 210.819C36.1418 211.348 38.0321 211.674 39.942 211.79L39.0616 219.381L39.0505 219.477C38.6996 222.509 38.338 225.634 38.1567 228.767C37.6524 228.614 37.1711 228.387 36.7277 228.091C35.9943 227.601 35.3916 226.942 34.973 226.169C34.9848 225.981 34.9988 225.793 35.0129 225.603L35.013 225.603C35.0211 225.494 35.0292 225.385 35.037 225.275L35.0373 225.271C35.3252 221.368 35.6811 216.543 32.4477 212.95C32.3995 211.731 33.7673 211.041 34.2999 210.819ZM106.953 217.591C106.794 218.05 106.429 218.431 105.931 218.59C104.448 219.068 103.19 219.998 102.939 220.801C102.891 220.953 102.766 221.358 103.312 222.076C104.097 223.109 105.306 223.801 106.585 224.535L106.622 224.556C106.92 224.726 107.219 224.897 107.512 225.07C109.022 225.969 109.555 227.921 109.982 229.486C110.094 229.9 110.203 230.292 110.304 230.574C111.166 232.937 112.92 235.713 116.339 235.486C118.59 235.337 121.31 233.644 122.203 229.334C122.887 226.032 122.271 222.476 121.674 219.034L121.672 219.022C121.598 218.598 121.526 218.177 121.454 217.756C121.442 217.687 121.435 217.618 121.432 217.55L106.953 217.591ZM124.222 216.422C124.418 216.64 124.556 216.915 124.608 217.225C124.667 217.579 124.728 217.932 124.789 218.287L124.79 218.291L124.822 218.476L124.824 218.489C125.471 222.224 126.141 226.086 125.331 229.982C125.266 230.294 125.192 230.6 125.11 230.899C125.69 230.806 126.272 230.734 126.846 230.663L126.849 230.662C129.25 230.364 131.334 230.105 132.739 228.591C132.792 228.412 132.816 228.223 132.811 228.036C132.04 224.431 129.678 217.82 127.59 211.983L127.558 211.893L127.555 211.887C127.27 211.088 126.988 210.296 126.712 209.521C126.647 209.82 126.497 210.096 126.276 210.314C125.978 210.613 125.57 210.781 125.148 210.781H125.122L124.592 210.772L124.728 214.158C124.74 214.578 124.768 215.596 124.222 216.422ZM121.389 210.72L104.644 210.445C104.448 211.753 104.374 213.077 104.422 214.4L121.536 214.352C121.536 214.326 121.536 214.296 121.534 214.267L121.389 210.72Z" fill="black"/>
</g>
<defs>
<clipPath id="clip0_1123_38265">
<rect width="160" height="160" fill="white" transform="translate(0 100)"/>
</clipPath>
</defs>
</svg>
