<svg width="160" height="260" viewBox="0 0 160 260" fill="none" xmlns="http://www.w3.org/2000/svg">
<path d="M94.5304 78.8856C92.5331 78.739 91.3971 76.3923 91.5198 74.3976C91.6424 72.403 92.5864 70.5416 92.8824 68.563C93.5624 64.123 90.5384 59.411 86.2158 58.1816C85.0344 57.8456 83.7678 57.7363 82.6931 57.1416C81.7971 56.643 81.0504 55.8083 80.0451 55.6323C78.1918 55.291 76.6664 57.2323 74.7918 57.4403C72.3038 57.707 70.3811 54.8563 67.8771 54.8616C65.2904 54.8616 63.5011 57.8803 60.9198 58.003C59.1891 58.0856 57.6424 56.827 55.9118 56.7416C53.6744 56.635 51.8158 58.5096 50.8024 60.507C49.7891 62.5043 49.2878 64.7603 48.0398 66.6216C46.8984 68.323 44.5144 69.635 42.8504 68.4403C41.7011 67.619 41.4798 66.0083 41.5624 64.6003C41.7304 61.7123 42.7304 58.9336 44.4398 56.6003C44.9731 55.891 45.5651 55.1923 45.7571 54.3336C46.0238 53.0696 45.3731 51.8136 45.1171 50.5443C44.5544 47.7443 46.2878 44.6616 48.9731 43.6856C50.2424 43.227 51.6611 43.1923 52.8504 42.555C54.0398 41.9176 54.8824 40.7096 55.7091 39.6056C60.0851 33.7603 67.0958 28.9763 74.2798 30.2723C78.6878 31.0723 82.5464 34.0403 88.0291 35.0723C91.8451 32.2376 97.7251 32.6723 101.064 36.067C105.376 40.4296 105.208 48.163 110.13 51.8323C110.914 52.419 111.826 52.899 112.362 53.715C113.501 55.4483 112.474 57.803 112.962 59.8216C113.389 61.5736 114.877 62.8216 115.984 64.2456C117.09 65.6696 117.8 67.827 116.618 69.1896C116.104 69.7816 115.338 70.083 114.733 70.579C113.245 71.795 112.949 73.9603 113.133 75.8723C113.317 77.7843 113.978 80.2136 113.6 81.6003C112.077 87.235 108.554 85.7976 106.882 86.667" fill="black"/>
<path d="M50.6658 66.9326C49.0658 69.3326 48.7991 72.266 47.9991 75.1993C47.9991 76.042 44.7564 87.4233 52.2658 94.9326C54.9324 97.5993 58.3991 98.666 61.9991 99.466C65.2284 99.9646 68.7564 100.466 71.8658 99.1993C71.6871 101.975 71.6604 103.957 71.7884 106.735L90.5324 104.799C90.2258 101.151 90.9538 97.8686 92.5404 94.5673C92.8978 93.8206 93.6738 93.8286 94.4391 93.586C95.1164 93.3726 95.7884 93.1273 96.4444 92.85C97.7804 92.2953 99.0418 91.578 100.204 90.7166C102.503 88.9806 104.292 86.5433 104.967 83.7166C105.578 81.154 105.148 78.1033 102.287 76.6606C100.282 75.6473 98.4818 76.0073 95.4231 78.6953L94.5218 78.8873C92.5244 78.7406 91.3884 76.394 91.5111 74.3993C91.6338 72.4046 92.5778 70.5433 92.8738 68.5646C93.5538 64.1246 90.5298 59.4126 86.2071 58.1833C85.0258 57.8473 83.7591 57.738 82.6844 57.1433C81.7884 56.6446 81.0418 55.81 80.0364 55.634C78.1831 55.2926 76.6578 57.234 74.7831 57.442C72.2951 57.7086 70.3724 54.858 67.8684 54.8633C65.2818 54.8633 63.4924 57.882 60.9111 58.0046C59.1804 58.0873 57.6338 56.8286 55.9031 56.7433C53.6658 56.6366 51.8071 58.5113 50.7938 60.5086C49.7804 62.506 49.2791 64.762 48.0311 66.6233" fill="#FFD39F"/>
<path fill-rule="evenodd" clip-rule="evenodd" d="M105.463 87.407C105.748 87.9537 106.306 88.2683 106.884 88.2683C107.135 88.2683 107.386 88.2097 107.623 88.0763C107.797 87.9854 108.247 87.9274 108.653 87.8751L108.653 87.8751L108.684 87.871L108.688 87.8705C110.58 87.6278 113.741 87.2219 115.148 82.0123C115.499 80.7293 115.238 79.0969 114.986 77.516L114.986 77.5159L114.983 77.4977C114.882 76.8603 114.786 76.255 114.732 75.711C114.65 74.8577 114.586 72.7643 115.754 71.8097C115.904 71.6845 116.103 71.5593 116.317 71.4254L116.359 71.399L116.366 71.3949C116.836 71.1 117.367 70.7672 117.834 70.231C119.596 68.199 118.812 65.263 117.252 63.2577C116.932 62.847 116.596 62.4603 116.268 62.087L116.263 62.0808C115.481 61.1871 114.745 60.3462 114.524 59.439C114.38 58.8417 114.426 58.1003 114.476 57.3137C114.567 55.9003 114.668 54.295 113.706 52.831C113.13 51.9539 112.338 51.4099 111.64 50.93L111.639 50.9297L111.536 50.8585C111.387 50.7548 111.238 50.6515 111.092 50.543C108.835 48.8612 107.768 46.0258 106.638 43.0221L106.636 43.0177C105.562 40.159 104.45 37.2043 102.21 34.9377C98.4978 31.1643 92.1378 30.5217 87.6898 33.3617C85.2733 32.8241 83.1543 31.8881 81.0995 30.9805L81.0871 30.975C78.9111 30.0123 76.8578 29.1057 74.5698 28.6897C66.3271 27.2043 58.7644 32.855 54.4338 38.639L54.2471 38.8897L54.2449 38.8926C53.5763 39.7903 52.8862 40.7168 52.1004 41.1377C51.5992 41.4069 50.9487 41.5456 50.2609 41.6922L50.2604 41.6923C49.6711 41.8177 49.0604 41.9483 48.4311 42.175C45.0284 43.4123 42.8418 47.3057 43.5538 50.855C43.6444 51.311 43.7698 51.7323 43.8924 52.143L43.8945 52.1502C44.1123 52.8831 44.3001 53.5152 44.2018 53.9803C44.1088 54.3997 43.7464 54.8746 43.3617 55.3787L43.3564 55.3857L43.1538 55.6523C41.2578 58.239 40.1564 61.3003 39.9698 64.503C39.7911 67.5483 40.9351 69.031 41.9218 69.7377C42.8444 70.399 43.9591 70.6363 45.1458 70.423C46.1495 70.242 47.1616 69.7347 48.0267 69.0081C46.8295 72.4313 45.9993 75.6809 45.743 78.0004C44.911 85.6191 46.999 92.3764 51.4737 96.5444C53.9084 98.8084 57.0684 100.256 61.135 100.974C63.6524 101.414 66.9164 101.982 70.1217 101.363C70.0684 102.651 70.087 103.595 70.1724 105.472C70.2124 106.331 70.919 107 71.7697 107H71.7698C71.7964 107 71.8204 107 71.847 106.99C72.7297 106.95 73.4124 106.2 73.3724 105.318C73.2444 102.566 73.2737 101.974 73.4444 99.2911C73.479 98.7418 73.2284 98.2111 72.7804 97.8911C72.3324 97.5711 71.751 97.5018 71.2417 97.7098C68.4284 98.8591 65.2497 98.4405 61.687 97.8191C58.2017 97.2058 55.6497 96.0564 53.655 94.2004C49.9244 90.7284 48.2017 84.9498 48.9244 78.3498C49.143 76.3738 50.023 72.5951 51.8417 67.9178C52.1617 67.0938 51.7537 66.1658 50.9297 65.8458C50.7418 65.7728 50.5484 65.7377 50.3581 65.7367C50.6896 65.0223 50.9671 64.2986 51.2391 63.5883C51.5591 62.751 51.8604 61.9643 52.2338 61.2283C52.9324 59.8497 54.2978 58.263 55.8364 58.3377C56.3884 58.3643 57.0204 58.607 57.6871 58.8657L57.7029 58.8718C58.6618 59.241 59.75 59.66 60.9991 59.599C62.7264 59.5193 64.067 58.5763 65.2506 57.7437L65.2631 57.735C66.2338 57.0497 67.0711 56.4603 67.8844 56.4603H67.8871C68.6364 56.4603 69.4844 56.9803 70.3804 57.5323C71.6711 58.327 73.1324 59.2257 74.9724 59.0283C76.1218 58.903 77.0684 58.3697 77.9058 57.8977C78.6498 57.479 79.2924 57.119 79.7751 57.207C80.0684 57.2577 80.4578 57.5403 80.8684 57.839L80.8735 57.8427C81.1816 58.0658 81.5293 58.3175 81.9244 58.5377C82.8631 59.055 83.8578 59.2737 84.7378 59.4657C85.1058 59.5457 85.4551 59.623 85.7831 59.7163C89.3378 60.727 91.8658 64.6657 91.3058 68.3217C91.1911 69.0817 90.9591 69.855 90.7111 70.6737L90.7069 70.6876C90.3642 71.8246 90.0094 73.0016 89.9298 74.295C89.7564 77.0977 91.4258 80.2577 94.4204 80.4763C94.7434 80.5008 95.0512 80.4269 95.3147 80.28C95.7188 80.3027 96.1316 80.173 96.4597 79.8844C99.3903 77.3084 100.46 77.5244 101.55 78.0764C104.049 79.3378 103.665 82.1698 103.382 83.3351C102.833 85.6471 101.35 87.8124 99.2223 89.4204C98.1663 90.2044 97.017 90.8577 95.793 91.3644C95.1877 91.6204 94.561 91.8498 93.9263 92.0498C93.8296 92.0813 93.7213 92.1078 93.6066 92.136L93.6066 92.136L93.513 92.1591C92.825 92.3244 91.6757 92.6018 91.0677 93.8631C89.409 97.3164 88.6277 99.1564 88.9663 103.172C89.0357 104.007 89.737 104.639 90.5583 104.639C90.6037 104.639 90.649 104.636 90.697 104.626C91.577 104.554 92.2303 103.778 92.1557 102.898C91.889 99.7617 92.3637 98.5591 93.897 95.3591C93.9728 95.3345 94.0802 95.3083 94.179 95.2842C94.2088 95.277 94.2378 95.2699 94.265 95.2631C94.4517 95.2178 94.665 95.1644 94.8863 95.0951C95.6143 94.8684 96.337 94.6018 97.0277 94.3111C98.4837 93.7084 99.865 92.9244 101.14 91.9778C102.931 90.6257 104.365 88.9524 105.343 87.1061C105.372 87.2083 105.412 87.3091 105.463 87.407ZM93.1244 74.4923C93.0518 75.694 93.6662 77.1356 94.5792 77.2782C98.6455 73.7964 101.027 74.2258 102.99 75.2178C106.094 76.7858 107.436 80.1804 106.492 84.0791C106.398 84.4722 106.285 84.8617 106.152 85.2462C106.833 84.8944 107.567 84.7987 108.276 84.7083L108.278 84.7081C109.915 84.4975 111.207 84.3312 112.058 81.183C112.228 80.5573 112.002 79.15 111.821 78.0202L111.82 78.015C111.714 77.3537 111.604 76.671 111.543 76.0283C111.26 73.0977 112.034 70.7217 113.724 69.343C114.042 69.0817 114.37 68.8763 114.66 68.6977L114.694 68.6764C114.991 68.4897 115.269 68.3151 115.415 68.143C115.932 67.5457 115.471 66.191 114.724 65.231C114.465 64.8979 114.175 64.5647 113.868 64.2134L113.86 64.2043C112.903 63.1137 111.82 61.8763 111.412 60.2017C111.154 59.1297 111.22 58.063 111.282 57.119C111.348 56.071 111.404 55.167 111.031 54.5963C110.799 54.2443 110.327 53.919 109.826 53.575C109.607 53.4257 109.388 53.2737 109.178 53.1163C106.17 50.8737 104.884 47.4577 103.642 44.1537C102.642 41.4923 101.695 38.9803 99.9324 37.1937C97.1698 34.3857 92.1591 34.0043 88.9911 36.359C88.6338 36.6257 88.1804 36.7297 87.7404 36.647C84.6871 36.071 82.0871 34.9243 79.7964 33.911C77.7991 33.0283 75.9138 32.1963 74.0018 31.847C69.5431 31.0417 62.7298 32.9083 56.9964 40.5643L56.8151 40.807C55.9778 41.9323 55.0284 43.2043 53.6124 43.9643C52.7138 44.447 51.7671 44.6497 50.9298 44.8257L50.8777 44.8369L50.8777 44.8369C50.3902 44.942 49.9286 45.0415 49.5218 45.1883C47.5804 45.8923 46.2844 48.2017 46.6898 50.2283C46.7538 50.5403 46.8524 50.879 46.9591 51.2363L46.9609 51.2423C47.2591 52.2488 47.5959 53.3855 47.3271 54.663C47.0764 55.7857 46.4524 56.6043 45.9004 57.327L45.7244 57.559C44.2044 59.6337 43.3164 62.103 43.1644 64.6897C43.0924 65.911 43.3191 66.8017 43.7858 67.135C43.9218 67.2337 44.1484 67.351 44.5778 67.2737C45.3164 67.1403 46.1964 66.5057 46.7164 65.727C47.3565 64.7735 47.7876 63.6482 48.2442 62.4562L48.2498 62.4417L48.2552 62.4274L48.2552 62.4274L48.2553 62.4273C48.5896 61.5571 48.9349 60.6582 49.3804 59.7803C50.5671 57.4417 52.9298 54.9937 55.9938 55.1403C57.0594 55.1935 58.0033 55.5565 58.8332 55.8757L58.8418 55.879L58.8619 55.8868C59.6186 56.1795 60.2682 56.4307 60.8498 56.4017C61.652 56.3643 62.5103 55.7596 63.4218 55.1172L63.4231 55.1163L63.4232 55.1163C64.6605 54.2443 66.0605 53.2577 67.8844 53.2577H67.8951C69.5458 53.2577 70.8818 54.079 72.0604 54.8043L72.071 54.8108C73.0425 55.4081 73.8818 55.924 74.6284 55.8443C75.1218 55.7883 75.7111 55.4577 76.3378 55.1057C77.4044 54.5057 78.7324 53.759 80.3431 54.055C81.3509 54.2305 82.1254 54.7932 82.7485 55.2459L82.7538 55.2497L82.8172 55.2955C83.0522 55.4653 83.2735 55.6253 83.4791 55.7403C84.0005 56.0288 84.6822 56.1781 85.4068 56.3368L85.4231 56.3403L85.4584 56.3481L85.4585 56.3481C85.8476 56.4337 86.2515 56.5225 86.6604 56.639C91.7724 58.0923 95.2764 63.5483 94.4711 68.8017C94.3262 69.774 94.0511 70.6864 93.7847 71.5698L93.7751 71.6017C93.4684 72.6123 93.1804 73.567 93.1244 74.4923ZM58.2491 74.695C59.28 74.695 60.1158 73.6802 60.1158 72.4284C60.1158 71.1765 59.28 70.1617 58.2491 70.1617C57.2182 70.1617 56.3824 71.1765 56.3824 72.4284C56.3824 73.6802 57.2182 74.695 58.2491 74.695ZM67.3163 75.3232C68.3472 75.3232 69.1829 74.3084 69.1829 73.0565C69.1829 71.8047 68.3472 70.7898 67.3163 70.7898C66.2853 70.7898 65.4496 71.8047 65.4496 73.0565C65.4496 74.3084 66.2853 75.3232 67.3163 75.3232Z" fill="black"/>
<path fill-rule="evenodd" clip-rule="evenodd" d="M95.9394 107.867C91.8407 108.779 90.7394 102.693 90.4994 100H72.6007C72.4528 100.448 72.3159 101.245 72.1639 102.13C71.894 103.701 71.5765 105.55 71.0647 106.213C70.9974 106.294 70.9124 106.398 70.8131 106.519C70.0282 107.476 68.3531 109.52 67.4914 110.064C66.7287 110.544 65.8994 111.016 64.9981 110.989H64.7101C62.7287 114.176 64.3021 117.893 67.2941 120.576C70.2861 123.259 74.5394 124.216 78.5394 123.923C83.0754 123.6 87.3741 121.765 90.7447 118.712C94.0621 115.659 96.1794 112.712 96.3794 108.533L95.9394 107.867ZM100.172 142.665L100.542 143.086C100.316 162.195 102.285 181.287 104.29 200.738V200.738L104.291 200.74C104.834 206.012 105.38 211.31 105.886 216.641C104.961 216.718 104.081 217.078 103.372 217.676C102.66 218.273 102.15 219.076 101.916 219.974C101.678 220.873 101.729 221.822 102.054 222.692C102.38 223.561 102.969 224.308 103.737 224.83C104.174 225.126 104.657 225.342 105.14 225.558L105.14 225.558C105.572 225.75 106.004 225.943 106.404 226.193C108.288 227.368 109.15 229.544 110.005 231.705C110.914 234.002 111.817 236.282 113.934 237.324C116.966 238.814 120.766 236.54 122.14 233.449C123.513 230.358 123.137 226.814 122.729 223.46C120.988 209.188 116.836 167.382 116.11 158.633C116.11 158.633 112.633 126.292 111.737 122.577C110.841 118.862 107.804 115.684 105.036 113.049L104.438 112.663C102.569 117.39 97.4224 137.649 100.172 142.665ZM57.4057 115.94L57.899 114.409C56.3364 114.836 55.1577 116.103 54.1657 117.377C51.0804 121.321 49.451 126.324 48.683 131.271C48.1314 134.825 47.5057 138.819 46.8301 143.131L46.8301 143.131C43.7789 162.604 39.7103 188.57 36.859 209.927C35.9977 209.823 35.123 209.972 34.3417 210.351C33.5604 210.729 32.9044 211.327 32.4537 212.068C32.003 212.809 31.771 213.665 31.7924 214.532C31.811 215.401 32.0804 216.244 32.5657 216.964C32.6906 217.147 32.8289 217.321 32.9672 217.496L32.9672 217.496C33.1478 217.724 33.3282 217.951 33.4777 218.196C34.1524 219.321 34.115 220.721 34.035 222.033L34.0217 222.251C33.8753 224.636 33.7221 227.131 34.7444 229.284C35.7977 231.503 38.6137 233.095 40.771 231.921C42.275 231.1 42.9204 229.313 43.4377 227.681C44.1657 225.527 44.7844 223.335 45.2884 221.116C45.8617 218.383 48.2217 206.255 48.451 203.468L46.3124 202.42C46.3124 202.42 53.995 145.025 57.4057 115.94Z" fill="#FFD39F"/>
<path d="M100.17 142.667C97.4211 137.651 102.568 117.393 104.434 112.665C104.624 112.302 104.365 112.547 104.322 112.142C104.192 111.521 98.8451 108.145 96.4505 107.867C95.9971 112.401 94.0985 115.63 90.7411 118.713C87.3705 121.766 83.0718 123.601 78.5358 123.923C74.5358 124.217 70.2825 123.259 67.2905 120.577C64.2985 117.894 62.8905 113.297 64.8718 110.118L59.4665 112.598C58.8238 112.891 58.1331 113.217 57.7678 113.817C57.4025 114.417 57.5011 115.219 57.4211 115.95C53.9998 145.035 45.3358 200.785 46.1091 200.87C63.9971 202.987 87.1118 204.894 104.448 199.998H104.49C103.066 180.798 100.333 161.961 100.562 143.094" fill="black"/>
<path fill-rule="evenodd" clip-rule="evenodd" d="M95.4951 106.584C95.8207 106.342 96.2286 106.233 96.6317 106.279C98.349 106.479 100.752 107.751 102.032 108.492C105.061 110.247 105.65 111.074 105.821 111.57C105.85 111.614 105.877 111.66 105.903 111.707C105.986 111.761 106.066 111.823 106.14 111.895C109.287 114.887 112.332 118.209 113.295 122.207C114.202 125.98 117.559 157.14 117.7 158.465C117.7 158.479 117.703 158.492 117.703 158.505C118.455 167.575 122.594 209.151 124.316 223.271L124.317 223.273C124.709 226.499 125.196 230.511 123.602 234.103C122.631 236.289 120.65 238.145 118.431 238.951C117.61 239.239 116.783 239.388 115.978 239.388C115.012 239.388 114.076 239.177 113.226 238.759C110.556 237.445 109.473 234.712 108.516 232.297L108.514 232.292L108.509 232.281C107.727 230.306 106.988 228.442 105.554 227.548C105.253 227.36 104.891 227.197 104.507 227.025L104.484 227.015L104.451 227C103.947 226.774 103.377 226.519 102.836 226.151C101.788 225.439 100.999 224.436 100.554 223.249C100.108 222.063 100.044 220.788 100.367 219.564C100.69 218.34 101.372 217.263 102.343 216.447C102.89 215.988 103.503 215.633 104.162 215.393C103.731 210.93 103.271 206.449 102.821 202.079C95.1374 203.977 86.4654 204.668 77.661 204.668C68.2015 204.668 58.5855 203.87 49.8586 202.908C49.2343 207.662 47.3873 218.9 46.8558 221.44C46.8544 221.444 46.8538 221.449 46.8531 221.453C46.8524 221.458 46.8518 221.463 46.8504 221.466C46.3358 223.725 45.7011 225.981 44.9598 228.173C44.4878 229.664 43.6958 232.141 41.5384 233.32C40.8158 233.72 40.0104 233.917 39.1784 233.917C38.6051 233.917 38.0184 233.824 37.4371 233.635C35.6851 233.064 34.0984 231.661 33.2984 229.973C32.0995 227.45 32.2714 224.642 32.4233 222.161L32.4238 222.154L32.4371 221.938C32.5064 220.808 32.5331 219.736 32.1038 219.021C32.0203 218.884 31.8893 218.717 31.7483 218.537L31.7482 218.537L31.7118 218.491C31.5651 218.307 31.3998 218.099 31.2424 217.869C30.5784 216.885 30.2158 215.749 30.1891 214.571C30.1624 213.395 30.4718 212.24 31.0851 211.235C31.6984 210.229 32.5811 209.427 33.6398 208.912C34.2158 208.632 34.8291 208.445 35.4558 208.354C38.273 187.677 41.9827 163.923 44.9765 144.752L44.9811 144.722L45.4181 141.922L45.4185 141.92C46.0309 137.995 46.602 134.336 47.1118 131.029C48.0318 125.066 49.9838 120.141 52.9144 116.394C53.7756 115.288 54.8175 114.115 56.1949 113.384C56.2521 113.25 56.3197 113.117 56.3997 112.986C57.026 111.956 58.0856 111.47 58.7897 111.148L58.7997 111.143L64.205 108.666C64.8146 108.387 65.5299 108.517 65.9978 108.984C67.0678 108.525 67.8451 107.824 68.4184 107.307L68.4284 107.298L68.5244 107.21C69.5537 106.282 69.663 106.034 69.8817 105.536C69.8986 105.496 69.9162 105.457 69.9342 105.417C69.9503 105.381 69.9667 105.344 69.983 105.306C70.3484 104.501 71.295 104.144 72.1004 104.509C72.9057 104.874 73.263 105.821 72.8977 106.626L72.8097 106.824C72.4337 107.68 72.103 108.296 70.6657 109.589L70.5724 109.672L70.5689 109.675C69.6834 110.475 68.1083 111.899 65.6603 112.443C65.224 114.674 66.2519 117.498 68.357 119.388C70.7677 121.551 74.4343 122.623 78.4183 122.33C82.581 122.034 86.5757 120.33 89.6663 117.53C92.3456 115.07 93.8726 112.639 94.5428 109.67C92.3287 109.213 91.502 107.741 90.8239 106.53L90.7941 106.477L90.794 106.477C90.6034 106.139 90.4065 105.789 90.1759 105.447C89.6826 104.714 89.8772 103.719 90.6079 103.226C91.3412 102.733 92.3359 102.927 92.8292 103.658C93.1466 104.127 93.3946 104.57 93.6132 104.962L93.6162 104.967C94.2625 106.118 94.4663 106.481 95.4951 106.584ZM48.5838 199.541C48.6401 199.546 48.6954 199.553 48.7498 199.563C65.777 201.496 86.5162 202.928 102.49 198.863C100.544 179.961 98.7646 162.016 98.9365 143.692C98.8716 143.614 98.8131 143.529 98.7623 143.436C97.3783 140.914 97.4557 135.471 98.9944 127.263C100.064 121.556 101.645 115.66 102.693 112.735C101.797 112.02 99.509 110.634 97.7597 109.908C97.0023 113.719 95.1223 116.858 91.821 119.887C88.1943 123.172 83.5197 125.17 78.6477 125.516C73.805 125.868 69.277 124.503 66.221 121.764C63.8637 119.65 62.213 116.26 62.3677 113.023L60.1303 114.05L60.1175 114.055C59.9413 114.137 59.7072 114.244 59.5087 114.356C59.5249 114.801 59.3536 115.227 59.0502 115.536C59.0424 115.72 59.0309 115.919 59.0077 116.122C59.0023 116.172 58.9943 116.223 58.9837 116.271C53.7757 141.524 48.0983 191.002 47.6637 199.439C47.9484 199.472 48.2342 199.505 48.5211 199.537C48.542 199.538 48.5628 199.54 48.5838 199.541ZM47.7837 168.226C48.9869 158.57 52.0268 135.249 55.2595 118.599C52.7671 121.887 51.0922 126.23 50.2744 131.52C49.7455 134.953 49.1507 138.765 48.5121 142.857L48.5119 142.859L48.1438 145.218C45.0851 164.802 41.2798 189.176 38.4451 210.141C38.3278 211.008 37.5358 211.616 36.6718 211.514C36.1118 211.448 35.5491 211.544 35.0424 211.789C34.5358 212.035 34.1118 212.419 33.8211 212.901C33.5278 213.381 33.3811 213.933 33.3918 214.496C33.4051 215.058 33.5784 215.603 33.8931 216.069C33.9811 216.197 34.0984 216.347 34.2211 216.501L34.2535 216.542L34.2536 216.542C34.4428 216.783 34.6533 217.05 34.8424 217.36C35.7464 218.869 35.7278 220.544 35.6318 222.128L35.6184 222.346C35.4824 224.544 35.3438 226.816 36.1891 228.595C36.6211 229.501 37.4984 230.285 38.4291 230.587C38.8398 230.72 39.4478 230.816 40.0078 230.512C40.9598 229.992 41.4718 228.587 41.9144 227.195C41.9171 227.184 41.9198 227.176 41.9251 227.165C42.6318 225.075 43.2371 222.923 43.7278 220.771C44.2421 218.308 46.0746 207.139 46.6798 202.547C46.4255 202.517 46.1721 202.487 45.9197 202.458C45.477 202.404 45.061 202.159 44.797 201.799C44.3623 201.202 44.1837 200.954 45.189 190.932C45.8183 184.66 46.7383 176.596 47.7837 168.226ZM102.141 127.852C103.063 122.929 104.287 118.28 105.177 115.421C107.49 117.741 109.53 120.242 110.183 122.953C110.868 125.812 113.316 147.631 114.516 158.785C115.274 167.913 119.415 209.516 121.14 223.652C121.578 227.257 121.823 230.22 120.676 232.799C120.055 234.196 118.746 235.428 117.338 235.937C116.655 236.185 115.634 236.375 114.639 235.887C113.08 235.12 112.312 233.182 111.497 231.128L111.492 231.116L111.491 231.113C110.595 228.849 109.582 226.289 107.252 224.836C106.756 224.527 106.244 224.297 105.791 224.095C105.359 223.903 104.951 223.721 104.634 223.505C104.138 223.167 103.762 222.692 103.551 222.129C103.34 221.567 103.311 220.961 103.463 220.38C103.615 219.799 103.938 219.289 104.399 218.903C104.86 218.516 105.418 218.284 106.018 218.236C106.444 218.201 106.839 217.996 107.114 217.668C107.388 217.34 107.519 216.916 107.479 216.489C106.976 211.184 106.425 205.842 105.892 200.675C106.05 200.339 106.093 199.945 105.984 199.559C105.928 199.363 105.838 199.186 105.723 199.032C103.745 179.827 101.922 161.628 102.143 143.105C102.149 142.591 101.911 142.13 101.537 141.833C101.152 141.059 100.247 137.977 102.141 127.852ZM46.285 199.279C46.2887 199.279 46.2924 199.28 46.2964 199.28C46.301 199.281 46.306 199.282 46.3117 199.282L46.3067 199.281L46.3038 199.28C46.2968 199.279 46.2909 199.279 46.285 199.279Z" fill="black"/>
</svg>
