<svg width="160" height="260" viewBox="0 0 160 260" fill="none" xmlns="http://www.w3.org/2000/svg">
<path d="M48.3944 94.7166C47.9598 95.4366 47.3438 96.0313 46.6104 96.4393C45.8744 96.8473 45.0451 97.0553 44.2051 97.0446C43.3651 97.0313 42.5411 96.7993 41.8184 96.3699C41.0958 95.9406 40.4984 95.3299 40.0824 94.5966C39.2691 93.1539 38.9171 91.0526 37.2931 90.7353C35.9438 90.4686 34.8424 91.7193 33.8264 92.6446C32.6131 93.7406 31.0398 94.5299 29.4051 94.4899C27.7704 94.4499 26.1091 93.4473 25.6078 91.8899C24.8904 89.6686 26.5838 87.3806 26.5704 85.0499C26.6024 84.4206 26.3944 83.8046 25.9891 83.3219C25.0478 82.3459 23.4371 82.8393 22.0878 82.7113C19.2664 82.4446 17.5544 79.0366 18.2478 76.2899C18.9411 73.5433 21.3224 71.5273 23.8478 70.2473C26.3731 68.9673 29.1544 68.2339 31.6691 66.9219C34.7864 65.2873 37.3918 62.8233 39.1998 59.8019C40.6078 57.4473 41.4958 54.8019 42.9891 52.5006C45.6558 48.4046 50.0371 45.7113 54.5944 43.9486C59.1518 42.1859 63.9731 41.2339 68.6398 39.7913C72.1438 38.7086 75.6984 37.3326 79.3491 37.6579C81.7678 37.8739 84.3144 39.0633 85.2158 41.3139L91.4691 43.5139C98.8611 43.8126 105.936 48.3513 109.288 54.9486C110.44 57.2099 111.202 59.7219 112.856 61.6473C115.122 64.2873 118.989 65.7699 119.917 69.1139C121.146 73.5273 116.397 77.466 116.104 82.0366C115.938 84.6046 117.17 87.4206 115.837 89.6206C114.682 91.5193 112.104 92.0339 110.64 93.7086C108.893 95.7033 108.952 99.0819 106.696 100.474C105.808 101.021 102.373 101.666 101.429 101.231C97.5571 99.4526 97.1491 101.853 93.8744 102.162" fill="black"/>
<path d="M90.5699 104.644C90.2659 100.993 90.9432 97.8628 92.5325 94.5614C92.8925 93.8148 93.6659 93.8228 94.4312 93.5801C95.1112 93.3668 95.7779 93.1215 96.4365 92.8441C97.7725 92.2895 99.0339 91.5721 100.197 90.7108C102.495 88.9748 104.287 86.5374 104.959 83.7108C105.57 81.1481 105.141 78.0974 102.293 76.6548C100.285 75.6414 98.4845 76.0014 95.4259 78.6894L93.0499 78.0894C90.0152 77.9054 87.6232 75.2494 86.6285 72.3801C85.6339 69.5108 85.6979 66.3988 85.4765 63.3694C85.3779 62.0174 85.1645 60.5534 84.1859 59.6148C83.1192 58.5961 81.4952 58.5188 80.0232 58.4974L77.6765 57.6974C76.7725 56.7188 75.6659 55.9481 74.4365 55.4334C73.2072 54.9214 71.8819 54.6788 70.5485 54.7241C69.2179 54.7694 67.9112 55.1001 66.7192 55.6948C65.5272 56.2894 64.4765 57.1348 63.6392 58.1721C62.6392 59.4121 61.8845 60.9721 60.4392 61.6521C58.9939 62.3321 57.3539 61.9374 55.7832 61.9668C54.2125 61.9961 52.3405 62.8468 52.3005 64.4148L50.3645 67.3481C48.6445 71.7721 47.6099 75.7668 47.3485 78.1854C46.6899 84.2761 47.9192 91.0441 52.5779 95.3828C55.0605 97.6921 58.1352 98.8281 61.4232 99.4068C64.8525 100.012 68.5325 100.564 71.8605 99.2041C71.6845 101.98 71.6579 103.961 71.7859 106.74" fill="#FFD39F"/>
<path d="M44.274 98.6546C44.242 98.6546 44.2126 98.6546 44.1806 98.6546C43.0633 98.6386 41.962 98.3293 40.9993 97.7559C40.0366 97.1853 39.2393 96.3693 38.6873 95.3959C38.426 94.9319 38.2206 94.4493 38.0206 93.9853C37.7006 93.2359 37.3406 92.3879 36.9833 92.3186C36.61 92.2439 35.818 92.9879 35.2926 93.4786C35.1593 93.6039 35.0286 93.7266 34.898 93.8439C33.2233 95.3453 31.2633 96.1453 29.3646 96.1026C26.938 96.0466 24.7673 94.5213 24.082 92.3933C23.5086 90.6226 24.0126 88.9559 24.458 87.4839C24.7193 86.6146 24.9673 85.7959 24.9673 85.0626C24.9673 85.0359 24.9673 85.0066 24.97 84.9799C24.9806 84.7799 24.922 84.5853 24.8073 84.4226C24.5993 84.2786 23.9086 84.3079 23.3993 84.3266C22.93 84.3453 22.4446 84.3639 21.9353 84.3159C20.322 84.1639 18.8686 83.2866 17.8446 81.8413C16.6446 80.1479 16.2046 77.8786 16.6953 75.9159C17.3993 73.0919 19.682 70.5746 23.1246 68.8333C24.426 68.1746 25.7753 67.6573 27.0793 67.1586C28.4366 66.6386 29.7166 66.1479 30.9273 65.5159C33.7886 64.0173 36.1806 61.7586 37.842 58.9853C38.45 57.9693 38.9566 56.8893 39.4926 55.7453C40.1353 54.3799 40.7966 52.9666 41.6606 51.6333C44.194 47.7346 48.3566 44.6493 54.0313 42.4599C56.9513 41.3346 59.986 40.5266 62.9193 39.7426C64.6553 39.2786 66.45 38.8013 68.1806 38.2653C68.6606 38.1159 69.1406 37.9639 69.6206 37.8093C72.7753 36.7986 76.0366 35.7559 79.506 36.0679C82.178 36.3079 85.4766 37.6573 86.714 40.7186C87.0446 41.5373 86.65 42.4706 85.8286 42.8013C85.01 43.1319 84.0766 42.7373 83.746 41.9159C83.0473 40.1879 80.8713 39.4039 79.218 39.2546C76.394 39.0013 73.578 39.9026 70.594 40.8573C70.1033 41.0146 69.6126 41.1719 69.1246 41.3239C67.3353 41.8759 65.5086 42.3639 63.7433 42.8359C60.89 43.5959 57.9406 44.3826 55.1833 45.4466C50.1486 47.3879 46.5006 50.0573 44.3433 53.3773C43.5993 54.5239 43.01 55.7773 42.3886 57.1053C41.842 58.2679 41.2766 59.4733 40.586 60.6279C38.6233 63.9079 35.794 66.5799 32.4073 68.3533C31.0313 69.0706 29.602 69.6173 28.2206 70.1479C26.9353 70.6386 25.722 71.1053 24.5673 71.6893C23.0606 72.4519 20.4393 74.1159 19.7966 76.6919C19.53 77.7586 19.7886 79.0546 20.4526 79.9933C20.7886 80.4679 21.3726 81.0519 22.234 81.1319C22.53 81.1613 22.89 81.1453 23.2713 81.1319C24.4153 81.0866 25.9806 81.0253 27.138 82.2253C27.162 82.2519 27.186 82.2759 27.21 82.3053C27.8713 83.0893 28.21 84.0813 28.1673 85.1053C28.1593 86.2973 27.8206 87.4199 27.5193 88.4119C27.1646 89.5826 26.8606 90.5906 27.1273 91.4119C27.394 92.2386 28.386 92.8813 29.4393 92.9053C30.5246 92.9239 31.6953 92.4199 32.7566 91.4679C32.8686 91.3666 32.9886 91.2546 33.1113 91.1399C34.1726 90.1479 35.6286 88.7879 37.6046 89.1799C39.6233 89.5746 40.3993 91.3986 40.9673 92.7319C41.1406 93.1346 41.3006 93.5159 41.4766 93.8253C41.7513 94.3133 42.1513 94.7213 42.634 95.0066C43.1166 95.2919 43.666 95.4493 44.226 95.4573C44.7886 95.4653 45.3406 95.3266 45.8313 95.0546C46.322 94.7826 46.7326 94.3853 47.0233 93.9053C47.4793 93.1479 48.4633 92.9053 49.2206 93.3613C49.978 93.8173 50.2206 94.8013 49.7646 95.5586C49.186 96.5159 48.3646 97.3079 47.386 97.8519C46.434 98.3773 45.3593 98.6546 44.274 98.6546Z" fill="black"/>
<path d="M93.8869 103.767C93.0709 103.767 92.3749 103.146 92.2949 102.317C92.2123 101.437 92.8576 100.655 93.7376 100.573C94.6656 100.485 95.2736 100.186 95.9776 99.8366C97.3829 99.1432 98.9723 98.3566 102.058 99.7565C102.77 99.9059 105.3 99.4392 105.876 99.1112C106.684 98.6126 107.095 97.5112 107.572 96.2392C108.01 95.0686 108.506 93.7406 109.452 92.6579C110.282 91.7112 111.335 91.0899 112.268 90.5459C113.231 89.9806 114.063 89.4926 114.487 88.7939C115.058 87.8499 114.895 86.5406 114.708 85.0232C114.586 84.0286 114.458 82.9992 114.524 81.9379C114.674 79.6152 115.73 77.5806 116.751 75.6126C117.914 73.3726 118.919 71.4366 118.394 69.5486C117.948 67.9406 116.492 66.8099 114.807 65.5032C113.719 64.6579 112.596 63.7859 111.658 62.6952C110.351 61.1752 109.572 59.4099 108.815 57.7032C108.503 56.9966 108.207 56.3272 107.876 55.6792C104.804 49.6339 98.1909 45.3912 91.4176 45.1166C90.5349 45.0819 89.8469 44.3352 89.8843 43.4526C89.9189 42.5699 90.6709 41.8846 91.5483 41.9192C99.5643 42.2419 107.095 47.0739 110.73 54.2286C111.098 54.9512 111.426 55.6926 111.743 56.4072C112.434 57.9699 113.087 59.4472 114.087 60.6099C114.812 61.4552 115.764 62.1939 116.77 62.9752C118.634 64.4232 120.746 66.0632 121.476 68.6899C122.34 71.7912 120.879 74.6046 119.591 77.0872C118.682 78.8392 117.823 80.4926 117.716 82.1432C117.668 82.9032 117.772 83.7406 117.882 84.6286C118.111 86.4712 118.37 88.5592 117.22 90.4526C116.375 91.8446 115.052 92.6206 113.884 93.3032C113.092 93.7672 112.346 94.2046 111.858 94.7646C111.295 95.4072 110.943 96.3539 110.567 97.3566C109.972 98.9512 109.298 100.759 107.548 101.839C106.394 102.549 102.367 103.423 100.772 102.687C99.0389 101.89 98.5243 102.146 97.3936 102.706C96.5749 103.111 95.5536 103.615 94.0389 103.759C93.9883 103.765 93.9376 103.767 93.8869 103.767ZM102.111 99.7806C102.111 99.7832 102.111 99.7832 102.111 99.7806C102.111 99.7832 102.111 99.7832 102.111 99.7806Z" fill="black"/>
<path d="M52.277 66.0221C52.2636 66.0221 52.2503 66.0221 52.2343 66.0221C51.3516 66.0007 50.653 65.2647 50.6743 64.3821C50.7383 61.8407 53.325 60.4194 55.7276 60.3741C56.2343 60.3634 56.7223 60.3927 57.1943 60.4194C58.197 60.4781 59.0636 60.5261 59.733 60.2114C60.413 59.8914 60.941 59.1474 61.549 58.2834C61.8076 57.9181 62.0716 57.5421 62.3703 57.1741C63.357 55.9501 64.573 54.9741 65.981 54.2701C67.389 53.5687 68.901 53.1847 70.4716 53.1314C72.045 53.0781 73.5783 53.3581 75.029 53.9634C76.4796 54.5687 77.7596 55.4621 78.8263 56.6167C79.4263 57.2647 79.3863 58.2781 78.7383 58.8781C78.0903 59.4781 77.077 59.4381 76.477 58.7901C75.7223 57.9741 74.821 57.3447 73.7943 56.9181C72.7703 56.4914 71.685 56.2914 70.5783 56.3314C69.469 56.3687 68.4023 56.6381 67.4076 57.1341C66.413 57.6301 65.557 58.3207 64.8583 59.1847C64.6263 59.4727 64.3996 59.7927 64.1623 60.1314C63.4023 61.2087 62.541 62.4274 61.0956 63.1074C59.693 63.7687 58.269 63.6861 57.013 63.6141C56.581 63.5901 56.173 63.5661 55.789 63.5741C54.789 63.5927 53.885 64.0861 53.877 64.4621C53.8556 65.3314 53.1436 66.0221 52.277 66.0221Z" fill="black"/>
<path d="M93.0272 79.6867C92.9952 79.6867 92.9606 79.6867 92.9286 79.684C90.3446 79.5267 86.7392 77.6574 85.0912 72.9027C84.2326 70.4254 84.0992 67.8707 83.9686 65.3987C83.9366 64.7667 83.9019 64.1161 83.8566 63.4841C83.7766 62.3961 83.6246 61.3161 83.0539 60.7667C82.4406 60.1774 81.2459 60.1134 79.9766 60.0947C79.0939 60.0814 78.3872 59.3561 78.4006 58.4707C78.4139 57.5881 79.1419 56.8814 80.0246 56.8947C81.4859 56.9161 83.6966 56.9481 85.2699 58.4574C86.6246 59.7587 86.9312 61.6094 87.0512 63.252C87.0992 63.9134 87.1339 64.5827 87.1686 65.2307C87.2912 67.5827 87.4086 69.8067 88.1179 71.8547C88.8806 74.0574 90.7259 76.3454 93.1232 76.492C94.0059 76.5454 94.6779 77.3027 94.6246 78.1854C94.5712 79.0334 93.8646 79.6867 93.0272 79.6867Z" fill="black"/>
<path d="M58.2475 74.6935C59.2785 74.6935 60.1142 73.6787 60.1142 72.4268C60.1142 71.175 59.2785 70.1602 58.2475 70.1602C57.2166 70.1602 56.3809 71.175 56.3809 72.4268C56.3809 73.6787 57.2166 74.6935 58.2475 74.6935Z" fill="black"/>
<path d="M67.3139 75.3185C68.3449 75.3185 69.1806 74.3037 69.1806 73.0518C69.1806 71.8 68.3449 70.7852 67.3139 70.7852C66.283 70.7852 65.4473 71.8 65.4473 73.0518C65.4473 74.3037 66.283 75.3185 67.3139 75.3185Z" fill="black"/>
<path d="M90.5564 104.639C89.7351 104.639 89.0337 104.01 88.9644 103.172C88.6257 99.1564 89.4071 97.3191 91.0657 93.8631C91.6737 92.6018 92.8231 92.3244 93.5111 92.1591C93.6604 92.1218 93.8017 92.0898 93.9244 92.0498C94.5591 91.8498 95.1857 91.6204 95.7911 91.3644C97.0151 90.8577 98.1644 90.2044 99.2204 89.4204C101.348 87.8124 102.831 85.6498 103.38 83.3351C103.663 82.1698 104.047 79.3378 101.548 78.0764C100.458 77.5244 99.3884 77.3084 96.4577 79.8844C95.7937 80.4684 94.7831 80.4018 94.1991 79.7378C93.6151 79.0738 93.6817 78.0631 94.3457 77.4791C98.5537 73.7804 100.986 74.2071 102.988 75.2178C106.092 76.7858 107.434 80.1804 106.49 84.0791C105.77 87.1084 103.868 89.9164 101.138 91.9778C99.863 92.9244 98.4817 93.7084 97.0257 94.3111C96.3351 94.6018 95.6124 94.8684 94.8844 95.0951C94.6631 95.1644 94.4497 95.2178 94.263 95.2631C94.1457 95.2924 93.9937 95.3271 93.895 95.3591C92.3617 98.5591 91.887 99.7617 92.1537 102.898C92.2284 103.778 91.575 104.551 90.695 104.626C90.647 104.636 90.6017 104.639 90.5564 104.639Z" fill="black"/>
<path d="M71.7705 106.998C70.9198 106.998 70.2132 106.329 70.1732 105.47C70.0878 103.593 70.0692 102.649 70.1225 101.361C66.9172 101.979 63.6532 101.411 61.1358 100.971C57.0692 100.254 53.9092 98.8061 51.4745 96.5421C46.9998 92.3741 44.9118 85.6168 45.7438 77.9981C46.0558 75.1741 47.2185 70.9714 48.8585 66.7554C49.1785 65.9314 50.1065 65.5234 50.9305 65.8434C51.7545 66.1634 52.1625 67.0914 51.8425 67.9154C50.0238 72.5928 49.1438 76.3714 48.9252 78.3474C48.2025 84.9474 49.9252 90.7261 53.6558 94.1981C55.6505 96.0541 58.2025 97.2034 61.6878 97.8168C65.2505 98.4381 68.4318 98.8568 71.2425 97.7074C71.7518 97.4994 72.3332 97.5688 72.7812 97.8888C73.2292 98.2114 73.4798 98.7394 73.4452 99.2888C73.2745 101.971 73.2452 102.563 73.3732 105.315C73.4132 106.198 72.7305 106.947 71.8478 106.987C71.8185 106.998 71.7945 106.998 71.7705 106.998Z" fill="black"/>
<g clip-path="url(#clip0_1123_38316)">
<path fill-rule="evenodd" clip-rule="evenodd" d="M90.499 99.9988C90.739 102.692 91.8403 108.777 95.939 107.865L96.379 108.532C96.179 112.711 94.0617 115.657 90.7443 118.711C87.3737 121.764 83.075 123.599 78.539 123.921C74.539 124.215 70.2857 123.257 67.2937 120.575C64.3017 117.892 62.7283 114.175 64.7097 110.988H64.9977C65.899 111.015 66.7283 110.543 67.491 110.063C68.0507 109.709 68.2655 108.563 68.4616 107.517C68.6055 106.748 68.7394 106.034 68.9923 105.727C69.7923 104.689 72.187 101.239 72.5977 99.9961H90.499V99.9988ZM105.384 216.815C102.816 217.644 99.6825 220.175 101.856 223.023C102.842 224.32 104.245 225.122 105.637 225.918C105.93 226.086 106.223 226.254 106.512 226.426C107.464 226.991 107.894 228.562 108.256 229.886L108.256 229.886C108.379 230.335 108.494 230.755 108.618 231.098C109.866 234.522 112.29 237.332 116.266 237.066C120.309 236.799 122.824 233.356 123.592 229.644C124.381 225.822 123.614 221.289 122.962 217.434C122.927 217.227 122.892 217.023 122.858 216.82L105.384 216.815ZM30.7602 213.669C30.2269 211.536 31.8269 209.936 33.6936 209.24L46.9469 211.229C47.4642 215.723 46.4216 219.533 45.1789 223.267C44.9764 223.878 44.853 224.518 44.7301 225.156C44.5245 226.223 44.3204 227.282 43.7496 228.187C42.8376 229.632 41.1816 230.344 39.4109 230.432C36.6109 230.547 33.1602 230.184 33.1602 226.469C33.1876 226.031 33.2206 225.585 33.254 225.133C33.5461 221.18 33.8713 216.78 30.7602 213.669Z" fill="#FFD39F"/>
<path d="M53.2544 183.404C52.5317 190.644 51.4037 197.836 49.8677 204.948C48.5317 204.353 47.0891 204.03 45.6277 204.001L42.1611 203.774C39.4517 203.444 37.2757 203.116 34.5664 202.788C35.6891 190.401 37.1291 178.046 38.8864 165.721C40.4144 154.988 42.1931 144.252 45.3504 133.881C48.1557 124.665 52.6064 115.134 61.0571 110.513L62.0411 108.99L70.2411 102.377C70.7344 103.19 70.3557 104.244 70.0624 103.977L68.9557 107.929C68.8117 108.334 68.7557 108.766 68.7851 109.196C68.9664 110.438 70.4464 110.95 71.6731 111.209L72.8011 111.31C78.0091 109.177 81.9317 107.201 85.8517 105.222C88.8064 103.732 91.8571 102.214 95.1584 101.961L96.4171 106.401C101.134 107.665 104.793 111.3 107.74 115.022C110.953 119.086 113.473 123.652 115.201 128.534C116.169 131.262 117.7 134.332 118.332 137.153L119.174 139.734C124.438 162.401 124.716 185.892 124.966 209.164L101.75 208.782C100.721 200.945 99.9104 193.086 99.3184 185.201L98.2864 185.236C87.9344 186.556 77.3184 185.452 67.3184 184.182C62.0144 184.82 56.5957 184.422 51.5637 182.801" fill="black"/>
<path fill-rule="evenodd" clip-rule="evenodd" d="M72.8012 111.314L75.3558 122.402L75.3804 122.394L75.3805 122.394C79.4336 120.97 83.497 119.542 87.3558 117.656C88.7478 116.976 90.1452 116.208 91.1532 115.032C92.3452 113.642 92.8785 111.832 93.3825 110.064L93.4048 109.985C94.1547 107.345 94.905 104.703 95.1532 101.965C91.8518 102.218 88.8012 103.736 85.8465 105.226L85.7208 105.289C81.8399 107.245 77.9456 109.206 72.8012 111.314ZM34.1855 209.149C34.3562 207.163 34.5695 204.789 35.4229 202.987L49.2682 204.267C49.1135 206.189 48.1482 208.877 47.4202 210.667C47.4069 210.717 47.3775 210.763 47.3375 210.797C47.2709 210.832 47.1935 210.843 47.1215 210.821C45.9464 210.635 44.2322 210.47 42.4029 210.294C39.3092 209.997 35.8865 209.667 34.1855 209.149ZM102.669 215.202C102.525 213.125 102.663 211.039 103.085 208.999L122.746 209.274L122.938 214.189C122.957 214.789 122.917 215.498 122.405 215.789C122.154 215.903 121.879 215.954 121.605 215.933L103.471 215.983C103.277 216.005 103.079 215.959 102.911 215.858C102.829 215.77 102.765 215.666 102.722 215.554C102.679 215.442 102.663 215.322 102.669 215.202ZM68.9476 107.934L70.0543 103.982C70.3476 104.228 70.7263 103.188 70.2303 102.374L62.0303 108.988C61.8329 111.004 62.0649 113.038 62.7156 114.958C63.3663 116.878 64.4169 118.636 65.7983 120.118C68.2943 117.545 70.2863 114.524 71.6649 111.214C70.4383 110.956 68.9583 110.444 68.7769 109.201C68.7476 108.772 68.8036 108.34 68.9476 107.934Z" fill="white"/>
<path fill-rule="evenodd" clip-rule="evenodd" d="M75.3535 124C75.0868 124 74.8202 123.934 74.5828 123.803C74.1828 123.584 73.8975 123.203 73.7962 122.76L73.0187 119.386C72.4778 128.504 71.8654 137.661 71.2687 146.571L71.2426 146.962C70.4565 158.727 69.6447 170.877 69.0102 182.817C79.6277 184.451 89.002 184.737 97.608 183.692C96.4855 167.873 96.2404 151.97 96.8814 136.173C96.9161 135.29 97.6628 134.602 98.5454 134.64C99.4281 134.674 100.116 135.421 100.079 136.304C99.1214 159.912 100.156 183.754 103.156 207.194L123.345 207.525C123.338 206.709 123.331 205.897 123.324 205.087L123.324 205.073L123.323 205.049C123.316 204.169 123.308 203.293 123.3 202.421L123.3 202.401V202.401C123.135 182.318 122.979 163.345 118.273 143.069C118.073 142.208 118.609 141.349 119.471 141.149C120.329 140.949 121.191 141.485 121.391 142.346C126.173 162.967 126.332 182.111 126.5 202.376V202.376L126.5 202.394L126.502 202.603C126.52 204.759 126.538 206.932 126.561 209.133C126.567 209.565 126.396 209.981 126.089 210.285C125.793 210.584 125.385 210.752 124.964 210.752H124.937L124.4 210.743L124.532 214.122C124.545 214.538 124.576 215.561 124.031 216.392C124.233 216.612 124.376 216.891 124.43 217.208L124.477 217.483L124.519 217.726L124.556 217.946C124.584 218.108 124.612 218.27 124.641 218.432L124.643 218.445C125.293 222.188 125.965 226.058 125.158 229.965C124.123 234.963 120.675 238.376 116.371 238.659C116.166 238.677 115.961 238.683 115.761 238.683C111.886 238.683 108.755 236.149 107.115 231.645C106.969 231.24 106.843 230.787 106.713 230.309L106.709 230.295C106.52 229.607 106.089 228.036 105.694 227.803C105.411 227.635 105.129 227.472 104.843 227.309C103.401 226.485 101.766 225.549 100.582 223.992C99.2995 222.312 99.3955 220.797 99.6995 219.824C100.052 218.698 100.854 217.763 101.821 217.032C101.81 217.022 101.8 217.012 101.789 217.002C101.776 216.989 101.763 216.976 101.75 216.962C101.516 216.714 101.334 216.429 101.217 216.109C101.113 215.832 101.062 215.538 101.062 215.24C100.952 213.586 101.011 211.926 101.236 210.287C100.672 210.096 100.243 209.597 100.161 208.978C99.1987 201.648 98.4268 194.277 97.8467 186.886C94.3979 187.302 90.8294 187.508 87.1189 187.508C80.9456 187.508 74.3749 186.935 67.2789 185.783C62.976 186.277 58.6826 186.094 54.6648 185.256C53.9355 191.968 52.8494 198.697 51.4251 205.287C51.2916 205.914 50.7991 206.383 50.1968 206.511C49.9605 208.126 49.5325 209.705 48.9192 211.221C48.8202 211.497 48.6598 211.746 48.448 211.949L46.7642 223.5C46.5188 225.188 46.2121 227.287 45.1055 229.044C43.9828 230.823 41.9375 231.911 39.4922 232.034C39.2095 232.044 38.9108 232.052 38.6015 232.052C36.7828 232.052 34.5588 231.778 33.0682 230.348C32.0682 229.388 31.5588 228.084 31.5588 226.474C31.5588 226.442 31.5588 226.407 31.5615 226.375C31.5867 225.956 31.6192 225.527 31.652 225.093L31.6575 225.02C31.9348 221.274 32.2202 217.399 29.6282 214.804C29.4228 214.599 29.2788 214.343 29.2068 214.06C28.577 211.541 29.965 209.127 32.6813 207.927C32.8026 206.624 32.986 205.247 33.4215 203.909C33.0943 203.584 32.9099 203.122 32.9558 202.628C34.0758 190.263 35.5318 177.764 37.2864 165.479C38.7691 155.066 40.5851 143.972 43.8038 133.399C47.6304 120.876 52.8651 113.156 60.2811 109.1C60.3261 109.076 60.3718 109.053 60.418 109.034C60.4238 108.965 60.4301 108.897 60.4368 108.828C60.4795 108.402 60.6901 108.007 61.0261 107.738L69.2261 101.124C69.5861 100.836 70.0501 100.714 70.5035 100.794C70.9568 100.874 71.3541 101.143 71.5941 101.538C72.2955 102.687 72.1995 104.263 71.4075 105.074L70.4875 108.362C70.4821 108.379 70.4768 108.396 70.4715 108.412C70.4661 108.429 70.4608 108.446 70.4555 108.463C70.3968 108.631 70.3675 108.804 70.3675 108.98C70.4181 109.052 70.7275 109.378 71.9941 109.644C72.1198 109.671 72.2405 109.712 72.354 109.766C77.3642 107.705 81.2468 105.751 85.0042 103.856L85.1268 103.795C88.0495 102.32 91.3642 100.648 95.0308 100.368C95.5002 100.331 95.9615 100.504 96.2922 100.84C96.6228 101.176 96.7881 101.64 96.7455 102.107C96.6631 103.018 96.5286 103.916 96.3595 104.802C96.5137 104.796 96.6713 104.813 96.828 104.855C102.404 106.348 106.441 110.807 108.991 114.028C112.319 118.239 114.916 122.94 116.705 127.999C117.018 128.881 117.394 129.801 117.791 130.773L117.791 130.773L117.828 130.863C118.625 132.812 119.447 134.828 119.889 136.802C120.081 137.663 119.54 138.519 118.679 138.714C118.561 138.74 118.444 138.754 118.327 138.754C117.593 138.754 116.935 138.247 116.767 137.503C116.383 135.791 115.612 133.903 114.865 132.076C114.457 131.082 114.039 130.052 113.689 129.071C112.017 124.34 109.591 119.948 106.481 116.015C104.215 113.148 100.66 109.196 95.9987 107.946C95.8801 107.914 95.7683 107.869 95.6641 107.814C95.4343 108.688 95.189 109.552 94.9465 110.406L94.9428 110.419L94.9215 110.496C94.4281 112.23 93.8121 114.384 92.3668 116.07C91.1828 117.451 89.5962 118.339 88.0575 119.088C84.1162 121.014 79.9482 122.48 75.9162 123.896L75.8842 123.907C75.7108 123.971 75.5322 124 75.3535 124ZM36.5534 204.643C36.1859 205.655 36.0121 206.773 35.8979 207.904C37.6499 208.227 40.2232 208.475 42.5512 208.699C43.9112 208.829 45.2152 208.955 46.2979 209.091C46.6237 208.13 46.8638 207.145 47.0161 206.144C46.8847 206.121 46.7535 206.098 46.623 206.075L46.6228 206.075L46.5691 206.066L46.4546 206.046C45.7663 205.925 45.1169 205.811 44.5584 205.74L40.6011 205.178C39.4623 205.039 38.6438 204.928 37.8912 204.825L37.8906 204.825L37.4998 204.772L37.3152 204.747L37.3146 204.747C37.0636 204.713 36.8136 204.678 36.5534 204.643ZM34.1278 210.792C33.6067 211.007 32.2115 211.699 32.2602 212.93C35.4936 216.523 35.1377 221.347 34.8498 225.251L34.8495 225.255L34.8469 225.29L34.8469 225.29C34.8158 225.705 34.7848 226.117 34.7615 226.519C34.7721 227.546 35.1569 227.914 35.2859 228.038L35.2868 228.039C35.9242 228.652 37.2922 228.919 39.3482 228.836C40.7242 228.767 41.8415 228.22 42.3988 227.335C43.1423 226.159 43.3729 224.583 43.596 223.059L43.5988 223.039L45.1819 212.179C44.323 212.083 43.3456 211.989 42.3334 211.891L42.2446 211.883C39.1917 211.59 36.0442 211.286 34.1278 210.792ZM51.0709 184.308C51.2243 184.357 51.3783 184.406 51.5329 184.453C50.8679 190.716 49.8842 197.001 48.6038 203.17C48.1158 203.092 47.6171 203.004 47.1238 202.916C46.3558 202.78 45.6304 202.652 44.9878 202.57L41.0358 202.007C41.0251 202.004 41.0144 202.002 41.0038 202.002C39.7847 201.852 38.9371 201.736 38.1396 201.627L37.9371 201.599C37.4224 201.527 36.8998 201.455 36.2811 201.375C37.3771 189.567 38.7798 177.652 40.4518 165.93C41.9158 155.644 43.7078 144.698 46.8624 134.332C50.1924 123.433 54.5577 116.498 60.5252 112.673C60.6635 113.617 60.8884 114.551 61.1995 115.468C61.9275 117.618 63.0795 119.548 64.6261 121.207C64.9248 121.527 65.3435 121.711 65.7808 121.716H65.7968C66.2288 121.716 66.6448 121.54 66.9461 121.228C68.032 120.109 69.0229 118.917 69.915 117.658C69.3602 127.139 68.7228 136.683 68.1029 145.966L68.0767 146.358L68.0501 146.756L68.05 146.758C67.2627 158.552 66.4496 170.732 65.8122 182.712C61.0212 183.123 56.288 182.627 52.0522 181.263C51.6442 181.132 51.4709 181.031 51.4016 180.983C51.3758 180.826 51.4073 180.474 51.4215 180.316L51.4229 180.3C52.553 168.169 53.6881 156.041 54.8233 143.911L54.8242 143.902L54.9776 142.263C55.3136 138.687 55.2736 134.289 51.9909 132.017C51.2629 131.513 50.2656 131.695 49.7642 132.423C49.2602 133.151 49.4416 134.148 50.1696 134.649C52.0896 135.975 52.0442 139.255 51.7909 141.964C50.6042 154.641 49.4176 167.321 48.2362 180.001L48.2361 180.003C48.1774 180.638 48.0794 181.698 48.6656 182.663C49.2549 183.631 50.3189 184.065 51.0709 184.308ZM74.6628 112.27L76.5108 120.296C79.9295 119.086 83.4042 117.803 86.6495 116.216C87.7962 115.656 89.0868 114.976 89.9348 113.99C90.9242 112.835 91.3908 111.203 91.8415 109.624L91.8628 109.547L91.868 109.529L91.868 109.529C92.4155 107.599 92.9412 105.746 93.2762 103.88C90.9642 104.435 88.7348 105.558 86.5642 106.654L86.4415 106.715L86.4159 106.728L86.4159 106.728L86.4158 106.728C82.8878 108.505 79.249 110.338 74.6628 112.27ZM121.251 217.531L106.766 217.572C106.606 218.029 106.242 218.409 105.745 218.568C104.262 219.048 103.003 219.979 102.75 220.781C102.702 220.933 102.577 221.336 103.123 222.053C103.915 223.093 105.134 223.792 106.427 224.531L106.645 224.655C106.874 224.786 107.101 224.917 107.326 225.051C108.831 225.943 109.365 227.892 109.794 229.46L109.795 229.464L109.821 229.557C109.926 229.936 110.024 230.29 110.118 230.549C110.982 232.92 112.726 235.691 116.155 235.469C118.409 235.32 121.129 233.627 122.022 229.32C122.707 226.008 122.087 222.44 121.487 218.989L121.486 218.981L121.449 218.765L121.448 218.763C121.389 218.42 121.33 218.08 121.273 217.741C121.261 217.671 121.254 217.601 121.251 217.531ZM121.195 210.69L104.451 210.415C104.25 211.728 104.174 213.056 104.222 214.384L121.337 214.336C121.337 214.306 121.337 214.274 121.334 214.24L121.195 210.69ZM64.2288 114.444C63.7195 112.938 63.4981 111.375 63.5728 109.796L67.6901 106.474L67.4155 107.455C67.2101 108.055 67.1301 108.679 67.1755 109.314C67.1779 109.349 67.1824 109.383 67.1871 109.418L67.1888 109.431C67.3675 110.642 68.1301 111.564 69.4635 112.183C68.4901 114.154 67.2848 115.988 65.8608 117.666C65.1675 116.682 64.6208 115.602 64.2288 114.444Z" fill="black"/>
</g>
<defs>
<clipPath id="clip0_1123_38316">
<rect width="160" height="160" fill="white" transform="translate(0 100)"/>
</clipPath>
</defs>
</svg>
