<svg width="160" height="260" viewBox="0 0 160 260" fill="none" xmlns="http://www.w3.org/2000/svg">
<path d="M95.6372 98.5115C96.5892 99.9275 97.5785 101.384 98.9945 102.338C100.411 103.293 102.376 103.64 103.819 102.728C105.419 101.712 106.421 99.2608 108.304 99.5275C109.048 99.6368 109.637 100.186 110.197 100.696C111.763 102.144 113.573 103.562 115.704 103.696C117.835 103.829 120.171 102.042 119.8 99.9408C119.669 99.1995 119.232 98.5168 119.24 97.7648C119.253 96.4528 120.573 95.5622 121.144 94.3835C122.515 91.6022 119.603 87.9648 121.197 85.3035C121.688 84.4902 122.517 83.9515 123.229 83.3222C126.765 80.1888 127.099 74.1008 123.923 70.5995C122.747 69.3035 121.149 68.2902 120.523 66.6555C120.133 65.6395 120.176 64.5222 120.195 63.4315C120.296 57.2022 119.328 50.8262 116.36 45.3462C113.392 39.8662 109.597 38.3568 103.48 37.1755L98.6985 34.2048C97.2052 31.8315 94.3732 30.6902 91.6638 29.9702C83.1305 27.7088 72.4745 25.2662 64.3919 28.7995C56.3092 32.3328 49.5279 38.8928 46.0239 46.9888C44.2159 51.1675 43.1972 55.8235 40.2452 59.2902C37.7279 62.2475 34.0692 64.0075 31.3359 66.7568C28.6025 69.5062 26.9865 74.2235 29.4879 77.1942C29.9945 77.7968 30.6559 78.3062 30.9439 79.0422C31.9332 81.5675 28.1359 83.1915 26.9119 85.6128C25.7679 87.8795 27.1199 90.6288 28.8399 92.4982C30.5599 94.3675 32.7332 95.9648 33.6719 98.3195C34.3679 100.069 34.4159 102.264 35.9279 103.386C37.6212 104.645 40.0425 103.744 42.1012 104.21C44.1599 104.677 45.6372 106.461 47.2425 107.856C48.8479 109.25 51.2292 110.333 53.0319 109.205C53.9919 108.602 54.5438 107.496 55.4985 106.888C57.4212 105.661 59.8772 106.901 62.0505 107.592C64.2239 108.282 67.4958 107.562 67.3652 105.285" fill="black"/>
<path d="M90.5702 104.644C90.2662 100.994 90.9436 97.8631 92.5329 94.5618C92.8929 93.8151 93.6662 93.8231 94.4316 93.5804C95.1116 93.3671 95.7782 93.1218 96.4369 92.8444C97.7729 92.2898 99.0369 91.5724 100.197 90.7111C102.496 88.9751 104.288 86.5378 104.96 83.7111C105.57 81.1484 105.141 78.0978 102.293 76.6551C100.285 75.6418 98.4849 76.0018 95.4262 78.6898L94.5196 76.5324C95.4742 71.8578 95.8636 67.0818 95.6796 62.3138C95.5942 60.0738 92.5596 56.5538 90.4876 55.6978L86.8982 52.0444C85.0316 48.3111 71.5302 47.1084 67.5249 48.2684C60.5702 50.5271 58.5516 51.7218 56.5382 54.4311C54.5249 57.1404 53.4422 60.4124 52.3942 63.6204L50.3489 67.3324C48.6289 71.7564 47.5942 75.7511 47.3329 78.1698C46.6742 84.2604 47.9036 91.0284 52.5622 95.3671C55.0449 97.6764 58.1196 98.8124 61.4076 99.3911C64.8369 99.9964 68.5169 100.548 71.8449 99.1884C71.6689 101.964 71.6422 104.212 71.7702 106.991" fill="#FFD39F"/>
<path fill-rule="evenodd" clip-rule="evenodd" d="M46.1903 109.064C47.5877 110.277 49.4757 111.28 51.3477 111.28C52.2117 111.28 53.073 111.066 53.8757 110.546C54.5557 110.12 55.041 109.57 55.4677 109.085L55.483 109.068C55.7866 108.725 56.0724 108.402 56.353 108.224C57.3023 107.618 58.817 108.149 60.4197 108.714C60.793 108.848 61.1797 108.981 61.561 109.104C63.6117 109.757 66.0623 109.421 67.5183 108.29C68.5183 107.514 69.0277 106.41 68.9583 105.181C68.9077 104.298 68.153 103.624 67.2703 103.674C66.3877 103.725 65.713 104.48 65.7637 105.362C65.7717 105.49 65.761 105.602 65.5557 105.76C64.937 106.242 63.5503 106.376 62.5317 106.053C62.1877 105.944 61.8383 105.821 61.4837 105.696L61.4765 105.693C59.4351 104.976 56.8944 104.084 54.6357 105.525C53.9754 105.945 53.5008 106.483 53.0824 106.957L53.0703 106.97C52.7583 107.325 52.465 107.658 52.1797 107.837C51.1717 108.469 49.4997 107.69 48.289 106.637C47.9836 106.372 47.6831 106.09 47.3647 105.792L47.3646 105.792L47.3103 105.741L47.3017 105.733C45.9811 104.498 44.4872 103.1 42.4517 102.64C41.4543 102.413 40.4437 102.442 39.553 102.469L39.5413 102.469H39.5412C38.4289 102.501 37.4656 102.529 36.8783 102.09C36.2788 101.643 36.0254 100.687 35.7324 99.5813L35.7317 99.5784C35.5717 98.9678 35.4037 98.3384 35.1557 97.7144C34.3397 95.6717 32.8437 94.2104 31.3957 92.7971L31.2452 92.6493L31.245 92.649C30.812 92.2237 30.3993 91.8181 30.0143 91.3997C28.7503 90.0264 27.553 87.8717 28.337 86.3197C28.673 85.6557 29.3903 84.9571 30.0837 84.2824C31.4997 82.9064 33.4383 81.0184 32.4303 78.4451C32.1103 77.6291 31.5557 77.0504 31.1103 76.5864C30.961 76.4317 30.8223 76.2851 30.7077 76.1491C28.873 73.9731 30.193 70.1571 32.465 67.8717C33.6057 66.7231 34.9328 65.7529 36.3399 64.7242L36.3423 64.7224L36.3441 64.7211L36.3442 64.7211C38.1196 63.4228 39.9535 62.0818 41.457 60.3144C43.7393 57.6353 44.9285 54.387 46.0791 51.2442L46.0791 51.2441L46.0837 51.2317L46.1221 51.1271C46.5527 49.9543 46.9969 48.7447 47.4863 47.6131C50.7743 40.0157 57.169 33.6877 65.0277 30.2531C72.513 26.9811 82.489 29.1837 91.249 31.5064C93.241 32.0371 96.0383 32.9784 97.3397 35.0477C97.809 35.7944 98.7957 36.0184 99.545 35.5491C100.292 35.0797 100.516 34.0904 100.046 33.3437C98.145 30.3224 94.5823 29.0851 92.0677 28.4157C82.785 25.9571 72.1743 23.6397 63.745 27.3251C55.153 31.0824 48.1557 38.0157 44.5503 46.3464C44.009 47.5971 43.5343 48.8904 43.0783 50.1384C41.9743 53.1544 40.9317 56.0024 39.0197 58.2477C37.765 59.7225 36.1674 60.8913 34.4787 62.1266L34.4787 62.1267L34.4517 62.1464C33.0063 63.2024 31.513 64.2957 30.193 65.6237C28.5743 67.2504 27.3663 69.4051 26.881 71.5304C26.2943 74.0957 26.7823 76.4691 28.2543 78.2184C28.4201 78.4183 28.5881 78.5937 28.7502 78.7629L28.7502 78.7629L28.7957 78.8104C29.0863 79.1117 29.3583 79.3944 29.4463 79.6211C29.6463 80.1331 29.1397 80.7411 27.8463 81.9997L27.8359 82.0099C26.9984 82.8261 26.0493 83.7511 25.4757 84.8877C24.4783 86.8611 24.529 90.1811 27.6543 93.5784C28.1423 94.1091 28.657 94.6131 29.1557 95.0984L29.1627 95.1053L29.1628 95.1054C30.4242 96.3375 31.6154 97.5011 32.177 98.9091C32.3524 99.3529 32.488 99.8628 32.6315 100.402L32.6315 100.402L32.633 100.408C33.0223 101.882 33.465 103.554 34.9663 104.669C36.4459 105.768 38.1379 105.72 39.6343 105.677L39.6437 105.677L39.6622 105.677C40.426 105.655 41.1445 105.636 41.7423 105.77C42.937 106.042 43.9983 107.034 45.121 108.088L45.2368 108.196L45.2369 108.196C45.5467 108.484 45.8632 108.779 46.1903 109.064ZM115.6 105.305C115.71 105.313 115.822 105.316 115.934 105.316C117.534 105.316 119.158 104.593 120.238 103.393C121.203 102.316 121.606 100.998 121.374 99.6838C121.296 99.2464 121.163 98.8651 121.043 98.5291C120.942 98.2438 120.838 97.9504 120.838 97.8011C120.84 97.5212 121.203 97.0654 121.555 96.6229L121.555 96.6228L121.555 96.6224C121.899 96.1904 122.288 95.6998 122.579 95.1104C123.497 93.2469 123.061 91.3064 122.674 89.5912L122.672 89.5824L122.671 89.5749C122.354 88.1701 122.081 86.9596 122.568 86.1477C122.792 85.7771 123.227 85.4198 123.688 85.0438C123.891 84.8784 124.094 84.7131 124.288 84.5397C126.291 82.7717 127.531 80.1024 127.691 77.2171C127.854 74.3264 126.912 71.5291 125.11 69.5424C124.702 69.0944 124.27 68.6918 123.851 68.3051C123.064 67.5771 122.32 66.8864 122.019 66.1024C121.764 65.4325 121.779 64.5691 121.795 63.6576L121.795 63.6491L121.798 63.4757C121.918 56.1077 120.563 49.7557 117.771 44.6011C114.579 38.7077 110.392 36.8971 103.787 35.6224C102.918 35.4544 102.08 36.0224 101.912 36.8891C101.744 37.7557 102.312 38.5957 103.179 38.7637C109.072 39.9024 112.339 41.2944 114.955 46.1238C117.483 50.7904 118.71 56.6091 118.598 63.4198L118.595 63.5877L118.595 63.6064V63.6066C118.576 64.7273 118.555 65.9974 119.032 67.2438C119.6 68.7238 120.704 69.7477 121.678 70.6491C122.064 71.0064 122.427 71.3424 122.742 71.6891C123.971 73.0464 124.611 74.9958 124.499 77.0384C124.387 79.0758 123.539 80.9344 122.174 82.1397C122.05 82.2498 121.921 82.3553 121.793 82.4608C121.75 82.4959 121.707 82.5311 121.664 82.5664C121.043 83.0731 120.339 83.6491 119.827 84.4971C118.678 86.4117 119.142 88.4678 119.552 90.2838C119.851 91.6011 120.131 92.8438 119.712 93.6918C119.574 93.9744 119.32 94.2944 119.054 94.6304C118.43 95.4118 117.656 96.3878 117.643 97.7798C117.643 98.4969 117.859 99.1048 118.032 99.5928L118.032 99.5931L118.041 99.6168C118.12 99.8455 118.196 100.063 118.227 100.233C118.302 100.652 118.067 101.017 117.859 101.252C117.363 101.804 116.52 102.158 115.808 102.113C114.166 102.009 112.603 100.75 111.283 99.5318L111.251 99.5024L111.244 99.4961C110.61 98.9153 109.745 98.1232 108.531 97.9584C106.488 97.6704 105.171 99.1291 104.211 100.196C103.774 100.681 103.36 101.14 102.966 101.39C102.067 101.961 100.742 101.601 99.891 101.028C98.7117 100.232 97.8274 98.915 96.9728 97.6423L96.9683 97.6358C96.475 96.9024 95.4803 96.7051 94.747 97.1984C94.0137 97.6918 93.8163 98.6864 94.3097 99.4198L94.3246 99.442C95.3023 100.895 96.409 102.54 98.1017 103.681C100.227 105.113 102.808 105.276 104.68 104.092C105.445 103.604 106.05 102.933 106.585 102.339L106.587 102.337L106.599 102.324C107.152 101.709 107.723 101.076 108.088 101.129C108.318 101.158 108.752 101.556 109.074 101.852L109.083 101.86L109.11 101.884C110.835 103.481 112.958 105.137 115.6 105.305ZM52.3922 65.225C52.2269 65.225 52.0589 65.1983 51.8962 65.145C51.0562 64.8703 50.5976 63.9663 50.8722 63.1263C51.8962 59.9876 53.0589 56.4303 55.2536 53.4783C56.6696 51.5716 58.3042 50.2276 60.7149 48.9796C64.9922 46.769 69.8936 45.8356 74.8909 46.2783C78.3229 46.5823 86.5069 47.6836 88.3282 51.329C88.7229 52.1183 88.4029 53.081 87.6136 53.4756C86.8242 53.8703 85.8616 53.5503 85.4669 52.761C84.8669 51.561 80.6402 50.001 74.6082 49.465C70.2162 49.0756 65.9202 49.8916 62.1842 51.8223C60.2056 52.8436 58.9416 53.8756 57.8216 55.3876C55.9392 57.9206 54.9099 61.0719 53.9154 64.1168L53.9149 64.1183C53.6936 64.7957 53.0669 65.225 52.3922 65.225ZM97.2946 62.2641C97.4675 66.8531 97.1203 71.4655 96.262 75.9843C99.3325 73.9314 101.311 74.3682 102.988 75.2146C106.092 76.7826 107.433 80.1773 106.489 84.076C105.769 87.1053 103.868 89.9133 101.137 91.9746C99.8627 92.9213 98.4813 93.7053 97.0253 94.308C96.3347 94.5986 95.612 94.8653 94.884 95.092C94.6627 95.1613 94.4493 95.2146 94.2627 95.26C94.2359 95.2666 94.2074 95.2736 94.1782 95.2807L94.1767 95.2811C94.0778 95.3052 93.9705 95.3314 93.8947 95.356C92.3613 98.556 91.8867 99.7586 92.1533 102.895C92.228 103.775 91.5747 104.548 90.6947 104.623C90.6467 104.633 90.6013 104.636 90.556 104.636C89.7347 104.636 89.0333 104.007 88.964 103.169C88.6253 99.1533 89.4067 97.316 91.0653 93.86C91.6733 92.5986 92.8227 92.3213 93.5107 92.156L93.6043 92.1328L93.6044 92.1328C93.719 92.1047 93.8273 92.0782 93.924 92.0466C94.5587 91.8466 95.1853 91.6173 95.7907 91.3613C97.0147 90.8546 98.164 90.2013 99.22 89.4173C101.348 87.8093 102.831 85.6466 103.38 83.332C103.663 82.1666 104.047 79.3346 101.548 78.0733C100.457 77.5213 99.388 77.3053 96.4573 79.8813C95.7933 80.4653 94.7827 80.3986 94.1987 79.7346C93.7719 79.2494 93.6926 78.579 93.94 78.0253C93.2245 77.7476 92.7931 76.9881 92.9533 76.2135C93.8866 71.6695 94.2706 67.0135 94.0946 62.3761C94.0466 60.9281 91.5693 57.8721 89.8893 57.1788C89.0733 56.8401 88.684 55.9068 89.0226 55.0881C89.3613 54.2721 90.2946 53.8828 91.1133 54.2215C92.364 54.7388 93.852 55.9575 95.0893 57.4801C95.8867 58.4615 97.2306 60.3841 97.2946 62.2641ZM58.2467 74.6919C59.2777 74.6919 60.1134 73.6771 60.1134 72.4253C60.1134 71.1734 59.2777 70.1586 58.2467 70.1586C57.2158 70.1586 56.3801 71.1734 56.3801 72.4253C56.3801 73.6771 57.2158 74.6919 58.2467 74.6919ZM69.179 73.0534C69.179 74.3052 68.3433 75.3201 67.3124 75.3201C66.2814 75.3201 65.4457 74.3052 65.4457 73.0534C65.4457 71.8015 66.2814 70.7867 67.3124 70.7867C68.3433 70.7867 69.179 71.8015 69.179 73.0534ZM70.1716 105.469C70.2116 106.328 70.9183 106.997 71.7689 106.997C71.7929 106.997 71.8169 106.997 71.8463 106.987C72.7289 106.947 73.4116 106.197 73.3716 105.315C73.2436 102.563 73.2729 101.971 73.4436 99.288C73.4783 98.7387 73.2276 98.2107 72.7796 97.888C72.3316 97.568 71.7503 97.4987 71.2409 97.7067C68.4303 98.856 65.2489 98.4373 61.6863 97.816C58.2009 97.2027 55.6489 96.0533 53.6543 94.1973C49.9236 90.7253 48.2009 84.9467 48.9236 78.3467C49.1423 76.3707 50.0223 72.592 51.8409 67.9147C52.1609 67.0907 51.7529 66.1627 50.9289 65.8427C50.1049 65.5227 49.1769 65.9307 48.8569 66.7547C47.2169 70.9707 46.0543 75.1733 45.7423 77.9973C44.9103 85.616 46.9983 92.3733 51.4729 96.5413C53.9076 98.8053 57.0676 100.253 61.1343 100.971C63.6516 101.411 66.9156 101.979 70.1209 101.36C70.0676 102.648 70.0863 103.592 70.1716 105.469Z" fill="black"/>
<g clip-path="url(#clip0_1123_38263)">
<path fill-rule="evenodd" clip-rule="evenodd" d="M90.499 99.9988C90.739 102.692 91.8403 108.777 95.939 107.865L96.379 108.532C96.179 112.711 94.0617 115.657 90.7443 118.711C87.3737 121.764 83.075 123.599 78.539 123.921C74.539 124.215 70.2857 123.257 67.2937 120.575C64.3017 117.892 62.7283 114.175 64.7097 110.988H64.9977C65.899 111.015 66.7283 110.543 67.491 110.063C68.0507 109.709 68.2655 108.563 68.4616 107.517C68.6055 106.748 68.7394 106.034 68.9923 105.727C69.7923 104.689 72.187 101.239 72.5977 99.9961H90.499V99.9988ZM105.384 216.815C102.816 217.644 99.6825 220.175 101.856 223.023C102.842 224.32 104.245 225.122 105.637 225.918C105.93 226.086 106.223 226.254 106.512 226.426C107.464 226.991 107.894 228.562 108.256 229.886L108.256 229.886C108.379 230.335 108.494 230.755 108.618 231.098C109.866 234.522 112.29 237.332 116.266 237.066C120.309 236.799 122.824 233.356 123.592 229.644C124.381 225.822 123.614 221.289 122.962 217.434C122.927 217.227 122.892 217.023 122.858 216.82L105.384 216.815ZM30.7602 213.669C30.2269 211.536 31.8269 209.936 33.6936 209.24L46.9469 211.229C47.4642 215.723 46.4216 219.533 45.1789 223.267C44.9764 223.878 44.853 224.518 44.7301 225.156C44.5245 226.223 44.3204 227.282 43.7496 228.187C42.8376 229.632 41.1816 230.344 39.4109 230.432C36.6109 230.547 33.1602 230.184 33.1602 226.469C33.1876 226.031 33.2206 225.585 33.254 225.133C33.5461 221.18 33.8713 216.78 30.7602 213.669Z" fill="#FFD39F"/>
<path d="M53.2544 183.404C52.5317 190.644 51.4037 197.836 49.8677 204.948C48.5317 204.353 47.0891 204.03 45.6277 204.001L42.1611 203.774C39.4517 203.444 37.2757 203.116 34.5664 202.788C35.6891 190.401 37.1291 178.046 38.8864 165.721C40.4144 154.988 42.1931 144.252 45.3504 133.881C48.1557 124.665 52.6064 115.134 61.0571 110.513L62.0411 108.99L70.2411 102.377C70.7344 103.19 70.3557 104.244 70.0624 103.977L68.9557 107.929C68.8117 108.334 68.7557 108.766 68.7851 109.196C68.9664 110.438 70.4464 110.95 71.6731 111.209L72.8011 111.31C78.0091 109.177 81.9317 107.201 85.8517 105.222C88.8064 103.732 91.8571 102.214 95.1584 101.961L96.4171 106.401C101.134 107.665 104.793 111.3 107.74 115.022C110.953 119.086 113.473 123.652 115.201 128.534C116.169 131.262 117.7 134.332 118.332 137.153L119.174 139.734C124.438 162.401 124.716 185.892 124.966 209.164L101.75 208.782C100.721 200.945 99.9104 193.086 99.3184 185.201L98.2864 185.236C87.9344 186.556 77.3184 185.452 67.3184 184.182C62.0144 184.82 56.5957 184.422 51.5637 182.801" fill="black"/>
<path fill-rule="evenodd" clip-rule="evenodd" d="M72.8012 111.314L75.3558 122.402L75.3804 122.394L75.3805 122.394C79.4336 120.97 83.497 119.542 87.3558 117.656C88.7478 116.976 90.1452 116.208 91.1532 115.032C92.3452 113.642 92.8785 111.832 93.3825 110.064L93.4048 109.985C94.1547 107.345 94.905 104.703 95.1532 101.965C91.8518 102.218 88.8012 103.736 85.8465 105.226L85.7208 105.289C81.8399 107.245 77.9456 109.206 72.8012 111.314ZM34.1855 209.149C34.3562 207.163 34.5695 204.789 35.4229 202.987L49.2682 204.267C49.1135 206.189 48.1482 208.877 47.4202 210.667C47.4069 210.717 47.3775 210.763 47.3375 210.797C47.2709 210.832 47.1935 210.843 47.1215 210.821C45.9464 210.635 44.2322 210.47 42.4029 210.294C39.3092 209.997 35.8865 209.667 34.1855 209.149ZM102.669 215.202C102.525 213.125 102.663 211.039 103.085 208.999L122.746 209.274L122.938 214.189C122.957 214.789 122.917 215.498 122.405 215.789C122.154 215.903 121.879 215.954 121.605 215.933L103.471 215.983C103.277 216.005 103.079 215.959 102.911 215.858C102.829 215.77 102.765 215.666 102.722 215.554C102.679 215.442 102.663 215.322 102.669 215.202ZM68.9476 107.934L70.0543 103.982C70.3476 104.228 70.7263 103.188 70.2303 102.374L62.0303 108.988C61.8329 111.004 62.0649 113.038 62.7156 114.958C63.3663 116.878 64.4169 118.636 65.7983 120.118C68.2943 117.545 70.2863 114.524 71.6649 111.214C70.4383 110.956 68.9583 110.444 68.7769 109.201C68.7476 108.772 68.8036 108.34 68.9476 107.934Z" fill="white"/>
<path fill-rule="evenodd" clip-rule="evenodd" d="M75.3535 124C75.0868 124 74.8202 123.934 74.5828 123.803C74.1828 123.584 73.8975 123.203 73.7962 122.76L73.0187 119.386C72.4778 128.504 71.8654 137.661 71.2687 146.571L71.2426 146.962C70.4565 158.727 69.6447 170.877 69.0102 182.817C79.6277 184.451 89.002 184.737 97.608 183.692C96.4855 167.873 96.2404 151.97 96.8814 136.173C96.9161 135.29 97.6628 134.602 98.5454 134.64C99.4281 134.674 100.116 135.421 100.079 136.304C99.1214 159.912 100.156 183.754 103.156 207.194L123.345 207.525C123.338 206.709 123.331 205.897 123.324 205.087L123.324 205.073L123.323 205.049C123.316 204.169 123.308 203.293 123.3 202.421L123.3 202.401V202.401C123.135 182.318 122.979 163.345 118.273 143.069C118.073 142.208 118.609 141.349 119.471 141.149C120.329 140.949 121.191 141.485 121.391 142.346C126.173 162.967 126.332 182.111 126.5 202.376V202.376L126.5 202.394L126.502 202.603C126.52 204.759 126.538 206.932 126.561 209.133C126.567 209.565 126.396 209.981 126.089 210.285C125.793 210.584 125.385 210.752 124.964 210.752H124.937L124.4 210.743L124.532 214.122C124.545 214.538 124.576 215.561 124.031 216.392C124.233 216.612 124.376 216.891 124.43 217.208L124.477 217.483L124.519 217.726L124.556 217.946C124.584 218.108 124.612 218.27 124.641 218.432L124.643 218.445C125.293 222.188 125.965 226.058 125.158 229.965C124.123 234.963 120.675 238.376 116.371 238.659C116.166 238.677 115.961 238.683 115.761 238.683C111.886 238.683 108.755 236.149 107.115 231.645C106.969 231.24 106.843 230.787 106.713 230.309L106.709 230.295C106.52 229.607 106.089 228.036 105.694 227.803C105.411 227.635 105.129 227.472 104.843 227.309C103.401 226.485 101.766 225.549 100.582 223.992C99.2995 222.312 99.3955 220.797 99.6995 219.824C100.052 218.698 100.854 217.763 101.821 217.032C101.81 217.022 101.8 217.012 101.789 217.002C101.776 216.989 101.763 216.976 101.75 216.962C101.516 216.714 101.334 216.429 101.217 216.109C101.113 215.832 101.062 215.538 101.062 215.24C100.952 213.586 101.011 211.926 101.236 210.287C100.672 210.096 100.243 209.597 100.161 208.978C99.1987 201.648 98.4268 194.277 97.8467 186.886C94.3979 187.302 90.8294 187.508 87.1189 187.508C80.9456 187.508 74.3749 186.935 67.2789 185.783C62.976 186.277 58.6826 186.094 54.6648 185.256C53.9355 191.968 52.8494 198.697 51.4251 205.287C51.2916 205.914 50.7991 206.383 50.1968 206.511C49.9605 208.126 49.5325 209.705 48.9192 211.221C48.8202 211.497 48.6598 211.746 48.448 211.949L46.7642 223.5C46.5188 225.188 46.2121 227.287 45.1055 229.044C43.9828 230.823 41.9375 231.911 39.4922 232.034C39.2095 232.044 38.9108 232.052 38.6015 232.052C36.7828 232.052 34.5588 231.778 33.0682 230.348C32.0682 229.388 31.5588 228.084 31.5588 226.474C31.5588 226.442 31.5588 226.407 31.5615 226.375C31.5867 225.956 31.6192 225.527 31.652 225.093L31.6575 225.02C31.9348 221.274 32.2202 217.399 29.6282 214.804C29.4228 214.599 29.2788 214.343 29.2068 214.06C28.577 211.541 29.965 209.127 32.6813 207.927C32.8026 206.624 32.986 205.247 33.4215 203.909C33.0943 203.584 32.9099 203.122 32.9558 202.628C34.0758 190.263 35.5318 177.764 37.2864 165.479C38.7691 155.066 40.5851 143.972 43.8038 133.399C47.6304 120.876 52.8651 113.156 60.2811 109.1C60.3261 109.076 60.3718 109.053 60.418 109.034C60.4238 108.965 60.4301 108.897 60.4368 108.828C60.4795 108.402 60.6901 108.007 61.0261 107.738L69.2261 101.124C69.5861 100.836 70.0501 100.714 70.5035 100.794C70.9568 100.874 71.3541 101.143 71.5941 101.538C72.2955 102.687 72.1995 104.263 71.4075 105.074L70.4875 108.362C70.4821 108.379 70.4768 108.396 70.4715 108.412C70.4661 108.429 70.4608 108.446 70.4555 108.463C70.3968 108.631 70.3675 108.804 70.3675 108.98C70.4181 109.052 70.7275 109.378 71.9941 109.644C72.1198 109.671 72.2405 109.712 72.354 109.766C77.3642 107.705 81.2468 105.751 85.0042 103.856L85.1268 103.795C88.0495 102.32 91.3642 100.648 95.0308 100.368C95.5002 100.331 95.9615 100.504 96.2922 100.84C96.6228 101.176 96.7881 101.64 96.7455 102.107C96.6631 103.018 96.5286 103.916 96.3595 104.802C96.5137 104.796 96.6713 104.813 96.828 104.855C102.404 106.348 106.441 110.807 108.991 114.028C112.319 118.239 114.916 122.94 116.705 127.999C117.018 128.881 117.394 129.801 117.791 130.773L117.791 130.773L117.828 130.863C118.625 132.812 119.447 134.828 119.889 136.802C120.081 137.663 119.54 138.519 118.679 138.714C118.561 138.74 118.444 138.754 118.327 138.754C117.593 138.754 116.935 138.247 116.767 137.503C116.383 135.791 115.612 133.903 114.865 132.076C114.457 131.082 114.039 130.052 113.689 129.071C112.017 124.34 109.591 119.948 106.481 116.015C104.215 113.148 100.66 109.196 95.9987 107.946C95.8801 107.914 95.7683 107.869 95.6641 107.814C95.4343 108.688 95.189 109.552 94.9465 110.406L94.9428 110.419L94.9215 110.496C94.4281 112.23 93.8121 114.384 92.3668 116.07C91.1828 117.451 89.5962 118.339 88.0575 119.088C84.1162 121.014 79.9482 122.48 75.9162 123.896L75.8842 123.907C75.7108 123.971 75.5322 124 75.3535 124ZM36.5534 204.643C36.1859 205.655 36.0121 206.773 35.8979 207.904C37.6499 208.227 40.2232 208.475 42.5512 208.699C43.9112 208.829 45.2152 208.955 46.2979 209.091C46.6237 208.13 46.8638 207.145 47.0161 206.144C46.8847 206.121 46.7535 206.098 46.623 206.075L46.6228 206.075L46.5691 206.066L46.4546 206.046C45.7663 205.925 45.1169 205.811 44.5584 205.74L40.6011 205.178C39.4623 205.039 38.6438 204.928 37.8912 204.825L37.8906 204.825L37.4998 204.772L37.3152 204.747L37.3146 204.747C37.0636 204.713 36.8136 204.678 36.5534 204.643ZM34.1278 210.792C33.6067 211.007 32.2115 211.699 32.2602 212.93C35.4936 216.523 35.1377 221.347 34.8498 225.251L34.8495 225.255L34.8469 225.29L34.8469 225.29C34.8158 225.705 34.7848 226.117 34.7615 226.519C34.7721 227.546 35.1569 227.914 35.2859 228.038L35.2868 228.039C35.9242 228.652 37.2922 228.919 39.3482 228.836C40.7242 228.767 41.8415 228.22 42.3988 227.335C43.1423 226.159 43.3729 224.583 43.596 223.059L43.5988 223.039L45.1819 212.179C44.323 212.083 43.3456 211.989 42.3334 211.891L42.2446 211.883C39.1917 211.59 36.0442 211.286 34.1278 210.792ZM51.0709 184.308C51.2243 184.357 51.3783 184.406 51.5329 184.453C50.8679 190.716 49.8842 197.001 48.6038 203.17C48.1158 203.092 47.6171 203.004 47.1238 202.916C46.3558 202.78 45.6304 202.652 44.9878 202.57L41.0358 202.007C41.0251 202.004 41.0144 202.002 41.0038 202.002C39.7847 201.852 38.9371 201.736 38.1396 201.627L37.9371 201.599C37.4224 201.527 36.8998 201.455 36.2811 201.375C37.3771 189.567 38.7798 177.652 40.4518 165.93C41.9158 155.644 43.7078 144.698 46.8624 134.332C50.1924 123.433 54.5577 116.498 60.5252 112.673C60.6635 113.617 60.8884 114.551 61.1995 115.468C61.9275 117.618 63.0795 119.548 64.6261 121.207C64.9248 121.527 65.3435 121.711 65.7808 121.716H65.7968C66.2288 121.716 66.6448 121.54 66.9461 121.228C68.032 120.109 69.0229 118.917 69.915 117.658C69.3602 127.139 68.7228 136.683 68.1029 145.966L68.0767 146.358L68.0501 146.756L68.05 146.758C67.2627 158.552 66.4496 170.732 65.8122 182.712C61.0212 183.123 56.288 182.627 52.0522 181.263C51.6442 181.132 51.4709 181.031 51.4016 180.983C51.3758 180.826 51.4073 180.474 51.4215 180.316L51.4229 180.3C52.553 168.169 53.6881 156.041 54.8233 143.911L54.8242 143.902L54.9776 142.263C55.3136 138.687 55.2736 134.289 51.9909 132.017C51.2629 131.513 50.2656 131.695 49.7642 132.423C49.2602 133.151 49.4416 134.148 50.1696 134.649C52.0896 135.975 52.0442 139.255 51.7909 141.964C50.6042 154.641 49.4176 167.321 48.2362 180.001L48.2361 180.003C48.1774 180.638 48.0794 181.698 48.6656 182.663C49.2549 183.631 50.3189 184.065 51.0709 184.308ZM74.6628 112.27L76.5108 120.296C79.9295 119.086 83.4042 117.803 86.6495 116.216C87.7962 115.656 89.0868 114.976 89.9348 113.99C90.9242 112.835 91.3908 111.203 91.8415 109.624L91.8628 109.547L91.868 109.529L91.868 109.529C92.4155 107.599 92.9412 105.746 93.2762 103.88C90.9642 104.435 88.7348 105.558 86.5642 106.654L86.4415 106.715L86.4159 106.728L86.4159 106.728L86.4158 106.728C82.8878 108.505 79.249 110.338 74.6628 112.27ZM121.251 217.531L106.766 217.572C106.606 218.029 106.242 218.409 105.745 218.568C104.262 219.048 103.003 219.979 102.75 220.781C102.702 220.933 102.577 221.336 103.123 222.053C103.915 223.093 105.134 223.792 106.427 224.531L106.645 224.655C106.874 224.786 107.101 224.917 107.326 225.051C108.831 225.943 109.365 227.892 109.794 229.46L109.795 229.464L109.821 229.557C109.926 229.936 110.024 230.29 110.118 230.549C110.982 232.92 112.726 235.691 116.155 235.469C118.409 235.32 121.129 233.627 122.022 229.32C122.707 226.008 122.087 222.44 121.487 218.989L121.486 218.981L121.449 218.765L121.448 218.763C121.389 218.42 121.33 218.08 121.273 217.741C121.261 217.671 121.254 217.601 121.251 217.531ZM121.195 210.69L104.451 210.415C104.25 211.728 104.174 213.056 104.222 214.384L121.337 214.336C121.337 214.306 121.337 214.274 121.334 214.24L121.195 210.69ZM64.2288 114.444C63.7195 112.938 63.4981 111.375 63.5728 109.796L67.6901 106.474L67.4155 107.455C67.2101 108.055 67.1301 108.679 67.1755 109.314C67.1779 109.349 67.1824 109.383 67.1871 109.418L67.1888 109.431C67.3675 110.642 68.1301 111.564 69.4635 112.183C68.4901 114.154 67.2848 115.988 65.8608 117.666C65.1675 116.682 64.6208 115.602 64.2288 114.444Z" fill="black"/>
</g>
<defs>
<clipPath id="clip0_1123_38263">
<rect width="160" height="160" fill="white" transform="translate(0 100)"/>
</clipPath>
</defs>
</svg>
