<svg width="160" height="260" viewBox="0 0 160 260" fill="none" xmlns="http://www.w3.org/2000/svg">
<path d="M100.111 73.6012C99.8818 72.1079 98.4552 71.1292 97.1165 70.4306C95.7778 69.7319 94.2818 69.0146 93.6658 67.6332C92.5138 65.0546 95.1485 61.9159 93.9832 59.3426C93.4632 58.1932 92.2658 57.4759 91.0338 57.1906C89.8018 56.9052 88.5218 57.0279 87.2632 57.1399L83.9538 55.4119C81.7378 51.8732 76.9005 50.7452 72.8232 51.6572C68.7458 52.5692 65.2472 55.0972 61.8658 57.5559L51.2765 65.2759C49.5538 66.5319 47.1192 67.7906 45.4738 66.4332C43.0205 64.4119 46.0072 59.7879 43.9032 57.4146C43.3992 56.8492 42.6792 56.5292 42.1032 56.0359C40.5032 54.6546 40.3032 52.2386 40.5272 50.1292C41.3938 41.9879 46.7725 34.5986 54.0018 30.7559C61.2312 26.9132 70.0818 26.5292 77.8312 29.1559C82.2792 30.6706 86.8498 33.7906 87.4045 38.4546L90.3618 39.4172C93.9938 36.2172 99.5378 36.9319 104.202 38.1932C107.549 39.0972 110.882 40.2146 113.802 42.0786C116.722 43.9426 119.226 46.6359 120.311 49.9292C120.981 51.9559 121.111 54.1959 122.277 55.9932C123.031 57.1612 124.157 58.0412 124.986 59.1559C127.367 62.3559 126.618 67.4439 123.413 69.8226C121.863 70.9719 119.786 71.6306 118.922 73.3586C118.199 74.8066 118.53 76.6892 117.535 77.9639C116.087 79.8172 112.735 79.2786 111.469 81.2599C111.119 81.8066 110.989 82.4812 110.575 82.9799C110.162 83.4786 109.242 83.6706 108.925 83.1106L101.101 83.4679L100.111 73.6012Z" fill="black"/>
<path d="M50.3489 67.3393C48.6289 71.7633 47.5942 75.758 47.3329 78.1767C46.6742 84.2673 47.9036 91.0353 52.5622 95.374C55.0449 97.6833 58.1196 98.8193 61.4076 99.398C64.8369 100.003 68.5169 100.555 71.8449 99.1953C71.6689 101.971 71.6422 103.686 71.7702 106.465L90.5329 104.534C90.2289 100.883 90.9436 97.8647 92.5329 94.5633C92.8929 93.8167 93.6662 93.8247 94.4316 93.582C95.1116 93.3687 95.7782 93.1233 96.4369 92.846C97.7729 92.2913 99.0369 91.574 100.197 90.7127C102.496 88.9767 104.288 86.5393 104.96 83.7127C105.57 81.15 105.141 78.0993 102.293 76.6567C100.285 75.6433 98.4849 76.0033 95.4262 78.6913L100.136 73.6247C99.9062 72.1313 98.4796 71.1527 97.1409 70.454C95.8022 69.7553 94.3062 69.038 93.6902 67.6567C92.5382 65.078 95.1729 61.9393 94.0076 59.366C93.4876 58.2167 92.2902 57.4993 91.0582 57.214C89.8262 56.9287 88.5462 57.0513 87.2876 57.1633L83.9782 55.4353C81.7622 51.8967 76.9249 50.7687 72.8476 51.6807C68.7702 52.5927 65.2476 55.0967 61.8662 57.5553L51.2769 65.2753" fill="#FFD39F"/>
<path fill-rule="evenodd" clip-rule="evenodd" d="M47.1533 68.6277C45.9746 68.6277 45.0893 68.193 44.4546 67.6677C42.5278 66.0794 42.7796 63.6708 42.9822 61.7327L42.9826 61.729C43.124 60.377 43.2573 59.097 42.7053 58.4757C42.5479 58.2997 42.2679 58.113 41.9719 57.9157C41.6919 57.729 41.372 57.5157 41.0626 57.2517C39.324 55.7504 38.5906 53.2304 38.9373 49.961C39.844 41.457 45.3266 33.5557 53.2519 29.345C60.5959 25.441 69.9746 24.8064 78.3453 27.6437C84.4706 29.729 88.4493 33.7024 88.9933 38.2677C89.0973 39.145 88.4706 39.9424 87.5933 40.0464C86.716 40.1504 85.9213 39.5237 85.8146 38.6464C85.2306 33.7344 79.1613 31.3024 77.3133 30.673C69.7639 28.1157 61.3293 28.6757 54.7506 32.1717C47.7506 35.8917 42.9106 42.8384 42.1159 50.3024C41.9559 51.8224 42.0013 53.841 43.1453 54.8277C43.3026 54.961 43.5159 55.105 43.7399 55.2544L43.7448 55.2576C44.173 55.5422 44.6616 55.8669 45.092 56.353C46.5809 58.0311 46.3485 60.2651 46.1619 62.0587L46.1613 62.065C45.9906 63.7077 45.9266 64.7397 46.4866 65.201C47.4333 65.9824 49.668 64.4677 50.3293 63.985L60.9186 56.265L60.9315 56.2557L60.9315 56.2557L60.9315 56.2557C64.2564 53.8393 68.0204 51.1038 72.468 50.1077C77.9506 48.881 82.4333 50.3157 84.7666 54.041C85.236 54.7904 85.0093 55.777 84.26 56.2464C83.5106 56.7157 82.524 56.489 82.0546 55.7397C79.8253 52.1797 75.0946 52.7984 73.1666 53.2304C69.3613 54.081 66.0253 56.505 62.8013 58.8517L52.2146 66.5717C52.0966 66.6578 51.9799 66.7408 51.8646 66.8206C51.9816 67.1647 51.9827 67.5503 51.8409 67.9154C50.0223 72.5928 49.1423 76.3714 48.9236 78.3474C48.2009 84.9474 49.9236 90.7261 53.6543 94.1981C55.6489 96.0541 58.2009 97.2034 61.6863 97.8168C65.2489 98.4381 68.4303 98.8568 71.2409 97.7074C71.7503 97.4994 72.3316 97.5688 72.7796 97.8888C73.2276 98.2114 73.4783 98.7394 73.4436 99.2888C73.2729 101.971 73.2436 102.563 73.3716 105.315C73.4116 106.198 72.7289 106.947 71.8463 106.987C71.8169 106.998 71.7929 106.998 71.7689 106.998C70.9183 106.998 70.2116 106.329 70.1716 105.47C70.0863 103.593 70.0676 102.649 70.1209 101.361C66.9156 101.979 63.6516 101.411 61.1343 100.971C57.0676 100.254 53.9076 98.8061 51.4729 96.5421C46.9983 92.3741 44.9103 85.6168 45.7423 77.9981C46.0106 75.5694 46.9081 72.1211 48.1972 68.5216C47.8261 68.5947 47.4784 68.6277 47.1533 68.6277ZM109.575 85.0629C109.498 85.0629 109.423 85.0602 109.349 85.0522C108.57 84.9829 107.911 84.5669 107.538 83.9109C107.103 83.1429 107.373 82.1669 108.141 81.7296C108.581 81.4789 109.093 81.4629 109.527 81.6389C109.559 81.5642 109.594 81.4842 109.629 81.4069L109.639 81.3829C109.764 81.0874 109.907 80.7523 110.125 80.4122C111.101 78.8869 112.762 78.4016 114.095 78.0122C115.021 77.7429 115.895 77.4869 116.279 76.9935C116.578 76.6129 116.68 75.9701 116.799 75.2238L116.802 75.2042L116.807 75.1757C116.931 74.3933 117.071 73.5085 117.495 72.6575C118.304 71.0394 119.77 70.1862 121.064 69.4327L121.071 69.4282C121.578 69.1349 122.055 68.8549 122.466 68.5509C123.655 67.6682 124.477 66.2202 124.719 64.5775C124.962 62.9349 124.594 61.3109 123.711 60.1242C123.399 59.7056 123.015 59.3002 122.607 58.8736L122.6 58.8656L122.6 58.8655L122.6 58.8654C122.029 58.2652 121.437 57.6434 120.941 56.8735C120.021 55.4549 119.663 53.9135 119.319 52.4229L119.309 52.3781L119.309 52.3779C119.15 51.6959 119 51.0522 118.799 50.4442C117.919 47.7749 115.842 45.2869 112.949 43.4415C110.039 41.5829 106.687 40.5349 103.791 39.7509C98.234 38.2469 94.762 38.5749 92.1833 40.8495C91.5193 41.4335 90.5086 41.3695 89.9246 40.7055C89.3406 40.0415 89.4046 39.0309 90.0686 38.4469C94.474 34.5669 100.162 35.4549 104.626 36.6602C107.754 37.5055 111.394 38.6522 114.669 40.7429C118.181 42.9855 120.727 46.0735 121.837 49.4415C122.087 50.1992 122.262 50.9595 122.432 51.6961L122.432 51.6964L122.434 51.7029C122.73 52.9802 123.01 54.1882 123.623 55.1349C123.96 55.6538 124.422 56.1411 124.911 56.6569L124.922 56.6682L124.959 56.7073L124.959 56.7073L124.959 56.7074C125.401 57.1726 125.859 57.6546 126.274 58.2149C127.661 60.0789 128.247 62.5669 127.882 65.0442C127.517 67.5215 126.237 69.7376 124.37 71.1216C123.819 71.5314 123.242 71.8668 122.683 72.1915L122.679 72.1936C121.639 72.7989 120.738 73.3242 120.357 74.0869C120.152 74.4959 120.061 75.0646 119.964 75.6691L119.964 75.6692L119.959 75.7002C119.797 76.7402 119.61 77.9216 118.799 78.9616C117.778 80.2682 116.298 80.7002 114.991 81.0815C114.002 81.3695 113.149 81.6202 112.821 82.1349C112.743 82.2575 112.661 82.4496 112.575 82.6549C112.407 83.0549 112.197 83.5509 111.813 84.0149C111.271 84.6655 110.413 85.0629 109.575 85.0629ZM98.5294 73.8432C98.5802 74.1783 98.7316 74.4728 98.9483 74.7011C97.6772 75.0388 96.1801 75.8672 94.3453 77.4799C93.6813 78.0639 93.6147 79.0745 94.1987 79.7385C94.7827 80.4025 95.7933 80.4692 96.4573 79.8852C99.388 77.3092 100.457 77.5252 101.548 78.0772C104.047 79.3385 103.663 82.1705 103.38 83.3359C102.831 85.6505 101.348 87.8132 99.22 89.4212C98.164 90.2052 97.0147 90.8585 95.7907 91.3652C95.1853 91.6212 94.5587 91.8505 93.924 92.0505C93.8272 92.0821 93.7188 92.1087 93.604 92.1368L93.5107 92.1599C92.8227 92.3252 91.6733 92.6025 91.0653 93.8639C89.4067 97.3199 88.6253 99.1572 88.964 103.173C89.0333 104.011 89.7347 104.64 90.556 104.64C90.6013 104.64 90.6467 104.637 90.6947 104.627C91.5747 104.552 92.228 103.779 92.1533 102.899C91.8867 99.7625 92.3613 98.5599 93.8947 95.3599C93.9704 95.3353 94.0776 95.3092 94.1764 95.2851C94.2063 95.2778 94.2354 95.2707 94.2627 95.2639C94.4493 95.2185 94.6627 95.1652 94.884 95.0959C95.612 94.8692 96.3347 94.6025 97.0253 94.3119C98.4813 93.7092 99.8627 92.9252 101.137 91.9785C103.868 89.9172 105.769 87.1092 106.489 84.0799C107.433 80.1812 106.092 76.7865 102.988 75.2185C102.475 74.9597 101.934 74.7392 101.342 74.6164C101.62 74.2776 101.758 73.8261 101.687 73.3579C101.337 71.0726 99.3321 69.7819 97.8521 69.0112L97.6361 68.8992C96.5774 68.3499 95.4814 67.7792 95.1241 66.9819C94.7781 66.2076 95.0668 65.0881 95.3727 63.9016L95.3747 63.8939C95.7881 62.2966 96.2547 60.4859 95.4387 58.6832C94.7614 57.1819 93.2867 56.0699 91.3934 55.6326C89.9416 55.2943 88.4872 55.4243 87.2055 55.5389L87.2014 55.5392L87.1214 55.5472C86.2414 55.6272 85.5934 56.4032 85.6707 57.2832C85.7507 58.1632 86.5241 58.8139 87.4067 58.7339L87.4867 58.7259L87.4903 58.7256L87.4904 58.7256C88.6357 58.6244 89.7171 58.5288 90.6734 58.7499C91.5587 58.9552 92.2707 59.4352 92.5267 60.0032C92.8752 60.7774 92.6 61.8462 92.281 63.0852L92.2787 63.0939L92.2771 63.1001C91.8668 64.6906 91.4024 66.4909 92.204 68.2859C93.0147 70.1046 94.7614 71.0112 96.1641 71.7392L96.3747 71.8486C97.7267 72.5526 98.4307 73.2059 98.5294 73.8432ZM58.2467 74.6958C59.2777 74.6958 60.1134 73.681 60.1134 72.4292C60.1134 71.1773 59.2777 70.1625 58.2467 70.1625C57.2158 70.1625 56.3801 71.1773 56.3801 72.4292C56.3801 73.681 57.2158 74.6958 58.2467 74.6958ZM69.1806 73.0542C69.1806 74.306 68.3449 75.3208 67.3139 75.3208C66.283 75.3208 65.4473 74.306 65.4473 73.0542C65.4473 71.8023 66.283 70.7875 67.3139 70.7875C68.3449 70.7875 69.1806 71.8023 69.1806 73.0542Z" fill="black"/>
<path fill-rule="evenodd" clip-rule="evenodd" d="M90.4994 100C90.7394 102.693 91.8407 108.779 95.9394 107.867L96.3794 108.533C96.1794 112.712 94.0621 115.659 90.7447 118.712C87.3741 121.765 83.0754 123.6 78.5394 123.923C74.5394 124.216 70.2861 123.259 67.2941 120.576C64.3021 117.893 62.7287 114.176 64.7101 110.989H64.9981C65.8994 111.016 66.7287 110.544 67.4914 110.064C68.3531 109.52 70.0282 107.476 70.8131 106.519C70.9124 106.398 70.9974 106.294 71.0647 106.213C71.5765 105.55 71.894 103.701 72.1639 102.13C72.3159 101.245 72.4528 100.448 72.6007 100H90.4994ZM113.892 132.844C113.31 133.782 112.681 134.689 112.009 135.564C109.708 138.534 106.708 141.086 103.121 142.23L102.604 143.052C102.316 167.34 103.513 191.646 105.886 216.652C104.964 216.729 104.089 217.092 103.38 217.689C102.67 218.286 102.164 219.086 101.929 219.982C101.694 220.878 101.74 221.825 102.065 222.692C102.388 223.558 102.972 224.305 103.737 224.828C104.174 225.124 104.657 225.339 105.14 225.555L105.14 225.555L105.14 225.555C105.572 225.747 106.004 225.94 106.404 226.19C108.288 227.365 109.15 229.542 110.005 231.703C110.915 234 111.817 236.28 113.934 237.321C116.966 238.812 120.766 236.537 122.14 233.446C123.513 230.356 123.137 226.812 122.729 223.457C120.988 209.185 116.836 167.38 116.11 158.63L114.07 134.025L113.892 132.844ZM46.3761 135.42C46.4731 134.802 46.57 134.185 46.667 133.566L46.8244 133.044C48.5364 134.604 49.8537 136.545 50.667 138.713L47.651 196.462L46.3177 212.804L46.3113 212.882C46.0841 215.643 45.8563 218.411 45.2884 221.118C44.7844 223.337 44.1657 225.529 43.4377 227.684C42.9204 229.316 42.275 231.102 40.771 231.924C38.6137 233.097 35.7977 231.505 34.7444 229.286C33.7221 227.133 33.8753 224.639 34.0217 222.253C34.0262 222.181 34.0306 222.108 34.035 222.036C34.115 220.724 34.1524 219.324 33.4777 218.198C33.3281 217.954 33.1478 217.726 32.9672 217.498C32.8289 217.324 32.6906 217.149 32.5657 216.966C32.0804 216.246 31.811 215.404 31.7924 214.534C31.771 213.668 32.003 212.812 32.4537 212.07C32.9044 211.329 33.5604 210.732 34.3417 210.353C35.123 209.974 35.9977 209.825 36.859 209.929C38.7294 184.139 42.5133 160.031 46.3761 135.42Z" fill="#FFD39F"/>
<path fill-rule="evenodd" clip-rule="evenodd" d="M43.6579 130.845C46.8873 132.509 49.3859 135.312 50.6659 138.712L51.0979 140.269C49.2553 156.69 46.4233 172.986 42.6179 189.069C40.8126 191.178 41.8099 194.978 44.4179 195.93C46.085 196.54 47.8578 196.076 49.619 195.614C50.182 195.467 50.7438 195.319 51.3006 195.208C54.7808 194.516 58.3064 195.238 61.8358 195.961C65.2593 196.663 68.6864 197.365 72.0793 196.778C73.1002 196.601 74.0967 196.31 75.093 196.018C76.2019 195.693 77.3106 195.368 78.4526 195.202C81.9706 194.694 85.4475 195.713 88.8957 196.724C89.7524 196.976 90.6073 197.226 91.4606 197.453C95.7486 198.592 100.778 198.984 104.186 196.144L104.199 195.994C102.975 178.17 102.407 160.613 102.615 143.064L103.133 142.242C106.719 141.098 109.719 138.549 112.021 135.576C114.322 132.602 115.997 129.205 117.655 125.832C114.21 124.466 111.626 121.568 109.463 118.549C108.936 117.812 108.423 117.062 107.911 116.313C106.324 113.99 104.738 111.668 102.698 109.749C99.9993 107.21 96.2499 105.429 92.6206 106.176C92.0686 109.082 89.7379 110.949 87.3379 112.213C82.8259 114.568 77.6873 115.448 72.6473 114.73C71.4499 114.554 70.2419 114.28 69.2099 113.645C68.1779 113.01 67.3459 111.96 67.2339 110.754C67.0633 109.029 68.3353 107.536 69.1006 106.696C61.1059 109.6 54.3539 115.17 49.9833 122.469C49.654 123.023 49.3344 123.591 49.0138 124.161C47.5741 126.721 46.1137 129.318 43.6579 130.845ZM123.599 190.231C123.599 190.231 121.06 183.743 117.887 177.191L119.53 192.698C120.33 194.149 122.842 194.09 123.57 192.599C123.847 191.837 123.858 191.002 123.599 190.231Z" fill="black"/>
<path fill-rule="evenodd" clip-rule="evenodd" d="M102.647 140.718C102.119 140.888 101.739 141.306 101.596 141.803C101.242 142.092 101.014 142.53 101.008 143.023C100.808 159.911 101.312 177.182 102.546 195.355C100.124 196.964 96.5319 197.149 91.8482 195.906C91.0853 195.703 90.2978 195.473 89.5308 195.249L89.5305 195.249L89.5299 195.249L89.5298 195.249L89.3229 195.188C85.7549 194.14 82.0642 193.058 78.2002 193.618C76.9442 193.799 75.7629 194.146 74.6189 194.482C73.6402 194.77 72.7149 195.042 71.7842 195.202C68.6947 195.735 65.5146 195.082 62.1506 194.392L62.1469 194.391C58.5175 193.644 54.7655 192.874 50.9655 193.636C50.3644 193.755 49.7712 193.91 49.196 194.06L49.1762 194.066L49.1661 194.068C47.6045 194.475 46.131 194.859 44.9442 194.426C44.2135 194.156 43.6322 193.444 43.3895 192.519C43.1495 191.596 43.3069 190.695 43.8109 190.106C43.9762 189.911 44.0935 189.682 44.1522 189.434C48.4589 171.258 51.5442 152.612 53.3255 134.018C53.4109 133.14 52.7655 132.359 51.8855 132.274C51.0082 132.191 50.2269 132.834 50.1415 133.714C50.123 133.907 50.1043 134.101 50.0855 134.295C49.0721 132.905 47.8422 131.682 46.4368 130.673C48.1126 129.032 49.2747 126.965 50.4071 124.95L50.4071 124.95L50.4072 124.95L50.4101 124.945C50.7328 124.366 51.0394 123.822 51.3568 123.289C54.6234 117.833 59.5061 113.449 65.6181 110.444C65.6181 110.59 65.6261 110.742 65.6421 110.9C65.7914 112.513 66.8128 114.046 68.3728 115.006C69.7194 115.836 71.2421 116.14 72.4234 116.313C77.8261 117.084 83.2394 116.156 88.0848 113.628C91.1168 112.033 93.0634 110.014 93.8901 107.62C96.3914 107.47 99.2074 108.66 101.605 110.916C103.517 112.716 105.01 114.9 106.591 117.214L106.713 117.391L106.713 117.392C107.184 118.08 107.669 118.789 108.165 119.481C109.903 121.91 112.258 124.804 115.503 126.582C114.119 129.364 112.642 132.161 110.757 134.596C109.098 136.737 106.346 139.54 102.647 140.718ZM97.3469 199.916C99.3968 199.916 101.215 199.564 102.792 198.861C103.185 204.286 103.643 209.793 104.165 215.396C103.507 215.636 102.891 215.991 102.344 216.45C101.373 217.266 100.691 218.343 100.368 219.567C100.045 220.791 100.109 222.066 100.555 223.252C101 224.439 101.789 225.442 102.837 226.154C103.377 226.521 103.948 226.777 104.452 227.003L104.485 227.018L104.508 227.028C104.892 227.2 105.254 227.363 105.555 227.551C106.989 228.445 107.728 230.309 108.51 232.284L108.515 232.295L108.517 232.3C109.473 234.715 110.556 237.448 113.227 238.762C114.077 239.18 115.013 239.391 115.979 239.391C116.784 239.391 117.611 239.242 118.437 238.943C120.656 238.138 122.637 236.282 123.608 234.095C125.202 230.504 124.715 226.491 124.323 223.265L124.323 223.265L124.323 223.263C123.598 217.326 122.447 206.536 121.3 195.349C121.369 195.352 121.439 195.354 121.509 195.354H121.618C123.109 195.317 124.407 194.53 125.007 193.303C125.031 193.253 125.055 193.202 125.074 193.149C125.474 192.05 125.487 190.834 125.117 189.725C125.113 189.712 125.109 189.699 125.105 189.687C125.1 189.675 125.096 189.662 125.09 189.65L125.084 189.634C124.942 189.275 122.468 183.009 119.426 176.7C118.614 168.442 117.965 161.585 117.709 158.498L115.669 133.892C115.652 133.683 115.595 133.488 115.506 133.311C116.84 131.12 117.966 128.832 119.068 126.593L119.068 126.593L119.068 126.593L119.093 126.542C119.29 126.14 119.309 125.676 119.149 125.26C118.986 124.844 118.661 124.513 118.245 124.348C114.951 123.041 112.517 120.065 110.765 117.62C110.247 116.897 109.73 116.142 109.231 115.412C107.623 113.057 105.959 110.622 103.794 108.585C100.33 105.326 96.0341 103.841 92.2981 104.609C91.6608 104.74 91.1674 105.241 91.0474 105.878C90.6821 107.801 89.2234 109.412 86.5968 110.796C82.3541 113.006 77.6074 113.822 72.8794 113.148C71.9541 113.012 70.8928 112.801 70.0474 112.281C69.3514 111.852 68.8821 111.209 68.8261 110.596C68.7648 109.956 69.1194 109.518 69.8874 108.74C70.0394 108.585 70.1861 108.436 70.3194 108.289C70.8154 107.745 70.8741 106.932 70.4661 106.321C70.0581 105.71 69.2848 105.457 68.5914 105.708C59.8661 108.878 52.9568 114.388 48.6101 121.649C48.2714 122.22 47.9408 122.806 47.6208 123.374C46.2341 125.844 44.9221 128.174 42.8154 129.484C42.3248 129.788 42.0368 130.332 42.0608 130.908C42.0848 131.484 42.4154 132.001 42.9274 132.265C43.6784 132.652 44.3842 133.107 45.0376 133.622L44.7944 135.174C40.9278 159.793 37.2744 183.073 35.3678 208.372C34.7704 208.468 34.1891 208.649 33.6398 208.916C32.5811 209.43 31.6984 210.233 31.0851 211.238C30.4718 212.244 30.1624 213.398 30.1891 214.574C30.2158 215.753 30.5784 216.889 31.2424 217.873C31.3998 218.1 31.5651 218.31 31.7118 218.494L31.7195 218.504C31.8713 218.695 32.0146 218.876 32.1038 219.022C32.5331 219.737 32.5064 220.809 32.4371 221.94L32.4238 222.156L32.4233 222.163C32.2714 224.644 32.0995 227.451 33.2984 229.974C34.0984 231.662 35.6851 233.065 37.4371 233.636C38.0184 233.825 38.6051 233.918 39.1784 233.918C40.0104 233.918 40.8158 233.721 41.5384 233.326C43.6958 232.148 44.4878 229.67 44.9598 228.18C45.7011 225.988 46.3358 223.732 46.8504 221.473C46.8531 221.465 46.8531 221.454 46.8558 221.446C47.4424 218.641 47.6798 215.78 47.9064 213.012L49.1817 197.371C49.4546 197.303 49.7232 197.233 49.9869 197.164C50.5469 197.018 51.0749 196.882 51.5949 196.778C54.7602 196.143 58.0349 196.815 61.5042 197.527C65.0135 198.25 68.6429 198.994 72.3309 198.356C73.4207 198.168 74.4617 197.863 75.4664 197.569L75.5202 197.554L75.5609 197.542C76.6312 197.229 77.6424 196.933 78.6589 196.786C81.8295 196.327 85.0322 197.266 88.4215 198.26L88.5586 198.3C89.3668 198.536 90.2016 198.779 91.0269 198.999C93.3282 199.61 95.4375 199.916 97.3469 199.916ZM45.9347 197.817C45.2462 197.799 44.5487 197.688 43.8509 197.434C42.1309 196.804 40.8029 195.271 40.2962 193.332C40.1723 192.858 40.1031 192.381 40.0866 191.91C39.4524 197.868 38.9013 203.897 38.4558 210.046C38.4238 210.484 38.2158 210.886 37.8771 211.164C37.5411 211.441 37.1038 211.572 36.6691 211.518C36.1091 211.452 35.5464 211.548 35.0398 211.793C34.5331 212.038 34.1091 212.422 33.8184 212.905C33.5251 213.385 33.3784 213.937 33.3891 214.5C33.4024 215.062 33.5758 215.606 33.8904 216.073C33.9784 216.201 34.0958 216.35 34.2184 216.505L34.2508 216.546C34.44 216.786 34.6506 217.054 34.8398 217.364C35.7438 218.873 35.7251 220.548 35.6291 222.132L35.6158 222.35C35.4798 224.548 35.3411 226.82 36.1864 228.598C36.6184 229.505 37.4958 230.289 38.4264 230.59C38.8371 230.724 39.4451 230.82 40.0051 230.516C40.9571 229.996 41.4691 228.59 41.9118 227.198C41.9144 227.188 41.9171 227.18 41.9224 227.169C42.6291 225.078 43.2344 222.929 43.7251 220.774C44.2718 218.166 44.4984 215.412 44.7171 212.748L45.9347 197.817ZM40.2738 190.176C42.246 172.146 44.9641 154.735 47.808 136.62C48.3571 137.443 48.8152 138.331 49.1701 139.273C49.2487 139.481 49.366 139.663 49.5107 139.815C47.6991 156.121 44.8829 172.419 41.1202 188.359C40.7292 188.902 40.4449 189.518 40.2738 190.176ZM121.538 192.154C121.285 192.161 121.051 192.082 120.954 191.962C120.775 190.204 120.597 188.447 120.422 186.709C121.367 188.942 121.987 190.505 122.093 190.775C122.213 191.154 122.215 191.565 122.101 191.946C122.005 192.063 121.781 192.149 121.538 192.154ZM104.202 143.571C107.304 142.445 110.23 140.276 112.736 137.247L114.52 158.764C115.272 167.852 119.419 209.506 121.144 223.652C121.581 227.258 121.827 230.22 120.68 232.799C120.059 234.196 118.749 235.428 117.341 235.938C116.659 236.186 115.637 236.375 114.643 235.887C113.083 235.12 112.315 233.183 111.501 231.129L111.496 231.116L111.495 231.113C110.599 228.85 109.585 226.289 107.256 224.836C106.76 224.527 106.248 224.298 105.795 224.095C105.363 223.903 104.955 223.722 104.637 223.506C104.141 223.167 103.765 222.692 103.555 222.13C103.344 221.567 103.315 220.962 103.467 220.38C103.619 219.799 103.941 219.29 104.403 218.903C104.864 218.516 105.421 218.284 106.021 218.236C106.448 218.202 106.843 217.996 107.117 217.668C107.392 217.34 107.523 216.916 107.483 216.49C105.021 190.55 103.949 166.691 104.202 143.571Z" fill="black"/>
</svg>
