<svg width="160" height="260" viewBox="0 0 160 260" fill="none" xmlns="http://www.w3.org/2000/svg">
<path d="M48.3944 94.7166C47.9598 95.4366 47.3438 96.0313 46.6104 96.4393C45.8744 96.8473 45.0451 97.0553 44.2051 97.0446C43.3651 97.0313 42.5411 96.7993 41.8184 96.3699C41.0958 95.9406 40.4984 95.3299 40.0824 94.5966C39.2691 93.1539 38.9171 91.0526 37.2931 90.7353C35.9438 90.4686 34.8424 91.7193 33.8264 92.6446C32.6131 93.7406 31.0398 94.5299 29.4051 94.4899C27.7704 94.4499 26.1091 93.4473 25.6078 91.8899C24.8904 89.6686 26.5838 87.3806 26.5704 85.0499C26.6024 84.4206 26.3944 83.8046 25.9891 83.3219C25.0478 82.3459 23.4371 82.8393 22.0878 82.7113C19.2664 82.4446 17.5544 79.0366 18.2478 76.2899C18.9411 73.5433 21.3224 71.5273 23.8478 70.2473C26.3731 68.9673 29.1544 68.2339 31.6691 66.9219C34.7864 65.2873 37.3918 62.8233 39.1998 59.8019C40.6078 57.4473 41.4958 54.8019 42.9891 52.5006C45.6558 48.4046 50.0371 45.7113 54.5944 43.9486C59.1518 42.1859 63.9731 41.2339 68.6398 39.7913C72.1438 38.7086 75.6984 37.3326 79.3491 37.6579C81.7678 37.8739 84.3144 39.0633 85.2158 41.3139L91.4691 43.5139C98.8611 43.8126 105.936 48.3513 109.288 54.9486C110.44 57.2099 111.202 59.7219 112.856 61.6473C115.122 64.2873 118.989 65.7699 119.917 69.1139C121.146 73.5273 116.397 77.466 116.104 82.0366C115.938 84.6046 117.17 87.4206 115.837 89.6206C114.682 91.5193 112.104 92.0339 110.64 93.7086C108.893 95.7033 108.952 99.0819 106.696 100.474C105.808 101.021 102.373 101.666 101.429 101.231C97.5571 99.4526 97.1491 101.853 93.8744 102.162" fill="black"/>
<path d="M90.5699 104.644C90.2659 100.993 90.9432 97.8628 92.5325 94.5614C92.8925 93.8148 93.6659 93.8228 94.4312 93.5801C95.1112 93.3668 95.7779 93.1215 96.4365 92.8441C97.7725 92.2895 99.0339 91.5721 100.197 90.7108C102.495 88.9748 104.287 86.5374 104.959 83.7108C105.57 81.1481 105.141 78.0974 102.293 76.6548C100.285 75.6414 98.4845 76.0014 95.4259 78.6894L93.0499 78.0894C90.0152 77.9054 87.6232 75.2494 86.6285 72.3801C85.6339 69.5108 85.6979 66.3988 85.4765 63.3694C85.3779 62.0174 85.1645 60.5534 84.1859 59.6148C83.1192 58.5961 81.4952 58.5188 80.0232 58.4974L77.6765 57.6974C76.7725 56.7188 75.6659 55.9481 74.4365 55.4334C73.2072 54.9214 71.8819 54.6788 70.5485 54.7241C69.2179 54.7694 67.9112 55.1001 66.7192 55.6948C65.5272 56.2894 64.4765 57.1348 63.6392 58.1721C62.6392 59.4121 61.8845 60.9721 60.4392 61.6521C58.9939 62.3321 57.3539 61.9374 55.7832 61.9668C54.2125 61.9961 52.3405 62.8468 52.3005 64.4148L50.3645 67.3481C48.6445 71.7721 47.6099 75.7668 47.3485 78.1854C46.6899 84.2761 47.9192 91.0441 52.5779 95.3828C55.0605 97.6921 58.1352 98.8281 61.4232 99.4068C64.8525 100.012 68.5325 100.564 71.8605 99.2041C71.6845 101.98 71.6579 103.961 71.7859 106.74" fill="#FFD39F"/>
<path d="M44.274 98.6546C44.242 98.6546 44.2126 98.6546 44.1806 98.6546C43.0633 98.6386 41.962 98.3293 40.9993 97.7559C40.0366 97.1853 39.2393 96.3693 38.6873 95.3959C38.426 94.9319 38.2206 94.4493 38.0206 93.9853C37.7006 93.2359 37.3406 92.3879 36.9833 92.3186C36.61 92.2439 35.818 92.9879 35.2926 93.4786C35.1593 93.6039 35.0286 93.7266 34.898 93.8439C33.2233 95.3453 31.2633 96.1453 29.3646 96.1026C26.938 96.0466 24.7673 94.5213 24.082 92.3933C23.5086 90.6226 24.0126 88.9559 24.458 87.4839C24.7193 86.6146 24.9673 85.7959 24.9673 85.0626C24.9673 85.0359 24.9673 85.0066 24.97 84.9799C24.9806 84.7799 24.922 84.5853 24.8073 84.4226C24.5993 84.2786 23.9086 84.3079 23.3993 84.3266C22.93 84.3453 22.4446 84.3639 21.9353 84.3159C20.322 84.1639 18.8686 83.2866 17.8446 81.8413C16.6446 80.1479 16.2046 77.8786 16.6953 75.9159C17.3993 73.0919 19.682 70.5746 23.1246 68.8333C24.426 68.1746 25.7753 67.6573 27.0793 67.1586C28.4366 66.6386 29.7166 66.1479 30.9273 65.5159C33.7886 64.0173 36.1806 61.7586 37.842 58.9853C38.45 57.9693 38.9566 56.8893 39.4926 55.7453C40.1353 54.3799 40.7966 52.9666 41.6606 51.6333C44.194 47.7346 48.3566 44.6493 54.0313 42.4599C56.9513 41.3346 59.986 40.5266 62.9193 39.7426C64.6553 39.2786 66.45 38.8013 68.1806 38.2653C68.6606 38.1159 69.1406 37.9639 69.6206 37.8093C72.7753 36.7986 76.0366 35.7559 79.506 36.0679C82.178 36.3079 85.4766 37.6573 86.714 40.7186C87.0446 41.5373 86.65 42.4706 85.8286 42.8013C85.01 43.1319 84.0766 42.7373 83.746 41.9159C83.0473 40.1879 80.8713 39.4039 79.218 39.2546C76.394 39.0013 73.578 39.9026 70.594 40.8573C70.1033 41.0146 69.6126 41.1719 69.1246 41.3239C67.3353 41.8759 65.5086 42.3639 63.7433 42.8359C60.89 43.5959 57.9406 44.3826 55.1833 45.4466C50.1486 47.3879 46.5006 50.0573 44.3433 53.3773C43.5993 54.5239 43.01 55.7773 42.3886 57.1053C41.842 58.2679 41.2766 59.4733 40.586 60.6279C38.6233 63.9079 35.794 66.5799 32.4073 68.3533C31.0313 69.0706 29.602 69.6173 28.2206 70.1479C26.9353 70.6386 25.722 71.1053 24.5673 71.6893C23.0606 72.4519 20.4393 74.1159 19.7966 76.6919C19.53 77.7586 19.7886 79.0546 20.4526 79.9933C20.7886 80.4679 21.3726 81.0519 22.234 81.1319C22.53 81.1613 22.89 81.1453 23.2713 81.1319C24.4153 81.0866 25.9806 81.0253 27.138 82.2253C27.162 82.2519 27.186 82.2759 27.21 82.3053C27.8713 83.0893 28.21 84.0813 28.1673 85.1053C28.1593 86.2973 27.8206 87.4199 27.5193 88.4119C27.1646 89.5826 26.8606 90.5906 27.1273 91.4119C27.394 92.2386 28.386 92.8813 29.4393 92.9053C30.5246 92.9239 31.6953 92.4199 32.7566 91.4679C32.8686 91.3666 32.9886 91.2546 33.1113 91.1399C34.1726 90.1479 35.6286 88.7879 37.6046 89.1799C39.6233 89.5746 40.3993 91.3986 40.9673 92.7319C41.1406 93.1346 41.3006 93.5159 41.4766 93.8253C41.7513 94.3133 42.1513 94.7213 42.634 95.0066C43.1166 95.2919 43.666 95.4493 44.226 95.4573C44.7886 95.4653 45.3406 95.3266 45.8313 95.0546C46.322 94.7826 46.7326 94.3853 47.0233 93.9053C47.4793 93.1479 48.4633 92.9053 49.2206 93.3613C49.978 93.8173 50.2206 94.8013 49.7646 95.5586C49.186 96.5159 48.3646 97.3079 47.386 97.8519C46.434 98.3773 45.3593 98.6546 44.274 98.6546Z" fill="black"/>
<path d="M93.8869 103.767C93.0709 103.767 92.3749 103.146 92.2949 102.317C92.2123 101.437 92.8576 100.655 93.7376 100.573C94.6656 100.485 95.2736 100.186 95.9776 99.8366C97.3829 99.1432 98.9723 98.3566 102.058 99.7565C102.77 99.9059 105.3 99.4392 105.876 99.1112C106.684 98.6126 107.095 97.5112 107.572 96.2392C108.01 95.0686 108.506 93.7406 109.452 92.6579C110.282 91.7112 111.335 91.0899 112.268 90.5459C113.231 89.9806 114.063 89.4926 114.487 88.7939C115.058 87.8499 114.895 86.5406 114.708 85.0232C114.586 84.0286 114.458 82.9992 114.524 81.9379C114.674 79.6152 115.73 77.5806 116.751 75.6126C117.914 73.3726 118.919 71.4366 118.394 69.5486C117.948 67.9406 116.492 66.8099 114.807 65.5032C113.719 64.6579 112.596 63.7859 111.658 62.6952C110.351 61.1752 109.572 59.4099 108.815 57.7032C108.503 56.9966 108.207 56.3272 107.876 55.6792C104.804 49.6339 98.1909 45.3912 91.4176 45.1166C90.5349 45.0819 89.8469 44.3352 89.8843 43.4526C89.9189 42.5699 90.6709 41.8846 91.5483 41.9192C99.5643 42.2419 107.095 47.0739 110.73 54.2286C111.098 54.9512 111.426 55.6926 111.743 56.4072C112.434 57.9699 113.087 59.4472 114.087 60.6099C114.812 61.4552 115.764 62.1939 116.77 62.9752C118.634 64.4232 120.746 66.0632 121.476 68.6899C122.34 71.7912 120.879 74.6046 119.591 77.0872C118.682 78.8392 117.823 80.4926 117.716 82.1432C117.668 82.9032 117.772 83.7406 117.882 84.6286C118.111 86.4712 118.37 88.5592 117.22 90.4526C116.375 91.8446 115.052 92.6206 113.884 93.3032C113.092 93.7672 112.346 94.2046 111.858 94.7646C111.295 95.4072 110.943 96.3539 110.567 97.3566C109.972 98.9512 109.298 100.759 107.548 101.839C106.394 102.549 102.367 103.423 100.772 102.687C99.0389 101.89 98.5243 102.146 97.3936 102.706C96.5749 103.111 95.5536 103.615 94.0389 103.759C93.9883 103.765 93.9376 103.767 93.8869 103.767ZM102.111 99.7806C102.111 99.7832 102.111 99.7832 102.111 99.7806C102.111 99.7832 102.111 99.7832 102.111 99.7806Z" fill="black"/>
<path d="M52.277 66.0221C52.2636 66.0221 52.2503 66.0221 52.2343 66.0221C51.3516 66.0007 50.653 65.2647 50.6743 64.3821C50.7383 61.8407 53.325 60.4194 55.7276 60.3741C56.2343 60.3634 56.7223 60.3927 57.1943 60.4194C58.197 60.4781 59.0636 60.5261 59.733 60.2114C60.413 59.8914 60.941 59.1474 61.549 58.2834C61.8076 57.9181 62.0716 57.5421 62.3703 57.1741C63.357 55.9501 64.573 54.9741 65.981 54.2701C67.389 53.5687 68.901 53.1847 70.4716 53.1314C72.045 53.0781 73.5783 53.3581 75.029 53.9634C76.4796 54.5687 77.7596 55.4621 78.8263 56.6167C79.4263 57.2647 79.3863 58.2781 78.7383 58.8781C78.0903 59.4781 77.077 59.4381 76.477 58.7901C75.7223 57.9741 74.821 57.3447 73.7943 56.9181C72.7703 56.4914 71.685 56.2914 70.5783 56.3314C69.469 56.3687 68.4023 56.6381 67.4076 57.1341C66.413 57.6301 65.557 58.3207 64.8583 59.1847C64.6263 59.4727 64.3996 59.7927 64.1623 60.1314C63.4023 61.2087 62.541 62.4274 61.0956 63.1074C59.693 63.7687 58.269 63.6861 57.013 63.6141C56.581 63.5901 56.173 63.5661 55.789 63.5741C54.789 63.5927 53.885 64.0861 53.877 64.4621C53.8556 65.3314 53.1436 66.0221 52.277 66.0221Z" fill="black"/>
<path d="M93.0272 79.6867C92.9952 79.6867 92.9606 79.6867 92.9286 79.684C90.3446 79.5267 86.7392 77.6574 85.0912 72.9027C84.2326 70.4254 84.0992 67.8707 83.9686 65.3987C83.9366 64.7667 83.9019 64.1161 83.8566 63.4841C83.7766 62.3961 83.6246 61.3161 83.0539 60.7667C82.4406 60.1774 81.2459 60.1134 79.9766 60.0947C79.0939 60.0814 78.3872 59.3561 78.4006 58.4707C78.4139 57.5881 79.1419 56.8814 80.0246 56.8947C81.4859 56.9161 83.6966 56.9481 85.2699 58.4574C86.6246 59.7587 86.9312 61.6094 87.0512 63.252C87.0992 63.9134 87.1339 64.5827 87.1686 65.2307C87.2912 67.5827 87.4086 69.8067 88.1179 71.8547C88.8806 74.0574 90.7259 76.3454 93.1232 76.492C94.0059 76.5454 94.6779 77.3027 94.6246 78.1854C94.5712 79.0334 93.8646 79.6867 93.0272 79.6867Z" fill="black"/>
<path d="M58.2475 74.6935C59.2785 74.6935 60.1142 73.6787 60.1142 72.4268C60.1142 71.175 59.2785 70.1602 58.2475 70.1602C57.2166 70.1602 56.3809 71.175 56.3809 72.4268C56.3809 73.6787 57.2166 74.6935 58.2475 74.6935Z" fill="black"/>
<path d="M67.3139 75.3185C68.3449 75.3185 69.1806 74.3037 69.1806 73.0518C69.1806 71.8 68.3449 70.7852 67.3139 70.7852C66.283 70.7852 65.4473 71.8 65.4473 73.0518C65.4473 74.3037 66.283 75.3185 67.3139 75.3185Z" fill="black"/>
<path d="M90.5564 104.639C89.7351 104.639 89.0337 104.01 88.9644 103.172C88.6257 99.1564 89.4071 97.3191 91.0657 93.8631C91.6737 92.6018 92.8231 92.3244 93.5111 92.1591C93.6604 92.1218 93.8017 92.0898 93.9244 92.0498C94.5591 91.8498 95.1857 91.6204 95.7911 91.3644C97.0151 90.8577 98.1644 90.2044 99.2204 89.4204C101.348 87.8124 102.831 85.6498 103.38 83.3351C103.663 82.1698 104.047 79.3378 101.548 78.0764C100.458 77.5244 99.3884 77.3084 96.4577 79.8844C95.7937 80.4684 94.7831 80.4018 94.1991 79.7378C93.6151 79.0738 93.6817 78.0631 94.3457 77.4791C98.5537 73.7804 100.986 74.2071 102.988 75.2178C106.092 76.7858 107.434 80.1804 106.49 84.0791C105.77 87.1084 103.868 89.9164 101.138 91.9778C99.863 92.9244 98.4817 93.7084 97.0257 94.3111C96.3351 94.6018 95.6124 94.8684 94.8844 95.0951C94.6631 95.1644 94.4497 95.2178 94.263 95.2631C94.1457 95.2924 93.9937 95.3271 93.895 95.3591C92.3617 98.5591 91.887 99.7617 92.1537 102.898C92.2284 103.778 91.575 104.551 90.695 104.626C90.647 104.636 90.6017 104.639 90.5564 104.639Z" fill="black"/>
<path d="M71.7705 106.998C70.9198 106.998 70.2132 106.329 70.1732 105.47C70.0878 103.593 70.0692 102.649 70.1225 101.361C66.9172 101.979 63.6532 101.411 61.1358 100.971C57.0692 100.254 53.9092 98.8061 51.4745 96.5421C46.9998 92.3741 44.9118 85.6168 45.7438 77.9981C46.0558 75.1741 47.2185 70.9714 48.8585 66.7554C49.1785 65.9314 50.1065 65.5234 50.9305 65.8434C51.7545 66.1634 52.1625 67.0914 51.8425 67.9154C50.0238 72.5928 49.1438 76.3714 48.9252 78.3474C48.2025 84.9474 49.9252 90.7261 53.6558 94.1981C55.6505 96.0541 58.2025 97.2034 61.6878 97.8168C65.2505 98.4381 68.4318 98.8568 71.2425 97.7074C71.7518 97.4994 72.3332 97.5688 72.7812 97.8888C73.2292 98.2114 73.4798 98.7394 73.4452 99.2888C73.2745 101.971 73.2452 102.563 73.3732 105.315C73.4132 106.198 72.7305 106.947 71.8478 106.987C71.8185 106.998 71.7945 106.998 71.7705 106.998Z" fill="black"/>
<path fill-rule="evenodd" clip-rule="evenodd" d="M95.9394 107.867C91.8407 108.779 90.7394 102.693 90.4994 100H72.6007C72.4528 100.448 72.3159 101.245 72.1639 102.13C71.894 103.701 71.5765 105.55 71.0647 106.213C70.9974 106.294 70.9124 106.398 70.8131 106.519C70.0282 107.476 68.3531 109.52 67.4914 110.064C66.7287 110.544 65.8994 111.016 64.9981 110.989H64.7101C62.7287 114.176 64.3021 117.893 67.2941 120.576C70.2861 123.259 74.5394 124.216 78.5394 123.923C83.0754 123.6 87.3741 121.765 90.7447 118.712C94.0621 115.659 96.1794 112.712 96.3794 108.533L95.9394 107.867ZM100.172 142.665L100.542 143.086C100.316 162.195 102.285 181.287 104.29 200.738V200.738L104.291 200.74C104.834 206.012 105.38 211.31 105.886 216.641C104.961 216.718 104.081 217.078 103.372 217.676C102.66 218.273 102.15 219.076 101.916 219.974C101.678 220.873 101.729 221.822 102.054 222.692C102.38 223.561 102.969 224.308 103.737 224.83C104.174 225.126 104.657 225.342 105.14 225.558L105.14 225.558C105.572 225.75 106.004 225.943 106.404 226.193C108.288 227.368 109.15 229.544 110.005 231.705C110.914 234.002 111.817 236.282 113.934 237.324C116.966 238.814 120.766 236.54 122.14 233.449C123.513 230.358 123.137 226.814 122.729 223.46C120.988 209.188 116.836 167.382 116.11 158.633C116.11 158.633 112.633 126.292 111.737 122.577C110.841 118.862 107.804 115.684 105.036 113.049L104.438 112.663C102.569 117.39 97.4224 137.649 100.172 142.665ZM57.4057 115.94L57.899 114.409C56.3364 114.836 55.1577 116.103 54.1657 117.377C51.0804 121.321 49.451 126.324 48.683 131.271C48.1314 134.825 47.5057 138.819 46.8301 143.131L46.8301 143.131C43.7789 162.604 39.7103 188.57 36.859 209.927C35.9977 209.823 35.123 209.972 34.3417 210.351C33.5604 210.729 32.9044 211.327 32.4537 212.068C32.003 212.809 31.771 213.665 31.7924 214.532C31.811 215.401 32.0804 216.244 32.5657 216.964C32.6906 217.147 32.8289 217.321 32.9672 217.496L32.9672 217.496C33.1478 217.724 33.3282 217.951 33.4777 218.196C34.1524 219.321 34.115 220.721 34.035 222.033L34.0217 222.251C33.8753 224.636 33.7221 227.131 34.7444 229.284C35.7977 231.503 38.6137 233.095 40.771 231.921C42.275 231.1 42.9204 229.313 43.4377 227.681C44.1657 225.527 44.7844 223.335 45.2884 221.116C45.8617 218.383 48.2217 206.255 48.451 203.468L46.3124 202.42C46.3124 202.42 53.995 145.025 57.4057 115.94Z" fill="#FFD39F"/>
<path d="M100.17 142.667C97.4211 137.651 102.568 117.393 104.434 112.665C104.624 112.302 104.365 112.547 104.322 112.142C104.192 111.521 98.8451 108.145 96.4505 107.867C95.9971 112.401 94.0985 115.63 90.7411 118.713C87.3705 121.766 83.0718 123.601 78.5358 123.923C74.5358 124.217 70.2825 123.259 67.2905 120.577C64.2985 117.894 62.8905 113.297 64.8718 110.118L59.4665 112.598C58.8238 112.891 58.1331 113.217 57.7678 113.817C57.4025 114.417 57.5011 115.219 57.4211 115.95C53.9998 145.035 45.3358 200.785 46.1091 200.87C63.9971 202.987 87.1118 204.894 104.448 199.998H104.49C103.066 180.798 100.333 161.961 100.562 143.094" fill="black"/>
<path fill-rule="evenodd" clip-rule="evenodd" d="M95.4951 106.584C95.8207 106.342 96.2286 106.233 96.6317 106.279C98.349 106.479 100.752 107.751 102.032 108.492C105.061 110.247 105.65 111.074 105.821 111.57C105.85 111.614 105.877 111.66 105.903 111.707C105.986 111.761 106.066 111.823 106.14 111.895C109.287 114.887 112.332 118.209 113.295 122.207C114.202 125.98 117.559 157.14 117.7 158.465C117.7 158.479 117.703 158.492 117.703 158.505C118.455 167.575 122.594 209.151 124.316 223.271L124.317 223.273C124.709 226.499 125.196 230.511 123.602 234.103C122.631 236.289 120.65 238.145 118.431 238.951C117.61 239.239 116.783 239.388 115.978 239.388C115.012 239.388 114.076 239.177 113.226 238.759C110.556 237.445 109.473 234.712 108.516 232.297L108.514 232.292L108.509 232.281C107.727 230.306 106.988 228.442 105.554 227.548C105.253 227.36 104.891 227.197 104.507 227.025L104.484 227.015L104.451 227C103.947 226.774 103.377 226.519 102.836 226.151C101.788 225.439 100.999 224.436 100.554 223.249C100.108 222.063 100.044 220.788 100.367 219.564C100.69 218.34 101.372 217.263 102.343 216.447C102.89 215.988 103.503 215.633 104.162 215.393C103.731 210.93 103.271 206.449 102.821 202.079C95.1374 203.977 86.4654 204.668 77.661 204.668C68.2015 204.668 58.5855 203.87 49.8586 202.908C49.2343 207.662 47.3873 218.9 46.8558 221.44C46.8544 221.444 46.8538 221.449 46.8531 221.453C46.8524 221.458 46.8518 221.463 46.8504 221.466C46.3358 223.725 45.7011 225.981 44.9598 228.173C44.4878 229.664 43.6958 232.141 41.5384 233.32C40.8158 233.72 40.0104 233.917 39.1784 233.917C38.6051 233.917 38.0184 233.824 37.4371 233.635C35.6851 233.064 34.0984 231.661 33.2984 229.973C32.0995 227.45 32.2714 224.642 32.4233 222.161L32.4238 222.154L32.4371 221.938C32.5064 220.808 32.5331 219.736 32.1038 219.021C32.0203 218.884 31.8893 218.717 31.7483 218.537L31.7482 218.537L31.7118 218.491C31.5651 218.307 31.3998 218.099 31.2424 217.869C30.5784 216.885 30.2158 215.749 30.1891 214.571C30.1624 213.395 30.4718 212.24 31.0851 211.235C31.6984 210.229 32.5811 209.427 33.6398 208.912C34.2158 208.632 34.8291 208.445 35.4558 208.354C38.273 187.677 41.9827 163.923 44.9765 144.752L44.9811 144.722L45.4181 141.922L45.4185 141.92C46.0309 137.995 46.602 134.336 47.1118 131.029C48.0318 125.066 49.9838 120.141 52.9144 116.394C53.7756 115.288 54.8175 114.115 56.1949 113.384C56.2521 113.25 56.3197 113.117 56.3997 112.986C57.026 111.956 58.0856 111.47 58.7897 111.148L58.7997 111.143L64.205 108.666C64.8146 108.387 65.5299 108.517 65.9978 108.984C67.0678 108.525 67.8451 107.824 68.4184 107.307L68.4284 107.298L68.5244 107.21C69.5537 106.282 69.663 106.034 69.8817 105.536C69.8986 105.496 69.9162 105.457 69.9342 105.417C69.9503 105.381 69.9667 105.344 69.983 105.306C70.3484 104.501 71.295 104.144 72.1004 104.509C72.9057 104.874 73.263 105.821 72.8977 106.626L72.8097 106.824C72.4337 107.68 72.103 108.296 70.6657 109.589L70.5724 109.672L70.5689 109.675C69.6834 110.475 68.1083 111.899 65.6603 112.443C65.224 114.674 66.2519 117.498 68.357 119.388C70.7677 121.551 74.4343 122.623 78.4183 122.33C82.581 122.034 86.5757 120.33 89.6663 117.53C92.3456 115.07 93.8726 112.639 94.5428 109.67C92.3287 109.213 91.502 107.741 90.8239 106.53L90.7941 106.477L90.794 106.477C90.6034 106.139 90.4065 105.789 90.1759 105.447C89.6826 104.714 89.8772 103.719 90.6079 103.226C91.3412 102.733 92.3359 102.927 92.8292 103.658C93.1466 104.127 93.3946 104.57 93.6132 104.962L93.6162 104.967C94.2625 106.118 94.4663 106.481 95.4951 106.584ZM48.5838 199.541C48.6401 199.546 48.6954 199.553 48.7498 199.563C65.777 201.496 86.5162 202.928 102.49 198.863C100.544 179.961 98.7646 162.016 98.9365 143.692C98.8716 143.614 98.8131 143.529 98.7623 143.436C97.3783 140.914 97.4557 135.471 98.9944 127.263C100.064 121.556 101.645 115.66 102.693 112.735C101.797 112.02 99.509 110.634 97.7597 109.908C97.0023 113.719 95.1223 116.858 91.821 119.887C88.1943 123.172 83.5197 125.17 78.6477 125.516C73.805 125.868 69.277 124.503 66.221 121.764C63.8637 119.65 62.213 116.26 62.3677 113.023L60.1303 114.05L60.1175 114.055C59.9413 114.137 59.7072 114.244 59.5087 114.356C59.5249 114.801 59.3536 115.227 59.0502 115.536C59.0424 115.72 59.0309 115.919 59.0077 116.122C59.0023 116.172 58.9943 116.223 58.9837 116.271C53.7757 141.524 48.0983 191.002 47.6637 199.439C47.9484 199.472 48.2342 199.505 48.5211 199.537C48.542 199.538 48.5628 199.54 48.5838 199.541ZM47.7837 168.226C48.9869 158.57 52.0268 135.249 55.2595 118.599C52.7671 121.887 51.0922 126.23 50.2744 131.52C49.7455 134.953 49.1507 138.765 48.5121 142.857L48.5119 142.859L48.1438 145.218C45.0851 164.802 41.2798 189.176 38.4451 210.141C38.3278 211.008 37.5358 211.616 36.6718 211.514C36.1118 211.448 35.5491 211.544 35.0424 211.789C34.5358 212.035 34.1118 212.419 33.8211 212.901C33.5278 213.381 33.3811 213.933 33.3918 214.496C33.4051 215.058 33.5784 215.603 33.8931 216.069C33.9811 216.197 34.0984 216.347 34.2211 216.501L34.2535 216.542L34.2536 216.542C34.4428 216.783 34.6533 217.05 34.8424 217.36C35.7464 218.869 35.7278 220.544 35.6318 222.128L35.6184 222.346C35.4824 224.544 35.3438 226.816 36.1891 228.595C36.6211 229.501 37.4984 230.285 38.4291 230.587C38.8398 230.72 39.4478 230.816 40.0078 230.512C40.9598 229.992 41.4718 228.587 41.9144 227.195C41.9171 227.184 41.9198 227.176 41.9251 227.165C42.6318 225.075 43.2371 222.923 43.7278 220.771C44.2421 218.308 46.0746 207.139 46.6798 202.547C46.4255 202.517 46.1721 202.487 45.9197 202.458C45.477 202.404 45.061 202.159 44.797 201.799C44.3623 201.202 44.1837 200.954 45.189 190.932C45.8183 184.66 46.7383 176.596 47.7837 168.226ZM102.141 127.852C103.063 122.929 104.287 118.28 105.177 115.421C107.49 117.741 109.53 120.242 110.183 122.953C110.868 125.812 113.316 147.631 114.516 158.785C115.274 167.913 119.415 209.516 121.14 223.652C121.578 227.257 121.823 230.22 120.676 232.799C120.055 234.196 118.746 235.428 117.338 235.937C116.655 236.185 115.634 236.375 114.639 235.887C113.08 235.12 112.312 233.182 111.497 231.128L111.492 231.116L111.491 231.113C110.595 228.849 109.582 226.289 107.252 224.836C106.756 224.527 106.244 224.297 105.791 224.095C105.359 223.903 104.951 223.721 104.634 223.505C104.138 223.167 103.762 222.692 103.551 222.129C103.34 221.567 103.311 220.961 103.463 220.38C103.615 219.799 103.938 219.289 104.399 218.903C104.86 218.516 105.418 218.284 106.018 218.236C106.444 218.201 106.839 217.996 107.114 217.668C107.388 217.34 107.519 216.916 107.479 216.489C106.976 211.184 106.425 205.842 105.892 200.675C106.05 200.339 106.093 199.945 105.984 199.559C105.928 199.363 105.838 199.186 105.723 199.032C103.745 179.827 101.922 161.628 102.143 143.105C102.149 142.591 101.911 142.13 101.537 141.833C101.152 141.059 100.247 137.977 102.141 127.852ZM46.285 199.279C46.2887 199.279 46.2924 199.28 46.2964 199.28C46.301 199.281 46.306 199.282 46.3117 199.282L46.3067 199.281L46.3038 199.28C46.2968 199.279 46.2909 199.279 46.285 199.279Z" fill="black"/>
</svg>
