<svg width="160" height="260" viewBox="0 0 160 260" fill="none" xmlns="http://www.w3.org/2000/svg">
<path d="M93.6704 76.9966C95.5184 74.8206 94.9451 71.0526 92.5344 69.53C91.6704 68.9806 90.5771 68.6393 90.1051 67.7326C89.5717 66.7326 90.0544 65.5353 90.3344 64.442C90.3344 64.4073 90.3531 64.37 90.3637 64.3353C91.1637 61.0393 87.3957 58.594 84.6517 60.5886C81.2251 63.0793 77.3317 64.8553 73.2037 65.8126C71.0704 66.3033 68.4491 66.3993 67.1317 64.6553C66.3531 63.6206 66.1664 62.058 64.1984 62.2046C63.6251 62.2526 63.0731 62.4526 62.5984 62.7806C59.0757 65.1566 55.0464 66.6686 50.8304 67.1993C49.6517 67.346 48.4304 67.4126 47.2917 67.074C44.0224 66.1006 42.5371 61.938 43.5237 58.674C44.5104 55.41 47.2971 52.9966 50.2411 51.2686C52.0651 50.202 54.0971 49.2206 55.1957 47.41C55.8411 46.3433 56.0944 45.074 56.7424 44.01C57.3904 42.946 58.4037 42.1433 59.4357 41.418C64.9957 37.57 71.6437 35.6126 78.4011 35.8286C82.4011 35.9673 87.1024 37.5753 87.9664 41.474L94.0997 44.058C98.8197 44.7833 103.62 46.3726 106.961 49.786C110.302 53.1993 111.761 58.7753 109.361 62.906C109.046 63.4393 108.657 64.0046 108.673 64.634C108.694 65.434 109.364 66.0633 109.918 66.6553C110.889 67.706 111.628 68.9486 112.084 70.3033C112.54 71.658 112.705 73.0926 112.569 74.5166C112.444 75.754 112.036 77.034 111.108 77.8526C110.18 78.6713 108.598 78.8393 107.721 77.9593L94.4144 79.9993L93.6704 76.9966Z" fill="black"/>
<path d="M50.3489 67.3398C48.6289 71.7638 47.5942 75.7585 47.3329 78.1772C46.6742 84.2678 47.9036 91.0358 52.5622 95.3745C55.0449 97.6838 58.1196 98.8198 61.4076 99.3985C64.8369 100.004 68.5169 100.556 71.8449 99.1958C71.6689 101.972 71.6422 103.953 71.7702 106.732L90.5702 104.646C90.2662 100.996 90.9436 97.8652 92.5329 94.5638C92.8929 93.8172 93.6662 93.8252 94.4316 93.5825C95.1116 93.3692 95.7782 93.1238 96.4369 92.8465C97.7729 92.2918 99.0342 91.5745 100.197 90.7132C102.496 88.9772 104.288 86.5398 104.96 83.7132C105.57 81.1505 105.141 78.0998 102.293 76.6572C100.285 75.6438 98.4849 76.0038 95.4262 78.6918L93.6929 77.0065C95.5409 74.8305 94.9676 71.0625 92.5569 69.5398C91.6929 68.9905 90.5996 68.6492 90.1276 67.7425C89.5942 66.7425 90.0769 65.5452 90.3569 64.4518C90.3569 64.4172 90.3756 64.3798 90.3862 64.3452C91.1862 61.0492 87.4182 58.6038 84.6742 60.5985C81.2476 63.0892 77.3542 64.8652 73.2262 65.8225C71.0929 66.3132 68.4716 66.4092 67.1542 64.6652C66.3756 63.6305 66.1889 62.0678 64.2209 62.2145C63.6476 62.2625 63.0956 62.4625 62.6209 62.7905C59.0902 65.1665 55.0502 66.6758 50.8289 67.2012" fill="#FFD39F"/>
<path d="M109.258 80.1568C108.258 80.1568 107.288 79.8021 106.578 79.0928C105.954 78.4661 105.957 77.4528 106.581 76.8288C107.208 76.2048 108.221 76.2075 108.845 76.8315C109.045 77.0315 109.672 76.9808 110.04 76.6555C110.533 76.2208 110.861 75.4048 110.968 74.3568C111.082 73.1568 110.946 71.9648 110.557 70.8155C110.17 69.6661 109.557 68.6341 108.733 67.7435L108.597 67.5995C107.965 66.9328 107.098 66.0208 107.064 64.6795C107.037 63.6528 107.52 62.8501 107.872 62.2635L107.973 62.0955C110.096 58.4395 108.445 53.5995 105.808 50.9088C103.186 48.2315 99.1622 46.4608 93.8475 45.6421C92.9728 45.5088 92.3755 44.6901 92.5088 43.8181C92.6422 42.9461 93.4608 42.3461 94.3328 42.4795C100.349 43.4048 104.978 45.4875 108.096 48.6688C109.986 50.5995 111.328 53.1168 111.872 55.7568C112.461 58.6128 112.058 61.4368 110.736 63.7141L110.616 63.9141C110.493 64.1168 110.29 64.4528 110.266 64.5915C110.322 64.7702 110.696 65.1622 110.92 65.3995L111.077 65.5648C112.216 66.7968 113.058 68.2155 113.592 69.7941C114.125 71.3728 114.312 73.0128 114.154 74.6715C113.962 76.5595 113.274 78.0715 112.16 79.0555C111.325 79.7888 110.277 80.1568 109.258 80.1568Z" fill="black"/>
<path d="M93.6693 78.5994C93.3039 78.5994 92.9359 78.4741 92.6346 78.2181C91.9599 77.6447 91.8799 76.6367 92.4506 75.9621C93.0239 75.2874 93.2719 74.2767 93.1173 73.2581C92.9626 72.2421 92.4239 71.3541 91.6799 70.8847C91.4959 70.7674 91.2799 70.6527 91.0506 70.5301C90.2533 70.1061 89.2586 69.5754 88.6853 68.4741C87.9386 67.0741 88.3519 65.5994 88.6559 64.5194C88.6933 64.3861 88.7306 64.2527 88.7653 64.1221C88.7813 64.0367 88.8026 63.9594 88.8239 63.8954C89.0853 62.6794 88.2506 62.0101 87.9839 61.8314C87.3999 61.4394 86.4666 61.2501 85.5946 61.8821C81.9733 64.5141 77.9279 66.3594 73.5679 67.3701C70.0079 68.1887 67.3413 67.5834 65.8586 65.6181C65.5946 65.2687 65.3999 64.9114 65.2293 64.5967C64.7759 63.7647 64.7599 63.7647 64.3199 63.7994C64.0399 63.8234 63.7573 63.9247 63.5146 64.0927C59.7839 66.6074 55.4746 68.2261 51.0346 68.7834C49.7813 68.9407 48.3039 69.0394 46.8399 68.6047C45.1093 68.0901 43.6399 66.8474 42.7013 65.1087C41.5813 63.0287 41.3173 60.4501 41.9946 58.2074C42.9599 55.0154 45.4613 52.2154 49.4346 49.8847C49.6799 49.7407 49.9253 49.6021 50.1733 49.4607C51.6746 48.6047 53.0906 47.7967 53.8319 46.5754C54.0799 46.1674 54.2719 45.6661 54.4773 45.1354C54.7253 44.4927 54.9813 43.8287 55.3813 43.1727C56.1866 41.8474 57.3679 40.9141 58.5199 40.1034C64.3306 36.0821 71.4053 33.9994 78.4559 34.2234C82.8959 34.3781 88.4586 36.2767 89.5333 41.1221C89.7253 41.9861 89.1813 42.8394 88.3173 43.0314C87.4559 43.2207 86.5999 42.6794 86.4079 41.8154C85.7733 38.9514 81.9039 37.5461 78.3493 37.4234C71.9839 37.2154 65.5893 39.1034 60.3493 42.7301C59.4879 43.3354 58.6133 44.0154 58.1119 44.8394C57.8613 45.2501 57.6666 45.7541 57.4613 46.2874C57.2159 46.9247 56.9626 47.5834 56.5679 48.2341C55.3973 50.1647 53.4639 51.2687 51.7573 52.2394C51.5199 52.3754 51.2853 52.5087 51.0506 52.6447C47.7973 54.5541 45.7813 56.7381 45.0559 59.1327C44.6266 60.5567 44.8026 62.2634 45.5173 63.5887C45.8933 64.2847 46.5839 65.1887 47.7493 65.5354C48.6479 65.8021 49.7119 65.7221 50.6346 65.6074C54.5786 65.1114 58.4079 63.6741 61.7066 61.4501C62.3919 60.9754 63.2133 60.6794 64.0666 60.6074C66.5973 60.4154 67.5359 62.1407 68.0399 63.0661C68.1706 63.3061 68.2933 63.5327 68.4133 63.6901C69.3306 64.9061 71.8213 64.4874 72.8479 64.2501C76.7866 63.3381 80.4426 61.6687 83.7146 59.2901C85.5306 57.9701 87.9066 57.9221 89.7679 59.1674C91.5973 60.3914 92.4426 62.5674 91.9226 64.7061C91.9146 64.7381 91.9066 64.7674 91.8959 64.7994C91.8959 64.8021 91.8959 64.8047 91.8933 64.8047C91.8906 64.8127 91.8879 64.8234 91.8879 64.8314C91.8426 65.0101 91.7919 65.1914 91.7413 65.3754C91.5759 65.9621 91.3733 66.6927 91.5226 66.9727C91.6453 67.2101 92.1119 67.4581 92.5626 67.6981C92.8346 67.8421 93.1146 67.9914 93.3999 68.1727C94.9359 69.1434 95.9893 70.8181 96.2879 72.7647C96.5866 74.7167 96.0799 76.6341 94.8986 78.0234C94.5733 78.4074 94.1226 78.5994 93.6693 78.5994ZM91.9333 64.4474C91.9333 64.4501 91.9333 64.4501 91.9333 64.4474C91.9333 64.4501 91.9333 64.4501 91.9333 64.4474ZM91.9333 64.4447V64.4474V64.4447Z" fill="black"/>
<path d="M58.2475 74.6974C59.2785 74.6974 60.1142 73.6826 60.1142 72.4307C60.1142 71.1789 59.2785 70.1641 58.2475 70.1641C57.2166 70.1641 56.3809 71.1789 56.3809 72.4307C56.3809 73.6826 57.2166 74.6974 58.2475 74.6974Z" fill="black"/>
<path d="M67.3159 75.3224C68.3468 75.3224 69.1826 74.3076 69.1826 73.0557C69.1826 71.8039 68.3468 70.7891 67.3159 70.7891C66.285 70.7891 65.4492 71.8039 65.4492 73.0557C65.4492 74.3076 66.285 75.3224 67.3159 75.3224Z" fill="black"/>
<path d="M90.5564 104.639C89.7351 104.639 89.0337 104.01 88.9644 103.172C88.6257 99.1564 89.4071 97.3191 91.0657 93.8631C91.6737 92.6018 92.8231 92.3244 93.5111 92.1591C93.6604 92.1218 93.8017 92.0898 93.9244 92.0498C94.5591 91.8498 95.1857 91.6204 95.7911 91.3644C97.0151 90.8577 98.1644 90.2044 99.2204 89.4204C101.348 87.8124 102.831 85.6498 103.38 83.3351C103.663 82.1698 104.047 79.3378 101.548 78.0764C100.458 77.5244 99.3884 77.3084 96.4577 79.8844C95.7937 80.4684 94.7831 80.4018 94.1991 79.7378C93.6151 79.0738 93.6817 78.0631 94.3457 77.4791C98.5537 73.7804 100.986 74.2071 102.988 75.2178C106.092 76.7858 107.434 80.1804 106.49 84.0791C105.77 87.1084 103.868 89.9164 101.138 91.9778C99.863 92.9244 98.4817 93.7084 97.0257 94.3111C96.3351 94.6018 95.6124 94.8684 94.8844 95.0951C94.6631 95.1644 94.4497 95.2178 94.263 95.2631C94.1457 95.2924 93.9937 95.3271 93.895 95.3591C92.3617 98.5591 91.887 99.7617 92.1537 102.898C92.2284 103.778 91.575 104.551 90.695 104.626C90.647 104.636 90.6017 104.639 90.5564 104.639Z" fill="black"/>
<path d="M71.7705 106.998C70.9198 106.998 70.2132 106.329 70.1732 105.47C70.0878 103.593 70.0692 102.649 70.1225 101.361C66.9172 101.979 63.6532 101.411 61.1358 100.971C57.0692 100.254 53.9092 98.8061 51.4745 96.5421C46.9998 92.3741 44.9118 85.6168 45.7438 77.9981C46.0558 75.1741 47.2185 70.9714 48.8585 66.7554C49.1785 65.9314 50.1065 65.5234 50.9305 65.8434C51.7545 66.1634 52.1625 67.0914 51.8425 67.9154C50.0238 72.5928 49.1438 76.3714 48.9252 78.3474C48.2025 84.9474 49.9252 90.7261 53.6558 94.1981C55.6505 96.0541 58.2025 97.2034 61.6878 97.8168C65.2505 98.4381 68.4318 98.8568 71.2425 97.7074C71.7518 97.4994 72.3332 97.5688 72.7812 97.8888C73.2292 98.2114 73.4798 98.7394 73.4452 99.2888C73.2745 101.971 73.2452 102.563 73.3732 105.315C73.4132 106.198 72.7305 106.947 71.8478 106.987C71.8185 106.998 71.7945 106.998 71.7705 106.998Z" fill="black"/>
<g clip-path="url(#clip0_1123_38300)">
<path fill-rule="evenodd" clip-rule="evenodd" d="M90.499 99.9988C90.739 102.692 91.8403 108.777 95.939 107.865L96.379 108.532C96.179 112.711 94.0617 115.657 90.7443 118.711C87.3737 121.764 83.075 123.599 78.539 123.921C74.539 124.215 70.2857 123.257 67.2937 120.575C64.3017 117.892 62.7283 114.175 64.7097 110.988H64.9977C65.899 111.015 66.7283 110.543 67.491 110.063C68.0507 109.709 68.2655 108.563 68.4616 107.517C68.6055 106.748 68.7394 106.034 68.9923 105.727C69.7923 104.689 72.187 101.239 72.5977 99.9961H90.499V99.9988ZM105.384 216.815C102.816 217.644 99.6825 220.175 101.856 223.023C102.842 224.32 104.245 225.122 105.637 225.918C105.93 226.086 106.223 226.254 106.512 226.426C107.464 226.991 107.894 228.562 108.256 229.886L108.256 229.886C108.379 230.335 108.494 230.755 108.618 231.098C109.866 234.522 112.29 237.332 116.266 237.066C120.309 236.799 122.824 233.356 123.592 229.644C124.381 225.822 123.614 221.289 122.962 217.434C122.927 217.227 122.892 217.023 122.858 216.82L105.384 216.815ZM30.7602 213.669C30.2269 211.536 31.8269 209.936 33.6936 209.24L46.9469 211.229C47.4642 215.723 46.4216 219.533 45.1789 223.267C44.9764 223.878 44.853 224.518 44.7301 225.156C44.5245 226.223 44.3204 227.282 43.7496 228.187C42.8376 229.632 41.1816 230.344 39.4109 230.432C36.6109 230.547 33.1602 230.184 33.1602 226.469C33.1876 226.031 33.2206 225.585 33.254 225.133C33.5461 221.18 33.8713 216.78 30.7602 213.669Z" fill="#FFD39F"/>
<path d="M53.2544 183.404C52.5317 190.644 51.4037 197.836 49.8677 204.948C48.5317 204.353 47.0891 204.03 45.6277 204.001L42.1611 203.774C39.4517 203.444 37.2757 203.116 34.5664 202.788C35.6891 190.401 37.1291 178.046 38.8864 165.721C40.4144 154.988 42.1931 144.252 45.3504 133.881C48.1557 124.665 52.6064 115.134 61.0571 110.513L62.0411 108.99L70.2411 102.377C70.7344 103.19 70.3557 104.244 70.0624 103.977L68.9557 107.929C68.8117 108.334 68.7557 108.766 68.7851 109.196C68.9664 110.438 70.4464 110.95 71.6731 111.209L72.8011 111.31C78.0091 109.177 81.9317 107.201 85.8517 105.222C88.8064 103.732 91.8571 102.214 95.1584 101.961L96.4171 106.401C101.134 107.665 104.793 111.3 107.74 115.022C110.953 119.086 113.473 123.652 115.201 128.534C116.169 131.262 117.7 134.332 118.332 137.153L119.174 139.734C124.438 162.401 124.716 185.892 124.966 209.164L101.75 208.782C100.721 200.945 99.9104 193.086 99.3184 185.201L98.2864 185.236C87.9344 186.556 77.3184 185.452 67.3184 184.182C62.0144 184.82 56.5957 184.422 51.5637 182.801" fill="black"/>
<path fill-rule="evenodd" clip-rule="evenodd" d="M72.8012 111.314L75.3558 122.402L75.3804 122.394L75.3805 122.394C79.4336 120.97 83.497 119.542 87.3558 117.656C88.7478 116.976 90.1452 116.208 91.1532 115.032C92.3452 113.642 92.8785 111.832 93.3825 110.064L93.4048 109.985C94.1547 107.345 94.905 104.703 95.1532 101.965C91.8518 102.218 88.8012 103.736 85.8465 105.226L85.7208 105.289C81.8399 107.245 77.9456 109.206 72.8012 111.314ZM34.1855 209.149C34.3562 207.163 34.5695 204.789 35.4229 202.987L49.2682 204.267C49.1135 206.189 48.1482 208.877 47.4202 210.667C47.4069 210.717 47.3775 210.763 47.3375 210.797C47.2709 210.832 47.1935 210.843 47.1215 210.821C45.9464 210.635 44.2322 210.47 42.4029 210.294C39.3092 209.997 35.8865 209.667 34.1855 209.149ZM102.669 215.202C102.525 213.125 102.663 211.039 103.085 208.999L122.746 209.274L122.938 214.189C122.957 214.789 122.917 215.498 122.405 215.789C122.154 215.903 121.879 215.954 121.605 215.933L103.471 215.983C103.277 216.005 103.079 215.959 102.911 215.858C102.829 215.77 102.765 215.666 102.722 215.554C102.679 215.442 102.663 215.322 102.669 215.202ZM68.9476 107.934L70.0543 103.982C70.3476 104.228 70.7263 103.188 70.2303 102.374L62.0303 108.988C61.8329 111.004 62.0649 113.038 62.7156 114.958C63.3663 116.878 64.4169 118.636 65.7983 120.118C68.2943 117.545 70.2863 114.524 71.6649 111.214C70.4383 110.956 68.9583 110.444 68.7769 109.201C68.7476 108.772 68.8036 108.34 68.9476 107.934Z" fill="white"/>
<path fill-rule="evenodd" clip-rule="evenodd" d="M75.3535 124C75.0868 124 74.8202 123.934 74.5828 123.803C74.1828 123.584 73.8975 123.203 73.7962 122.76L73.0187 119.386C72.4778 128.504 71.8654 137.661 71.2687 146.571L71.2426 146.962C70.4565 158.727 69.6447 170.877 69.0102 182.817C79.6277 184.451 89.002 184.737 97.608 183.692C96.4855 167.873 96.2404 151.97 96.8814 136.173C96.9161 135.29 97.6628 134.602 98.5454 134.64C99.4281 134.674 100.116 135.421 100.079 136.304C99.1214 159.912 100.156 183.754 103.156 207.194L123.345 207.525C123.338 206.709 123.331 205.897 123.324 205.087L123.324 205.073L123.323 205.049C123.316 204.169 123.308 203.293 123.3 202.421L123.3 202.401V202.401C123.135 182.318 122.979 163.345 118.273 143.069C118.073 142.208 118.609 141.349 119.471 141.149C120.329 140.949 121.191 141.485 121.391 142.346C126.173 162.967 126.332 182.111 126.5 202.376V202.376L126.5 202.394L126.502 202.603C126.52 204.759 126.538 206.932 126.561 209.133C126.567 209.565 126.396 209.981 126.089 210.285C125.793 210.584 125.385 210.752 124.964 210.752H124.937L124.4 210.743L124.532 214.122C124.545 214.538 124.576 215.561 124.031 216.392C124.233 216.612 124.376 216.891 124.43 217.208L124.477 217.483L124.519 217.726L124.556 217.946C124.584 218.108 124.612 218.27 124.641 218.432L124.643 218.445C125.293 222.188 125.965 226.058 125.158 229.965C124.123 234.963 120.675 238.376 116.371 238.659C116.166 238.677 115.961 238.683 115.761 238.683C111.886 238.683 108.755 236.149 107.115 231.645C106.969 231.24 106.843 230.787 106.713 230.309L106.709 230.295C106.52 229.607 106.089 228.036 105.694 227.803C105.411 227.635 105.129 227.472 104.843 227.309C103.401 226.485 101.766 225.549 100.582 223.992C99.2995 222.312 99.3955 220.797 99.6995 219.824C100.052 218.698 100.854 217.763 101.821 217.032C101.81 217.022 101.8 217.012 101.789 217.002C101.776 216.989 101.763 216.976 101.75 216.962C101.516 216.714 101.334 216.429 101.217 216.109C101.113 215.832 101.062 215.538 101.062 215.24C100.952 213.586 101.011 211.926 101.236 210.287C100.672 210.096 100.243 209.597 100.161 208.978C99.1987 201.648 98.4268 194.277 97.8467 186.886C94.3979 187.302 90.8294 187.508 87.1189 187.508C80.9456 187.508 74.3749 186.935 67.2789 185.783C62.976 186.277 58.6826 186.094 54.6648 185.256C53.9355 191.968 52.8494 198.697 51.4251 205.287C51.2916 205.914 50.7991 206.383 50.1968 206.511C49.9605 208.126 49.5325 209.705 48.9192 211.221C48.8202 211.497 48.6598 211.746 48.448 211.949L46.7642 223.5C46.5188 225.188 46.2121 227.287 45.1055 229.044C43.9828 230.823 41.9375 231.911 39.4922 232.034C39.2095 232.044 38.9108 232.052 38.6015 232.052C36.7828 232.052 34.5588 231.778 33.0682 230.348C32.0682 229.388 31.5588 228.084 31.5588 226.474C31.5588 226.442 31.5588 226.407 31.5615 226.375C31.5867 225.956 31.6192 225.527 31.652 225.093L31.6575 225.02C31.9348 221.274 32.2202 217.399 29.6282 214.804C29.4228 214.599 29.2788 214.343 29.2068 214.06C28.577 211.541 29.965 209.127 32.6813 207.927C32.8026 206.624 32.986 205.247 33.4215 203.909C33.0943 203.584 32.9099 203.122 32.9558 202.628C34.0758 190.263 35.5318 177.764 37.2864 165.479C38.7691 155.066 40.5851 143.972 43.8038 133.399C47.6304 120.876 52.8651 113.156 60.2811 109.1C60.3261 109.076 60.3718 109.053 60.418 109.034C60.4238 108.965 60.4301 108.897 60.4368 108.828C60.4795 108.402 60.6901 108.007 61.0261 107.738L69.2261 101.124C69.5861 100.836 70.0501 100.714 70.5035 100.794C70.9568 100.874 71.3541 101.143 71.5941 101.538C72.2955 102.687 72.1995 104.263 71.4075 105.074L70.4875 108.362C70.4821 108.379 70.4768 108.396 70.4715 108.412C70.4661 108.429 70.4608 108.446 70.4555 108.463C70.3968 108.631 70.3675 108.804 70.3675 108.98C70.4181 109.052 70.7275 109.378 71.9941 109.644C72.1198 109.671 72.2405 109.712 72.354 109.766C77.3642 107.705 81.2468 105.751 85.0042 103.856L85.1268 103.795C88.0495 102.32 91.3642 100.648 95.0308 100.368C95.5002 100.331 95.9615 100.504 96.2922 100.84C96.6228 101.176 96.7881 101.64 96.7455 102.107C96.6631 103.018 96.5286 103.916 96.3595 104.802C96.5137 104.796 96.6713 104.813 96.828 104.855C102.404 106.348 106.441 110.807 108.991 114.028C112.319 118.239 114.916 122.94 116.705 127.999C117.018 128.881 117.394 129.801 117.791 130.773L117.791 130.773L117.828 130.863C118.625 132.812 119.447 134.828 119.889 136.802C120.081 137.663 119.54 138.519 118.679 138.714C118.561 138.74 118.444 138.754 118.327 138.754C117.593 138.754 116.935 138.247 116.767 137.503C116.383 135.791 115.612 133.903 114.865 132.076C114.457 131.082 114.039 130.052 113.689 129.071C112.017 124.34 109.591 119.948 106.481 116.015C104.215 113.148 100.66 109.196 95.9987 107.946C95.8801 107.914 95.7683 107.869 95.6641 107.814C95.4343 108.688 95.189 109.552 94.9465 110.406L94.9428 110.419L94.9215 110.496C94.4281 112.23 93.8121 114.384 92.3668 116.07C91.1828 117.451 89.5962 118.339 88.0575 119.088C84.1162 121.014 79.9482 122.48 75.9162 123.896L75.8842 123.907C75.7108 123.971 75.5322 124 75.3535 124ZM36.5534 204.643C36.1859 205.655 36.0121 206.773 35.8979 207.904C37.6499 208.227 40.2232 208.475 42.5512 208.699C43.9112 208.829 45.2152 208.955 46.2979 209.091C46.6237 208.13 46.8638 207.145 47.0161 206.144C46.8847 206.121 46.7535 206.098 46.623 206.075L46.6228 206.075L46.5691 206.066L46.4546 206.046C45.7663 205.925 45.1169 205.811 44.5584 205.74L40.6011 205.178C39.4623 205.039 38.6438 204.928 37.8912 204.825L37.8906 204.825L37.4998 204.772L37.3152 204.747L37.3146 204.747C37.0636 204.713 36.8136 204.678 36.5534 204.643ZM34.1278 210.792C33.6067 211.007 32.2115 211.699 32.2602 212.93C35.4936 216.523 35.1377 221.347 34.8498 225.251L34.8495 225.255L34.8469 225.29L34.8469 225.29C34.8158 225.705 34.7848 226.117 34.7615 226.519C34.7721 227.546 35.1569 227.914 35.2859 228.038L35.2868 228.039C35.9242 228.652 37.2922 228.919 39.3482 228.836C40.7242 228.767 41.8415 228.22 42.3988 227.335C43.1423 226.159 43.3729 224.583 43.596 223.059L43.5988 223.039L45.1819 212.179C44.323 212.083 43.3456 211.989 42.3334 211.891L42.2446 211.883C39.1917 211.59 36.0442 211.286 34.1278 210.792ZM51.0709 184.308C51.2243 184.357 51.3783 184.406 51.5329 184.453C50.8679 190.716 49.8842 197.001 48.6038 203.17C48.1158 203.092 47.6171 203.004 47.1238 202.916C46.3558 202.78 45.6304 202.652 44.9878 202.57L41.0358 202.007C41.0251 202.004 41.0144 202.002 41.0038 202.002C39.7847 201.852 38.9371 201.736 38.1396 201.627L37.9371 201.599C37.4224 201.527 36.8998 201.455 36.2811 201.375C37.3771 189.567 38.7798 177.652 40.4518 165.93C41.9158 155.644 43.7078 144.698 46.8624 134.332C50.1924 123.433 54.5577 116.498 60.5252 112.673C60.6635 113.617 60.8884 114.551 61.1995 115.468C61.9275 117.618 63.0795 119.548 64.6261 121.207C64.9248 121.527 65.3435 121.711 65.7808 121.716H65.7968C66.2288 121.716 66.6448 121.54 66.9461 121.228C68.032 120.109 69.0229 118.917 69.915 117.658C69.3602 127.139 68.7228 136.683 68.1029 145.966L68.0767 146.358L68.0501 146.756L68.05 146.758C67.2627 158.552 66.4496 170.732 65.8122 182.712C61.0212 183.123 56.288 182.627 52.0522 181.263C51.6442 181.132 51.4709 181.031 51.4016 180.983C51.3758 180.826 51.4073 180.474 51.4215 180.316L51.4229 180.3C52.553 168.169 53.6881 156.041 54.8233 143.911L54.8242 143.902L54.9776 142.263C55.3136 138.687 55.2736 134.289 51.9909 132.017C51.2629 131.513 50.2656 131.695 49.7642 132.423C49.2602 133.151 49.4416 134.148 50.1696 134.649C52.0896 135.975 52.0442 139.255 51.7909 141.964C50.6042 154.641 49.4176 167.321 48.2362 180.001L48.2361 180.003C48.1774 180.638 48.0794 181.698 48.6656 182.663C49.2549 183.631 50.3189 184.065 51.0709 184.308ZM74.6628 112.27L76.5108 120.296C79.9295 119.086 83.4042 117.803 86.6495 116.216C87.7962 115.656 89.0868 114.976 89.9348 113.99C90.9242 112.835 91.3908 111.203 91.8415 109.624L91.8628 109.547L91.868 109.529L91.868 109.529C92.4155 107.599 92.9412 105.746 93.2762 103.88C90.9642 104.435 88.7348 105.558 86.5642 106.654L86.4415 106.715L86.4159 106.728L86.4159 106.728L86.4158 106.728C82.8878 108.505 79.249 110.338 74.6628 112.27ZM121.251 217.531L106.766 217.572C106.606 218.029 106.242 218.409 105.745 218.568C104.262 219.048 103.003 219.979 102.75 220.781C102.702 220.933 102.577 221.336 103.123 222.053C103.915 223.093 105.134 223.792 106.427 224.531L106.645 224.655C106.874 224.786 107.101 224.917 107.326 225.051C108.831 225.943 109.365 227.892 109.794 229.46L109.795 229.464L109.821 229.557C109.926 229.936 110.024 230.29 110.118 230.549C110.982 232.92 112.726 235.691 116.155 235.469C118.409 235.32 121.129 233.627 122.022 229.32C122.707 226.008 122.087 222.44 121.487 218.989L121.486 218.981L121.449 218.765L121.448 218.763C121.389 218.42 121.33 218.08 121.273 217.741C121.261 217.671 121.254 217.601 121.251 217.531ZM121.195 210.69L104.451 210.415C104.25 211.728 104.174 213.056 104.222 214.384L121.337 214.336C121.337 214.306 121.337 214.274 121.334 214.24L121.195 210.69ZM64.2288 114.444C63.7195 112.938 63.4981 111.375 63.5728 109.796L67.6901 106.474L67.4155 107.455C67.2101 108.055 67.1301 108.679 67.1755 109.314C67.1779 109.349 67.1824 109.383 67.1871 109.418L67.1888 109.431C67.3675 110.642 68.1301 111.564 69.4635 112.183C68.4901 114.154 67.2848 115.988 65.8608 117.666C65.1675 116.682 64.6208 115.602 64.2288 114.444Z" fill="black"/>
</g>
<defs>
<clipPath id="clip0_1123_38300">
<rect width="160" height="160" fill="white" transform="translate(0 100)"/>
</clipPath>
</defs>
</svg>
