<svg width="160" height="260" viewBox="0 0 160 260" fill="none" xmlns="http://www.w3.org/2000/svg">
<path fill-rule="evenodd" clip-rule="evenodd" d="M82.5199 53.0077C85.1492 50.4184 86.8292 47.0424 88.4586 43.7331C92.4266 35.6744 82.1332 31.6717 76.0186 31.4077C63.0986 30.8451 50.1839 38.5731 44.5839 50.2291C44.3234 50.7712 44.0663 51.3309 43.8063 51.8969C42.0627 55.6929 40.1895 59.771 36.2746 60.7411C35.7151 60.8801 35.1329 60.9443 34.5528 61.0081C33.6091 61.112 32.6709 61.2153 31.8452 61.6397C30.5119 62.3251 29.7679 64.4904 31.0452 65.2904C31.4719 65.5117 31.9466 65.6291 32.4266 65.6317L38.6426 66.1491C38.0292 68.3437 38.0826 71.6184 40.3466 71.8664C41.3039 71.9704 42.1866 71.3811 42.9332 70.7731C43.6005 70.2275 44.4316 69.7097 45.2854 69.1776C46.844 68.2064 48.4787 67.1878 49.3332 65.8664C50.1095 64.6653 50.4621 63.2855 50.8114 61.9185C51.2361 60.2565 51.656 58.6133 52.8266 57.3331C56.2666 53.5997 62.0452 52.2264 66.7946 54.0477C67.561 54.3357 68.2997 54.6988 69.0377 55.0616C70.1587 55.6128 71.2781 56.1631 72.4906 56.4477C76.0826 57.2904 79.8906 55.5971 82.5199 53.0077ZM109.912 51.7474C106.824 45.6327 96.8585 41.3927 89.9999 41.4674C89.9999 41.4674 84.9705 50.8434 83.4665 52.6674C81.4159 55.166 74.9332 57.734 74.9332 57.734C76.196 58.3169 77.6711 58.5812 79.2391 58.8623C81.9757 59.3527 84.9955 59.894 87.6639 62.2674C89.7945 64.6914 90.7519 68.0274 90.5599 71.2487C90.5323 71.712 90.4823 72.1773 90.4324 72.6425C90.299 73.8858 90.1655 75.129 90.4585 76.334C90.8612 77.99 92.4719 79.5394 94.1145 79.0887L106.979 86.6887C107.304 88.3207 109.475 88.6327 110.808 87.7554C112.141 86.878 112.768 85.2567 113.109 83.6967C113.135 83.5771 113.161 83.4563 113.186 83.3349C113.389 82.3707 113.599 81.3711 114.309 80.6914C115.089 79.9258 116.195 79.8071 117.316 79.6868C118.233 79.5883 119.161 79.4887 119.931 79.0327C121.891 77.8727 121.909 74.9127 120.787 72.9314C120.096 71.7129 119.109 70.7133 118.12 69.7112C117.5 69.0837 116.88 68.4552 116.331 67.7714C114.198 65.1138 113.256 61.8189 112.309 58.5044C111.648 56.1916 110.985 53.8693 109.912 51.7474Z" fill="black"/>
<path d="M72.4898 56.4419C70.4791 55.9699 68.7244 54.7672 66.7938 54.0419C62.0444 52.2259 56.2658 53.5992 52.8258 57.3326L50.6658 66.9326C49.0658 69.3326 48.7991 72.2659 47.9991 75.1992C47.9991 76.0419 44.7564 87.4232 52.2658 94.9326C54.9324 97.5992 58.3991 98.6659 61.9991 99.4659C65.2284 99.9646 68.7564 100.466 71.8658 99.1992C71.6871 101.975 71.6604 103.957 71.7884 106.735L90.5884 104.799C90.2818 101.151 90.9538 97.8686 92.5404 94.5672C92.8978 93.8206 93.6738 93.8286 94.4391 93.5859C95.1164 93.3726 95.7884 93.1272 96.4444 92.8499C97.7804 92.2952 99.0418 91.5779 100.204 90.7166C102.503 88.9806 104.292 86.5432 104.967 83.7166C105.578 81.1539 105.148 78.1032 102.287 76.6606C100.282 75.6472 98.4818 76.0072 95.4231 78.6952L94.1058 79.1006C92.4631 79.5512 90.8524 78.0019 90.4498 76.3459C90.0471 74.6899 90.4498 72.9619 90.5511 71.2606C90.7431 68.0392 89.7858 64.7032 87.6551 62.2792C85.5244 59.8552 82.1804 58.4552 78.9911 58.9486" fill="#FFD39F"/>
<path fill-rule="evenodd" clip-rule="evenodd" d="M40.576 73.4795C40.4453 73.4795 40.3093 73.4715 40.1733 73.4581C39.0853 73.3381 38.1893 72.7968 37.576 71.8928C36.7786 70.7141 36.608 69.1008 36.752 67.5995L32.3493 67.2341C31.64 67.2208 30.9333 67.0395 30.304 66.7115C30.2666 66.6928 30.2293 66.6715 30.1946 66.6475C29.2506 66.0555 28.736 65.0421 28.7866 63.8635C28.848 62.3888 29.8053 60.8901 31.112 60.2181C32.1879 59.6643 33.3318 59.5356 34.3422 59.4219L34.376 59.4181C34.92 59.3595 35.432 59.3008 35.888 59.1888C39.0539 58.4053 40.7285 54.7615 42.3488 51.2356L42.352 51.2288L42.434 51.0505L42.4341 51.0504L42.4341 51.0503C42.6703 50.5372 42.9047 50.0278 43.1413 49.5355C49.0053 37.3301 62.5573 29.2181 76.088 29.8075C80.1573 29.9835 87.1866 31.8901 89.8746 36.4261C90.864 38.0928 91.6693 40.8368 89.896 44.4395C88.3066 47.6715 86.5013 51.3328 83.6453 54.1461C80.328 57.4128 75.9146 58.8928 72.128 58.0048C70.7605 57.6846 69.5558 57.0957 68.3892 56.5255L68.3333 56.4981L68.3075 56.4855L68.3074 56.4854L68.3072 56.4853C67.5942 56.1354 66.9196 55.8043 66.2346 55.5461C62.128 53.9701 56.9893 55.1808 54.0053 58.4181C53.153 59.3503 52.8594 60.7985 52.5478 62.3351L52.5466 62.3408L52.5425 62.3611C52.2852 63.6283 52.021 64.9294 51.4301 66.1549C51.9016 66.5879 52.0851 67.2819 51.8394 67.9147C50.0207 72.592 49.1407 76.3707 48.922 78.3467C48.1994 84.9467 49.922 90.7253 53.6527 94.1973C55.6474 96.0533 58.1994 97.2027 61.6847 97.816C65.2474 98.4373 68.426 98.856 71.2394 97.7067C71.7487 97.4987 72.33 97.568 72.778 97.888C73.226 98.208 73.4767 98.7387 73.442 99.288C73.2714 101.971 73.242 102.563 73.37 105.315C73.41 106.197 72.7274 106.947 71.8447 106.987C71.8181 106.997 71.7941 106.997 71.7674 106.997H71.7674C70.9167 106.997 70.21 106.328 70.17 105.469C70.0847 103.592 70.066 102.648 70.1194 101.36C66.914 101.979 63.65 101.411 61.1327 100.971C57.066 100.253 53.906 98.8053 51.4714 96.5413C46.9967 92.3733 44.9087 85.616 45.7407 77.9973C45.978 75.8492 46.7076 72.9034 47.765 69.7608C47.3088 70.0274 46.8411 70.2806 46.3774 70.5316L46.3653 70.5381L46.3534 70.5445C45.4298 71.0435 44.5547 71.5163 43.9493 72.0128C43.0906 72.7088 41.9546 73.4795 40.576 73.4795ZM31.9866 63.9568C32.1306 64.0048 32.2826 64.0315 32.4346 64.0315C32.4749 64.0315 32.5128 64.0338 32.5528 64.0363L32.56 64.0368L38.776 64.5541C39.2506 64.5941 39.6853 64.8421 39.9573 65.2341C40.2293 65.6261 40.312 66.1195 40.184 66.5781C39.8 67.9488 39.8213 69.4955 40.2293 70.0981C40.312 70.2208 40.376 70.2581 40.5226 70.2741C40.951 70.3211 41.6556 69.7491 41.9099 69.5426L41.9253 69.5301C42.768 68.8421 43.8213 68.2715 44.8426 67.7195L44.8564 67.712C46.2414 66.9623 47.6712 66.1884 48.2586 65.2768C48.88 64.3141 49.1386 63.0448 49.4106 61.7008C49.776 59.8928 50.192 57.8421 51.648 56.2501C55.5493 52.0155 62.0133 50.4955 67.3706 52.5515C68.1979 52.8627 68.9828 53.2482 69.741 53.6207L69.7411 53.6207L69.7466 53.6235L69.7562 53.6282C70.822 54.1517 71.827 54.6455 72.8586 54.8875C76.1173 55.6501 79.408 53.8261 81.4 51.8661C83.8683 49.4351 85.4699 46.1851 87.0197 43.0402L87.0266 43.0261C87.9546 41.1408 87.9866 39.5141 87.1253 38.0581C85.384 35.1221 80.08 33.1835 75.9546 33.0048C63.656 32.4688 51.3573 39.8368 46.032 50.9195C45.7808 51.4427 45.5323 51.9838 45.2812 52.5304L45.2666 52.5621C43.4213 56.5808 41.328 61.1355 36.6666 62.2901C36.0215 62.4514 35.3916 62.5213 34.7818 62.589L34.736 62.5941L34.7296 62.5948C33.9159 62.6852 33.1452 62.7709 32.584 63.0581C32.2453 63.2341 32.0133 63.7035 31.9866 63.9568ZM91.4159 80.1752C92.0879 80.5726 92.8159 80.7752 93.5385 80.7752C93.8745 80.7752 94.2079 80.7299 94.5305 80.6446C94.7928 80.5733 95.022 80.441 95.2071 80.2672C95.6444 80.3213 96.1018 80.1954 96.4589 79.8813C99.3896 77.3053 100.459 77.5213 101.55 78.0733C104.048 79.3346 103.664 82.1666 103.382 83.332C102.832 85.644 101.35 87.8093 99.2215 89.4173C98.1656 90.2013 97.0162 90.8546 95.7922 91.3613C95.1869 91.6173 94.5602 91.8466 93.9256 92.0466C93.8288 92.0782 93.7205 92.1047 93.6058 92.1329L93.5122 92.156C92.8242 92.3213 91.6749 92.5986 91.0669 93.86C89.4082 97.3133 88.6269 99.1533 88.9656 103.169C89.0349 104.004 89.7362 104.636 90.5576 104.636C90.6029 104.636 90.6482 104.633 90.6962 104.623C91.5762 104.551 92.2296 103.775 92.1549 102.895C91.8882 99.7586 92.3629 98.556 93.8962 95.356C93.972 95.3314 94.0794 95.3052 94.1783 95.2811C94.208 95.2738 94.2371 95.2668 94.2642 95.26C94.4509 95.2146 94.6642 95.1613 94.8856 95.092C95.6136 94.8653 96.3362 94.5986 97.0269 94.308C98.4829 93.7053 99.8642 92.9213 101.139 91.9746C102.97 90.5927 104.428 88.8751 105.407 86.9803L105.411 87.0015C105.635 88.1375 106.397 89.0522 107.496 89.5108C108.016 89.7268 108.587 89.8335 109.16 89.8335C110.045 89.8335 110.944 89.5802 111.683 89.0868C113.16 88.1135 114.136 86.4602 114.667 84.0335L114.747 83.6575L114.749 83.6446C114.908 82.8894 115.058 82.1782 115.424 81.8282C115.805 81.4524 116.58 81.3696 117.478 81.2737L117.48 81.2735C118.507 81.1642 119.672 81.0388 120.739 80.4068C122.093 79.6068 122.931 78.1988 123.101 76.4415C123.24 74.9962 122.904 73.4282 122.173 72.1402C121.379 70.7385 120.3 69.6458 119.256 68.5878L119.253 68.5855C118.645 67.9695 118.072 67.3882 117.573 66.7695C115.643 64.3642 114.768 61.3055 113.843 58.0655L113.837 58.0441L113.837 58.044C113.167 55.6987 112.474 53.2746 111.336 51.0255C107.949 44.3188 101.133 40.0148 93.9307 40.0148H93.7334C92.8507 40.0228 92.1414 40.7482 92.1521 41.6308C92.1627 42.5082 92.8774 43.2122 93.7521 43.2122H93.7707H93.9334C99.9387 43.2122 105.637 46.8282 108.483 52.4655C109.488 54.4522 110.112 56.6308 110.771 58.9402C111.741 62.3428 112.747 65.8602 115.083 68.7695C115.681 69.5143 116.341 70.1822 116.977 70.8261L116.977 70.8263L116.977 70.8265L116.981 70.8308L116.994 70.8434C117.928 71.7907 118.811 72.6861 119.395 73.7162C120.133 75.0228 120.173 77.0255 119.115 77.6522C118.647 77.9313 117.922 78.009 117.154 78.0914L117.147 78.0922L117.144 78.0925C115.907 78.2258 114.367 78.3917 113.205 79.5322C112.136 80.5561 111.851 81.9133 111.621 83.0039L111.621 83.0039L111.621 83.0042L111.621 83.005C111.597 83.1221 111.573 83.2391 111.547 83.3535C111.203 84.9242 110.672 85.9268 109.928 86.4175C109.595 86.6362 109.069 86.6975 108.731 86.5562C108.573 86.4895 108.56 86.4282 108.549 86.3748C108.376 85.5082 107.533 84.9455 106.667 85.1188C106.466 85.1591 106.281 85.2353 106.118 85.3395C106.265 84.9237 106.39 84.502 106.491 84.076C107.435 80.1773 106.094 76.7826 102.99 75.2146C100.99 74.204 98.5549 73.7773 94.3469 77.476C94.3335 77.4878 94.3203 77.4998 94.3073 77.5119C94.1075 77.4874 93.8997 77.5004 93.6932 77.5566L93.6918 77.5569C93.6184 77.576 93.4003 77.6325 93.0452 77.4232C92.5679 77.1406 92.1519 76.5566 92.0105 75.9699C91.7839 75.0312 91.8985 73.9592 92.0212 72.8205L92.0253 72.7825C92.0747 72.3196 92.126 71.8392 92.1545 71.3539C92.3812 67.5512 91.1812 63.8579 88.8639 61.2206C86.0079 57.9699 82.7972 57.9566 79.7545 58.4259C78.8799 58.5592 78.2825 59.3779 78.4159 60.2499C78.5492 61.1246 79.3679 61.7219 80.2399 61.5886C83.2852 61.1192 84.9145 61.5752 86.4585 63.3326C88.2265 65.3406 89.1359 68.1939 88.9599 71.1619C88.9384 71.5428 88.8979 71.928 88.8553 72.3325L88.8399 72.4792L88.8372 72.5043C88.694 73.8565 88.5461 75.2536 88.9012 76.7192C89.2505 78.1566 90.1892 79.4499 91.4159 80.1752ZM58.2483 74.6919C59.2792 74.6919 60.115 73.6771 60.115 72.4253C60.115 71.1734 59.2792 70.1586 58.2483 70.1586C57.2174 70.1586 56.3816 71.1734 56.3816 72.4253C56.3816 73.6771 57.2174 74.6919 58.2483 74.6919ZM67.3139 75.3201C68.3449 75.3201 69.1806 74.3052 69.1806 73.0534C69.1806 71.8015 68.3449 70.7867 67.3139 70.7867C66.283 70.7867 65.4473 71.8015 65.4473 73.0534C65.4473 74.3052 66.283 75.3201 67.3139 75.3201Z" fill="black"/>
<path fill-rule="evenodd" clip-rule="evenodd" d="M90.4994 100C90.7394 102.693 91.8407 108.779 95.9394 107.867L96.3794 108.533C96.1794 112.712 94.0621 115.659 90.7447 118.712C87.3741 121.765 83.0754 123.6 78.5394 123.923C74.5394 124.216 70.2861 123.259 67.2941 120.576C64.3021 117.893 62.7287 114.176 64.7101 110.989H64.9981C65.8994 111.016 66.7287 110.544 67.4914 110.064C68.3531 109.52 70.0282 107.476 70.8131 106.519C70.9124 106.398 70.9974 106.294 71.0647 106.213C71.5765 105.55 71.894 103.701 72.1639 102.13C72.3159 101.245 72.4528 100.448 72.6007 100H90.4994ZM113.892 132.844C113.31 133.782 112.681 134.689 112.009 135.564C109.708 138.534 106.708 141.086 103.121 142.23L102.604 143.052C102.316 167.34 103.513 191.646 105.886 216.652C104.964 216.729 104.089 217.092 103.38 217.689C102.67 218.286 102.164 219.086 101.929 219.982C101.694 220.878 101.74 221.825 102.065 222.692C102.388 223.558 102.972 224.305 103.737 224.828C104.174 225.124 104.657 225.339 105.14 225.555L105.14 225.555L105.14 225.555C105.572 225.747 106.004 225.94 106.404 226.19C108.288 227.365 109.15 229.542 110.005 231.703C110.915 234 111.817 236.28 113.934 237.321C116.966 238.812 120.766 236.537 122.14 233.446C123.513 230.356 123.137 226.812 122.729 223.457C120.988 209.185 116.836 167.38 116.11 158.63L114.07 134.025L113.892 132.844ZM46.3761 135.42C46.4731 134.802 46.57 134.185 46.667 133.566L46.8244 133.044C48.5364 134.604 49.8537 136.545 50.667 138.713L47.651 196.462L46.3177 212.804L46.3113 212.882C46.0841 215.643 45.8563 218.411 45.2884 221.118C44.7844 223.337 44.1657 225.529 43.4377 227.684C42.9204 229.316 42.275 231.102 40.771 231.924C38.6137 233.097 35.7977 231.505 34.7444 229.286C33.7221 227.133 33.8753 224.639 34.0217 222.253C34.0262 222.181 34.0306 222.108 34.035 222.036C34.115 220.724 34.1524 219.324 33.4777 218.198C33.3281 217.954 33.1478 217.726 32.9672 217.498C32.8289 217.324 32.6906 217.149 32.5657 216.966C32.0804 216.246 31.811 215.404 31.7924 214.534C31.771 213.668 32.003 212.812 32.4537 212.07C32.9044 211.329 33.5604 210.732 34.3417 210.353C35.123 209.974 35.9977 209.825 36.859 209.929C38.7294 184.139 42.5133 160.031 46.3761 135.42Z" fill="#FFD39F"/>
<path fill-rule="evenodd" clip-rule="evenodd" d="M43.6579 130.845C46.8873 132.509 49.3859 135.312 50.6659 138.712L51.0979 140.269C49.2553 156.69 46.4233 172.986 42.6179 189.069C40.8126 191.178 41.8099 194.978 44.4179 195.93C46.085 196.54 47.8578 196.076 49.619 195.614C50.182 195.467 50.7438 195.319 51.3006 195.208C54.7808 194.516 58.3064 195.238 61.8358 195.961C65.2593 196.663 68.6864 197.365 72.0793 196.778C73.1002 196.601 74.0967 196.31 75.093 196.018C76.2019 195.693 77.3106 195.368 78.4526 195.202C81.9706 194.694 85.4475 195.713 88.8957 196.724C89.7524 196.976 90.6073 197.226 91.4606 197.453C95.7486 198.592 100.778 198.984 104.186 196.144L104.199 195.994C102.975 178.17 102.407 160.613 102.615 143.064L103.133 142.242C106.719 141.098 109.719 138.549 112.021 135.576C114.322 132.602 115.997 129.205 117.655 125.832C114.21 124.466 111.626 121.568 109.463 118.549C108.936 117.812 108.423 117.062 107.911 116.313C106.324 113.99 104.738 111.668 102.698 109.749C99.9993 107.21 96.2499 105.429 92.6206 106.176C92.0686 109.082 89.7379 110.949 87.3379 112.213C82.8259 114.568 77.6873 115.448 72.6473 114.73C71.4499 114.554 70.2419 114.28 69.2099 113.645C68.1779 113.01 67.3459 111.96 67.2339 110.754C67.0633 109.029 68.3353 107.536 69.1006 106.696C61.1059 109.6 54.3539 115.17 49.9833 122.469C49.654 123.023 49.3344 123.591 49.0138 124.161C47.5741 126.721 46.1137 129.318 43.6579 130.845ZM123.599 190.231C123.599 190.231 121.06 183.743 117.887 177.191L119.53 192.698C120.33 194.149 122.842 194.09 123.57 192.599C123.847 191.837 123.858 191.002 123.599 190.231Z" fill="black"/>
<path fill-rule="evenodd" clip-rule="evenodd" d="M102.647 140.718C102.119 140.888 101.739 141.306 101.596 141.803C101.242 142.092 101.014 142.53 101.008 143.023C100.808 159.911 101.312 177.182 102.546 195.355C100.124 196.964 96.5319 197.149 91.8482 195.906C91.0853 195.703 90.2978 195.473 89.5308 195.249L89.5305 195.249L89.5299 195.249L89.5298 195.249L89.3229 195.188C85.7549 194.14 82.0642 193.058 78.2002 193.618C76.9442 193.799 75.7629 194.146 74.6189 194.482C73.6402 194.77 72.7149 195.042 71.7842 195.202C68.6947 195.735 65.5146 195.082 62.1506 194.392L62.1469 194.391C58.5175 193.644 54.7655 192.874 50.9655 193.636C50.3644 193.755 49.7712 193.91 49.196 194.06L49.1762 194.066L49.1661 194.068C47.6045 194.475 46.131 194.859 44.9442 194.426C44.2135 194.156 43.6322 193.444 43.3895 192.519C43.1495 191.596 43.3069 190.695 43.8109 190.106C43.9762 189.911 44.0935 189.682 44.1522 189.434C48.4589 171.258 51.5442 152.612 53.3255 134.018C53.4109 133.14 52.7655 132.359 51.8855 132.274C51.0082 132.191 50.2269 132.834 50.1415 133.714C50.123 133.907 50.1043 134.101 50.0855 134.295C49.0721 132.905 47.8422 131.682 46.4368 130.673C48.1126 129.032 49.2747 126.965 50.4071 124.95L50.4071 124.95L50.4072 124.95L50.4101 124.945C50.7328 124.366 51.0394 123.822 51.3568 123.289C54.6234 117.833 59.5061 113.449 65.6181 110.444C65.6181 110.59 65.6261 110.742 65.6421 110.9C65.7914 112.513 66.8128 114.046 68.3728 115.006C69.7194 115.836 71.2421 116.14 72.4234 116.313C77.8261 117.084 83.2394 116.156 88.0848 113.628C91.1168 112.033 93.0634 110.014 93.8901 107.62C96.3914 107.47 99.2074 108.66 101.605 110.916C103.517 112.716 105.01 114.9 106.591 117.214L106.713 117.391L106.713 117.392C107.184 118.08 107.669 118.789 108.165 119.481C109.903 121.91 112.258 124.804 115.503 126.582C114.119 129.364 112.642 132.161 110.757 134.596C109.098 136.737 106.346 139.54 102.647 140.718ZM97.3469 199.916C99.3968 199.916 101.215 199.564 102.792 198.861C103.185 204.286 103.643 209.793 104.165 215.396C103.507 215.636 102.891 215.991 102.344 216.45C101.373 217.266 100.691 218.343 100.368 219.567C100.045 220.791 100.109 222.066 100.555 223.252C101 224.439 101.789 225.442 102.837 226.154C103.377 226.521 103.948 226.777 104.452 227.003L104.485 227.018L104.508 227.028C104.892 227.2 105.254 227.363 105.555 227.551C106.989 228.445 107.728 230.309 108.51 232.284L108.515 232.295L108.517 232.3C109.473 234.715 110.556 237.448 113.227 238.762C114.077 239.18 115.013 239.391 115.979 239.391C116.784 239.391 117.611 239.242 118.437 238.943C120.656 238.138 122.637 236.282 123.608 234.095C125.202 230.504 124.715 226.491 124.323 223.265L124.323 223.265L124.323 223.263C123.598 217.326 122.447 206.536 121.3 195.349C121.369 195.352 121.439 195.354 121.509 195.354H121.618C123.109 195.317 124.407 194.53 125.007 193.303C125.031 193.253 125.055 193.202 125.074 193.149C125.474 192.05 125.487 190.834 125.117 189.725C125.113 189.712 125.109 189.699 125.105 189.687C125.1 189.675 125.096 189.662 125.09 189.65L125.084 189.634C124.942 189.275 122.468 183.009 119.426 176.7C118.614 168.442 117.965 161.585 117.709 158.498L115.669 133.892C115.652 133.683 115.595 133.488 115.506 133.311C116.84 131.12 117.966 128.832 119.068 126.593L119.068 126.593L119.068 126.593L119.093 126.542C119.29 126.14 119.309 125.676 119.149 125.26C118.986 124.844 118.661 124.513 118.245 124.348C114.951 123.041 112.517 120.065 110.765 117.62C110.247 116.897 109.73 116.142 109.231 115.412C107.623 113.057 105.959 110.622 103.794 108.585C100.33 105.326 96.0341 103.841 92.2981 104.609C91.6608 104.74 91.1674 105.241 91.0474 105.878C90.6821 107.801 89.2234 109.412 86.5968 110.796C82.3541 113.006 77.6074 113.822 72.8794 113.148C71.9541 113.012 70.8928 112.801 70.0474 112.281C69.3514 111.852 68.8821 111.209 68.8261 110.596C68.7648 109.956 69.1194 109.518 69.8874 108.74C70.0394 108.585 70.1861 108.436 70.3194 108.289C70.8154 107.745 70.8741 106.932 70.4661 106.321C70.0581 105.71 69.2848 105.457 68.5914 105.708C59.8661 108.878 52.9568 114.388 48.6101 121.649C48.2714 122.22 47.9408 122.806 47.6208 123.374C46.2341 125.844 44.9221 128.174 42.8154 129.484C42.3248 129.788 42.0368 130.332 42.0608 130.908C42.0848 131.484 42.4154 132.001 42.9274 132.265C43.6784 132.652 44.3842 133.107 45.0376 133.622L44.7944 135.174C40.9278 159.793 37.2744 183.073 35.3678 208.372C34.7704 208.468 34.1891 208.649 33.6398 208.916C32.5811 209.43 31.6984 210.233 31.0851 211.238C30.4718 212.244 30.1624 213.398 30.1891 214.574C30.2158 215.753 30.5784 216.889 31.2424 217.873C31.3998 218.1 31.5651 218.31 31.7118 218.494L31.7195 218.504C31.8713 218.695 32.0146 218.876 32.1038 219.022C32.5331 219.737 32.5064 220.809 32.4371 221.94L32.4238 222.156L32.4233 222.163C32.2714 224.644 32.0995 227.451 33.2984 229.974C34.0984 231.662 35.6851 233.065 37.4371 233.636C38.0184 233.825 38.6051 233.918 39.1784 233.918C40.0104 233.918 40.8158 233.721 41.5384 233.326C43.6958 232.148 44.4878 229.67 44.9598 228.18C45.7011 225.988 46.3358 223.732 46.8504 221.473C46.8531 221.465 46.8531 221.454 46.8558 221.446C47.4424 218.641 47.6798 215.78 47.9064 213.012L49.1817 197.371C49.4546 197.303 49.7232 197.233 49.9869 197.164C50.5469 197.018 51.0749 196.882 51.5949 196.778C54.7602 196.143 58.0349 196.815 61.5042 197.527C65.0135 198.25 68.6429 198.994 72.3309 198.356C73.4207 198.168 74.4617 197.863 75.4664 197.569L75.5202 197.554L75.5609 197.542C76.6312 197.229 77.6424 196.933 78.6589 196.786C81.8295 196.327 85.0322 197.266 88.4215 198.26L88.5586 198.3C89.3668 198.536 90.2016 198.779 91.0269 198.999C93.3282 199.61 95.4375 199.916 97.3469 199.916ZM45.9347 197.817C45.2462 197.799 44.5487 197.688 43.8509 197.434C42.1309 196.804 40.8029 195.271 40.2962 193.332C40.1723 192.858 40.1031 192.381 40.0866 191.91C39.4524 197.868 38.9013 203.897 38.4558 210.046C38.4238 210.484 38.2158 210.886 37.8771 211.164C37.5411 211.441 37.1038 211.572 36.6691 211.518C36.1091 211.452 35.5464 211.548 35.0398 211.793C34.5331 212.038 34.1091 212.422 33.8184 212.905C33.5251 213.385 33.3784 213.937 33.3891 214.5C33.4024 215.062 33.5758 215.606 33.8904 216.073C33.9784 216.201 34.0958 216.35 34.2184 216.505L34.2508 216.546C34.44 216.786 34.6506 217.054 34.8398 217.364C35.7438 218.873 35.7251 220.548 35.6291 222.132L35.6158 222.35C35.4798 224.548 35.3411 226.82 36.1864 228.598C36.6184 229.505 37.4958 230.289 38.4264 230.59C38.8371 230.724 39.4451 230.82 40.0051 230.516C40.9571 229.996 41.4691 228.59 41.9118 227.198C41.9144 227.188 41.9171 227.18 41.9224 227.169C42.6291 225.078 43.2344 222.929 43.7251 220.774C44.2718 218.166 44.4984 215.412 44.7171 212.748L45.9347 197.817ZM40.2738 190.176C42.246 172.146 44.9641 154.735 47.808 136.62C48.3571 137.443 48.8152 138.331 49.1701 139.273C49.2487 139.481 49.366 139.663 49.5107 139.815C47.6991 156.121 44.8829 172.419 41.1202 188.359C40.7292 188.902 40.4449 189.518 40.2738 190.176ZM121.538 192.154C121.285 192.161 121.051 192.082 120.954 191.962C120.775 190.204 120.597 188.447 120.422 186.709C121.367 188.942 121.987 190.505 122.093 190.775C122.213 191.154 122.215 191.565 122.101 191.946C122.005 192.063 121.781 192.149 121.538 192.154ZM104.202 143.571C107.304 142.445 110.23 140.276 112.736 137.247L114.52 158.764C115.272 167.852 119.419 209.506 121.144 223.652C121.581 227.258 121.827 230.22 120.68 232.799C120.059 234.196 118.749 235.428 117.341 235.938C116.659 236.186 115.637 236.375 114.643 235.887C113.083 235.12 112.315 233.183 111.501 231.129L111.496 231.116L111.495 231.113C110.599 228.85 109.585 226.289 107.256 224.836C106.76 224.527 106.248 224.298 105.795 224.095C105.363 223.903 104.955 223.722 104.637 223.506C104.141 223.167 103.765 222.692 103.555 222.13C103.344 221.567 103.315 220.962 103.467 220.38C103.619 219.799 103.941 219.29 104.403 218.903C104.864 218.516 105.421 218.284 106.021 218.236C106.448 218.202 106.843 217.996 107.117 217.668C107.392 217.34 107.523 216.916 107.483 216.49C105.021 190.55 103.949 166.691 104.202 143.571Z" fill="black"/>
</svg>
