<svg width="160" height="260" viewBox="0 0 160 260" fill="none" xmlns="http://www.w3.org/2000/svg">
<path d="M93.6704 76.9966C95.5184 74.8206 94.9451 71.0526 92.5344 69.53C91.6704 68.9806 90.5771 68.6393 90.1051 67.7326C89.5717 66.7326 90.0544 65.5353 90.3344 64.442C90.3344 64.4073 90.3531 64.37 90.3637 64.3353C91.1637 61.0393 87.3957 58.594 84.6517 60.5886C81.2251 63.0793 77.3317 64.8553 73.2037 65.8126C71.0704 66.3033 68.4491 66.3993 67.1317 64.6553C66.3531 63.6206 66.1664 62.058 64.1984 62.2046C63.6251 62.2526 63.0731 62.4526 62.5984 62.7806C59.0757 65.1566 55.0464 66.6686 50.8304 67.1993C49.6517 67.346 48.4304 67.4126 47.2917 67.074C44.0224 66.1006 42.5371 61.938 43.5237 58.674C44.5104 55.41 47.2971 52.9966 50.2411 51.2686C52.0651 50.202 54.0971 49.2206 55.1957 47.41C55.8411 46.3433 56.0944 45.074 56.7424 44.01C57.3904 42.946 58.4037 42.1433 59.4357 41.418C64.9957 37.57 71.6437 35.6126 78.4011 35.8286C82.4011 35.9673 87.1024 37.5753 87.9664 41.474L94.0997 44.058C98.8197 44.7833 103.62 46.3726 106.961 49.786C110.302 53.1993 111.761 58.7753 109.361 62.906C109.046 63.4393 108.657 64.0046 108.673 64.634C108.694 65.434 109.364 66.0633 109.918 66.6553C110.889 67.706 111.628 68.9486 112.084 70.3033C112.54 71.658 112.705 73.0926 112.569 74.5166C112.444 75.754 112.036 77.034 111.108 77.8526C110.18 78.6713 108.598 78.8393 107.721 77.9593L94.4144 79.9993L93.6704 76.9966Z" fill="black"/>
<path d="M50.3489 67.3398C48.6289 71.7638 47.5942 75.7585 47.3329 78.1772C46.6742 84.2678 47.9036 91.0358 52.5622 95.3745C55.0449 97.6838 58.1196 98.8198 61.4076 99.3985C64.8369 100.004 68.5169 100.556 71.8449 99.1958C71.6689 101.972 71.6422 103.953 71.7702 106.732L90.5702 104.646C90.2662 100.996 90.9436 97.8652 92.5329 94.5638C92.8929 93.8172 93.6662 93.8252 94.4316 93.5825C95.1116 93.3692 95.7782 93.1238 96.4369 92.8465C97.7729 92.2918 99.0342 91.5745 100.197 90.7132C102.496 88.9772 104.288 86.5398 104.96 83.7132C105.57 81.1505 105.141 78.0998 102.293 76.6572C100.285 75.6438 98.4849 76.0038 95.4262 78.6918L93.6929 77.0065C95.5409 74.8305 94.9676 71.0625 92.5569 69.5398C91.6929 68.9905 90.5996 68.6492 90.1276 67.7425C89.5942 66.7425 90.0769 65.5452 90.3569 64.4518C90.3569 64.4172 90.3756 64.3798 90.3862 64.3452C91.1862 61.0492 87.4182 58.6038 84.6742 60.5985C81.2476 63.0892 77.3542 64.8652 73.2262 65.8225C71.0929 66.3132 68.4716 66.4092 67.1542 64.6652C66.3756 63.6305 66.1889 62.0678 64.2209 62.2145C63.6476 62.2625 63.0956 62.4625 62.6209 62.7905C59.0902 65.1665 55.0502 66.6758 50.8289 67.2012" fill="#FFD39F"/>
<path d="M109.258 80.1568C108.258 80.1568 107.288 79.8021 106.578 79.0928C105.954 78.4661 105.957 77.4528 106.581 76.8288C107.208 76.2048 108.221 76.2075 108.845 76.8315C109.045 77.0315 109.672 76.9808 110.04 76.6555C110.533 76.2208 110.861 75.4048 110.968 74.3568C111.082 73.1568 110.946 71.9648 110.557 70.8155C110.17 69.6661 109.557 68.6341 108.733 67.7435L108.597 67.5995C107.965 66.9328 107.098 66.0208 107.064 64.6795C107.037 63.6528 107.52 62.8501 107.872 62.2635L107.973 62.0955C110.096 58.4395 108.445 53.5995 105.808 50.9088C103.186 48.2315 99.1622 46.4608 93.8475 45.6421C92.9728 45.5088 92.3755 44.6901 92.5088 43.8181C92.6422 42.9461 93.4608 42.3461 94.3328 42.4795C100.349 43.4048 104.978 45.4875 108.096 48.6688C109.986 50.5995 111.328 53.1168 111.872 55.7568C112.461 58.6128 112.058 61.4368 110.736 63.7141L110.616 63.9141C110.493 64.1168 110.29 64.4528 110.266 64.5915C110.322 64.7702 110.696 65.1622 110.92 65.3995L111.077 65.5648C112.216 66.7968 113.058 68.2155 113.592 69.7941C114.125 71.3728 114.312 73.0128 114.154 74.6715C113.962 76.5595 113.274 78.0715 112.16 79.0555C111.325 79.7888 110.277 80.1568 109.258 80.1568Z" fill="black"/>
<path d="M93.6693 78.5994C93.3039 78.5994 92.9359 78.4741 92.6346 78.2181C91.9599 77.6447 91.8799 76.6367 92.4506 75.9621C93.0239 75.2874 93.2719 74.2767 93.1173 73.2581C92.9626 72.2421 92.4239 71.3541 91.6799 70.8847C91.4959 70.7674 91.2799 70.6527 91.0506 70.5301C90.2533 70.1061 89.2586 69.5754 88.6853 68.4741C87.9386 67.0741 88.3519 65.5994 88.6559 64.5194C88.6933 64.3861 88.7306 64.2527 88.7653 64.1221C88.7813 64.0367 88.8026 63.9594 88.8239 63.8954C89.0853 62.6794 88.2506 62.0101 87.9839 61.8314C87.3999 61.4394 86.4666 61.2501 85.5946 61.8821C81.9733 64.5141 77.9279 66.3594 73.5679 67.3701C70.0079 68.1887 67.3413 67.5834 65.8586 65.6181C65.5946 65.2687 65.3999 64.9114 65.2293 64.5967C64.7759 63.7647 64.7599 63.7647 64.3199 63.7994C64.0399 63.8234 63.7573 63.9247 63.5146 64.0927C59.7839 66.6074 55.4746 68.2261 51.0346 68.7834C49.7813 68.9407 48.3039 69.0394 46.8399 68.6047C45.1093 68.0901 43.6399 66.8474 42.7013 65.1087C41.5813 63.0287 41.3173 60.4501 41.9946 58.2074C42.9599 55.0154 45.4613 52.2154 49.4346 49.8847C49.6799 49.7407 49.9253 49.6021 50.1733 49.4607C51.6746 48.6047 53.0906 47.7967 53.8319 46.5754C54.0799 46.1674 54.2719 45.6661 54.4773 45.1354C54.7253 44.4927 54.9813 43.8287 55.3813 43.1727C56.1866 41.8474 57.3679 40.9141 58.5199 40.1034C64.3306 36.0821 71.4053 33.9994 78.4559 34.2234C82.8959 34.3781 88.4586 36.2767 89.5333 41.1221C89.7253 41.9861 89.1813 42.8394 88.3173 43.0314C87.4559 43.2207 86.5999 42.6794 86.4079 41.8154C85.7733 38.9514 81.9039 37.5461 78.3493 37.4234C71.9839 37.2154 65.5893 39.1034 60.3493 42.7301C59.4879 43.3354 58.6133 44.0154 58.1119 44.8394C57.8613 45.2501 57.6666 45.7541 57.4613 46.2874C57.2159 46.9247 56.9626 47.5834 56.5679 48.2341C55.3973 50.1647 53.4639 51.2687 51.7573 52.2394C51.5199 52.3754 51.2853 52.5087 51.0506 52.6447C47.7973 54.5541 45.7813 56.7381 45.0559 59.1327C44.6266 60.5567 44.8026 62.2634 45.5173 63.5887C45.8933 64.2847 46.5839 65.1887 47.7493 65.5354C48.6479 65.8021 49.7119 65.7221 50.6346 65.6074C54.5786 65.1114 58.4079 63.6741 61.7066 61.4501C62.3919 60.9754 63.2133 60.6794 64.0666 60.6074C66.5973 60.4154 67.5359 62.1407 68.0399 63.0661C68.1706 63.3061 68.2933 63.5327 68.4133 63.6901C69.3306 64.9061 71.8213 64.4874 72.8479 64.2501C76.7866 63.3381 80.4426 61.6687 83.7146 59.2901C85.5306 57.9701 87.9066 57.9221 89.7679 59.1674C91.5973 60.3914 92.4426 62.5674 91.9226 64.7061C91.9146 64.7381 91.9066 64.7674 91.8959 64.7994C91.8959 64.8021 91.8959 64.8047 91.8933 64.8047C91.8906 64.8127 91.8879 64.8234 91.8879 64.8314C91.8426 65.0101 91.7919 65.1914 91.7413 65.3754C91.5759 65.9621 91.3733 66.6927 91.5226 66.9727C91.6453 67.2101 92.1119 67.4581 92.5626 67.6981C92.8346 67.8421 93.1146 67.9914 93.3999 68.1727C94.9359 69.1434 95.9893 70.8181 96.2879 72.7647C96.5866 74.7167 96.0799 76.6341 94.8986 78.0234C94.5733 78.4074 94.1226 78.5994 93.6693 78.5994ZM91.9333 64.4474C91.9333 64.4501 91.9333 64.4501 91.9333 64.4474C91.9333 64.4501 91.9333 64.4501 91.9333 64.4474ZM91.9333 64.4447V64.4474V64.4447Z" fill="black"/>
<path d="M58.2475 74.6974C59.2785 74.6974 60.1142 73.6826 60.1142 72.4307C60.1142 71.1789 59.2785 70.1641 58.2475 70.1641C57.2166 70.1641 56.3809 71.1789 56.3809 72.4307C56.3809 73.6826 57.2166 74.6974 58.2475 74.6974Z" fill="black"/>
<path d="M67.3159 75.3224C68.3468 75.3224 69.1826 74.3076 69.1826 73.0557C69.1826 71.8039 68.3468 70.7891 67.3159 70.7891C66.285 70.7891 65.4492 71.8039 65.4492 73.0557C65.4492 74.3076 66.285 75.3224 67.3159 75.3224Z" fill="black"/>
<path d="M90.5564 104.639C89.7351 104.639 89.0337 104.01 88.9644 103.172C88.6257 99.1564 89.4071 97.3191 91.0657 93.8631C91.6737 92.6018 92.8231 92.3244 93.5111 92.1591C93.6604 92.1218 93.8017 92.0898 93.9244 92.0498C94.5591 91.8498 95.1857 91.6204 95.7911 91.3644C97.0151 90.8577 98.1644 90.2044 99.2204 89.4204C101.348 87.8124 102.831 85.6498 103.38 83.3351C103.663 82.1698 104.047 79.3378 101.548 78.0764C100.458 77.5244 99.3884 77.3084 96.4577 79.8844C95.7937 80.4684 94.7831 80.4018 94.1991 79.7378C93.6151 79.0738 93.6817 78.0631 94.3457 77.4791C98.5537 73.7804 100.986 74.2071 102.988 75.2178C106.092 76.7858 107.434 80.1804 106.49 84.0791C105.77 87.1084 103.868 89.9164 101.138 91.9778C99.863 92.9244 98.4817 93.7084 97.0257 94.3111C96.3351 94.6018 95.6124 94.8684 94.8844 95.0951C94.6631 95.1644 94.4497 95.2178 94.263 95.2631C94.1457 95.2924 93.9937 95.3271 93.895 95.3591C92.3617 98.5591 91.887 99.7617 92.1537 102.898C92.2284 103.778 91.575 104.551 90.695 104.626C90.647 104.636 90.6017 104.639 90.5564 104.639Z" fill="black"/>
<path d="M71.7705 106.998C70.9198 106.998 70.2132 106.329 70.1732 105.47C70.0878 103.593 70.0692 102.649 70.1225 101.361C66.9172 101.979 63.6532 101.411 61.1358 100.971C57.0692 100.254 53.9092 98.8061 51.4745 96.5421C46.9998 92.3741 44.9118 85.6168 45.7438 77.9981C46.0558 75.1741 47.2185 70.9714 48.8585 66.7554C49.1785 65.9314 50.1065 65.5234 50.9305 65.8434C51.7545 66.1634 52.1625 67.0914 51.8425 67.9154C50.0238 72.5928 49.1438 76.3714 48.9252 78.3474C48.2025 84.9474 49.9252 90.7261 53.6558 94.1981C55.6505 96.0541 58.2025 97.2034 61.6878 97.8168C65.2505 98.4381 68.4318 98.8568 71.2425 97.7074C71.7518 97.4994 72.3332 97.5688 72.7812 97.8888C73.2292 98.2114 73.4798 98.7394 73.4452 99.2888C73.2745 101.971 73.2452 102.563 73.3732 105.315C73.4132 106.198 72.7305 106.947 71.8478 106.987C71.8185 106.998 71.7945 106.998 71.7705 106.998Z" fill="black"/>
<path d="M90.499 100C90.739 102.693 91.8403 108.779 95.939 107.867L96.379 108.533C96.179 112.712 94.0617 115.659 90.7443 118.712C87.3737 121.765 83.075 123.6 78.539 123.923C74.539 124.216 70.2857 123.259 67.2937 120.576C64.3017 117.893 62.7283 114.176 64.7097 110.989H64.9977C65.899 111.016 66.7283 110.544 67.491 110.064C68.4617 109.451 70.4643 106.936 71.0643 106.213C71.8643 105.176 72.1897 101.243 72.6003 100H90.499V100Z" fill="#FFD39F"/>
<path d="M96.4148 106.398C101.132 107.662 104.791 111.297 107.737 115.02C110.951 119.084 113.471 123.649 115.199 128.532C116.167 131.26 117.697 134.329 118.329 137.15L119.172 139.732C123.737 159.393 124.553 179.673 124.852 199.892L125.119 200.196C126.761 206.206 132.895 221.406 134.228 227.806C134.271 228.353 134.18 228.902 133.961 229.406C131.295 232.606 126.761 231.806 123.255 232.894L110.863 235.361C93.1268 238.542 75.3268 239.321 57.5588 236.324L54.2068 235.932L42.7401 233.737C41.7054 233.54 40.5694 233.276 39.9641 232.404C39.4628 231.689 39.4654 230.748 39.5028 229.876C39.6548 226.409 40.0548 222.969 40.4548 219.526L42.2841 203.756H42.1454C39.4361 203.425 37.2601 203.097 34.5508 202.769C35.6734 190.382 37.1134 178.028 38.8708 165.702C40.3988 154.969 42.1774 144.233 45.3348 133.862C48.1401 124.646 52.5908 115.116 61.0414 110.494L72.7748 111.294L96.4148 106.398Z" fill="black"/>
<path fill-rule="evenodd" clip-rule="evenodd" d="M33.1583 226.472C34.2249 228.872 36.8116 230.496 39.4969 230.6L41.6916 208.824L33.6916 209.243C31.8249 209.939 30.2249 211.539 30.7583 213.672C33.8693 216.783 33.5442 221.183 33.252 225.136C33.2186 225.588 33.1856 226.035 33.1583 226.472ZM101.852 222.602C99.6919 219.754 103.017 216.813 105.585 215.984H122.647C122.721 216.423 122.8 216.878 122.881 217.345C123.536 221.103 124.325 225.634 123.583 229.216C122.815 232.93 120.3 236.373 116.257 236.64C112.289 236.896 109.863 234.098 108.617 230.677C108.491 230.332 108.375 229.909 108.252 229.458C107.89 228.136 107.461 226.569 106.508 226.002C106.223 225.833 105.934 225.668 105.644 225.503C104.25 224.706 102.843 223.903 101.852 222.602Z" fill="#FFD39F"/>
<path fill-rule="evenodd" clip-rule="evenodd" d="M75.3558 122.402L72.8012 111.314C77.9456 109.206 81.8399 107.245 85.7208 105.289L85.8465 105.226C88.8012 103.736 91.8518 102.218 95.1532 101.965C94.905 104.703 94.1547 107.345 93.4048 109.985L93.3825 110.064C92.8785 111.832 92.3452 113.642 91.1532 115.032C90.1452 116.208 88.7478 116.976 87.3558 117.656C83.497 119.542 79.4336 120.97 75.3805 122.394L75.3804 122.394L75.3558 122.402ZM68.9476 107.934L70.0543 103.982C70.3476 104.228 70.7263 103.188 70.2303 102.374L62.0303 108.988C61.8329 111.004 62.0649 113.038 62.7156 114.958C63.3663 116.878 64.4169 118.636 65.7983 120.118C68.2943 117.545 70.2863 114.524 71.6649 111.214C70.4383 110.956 68.9583 110.444 68.7769 109.201C68.7476 108.772 68.8036 108.34 68.9476 107.934ZM103.085 208.999C102.663 211.039 102.525 213.125 102.669 215.202C102.663 215.322 102.679 215.442 102.722 215.554C102.765 215.666 102.829 215.77 102.911 215.858C103.079 215.959 103.277 216.005 103.471 215.983L121.605 215.933C121.879 215.954 122.154 215.903 122.405 215.789C122.917 215.498 122.957 214.789 122.938 214.189L122.746 209.274L103.085 208.999ZM34.1855 209.148C34.3455 207.161 34.5189 205.121 35.3749 203.321L42.0255 203.942L41.1829 210.214C38.8122 210.198 36.4549 209.838 34.1855 209.148Z" fill="white"/>
<path fill-rule="evenodd" clip-rule="evenodd" d="M74.593 123.795C74.8277 123.923 75.097 123.99 75.3637 123.99C75.5477 123.99 75.7317 123.96 75.8997 123.902C79.9344 122.486 84.105 121.019 88.049 119.091C89.5877 118.342 91.1717 117.456 92.3584 116.072C93.8064 114.387 94.4197 112.232 94.913 110.499L94.937 110.419L94.9377 110.417C95.1819 109.557 95.4288 108.687 95.6601 107.807C95.7654 107.863 95.8786 107.908 95.9987 107.94C100.657 109.191 104.212 113.143 106.481 116.01C109.591 119.943 112.015 124.335 113.689 129.066C114.039 130.047 114.457 131.076 114.865 132.071C115.612 133.898 116.383 135.786 116.767 137.498C116.935 138.242 117.593 138.748 118.327 138.748C118.444 138.748 118.561 138.735 118.679 138.708C119.54 138.514 120.081 137.658 119.889 136.796C119.447 134.823 118.625 132.807 117.828 130.858L117.791 130.768C117.394 129.796 117.018 128.876 116.705 127.994C114.916 122.932 112.319 118.234 108.991 114.023C106.441 110.802 102.404 106.343 96.828 104.85C96.6696 104.807 96.5104 104.79 96.3546 104.796C96.5234 103.911 96.6574 103.015 96.7397 102.107C96.7824 101.64 96.617 101.176 96.2864 100.84C95.9557 100.504 95.4944 100.331 95.025 100.368C91.3578 100.648 88.0474 102.318 85.126 103.792L85.121 103.795L84.993 103.859L84.8776 103.917L84.8776 103.917C81.159 105.788 77.3075 107.726 72.3516 109.763C72.2388 109.71 72.1189 109.669 71.9941 109.642C70.7275 109.376 70.4181 109.05 70.3675 108.978C70.3675 108.824 70.3888 108.672 70.4341 108.525L72.0821 105.018C72.3755 104.394 72.2341 103.65 71.7328 103.176C71.2315 102.701 70.4821 102.602 69.8741 102.93L61.2688 107.57C60.8021 107.824 60.4875 108.293 60.4368 108.824C60.4299 108.894 60.4234 108.965 60.4175 109.035C60.3725 109.055 60.3281 109.076 60.2842 109.1C52.8682 113.156 47.6336 120.876 43.8069 133.399C40.5882 143.972 38.7722 155.066 37.2896 165.479C35.5349 177.764 34.0789 190.263 32.9589 202.628C32.9132 203.12 33.0962 203.582 33.4215 203.906C32.9864 205.243 32.8029 206.618 32.6816 207.921C29.9651 209.121 28.577 211.535 29.2068 214.054C29.2788 214.337 29.4228 214.593 29.6282 214.798C32.2202 217.393 31.9348 221.267 31.6575 225.014L31.652 225.087L31.652 225.087L31.6519 225.087L31.6519 225.087C31.6191 225.521 31.5867 225.95 31.5615 226.369C31.5455 226.63 31.5935 226.891 31.7028 227.131C32.3668 228.593 33.4255 229.835 34.7615 230.726C35.7659 231.398 36.894 231.846 38.0743 232.05C38.1898 232.491 38.3744 232.925 38.6633 233.337C39.666 234.761 41.3966 235.11 42.4473 235.321L51.5007 237.054C51.602 237.073 51.7033 237.083 51.802 237.083C52.554 237.083 53.2233 236.55 53.37 235.787C53.538 234.921 52.9673 234.081 52.1007 233.915L43.0606 232.185C42.4953 232.073 41.546 231.881 41.2793 231.502C41.0526 231.182 41.0873 230.387 41.106 229.963C41.2578 226.56 41.6595 223.096 42.0483 219.743L42.05 219.729L45.2046 192.529L45.282 191.862L45.2892 191.8C47.4736 173.099 49.7322 153.764 54.106 135.198C54.3086 134.337 53.7753 133.475 52.9166 133.273C52.0553 133.067 51.194 133.603 50.9913 134.462C46.5761 153.202 44.3069 172.624 42.1124 191.408L42.1033 191.486L40.8855 201.987C40.2731 201.908 39.6799 201.828 39.098 201.75L38.6282 201.687C37.8682 201.583 37.0949 201.479 36.2842 201.375C37.3802 189.57 38.7802 177.652 40.4549 165.93C41.9189 155.644 43.7109 144.698 46.8656 134.332C50.1952 123.434 54.5598 116.5 60.5262 112.674C60.6646 113.616 60.8891 114.547 61.1995 115.464C61.9275 117.613 63.0795 119.544 64.6261 121.202C64.9248 121.522 65.3435 121.706 65.7808 121.712H65.7968C66.2288 121.712 66.6448 121.536 66.9461 121.226C68.0154 120.124 68.9929 118.951 69.8746 117.713L66.833 165.632L66.8307 165.668C65.3695 188.693 63.86 212.478 66.4083 235.903C63.5179 235.608 60.6569 235.221 57.8202 234.743C56.9482 234.593 56.1242 235.183 55.9775 236.055C55.8309 236.924 56.4175 237.751 57.2895 237.897C60.7191 238.476 64.1816 238.924 67.6864 239.24C67.8557 239.301 68.0374 239.333 68.225 239.333C68.289 239.333 68.353 239.331 68.417 239.323C68.445 239.319 68.4727 239.315 68.5002 239.311C72.4495 239.643 76.4531 239.809 80.5242 239.809C90.1816 239.809 100.217 238.871 110.783 236.995C112.217 238.099 113.904 238.681 115.762 238.681C115.962 238.681 116.167 238.676 116.372 238.66C119.2 238.474 121.658 236.937 123.306 234.487C123.445 234.482 123.585 234.459 123.726 234.419C124.721 234.109 125.862 233.965 127.068 233.816C129.838 233.472 132.977 233.08 135.188 230.427C135.286 230.309 135.366 230.179 135.428 230.037C135.745 229.299 135.881 228.483 135.82 227.68C135.814 227.611 135.804 227.544 135.79 227.477C134.996 223.665 132.658 217.127 130.396 210.805L130.396 210.803C128.82 206.403 127.334 202.245 126.657 199.771C126.613 199.611 126.547 199.463 126.462 199.33C126.242 179.662 125.704 160.858 121.153 141.242C120.953 140.38 120.095 139.844 119.233 140.044C118.372 140.244 117.836 141.103 118.036 141.964C122.911 162.98 123.108 183.204 123.316 204.618C123.321 205.103 123.326 205.59 123.331 206.077L123.331 206.079L123.331 206.082C123.336 206.561 123.34 207.041 123.345 207.522L103.156 207.191C100.156 183.751 99.1214 159.908 100.079 136.3C100.116 135.418 99.4281 134.671 98.5454 134.636C97.6601 134.604 96.9161 135.287 96.8814 136.17C95.8974 160.418 97.0014 184.914 100.161 208.975C100.243 209.594 100.672 210.092 101.236 210.283C101.011 211.921 100.952 213.581 101.062 215.235C101.062 215.533 101.113 215.827 101.217 216.107C101.337 216.427 101.516 216.715 101.75 216.96C101.773 216.984 101.796 217.007 101.82 217.029C100.854 217.76 100.053 218.695 99.7004 219.82C99.3964 220.793 99.303 222.308 100.583 223.988C101.767 225.545 103.402 226.481 104.844 227.305C105.13 227.468 105.412 227.63 105.695 227.798C106.09 228.032 106.521 229.603 106.71 230.291L106.714 230.305C106.844 230.785 106.97 231.238 107.116 231.644C107.455 232.573 107.857 233.418 108.315 234.175C94.6324 236.47 81.8721 237.141 69.6611 236.194C67.0435 212.826 68.56 188.944 70.0277 165.835L72.9846 119.249L73.793 122.758C73.897 123.2 74.193 123.576 74.593 123.795ZM34.1138 210.792C33.5822 211.013 32.2119 211.704 32.2602 212.923C35.4936 216.517 35.1377 221.341 34.8498 225.244L34.8495 225.249C34.8417 225.359 34.8336 225.468 34.8255 225.576L34.8255 225.577C34.8113 225.766 34.7973 225.954 34.7855 226.142C35.2042 226.915 35.8068 227.574 36.5402 228.065C36.9827 228.36 37.4631 228.587 37.9664 228.74C38.1477 225.608 38.5093 222.484 38.8602 219.452L38.8713 219.355L39.7519 211.762C37.8434 211.646 35.9543 211.32 34.1138 210.792ZM40.1211 208.579L40.5166 205.168C39.7162 205.065 38.9503 204.961 38.2016 204.86L37.8253 204.81L37.8252 204.81L37.8251 204.81L37.8249 204.81L37.8247 204.81C37.4075 204.754 36.9845 204.697 36.5532 204.64C36.1797 205.668 36.0071 206.805 35.8926 207.954C37.2794 208.293 38.6953 208.503 40.1211 208.579ZM104.222 214.381C104.174 213.054 104.25 211.725 104.451 210.412L121.195 210.687L121.334 214.237C121.337 214.272 121.337 214.304 121.337 214.333V214.333L104.222 214.381ZM124.532 214.12L124.4 210.739L124.937 210.748H124.964C125.385 210.748 125.793 210.58 126.089 210.284C126.31 210.065 126.461 209.788 126.526 209.488C126.782 210.209 127.045 210.943 127.31 211.684L127.31 211.685L127.38 211.88L127.389 211.907L127.389 211.908C129.486 217.77 131.855 224.398 132.63 228.013C132.636 228.2 132.612 228.389 132.558 228.568C131.156 230.08 129.068 230.341 126.668 230.64C126.097 230.711 125.518 230.783 124.94 230.876C125.022 230.579 125.095 230.276 125.159 229.966C125.966 226.059 125.294 222.189 124.644 218.447L124.642 218.433C124.57 218.022 124.5 217.614 124.431 217.206C124.378 216.889 124.234 216.609 124.031 216.388C124.576 215.558 124.545 214.535 124.532 214.12ZM106.766 217.567L121.255 217.526C121.257 217.596 121.264 217.666 121.276 217.737C121.336 218.09 121.397 218.443 121.458 218.798L121.459 218.801L121.49 218.98L121.492 218.991C122.091 222.441 122.71 226.005 122.026 229.316C121.132 233.622 118.412 235.316 116.159 235.465C112.73 235.686 110.986 232.916 110.122 230.545C110.02 230.262 109.911 229.87 109.799 229.457L109.797 229.449C109.368 227.885 108.834 225.938 107.33 225.046C107.105 224.913 106.878 224.783 106.649 224.652L106.431 224.526L106.429 224.525C105.139 223.787 103.919 223.089 103.127 222.049C102.58 221.332 102.706 220.929 102.754 220.777C103.004 219.974 104.263 219.044 105.746 218.564C106.244 218.405 106.608 218.025 106.766 217.567ZM76.5104 120.294L74.6624 112.267C79.257 110.331 82.9024 108.496 86.4277 106.718L86.5584 106.651C88.729 105.555 90.9584 104.432 93.2704 103.878C92.9393 105.737 92.4162 107.58 91.8709 109.502L91.8709 109.502L91.8597 109.542L91.8384 109.622C91.3904 111.2 90.9237 112.832 89.9344 113.987C89.0864 114.974 87.793 115.654 86.649 116.214C83.409 117.798 79.9397 119.08 76.5104 120.294ZM63.5675 109.97C63.5168 111.49 63.7408 112.989 64.2315 114.44C64.6235 115.597 65.1701 116.674 65.8635 117.661C67.2875 115.984 68.4928 114.149 69.4661 112.178C68.1328 111.56 67.3701 110.637 67.1915 109.426L67.1898 109.414L67.1898 109.413C67.185 109.378 67.1805 109.345 67.1781 109.309C67.1461 108.856 67.1781 108.408 67.2715 107.968L63.5675 109.97Z" fill="black"/>
</svg>
