<svg width="160" height="260" viewBox="0 0 160 260" fill="none" xmlns="http://www.w3.org/2000/svg">
<path d="M100.533 92.4314C101.067 94.0687 103.563 93.4287 104.915 92.3567C111.357 87.2447 115.187 79.098 115.373 70.874C115.56 62.65 112.203 54.4714 106.557 48.49C103.184 44.9194 98.6346 41.9807 93.7306 42.2314L85.8666 38.3327C84.7759 35.9087 81.8932 34.7967 79.2399 34.6687C76.5866 34.5407 73.9333 35.1434 71.2799 35.0234C69.1652 34.9274 67.0799 34.3754 64.9653 34.434C60.0506 34.5674 55.8426 37.9167 52.4053 41.434C46.6266 47.346 41.6346 54.8127 41.6506 63.082C41.6506 67.77 42.9839 73.3274 39.5173 76.49C39.0693 76.9007 38.5013 77.4234 38.7173 77.9914C38.7946 78.1407 38.8986 78.274 39.0293 78.3807C39.1599 78.4874 39.3093 78.5674 39.4693 78.6127C42.3679 79.7887 46.0826 78.1114 47.1146 75.146L52.3359 65.2954C54.0853 62.6287 57.7066 61.8447 60.8826 62.17C64.0586 62.4954 67.1039 63.674 70.2853 63.9594C72.8453 64.1674 75.4212 63.7994 77.8212 62.882C80.2212 61.9647 82.3839 60.5167 84.1519 58.65L85.7519 59.082C87.2826 59.8394 88.5732 61.01 89.4799 62.458C90.3839 63.9087 90.8693 65.5807 90.8773 67.29C90.8613 69.042 90.3439 70.7434 90.0559 72.474C89.7679 74.2047 89.7706 76.0874 90.6959 77.5754C91.6212 79.0634 93.7279 79.9114 95.2079 78.97" fill="black"/>
<path d="M90.5591 104.368C90.2524 100.72 90.9618 97.8721 92.5484 94.5707C92.9058 93.8241 93.6818 93.8321 94.4471 93.5894C95.1244 93.3761 95.7964 93.1307 96.4524 92.8534C97.7884 92.2987 99.0498 91.5814 100.212 90.7201C102.511 88.9841 104.3 86.5467 104.975 83.7201C105.586 81.1574 105.156 78.1067 102.295 76.6641C100.29 75.6507 98.4898 76.0107 95.4311 78.6987L95.2151 78.9841C93.7351 79.9254 91.6258 79.0801 90.7031 77.5894C89.7804 76.0987 89.7831 74.2187 90.0631 72.4881C90.3431 70.7574 90.8631 69.0561 90.8844 67.3041C90.8764 65.5947 90.3911 63.9227 89.4871 62.4721C88.5831 61.0214 87.2924 59.8534 85.7591 59.0961L84.1591 58.6641C82.3911 60.5307 80.2284 61.9761 77.8284 62.8961C75.4284 63.8161 72.8524 64.1841 70.2924 63.9734C67.1111 63.6881 64.0658 62.5121 60.8898 62.1841C57.7138 61.8561 54.0924 62.6374 52.3431 65.3094L50.6658 66.9307C49.0658 69.3307 48.7991 72.2641 47.9991 75.1974C47.9991 76.0401 44.7564 87.4214 52.2658 94.9307C54.9324 97.5974 58.3991 98.6641 61.9991 99.4641C65.2284 99.9627 68.7564 100.464 71.8658 99.1974C71.6871 101.973 71.7164 104.416 71.8444 107.195" fill="#FFD39F"/>
<path fill-rule="evenodd" clip-rule="evenodd" d="M38.9323 80.1172C39.7269 80.4319 40.5856 80.5866 41.4576 80.5866C42.5296 80.5866 43.6229 80.3545 44.6576 79.8852C44.9937 79.733 45.3158 79.5593 45.6219 79.3662C45.1693 86.4218 47.2666 92.6247 51.4714 96.5413C53.906 98.8053 57.066 100.253 61.1327 100.971C63.65 101.411 66.914 101.979 70.1194 101.36C70.066 102.648 70.0847 103.592 70.17 105.469C70.21 106.328 70.9167 106.997 71.7674 106.997C71.794 106.997 71.818 106.997 71.8447 106.987C72.7274 106.947 73.41 106.197 73.37 105.315C73.242 102.563 73.2714 101.971 73.442 99.288C73.4767 98.7387 73.226 98.208 72.778 97.888C72.33 97.568 71.7487 97.4987 71.2394 97.7067C68.426 98.856 65.2474 98.4373 61.6847 97.816C58.1994 97.2027 55.6474 96.0533 53.6527 94.1973C49.922 90.7253 48.1994 84.9467 48.922 78.3467C49.1407 76.3707 50.0207 72.592 51.8394 67.9147C51.9794 67.5541 51.98 67.1737 51.8674 66.833C52.0201 66.8795 52.1769 66.9024 52.3329 66.9024C52.8556 66.9024 53.3649 66.6491 53.6689 66.1771C55.0876 64.0144 58.2396 63.5131 60.7143 63.7664C62.1477 63.9118 63.5628 64.2488 65.061 64.6055L65.061 64.6055L65.0983 64.6144C66.7169 65.001 68.3943 65.4011 70.1489 65.5584C72.9329 65.7851 75.7809 65.377 78.3889 64.3797C80.7471 63.4779 82.9287 62.0834 84.7445 60.3262C84.8374 60.4026 84.9404 60.4697 85.0528 60.5254C86.3195 61.152 87.3835 62.1174 88.1328 63.3147C88.8795 64.5147 89.2795 65.896 89.2875 67.2854C89.2795 68.328 89.0555 69.3974 88.8182 70.528L88.8072 70.5805C88.6959 71.111 88.5804 71.6612 88.4875 72.2214C88.0608 74.7814 88.3408 76.8134 89.3462 78.4294C90.0955 79.632 91.3675 80.5387 92.7515 80.8534C93.1062 80.9334 93.4608 80.9734 93.8102 80.9734C94.6235 80.9734 95.4048 80.7547 96.0768 80.3307C96.3194 80.176 96.5064 79.9668 96.6318 79.7293C99.431 77.3141 100.479 77.5324 101.548 78.0733C104.047 79.3346 103.663 82.1666 103.38 83.332C102.831 85.644 101.348 87.8093 99.22 89.4173C98.164 90.2013 97.0147 90.8546 95.7907 91.3613C95.1853 91.6173 94.5587 91.8466 93.924 92.0466C93.8273 92.0782 93.719 92.1047 93.6043 92.1329L93.6042 92.1329L93.5107 92.156C92.8227 92.3213 91.6733 92.5986 91.0653 93.86C89.4067 97.3133 88.6253 99.1533 88.964 103.169C89.0333 104.004 89.7347 104.636 90.556 104.636C90.6013 104.636 90.6467 104.633 90.6947 104.623C91.5747 104.551 92.228 103.775 92.1533 102.895C91.8867 99.7586 92.3613 98.556 93.8947 95.356C93.9704 95.3314 94.0776 95.3053 94.1763 95.2812L94.1764 95.2812C94.2063 95.2739 94.2354 95.2668 94.2627 95.26C94.4493 95.2146 94.6627 95.1613 94.884 95.092C95.612 94.8653 96.3347 94.5986 97.0253 94.308C97.7494 94.0083 98.455 93.6637 99.1382 93.2766C99.4995 94.0569 100.149 94.6165 100.997 94.8711C101.344 94.9751 101.706 95.0205 102.074 95.0205C103.464 95.0205 104.941 94.3618 105.898 93.6045C112.624 88.2685 116.762 79.7831 116.962 70.9058C117.154 62.3938 113.784 53.8205 107.709 47.3858C103.362 42.7858 98.3677 40.3858 93.6371 40.6285C92.7544 40.6738 92.0744 41.4258 92.1197 42.3085C92.1651 43.1911 92.9171 43.8738 93.7997 43.8258C98.8957 43.5698 103.245 47.3245 105.381 49.5858C110.882 55.4151 113.936 63.1591 113.762 70.8365C113.581 78.7751 109.898 86.3511 103.912 91.1005C103.218 91.6471 102.349 91.8631 102.002 91.8258C101.947 91.6904 101.875 91.5661 101.79 91.4548C104.171 89.453 105.828 86.8578 106.489 84.076C107.433 80.1773 106.092 76.7826 102.988 75.2146C100.988 74.204 98.5533 73.7773 94.3453 77.476C94.253 77.5572 94.1721 77.6467 94.103 77.7424C93.8756 77.8015 93.6404 77.7764 93.4635 77.736C92.9115 77.608 92.3622 77.2187 92.0662 76.7414C91.4982 75.8267 91.3568 74.4827 91.6448 72.7467C91.7171 72.2966 91.8098 71.8506 91.9069 71.3836L91.9069 71.3836L91.9069 71.3835L91.9069 71.3835L91.9069 71.3834L91.9488 71.1814C92.2075 69.9467 92.4742 68.672 92.4875 67.2907C92.4768 65.2827 91.9115 63.3227 90.8475 61.6187C89.7835 59.9174 88.2715 58.5467 86.4715 57.656C86.0957 57.47 85.682 57.4455 85.3091 57.5558C85.2893 57.5349 85.2688 57.5144 85.2476 57.4944C84.6076 56.8864 83.5943 56.913 82.9863 57.5557C81.3916 59.2384 79.4076 60.5637 77.2449 61.393C75.0823 62.2224 72.7169 62.5584 70.4236 62.3717C68.9267 62.2397 67.4507 61.8881 65.8894 61.5163L65.8893 61.5163L65.8893 61.5162L65.8892 61.5162L65.8423 61.505C64.2983 61.137 62.6983 60.7557 61.0423 60.585C56.6263 60.1344 52.8689 61.5691 50.9943 64.4251C50.7173 64.8489 50.6669 65.3562 50.8138 65.8033C50.0198 65.5608 49.1607 65.9683 48.8554 66.7547C47.9315 69.1297 47.1591 71.5006 46.6049 73.6231C46.1539 73.7761 45.7757 74.1286 45.6069 74.6132C45.2576 75.6132 44.4309 76.4719 43.3349 76.9679C42.5429 77.3279 41.7029 77.4559 40.9269 77.3492C43.8629 74.3545 43.6043 69.9812 43.3749 66.1039C43.3109 65.0425 43.2523 64.0399 43.2523 63.0719C43.2389 56.4585 46.7056 49.5519 53.5509 42.5465C56.2283 39.8079 60.3269 36.1545 65.0123 36.0265C66.0896 35.9972 67.1909 36.1492 68.3589 36.3119C69.2789 36.4399 70.2309 36.5705 71.2096 36.6159C72.6336 36.6799 74.0336 36.5545 75.3829 36.4319L75.4083 36.4296C76.7136 36.3131 77.9481 36.2029 79.1643 36.2612C81.1509 36.3572 83.5723 37.1225 84.4096 38.9839C84.7723 39.7892 85.7189 40.1492 86.5243 39.7865C87.3296 39.4239 87.6896 38.4772 87.3269 37.6719C85.8976 34.4932 82.2523 33.2079 79.3189 33.0665C77.8809 32.9976 76.4746 33.1239 75.1157 33.246L75.0949 33.2479C73.7936 33.3652 72.5643 33.4745 71.3536 33.4212C70.5387 33.3846 69.7188 33.2713 68.8511 33.1515L68.7963 33.1439C67.5509 32.9705 66.2629 32.7919 64.9216 32.8292C59.0736 32.9865 54.3243 37.1732 51.2603 40.3092C43.8069 47.9332 40.0363 55.5945 40.0496 63.0745C40.0496 64.0835 40.1102 65.1288 40.1689 66.1435L40.1776 66.2932L40.1779 66.2985C40.3911 69.9179 40.5925 73.3368 38.4363 75.3039C37.8923 75.8026 36.6203 76.9705 37.2229 78.5545C37.2416 78.6105 37.2656 78.6639 37.2923 78.7145C37.4683 79.0585 37.7109 79.3599 38.0096 79.6079C38.2843 79.8372 38.5936 80.0079 38.9323 80.1172ZM60.1134 72.4253C60.1134 73.6771 59.2777 74.6919 58.2467 74.6919C57.2158 74.6919 56.3801 73.6771 56.3801 72.4253C56.3801 71.1734 57.2158 70.1586 58.2467 70.1586C59.2777 70.1586 60.1134 71.1734 60.1134 72.4253ZM69.1806 73.0534C69.1806 74.3052 68.3449 75.3201 67.3139 75.3201C66.283 75.3201 65.4473 74.3052 65.4473 73.0534C65.4473 71.8015 66.283 70.7867 67.3139 70.7867C68.3449 70.7867 69.1806 71.8015 69.1806 73.0534Z" fill="black"/>
<path d="M90.499 100C90.739 102.693 91.8403 108.779 95.939 107.867L96.379 108.533C96.179 112.712 94.0617 115.659 90.7443 118.712C87.3737 121.765 83.075 123.6 78.539 123.923C74.539 124.216 70.2857 123.259 67.2937 120.576C64.3017 117.893 62.7283 114.176 64.7097 110.989H64.9977C65.899 111.016 66.7283 110.544 67.491 110.064C68.4617 109.451 69.2883 106.696 69.8883 105.973C70.6883 104.936 72.187 101.243 72.5977 100H90.499V100Z" fill="#FFD39F"/>
<path d="M117.955 174.361C123.861 192.649 127.971 206.676 133.368 224.326C133.635 225.228 134.701 228.414 134.208 229.212C133.877 229.745 133.323 230.086 132.781 230.393C129.821 232.076 126.589 232.217 123.251 232.889L110.859 235.356C93.1227 238.537 75.3227 239.316 57.5547 236.318L54.2027 235.926L42.736 233.732C41.7014 233.534 40.5654 233.27 39.96 232.398C39.4587 231.684 39.4614 230.742 39.4987 229.87C39.6507 226.404 40.0507 222.964 40.4507 219.521L43.6054 192.321C44.9574 180.668 46.312 168.996 48.1547 157.414L48.0267 157.374C44.9254 156.308 41.872 155.124 38.816 153.937C38.3947 153.817 38.016 153.582 37.7174 153.262C37.1174 152.489 37.632 151.38 38.1467 150.545C42.6907 143.158 46.576 135.388 49.7627 127.321C52.1947 121.161 54.7334 114.23 60.6694 111.294L73.0747 112.71L96.416 106.398C100.499 107.492 103.848 110.42 106.597 113.633C110.072 117.694 112.827 122.321 114.747 127.31C118.995 138.358 118.997 150.812 124.12 161.484C121.691 162.204 119.224 162.782 116.731 163.222L117.955 174.361Z" fill="black"/>
<path fill-rule="evenodd" clip-rule="evenodd" d="M74.6121 122.131C73.3614 119.681 72.6121 117.006 72.4121 114.262C79.1534 108.379 86.0254 105.115 93.1748 102.686C93.6174 102.537 94.2228 102.443 94.4574 102.849C94.5454 103.049 94.5668 103.273 94.5214 103.489L94.0441 107.721C93.8201 109.702 93.5721 111.755 92.5321 113.459C91.4334 115.265 89.5721 116.454 87.7321 117.499C84.1241 119.55 80.3481 121.294 76.4468 122.71C76.0148 122.867 75.5054 123.014 75.1134 122.774C74.8921 122.609 74.7188 122.387 74.6121 122.131ZM68.6951 108.797C68.5564 107.186 69.3564 105.656 70.1324 104.237C70.5991 104.205 70.1004 103.37 69.4817 103.29C68.8631 103.21 68.2897 103.624 67.7964 104.01C65.7697 105.592 63.7964 107.264 62.1004 109.194C61.7671 109.469 61.5297 109.84 61.4151 110.256C61.3031 110.672 61.3191 111.112 61.4657 111.517C62.1084 114.432 63.1431 117.245 64.5404 119.882C64.7644 120.306 65.1484 120.792 65.6071 120.661C65.7991 120.586 65.9644 120.458 66.0871 120.293L69.3884 116.56C70.6577 115.128 72.0071 113.488 71.9164 111.576C70.3564 111.997 68.8337 110.408 68.6951 108.797Z" fill="white"/>
<path fill-rule="evenodd" clip-rule="evenodd" d="M39.5091 229.882C39.6611 226.421 40.0611 222.976 40.4611 219.533L43.6185 192.344C44.9518 180.704 46.3118 169.042 48.1518 157.469L48.0291 157.397C45.8505 156.65 43.6958 155.842 41.5465 155.016L41.4371 155.549L37.4665 202.821C37.3038 204.744 37.0691 206.856 35.5865 208.154C35.0088 208.66 34.2733 209.001 33.5479 209.338C32.4114 209.865 31.2996 210.381 30.8585 211.501C30.2922 212.94 31.1877 214.269 32.1087 215.635C32.5972 216.36 33.0928 217.096 33.3811 217.864C33.9393 219.336 33.7111 220.969 33.4852 222.585C33.2255 224.442 32.9689 226.278 33.9145 227.821C35.0025 229.597 37.2585 230.205 39.3091 230.573L39.5091 229.882ZM107.646 216.573C105.499 199.259 104.179 181.896 103.683 164.483L116.846 164.072C117.489 169.884 118.132 175.696 118.776 181.51C120.312 195.388 121.849 209.27 123.384 223.157C123.787 226.789 124.102 230.789 121.99 233.773C121.179 234.917 120.067 235.816 118.776 236.363C117.486 236.909 116.07 237.088 114.683 236.875C113.296 236.661 111.998 236.067 110.931 235.157C109.864 234.248 109.072 233.061 108.643 231.725C108.487 231.238 108.378 230.732 108.269 230.227C108.042 229.177 107.817 228.135 107.179 227.291C106.507 226.399 105.479 225.869 104.458 225.344C103.291 224.744 102.135 224.149 101.536 223.024C100.707 221.459 101.384 219.411 102.72 218.259C104.056 217.107 105.883 216.683 107.646 216.573Z" fill="#FFD39F"/>
<path fill-rule="evenodd" clip-rule="evenodd" d="M75.5994 124.505C75.1807 124.505 74.7221 124.414 74.2794 124.142C74.2394 124.118 74.2021 124.092 74.1647 124.065C73.7274 123.742 73.3834 123.31 73.1647 122.814C72.2543 121.023 71.5983 119.14 71.2031 117.191C71.0319 117.391 70.8676 117.577 70.7167 117.747L67.45 121.437C67.1567 121.811 66.7674 122.101 66.3247 122.275C66.274 122.293 66.2234 122.312 66.1727 122.325C66.0527 122.355 65.8447 122.4 65.5834 122.4C64.9407 122.4 63.986 122.125 63.258 120.749C62.0093 118.394 61.0381 115.901 60.3611 113.323C55.9057 116.129 53.6888 121.76 51.5413 127.217L51.2613 127.926C48.0506 136.057 44.0986 143.955 39.52 151.401C39.216 151.894 39.112 152.185 39.0773 152.334C39.136 152.369 39.2 152.398 39.2693 152.417C39.3173 152.43 39.3626 152.446 39.408 152.462L39.472 152.486L39.5148 152.503C41.9304 153.44 44.4126 154.404 46.8954 155.292C48.0394 148.302 49.3699 141.338 50.989 134.467C51.1916 133.608 52.0503 133.072 52.9143 133.277C53.773 133.48 54.3063 134.341 54.1036 135.203C49.7298 153.769 47.4713 173.104 45.2869 191.805L45.2796 191.867L45.2023 192.533L42.0476 219.733L42.046 219.748C41.6572 223.101 41.2554 226.565 41.1036 229.968C41.085 230.392 41.0503 231.187 41.277 231.507C41.5436 231.885 42.493 232.077 43.0583 232.189L52.341 233.965C53.2076 234.131 53.7783 234.971 53.6103 235.837C53.469 236.6 52.7996 237.133 52.045 237.133C51.9463 237.133 51.845 237.123 51.7436 237.104L42.445 235.325C41.3943 235.115 39.6636 234.765 38.661 233.341C38.3485 232.896 38.158 232.424 38.045 231.947C35.9275 231.479 33.7787 230.647 32.5567 228.652C31.3061 226.618 31.6234 224.348 31.9034 222.348C32.1087 220.89 32.3007 219.511 31.8901 218.423C31.6752 217.846 31.2643 217.233 30.8281 216.583L30.7887 216.524L30.7886 216.524C29.77 215.012 28.5034 213.132 29.3754 210.911C30.0567 209.192 31.6359 208.455 32.9039 207.864L32.9114 207.86C33.5487 207.564 34.1487 207.284 34.5407 206.943C35.5141 206.095 35.7274 204.444 35.8767 202.682L39.7936 156.051C39.2972 155.858 38.8032 155.666 38.312 155.475L38.3066 155.473C37.6373 155.265 37.032 154.886 36.5546 154.371C36.5226 154.337 36.4933 154.302 36.464 154.265C35.552 153.089 35.664 151.563 36.7946 149.726C41.2746 142.441 45.1413 134.71 48.2853 126.753L48.5626 126.046C50.9733 119.918 53.7066 112.974 59.9706 109.878C59.9964 109.865 60.0224 109.853 60.0485 109.842C60.2613 109.223 60.6148 108.659 61.0767 108.197C62.8634 106.243 64.8394 104.445 66.954 102.853C67.5034 102.427 68.5114 101.645 69.826 101.821C70.8607 101.96 72.3407 103 72.298 104.32C72.282 104.8 72.0794 105.224 71.7514 105.523L71.7513 105.523C71.674 105.656 71.5967 105.79 71.5194 105.925L71.5153 105.933C70.9405 106.928 70.3462 107.957 70.4154 108.789C70.4474 109.176 70.7274 109.613 72.522 110.173C73.031 110.332 73.4178 110.729 73.5727 111.222C79.0113 106.921 85.0147 103.772 92.6634 101.174C94.3141 100.617 95.3887 101.262 95.8447 102.049C95.8741 102.102 95.9007 102.156 95.9247 102.209C96.1354 102.692 96.1967 103.214 96.1061 103.732L95.9779 104.871C96.248 104.793 96.5421 104.785 96.8334 104.864C100.639 105.882 104.233 108.416 107.817 112.605C111.42 116.816 114.255 121.576 116.244 126.749C118.215 131.877 119.3 137.317 120.348 142.578L120.356 142.62C121.641 149.066 122.855 155.156 125.567 160.805C125.769 161.229 125.777 161.717 125.585 162.146C125.393 162.576 125.025 162.898 124.577 163.032C122.582 163.617 120.575 164.113 118.558 164.518L119.641 174.391C123.812 187.324 127.107 198.199 130.582 209.665L130.583 209.669L130.584 209.672L130.584 209.672L130.696 210.042C132.035 214.466 133.421 219.04 134.896 223.864C134.928 223.97 134.963 224.085 135.005 224.218C135.904 227.141 136.259 228.938 135.568 230.058C135.04 230.912 134.259 231.4 133.568 231.792C131.087 233.201 128.47 233.631 125.939 234.047L125.938 234.047L125.933 234.048L125.845 234.062L125.844 234.062L125.844 234.062C125.093 234.186 124.322 234.312 123.565 234.466C123.52 234.474 123.475 234.481 123.43 234.486C123.404 234.525 123.377 234.564 123.351 234.603C123.326 234.638 123.302 234.673 123.277 234.708C122.293 236.095 120.946 237.178 119.381 237.842C118.245 238.322 117.034 238.564 115.813 238.564C115.346 238.564 114.88 238.53 114.413 238.458C113.083 238.253 111.821 237.759 110.712 237.013C100.172 238.88 90.1604 239.814 80.525 239.814C72.5543 239.814 64.8423 239.177 57.2903 237.902C56.4183 237.756 55.8317 236.929 55.9783 236.06C56.125 235.188 56.949 234.598 57.821 234.748C73.5257 237.397 89.9751 237.228 108.029 234.228C107.64 233.598 107.327 232.921 107.098 232.21C106.92 231.644 106.8 231.095 106.688 230.562C106.488 229.623 106.312 228.812 105.888 228.247C105.437 227.652 104.602 227.22 103.717 226.764L103.712 226.762C102.415 226.093 100.945 225.336 100.112 223.77C98.9944 221.655 99.6637 218.764 101.672 217.042C102.752 216.114 104.157 215.49 105.861 215.178C103.901 198.843 102.661 182.247 102.17 165.807C99.8929 165.712 97.6118 165.505 95.3294 165.184C94.5214 165.069 93.9294 164.368 93.9534 163.554L94.6814 138.002C94.7054 137.12 95.4414 136.416 96.3268 136.448C97.2094 136.472 97.9054 137.21 97.8814 138.093L97.1934 162.2C105.511 163.192 113.807 162.605 121.897 160.453C119.541 154.911 118.357 148.969 117.208 143.203L117.208 143.203L117.207 143.197C116.185 138.066 115.129 132.765 113.255 127.893C111.396 123.061 108.748 118.616 105.383 114.682C102.233 111.002 99.1641 108.8 96.0041 107.954C95.8769 107.92 95.7575 107.872 95.647 107.811L95.6367 107.902C95.4181 109.844 95.1434 112.257 93.9007 114.294C92.5754 116.473 90.4314 117.809 88.5247 118.892C84.8474 120.982 80.9701 122.772 76.9941 124.214C76.7301 124.316 76.2074 124.505 75.5994 124.505ZM74.0821 114.942C74.3327 117.124 74.9541 119.225 75.9327 121.201C79.7274 119.822 83.4314 118.11 86.9434 116.116C88.5007 115.23 90.2394 114.161 91.1674 112.636C92.0428 111.204 92.2518 109.353 92.454 107.562L92.4554 107.55L92.7967 104.518C85.2501 107.172 79.4127 110.422 74.0821 114.942ZM125.416 230.888C125.244 230.916 125.071 230.944 124.896 230.972C125.535 228.157 125.211 225.193 124.971 222.995L124.97 222.991L121.422 190.636C123.532 197.435 125.494 203.913 127.517 210.591L127.518 210.595L127.518 210.596L127.632 210.97C128.971 215.397 130.357 219.973 131.829 224.786C131.852 224.863 131.881 224.957 131.914 225.064L131.944 225.16C132.571 227.202 132.731 228.109 132.736 228.504C132.554 228.683 132.24 228.863 132.022 228.988L131.987 229.008C130.006 230.135 127.787 230.499 125.438 230.884L125.416 230.888ZM116.429 174.858C116.341 174.587 116.33 174.309 116.383 174.048L115.399 165.076C112.078 165.585 108.732 165.849 105.374 165.866C105.881 182.692 107.178 199.677 109.232 216.378C109.285 216.815 109.157 217.255 108.874 217.596C108.592 217.935 108.184 218.143 107.744 218.17C105.976 218.279 104.634 218.716 103.76 219.468C102.888 220.218 102.522 221.474 102.944 222.268C103.305 222.948 104.172 223.396 105.175 223.913L105.186 223.919L105.198 223.925C106.304 224.497 107.557 225.144 108.445 226.319C109.297 227.448 109.575 228.743 109.82 229.886L109.82 229.886L109.82 229.886L109.821 229.89L109.836 229.959C109.934 230.414 110.027 230.843 110.152 231.236C110.488 232.284 111.112 233.22 111.952 233.94C112.792 234.658 113.816 235.127 114.906 235.295C116 235.463 117.114 235.324 118.133 234.895C119.152 234.463 120.026 233.759 120.666 232.858C122.397 230.418 122.186 226.964 121.789 223.34L116.494 175.06L116.429 174.858ZM46.3812 158.514C44.6674 169.524 43.3763 180.575 42.1101 191.413L42.101 191.491L38.869 219.36L38.8579 219.456C38.5112 222.452 38.1542 225.537 37.9708 228.63C36.8253 228.306 35.7981 227.816 35.2821 226.975C34.6341 225.919 34.8367 224.469 35.0714 222.789L35.0714 222.788L35.0735 222.774C35.3103 221.071 35.5787 219.14 34.8847 217.295C34.5301 216.351 33.9781 215.53 33.4421 214.735C32.6047 213.492 32.1114 212.692 32.3514 212.084C32.5619 211.549 33.3473 211.184 34.2582 210.76L34.2607 210.759C35.0341 210.399 35.9087 209.991 36.6421 209.354C38.5194 207.722 38.8687 205.295 39.0661 202.948L42.9052 157.242C44.0577 157.676 45.2179 158.103 46.3812 158.514ZM63.138 111.189C63.106 111.072 63.09 110.955 63.0954 110.835C63.1514 110.693 63.2394 110.563 63.3514 110.453L63.3515 110.453C63.3755 110.429 63.3967 110.408 63.418 110.384C64.746 108.928 66.186 107.568 67.7167 106.323C67.37 107.157 67.1514 108.064 67.234 109.053C67.41 111.155 68.978 112.203 70.29 112.765C69.9514 113.723 69.146 114.691 68.3247 115.619L65.7274 118.552C64.578 116.245 63.7167 113.805 63.162 111.285L63.138 111.189ZM69.9991 127.204C70.8091 127.204 71.4658 126.548 71.4658 125.738C71.4658 124.928 70.8091 124.271 69.9991 124.271C69.1891 124.271 68.5324 124.928 68.5324 125.738C68.5324 126.548 69.1891 127.204 69.9991 127.204ZM70.4001 135.869C70.4001 136.679 69.7435 137.336 68.9335 137.336C68.1234 137.336 67.4668 136.679 67.4668 135.869C67.4668 135.059 68.1234 134.402 68.9335 134.402C69.7435 134.402 70.4001 135.059 70.4001 135.869Z" fill="black"/>
</svg>
