<svg width="160" height="260" viewBox="0 0 160 260" fill="none" xmlns="http://www.w3.org/2000/svg">
<path d="M100.533 92.4314C101.067 94.0687 103.563 93.4287 104.915 92.3567C111.357 87.2447 115.187 79.098 115.373 70.874C115.56 62.65 112.203 54.4714 106.557 48.49C103.184 44.9194 98.6346 41.9807 93.7306 42.2314L85.8666 38.3327C84.7759 35.9087 81.8932 34.7967 79.2399 34.6687C76.5866 34.5407 73.9333 35.1434 71.2799 35.0234C69.1652 34.9274 67.0799 34.3754 64.9653 34.434C60.0506 34.5674 55.8426 37.9167 52.4053 41.434C46.6266 47.346 41.6346 54.8127 41.6506 63.082C41.6506 67.77 42.9839 73.3274 39.5173 76.49C39.0693 76.9007 38.5013 77.4234 38.7173 77.9914C38.7946 78.1407 38.8986 78.274 39.0293 78.3807C39.1599 78.4874 39.3093 78.5674 39.4693 78.6127C42.3679 79.7887 46.0826 78.1114 47.1146 75.146L52.3359 65.2954C54.0853 62.6287 57.7066 61.8447 60.8826 62.17C64.0586 62.4954 67.1039 63.674 70.2853 63.9594C72.8453 64.1674 75.4212 63.7994 77.8212 62.882C80.2212 61.9647 82.3839 60.5167 84.1519 58.65L85.7519 59.082C87.2826 59.8394 88.5732 61.01 89.4799 62.458C90.3839 63.9087 90.8693 65.5807 90.8773 67.29C90.8613 69.042 90.3439 70.7434 90.0559 72.474C89.7679 74.2047 89.7706 76.0874 90.6959 77.5754C91.6212 79.0634 93.7279 79.9114 95.2079 78.97" fill="black"/>
<path d="M90.5591 104.368C90.2524 100.72 90.9618 97.8721 92.5484 94.5707C92.9058 93.8241 93.6818 93.8321 94.4471 93.5894C95.1244 93.3761 95.7964 93.1307 96.4524 92.8534C97.7884 92.2987 99.0498 91.5814 100.212 90.7201C102.511 88.9841 104.3 86.5467 104.975 83.7201C105.586 81.1574 105.156 78.1067 102.295 76.6641C100.29 75.6507 98.4898 76.0107 95.4311 78.6987L95.2151 78.9841C93.7351 79.9254 91.6258 79.0801 90.7031 77.5894C89.7804 76.0987 89.7831 74.2187 90.0631 72.4881C90.3431 70.7574 90.8631 69.0561 90.8844 67.3041C90.8764 65.5947 90.3911 63.9227 89.4871 62.4721C88.5831 61.0214 87.2924 59.8534 85.7591 59.0961L84.1591 58.6641C82.3911 60.5307 80.2284 61.9761 77.8284 62.8961C75.4284 63.8161 72.8524 64.1841 70.2924 63.9734C67.1111 63.6881 64.0658 62.5121 60.8898 62.1841C57.7138 61.8561 54.0924 62.6374 52.3431 65.3094L50.6658 66.9307C49.0658 69.3307 48.7991 72.2641 47.9991 75.1974C47.9991 76.0401 44.7564 87.4214 52.2658 94.9307C54.9324 97.5974 58.3991 98.6641 61.9991 99.4641C65.2284 99.9627 68.7564 100.464 71.8658 99.1974C71.6871 101.973 71.7164 104.416 71.8444 107.195" fill="#FFD39F"/>
<path fill-rule="evenodd" clip-rule="evenodd" d="M38.9323 80.1172C39.7269 80.4319 40.5856 80.5866 41.4576 80.5866C42.5296 80.5866 43.6229 80.3545 44.6576 79.8852C44.9937 79.733 45.3158 79.5593 45.6219 79.3662C45.1693 86.4218 47.2666 92.6247 51.4714 96.5413C53.906 98.8053 57.066 100.253 61.1327 100.971C63.65 101.411 66.914 101.979 70.1194 101.36C70.066 102.648 70.0847 103.592 70.17 105.469C70.21 106.328 70.9167 106.997 71.7674 106.997C71.794 106.997 71.818 106.997 71.8447 106.987C72.7274 106.947 73.41 106.197 73.37 105.315C73.242 102.563 73.2714 101.971 73.442 99.288C73.4767 98.7387 73.226 98.208 72.778 97.888C72.33 97.568 71.7487 97.4987 71.2394 97.7067C68.426 98.856 65.2474 98.4373 61.6847 97.816C58.1994 97.2027 55.6474 96.0533 53.6527 94.1973C49.922 90.7253 48.1994 84.9467 48.922 78.3467C49.1407 76.3707 50.0207 72.592 51.8394 67.9147C51.9794 67.5541 51.98 67.1737 51.8674 66.833C52.0201 66.8795 52.1769 66.9024 52.3329 66.9024C52.8556 66.9024 53.3649 66.6491 53.6689 66.1771C55.0876 64.0144 58.2396 63.5131 60.7143 63.7664C62.1477 63.9118 63.5628 64.2488 65.061 64.6055L65.061 64.6055L65.0983 64.6144C66.7169 65.001 68.3943 65.4011 70.1489 65.5584C72.9329 65.7851 75.7809 65.377 78.3889 64.3797C80.7471 63.4779 82.9287 62.0834 84.7445 60.3262C84.8374 60.4026 84.9404 60.4697 85.0528 60.5254C86.3195 61.152 87.3835 62.1174 88.1328 63.3147C88.8795 64.5147 89.2795 65.896 89.2875 67.2854C89.2795 68.328 89.0555 69.3974 88.8182 70.528L88.8072 70.5805C88.6959 71.111 88.5804 71.6612 88.4875 72.2214C88.0608 74.7814 88.3408 76.8134 89.3462 78.4294C90.0955 79.632 91.3675 80.5387 92.7515 80.8534C93.1062 80.9334 93.4608 80.9734 93.8102 80.9734C94.6235 80.9734 95.4048 80.7547 96.0768 80.3307C96.3194 80.176 96.5064 79.9668 96.6318 79.7293C99.431 77.3141 100.479 77.5324 101.548 78.0733C104.047 79.3346 103.663 82.1666 103.38 83.332C102.831 85.644 101.348 87.8093 99.22 89.4173C98.164 90.2013 97.0147 90.8546 95.7907 91.3613C95.1853 91.6173 94.5587 91.8466 93.924 92.0466C93.8273 92.0782 93.719 92.1047 93.6043 92.1329L93.6042 92.1329L93.5107 92.156C92.8227 92.3213 91.6733 92.5986 91.0653 93.86C89.4067 97.3133 88.6253 99.1533 88.964 103.169C89.0333 104.004 89.7347 104.636 90.556 104.636C90.6013 104.636 90.6467 104.633 90.6947 104.623C91.5747 104.551 92.228 103.775 92.1533 102.895C91.8867 99.7586 92.3613 98.556 93.8947 95.356C93.9704 95.3314 94.0776 95.3053 94.1763 95.2812L94.1764 95.2812C94.2063 95.2739 94.2354 95.2668 94.2627 95.26C94.4493 95.2146 94.6627 95.1613 94.884 95.092C95.612 94.8653 96.3347 94.5986 97.0253 94.308C97.7494 94.0083 98.455 93.6637 99.1382 93.2766C99.4995 94.0569 100.149 94.6165 100.997 94.8711C101.344 94.9751 101.706 95.0205 102.074 95.0205C103.464 95.0205 104.941 94.3618 105.898 93.6045C112.624 88.2685 116.762 79.7831 116.962 70.9058C117.154 62.3938 113.784 53.8205 107.709 47.3858C103.362 42.7858 98.3677 40.3858 93.6371 40.6285C92.7544 40.6738 92.0744 41.4258 92.1197 42.3085C92.1651 43.1911 92.9171 43.8738 93.7997 43.8258C98.8957 43.5698 103.245 47.3245 105.381 49.5858C110.882 55.4151 113.936 63.1591 113.762 70.8365C113.581 78.7751 109.898 86.3511 103.912 91.1005C103.218 91.6471 102.349 91.8631 102.002 91.8258C101.947 91.6904 101.875 91.5661 101.79 91.4548C104.171 89.453 105.828 86.8578 106.489 84.076C107.433 80.1773 106.092 76.7826 102.988 75.2146C100.988 74.204 98.5533 73.7773 94.3453 77.476C94.253 77.5572 94.1721 77.6467 94.103 77.7424C93.8756 77.8015 93.6404 77.7764 93.4635 77.736C92.9115 77.608 92.3622 77.2187 92.0662 76.7414C91.4982 75.8267 91.3568 74.4827 91.6448 72.7467C91.7171 72.2966 91.8098 71.8506 91.9069 71.3836L91.9069 71.3836L91.9069 71.3835L91.9069 71.3835L91.9069 71.3834L91.9488 71.1814C92.2075 69.9467 92.4742 68.672 92.4875 67.2907C92.4768 65.2827 91.9115 63.3227 90.8475 61.6187C89.7835 59.9174 88.2715 58.5467 86.4715 57.656C86.0957 57.47 85.682 57.4455 85.3091 57.5558C85.2893 57.5349 85.2688 57.5144 85.2476 57.4944C84.6076 56.8864 83.5943 56.913 82.9863 57.5557C81.3916 59.2384 79.4076 60.5637 77.2449 61.393C75.0823 62.2224 72.7169 62.5584 70.4236 62.3717C68.9267 62.2397 67.4507 61.8881 65.8894 61.5163L65.8893 61.5163L65.8893 61.5162L65.8892 61.5162L65.8423 61.505C64.2983 61.137 62.6983 60.7557 61.0423 60.585C56.6263 60.1344 52.8689 61.5691 50.9943 64.4251C50.7173 64.8489 50.6669 65.3562 50.8138 65.8033C50.0198 65.5608 49.1607 65.9683 48.8554 66.7547C47.9315 69.1297 47.1591 71.5006 46.6049 73.6231C46.1539 73.7761 45.7757 74.1286 45.6069 74.6132C45.2576 75.6132 44.4309 76.4719 43.3349 76.9679C42.5429 77.3279 41.7029 77.4559 40.9269 77.3492C43.8629 74.3545 43.6043 69.9812 43.3749 66.1039C43.3109 65.0425 43.2523 64.0399 43.2523 63.0719C43.2389 56.4585 46.7056 49.5519 53.5509 42.5465C56.2283 39.8079 60.3269 36.1545 65.0123 36.0265C66.0896 35.9972 67.1909 36.1492 68.3589 36.3119C69.2789 36.4399 70.2309 36.5705 71.2096 36.6159C72.6336 36.6799 74.0336 36.5545 75.3829 36.4319L75.4083 36.4296C76.7136 36.3131 77.9481 36.2029 79.1643 36.2612C81.1509 36.3572 83.5723 37.1225 84.4096 38.9839C84.7723 39.7892 85.7189 40.1492 86.5243 39.7865C87.3296 39.4239 87.6896 38.4772 87.3269 37.6719C85.8976 34.4932 82.2523 33.2079 79.3189 33.0665C77.8809 32.9976 76.4746 33.1239 75.1157 33.246L75.0949 33.2479C73.7936 33.3652 72.5643 33.4745 71.3536 33.4212C70.5387 33.3846 69.7188 33.2713 68.8511 33.1515L68.7963 33.1439C67.5509 32.9705 66.2629 32.7919 64.9216 32.8292C59.0736 32.9865 54.3243 37.1732 51.2603 40.3092C43.8069 47.9332 40.0363 55.5945 40.0496 63.0745C40.0496 64.0835 40.1102 65.1288 40.1689 66.1435L40.1776 66.2932L40.1779 66.2985C40.3911 69.9179 40.5925 73.3368 38.4363 75.3039C37.8923 75.8026 36.6203 76.9705 37.2229 78.5545C37.2416 78.6105 37.2656 78.6639 37.2923 78.7145C37.4683 79.0585 37.7109 79.3599 38.0096 79.6079C38.2843 79.8372 38.5936 80.0079 38.9323 80.1172ZM60.1134 72.4253C60.1134 73.6771 59.2777 74.6919 58.2467 74.6919C57.2158 74.6919 56.3801 73.6771 56.3801 72.4253C56.3801 71.1734 57.2158 70.1586 58.2467 70.1586C59.2777 70.1586 60.1134 71.1734 60.1134 72.4253ZM69.1806 73.0534C69.1806 74.3052 68.3449 75.3201 67.3139 75.3201C66.283 75.3201 65.4473 74.3052 65.4473 73.0534C65.4473 71.8015 66.283 70.7867 67.3139 70.7867C68.3449 70.7867 69.1806 71.8015 69.1806 73.0534Z" fill="black"/>
<path fill-rule="evenodd" clip-rule="evenodd" d="M95.9394 107.867C91.8407 108.779 90.7394 102.693 90.4994 100H72.6007C72.4528 100.448 72.3159 101.245 72.1639 102.13C71.894 103.701 71.5765 105.55 71.0647 106.213C70.9974 106.294 70.9124 106.398 70.8131 106.519C70.0282 107.476 68.3531 109.52 67.4914 110.064C66.7287 110.544 65.8994 111.016 64.9981 110.989H64.7101C62.7287 114.176 64.3021 117.893 67.2941 120.576C70.2861 123.259 74.5394 124.216 78.5394 123.923C83.0754 123.6 87.3741 121.765 90.7447 118.712C94.0621 115.659 96.1794 112.712 96.3794 108.533L95.9394 107.867ZM100.172 142.665L100.542 143.086C100.316 162.195 102.285 181.287 104.29 200.738V200.738L104.291 200.74C104.834 206.012 105.38 211.31 105.886 216.641C104.961 216.718 104.081 217.078 103.372 217.676C102.66 218.273 102.15 219.076 101.916 219.974C101.678 220.873 101.729 221.822 102.054 222.692C102.38 223.561 102.969 224.308 103.737 224.83C104.174 225.126 104.657 225.342 105.14 225.558L105.14 225.558C105.572 225.75 106.004 225.943 106.404 226.193C108.288 227.368 109.15 229.544 110.005 231.705C110.914 234.002 111.817 236.282 113.934 237.324C116.966 238.814 120.766 236.54 122.14 233.449C123.513 230.358 123.137 226.814 122.729 223.46C120.988 209.188 116.836 167.382 116.11 158.633C116.11 158.633 112.633 126.292 111.737 122.577C110.841 118.862 107.804 115.684 105.036 113.049L104.438 112.663C102.569 117.39 97.4224 137.649 100.172 142.665ZM57.4057 115.94L57.899 114.409C56.3364 114.836 55.1577 116.103 54.1657 117.377C51.0804 121.321 49.451 126.324 48.683 131.271C48.1314 134.825 47.5057 138.819 46.8301 143.131L46.8301 143.131C43.7789 162.604 39.7103 188.57 36.859 209.927C35.9977 209.823 35.123 209.972 34.3417 210.351C33.5604 210.729 32.9044 211.327 32.4537 212.068C32.003 212.809 31.771 213.665 31.7924 214.532C31.811 215.401 32.0804 216.244 32.5657 216.964C32.6906 217.147 32.8289 217.321 32.9672 217.496L32.9672 217.496C33.1478 217.724 33.3282 217.951 33.4777 218.196C34.1524 219.321 34.115 220.721 34.035 222.033L34.0217 222.251C33.8753 224.636 33.7221 227.131 34.7444 229.284C35.7977 231.503 38.6137 233.095 40.771 231.921C42.275 231.1 42.9204 229.313 43.4377 227.681C44.1657 225.527 44.7844 223.335 45.2884 221.116C45.8617 218.383 48.2217 206.255 48.451 203.468L46.3124 202.42C46.3124 202.42 53.995 145.025 57.4057 115.94Z" fill="#FFD39F"/>
<path d="M100.17 142.667C97.4211 137.651 102.568 117.393 104.434 112.665C104.624 112.302 104.365 112.547 104.322 112.142C104.192 111.521 98.8451 108.145 96.4505 107.867C95.9971 112.401 94.0985 115.63 90.7411 118.713C87.3705 121.766 83.0718 123.601 78.5358 123.923C74.5358 124.217 70.2825 123.259 67.2905 120.577C64.2985 117.894 62.8905 113.297 64.8718 110.118L59.4665 112.598C58.8238 112.891 58.1331 113.217 57.7678 113.817C57.4025 114.417 57.5011 115.219 57.4211 115.95C53.9998 145.035 45.3358 200.785 46.1091 200.87C63.9971 202.987 87.1118 204.894 104.448 199.998H104.49C103.066 180.798 100.333 161.961 100.562 143.094" fill="black"/>
<path fill-rule="evenodd" clip-rule="evenodd" d="M95.4951 106.584C95.8207 106.342 96.2286 106.233 96.6317 106.279C98.349 106.479 100.752 107.751 102.032 108.492C105.061 110.247 105.65 111.074 105.821 111.57C105.85 111.614 105.877 111.66 105.903 111.707C105.986 111.761 106.066 111.823 106.14 111.895C109.287 114.887 112.332 118.209 113.295 122.207C114.202 125.98 117.559 157.14 117.7 158.465C117.7 158.479 117.703 158.492 117.703 158.505C118.455 167.575 122.594 209.151 124.316 223.271L124.317 223.273C124.709 226.499 125.196 230.511 123.602 234.103C122.631 236.289 120.65 238.145 118.431 238.951C117.61 239.239 116.783 239.388 115.978 239.388C115.012 239.388 114.076 239.177 113.226 238.759C110.556 237.445 109.473 234.712 108.516 232.297L108.514 232.292L108.509 232.281C107.727 230.306 106.988 228.442 105.554 227.548C105.253 227.36 104.891 227.197 104.507 227.025L104.484 227.015L104.451 227C103.947 226.774 103.377 226.519 102.836 226.151C101.788 225.439 100.999 224.436 100.554 223.249C100.108 222.063 100.044 220.788 100.367 219.564C100.69 218.34 101.372 217.263 102.343 216.447C102.89 215.988 103.503 215.633 104.162 215.393C103.731 210.93 103.271 206.449 102.821 202.079C95.1374 203.977 86.4654 204.668 77.661 204.668C68.2015 204.668 58.5855 203.87 49.8586 202.908C49.2343 207.662 47.3873 218.9 46.8558 221.44C46.8544 221.444 46.8538 221.449 46.8531 221.453C46.8524 221.458 46.8518 221.463 46.8504 221.466C46.3358 223.725 45.7011 225.981 44.9598 228.173C44.4878 229.664 43.6958 232.141 41.5384 233.32C40.8158 233.72 40.0104 233.917 39.1784 233.917C38.6051 233.917 38.0184 233.824 37.4371 233.635C35.6851 233.064 34.0984 231.661 33.2984 229.973C32.0995 227.45 32.2714 224.642 32.4233 222.161L32.4238 222.154L32.4371 221.938C32.5064 220.808 32.5331 219.736 32.1038 219.021C32.0203 218.884 31.8893 218.717 31.7483 218.537L31.7482 218.537L31.7118 218.491C31.5651 218.307 31.3998 218.099 31.2424 217.869C30.5784 216.885 30.2158 215.749 30.1891 214.571C30.1624 213.395 30.4718 212.24 31.0851 211.235C31.6984 210.229 32.5811 209.427 33.6398 208.912C34.2158 208.632 34.8291 208.445 35.4558 208.354C38.273 187.677 41.9827 163.923 44.9765 144.752L44.9811 144.722L45.4181 141.922L45.4185 141.92C46.0309 137.995 46.602 134.336 47.1118 131.029C48.0318 125.066 49.9838 120.141 52.9144 116.394C53.7756 115.288 54.8175 114.115 56.1949 113.384C56.2521 113.25 56.3197 113.117 56.3997 112.986C57.026 111.956 58.0856 111.47 58.7897 111.148L58.7997 111.143L64.205 108.666C64.8146 108.387 65.5299 108.517 65.9978 108.984C67.0678 108.525 67.8451 107.824 68.4184 107.307L68.4284 107.298L68.5244 107.21C69.5537 106.282 69.663 106.034 69.8817 105.536C69.8986 105.496 69.9162 105.457 69.9342 105.417C69.9503 105.381 69.9667 105.344 69.983 105.306C70.3484 104.501 71.295 104.144 72.1004 104.509C72.9057 104.874 73.263 105.821 72.8977 106.626L72.8097 106.824C72.4337 107.68 72.103 108.296 70.6657 109.589L70.5724 109.672L70.5689 109.675C69.6834 110.475 68.1083 111.899 65.6603 112.443C65.224 114.674 66.2519 117.498 68.357 119.388C70.7677 121.551 74.4343 122.623 78.4183 122.33C82.581 122.034 86.5757 120.33 89.6663 117.53C92.3456 115.07 93.8726 112.639 94.5428 109.67C92.3287 109.213 91.502 107.741 90.8239 106.53L90.7941 106.477L90.794 106.477C90.6034 106.139 90.4065 105.789 90.1759 105.447C89.6826 104.714 89.8772 103.719 90.6079 103.226C91.3412 102.733 92.3359 102.927 92.8292 103.658C93.1466 104.127 93.3946 104.57 93.6132 104.962L93.6162 104.967C94.2625 106.118 94.4663 106.481 95.4951 106.584ZM48.5838 199.541C48.6401 199.546 48.6954 199.553 48.7498 199.563C65.777 201.496 86.5162 202.928 102.49 198.863C100.544 179.961 98.7646 162.016 98.9365 143.692C98.8716 143.614 98.8131 143.529 98.7623 143.436C97.3783 140.914 97.4557 135.471 98.9944 127.263C100.064 121.556 101.645 115.66 102.693 112.735C101.797 112.02 99.509 110.634 97.7597 109.908C97.0023 113.719 95.1223 116.858 91.821 119.887C88.1943 123.172 83.5197 125.17 78.6477 125.516C73.805 125.868 69.277 124.503 66.221 121.764C63.8637 119.65 62.213 116.26 62.3677 113.023L60.1303 114.05L60.1175 114.055C59.9413 114.137 59.7072 114.244 59.5087 114.356C59.5249 114.801 59.3536 115.227 59.0502 115.536C59.0424 115.72 59.0309 115.919 59.0077 116.122C59.0023 116.172 58.9943 116.223 58.9837 116.271C53.7757 141.524 48.0983 191.002 47.6637 199.439C47.9484 199.472 48.2342 199.505 48.5211 199.537C48.542 199.538 48.5628 199.54 48.5838 199.541ZM47.7837 168.226C48.9869 158.57 52.0268 135.249 55.2595 118.599C52.7671 121.887 51.0922 126.23 50.2744 131.52C49.7455 134.953 49.1507 138.765 48.5121 142.857L48.5119 142.859L48.1438 145.218C45.0851 164.802 41.2798 189.176 38.4451 210.141C38.3278 211.008 37.5358 211.616 36.6718 211.514C36.1118 211.448 35.5491 211.544 35.0424 211.789C34.5358 212.035 34.1118 212.419 33.8211 212.901C33.5278 213.381 33.3811 213.933 33.3918 214.496C33.4051 215.058 33.5784 215.603 33.8931 216.069C33.9811 216.197 34.0984 216.347 34.2211 216.501L34.2535 216.542L34.2536 216.542C34.4428 216.783 34.6533 217.05 34.8424 217.36C35.7464 218.869 35.7278 220.544 35.6318 222.128L35.6184 222.346C35.4824 224.544 35.3438 226.816 36.1891 228.595C36.6211 229.501 37.4984 230.285 38.4291 230.587C38.8398 230.72 39.4478 230.816 40.0078 230.512C40.9598 229.992 41.4718 228.587 41.9144 227.195C41.9171 227.184 41.9198 227.176 41.9251 227.165C42.6318 225.075 43.2371 222.923 43.7278 220.771C44.2421 218.308 46.0746 207.139 46.6798 202.547C46.4255 202.517 46.1721 202.487 45.9197 202.458C45.477 202.404 45.061 202.159 44.797 201.799C44.3623 201.202 44.1837 200.954 45.189 190.932C45.8183 184.66 46.7383 176.596 47.7837 168.226ZM102.141 127.852C103.063 122.929 104.287 118.28 105.177 115.421C107.49 117.741 109.53 120.242 110.183 122.953C110.868 125.812 113.316 147.631 114.516 158.785C115.274 167.913 119.415 209.516 121.14 223.652C121.578 227.257 121.823 230.22 120.676 232.799C120.055 234.196 118.746 235.428 117.338 235.937C116.655 236.185 115.634 236.375 114.639 235.887C113.08 235.12 112.312 233.182 111.497 231.128L111.492 231.116L111.491 231.113C110.595 228.849 109.582 226.289 107.252 224.836C106.756 224.527 106.244 224.297 105.791 224.095C105.359 223.903 104.951 223.721 104.634 223.505C104.138 223.167 103.762 222.692 103.551 222.129C103.34 221.567 103.311 220.961 103.463 220.38C103.615 219.799 103.938 219.289 104.399 218.903C104.86 218.516 105.418 218.284 106.018 218.236C106.444 218.201 106.839 217.996 107.114 217.668C107.388 217.34 107.519 216.916 107.479 216.489C106.976 211.184 106.425 205.842 105.892 200.675C106.05 200.339 106.093 199.945 105.984 199.559C105.928 199.363 105.838 199.186 105.723 199.032C103.745 179.827 101.922 161.628 102.143 143.105C102.149 142.591 101.911 142.13 101.537 141.833C101.152 141.059 100.247 137.977 102.141 127.852ZM46.285 199.279C46.2887 199.279 46.2924 199.28 46.2964 199.28C46.301 199.281 46.306 199.282 46.3117 199.282L46.3067 199.281L46.3038 199.28C46.2968 199.279 46.2909 199.279 46.285 199.279Z" fill="black"/>
</svg>
