<svg width="160" height="260" viewBox="0 0 160 260" fill="none" xmlns="http://www.w3.org/2000/svg">
<path d="M44.7524 78.6219C42.315 77.5233 40.819 75.0086 39.9657 72.4886C37.6084 65.5099 39.0964 57.5953 42.867 51.2673C46.6377 44.9393 52.491 40.0673 58.867 36.3579C63.803 33.4859 69.267 31.2086 74.9817 31.1233C80.6964 31.0379 86.6777 33.4779 89.7044 38.3233L93.4884 41.6566C98.2884 40.9233 102.963 43.5926 106.648 46.7553C111.182 50.6379 114.96 55.4913 117.094 61.0646C119.227 66.6379 119.63 72.9499 117.688 78.5926C115.923 83.7153 111.382 88.5286 105.979 88.1126" fill="black"/>
<path d="M71.771 106.731C71.643 103.953 71.6697 101.971 71.8457 99.1953C68.5177 100.555 64.8377 99.9953 61.4084 99.398C58.1204 98.8193 55.0457 97.6833 52.563 95.374C47.9044 91.0353 46.667 84.2673 47.3337 78.1767C47.6004 75.758 48.6297 71.7633 50.3497 67.3393L52.3924 64.438C54.3924 61.1473 56.8964 58.1073 60.059 55.9047C63.2217 53.702 67.091 52.406 70.9257 52.7287C71.9924 52.8193 73.0937 53.046 73.9897 53.646C74.8857 54.246 75.5524 55.2753 75.475 56.35L79.507 58.6753C81.2217 57.5047 83.7444 58.4087 84.9337 60.1233C86.123 61.838 86.2857 64.0353 86.2137 66.1127C86.1417 68.19 85.875 70.302 86.3604 72.3207C86.779 73.95 87.6564 75.4247 88.891 76.5687C90.1257 77.7127 91.6617 78.478 93.3177 78.7713L95.403 78.67C98.4617 75.982 100.262 75.622 102.27 76.6353C105.128 78.078 105.558 81.1287 104.936 83.6913C104.264 86.518 102.472 88.9553 100.174 90.6913C99.0137 91.5527 97.7497 92.27 96.4137 92.8247C95.7577 93.102 95.0884 93.3473 94.4084 93.5607C93.643 93.8033 92.8697 93.7953 92.5097 94.542C90.9257 97.8433 90.251 100.977 90.5604 104.625" fill="#FFD39F"/>
<path fill-rule="evenodd" clip-rule="evenodd" d="M44.1002 80.0743C44.3135 80.1676 44.5322 80.213 44.7509 80.213C45.048 80.213 45.3394 80.129 45.5908 79.9746C45.2929 86.779 47.3888 92.7403 51.4729 96.5444C53.9076 98.8084 57.0676 100.256 61.1343 100.974C63.6516 101.414 66.9156 101.982 70.1209 101.363C70.0676 102.651 70.0863 103.595 70.1716 105.472C70.2116 106.331 70.9183 107 71.7689 107C71.7929 107 71.8169 107 71.8463 106.99C72.7289 106.95 73.4116 106.2 73.3716 105.318C73.2436 102.566 73.2729 101.974 73.4436 99.2911C73.4783 98.7418 73.2276 98.2138 72.7796 97.8911C72.3316 97.5711 71.7503 97.5018 71.2409 97.7098C68.4303 98.8591 65.2489 98.4405 61.6863 97.8191C58.2009 97.2058 55.6489 96.0564 53.6543 94.2004C49.9236 90.7284 48.2009 84.9498 48.9236 78.3498C49.1423 76.3738 50.0223 72.5951 51.8409 67.9178C52.1609 67.0938 51.7529 66.1658 50.9289 65.8458C50.1049 65.5258 49.1769 65.9338 48.8569 66.7578C47.3257 70.6942 46.2106 74.619 45.8154 77.4209C45.6952 77.3139 45.5566 77.2234 45.4015 77.1543C43.2842 76.2103 42.1002 73.8156 41.4789 71.9676C39.4095 65.8636 40.4389 58.429 44.2309 52.0796C47.4895 46.6236 52.6816 41.797 59.6629 37.733C65.3429 34.4263 70.3589 32.7863 74.9962 32.7143C80.6042 32.6316 85.8362 35.1596 88.3375 39.1623C88.8069 39.9116 89.7936 40.141 90.5429 39.6716C91.2922 39.2023 91.5216 38.2156 91.0522 37.4663C87.9242 32.4556 81.7402 29.4103 74.9482 29.5143C69.7455 29.5943 64.2202 31.3756 58.0522 34.965C50.5989 39.3036 45.0229 44.509 41.4842 50.437C37.2202 57.581 36.0842 66.013 38.4495 72.989C39.6335 76.5063 41.5855 78.9543 44.1002 80.0743ZM106.628 89.729C106.366 89.729 106.108 89.7183 105.846 89.6996C105.173 89.6486 104.628 89.1854 104.44 88.5765C103.553 89.842 102.439 90.9948 101.137 91.9778C99.8627 92.9244 98.4813 93.7084 97.0253 94.3111C96.3347 94.6018 95.612 94.8684 94.884 95.0951C94.6627 95.1644 94.4493 95.2178 94.2627 95.2631C94.2476 95.2669 94.2319 95.2707 94.2158 95.2747C94.203 95.2778 94.1899 95.281 94.1767 95.2842C94.0778 95.3083 93.9705 95.3345 93.8947 95.3591C92.3613 98.5591 91.8867 99.7617 92.1533 102.898C92.228 103.778 91.5747 104.551 90.6947 104.626C90.6467 104.636 90.6013 104.639 90.556 104.639C89.7347 104.639 89.0333 104.01 88.964 103.172C88.6253 99.1564 89.4067 97.3191 91.0653 93.8631C91.6733 92.6018 92.8227 92.3244 93.5107 92.1591L93.6042 92.136C93.7189 92.1079 93.8273 92.0813 93.924 92.0498C94.5587 91.8498 95.1853 91.6204 95.7907 91.3644C97.0147 90.8577 98.164 90.2044 99.22 89.4204C101.348 87.8124 102.831 85.6498 103.38 83.3351C103.663 82.1698 104.047 79.3378 101.548 78.0764C100.457 77.5244 99.388 77.3084 96.4573 79.8844C95.8706 80.4004 95.0133 80.4085 94.4188 79.9453C94.1279 80.2209 93.7359 80.3853 93.3182 80.3853C93.2248 80.3853 93.1315 80.3773 93.0355 80.3613C91.0728 80.0119 89.2622 79.1106 87.8008 77.7559C86.3395 76.4012 85.3048 74.6626 84.8088 72.7319C84.3635 70.8759 84.4595 69.0706 84.5528 67.3213L84.5664 67.0598V67.0597V67.0596V67.0596V67.0595V67.0594V67.0593C84.5837 66.7289 84.6009 66.3997 84.6115 66.0706C84.6675 64.4813 84.6035 62.4733 83.6168 61.0493C82.9288 60.0573 81.3422 59.3719 80.4062 60.0119C79.6755 60.5106 78.6808 60.3213 78.1822 59.5933C77.6835 58.8626 77.8728 57.8679 78.6008 57.3693C80.6835 55.9479 84.2515 56.3533 86.2435 59.2279C87.7688 61.4253 87.8808 64.0999 87.8088 66.1853C87.7928 66.6226 87.7715 67.0599 87.7475 67.4973C87.6622 69.0866 87.5822 70.5853 87.9128 71.9639C88.2488 73.2759 88.9635 74.4759 89.9742 75.4146C90.9848 76.3533 92.2355 76.9746 93.5928 77.2173C93.8568 77.2642 94.0942 77.3736 94.2926 77.5276C94.3097 77.5111 94.3273 77.495 94.3453 77.4791C98.5533 73.7804 100.985 74.2071 102.988 75.2178C106.092 76.7858 107.433 80.1804 106.489 84.0791C106.289 84.9215 105.998 85.7468 105.622 86.5437C105.773 86.5102 105.93 86.4981 106.092 86.5103C110.676 86.865 114.628 82.5289 116.166 78.065C117.91 72.9956 117.705 67.1583 115.59 61.6303C113.686 56.6596 110.233 51.9316 105.598 47.9636C101.3 44.2756 97.3051 42.6836 93.7211 43.2303C92.8464 43.3636 92.0304 42.7636 91.8971 41.8916C91.7637 41.0196 92.3637 40.201 93.2357 40.0676C97.7851 39.3716 102.644 41.2116 107.678 45.5343C112.713 49.8463 116.484 55.017 118.577 60.4863C120.961 66.7156 121.18 73.3263 119.19 79.1076C118.182 82.0303 116.428 84.6996 114.246 86.625C111.929 88.6623 109.31 89.7263 106.628 89.729ZM51.5539 65.8194C51.8126 65.9768 52.0979 66.0514 52.3806 66.0514C52.9219 66.0514 53.4499 65.7768 53.7486 65.2834C55.8606 61.7981 58.2873 59.0914 60.9593 57.2354C64.0446 55.0941 67.5326 54.0648 70.7806 54.3394C71.8046 54.4248 72.562 54.6381 73.0926 54.9928C73.5726 55.3128 73.8979 55.8408 73.8686 56.2488C73.8046 57.1314 74.4686 57.8968 75.3486 57.9608C76.2339 58.0248 76.9966 57.3634 77.0606 56.4808C77.1726 54.9208 76.3113 53.2914 74.8659 52.3288C73.8606 51.6568 72.6473 51.2834 71.0499 51.1474C67.0659 50.8114 62.8339 52.0381 59.1379 54.6034C56.0926 56.7154 53.3619 59.7501 51.0153 63.6221C50.5566 64.3768 50.7993 65.3608 51.5539 65.8194ZM58.2467 74.695C59.2777 74.695 60.1134 73.6802 60.1134 72.4284C60.1134 71.1765 59.2777 70.1617 58.2467 70.1617C57.2158 70.1617 56.3801 71.1765 56.3801 72.4284C56.3801 73.6802 57.2158 74.695 58.2467 74.695ZM69.1806 73.0565C69.1806 74.3084 68.3449 75.3232 67.3139 75.3232C66.283 75.3232 65.4473 74.3084 65.4473 73.0565C65.4473 71.8047 66.283 70.7898 67.3139 70.7898C68.3449 70.7898 69.1806 71.8047 69.1806 73.0565Z" fill="black"/>
<path d="M90.499 100C90.739 102.693 91.8403 108.779 95.939 107.867L96.379 108.533C96.179 112.712 94.0617 115.659 90.7443 118.712C87.3737 121.765 83.075 123.6 78.539 123.923C74.539 124.216 70.2857 123.259 67.2937 120.576C64.3017 117.893 62.7283 114.176 64.7097 110.989H64.9977C65.899 111.016 66.7283 110.544 67.491 110.064C68.4617 109.451 70.4643 106.936 71.0643 106.213C71.8643 105.176 72.1897 101.243 72.6003 100H90.499V100Z" fill="#FFD39F"/>
<path d="M96.4148 106.398C101.132 107.662 104.791 111.297 107.737 115.02C110.951 119.084 113.471 123.649 115.199 128.532C116.167 131.26 117.697 134.329 118.329 137.15L119.172 139.732C123.737 159.393 124.553 179.673 124.852 199.892L125.119 200.196C126.761 206.206 132.895 221.406 134.228 227.806C134.271 228.353 134.18 228.902 133.961 229.406C131.295 232.606 126.761 231.806 123.255 232.894L110.863 235.361C93.1268 238.542 75.3268 239.321 57.5588 236.324L54.2068 235.932L42.7401 233.737C41.7054 233.54 40.5694 233.276 39.9641 232.404C39.4628 231.689 39.4654 230.748 39.5028 229.876C39.6548 226.409 40.0548 222.969 40.4548 219.526L42.2841 203.756H42.1454C39.4361 203.425 37.2601 203.097 34.5508 202.769C35.6734 190.382 37.1134 178.028 38.8708 165.702C40.3988 154.969 42.1774 144.233 45.3348 133.862C48.1401 124.646 52.5908 115.116 61.0414 110.494L72.7748 111.294L96.4148 106.398Z" fill="black"/>
<path fill-rule="evenodd" clip-rule="evenodd" d="M33.1583 226.472C34.2249 228.872 36.8116 230.496 39.4969 230.6L41.6916 208.824L33.6916 209.243C31.8249 209.939 30.2249 211.539 30.7583 213.672C33.8693 216.783 33.5442 221.183 33.252 225.136C33.2186 225.588 33.1856 226.035 33.1583 226.472ZM101.852 222.602C99.6919 219.754 103.017 216.813 105.585 215.984H122.647C122.721 216.423 122.8 216.878 122.881 217.345C123.536 221.103 124.325 225.634 123.583 229.216C122.815 232.93 120.3 236.373 116.257 236.64C112.289 236.896 109.863 234.098 108.617 230.677C108.491 230.332 108.375 229.909 108.252 229.458C107.89 228.136 107.461 226.569 106.508 226.002C106.223 225.833 105.934 225.668 105.644 225.503C104.25 224.706 102.843 223.903 101.852 222.602Z" fill="#FFD39F"/>
<path fill-rule="evenodd" clip-rule="evenodd" d="M75.3558 122.402L72.8012 111.314C77.9456 109.206 81.8399 107.245 85.7208 105.289L85.8465 105.226C88.8012 103.736 91.8518 102.218 95.1532 101.965C94.905 104.703 94.1547 107.345 93.4048 109.985L93.3825 110.064C92.8785 111.832 92.3452 113.642 91.1532 115.032C90.1452 116.208 88.7478 116.976 87.3558 117.656C83.497 119.542 79.4336 120.97 75.3805 122.394L75.3804 122.394L75.3558 122.402ZM68.9476 107.934L70.0543 103.982C70.3476 104.228 70.7263 103.188 70.2303 102.374L62.0303 108.988C61.8329 111.004 62.0649 113.038 62.7156 114.958C63.3663 116.878 64.4169 118.636 65.7983 120.118C68.2943 117.545 70.2863 114.524 71.6649 111.214C70.4383 110.956 68.9583 110.444 68.7769 109.201C68.7476 108.772 68.8036 108.34 68.9476 107.934ZM103.085 208.999C102.663 211.039 102.525 213.125 102.669 215.202C102.663 215.322 102.679 215.442 102.722 215.554C102.765 215.666 102.829 215.77 102.911 215.858C103.079 215.959 103.277 216.005 103.471 215.983L121.605 215.933C121.879 215.954 122.154 215.903 122.405 215.789C122.917 215.498 122.957 214.789 122.938 214.189L122.746 209.274L103.085 208.999ZM34.1855 209.148C34.3455 207.161 34.5189 205.121 35.3749 203.321L42.0255 203.942L41.1829 210.214C38.8122 210.198 36.4549 209.838 34.1855 209.148Z" fill="white"/>
<path fill-rule="evenodd" clip-rule="evenodd" d="M74.593 123.795C74.8277 123.923 75.097 123.99 75.3637 123.99C75.5477 123.99 75.7317 123.96 75.8997 123.902C79.9344 122.486 84.105 121.019 88.049 119.091C89.5877 118.342 91.1717 117.456 92.3584 116.072C93.8064 114.387 94.4197 112.232 94.913 110.499L94.937 110.419L94.9377 110.417C95.1819 109.557 95.4288 108.687 95.6601 107.807C95.7654 107.863 95.8786 107.908 95.9987 107.94C100.657 109.191 104.212 113.143 106.481 116.01C109.591 119.943 112.015 124.335 113.689 129.066C114.039 130.047 114.457 131.076 114.865 132.071C115.612 133.898 116.383 135.786 116.767 137.498C116.935 138.242 117.593 138.748 118.327 138.748C118.444 138.748 118.561 138.735 118.679 138.708C119.54 138.514 120.081 137.658 119.889 136.796C119.447 134.823 118.625 132.807 117.828 130.858L117.791 130.768C117.394 129.796 117.018 128.876 116.705 127.994C114.916 122.932 112.319 118.234 108.991 114.023C106.441 110.802 102.404 106.343 96.828 104.85C96.6696 104.807 96.5104 104.79 96.3546 104.796C96.5234 103.911 96.6574 103.015 96.7397 102.107C96.7824 101.64 96.617 101.176 96.2864 100.84C95.9557 100.504 95.4944 100.331 95.025 100.368C91.3578 100.648 88.0474 102.318 85.126 103.792L85.121 103.795L84.993 103.859L84.8776 103.917L84.8776 103.917C81.159 105.788 77.3075 107.726 72.3516 109.763C72.2388 109.71 72.1189 109.669 71.9941 109.642C70.7275 109.376 70.4181 109.05 70.3675 108.978C70.3675 108.824 70.3888 108.672 70.4341 108.525L72.0821 105.018C72.3755 104.394 72.2341 103.65 71.7328 103.176C71.2315 102.701 70.4821 102.602 69.8741 102.93L61.2688 107.57C60.8021 107.824 60.4875 108.293 60.4368 108.824C60.4299 108.894 60.4234 108.965 60.4175 109.035C60.3725 109.055 60.3281 109.076 60.2842 109.1C52.8682 113.156 47.6336 120.876 43.8069 133.399C40.5882 143.972 38.7722 155.066 37.2896 165.479C35.5349 177.764 34.0789 190.263 32.9589 202.628C32.9132 203.12 33.0962 203.582 33.4215 203.906C32.9864 205.243 32.8029 206.618 32.6816 207.921C29.9651 209.121 28.577 211.535 29.2068 214.054C29.2788 214.337 29.4228 214.593 29.6282 214.798C32.2202 217.393 31.9348 221.267 31.6575 225.014L31.652 225.087L31.652 225.087L31.6519 225.087L31.6519 225.087C31.6191 225.521 31.5867 225.95 31.5615 226.369C31.5455 226.63 31.5935 226.891 31.7028 227.131C32.3668 228.593 33.4255 229.835 34.7615 230.726C35.7659 231.398 36.894 231.846 38.0743 232.05C38.1898 232.491 38.3744 232.925 38.6633 233.337C39.666 234.761 41.3966 235.11 42.4473 235.321L51.5007 237.054C51.602 237.073 51.7033 237.083 51.802 237.083C52.554 237.083 53.2233 236.55 53.37 235.787C53.538 234.921 52.9673 234.081 52.1007 233.915L43.0606 232.185C42.4953 232.073 41.546 231.881 41.2793 231.502C41.0526 231.182 41.0873 230.387 41.106 229.963C41.2578 226.56 41.6595 223.096 42.0483 219.743L42.05 219.729L45.2046 192.529L45.282 191.862L45.2892 191.8C47.4736 173.099 49.7322 153.764 54.106 135.198C54.3086 134.337 53.7753 133.475 52.9166 133.273C52.0553 133.067 51.194 133.603 50.9913 134.462C46.5761 153.202 44.3069 172.624 42.1124 191.408L42.1033 191.486L40.8855 201.987C40.2731 201.908 39.6799 201.828 39.098 201.75L38.6282 201.687C37.8682 201.583 37.0949 201.479 36.2842 201.375C37.3802 189.57 38.7802 177.652 40.4549 165.93C41.9189 155.644 43.7109 144.698 46.8656 134.332C50.1952 123.434 54.5598 116.5 60.5262 112.674C60.6646 113.616 60.8891 114.547 61.1995 115.464C61.9275 117.613 63.0795 119.544 64.6261 121.202C64.9248 121.522 65.3435 121.706 65.7808 121.712H65.7968C66.2288 121.712 66.6448 121.536 66.9461 121.226C68.0154 120.124 68.9929 118.951 69.8746 117.713L66.833 165.632L66.8307 165.668C65.3695 188.693 63.86 212.478 66.4083 235.903C63.5179 235.608 60.6569 235.221 57.8202 234.743C56.9482 234.593 56.1242 235.183 55.9775 236.055C55.8309 236.924 56.4175 237.751 57.2895 237.897C60.7191 238.476 64.1816 238.924 67.6864 239.24C67.8557 239.301 68.0374 239.333 68.225 239.333C68.289 239.333 68.353 239.331 68.417 239.323C68.445 239.319 68.4727 239.315 68.5002 239.311C72.4495 239.643 76.4531 239.809 80.5242 239.809C90.1816 239.809 100.217 238.871 110.783 236.995C112.217 238.099 113.904 238.681 115.762 238.681C115.962 238.681 116.167 238.676 116.372 238.66C119.2 238.474 121.658 236.937 123.306 234.487C123.445 234.482 123.585 234.459 123.726 234.419C124.721 234.109 125.862 233.965 127.068 233.816C129.838 233.472 132.977 233.08 135.188 230.427C135.286 230.309 135.366 230.179 135.428 230.037C135.745 229.299 135.881 228.483 135.82 227.68C135.814 227.611 135.804 227.544 135.79 227.477C134.996 223.665 132.658 217.127 130.396 210.805L130.396 210.803C128.82 206.403 127.334 202.245 126.657 199.771C126.613 199.611 126.547 199.463 126.462 199.33C126.242 179.662 125.704 160.858 121.153 141.242C120.953 140.38 120.095 139.844 119.233 140.044C118.372 140.244 117.836 141.103 118.036 141.964C122.911 162.98 123.108 183.204 123.316 204.618C123.321 205.103 123.326 205.59 123.331 206.077L123.331 206.079L123.331 206.082C123.336 206.561 123.34 207.041 123.345 207.522L103.156 207.191C100.156 183.751 99.1214 159.908 100.079 136.3C100.116 135.418 99.4281 134.671 98.5454 134.636C97.6601 134.604 96.9161 135.287 96.8814 136.17C95.8974 160.418 97.0014 184.914 100.161 208.975C100.243 209.594 100.672 210.092 101.236 210.283C101.011 211.921 100.952 213.581 101.062 215.235C101.062 215.533 101.113 215.827 101.217 216.107C101.337 216.427 101.516 216.715 101.75 216.96C101.773 216.984 101.796 217.007 101.82 217.029C100.854 217.76 100.053 218.695 99.7004 219.82C99.3964 220.793 99.303 222.308 100.583 223.988C101.767 225.545 103.402 226.481 104.844 227.305C105.13 227.468 105.412 227.63 105.695 227.798C106.09 228.032 106.521 229.603 106.71 230.291L106.714 230.305C106.844 230.785 106.97 231.238 107.116 231.644C107.455 232.573 107.857 233.418 108.315 234.175C94.6324 236.47 81.8721 237.141 69.6611 236.194C67.0435 212.826 68.56 188.944 70.0277 165.835L72.9846 119.249L73.793 122.758C73.897 123.2 74.193 123.576 74.593 123.795ZM34.1138 210.792C33.5822 211.013 32.2119 211.704 32.2602 212.923C35.4936 216.517 35.1377 221.341 34.8498 225.244L34.8495 225.249C34.8417 225.359 34.8336 225.468 34.8255 225.576L34.8255 225.577C34.8113 225.766 34.7973 225.954 34.7855 226.142C35.2042 226.915 35.8068 227.574 36.5402 228.065C36.9827 228.36 37.4631 228.587 37.9664 228.74C38.1477 225.608 38.5093 222.484 38.8602 219.452L38.8713 219.355L39.7519 211.762C37.8434 211.646 35.9543 211.32 34.1138 210.792ZM40.1211 208.579L40.5166 205.168C39.7162 205.065 38.9503 204.961 38.2016 204.86L37.8253 204.81L37.8252 204.81L37.8251 204.81L37.8249 204.81L37.8247 204.81C37.4075 204.754 36.9845 204.697 36.5532 204.64C36.1797 205.668 36.0071 206.805 35.8926 207.954C37.2794 208.293 38.6953 208.503 40.1211 208.579ZM104.222 214.381C104.174 213.054 104.25 211.725 104.451 210.412L121.195 210.687L121.334 214.237C121.337 214.272 121.337 214.304 121.337 214.333V214.333L104.222 214.381ZM124.532 214.12L124.4 210.739L124.937 210.748H124.964C125.385 210.748 125.793 210.58 126.089 210.284C126.31 210.065 126.461 209.788 126.526 209.488C126.782 210.209 127.045 210.943 127.31 211.684L127.31 211.685L127.38 211.88L127.389 211.907L127.389 211.908C129.486 217.77 131.855 224.398 132.63 228.013C132.636 228.2 132.612 228.389 132.558 228.568C131.156 230.08 129.068 230.341 126.668 230.64C126.097 230.711 125.518 230.783 124.94 230.876C125.022 230.579 125.095 230.276 125.159 229.966C125.966 226.059 125.294 222.189 124.644 218.447L124.642 218.433C124.57 218.022 124.5 217.614 124.431 217.206C124.378 216.889 124.234 216.609 124.031 216.388C124.576 215.558 124.545 214.535 124.532 214.12ZM106.766 217.567L121.255 217.526C121.257 217.596 121.264 217.666 121.276 217.737C121.336 218.09 121.397 218.443 121.458 218.798L121.459 218.801L121.49 218.98L121.492 218.991C122.091 222.441 122.71 226.005 122.026 229.316C121.132 233.622 118.412 235.316 116.159 235.465C112.73 235.686 110.986 232.916 110.122 230.545C110.02 230.262 109.911 229.87 109.799 229.457L109.797 229.449C109.368 227.885 108.834 225.938 107.33 225.046C107.105 224.913 106.878 224.783 106.649 224.652L106.431 224.526L106.429 224.525C105.139 223.787 103.919 223.089 103.127 222.049C102.58 221.332 102.706 220.929 102.754 220.777C103.004 219.974 104.263 219.044 105.746 218.564C106.244 218.405 106.608 218.025 106.766 217.567ZM76.5104 120.294L74.6624 112.267C79.257 110.331 82.9024 108.496 86.4277 106.718L86.5584 106.651C88.729 105.555 90.9584 104.432 93.2704 103.878C92.9393 105.737 92.4162 107.58 91.8709 109.502L91.8709 109.502L91.8597 109.542L91.8384 109.622C91.3904 111.2 90.9237 112.832 89.9344 113.987C89.0864 114.974 87.793 115.654 86.649 116.214C83.409 117.798 79.9397 119.08 76.5104 120.294ZM63.5675 109.97C63.5168 111.49 63.7408 112.989 64.2315 114.44C64.6235 115.597 65.1701 116.674 65.8635 117.661C67.2875 115.984 68.4928 114.149 69.4661 112.178C68.1328 111.56 67.3701 110.637 67.1915 109.426L67.1898 109.414L67.1898 109.413C67.185 109.378 67.1805 109.345 67.1781 109.309C67.1461 108.856 67.1781 108.408 67.2715 107.968L63.5675 109.97Z" fill="black"/>
</svg>
