<svg width="160" height="260" viewBox="0 0 160 260" fill="none" xmlns="http://www.w3.org/2000/svg">
<path d="M94.5304 78.8856C92.5331 78.739 91.3971 76.3923 91.5198 74.3976C91.6424 72.403 92.5864 70.5416 92.8824 68.563C93.5624 64.123 90.5384 59.411 86.2158 58.1816C85.0344 57.8456 83.7678 57.7363 82.6931 57.1416C81.7971 56.643 81.0504 55.8083 80.0451 55.6323C78.1918 55.291 76.6664 57.2323 74.7918 57.4403C72.3038 57.707 70.3811 54.8563 67.8771 54.8616C65.2904 54.8616 63.5011 57.8803 60.9198 58.003C59.1891 58.0856 57.6424 56.827 55.9118 56.7416C53.6744 56.635 51.8158 58.5096 50.8024 60.507C49.7891 62.5043 49.2878 64.7603 48.0398 66.6216C46.8984 68.323 44.5144 69.635 42.8504 68.4403C41.7011 67.619 41.4798 66.0083 41.5624 64.6003C41.7304 61.7123 42.7304 58.9336 44.4398 56.6003C44.9731 55.891 45.5651 55.1923 45.7571 54.3336C46.0238 53.0696 45.3731 51.8136 45.1171 50.5443C44.5544 47.7443 46.2878 44.6616 48.9731 43.6856C50.2424 43.227 51.6611 43.1923 52.8504 42.555C54.0398 41.9176 54.8824 40.7096 55.7091 39.6056C60.0851 33.7603 67.0958 28.9763 74.2798 30.2723C78.6878 31.0723 82.5464 34.0403 88.0291 35.0723C91.8451 32.2376 97.7251 32.6723 101.064 36.067C105.376 40.4296 105.208 48.163 110.13 51.8323C110.914 52.419 111.826 52.899 112.362 53.715C113.501 55.4483 112.474 57.803 112.962 59.8216C113.389 61.5736 114.877 62.8216 115.984 64.2456C117.09 65.6696 117.8 67.827 116.618 69.1896C116.104 69.7816 115.338 70.083 114.733 70.579C113.245 71.795 112.949 73.9603 113.133 75.8723C113.317 77.7843 113.978 80.2136 113.6 81.6003C112.077 87.235 108.554 85.7976 106.882 86.667" fill="black"/>
<path d="M50.6658 66.9326C49.0658 69.3326 48.7991 72.266 47.9991 75.1993C47.9991 76.042 44.7564 87.4233 52.2658 94.9326C54.9324 97.5993 58.3991 98.666 61.9991 99.466C65.2284 99.9646 68.7564 100.466 71.8658 99.1993C71.6871 101.975 71.6604 103.957 71.7884 106.735L90.5324 104.799C90.2258 101.151 90.9538 97.8686 92.5404 94.5673C92.8978 93.8206 93.6738 93.8286 94.4391 93.586C95.1164 93.3726 95.7884 93.1273 96.4444 92.85C97.7804 92.2953 99.0418 91.578 100.204 90.7166C102.503 88.9806 104.292 86.5433 104.967 83.7166C105.578 81.154 105.148 78.1033 102.287 76.6606C100.282 75.6473 98.4818 76.0073 95.4231 78.6953L94.5218 78.8873C92.5244 78.7406 91.3884 76.394 91.5111 74.3993C91.6338 72.4046 92.5778 70.5433 92.8738 68.5646C93.5538 64.1246 90.5298 59.4126 86.2071 58.1833C85.0258 57.8473 83.7591 57.738 82.6844 57.1433C81.7884 56.6446 81.0418 55.81 80.0364 55.634C78.1831 55.2926 76.6578 57.234 74.7831 57.442C72.2951 57.7086 70.3724 54.858 67.8684 54.8633C65.2818 54.8633 63.4924 57.882 60.9111 58.0046C59.1804 58.0873 57.6338 56.8286 55.9031 56.7433C53.6658 56.6366 51.8071 58.5113 50.7938 60.5086C49.7804 62.506 49.2791 64.762 48.0311 66.6233" fill="#FFD39F"/>
<path fill-rule="evenodd" clip-rule="evenodd" d="M105.463 87.407C105.748 87.9537 106.306 88.2683 106.884 88.2683C107.135 88.2683 107.386 88.2097 107.623 88.0763C107.797 87.9854 108.247 87.9274 108.653 87.8751L108.653 87.8751L108.684 87.871L108.688 87.8705C110.58 87.6278 113.741 87.2219 115.148 82.0123C115.499 80.7293 115.238 79.0969 114.986 77.516L114.986 77.5159L114.983 77.4977C114.882 76.8603 114.786 76.255 114.732 75.711C114.65 74.8577 114.586 72.7643 115.754 71.8097C115.904 71.6845 116.103 71.5593 116.317 71.4254L116.359 71.399L116.366 71.3949C116.836 71.1 117.367 70.7672 117.834 70.231C119.596 68.199 118.812 65.263 117.252 63.2577C116.932 62.847 116.596 62.4603 116.268 62.087L116.263 62.0808C115.481 61.1871 114.745 60.3462 114.524 59.439C114.38 58.8417 114.426 58.1003 114.476 57.3137C114.567 55.9003 114.668 54.295 113.706 52.831C113.13 51.9539 112.338 51.4099 111.64 50.93L111.639 50.9297L111.536 50.8585C111.387 50.7548 111.238 50.6515 111.092 50.543C108.835 48.8612 107.768 46.0258 106.638 43.0221L106.636 43.0177C105.562 40.159 104.45 37.2043 102.21 34.9377C98.4978 31.1643 92.1378 30.5217 87.6898 33.3617C85.2733 32.8241 83.1543 31.8881 81.0995 30.9805L81.0871 30.975C78.9111 30.0123 76.8578 29.1057 74.5698 28.6897C66.3271 27.2043 58.7644 32.855 54.4338 38.639L54.2471 38.8897L54.2449 38.8926C53.5763 39.7903 52.8862 40.7168 52.1004 41.1377C51.5992 41.4069 50.9487 41.5456 50.2609 41.6922L50.2604 41.6923C49.6711 41.8177 49.0604 41.9483 48.4311 42.175C45.0284 43.4123 42.8418 47.3057 43.5538 50.855C43.6444 51.311 43.7698 51.7323 43.8924 52.143L43.8945 52.1502C44.1123 52.8831 44.3001 53.5152 44.2018 53.9803C44.1088 54.3997 43.7464 54.8746 43.3617 55.3787L43.3564 55.3857L43.1538 55.6523C41.2578 58.239 40.1564 61.3003 39.9698 64.503C39.7911 67.5483 40.9351 69.031 41.9218 69.7377C42.8444 70.399 43.9591 70.6363 45.1458 70.423C46.1495 70.242 47.1616 69.7347 48.0267 69.0081C46.8295 72.4313 45.9993 75.6809 45.743 78.0004C44.911 85.6191 46.999 92.3764 51.4737 96.5444C53.9084 98.8084 57.0684 100.256 61.135 100.974C63.6524 101.414 66.9164 101.982 70.1217 101.363C70.0684 102.651 70.087 103.595 70.1724 105.472C70.2124 106.331 70.919 107 71.7697 107H71.7698C71.7964 107 71.8204 107 71.847 106.99C72.7297 106.95 73.4124 106.2 73.3724 105.318C73.2444 102.566 73.2737 101.974 73.4444 99.2911C73.479 98.7418 73.2284 98.2111 72.7804 97.8911C72.3324 97.5711 71.751 97.5018 71.2417 97.7098C68.4284 98.8591 65.2497 98.4405 61.687 97.8191C58.2017 97.2058 55.6497 96.0564 53.655 94.2004C49.9244 90.7284 48.2017 84.9498 48.9244 78.3498C49.143 76.3738 50.023 72.5951 51.8417 67.9178C52.1617 67.0938 51.7537 66.1658 50.9297 65.8458C50.7418 65.7728 50.5484 65.7377 50.3581 65.7367C50.6896 65.0223 50.9671 64.2986 51.2391 63.5883C51.5591 62.751 51.8604 61.9643 52.2338 61.2283C52.9324 59.8497 54.2978 58.263 55.8364 58.3377C56.3884 58.3643 57.0204 58.607 57.6871 58.8657L57.7029 58.8718C58.6618 59.241 59.75 59.66 60.9991 59.599C62.7264 59.5193 64.067 58.5763 65.2506 57.7437L65.2631 57.735C66.2338 57.0497 67.0711 56.4603 67.8844 56.4603H67.8871C68.6364 56.4603 69.4844 56.9803 70.3804 57.5323C71.6711 58.327 73.1324 59.2257 74.9724 59.0283C76.1218 58.903 77.0684 58.3697 77.9058 57.8977C78.6498 57.479 79.2924 57.119 79.7751 57.207C80.0684 57.2577 80.4578 57.5403 80.8684 57.839L80.8735 57.8427C81.1816 58.0658 81.5293 58.3175 81.9244 58.5377C82.8631 59.055 83.8578 59.2737 84.7378 59.4657C85.1058 59.5457 85.4551 59.623 85.7831 59.7163C89.3378 60.727 91.8658 64.6657 91.3058 68.3217C91.1911 69.0817 90.9591 69.855 90.7111 70.6737L90.7069 70.6876C90.3642 71.8246 90.0094 73.0016 89.9298 74.295C89.7564 77.0977 91.4258 80.2577 94.4204 80.4763C94.7434 80.5008 95.0512 80.4269 95.3147 80.28C95.7188 80.3027 96.1316 80.173 96.4597 79.8844C99.3903 77.3084 100.46 77.5244 101.55 78.0764C104.049 79.3378 103.665 82.1698 103.382 83.3351C102.833 85.6471 101.35 87.8124 99.2223 89.4204C98.1663 90.2044 97.017 90.8577 95.793 91.3644C95.1877 91.6204 94.561 91.8498 93.9263 92.0498C93.8296 92.0813 93.7213 92.1078 93.6066 92.136L93.6066 92.136L93.513 92.1591C92.825 92.3244 91.6757 92.6018 91.0677 93.8631C89.409 97.3164 88.6277 99.1564 88.9663 103.172C89.0357 104.007 89.737 104.639 90.5583 104.639C90.6037 104.639 90.649 104.636 90.697 104.626C91.577 104.554 92.2303 103.778 92.1557 102.898C91.889 99.7617 92.3637 98.5591 93.897 95.3591C93.9728 95.3345 94.0802 95.3083 94.179 95.2842C94.2088 95.277 94.2378 95.2699 94.265 95.2631C94.4517 95.2178 94.665 95.1644 94.8863 95.0951C95.6143 94.8684 96.337 94.6018 97.0277 94.3111C98.4837 93.7084 99.865 92.9244 101.14 91.9778C102.931 90.6257 104.365 88.9524 105.343 87.1061C105.372 87.2083 105.412 87.3091 105.463 87.407ZM93.1244 74.4923C93.0518 75.694 93.6662 77.1356 94.5792 77.2782C98.6455 73.7964 101.027 74.2258 102.99 75.2178C106.094 76.7858 107.436 80.1804 106.492 84.0791C106.398 84.4722 106.285 84.8617 106.152 85.2462C106.833 84.8944 107.567 84.7987 108.276 84.7083L108.278 84.7081C109.915 84.4975 111.207 84.3312 112.058 81.183C112.228 80.5573 112.002 79.15 111.821 78.0202L111.82 78.015C111.714 77.3537 111.604 76.671 111.543 76.0283C111.26 73.0977 112.034 70.7217 113.724 69.343C114.042 69.0817 114.37 68.8763 114.66 68.6977L114.694 68.6764C114.991 68.4897 115.269 68.3151 115.415 68.143C115.932 67.5457 115.471 66.191 114.724 65.231C114.465 64.8979 114.175 64.5647 113.868 64.2134L113.86 64.2043C112.903 63.1137 111.82 61.8763 111.412 60.2017C111.154 59.1297 111.22 58.063 111.282 57.119C111.348 56.071 111.404 55.167 111.031 54.5963C110.799 54.2443 110.327 53.919 109.826 53.575C109.607 53.4257 109.388 53.2737 109.178 53.1163C106.17 50.8737 104.884 47.4577 103.642 44.1537C102.642 41.4923 101.695 38.9803 99.9324 37.1937C97.1698 34.3857 92.1591 34.0043 88.9911 36.359C88.6338 36.6257 88.1804 36.7297 87.7404 36.647C84.6871 36.071 82.0871 34.9243 79.7964 33.911C77.7991 33.0283 75.9138 32.1963 74.0018 31.847C69.5431 31.0417 62.7298 32.9083 56.9964 40.5643L56.8151 40.807C55.9778 41.9323 55.0284 43.2043 53.6124 43.9643C52.7138 44.447 51.7671 44.6497 50.9298 44.8257L50.8777 44.8369L50.8777 44.8369C50.3902 44.942 49.9286 45.0415 49.5218 45.1883C47.5804 45.8923 46.2844 48.2017 46.6898 50.2283C46.7538 50.5403 46.8524 50.879 46.9591 51.2363L46.9609 51.2423C47.2591 52.2488 47.5959 53.3855 47.3271 54.663C47.0764 55.7857 46.4524 56.6043 45.9004 57.327L45.7244 57.559C44.2044 59.6337 43.3164 62.103 43.1644 64.6897C43.0924 65.911 43.3191 66.8017 43.7858 67.135C43.9218 67.2337 44.1484 67.351 44.5778 67.2737C45.3164 67.1403 46.1964 66.5057 46.7164 65.727C47.3565 64.7735 47.7876 63.6482 48.2442 62.4562L48.2498 62.4417L48.2552 62.4274L48.2552 62.4274L48.2553 62.4273C48.5896 61.5571 48.9349 60.6582 49.3804 59.7803C50.5671 57.4417 52.9298 54.9937 55.9938 55.1403C57.0594 55.1935 58.0033 55.5565 58.8332 55.8757L58.8418 55.879L58.8619 55.8868C59.6186 56.1795 60.2682 56.4307 60.8498 56.4017C61.652 56.3643 62.5103 55.7596 63.4218 55.1172L63.4231 55.1163L63.4232 55.1163C64.6605 54.2443 66.0605 53.2577 67.8844 53.2577H67.8951C69.5458 53.2577 70.8818 54.079 72.0604 54.8043L72.071 54.8108C73.0425 55.4081 73.8818 55.924 74.6284 55.8443C75.1218 55.7883 75.7111 55.4577 76.3378 55.1057C77.4044 54.5057 78.7324 53.759 80.3431 54.055C81.3509 54.2305 82.1254 54.7932 82.7485 55.2459L82.7538 55.2497L82.8172 55.2955C83.0522 55.4653 83.2735 55.6253 83.4791 55.7403C84.0005 56.0288 84.6822 56.1781 85.4068 56.3368L85.4231 56.3403L85.4584 56.3481L85.4585 56.3481C85.8476 56.4337 86.2515 56.5225 86.6604 56.639C91.7724 58.0923 95.2764 63.5483 94.4711 68.8017C94.3262 69.774 94.0511 70.6864 93.7847 71.5698L93.7751 71.6017C93.4684 72.6123 93.1804 73.567 93.1244 74.4923ZM58.2491 74.695C59.28 74.695 60.1158 73.6802 60.1158 72.4284C60.1158 71.1765 59.28 70.1617 58.2491 70.1617C57.2182 70.1617 56.3824 71.1765 56.3824 72.4284C56.3824 73.6802 57.2182 74.695 58.2491 74.695ZM67.3163 75.3232C68.3472 75.3232 69.1829 74.3084 69.1829 73.0565C69.1829 71.8047 68.3472 70.7898 67.3163 70.7898C66.2853 70.7898 65.4496 71.8047 65.4496 73.0565C65.4496 74.3084 66.2853 75.3232 67.3163 75.3232Z" fill="black"/>
<path d="M90.499 100C90.739 102.693 91.8403 108.779 95.939 107.867L96.379 108.533C96.179 112.712 94.0617 115.659 90.7443 118.712C87.3737 121.765 83.075 123.6 78.539 123.923C74.539 124.216 70.2857 123.259 67.2937 120.576C64.3017 117.893 62.7283 114.176 64.7097 110.989H64.9977C65.899 111.016 66.7283 110.544 67.491 110.064C68.4617 109.451 70.4643 106.936 71.0643 106.213C71.8643 105.176 72.1897 101.243 72.6003 100H90.499V100Z" fill="#FFD39F"/>
<path d="M96.5034 106.376C100.586 107.467 103.935 110.4 106.685 113.6C110.159 117.662 112.914 122.288 114.834 127.278C119.082 138.326 119.085 150.779 124.207 161.451C121.426 162.275 118.597 162.915 115.733 163.371L118.042 174.323C123.949 192.611 128.058 206.638 133.455 224.288C133.722 225.19 134.789 228.376 134.295 229.174C133.965 229.707 133.41 230.048 132.869 230.355C129.909 232.038 126.677 232.179 123.338 232.851L110.946 235.318C93.21 238.499 75.41 239.278 57.642 236.28L54.29 235.888L42.8234 233.694C41.7887 233.496 40.6527 233.232 40.0474 232.36C39.546 231.646 39.5487 230.704 39.586 229.832C39.738 226.366 40.138 222.926 40.538 219.483L43.6927 192.283C45.066 180.664 46.3994 168.998 48.266 157.419L48.138 157.366C45.0367 156.299 41.9834 155.115 38.9274 153.928C38.506 153.808 38.1274 153.574 37.8287 153.254C37.2287 152.48 37.7434 151.371 38.258 150.536C42.7994 143.15 46.682 135.379 49.866 127.312C52.298 121.152 54.8367 114.222 60.7727 111.286L67.5007 108.47C66.93 109.443 67.6527 112.219 68.4234 113.043C69.194 113.867 70.29 114.299 71.3567 114.643C74.9354 115.758 78.8234 116.054 82.4554 115.176C86.0874 114.299 89.482 112.168 91.6154 109.083C92.1487 108.326 92.594 107.504 93.2554 106.862C93.9167 106.219 94.8554 105.766 95.754 105.966L96.5034 106.376Z" fill="black"/>
<path fill-rule="evenodd" clip-rule="evenodd" d="M37.4743 202.815L41.4449 155.543L48.5036 155.391C46.4903 167.639 45.0556 179.993 43.6236 192.327L40.4689 219.527L40.4675 219.539C40.068 222.978 39.6688 226.414 39.5169 229.876L39.3169 230.567C37.2663 230.199 35.0103 229.591 33.9223 227.815C32.9705 226.268 33.228 224.429 33.4885 222.567C33.7142 220.955 33.9422 219.326 33.3889 217.857C33.1006 217.089 32.605 216.354 32.1165 215.629C31.1956 214.263 30.3 212.934 30.8663 211.495C31.3134 210.368 32.4444 209.842 33.5885 209.309C34.3074 208.975 35.0314 208.638 35.5943 208.148C37.0529 206.879 37.3116 204.745 37.4743 202.815ZM107.642 216.568C105.514 199.262 104.21 181.896 103.733 164.475L116.896 164.075L123.376 223.163C123.773 226.795 124.082 230.798 121.968 233.779C121.157 234.92 120.042 235.816 118.752 236.363C117.461 236.91 116.045 237.086 114.658 236.872C113.274 236.659 111.976 236.062 110.909 235.152C109.842 234.243 109.053 233.054 108.624 231.718C108.469 231.231 108.361 230.726 108.253 230.222C108.027 229.171 107.804 228.128 107.165 227.28C106.494 226.392 105.468 225.863 104.45 225.338C103.282 224.737 102.125 224.14 101.525 223.014C100.698 221.451 101.376 219.4 102.714 218.251C104.053 217.102 105.88 216.678 107.642 216.568Z" fill="#FFD39F"/>
<path fill-rule="evenodd" clip-rule="evenodd" d="M90.8204 106.526C90.8965 106.661 90.9733 106.798 91.0525 106.935C90.8978 107.156 90.7544 107.375 90.6177 107.583C90.4844 107.786 90.351 107.988 90.2044 108.199C88.375 110.844 85.3804 112.831 81.9857 113.647C78.8017 114.412 75.2604 114.239 71.7537 113.146C70.8897 112.866 70.0177 112.532 69.4977 111.975C69.1928 111.649 69.0325 111.172 69.1113 110.878C69.73 110.439 70.2131 110.003 70.5693 109.681L70.5827 109.669L70.6761 109.583C71.9908 108.397 72.3881 107.695 72.7374 106.965C72.7774 106.879 72.8174 106.797 72.8627 106.709C73.2734 105.927 72.9748 104.959 72.1934 104.546C71.4121 104.135 70.4441 104.434 70.0308 105.215C69.9641 105.343 69.9054 105.463 69.8467 105.586C69.6632 105.972 69.5125 106.286 68.779 106.98C68.3133 106.442 67.5271 106.263 66.86 106.594L62.5427 108.727C62.0186 108.986 61.6989 109.494 61.6561 110.038C61.1872 109.678 60.5361 109.592 59.9706 109.872C53.7066 112.968 50.9733 119.912 48.5626 126.04L48.2853 126.746C45.1413 134.704 41.2746 142.434 36.7946 149.72C35.664 151.557 35.552 153.082 36.464 154.258C36.4933 154.296 36.5226 154.33 36.5546 154.365C37.032 154.88 37.6373 155.258 38.3066 155.466L38.312 155.469C38.8032 155.66 39.2972 155.852 39.7936 156.044L35.8767 202.675C35.7274 204.438 35.5141 206.089 34.5407 206.937C34.1487 207.278 33.5487 207.558 32.9114 207.854L32.9039 207.858C31.6359 208.449 30.0567 209.186 29.3754 210.905C28.5034 213.126 29.77 215.006 30.7887 216.518L30.7887 216.518L30.8282 216.577C31.2643 217.227 31.6752 217.84 31.8901 218.417C32.3007 219.505 32.1087 220.883 31.9034 222.342C31.6234 224.342 31.3061 226.611 32.5567 228.646C33.7793 230.641 35.9297 231.473 38.0483 231.941C38.1614 232.418 38.3518 232.89 38.6641 233.335C39.6668 234.759 41.3974 235.109 42.4481 235.319L52.2001 237.186C52.3014 237.205 52.4028 237.215 52.5014 237.215C53.2534 237.215 53.9254 236.682 54.0694 235.919C54.2374 235.053 53.6668 234.213 52.8001 234.047L43.0614 232.183C42.4961 232.071 41.5468 231.879 41.2801 231.501C41.0534 231.181 41.0881 230.386 41.1068 229.962C41.2585 226.559 41.6603 223.094 42.0491 219.742L42.0491 219.741L42.0508 219.727L45.2054 192.527L45.2828 191.861L45.29 191.798C47.4744 173.098 49.7329 153.763 54.1068 135.197C54.3094 134.335 53.7761 133.474 52.9174 133.271C52.0534 133.066 51.1948 133.602 50.9921 134.461C49.373 141.333 48.0424 148.297 46.8983 155.287C44.4145 154.398 41.9313 153.434 39.5148 152.496L39.472 152.48L39.408 152.456L39.4078 152.456C39.3625 152.44 39.3172 152.424 39.2693 152.41C39.2 152.392 39.136 152.362 39.0773 152.328C39.112 152.178 39.216 151.888 39.52 151.394C44.0986 143.949 48.0506 136.05 51.2613 127.92L51.5413 127.21C53.848 121.349 56.2346 115.288 61.3893 112.741C61.9133 112.482 62.233 111.974 62.2759 111.43C62.4599 111.571 62.6721 111.67 62.8961 111.721C62.4244 112.102 62.1916 112.735 62.3513 113.361C63.0819 116.238 65.6446 117.934 67.9886 119.297C70.2793 120.63 72.9139 120.891 75.2046 121.033C76.3006 121.102 77.5059 121.155 78.7753 121.155C81.4126 121.155 84.3326 120.923 87.1353 120.094C91.9753 118.667 95.0686 114.161 96.4819 111.603C96.9086 110.83 96.6286 109.857 95.8553 109.43C95.0819 109.003 94.1086 109.283 93.6819 110.057C92.5059 112.185 89.9753 115.921 86.2313 117.025C82.5726 118.105 78.7006 118.043 75.3993 117.841C73.4766 117.721 71.2819 117.513 69.5966 116.531C67.8153 115.497 65.8793 114.249 65.4526 112.574C65.306 111.991 64.8573 111.566 64.3164 111.421L65.9156 110.631C65.7865 111.846 66.2223 113.157 67.1617 114.162C68.1804 115.25 69.5004 115.78 70.7884 116.196C73.1777 116.943 75.5884 117.316 77.9297 117.316C79.5777 117.316 81.1884 117.132 82.7377 116.759C86.887 115.759 90.567 113.303 92.831 110.031C92.9909 109.804 93.1428 109.573 93.2947 109.341L93.2948 109.341L93.2949 109.341L93.295 109.34L93.3038 109.327C93.6259 108.836 93.9302 108.372 94.2764 108.036C94.6162 107.704 95.0446 107.503 95.3018 107.552C95.4915 107.737 95.7299 107.878 96.0041 107.951C99.1641 108.797 102.233 110.999 105.383 114.679C108.748 118.613 111.396 123.058 113.255 127.89C115.129 132.762 116.185 138.063 117.207 143.194L117.208 143.2L117.208 143.2C118.357 148.966 119.541 154.908 121.897 160.45C113.807 162.602 105.511 163.189 97.1934 162.197L97.8814 138.09C97.9054 137.207 97.2094 136.469 96.3268 136.445C95.4441 136.413 94.7054 137.117 94.6814 137.999L93.9534 163.551C93.9294 164.365 94.5214 165.066 95.3294 165.181C97.6119 165.502 99.893 165.709 102.17 165.804C102.661 182.242 103.901 198.837 105.861 215.171C104.157 215.483 102.752 216.107 101.672 217.035C99.6637 218.758 98.9944 221.649 100.112 223.763C100.945 225.33 102.415 226.087 103.712 226.756L103.717 226.758C104.602 227.214 105.437 227.646 105.888 228.241C106.312 228.806 106.488 229.617 106.688 230.555C106.8 231.089 106.92 231.638 107.098 232.203C107.327 232.915 107.64 233.592 108.029 234.221C89.9751 237.222 73.5257 237.391 57.821 234.741C56.949 234.592 56.125 235.181 55.9783 236.053C55.8317 236.923 56.4183 237.749 57.2903 237.896C64.8423 239.171 72.5543 239.808 80.525 239.808C90.1604 239.808 100.172 238.873 110.712 237.007C111.821 237.753 113.083 238.247 114.413 238.451C114.88 238.523 115.346 238.558 115.813 238.558C117.034 238.558 118.245 238.315 119.381 237.835C120.946 237.171 122.293 236.089 123.277 234.702C123.291 234.682 123.306 234.661 123.32 234.641C123.334 234.621 123.348 234.6 123.363 234.579L123.391 234.538L123.43 234.479C123.475 234.475 123.52 234.468 123.565 234.46C124.321 234.306 125.091 234.18 125.841 234.057L125.843 234.056L125.933 234.041L125.938 234.041L125.939 234.041C128.47 233.625 131.087 233.195 133.568 231.785C134.259 231.393 135.04 230.905 135.568 230.052C136.259 228.932 135.904 227.135 135.005 224.212C134.963 224.079 134.928 223.964 134.896 223.857C133.421 219.033 132.035 214.46 130.696 210.036L130.584 209.666L130.583 209.665L130.583 209.664L130.582 209.661C127.108 198.194 123.812 187.318 119.641 174.385L118.558 164.515C120.575 164.11 122.583 163.614 124.577 163.029C125.025 162.895 125.393 162.573 125.585 162.143C125.777 161.714 125.769 161.226 125.567 160.802C122.855 155.153 121.641 149.063 120.356 142.617L120.348 142.575C119.3 137.314 118.215 131.874 116.244 126.746C114.255 121.573 111.42 116.813 107.817 112.602C104.233 108.413 100.639 105.879 96.8334 104.861C96.814 104.855 96.7947 104.851 96.7753 104.846C96.5697 104.646 96.3077 104.498 96.007 104.431C95.1854 104.249 94.3081 104.364 93.4867 104.741C93.2982 104.405 93.0851 104.038 92.8257 103.654C92.3324 102.923 91.3377 102.729 90.6044 103.222C89.8737 103.715 89.679 104.71 90.1724 105.443C90.403 105.785 90.5998 106.135 90.7904 106.473L90.7906 106.473L90.8204 106.526ZM124.896 230.966C125.071 230.938 125.244 230.909 125.416 230.881L125.438 230.878C127.787 230.492 130.006 230.129 131.987 229.001L132.022 228.981C132.24 228.856 132.554 228.677 132.736 228.497C132.731 228.103 132.571 227.196 131.944 225.153L131.914 225.058C131.881 224.951 131.852 224.857 131.829 224.78C130.357 219.967 128.971 215.391 127.632 210.964L127.518 210.589L127.518 210.589L127.517 210.586L127.516 210.582C125.493 203.904 123.532 197.428 121.422 190.629L124.97 222.985L124.971 222.989C125.211 225.187 125.535 228.151 124.896 230.966ZM116.383 174.042C116.33 174.303 116.341 174.581 116.429 174.852L116.494 175.053L121.789 223.334C122.186 226.958 122.397 230.411 120.666 232.851C120.026 233.753 119.152 234.457 118.133 234.889C117.114 235.318 116 235.457 114.906 235.289C113.816 235.121 112.792 234.651 111.952 233.934C111.112 233.214 110.488 232.278 110.152 231.23C110.027 230.837 109.934 230.407 109.836 229.953L109.821 229.883L109.82 229.88C109.575 228.737 109.298 227.442 108.445 226.313C107.557 225.138 106.304 224.491 105.198 223.919L105.186 223.913L105.175 223.907C104.172 223.389 103.305 222.942 102.944 222.262C102.522 221.467 102.888 220.211 103.76 219.462C104.634 218.71 105.976 218.273 107.744 218.163C108.184 218.137 108.592 217.929 108.874 217.59C109.157 217.249 109.285 216.809 109.232 216.371C107.178 199.672 105.881 182.688 105.374 165.862C108.732 165.846 112.078 165.582 115.4 165.073L116.383 174.042ZM42.1132 191.407C43.3794 180.569 44.6704 169.518 46.3842 158.509C45.2199 158.098 44.0586 157.67 42.9052 157.236L39.0661 202.942C38.8687 205.289 38.5194 207.715 36.6421 209.347C35.9087 209.985 35.0341 210.393 34.2607 210.753L34.2583 210.754C33.3473 211.177 32.5619 211.543 32.3514 212.078C32.1114 212.686 32.6047 213.486 33.4421 214.729C33.9781 215.523 34.5301 216.345 34.8847 217.289C35.5787 219.134 35.3103 221.064 35.0735 222.767L35.0714 222.782L35.0714 222.782C34.8367 224.462 34.6341 225.913 35.2821 226.969C35.7986 227.81 36.8272 228.301 37.9738 228.625C38.1573 225.531 38.5143 222.446 38.861 219.45L38.8721 219.354L42.1041 191.485L42.1132 191.407Z" fill="black"/>
</svg>
