<svg width="160" height="260" viewBox="0 0 160 260" fill="none" xmlns="http://www.w3.org/2000/svg">
<path d="M93.6704 76.9966C95.5184 74.8206 94.9451 71.0526 92.5344 69.53C91.6704 68.9806 90.5771 68.6393 90.1051 67.7326C89.5717 66.7326 90.0544 65.5353 90.3344 64.442C90.3344 64.4073 90.3531 64.37 90.3637 64.3353C91.1637 61.0393 87.3957 58.594 84.6517 60.5886C81.2251 63.0793 77.3317 64.8553 73.2037 65.8126C71.0704 66.3033 68.4491 66.3993 67.1317 64.6553C66.3531 63.6206 66.1664 62.058 64.1984 62.2046C63.6251 62.2526 63.0731 62.4526 62.5984 62.7806C59.0757 65.1566 55.0464 66.6686 50.8304 67.1993C49.6517 67.346 48.4304 67.4126 47.2917 67.074C44.0224 66.1006 42.5371 61.938 43.5237 58.674C44.5104 55.41 47.2971 52.9966 50.2411 51.2686C52.0651 50.202 54.0971 49.2206 55.1957 47.41C55.8411 46.3433 56.0944 45.074 56.7424 44.01C57.3904 42.946 58.4037 42.1433 59.4357 41.418C64.9957 37.57 71.6437 35.6126 78.4011 35.8286C82.4011 35.9673 87.1024 37.5753 87.9664 41.474L94.0997 44.058C98.8197 44.7833 103.62 46.3726 106.961 49.786C110.302 53.1993 111.761 58.7753 109.361 62.906C109.046 63.4393 108.657 64.0046 108.673 64.634C108.694 65.434 109.364 66.0633 109.918 66.6553C110.889 67.706 111.628 68.9486 112.084 70.3033C112.54 71.658 112.705 73.0926 112.569 74.5166C112.444 75.754 112.036 77.034 111.108 77.8526C110.18 78.6713 108.598 78.8393 107.721 77.9593L94.4144 79.9993L93.6704 76.9966Z" fill="black"/>
<path d="M50.3489 67.3398C48.6289 71.7638 47.5942 75.7585 47.3329 78.1772C46.6742 84.2678 47.9036 91.0358 52.5622 95.3745C55.0449 97.6838 58.1196 98.8198 61.4076 99.3985C64.8369 100.004 68.5169 100.556 71.8449 99.1958C71.6689 101.972 71.6422 103.953 71.7702 106.732L90.5702 104.646C90.2662 100.996 90.9436 97.8652 92.5329 94.5638C92.8929 93.8172 93.6662 93.8252 94.4316 93.5825C95.1116 93.3692 95.7782 93.1238 96.4369 92.8465C97.7729 92.2918 99.0342 91.5745 100.197 90.7132C102.496 88.9772 104.288 86.5398 104.96 83.7132C105.57 81.1505 105.141 78.0998 102.293 76.6572C100.285 75.6438 98.4849 76.0038 95.4262 78.6918L93.6929 77.0065C95.5409 74.8305 94.9676 71.0625 92.5569 69.5398C91.6929 68.9905 90.5996 68.6492 90.1276 67.7425C89.5942 66.7425 90.0769 65.5452 90.3569 64.4518C90.3569 64.4172 90.3756 64.3798 90.3862 64.3452C91.1862 61.0492 87.4182 58.6038 84.6742 60.5985C81.2476 63.0892 77.3542 64.8652 73.2262 65.8225C71.0929 66.3132 68.4716 66.4092 67.1542 64.6652C66.3756 63.6305 66.1889 62.0678 64.2209 62.2145C63.6476 62.2625 63.0956 62.4625 62.6209 62.7905C59.0902 65.1665 55.0502 66.6758 50.8289 67.2012" fill="#FFD39F"/>
<path d="M109.258 80.1568C108.258 80.1568 107.288 79.8021 106.578 79.0928C105.954 78.4661 105.957 77.4528 106.581 76.8288C107.208 76.2048 108.221 76.2075 108.845 76.8315C109.045 77.0315 109.672 76.9808 110.04 76.6555C110.533 76.2208 110.861 75.4048 110.968 74.3568C111.082 73.1568 110.946 71.9648 110.557 70.8155C110.17 69.6661 109.557 68.6341 108.733 67.7435L108.597 67.5995C107.965 66.9328 107.098 66.0208 107.064 64.6795C107.037 63.6528 107.52 62.8501 107.872 62.2635L107.973 62.0955C110.096 58.4395 108.445 53.5995 105.808 50.9088C103.186 48.2315 99.1622 46.4608 93.8475 45.6421C92.9728 45.5088 92.3755 44.6901 92.5088 43.8181C92.6422 42.9461 93.4608 42.3461 94.3328 42.4795C100.349 43.4048 104.978 45.4875 108.096 48.6688C109.986 50.5995 111.328 53.1168 111.872 55.7568C112.461 58.6128 112.058 61.4368 110.736 63.7141L110.616 63.9141C110.493 64.1168 110.29 64.4528 110.266 64.5915C110.322 64.7702 110.696 65.1622 110.92 65.3995L111.077 65.5648C112.216 66.7968 113.058 68.2155 113.592 69.7941C114.125 71.3728 114.312 73.0128 114.154 74.6715C113.962 76.5595 113.274 78.0715 112.16 79.0555C111.325 79.7888 110.277 80.1568 109.258 80.1568Z" fill="black"/>
<path d="M93.6693 78.5994C93.3039 78.5994 92.9359 78.4741 92.6346 78.2181C91.9599 77.6447 91.8799 76.6367 92.4506 75.9621C93.0239 75.2874 93.2719 74.2767 93.1173 73.2581C92.9626 72.2421 92.4239 71.3541 91.6799 70.8847C91.4959 70.7674 91.2799 70.6527 91.0506 70.5301C90.2533 70.1061 89.2586 69.5754 88.6853 68.4741C87.9386 67.0741 88.3519 65.5994 88.6559 64.5194C88.6933 64.3861 88.7306 64.2527 88.7653 64.1221C88.7813 64.0367 88.8026 63.9594 88.8239 63.8954C89.0853 62.6794 88.2506 62.0101 87.9839 61.8314C87.3999 61.4394 86.4666 61.2501 85.5946 61.8821C81.9733 64.5141 77.9279 66.3594 73.5679 67.3701C70.0079 68.1887 67.3413 67.5834 65.8586 65.6181C65.5946 65.2687 65.3999 64.9114 65.2293 64.5967C64.7759 63.7647 64.7599 63.7647 64.3199 63.7994C64.0399 63.8234 63.7573 63.9247 63.5146 64.0927C59.7839 66.6074 55.4746 68.2261 51.0346 68.7834C49.7813 68.9407 48.3039 69.0394 46.8399 68.6047C45.1093 68.0901 43.6399 66.8474 42.7013 65.1087C41.5813 63.0287 41.3173 60.4501 41.9946 58.2074C42.9599 55.0154 45.4613 52.2154 49.4346 49.8847C49.6799 49.7407 49.9253 49.6021 50.1733 49.4607C51.6746 48.6047 53.0906 47.7967 53.8319 46.5754C54.0799 46.1674 54.2719 45.6661 54.4773 45.1354C54.7253 44.4927 54.9813 43.8287 55.3813 43.1727C56.1866 41.8474 57.3679 40.9141 58.5199 40.1034C64.3306 36.0821 71.4053 33.9994 78.4559 34.2234C82.8959 34.3781 88.4586 36.2767 89.5333 41.1221C89.7253 41.9861 89.1813 42.8394 88.3173 43.0314C87.4559 43.2207 86.5999 42.6794 86.4079 41.8154C85.7733 38.9514 81.9039 37.5461 78.3493 37.4234C71.9839 37.2154 65.5893 39.1034 60.3493 42.7301C59.4879 43.3354 58.6133 44.0154 58.1119 44.8394C57.8613 45.2501 57.6666 45.7541 57.4613 46.2874C57.2159 46.9247 56.9626 47.5834 56.5679 48.2341C55.3973 50.1647 53.4639 51.2687 51.7573 52.2394C51.5199 52.3754 51.2853 52.5087 51.0506 52.6447C47.7973 54.5541 45.7813 56.7381 45.0559 59.1327C44.6266 60.5567 44.8026 62.2634 45.5173 63.5887C45.8933 64.2847 46.5839 65.1887 47.7493 65.5354C48.6479 65.8021 49.7119 65.7221 50.6346 65.6074C54.5786 65.1114 58.4079 63.6741 61.7066 61.4501C62.3919 60.9754 63.2133 60.6794 64.0666 60.6074C66.5973 60.4154 67.5359 62.1407 68.0399 63.0661C68.1706 63.3061 68.2933 63.5327 68.4133 63.6901C69.3306 64.9061 71.8213 64.4874 72.8479 64.2501C76.7866 63.3381 80.4426 61.6687 83.7146 59.2901C85.5306 57.9701 87.9066 57.9221 89.7679 59.1674C91.5973 60.3914 92.4426 62.5674 91.9226 64.7061C91.9146 64.7381 91.9066 64.7674 91.8959 64.7994C91.8959 64.8021 91.8959 64.8047 91.8933 64.8047C91.8906 64.8127 91.8879 64.8234 91.8879 64.8314C91.8426 65.0101 91.7919 65.1914 91.7413 65.3754C91.5759 65.9621 91.3733 66.6927 91.5226 66.9727C91.6453 67.2101 92.1119 67.4581 92.5626 67.6981C92.8346 67.8421 93.1146 67.9914 93.3999 68.1727C94.9359 69.1434 95.9893 70.8181 96.2879 72.7647C96.5866 74.7167 96.0799 76.6341 94.8986 78.0234C94.5733 78.4074 94.1226 78.5994 93.6693 78.5994ZM91.9333 64.4474C91.9333 64.4501 91.9333 64.4501 91.9333 64.4474C91.9333 64.4501 91.9333 64.4501 91.9333 64.4474ZM91.9333 64.4447V64.4474V64.4447Z" fill="black"/>
<path d="M58.2475 74.6974C59.2785 74.6974 60.1142 73.6826 60.1142 72.4307C60.1142 71.1789 59.2785 70.1641 58.2475 70.1641C57.2166 70.1641 56.3809 71.1789 56.3809 72.4307C56.3809 73.6826 57.2166 74.6974 58.2475 74.6974Z" fill="black"/>
<path d="M67.3159 75.3224C68.3468 75.3224 69.1826 74.3076 69.1826 73.0557C69.1826 71.8039 68.3468 70.7891 67.3159 70.7891C66.285 70.7891 65.4492 71.8039 65.4492 73.0557C65.4492 74.3076 66.285 75.3224 67.3159 75.3224Z" fill="black"/>
<path d="M90.5564 104.639C89.7351 104.639 89.0337 104.01 88.9644 103.172C88.6257 99.1564 89.4071 97.3191 91.0657 93.8631C91.6737 92.6018 92.8231 92.3244 93.5111 92.1591C93.6604 92.1218 93.8017 92.0898 93.9244 92.0498C94.5591 91.8498 95.1857 91.6204 95.7911 91.3644C97.0151 90.8577 98.1644 90.2044 99.2204 89.4204C101.348 87.8124 102.831 85.6498 103.38 83.3351C103.663 82.1698 104.047 79.3378 101.548 78.0764C100.458 77.5244 99.3884 77.3084 96.4577 79.8844C95.7937 80.4684 94.7831 80.4018 94.1991 79.7378C93.6151 79.0738 93.6817 78.0631 94.3457 77.4791C98.5537 73.7804 100.986 74.2071 102.988 75.2178C106.092 76.7858 107.434 80.1804 106.49 84.0791C105.77 87.1084 103.868 89.9164 101.138 91.9778C99.863 92.9244 98.4817 93.7084 97.0257 94.3111C96.3351 94.6018 95.6124 94.8684 94.8844 95.0951C94.6631 95.1644 94.4497 95.2178 94.263 95.2631C94.1457 95.2924 93.9937 95.3271 93.895 95.3591C92.3617 98.5591 91.887 99.7617 92.1537 102.898C92.2284 103.778 91.575 104.551 90.695 104.626C90.647 104.636 90.6017 104.639 90.5564 104.639Z" fill="black"/>
<path d="M71.7705 106.998C70.9198 106.998 70.2132 106.329 70.1732 105.47C70.0878 103.593 70.0692 102.649 70.1225 101.361C66.9172 101.979 63.6532 101.411 61.1358 100.971C57.0692 100.254 53.9092 98.8061 51.4745 96.5421C46.9998 92.3741 44.9118 85.6168 45.7438 77.9981C46.0558 75.1741 47.2185 70.9714 48.8585 66.7554C49.1785 65.9314 50.1065 65.5234 50.9305 65.8434C51.7545 66.1634 52.1625 67.0914 51.8425 67.9154C50.0238 72.5928 49.1438 76.3714 48.9252 78.3474C48.2025 84.9474 49.9252 90.7261 53.6558 94.1981C55.6505 96.0541 58.2025 97.2034 61.6878 97.8168C65.2505 98.4381 68.4318 98.8568 71.2425 97.7074C71.7518 97.4994 72.3332 97.5688 72.7812 97.8888C73.2292 98.2114 73.4798 98.7394 73.4452 99.2888C73.2745 101.971 73.2452 102.563 73.3732 105.315C73.4132 106.198 72.7305 106.947 71.8478 106.987C71.8185 106.998 71.7945 106.998 71.7705 106.998Z" fill="black"/>
<g clip-path="url(#clip0_1123_38294)">
<path d="M90.499 100C90.739 102.693 91.8403 108.779 95.939 107.867L96.379 108.533C96.179 112.712 94.0617 115.659 90.7443 118.712C87.3737 121.765 83.075 123.6 78.539 123.923C74.539 124.216 70.2857 123.259 67.2937 120.576C64.3017 117.893 62.7283 114.176 64.7097 110.989H64.9977C65.899 111.016 66.7283 110.544 67.491 110.064C68.4617 109.451 70.4643 106.936 71.0643 106.213C71.8643 105.176 72.1897 101.243 72.6003 100H90.499V100Z" fill="#FFD39F"/>
<path d="M33.8791 209.262C32.0124 209.958 30.4124 211.558 30.9458 213.691C34.4124 217.158 33.6124 222.224 33.3458 226.491C33.8871 227.68 34.7511 228.694 35.8364 229.419C36.9244 230.144 38.1911 230.552 39.4978 230.595L41.7324 210.23L33.8791 209.262Z" fill="#FFD39F"/>
<path d="M96.6034 106.43C101.321 107.694 104.979 111.328 107.926 115.048C111.139 119.115 113.662 123.683 115.393 128.568C116.361 131.294 117.891 134.366 118.523 137.187L119.366 139.75C123.899 159.302 124.737 179.462 125.041 199.568L125.307 200.214C126.934 206.227 133.067 221.427 134.401 227.827C134.443 228.374 134.353 228.923 134.134 229.427C131.467 232.627 126.934 231.827 123.427 232.912L111.035 235.382C93.2994 238.563 86.966 240.939 69.2007 237.944L68.4007 237.744C67.2327 227.92 66.3714 217.712 65.8727 207.427L65.75 207.96C64.0674 217.795 62.4914 226.894 62.1607 236.864L62.11 237.288C58.2887 236.558 46.7367 234.491 42.91 233.76C41.8754 233.56 40.7394 233.299 40.134 232.427C39.6327 231.712 39.6354 230.771 39.6727 229.899C39.8247 226.432 40.2247 222.99 40.6247 219.547L42.454 203.79H42.3154C39.606 203.462 37.43 203.134 34.7207 202.806C35.8434 190.416 37.2834 178.062 39.0407 165.739C40.5714 155.006 42.3474 144.27 45.5047 133.899C48.31 124.683 55.694 112.486 64.1447 107.864L69.406 108.704C72.8727 112.15 78.7047 112.88 82.902 110.392L96.6034 106.43Z" fill="black"/>
<path d="M105.762 216.001C103.194 216.83 99.8713 220.198 102.042 223.046C103.237 224.617 105.042 225.462 106.698 226.446C107.975 227.206 108.311 229.763 108.805 231.121C110.053 234.542 112.477 237.342 116.447 237.083C120.49 236.817 123.005 233.374 123.773 229.659C124.607 225.633 123.271 219.793 122.602 215.809L105.762 216.001Z" fill="#FFD39F"/>
<path fill-rule="evenodd" clip-rule="evenodd" d="M68.5527 150.277L68.7607 110.781C68.7607 109.237 69.0647 103.824 69.5367 103.075C66.07 105.347 63.9553 109.112 61.9607 112.733C60.8167 114.811 59.6353 117.037 59.7927 119.4C59.9088 121.169 60.7498 122.752 61.5933 124.34C62.3573 125.778 63.1234 127.22 63.3553 128.808C63.6774 131.012 62.9389 133.134 62.1945 135.273C61.6382 136.871 61.0785 138.479 60.9553 140.139C60.8087 142.219 61.6247 146.805 62.1713 148.827L66.1553 163.536L66.0193 176.947C70.6487 167.293 76.0567 158.032 82.1927 149.259C84.102 146.523 86.1927 143.483 85.782 140.171C85.6918 139.449 85.4864 138.726 85.2819 138.007C84.8819 136.599 84.486 135.206 84.966 133.867C85.2753 133.003 85.918 132.307 86.542 131.635L95.558 121.965C96.174 121.304 96.8087 120.611 97.078 119.747C97.382 118.76 97.166 117.696 96.9473 116.685L94.2007 104.029C93.958 102.912 93.4913 101.568 92.3607 101.387C89.6487 103.173 87.2407 105.837 85.1313 108.627C83.7752 110.422 82.526 112.277 81.3717 114.183L82.8995 110.393C78.7022 112.881 72.8702 112.151 69.4035 108.705V143.868L71.1934 139.429C70.2163 143.112 69.3702 146.846 68.598 150.592L68.5527 150.277ZM34.3691 209.172C34.5291 207.183 34.7051 205.146 35.5585 203.343L42.0891 204.055L41.3665 210.239C38.9958 210.223 36.6385 209.863 34.3691 209.172ZM102.86 215.224C102.714 213.146 102.852 211.061 103.268 209.021L122.932 209.309L123.13 214.224C123.146 214.81 123.106 215.52 122.596 215.81C122.346 215.925 122.071 215.973 121.796 215.952L103.663 216.002C103.468 216.026 103.271 215.981 103.103 215.88C103.02 215.792 102.956 215.688 102.914 215.576C102.874 215.464 102.855 215.344 102.86 215.224Z" fill="white"/>
<path fill-rule="evenodd" clip-rule="evenodd" d="M68.9432 239.52C74.8019 240.51 79.4392 240.923 83.6392 240.923C90.4206 240.923 96.0659 239.843 103.879 238.344L104.507 238.225L104.508 238.225L104.509 238.224L104.509 238.224L104.51 238.224L104.512 238.224L104.518 238.223C106.541 237.837 108.64 237.436 110.971 237.016C112.407 238.118 114.096 238.7 115.958 238.7C116.155 238.7 116.352 238.694 116.544 238.678C119.369 238.491 121.826 236.956 123.473 234.51C123.615 234.506 123.757 234.482 123.899 234.436C124.894 234.127 126.032 233.986 127.238 233.836C130.011 233.492 133.152 233.1 135.363 230.447C135.462 230.33 135.542 230.199 135.603 230.058C135.92 229.319 136.056 228.503 135.995 227.7L135.993 227.678C135.991 227.656 135.988 227.634 135.985 227.612C135.98 227.574 135.973 227.535 135.966 227.498C135.179 223.717 132.868 217.246 130.628 210.974L130.603 210.906L130.553 210.766C128.988 206.383 127.513 202.255 126.846 199.794C126.802 199.634 126.737 199.488 126.653 199.355C126.452 179.879 125.975 161.275 121.428 141.674C121.228 140.813 120.37 140.277 119.508 140.477C118.647 140.677 118.111 141.536 118.311 142.397C123.119 163.13 123.303 182.882 123.495 203.794L123.496 203.848C123.506 205.078 123.517 206.314 123.53 207.554L103.34 207.224C100.34 183.784 99.3058 159.938 100.263 136.333C100.3 135.45 99.6124 134.704 98.7298 134.669C97.8445 134.637 97.1005 135.32 97.0658 136.202C96.0818 160.45 97.1858 184.944 100.346 209.008C100.428 209.63 100.86 210.13 101.429 210.319C101.207 211.955 101.151 213.611 101.262 215.262C101.259 215.558 101.312 215.848 101.416 216.134C101.534 216.451 101.712 216.736 101.944 216.982C101.967 217.005 101.991 217.028 102.015 217.05C101.045 217.782 100.242 218.719 99.8883 219.846C99.5816 220.82 99.4883 222.334 100.768 224.014C101.955 225.574 103.592 226.51 105.038 227.334L105.242 227.452C105.456 227.574 105.67 227.697 105.88 227.822C106.275 228.058 106.706 229.63 106.895 230.317L106.899 230.332C107.03 230.812 107.155 231.262 107.302 231.67C107.642 232.605 108.048 233.455 108.51 234.214C106.632 234.562 104.879 234.896 103.279 235.203L103.275 235.204C91.0988 237.534 84.344 238.827 69.8686 236.43C68.798 227.21 68.0208 217.802 67.5446 208.454L67.5896 208.194C67.6432 207.881 67.6023 207.574 67.4874 207.301C67.0095 197.411 66.8695 187.599 67.0766 178.16C67.2366 178.022 67.3726 177.848 67.4712 177.643C72.0472 168.096 77.4446 158.856 83.5139 150.179C85.4499 147.406 87.8606 143.952 87.3806 139.984C87.2766 139.131 87.0499 138.328 86.8286 137.552C86.4792 136.323 86.1779 135.262 86.4819 134.411C86.6794 133.855 87.1996 133.294 87.7032 132.751L87.7032 132.751L87.7219 132.731L96.7379 123.062L96.7425 123.057L96.7425 123.057C97.4084 122.34 98.2374 121.448 98.6152 120.224C99.0508 118.814 98.7457 117.401 98.5219 116.365L98.5192 116.352L96.7353 108.134C101.125 109.533 104.49 113.289 106.669 116.04C109.781 119.976 112.208 124.371 113.882 129.104C114.232 130.083 114.65 131.109 115.056 132.101L115.067 132.129L115.067 132.13L115.067 132.13L115.067 132.13L115.067 132.13L115.067 132.13L115.067 132.13L115.067 132.13C115.81 133.951 116.578 135.83 116.96 137.536C117.128 138.28 117.786 138.787 118.52 138.787C118.637 138.787 118.754 138.773 118.872 138.747C119.733 138.552 120.274 137.696 120.082 136.835C119.64 134.859 118.816 132.84 118.018 130.888C117.608 129.885 117.221 128.939 116.898 128.032C115.106 122.968 112.509 118.267 109.178 114.053C106.626 110.832 102.589 106.376 97.0156 104.883C96.6804 104.792 96.3415 104.816 96.0396 104.929L95.7726 103.699C95.2739 101.376 94.2126 100.07 92.6206 99.8137C92.2259 99.7497 91.8206 99.835 91.4872 100.056C88.9779 101.707 86.4846 104.198 83.8606 107.667C83.5787 108.04 83.3014 108.416 83.0286 108.794C82.7184 108.774 82.3992 108.844 82.1116 109.015C78.706 111.035 73.8913 110.53 70.9191 107.906C71.2021 106.888 71.5218 105.959 71.693 105.663C72.0957 105.025 71.997 104.196 71.461 103.668C70.925 103.14 70.093 103.057 69.4637 103.471C67.9254 104.479 66.5071 105.442 65.2228 106.493C65.0437 106.52 64.8661 106.579 64.6977 106.671C55.3964 111.759 46.7111 124.524 43.9991 133.433C40.7884 143.98 38.9697 155.084 37.4817 165.513C35.7297 177.801 34.2711 190.297 33.1511 202.663C33.1056 203.152 33.2866 203.611 33.6089 203.936C33.1729 205.273 32.99 206.647 32.8691 207.947C30.1526 209.147 28.7645 211.561 29.3943 214.081C29.4663 214.363 29.6103 214.619 29.8157 214.825C32.4077 217.419 32.1223 221.294 31.845 225.041L31.8395 225.113L31.8395 225.114L31.8394 225.114L31.8394 225.114C31.8066 225.548 31.7742 225.976 31.749 226.395C31.733 226.657 31.781 226.918 31.8903 227.158C32.5543 228.619 33.613 229.862 34.949 230.753C35.9522 231.425 37.0807 231.873 38.2618 232.077C38.3772 232.518 38.5619 232.953 38.8509 233.365C39.8442 234.779 41.5074 235.118 42.63 235.348L42.6349 235.349C44.3528 235.676 47.6595 236.279 51.0609 236.898L52.4056 237.143C53.1273 237.275 53.854 237.408 54.5703 237.538C57.5351 238.079 60.3207 238.587 61.8349 238.877C61.9336 238.895 62.0323 238.906 62.1336 238.906C62.4696 238.906 62.8029 238.799 63.0803 238.594C63.4403 238.333 63.6723 237.933 63.7256 237.493L63.7763 237.069C63.7816 237.023 63.7843 236.978 63.7869 236.933L63.7869 236.933C63.9552 231.858 64.5098 226.998 65.2401 222.128C65.6724 227.43 66.1997 232.712 66.8206 237.931C66.8979 238.59 67.3752 239.134 68.0206 239.294L68.8206 239.494C68.8605 239.504 68.9032 239.512 68.9432 239.52ZM58.9552 115.227C53.4732 120.844 48.8427 128.503 47.0577 134.364C44.0844 144.127 42.3457 154.057 40.6471 165.964C38.9751 177.687 37.5724 189.604 36.4791 201.409C37.1394 201.494 37.7754 201.579 38.3995 201.663L38.7564 201.711C39.5073 201.811 40.275 201.914 41.0755 202.017L42.2163 192.181L42.2188 192.159C44.426 173.142 46.7086 153.475 51.1843 134.485C51.3869 133.626 52.2483 133.093 53.1096 133.295C53.9683 133.498 54.5016 134.359 54.2989 135.221C49.8647 154.035 47.5928 173.611 45.3956 192.543L45.3956 192.543L45.3949 192.549L42.2403 219.749C41.8509 223.103 41.4483 226.575 41.2963 229.986C41.2776 230.41 41.2429 231.205 41.4696 231.525C41.7321 231.896 42.6377 232.083 43.2457 232.208L43.2563 232.21C45.1363 232.57 49.0173 233.276 52.8017 233.964L52.8122 233.966L52.8282 233.969L52.9789 233.997C55.7496 234.501 58.5923 235.018 60.6456 235.399C61.0349 227.117 62.3789 219.431 63.7976 211.319C63.8713 210.895 63.9456 210.47 64.0201 210.043L64.0225 210.03L64.0231 210.026L64.0234 210.025C64.125 209.443 64.2269 208.86 64.328 208.275C63.5549 192.869 63.5943 177.629 64.4819 163.651C64.4853 163.609 64.4897 163.566 64.496 163.524L60.629 149.247C60.0824 147.228 59.1917 142.423 59.3624 140.028C59.501 138.153 60.1037 136.423 60.6877 134.748L60.6894 134.743C61.3847 132.745 62.0422 130.856 61.7757 129.041C61.5837 127.727 60.9037 126.447 60.1837 125.092L60.1774 125.08C59.2727 123.374 58.338 121.612 58.1997 119.505C58.0974 117.98 58.4409 116.546 58.9552 115.227ZM67.7569 163.499L67.8846 162.835L67.8847 162.834C71.1433 145.066 74.8367 124.928 86.4126 109.592C88.4819 106.854 90.4312 104.806 92.3379 103.366C92.4312 103.582 92.5406 103.899 92.6419 104.371L95.3886 117.027L95.3919 117.042L95.3919 117.043C95.5564 117.807 95.7419 118.668 95.5539 119.278C95.3931 119.8 94.8933 120.337 94.4079 120.86L94.3912 120.878L85.3726 130.55L85.3581 130.565C84.6993 131.277 83.8815 132.161 83.4632 133.331C82.8126 135.147 83.3086 136.891 83.7459 138.427C83.9432 139.115 84.1272 139.763 84.1992 140.368C84.5326 143.123 82.5966 145.899 80.8872 148.347C75.8872 155.499 71.3326 163.027 67.3086 170.792C67.4053 168.531 67.5226 166.294 67.6603 164.089C67.7285 163.903 67.7625 163.703 67.7569 163.499ZM65.8466 156.275L63.717 148.412C63.1624 146.359 62.4264 142.028 62.5517 140.26C62.6583 138.811 63.1667 137.351 63.7048 135.806L63.7064 135.801L63.7077 135.798C64.4993 133.521 65.3168 131.171 64.9384 128.58C64.6667 126.721 63.8234 125.134 63.0084 123.6L63.005 123.593L62.9918 123.568C62.2153 122.103 61.4818 120.719 61.389 119.297C61.269 117.473 62.1704 115.673 63.3624 113.508C64.413 111.601 65.757 110.169 67.4024 108.844C67.2557 109.58 67.1624 110.26 67.1624 110.775L66.9544 150.271C66.9538 150.359 66.9605 150.446 66.9739 150.53C66.5789 152.458 66.206 154.375 65.8466 156.275ZM70.2248 136.899C72.5473 128.654 75.6289 120.551 80.1225 113.176C79.2217 113.37 78.3 113.465 77.3783 113.465C74.9151 113.465 72.4447 112.785 70.3587 111.473L70.2248 136.899ZM36.0827 207.982C36.1969 206.838 36.3671 205.705 36.7391 204.675C37.251 204.742 37.751 204.809 38.2445 204.875L38.2447 204.875L38.2468 204.876L38.2488 204.876L38.2507 204.876L38.3297 204.887L38.7857 204.947C39.4092 205.03 40.0458 205.115 40.7063 205.2L40.3113 208.606C38.8855 208.53 37.4696 208.321 36.0827 207.982ZM34.2999 210.819C36.1418 211.348 38.0321 211.674 39.942 211.79L39.0616 219.381L39.0505 219.477C38.6996 222.509 38.338 225.634 38.1567 228.767C37.6524 228.614 37.1711 228.387 36.7277 228.091C35.9943 227.601 35.3916 226.942 34.973 226.169C34.9848 225.981 34.9988 225.793 35.0129 225.603L35.013 225.603C35.0211 225.494 35.0292 225.385 35.037 225.275L35.0373 225.271C35.3252 221.368 35.6811 216.543 32.4477 212.95C32.3995 211.731 33.7673 211.041 34.2999 210.819ZM106.953 217.591C106.794 218.05 106.429 218.431 105.931 218.59C104.448 219.068 103.19 219.998 102.939 220.801C102.891 220.953 102.766 221.358 103.312 222.076C104.097 223.109 105.306 223.801 106.585 224.535L106.622 224.556C106.92 224.726 107.219 224.897 107.512 225.07C109.022 225.969 109.555 227.921 109.982 229.486C110.094 229.9 110.203 230.292 110.304 230.574C111.166 232.937 112.92 235.713 116.339 235.486C118.59 235.337 121.31 233.644 122.203 229.334C122.887 226.032 122.271 222.476 121.674 219.034L121.672 219.022C121.598 218.598 121.526 218.177 121.454 217.756C121.442 217.687 121.435 217.618 121.432 217.55L106.953 217.591ZM124.222 216.422C124.418 216.64 124.556 216.915 124.608 217.225C124.667 217.579 124.728 217.932 124.789 218.287L124.79 218.291L124.822 218.476L124.824 218.489C125.471 222.224 126.141 226.086 125.331 229.982C125.266 230.294 125.192 230.6 125.11 230.899C125.69 230.806 126.272 230.734 126.846 230.663L126.849 230.662C129.25 230.364 131.334 230.105 132.739 228.591C132.792 228.412 132.816 228.223 132.811 228.036C132.04 224.431 129.678 217.82 127.59 211.983L127.558 211.893L127.555 211.887C127.27 211.088 126.988 210.296 126.712 209.521C126.647 209.82 126.497 210.096 126.276 210.314C125.978 210.613 125.57 210.781 125.148 210.781H125.122L124.592 210.772L124.728 214.158C124.74 214.578 124.768 215.596 124.222 216.422ZM121.389 210.72L104.644 210.445C104.448 211.753 104.374 213.077 104.422 214.4L121.536 214.352C121.536 214.326 121.536 214.296 121.534 214.267L121.389 210.72Z" fill="black"/>
</g>
<defs>
<clipPath id="clip0_1123_38294">
<rect width="160" height="160" fill="white" transform="translate(0 100)"/>
</clipPath>
</defs>
</svg>
