<svg width="160" height="260" viewBox="0 0 160 260" fill="none" xmlns="http://www.w3.org/2000/svg">
<path d="M100.533 92.4314C101.067 94.0687 103.563 93.4287 104.915 92.3567C111.357 87.2447 115.187 79.098 115.373 70.874C115.56 62.65 112.203 54.4714 106.557 48.49C103.184 44.9194 98.6346 41.9807 93.7306 42.2314L85.8666 38.3327C84.7759 35.9087 81.8932 34.7967 79.2399 34.6687C76.5866 34.5407 73.9333 35.1434 71.2799 35.0234C69.1652 34.9274 67.0799 34.3754 64.9653 34.434C60.0506 34.5674 55.8426 37.9167 52.4053 41.434C46.6266 47.346 41.6346 54.8127 41.6506 63.082C41.6506 67.77 42.9839 73.3274 39.5173 76.49C39.0693 76.9007 38.5013 77.4234 38.7173 77.9914C38.7946 78.1407 38.8986 78.274 39.0293 78.3807C39.1599 78.4874 39.3093 78.5674 39.4693 78.6127C42.3679 79.7887 46.0826 78.1114 47.1146 75.146L52.3359 65.2954C54.0853 62.6287 57.7066 61.8447 60.8826 62.17C64.0586 62.4954 67.1039 63.674 70.2853 63.9594C72.8453 64.1674 75.4212 63.7994 77.8212 62.882C80.2212 61.9647 82.3839 60.5167 84.1519 58.65L85.7519 59.082C87.2826 59.8394 88.5732 61.01 89.4799 62.458C90.3839 63.9087 90.8693 65.5807 90.8773 67.29C90.8613 69.042 90.3439 70.7434 90.0559 72.474C89.7679 74.2047 89.7706 76.0874 90.6959 77.5754C91.6212 79.0634 93.7279 79.9114 95.2079 78.97" fill="black"/>
<path d="M90.5591 104.368C90.2524 100.72 90.9618 97.8721 92.5484 94.5707C92.9058 93.8241 93.6818 93.8321 94.4471 93.5894C95.1244 93.3761 95.7964 93.1307 96.4524 92.8534C97.7884 92.2987 99.0498 91.5814 100.212 90.7201C102.511 88.9841 104.3 86.5467 104.975 83.7201C105.586 81.1574 105.156 78.1067 102.295 76.6641C100.29 75.6507 98.4898 76.0107 95.4311 78.6987L95.2151 78.9841C93.7351 79.9254 91.6258 79.0801 90.7031 77.5894C89.7804 76.0987 89.7831 74.2187 90.0631 72.4881C90.3431 70.7574 90.8631 69.0561 90.8844 67.3041C90.8764 65.5947 90.3911 63.9227 89.4871 62.4721C88.5831 61.0214 87.2924 59.8534 85.7591 59.0961L84.1591 58.6641C82.3911 60.5307 80.2284 61.9761 77.8284 62.8961C75.4284 63.8161 72.8524 64.1841 70.2924 63.9734C67.1111 63.6881 64.0658 62.5121 60.8898 62.1841C57.7138 61.8561 54.0924 62.6374 52.3431 65.3094L50.6658 66.9307C49.0658 69.3307 48.7991 72.2641 47.9991 75.1974C47.9991 76.0401 44.7564 87.4214 52.2658 94.9307C54.9324 97.5974 58.3991 98.6641 61.9991 99.4641C65.2284 99.9627 68.7564 100.464 71.8658 99.1974C71.6871 101.973 71.7164 104.416 71.8444 107.195" fill="#FFD39F"/>
<path fill-rule="evenodd" clip-rule="evenodd" d="M38.9323 80.1172C39.7269 80.4319 40.5856 80.5866 41.4576 80.5866C42.5296 80.5866 43.6229 80.3545 44.6576 79.8852C44.9937 79.733 45.3158 79.5593 45.6219 79.3662C45.1693 86.4218 47.2666 92.6247 51.4714 96.5413C53.906 98.8053 57.066 100.253 61.1327 100.971C63.65 101.411 66.914 101.979 70.1194 101.36C70.066 102.648 70.0847 103.592 70.17 105.469C70.21 106.328 70.9167 106.997 71.7674 106.997C71.794 106.997 71.818 106.997 71.8447 106.987C72.7274 106.947 73.41 106.197 73.37 105.315C73.242 102.563 73.2714 101.971 73.442 99.288C73.4767 98.7387 73.226 98.208 72.778 97.888C72.33 97.568 71.7487 97.4987 71.2394 97.7067C68.426 98.856 65.2474 98.4373 61.6847 97.816C58.1994 97.2027 55.6474 96.0533 53.6527 94.1973C49.922 90.7253 48.1994 84.9467 48.922 78.3467C49.1407 76.3707 50.0207 72.592 51.8394 67.9147C51.9794 67.5541 51.98 67.1737 51.8674 66.833C52.0201 66.8795 52.1769 66.9024 52.3329 66.9024C52.8556 66.9024 53.3649 66.6491 53.6689 66.1771C55.0876 64.0144 58.2396 63.5131 60.7143 63.7664C62.1477 63.9118 63.5628 64.2488 65.061 64.6055L65.061 64.6055L65.0983 64.6144C66.7169 65.001 68.3943 65.4011 70.1489 65.5584C72.9329 65.7851 75.7809 65.377 78.3889 64.3797C80.7471 63.4779 82.9287 62.0834 84.7445 60.3262C84.8374 60.4026 84.9404 60.4697 85.0528 60.5254C86.3195 61.152 87.3835 62.1174 88.1328 63.3147C88.8795 64.5147 89.2795 65.896 89.2875 67.2854C89.2795 68.328 89.0555 69.3974 88.8182 70.528L88.8072 70.5805C88.6959 71.111 88.5804 71.6612 88.4875 72.2214C88.0608 74.7814 88.3408 76.8134 89.3462 78.4294C90.0955 79.632 91.3675 80.5387 92.7515 80.8534C93.1062 80.9334 93.4608 80.9734 93.8102 80.9734C94.6235 80.9734 95.4048 80.7547 96.0768 80.3307C96.3194 80.176 96.5064 79.9668 96.6318 79.7293C99.431 77.3141 100.479 77.5324 101.548 78.0733C104.047 79.3346 103.663 82.1666 103.38 83.332C102.831 85.644 101.348 87.8093 99.22 89.4173C98.164 90.2013 97.0147 90.8546 95.7907 91.3613C95.1853 91.6173 94.5587 91.8466 93.924 92.0466C93.8273 92.0782 93.719 92.1047 93.6043 92.1329L93.6042 92.1329L93.5107 92.156C92.8227 92.3213 91.6733 92.5986 91.0653 93.86C89.4067 97.3133 88.6253 99.1533 88.964 103.169C89.0333 104.004 89.7347 104.636 90.556 104.636C90.6013 104.636 90.6467 104.633 90.6947 104.623C91.5747 104.551 92.228 103.775 92.1533 102.895C91.8867 99.7586 92.3613 98.556 93.8947 95.356C93.9704 95.3314 94.0776 95.3053 94.1763 95.2812L94.1764 95.2812C94.2063 95.2739 94.2354 95.2668 94.2627 95.26C94.4493 95.2146 94.6627 95.1613 94.884 95.092C95.612 94.8653 96.3347 94.5986 97.0253 94.308C97.7494 94.0083 98.455 93.6637 99.1382 93.2766C99.4995 94.0569 100.149 94.6165 100.997 94.8711C101.344 94.9751 101.706 95.0205 102.074 95.0205C103.464 95.0205 104.941 94.3618 105.898 93.6045C112.624 88.2685 116.762 79.7831 116.962 70.9058C117.154 62.3938 113.784 53.8205 107.709 47.3858C103.362 42.7858 98.3677 40.3858 93.6371 40.6285C92.7544 40.6738 92.0744 41.4258 92.1197 42.3085C92.1651 43.1911 92.9171 43.8738 93.7997 43.8258C98.8957 43.5698 103.245 47.3245 105.381 49.5858C110.882 55.4151 113.936 63.1591 113.762 70.8365C113.581 78.7751 109.898 86.3511 103.912 91.1005C103.218 91.6471 102.349 91.8631 102.002 91.8258C101.947 91.6904 101.875 91.5661 101.79 91.4548C104.171 89.453 105.828 86.8578 106.489 84.076C107.433 80.1773 106.092 76.7826 102.988 75.2146C100.988 74.204 98.5533 73.7773 94.3453 77.476C94.253 77.5572 94.1721 77.6467 94.103 77.7424C93.8756 77.8015 93.6404 77.7764 93.4635 77.736C92.9115 77.608 92.3622 77.2187 92.0662 76.7414C91.4982 75.8267 91.3568 74.4827 91.6448 72.7467C91.7171 72.2966 91.8098 71.8506 91.9069 71.3836L91.9069 71.3836L91.9069 71.3835L91.9069 71.3835L91.9069 71.3834L91.9488 71.1814C92.2075 69.9467 92.4742 68.672 92.4875 67.2907C92.4768 65.2827 91.9115 63.3227 90.8475 61.6187C89.7835 59.9174 88.2715 58.5467 86.4715 57.656C86.0957 57.47 85.682 57.4455 85.3091 57.5558C85.2893 57.5349 85.2688 57.5144 85.2476 57.4944C84.6076 56.8864 83.5943 56.913 82.9863 57.5557C81.3916 59.2384 79.4076 60.5637 77.2449 61.393C75.0823 62.2224 72.7169 62.5584 70.4236 62.3717C68.9267 62.2397 67.4507 61.8881 65.8894 61.5163L65.8893 61.5163L65.8893 61.5162L65.8892 61.5162L65.8423 61.505C64.2983 61.137 62.6983 60.7557 61.0423 60.585C56.6263 60.1344 52.8689 61.5691 50.9943 64.4251C50.7173 64.8489 50.6669 65.3562 50.8138 65.8033C50.0198 65.5608 49.1607 65.9683 48.8554 66.7547C47.9315 69.1297 47.1591 71.5006 46.6049 73.6231C46.1539 73.7761 45.7757 74.1286 45.6069 74.6132C45.2576 75.6132 44.4309 76.4719 43.3349 76.9679C42.5429 77.3279 41.7029 77.4559 40.9269 77.3492C43.8629 74.3545 43.6043 69.9812 43.3749 66.1039C43.3109 65.0425 43.2523 64.0399 43.2523 63.0719C43.2389 56.4585 46.7056 49.5519 53.5509 42.5465C56.2283 39.8079 60.3269 36.1545 65.0123 36.0265C66.0896 35.9972 67.1909 36.1492 68.3589 36.3119C69.2789 36.4399 70.2309 36.5705 71.2096 36.6159C72.6336 36.6799 74.0336 36.5545 75.3829 36.4319L75.4083 36.4296C76.7136 36.3131 77.9481 36.2029 79.1643 36.2612C81.1509 36.3572 83.5723 37.1225 84.4096 38.9839C84.7723 39.7892 85.7189 40.1492 86.5243 39.7865C87.3296 39.4239 87.6896 38.4772 87.3269 37.6719C85.8976 34.4932 82.2523 33.2079 79.3189 33.0665C77.8809 32.9976 76.4746 33.1239 75.1157 33.246L75.0949 33.2479C73.7936 33.3652 72.5643 33.4745 71.3536 33.4212C70.5387 33.3846 69.7188 33.2713 68.8511 33.1515L68.7963 33.1439C67.5509 32.9705 66.2629 32.7919 64.9216 32.8292C59.0736 32.9865 54.3243 37.1732 51.2603 40.3092C43.8069 47.9332 40.0363 55.5945 40.0496 63.0745C40.0496 64.0835 40.1102 65.1288 40.1689 66.1435L40.1776 66.2932L40.1779 66.2985C40.3911 69.9179 40.5925 73.3368 38.4363 75.3039C37.8923 75.8026 36.6203 76.9705 37.2229 78.5545C37.2416 78.6105 37.2656 78.6639 37.2923 78.7145C37.4683 79.0585 37.7109 79.3599 38.0096 79.6079C38.2843 79.8372 38.5936 80.0079 38.9323 80.1172ZM60.1134 72.4253C60.1134 73.6771 59.2777 74.6919 58.2467 74.6919C57.2158 74.6919 56.3801 73.6771 56.3801 72.4253C56.3801 71.1734 57.2158 70.1586 58.2467 70.1586C59.2777 70.1586 60.1134 71.1734 60.1134 72.4253ZM69.1806 73.0534C69.1806 74.3052 68.3449 75.3201 67.3139 75.3201C66.283 75.3201 65.4473 74.3052 65.4473 73.0534C65.4473 71.8015 66.283 70.7867 67.3139 70.7867C68.3449 70.7867 69.1806 71.8015 69.1806 73.0534Z" fill="black"/>
<g clip-path="url(#clip0_1123_38275)">
<path d="M90.499 100C90.739 102.693 91.8403 108.779 95.939 107.867L96.379 108.533C96.179 112.712 94.0617 115.659 90.7443 118.712C87.3737 121.765 83.075 123.6 78.539 123.923C74.539 124.216 70.2857 123.259 67.2937 120.576C64.3017 117.893 62.7283 114.176 64.7097 110.989H64.9977C65.899 111.016 66.7283 110.544 67.491 110.064C68.4617 109.451 70.4643 106.936 71.0643 106.213C71.8643 105.176 72.1897 101.243 72.6003 100H90.499V100Z" fill="#FFD39F"/>
<path d="M33.8791 209.262C32.0124 209.958 30.4124 211.558 30.9458 213.691C34.4124 217.158 33.6124 222.224 33.3458 226.491C33.8871 227.68 34.7511 228.694 35.8364 229.419C36.9244 230.144 38.1911 230.552 39.4978 230.595L41.7324 210.23L33.8791 209.262Z" fill="#FFD39F"/>
<path d="M96.6034 106.43C101.321 107.694 104.979 111.328 107.926 115.048C111.139 119.115 113.662 123.683 115.393 128.568C116.361 131.294 117.891 134.366 118.523 137.187L119.366 139.75C123.899 159.302 124.737 179.462 125.041 199.568L125.307 200.214C126.934 206.227 133.067 221.427 134.401 227.827C134.443 228.374 134.353 228.923 134.134 229.427C131.467 232.627 126.934 231.827 123.427 232.912L111.035 235.382C93.2994 238.563 86.966 240.939 69.2007 237.944L68.4007 237.744C67.2327 227.92 66.3714 217.712 65.8727 207.427L65.75 207.96C64.0674 217.795 62.4914 226.894 62.1607 236.864L62.11 237.288C58.2887 236.558 46.7367 234.491 42.91 233.76C41.8754 233.56 40.7394 233.299 40.134 232.427C39.6327 231.712 39.6354 230.771 39.6727 229.899C39.8247 226.432 40.2247 222.99 40.6247 219.547L42.454 203.79H42.3154C39.606 203.462 37.43 203.134 34.7207 202.806C35.8434 190.416 37.2834 178.062 39.0407 165.739C40.5714 155.006 42.3474 144.27 45.5047 133.899C48.31 124.683 55.694 112.486 64.1447 107.864L69.406 108.704C72.8727 112.15 78.7047 112.88 82.902 110.392L96.6034 106.43Z" fill="black"/>
<path d="M105.762 216.001C103.194 216.83 99.8713 220.198 102.042 223.046C103.237 224.617 105.042 225.462 106.698 226.446C107.975 227.206 108.311 229.763 108.805 231.121C110.053 234.542 112.477 237.342 116.447 237.083C120.49 236.817 123.005 233.374 123.773 229.659C124.607 225.633 123.271 219.793 122.602 215.809L105.762 216.001Z" fill="#FFD39F"/>
<path fill-rule="evenodd" clip-rule="evenodd" d="M68.5527 150.277L68.7607 110.781C68.7607 109.237 69.0647 103.824 69.5367 103.075C66.07 105.347 63.9553 109.112 61.9607 112.733C60.8167 114.811 59.6353 117.037 59.7927 119.4C59.9088 121.169 60.7498 122.752 61.5933 124.34C62.3573 125.778 63.1234 127.22 63.3553 128.808C63.6774 131.012 62.9389 133.134 62.1945 135.273C61.6382 136.871 61.0785 138.479 60.9553 140.139C60.8087 142.219 61.6247 146.805 62.1713 148.827L66.1553 163.536L66.0193 176.947C70.6487 167.293 76.0567 158.032 82.1927 149.259C84.102 146.523 86.1927 143.483 85.782 140.171C85.6918 139.449 85.4864 138.726 85.2819 138.007C84.8819 136.599 84.486 135.206 84.966 133.867C85.2753 133.003 85.918 132.307 86.542 131.635L95.558 121.965C96.174 121.304 96.8087 120.611 97.078 119.747C97.382 118.76 97.166 117.696 96.9473 116.685L94.2007 104.029C93.958 102.912 93.4913 101.568 92.3607 101.387C89.6487 103.173 87.2407 105.837 85.1313 108.627C83.7752 110.422 82.526 112.277 81.3717 114.183L82.8995 110.393C78.7022 112.881 72.8702 112.151 69.4035 108.705V143.868L71.1934 139.429C70.2163 143.112 69.3702 146.846 68.598 150.592L68.5527 150.277ZM34.3691 209.172C34.5291 207.183 34.7051 205.146 35.5585 203.343L42.0891 204.055L41.3665 210.239C38.9958 210.223 36.6385 209.863 34.3691 209.172ZM102.86 215.224C102.714 213.146 102.852 211.061 103.268 209.021L122.932 209.309L123.13 214.224C123.146 214.81 123.106 215.52 122.596 215.81C122.346 215.925 122.071 215.973 121.796 215.952L103.663 216.002C103.468 216.026 103.271 215.981 103.103 215.88C103.02 215.792 102.956 215.688 102.914 215.576C102.874 215.464 102.855 215.344 102.86 215.224Z" fill="white"/>
<path fill-rule="evenodd" clip-rule="evenodd" d="M68.9432 239.52C74.8019 240.51 79.4392 240.923 83.6392 240.923C90.4206 240.923 96.0659 239.843 103.879 238.344L104.507 238.225L104.508 238.225L104.509 238.224L104.509 238.224L104.51 238.224L104.512 238.224L104.518 238.223C106.541 237.837 108.64 237.436 110.971 237.016C112.407 238.118 114.096 238.7 115.958 238.7C116.155 238.7 116.352 238.694 116.544 238.678C119.369 238.491 121.826 236.956 123.473 234.51C123.615 234.506 123.757 234.482 123.899 234.436C124.894 234.127 126.032 233.986 127.238 233.836C130.011 233.492 133.152 233.1 135.363 230.447C135.462 230.33 135.542 230.199 135.603 230.058C135.92 229.319 136.056 228.503 135.995 227.7L135.993 227.678C135.991 227.656 135.988 227.634 135.985 227.612C135.98 227.574 135.973 227.535 135.966 227.498C135.179 223.717 132.868 217.246 130.628 210.974L130.603 210.906L130.553 210.766C128.988 206.383 127.513 202.255 126.846 199.794C126.802 199.634 126.737 199.488 126.653 199.355C126.452 179.879 125.975 161.275 121.428 141.674C121.228 140.813 120.37 140.277 119.508 140.477C118.647 140.677 118.111 141.536 118.311 142.397C123.119 163.13 123.303 182.882 123.495 203.794L123.496 203.848C123.506 205.078 123.517 206.314 123.53 207.554L103.34 207.224C100.34 183.784 99.3058 159.938 100.263 136.333C100.3 135.45 99.6124 134.704 98.7298 134.669C97.8445 134.637 97.1005 135.32 97.0658 136.202C96.0818 160.45 97.1858 184.944 100.346 209.008C100.428 209.63 100.86 210.13 101.429 210.319C101.207 211.955 101.151 213.611 101.262 215.262C101.259 215.558 101.312 215.848 101.416 216.134C101.534 216.451 101.712 216.736 101.944 216.982C101.967 217.005 101.991 217.028 102.015 217.05C101.045 217.782 100.242 218.719 99.8883 219.846C99.5816 220.82 99.4883 222.334 100.768 224.014C101.955 225.574 103.592 226.51 105.038 227.334L105.242 227.452C105.456 227.574 105.67 227.697 105.88 227.822C106.275 228.058 106.706 229.63 106.895 230.317L106.899 230.332C107.03 230.812 107.155 231.262 107.302 231.67C107.642 232.605 108.048 233.455 108.51 234.214C106.632 234.562 104.879 234.896 103.279 235.203L103.275 235.204C91.0988 237.534 84.344 238.827 69.8686 236.43C68.798 227.21 68.0208 217.802 67.5446 208.454L67.5896 208.194C67.6432 207.881 67.6023 207.574 67.4874 207.301C67.0095 197.411 66.8695 187.599 67.0766 178.16C67.2366 178.022 67.3726 177.848 67.4712 177.643C72.0472 168.096 77.4446 158.856 83.5139 150.179C85.4499 147.406 87.8606 143.952 87.3806 139.984C87.2766 139.131 87.0499 138.328 86.8286 137.552C86.4792 136.323 86.1779 135.262 86.4819 134.411C86.6794 133.855 87.1996 133.294 87.7032 132.751L87.7032 132.751L87.7219 132.731L96.7379 123.062L96.7425 123.057L96.7425 123.057C97.4084 122.34 98.2374 121.448 98.6152 120.224C99.0508 118.814 98.7457 117.401 98.5219 116.365L98.5192 116.352L96.7353 108.134C101.125 109.533 104.49 113.289 106.669 116.04C109.781 119.976 112.208 124.371 113.882 129.104C114.232 130.083 114.65 131.109 115.056 132.101L115.067 132.129L115.067 132.13L115.067 132.13L115.067 132.13L115.067 132.13L115.067 132.13L115.067 132.13L115.067 132.13C115.81 133.951 116.578 135.83 116.96 137.536C117.128 138.28 117.786 138.787 118.52 138.787C118.637 138.787 118.754 138.773 118.872 138.747C119.733 138.552 120.274 137.696 120.082 136.835C119.64 134.859 118.816 132.84 118.018 130.888C117.608 129.885 117.221 128.939 116.898 128.032C115.106 122.968 112.509 118.267 109.178 114.053C106.626 110.832 102.589 106.376 97.0156 104.883C96.6804 104.792 96.3415 104.816 96.0396 104.929L95.7726 103.699C95.2739 101.376 94.2126 100.07 92.6206 99.8137C92.2259 99.7497 91.8206 99.835 91.4872 100.056C88.9779 101.707 86.4846 104.198 83.8606 107.667C83.5787 108.04 83.3014 108.416 83.0286 108.794C82.7184 108.774 82.3992 108.844 82.1116 109.015C78.706 111.035 73.8913 110.53 70.9191 107.906C71.2021 106.888 71.5218 105.959 71.693 105.663C72.0957 105.025 71.997 104.196 71.461 103.668C70.925 103.14 70.093 103.057 69.4637 103.471C67.9254 104.479 66.5071 105.442 65.2228 106.493C65.0437 106.52 64.8661 106.579 64.6977 106.671C55.3964 111.759 46.7111 124.524 43.9991 133.433C40.7884 143.98 38.9697 155.084 37.4817 165.513C35.7297 177.801 34.2711 190.297 33.1511 202.663C33.1056 203.152 33.2866 203.611 33.6089 203.936C33.1729 205.273 32.99 206.647 32.8691 207.947C30.1526 209.147 28.7645 211.561 29.3943 214.081C29.4663 214.363 29.6103 214.619 29.8157 214.825C32.4077 217.419 32.1223 221.294 31.845 225.041L31.8395 225.113L31.8395 225.114L31.8394 225.114L31.8394 225.114C31.8066 225.548 31.7742 225.976 31.749 226.395C31.733 226.657 31.781 226.918 31.8903 227.158C32.5543 228.619 33.613 229.862 34.949 230.753C35.9522 231.425 37.0807 231.873 38.2618 232.077C38.3772 232.518 38.5619 232.953 38.8509 233.365C39.8442 234.779 41.5074 235.118 42.63 235.348L42.6349 235.349C44.3528 235.676 47.6595 236.279 51.0609 236.898L52.4056 237.143C53.1273 237.275 53.854 237.408 54.5703 237.538C57.5351 238.079 60.3207 238.587 61.8349 238.877C61.9336 238.895 62.0323 238.906 62.1336 238.906C62.4696 238.906 62.8029 238.799 63.0803 238.594C63.4403 238.333 63.6723 237.933 63.7256 237.493L63.7763 237.069C63.7816 237.023 63.7843 236.978 63.7869 236.933L63.7869 236.933C63.9552 231.858 64.5098 226.998 65.2401 222.128C65.6724 227.43 66.1997 232.712 66.8206 237.931C66.8979 238.59 67.3752 239.134 68.0206 239.294L68.8206 239.494C68.8605 239.504 68.9032 239.512 68.9432 239.52ZM58.9552 115.227C53.4732 120.844 48.8427 128.503 47.0577 134.364C44.0844 144.127 42.3457 154.057 40.6471 165.964C38.9751 177.687 37.5724 189.604 36.4791 201.409C37.1394 201.494 37.7754 201.579 38.3995 201.663L38.7564 201.711C39.5073 201.811 40.275 201.914 41.0755 202.017L42.2163 192.181L42.2188 192.159C44.426 173.142 46.7086 153.475 51.1843 134.485C51.3869 133.626 52.2483 133.093 53.1096 133.295C53.9683 133.498 54.5016 134.359 54.2989 135.221C49.8647 154.035 47.5928 173.611 45.3956 192.543L45.3956 192.543L45.3949 192.549L42.2403 219.749C41.8509 223.103 41.4483 226.575 41.2963 229.986C41.2776 230.41 41.2429 231.205 41.4696 231.525C41.7321 231.896 42.6377 232.083 43.2457 232.208L43.2563 232.21C45.1363 232.57 49.0173 233.276 52.8017 233.964L52.8122 233.966L52.8282 233.969L52.9789 233.997C55.7496 234.501 58.5923 235.018 60.6456 235.399C61.0349 227.117 62.3789 219.431 63.7976 211.319C63.8713 210.895 63.9456 210.47 64.0201 210.043L64.0225 210.03L64.0231 210.026L64.0234 210.025C64.125 209.443 64.2269 208.86 64.328 208.275C63.5549 192.869 63.5943 177.629 64.4819 163.651C64.4853 163.609 64.4897 163.566 64.496 163.524L60.629 149.247C60.0824 147.228 59.1917 142.423 59.3624 140.028C59.501 138.153 60.1037 136.423 60.6877 134.748L60.6894 134.743C61.3847 132.745 62.0422 130.856 61.7757 129.041C61.5837 127.727 60.9037 126.447 60.1837 125.092L60.1774 125.08C59.2727 123.374 58.338 121.612 58.1997 119.505C58.0974 117.98 58.4409 116.546 58.9552 115.227ZM67.7569 163.499L67.8846 162.835L67.8847 162.834C71.1433 145.066 74.8367 124.928 86.4126 109.592C88.4819 106.854 90.4312 104.806 92.3379 103.366C92.4312 103.582 92.5406 103.899 92.6419 104.371L95.3886 117.027L95.3919 117.042L95.3919 117.043C95.5564 117.807 95.7419 118.668 95.5539 119.278C95.3931 119.8 94.8933 120.337 94.4079 120.86L94.3912 120.878L85.3726 130.55L85.3581 130.565C84.6993 131.277 83.8815 132.161 83.4632 133.331C82.8126 135.147 83.3086 136.891 83.7459 138.427C83.9432 139.115 84.1272 139.763 84.1992 140.368C84.5326 143.123 82.5966 145.899 80.8872 148.347C75.8872 155.499 71.3326 163.027 67.3086 170.792C67.4053 168.531 67.5226 166.294 67.6603 164.089C67.7285 163.903 67.7625 163.703 67.7569 163.499ZM65.8466 156.275L63.717 148.412C63.1624 146.359 62.4264 142.028 62.5517 140.26C62.6583 138.811 63.1667 137.351 63.7048 135.806L63.7064 135.801L63.7077 135.798C64.4993 133.521 65.3168 131.171 64.9384 128.58C64.6667 126.721 63.8234 125.134 63.0084 123.6L63.005 123.593L62.9918 123.568C62.2153 122.103 61.4818 120.719 61.389 119.297C61.269 117.473 62.1704 115.673 63.3624 113.508C64.413 111.601 65.757 110.169 67.4024 108.844C67.2557 109.58 67.1624 110.26 67.1624 110.775L66.9544 150.271C66.9538 150.359 66.9605 150.446 66.9739 150.53C66.5789 152.458 66.206 154.375 65.8466 156.275ZM70.2248 136.899C72.5473 128.654 75.6289 120.551 80.1225 113.176C79.2217 113.37 78.3 113.465 77.3783 113.465C74.9151 113.465 72.4447 112.785 70.3587 111.473L70.2248 136.899ZM36.0827 207.982C36.1969 206.838 36.3671 205.705 36.7391 204.675C37.251 204.742 37.751 204.809 38.2445 204.875L38.2447 204.875L38.2468 204.876L38.2488 204.876L38.2507 204.876L38.3297 204.887L38.7857 204.947C39.4092 205.03 40.0458 205.115 40.7063 205.2L40.3113 208.606C38.8855 208.53 37.4696 208.321 36.0827 207.982ZM34.2999 210.819C36.1418 211.348 38.0321 211.674 39.942 211.79L39.0616 219.381L39.0505 219.477C38.6996 222.509 38.338 225.634 38.1567 228.767C37.6524 228.614 37.1711 228.387 36.7277 228.091C35.9943 227.601 35.3916 226.942 34.973 226.169C34.9848 225.981 34.9988 225.793 35.0129 225.603L35.013 225.603C35.0211 225.494 35.0292 225.385 35.037 225.275L35.0373 225.271C35.3252 221.368 35.6811 216.543 32.4477 212.95C32.3995 211.731 33.7673 211.041 34.2999 210.819ZM106.953 217.591C106.794 218.05 106.429 218.431 105.931 218.59C104.448 219.068 103.19 219.998 102.939 220.801C102.891 220.953 102.766 221.358 103.312 222.076C104.097 223.109 105.306 223.801 106.585 224.535L106.622 224.556C106.92 224.726 107.219 224.897 107.512 225.07C109.022 225.969 109.555 227.921 109.982 229.486C110.094 229.9 110.203 230.292 110.304 230.574C111.166 232.937 112.92 235.713 116.339 235.486C118.59 235.337 121.31 233.644 122.203 229.334C122.887 226.032 122.271 222.476 121.674 219.034L121.672 219.022C121.598 218.598 121.526 218.177 121.454 217.756C121.442 217.687 121.435 217.618 121.432 217.55L106.953 217.591ZM124.222 216.422C124.418 216.64 124.556 216.915 124.608 217.225C124.667 217.579 124.728 217.932 124.789 218.287L124.79 218.291L124.822 218.476L124.824 218.489C125.471 222.224 126.141 226.086 125.331 229.982C125.266 230.294 125.192 230.6 125.11 230.899C125.69 230.806 126.272 230.734 126.846 230.663L126.849 230.662C129.25 230.364 131.334 230.105 132.739 228.591C132.792 228.412 132.816 228.223 132.811 228.036C132.04 224.431 129.678 217.82 127.59 211.983L127.558 211.893L127.555 211.887C127.27 211.088 126.988 210.296 126.712 209.521C126.647 209.82 126.497 210.096 126.276 210.314C125.978 210.613 125.57 210.781 125.148 210.781H125.122L124.592 210.772L124.728 214.158C124.74 214.578 124.768 215.596 124.222 216.422ZM121.389 210.72L104.644 210.445C104.448 211.753 104.374 213.077 104.422 214.4L121.536 214.352C121.536 214.326 121.536 214.296 121.534 214.267L121.389 210.72Z" fill="black"/>
</g>
<defs>
<clipPath id="clip0_1123_38275">
<rect width="160" height="160" fill="white" transform="translate(0 100)"/>
</clipPath>
</defs>
</svg>
