<svg width="160" height="260" viewBox="0 0 160 260" fill="none" xmlns="http://www.w3.org/2000/svg">
<path d="M95.6372 98.5115C96.5892 99.9275 97.5785 101.384 98.9945 102.338C100.411 103.293 102.376 103.64 103.819 102.728C105.419 101.712 106.421 99.2608 108.304 99.5275C109.048 99.6368 109.637 100.186 110.197 100.696C111.763 102.144 113.573 103.562 115.704 103.696C117.835 103.829 120.171 102.042 119.8 99.9408C119.669 99.1995 119.232 98.5168 119.24 97.7648C119.253 96.4528 120.573 95.5622 121.144 94.3835C122.515 91.6022 119.603 87.9648 121.197 85.3035C121.688 84.4902 122.517 83.9515 123.229 83.3222C126.765 80.1888 127.099 74.1008 123.923 70.5995C122.747 69.3035 121.149 68.2902 120.523 66.6555C120.133 65.6395 120.176 64.5222 120.195 63.4315C120.296 57.2022 119.328 50.8262 116.36 45.3462C113.392 39.8662 109.597 38.3568 103.48 37.1755L98.6985 34.2048C97.2052 31.8315 94.3732 30.6902 91.6638 29.9702C83.1305 27.7088 72.4745 25.2662 64.3919 28.7995C56.3092 32.3328 49.5279 38.8928 46.0239 46.9888C44.2159 51.1675 43.1972 55.8235 40.2452 59.2902C37.7279 62.2475 34.0692 64.0075 31.3359 66.7568C28.6025 69.5062 26.9865 74.2235 29.4879 77.1942C29.9945 77.7968 30.6559 78.3062 30.9439 79.0422C31.9332 81.5675 28.1359 83.1915 26.9119 85.6128C25.7679 87.8795 27.1199 90.6288 28.8399 92.4982C30.5599 94.3675 32.7332 95.9648 33.6719 98.3195C34.3679 100.069 34.4159 102.264 35.9279 103.386C37.6212 104.645 40.0425 103.744 42.1012 104.21C44.1599 104.677 45.6372 106.461 47.2425 107.856C48.8479 109.25 51.2292 110.333 53.0319 109.205C53.9919 108.602 54.5438 107.496 55.4985 106.888C57.4212 105.661 59.8772 106.901 62.0505 107.592C64.2239 108.282 67.4958 107.562 67.3652 105.285" fill="black"/>
<path d="M90.5702 104.644C90.2662 100.994 90.9436 97.8631 92.5329 94.5618C92.8929 93.8151 93.6662 93.8231 94.4316 93.5804C95.1116 93.3671 95.7782 93.1218 96.4369 92.8444C97.7729 92.2898 99.0369 91.5724 100.197 90.7111C102.496 88.9751 104.288 86.5378 104.96 83.7111C105.57 81.1484 105.141 78.0978 102.293 76.6551C100.285 75.6418 98.4849 76.0018 95.4262 78.6898L94.5196 76.5324C95.4742 71.8578 95.8636 67.0818 95.6796 62.3138C95.5942 60.0738 92.5596 56.5538 90.4876 55.6978L86.8982 52.0444C85.0316 48.3111 71.5302 47.1084 67.5249 48.2684C60.5702 50.5271 58.5516 51.7218 56.5382 54.4311C54.5249 57.1404 53.4422 60.4124 52.3942 63.6204L50.3489 67.3324C48.6289 71.7564 47.5942 75.7511 47.3329 78.1698C46.6742 84.2604 47.9036 91.0284 52.5622 95.3671C55.0449 97.6764 58.1196 98.8124 61.4076 99.3911C64.8369 99.9964 68.5169 100.548 71.8449 99.1884C71.6689 101.964 71.6422 104.212 71.7702 106.991" fill="#FFD39F"/>
<path fill-rule="evenodd" clip-rule="evenodd" d="M46.1903 109.064C47.5877 110.277 49.4757 111.28 51.3477 111.28C52.2117 111.28 53.073 111.066 53.8757 110.546C54.5557 110.12 55.041 109.57 55.4677 109.085L55.483 109.068C55.7866 108.725 56.0724 108.402 56.353 108.224C57.3023 107.618 58.817 108.149 60.4197 108.714C60.793 108.848 61.1797 108.981 61.561 109.104C63.6117 109.757 66.0623 109.421 67.5183 108.29C68.5183 107.514 69.0277 106.41 68.9583 105.181C68.9077 104.298 68.153 103.624 67.2703 103.674C66.3877 103.725 65.713 104.48 65.7637 105.362C65.7717 105.49 65.761 105.602 65.5557 105.76C64.937 106.242 63.5503 106.376 62.5317 106.053C62.1877 105.944 61.8383 105.821 61.4837 105.696L61.4765 105.693C59.4351 104.976 56.8944 104.084 54.6357 105.525C53.9754 105.945 53.5008 106.483 53.0824 106.957L53.0703 106.97C52.7583 107.325 52.465 107.658 52.1797 107.837C51.1717 108.469 49.4997 107.69 48.289 106.637C47.9836 106.372 47.6831 106.09 47.3647 105.792L47.3646 105.792L47.3103 105.741L47.3017 105.733C45.9811 104.498 44.4872 103.1 42.4517 102.64C41.4543 102.413 40.4437 102.442 39.553 102.469L39.5413 102.469H39.5412C38.4289 102.501 37.4656 102.529 36.8783 102.09C36.2788 101.643 36.0254 100.687 35.7324 99.5813L35.7317 99.5784C35.5717 98.9678 35.4037 98.3384 35.1557 97.7144C34.3397 95.6717 32.8437 94.2104 31.3957 92.7971L31.2452 92.6493L31.245 92.649C30.812 92.2237 30.3993 91.8181 30.0143 91.3997C28.7503 90.0264 27.553 87.8717 28.337 86.3197C28.673 85.6557 29.3903 84.9571 30.0837 84.2824C31.4997 82.9064 33.4383 81.0184 32.4303 78.4451C32.1103 77.6291 31.5557 77.0504 31.1103 76.5864C30.961 76.4317 30.8223 76.2851 30.7077 76.1491C28.873 73.9731 30.193 70.1571 32.465 67.8717C33.6057 66.7231 34.9328 65.7529 36.3399 64.7242L36.3423 64.7224L36.3441 64.7211L36.3442 64.7211C38.1196 63.4228 39.9535 62.0818 41.457 60.3144C43.7393 57.6353 44.9285 54.387 46.0791 51.2442L46.0791 51.2441L46.0837 51.2317L46.1221 51.1271C46.5527 49.9543 46.9969 48.7447 47.4863 47.6131C50.7743 40.0157 57.169 33.6877 65.0277 30.2531C72.513 26.9811 82.489 29.1837 91.249 31.5064C93.241 32.0371 96.0383 32.9784 97.3397 35.0477C97.809 35.7944 98.7957 36.0184 99.545 35.5491C100.292 35.0797 100.516 34.0904 100.046 33.3437C98.145 30.3224 94.5823 29.0851 92.0677 28.4157C82.785 25.9571 72.1743 23.6397 63.745 27.3251C55.153 31.0824 48.1557 38.0157 44.5503 46.3464C44.009 47.5971 43.5343 48.8904 43.0783 50.1384C41.9743 53.1544 40.9317 56.0024 39.0197 58.2477C37.765 59.7225 36.1674 60.8913 34.4787 62.1266L34.4787 62.1267L34.4517 62.1464C33.0063 63.2024 31.513 64.2957 30.193 65.6237C28.5743 67.2504 27.3663 69.4051 26.881 71.5304C26.2943 74.0957 26.7823 76.4691 28.2543 78.2184C28.4201 78.4183 28.5881 78.5937 28.7502 78.7629L28.7502 78.7629L28.7957 78.8104C29.0863 79.1117 29.3583 79.3944 29.4463 79.6211C29.6463 80.1331 29.1397 80.7411 27.8463 81.9997L27.8359 82.0099C26.9984 82.8261 26.0493 83.7511 25.4757 84.8877C24.4783 86.8611 24.529 90.1811 27.6543 93.5784C28.1423 94.1091 28.657 94.6131 29.1557 95.0984L29.1627 95.1053L29.1628 95.1054C30.4242 96.3375 31.6154 97.5011 32.177 98.9091C32.3524 99.3529 32.488 99.8628 32.6315 100.402L32.6315 100.402L32.633 100.408C33.0223 101.882 33.465 103.554 34.9663 104.669C36.4459 105.768 38.1379 105.72 39.6343 105.677L39.6437 105.677L39.6622 105.677C40.426 105.655 41.1445 105.636 41.7423 105.77C42.937 106.042 43.9983 107.034 45.121 108.088L45.2368 108.196L45.2369 108.196C45.5467 108.484 45.8632 108.779 46.1903 109.064ZM115.6 105.305C115.71 105.313 115.822 105.316 115.934 105.316C117.534 105.316 119.158 104.593 120.238 103.393C121.203 102.316 121.606 100.998 121.374 99.6838C121.296 99.2464 121.163 98.8651 121.043 98.5291C120.942 98.2438 120.838 97.9504 120.838 97.8011C120.84 97.5212 121.203 97.0654 121.555 96.6229L121.555 96.6228L121.555 96.6224C121.899 96.1904 122.288 95.6998 122.579 95.1104C123.497 93.2469 123.061 91.3064 122.674 89.5912L122.672 89.5824L122.671 89.5749C122.354 88.1701 122.081 86.9596 122.568 86.1477C122.792 85.7771 123.227 85.4198 123.688 85.0438C123.891 84.8784 124.094 84.7131 124.288 84.5397C126.291 82.7717 127.531 80.1024 127.691 77.2171C127.854 74.3264 126.912 71.5291 125.11 69.5424C124.702 69.0944 124.27 68.6918 123.851 68.3051C123.064 67.5771 122.32 66.8864 122.019 66.1024C121.764 65.4325 121.779 64.5691 121.795 63.6576L121.795 63.6491L121.798 63.4757C121.918 56.1077 120.563 49.7557 117.771 44.6011C114.579 38.7077 110.392 36.8971 103.787 35.6224C102.918 35.4544 102.08 36.0224 101.912 36.8891C101.744 37.7557 102.312 38.5957 103.179 38.7637C109.072 39.9024 112.339 41.2944 114.955 46.1238C117.483 50.7904 118.71 56.6091 118.598 63.4198L118.595 63.5877L118.595 63.6064V63.6066C118.576 64.7273 118.555 65.9974 119.032 67.2438C119.6 68.7238 120.704 69.7477 121.678 70.6491C122.064 71.0064 122.427 71.3424 122.742 71.6891C123.971 73.0464 124.611 74.9958 124.499 77.0384C124.387 79.0758 123.539 80.9344 122.174 82.1397C122.05 82.2498 121.921 82.3553 121.793 82.4608C121.75 82.4959 121.707 82.5311 121.664 82.5664C121.043 83.0731 120.339 83.6491 119.827 84.4971C118.678 86.4117 119.142 88.4678 119.552 90.2838C119.851 91.6011 120.131 92.8438 119.712 93.6918C119.574 93.9744 119.32 94.2944 119.054 94.6304C118.43 95.4118 117.656 96.3878 117.643 97.7798C117.643 98.4969 117.859 99.1048 118.032 99.5928L118.032 99.5931L118.041 99.6168C118.12 99.8455 118.196 100.063 118.227 100.233C118.302 100.652 118.067 101.017 117.859 101.252C117.363 101.804 116.52 102.158 115.808 102.113C114.166 102.009 112.603 100.75 111.283 99.5318L111.251 99.5024L111.244 99.4961C110.61 98.9153 109.745 98.1232 108.531 97.9584C106.488 97.6704 105.171 99.1291 104.211 100.196C103.774 100.681 103.36 101.14 102.966 101.39C102.067 101.961 100.742 101.601 99.891 101.028C98.7117 100.232 97.8274 98.915 96.9728 97.6423L96.9683 97.6358C96.475 96.9024 95.4803 96.7051 94.747 97.1984C94.0137 97.6918 93.8163 98.6864 94.3097 99.4198L94.3246 99.442C95.3023 100.895 96.409 102.54 98.1017 103.681C100.227 105.113 102.808 105.276 104.68 104.092C105.445 103.604 106.05 102.933 106.585 102.339L106.587 102.337L106.599 102.324C107.152 101.709 107.723 101.076 108.088 101.129C108.318 101.158 108.752 101.556 109.074 101.852L109.083 101.86L109.11 101.884C110.835 103.481 112.958 105.137 115.6 105.305ZM52.3922 65.225C52.2269 65.225 52.0589 65.1983 51.8962 65.145C51.0562 64.8703 50.5976 63.9663 50.8722 63.1263C51.8962 59.9876 53.0589 56.4303 55.2536 53.4783C56.6696 51.5716 58.3042 50.2276 60.7149 48.9796C64.9922 46.769 69.8936 45.8356 74.8909 46.2783C78.3229 46.5823 86.5069 47.6836 88.3282 51.329C88.7229 52.1183 88.4029 53.081 87.6136 53.4756C86.8242 53.8703 85.8616 53.5503 85.4669 52.761C84.8669 51.561 80.6402 50.001 74.6082 49.465C70.2162 49.0756 65.9202 49.8916 62.1842 51.8223C60.2056 52.8436 58.9416 53.8756 57.8216 55.3876C55.9392 57.9206 54.9099 61.0719 53.9154 64.1168L53.9149 64.1183C53.6936 64.7957 53.0669 65.225 52.3922 65.225ZM97.2946 62.2641C97.4675 66.8531 97.1203 71.4655 96.262 75.9843C99.3325 73.9314 101.311 74.3682 102.988 75.2146C106.092 76.7826 107.433 80.1773 106.489 84.076C105.769 87.1053 103.868 89.9133 101.137 91.9746C99.8627 92.9213 98.4813 93.7053 97.0253 94.308C96.3347 94.5986 95.612 94.8653 94.884 95.092C94.6627 95.1613 94.4493 95.2146 94.2627 95.26C94.2359 95.2666 94.2074 95.2736 94.1782 95.2807L94.1767 95.2811C94.0778 95.3052 93.9705 95.3314 93.8947 95.356C92.3613 98.556 91.8867 99.7586 92.1533 102.895C92.228 103.775 91.5747 104.548 90.6947 104.623C90.6467 104.633 90.6013 104.636 90.556 104.636C89.7347 104.636 89.0333 104.007 88.964 103.169C88.6253 99.1533 89.4067 97.316 91.0653 93.86C91.6733 92.5986 92.8227 92.3213 93.5107 92.156L93.6043 92.1328L93.6044 92.1328C93.719 92.1047 93.8273 92.0782 93.924 92.0466C94.5587 91.8466 95.1853 91.6173 95.7907 91.3613C97.0147 90.8546 98.164 90.2013 99.22 89.4173C101.348 87.8093 102.831 85.6466 103.38 83.332C103.663 82.1666 104.047 79.3346 101.548 78.0733C100.457 77.5213 99.388 77.3053 96.4573 79.8813C95.7933 80.4653 94.7827 80.3986 94.1987 79.7346C93.7719 79.2494 93.6926 78.579 93.94 78.0253C93.2245 77.7476 92.7931 76.9881 92.9533 76.2135C93.8866 71.6695 94.2706 67.0135 94.0946 62.3761C94.0466 60.9281 91.5693 57.8721 89.8893 57.1788C89.0733 56.8401 88.684 55.9068 89.0226 55.0881C89.3613 54.2721 90.2946 53.8828 91.1133 54.2215C92.364 54.7388 93.852 55.9575 95.0893 57.4801C95.8867 58.4615 97.2306 60.3841 97.2946 62.2641ZM58.2467 74.6919C59.2777 74.6919 60.1134 73.6771 60.1134 72.4253C60.1134 71.1734 59.2777 70.1586 58.2467 70.1586C57.2158 70.1586 56.3801 71.1734 56.3801 72.4253C56.3801 73.6771 57.2158 74.6919 58.2467 74.6919ZM69.179 73.0534C69.179 74.3052 68.3433 75.3201 67.3124 75.3201C66.2814 75.3201 65.4457 74.3052 65.4457 73.0534C65.4457 71.8015 66.2814 70.7867 67.3124 70.7867C68.3433 70.7867 69.179 71.8015 69.179 73.0534ZM70.1716 105.469C70.2116 106.328 70.9183 106.997 71.7689 106.997C71.7929 106.997 71.8169 106.997 71.8463 106.987C72.7289 106.947 73.4116 106.197 73.3716 105.315C73.2436 102.563 73.2729 101.971 73.4436 99.288C73.4783 98.7387 73.2276 98.2107 72.7796 97.888C72.3316 97.568 71.7503 97.4987 71.2409 97.7067C68.4303 98.856 65.2489 98.4373 61.6863 97.816C58.2009 97.2027 55.6489 96.0533 53.6543 94.1973C49.9236 90.7253 48.2009 84.9467 48.9236 78.3467C49.1423 76.3707 50.0223 72.592 51.8409 67.9147C52.1609 67.0907 51.7529 66.1627 50.9289 65.8427C50.1049 65.5227 49.1769 65.9307 48.8569 66.7547C47.2169 70.9707 46.0543 75.1733 45.7423 77.9973C44.9103 85.616 46.9983 92.3733 51.4729 96.5413C53.9076 98.8053 57.0676 100.253 61.1343 100.971C63.6516 101.411 66.9156 101.979 70.1209 101.36C70.0676 102.648 70.0863 103.592 70.1716 105.469Z" fill="black"/>
<path fill-rule="evenodd" clip-rule="evenodd" d="M90.4994 100C90.7394 102.693 91.8407 108.779 95.9394 107.867L96.3794 108.533C96.1794 112.712 94.0621 115.659 90.7447 118.712C87.3741 121.765 83.0754 123.6 78.5394 123.923C74.5394 124.216 70.2861 123.259 67.2941 120.576C64.3021 117.893 62.7287 114.176 64.7101 110.989H64.9981C65.8994 111.016 66.7287 110.544 67.4914 110.064C68.3531 109.52 70.0282 107.476 70.8131 106.519C70.9124 106.398 70.9974 106.294 71.0647 106.213C71.5765 105.55 71.894 103.701 72.1639 102.13C72.3159 101.245 72.4528 100.448 72.6007 100H90.4994ZM113.892 132.844C113.31 133.782 112.681 134.689 112.009 135.564C109.708 138.534 106.708 141.086 103.121 142.23L102.604 143.052C102.316 167.34 103.513 191.646 105.886 216.652C104.964 216.729 104.089 217.092 103.38 217.689C102.67 218.286 102.164 219.086 101.929 219.982C101.694 220.878 101.74 221.825 102.065 222.692C102.388 223.558 102.972 224.305 103.737 224.828C104.174 225.124 104.657 225.339 105.14 225.555L105.14 225.555L105.14 225.555C105.572 225.747 106.004 225.94 106.404 226.19C108.288 227.365 109.15 229.542 110.005 231.703C110.915 234 111.817 236.28 113.934 237.321C116.966 238.812 120.766 236.537 122.14 233.446C123.513 230.356 123.137 226.812 122.729 223.457C120.988 209.185 116.836 167.38 116.11 158.63L114.07 134.025L113.892 132.844ZM46.3761 135.42C46.4731 134.802 46.57 134.185 46.667 133.566L46.8244 133.044C48.5364 134.604 49.8537 136.545 50.667 138.713L47.651 196.462L46.3177 212.804L46.3113 212.882C46.0841 215.643 45.8563 218.411 45.2884 221.118C44.7844 223.337 44.1657 225.529 43.4377 227.684C42.9204 229.316 42.275 231.102 40.771 231.924C38.6137 233.097 35.7977 231.505 34.7444 229.286C33.7221 227.133 33.8753 224.639 34.0217 222.253C34.0262 222.181 34.0306 222.108 34.035 222.036C34.115 220.724 34.1524 219.324 33.4777 218.198C33.3281 217.954 33.1478 217.726 32.9672 217.498C32.8289 217.324 32.6906 217.149 32.5657 216.966C32.0804 216.246 31.811 215.404 31.7924 214.534C31.771 213.668 32.003 212.812 32.4537 212.07C32.9044 211.329 33.5604 210.732 34.3417 210.353C35.123 209.974 35.9977 209.825 36.859 209.929C38.7294 184.139 42.5133 160.031 46.3761 135.42Z" fill="#FFD39F"/>
<path fill-rule="evenodd" clip-rule="evenodd" d="M43.6579 130.845C46.8873 132.509 49.3859 135.312 50.6659 138.712L51.0979 140.269C49.2553 156.69 46.4233 172.986 42.6179 189.069C40.8126 191.178 41.8099 194.978 44.4179 195.93C46.085 196.54 47.8578 196.076 49.619 195.614C50.182 195.467 50.7438 195.319 51.3006 195.208C54.7808 194.516 58.3064 195.238 61.8358 195.961C65.2593 196.663 68.6864 197.365 72.0793 196.778C73.1002 196.601 74.0967 196.31 75.093 196.018C76.2019 195.693 77.3106 195.368 78.4526 195.202C81.9706 194.694 85.4475 195.713 88.8957 196.724C89.7524 196.976 90.6073 197.226 91.4606 197.453C95.7486 198.592 100.778 198.984 104.186 196.144L104.199 195.994C102.975 178.17 102.407 160.613 102.615 143.064L103.133 142.242C106.719 141.098 109.719 138.549 112.021 135.576C114.322 132.602 115.997 129.205 117.655 125.832C114.21 124.466 111.626 121.568 109.463 118.549C108.936 117.812 108.423 117.062 107.911 116.313C106.324 113.99 104.738 111.668 102.698 109.749C99.9993 107.21 96.2499 105.429 92.6206 106.176C92.0686 109.082 89.7379 110.949 87.3379 112.213C82.8259 114.568 77.6873 115.448 72.6473 114.73C71.4499 114.554 70.2419 114.28 69.2099 113.645C68.1779 113.01 67.3459 111.96 67.2339 110.754C67.0633 109.029 68.3353 107.536 69.1006 106.696C61.1059 109.6 54.3539 115.17 49.9833 122.469C49.654 123.023 49.3344 123.591 49.0138 124.161C47.5741 126.721 46.1137 129.318 43.6579 130.845ZM123.599 190.231C123.599 190.231 121.06 183.743 117.887 177.191L119.53 192.698C120.33 194.149 122.842 194.09 123.57 192.599C123.847 191.837 123.858 191.002 123.599 190.231Z" fill="black"/>
<path fill-rule="evenodd" clip-rule="evenodd" d="M102.647 140.718C102.119 140.888 101.739 141.306 101.596 141.803C101.242 142.092 101.014 142.53 101.008 143.023C100.808 159.911 101.312 177.182 102.546 195.355C100.124 196.964 96.5319 197.149 91.8482 195.906C91.0853 195.703 90.2978 195.473 89.5308 195.249L89.5305 195.249L89.5299 195.249L89.5298 195.249L89.3229 195.188C85.7549 194.14 82.0642 193.058 78.2002 193.618C76.9442 193.799 75.7629 194.146 74.6189 194.482C73.6402 194.77 72.7149 195.042 71.7842 195.202C68.6947 195.735 65.5146 195.082 62.1506 194.392L62.1469 194.391C58.5175 193.644 54.7655 192.874 50.9655 193.636C50.3644 193.755 49.7712 193.91 49.196 194.06L49.1762 194.066L49.1661 194.068C47.6045 194.475 46.131 194.859 44.9442 194.426C44.2135 194.156 43.6322 193.444 43.3895 192.519C43.1495 191.596 43.3069 190.695 43.8109 190.106C43.9762 189.911 44.0935 189.682 44.1522 189.434C48.4589 171.258 51.5442 152.612 53.3255 134.018C53.4109 133.14 52.7655 132.359 51.8855 132.274C51.0082 132.191 50.2269 132.834 50.1415 133.714C50.123 133.907 50.1043 134.101 50.0855 134.295C49.0721 132.905 47.8422 131.682 46.4368 130.673C48.1126 129.032 49.2747 126.965 50.4071 124.95L50.4071 124.95L50.4072 124.95L50.4101 124.945C50.7328 124.366 51.0394 123.822 51.3568 123.289C54.6234 117.833 59.5061 113.449 65.6181 110.444C65.6181 110.59 65.6261 110.742 65.6421 110.9C65.7914 112.513 66.8128 114.046 68.3728 115.006C69.7194 115.836 71.2421 116.14 72.4234 116.313C77.8261 117.084 83.2394 116.156 88.0848 113.628C91.1168 112.033 93.0634 110.014 93.8901 107.62C96.3914 107.47 99.2074 108.66 101.605 110.916C103.517 112.716 105.01 114.9 106.591 117.214L106.713 117.391L106.713 117.392C107.184 118.08 107.669 118.789 108.165 119.481C109.903 121.91 112.258 124.804 115.503 126.582C114.119 129.364 112.642 132.161 110.757 134.596C109.098 136.737 106.346 139.54 102.647 140.718ZM97.3469 199.916C99.3968 199.916 101.215 199.564 102.792 198.861C103.185 204.286 103.643 209.793 104.165 215.396C103.507 215.636 102.891 215.991 102.344 216.45C101.373 217.266 100.691 218.343 100.368 219.567C100.045 220.791 100.109 222.066 100.555 223.252C101 224.439 101.789 225.442 102.837 226.154C103.377 226.521 103.948 226.777 104.452 227.003L104.485 227.018L104.508 227.028C104.892 227.2 105.254 227.363 105.555 227.551C106.989 228.445 107.728 230.309 108.51 232.284L108.515 232.295L108.517 232.3C109.473 234.715 110.556 237.448 113.227 238.762C114.077 239.18 115.013 239.391 115.979 239.391C116.784 239.391 117.611 239.242 118.437 238.943C120.656 238.138 122.637 236.282 123.608 234.095C125.202 230.504 124.715 226.491 124.323 223.265L124.323 223.265L124.323 223.263C123.598 217.326 122.447 206.536 121.3 195.349C121.369 195.352 121.439 195.354 121.509 195.354H121.618C123.109 195.317 124.407 194.53 125.007 193.303C125.031 193.253 125.055 193.202 125.074 193.149C125.474 192.05 125.487 190.834 125.117 189.725C125.113 189.712 125.109 189.699 125.105 189.687C125.1 189.675 125.096 189.662 125.09 189.65L125.084 189.634C124.942 189.275 122.468 183.009 119.426 176.7C118.614 168.442 117.965 161.585 117.709 158.498L115.669 133.892C115.652 133.683 115.595 133.488 115.506 133.311C116.84 131.12 117.966 128.832 119.068 126.593L119.068 126.593L119.068 126.593L119.093 126.542C119.29 126.14 119.309 125.676 119.149 125.26C118.986 124.844 118.661 124.513 118.245 124.348C114.951 123.041 112.517 120.065 110.765 117.62C110.247 116.897 109.73 116.142 109.231 115.412C107.623 113.057 105.959 110.622 103.794 108.585C100.33 105.326 96.0341 103.841 92.2981 104.609C91.6608 104.74 91.1674 105.241 91.0474 105.878C90.6821 107.801 89.2234 109.412 86.5968 110.796C82.3541 113.006 77.6074 113.822 72.8794 113.148C71.9541 113.012 70.8928 112.801 70.0474 112.281C69.3514 111.852 68.8821 111.209 68.8261 110.596C68.7648 109.956 69.1194 109.518 69.8874 108.74C70.0394 108.585 70.1861 108.436 70.3194 108.289C70.8154 107.745 70.8741 106.932 70.4661 106.321C70.0581 105.71 69.2848 105.457 68.5914 105.708C59.8661 108.878 52.9568 114.388 48.6101 121.649C48.2714 122.22 47.9408 122.806 47.6208 123.374C46.2341 125.844 44.9221 128.174 42.8154 129.484C42.3248 129.788 42.0368 130.332 42.0608 130.908C42.0848 131.484 42.4154 132.001 42.9274 132.265C43.6784 132.652 44.3842 133.107 45.0376 133.622L44.7944 135.174C40.9278 159.793 37.2744 183.073 35.3678 208.372C34.7704 208.468 34.1891 208.649 33.6398 208.916C32.5811 209.43 31.6984 210.233 31.0851 211.238C30.4718 212.244 30.1624 213.398 30.1891 214.574C30.2158 215.753 30.5784 216.889 31.2424 217.873C31.3998 218.1 31.5651 218.31 31.7118 218.494L31.7195 218.504C31.8713 218.695 32.0146 218.876 32.1038 219.022C32.5331 219.737 32.5064 220.809 32.4371 221.94L32.4238 222.156L32.4233 222.163C32.2714 224.644 32.0995 227.451 33.2984 229.974C34.0984 231.662 35.6851 233.065 37.4371 233.636C38.0184 233.825 38.6051 233.918 39.1784 233.918C40.0104 233.918 40.8158 233.721 41.5384 233.326C43.6958 232.148 44.4878 229.67 44.9598 228.18C45.7011 225.988 46.3358 223.732 46.8504 221.473C46.8531 221.465 46.8531 221.454 46.8558 221.446C47.4424 218.641 47.6798 215.78 47.9064 213.012L49.1817 197.371C49.4546 197.303 49.7232 197.233 49.9869 197.164C50.5469 197.018 51.0749 196.882 51.5949 196.778C54.7602 196.143 58.0349 196.815 61.5042 197.527C65.0135 198.25 68.6429 198.994 72.3309 198.356C73.4207 198.168 74.4617 197.863 75.4664 197.569L75.5202 197.554L75.5609 197.542C76.6312 197.229 77.6424 196.933 78.6589 196.786C81.8295 196.327 85.0322 197.266 88.4215 198.26L88.5586 198.3C89.3668 198.536 90.2016 198.779 91.0269 198.999C93.3282 199.61 95.4375 199.916 97.3469 199.916ZM45.9347 197.817C45.2462 197.799 44.5487 197.688 43.8509 197.434C42.1309 196.804 40.8029 195.271 40.2962 193.332C40.1723 192.858 40.1031 192.381 40.0866 191.91C39.4524 197.868 38.9013 203.897 38.4558 210.046C38.4238 210.484 38.2158 210.886 37.8771 211.164C37.5411 211.441 37.1038 211.572 36.6691 211.518C36.1091 211.452 35.5464 211.548 35.0398 211.793C34.5331 212.038 34.1091 212.422 33.8184 212.905C33.5251 213.385 33.3784 213.937 33.3891 214.5C33.4024 215.062 33.5758 215.606 33.8904 216.073C33.9784 216.201 34.0958 216.35 34.2184 216.505L34.2508 216.546C34.44 216.786 34.6506 217.054 34.8398 217.364C35.7438 218.873 35.7251 220.548 35.6291 222.132L35.6158 222.35C35.4798 224.548 35.3411 226.82 36.1864 228.598C36.6184 229.505 37.4958 230.289 38.4264 230.59C38.8371 230.724 39.4451 230.82 40.0051 230.516C40.9571 229.996 41.4691 228.59 41.9118 227.198C41.9144 227.188 41.9171 227.18 41.9224 227.169C42.6291 225.078 43.2344 222.929 43.7251 220.774C44.2718 218.166 44.4984 215.412 44.7171 212.748L45.9347 197.817ZM40.2738 190.176C42.246 172.146 44.9641 154.735 47.808 136.62C48.3571 137.443 48.8152 138.331 49.1701 139.273C49.2487 139.481 49.366 139.663 49.5107 139.815C47.6991 156.121 44.8829 172.419 41.1202 188.359C40.7292 188.902 40.4449 189.518 40.2738 190.176ZM121.538 192.154C121.285 192.161 121.051 192.082 120.954 191.962C120.775 190.204 120.597 188.447 120.422 186.709C121.367 188.942 121.987 190.505 122.093 190.775C122.213 191.154 122.215 191.565 122.101 191.946C122.005 192.063 121.781 192.149 121.538 192.154ZM104.202 143.571C107.304 142.445 110.23 140.276 112.736 137.247L114.52 158.764C115.272 167.852 119.419 209.506 121.144 223.652C121.581 227.258 121.827 230.22 120.68 232.799C120.059 234.196 118.749 235.428 117.341 235.938C116.659 236.186 115.637 236.375 114.643 235.887C113.083 235.12 112.315 233.183 111.501 231.129L111.496 231.116L111.495 231.113C110.599 228.85 109.585 226.289 107.256 224.836C106.76 224.527 106.248 224.298 105.795 224.095C105.363 223.903 104.955 223.722 104.637 223.506C104.141 223.167 103.765 222.692 103.555 222.13C103.344 221.567 103.315 220.962 103.467 220.38C103.619 219.799 103.941 219.29 104.403 218.903C104.864 218.516 105.421 218.284 106.021 218.236C106.448 218.202 106.843 217.996 107.117 217.668C107.392 217.34 107.523 216.916 107.483 216.49C105.021 190.55 103.949 166.691 104.202 143.571Z" fill="black"/>
</svg>
