<svg width="160" height="260" viewBox="0 0 160 260" fill="none" xmlns="http://www.w3.org/2000/svg">
<path d="M100.111 73.6012C99.8818 72.1079 98.4552 71.1292 97.1165 70.4306C95.7778 69.7319 94.2818 69.0146 93.6658 67.6332C92.5138 65.0546 95.1485 61.9159 93.9832 59.3426C93.4632 58.1932 92.2658 57.4759 91.0338 57.1906C89.8018 56.9052 88.5218 57.0279 87.2632 57.1399L83.9538 55.4119C81.7378 51.8732 76.9005 50.7452 72.8232 51.6572C68.7458 52.5692 65.2472 55.0972 61.8658 57.5559L51.2765 65.2759C49.5538 66.5319 47.1192 67.7906 45.4738 66.4332C43.0205 64.4119 46.0072 59.7879 43.9032 57.4146C43.3992 56.8492 42.6792 56.5292 42.1032 56.0359C40.5032 54.6546 40.3032 52.2386 40.5272 50.1292C41.3938 41.9879 46.7725 34.5986 54.0018 30.7559C61.2312 26.9132 70.0818 26.5292 77.8312 29.1559C82.2792 30.6706 86.8498 33.7906 87.4045 38.4546L90.3618 39.4172C93.9938 36.2172 99.5378 36.9319 104.202 38.1932C107.549 39.0972 110.882 40.2146 113.802 42.0786C116.722 43.9426 119.226 46.6359 120.311 49.9292C120.981 51.9559 121.111 54.1959 122.277 55.9932C123.031 57.1612 124.157 58.0412 124.986 59.1559C127.367 62.3559 126.618 67.4439 123.413 69.8226C121.863 70.9719 119.786 71.6306 118.922 73.3586C118.199 74.8066 118.53 76.6892 117.535 77.9639C116.087 79.8172 112.735 79.2786 111.469 81.2599C111.119 81.8066 110.989 82.4812 110.575 82.9799C110.162 83.4786 109.242 83.6706 108.925 83.1106L101.101 83.4679L100.111 73.6012Z" fill="black"/>
<path d="M50.3489 67.3393C48.6289 71.7633 47.5942 75.758 47.3329 78.1767C46.6742 84.2673 47.9036 91.0353 52.5622 95.374C55.0449 97.6833 58.1196 98.8193 61.4076 99.398C64.8369 100.003 68.5169 100.555 71.8449 99.1953C71.6689 101.971 71.6422 103.686 71.7702 106.465L90.5329 104.534C90.2289 100.883 90.9436 97.8647 92.5329 94.5633C92.8929 93.8167 93.6662 93.8247 94.4316 93.582C95.1116 93.3687 95.7782 93.1233 96.4369 92.846C97.7729 92.2913 99.0369 91.574 100.197 90.7127C102.496 88.9767 104.288 86.5393 104.96 83.7127C105.57 81.15 105.141 78.0993 102.293 76.6567C100.285 75.6433 98.4849 76.0033 95.4262 78.6913L100.136 73.6247C99.9062 72.1313 98.4796 71.1527 97.1409 70.454C95.8022 69.7553 94.3062 69.038 93.6902 67.6567C92.5382 65.078 95.1729 61.9393 94.0076 59.366C93.4876 58.2167 92.2902 57.4993 91.0582 57.214C89.8262 56.9287 88.5462 57.0513 87.2876 57.1633L83.9782 55.4353C81.7622 51.8967 76.9249 50.7687 72.8476 51.6807C68.7702 52.5927 65.2476 55.0967 61.8662 57.5553L51.2769 65.2753" fill="#FFD39F"/>
<path fill-rule="evenodd" clip-rule="evenodd" d="M47.1533 68.6277C45.9746 68.6277 45.0893 68.193 44.4546 67.6677C42.5278 66.0794 42.7796 63.6708 42.9822 61.7327L42.9826 61.729C43.124 60.377 43.2573 59.097 42.7053 58.4757C42.5479 58.2997 42.2679 58.113 41.9719 57.9157C41.6919 57.729 41.372 57.5157 41.0626 57.2517C39.324 55.7504 38.5906 53.2304 38.9373 49.961C39.844 41.457 45.3266 33.5557 53.2519 29.345C60.5959 25.441 69.9746 24.8064 78.3453 27.6437C84.4706 29.729 88.4493 33.7024 88.9933 38.2677C89.0973 39.145 88.4706 39.9424 87.5933 40.0464C86.716 40.1504 85.9213 39.5237 85.8146 38.6464C85.2306 33.7344 79.1613 31.3024 77.3133 30.673C69.7639 28.1157 61.3293 28.6757 54.7506 32.1717C47.7506 35.8917 42.9106 42.8384 42.1159 50.3024C41.9559 51.8224 42.0013 53.841 43.1453 54.8277C43.3026 54.961 43.5159 55.105 43.7399 55.2544L43.7448 55.2576C44.173 55.5422 44.6616 55.8669 45.092 56.353C46.5809 58.0311 46.3485 60.2651 46.1619 62.0587L46.1613 62.065C45.9906 63.7077 45.9266 64.7397 46.4866 65.201C47.4333 65.9824 49.668 64.4677 50.3293 63.985L60.9186 56.265L60.9315 56.2557L60.9315 56.2557L60.9315 56.2557C64.2564 53.8393 68.0204 51.1038 72.468 50.1077C77.9506 48.881 82.4333 50.3157 84.7666 54.041C85.236 54.7904 85.0093 55.777 84.26 56.2464C83.5106 56.7157 82.524 56.489 82.0546 55.7397C79.8253 52.1797 75.0946 52.7984 73.1666 53.2304C69.3613 54.081 66.0253 56.505 62.8013 58.8517L52.2146 66.5717C52.0966 66.6578 51.9799 66.7408 51.8646 66.8206C51.9816 67.1647 51.9827 67.5503 51.8409 67.9154C50.0223 72.5928 49.1423 76.3714 48.9236 78.3474C48.2009 84.9474 49.9236 90.7261 53.6543 94.1981C55.6489 96.0541 58.2009 97.2034 61.6863 97.8168C65.2489 98.4381 68.4303 98.8568 71.2409 97.7074C71.7503 97.4994 72.3316 97.5688 72.7796 97.8888C73.2276 98.2114 73.4783 98.7394 73.4436 99.2888C73.2729 101.971 73.2436 102.563 73.3716 105.315C73.4116 106.198 72.7289 106.947 71.8463 106.987C71.8169 106.998 71.7929 106.998 71.7689 106.998C70.9183 106.998 70.2116 106.329 70.1716 105.47C70.0863 103.593 70.0676 102.649 70.1209 101.361C66.9156 101.979 63.6516 101.411 61.1343 100.971C57.0676 100.254 53.9076 98.8061 51.4729 96.5421C46.9983 92.3741 44.9103 85.6168 45.7423 77.9981C46.0106 75.5694 46.9081 72.1211 48.1972 68.5216C47.8261 68.5947 47.4784 68.6277 47.1533 68.6277ZM109.575 85.0629C109.498 85.0629 109.423 85.0602 109.349 85.0522C108.57 84.9829 107.911 84.5669 107.538 83.9109C107.103 83.1429 107.373 82.1669 108.141 81.7296C108.581 81.4789 109.093 81.4629 109.527 81.6389C109.559 81.5642 109.594 81.4842 109.629 81.4069L109.639 81.3829C109.764 81.0874 109.907 80.7523 110.125 80.4122C111.101 78.8869 112.762 78.4016 114.095 78.0122C115.021 77.7429 115.895 77.4869 116.279 76.9935C116.578 76.6129 116.68 75.9701 116.799 75.2238L116.802 75.2042L116.807 75.1757C116.931 74.3933 117.071 73.5085 117.495 72.6575C118.304 71.0394 119.77 70.1862 121.064 69.4327L121.071 69.4282C121.578 69.1349 122.055 68.8549 122.466 68.5509C123.655 67.6682 124.477 66.2202 124.719 64.5775C124.962 62.9349 124.594 61.3109 123.711 60.1242C123.399 59.7056 123.015 59.3002 122.607 58.8736L122.6 58.8656L122.6 58.8655L122.6 58.8654C122.029 58.2652 121.437 57.6434 120.941 56.8735C120.021 55.4549 119.663 53.9135 119.319 52.4229L119.309 52.3781L119.309 52.3779C119.15 51.6959 119 51.0522 118.799 50.4442C117.919 47.7749 115.842 45.2869 112.949 43.4415C110.039 41.5829 106.687 40.5349 103.791 39.7509C98.234 38.2469 94.762 38.5749 92.1833 40.8495C91.5193 41.4335 90.5086 41.3695 89.9246 40.7055C89.3406 40.0415 89.4046 39.0309 90.0686 38.4469C94.474 34.5669 100.162 35.4549 104.626 36.6602C107.754 37.5055 111.394 38.6522 114.669 40.7429C118.181 42.9855 120.727 46.0735 121.837 49.4415C122.087 50.1992 122.262 50.9595 122.432 51.6961L122.432 51.6964L122.434 51.7029C122.73 52.9802 123.01 54.1882 123.623 55.1349C123.96 55.6538 124.422 56.1411 124.911 56.6569L124.922 56.6682L124.959 56.7073L124.959 56.7073L124.959 56.7074C125.401 57.1726 125.859 57.6546 126.274 58.2149C127.661 60.0789 128.247 62.5669 127.882 65.0442C127.517 67.5215 126.237 69.7376 124.37 71.1216C123.819 71.5314 123.242 71.8668 122.683 72.1915L122.679 72.1936C121.639 72.7989 120.738 73.3242 120.357 74.0869C120.152 74.4959 120.061 75.0646 119.964 75.6691L119.964 75.6692L119.959 75.7002C119.797 76.7402 119.61 77.9216 118.799 78.9616C117.778 80.2682 116.298 80.7002 114.991 81.0815C114.002 81.3695 113.149 81.6202 112.821 82.1349C112.743 82.2575 112.661 82.4496 112.575 82.6549C112.407 83.0549 112.197 83.5509 111.813 84.0149C111.271 84.6655 110.413 85.0629 109.575 85.0629ZM98.5294 73.8432C98.5802 74.1783 98.7316 74.4728 98.9483 74.7011C97.6772 75.0388 96.1801 75.8672 94.3453 77.4799C93.6813 78.0639 93.6147 79.0745 94.1987 79.7385C94.7827 80.4025 95.7933 80.4692 96.4573 79.8852C99.388 77.3092 100.457 77.5252 101.548 78.0772C104.047 79.3385 103.663 82.1705 103.38 83.3359C102.831 85.6505 101.348 87.8132 99.22 89.4212C98.164 90.2052 97.0147 90.8585 95.7907 91.3652C95.1853 91.6212 94.5587 91.8505 93.924 92.0505C93.8272 92.0821 93.7188 92.1087 93.604 92.1368L93.5107 92.1599C92.8227 92.3252 91.6733 92.6025 91.0653 93.8639C89.4067 97.3199 88.6253 99.1572 88.964 103.173C89.0333 104.011 89.7347 104.64 90.556 104.64C90.6013 104.64 90.6467 104.637 90.6947 104.627C91.5747 104.552 92.228 103.779 92.1533 102.899C91.8867 99.7625 92.3613 98.5599 93.8947 95.3599C93.9704 95.3353 94.0776 95.3092 94.1764 95.2851C94.2063 95.2778 94.2354 95.2707 94.2627 95.2639C94.4493 95.2185 94.6627 95.1652 94.884 95.0959C95.612 94.8692 96.3347 94.6025 97.0253 94.3119C98.4813 93.7092 99.8627 92.9252 101.137 91.9785C103.868 89.9172 105.769 87.1092 106.489 84.0799C107.433 80.1812 106.092 76.7865 102.988 75.2185C102.475 74.9597 101.934 74.7392 101.342 74.6164C101.62 74.2776 101.758 73.8261 101.687 73.3579C101.337 71.0726 99.3321 69.7819 97.8521 69.0112L97.6361 68.8992C96.5774 68.3499 95.4814 67.7792 95.1241 66.9819C94.7781 66.2076 95.0668 65.0881 95.3727 63.9016L95.3747 63.8939C95.7881 62.2966 96.2547 60.4859 95.4387 58.6832C94.7614 57.1819 93.2867 56.0699 91.3934 55.6326C89.9416 55.2943 88.4872 55.4243 87.2055 55.5389L87.2014 55.5392L87.1214 55.5472C86.2414 55.6272 85.5934 56.4032 85.6707 57.2832C85.7507 58.1632 86.5241 58.8139 87.4067 58.7339L87.4867 58.7259L87.4903 58.7256L87.4904 58.7256C88.6357 58.6244 89.7171 58.5288 90.6734 58.7499C91.5587 58.9552 92.2707 59.4352 92.5267 60.0032C92.8752 60.7774 92.6 61.8462 92.281 63.0852L92.2787 63.0939L92.2771 63.1001C91.8668 64.6906 91.4024 66.4909 92.204 68.2859C93.0147 70.1046 94.7614 71.0112 96.1641 71.7392L96.3747 71.8486C97.7267 72.5526 98.4307 73.2059 98.5294 73.8432ZM58.2467 74.6958C59.2777 74.6958 60.1134 73.681 60.1134 72.4292C60.1134 71.1773 59.2777 70.1625 58.2467 70.1625C57.2158 70.1625 56.3801 71.1773 56.3801 72.4292C56.3801 73.681 57.2158 74.6958 58.2467 74.6958ZM69.1806 73.0542C69.1806 74.306 68.3449 75.3208 67.3139 75.3208C66.283 75.3208 65.4473 74.306 65.4473 73.0542C65.4473 71.8023 66.283 70.7875 67.3139 70.7875C68.3449 70.7875 69.1806 71.8023 69.1806 73.0542Z" fill="black"/>
<path d="M90.499 100C90.739 102.693 91.8403 108.779 95.939 107.867L96.379 108.533C96.179 112.712 94.0617 115.659 90.7443 118.712C87.3737 121.765 83.075 123.6 78.539 123.923C74.539 124.216 70.2857 123.259 67.2937 120.576C64.3017 117.893 62.7283 114.176 64.7097 110.989H64.9977C65.899 111.016 66.7283 110.544 67.491 110.064C68.4617 109.451 70.4643 106.936 71.0643 106.213C71.8643 105.176 72.1897 101.243 72.6003 100H90.499V100Z" fill="#FFD39F"/>
<path d="M96.5034 106.376C100.586 107.467 103.935 110.4 106.685 113.6C110.159 117.662 112.914 122.288 114.834 127.278C119.082 138.326 119.085 150.779 124.207 161.451C121.426 162.275 118.597 162.915 115.733 163.371L118.042 174.323C123.949 192.611 128.058 206.638 133.455 224.288C133.722 225.19 134.789 228.376 134.295 229.174C133.965 229.707 133.41 230.048 132.869 230.355C129.909 232.038 126.677 232.179 123.338 232.851L110.946 235.318C93.21 238.499 75.41 239.278 57.642 236.28L54.29 235.888L42.8234 233.694C41.7887 233.496 40.6527 233.232 40.0474 232.36C39.546 231.646 39.5487 230.704 39.586 229.832C39.738 226.366 40.138 222.926 40.538 219.483L43.6927 192.283C45.066 180.664 46.3994 168.998 48.266 157.419L48.138 157.366C45.0367 156.299 41.9834 155.115 38.9274 153.928C38.506 153.808 38.1274 153.574 37.8287 153.254C37.2287 152.48 37.7434 151.371 38.258 150.536C42.7994 143.15 46.682 135.379 49.866 127.312C52.298 121.152 54.8367 114.222 60.7727 111.286L67.5007 108.47C66.93 109.443 67.6527 112.219 68.4234 113.043C69.194 113.867 70.29 114.299 71.3567 114.643C74.9354 115.758 78.8234 116.054 82.4554 115.176C86.0874 114.299 89.482 112.168 91.6154 109.083C92.1487 108.326 92.594 107.504 93.2554 106.862C93.9167 106.219 94.8554 105.766 95.754 105.966L96.5034 106.376Z" fill="black"/>
<path fill-rule="evenodd" clip-rule="evenodd" d="M37.4743 202.815L41.4449 155.543L48.5036 155.391C46.4903 167.639 45.0556 179.993 43.6236 192.327L40.4689 219.527L40.4675 219.539C40.068 222.978 39.6688 226.414 39.5169 229.876L39.3169 230.567C37.2663 230.199 35.0103 229.591 33.9223 227.815C32.9705 226.268 33.228 224.429 33.4885 222.567C33.7142 220.955 33.9422 219.326 33.3889 217.857C33.1006 217.089 32.605 216.354 32.1165 215.629C31.1956 214.263 30.3 212.934 30.8663 211.495C31.3134 210.368 32.4444 209.842 33.5885 209.309C34.3074 208.975 35.0314 208.638 35.5943 208.148C37.0529 206.879 37.3116 204.745 37.4743 202.815ZM107.642 216.568C105.514 199.262 104.21 181.896 103.733 164.475L116.896 164.075L123.376 223.163C123.773 226.795 124.082 230.798 121.968 233.779C121.157 234.92 120.042 235.816 118.752 236.363C117.461 236.91 116.045 237.086 114.658 236.872C113.274 236.659 111.976 236.062 110.909 235.152C109.842 234.243 109.053 233.054 108.624 231.718C108.469 231.231 108.361 230.726 108.253 230.222C108.027 229.171 107.804 228.128 107.165 227.28C106.494 226.392 105.468 225.863 104.45 225.338C103.282 224.737 102.125 224.14 101.525 223.014C100.698 221.451 101.376 219.4 102.714 218.251C104.053 217.102 105.88 216.678 107.642 216.568Z" fill="#FFD39F"/>
<path fill-rule="evenodd" clip-rule="evenodd" d="M90.8204 106.526C90.8965 106.661 90.9733 106.798 91.0525 106.935C90.8978 107.156 90.7544 107.375 90.6177 107.583C90.4844 107.786 90.351 107.988 90.2044 108.199C88.375 110.844 85.3804 112.831 81.9857 113.647C78.8017 114.412 75.2604 114.239 71.7537 113.146C70.8897 112.866 70.0177 112.532 69.4977 111.975C69.1928 111.649 69.0325 111.172 69.1113 110.878C69.73 110.439 70.2131 110.003 70.5693 109.681L70.5827 109.669L70.6761 109.583C71.9908 108.397 72.3881 107.695 72.7374 106.965C72.7774 106.879 72.8174 106.797 72.8627 106.709C73.2734 105.927 72.9748 104.959 72.1934 104.546C71.4121 104.135 70.4441 104.434 70.0308 105.215C69.9641 105.343 69.9054 105.463 69.8467 105.586C69.6632 105.972 69.5125 106.286 68.779 106.98C68.3133 106.442 67.5271 106.263 66.86 106.594L62.5427 108.727C62.0186 108.986 61.6989 109.494 61.6561 110.038C61.1872 109.678 60.5361 109.592 59.9706 109.872C53.7066 112.968 50.9733 119.912 48.5626 126.04L48.2853 126.746C45.1413 134.704 41.2746 142.434 36.7946 149.72C35.664 151.557 35.552 153.082 36.464 154.258C36.4933 154.296 36.5226 154.33 36.5546 154.365C37.032 154.88 37.6373 155.258 38.3066 155.466L38.312 155.469C38.8032 155.66 39.2972 155.852 39.7936 156.044L35.8767 202.675C35.7274 204.438 35.5141 206.089 34.5407 206.937C34.1487 207.278 33.5487 207.558 32.9114 207.854L32.9039 207.858C31.6359 208.449 30.0567 209.186 29.3754 210.905C28.5034 213.126 29.77 215.006 30.7887 216.518L30.7887 216.518L30.8282 216.577C31.2643 217.227 31.6752 217.84 31.8901 218.417C32.3007 219.505 32.1087 220.883 31.9034 222.342C31.6234 224.342 31.3061 226.611 32.5567 228.646C33.7793 230.641 35.9297 231.473 38.0483 231.941C38.1614 232.418 38.3518 232.89 38.6641 233.335C39.6668 234.759 41.3974 235.109 42.4481 235.319L52.2001 237.186C52.3014 237.205 52.4028 237.215 52.5014 237.215C53.2534 237.215 53.9254 236.682 54.0694 235.919C54.2374 235.053 53.6668 234.213 52.8001 234.047L43.0614 232.183C42.4961 232.071 41.5468 231.879 41.2801 231.501C41.0534 231.181 41.0881 230.386 41.1068 229.962C41.2585 226.559 41.6603 223.094 42.0491 219.742L42.0491 219.741L42.0508 219.727L45.2054 192.527L45.2828 191.861L45.29 191.798C47.4744 173.098 49.7329 153.763 54.1068 135.197C54.3094 134.335 53.7761 133.474 52.9174 133.271C52.0534 133.066 51.1948 133.602 50.9921 134.461C49.373 141.333 48.0424 148.297 46.8983 155.287C44.4145 154.398 41.9313 153.434 39.5148 152.496L39.472 152.48L39.408 152.456L39.4078 152.456C39.3625 152.44 39.3172 152.424 39.2693 152.41C39.2 152.392 39.136 152.362 39.0773 152.328C39.112 152.178 39.216 151.888 39.52 151.394C44.0986 143.949 48.0506 136.05 51.2613 127.92L51.5413 127.21C53.848 121.349 56.2346 115.288 61.3893 112.741C61.9133 112.482 62.233 111.974 62.2759 111.43C62.4599 111.571 62.6721 111.67 62.8961 111.721C62.4244 112.102 62.1916 112.735 62.3513 113.361C63.0819 116.238 65.6446 117.934 67.9886 119.297C70.2793 120.63 72.9139 120.891 75.2046 121.033C76.3006 121.102 77.5059 121.155 78.7753 121.155C81.4126 121.155 84.3326 120.923 87.1353 120.094C91.9753 118.667 95.0686 114.161 96.4819 111.603C96.9086 110.83 96.6286 109.857 95.8553 109.43C95.0819 109.003 94.1086 109.283 93.6819 110.057C92.5059 112.185 89.9753 115.921 86.2313 117.025C82.5726 118.105 78.7006 118.043 75.3993 117.841C73.4766 117.721 71.2819 117.513 69.5966 116.531C67.8153 115.497 65.8793 114.249 65.4526 112.574C65.306 111.991 64.8573 111.566 64.3164 111.421L65.9156 110.631C65.7865 111.846 66.2223 113.157 67.1617 114.162C68.1804 115.25 69.5004 115.78 70.7884 116.196C73.1777 116.943 75.5884 117.316 77.9297 117.316C79.5777 117.316 81.1884 117.132 82.7377 116.759C86.887 115.759 90.567 113.303 92.831 110.031C92.9909 109.804 93.1428 109.573 93.2947 109.341L93.2948 109.341L93.2949 109.341L93.295 109.34L93.3038 109.327C93.6259 108.836 93.9302 108.372 94.2764 108.036C94.6162 107.704 95.0446 107.503 95.3018 107.552C95.4915 107.737 95.7299 107.878 96.0041 107.951C99.1641 108.797 102.233 110.999 105.383 114.679C108.748 118.613 111.396 123.058 113.255 127.89C115.129 132.762 116.185 138.063 117.207 143.194L117.208 143.2L117.208 143.2C118.357 148.966 119.541 154.908 121.897 160.45C113.807 162.602 105.511 163.189 97.1934 162.197L97.8814 138.09C97.9054 137.207 97.2094 136.469 96.3268 136.445C95.4441 136.413 94.7054 137.117 94.6814 137.999L93.9534 163.551C93.9294 164.365 94.5214 165.066 95.3294 165.181C97.6119 165.502 99.893 165.709 102.17 165.804C102.661 182.242 103.901 198.837 105.861 215.171C104.157 215.483 102.752 216.107 101.672 217.035C99.6637 218.758 98.9944 221.649 100.112 223.763C100.945 225.33 102.415 226.087 103.712 226.756L103.717 226.758C104.602 227.214 105.437 227.646 105.888 228.241C106.312 228.806 106.488 229.617 106.688 230.555C106.8 231.089 106.92 231.638 107.098 232.203C107.327 232.915 107.64 233.592 108.029 234.221C89.9751 237.222 73.5257 237.391 57.821 234.741C56.949 234.592 56.125 235.181 55.9783 236.053C55.8317 236.923 56.4183 237.749 57.2903 237.896C64.8423 239.171 72.5543 239.808 80.525 239.808C90.1604 239.808 100.172 238.873 110.712 237.007C111.821 237.753 113.083 238.247 114.413 238.451C114.88 238.523 115.346 238.558 115.813 238.558C117.034 238.558 118.245 238.315 119.381 237.835C120.946 237.171 122.293 236.089 123.277 234.702C123.291 234.682 123.306 234.661 123.32 234.641C123.334 234.621 123.348 234.6 123.363 234.579L123.391 234.538L123.43 234.479C123.475 234.475 123.52 234.468 123.565 234.46C124.321 234.306 125.091 234.18 125.841 234.057L125.843 234.056L125.933 234.041L125.938 234.041L125.939 234.041C128.47 233.625 131.087 233.195 133.568 231.785C134.259 231.393 135.04 230.905 135.568 230.052C136.259 228.932 135.904 227.135 135.005 224.212C134.963 224.079 134.928 223.964 134.896 223.857C133.421 219.033 132.035 214.46 130.696 210.036L130.584 209.666L130.583 209.665L130.583 209.664L130.582 209.661C127.108 198.194 123.812 187.318 119.641 174.385L118.558 164.515C120.575 164.11 122.583 163.614 124.577 163.029C125.025 162.895 125.393 162.573 125.585 162.143C125.777 161.714 125.769 161.226 125.567 160.802C122.855 155.153 121.641 149.063 120.356 142.617L120.348 142.575C119.3 137.314 118.215 131.874 116.244 126.746C114.255 121.573 111.42 116.813 107.817 112.602C104.233 108.413 100.639 105.879 96.8334 104.861C96.814 104.855 96.7947 104.851 96.7753 104.846C96.5697 104.646 96.3077 104.498 96.007 104.431C95.1854 104.249 94.3081 104.364 93.4867 104.741C93.2982 104.405 93.0851 104.038 92.8257 103.654C92.3324 102.923 91.3377 102.729 90.6044 103.222C89.8737 103.715 89.679 104.71 90.1724 105.443C90.403 105.785 90.5998 106.135 90.7904 106.473L90.7906 106.473L90.8204 106.526ZM124.896 230.966C125.071 230.938 125.244 230.909 125.416 230.881L125.438 230.878C127.787 230.492 130.006 230.129 131.987 229.001L132.022 228.981C132.24 228.856 132.554 228.677 132.736 228.497C132.731 228.103 132.571 227.196 131.944 225.153L131.914 225.058C131.881 224.951 131.852 224.857 131.829 224.78C130.357 219.967 128.971 215.391 127.632 210.964L127.518 210.589L127.518 210.589L127.517 210.586L127.516 210.582C125.493 203.904 123.532 197.428 121.422 190.629L124.97 222.985L124.971 222.989C125.211 225.187 125.535 228.151 124.896 230.966ZM116.383 174.042C116.33 174.303 116.341 174.581 116.429 174.852L116.494 175.053L121.789 223.334C122.186 226.958 122.397 230.411 120.666 232.851C120.026 233.753 119.152 234.457 118.133 234.889C117.114 235.318 116 235.457 114.906 235.289C113.816 235.121 112.792 234.651 111.952 233.934C111.112 233.214 110.488 232.278 110.152 231.23C110.027 230.837 109.934 230.407 109.836 229.953L109.821 229.883L109.82 229.88C109.575 228.737 109.298 227.442 108.445 226.313C107.557 225.138 106.304 224.491 105.198 223.919L105.186 223.913L105.175 223.907C104.172 223.389 103.305 222.942 102.944 222.262C102.522 221.467 102.888 220.211 103.76 219.462C104.634 218.71 105.976 218.273 107.744 218.163C108.184 218.137 108.592 217.929 108.874 217.59C109.157 217.249 109.285 216.809 109.232 216.371C107.178 199.672 105.881 182.688 105.374 165.862C108.732 165.846 112.078 165.582 115.4 165.073L116.383 174.042ZM42.1132 191.407C43.3794 180.569 44.6704 169.518 46.3842 158.509C45.2199 158.098 44.0586 157.67 42.9052 157.236L39.0661 202.942C38.8687 205.289 38.5194 207.715 36.6421 209.347C35.9087 209.985 35.0341 210.393 34.2607 210.753L34.2583 210.754C33.3473 211.177 32.5619 211.543 32.3514 212.078C32.1114 212.686 32.6047 213.486 33.4421 214.729C33.9781 215.523 34.5301 216.345 34.8847 217.289C35.5787 219.134 35.3103 221.064 35.0735 222.767L35.0714 222.782L35.0714 222.782C34.8367 224.462 34.6341 225.913 35.2821 226.969C35.7986 227.81 36.8272 228.301 37.9738 228.625C38.1573 225.531 38.5143 222.446 38.861 219.45L38.8721 219.354L42.1041 191.485L42.1132 191.407Z" fill="black"/>
</svg>
