<svg width="160" height="260" viewBox="0 0 160 260" fill="none" xmlns="http://www.w3.org/2000/svg">
<path d="M95.6372 98.5115C96.5892 99.9275 97.5785 101.384 98.9945 102.338C100.411 103.293 102.376 103.64 103.819 102.728C105.419 101.712 106.421 99.2608 108.304 99.5275C109.048 99.6368 109.637 100.186 110.197 100.696C111.763 102.144 113.573 103.562 115.704 103.696C117.835 103.829 120.171 102.042 119.8 99.9408C119.669 99.1995 119.232 98.5168 119.24 97.7648C119.253 96.4528 120.573 95.5622 121.144 94.3835C122.515 91.6022 119.603 87.9648 121.197 85.3035C121.688 84.4902 122.517 83.9515 123.229 83.3222C126.765 80.1888 127.099 74.1008 123.923 70.5995C122.747 69.3035 121.149 68.2902 120.523 66.6555C120.133 65.6395 120.176 64.5222 120.195 63.4315C120.296 57.2022 119.328 50.8262 116.36 45.3462C113.392 39.8662 109.597 38.3568 103.48 37.1755L98.6985 34.2048C97.2052 31.8315 94.3732 30.6902 91.6638 29.9702C83.1305 27.7088 72.4745 25.2662 64.3919 28.7995C56.3092 32.3328 49.5279 38.8928 46.0239 46.9888C44.2159 51.1675 43.1972 55.8235 40.2452 59.2902C37.7279 62.2475 34.0692 64.0075 31.3359 66.7568C28.6025 69.5062 26.9865 74.2235 29.4879 77.1942C29.9945 77.7968 30.6559 78.3062 30.9439 79.0422C31.9332 81.5675 28.1359 83.1915 26.9119 85.6128C25.7679 87.8795 27.1199 90.6288 28.8399 92.4982C30.5599 94.3675 32.7332 95.9648 33.6719 98.3195C34.3679 100.069 34.4159 102.264 35.9279 103.386C37.6212 104.645 40.0425 103.744 42.1012 104.21C44.1599 104.677 45.6372 106.461 47.2425 107.856C48.8479 109.25 51.2292 110.333 53.0319 109.205C53.9919 108.602 54.5438 107.496 55.4985 106.888C57.4212 105.661 59.8772 106.901 62.0505 107.592C64.2239 108.282 67.4958 107.562 67.3652 105.285" fill="black"/>
<path d="M90.5702 104.644C90.2662 100.994 90.9436 97.8631 92.5329 94.5618C92.8929 93.8151 93.6662 93.8231 94.4316 93.5804C95.1116 93.3671 95.7782 93.1218 96.4369 92.8444C97.7729 92.2898 99.0369 91.5724 100.197 90.7111C102.496 88.9751 104.288 86.5378 104.96 83.7111C105.57 81.1484 105.141 78.0978 102.293 76.6551C100.285 75.6418 98.4849 76.0018 95.4262 78.6898L94.5196 76.5324C95.4742 71.8578 95.8636 67.0818 95.6796 62.3138C95.5942 60.0738 92.5596 56.5538 90.4876 55.6978L86.8982 52.0444C85.0316 48.3111 71.5302 47.1084 67.5249 48.2684C60.5702 50.5271 58.5516 51.7218 56.5382 54.4311C54.5249 57.1404 53.4422 60.4124 52.3942 63.6204L50.3489 67.3324C48.6289 71.7564 47.5942 75.7511 47.3329 78.1698C46.6742 84.2604 47.9036 91.0284 52.5622 95.3671C55.0449 97.6764 58.1196 98.8124 61.4076 99.3911C64.8369 99.9964 68.5169 100.548 71.8449 99.1884C71.6689 101.964 71.6422 104.212 71.7702 106.991" fill="#FFD39F"/>
<path fill-rule="evenodd" clip-rule="evenodd" d="M46.1903 109.064C47.5877 110.277 49.4757 111.28 51.3477 111.28C52.2117 111.28 53.073 111.066 53.8757 110.546C54.5557 110.12 55.041 109.57 55.4677 109.085L55.483 109.068C55.7866 108.725 56.0724 108.402 56.353 108.224C57.3023 107.618 58.817 108.149 60.4197 108.714C60.793 108.848 61.1797 108.981 61.561 109.104C63.6117 109.757 66.0623 109.421 67.5183 108.29C68.5183 107.514 69.0277 106.41 68.9583 105.181C68.9077 104.298 68.153 103.624 67.2703 103.674C66.3877 103.725 65.713 104.48 65.7637 105.362C65.7717 105.49 65.761 105.602 65.5557 105.76C64.937 106.242 63.5503 106.376 62.5317 106.053C62.1877 105.944 61.8383 105.821 61.4837 105.696L61.4765 105.693C59.4351 104.976 56.8944 104.084 54.6357 105.525C53.9754 105.945 53.5008 106.483 53.0824 106.957L53.0703 106.97C52.7583 107.325 52.465 107.658 52.1797 107.837C51.1717 108.469 49.4997 107.69 48.289 106.637C47.9836 106.372 47.6831 106.09 47.3647 105.792L47.3646 105.792L47.3103 105.741L47.3017 105.733C45.9811 104.498 44.4872 103.1 42.4517 102.64C41.4543 102.413 40.4437 102.442 39.553 102.469L39.5413 102.469H39.5412C38.4289 102.501 37.4656 102.529 36.8783 102.09C36.2788 101.643 36.0254 100.687 35.7324 99.5813L35.7317 99.5784C35.5717 98.9678 35.4037 98.3384 35.1557 97.7144C34.3397 95.6717 32.8437 94.2104 31.3957 92.7971L31.2452 92.6493L31.245 92.649C30.812 92.2237 30.3993 91.8181 30.0143 91.3997C28.7503 90.0264 27.553 87.8717 28.337 86.3197C28.673 85.6557 29.3903 84.9571 30.0837 84.2824C31.4997 82.9064 33.4383 81.0184 32.4303 78.4451C32.1103 77.6291 31.5557 77.0504 31.1103 76.5864C30.961 76.4317 30.8223 76.2851 30.7077 76.1491C28.873 73.9731 30.193 70.1571 32.465 67.8717C33.6057 66.7231 34.9328 65.7529 36.3399 64.7242L36.3423 64.7224L36.3441 64.7211L36.3442 64.7211C38.1196 63.4228 39.9535 62.0818 41.457 60.3144C43.7393 57.6353 44.9285 54.387 46.0791 51.2442L46.0791 51.2441L46.0837 51.2317L46.1221 51.1271C46.5527 49.9543 46.9969 48.7447 47.4863 47.6131C50.7743 40.0157 57.169 33.6877 65.0277 30.2531C72.513 26.9811 82.489 29.1837 91.249 31.5064C93.241 32.0371 96.0383 32.9784 97.3397 35.0477C97.809 35.7944 98.7957 36.0184 99.545 35.5491C100.292 35.0797 100.516 34.0904 100.046 33.3437C98.145 30.3224 94.5823 29.0851 92.0677 28.4157C82.785 25.9571 72.1743 23.6397 63.745 27.3251C55.153 31.0824 48.1557 38.0157 44.5503 46.3464C44.009 47.5971 43.5343 48.8904 43.0783 50.1384C41.9743 53.1544 40.9317 56.0024 39.0197 58.2477C37.765 59.7225 36.1674 60.8913 34.4787 62.1266L34.4787 62.1267L34.4517 62.1464C33.0063 63.2024 31.513 64.2957 30.193 65.6237C28.5743 67.2504 27.3663 69.4051 26.881 71.5304C26.2943 74.0957 26.7823 76.4691 28.2543 78.2184C28.4201 78.4183 28.5881 78.5937 28.7502 78.7629L28.7502 78.7629L28.7957 78.8104C29.0863 79.1117 29.3583 79.3944 29.4463 79.6211C29.6463 80.1331 29.1397 80.7411 27.8463 81.9997L27.8359 82.0099C26.9984 82.8261 26.0493 83.7511 25.4757 84.8877C24.4783 86.8611 24.529 90.1811 27.6543 93.5784C28.1423 94.1091 28.657 94.6131 29.1557 95.0984L29.1627 95.1053L29.1628 95.1054C30.4242 96.3375 31.6154 97.5011 32.177 98.9091C32.3524 99.3529 32.488 99.8628 32.6315 100.402L32.6315 100.402L32.633 100.408C33.0223 101.882 33.465 103.554 34.9663 104.669C36.4459 105.768 38.1379 105.72 39.6343 105.677L39.6437 105.677L39.6622 105.677C40.426 105.655 41.1445 105.636 41.7423 105.77C42.937 106.042 43.9983 107.034 45.121 108.088L45.2368 108.196L45.2369 108.196C45.5467 108.484 45.8632 108.779 46.1903 109.064ZM115.6 105.305C115.71 105.313 115.822 105.316 115.934 105.316C117.534 105.316 119.158 104.593 120.238 103.393C121.203 102.316 121.606 100.998 121.374 99.6838C121.296 99.2464 121.163 98.8651 121.043 98.5291C120.942 98.2438 120.838 97.9504 120.838 97.8011C120.84 97.5212 121.203 97.0654 121.555 96.6229L121.555 96.6228L121.555 96.6224C121.899 96.1904 122.288 95.6998 122.579 95.1104C123.497 93.2469 123.061 91.3064 122.674 89.5912L122.672 89.5824L122.671 89.5749C122.354 88.1701 122.081 86.9596 122.568 86.1477C122.792 85.7771 123.227 85.4198 123.688 85.0438C123.891 84.8784 124.094 84.7131 124.288 84.5397C126.291 82.7717 127.531 80.1024 127.691 77.2171C127.854 74.3264 126.912 71.5291 125.11 69.5424C124.702 69.0944 124.27 68.6918 123.851 68.3051C123.064 67.5771 122.32 66.8864 122.019 66.1024C121.764 65.4325 121.779 64.5691 121.795 63.6576L121.795 63.6491L121.798 63.4757C121.918 56.1077 120.563 49.7557 117.771 44.6011C114.579 38.7077 110.392 36.8971 103.787 35.6224C102.918 35.4544 102.08 36.0224 101.912 36.8891C101.744 37.7557 102.312 38.5957 103.179 38.7637C109.072 39.9024 112.339 41.2944 114.955 46.1238C117.483 50.7904 118.71 56.6091 118.598 63.4198L118.595 63.5877L118.595 63.6064V63.6066C118.576 64.7273 118.555 65.9974 119.032 67.2438C119.6 68.7238 120.704 69.7477 121.678 70.6491C122.064 71.0064 122.427 71.3424 122.742 71.6891C123.971 73.0464 124.611 74.9958 124.499 77.0384C124.387 79.0758 123.539 80.9344 122.174 82.1397C122.05 82.2498 121.921 82.3553 121.793 82.4608C121.75 82.4959 121.707 82.5311 121.664 82.5664C121.043 83.0731 120.339 83.6491 119.827 84.4971C118.678 86.4117 119.142 88.4678 119.552 90.2838C119.851 91.6011 120.131 92.8438 119.712 93.6918C119.574 93.9744 119.32 94.2944 119.054 94.6304C118.43 95.4118 117.656 96.3878 117.643 97.7798C117.643 98.4969 117.859 99.1048 118.032 99.5928L118.032 99.5931L118.041 99.6168C118.12 99.8455 118.196 100.063 118.227 100.233C118.302 100.652 118.067 101.017 117.859 101.252C117.363 101.804 116.52 102.158 115.808 102.113C114.166 102.009 112.603 100.75 111.283 99.5318L111.251 99.5024L111.244 99.4961C110.61 98.9153 109.745 98.1232 108.531 97.9584C106.488 97.6704 105.171 99.1291 104.211 100.196C103.774 100.681 103.36 101.14 102.966 101.39C102.067 101.961 100.742 101.601 99.891 101.028C98.7117 100.232 97.8274 98.915 96.9728 97.6423L96.9683 97.6358C96.475 96.9024 95.4803 96.7051 94.747 97.1984C94.0137 97.6918 93.8163 98.6864 94.3097 99.4198L94.3246 99.442C95.3023 100.895 96.409 102.54 98.1017 103.681C100.227 105.113 102.808 105.276 104.68 104.092C105.445 103.604 106.05 102.933 106.585 102.339L106.587 102.337L106.599 102.324C107.152 101.709 107.723 101.076 108.088 101.129C108.318 101.158 108.752 101.556 109.074 101.852L109.083 101.86L109.11 101.884C110.835 103.481 112.958 105.137 115.6 105.305ZM52.3922 65.225C52.2269 65.225 52.0589 65.1983 51.8962 65.145C51.0562 64.8703 50.5976 63.9663 50.8722 63.1263C51.8962 59.9876 53.0589 56.4303 55.2536 53.4783C56.6696 51.5716 58.3042 50.2276 60.7149 48.9796C64.9922 46.769 69.8936 45.8356 74.8909 46.2783C78.3229 46.5823 86.5069 47.6836 88.3282 51.329C88.7229 52.1183 88.4029 53.081 87.6136 53.4756C86.8242 53.8703 85.8616 53.5503 85.4669 52.761C84.8669 51.561 80.6402 50.001 74.6082 49.465C70.2162 49.0756 65.9202 49.8916 62.1842 51.8223C60.2056 52.8436 58.9416 53.8756 57.8216 55.3876C55.9392 57.9206 54.9099 61.0719 53.9154 64.1168L53.9149 64.1183C53.6936 64.7957 53.0669 65.225 52.3922 65.225ZM97.2946 62.2641C97.4675 66.8531 97.1203 71.4655 96.262 75.9843C99.3325 73.9314 101.311 74.3682 102.988 75.2146C106.092 76.7826 107.433 80.1773 106.489 84.076C105.769 87.1053 103.868 89.9133 101.137 91.9746C99.8627 92.9213 98.4813 93.7053 97.0253 94.308C96.3347 94.5986 95.612 94.8653 94.884 95.092C94.6627 95.1613 94.4493 95.2146 94.2627 95.26C94.2359 95.2666 94.2074 95.2736 94.1782 95.2807L94.1767 95.2811C94.0778 95.3052 93.9705 95.3314 93.8947 95.356C92.3613 98.556 91.8867 99.7586 92.1533 102.895C92.228 103.775 91.5747 104.548 90.6947 104.623C90.6467 104.633 90.6013 104.636 90.556 104.636C89.7347 104.636 89.0333 104.007 88.964 103.169C88.6253 99.1533 89.4067 97.316 91.0653 93.86C91.6733 92.5986 92.8227 92.3213 93.5107 92.156L93.6043 92.1328L93.6044 92.1328C93.719 92.1047 93.8273 92.0782 93.924 92.0466C94.5587 91.8466 95.1853 91.6173 95.7907 91.3613C97.0147 90.8546 98.164 90.2013 99.22 89.4173C101.348 87.8093 102.831 85.6466 103.38 83.332C103.663 82.1666 104.047 79.3346 101.548 78.0733C100.457 77.5213 99.388 77.3053 96.4573 79.8813C95.7933 80.4653 94.7827 80.3986 94.1987 79.7346C93.7719 79.2494 93.6926 78.579 93.94 78.0253C93.2245 77.7476 92.7931 76.9881 92.9533 76.2135C93.8866 71.6695 94.2706 67.0135 94.0946 62.3761C94.0466 60.9281 91.5693 57.8721 89.8893 57.1788C89.0733 56.8401 88.684 55.9068 89.0226 55.0881C89.3613 54.2721 90.2946 53.8828 91.1133 54.2215C92.364 54.7388 93.852 55.9575 95.0893 57.4801C95.8867 58.4615 97.2306 60.3841 97.2946 62.2641ZM58.2467 74.6919C59.2777 74.6919 60.1134 73.6771 60.1134 72.4253C60.1134 71.1734 59.2777 70.1586 58.2467 70.1586C57.2158 70.1586 56.3801 71.1734 56.3801 72.4253C56.3801 73.6771 57.2158 74.6919 58.2467 74.6919ZM69.179 73.0534C69.179 74.3052 68.3433 75.3201 67.3124 75.3201C66.2814 75.3201 65.4457 74.3052 65.4457 73.0534C65.4457 71.8015 66.2814 70.7867 67.3124 70.7867C68.3433 70.7867 69.179 71.8015 69.179 73.0534ZM70.1716 105.469C70.2116 106.328 70.9183 106.997 71.7689 106.997C71.7929 106.997 71.8169 106.997 71.8463 106.987C72.7289 106.947 73.4116 106.197 73.3716 105.315C73.2436 102.563 73.2729 101.971 73.4436 99.288C73.4783 98.7387 73.2276 98.2107 72.7796 97.888C72.3316 97.568 71.7503 97.4987 71.2409 97.7067C68.4303 98.856 65.2489 98.4373 61.6863 97.816C58.2009 97.2027 55.6489 96.0533 53.6543 94.1973C49.9236 90.7253 48.2009 84.9467 48.9236 78.3467C49.1423 76.3707 50.0223 72.592 51.8409 67.9147C52.1609 67.0907 51.7529 66.1627 50.9289 65.8427C50.1049 65.5227 49.1769 65.9307 48.8569 66.7547C47.2169 70.9707 46.0543 75.1733 45.7423 77.9973C44.9103 85.616 46.9983 92.3733 51.4729 96.5413C53.9076 98.8053 57.0676 100.253 61.1343 100.971C63.6516 101.411 66.9156 101.979 70.1209 101.36C70.0676 102.648 70.0863 103.592 70.1716 105.469Z" fill="black"/>
<g clip-path="url(#clip0_1123_38257)">
<path d="M90.499 100C90.739 102.693 91.8403 108.779 95.939 107.867L96.379 108.533C96.179 112.712 94.0617 115.659 90.7443 118.712C87.3737 121.765 83.075 123.6 78.539 123.923C74.539 124.216 70.2857 123.259 67.2937 120.576C64.3017 117.893 62.7283 114.176 64.7097 110.989H64.9977C65.899 111.016 66.7283 110.544 67.491 110.064C68.4617 109.451 70.4643 106.936 71.0643 106.213C71.8643 105.176 72.1897 101.243 72.6003 100H90.499V100Z" fill="#FFD39F"/>
<path d="M33.8791 209.262C32.0124 209.958 30.4124 211.558 30.9458 213.691C34.4124 217.158 33.6124 222.224 33.3458 226.491C33.8871 227.68 34.7511 228.694 35.8364 229.419C36.9244 230.144 38.1911 230.552 39.4978 230.595L41.7324 210.23L33.8791 209.262Z" fill="#FFD39F"/>
<path d="M96.6034 106.43C101.321 107.694 104.979 111.328 107.926 115.048C111.139 119.115 113.662 123.683 115.393 128.568C116.361 131.294 117.891 134.366 118.523 137.187L119.366 139.75C123.899 159.302 124.737 179.462 125.041 199.568L125.307 200.214C126.934 206.227 133.067 221.427 134.401 227.827C134.443 228.374 134.353 228.923 134.134 229.427C131.467 232.627 126.934 231.827 123.427 232.912L111.035 235.382C93.2994 238.563 86.966 240.939 69.2007 237.944L68.4007 237.744C67.2327 227.92 66.3714 217.712 65.8727 207.427L65.75 207.96C64.0674 217.795 62.4914 226.894 62.1607 236.864L62.11 237.288C58.2887 236.558 46.7367 234.491 42.91 233.76C41.8754 233.56 40.7394 233.299 40.134 232.427C39.6327 231.712 39.6354 230.771 39.6727 229.899C39.8247 226.432 40.2247 222.99 40.6247 219.547L42.454 203.79H42.3154C39.606 203.462 37.43 203.134 34.7207 202.806C35.8434 190.416 37.2834 178.062 39.0407 165.739C40.5714 155.006 42.3474 144.27 45.5047 133.899C48.31 124.683 55.694 112.486 64.1447 107.864L69.406 108.704C72.8727 112.15 78.7047 112.88 82.902 110.392L96.6034 106.43Z" fill="black"/>
<path d="M105.762 216.001C103.194 216.83 99.8713 220.198 102.042 223.046C103.237 224.617 105.042 225.462 106.698 226.446C107.975 227.206 108.311 229.763 108.805 231.121C110.053 234.542 112.477 237.342 116.447 237.083C120.49 236.817 123.005 233.374 123.773 229.659C124.607 225.633 123.271 219.793 122.602 215.809L105.762 216.001Z" fill="#FFD39F"/>
<path fill-rule="evenodd" clip-rule="evenodd" d="M68.5527 150.277L68.7607 110.781C68.7607 109.237 69.0647 103.824 69.5367 103.075C66.07 105.347 63.9553 109.112 61.9607 112.733C60.8167 114.811 59.6353 117.037 59.7927 119.4C59.9088 121.169 60.7498 122.752 61.5933 124.34C62.3573 125.778 63.1234 127.22 63.3553 128.808C63.6774 131.012 62.9389 133.134 62.1945 135.273C61.6382 136.871 61.0785 138.479 60.9553 140.139C60.8087 142.219 61.6247 146.805 62.1713 148.827L66.1553 163.536L66.0193 176.947C70.6487 167.293 76.0567 158.032 82.1927 149.259C84.102 146.523 86.1927 143.483 85.782 140.171C85.6918 139.449 85.4864 138.726 85.2819 138.007C84.8819 136.599 84.486 135.206 84.966 133.867C85.2753 133.003 85.918 132.307 86.542 131.635L95.558 121.965C96.174 121.304 96.8087 120.611 97.078 119.747C97.382 118.76 97.166 117.696 96.9473 116.685L94.2007 104.029C93.958 102.912 93.4913 101.568 92.3607 101.387C89.6487 103.173 87.2407 105.837 85.1313 108.627C83.7752 110.422 82.526 112.277 81.3717 114.183L82.8995 110.393C78.7022 112.881 72.8702 112.151 69.4035 108.705V143.868L71.1934 139.429C70.2163 143.112 69.3702 146.846 68.598 150.592L68.5527 150.277ZM34.3691 209.172C34.5291 207.183 34.7051 205.146 35.5585 203.343L42.0891 204.055L41.3665 210.239C38.9958 210.223 36.6385 209.863 34.3691 209.172ZM102.86 215.224C102.714 213.146 102.852 211.061 103.268 209.021L122.932 209.309L123.13 214.224C123.146 214.81 123.106 215.52 122.596 215.81C122.346 215.925 122.071 215.973 121.796 215.952L103.663 216.002C103.468 216.026 103.271 215.981 103.103 215.88C103.02 215.792 102.956 215.688 102.914 215.576C102.874 215.464 102.855 215.344 102.86 215.224Z" fill="white"/>
<path fill-rule="evenodd" clip-rule="evenodd" d="M68.9432 239.52C74.8019 240.51 79.4392 240.923 83.6392 240.923C90.4206 240.923 96.0659 239.843 103.879 238.344L104.507 238.225L104.508 238.225L104.509 238.224L104.509 238.224L104.51 238.224L104.512 238.224L104.518 238.223C106.541 237.837 108.64 237.436 110.971 237.016C112.407 238.118 114.096 238.7 115.958 238.7C116.155 238.7 116.352 238.694 116.544 238.678C119.369 238.491 121.826 236.956 123.473 234.51C123.615 234.506 123.757 234.482 123.899 234.436C124.894 234.127 126.032 233.986 127.238 233.836C130.011 233.492 133.152 233.1 135.363 230.447C135.462 230.33 135.542 230.199 135.603 230.058C135.92 229.319 136.056 228.503 135.995 227.7L135.993 227.678C135.991 227.656 135.988 227.634 135.985 227.612C135.98 227.574 135.973 227.535 135.966 227.498C135.179 223.717 132.868 217.246 130.628 210.974L130.603 210.906L130.553 210.766C128.988 206.383 127.513 202.255 126.846 199.794C126.802 199.634 126.737 199.488 126.653 199.355C126.452 179.879 125.975 161.275 121.428 141.674C121.228 140.813 120.37 140.277 119.508 140.477C118.647 140.677 118.111 141.536 118.311 142.397C123.119 163.13 123.303 182.882 123.495 203.794L123.496 203.848C123.506 205.078 123.517 206.314 123.53 207.554L103.34 207.224C100.34 183.784 99.3058 159.938 100.263 136.333C100.3 135.45 99.6124 134.704 98.7298 134.669C97.8445 134.637 97.1005 135.32 97.0658 136.202C96.0818 160.45 97.1858 184.944 100.346 209.008C100.428 209.63 100.86 210.13 101.429 210.319C101.207 211.955 101.151 213.611 101.262 215.262C101.259 215.558 101.312 215.848 101.416 216.134C101.534 216.451 101.712 216.736 101.944 216.982C101.967 217.005 101.991 217.028 102.015 217.05C101.045 217.782 100.242 218.719 99.8883 219.846C99.5816 220.82 99.4883 222.334 100.768 224.014C101.955 225.574 103.592 226.51 105.038 227.334L105.242 227.452C105.456 227.574 105.67 227.697 105.88 227.822C106.275 228.058 106.706 229.63 106.895 230.317L106.899 230.332C107.03 230.812 107.155 231.262 107.302 231.67C107.642 232.605 108.048 233.455 108.51 234.214C106.632 234.562 104.879 234.896 103.279 235.203L103.275 235.204C91.0988 237.534 84.344 238.827 69.8686 236.43C68.798 227.21 68.0208 217.802 67.5446 208.454L67.5896 208.194C67.6432 207.881 67.6023 207.574 67.4874 207.301C67.0095 197.411 66.8695 187.599 67.0766 178.16C67.2366 178.022 67.3726 177.848 67.4712 177.643C72.0472 168.096 77.4446 158.856 83.5139 150.179C85.4499 147.406 87.8606 143.952 87.3806 139.984C87.2766 139.131 87.0499 138.328 86.8286 137.552C86.4792 136.323 86.1779 135.262 86.4819 134.411C86.6794 133.855 87.1996 133.294 87.7032 132.751L87.7032 132.751L87.7219 132.731L96.7379 123.062L96.7425 123.057L96.7425 123.057C97.4084 122.34 98.2374 121.448 98.6152 120.224C99.0508 118.814 98.7457 117.401 98.5219 116.365L98.5192 116.352L96.7353 108.134C101.125 109.533 104.49 113.289 106.669 116.04C109.781 119.976 112.208 124.371 113.882 129.104C114.232 130.083 114.65 131.109 115.056 132.101L115.067 132.129L115.067 132.13L115.067 132.13L115.067 132.13L115.067 132.13L115.067 132.13L115.067 132.13L115.067 132.13C115.81 133.951 116.578 135.83 116.96 137.536C117.128 138.28 117.786 138.787 118.52 138.787C118.637 138.787 118.754 138.773 118.872 138.747C119.733 138.552 120.274 137.696 120.082 136.835C119.64 134.859 118.816 132.84 118.018 130.888C117.608 129.885 117.221 128.939 116.898 128.032C115.106 122.968 112.509 118.267 109.178 114.053C106.626 110.832 102.589 106.376 97.0156 104.883C96.6804 104.792 96.3415 104.816 96.0396 104.929L95.7726 103.699C95.2739 101.376 94.2126 100.07 92.6206 99.8137C92.2259 99.7497 91.8206 99.835 91.4872 100.056C88.9779 101.707 86.4846 104.198 83.8606 107.667C83.5787 108.04 83.3014 108.416 83.0286 108.794C82.7184 108.774 82.3992 108.844 82.1116 109.015C78.706 111.035 73.8913 110.53 70.9191 107.906C71.2021 106.888 71.5218 105.959 71.693 105.663C72.0957 105.025 71.997 104.196 71.461 103.668C70.925 103.14 70.093 103.057 69.4637 103.471C67.9254 104.479 66.5071 105.442 65.2228 106.493C65.0437 106.52 64.8661 106.579 64.6977 106.671C55.3964 111.759 46.7111 124.524 43.9991 133.433C40.7884 143.98 38.9697 155.084 37.4817 165.513C35.7297 177.801 34.2711 190.297 33.1511 202.663C33.1056 203.152 33.2866 203.611 33.6089 203.936C33.1729 205.273 32.99 206.647 32.8691 207.947C30.1526 209.147 28.7645 211.561 29.3943 214.081C29.4663 214.363 29.6103 214.619 29.8157 214.825C32.4077 217.419 32.1223 221.294 31.845 225.041L31.8395 225.113L31.8395 225.114L31.8394 225.114L31.8394 225.114C31.8066 225.548 31.7742 225.976 31.749 226.395C31.733 226.657 31.781 226.918 31.8903 227.158C32.5543 228.619 33.613 229.862 34.949 230.753C35.9522 231.425 37.0807 231.873 38.2618 232.077C38.3772 232.518 38.5619 232.953 38.8509 233.365C39.8442 234.779 41.5074 235.118 42.63 235.348L42.6349 235.349C44.3528 235.676 47.6595 236.279 51.0609 236.898L52.4056 237.143C53.1273 237.275 53.854 237.408 54.5703 237.538C57.5351 238.079 60.3207 238.587 61.8349 238.877C61.9336 238.895 62.0323 238.906 62.1336 238.906C62.4696 238.906 62.8029 238.799 63.0803 238.594C63.4403 238.333 63.6723 237.933 63.7256 237.493L63.7763 237.069C63.7816 237.023 63.7843 236.978 63.7869 236.933L63.7869 236.933C63.9552 231.858 64.5098 226.998 65.2401 222.128C65.6724 227.43 66.1997 232.712 66.8206 237.931C66.8979 238.59 67.3752 239.134 68.0206 239.294L68.8206 239.494C68.8605 239.504 68.9032 239.512 68.9432 239.52ZM58.9552 115.227C53.4732 120.844 48.8427 128.503 47.0577 134.364C44.0844 144.127 42.3457 154.057 40.6471 165.964C38.9751 177.687 37.5724 189.604 36.4791 201.409C37.1394 201.494 37.7754 201.579 38.3995 201.663L38.7564 201.711C39.5073 201.811 40.275 201.914 41.0755 202.017L42.2163 192.181L42.2188 192.159C44.426 173.142 46.7086 153.475 51.1843 134.485C51.3869 133.626 52.2483 133.093 53.1096 133.295C53.9683 133.498 54.5016 134.359 54.2989 135.221C49.8647 154.035 47.5928 173.611 45.3956 192.543L45.3956 192.543L45.3949 192.549L42.2403 219.749C41.8509 223.103 41.4483 226.575 41.2963 229.986C41.2776 230.41 41.2429 231.205 41.4696 231.525C41.7321 231.896 42.6377 232.083 43.2457 232.208L43.2563 232.21C45.1363 232.57 49.0173 233.276 52.8017 233.964L52.8122 233.966L52.8282 233.969L52.9789 233.997C55.7496 234.501 58.5923 235.018 60.6456 235.399C61.0349 227.117 62.3789 219.431 63.7976 211.319C63.8713 210.895 63.9456 210.47 64.0201 210.043L64.0225 210.03L64.0231 210.026L64.0234 210.025C64.125 209.443 64.2269 208.86 64.328 208.275C63.5549 192.869 63.5943 177.629 64.4819 163.651C64.4853 163.609 64.4897 163.566 64.496 163.524L60.629 149.247C60.0824 147.228 59.1917 142.423 59.3624 140.028C59.501 138.153 60.1037 136.423 60.6877 134.748L60.6894 134.743C61.3847 132.745 62.0422 130.856 61.7757 129.041C61.5837 127.727 60.9037 126.447 60.1837 125.092L60.1774 125.08C59.2727 123.374 58.338 121.612 58.1997 119.505C58.0974 117.98 58.4409 116.546 58.9552 115.227ZM67.7569 163.499L67.8846 162.835L67.8847 162.834C71.1433 145.066 74.8367 124.928 86.4126 109.592C88.4819 106.854 90.4312 104.806 92.3379 103.366C92.4312 103.582 92.5406 103.899 92.6419 104.371L95.3886 117.027L95.3919 117.042L95.3919 117.043C95.5564 117.807 95.7419 118.668 95.5539 119.278C95.3931 119.8 94.8933 120.337 94.4079 120.86L94.3912 120.878L85.3726 130.55L85.3581 130.565C84.6993 131.277 83.8815 132.161 83.4632 133.331C82.8126 135.147 83.3086 136.891 83.7459 138.427C83.9432 139.115 84.1272 139.763 84.1992 140.368C84.5326 143.123 82.5966 145.899 80.8872 148.347C75.8872 155.499 71.3326 163.027 67.3086 170.792C67.4053 168.531 67.5226 166.294 67.6603 164.089C67.7285 163.903 67.7625 163.703 67.7569 163.499ZM65.8466 156.275L63.717 148.412C63.1624 146.359 62.4264 142.028 62.5517 140.26C62.6583 138.811 63.1667 137.351 63.7048 135.806L63.7064 135.801L63.7077 135.798C64.4993 133.521 65.3168 131.171 64.9384 128.58C64.6667 126.721 63.8234 125.134 63.0084 123.6L63.005 123.593L62.9918 123.568C62.2153 122.103 61.4818 120.719 61.389 119.297C61.269 117.473 62.1704 115.673 63.3624 113.508C64.413 111.601 65.757 110.169 67.4024 108.844C67.2557 109.58 67.1624 110.26 67.1624 110.775L66.9544 150.271C66.9538 150.359 66.9605 150.446 66.9739 150.53C66.5789 152.458 66.206 154.375 65.8466 156.275ZM70.2248 136.899C72.5473 128.654 75.6289 120.551 80.1225 113.176C79.2217 113.37 78.3 113.465 77.3783 113.465C74.9151 113.465 72.4447 112.785 70.3587 111.473L70.2248 136.899ZM36.0827 207.982C36.1969 206.838 36.3671 205.705 36.7391 204.675C37.251 204.742 37.751 204.809 38.2445 204.875L38.2447 204.875L38.2468 204.876L38.2488 204.876L38.2507 204.876L38.3297 204.887L38.7857 204.947C39.4092 205.03 40.0458 205.115 40.7063 205.2L40.3113 208.606C38.8855 208.53 37.4696 208.321 36.0827 207.982ZM34.2999 210.819C36.1418 211.348 38.0321 211.674 39.942 211.79L39.0616 219.381L39.0505 219.477C38.6996 222.509 38.338 225.634 38.1567 228.767C37.6524 228.614 37.1711 228.387 36.7277 228.091C35.9943 227.601 35.3916 226.942 34.973 226.169C34.9848 225.981 34.9988 225.793 35.0129 225.603L35.013 225.603C35.0211 225.494 35.0292 225.385 35.037 225.275L35.0373 225.271C35.3252 221.368 35.6811 216.543 32.4477 212.95C32.3995 211.731 33.7673 211.041 34.2999 210.819ZM106.953 217.591C106.794 218.05 106.429 218.431 105.931 218.59C104.448 219.068 103.19 219.998 102.939 220.801C102.891 220.953 102.766 221.358 103.312 222.076C104.097 223.109 105.306 223.801 106.585 224.535L106.622 224.556C106.92 224.726 107.219 224.897 107.512 225.07C109.022 225.969 109.555 227.921 109.982 229.486C110.094 229.9 110.203 230.292 110.304 230.574C111.166 232.937 112.92 235.713 116.339 235.486C118.59 235.337 121.31 233.644 122.203 229.334C122.887 226.032 122.271 222.476 121.674 219.034L121.672 219.022C121.598 218.598 121.526 218.177 121.454 217.756C121.442 217.687 121.435 217.618 121.432 217.55L106.953 217.591ZM124.222 216.422C124.418 216.64 124.556 216.915 124.608 217.225C124.667 217.579 124.728 217.932 124.789 218.287L124.79 218.291L124.822 218.476L124.824 218.489C125.471 222.224 126.141 226.086 125.331 229.982C125.266 230.294 125.192 230.6 125.11 230.899C125.69 230.806 126.272 230.734 126.846 230.663L126.849 230.662C129.25 230.364 131.334 230.105 132.739 228.591C132.792 228.412 132.816 228.223 132.811 228.036C132.04 224.431 129.678 217.82 127.59 211.983L127.558 211.893L127.555 211.887C127.27 211.088 126.988 210.296 126.712 209.521C126.647 209.82 126.497 210.096 126.276 210.314C125.978 210.613 125.57 210.781 125.148 210.781H125.122L124.592 210.772L124.728 214.158C124.74 214.578 124.768 215.596 124.222 216.422ZM121.389 210.72L104.644 210.445C104.448 211.753 104.374 213.077 104.422 214.4L121.536 214.352C121.536 214.326 121.536 214.296 121.534 214.267L121.389 210.72Z" fill="black"/>
</g>
<defs>
<clipPath id="clip0_1123_38257">
<rect width="160" height="160" fill="white" transform="translate(0 100)"/>
</clipPath>
</defs>
</svg>
