<svg width="160" height="260" viewBox="0 0 160 260" fill="none" xmlns="http://www.w3.org/2000/svg">
<path d="M93.6704 76.9966C95.5184 74.8206 94.9451 71.0526 92.5344 69.53C91.6704 68.9806 90.5771 68.6393 90.1051 67.7326C89.5717 66.7326 90.0544 65.5353 90.3344 64.442C90.3344 64.4073 90.3531 64.37 90.3637 64.3353C91.1637 61.0393 87.3957 58.594 84.6517 60.5886C81.2251 63.0793 77.3317 64.8553 73.2037 65.8126C71.0704 66.3033 68.4491 66.3993 67.1317 64.6553C66.3531 63.6206 66.1664 62.058 64.1984 62.2046C63.6251 62.2526 63.0731 62.4526 62.5984 62.7806C59.0757 65.1566 55.0464 66.6686 50.8304 67.1993C49.6517 67.346 48.4304 67.4126 47.2917 67.074C44.0224 66.1006 42.5371 61.938 43.5237 58.674C44.5104 55.41 47.2971 52.9966 50.2411 51.2686C52.0651 50.202 54.0971 49.2206 55.1957 47.41C55.8411 46.3433 56.0944 45.074 56.7424 44.01C57.3904 42.946 58.4037 42.1433 59.4357 41.418C64.9957 37.57 71.6437 35.6126 78.4011 35.8286C82.4011 35.9673 87.1024 37.5753 87.9664 41.474L94.0997 44.058C98.8197 44.7833 103.62 46.3726 106.961 49.786C110.302 53.1993 111.761 58.7753 109.361 62.906C109.046 63.4393 108.657 64.0046 108.673 64.634C108.694 65.434 109.364 66.0633 109.918 66.6553C110.889 67.706 111.628 68.9486 112.084 70.3033C112.54 71.658 112.705 73.0926 112.569 74.5166C112.444 75.754 112.036 77.034 111.108 77.8526C110.18 78.6713 108.598 78.8393 107.721 77.9593L94.4144 79.9993L93.6704 76.9966Z" fill="black"/>
<path d="M50.3489 67.3398C48.6289 71.7638 47.5942 75.7585 47.3329 78.1772C46.6742 84.2678 47.9036 91.0358 52.5622 95.3745C55.0449 97.6838 58.1196 98.8198 61.4076 99.3985C64.8369 100.004 68.5169 100.556 71.8449 99.1958C71.6689 101.972 71.6422 103.953 71.7702 106.732L90.5702 104.646C90.2662 100.996 90.9436 97.8652 92.5329 94.5638C92.8929 93.8172 93.6662 93.8252 94.4316 93.5825C95.1116 93.3692 95.7782 93.1238 96.4369 92.8465C97.7729 92.2918 99.0342 91.5745 100.197 90.7132C102.496 88.9772 104.288 86.5398 104.96 83.7132C105.57 81.1505 105.141 78.0998 102.293 76.6572C100.285 75.6438 98.4849 76.0038 95.4262 78.6918L93.6929 77.0065C95.5409 74.8305 94.9676 71.0625 92.5569 69.5398C91.6929 68.9905 90.5996 68.6492 90.1276 67.7425C89.5942 66.7425 90.0769 65.5452 90.3569 64.4518C90.3569 64.4172 90.3756 64.3798 90.3862 64.3452C91.1862 61.0492 87.4182 58.6038 84.6742 60.5985C81.2476 63.0892 77.3542 64.8652 73.2262 65.8225C71.0929 66.3132 68.4716 66.4092 67.1542 64.6652C66.3756 63.6305 66.1889 62.0678 64.2209 62.2145C63.6476 62.2625 63.0956 62.4625 62.6209 62.7905C59.0902 65.1665 55.0502 66.6758 50.8289 67.2012" fill="#FFD39F"/>
<path d="M109.258 80.1568C108.258 80.1568 107.288 79.8021 106.578 79.0928C105.954 78.4661 105.957 77.4528 106.581 76.8288C107.208 76.2048 108.221 76.2075 108.845 76.8315C109.045 77.0315 109.672 76.9808 110.04 76.6555C110.533 76.2208 110.861 75.4048 110.968 74.3568C111.082 73.1568 110.946 71.9648 110.557 70.8155C110.17 69.6661 109.557 68.6341 108.733 67.7435L108.597 67.5995C107.965 66.9328 107.098 66.0208 107.064 64.6795C107.037 63.6528 107.52 62.8501 107.872 62.2635L107.973 62.0955C110.096 58.4395 108.445 53.5995 105.808 50.9088C103.186 48.2315 99.1622 46.4608 93.8475 45.6421C92.9728 45.5088 92.3755 44.6901 92.5088 43.8181C92.6422 42.9461 93.4608 42.3461 94.3328 42.4795C100.349 43.4048 104.978 45.4875 108.096 48.6688C109.986 50.5995 111.328 53.1168 111.872 55.7568C112.461 58.6128 112.058 61.4368 110.736 63.7141L110.616 63.9141C110.493 64.1168 110.29 64.4528 110.266 64.5915C110.322 64.7702 110.696 65.1622 110.92 65.3995L111.077 65.5648C112.216 66.7968 113.058 68.2155 113.592 69.7941C114.125 71.3728 114.312 73.0128 114.154 74.6715C113.962 76.5595 113.274 78.0715 112.16 79.0555C111.325 79.7888 110.277 80.1568 109.258 80.1568Z" fill="black"/>
<path d="M93.6693 78.5994C93.3039 78.5994 92.9359 78.4741 92.6346 78.2181C91.9599 77.6447 91.8799 76.6367 92.4506 75.9621C93.0239 75.2874 93.2719 74.2767 93.1173 73.2581C92.9626 72.2421 92.4239 71.3541 91.6799 70.8847C91.4959 70.7674 91.2799 70.6527 91.0506 70.5301C90.2533 70.1061 89.2586 69.5754 88.6853 68.4741C87.9386 67.0741 88.3519 65.5994 88.6559 64.5194C88.6933 64.3861 88.7306 64.2527 88.7653 64.1221C88.7813 64.0367 88.8026 63.9594 88.8239 63.8954C89.0853 62.6794 88.2506 62.0101 87.9839 61.8314C87.3999 61.4394 86.4666 61.2501 85.5946 61.8821C81.9733 64.5141 77.9279 66.3594 73.5679 67.3701C70.0079 68.1887 67.3413 67.5834 65.8586 65.6181C65.5946 65.2687 65.3999 64.9114 65.2293 64.5967C64.7759 63.7647 64.7599 63.7647 64.3199 63.7994C64.0399 63.8234 63.7573 63.9247 63.5146 64.0927C59.7839 66.6074 55.4746 68.2261 51.0346 68.7834C49.7813 68.9407 48.3039 69.0394 46.8399 68.6047C45.1093 68.0901 43.6399 66.8474 42.7013 65.1087C41.5813 63.0287 41.3173 60.4501 41.9946 58.2074C42.9599 55.0154 45.4613 52.2154 49.4346 49.8847C49.6799 49.7407 49.9253 49.6021 50.1733 49.4607C51.6746 48.6047 53.0906 47.7967 53.8319 46.5754C54.0799 46.1674 54.2719 45.6661 54.4773 45.1354C54.7253 44.4927 54.9813 43.8287 55.3813 43.1727C56.1866 41.8474 57.3679 40.9141 58.5199 40.1034C64.3306 36.0821 71.4053 33.9994 78.4559 34.2234C82.8959 34.3781 88.4586 36.2767 89.5333 41.1221C89.7253 41.9861 89.1813 42.8394 88.3173 43.0314C87.4559 43.2207 86.5999 42.6794 86.4079 41.8154C85.7733 38.9514 81.9039 37.5461 78.3493 37.4234C71.9839 37.2154 65.5893 39.1034 60.3493 42.7301C59.4879 43.3354 58.6133 44.0154 58.1119 44.8394C57.8613 45.2501 57.6666 45.7541 57.4613 46.2874C57.2159 46.9247 56.9626 47.5834 56.5679 48.2341C55.3973 50.1647 53.4639 51.2687 51.7573 52.2394C51.5199 52.3754 51.2853 52.5087 51.0506 52.6447C47.7973 54.5541 45.7813 56.7381 45.0559 59.1327C44.6266 60.5567 44.8026 62.2634 45.5173 63.5887C45.8933 64.2847 46.5839 65.1887 47.7493 65.5354C48.6479 65.8021 49.7119 65.7221 50.6346 65.6074C54.5786 65.1114 58.4079 63.6741 61.7066 61.4501C62.3919 60.9754 63.2133 60.6794 64.0666 60.6074C66.5973 60.4154 67.5359 62.1407 68.0399 63.0661C68.1706 63.3061 68.2933 63.5327 68.4133 63.6901C69.3306 64.9061 71.8213 64.4874 72.8479 64.2501C76.7866 63.3381 80.4426 61.6687 83.7146 59.2901C85.5306 57.9701 87.9066 57.9221 89.7679 59.1674C91.5973 60.3914 92.4426 62.5674 91.9226 64.7061C91.9146 64.7381 91.9066 64.7674 91.8959 64.7994C91.8959 64.8021 91.8959 64.8047 91.8933 64.8047C91.8906 64.8127 91.8879 64.8234 91.8879 64.8314C91.8426 65.0101 91.7919 65.1914 91.7413 65.3754C91.5759 65.9621 91.3733 66.6927 91.5226 66.9727C91.6453 67.2101 92.1119 67.4581 92.5626 67.6981C92.8346 67.8421 93.1146 67.9914 93.3999 68.1727C94.9359 69.1434 95.9893 70.8181 96.2879 72.7647C96.5866 74.7167 96.0799 76.6341 94.8986 78.0234C94.5733 78.4074 94.1226 78.5994 93.6693 78.5994ZM91.9333 64.4474C91.9333 64.4501 91.9333 64.4501 91.9333 64.4474C91.9333 64.4501 91.9333 64.4501 91.9333 64.4474ZM91.9333 64.4447V64.4474V64.4447Z" fill="black"/>
<path d="M58.2475 74.6974C59.2785 74.6974 60.1142 73.6826 60.1142 72.4307C60.1142 71.1789 59.2785 70.1641 58.2475 70.1641C57.2166 70.1641 56.3809 71.1789 56.3809 72.4307C56.3809 73.6826 57.2166 74.6974 58.2475 74.6974Z" fill="black"/>
<path d="M67.3159 75.3224C68.3468 75.3224 69.1826 74.3076 69.1826 73.0557C69.1826 71.8039 68.3468 70.7891 67.3159 70.7891C66.285 70.7891 65.4492 71.8039 65.4492 73.0557C65.4492 74.3076 66.285 75.3224 67.3159 75.3224Z" fill="black"/>
<path d="M90.5564 104.639C89.7351 104.639 89.0337 104.01 88.9644 103.172C88.6257 99.1564 89.4071 97.3191 91.0657 93.8631C91.6737 92.6018 92.8231 92.3244 93.5111 92.1591C93.6604 92.1218 93.8017 92.0898 93.9244 92.0498C94.5591 91.8498 95.1857 91.6204 95.7911 91.3644C97.0151 90.8577 98.1644 90.2044 99.2204 89.4204C101.348 87.8124 102.831 85.6498 103.38 83.3351C103.663 82.1698 104.047 79.3378 101.548 78.0764C100.458 77.5244 99.3884 77.3084 96.4577 79.8844C95.7937 80.4684 94.7831 80.4018 94.1991 79.7378C93.6151 79.0738 93.6817 78.0631 94.3457 77.4791C98.5537 73.7804 100.986 74.2071 102.988 75.2178C106.092 76.7858 107.434 80.1804 106.49 84.0791C105.77 87.1084 103.868 89.9164 101.138 91.9778C99.863 92.9244 98.4817 93.7084 97.0257 94.3111C96.3351 94.6018 95.6124 94.8684 94.8844 95.0951C94.6631 95.1644 94.4497 95.2178 94.263 95.2631C94.1457 95.2924 93.9937 95.3271 93.895 95.3591C92.3617 98.5591 91.887 99.7617 92.1537 102.898C92.2284 103.778 91.575 104.551 90.695 104.626C90.647 104.636 90.6017 104.639 90.5564 104.639Z" fill="black"/>
<path d="M71.7705 106.998C70.9198 106.998 70.2132 106.329 70.1732 105.47C70.0878 103.593 70.0692 102.649 70.1225 101.361C66.9172 101.979 63.6532 101.411 61.1358 100.971C57.0692 100.254 53.9092 98.8061 51.4745 96.5421C46.9998 92.3741 44.9118 85.6168 45.7438 77.9981C46.0558 75.1741 47.2185 70.9714 48.8585 66.7554C49.1785 65.9314 50.1065 65.5234 50.9305 65.8434C51.7545 66.1634 52.1625 67.0914 51.8425 67.9154C50.0238 72.5928 49.1438 76.3714 48.9252 78.3474C48.2025 84.9474 49.9252 90.7261 53.6558 94.1981C55.6505 96.0541 58.2025 97.2034 61.6878 97.8168C65.2505 98.4381 68.4318 98.8568 71.2425 97.7074C71.7518 97.4994 72.3332 97.5688 72.7812 97.8888C73.2292 98.2114 73.4798 98.7394 73.4452 99.2888C73.2745 101.971 73.2452 102.563 73.3732 105.315C73.4132 106.198 72.7305 106.947 71.8478 106.987C71.8185 106.998 71.7945 106.998 71.7705 106.998Z" fill="black"/>
<path d="M90.499 100C90.739 102.693 91.8403 108.779 95.939 107.867L96.379 108.533C96.179 112.712 94.0617 115.659 90.7443 118.712C87.3737 121.765 83.075 123.6 78.539 123.923C74.539 124.216 70.2857 123.259 67.2937 120.576C64.3017 117.893 62.7283 114.176 64.7097 110.989H64.9977C65.899 111.016 66.7283 110.544 67.491 110.064C68.4617 109.451 70.4643 106.936 71.0643 106.213C71.8643 105.176 72.1897 101.243 72.6003 100H90.499V100Z" fill="#FFD39F"/>
<path d="M39.3083 230.576C38.0017 230.533 36.735 230.125 35.647 229.4C34.559 228.674 33.6977 227.661 33.1563 226.472C33.423 222.205 34.223 217.138 30.7563 213.672C30.223 211.538 31.823 209.938 33.6897 209.242L41.1777 210.213L39.3083 230.576Z" fill="#FFD39F"/>
<path fill-rule="evenodd" clip-rule="evenodd" d="M38.4744 203.278C39.6897 203.402 40.8983 203.525 42.1524 203.763L42.2804 203.779L40.4537 219.529L40.4522 219.541C40.0527 222.98 39.6535 226.415 39.5017 229.878C39.4644 230.75 39.4617 231.691 39.963 232.406C40.5683 233.278 41.7044 233.542 42.739 233.739L54.2057 235.934L57.5577 236.326C75.3257 239.323 93.1257 238.545 110.862 235.363L123.254 232.897C124.385 232.546 125.623 232.391 126.871 232.235C129.491 231.908 132.154 231.576 133.96 229.409C134.179 228.905 134.27 228.355 134.227 227.809C133.456 224.106 131.078 217.458 128.892 211.348C127.3 206.897 125.81 202.731 125.118 200.198L124.851 199.763C124.55 179.587 123.731 159.353 119.174 139.734L118.326 137.171C116.086 129.945 113.152 123.011 109.024 116.747L108.491 111.627C108.502 110.793 108.291 109.966 107.88 109.238C107.47 108.51 106.875 107.902 106.155 107.475C105.435 107.049 104.616 106.822 103.779 106.814C102.942 106.806 102.118 107.019 101.39 107.433C102.36 106.153 101.878 104.147 100.611 103.166C99.3444 102.185 97.555 102.102 96.027 102.582C94.499 103.062 93.1817 104.035 91.9284 105.033C91.0207 105.757 90.1225 106.51 89.2223 107.264C85.4412 110.431 81.6244 113.628 76.9204 114.921L73.7684 113.934C72.011 113.539 70.8324 111.889 70.1444 110.227C69.9059 109.652 69.7072 109.058 69.5087 108.465C69.1344 107.346 68.7608 106.23 68.123 105.241C67.147 103.726 65.3017 102.545 63.5897 103.094C61.491 103.766 60.9177 106.395 60.5283 108.566C60.4937 108.897 60.379 109.217 60.1924 109.491C59.8939 109.862 59.3902 109.969 58.9187 110.07C58.8889 110.076 58.8592 110.082 58.8297 110.089C57.763 110.318 56.6777 110.729 55.8964 111.505C55.115 112.281 54.683 113.478 55.0403 114.521L53.691 116.75C52.9443 117.59 51.0243 120.337 51.0243 120.337C46.0925 128.643 44.1926 137.202 42.1275 146.505C42.071 146.76 42.0144 147.014 41.9577 147.27C38.2596 164.774 36.6129 181.367 34.9102 198.523C34.7713 199.924 34.6319 201.328 34.491 202.737C35.8688 203.012 37.1754 203.145 38.4744 203.278ZM41.1829 210.211C38.8122 210.195 36.4549 209.835 34.1855 209.144C34.3455 207.157 34.5189 205.117 35.3749 203.317L41.9695 204.053L41.1829 210.211Z" fill="black"/>
<path d="M105.258 216.266C102.687 217.095 99.6816 220.183 101.855 223.031C103.05 224.602 104.855 225.447 106.511 226.434C107.786 227.191 108.124 229.751 108.618 231.106C109.866 234.522 112.29 237.332 116.266 237.066C120.308 236.799 122.823 233.356 123.591 229.644C124.423 225.618 123.004 220.332 122.335 216.351L105.258 216.266Z" fill="#FFD39F"/>
<path fill-rule="evenodd" clip-rule="evenodd" d="M82.4202 124.518C82.4762 125.366 83.1802 126.014 84.0149 126.014C84.0522 126.014 84.0869 126.014 84.1189 126.006C91.2522 125.539 98.2362 123.304 104.319 119.55C105.575 118.776 106.628 117.966 107.476 117.124C107.518 117.295 107.59 117.462 107.692 117.617C111.383 123.217 114.362 129.767 116.802 137.636C117.015 138.324 117.647 138.764 118.33 138.764C118.487 138.764 118.647 138.74 118.802 138.692C119.647 138.431 120.119 137.535 119.858 136.689C117.327 128.527 114.223 121.713 110.364 115.857C110.063 115.399 109.568 115.147 109.058 115.138C109.725 114.024 110.069 112.861 110.084 111.656C110.098 110.539 109.815 109.435 109.268 108.462C108.722 107.488 107.924 106.672 106.962 106.104C106.002 105.536 104.903 105.232 103.786 105.222C103.679 105.222 103.575 105.222 103.468 105.227C103.314 103.974 102.666 102.747 101.583 101.91C100.007 100.688 97.7455 100.371 95.5402 101.064C93.7242 101.635 92.2069 102.768 90.9242 103.79C89.5174 104.912 88.3396 106.013 87.2006 107.079L87.2006 107.079L87.1589 107.118L87.1561 107.12C84.4587 109.644 82.3282 111.638 78.5829 112.667C77.7295 112.902 77.2282 113.782 77.4629 114.635C77.6975 115.488 78.5802 115.99 79.4309 115.755C83.9402 114.518 86.5669 112.059 89.3455 109.456L89.3889 109.416C90.4821 108.394 91.6135 107.336 92.9189 106.294C94.0229 105.416 95.2069 104.523 96.5002 104.118C97.6895 103.744 98.8869 103.867 99.6255 104.44C100.258 104.931 100.5 105.958 100.108 106.475C99.6495 107.08 99.6789 107.926 100.18 108.496C100.682 109.067 101.514 109.208 102.175 108.835C102.65 108.566 103.188 108.424 103.732 108.424H103.759C104.314 108.427 104.86 108.579 105.338 108.862C105.815 109.144 106.21 109.547 106.482 110.032C106.754 110.518 106.895 111.064 106.887 111.619C106.866 113.355 105.436 115.107 102.642 116.83C97.0015 120.312 90.5242 122.382 83.9109 122.816C83.0309 122.875 82.3615 123.635 82.4202 124.518ZM52.1429 237.152C52.0442 237.152 51.9429 237.142 51.8415 237.123L42.4442 235.323C41.3935 235.112 39.6629 234.763 38.6602 233.339C38.3712 232.927 38.1865 232.492 38.071 232.052C36.8919 231.848 35.765 231.399 34.7615 230.728C33.4255 229.838 32.3668 228.595 31.7028 227.134C31.5935 226.894 31.5455 226.632 31.5615 226.371C31.5867 225.952 31.6191 225.523 31.6519 225.09L31.6519 225.09L31.652 225.089L31.652 225.089L31.6575 225.016C31.9348 221.27 32.2202 217.395 29.6282 214.8C29.4228 214.595 29.2788 214.339 29.2068 214.056C28.577 211.537 29.9651 209.123 32.6816 207.923C32.8026 206.624 32.9855 205.252 33.4184 203.918C33.0562 203.588 32.853 203.097 32.9054 202.577C33.0213 201.423 33.1353 200.271 33.249 199.123L33.3241 198.364L33.3315 198.29C35.0567 180.917 36.6867 164.504 40.3988 146.937L40.5721 146.156C42.6388 136.841 44.5935 128.044 49.6548 119.516C49.6761 119.481 49.6974 119.449 49.7188 119.417L49.748 119.376C50.0541 118.94 51.7455 116.534 52.5028 115.684C52.7872 115.363 53.1718 115.184 53.5677 115.152C53.5539 115.115 53.5404 115.078 53.5275 115.041C52.9915 113.481 53.4795 111.649 54.7701 110.369C55.6741 109.473 56.8901 108.87 58.4955 108.524L58.5888 108.502C58.6928 108.481 58.8315 108.452 58.9355 108.422C58.9355 108.418 58.9361 108.415 58.9368 108.412C58.9372 108.41 58.9376 108.408 58.9378 108.405C58.938 108.404 58.9381 108.402 58.9381 108.401C58.9435 108.358 58.9488 108.318 58.9568 108.278L58.9581 108.271C59.3476 106.134 59.9976 102.568 63.1035 101.569C64.9541 100.977 67.7355 101.609 69.4821 104.388C69.6704 104.687 69.8378 104.991 69.9893 105.298C70.3051 104.612 71.0766 104.225 71.8355 104.419C72.6915 104.635 73.2115 105.507 72.9928 106.363C72.7517 107.32 72.3658 107.96 71.3667 108.939C71.45 109.168 71.5356 109.392 71.6261 109.612C72.0021 110.516 72.8261 112.078 74.1221 112.372C74.9835 112.566 75.5248 113.422 75.3328 114.284C75.1381 115.145 74.2821 115.686 73.4208 115.494C71.4155 115.044 69.7275 113.39 68.6688 110.841C68.4075 110.212 68.1915 109.58 67.9861 108.966L67.9761 108.937C67.6225 107.897 67.2879 106.913 66.7701 106.092C66.1701 105.137 64.9995 104.324 64.0795 104.617C62.9115 104.993 62.4501 106.964 62.1141 108.798C62.0448 109.366 61.8395 109.913 61.5195 110.388C61.4955 110.422 61.4688 110.457 61.4422 110.491L61.4422 110.491L61.4421 110.492C60.7882 111.305 59.872 111.501 59.2614 111.632L59.2555 111.633L59.1701 111.652C58.1968 111.862 57.4768 112.193 57.0261 112.638C56.6288 113.033 56.4261 113.62 56.5568 114.001C56.6795 114.358 57.0848 114.742 57.4635 115.068C60.8981 118.076 65.0768 120.089 69.5568 120.894C70.4261 121.052 71.0048 121.884 70.8475 122.753C70.7035 123.526 70.0288 124.07 69.2715 124.07C69.1781 124.07 69.0821 124.062 68.9861 124.044C63.9355 123.134 59.2235 120.865 55.3621 117.484C55.3047 117.434 55.2467 117.383 55.1885 117.331C55.121 117.503 55.0224 117.666 54.8921 117.812C54.3428 118.428 52.9215 120.423 52.3748 121.201C47.5961 129.273 45.7001 137.809 43.6948 146.849L43.5241 147.615C39.8477 165.013 38.2263 181.358 36.5095 198.665L36.5081 198.679C36.4174 199.585 36.3268 200.495 36.2361 201.407C37.0334 201.519 37.8228 201.601 38.6414 201.684L38.6848 201.688C39.4044 201.762 40.1379 201.837 40.8884 201.938L42.1002 191.488L42.1093 191.411C44.3038 172.627 46.573 153.204 50.9882 134.464C51.1909 133.606 52.0522 133.07 52.9135 133.275C53.7722 133.478 54.3055 134.339 54.1029 135.2C49.729 153.767 47.4705 173.102 45.2861 191.802L45.2789 191.864L45.2015 192.531L42.0469 219.731L42.0452 219.745C41.6564 223.098 41.2546 226.563 41.1029 229.966C41.0842 230.39 41.0495 231.184 41.2762 231.504C41.5429 231.883 42.4922 232.075 43.0575 232.187L52.4389 233.982C53.3055 234.147 53.8762 234.987 53.7082 235.854C53.5669 236.619 52.8975 237.152 52.1429 237.152ZM32.2602 212.926C32.2119 211.706 33.5822 211.016 34.1138 210.794C35.9534 211.322 37.8413 211.648 39.7488 211.765L38.8682 219.358L38.8571 219.454C38.5062 222.486 38.1447 225.61 37.9633 228.741C37.4611 228.588 36.9818 228.361 36.5402 228.067C35.8068 227.576 35.2042 226.918 34.7855 226.144C34.7973 225.956 34.8113 225.768 34.8255 225.579C34.8336 225.47 34.8417 225.361 34.8495 225.251L34.8498 225.247C35.1377 221.344 35.4936 216.519 32.2602 212.926ZM40.5195 205.118L40.118 208.581C38.6933 208.505 37.2784 208.295 35.8926 207.956C36.0059 206.819 36.1761 205.694 36.5416 204.675C37.1446 204.749 37.735 204.809 38.3161 204.868L38.4389 204.881L38.4397 204.881L38.44 204.881C39.1474 204.954 39.8333 205.025 40.5195 205.118ZM57.2895 237.9C64.8415 239.175 72.5535 239.812 80.5242 239.812C90.1816 239.812 100.217 238.873 110.783 236.998C112.217 238.101 113.904 238.683 115.762 238.683C115.962 238.683 116.167 238.678 116.372 238.662C119.2 238.476 121.658 236.939 123.306 234.489C123.445 234.484 123.585 234.461 123.726 234.421C124.721 234.112 125.862 233.968 127.068 233.818C129.838 233.474 132.977 233.082 135.188 230.429C135.286 230.312 135.366 230.181 135.428 230.04C135.745 229.301 135.881 228.485 135.82 227.682C135.814 227.613 135.804 227.546 135.79 227.48C134.996 223.667 132.658 217.13 130.396 210.808L130.396 210.805C128.82 206.405 127.334 202.248 126.657 199.773C126.611 199.606 126.541 199.452 126.45 199.314C126.187 180.034 125.48 161.478 120.943 141.919C120.743 141.058 119.884 140.522 119.023 140.722C118.161 140.922 117.625 141.78 117.825 142.642C122.889 164.474 123.108 185.187 123.34 207.115V207.115L123.34 207.122L123.345 207.527L103.156 207.196C100.156 183.756 99.1214 159.914 100.079 136.306C100.116 135.423 99.4281 134.676 98.5454 134.642C97.6628 134.61 96.9161 135.292 96.8814 136.175C95.8974 160.423 97.0014 184.919 100.161 208.98C100.243 209.599 100.671 210.097 101.236 210.288C101.011 211.926 100.952 213.584 101.062 215.237C101.062 215.536 101.113 215.829 101.217 216.109C101.337 216.429 101.516 216.717 101.75 216.962C101.773 216.986 101.796 217.009 101.82 217.032C100.854 217.762 100.053 218.697 99.7004 219.822C99.3964 220.795 99.303 222.31 100.583 223.99C101.767 225.547 103.402 226.483 104.844 227.307C105.13 227.47 105.412 227.633 105.695 227.801C106.09 228.034 106.521 229.606 106.71 230.293L106.714 230.307C106.844 230.787 106.97 231.241 107.116 231.646C107.455 232.575 107.857 233.421 108.315 234.177C90.1485 237.224 73.6081 237.408 57.8202 234.745C56.9482 234.596 56.1242 235.185 55.9775 236.057C55.8309 236.927 56.4175 237.753 57.2895 237.9ZM106.767 217.569C106.608 218.027 106.243 218.407 105.746 218.566C104.263 219.046 103.004 219.977 102.754 220.779C102.706 220.931 102.58 221.334 103.127 222.051C103.919 223.091 105.139 223.789 106.429 224.528L106.431 224.529L106.649 224.654C106.878 224.785 107.105 224.915 107.33 225.049C108.834 225.941 109.368 227.888 109.797 229.452L109.799 229.459C109.911 229.873 110.02 230.265 110.122 230.547C110.986 232.918 112.73 235.689 116.159 235.467C118.412 235.318 121.132 233.625 122.026 229.318C122.71 226.007 122.091 222.443 121.492 218.994L121.49 218.982L121.459 218.803C121.397 218.447 121.336 218.093 121.276 217.739C121.264 217.669 121.257 217.598 121.255 217.528L106.767 217.569ZM124.031 216.39C124.234 216.611 124.378 216.891 124.431 217.209C124.5 217.617 124.57 218.025 124.642 218.435L124.644 218.449C125.294 222.191 125.966 226.061 125.159 229.969C125.095 230.278 125.022 230.581 124.94 230.878C125.518 230.785 126.097 230.713 126.668 230.642C129.068 230.344 131.156 230.082 132.558 228.57C132.612 228.392 132.636 228.202 132.63 228.016C131.855 224.4 129.486 217.773 127.389 211.91L127.389 211.91L127.38 211.882L127.31 211.687L127.31 211.687L127.309 211.684L127.298 211.656L127.292 211.637C127.033 210.912 126.776 210.195 126.526 209.491C126.461 209.79 126.311 210.068 126.089 210.287C125.793 210.586 125.385 210.754 124.964 210.754H124.937L124.4 210.745L124.532 214.122C124.545 214.538 124.576 215.56 124.031 216.39ZM121.195 210.692L104.45 210.417C104.25 211.729 104.174 213.057 104.222 214.384L121.337 214.336V214.335L121.337 214.312L121.337 214.297C121.337 214.279 121.336 214.26 121.334 214.24L121.195 210.692Z" fill="black"/>
</svg>
