<svg width="160" height="260" viewBox="0 0 160 260" fill="none" xmlns="http://www.w3.org/2000/svg">
<path d="M93.6704 76.9966C95.5184 74.8206 94.9451 71.0526 92.5344 69.53C91.6704 68.9806 90.5771 68.6393 90.1051 67.7326C89.5717 66.7326 90.0544 65.5353 90.3344 64.442C90.3344 64.4073 90.3531 64.37 90.3637 64.3353C91.1637 61.0393 87.3957 58.594 84.6517 60.5886C81.2251 63.0793 77.3317 64.8553 73.2037 65.8126C71.0704 66.3033 68.4491 66.3993 67.1317 64.6553C66.3531 63.6206 66.1664 62.058 64.1984 62.2046C63.6251 62.2526 63.0731 62.4526 62.5984 62.7806C59.0757 65.1566 55.0464 66.6686 50.8304 67.1993C49.6517 67.346 48.4304 67.4126 47.2917 67.074C44.0224 66.1006 42.5371 61.938 43.5237 58.674C44.5104 55.41 47.2971 52.9966 50.2411 51.2686C52.0651 50.202 54.0971 49.2206 55.1957 47.41C55.8411 46.3433 56.0944 45.074 56.7424 44.01C57.3904 42.946 58.4037 42.1433 59.4357 41.418C64.9957 37.57 71.6437 35.6126 78.4011 35.8286C82.4011 35.9673 87.1024 37.5753 87.9664 41.474L94.0997 44.058C98.8197 44.7833 103.62 46.3726 106.961 49.786C110.302 53.1993 111.761 58.7753 109.361 62.906C109.046 63.4393 108.657 64.0046 108.673 64.634C108.694 65.434 109.364 66.0633 109.918 66.6553C110.889 67.706 111.628 68.9486 112.084 70.3033C112.54 71.658 112.705 73.0926 112.569 74.5166C112.444 75.754 112.036 77.034 111.108 77.8526C110.18 78.6713 108.598 78.8393 107.721 77.9593L94.4144 79.9993L93.6704 76.9966Z" fill="black"/>
<path d="M50.3489 67.3398C48.6289 71.7638 47.5942 75.7585 47.3329 78.1772C46.6742 84.2678 47.9036 91.0358 52.5622 95.3745C55.0449 97.6838 58.1196 98.8198 61.4076 99.3985C64.8369 100.004 68.5169 100.556 71.8449 99.1958C71.6689 101.972 71.6422 103.953 71.7702 106.732L90.5702 104.646C90.2662 100.996 90.9436 97.8652 92.5329 94.5638C92.8929 93.8172 93.6662 93.8252 94.4316 93.5825C95.1116 93.3692 95.7782 93.1238 96.4369 92.8465C97.7729 92.2918 99.0342 91.5745 100.197 90.7132C102.496 88.9772 104.288 86.5398 104.96 83.7132C105.57 81.1505 105.141 78.0998 102.293 76.6572C100.285 75.6438 98.4849 76.0038 95.4262 78.6918L93.6929 77.0065C95.5409 74.8305 94.9676 71.0625 92.5569 69.5398C91.6929 68.9905 90.5996 68.6492 90.1276 67.7425C89.5942 66.7425 90.0769 65.5452 90.3569 64.4518C90.3569 64.4172 90.3756 64.3798 90.3862 64.3452C91.1862 61.0492 87.4182 58.6038 84.6742 60.5985C81.2476 63.0892 77.3542 64.8652 73.2262 65.8225C71.0929 66.3132 68.4716 66.4092 67.1542 64.6652C66.3756 63.6305 66.1889 62.0678 64.2209 62.2145C63.6476 62.2625 63.0956 62.4625 62.6209 62.7905C59.0902 65.1665 55.0502 66.6758 50.8289 67.2012" fill="#FFD39F"/>
<path d="M109.258 80.1568C108.258 80.1568 107.288 79.8021 106.578 79.0928C105.954 78.4661 105.957 77.4528 106.581 76.8288C107.208 76.2048 108.221 76.2075 108.845 76.8315C109.045 77.0315 109.672 76.9808 110.04 76.6555C110.533 76.2208 110.861 75.4048 110.968 74.3568C111.082 73.1568 110.946 71.9648 110.557 70.8155C110.17 69.6661 109.557 68.6341 108.733 67.7435L108.597 67.5995C107.965 66.9328 107.098 66.0208 107.064 64.6795C107.037 63.6528 107.52 62.8501 107.872 62.2635L107.973 62.0955C110.096 58.4395 108.445 53.5995 105.808 50.9088C103.186 48.2315 99.1622 46.4608 93.8475 45.6421C92.9728 45.5088 92.3755 44.6901 92.5088 43.8181C92.6422 42.9461 93.4608 42.3461 94.3328 42.4795C100.349 43.4048 104.978 45.4875 108.096 48.6688C109.986 50.5995 111.328 53.1168 111.872 55.7568C112.461 58.6128 112.058 61.4368 110.736 63.7141L110.616 63.9141C110.493 64.1168 110.29 64.4528 110.266 64.5915C110.322 64.7702 110.696 65.1622 110.92 65.3995L111.077 65.5648C112.216 66.7968 113.058 68.2155 113.592 69.7941C114.125 71.3728 114.312 73.0128 114.154 74.6715C113.962 76.5595 113.274 78.0715 112.16 79.0555C111.325 79.7888 110.277 80.1568 109.258 80.1568Z" fill="black"/>
<path d="M93.6693 78.5994C93.3039 78.5994 92.9359 78.4741 92.6346 78.2181C91.9599 77.6447 91.8799 76.6367 92.4506 75.9621C93.0239 75.2874 93.2719 74.2767 93.1173 73.2581C92.9626 72.2421 92.4239 71.3541 91.6799 70.8847C91.4959 70.7674 91.2799 70.6527 91.0506 70.5301C90.2533 70.1061 89.2586 69.5754 88.6853 68.4741C87.9386 67.0741 88.3519 65.5994 88.6559 64.5194C88.6933 64.3861 88.7306 64.2527 88.7653 64.1221C88.7813 64.0367 88.8026 63.9594 88.8239 63.8954C89.0853 62.6794 88.2506 62.0101 87.9839 61.8314C87.3999 61.4394 86.4666 61.2501 85.5946 61.8821C81.9733 64.5141 77.9279 66.3594 73.5679 67.3701C70.0079 68.1887 67.3413 67.5834 65.8586 65.6181C65.5946 65.2687 65.3999 64.9114 65.2293 64.5967C64.7759 63.7647 64.7599 63.7647 64.3199 63.7994C64.0399 63.8234 63.7573 63.9247 63.5146 64.0927C59.7839 66.6074 55.4746 68.2261 51.0346 68.7834C49.7813 68.9407 48.3039 69.0394 46.8399 68.6047C45.1093 68.0901 43.6399 66.8474 42.7013 65.1087C41.5813 63.0287 41.3173 60.4501 41.9946 58.2074C42.9599 55.0154 45.4613 52.2154 49.4346 49.8847C49.6799 49.7407 49.9253 49.6021 50.1733 49.4607C51.6746 48.6047 53.0906 47.7967 53.8319 46.5754C54.0799 46.1674 54.2719 45.6661 54.4773 45.1354C54.7253 44.4927 54.9813 43.8287 55.3813 43.1727C56.1866 41.8474 57.3679 40.9141 58.5199 40.1034C64.3306 36.0821 71.4053 33.9994 78.4559 34.2234C82.8959 34.3781 88.4586 36.2767 89.5333 41.1221C89.7253 41.9861 89.1813 42.8394 88.3173 43.0314C87.4559 43.2207 86.5999 42.6794 86.4079 41.8154C85.7733 38.9514 81.9039 37.5461 78.3493 37.4234C71.9839 37.2154 65.5893 39.1034 60.3493 42.7301C59.4879 43.3354 58.6133 44.0154 58.1119 44.8394C57.8613 45.2501 57.6666 45.7541 57.4613 46.2874C57.2159 46.9247 56.9626 47.5834 56.5679 48.2341C55.3973 50.1647 53.4639 51.2687 51.7573 52.2394C51.5199 52.3754 51.2853 52.5087 51.0506 52.6447C47.7973 54.5541 45.7813 56.7381 45.0559 59.1327C44.6266 60.5567 44.8026 62.2634 45.5173 63.5887C45.8933 64.2847 46.5839 65.1887 47.7493 65.5354C48.6479 65.8021 49.7119 65.7221 50.6346 65.6074C54.5786 65.1114 58.4079 63.6741 61.7066 61.4501C62.3919 60.9754 63.2133 60.6794 64.0666 60.6074C66.5973 60.4154 67.5359 62.1407 68.0399 63.0661C68.1706 63.3061 68.2933 63.5327 68.4133 63.6901C69.3306 64.9061 71.8213 64.4874 72.8479 64.2501C76.7866 63.3381 80.4426 61.6687 83.7146 59.2901C85.5306 57.9701 87.9066 57.9221 89.7679 59.1674C91.5973 60.3914 92.4426 62.5674 91.9226 64.7061C91.9146 64.7381 91.9066 64.7674 91.8959 64.7994C91.8959 64.8021 91.8959 64.8047 91.8933 64.8047C91.8906 64.8127 91.8879 64.8234 91.8879 64.8314C91.8426 65.0101 91.7919 65.1914 91.7413 65.3754C91.5759 65.9621 91.3733 66.6927 91.5226 66.9727C91.6453 67.2101 92.1119 67.4581 92.5626 67.6981C92.8346 67.8421 93.1146 67.9914 93.3999 68.1727C94.9359 69.1434 95.9893 70.8181 96.2879 72.7647C96.5866 74.7167 96.0799 76.6341 94.8986 78.0234C94.5733 78.4074 94.1226 78.5994 93.6693 78.5994ZM91.9333 64.4474C91.9333 64.4501 91.9333 64.4501 91.9333 64.4474C91.9333 64.4501 91.9333 64.4501 91.9333 64.4474ZM91.9333 64.4447V64.4474V64.4447Z" fill="black"/>
<path d="M58.2475 74.6974C59.2785 74.6974 60.1142 73.6826 60.1142 72.4307C60.1142 71.1789 59.2785 70.1641 58.2475 70.1641C57.2166 70.1641 56.3809 71.1789 56.3809 72.4307C56.3809 73.6826 57.2166 74.6974 58.2475 74.6974Z" fill="black"/>
<path d="M67.3159 75.3224C68.3468 75.3224 69.1826 74.3076 69.1826 73.0557C69.1826 71.8039 68.3468 70.7891 67.3159 70.7891C66.285 70.7891 65.4492 71.8039 65.4492 73.0557C65.4492 74.3076 66.285 75.3224 67.3159 75.3224Z" fill="black"/>
<path d="M90.5564 104.639C89.7351 104.639 89.0337 104.01 88.9644 103.172C88.6257 99.1564 89.4071 97.3191 91.0657 93.8631C91.6737 92.6018 92.8231 92.3244 93.5111 92.1591C93.6604 92.1218 93.8017 92.0898 93.9244 92.0498C94.5591 91.8498 95.1857 91.6204 95.7911 91.3644C97.0151 90.8577 98.1644 90.2044 99.2204 89.4204C101.348 87.8124 102.831 85.6498 103.38 83.3351C103.663 82.1698 104.047 79.3378 101.548 78.0764C100.458 77.5244 99.3884 77.3084 96.4577 79.8844C95.7937 80.4684 94.7831 80.4018 94.1991 79.7378C93.6151 79.0738 93.6817 78.0631 94.3457 77.4791C98.5537 73.7804 100.986 74.2071 102.988 75.2178C106.092 76.7858 107.434 80.1804 106.49 84.0791C105.77 87.1084 103.868 89.9164 101.138 91.9778C99.863 92.9244 98.4817 93.7084 97.0257 94.3111C96.3351 94.6018 95.6124 94.8684 94.8844 95.0951C94.6631 95.1644 94.4497 95.2178 94.263 95.2631C94.1457 95.2924 93.9937 95.3271 93.895 95.3591C92.3617 98.5591 91.887 99.7617 92.1537 102.898C92.2284 103.778 91.575 104.551 90.695 104.626C90.647 104.636 90.6017 104.639 90.5564 104.639Z" fill="black"/>
<path d="M71.7705 106.998C70.9198 106.998 70.2132 106.329 70.1732 105.47C70.0878 103.593 70.0692 102.649 70.1225 101.361C66.9172 101.979 63.6532 101.411 61.1358 100.971C57.0692 100.254 53.9092 98.8061 51.4745 96.5421C46.9998 92.3741 44.9118 85.6168 45.7438 77.9981C46.0558 75.1741 47.2185 70.9714 48.8585 66.7554C49.1785 65.9314 50.1065 65.5234 50.9305 65.8434C51.7545 66.1634 52.1625 67.0914 51.8425 67.9154C50.0238 72.5928 49.1438 76.3714 48.9252 78.3474C48.2025 84.9474 49.9252 90.7261 53.6558 94.1981C55.6505 96.0541 58.2025 97.2034 61.6878 97.8168C65.2505 98.4381 68.4318 98.8568 71.2425 97.7074C71.7518 97.4994 72.3332 97.5688 72.7812 97.8888C73.2292 98.2114 73.4798 98.7394 73.4452 99.2888C73.2745 101.971 73.2452 102.563 73.3732 105.315C73.4132 106.198 72.7305 106.947 71.8478 106.987C71.8185 106.998 71.7945 106.998 71.7705 106.998Z" fill="black"/>
<path fill-rule="evenodd" clip-rule="evenodd" d="M95.9394 107.867C91.8407 108.779 90.7394 102.693 90.4994 100H72.6007C72.4528 100.448 72.3159 101.245 72.1639 102.13C71.894 103.701 71.5765 105.55 71.0647 106.213C70.9974 106.294 70.9124 106.398 70.8131 106.519C70.0282 107.476 68.3531 109.52 67.4914 110.064C66.7287 110.544 65.8994 111.016 64.9981 110.989H64.7101C62.7287 114.176 64.3021 117.893 67.2941 120.576C70.2861 123.259 74.5394 124.216 78.5394 123.923C83.0754 123.6 87.3741 121.765 90.7447 118.712C94.0621 115.659 96.1794 112.712 96.3794 108.533L95.9394 107.867ZM100.172 142.665L100.542 143.086C100.316 162.195 102.285 181.287 104.29 200.738V200.738L104.291 200.74C104.834 206.012 105.38 211.31 105.886 216.641C104.961 216.718 104.081 217.078 103.372 217.676C102.66 218.273 102.15 219.076 101.916 219.974C101.678 220.873 101.729 221.822 102.054 222.692C102.38 223.561 102.969 224.308 103.737 224.83C104.174 225.126 104.657 225.342 105.14 225.558L105.14 225.558C105.572 225.75 106.004 225.943 106.404 226.193C108.288 227.368 109.15 229.544 110.005 231.705C110.914 234.002 111.817 236.282 113.934 237.324C116.966 238.814 120.766 236.54 122.14 233.449C123.513 230.358 123.137 226.814 122.729 223.46C120.988 209.188 116.836 167.382 116.11 158.633C116.11 158.633 112.633 126.292 111.737 122.577C110.841 118.862 107.804 115.684 105.036 113.049L104.438 112.663C102.569 117.39 97.4224 137.649 100.172 142.665ZM57.4057 115.94L57.899 114.409C56.3364 114.836 55.1577 116.103 54.1657 117.377C51.0804 121.321 49.451 126.324 48.683 131.271C48.1314 134.825 47.5057 138.819 46.8301 143.131L46.8301 143.131C43.7789 162.604 39.7103 188.57 36.859 209.927C35.9977 209.823 35.123 209.972 34.3417 210.351C33.5604 210.729 32.9044 211.327 32.4537 212.068C32.003 212.809 31.771 213.665 31.7924 214.532C31.811 215.401 32.0804 216.244 32.5657 216.964C32.6906 217.147 32.8289 217.321 32.9672 217.496L32.9672 217.496C33.1478 217.724 33.3282 217.951 33.4777 218.196C34.1524 219.321 34.115 220.721 34.035 222.033L34.0217 222.251C33.8753 224.636 33.7221 227.131 34.7444 229.284C35.7977 231.503 38.6137 233.095 40.771 231.921C42.275 231.1 42.9204 229.313 43.4377 227.681C44.1657 225.527 44.7844 223.335 45.2884 221.116C45.8617 218.383 48.2217 206.255 48.451 203.468L46.3124 202.42C46.3124 202.42 53.995 145.025 57.4057 115.94Z" fill="#FFD39F"/>
<path d="M100.17 142.667C97.4211 137.651 102.568 117.393 104.434 112.665C104.624 112.302 104.365 112.547 104.322 112.142C104.192 111.521 98.8451 108.145 96.4505 107.867C95.9971 112.401 94.0985 115.63 90.7411 118.713C87.3705 121.766 83.0718 123.601 78.5358 123.923C74.5358 124.217 70.2825 123.259 67.2905 120.577C64.2985 117.894 62.8905 113.297 64.8718 110.118L59.4665 112.598C58.8238 112.891 58.1331 113.217 57.7678 113.817C57.4025 114.417 57.5011 115.219 57.4211 115.95C53.9998 145.035 45.3358 200.785 46.1091 200.87C63.9971 202.987 87.1118 204.894 104.448 199.998H104.49C103.066 180.798 100.333 161.961 100.562 143.094" fill="black"/>
<path fill-rule="evenodd" clip-rule="evenodd" d="M95.4951 106.584C95.8207 106.342 96.2286 106.233 96.6317 106.279C98.349 106.479 100.752 107.751 102.032 108.492C105.061 110.247 105.65 111.074 105.821 111.57C105.85 111.614 105.877 111.66 105.903 111.707C105.986 111.761 106.066 111.823 106.14 111.895C109.287 114.887 112.332 118.209 113.295 122.207C114.202 125.98 117.559 157.14 117.7 158.465C117.7 158.479 117.703 158.492 117.703 158.505C118.455 167.575 122.594 209.151 124.316 223.271L124.317 223.273C124.709 226.499 125.196 230.511 123.602 234.103C122.631 236.289 120.65 238.145 118.431 238.951C117.61 239.239 116.783 239.388 115.978 239.388C115.012 239.388 114.076 239.177 113.226 238.759C110.556 237.445 109.473 234.712 108.516 232.297L108.514 232.292L108.509 232.281C107.727 230.306 106.988 228.442 105.554 227.548C105.253 227.36 104.891 227.197 104.507 227.025L104.484 227.015L104.451 227C103.947 226.774 103.377 226.519 102.836 226.151C101.788 225.439 100.999 224.436 100.554 223.249C100.108 222.063 100.044 220.788 100.367 219.564C100.69 218.34 101.372 217.263 102.343 216.447C102.89 215.988 103.503 215.633 104.162 215.393C103.731 210.93 103.271 206.449 102.821 202.079C95.1374 203.977 86.4654 204.668 77.661 204.668C68.2015 204.668 58.5855 203.87 49.8586 202.908C49.2343 207.662 47.3873 218.9 46.8558 221.44C46.8544 221.444 46.8538 221.449 46.8531 221.453C46.8524 221.458 46.8518 221.463 46.8504 221.466C46.3358 223.725 45.7011 225.981 44.9598 228.173C44.4878 229.664 43.6958 232.141 41.5384 233.32C40.8158 233.72 40.0104 233.917 39.1784 233.917C38.6051 233.917 38.0184 233.824 37.4371 233.635C35.6851 233.064 34.0984 231.661 33.2984 229.973C32.0995 227.45 32.2714 224.642 32.4233 222.161L32.4238 222.154L32.4371 221.938C32.5064 220.808 32.5331 219.736 32.1038 219.021C32.0203 218.884 31.8893 218.717 31.7483 218.537L31.7482 218.537L31.7118 218.491C31.5651 218.307 31.3998 218.099 31.2424 217.869C30.5784 216.885 30.2158 215.749 30.1891 214.571C30.1624 213.395 30.4718 212.24 31.0851 211.235C31.6984 210.229 32.5811 209.427 33.6398 208.912C34.2158 208.632 34.8291 208.445 35.4558 208.354C38.273 187.677 41.9827 163.923 44.9765 144.752L44.9811 144.722L45.4181 141.922L45.4185 141.92C46.0309 137.995 46.602 134.336 47.1118 131.029C48.0318 125.066 49.9838 120.141 52.9144 116.394C53.7756 115.288 54.8175 114.115 56.1949 113.384C56.2521 113.25 56.3197 113.117 56.3997 112.986C57.026 111.956 58.0856 111.47 58.7897 111.148L58.7997 111.143L64.205 108.666C64.8146 108.387 65.5299 108.517 65.9978 108.984C67.0678 108.525 67.8451 107.824 68.4184 107.307L68.4284 107.298L68.5244 107.21C69.5537 106.282 69.663 106.034 69.8817 105.536C69.8986 105.496 69.9162 105.457 69.9342 105.417C69.9503 105.381 69.9667 105.344 69.983 105.306C70.3484 104.501 71.295 104.144 72.1004 104.509C72.9057 104.874 73.263 105.821 72.8977 106.626L72.8097 106.824C72.4337 107.68 72.103 108.296 70.6657 109.589L70.5724 109.672L70.5689 109.675C69.6834 110.475 68.1083 111.899 65.6603 112.443C65.224 114.674 66.2519 117.498 68.357 119.388C70.7677 121.551 74.4343 122.623 78.4183 122.33C82.581 122.034 86.5757 120.33 89.6663 117.53C92.3456 115.07 93.8726 112.639 94.5428 109.67C92.3287 109.213 91.502 107.741 90.8239 106.53L90.7941 106.477L90.794 106.477C90.6034 106.139 90.4065 105.789 90.1759 105.447C89.6826 104.714 89.8772 103.719 90.6079 103.226C91.3412 102.733 92.3359 102.927 92.8292 103.658C93.1466 104.127 93.3946 104.57 93.6132 104.962L93.6162 104.967C94.2625 106.118 94.4663 106.481 95.4951 106.584ZM48.5838 199.541C48.6401 199.546 48.6954 199.553 48.7498 199.563C65.777 201.496 86.5162 202.928 102.49 198.863C100.544 179.961 98.7646 162.016 98.9365 143.692C98.8716 143.614 98.8131 143.529 98.7623 143.436C97.3783 140.914 97.4557 135.471 98.9944 127.263C100.064 121.556 101.645 115.66 102.693 112.735C101.797 112.02 99.509 110.634 97.7597 109.908C97.0023 113.719 95.1223 116.858 91.821 119.887C88.1943 123.172 83.5197 125.17 78.6477 125.516C73.805 125.868 69.277 124.503 66.221 121.764C63.8637 119.65 62.213 116.26 62.3677 113.023L60.1303 114.05L60.1175 114.055C59.9413 114.137 59.7072 114.244 59.5087 114.356C59.5249 114.801 59.3536 115.227 59.0502 115.536C59.0424 115.72 59.0309 115.919 59.0077 116.122C59.0023 116.172 58.9943 116.223 58.9837 116.271C53.7757 141.524 48.0983 191.002 47.6637 199.439C47.9484 199.472 48.2342 199.505 48.5211 199.537C48.542 199.538 48.5628 199.54 48.5838 199.541ZM47.7837 168.226C48.9869 158.57 52.0268 135.249 55.2595 118.599C52.7671 121.887 51.0922 126.23 50.2744 131.52C49.7455 134.953 49.1507 138.765 48.5121 142.857L48.5119 142.859L48.1438 145.218C45.0851 164.802 41.2798 189.176 38.4451 210.141C38.3278 211.008 37.5358 211.616 36.6718 211.514C36.1118 211.448 35.5491 211.544 35.0424 211.789C34.5358 212.035 34.1118 212.419 33.8211 212.901C33.5278 213.381 33.3811 213.933 33.3918 214.496C33.4051 215.058 33.5784 215.603 33.8931 216.069C33.9811 216.197 34.0984 216.347 34.2211 216.501L34.2535 216.542L34.2536 216.542C34.4428 216.783 34.6533 217.05 34.8424 217.36C35.7464 218.869 35.7278 220.544 35.6318 222.128L35.6184 222.346C35.4824 224.544 35.3438 226.816 36.1891 228.595C36.6211 229.501 37.4984 230.285 38.4291 230.587C38.8398 230.72 39.4478 230.816 40.0078 230.512C40.9598 229.992 41.4718 228.587 41.9144 227.195C41.9171 227.184 41.9198 227.176 41.9251 227.165C42.6318 225.075 43.2371 222.923 43.7278 220.771C44.2421 218.308 46.0746 207.139 46.6798 202.547C46.4255 202.517 46.1721 202.487 45.9197 202.458C45.477 202.404 45.061 202.159 44.797 201.799C44.3623 201.202 44.1837 200.954 45.189 190.932C45.8183 184.66 46.7383 176.596 47.7837 168.226ZM102.141 127.852C103.063 122.929 104.287 118.28 105.177 115.421C107.49 117.741 109.53 120.242 110.183 122.953C110.868 125.812 113.316 147.631 114.516 158.785C115.274 167.913 119.415 209.516 121.14 223.652C121.578 227.257 121.823 230.22 120.676 232.799C120.055 234.196 118.746 235.428 117.338 235.937C116.655 236.185 115.634 236.375 114.639 235.887C113.08 235.12 112.312 233.182 111.497 231.128L111.492 231.116L111.491 231.113C110.595 228.849 109.582 226.289 107.252 224.836C106.756 224.527 106.244 224.297 105.791 224.095C105.359 223.903 104.951 223.721 104.634 223.505C104.138 223.167 103.762 222.692 103.551 222.129C103.34 221.567 103.311 220.961 103.463 220.38C103.615 219.799 103.938 219.289 104.399 218.903C104.86 218.516 105.418 218.284 106.018 218.236C106.444 218.201 106.839 217.996 107.114 217.668C107.388 217.34 107.519 216.916 107.479 216.489C106.976 211.184 106.425 205.842 105.892 200.675C106.05 200.339 106.093 199.945 105.984 199.559C105.928 199.363 105.838 199.186 105.723 199.032C103.745 179.827 101.922 161.628 102.143 143.105C102.149 142.591 101.911 142.13 101.537 141.833C101.152 141.059 100.247 137.977 102.141 127.852ZM46.285 199.279C46.2887 199.279 46.2924 199.28 46.2964 199.28C46.301 199.281 46.306 199.282 46.3117 199.282L46.3067 199.281L46.3038 199.28C46.2968 199.279 46.2909 199.279 46.285 199.279Z" fill="black"/>
</svg>
