<svg width="160" height="260" viewBox="0 0 160 260" fill="none" xmlns="http://www.w3.org/2000/svg">
<path d="M44.7524 78.6219C42.315 77.5233 40.819 75.0086 39.9657 72.4886C37.6084 65.5099 39.0964 57.5953 42.867 51.2673C46.6377 44.9393 52.491 40.0673 58.867 36.3579C63.803 33.4859 69.267 31.2086 74.9817 31.1233C80.6964 31.0379 86.6777 33.4779 89.7044 38.3233L93.4884 41.6566C98.2884 40.9233 102.963 43.5926 106.648 46.7553C111.182 50.6379 114.96 55.4913 117.094 61.0646C119.227 66.6379 119.63 72.9499 117.688 78.5926C115.923 83.7153 111.382 88.5286 105.979 88.1126" fill="black"/>
<path d="M71.771 106.731C71.643 103.953 71.6697 101.971 71.8457 99.1953C68.5177 100.555 64.8377 99.9953 61.4084 99.398C58.1204 98.8193 55.0457 97.6833 52.563 95.374C47.9044 91.0353 46.667 84.2673 47.3337 78.1767C47.6004 75.758 48.6297 71.7633 50.3497 67.3393L52.3924 64.438C54.3924 61.1473 56.8964 58.1073 60.059 55.9047C63.2217 53.702 67.091 52.406 70.9257 52.7287C71.9924 52.8193 73.0937 53.046 73.9897 53.646C74.8857 54.246 75.5524 55.2753 75.475 56.35L79.507 58.6753C81.2217 57.5047 83.7444 58.4087 84.9337 60.1233C86.123 61.838 86.2857 64.0353 86.2137 66.1127C86.1417 68.19 85.875 70.302 86.3604 72.3207C86.779 73.95 87.6564 75.4247 88.891 76.5687C90.1257 77.7127 91.6617 78.478 93.3177 78.7713L95.403 78.67C98.4617 75.982 100.262 75.622 102.27 76.6353C105.128 78.078 105.558 81.1287 104.936 83.6913C104.264 86.518 102.472 88.9553 100.174 90.6913C99.0137 91.5527 97.7497 92.27 96.4137 92.8247C95.7577 93.102 95.0884 93.3473 94.4084 93.5607C93.643 93.8033 92.8697 93.7953 92.5097 94.542C90.9257 97.8433 90.251 100.977 90.5604 104.625" fill="#FFD39F"/>
<path fill-rule="evenodd" clip-rule="evenodd" d="M44.1002 80.0743C44.3135 80.1676 44.5322 80.213 44.7509 80.213C45.048 80.213 45.3394 80.129 45.5908 79.9746C45.2929 86.779 47.3888 92.7403 51.4729 96.5444C53.9076 98.8084 57.0676 100.256 61.1343 100.974C63.6516 101.414 66.9156 101.982 70.1209 101.363C70.0676 102.651 70.0863 103.595 70.1716 105.472C70.2116 106.331 70.9183 107 71.7689 107C71.7929 107 71.8169 107 71.8463 106.99C72.7289 106.95 73.4116 106.2 73.3716 105.318C73.2436 102.566 73.2729 101.974 73.4436 99.2911C73.4783 98.7418 73.2276 98.2138 72.7796 97.8911C72.3316 97.5711 71.7503 97.5018 71.2409 97.7098C68.4303 98.8591 65.2489 98.4405 61.6863 97.8191C58.2009 97.2058 55.6489 96.0564 53.6543 94.2004C49.9236 90.7284 48.2009 84.9498 48.9236 78.3498C49.1423 76.3738 50.0223 72.5951 51.8409 67.9178C52.1609 67.0938 51.7529 66.1658 50.9289 65.8458C50.1049 65.5258 49.1769 65.9338 48.8569 66.7578C47.3257 70.6942 46.2106 74.619 45.8154 77.4209C45.6952 77.3139 45.5566 77.2234 45.4015 77.1543C43.2842 76.2103 42.1002 73.8156 41.4789 71.9676C39.4095 65.8636 40.4389 58.429 44.2309 52.0796C47.4895 46.6236 52.6816 41.797 59.6629 37.733C65.3429 34.4263 70.3589 32.7863 74.9962 32.7143C80.6042 32.6316 85.8362 35.1596 88.3375 39.1623C88.8069 39.9116 89.7936 40.141 90.5429 39.6716C91.2922 39.2023 91.5216 38.2156 91.0522 37.4663C87.9242 32.4556 81.7402 29.4103 74.9482 29.5143C69.7455 29.5943 64.2202 31.3756 58.0522 34.965C50.5989 39.3036 45.0229 44.509 41.4842 50.437C37.2202 57.581 36.0842 66.013 38.4495 72.989C39.6335 76.5063 41.5855 78.9543 44.1002 80.0743ZM106.628 89.729C106.366 89.729 106.108 89.7183 105.846 89.6996C105.173 89.6486 104.628 89.1854 104.44 88.5765C103.553 89.842 102.439 90.9948 101.137 91.9778C99.8627 92.9244 98.4813 93.7084 97.0253 94.3111C96.3347 94.6018 95.612 94.8684 94.884 95.0951C94.6627 95.1644 94.4493 95.2178 94.2627 95.2631C94.2476 95.2669 94.2319 95.2707 94.2158 95.2747C94.203 95.2778 94.1899 95.281 94.1767 95.2842C94.0778 95.3083 93.9705 95.3345 93.8947 95.3591C92.3613 98.5591 91.8867 99.7617 92.1533 102.898C92.228 103.778 91.5747 104.551 90.6947 104.626C90.6467 104.636 90.6013 104.639 90.556 104.639C89.7347 104.639 89.0333 104.01 88.964 103.172C88.6253 99.1564 89.4067 97.3191 91.0653 93.8631C91.6733 92.6018 92.8227 92.3244 93.5107 92.1591L93.6042 92.136C93.7189 92.1079 93.8273 92.0813 93.924 92.0498C94.5587 91.8498 95.1853 91.6204 95.7907 91.3644C97.0147 90.8577 98.164 90.2044 99.22 89.4204C101.348 87.8124 102.831 85.6498 103.38 83.3351C103.663 82.1698 104.047 79.3378 101.548 78.0764C100.457 77.5244 99.388 77.3084 96.4573 79.8844C95.8706 80.4004 95.0133 80.4085 94.4188 79.9453C94.1279 80.2209 93.7359 80.3853 93.3182 80.3853C93.2248 80.3853 93.1315 80.3773 93.0355 80.3613C91.0728 80.0119 89.2622 79.1106 87.8008 77.7559C86.3395 76.4012 85.3048 74.6626 84.8088 72.7319C84.3635 70.8759 84.4595 69.0706 84.5528 67.3213L84.5664 67.0598V67.0597V67.0596V67.0596V67.0595V67.0594V67.0593C84.5837 66.7289 84.6009 66.3997 84.6115 66.0706C84.6675 64.4813 84.6035 62.4733 83.6168 61.0493C82.9288 60.0573 81.3422 59.3719 80.4062 60.0119C79.6755 60.5106 78.6808 60.3213 78.1822 59.5933C77.6835 58.8626 77.8728 57.8679 78.6008 57.3693C80.6835 55.9479 84.2515 56.3533 86.2435 59.2279C87.7688 61.4253 87.8808 64.0999 87.8088 66.1853C87.7928 66.6226 87.7715 67.0599 87.7475 67.4973C87.6622 69.0866 87.5822 70.5853 87.9128 71.9639C88.2488 73.2759 88.9635 74.4759 89.9742 75.4146C90.9848 76.3533 92.2355 76.9746 93.5928 77.2173C93.8568 77.2642 94.0942 77.3736 94.2926 77.5276C94.3097 77.5111 94.3273 77.495 94.3453 77.4791C98.5533 73.7804 100.985 74.2071 102.988 75.2178C106.092 76.7858 107.433 80.1804 106.489 84.0791C106.289 84.9215 105.998 85.7468 105.622 86.5437C105.773 86.5102 105.93 86.4981 106.092 86.5103C110.676 86.865 114.628 82.5289 116.166 78.065C117.91 72.9956 117.705 67.1583 115.59 61.6303C113.686 56.6596 110.233 51.9316 105.598 47.9636C101.3 44.2756 97.3051 42.6836 93.7211 43.2303C92.8464 43.3636 92.0304 42.7636 91.8971 41.8916C91.7637 41.0196 92.3637 40.201 93.2357 40.0676C97.7851 39.3716 102.644 41.2116 107.678 45.5343C112.713 49.8463 116.484 55.017 118.577 60.4863C120.961 66.7156 121.18 73.3263 119.19 79.1076C118.182 82.0303 116.428 84.6996 114.246 86.625C111.929 88.6623 109.31 89.7263 106.628 89.729ZM51.5539 65.8194C51.8126 65.9768 52.0979 66.0514 52.3806 66.0514C52.9219 66.0514 53.4499 65.7768 53.7486 65.2834C55.8606 61.7981 58.2873 59.0914 60.9593 57.2354C64.0446 55.0941 67.5326 54.0648 70.7806 54.3394C71.8046 54.4248 72.562 54.6381 73.0926 54.9928C73.5726 55.3128 73.8979 55.8408 73.8686 56.2488C73.8046 57.1314 74.4686 57.8968 75.3486 57.9608C76.2339 58.0248 76.9966 57.3634 77.0606 56.4808C77.1726 54.9208 76.3113 53.2914 74.8659 52.3288C73.8606 51.6568 72.6473 51.2834 71.0499 51.1474C67.0659 50.8114 62.8339 52.0381 59.1379 54.6034C56.0926 56.7154 53.3619 59.7501 51.0153 63.6221C50.5566 64.3768 50.7993 65.3608 51.5539 65.8194ZM58.2467 74.695C59.2777 74.695 60.1134 73.6802 60.1134 72.4284C60.1134 71.1765 59.2777 70.1617 58.2467 70.1617C57.2158 70.1617 56.3801 71.1765 56.3801 72.4284C56.3801 73.6802 57.2158 74.695 58.2467 74.695ZM69.1806 73.0565C69.1806 74.3084 68.3449 75.3232 67.3139 75.3232C66.283 75.3232 65.4473 74.3084 65.4473 73.0565C65.4473 71.8047 66.283 70.7898 67.3139 70.7898C68.3449 70.7898 69.1806 71.8047 69.1806 73.0565Z" fill="black"/>
<path d="M90.499 100C90.739 102.693 91.8403 108.779 95.939 107.867L96.379 108.533C96.179 112.712 94.0617 115.659 90.7443 118.712C87.3737 121.765 83.075 123.6 78.539 123.923C74.539 124.216 70.2857 123.259 67.2937 120.576C64.3017 117.893 62.7283 114.176 64.7097 110.989H64.9977C65.899 111.016 66.7283 110.544 67.491 110.064C68.4617 109.451 69.2883 106.696 69.8883 105.973C70.6883 104.936 72.187 101.243 72.5977 100H90.499V100Z" fill="#FFD39F"/>
<path d="M117.955 174.361C123.861 192.649 127.971 206.676 133.368 224.326C133.635 225.228 134.701 228.414 134.208 229.212C133.877 229.745 133.323 230.086 132.781 230.393C129.821 232.076 126.589 232.217 123.251 232.889L110.859 235.356C93.1227 238.537 75.3227 239.316 57.5547 236.318L54.2027 235.926L42.736 233.732C41.7014 233.534 40.5654 233.27 39.96 232.398C39.4587 231.684 39.4614 230.742 39.4987 229.87C39.6507 226.404 40.0507 222.964 40.4507 219.521L43.6054 192.321C44.9574 180.668 46.312 168.996 48.1547 157.414L48.0267 157.374C44.9254 156.308 41.872 155.124 38.816 153.937C38.3947 153.817 38.016 153.582 37.7174 153.262C37.1174 152.489 37.632 151.38 38.1467 150.545C42.6907 143.158 46.576 135.388 49.7627 127.321C52.1947 121.161 54.7334 114.23 60.6694 111.294L73.0747 112.71L96.416 106.398C100.499 107.492 103.848 110.42 106.597 113.633C110.072 117.694 112.827 122.321 114.747 127.31C118.995 138.358 118.997 150.812 124.12 161.484C121.691 162.204 119.224 162.782 116.731 163.222L117.955 174.361Z" fill="black"/>
<path fill-rule="evenodd" clip-rule="evenodd" d="M74.6121 122.131C73.3614 119.681 72.6121 117.006 72.4121 114.262C79.1534 108.379 86.0254 105.115 93.1748 102.686C93.6174 102.537 94.2228 102.443 94.4574 102.849C94.5454 103.049 94.5668 103.273 94.5214 103.489L94.0441 107.721C93.8201 109.702 93.5721 111.755 92.5321 113.459C91.4334 115.265 89.5721 116.454 87.7321 117.499C84.1241 119.55 80.3481 121.294 76.4468 122.71C76.0148 122.867 75.5054 123.014 75.1134 122.774C74.8921 122.609 74.7188 122.387 74.6121 122.131ZM68.6951 108.797C68.5564 107.186 69.3564 105.656 70.1324 104.237C70.5991 104.205 70.1004 103.37 69.4817 103.29C68.8631 103.21 68.2897 103.624 67.7964 104.01C65.7697 105.592 63.7964 107.264 62.1004 109.194C61.7671 109.469 61.5297 109.84 61.4151 110.256C61.3031 110.672 61.3191 111.112 61.4657 111.517C62.1084 114.432 63.1431 117.245 64.5404 119.882C64.7644 120.306 65.1484 120.792 65.6071 120.661C65.7991 120.586 65.9644 120.458 66.0871 120.293L69.3884 116.56C70.6577 115.128 72.0071 113.488 71.9164 111.576C70.3564 111.997 68.8337 110.408 68.6951 108.797Z" fill="white"/>
<path fill-rule="evenodd" clip-rule="evenodd" d="M39.5091 229.882C39.6611 226.421 40.0611 222.976 40.4611 219.533L43.6185 192.344C44.9518 180.704 46.3118 169.042 48.1518 157.469L48.0291 157.397C45.8505 156.65 43.6958 155.842 41.5465 155.016L41.4371 155.549L37.4665 202.821C37.3038 204.744 37.0691 206.856 35.5865 208.154C35.0088 208.66 34.2733 209.001 33.5479 209.338C32.4114 209.865 31.2996 210.381 30.8585 211.501C30.2922 212.94 31.1877 214.269 32.1087 215.635C32.5972 216.36 33.0928 217.096 33.3811 217.864C33.9393 219.336 33.7111 220.969 33.4852 222.585C33.2255 224.442 32.9689 226.278 33.9145 227.821C35.0025 229.597 37.2585 230.205 39.3091 230.573L39.5091 229.882ZM107.646 216.573C105.499 199.259 104.179 181.896 103.683 164.483L116.846 164.072C117.489 169.884 118.132 175.696 118.776 181.51C120.312 195.388 121.849 209.27 123.384 223.157C123.787 226.789 124.102 230.789 121.99 233.773C121.179 234.917 120.067 235.816 118.776 236.363C117.486 236.909 116.07 237.088 114.683 236.875C113.296 236.661 111.998 236.067 110.931 235.157C109.864 234.248 109.072 233.061 108.643 231.725C108.487 231.238 108.378 230.732 108.269 230.227C108.042 229.177 107.817 228.135 107.179 227.291C106.507 226.399 105.479 225.869 104.458 225.344C103.291 224.744 102.135 224.149 101.536 223.024C100.707 221.459 101.384 219.411 102.72 218.259C104.056 217.107 105.883 216.683 107.646 216.573Z" fill="#FFD39F"/>
<path fill-rule="evenodd" clip-rule="evenodd" d="M75.5994 124.505C75.1807 124.505 74.7221 124.414 74.2794 124.142C74.2394 124.118 74.2021 124.092 74.1647 124.065C73.7274 123.742 73.3834 123.31 73.1647 122.814C72.2543 121.023 71.5983 119.14 71.2031 117.191C71.0319 117.391 70.8676 117.577 70.7167 117.747L67.45 121.437C67.1567 121.811 66.7674 122.101 66.3247 122.275C66.274 122.293 66.2234 122.312 66.1727 122.325C66.0527 122.355 65.8447 122.4 65.5834 122.4C64.9407 122.4 63.986 122.125 63.258 120.749C62.0093 118.394 61.0381 115.901 60.3611 113.323C55.9057 116.129 53.6888 121.76 51.5413 127.217L51.2613 127.926C48.0506 136.057 44.0986 143.955 39.52 151.401C39.216 151.894 39.112 152.185 39.0773 152.334C39.136 152.369 39.2 152.398 39.2693 152.417C39.3173 152.43 39.3626 152.446 39.408 152.462L39.472 152.486L39.5148 152.503C41.9304 153.44 44.4126 154.404 46.8954 155.292C48.0394 148.302 49.3699 141.338 50.989 134.467C51.1916 133.608 52.0503 133.072 52.9143 133.277C53.773 133.48 54.3063 134.341 54.1036 135.203C49.7298 153.769 47.4713 173.104 45.2869 191.805L45.2796 191.867L45.2023 192.533L42.0476 219.733L42.046 219.748C41.6572 223.101 41.2554 226.565 41.1036 229.968C41.085 230.392 41.0503 231.187 41.277 231.507C41.5436 231.885 42.493 232.077 43.0583 232.189L52.341 233.965C53.2076 234.131 53.7783 234.971 53.6103 235.837C53.469 236.6 52.7996 237.133 52.045 237.133C51.9463 237.133 51.845 237.123 51.7436 237.104L42.445 235.325C41.3943 235.115 39.6636 234.765 38.661 233.341C38.3485 232.896 38.158 232.424 38.045 231.947C35.9275 231.479 33.7787 230.647 32.5567 228.652C31.3061 226.618 31.6234 224.348 31.9034 222.348C32.1087 220.89 32.3007 219.511 31.8901 218.423C31.6752 217.846 31.2643 217.233 30.8281 216.583L30.7887 216.524L30.7886 216.524C29.77 215.012 28.5034 213.132 29.3754 210.911C30.0567 209.192 31.6359 208.455 32.9039 207.864L32.9114 207.86C33.5487 207.564 34.1487 207.284 34.5407 206.943C35.5141 206.095 35.7274 204.444 35.8767 202.682L39.7936 156.051C39.2972 155.858 38.8032 155.666 38.312 155.475L38.3066 155.473C37.6373 155.265 37.032 154.886 36.5546 154.371C36.5226 154.337 36.4933 154.302 36.464 154.265C35.552 153.089 35.664 151.563 36.7946 149.726C41.2746 142.441 45.1413 134.71 48.2853 126.753L48.5626 126.046C50.9733 119.918 53.7066 112.974 59.9706 109.878C59.9964 109.865 60.0224 109.853 60.0485 109.842C60.2613 109.223 60.6148 108.659 61.0767 108.197C62.8634 106.243 64.8394 104.445 66.954 102.853C67.5034 102.427 68.5114 101.645 69.826 101.821C70.8607 101.96 72.3407 103 72.298 104.32C72.282 104.8 72.0794 105.224 71.7514 105.523L71.7513 105.523C71.674 105.656 71.5967 105.79 71.5194 105.925L71.5153 105.933C70.9405 106.928 70.3462 107.957 70.4154 108.789C70.4474 109.176 70.7274 109.613 72.522 110.173C73.031 110.332 73.4178 110.729 73.5727 111.222C79.0113 106.921 85.0147 103.772 92.6634 101.174C94.3141 100.617 95.3887 101.262 95.8447 102.049C95.8741 102.102 95.9007 102.156 95.9247 102.209C96.1354 102.692 96.1967 103.214 96.1061 103.732L95.9779 104.871C96.248 104.793 96.5421 104.785 96.8334 104.864C100.639 105.882 104.233 108.416 107.817 112.605C111.42 116.816 114.255 121.576 116.244 126.749C118.215 131.877 119.3 137.317 120.348 142.578L120.356 142.62C121.641 149.066 122.855 155.156 125.567 160.805C125.769 161.229 125.777 161.717 125.585 162.146C125.393 162.576 125.025 162.898 124.577 163.032C122.582 163.617 120.575 164.113 118.558 164.518L119.641 174.391C123.812 187.324 127.107 198.199 130.582 209.665L130.583 209.669L130.584 209.672L130.584 209.672L130.696 210.042C132.035 214.466 133.421 219.04 134.896 223.864C134.928 223.97 134.963 224.085 135.005 224.218C135.904 227.141 136.259 228.938 135.568 230.058C135.04 230.912 134.259 231.4 133.568 231.792C131.087 233.201 128.47 233.631 125.939 234.047L125.938 234.047L125.933 234.048L125.845 234.062L125.844 234.062L125.844 234.062C125.093 234.186 124.322 234.312 123.565 234.466C123.52 234.474 123.475 234.481 123.43 234.486C123.404 234.525 123.377 234.564 123.351 234.603C123.326 234.638 123.302 234.673 123.277 234.708C122.293 236.095 120.946 237.178 119.381 237.842C118.245 238.322 117.034 238.564 115.813 238.564C115.346 238.564 114.88 238.53 114.413 238.458C113.083 238.253 111.821 237.759 110.712 237.013C100.172 238.88 90.1604 239.814 80.525 239.814C72.5543 239.814 64.8423 239.177 57.2903 237.902C56.4183 237.756 55.8317 236.929 55.9783 236.06C56.125 235.188 56.949 234.598 57.821 234.748C73.5257 237.397 89.9751 237.228 108.029 234.228C107.64 233.598 107.327 232.921 107.098 232.21C106.92 231.644 106.8 231.095 106.688 230.562C106.488 229.623 106.312 228.812 105.888 228.247C105.437 227.652 104.602 227.22 103.717 226.764L103.712 226.762C102.415 226.093 100.945 225.336 100.112 223.77C98.9944 221.655 99.6637 218.764 101.672 217.042C102.752 216.114 104.157 215.49 105.861 215.178C103.901 198.843 102.661 182.247 102.17 165.807C99.8929 165.712 97.6118 165.505 95.3294 165.184C94.5214 165.069 93.9294 164.368 93.9534 163.554L94.6814 138.002C94.7054 137.12 95.4414 136.416 96.3268 136.448C97.2094 136.472 97.9054 137.21 97.8814 138.093L97.1934 162.2C105.511 163.192 113.807 162.605 121.897 160.453C119.541 154.911 118.357 148.969 117.208 143.203L117.208 143.203L117.207 143.197C116.185 138.066 115.129 132.765 113.255 127.893C111.396 123.061 108.748 118.616 105.383 114.682C102.233 111.002 99.1641 108.8 96.0041 107.954C95.8769 107.92 95.7575 107.872 95.647 107.811L95.6367 107.902C95.4181 109.844 95.1434 112.257 93.9007 114.294C92.5754 116.473 90.4314 117.809 88.5247 118.892C84.8474 120.982 80.9701 122.772 76.9941 124.214C76.7301 124.316 76.2074 124.505 75.5994 124.505ZM74.0821 114.942C74.3327 117.124 74.9541 119.225 75.9327 121.201C79.7274 119.822 83.4314 118.11 86.9434 116.116C88.5007 115.23 90.2394 114.161 91.1674 112.636C92.0428 111.204 92.2518 109.353 92.454 107.562L92.4554 107.55L92.7967 104.518C85.2501 107.172 79.4127 110.422 74.0821 114.942ZM125.416 230.888C125.244 230.916 125.071 230.944 124.896 230.972C125.535 228.157 125.211 225.193 124.971 222.995L124.97 222.991L121.422 190.636C123.532 197.435 125.494 203.913 127.517 210.591L127.518 210.595L127.518 210.596L127.632 210.97C128.971 215.397 130.357 219.973 131.829 224.786C131.852 224.863 131.881 224.957 131.914 225.064L131.944 225.16C132.571 227.202 132.731 228.109 132.736 228.504C132.554 228.683 132.24 228.863 132.022 228.988L131.987 229.008C130.006 230.135 127.787 230.499 125.438 230.884L125.416 230.888ZM116.429 174.858C116.341 174.587 116.33 174.309 116.383 174.048L115.399 165.076C112.078 165.585 108.732 165.849 105.374 165.866C105.881 182.692 107.178 199.677 109.232 216.378C109.285 216.815 109.157 217.255 108.874 217.596C108.592 217.935 108.184 218.143 107.744 218.17C105.976 218.279 104.634 218.716 103.76 219.468C102.888 220.218 102.522 221.474 102.944 222.268C103.305 222.948 104.172 223.396 105.175 223.913L105.186 223.919L105.198 223.925C106.304 224.497 107.557 225.144 108.445 226.319C109.297 227.448 109.575 228.743 109.82 229.886L109.82 229.886L109.82 229.886L109.821 229.89L109.836 229.959C109.934 230.414 110.027 230.843 110.152 231.236C110.488 232.284 111.112 233.22 111.952 233.94C112.792 234.658 113.816 235.127 114.906 235.295C116 235.463 117.114 235.324 118.133 234.895C119.152 234.463 120.026 233.759 120.666 232.858C122.397 230.418 122.186 226.964 121.789 223.34L116.494 175.06L116.429 174.858ZM46.3812 158.514C44.6674 169.524 43.3763 180.575 42.1101 191.413L42.101 191.491L38.869 219.36L38.8579 219.456C38.5112 222.452 38.1542 225.537 37.9708 228.63C36.8253 228.306 35.7981 227.816 35.2821 226.975C34.6341 225.919 34.8367 224.469 35.0714 222.789L35.0714 222.788L35.0735 222.774C35.3103 221.071 35.5787 219.14 34.8847 217.295C34.5301 216.351 33.9781 215.53 33.4421 214.735C32.6047 213.492 32.1114 212.692 32.3514 212.084C32.5619 211.549 33.3473 211.184 34.2582 210.76L34.2607 210.759C35.0341 210.399 35.9087 209.991 36.6421 209.354C38.5194 207.722 38.8687 205.295 39.0661 202.948L42.9052 157.242C44.0577 157.676 45.2179 158.103 46.3812 158.514ZM63.138 111.189C63.106 111.072 63.09 110.955 63.0954 110.835C63.1514 110.693 63.2394 110.563 63.3514 110.453L63.3515 110.453C63.3755 110.429 63.3967 110.408 63.418 110.384C64.746 108.928 66.186 107.568 67.7167 106.323C67.37 107.157 67.1514 108.064 67.234 109.053C67.41 111.155 68.978 112.203 70.29 112.765C69.9514 113.723 69.146 114.691 68.3247 115.619L65.7274 118.552C64.578 116.245 63.7167 113.805 63.162 111.285L63.138 111.189ZM69.9991 127.204C70.8091 127.204 71.4658 126.548 71.4658 125.738C71.4658 124.928 70.8091 124.271 69.9991 124.271C69.1891 124.271 68.5324 124.928 68.5324 125.738C68.5324 126.548 69.1891 127.204 69.9991 127.204ZM70.4001 135.869C70.4001 136.679 69.7435 137.336 68.9335 137.336C68.1234 137.336 67.4668 136.679 67.4668 135.869C67.4668 135.059 68.1234 134.402 68.9335 134.402C69.7435 134.402 70.4001 135.059 70.4001 135.869Z" fill="black"/>
</svg>
