<svg width="160" height="260" viewBox="0 0 160 260" fill="none" xmlns="http://www.w3.org/2000/svg">
<path fill-rule="evenodd" clip-rule="evenodd" d="M82.5199 53.0077C85.1492 50.4184 86.8292 47.0424 88.4586 43.7331C92.4266 35.6744 82.1332 31.6717 76.0186 31.4077C63.0986 30.8451 50.1839 38.5731 44.5839 50.2291C44.3234 50.7712 44.0663 51.3309 43.8063 51.8969C42.0627 55.6929 40.1895 59.771 36.2746 60.7411C35.7151 60.8801 35.1329 60.9443 34.5528 61.0081C33.6091 61.112 32.6709 61.2153 31.8452 61.6397C30.5119 62.3251 29.7679 64.4904 31.0452 65.2904C31.4719 65.5117 31.9466 65.6291 32.4266 65.6317L38.6426 66.1491C38.0292 68.3437 38.0826 71.6184 40.3466 71.8664C41.3039 71.9704 42.1866 71.3811 42.9332 70.7731C43.6005 70.2275 44.4316 69.7097 45.2854 69.1776C46.844 68.2064 48.4787 67.1878 49.3332 65.8664C50.1095 64.6653 50.4621 63.2855 50.8114 61.9185C51.2361 60.2565 51.656 58.6133 52.8266 57.3331C56.2666 53.5997 62.0452 52.2264 66.7946 54.0477C67.561 54.3357 68.2997 54.6988 69.0377 55.0616C70.1587 55.6128 71.2781 56.1631 72.4906 56.4477C76.0826 57.2904 79.8906 55.5971 82.5199 53.0077ZM109.912 51.7474C106.824 45.6327 96.8585 41.3927 89.9999 41.4674C89.9999 41.4674 84.9705 50.8434 83.4665 52.6674C81.4159 55.166 74.9332 57.734 74.9332 57.734C76.196 58.3169 77.6711 58.5812 79.2391 58.8623C81.9757 59.3527 84.9955 59.894 87.6639 62.2674C89.7945 64.6914 90.7519 68.0274 90.5599 71.2487C90.5323 71.712 90.4823 72.1773 90.4324 72.6425C90.299 73.8858 90.1655 75.129 90.4585 76.334C90.8612 77.99 92.4719 79.5394 94.1145 79.0887L106.979 86.6887C107.304 88.3207 109.475 88.6327 110.808 87.7554C112.141 86.878 112.768 85.2567 113.109 83.6967C113.135 83.5771 113.161 83.4563 113.186 83.3349C113.389 82.3707 113.599 81.3711 114.309 80.6914C115.089 79.9258 116.195 79.8071 117.316 79.6868C118.233 79.5883 119.161 79.4887 119.931 79.0327C121.891 77.8727 121.909 74.9127 120.787 72.9314C120.096 71.7129 119.109 70.7133 118.12 69.7112C117.5 69.0837 116.88 68.4552 116.331 67.7714C114.198 65.1138 113.256 61.8189 112.309 58.5044C111.648 56.1916 110.985 53.8693 109.912 51.7474Z" fill="black"/>
<path d="M72.4898 56.4419C70.4791 55.9699 68.7244 54.7672 66.7938 54.0419C62.0444 52.2259 56.2658 53.5992 52.8258 57.3326L50.6658 66.9326C49.0658 69.3326 48.7991 72.2659 47.9991 75.1992C47.9991 76.0419 44.7564 87.4232 52.2658 94.9326C54.9324 97.5992 58.3991 98.6659 61.9991 99.4659C65.2284 99.9646 68.7564 100.466 71.8658 99.1992C71.6871 101.975 71.6604 103.957 71.7884 106.735L90.5884 104.799C90.2818 101.151 90.9538 97.8686 92.5404 94.5672C92.8978 93.8206 93.6738 93.8286 94.4391 93.5859C95.1164 93.3726 95.7884 93.1272 96.4444 92.8499C97.7804 92.2952 99.0418 91.5779 100.204 90.7166C102.503 88.9806 104.292 86.5432 104.967 83.7166C105.578 81.1539 105.148 78.1032 102.287 76.6606C100.282 75.6472 98.4818 76.0072 95.4231 78.6952L94.1058 79.1006C92.4631 79.5512 90.8524 78.0019 90.4498 76.3459C90.0471 74.6899 90.4498 72.9619 90.5511 71.2606C90.7431 68.0392 89.7858 64.7032 87.6551 62.2792C85.5244 59.8552 82.1804 58.4552 78.9911 58.9486" fill="#FFD39F"/>
<path fill-rule="evenodd" clip-rule="evenodd" d="M40.576 73.4795C40.4453 73.4795 40.3093 73.4715 40.1733 73.4581C39.0853 73.3381 38.1893 72.7968 37.576 71.8928C36.7786 70.7141 36.608 69.1008 36.752 67.5995L32.3493 67.2341C31.64 67.2208 30.9333 67.0395 30.304 66.7115C30.2666 66.6928 30.2293 66.6715 30.1946 66.6475C29.2506 66.0555 28.736 65.0421 28.7866 63.8635C28.848 62.3888 29.8053 60.8901 31.112 60.2181C32.1879 59.6643 33.3318 59.5356 34.3422 59.4219L34.376 59.4181C34.92 59.3595 35.432 59.3008 35.888 59.1888C39.0539 58.4053 40.7285 54.7615 42.3488 51.2356L42.352 51.2288L42.434 51.0505L42.4341 51.0504L42.4341 51.0503C42.6703 50.5372 42.9047 50.0278 43.1413 49.5355C49.0053 37.3301 62.5573 29.2181 76.088 29.8075C80.1573 29.9835 87.1866 31.8901 89.8746 36.4261C90.864 38.0928 91.6693 40.8368 89.896 44.4395C88.3066 47.6715 86.5013 51.3328 83.6453 54.1461C80.328 57.4128 75.9146 58.8928 72.128 58.0048C70.7605 57.6846 69.5558 57.0957 68.3892 56.5255L68.3333 56.4981L68.3075 56.4855L68.3074 56.4854L68.3072 56.4853C67.5942 56.1354 66.9196 55.8043 66.2346 55.5461C62.128 53.9701 56.9893 55.1808 54.0053 58.4181C53.153 59.3503 52.8594 60.7985 52.5478 62.3351L52.5466 62.3408L52.5425 62.3611C52.2852 63.6283 52.021 64.9294 51.4301 66.1549C51.9016 66.5879 52.0851 67.2819 51.8394 67.9147C50.0207 72.592 49.1407 76.3707 48.922 78.3467C48.1994 84.9467 49.922 90.7253 53.6527 94.1973C55.6474 96.0533 58.1994 97.2027 61.6847 97.816C65.2474 98.4373 68.426 98.856 71.2394 97.7067C71.7487 97.4987 72.33 97.568 72.778 97.888C73.226 98.208 73.4767 98.7387 73.442 99.288C73.2714 101.971 73.242 102.563 73.37 105.315C73.41 106.197 72.7274 106.947 71.8447 106.987C71.8181 106.997 71.7941 106.997 71.7674 106.997H71.7674C70.9167 106.997 70.21 106.328 70.17 105.469C70.0847 103.592 70.066 102.648 70.1194 101.36C66.914 101.979 63.65 101.411 61.1327 100.971C57.066 100.253 53.906 98.8053 51.4714 96.5413C46.9967 92.3733 44.9087 85.616 45.7407 77.9973C45.978 75.8492 46.7075 72.9034 47.765 69.7608C47.3088 70.0274 46.8411 70.2806 46.3774 70.5316L46.3653 70.5381L46.3534 70.5445C45.4298 71.0435 44.5547 71.5163 43.9493 72.0128C43.0906 72.7088 41.9546 73.4795 40.576 73.4795ZM31.9866 63.9568C32.1306 64.0048 32.2826 64.0315 32.4346 64.0315C32.4749 64.0315 32.5128 64.0338 32.5528 64.0363L32.56 64.0368L38.776 64.5541C39.2506 64.5941 39.6853 64.8421 39.9573 65.2341C40.2293 65.6261 40.312 66.1195 40.184 66.5781C39.8 67.9488 39.8213 69.4955 40.2293 70.0981C40.312 70.2208 40.376 70.2581 40.5226 70.2741C40.951 70.3211 41.6556 69.7491 41.9099 69.5426L41.9253 69.5301C42.768 68.8421 43.8213 68.2715 44.8426 67.7195L44.8564 67.712C46.2414 66.9623 47.6712 66.1884 48.2586 65.2768C48.88 64.3141 49.1386 63.0448 49.4106 61.7008C49.776 59.8928 50.192 57.8421 51.648 56.2501C55.5493 52.0155 62.0133 50.4955 67.3706 52.5515C68.1979 52.8627 68.9828 53.2482 69.741 53.6207L69.7411 53.6207L69.7466 53.6235L69.7562 53.6282C70.822 54.1517 71.827 54.6455 72.8586 54.8875C76.1173 55.6501 79.408 53.8261 81.4 51.8661C83.8683 49.4351 85.4699 46.1851 87.0197 43.0402L87.0266 43.0261C87.9546 41.1408 87.9866 39.5141 87.1253 38.0581C85.384 35.1221 80.08 33.1835 75.9546 33.0048C63.656 32.4688 51.3573 39.8368 46.032 50.9195C45.7808 51.4427 45.5323 51.9838 45.2812 52.5304L45.2666 52.5621C43.4213 56.5808 41.328 61.1355 36.6666 62.2901C36.0215 62.4514 35.3916 62.5213 34.7818 62.589L34.736 62.5941L34.7296 62.5948C33.9159 62.6852 33.1452 62.7709 32.584 63.0581C32.2453 63.2341 32.0133 63.7035 31.9866 63.9568ZM91.4159 80.1752C92.0879 80.5726 92.8159 80.7752 93.5385 80.7752C93.8745 80.7752 94.2079 80.7299 94.5305 80.6446C94.7928 80.5733 95.022 80.441 95.2071 80.2672C95.6444 80.3213 96.1018 80.1954 96.4589 79.8813C99.3896 77.3053 100.459 77.5213 101.55 78.0733C104.048 79.3346 103.664 82.1666 103.382 83.332C102.832 85.644 101.35 87.8093 99.2216 89.4173C98.1656 90.2013 97.0162 90.8546 95.7922 91.3613C95.1869 91.6173 94.5602 91.8466 93.9256 92.0466C93.8288 92.0782 93.7205 92.1047 93.6058 92.1329L93.5122 92.156C92.8242 92.3213 91.6749 92.5986 91.0669 93.86C89.4082 97.3133 88.6269 99.1533 88.9656 103.169C89.0349 104.004 89.7362 104.636 90.5576 104.636C90.6029 104.636 90.6482 104.633 90.6962 104.623C91.5762 104.551 92.2296 103.775 92.1549 102.895C91.8882 99.7586 92.3629 98.556 93.8962 95.356C93.972 95.3314 94.0794 95.3052 94.1783 95.2811C94.208 95.2738 94.2371 95.2668 94.2642 95.26C94.4509 95.2146 94.6642 95.1613 94.8856 95.092C95.6136 94.8653 96.3362 94.5986 97.0269 94.308C98.4829 93.7053 99.8642 92.9213 101.139 91.9746C102.97 90.5927 104.428 88.8751 105.407 86.9803L105.411 87.0015C105.635 88.1375 106.397 89.0522 107.496 89.5108C108.016 89.7268 108.587 89.8335 109.16 89.8335C110.045 89.8335 110.944 89.5802 111.683 89.0868C113.16 88.1135 114.136 86.4602 114.667 84.0335L114.747 83.6575L114.749 83.6446C114.908 82.8894 115.058 82.1782 115.424 81.8282C115.805 81.4524 116.58 81.3696 117.478 81.2737L117.48 81.2735C118.507 81.1642 119.672 81.0388 120.739 80.4068C122.093 79.6068 122.931 78.1988 123.101 76.4415C123.24 74.9962 122.904 73.4282 122.173 72.1402C121.379 70.7385 120.3 69.6458 119.256 68.5878L119.253 68.5855C118.645 67.9695 118.072 67.3882 117.573 66.7695C115.643 64.3642 114.768 61.3055 113.843 58.0655L113.837 58.0441L113.837 58.044C113.167 55.6987 112.474 53.2746 111.336 51.0255C107.949 44.3188 101.133 40.0148 93.9307 40.0148H93.7334C92.8507 40.0228 92.1414 40.7482 92.1521 41.6308C92.1627 42.5082 92.8774 43.2122 93.7521 43.2122H93.7707H93.9334C99.9387 43.2122 105.637 46.8282 108.483 52.4655C109.488 54.4522 110.112 56.6308 110.771 58.9402C111.741 62.3428 112.747 65.8602 115.083 68.7695C115.681 69.5143 116.341 70.1822 116.977 70.8261L116.977 70.8263L116.977 70.8265L116.981 70.8308L116.994 70.8434C117.928 71.7907 118.811 72.6861 119.395 73.7162C120.133 75.0228 120.173 77.0255 119.115 77.6522C118.647 77.9313 117.922 78.009 117.154 78.0914L117.147 78.0922L117.144 78.0925C115.907 78.2258 114.367 78.3917 113.205 79.5322C112.136 80.5561 111.851 81.9133 111.621 83.0039L111.621 83.0039L111.621 83.0042L111.621 83.005C111.597 83.1221 111.573 83.2391 111.547 83.3535C111.203 84.9242 110.672 85.9268 109.928 86.4175C109.595 86.6362 109.069 86.6975 108.731 86.5562C108.573 86.4895 108.56 86.4282 108.549 86.3748C108.376 85.5082 107.533 84.9455 106.667 85.1188C106.466 85.1591 106.281 85.2353 106.118 85.3395C106.265 84.9237 106.39 84.502 106.491 84.076C107.435 80.1773 106.094 76.7826 102.99 75.2146C100.99 74.204 98.5549 73.7773 94.3469 77.476C94.3335 77.4878 94.3203 77.4998 94.3073 77.5119C94.1075 77.4874 93.8997 77.5004 93.6932 77.5566L93.6918 77.5569C93.6184 77.576 93.4003 77.6325 93.0452 77.4232C92.5679 77.1406 92.1519 76.5566 92.0105 75.9699C91.7839 75.0312 91.8985 73.9592 92.0212 72.8205L92.0253 72.7825C92.0747 72.3196 92.126 71.8392 92.1545 71.3539C92.3812 67.5512 91.1812 63.8579 88.8639 61.2206C86.0079 57.9699 82.7972 57.9566 79.7545 58.4259C78.8799 58.5592 78.2825 59.3779 78.4159 60.2499C78.5492 61.1246 79.3679 61.7219 80.2399 61.5886C83.2852 61.1192 84.9145 61.5752 86.4585 63.3326C88.2265 65.3406 89.1359 68.1939 88.9599 71.1619C88.9385 71.5428 88.8979 71.928 88.8553 72.3325L88.8399 72.4792L88.8372 72.5043C88.694 73.8565 88.5461 75.2536 88.9012 76.7192C89.2505 78.1566 90.1892 79.4499 91.4159 80.1752ZM58.2483 74.6919C59.2792 74.6919 60.115 73.6771 60.115 72.4253C60.115 71.1734 59.2792 70.1586 58.2483 70.1586C57.2174 70.1586 56.3816 71.1734 56.3816 72.4253C56.3816 73.6771 57.2174 74.6919 58.2483 74.6919ZM67.3139 75.3201C68.3449 75.3201 69.1806 74.3052 69.1806 73.0534C69.1806 71.8015 68.3449 70.7867 67.3139 70.7867C66.283 70.7867 65.4473 71.8015 65.4473 73.0534C65.4473 74.3052 66.283 75.3201 67.3139 75.3201Z" fill="black"/>
<path d="M90.499 100C90.739 102.693 91.8403 108.779 95.939 107.867L96.379 108.533C96.179 112.712 94.0617 115.659 90.7443 118.712C87.3737 121.765 83.075 123.6 78.539 123.923C74.539 124.216 70.2857 123.259 67.2937 120.576C64.3017 117.893 62.7283 114.176 64.7097 110.989H64.9977C65.899 111.016 66.7283 110.544 67.491 110.064C68.4617 109.451 70.4643 106.936 71.0643 106.213C71.8643 105.176 72.1897 101.243 72.6003 100H90.499V100Z" fill="#FFD39F"/>
<path d="M39.3083 230.576C38.0017 230.533 36.735 230.125 35.647 229.4C34.559 228.674 33.6977 227.661 33.1563 226.472C33.423 222.205 34.223 217.138 30.7563 213.672C30.223 211.538 31.823 209.938 33.6897 209.242L41.1777 210.213L39.3083 230.576Z" fill="#FFD39F"/>
<path fill-rule="evenodd" clip-rule="evenodd" d="M38.4744 203.278C39.6897 203.402 40.8983 203.525 42.1524 203.763L42.2804 203.779L40.4537 219.529L40.4522 219.541C40.0527 222.98 39.6535 226.415 39.5017 229.878C39.4644 230.75 39.4617 231.691 39.963 232.406C40.5683 233.278 41.7044 233.542 42.739 233.739L54.2057 235.934L57.5577 236.326C75.3257 239.323 93.1257 238.545 110.862 235.363L123.254 232.897C124.385 232.546 125.623 232.391 126.871 232.235C129.491 231.908 132.154 231.576 133.96 229.409C134.179 228.905 134.27 228.355 134.227 227.809C133.456 224.106 131.078 217.458 128.892 211.348C127.3 206.897 125.81 202.731 125.118 200.198L124.851 199.763C124.55 179.587 123.731 159.353 119.174 139.734L118.326 137.171C116.086 129.945 113.152 123.011 109.024 116.747L108.491 111.627C108.502 110.793 108.291 109.966 107.88 109.238C107.47 108.51 106.875 107.902 106.155 107.475C105.435 107.049 104.616 106.822 103.779 106.814C102.942 106.806 102.118 107.019 101.39 107.433C102.36 106.153 101.878 104.147 100.611 103.166C99.3444 102.185 97.555 102.102 96.027 102.582C94.499 103.062 93.1817 104.035 91.9284 105.033C91.0207 105.757 90.1225 106.51 89.2223 107.264C85.4412 110.431 81.6244 113.628 76.9204 114.921L73.7684 113.934C72.011 113.539 70.8324 111.889 70.1444 110.227C69.9059 109.652 69.7072 109.058 69.5087 108.465C69.1344 107.346 68.7608 106.23 68.123 105.241C67.147 103.726 65.3017 102.545 63.5897 103.094C61.491 103.766 60.9177 106.395 60.5283 108.566C60.4937 108.897 60.379 109.217 60.1924 109.491C59.8939 109.862 59.3902 109.969 58.9187 110.07C58.8889 110.076 58.8592 110.082 58.8297 110.089C57.763 110.318 56.6777 110.729 55.8964 111.505C55.115 112.281 54.683 113.478 55.0403 114.521L53.691 116.75C52.9443 117.59 51.0243 120.337 51.0243 120.337C46.0925 128.643 44.1926 137.202 42.1275 146.505C42.071 146.76 42.0144 147.014 41.9577 147.27C38.2596 164.774 36.6129 181.367 34.9102 198.523C34.7713 199.924 34.6319 201.328 34.491 202.737C35.8688 203.012 37.1754 203.145 38.4744 203.278ZM41.1829 210.211C38.8122 210.195 36.4549 209.835 34.1855 209.144C34.3455 207.157 34.5189 205.117 35.3749 203.317L41.9695 204.053L41.1829 210.211Z" fill="black"/>
<path d="M105.258 216.266C102.687 217.095 99.6816 220.183 101.855 223.031C103.05 224.602 104.855 225.447 106.511 226.434C107.786 227.191 108.124 229.751 108.618 231.106C109.866 234.522 112.29 237.332 116.266 237.066C120.308 236.799 122.823 233.356 123.591 229.644C124.423 225.618 123.004 220.332 122.335 216.351L105.258 216.266Z" fill="#FFD39F"/>
<path fill-rule="evenodd" clip-rule="evenodd" d="M82.4202 124.518C82.4762 125.366 83.1802 126.014 84.0149 126.014C84.0522 126.014 84.0869 126.014 84.1189 126.006C91.2522 125.539 98.2362 123.304 104.319 119.55C105.575 118.776 106.628 117.966 107.476 117.124C107.518 117.295 107.59 117.462 107.692 117.617C111.383 123.217 114.362 129.767 116.802 137.636C117.015 138.324 117.647 138.764 118.33 138.764C118.487 138.764 118.647 138.74 118.802 138.692C119.647 138.431 120.119 137.535 119.858 136.689C117.327 128.527 114.223 121.713 110.364 115.857C110.063 115.399 109.568 115.147 109.058 115.138C109.725 114.024 110.069 112.861 110.084 111.656C110.098 110.539 109.815 109.435 109.268 108.462C108.722 107.488 107.924 106.672 106.962 106.104C106.002 105.536 104.903 105.232 103.786 105.222C103.679 105.222 103.575 105.222 103.468 105.227C103.314 103.974 102.666 102.747 101.583 101.91C100.007 100.688 97.7455 100.371 95.5402 101.064C93.7242 101.635 92.2069 102.768 90.9242 103.79C89.5174 104.912 88.3396 106.013 87.2006 107.079L87.2006 107.079L87.1589 107.118L87.1561 107.12C84.4587 109.644 82.3282 111.638 78.5829 112.667C77.7295 112.902 77.2282 113.782 77.4629 114.635C77.6975 115.488 78.5802 115.99 79.4309 115.755C83.9402 114.518 86.5669 112.059 89.3455 109.456L89.3889 109.416C90.4821 108.394 91.6135 107.336 92.9189 106.294C94.0229 105.416 95.2069 104.523 96.5002 104.118C97.6895 103.744 98.8869 103.867 99.6255 104.44C100.258 104.931 100.5 105.958 100.108 106.475C99.6495 107.08 99.6789 107.926 100.18 108.496C100.682 109.067 101.514 109.208 102.175 108.835C102.65 108.566 103.188 108.424 103.732 108.424H103.759C104.314 108.427 104.86 108.579 105.338 108.862C105.815 109.144 106.21 109.547 106.482 110.032C106.754 110.518 106.895 111.064 106.887 111.619C106.866 113.355 105.436 115.107 102.642 116.83C97.0015 120.312 90.5242 122.382 83.9109 122.816C83.0309 122.875 82.3615 123.635 82.4202 124.518ZM52.1429 237.152C52.0442 237.152 51.9429 237.142 51.8415 237.123L42.4442 235.323C41.3935 235.112 39.6629 234.763 38.6602 233.339C38.3712 232.927 38.1865 232.492 38.071 232.052C36.8919 231.848 35.765 231.399 34.7615 230.728C33.4255 229.838 32.3668 228.595 31.7028 227.134C31.5935 226.894 31.5455 226.632 31.5615 226.371C31.5867 225.952 31.6191 225.523 31.6519 225.09L31.6519 225.09L31.652 225.089L31.652 225.089L31.6575 225.016C31.9348 221.27 32.2202 217.395 29.6282 214.8C29.4228 214.595 29.2788 214.339 29.2068 214.056C28.577 211.537 29.9651 209.123 32.6816 207.923C32.8026 206.624 32.9855 205.252 33.4184 203.918C33.0562 203.588 32.853 203.097 32.9054 202.577C33.0213 201.423 33.1353 200.271 33.249 199.123L33.3241 198.364L33.3315 198.29C35.0567 180.917 36.6867 164.504 40.3988 146.937L40.5721 146.156C42.6388 136.841 44.5935 128.044 49.6548 119.516C49.6761 119.481 49.6974 119.449 49.7188 119.417L49.748 119.376C50.0541 118.94 51.7455 116.534 52.5028 115.684C52.7872 115.363 53.1718 115.184 53.5677 115.152C53.5539 115.115 53.5404 115.078 53.5275 115.041C52.9915 113.481 53.4795 111.649 54.7701 110.369C55.6741 109.473 56.8901 108.87 58.4955 108.524L58.5888 108.502C58.6928 108.481 58.8315 108.452 58.9355 108.422C58.9355 108.418 58.9361 108.415 58.9368 108.412C58.9372 108.41 58.9376 108.408 58.9378 108.405C58.938 108.404 58.9381 108.402 58.9381 108.401C58.9435 108.358 58.9488 108.318 58.9568 108.278L58.9581 108.271C59.3476 106.134 59.9976 102.568 63.1035 101.569C64.9541 100.977 67.7355 101.609 69.4821 104.388C69.6704 104.687 69.8378 104.991 69.9893 105.298C70.3051 104.612 71.0766 104.225 71.8355 104.419C72.6915 104.635 73.2115 105.507 72.9928 106.363C72.7517 107.32 72.3658 107.96 71.3667 108.939C71.45 109.168 71.5356 109.392 71.6261 109.612C72.0021 110.516 72.8261 112.078 74.1221 112.372C74.9835 112.566 75.5248 113.422 75.3328 114.284C75.1381 115.145 74.2821 115.686 73.4208 115.494C71.4155 115.044 69.7275 113.39 68.6688 110.841C68.4075 110.212 68.1915 109.58 67.9861 108.966L67.9761 108.937C67.6225 107.897 67.2879 106.913 66.7701 106.092C66.1701 105.137 64.9995 104.324 64.0795 104.617C62.9115 104.993 62.4501 106.964 62.1141 108.798C62.0448 109.366 61.8395 109.913 61.5195 110.388C61.4955 110.422 61.4688 110.457 61.4422 110.491L61.4422 110.491L61.4421 110.492C60.7882 111.305 59.872 111.501 59.2614 111.632L59.2555 111.633L59.1701 111.652C58.1968 111.862 57.4768 112.193 57.0261 112.638C56.6288 113.033 56.4261 113.62 56.5568 114.001C56.6795 114.358 57.0848 114.742 57.4635 115.068C60.8981 118.076 65.0768 120.089 69.5568 120.894C70.4261 121.052 71.0048 121.884 70.8475 122.753C70.7035 123.526 70.0288 124.07 69.2715 124.07C69.1781 124.07 69.0821 124.062 68.9861 124.044C63.9355 123.134 59.2235 120.865 55.3621 117.484C55.3047 117.434 55.2467 117.383 55.1885 117.331C55.121 117.503 55.0224 117.666 54.8921 117.812C54.3428 118.428 52.9215 120.423 52.3748 121.201C47.5961 129.273 45.7001 137.809 43.6948 146.849L43.5241 147.615C39.8477 165.013 38.2263 181.358 36.5095 198.665L36.5081 198.679C36.4174 199.585 36.3268 200.495 36.2361 201.407C37.0334 201.519 37.8228 201.601 38.6414 201.684L38.6848 201.688C39.4044 201.762 40.1379 201.837 40.8884 201.938L42.1002 191.488L42.1093 191.411C44.3038 172.627 46.573 153.204 50.9882 134.464C51.1909 133.606 52.0522 133.07 52.9135 133.275C53.7722 133.478 54.3055 134.339 54.1029 135.2C49.729 153.767 47.4705 173.102 45.2861 191.802L45.2789 191.864L45.2015 192.531L42.0469 219.731L42.0452 219.745C41.6564 223.098 41.2546 226.563 41.1029 229.966C41.0842 230.39 41.0495 231.184 41.2762 231.504C41.5429 231.883 42.4922 232.075 43.0575 232.187L52.4389 233.982C53.3055 234.147 53.8762 234.987 53.7082 235.854C53.5669 236.619 52.8975 237.152 52.1429 237.152ZM32.2602 212.926C32.2119 211.706 33.5822 211.016 34.1138 210.794C35.9534 211.322 37.8413 211.648 39.7488 211.765L38.8682 219.358L38.8571 219.454C38.5062 222.486 38.1447 225.61 37.9633 228.741C37.4611 228.588 36.9818 228.361 36.5402 228.067C35.8068 227.576 35.2042 226.918 34.7855 226.144C34.7973 225.956 34.8113 225.768 34.8255 225.579C34.8336 225.47 34.8417 225.361 34.8495 225.251L34.8498 225.247C35.1377 221.344 35.4936 216.519 32.2602 212.926ZM40.5195 205.118L40.118 208.581C38.6933 208.505 37.2784 208.295 35.8926 207.956C36.0059 206.819 36.1761 205.694 36.5416 204.675C37.1446 204.749 37.735 204.809 38.3161 204.868L38.4389 204.881L38.4397 204.881L38.44 204.881C39.1474 204.954 39.8333 205.025 40.5195 205.118ZM57.2895 237.9C64.8415 239.175 72.5535 239.812 80.5242 239.812C90.1816 239.812 100.217 238.873 110.783 236.998C112.217 238.101 113.904 238.683 115.762 238.683C115.962 238.683 116.167 238.678 116.372 238.662C119.2 238.476 121.658 236.939 123.306 234.489C123.445 234.484 123.585 234.461 123.726 234.421C124.721 234.112 125.862 233.968 127.068 233.818C129.838 233.474 132.977 233.082 135.188 230.429C135.286 230.312 135.366 230.181 135.428 230.04C135.745 229.301 135.881 228.485 135.82 227.682C135.814 227.613 135.804 227.546 135.79 227.48C134.996 223.667 132.658 217.13 130.396 210.808L130.396 210.805C128.82 206.405 127.334 202.248 126.657 199.773C126.611 199.606 126.541 199.452 126.45 199.314C126.187 180.034 125.48 161.478 120.943 141.919C120.743 141.058 119.884 140.522 119.023 140.722C118.161 140.922 117.625 141.78 117.825 142.642C122.889 164.474 123.108 185.187 123.34 207.115V207.115L123.34 207.122L123.345 207.527L103.156 207.196C100.156 183.756 99.1214 159.914 100.079 136.306C100.116 135.423 99.4281 134.676 98.5454 134.642C97.6628 134.61 96.9161 135.292 96.8814 136.175C95.8974 160.423 97.0014 184.919 100.161 208.98C100.243 209.599 100.671 210.097 101.236 210.288C101.011 211.926 100.952 213.584 101.062 215.237C101.062 215.536 101.113 215.829 101.217 216.109C101.337 216.429 101.516 216.717 101.75 216.962C101.773 216.986 101.796 217.009 101.82 217.032C100.854 217.762 100.053 218.697 99.7004 219.822C99.3964 220.795 99.303 222.31 100.583 223.99C101.767 225.547 103.402 226.483 104.844 227.307C105.13 227.47 105.412 227.633 105.695 227.801C106.09 228.034 106.521 229.606 106.71 230.293L106.714 230.307C106.844 230.787 106.97 231.241 107.116 231.646C107.455 232.575 107.857 233.421 108.315 234.177C90.1485 237.224 73.6081 237.408 57.8202 234.745C56.9482 234.596 56.1242 235.185 55.9775 236.057C55.8309 236.927 56.4175 237.753 57.2895 237.9ZM106.767 217.569C106.608 218.027 106.243 218.407 105.746 218.566C104.263 219.046 103.004 219.977 102.754 220.779C102.706 220.931 102.58 221.334 103.127 222.051C103.919 223.091 105.139 223.789 106.429 224.528L106.431 224.529L106.649 224.654C106.878 224.785 107.105 224.915 107.33 225.049C108.834 225.941 109.368 227.888 109.797 229.452L109.799 229.459C109.911 229.873 110.02 230.265 110.122 230.547C110.986 232.918 112.73 235.689 116.159 235.467C118.412 235.318 121.132 233.625 122.026 229.318C122.71 226.007 122.091 222.443 121.492 218.994L121.49 218.982L121.459 218.803C121.397 218.447 121.336 218.093 121.276 217.739C121.264 217.669 121.257 217.598 121.255 217.528L106.767 217.569ZM124.031 216.39C124.234 216.611 124.378 216.891 124.431 217.209C124.5 217.617 124.57 218.025 124.642 218.435L124.644 218.449C125.294 222.191 125.966 226.061 125.159 229.969C125.095 230.278 125.022 230.581 124.94 230.878C125.518 230.785 126.097 230.713 126.668 230.642C129.068 230.344 131.156 230.082 132.558 228.57C132.612 228.392 132.636 228.202 132.63 228.016C131.855 224.4 129.486 217.773 127.389 211.91L127.389 211.91L127.38 211.882L127.31 211.687L127.31 211.687L127.309 211.684L127.298 211.656L127.292 211.637C127.033 210.912 126.776 210.195 126.526 209.491C126.461 209.79 126.311 210.068 126.089 210.287C125.793 210.586 125.385 210.754 124.964 210.754H124.937L124.4 210.745L124.532 214.122C124.545 214.538 124.576 215.56 124.031 216.39ZM121.195 210.692L104.45 210.417C104.25 211.729 104.174 213.057 104.222 214.384L121.337 214.336V214.335L121.337 214.312L121.337 214.297C121.337 214.279 121.336 214.26 121.334 214.24L121.195 210.692Z" fill="black"/>
</svg>
