<svg width="160" height="260" viewBox="0 0 160 260" fill="none" xmlns="http://www.w3.org/2000/svg">
<path d="M94.5304 78.8856C92.5331 78.739 91.3971 76.3923 91.5198 74.3976C91.6424 72.403 92.5864 70.5416 92.8824 68.563C93.5624 64.123 90.5384 59.411 86.2158 58.1816C85.0344 57.8456 83.7678 57.7363 82.6931 57.1416C81.7971 56.643 81.0504 55.8083 80.0451 55.6323C78.1918 55.291 76.6664 57.2323 74.7918 57.4403C72.3038 57.707 70.3811 54.8563 67.8771 54.8616C65.2904 54.8616 63.5011 57.8803 60.9198 58.003C59.1891 58.0856 57.6424 56.827 55.9118 56.7416C53.6744 56.635 51.8158 58.5096 50.8024 60.507C49.7891 62.5043 49.2878 64.7603 48.0398 66.6216C46.8984 68.323 44.5144 69.635 42.8504 68.4403C41.7011 67.619 41.4798 66.0083 41.5624 64.6003C41.7304 61.7123 42.7304 58.9336 44.4398 56.6003C44.9731 55.891 45.5651 55.1923 45.7571 54.3336C46.0238 53.0696 45.3731 51.8136 45.1171 50.5443C44.5544 47.7443 46.2878 44.6616 48.9731 43.6856C50.2424 43.227 51.6611 43.1923 52.8504 42.555C54.0398 41.9176 54.8824 40.7096 55.7091 39.6056C60.0851 33.7603 67.0958 28.9763 74.2798 30.2723C78.6878 31.0723 82.5464 34.0403 88.0291 35.0723C91.8451 32.2376 97.7251 32.6723 101.064 36.067C105.376 40.4296 105.208 48.163 110.13 51.8323C110.914 52.419 111.826 52.899 112.362 53.715C113.501 55.4483 112.474 57.803 112.962 59.8216C113.389 61.5736 114.877 62.8216 115.984 64.2456C117.09 65.6696 117.8 67.827 116.618 69.1896C116.104 69.7816 115.338 70.083 114.733 70.579C113.245 71.795 112.949 73.9603 113.133 75.8723C113.317 77.7843 113.978 80.2136 113.6 81.6003C112.077 87.235 108.554 85.7976 106.882 86.667" fill="black"/>
<path d="M50.6658 66.9326C49.0658 69.3326 48.7991 72.266 47.9991 75.1993C47.9991 76.042 44.7564 87.4233 52.2658 94.9326C54.9324 97.5993 58.3991 98.666 61.9991 99.466C65.2284 99.9646 68.7564 100.466 71.8658 99.1993C71.6871 101.975 71.6604 103.957 71.7884 106.735L90.5324 104.799C90.2258 101.151 90.9538 97.8686 92.5404 94.5673C92.8978 93.8206 93.6738 93.8286 94.4391 93.586C95.1164 93.3726 95.7884 93.1273 96.4444 92.85C97.7804 92.2953 99.0418 91.578 100.204 90.7166C102.503 88.9806 104.292 86.5433 104.967 83.7166C105.578 81.154 105.148 78.1033 102.287 76.6606C100.282 75.6473 98.4818 76.0073 95.4231 78.6953L94.5218 78.8873C92.5244 78.7406 91.3884 76.394 91.5111 74.3993C91.6338 72.4046 92.5778 70.5433 92.8738 68.5646C93.5538 64.1246 90.5298 59.4126 86.2071 58.1833C85.0258 57.8473 83.7591 57.738 82.6844 57.1433C81.7884 56.6446 81.0418 55.81 80.0364 55.634C78.1831 55.2926 76.6578 57.234 74.7831 57.442C72.2951 57.7086 70.3724 54.858 67.8684 54.8633C65.2818 54.8633 63.4924 57.882 60.9111 58.0046C59.1804 58.0873 57.6338 56.8286 55.9031 56.7433C53.6658 56.6366 51.8071 58.5113 50.7938 60.5086C49.7804 62.506 49.2791 64.762 48.0311 66.6233" fill="#FFD39F"/>
<path fill-rule="evenodd" clip-rule="evenodd" d="M105.463 87.407C105.748 87.9537 106.306 88.2683 106.884 88.2683C107.135 88.2683 107.386 88.2097 107.623 88.0763C107.797 87.9854 108.247 87.9274 108.653 87.8751L108.653 87.8751L108.684 87.871L108.688 87.8705C110.58 87.6278 113.741 87.2219 115.148 82.0123C115.499 80.7293 115.238 79.0969 114.986 77.516L114.986 77.5159L114.983 77.4977C114.882 76.8603 114.786 76.255 114.732 75.711C114.65 74.8577 114.586 72.7643 115.754 71.8097C115.904 71.6845 116.103 71.5593 116.317 71.4254L116.359 71.399L116.366 71.3949C116.836 71.1 117.367 70.7672 117.834 70.231C119.596 68.199 118.812 65.263 117.252 63.2577C116.932 62.847 116.596 62.4603 116.268 62.087L116.263 62.0808C115.481 61.1871 114.745 60.3462 114.524 59.439C114.38 58.8417 114.426 58.1003 114.476 57.3137C114.567 55.9003 114.668 54.295 113.706 52.831C113.13 51.9539 112.338 51.4099 111.64 50.93L111.639 50.9297L111.536 50.8585C111.387 50.7548 111.238 50.6515 111.092 50.543C108.835 48.8612 107.768 46.0258 106.638 43.0221L106.636 43.0177C105.562 40.159 104.45 37.2043 102.21 34.9377C98.4978 31.1643 92.1378 30.5217 87.6898 33.3617C85.2733 32.8241 83.1543 31.8881 81.0995 30.9805L81.0871 30.975C78.9111 30.0123 76.8578 29.1057 74.5698 28.6897C66.3271 27.2043 58.7644 32.855 54.4338 38.639L54.2471 38.8897L54.2449 38.8926C53.5763 39.7903 52.8862 40.7168 52.1004 41.1377C51.5992 41.4069 50.9487 41.5456 50.2609 41.6922L50.2604 41.6923C49.6711 41.8177 49.0604 41.9483 48.4311 42.175C45.0284 43.4123 42.8418 47.3057 43.5538 50.855C43.6444 51.311 43.7698 51.7323 43.8924 52.143L43.8945 52.1502C44.1123 52.8831 44.3001 53.5152 44.2018 53.9803C44.1088 54.3997 43.7464 54.8746 43.3617 55.3787L43.3564 55.3857L43.1538 55.6523C41.2578 58.239 40.1564 61.3003 39.9698 64.503C39.7911 67.5483 40.9351 69.031 41.9218 69.7377C42.8444 70.399 43.9591 70.6363 45.1458 70.423C46.1495 70.242 47.1616 69.7347 48.0267 69.0081C46.8295 72.4313 45.9993 75.6809 45.743 78.0004C44.911 85.6191 46.999 92.3764 51.4737 96.5444C53.9084 98.8084 57.0684 100.256 61.135 100.974C63.6524 101.414 66.9164 101.982 70.1217 101.363C70.0684 102.651 70.087 103.595 70.1724 105.472C70.2124 106.331 70.919 107 71.7697 107H71.7698C71.7964 107 71.8204 107 71.847 106.99C72.7297 106.95 73.4124 106.2 73.3724 105.318C73.2444 102.566 73.2737 101.974 73.4444 99.2911C73.479 98.7418 73.2284 98.2111 72.7804 97.8911C72.3324 97.5711 71.751 97.5018 71.2417 97.7098C68.4284 98.8591 65.2497 98.4405 61.687 97.8191C58.2017 97.2058 55.6497 96.0564 53.655 94.2004C49.9244 90.7284 48.2017 84.9498 48.9244 78.3498C49.143 76.3738 50.023 72.5951 51.8417 67.9178C52.1617 67.0938 51.7537 66.1658 50.9297 65.8458C50.7418 65.7728 50.5484 65.7377 50.3581 65.7367C50.6896 65.0223 50.9671 64.2986 51.2391 63.5883C51.5591 62.751 51.8604 61.9643 52.2338 61.2283C52.9324 59.8497 54.2978 58.263 55.8364 58.3377C56.3884 58.3643 57.0204 58.607 57.6871 58.8657L57.7029 58.8718C58.6618 59.241 59.75 59.66 60.9991 59.599C62.7264 59.5193 64.067 58.5763 65.2506 57.7437L65.2631 57.735C66.2338 57.0497 67.0711 56.4603 67.8844 56.4603H67.8871C68.6364 56.4603 69.4844 56.9803 70.3804 57.5323C71.6711 58.327 73.1324 59.2257 74.9724 59.0283C76.1218 58.903 77.0684 58.3697 77.9058 57.8977C78.6498 57.479 79.2924 57.119 79.7751 57.207C80.0684 57.2577 80.4578 57.5403 80.8684 57.839L80.8735 57.8427C81.1816 58.0658 81.5293 58.3175 81.9244 58.5377C82.8631 59.055 83.8578 59.2737 84.7378 59.4657C85.1058 59.5457 85.4551 59.623 85.7831 59.7163C89.3378 60.727 91.8658 64.6657 91.3058 68.3217C91.1911 69.0817 90.9591 69.855 90.7111 70.6737L90.7069 70.6876C90.3642 71.8246 90.0094 73.0016 89.9298 74.295C89.7564 77.0977 91.4258 80.2577 94.4204 80.4763C94.7434 80.5008 95.0512 80.4269 95.3147 80.28C95.7188 80.3027 96.1316 80.173 96.4597 79.8844C99.3903 77.3084 100.46 77.5244 101.55 78.0764C104.049 79.3378 103.665 82.1698 103.382 83.3351C102.833 85.6471 101.35 87.8124 99.2223 89.4204C98.1663 90.2044 97.017 90.8577 95.793 91.3644C95.1877 91.6204 94.561 91.8498 93.9263 92.0498C93.8296 92.0813 93.7213 92.1078 93.6066 92.136L93.6066 92.136L93.513 92.1591C92.825 92.3244 91.6757 92.6018 91.0677 93.8631C89.409 97.3164 88.6277 99.1564 88.9663 103.172C89.0357 104.007 89.737 104.639 90.5583 104.639C90.6037 104.639 90.649 104.636 90.697 104.626C91.577 104.554 92.2303 103.778 92.1557 102.898C91.889 99.7617 92.3637 98.5591 93.897 95.3591C93.9728 95.3345 94.0802 95.3083 94.179 95.2842C94.2088 95.277 94.2378 95.2699 94.265 95.2631C94.4517 95.2178 94.665 95.1644 94.8863 95.0951C95.6143 94.8684 96.337 94.6018 97.0277 94.3111C98.4837 93.7084 99.865 92.9244 101.14 91.9778C102.931 90.6257 104.365 88.9524 105.343 87.1061C105.372 87.2083 105.412 87.3091 105.463 87.407ZM93.1244 74.4923C93.0518 75.694 93.6662 77.1356 94.5792 77.2782C98.6455 73.7964 101.027 74.2258 102.99 75.2178C106.094 76.7858 107.436 80.1804 106.492 84.0791C106.398 84.4722 106.285 84.8617 106.152 85.2462C106.833 84.8944 107.567 84.7987 108.276 84.7083L108.278 84.7081C109.915 84.4975 111.207 84.3312 112.058 81.183C112.228 80.5573 112.002 79.15 111.821 78.0202L111.82 78.015C111.714 77.3537 111.604 76.671 111.543 76.0283C111.26 73.0977 112.034 70.7217 113.724 69.343C114.042 69.0817 114.37 68.8763 114.66 68.6977L114.694 68.6764C114.991 68.4897 115.269 68.3151 115.415 68.143C115.932 67.5457 115.471 66.191 114.724 65.231C114.465 64.8979 114.175 64.5647 113.868 64.2134L113.86 64.2043C112.903 63.1137 111.82 61.8763 111.412 60.2017C111.154 59.1297 111.22 58.063 111.282 57.119C111.348 56.071 111.404 55.167 111.031 54.5963C110.799 54.2443 110.327 53.919 109.826 53.575C109.607 53.4257 109.388 53.2737 109.178 53.1163C106.17 50.8737 104.884 47.4577 103.642 44.1537C102.642 41.4923 101.695 38.9803 99.9324 37.1937C97.1698 34.3857 92.1591 34.0043 88.9911 36.359C88.6338 36.6257 88.1804 36.7297 87.7404 36.647C84.6871 36.071 82.0871 34.9243 79.7964 33.911C77.7991 33.0283 75.9138 32.1963 74.0018 31.847C69.5431 31.0417 62.7298 32.9083 56.9964 40.5643L56.8151 40.807C55.9778 41.9323 55.0284 43.2043 53.6124 43.9643C52.7138 44.447 51.7671 44.6497 50.9298 44.8257L50.8777 44.8369L50.8777 44.8369C50.3902 44.942 49.9286 45.0415 49.5218 45.1883C47.5804 45.8923 46.2844 48.2017 46.6898 50.2283C46.7538 50.5403 46.8524 50.879 46.9591 51.2363L46.9609 51.2423C47.2591 52.2488 47.5959 53.3855 47.3271 54.663C47.0764 55.7857 46.4524 56.6043 45.9004 57.327L45.7244 57.559C44.2044 59.6337 43.3164 62.103 43.1644 64.6897C43.0924 65.911 43.3191 66.8017 43.7858 67.135C43.9218 67.2337 44.1484 67.351 44.5778 67.2737C45.3164 67.1403 46.1964 66.5057 46.7164 65.727C47.3565 64.7735 47.7876 63.6482 48.2442 62.4562L48.2498 62.4417L48.2552 62.4274L48.2552 62.4274L48.2553 62.4273C48.5896 61.5571 48.9349 60.6582 49.3804 59.7803C50.5671 57.4417 52.9298 54.9937 55.9938 55.1403C57.0594 55.1935 58.0033 55.5565 58.8332 55.8757L58.8418 55.879L58.8619 55.8868C59.6186 56.1795 60.2682 56.4307 60.8498 56.4017C61.652 56.3643 62.5103 55.7596 63.4218 55.1172L63.4231 55.1163L63.4232 55.1163C64.6605 54.2443 66.0605 53.2577 67.8844 53.2577H67.8951C69.5458 53.2577 70.8818 54.079 72.0604 54.8043L72.071 54.8108C73.0425 55.4081 73.8818 55.924 74.6284 55.8443C75.1218 55.7883 75.7111 55.4577 76.3378 55.1057C77.4044 54.5057 78.7324 53.759 80.3431 54.055C81.3509 54.2305 82.1254 54.7932 82.7485 55.2459L82.7538 55.2497L82.8172 55.2955C83.0522 55.4653 83.2735 55.6253 83.4791 55.7403C84.0005 56.0288 84.6822 56.1781 85.4068 56.3368L85.4231 56.3403L85.4584 56.3481L85.4585 56.3481C85.8476 56.4337 86.2515 56.5225 86.6604 56.639C91.7724 58.0923 95.2764 63.5483 94.4711 68.8017C94.3262 69.774 94.0511 70.6864 93.7847 71.5698L93.7751 71.6017C93.4684 72.6123 93.1804 73.567 93.1244 74.4923ZM58.2491 74.695C59.28 74.695 60.1158 73.6802 60.1158 72.4284C60.1158 71.1765 59.28 70.1617 58.2491 70.1617C57.2182 70.1617 56.3824 71.1765 56.3824 72.4284C56.3824 73.6802 57.2182 74.695 58.2491 74.695ZM67.3163 75.3232C68.3472 75.3232 69.1829 74.3084 69.1829 73.0565C69.1829 71.8047 68.3472 70.7898 67.3163 70.7898C66.2853 70.7898 65.4496 71.8047 65.4496 73.0565C65.4496 74.3084 66.2853 75.3232 67.3163 75.3232Z" fill="black"/>
<path d="M90.499 100C90.739 102.693 91.8403 108.779 95.939 107.867L96.379 108.533C96.179 112.712 94.0617 115.659 90.7443 118.712C87.3737 121.765 83.075 123.6 78.539 123.923C74.539 124.216 70.2857 123.259 67.2937 120.576C64.3017 117.893 62.7283 114.176 64.7097 110.989H64.9977C65.899 111.016 66.7283 110.544 67.491 110.064C68.4617 109.451 70.4643 106.936 71.0643 106.213C71.8643 105.176 72.1897 101.243 72.6003 100H90.499V100Z" fill="#FFD39F"/>
<path d="M96.4148 106.398C101.132 107.662 104.791 111.297 107.737 115.02C110.951 119.084 113.471 123.649 115.199 128.532C116.167 131.26 117.697 134.329 118.329 137.15L119.172 139.732C123.737 159.393 124.553 179.673 124.852 199.892L125.119 200.196C126.761 206.206 132.895 221.406 134.228 227.806C134.271 228.353 134.18 228.902 133.961 229.406C131.295 232.606 126.761 231.806 123.255 232.894L110.863 235.361C93.1268 238.542 75.3268 239.321 57.5588 236.324L54.2068 235.932L42.7401 233.737C41.7054 233.54 40.5694 233.276 39.9641 232.404C39.4628 231.689 39.4654 230.748 39.5028 229.876C39.6548 226.409 40.0548 222.969 40.4548 219.526L42.2841 203.756H42.1454C39.4361 203.425 37.2601 203.097 34.5508 202.769C35.6734 190.382 37.1134 178.028 38.8708 165.702C40.3988 154.969 42.1774 144.233 45.3348 133.862C48.1401 124.646 52.5908 115.116 61.0414 110.494L72.7748 111.294L96.4148 106.398Z" fill="black"/>
<path fill-rule="evenodd" clip-rule="evenodd" d="M33.1583 226.472C34.2249 228.872 36.8116 230.496 39.4969 230.6L41.6916 208.824L33.6916 209.243C31.8249 209.939 30.2249 211.539 30.7583 213.672C33.8693 216.783 33.5442 221.183 33.252 225.136C33.2186 225.588 33.1856 226.035 33.1583 226.472ZM101.852 222.602C99.6919 219.754 103.017 216.813 105.585 215.984H122.647C122.721 216.423 122.8 216.878 122.881 217.345C123.536 221.103 124.325 225.634 123.583 229.216C122.815 232.93 120.3 236.373 116.257 236.64C112.289 236.896 109.863 234.098 108.617 230.677C108.491 230.332 108.375 229.909 108.252 229.458C107.89 228.136 107.461 226.569 106.508 226.002C106.223 225.833 105.934 225.668 105.644 225.503C104.25 224.706 102.843 223.903 101.852 222.602Z" fill="#FFD39F"/>
<path fill-rule="evenodd" clip-rule="evenodd" d="M75.3558 122.402L72.8012 111.314C77.9456 109.206 81.8399 107.245 85.7208 105.289L85.8465 105.226C88.8012 103.736 91.8518 102.218 95.1532 101.965C94.905 104.703 94.1547 107.345 93.4048 109.985L93.3825 110.064C92.8785 111.832 92.3452 113.642 91.1532 115.032C90.1452 116.208 88.7478 116.976 87.3558 117.656C83.497 119.542 79.4336 120.97 75.3805 122.394L75.3804 122.394L75.3558 122.402ZM68.9476 107.934L70.0543 103.982C70.3476 104.228 70.7263 103.188 70.2303 102.374L62.0303 108.988C61.8329 111.004 62.0649 113.038 62.7156 114.958C63.3663 116.878 64.4169 118.636 65.7983 120.118C68.2943 117.545 70.2863 114.524 71.6649 111.214C70.4383 110.956 68.9583 110.444 68.7769 109.201C68.7476 108.772 68.8036 108.34 68.9476 107.934ZM103.085 208.999C102.663 211.039 102.525 213.125 102.669 215.202C102.663 215.322 102.679 215.442 102.722 215.554C102.765 215.666 102.829 215.77 102.911 215.858C103.079 215.959 103.277 216.005 103.471 215.983L121.605 215.933C121.879 215.954 122.154 215.903 122.405 215.789C122.917 215.498 122.957 214.789 122.938 214.189L122.746 209.274L103.085 208.999ZM34.1855 209.148C34.3455 207.161 34.5189 205.121 35.3749 203.321L42.0255 203.942L41.1829 210.214C38.8122 210.198 36.4549 209.838 34.1855 209.148Z" fill="white"/>
<path fill-rule="evenodd" clip-rule="evenodd" d="M74.593 123.795C74.8277 123.923 75.097 123.99 75.3637 123.99C75.5477 123.99 75.7317 123.96 75.8997 123.902C79.9344 122.486 84.105 121.019 88.049 119.091C89.5877 118.342 91.1717 117.456 92.3584 116.072C93.8064 114.387 94.4197 112.232 94.913 110.499L94.937 110.419L94.9377 110.417C95.1819 109.557 95.4288 108.687 95.6601 107.807C95.7654 107.863 95.8786 107.908 95.9987 107.94C100.657 109.191 104.212 113.143 106.481 116.01C109.591 119.943 112.015 124.335 113.689 129.066C114.039 130.047 114.457 131.076 114.865 132.071C115.612 133.898 116.383 135.786 116.767 137.498C116.935 138.242 117.593 138.748 118.327 138.748C118.444 138.748 118.561 138.735 118.679 138.708C119.54 138.514 120.081 137.658 119.889 136.796C119.447 134.823 118.625 132.807 117.828 130.858L117.791 130.768C117.394 129.796 117.018 128.876 116.705 127.994C114.916 122.932 112.319 118.234 108.991 114.023C106.441 110.802 102.404 106.343 96.828 104.85C96.6696 104.807 96.5104 104.79 96.3546 104.796C96.5234 103.911 96.6574 103.015 96.7397 102.107C96.7824 101.64 96.617 101.176 96.2864 100.84C95.9557 100.504 95.4944 100.331 95.025 100.368C91.3578 100.648 88.0474 102.318 85.126 103.792L85.121 103.795L84.993 103.859L84.8776 103.917L84.8776 103.917C81.159 105.788 77.3075 107.726 72.3516 109.763C72.2388 109.71 72.1189 109.669 71.9941 109.642C70.7275 109.376 70.4181 109.05 70.3675 108.978C70.3675 108.824 70.3888 108.672 70.4341 108.525L72.0821 105.018C72.3755 104.394 72.2341 103.65 71.7328 103.176C71.2315 102.701 70.4821 102.602 69.8741 102.93L61.2688 107.57C60.8021 107.824 60.4875 108.293 60.4368 108.824C60.4299 108.894 60.4234 108.965 60.4175 109.035C60.3725 109.055 60.3281 109.076 60.2842 109.1C52.8682 113.156 47.6336 120.876 43.8069 133.399C40.5882 143.972 38.7722 155.066 37.2896 165.479C35.5349 177.764 34.0789 190.263 32.9589 202.628C32.9132 203.12 33.0962 203.582 33.4215 203.906C32.9864 205.243 32.8029 206.618 32.6816 207.921C29.9651 209.121 28.577 211.535 29.2068 214.054C29.2788 214.337 29.4228 214.593 29.6282 214.798C32.2202 217.393 31.9348 221.267 31.6575 225.014L31.652 225.087L31.652 225.087L31.6519 225.087L31.6519 225.087C31.6191 225.521 31.5867 225.95 31.5615 226.369C31.5455 226.63 31.5935 226.891 31.7028 227.131C32.3668 228.593 33.4255 229.835 34.7615 230.726C35.7659 231.398 36.894 231.846 38.0743 232.05C38.1898 232.491 38.3744 232.925 38.6633 233.337C39.666 234.761 41.3966 235.11 42.4473 235.321L51.5007 237.054C51.602 237.073 51.7033 237.083 51.802 237.083C52.554 237.083 53.2233 236.55 53.37 235.787C53.538 234.921 52.9673 234.081 52.1007 233.915L43.0606 232.185C42.4953 232.073 41.546 231.881 41.2793 231.502C41.0526 231.182 41.0873 230.387 41.106 229.963C41.2578 226.56 41.6595 223.096 42.0483 219.743L42.05 219.729L45.2046 192.529L45.282 191.862L45.2892 191.8C47.4736 173.099 49.7322 153.764 54.106 135.198C54.3086 134.337 53.7753 133.475 52.9166 133.273C52.0553 133.067 51.194 133.603 50.9913 134.462C46.5761 153.202 44.3069 172.624 42.1124 191.408L42.1033 191.486L40.8855 201.987C40.2731 201.908 39.6799 201.828 39.098 201.75L38.6282 201.687C37.8682 201.583 37.0949 201.479 36.2842 201.375C37.3802 189.57 38.7802 177.652 40.4549 165.93C41.9189 155.644 43.7109 144.698 46.8656 134.332C50.1952 123.434 54.5598 116.5 60.5262 112.674C60.6646 113.616 60.8891 114.547 61.1995 115.464C61.9275 117.613 63.0795 119.544 64.6261 121.202C64.9248 121.522 65.3435 121.706 65.7808 121.712H65.7968C66.2288 121.712 66.6448 121.536 66.9461 121.226C68.0154 120.124 68.9929 118.951 69.8746 117.713L66.833 165.632L66.8307 165.668C65.3695 188.693 63.86 212.478 66.4083 235.903C63.5179 235.608 60.6569 235.221 57.8202 234.743C56.9482 234.593 56.1242 235.183 55.9775 236.055C55.8309 236.924 56.4175 237.751 57.2895 237.897C60.7191 238.476 64.1816 238.924 67.6864 239.24C67.8557 239.301 68.0374 239.333 68.225 239.333C68.289 239.333 68.353 239.331 68.417 239.323C68.445 239.319 68.4727 239.315 68.5002 239.311C72.4495 239.643 76.4531 239.809 80.5242 239.809C90.1816 239.809 100.217 238.871 110.783 236.995C112.217 238.099 113.904 238.681 115.762 238.681C115.962 238.681 116.167 238.676 116.372 238.66C119.2 238.474 121.658 236.937 123.306 234.487C123.445 234.482 123.585 234.459 123.726 234.419C124.721 234.109 125.862 233.965 127.068 233.816C129.838 233.472 132.977 233.08 135.188 230.427C135.286 230.309 135.366 230.179 135.428 230.037C135.745 229.299 135.881 228.483 135.82 227.68C135.814 227.611 135.804 227.544 135.79 227.477C134.996 223.665 132.658 217.127 130.396 210.805L130.396 210.803C128.82 206.403 127.334 202.245 126.657 199.771C126.613 199.611 126.547 199.463 126.462 199.33C126.242 179.662 125.704 160.858 121.153 141.242C120.953 140.38 120.095 139.844 119.233 140.044C118.372 140.244 117.836 141.103 118.036 141.964C122.911 162.98 123.108 183.204 123.316 204.618C123.321 205.103 123.326 205.59 123.331 206.077L123.331 206.079L123.331 206.082C123.336 206.561 123.34 207.041 123.345 207.522L103.156 207.191C100.156 183.751 99.1214 159.908 100.079 136.3C100.116 135.418 99.4281 134.671 98.5454 134.636C97.6601 134.604 96.9161 135.287 96.8814 136.17C95.8974 160.418 97.0014 184.914 100.161 208.975C100.243 209.594 100.672 210.092 101.236 210.283C101.011 211.921 100.952 213.581 101.062 215.235C101.062 215.533 101.113 215.827 101.217 216.107C101.337 216.427 101.516 216.715 101.75 216.96C101.773 216.984 101.796 217.007 101.82 217.029C100.854 217.76 100.053 218.695 99.7004 219.82C99.3964 220.793 99.303 222.308 100.583 223.988C101.767 225.545 103.402 226.481 104.844 227.305C105.13 227.468 105.412 227.63 105.695 227.798C106.09 228.032 106.521 229.603 106.71 230.291L106.714 230.305C106.844 230.785 106.97 231.238 107.116 231.644C107.455 232.573 107.857 233.418 108.315 234.175C94.6324 236.47 81.8721 237.141 69.6611 236.194C67.0435 212.826 68.56 188.944 70.0277 165.835L72.9846 119.249L73.793 122.758C73.897 123.2 74.193 123.576 74.593 123.795ZM34.1138 210.792C33.5822 211.013 32.2119 211.704 32.2602 212.923C35.4936 216.517 35.1377 221.341 34.8498 225.244L34.8495 225.249C34.8417 225.359 34.8336 225.468 34.8255 225.576L34.8255 225.577C34.8113 225.766 34.7973 225.954 34.7855 226.142C35.2042 226.915 35.8068 227.574 36.5402 228.065C36.9827 228.36 37.4631 228.587 37.9664 228.74C38.1477 225.608 38.5093 222.484 38.8602 219.452L38.8713 219.355L39.7519 211.762C37.8434 211.646 35.9543 211.32 34.1138 210.792ZM40.1211 208.579L40.5166 205.168C39.7162 205.065 38.9503 204.961 38.2016 204.86L37.8253 204.81L37.8252 204.81L37.8251 204.81L37.8249 204.81L37.8247 204.81C37.4075 204.754 36.9845 204.697 36.5532 204.64C36.1797 205.668 36.0071 206.805 35.8926 207.954C37.2794 208.293 38.6953 208.503 40.1211 208.579ZM104.222 214.381C104.174 213.054 104.25 211.725 104.451 210.412L121.195 210.687L121.334 214.237C121.337 214.272 121.337 214.304 121.337 214.333V214.333L104.222 214.381ZM124.532 214.12L124.4 210.739L124.937 210.748H124.964C125.385 210.748 125.793 210.58 126.089 210.284C126.31 210.065 126.461 209.788 126.526 209.488C126.782 210.209 127.045 210.943 127.31 211.684L127.31 211.685L127.38 211.88L127.389 211.907L127.389 211.908C129.486 217.77 131.855 224.398 132.63 228.013C132.636 228.2 132.612 228.389 132.558 228.568C131.156 230.08 129.068 230.341 126.668 230.64C126.097 230.711 125.518 230.783 124.94 230.876C125.022 230.579 125.095 230.276 125.159 229.966C125.966 226.059 125.294 222.189 124.644 218.447L124.642 218.433C124.57 218.022 124.5 217.614 124.431 217.206C124.378 216.889 124.234 216.609 124.031 216.388C124.576 215.558 124.545 214.535 124.532 214.12ZM106.766 217.567L121.255 217.526C121.257 217.596 121.264 217.666 121.276 217.737C121.336 218.09 121.397 218.443 121.458 218.798L121.459 218.801L121.49 218.98L121.492 218.991C122.091 222.441 122.71 226.005 122.026 229.316C121.132 233.622 118.412 235.316 116.159 235.465C112.73 235.686 110.986 232.916 110.122 230.545C110.02 230.262 109.911 229.87 109.799 229.457L109.797 229.449C109.368 227.885 108.834 225.938 107.33 225.046C107.105 224.913 106.878 224.783 106.649 224.652L106.431 224.526L106.429 224.525C105.139 223.787 103.919 223.089 103.127 222.049C102.58 221.332 102.706 220.929 102.754 220.777C103.004 219.974 104.263 219.044 105.746 218.564C106.244 218.405 106.608 218.025 106.766 217.567ZM76.5104 120.294L74.6624 112.267C79.257 110.331 82.9024 108.496 86.4277 106.718L86.5584 106.651C88.729 105.555 90.9584 104.432 93.2704 103.878C92.9393 105.737 92.4162 107.58 91.8709 109.502L91.8709 109.502L91.8597 109.542L91.8384 109.622C91.3904 111.2 90.9237 112.832 89.9344 113.987C89.0864 114.974 87.793 115.654 86.649 116.214C83.409 117.798 79.9397 119.08 76.5104 120.294ZM63.5675 109.97C63.5168 111.49 63.7408 112.989 64.2315 114.44C64.6235 115.597 65.1701 116.674 65.8635 117.661C67.2875 115.984 68.4928 114.149 69.4661 112.178C68.1328 111.56 67.3701 110.637 67.1915 109.426L67.1898 109.414L67.1898 109.413C67.185 109.378 67.1805 109.345 67.1781 109.309C67.1461 108.856 67.1781 108.408 67.2715 107.968L63.5675 109.97Z" fill="black"/>
</svg>
