<svg width="160" height="260" viewBox="0 0 160 260" fill="none" xmlns="http://www.w3.org/2000/svg">
<path d="M44.7524 78.6219C42.315 77.5233 40.819 75.0086 39.9657 72.4886C37.6084 65.5099 39.0964 57.5953 42.867 51.2673C46.6377 44.9393 52.491 40.0673 58.867 36.3579C63.803 33.4859 69.267 31.2086 74.9817 31.1233C80.6964 31.0379 86.6777 33.4779 89.7044 38.3233L93.4884 41.6566C98.2884 40.9233 102.963 43.5926 106.648 46.7553C111.182 50.6379 114.96 55.4913 117.094 61.0646C119.227 66.6379 119.63 72.9499 117.688 78.5926C115.923 83.7153 111.382 88.5286 105.979 88.1126" fill="black"/>
<path d="M71.771 106.731C71.643 103.953 71.6697 101.971 71.8457 99.1953C68.5177 100.555 64.8377 99.9953 61.4084 99.398C58.1204 98.8193 55.0457 97.6833 52.563 95.374C47.9044 91.0353 46.667 84.2673 47.3337 78.1767C47.6004 75.758 48.6297 71.7633 50.3497 67.3393L52.3924 64.438C54.3924 61.1473 56.8964 58.1073 60.059 55.9047C63.2217 53.702 67.091 52.406 70.9257 52.7287C71.9924 52.8193 73.0937 53.046 73.9897 53.646C74.8857 54.246 75.5524 55.2753 75.475 56.35L79.507 58.6753C81.2217 57.5047 83.7444 58.4087 84.9337 60.1233C86.123 61.838 86.2857 64.0353 86.2137 66.1127C86.1417 68.19 85.875 70.302 86.3604 72.3207C86.779 73.95 87.6564 75.4247 88.891 76.5687C90.1257 77.7127 91.6617 78.478 93.3177 78.7713L95.403 78.67C98.4617 75.982 100.262 75.622 102.27 76.6353C105.128 78.078 105.558 81.1287 104.936 83.6913C104.264 86.518 102.472 88.9553 100.174 90.6913C99.0137 91.5527 97.7497 92.27 96.4137 92.8247C95.7577 93.102 95.0884 93.3473 94.4084 93.5607C93.643 93.8033 92.8697 93.7953 92.5097 94.542C90.9257 97.8433 90.251 100.977 90.5604 104.625" fill="#FFD39F"/>
<path fill-rule="evenodd" clip-rule="evenodd" d="M44.1002 80.0743C44.3135 80.1676 44.5322 80.213 44.7509 80.213C45.048 80.213 45.3394 80.129 45.5908 79.9746C45.2929 86.779 47.3888 92.7403 51.4729 96.5444C53.9076 98.8084 57.0676 100.256 61.1343 100.974C63.6516 101.414 66.9156 101.982 70.1209 101.363C70.0676 102.651 70.0863 103.595 70.1716 105.472C70.2116 106.331 70.9183 107 71.7689 107C71.7929 107 71.8169 107 71.8463 106.99C72.7289 106.95 73.4116 106.2 73.3716 105.318C73.2436 102.566 73.2729 101.974 73.4436 99.2911C73.4783 98.7418 73.2276 98.2138 72.7796 97.8911C72.3316 97.5711 71.7503 97.5018 71.2409 97.7098C68.4303 98.8591 65.2489 98.4405 61.6863 97.8191C58.2009 97.2058 55.6489 96.0564 53.6543 94.2004C49.9236 90.7284 48.2009 84.9498 48.9236 78.3498C49.1423 76.3738 50.0223 72.5951 51.8409 67.9178C52.1609 67.0938 51.7529 66.1658 50.9289 65.8458C50.1049 65.5258 49.1769 65.9338 48.8569 66.7578C47.3257 70.6942 46.2106 74.619 45.8154 77.4209C45.6952 77.3139 45.5566 77.2234 45.4015 77.1543C43.2842 76.2103 42.1002 73.8156 41.4789 71.9676C39.4095 65.8636 40.4389 58.429 44.2309 52.0796C47.4895 46.6236 52.6816 41.797 59.6629 37.733C65.3429 34.4263 70.3589 32.7863 74.9962 32.7143C80.6042 32.6316 85.8362 35.1596 88.3375 39.1623C88.8069 39.9116 89.7936 40.141 90.5429 39.6716C91.2922 39.2023 91.5216 38.2156 91.0522 37.4663C87.9242 32.4556 81.7402 29.4103 74.9482 29.5143C69.7455 29.5943 64.2202 31.3756 58.0522 34.965C50.5989 39.3036 45.0229 44.509 41.4842 50.437C37.2202 57.581 36.0842 66.013 38.4495 72.989C39.6335 76.5063 41.5855 78.9543 44.1002 80.0743ZM106.628 89.729C106.366 89.729 106.108 89.7183 105.846 89.6996C105.173 89.6486 104.628 89.1854 104.44 88.5765C103.553 89.842 102.439 90.9948 101.137 91.9778C99.8627 92.9244 98.4813 93.7084 97.0253 94.3111C96.3347 94.6018 95.612 94.8684 94.884 95.0951C94.6627 95.1644 94.4493 95.2178 94.2627 95.2631C94.2476 95.2669 94.2319 95.2707 94.2158 95.2747C94.203 95.2778 94.1899 95.281 94.1767 95.2842C94.0778 95.3083 93.9705 95.3345 93.8947 95.3591C92.3613 98.5591 91.8867 99.7617 92.1533 102.898C92.228 103.778 91.5747 104.551 90.6947 104.626C90.6467 104.636 90.6013 104.639 90.556 104.639C89.7347 104.639 89.0333 104.01 88.964 103.172C88.6253 99.1564 89.4067 97.3191 91.0653 93.8631C91.6733 92.6018 92.8227 92.3244 93.5107 92.1591L93.6042 92.136C93.7189 92.1079 93.8273 92.0813 93.924 92.0498C94.5587 91.8498 95.1853 91.6204 95.7907 91.3644C97.0147 90.8577 98.164 90.2044 99.22 89.4204C101.348 87.8124 102.831 85.6498 103.38 83.3351C103.663 82.1698 104.047 79.3378 101.548 78.0764C100.457 77.5244 99.388 77.3084 96.4573 79.8844C95.8706 80.4004 95.0133 80.4085 94.4188 79.9453C94.1279 80.2209 93.7359 80.3853 93.3182 80.3853C93.2248 80.3853 93.1315 80.3773 93.0355 80.3613C91.0728 80.0119 89.2622 79.1106 87.8008 77.7559C86.3395 76.4012 85.3048 74.6626 84.8088 72.7319C84.3635 70.8759 84.4595 69.0706 84.5528 67.3213L84.5664 67.0598V67.0597V67.0596V67.0596V67.0595V67.0594V67.0593C84.5837 66.7289 84.6009 66.3997 84.6115 66.0706C84.6675 64.4813 84.6035 62.4733 83.6168 61.0493C82.9288 60.0573 81.3422 59.3719 80.4062 60.0119C79.6755 60.5106 78.6808 60.3213 78.1822 59.5933C77.6835 58.8626 77.8728 57.8679 78.6008 57.3693C80.6835 55.9479 84.2515 56.3533 86.2435 59.2279C87.7688 61.4253 87.8808 64.0999 87.8088 66.1853C87.7928 66.6226 87.7715 67.0599 87.7475 67.4973C87.6622 69.0866 87.5822 70.5853 87.9128 71.9639C88.2488 73.2759 88.9635 74.4759 89.9742 75.4146C90.9848 76.3533 92.2355 76.9746 93.5928 77.2173C93.8568 77.2642 94.0942 77.3736 94.2926 77.5276C94.3097 77.5111 94.3273 77.495 94.3453 77.4791C98.5533 73.7804 100.985 74.2071 102.988 75.2178C106.092 76.7858 107.433 80.1804 106.489 84.0791C106.289 84.9215 105.998 85.7468 105.622 86.5437C105.773 86.5102 105.93 86.4981 106.092 86.5103C110.676 86.865 114.628 82.5289 116.166 78.065C117.91 72.9956 117.705 67.1583 115.59 61.6303C113.686 56.6596 110.233 51.9316 105.598 47.9636C101.3 44.2756 97.3051 42.6836 93.7211 43.2303C92.8464 43.3636 92.0304 42.7636 91.8971 41.8916C91.7637 41.0196 92.3637 40.201 93.2357 40.0676C97.7851 39.3716 102.644 41.2116 107.678 45.5343C112.713 49.8463 116.484 55.017 118.577 60.4863C120.961 66.7156 121.18 73.3263 119.19 79.1076C118.182 82.0303 116.428 84.6996 114.246 86.625C111.929 88.6623 109.31 89.7263 106.628 89.729ZM51.5539 65.8194C51.8126 65.9768 52.0979 66.0514 52.3806 66.0514C52.9219 66.0514 53.4499 65.7768 53.7486 65.2834C55.8606 61.7981 58.2873 59.0914 60.9593 57.2354C64.0446 55.0941 67.5326 54.0648 70.7806 54.3394C71.8046 54.4248 72.562 54.6381 73.0926 54.9928C73.5726 55.3128 73.8979 55.8408 73.8686 56.2488C73.8046 57.1314 74.4686 57.8968 75.3486 57.9608C76.2339 58.0248 76.9966 57.3634 77.0606 56.4808C77.1726 54.9208 76.3113 53.2914 74.8659 52.3288C73.8606 51.6568 72.6473 51.2834 71.0499 51.1474C67.0659 50.8114 62.8339 52.0381 59.1379 54.6034C56.0926 56.7154 53.3619 59.7501 51.0153 63.6221C50.5566 64.3768 50.7993 65.3608 51.5539 65.8194ZM58.2467 74.695C59.2777 74.695 60.1134 73.6802 60.1134 72.4284C60.1134 71.1765 59.2777 70.1617 58.2467 70.1617C57.2158 70.1617 56.3801 71.1765 56.3801 72.4284C56.3801 73.6802 57.2158 74.695 58.2467 74.695ZM69.1806 73.0565C69.1806 74.3084 68.3449 75.3232 67.3139 75.3232C66.283 75.3232 65.4473 74.3084 65.4473 73.0565C65.4473 71.8047 66.283 70.7898 67.3139 70.7898C68.3449 70.7898 69.1806 71.8047 69.1806 73.0565Z" fill="black"/>
<path fill-rule="evenodd" clip-rule="evenodd" d="M90.4994 100C90.7394 102.693 91.8407 108.779 95.9394 107.867L96.3794 108.533C96.1794 112.712 94.0621 115.659 90.7447 118.712C87.3741 121.765 83.0754 123.6 78.5394 123.923C74.5394 124.216 70.2861 123.259 67.2941 120.576C64.3021 117.893 62.7287 114.176 64.7101 110.989H64.9981C65.8994 111.016 66.7287 110.544 67.4914 110.064C68.3531 109.52 70.0282 107.476 70.8131 106.519C70.9124 106.398 70.9974 106.294 71.0647 106.213C71.5765 105.55 71.894 103.701 72.1639 102.13C72.3159 101.245 72.4528 100.448 72.6007 100H90.4994ZM113.892 132.844C113.31 133.782 112.681 134.689 112.009 135.564C109.708 138.534 106.708 141.086 103.121 142.23L102.604 143.052C102.316 167.34 103.513 191.646 105.886 216.652C104.964 216.729 104.089 217.092 103.38 217.689C102.67 218.286 102.164 219.086 101.929 219.982C101.694 220.878 101.74 221.825 102.065 222.692C102.388 223.558 102.972 224.305 103.737 224.828C104.174 225.124 104.657 225.339 105.14 225.555L105.14 225.555L105.14 225.555C105.572 225.747 106.004 225.94 106.404 226.19C108.288 227.365 109.15 229.542 110.005 231.703C110.915 234 111.817 236.28 113.934 237.321C116.966 238.812 120.766 236.537 122.14 233.446C123.513 230.356 123.137 226.812 122.729 223.457C120.988 209.185 116.836 167.38 116.11 158.63L114.07 134.025L113.892 132.844ZM46.3761 135.42C46.4731 134.802 46.57 134.185 46.667 133.566L46.8244 133.044C48.5364 134.604 49.8537 136.545 50.667 138.713L47.651 196.462L46.3177 212.804L46.3113 212.882C46.0841 215.643 45.8563 218.411 45.2884 221.118C44.7844 223.337 44.1657 225.529 43.4377 227.684C42.9204 229.316 42.275 231.102 40.771 231.924C38.6137 233.097 35.7977 231.505 34.7444 229.286C33.7221 227.133 33.8753 224.639 34.0217 222.253C34.0262 222.181 34.0306 222.108 34.035 222.036C34.115 220.724 34.1524 219.324 33.4777 218.198C33.3281 217.954 33.1478 217.726 32.9672 217.498C32.8289 217.324 32.6906 217.149 32.5657 216.966C32.0804 216.246 31.811 215.404 31.7924 214.534C31.771 213.668 32.003 212.812 32.4537 212.07C32.9044 211.329 33.5604 210.732 34.3417 210.353C35.123 209.974 35.9977 209.825 36.859 209.929C38.7294 184.139 42.5133 160.031 46.3761 135.42Z" fill="#FFD39F"/>
<path fill-rule="evenodd" clip-rule="evenodd" d="M43.6579 130.845C46.8873 132.509 49.3859 135.312 50.6659 138.712L51.0979 140.269C49.2553 156.69 46.4233 172.986 42.6179 189.069C40.8126 191.178 41.8099 194.978 44.4179 195.93C46.085 196.54 47.8578 196.076 49.619 195.614C50.182 195.467 50.7438 195.319 51.3006 195.208C54.7808 194.516 58.3064 195.238 61.8358 195.961C65.2593 196.663 68.6864 197.365 72.0793 196.778C73.1002 196.601 74.0967 196.31 75.093 196.018C76.2019 195.693 77.3106 195.368 78.4526 195.202C81.9706 194.694 85.4475 195.713 88.8957 196.724C89.7524 196.976 90.6073 197.226 91.4606 197.453C95.7486 198.592 100.778 198.984 104.186 196.144L104.199 195.994C102.975 178.17 102.407 160.613 102.615 143.064L103.133 142.242C106.719 141.098 109.719 138.549 112.021 135.576C114.322 132.602 115.997 129.205 117.655 125.832C114.21 124.466 111.626 121.568 109.463 118.549C108.936 117.812 108.423 117.062 107.911 116.313C106.324 113.99 104.738 111.668 102.698 109.749C99.9993 107.21 96.2499 105.429 92.6206 106.176C92.0686 109.082 89.7379 110.949 87.3379 112.213C82.8259 114.568 77.6873 115.448 72.6473 114.73C71.4499 114.554 70.2419 114.28 69.2099 113.645C68.1779 113.01 67.3459 111.96 67.2339 110.754C67.0633 109.029 68.3353 107.536 69.1006 106.696C61.1059 109.6 54.3539 115.17 49.9833 122.469C49.654 123.023 49.3344 123.591 49.0138 124.161C47.5741 126.721 46.1137 129.318 43.6579 130.845ZM123.599 190.231C123.599 190.231 121.06 183.743 117.887 177.191L119.53 192.698C120.33 194.149 122.842 194.09 123.57 192.599C123.847 191.837 123.858 191.002 123.599 190.231Z" fill="black"/>
<path fill-rule="evenodd" clip-rule="evenodd" d="M102.647 140.718C102.119 140.888 101.739 141.306 101.596 141.803C101.242 142.092 101.014 142.53 101.008 143.023C100.808 159.911 101.312 177.182 102.546 195.355C100.124 196.964 96.5319 197.149 91.8482 195.906C91.0853 195.703 90.2978 195.473 89.5308 195.249L89.5305 195.249L89.5299 195.249L89.5298 195.249L89.3229 195.188C85.7549 194.14 82.0642 193.058 78.2002 193.618C76.9442 193.799 75.7629 194.146 74.6189 194.482C73.6402 194.77 72.7149 195.042 71.7842 195.202C68.6947 195.735 65.5146 195.082 62.1506 194.392L62.1469 194.391C58.5175 193.644 54.7655 192.874 50.9655 193.636C50.3644 193.755 49.7712 193.91 49.196 194.06L49.1762 194.066L49.1661 194.068C47.6045 194.475 46.131 194.859 44.9442 194.426C44.2135 194.156 43.6322 193.444 43.3895 192.519C43.1495 191.596 43.3069 190.695 43.8109 190.106C43.9762 189.911 44.0935 189.682 44.1522 189.434C48.4589 171.258 51.5442 152.612 53.3255 134.018C53.4109 133.14 52.7655 132.359 51.8855 132.274C51.0082 132.191 50.2269 132.834 50.1415 133.714C50.123 133.907 50.1043 134.101 50.0855 134.295C49.0721 132.905 47.8422 131.682 46.4368 130.673C48.1126 129.032 49.2747 126.965 50.4071 124.95L50.4071 124.95L50.4072 124.95L50.4101 124.945C50.7328 124.366 51.0394 123.822 51.3568 123.289C54.6234 117.833 59.5061 113.449 65.6181 110.444C65.6181 110.59 65.6261 110.742 65.6421 110.9C65.7914 112.513 66.8128 114.046 68.3728 115.006C69.7194 115.836 71.2421 116.14 72.4234 116.313C77.8261 117.084 83.2394 116.156 88.0848 113.628C91.1168 112.033 93.0634 110.014 93.8901 107.62C96.3914 107.47 99.2074 108.66 101.605 110.916C103.517 112.716 105.01 114.9 106.591 117.214L106.713 117.391L106.713 117.392C107.184 118.08 107.669 118.789 108.165 119.481C109.903 121.91 112.258 124.804 115.503 126.582C114.119 129.364 112.642 132.161 110.757 134.596C109.098 136.737 106.346 139.54 102.647 140.718ZM97.3469 199.916C99.3968 199.916 101.215 199.564 102.792 198.861C103.185 204.286 103.643 209.793 104.165 215.396C103.507 215.636 102.891 215.991 102.344 216.45C101.373 217.266 100.691 218.343 100.368 219.567C100.045 220.791 100.109 222.066 100.555 223.252C101 224.439 101.789 225.442 102.837 226.154C103.377 226.521 103.948 226.777 104.452 227.003L104.485 227.018L104.508 227.028C104.892 227.2 105.254 227.363 105.555 227.551C106.989 228.445 107.728 230.309 108.51 232.284L108.515 232.295L108.517 232.3C109.473 234.715 110.556 237.448 113.227 238.762C114.077 239.18 115.013 239.391 115.979 239.391C116.784 239.391 117.611 239.242 118.437 238.943C120.656 238.138 122.637 236.282 123.608 234.095C125.202 230.504 124.715 226.491 124.323 223.265L124.323 223.265L124.323 223.263C123.598 217.326 122.447 206.536 121.3 195.349C121.369 195.352 121.439 195.354 121.509 195.354H121.618C123.109 195.317 124.407 194.53 125.007 193.303C125.031 193.253 125.055 193.202 125.074 193.149C125.474 192.05 125.487 190.834 125.117 189.725C125.113 189.712 125.109 189.699 125.105 189.687C125.1 189.675 125.096 189.662 125.09 189.65L125.084 189.634C124.942 189.275 122.468 183.009 119.426 176.7C118.614 168.442 117.965 161.585 117.709 158.498L115.669 133.892C115.652 133.683 115.595 133.488 115.506 133.311C116.84 131.12 117.966 128.832 119.068 126.593L119.068 126.593L119.068 126.593L119.093 126.542C119.29 126.14 119.309 125.676 119.149 125.26C118.986 124.844 118.661 124.513 118.245 124.348C114.951 123.041 112.517 120.065 110.765 117.62C110.247 116.897 109.73 116.142 109.231 115.412C107.623 113.057 105.959 110.622 103.794 108.585C100.33 105.326 96.0341 103.841 92.2981 104.609C91.6608 104.74 91.1674 105.241 91.0474 105.878C90.6821 107.801 89.2234 109.412 86.5968 110.796C82.3541 113.006 77.6074 113.822 72.8794 113.148C71.9541 113.012 70.8928 112.801 70.0474 112.281C69.3514 111.852 68.8821 111.209 68.8261 110.596C68.7648 109.956 69.1194 109.518 69.8874 108.74C70.0394 108.585 70.1861 108.436 70.3194 108.289C70.8154 107.745 70.8741 106.932 70.4661 106.321C70.0581 105.71 69.2848 105.457 68.5914 105.708C59.8661 108.878 52.9568 114.388 48.6101 121.649C48.2714 122.22 47.9408 122.806 47.6208 123.374C46.2341 125.844 44.9221 128.174 42.8154 129.484C42.3248 129.788 42.0368 130.332 42.0608 130.908C42.0848 131.484 42.4154 132.001 42.9274 132.265C43.6784 132.652 44.3842 133.107 45.0376 133.622L44.7944 135.174C40.9278 159.793 37.2744 183.073 35.3678 208.372C34.7704 208.468 34.1891 208.649 33.6398 208.916C32.5811 209.43 31.6984 210.233 31.0851 211.238C30.4718 212.244 30.1624 213.398 30.1891 214.574C30.2158 215.753 30.5784 216.889 31.2424 217.873C31.3998 218.1 31.5651 218.31 31.7118 218.494L31.7195 218.504C31.8713 218.695 32.0146 218.876 32.1038 219.022C32.5331 219.737 32.5064 220.809 32.4371 221.94L32.4238 222.156L32.4233 222.163C32.2714 224.644 32.0995 227.451 33.2984 229.974C34.0984 231.662 35.6851 233.065 37.4371 233.636C38.0184 233.825 38.6051 233.918 39.1784 233.918C40.0104 233.918 40.8158 233.721 41.5384 233.326C43.6958 232.148 44.4878 229.67 44.9598 228.18C45.7011 225.988 46.3358 223.732 46.8504 221.473C46.8531 221.465 46.8531 221.454 46.8558 221.446C47.4424 218.641 47.6798 215.78 47.9064 213.012L49.1817 197.371C49.4546 197.303 49.7232 197.233 49.9869 197.164C50.5469 197.018 51.0749 196.882 51.5949 196.778C54.7602 196.143 58.0349 196.815 61.5042 197.527C65.0135 198.25 68.6429 198.994 72.3309 198.356C73.4207 198.168 74.4617 197.863 75.4664 197.569L75.5202 197.554L75.5609 197.542C76.6312 197.229 77.6424 196.933 78.6589 196.786C81.8295 196.327 85.0322 197.266 88.4215 198.26L88.5586 198.3C89.3668 198.536 90.2016 198.779 91.0269 198.999C93.3282 199.61 95.4375 199.916 97.3469 199.916ZM45.9347 197.817C45.2462 197.799 44.5487 197.688 43.8509 197.434C42.1309 196.804 40.8029 195.271 40.2962 193.332C40.1723 192.858 40.1031 192.381 40.0866 191.91C39.4524 197.868 38.9013 203.897 38.4558 210.046C38.4238 210.484 38.2158 210.886 37.8771 211.164C37.5411 211.441 37.1038 211.572 36.6691 211.518C36.1091 211.452 35.5464 211.548 35.0398 211.793C34.5331 212.038 34.1091 212.422 33.8184 212.905C33.5251 213.385 33.3784 213.937 33.3891 214.5C33.4024 215.062 33.5758 215.606 33.8904 216.073C33.9784 216.201 34.0958 216.35 34.2184 216.505L34.2508 216.546C34.44 216.786 34.6506 217.054 34.8398 217.364C35.7438 218.873 35.7251 220.548 35.6291 222.132L35.6158 222.35C35.4798 224.548 35.3411 226.82 36.1864 228.598C36.6184 229.505 37.4958 230.289 38.4264 230.59C38.8371 230.724 39.4451 230.82 40.0051 230.516C40.9571 229.996 41.4691 228.59 41.9118 227.198C41.9144 227.188 41.9171 227.18 41.9224 227.169C42.6291 225.078 43.2344 222.929 43.7251 220.774C44.2718 218.166 44.4984 215.412 44.7171 212.748L45.9347 197.817ZM40.2738 190.176C42.246 172.146 44.9641 154.735 47.808 136.62C48.3571 137.443 48.8152 138.331 49.1701 139.273C49.2487 139.481 49.366 139.663 49.5107 139.815C47.6991 156.121 44.8829 172.419 41.1202 188.359C40.7292 188.902 40.4449 189.518 40.2738 190.176ZM121.538 192.154C121.285 192.161 121.051 192.082 120.954 191.962C120.775 190.204 120.597 188.447 120.422 186.709C121.367 188.942 121.987 190.505 122.093 190.775C122.213 191.154 122.215 191.565 122.101 191.946C122.005 192.063 121.781 192.149 121.538 192.154ZM104.202 143.571C107.304 142.445 110.23 140.276 112.736 137.247L114.52 158.764C115.272 167.852 119.419 209.506 121.144 223.652C121.581 227.258 121.827 230.22 120.68 232.799C120.059 234.196 118.749 235.428 117.341 235.938C116.659 236.186 115.637 236.375 114.643 235.887C113.083 235.12 112.315 233.183 111.501 231.129L111.496 231.116L111.495 231.113C110.599 228.85 109.585 226.289 107.256 224.836C106.76 224.527 106.248 224.298 105.795 224.095C105.363 223.903 104.955 223.722 104.637 223.506C104.141 223.167 103.765 222.692 103.555 222.13C103.344 221.567 103.315 220.962 103.467 220.38C103.619 219.799 103.941 219.29 104.403 218.903C104.864 218.516 105.421 218.284 106.021 218.236C106.448 218.202 106.843 217.996 107.117 217.668C107.392 217.34 107.523 216.916 107.483 216.49C105.021 190.55 103.949 166.691 104.202 143.571Z" fill="black"/>
</svg>
