<svg width="160" height="260" viewBox="0 0 160 260" fill="none" xmlns="http://www.w3.org/2000/svg">
<path d="M95.6372 98.5115C96.5892 99.9275 97.5785 101.384 98.9945 102.338C100.411 103.293 102.376 103.64 103.819 102.728C105.419 101.712 106.421 99.2608 108.304 99.5275C109.048 99.6368 109.637 100.186 110.197 100.696C111.763 102.144 113.573 103.562 115.704 103.696C117.835 103.829 120.171 102.042 119.8 99.9408C119.669 99.1995 119.232 98.5168 119.24 97.7648C119.253 96.4528 120.573 95.5622 121.144 94.3835C122.515 91.6022 119.603 87.9648 121.197 85.3035C121.688 84.4902 122.517 83.9515 123.229 83.3222C126.765 80.1888 127.099 74.1008 123.923 70.5995C122.747 69.3035 121.149 68.2902 120.523 66.6555C120.133 65.6395 120.176 64.5222 120.195 63.4315C120.296 57.2022 119.328 50.8262 116.36 45.3462C113.392 39.8662 109.597 38.3568 103.48 37.1755L98.6985 34.2048C97.2052 31.8315 94.3732 30.6902 91.6638 29.9702C83.1305 27.7088 72.4745 25.2662 64.3919 28.7995C56.3092 32.3328 49.5279 38.8928 46.0239 46.9888C44.2159 51.1675 43.1972 55.8235 40.2452 59.2902C37.7279 62.2475 34.0692 64.0075 31.3359 66.7568C28.6025 69.5062 26.9865 74.2235 29.4879 77.1942C29.9945 77.7968 30.6559 78.3062 30.9439 79.0422C31.9332 81.5675 28.1359 83.1915 26.9119 85.6128C25.7679 87.8795 27.1199 90.6288 28.8399 92.4982C30.5599 94.3675 32.7332 95.9648 33.6719 98.3195C34.3679 100.069 34.4159 102.264 35.9279 103.386C37.6212 104.645 40.0425 103.744 42.1012 104.21C44.1599 104.677 45.6372 106.461 47.2425 107.856C48.8479 109.25 51.2292 110.333 53.0319 109.205C53.9919 108.602 54.5438 107.496 55.4985 106.888C57.4212 105.661 59.8772 106.901 62.0505 107.592C64.2239 108.282 67.4958 107.562 67.3652 105.285" fill="black"/>
<path d="M90.5702 104.644C90.2662 100.994 90.9436 97.8631 92.5329 94.5618C92.8929 93.8151 93.6662 93.8231 94.4316 93.5804C95.1116 93.3671 95.7782 93.1218 96.4369 92.8444C97.7729 92.2898 99.0369 91.5724 100.197 90.7111C102.496 88.9751 104.288 86.5378 104.96 83.7111C105.57 81.1484 105.141 78.0978 102.293 76.6551C100.285 75.6418 98.4849 76.0018 95.4262 78.6898L94.5196 76.5324C95.4742 71.8578 95.8636 67.0818 95.6796 62.3138C95.5942 60.0738 92.5596 56.5538 90.4876 55.6978L86.8982 52.0444C85.0316 48.3111 71.5302 47.1084 67.5249 48.2684C60.5702 50.5271 58.5516 51.7218 56.5382 54.4311C54.5249 57.1404 53.4422 60.4124 52.3942 63.6204L50.3489 67.3324C48.6289 71.7564 47.5942 75.7511 47.3329 78.1698C46.6742 84.2604 47.9036 91.0284 52.5622 95.3671C55.0449 97.6764 58.1196 98.8124 61.4076 99.3911C64.8369 99.9964 68.5169 100.548 71.8449 99.1884C71.6689 101.964 71.6422 104.212 71.7702 106.991" fill="#FFD39F"/>
<path fill-rule="evenodd" clip-rule="evenodd" d="M46.1903 109.064C47.5877 110.277 49.4757 111.28 51.3477 111.28C52.2117 111.28 53.073 111.066 53.8757 110.546C54.5557 110.12 55.041 109.57 55.4677 109.085L55.483 109.068C55.7866 108.725 56.0724 108.402 56.353 108.224C57.3023 107.618 58.817 108.149 60.4197 108.714C60.793 108.848 61.1797 108.981 61.561 109.104C63.6117 109.757 66.0623 109.421 67.5183 108.29C68.5183 107.514 69.0277 106.41 68.9583 105.181C68.9077 104.298 68.153 103.624 67.2703 103.674C66.3877 103.725 65.713 104.48 65.7637 105.362C65.7717 105.49 65.761 105.602 65.5557 105.76C64.937 106.242 63.5503 106.376 62.5317 106.053C62.1877 105.944 61.8383 105.821 61.4837 105.696L61.4765 105.693C59.4351 104.976 56.8944 104.084 54.6357 105.525C53.9754 105.945 53.5008 106.483 53.0824 106.957L53.0703 106.97C52.7583 107.325 52.465 107.658 52.1797 107.837C51.1717 108.469 49.4997 107.69 48.289 106.637C47.9836 106.372 47.6831 106.09 47.3647 105.792L47.3646 105.792L47.3103 105.741L47.3017 105.733C45.9811 104.498 44.4872 103.1 42.4517 102.64C41.4543 102.413 40.4437 102.442 39.553 102.469L39.5413 102.469H39.5412C38.4289 102.501 37.4656 102.529 36.8783 102.09C36.2788 101.643 36.0254 100.687 35.7324 99.5813L35.7317 99.5784C35.5717 98.9678 35.4037 98.3384 35.1557 97.7144C34.3397 95.6717 32.8437 94.2104 31.3957 92.7971L31.2452 92.6493L31.245 92.649C30.812 92.2237 30.3993 91.8181 30.0143 91.3997C28.7503 90.0264 27.553 87.8717 28.337 86.3197C28.673 85.6557 29.3903 84.9571 30.0837 84.2824C31.4997 82.9064 33.4383 81.0184 32.4303 78.4451C32.1103 77.6291 31.5557 77.0504 31.1103 76.5864C30.961 76.4317 30.8223 76.2851 30.7077 76.1491C28.873 73.9731 30.193 70.1571 32.465 67.8717C33.6057 66.7231 34.9328 65.7529 36.3399 64.7242L36.3423 64.7224L36.3441 64.7211L36.3442 64.7211C38.1196 63.4228 39.9535 62.0818 41.457 60.3144C43.7393 57.6353 44.9285 54.387 46.0791 51.2442L46.0791 51.2441L46.0837 51.2317L46.1221 51.1271C46.5527 49.9543 46.9969 48.7447 47.4863 47.6131C50.7743 40.0157 57.169 33.6877 65.0277 30.2531C72.513 26.9811 82.489 29.1837 91.249 31.5064C93.241 32.0371 96.0383 32.9784 97.3397 35.0477C97.809 35.7944 98.7957 36.0184 99.545 35.5491C100.292 35.0797 100.516 34.0904 100.046 33.3437C98.145 30.3224 94.5823 29.0851 92.0677 28.4157C82.785 25.9571 72.1743 23.6397 63.745 27.3251C55.153 31.0824 48.1557 38.0157 44.5503 46.3464C44.009 47.5971 43.5343 48.8904 43.0783 50.1384C41.9743 53.1544 40.9317 56.0024 39.0197 58.2477C37.765 59.7225 36.1674 60.8913 34.4787 62.1266L34.4787 62.1267L34.4517 62.1464C33.0063 63.2024 31.513 64.2957 30.193 65.6237C28.5743 67.2504 27.3663 69.4051 26.881 71.5304C26.2943 74.0957 26.7823 76.4691 28.2543 78.2184C28.4201 78.4183 28.5881 78.5937 28.7502 78.7629L28.7502 78.7629L28.7957 78.8104C29.0863 79.1117 29.3583 79.3944 29.4463 79.6211C29.6463 80.1331 29.1397 80.7411 27.8463 81.9997L27.8359 82.0099C26.9984 82.8261 26.0493 83.7511 25.4757 84.8877C24.4783 86.8611 24.529 90.1811 27.6543 93.5784C28.1423 94.1091 28.657 94.6131 29.1557 95.0984L29.1627 95.1053L29.1628 95.1054C30.4242 96.3375 31.6154 97.5011 32.177 98.9091C32.3524 99.3529 32.488 99.8628 32.6315 100.402L32.6315 100.402L32.633 100.408C33.0223 101.882 33.465 103.554 34.9663 104.669C36.4459 105.768 38.1379 105.72 39.6343 105.677L39.6437 105.677L39.6622 105.677C40.426 105.655 41.1445 105.636 41.7423 105.77C42.937 106.042 43.9983 107.034 45.121 108.088L45.2368 108.196L45.2369 108.196C45.5467 108.484 45.8632 108.779 46.1903 109.064ZM115.6 105.305C115.71 105.313 115.822 105.316 115.934 105.316C117.534 105.316 119.158 104.593 120.238 103.393C121.203 102.316 121.606 100.998 121.374 99.6838C121.296 99.2464 121.163 98.8651 121.043 98.5291C120.942 98.2438 120.838 97.9504 120.838 97.8011C120.84 97.5212 121.203 97.0654 121.555 96.6229L121.555 96.6228L121.555 96.6224C121.899 96.1904 122.288 95.6998 122.579 95.1104C123.497 93.2469 123.061 91.3064 122.674 89.5912L122.672 89.5824L122.671 89.5749C122.354 88.1701 122.081 86.9596 122.568 86.1477C122.792 85.7771 123.227 85.4198 123.688 85.0438C123.891 84.8784 124.094 84.7131 124.288 84.5397C126.291 82.7717 127.531 80.1024 127.691 77.2171C127.854 74.3264 126.912 71.5291 125.11 69.5424C124.702 69.0944 124.27 68.6918 123.851 68.3051C123.064 67.5771 122.32 66.8864 122.019 66.1024C121.764 65.4325 121.779 64.5691 121.795 63.6576L121.795 63.6491L121.798 63.4757C121.918 56.1077 120.563 49.7557 117.771 44.6011C114.579 38.7077 110.392 36.8971 103.787 35.6224C102.918 35.4544 102.08 36.0224 101.912 36.8891C101.744 37.7557 102.312 38.5957 103.179 38.7637C109.072 39.9024 112.339 41.2944 114.955 46.1238C117.483 50.7904 118.71 56.6091 118.598 63.4198L118.595 63.5877L118.595 63.6064V63.6066C118.576 64.7273 118.555 65.9974 119.032 67.2438C119.6 68.7238 120.704 69.7477 121.678 70.6491C122.064 71.0064 122.427 71.3424 122.742 71.6891C123.971 73.0464 124.611 74.9958 124.499 77.0384C124.387 79.0758 123.539 80.9344 122.174 82.1397C122.05 82.2498 121.921 82.3553 121.793 82.4608C121.75 82.4959 121.707 82.5311 121.664 82.5664C121.043 83.0731 120.339 83.6491 119.827 84.4971C118.678 86.4117 119.142 88.4678 119.552 90.2838C119.851 91.6011 120.131 92.8438 119.712 93.6918C119.574 93.9744 119.32 94.2944 119.054 94.6304C118.43 95.4118 117.656 96.3878 117.643 97.7798C117.643 98.4969 117.859 99.1048 118.032 99.5928L118.032 99.5931L118.041 99.6168C118.12 99.8455 118.196 100.063 118.227 100.233C118.302 100.652 118.067 101.017 117.859 101.252C117.363 101.804 116.52 102.158 115.808 102.113C114.166 102.009 112.603 100.75 111.283 99.5318L111.251 99.5024L111.244 99.4961C110.61 98.9153 109.745 98.1232 108.531 97.9584C106.488 97.6704 105.171 99.1291 104.211 100.196C103.774 100.681 103.36 101.14 102.966 101.39C102.067 101.961 100.742 101.601 99.891 101.028C98.7117 100.232 97.8274 98.915 96.9728 97.6423L96.9683 97.6358C96.475 96.9024 95.4803 96.7051 94.747 97.1984C94.0137 97.6918 93.8163 98.6864 94.3097 99.4198L94.3246 99.442C95.3023 100.895 96.409 102.54 98.1017 103.681C100.227 105.113 102.808 105.276 104.68 104.092C105.445 103.604 106.05 102.933 106.585 102.339L106.587 102.337L106.599 102.324C107.152 101.709 107.723 101.076 108.088 101.129C108.318 101.158 108.752 101.556 109.074 101.852L109.083 101.86L109.11 101.884C110.835 103.481 112.958 105.137 115.6 105.305ZM52.3922 65.225C52.2269 65.225 52.0589 65.1983 51.8962 65.145C51.0562 64.8703 50.5976 63.9663 50.8722 63.1263C51.8962 59.9876 53.0589 56.4303 55.2536 53.4783C56.6696 51.5716 58.3042 50.2276 60.7149 48.9796C64.9922 46.769 69.8936 45.8356 74.8909 46.2783C78.3229 46.5823 86.5069 47.6836 88.3282 51.329C88.7229 52.1183 88.4029 53.081 87.6136 53.4756C86.8242 53.8703 85.8616 53.5503 85.4669 52.761C84.8669 51.561 80.6402 50.001 74.6082 49.465C70.2162 49.0756 65.9202 49.8916 62.1842 51.8223C60.2056 52.8436 58.9416 53.8756 57.8216 55.3876C55.9392 57.9206 54.9099 61.0719 53.9154 64.1168L53.9149 64.1183C53.6936 64.7957 53.0669 65.225 52.3922 65.225ZM97.2946 62.2641C97.4675 66.8531 97.1203 71.4655 96.262 75.9843C99.3325 73.9314 101.311 74.3682 102.988 75.2146C106.092 76.7826 107.433 80.1773 106.489 84.076C105.769 87.1053 103.868 89.9133 101.137 91.9746C99.8627 92.9213 98.4813 93.7053 97.0253 94.308C96.3347 94.5986 95.612 94.8653 94.884 95.092C94.6627 95.1613 94.4493 95.2146 94.2627 95.26C94.2359 95.2666 94.2074 95.2736 94.1782 95.2807L94.1767 95.2811C94.0778 95.3052 93.9705 95.3314 93.8947 95.356C92.3613 98.556 91.8867 99.7586 92.1533 102.895C92.228 103.775 91.5747 104.548 90.6947 104.623C90.6467 104.633 90.6013 104.636 90.556 104.636C89.7347 104.636 89.0333 104.007 88.964 103.169C88.6253 99.1533 89.4067 97.316 91.0653 93.86C91.6733 92.5986 92.8227 92.3213 93.5107 92.156L93.6043 92.1328L93.6044 92.1328C93.719 92.1047 93.8273 92.0782 93.924 92.0466C94.5587 91.8466 95.1853 91.6173 95.7907 91.3613C97.0147 90.8546 98.164 90.2013 99.22 89.4173C101.348 87.8093 102.831 85.6466 103.38 83.332C103.663 82.1666 104.047 79.3346 101.548 78.0733C100.457 77.5213 99.388 77.3053 96.4573 79.8813C95.7933 80.4653 94.7827 80.3986 94.1987 79.7346C93.7719 79.2494 93.6926 78.579 93.94 78.0253C93.2245 77.7476 92.7931 76.9881 92.9533 76.2135C93.8866 71.6695 94.2706 67.0135 94.0946 62.3761C94.0466 60.9281 91.5693 57.8721 89.8893 57.1788C89.0733 56.8401 88.684 55.9068 89.0226 55.0881C89.3613 54.2721 90.2946 53.8828 91.1133 54.2215C92.364 54.7388 93.852 55.9575 95.0893 57.4801C95.8867 58.4615 97.2306 60.3841 97.2946 62.2641ZM58.2467 74.6919C59.2777 74.6919 60.1134 73.6771 60.1134 72.4253C60.1134 71.1734 59.2777 70.1586 58.2467 70.1586C57.2158 70.1586 56.3801 71.1734 56.3801 72.4253C56.3801 73.6771 57.2158 74.6919 58.2467 74.6919ZM69.179 73.0534C69.179 74.3052 68.3433 75.3201 67.3124 75.3201C66.2814 75.3201 65.4457 74.3052 65.4457 73.0534C65.4457 71.8015 66.2814 70.7867 67.3124 70.7867C68.3433 70.7867 69.179 71.8015 69.179 73.0534ZM70.1716 105.469C70.2116 106.328 70.9183 106.997 71.7689 106.997C71.7929 106.997 71.8169 106.997 71.8463 106.987C72.7289 106.947 73.4116 106.197 73.3716 105.315C73.2436 102.563 73.2729 101.971 73.4436 99.288C73.4783 98.7387 73.2276 98.2107 72.7796 97.888C72.3316 97.568 71.7503 97.4987 71.2409 97.7067C68.4303 98.856 65.2489 98.4373 61.6863 97.816C58.2009 97.2027 55.6489 96.0533 53.6543 94.1973C49.9236 90.7253 48.2009 84.9467 48.9236 78.3467C49.1423 76.3707 50.0223 72.592 51.8409 67.9147C52.1609 67.0907 51.7529 66.1627 50.9289 65.8427C50.1049 65.5227 49.1769 65.9307 48.8569 66.7547C47.2169 70.9707 46.0543 75.1733 45.7423 77.9973C44.9103 85.616 46.9983 92.3733 51.4729 96.5413C53.9076 98.8053 57.0676 100.253 61.1343 100.971C63.6516 101.411 66.9156 101.979 70.1209 101.36C70.0676 102.648 70.0863 103.592 70.1716 105.469Z" fill="black"/>
<path d="M90.499 100C90.739 102.693 91.8403 108.779 95.939 107.867L96.379 108.533C96.179 112.712 94.0617 115.659 90.7443 118.712C87.3737 121.765 83.075 123.6 78.539 123.923C74.539 124.216 70.2857 123.259 67.2937 120.576C64.3017 117.893 62.7283 114.176 64.7097 110.989H64.9977C65.899 111.016 66.7283 110.544 67.491 110.064C68.4617 109.451 69.2883 106.696 69.8883 105.973C70.6883 104.936 72.187 101.243 72.5977 100H90.499V100Z" fill="#FFD39F"/>
<path d="M117.955 174.361C123.861 192.649 127.971 206.676 133.368 224.326C133.635 225.228 134.701 228.414 134.208 229.212C133.877 229.745 133.323 230.086 132.781 230.393C129.821 232.076 126.589 232.217 123.251 232.889L110.859 235.356C93.1227 238.537 75.3227 239.316 57.5547 236.318L54.2027 235.926L42.736 233.732C41.7014 233.534 40.5654 233.27 39.96 232.398C39.4587 231.684 39.4614 230.742 39.4987 229.87C39.6507 226.404 40.0507 222.964 40.4507 219.521L43.6054 192.321C44.9574 180.668 46.312 168.996 48.1547 157.414L48.0267 157.374C44.9254 156.308 41.872 155.124 38.816 153.937C38.3947 153.817 38.016 153.582 37.7174 153.262C37.1174 152.489 37.632 151.38 38.1467 150.545C42.6907 143.158 46.576 135.388 49.7627 127.321C52.1947 121.161 54.7334 114.23 60.6694 111.294L73.0747 112.71L96.416 106.398C100.499 107.492 103.848 110.42 106.597 113.633C110.072 117.694 112.827 122.321 114.747 127.31C118.995 138.358 118.997 150.812 124.12 161.484C121.691 162.204 119.224 162.782 116.731 163.222L117.955 174.361Z" fill="black"/>
<path fill-rule="evenodd" clip-rule="evenodd" d="M74.6121 122.131C73.3614 119.681 72.6121 117.006 72.4121 114.262C79.1534 108.379 86.0254 105.115 93.1748 102.686C93.6174 102.537 94.2228 102.443 94.4574 102.849C94.5454 103.049 94.5668 103.273 94.5214 103.489L94.0441 107.721C93.8201 109.702 93.5721 111.755 92.5321 113.459C91.4334 115.265 89.5721 116.454 87.7321 117.499C84.1241 119.55 80.3481 121.294 76.4468 122.71C76.0148 122.867 75.5054 123.014 75.1134 122.774C74.8921 122.609 74.7188 122.387 74.6121 122.131ZM68.6951 108.797C68.5564 107.186 69.3564 105.656 70.1324 104.237C70.5991 104.205 70.1004 103.37 69.4817 103.29C68.8631 103.21 68.2897 103.624 67.7964 104.01C65.7697 105.592 63.7964 107.264 62.1004 109.194C61.7671 109.469 61.5297 109.84 61.4151 110.256C61.3031 110.672 61.3191 111.112 61.4657 111.517C62.1084 114.432 63.1431 117.245 64.5404 119.882C64.7644 120.306 65.1484 120.792 65.6071 120.661C65.7991 120.586 65.9644 120.458 66.0871 120.293L69.3884 116.56C70.6577 115.128 72.0071 113.488 71.9164 111.576C70.3564 111.997 68.8337 110.408 68.6951 108.797Z" fill="white"/>
<path fill-rule="evenodd" clip-rule="evenodd" d="M39.5091 229.882C39.6611 226.421 40.0611 222.976 40.4611 219.533L43.6185 192.344C44.9518 180.704 46.3118 169.042 48.1518 157.469L48.0291 157.397C45.8505 156.65 43.6958 155.842 41.5465 155.016L41.4371 155.549L37.4665 202.821C37.3038 204.744 37.0691 206.856 35.5865 208.154C35.0088 208.66 34.2733 209.001 33.5479 209.338C32.4114 209.865 31.2996 210.381 30.8585 211.501C30.2922 212.94 31.1877 214.269 32.1087 215.635C32.5972 216.36 33.0928 217.096 33.3811 217.864C33.9393 219.336 33.7111 220.969 33.4852 222.585C33.2255 224.442 32.9689 226.278 33.9145 227.821C35.0025 229.597 37.2585 230.205 39.3091 230.573L39.5091 229.882ZM107.646 216.573C105.499 199.259 104.179 181.896 103.683 164.483L116.846 164.072C117.489 169.884 118.132 175.696 118.776 181.51C120.312 195.388 121.849 209.27 123.384 223.157C123.787 226.789 124.102 230.789 121.99 233.773C121.179 234.917 120.067 235.816 118.776 236.363C117.486 236.909 116.07 237.088 114.683 236.875C113.296 236.661 111.998 236.067 110.931 235.157C109.864 234.248 109.072 233.061 108.643 231.725C108.487 231.238 108.378 230.732 108.269 230.227C108.042 229.177 107.817 228.135 107.179 227.291C106.507 226.399 105.479 225.869 104.458 225.344C103.291 224.744 102.135 224.149 101.536 223.024C100.707 221.459 101.384 219.411 102.72 218.259C104.056 217.107 105.883 216.683 107.646 216.573Z" fill="#FFD39F"/>
<path fill-rule="evenodd" clip-rule="evenodd" d="M75.5994 124.505C75.1807 124.505 74.7221 124.414 74.2794 124.142C74.2394 124.118 74.2021 124.092 74.1647 124.065C73.7274 123.742 73.3834 123.31 73.1647 122.814C72.2543 121.023 71.5983 119.14 71.2031 117.191C71.0319 117.391 70.8676 117.577 70.7167 117.747L67.45 121.437C67.1567 121.811 66.7674 122.101 66.3247 122.275C66.274 122.293 66.2234 122.312 66.1727 122.325C66.0527 122.355 65.8447 122.4 65.5834 122.4C64.9407 122.4 63.986 122.125 63.258 120.749C62.0093 118.394 61.0381 115.901 60.3611 113.323C55.9057 116.129 53.6888 121.76 51.5413 127.217L51.2613 127.926C48.0506 136.057 44.0986 143.955 39.52 151.401C39.216 151.894 39.112 152.185 39.0773 152.334C39.136 152.369 39.2 152.398 39.2693 152.417C39.3173 152.43 39.3626 152.446 39.408 152.462L39.472 152.486L39.5148 152.503C41.9304 153.44 44.4126 154.404 46.8954 155.292C48.0394 148.302 49.3699 141.338 50.989 134.467C51.1916 133.608 52.0503 133.072 52.9143 133.277C53.773 133.48 54.3063 134.341 54.1036 135.203C49.7298 153.769 47.4713 173.104 45.2869 191.805L45.2796 191.867L45.2023 192.533L42.0476 219.733L42.046 219.748C41.6572 223.101 41.2554 226.565 41.1036 229.968C41.085 230.392 41.0503 231.187 41.277 231.507C41.5436 231.885 42.493 232.077 43.0583 232.189L52.341 233.965C53.2076 234.131 53.7783 234.971 53.6103 235.837C53.469 236.6 52.7996 237.133 52.045 237.133C51.9463 237.133 51.845 237.123 51.7436 237.104L42.445 235.325C41.3943 235.115 39.6636 234.765 38.661 233.341C38.3485 232.896 38.158 232.424 38.045 231.947C35.9275 231.479 33.7787 230.647 32.5567 228.652C31.3061 226.618 31.6234 224.348 31.9034 222.348C32.1087 220.89 32.3007 219.511 31.8901 218.423C31.6752 217.846 31.2643 217.233 30.8281 216.583L30.7887 216.524L30.7886 216.524C29.77 215.012 28.5034 213.132 29.3754 210.911C30.0567 209.192 31.6359 208.455 32.9039 207.864L32.9114 207.86C33.5487 207.564 34.1487 207.284 34.5407 206.943C35.5141 206.095 35.7274 204.444 35.8767 202.682L39.7936 156.051C39.2972 155.858 38.8032 155.666 38.312 155.475L38.3066 155.473C37.6373 155.265 37.032 154.886 36.5546 154.371C36.5226 154.337 36.4933 154.302 36.464 154.265C35.552 153.089 35.664 151.563 36.7946 149.726C41.2746 142.441 45.1413 134.71 48.2853 126.753L48.5626 126.046C50.9733 119.918 53.7066 112.974 59.9706 109.878C59.9964 109.865 60.0224 109.853 60.0485 109.842C60.2613 109.223 60.6148 108.659 61.0767 108.197C62.8634 106.243 64.8394 104.445 66.954 102.853C67.5034 102.427 68.5114 101.645 69.826 101.821C70.8607 101.96 72.3407 103 72.298 104.32C72.282 104.8 72.0794 105.224 71.7514 105.523L71.7513 105.523C71.674 105.656 71.5967 105.79 71.5194 105.925L71.5153 105.933C70.9405 106.928 70.3462 107.957 70.4154 108.789C70.4474 109.176 70.7274 109.613 72.522 110.173C73.031 110.332 73.4178 110.729 73.5727 111.222C79.0113 106.921 85.0147 103.772 92.6634 101.174C94.3141 100.617 95.3887 101.262 95.8447 102.049C95.8741 102.102 95.9007 102.156 95.9247 102.209C96.1354 102.692 96.1967 103.214 96.1061 103.732L95.9779 104.871C96.248 104.793 96.5421 104.785 96.8334 104.864C100.639 105.882 104.233 108.416 107.817 112.605C111.42 116.816 114.255 121.576 116.244 126.749C118.215 131.877 119.3 137.317 120.348 142.578L120.356 142.62C121.641 149.066 122.855 155.156 125.567 160.805C125.769 161.229 125.777 161.717 125.585 162.146C125.393 162.576 125.025 162.898 124.577 163.032C122.582 163.617 120.575 164.113 118.558 164.518L119.641 174.391C123.812 187.324 127.107 198.199 130.582 209.665L130.583 209.669L130.584 209.672L130.584 209.672L130.696 210.042C132.035 214.466 133.421 219.04 134.896 223.864C134.928 223.97 134.963 224.085 135.005 224.218C135.904 227.141 136.259 228.938 135.568 230.058C135.04 230.912 134.259 231.4 133.568 231.792C131.087 233.201 128.47 233.631 125.939 234.047L125.938 234.047L125.933 234.048L125.845 234.062L125.844 234.062L125.844 234.062C125.093 234.186 124.322 234.312 123.565 234.466C123.52 234.474 123.475 234.481 123.43 234.486C123.404 234.525 123.377 234.564 123.351 234.603C123.326 234.638 123.302 234.673 123.277 234.708C122.293 236.095 120.946 237.178 119.381 237.842C118.245 238.322 117.034 238.564 115.813 238.564C115.346 238.564 114.88 238.53 114.413 238.458C113.083 238.253 111.821 237.759 110.712 237.013C100.172 238.88 90.1604 239.814 80.525 239.814C72.5543 239.814 64.8423 239.177 57.2903 237.902C56.4183 237.756 55.8317 236.929 55.9783 236.06C56.125 235.188 56.949 234.598 57.821 234.748C73.5257 237.397 89.9751 237.228 108.029 234.228C107.64 233.598 107.327 232.921 107.098 232.21C106.92 231.644 106.8 231.095 106.688 230.562C106.488 229.623 106.312 228.812 105.888 228.247C105.437 227.652 104.602 227.22 103.717 226.764L103.712 226.762C102.415 226.093 100.945 225.336 100.112 223.77C98.9944 221.655 99.6637 218.764 101.672 217.042C102.752 216.114 104.157 215.49 105.861 215.178C103.901 198.843 102.661 182.247 102.17 165.807C99.8929 165.712 97.6118 165.505 95.3294 165.184C94.5214 165.069 93.9294 164.368 93.9534 163.554L94.6814 138.002C94.7054 137.12 95.4414 136.416 96.3268 136.448C97.2094 136.472 97.9054 137.21 97.8814 138.093L97.1934 162.2C105.511 163.192 113.807 162.605 121.897 160.453C119.541 154.911 118.357 148.969 117.208 143.203L117.208 143.203L117.207 143.197C116.185 138.066 115.129 132.765 113.255 127.893C111.396 123.061 108.748 118.616 105.383 114.682C102.233 111.002 99.1641 108.8 96.0041 107.954C95.8769 107.92 95.7575 107.872 95.647 107.811L95.6367 107.902C95.4181 109.844 95.1434 112.257 93.9007 114.294C92.5754 116.473 90.4314 117.809 88.5247 118.892C84.8474 120.982 80.9701 122.772 76.9941 124.214C76.7301 124.316 76.2074 124.505 75.5994 124.505ZM74.0821 114.942C74.3327 117.124 74.9541 119.225 75.9327 121.201C79.7274 119.822 83.4314 118.11 86.9434 116.116C88.5007 115.23 90.2394 114.161 91.1674 112.636C92.0428 111.204 92.2518 109.353 92.454 107.562L92.4554 107.55L92.7967 104.518C85.2501 107.172 79.4127 110.422 74.0821 114.942ZM125.416 230.888C125.244 230.916 125.071 230.944 124.896 230.972C125.535 228.157 125.211 225.193 124.971 222.995L124.97 222.991L121.422 190.636C123.532 197.435 125.494 203.913 127.517 210.591L127.518 210.595L127.518 210.596L127.632 210.97C128.971 215.397 130.357 219.973 131.829 224.786C131.852 224.863 131.881 224.957 131.914 225.064L131.944 225.16C132.571 227.202 132.731 228.109 132.736 228.504C132.554 228.683 132.24 228.863 132.022 228.988L131.987 229.008C130.006 230.135 127.787 230.499 125.438 230.884L125.416 230.888ZM116.429 174.858C116.341 174.587 116.33 174.309 116.383 174.048L115.399 165.076C112.078 165.585 108.732 165.849 105.374 165.866C105.881 182.692 107.178 199.677 109.232 216.378C109.285 216.815 109.157 217.255 108.874 217.596C108.592 217.935 108.184 218.143 107.744 218.17C105.976 218.279 104.634 218.716 103.76 219.468C102.888 220.218 102.522 221.474 102.944 222.268C103.305 222.948 104.172 223.396 105.175 223.913L105.186 223.919L105.198 223.925C106.304 224.497 107.557 225.144 108.445 226.319C109.297 227.448 109.575 228.743 109.82 229.886L109.82 229.886L109.82 229.886L109.821 229.89L109.836 229.959C109.934 230.414 110.027 230.843 110.152 231.236C110.488 232.284 111.112 233.22 111.952 233.94C112.792 234.658 113.816 235.127 114.906 235.295C116 235.463 117.114 235.324 118.133 234.895C119.152 234.463 120.026 233.759 120.666 232.858C122.397 230.418 122.186 226.964 121.789 223.34L116.494 175.06L116.429 174.858ZM46.3812 158.514C44.6674 169.524 43.3763 180.575 42.1101 191.413L42.101 191.491L38.869 219.36L38.8579 219.456C38.5112 222.452 38.1542 225.537 37.9708 228.63C36.8253 228.306 35.7981 227.816 35.2821 226.975C34.6341 225.919 34.8367 224.469 35.0714 222.789L35.0714 222.788L35.0735 222.774C35.3103 221.071 35.5787 219.14 34.8847 217.295C34.5301 216.351 33.9781 215.53 33.4421 214.735C32.6047 213.492 32.1114 212.692 32.3514 212.084C32.5619 211.549 33.3473 211.184 34.2582 210.76L34.2607 210.759C35.0341 210.399 35.9087 209.991 36.6421 209.354C38.5194 207.722 38.8687 205.295 39.0661 202.948L42.9052 157.242C44.0577 157.676 45.2179 158.103 46.3812 158.514ZM63.138 111.189C63.106 111.072 63.09 110.955 63.0954 110.835C63.1514 110.693 63.2394 110.563 63.3514 110.453L63.3515 110.453C63.3755 110.429 63.3967 110.408 63.418 110.384C64.746 108.928 66.186 107.568 67.7167 106.323C67.37 107.157 67.1514 108.064 67.234 109.053C67.41 111.155 68.978 112.203 70.29 112.765C69.9514 113.723 69.146 114.691 68.3247 115.619L65.7274 118.552C64.578 116.245 63.7167 113.805 63.162 111.285L63.138 111.189ZM69.9991 127.204C70.8091 127.204 71.4658 126.548 71.4658 125.738C71.4658 124.928 70.8091 124.271 69.9991 124.271C69.1891 124.271 68.5324 124.928 68.5324 125.738C68.5324 126.548 69.1891 127.204 69.9991 127.204ZM70.4001 135.869C70.4001 136.679 69.7435 137.336 68.9335 137.336C68.1234 137.336 67.4668 136.679 67.4668 135.869C67.4668 135.059 68.1234 134.402 68.9335 134.402C69.7435 134.402 70.4001 135.059 70.4001 135.869Z" fill="black"/>
</svg>
