<svg width="160" height="260" viewBox="0 0 160 260" fill="none" xmlns="http://www.w3.org/2000/svg">
<path d="M48.3944 94.7166C47.9598 95.4366 47.3438 96.0313 46.6104 96.4393C45.8744 96.8473 45.0451 97.0553 44.2051 97.0446C43.3651 97.0313 42.5411 96.7993 41.8184 96.3699C41.0958 95.9406 40.4984 95.3299 40.0824 94.5966C39.2691 93.1539 38.9171 91.0526 37.2931 90.7353C35.9438 90.4686 34.8424 91.7193 33.8264 92.6446C32.6131 93.7406 31.0398 94.5299 29.4051 94.4899C27.7704 94.4499 26.1091 93.4473 25.6078 91.8899C24.8904 89.6686 26.5838 87.3806 26.5704 85.0499C26.6024 84.4206 26.3944 83.8046 25.9891 83.3219C25.0478 82.3459 23.4371 82.8393 22.0878 82.7113C19.2664 82.4446 17.5544 79.0366 18.2478 76.2899C18.9411 73.5433 21.3224 71.5273 23.8478 70.2473C26.3731 68.9673 29.1544 68.2339 31.6691 66.9219C34.7864 65.2873 37.3918 62.8233 39.1998 59.8019C40.6078 57.4473 41.4958 54.8019 42.9891 52.5006C45.6558 48.4046 50.0371 45.7113 54.5944 43.9486C59.1518 42.1859 63.9731 41.2339 68.6398 39.7913C72.1438 38.7086 75.6984 37.3326 79.3491 37.6579C81.7678 37.8739 84.3144 39.0633 85.2158 41.3139L91.4691 43.5139C98.8611 43.8126 105.936 48.3513 109.288 54.9486C110.44 57.2099 111.202 59.7219 112.856 61.6473C115.122 64.2873 118.989 65.7699 119.917 69.1139C121.146 73.5273 116.397 77.466 116.104 82.0366C115.938 84.6046 117.17 87.4206 115.837 89.6206C114.682 91.5193 112.104 92.0339 110.64 93.7086C108.893 95.7033 108.952 99.0819 106.696 100.474C105.808 101.021 102.373 101.666 101.429 101.231C97.5571 99.4526 97.1491 101.853 93.8744 102.162" fill="black"/>
<path d="M90.5699 104.644C90.2659 100.993 90.9432 97.8628 92.5325 94.5614C92.8925 93.8148 93.6659 93.8228 94.4312 93.5801C95.1112 93.3668 95.7779 93.1215 96.4365 92.8441C97.7725 92.2895 99.0339 91.5721 100.197 90.7108C102.495 88.9748 104.287 86.5374 104.959 83.7108C105.57 81.1481 105.141 78.0974 102.293 76.6548C100.285 75.6414 98.4845 76.0014 95.4259 78.6894L93.0499 78.0894C90.0152 77.9054 87.6232 75.2494 86.6285 72.3801C85.6339 69.5108 85.6979 66.3988 85.4765 63.3694C85.3779 62.0174 85.1645 60.5534 84.1859 59.6148C83.1192 58.5961 81.4952 58.5188 80.0232 58.4974L77.6765 57.6974C76.7725 56.7188 75.6659 55.9481 74.4365 55.4334C73.2072 54.9214 71.8819 54.6788 70.5485 54.7241C69.2179 54.7694 67.9112 55.1001 66.7192 55.6948C65.5272 56.2894 64.4765 57.1348 63.6392 58.1721C62.6392 59.4121 61.8845 60.9721 60.4392 61.6521C58.9939 62.3321 57.3539 61.9374 55.7832 61.9668C54.2125 61.9961 52.3405 62.8468 52.3005 64.4148L50.3645 67.3481C48.6445 71.7721 47.6099 75.7668 47.3485 78.1854C46.6899 84.2761 47.9192 91.0441 52.5779 95.3828C55.0605 97.6921 58.1352 98.8281 61.4232 99.4068C64.8525 100.012 68.5325 100.564 71.8605 99.2041C71.6845 101.98 71.6579 103.961 71.7859 106.74" fill="#FFD39F"/>
<path d="M44.274 98.6546C44.242 98.6546 44.2126 98.6546 44.1806 98.6546C43.0633 98.6386 41.962 98.3293 40.9993 97.7559C40.0366 97.1853 39.2393 96.3693 38.6873 95.3959C38.426 94.9319 38.2206 94.4493 38.0206 93.9853C37.7006 93.2359 37.3406 92.3879 36.9833 92.3186C36.61 92.2439 35.818 92.9879 35.2926 93.4786C35.1593 93.6039 35.0286 93.7266 34.898 93.8439C33.2233 95.3453 31.2633 96.1453 29.3646 96.1026C26.938 96.0466 24.7673 94.5213 24.082 92.3933C23.5086 90.6226 24.0126 88.9559 24.458 87.4839C24.7193 86.6146 24.9673 85.7959 24.9673 85.0626C24.9673 85.0359 24.9673 85.0066 24.97 84.9799C24.9806 84.7799 24.922 84.5853 24.8073 84.4226C24.5993 84.2786 23.9086 84.3079 23.3993 84.3266C22.93 84.3453 22.4446 84.3639 21.9353 84.3159C20.322 84.1639 18.8686 83.2866 17.8446 81.8413C16.6446 80.1479 16.2046 77.8786 16.6953 75.9159C17.3993 73.0919 19.682 70.5746 23.1246 68.8333C24.426 68.1746 25.7753 67.6573 27.0793 67.1586C28.4366 66.6386 29.7166 66.1479 30.9273 65.5159C33.7886 64.0173 36.1806 61.7586 37.842 58.9853C38.45 57.9693 38.9566 56.8893 39.4926 55.7453C40.1353 54.3799 40.7966 52.9666 41.6606 51.6333C44.194 47.7346 48.3566 44.6493 54.0313 42.4599C56.9513 41.3346 59.986 40.5266 62.9193 39.7426C64.6553 39.2786 66.45 38.8013 68.1806 38.2653C68.6606 38.1159 69.1406 37.9639 69.6206 37.8093C72.7753 36.7986 76.0366 35.7559 79.506 36.0679C82.178 36.3079 85.4766 37.6573 86.714 40.7186C87.0446 41.5373 86.65 42.4706 85.8286 42.8013C85.01 43.1319 84.0766 42.7373 83.746 41.9159C83.0473 40.1879 80.8713 39.4039 79.218 39.2546C76.394 39.0013 73.578 39.9026 70.594 40.8573C70.1033 41.0146 69.6126 41.1719 69.1246 41.3239C67.3353 41.8759 65.5086 42.3639 63.7433 42.8359C60.89 43.5959 57.9406 44.3826 55.1833 45.4466C50.1486 47.3879 46.5006 50.0573 44.3433 53.3773C43.5993 54.5239 43.01 55.7773 42.3886 57.1053C41.842 58.2679 41.2766 59.4733 40.586 60.6279C38.6233 63.9079 35.794 66.5799 32.4073 68.3533C31.0313 69.0706 29.602 69.6173 28.2206 70.1479C26.9353 70.6386 25.722 71.1053 24.5673 71.6893C23.0606 72.4519 20.4393 74.1159 19.7966 76.6919C19.53 77.7586 19.7886 79.0546 20.4526 79.9933C20.7886 80.4679 21.3726 81.0519 22.234 81.1319C22.53 81.1613 22.89 81.1453 23.2713 81.1319C24.4153 81.0866 25.9806 81.0253 27.138 82.2253C27.162 82.2519 27.186 82.2759 27.21 82.3053C27.8713 83.0893 28.21 84.0813 28.1673 85.1053C28.1593 86.2973 27.8206 87.4199 27.5193 88.4119C27.1646 89.5826 26.8606 90.5906 27.1273 91.4119C27.394 92.2386 28.386 92.8813 29.4393 92.9053C30.5246 92.9239 31.6953 92.4199 32.7566 91.4679C32.8686 91.3666 32.9886 91.2546 33.1113 91.1399C34.1726 90.1479 35.6286 88.7879 37.6046 89.1799C39.6233 89.5746 40.3993 91.3986 40.9673 92.7319C41.1406 93.1346 41.3006 93.5159 41.4766 93.8253C41.7513 94.3133 42.1513 94.7213 42.634 95.0066C43.1166 95.2919 43.666 95.4493 44.226 95.4573C44.7886 95.4653 45.3406 95.3266 45.8313 95.0546C46.322 94.7826 46.7326 94.3853 47.0233 93.9053C47.4793 93.1479 48.4633 92.9053 49.2206 93.3613C49.978 93.8173 50.2206 94.8013 49.7646 95.5586C49.186 96.5159 48.3646 97.3079 47.386 97.8519C46.434 98.3773 45.3593 98.6546 44.274 98.6546Z" fill="black"/>
<path d="M93.8869 103.767C93.0709 103.767 92.3749 103.146 92.2949 102.317C92.2123 101.437 92.8576 100.655 93.7376 100.573C94.6656 100.485 95.2736 100.186 95.9776 99.8366C97.3829 99.1432 98.9723 98.3566 102.058 99.7565C102.77 99.9059 105.3 99.4392 105.876 99.1112C106.684 98.6126 107.095 97.5112 107.572 96.2392C108.01 95.0686 108.506 93.7406 109.452 92.6579C110.282 91.7112 111.335 91.0899 112.268 90.5459C113.231 89.9806 114.063 89.4926 114.487 88.7939C115.058 87.8499 114.895 86.5406 114.708 85.0232C114.586 84.0286 114.458 82.9992 114.524 81.9379C114.674 79.6152 115.73 77.5806 116.751 75.6126C117.914 73.3726 118.919 71.4366 118.394 69.5486C117.948 67.9406 116.492 66.8099 114.807 65.5032C113.719 64.6579 112.596 63.7859 111.658 62.6952C110.351 61.1752 109.572 59.4099 108.815 57.7032C108.503 56.9966 108.207 56.3272 107.876 55.6792C104.804 49.6339 98.1909 45.3912 91.4176 45.1166C90.5349 45.0819 89.8469 44.3352 89.8843 43.4526C89.9189 42.5699 90.6709 41.8846 91.5483 41.9192C99.5643 42.2419 107.095 47.0739 110.73 54.2286C111.098 54.9512 111.426 55.6926 111.743 56.4072C112.434 57.9699 113.087 59.4472 114.087 60.6099C114.812 61.4552 115.764 62.1939 116.77 62.9752C118.634 64.4232 120.746 66.0632 121.476 68.6899C122.34 71.7912 120.879 74.6046 119.591 77.0872C118.682 78.8392 117.823 80.4926 117.716 82.1432C117.668 82.9032 117.772 83.7406 117.882 84.6286C118.111 86.4712 118.37 88.5592 117.22 90.4526C116.375 91.8446 115.052 92.6206 113.884 93.3032C113.092 93.7672 112.346 94.2046 111.858 94.7646C111.295 95.4072 110.943 96.3539 110.567 97.3566C109.972 98.9512 109.298 100.759 107.548 101.839C106.394 102.549 102.367 103.423 100.772 102.687C99.0389 101.89 98.5243 102.146 97.3936 102.706C96.5749 103.111 95.5536 103.615 94.0389 103.759C93.9883 103.765 93.9376 103.767 93.8869 103.767ZM102.111 99.7806C102.111 99.7832 102.111 99.7832 102.111 99.7806C102.111 99.7832 102.111 99.7832 102.111 99.7806Z" fill="black"/>
<path d="M52.277 66.0221C52.2636 66.0221 52.2503 66.0221 52.2343 66.0221C51.3516 66.0007 50.653 65.2647 50.6743 64.3821C50.7383 61.8407 53.325 60.4194 55.7276 60.3741C56.2343 60.3634 56.7223 60.3927 57.1943 60.4194C58.197 60.4781 59.0636 60.5261 59.733 60.2114C60.413 59.8914 60.941 59.1474 61.549 58.2834C61.8076 57.9181 62.0716 57.5421 62.3703 57.1741C63.357 55.9501 64.573 54.9741 65.981 54.2701C67.389 53.5687 68.901 53.1847 70.4716 53.1314C72.045 53.0781 73.5783 53.3581 75.029 53.9634C76.4796 54.5687 77.7596 55.4621 78.8263 56.6167C79.4263 57.2647 79.3863 58.2781 78.7383 58.8781C78.0903 59.4781 77.077 59.4381 76.477 58.7901C75.7223 57.9741 74.821 57.3447 73.7943 56.9181C72.7703 56.4914 71.685 56.2914 70.5783 56.3314C69.469 56.3687 68.4023 56.6381 67.4076 57.1341C66.413 57.6301 65.557 58.3207 64.8583 59.1847C64.6263 59.4727 64.3996 59.7927 64.1623 60.1314C63.4023 61.2087 62.541 62.4274 61.0956 63.1074C59.693 63.7687 58.269 63.6861 57.013 63.6141C56.581 63.5901 56.173 63.5661 55.789 63.5741C54.789 63.5927 53.885 64.0861 53.877 64.4621C53.8556 65.3314 53.1436 66.0221 52.277 66.0221Z" fill="black"/>
<path d="M93.0272 79.6867C92.9952 79.6867 92.9606 79.6867 92.9286 79.684C90.3446 79.5267 86.7392 77.6574 85.0912 72.9027C84.2326 70.4254 84.0992 67.8707 83.9686 65.3987C83.9366 64.7667 83.9019 64.1161 83.8566 63.4841C83.7766 62.3961 83.6246 61.3161 83.0539 60.7667C82.4406 60.1774 81.2459 60.1134 79.9766 60.0947C79.0939 60.0814 78.3872 59.3561 78.4006 58.4707C78.4139 57.5881 79.1419 56.8814 80.0246 56.8947C81.4859 56.9161 83.6966 56.9481 85.2699 58.4574C86.6246 59.7587 86.9312 61.6094 87.0512 63.252C87.0992 63.9134 87.1339 64.5827 87.1686 65.2307C87.2912 67.5827 87.4086 69.8067 88.1179 71.8547C88.8806 74.0574 90.7259 76.3454 93.1232 76.492C94.0059 76.5454 94.6779 77.3027 94.6246 78.1854C94.5712 79.0334 93.8646 79.6867 93.0272 79.6867Z" fill="black"/>
<path d="M58.2475 74.6935C59.2785 74.6935 60.1142 73.6787 60.1142 72.4268C60.1142 71.175 59.2785 70.1602 58.2475 70.1602C57.2166 70.1602 56.3809 71.175 56.3809 72.4268C56.3809 73.6787 57.2166 74.6935 58.2475 74.6935Z" fill="black"/>
<path d="M67.3139 75.3185C68.3449 75.3185 69.1806 74.3037 69.1806 73.0518C69.1806 71.8 68.3449 70.7852 67.3139 70.7852C66.283 70.7852 65.4473 71.8 65.4473 73.0518C65.4473 74.3037 66.283 75.3185 67.3139 75.3185Z" fill="black"/>
<path d="M90.5564 104.639C89.7351 104.639 89.0337 104.01 88.9644 103.172C88.6257 99.1564 89.4071 97.3191 91.0657 93.8631C91.6737 92.6018 92.8231 92.3244 93.5111 92.1591C93.6604 92.1218 93.8017 92.0898 93.9244 92.0498C94.5591 91.8498 95.1857 91.6204 95.7911 91.3644C97.0151 90.8577 98.1644 90.2044 99.2204 89.4204C101.348 87.8124 102.831 85.6498 103.38 83.3351C103.663 82.1698 104.047 79.3378 101.548 78.0764C100.458 77.5244 99.3884 77.3084 96.4577 79.8844C95.7937 80.4684 94.7831 80.4018 94.1991 79.7378C93.6151 79.0738 93.6817 78.0631 94.3457 77.4791C98.5537 73.7804 100.986 74.2071 102.988 75.2178C106.092 76.7858 107.434 80.1804 106.49 84.0791C105.77 87.1084 103.868 89.9164 101.138 91.9778C99.863 92.9244 98.4817 93.7084 97.0257 94.3111C96.3351 94.6018 95.6124 94.8684 94.8844 95.0951C94.6631 95.1644 94.4497 95.2178 94.263 95.2631C94.1457 95.2924 93.9937 95.3271 93.895 95.3591C92.3617 98.5591 91.887 99.7617 92.1537 102.898C92.2284 103.778 91.575 104.551 90.695 104.626C90.647 104.636 90.6017 104.639 90.5564 104.639Z" fill="black"/>
<path d="M71.7705 106.998C70.9198 106.998 70.2132 106.329 70.1732 105.47C70.0878 103.593 70.0692 102.649 70.1225 101.361C66.9172 101.979 63.6532 101.411 61.1358 100.971C57.0692 100.254 53.9092 98.8061 51.4745 96.5421C46.9998 92.3741 44.9118 85.6168 45.7438 77.9981C46.0558 75.1741 47.2185 70.9714 48.8585 66.7554C49.1785 65.9314 50.1065 65.5234 50.9305 65.8434C51.7545 66.1634 52.1625 67.0914 51.8425 67.9154C50.0238 72.5928 49.1438 76.3714 48.9252 78.3474C48.2025 84.9474 49.9252 90.7261 53.6558 94.1981C55.6505 96.0541 58.2025 97.2034 61.6878 97.8168C65.2505 98.4381 68.4318 98.8568 71.2425 97.7074C71.7518 97.4994 72.3332 97.5688 72.7812 97.8888C73.2292 98.2114 73.4798 98.7394 73.4452 99.2888C73.2745 101.971 73.2452 102.563 73.3732 105.315C73.4132 106.198 72.7305 106.947 71.8478 106.987C71.8185 106.998 71.7945 106.998 71.7705 106.998Z" fill="black"/>
<g clip-path="url(#clip0_1123_38310)">
<path d="M90.499 100C90.739 102.693 91.8403 108.779 95.939 107.867L96.379 108.533C96.179 112.712 94.0617 115.659 90.7443 118.712C87.3737 121.765 83.075 123.6 78.539 123.923C74.539 124.216 70.2857 123.259 67.2937 120.576C64.3017 117.893 62.7283 114.176 64.7097 110.989H64.9977C65.899 111.016 66.7283 110.544 67.491 110.064C68.4617 109.451 70.4643 106.936 71.0643 106.213C71.8643 105.176 72.1897 101.243 72.6003 100H90.499V100Z" fill="#FFD39F"/>
<path d="M33.8791 209.262C32.0124 209.958 30.4124 211.558 30.9458 213.691C34.4124 217.158 33.6124 222.224 33.3458 226.491C33.8871 227.68 34.7511 228.694 35.8364 229.419C36.9244 230.144 38.1911 230.552 39.4978 230.595L41.7324 210.23L33.8791 209.262Z" fill="#FFD39F"/>
<path d="M96.6034 106.43C101.321 107.694 104.979 111.328 107.926 115.048C111.139 119.115 113.662 123.683 115.393 128.568C116.361 131.294 117.891 134.366 118.523 137.187L119.366 139.75C123.899 159.302 124.737 179.462 125.041 199.568L125.307 200.214C126.934 206.227 133.067 221.427 134.401 227.827C134.443 228.374 134.353 228.923 134.134 229.427C131.467 232.627 126.934 231.827 123.427 232.912L111.035 235.382C93.2994 238.563 86.966 240.939 69.2007 237.944L68.4007 237.744C67.2327 227.92 66.3714 217.712 65.8727 207.427L65.75 207.96C64.0674 217.795 62.4914 226.894 62.1607 236.864L62.11 237.288C58.2887 236.558 46.7367 234.491 42.91 233.76C41.8754 233.56 40.7394 233.299 40.134 232.427C39.6327 231.712 39.6354 230.771 39.6727 229.899C39.8247 226.432 40.2247 222.99 40.6247 219.547L42.454 203.79H42.3154C39.606 203.462 37.43 203.134 34.7207 202.806C35.8434 190.416 37.2834 178.062 39.0407 165.739C40.5714 155.006 42.3474 144.27 45.5047 133.899C48.31 124.683 55.694 112.486 64.1447 107.864L69.406 108.704C72.8727 112.15 78.7047 112.88 82.902 110.392L96.6034 106.43Z" fill="black"/>
<path d="M105.762 216.001C103.194 216.83 99.8713 220.198 102.042 223.046C103.237 224.617 105.042 225.462 106.698 226.446C107.975 227.206 108.311 229.763 108.805 231.121C110.053 234.542 112.477 237.342 116.447 237.083C120.49 236.817 123.005 233.374 123.773 229.659C124.607 225.633 123.271 219.793 122.602 215.809L105.762 216.001Z" fill="#FFD39F"/>
<path fill-rule="evenodd" clip-rule="evenodd" d="M68.5527 150.277L68.7607 110.781C68.7607 109.237 69.0647 103.824 69.5367 103.075C66.07 105.347 63.9553 109.112 61.9607 112.733C60.8167 114.811 59.6353 117.037 59.7927 119.4C59.9088 121.169 60.7498 122.752 61.5933 124.34C62.3573 125.778 63.1234 127.22 63.3553 128.808C63.6774 131.012 62.9389 133.134 62.1945 135.273C61.6382 136.871 61.0785 138.479 60.9553 140.139C60.8087 142.219 61.6247 146.805 62.1713 148.827L66.1553 163.536L66.0193 176.947C70.6487 167.293 76.0567 158.032 82.1927 149.259C84.102 146.523 86.1927 143.483 85.782 140.171C85.6918 139.449 85.4864 138.726 85.2819 138.007C84.8819 136.599 84.486 135.206 84.966 133.867C85.2753 133.003 85.918 132.307 86.542 131.635L95.558 121.965C96.174 121.304 96.8087 120.611 97.078 119.747C97.382 118.76 97.166 117.696 96.9473 116.685L94.2007 104.029C93.958 102.912 93.4913 101.568 92.3607 101.387C89.6487 103.173 87.2407 105.837 85.1313 108.627C83.7752 110.422 82.526 112.277 81.3717 114.183L82.8995 110.393C78.7022 112.881 72.8702 112.151 69.4035 108.705V143.868L71.1934 139.429C70.2163 143.112 69.3702 146.846 68.598 150.592L68.5527 150.277ZM34.3691 209.172C34.5291 207.183 34.7051 205.146 35.5585 203.343L42.0891 204.055L41.3665 210.239C38.9958 210.223 36.6385 209.863 34.3691 209.172ZM102.86 215.224C102.714 213.146 102.852 211.061 103.268 209.021L122.932 209.309L123.13 214.224C123.146 214.81 123.106 215.52 122.596 215.81C122.346 215.925 122.071 215.973 121.796 215.952L103.663 216.002C103.468 216.026 103.271 215.981 103.103 215.88C103.02 215.792 102.956 215.688 102.914 215.576C102.874 215.464 102.855 215.344 102.86 215.224Z" fill="white"/>
<path fill-rule="evenodd" clip-rule="evenodd" d="M68.9432 239.52C74.8019 240.51 79.4392 240.923 83.6392 240.923C90.4206 240.923 96.0659 239.843 103.879 238.344L104.507 238.225L104.508 238.225L104.509 238.224L104.509 238.224L104.51 238.224L104.512 238.224L104.518 238.223C106.541 237.837 108.64 237.436 110.971 237.016C112.407 238.118 114.096 238.7 115.958 238.7C116.155 238.7 116.352 238.694 116.544 238.678C119.369 238.491 121.826 236.956 123.473 234.51C123.615 234.506 123.757 234.482 123.899 234.436C124.894 234.127 126.032 233.986 127.238 233.836C130.011 233.492 133.152 233.1 135.363 230.447C135.462 230.33 135.542 230.199 135.603 230.058C135.92 229.319 136.056 228.503 135.995 227.7L135.993 227.678C135.991 227.656 135.988 227.634 135.985 227.612C135.98 227.574 135.973 227.535 135.966 227.498C135.179 223.717 132.868 217.246 130.628 210.974L130.603 210.906L130.553 210.766C128.988 206.383 127.513 202.255 126.846 199.794C126.802 199.634 126.737 199.488 126.653 199.355C126.452 179.879 125.975 161.275 121.428 141.674C121.228 140.813 120.37 140.277 119.508 140.477C118.647 140.677 118.111 141.536 118.311 142.397C123.119 163.13 123.303 182.882 123.495 203.794L123.496 203.848C123.506 205.078 123.517 206.314 123.53 207.554L103.34 207.224C100.34 183.784 99.3058 159.938 100.263 136.333C100.3 135.45 99.6124 134.704 98.7298 134.669C97.8445 134.637 97.1005 135.32 97.0658 136.202C96.0818 160.45 97.1858 184.944 100.346 209.008C100.428 209.63 100.86 210.13 101.429 210.319C101.207 211.955 101.151 213.611 101.262 215.262C101.259 215.558 101.312 215.848 101.416 216.134C101.534 216.451 101.712 216.736 101.944 216.982C101.967 217.005 101.991 217.028 102.015 217.05C101.045 217.782 100.242 218.719 99.8883 219.846C99.5816 220.82 99.4883 222.334 100.768 224.014C101.955 225.574 103.592 226.51 105.038 227.334L105.242 227.452C105.456 227.574 105.67 227.697 105.88 227.822C106.275 228.058 106.706 229.63 106.895 230.317L106.899 230.332C107.03 230.812 107.155 231.262 107.302 231.67C107.642 232.605 108.048 233.455 108.51 234.214C106.632 234.562 104.879 234.896 103.279 235.203L103.275 235.204C91.0988 237.534 84.344 238.827 69.8686 236.43C68.798 227.21 68.0208 217.802 67.5446 208.454L67.5896 208.194C67.6432 207.881 67.6023 207.574 67.4874 207.301C67.0095 197.411 66.8695 187.599 67.0766 178.16C67.2366 178.022 67.3726 177.848 67.4712 177.643C72.0472 168.096 77.4446 158.856 83.5139 150.179C85.4499 147.406 87.8606 143.952 87.3806 139.984C87.2766 139.131 87.0499 138.328 86.8286 137.552C86.4792 136.323 86.1779 135.262 86.4819 134.411C86.6794 133.855 87.1996 133.294 87.7032 132.751L87.7032 132.751L87.7219 132.731L96.7379 123.062L96.7425 123.057L96.7425 123.057C97.4084 122.34 98.2374 121.448 98.6152 120.224C99.0508 118.814 98.7457 117.401 98.5219 116.365L98.5192 116.352L96.7353 108.134C101.125 109.533 104.49 113.289 106.669 116.04C109.781 119.976 112.208 124.371 113.882 129.104C114.232 130.083 114.65 131.109 115.056 132.101L115.067 132.129L115.067 132.13L115.067 132.13L115.067 132.13L115.067 132.13L115.067 132.13L115.067 132.13L115.067 132.13C115.81 133.951 116.578 135.83 116.96 137.536C117.128 138.28 117.786 138.787 118.52 138.787C118.637 138.787 118.754 138.773 118.872 138.747C119.733 138.552 120.274 137.696 120.082 136.835C119.64 134.859 118.816 132.84 118.018 130.888C117.608 129.885 117.221 128.939 116.898 128.032C115.106 122.968 112.509 118.267 109.178 114.053C106.626 110.832 102.589 106.376 97.0156 104.883C96.6804 104.792 96.3415 104.816 96.0396 104.929L95.7726 103.699C95.2739 101.376 94.2126 100.07 92.6206 99.8137C92.2259 99.7497 91.8206 99.835 91.4872 100.056C88.9779 101.707 86.4846 104.198 83.8606 107.667C83.5787 108.04 83.3014 108.416 83.0286 108.794C82.7184 108.774 82.3992 108.844 82.1116 109.015C78.706 111.035 73.8913 110.53 70.9191 107.906C71.2021 106.888 71.5218 105.959 71.693 105.663C72.0957 105.025 71.997 104.196 71.461 103.668C70.925 103.14 70.093 103.057 69.4637 103.471C67.9254 104.479 66.5071 105.442 65.2228 106.493C65.0437 106.52 64.8661 106.579 64.6977 106.671C55.3964 111.759 46.7111 124.524 43.9991 133.433C40.7884 143.98 38.9697 155.084 37.4817 165.513C35.7297 177.801 34.2711 190.297 33.1511 202.663C33.1056 203.152 33.2866 203.611 33.6089 203.936C33.1729 205.273 32.99 206.647 32.8691 207.947C30.1526 209.147 28.7645 211.561 29.3943 214.081C29.4663 214.363 29.6103 214.619 29.8157 214.825C32.4077 217.419 32.1223 221.294 31.845 225.041L31.8395 225.113L31.8395 225.114L31.8394 225.114L31.8394 225.114C31.8066 225.548 31.7742 225.976 31.749 226.395C31.733 226.657 31.781 226.918 31.8903 227.158C32.5543 228.619 33.613 229.862 34.949 230.753C35.9522 231.425 37.0807 231.873 38.2618 232.077C38.3772 232.518 38.5619 232.953 38.8509 233.365C39.8442 234.779 41.5074 235.118 42.63 235.348L42.6349 235.349C44.3528 235.676 47.6595 236.279 51.0609 236.898L52.4056 237.143C53.1273 237.275 53.854 237.408 54.5703 237.538C57.5351 238.079 60.3207 238.587 61.8349 238.877C61.9336 238.895 62.0323 238.906 62.1336 238.906C62.4696 238.906 62.8029 238.799 63.0803 238.594C63.4403 238.333 63.6723 237.933 63.7256 237.493L63.7763 237.069C63.7816 237.023 63.7843 236.978 63.7869 236.933L63.7869 236.933C63.9552 231.858 64.5098 226.998 65.2401 222.128C65.6724 227.43 66.1997 232.712 66.8206 237.931C66.8979 238.59 67.3752 239.134 68.0206 239.294L68.8206 239.494C68.8605 239.504 68.9032 239.512 68.9432 239.52ZM58.9552 115.227C53.4732 120.844 48.8427 128.503 47.0577 134.364C44.0844 144.127 42.3457 154.057 40.6471 165.964C38.9751 177.687 37.5724 189.604 36.4791 201.409C37.1394 201.494 37.7754 201.579 38.3995 201.663L38.7564 201.711C39.5073 201.811 40.275 201.914 41.0755 202.017L42.2163 192.181L42.2188 192.159C44.426 173.142 46.7086 153.475 51.1843 134.485C51.3869 133.626 52.2483 133.093 53.1096 133.295C53.9683 133.498 54.5016 134.359 54.2989 135.221C49.8647 154.035 47.5928 173.611 45.3956 192.543L45.3956 192.543L45.3949 192.549L42.2403 219.749C41.8509 223.103 41.4483 226.575 41.2963 229.986C41.2776 230.41 41.2429 231.205 41.4696 231.525C41.7321 231.896 42.6377 232.083 43.2457 232.208L43.2563 232.21C45.1363 232.57 49.0173 233.276 52.8017 233.964L52.8122 233.966L52.8282 233.969L52.9789 233.997C55.7496 234.501 58.5923 235.018 60.6456 235.399C61.0349 227.117 62.3789 219.431 63.7976 211.319C63.8713 210.895 63.9456 210.47 64.0201 210.043L64.0225 210.03L64.0231 210.026L64.0234 210.025C64.125 209.443 64.2269 208.86 64.328 208.275C63.5549 192.869 63.5943 177.629 64.4819 163.651C64.4853 163.609 64.4897 163.566 64.496 163.524L60.629 149.247C60.0824 147.228 59.1917 142.423 59.3624 140.028C59.501 138.153 60.1037 136.423 60.6877 134.748L60.6894 134.743C61.3847 132.745 62.0422 130.856 61.7757 129.041C61.5837 127.727 60.9037 126.447 60.1837 125.092L60.1774 125.08C59.2727 123.374 58.338 121.612 58.1997 119.505C58.0974 117.98 58.4409 116.546 58.9552 115.227ZM67.7569 163.499L67.8846 162.835L67.8847 162.834C71.1433 145.066 74.8367 124.928 86.4126 109.592C88.4819 106.854 90.4312 104.806 92.3379 103.366C92.4312 103.582 92.5406 103.899 92.6419 104.371L95.3886 117.027L95.3919 117.042L95.3919 117.043C95.5564 117.807 95.7419 118.668 95.5539 119.278C95.3931 119.8 94.8933 120.337 94.4079 120.86L94.3912 120.878L85.3726 130.55L85.3581 130.565C84.6993 131.277 83.8815 132.161 83.4632 133.331C82.8126 135.147 83.3086 136.891 83.7459 138.427C83.9432 139.115 84.1272 139.763 84.1992 140.368C84.5326 143.123 82.5966 145.899 80.8872 148.347C75.8872 155.499 71.3326 163.027 67.3086 170.792C67.4053 168.531 67.5226 166.294 67.6603 164.089C67.7285 163.903 67.7625 163.703 67.7569 163.499ZM65.8466 156.275L63.717 148.412C63.1624 146.359 62.4264 142.028 62.5517 140.26C62.6583 138.811 63.1667 137.351 63.7048 135.806L63.7064 135.801L63.7077 135.798C64.4993 133.521 65.3168 131.171 64.9384 128.58C64.6667 126.721 63.8234 125.134 63.0084 123.6L63.005 123.593L62.9918 123.568C62.2153 122.103 61.4818 120.719 61.389 119.297C61.269 117.473 62.1704 115.673 63.3624 113.508C64.413 111.601 65.757 110.169 67.4024 108.844C67.2557 109.58 67.1624 110.26 67.1624 110.775L66.9544 150.271C66.9538 150.359 66.9605 150.446 66.9739 150.53C66.5789 152.458 66.206 154.375 65.8466 156.275ZM70.2248 136.899C72.5473 128.654 75.6289 120.551 80.1225 113.176C79.2217 113.37 78.3 113.465 77.3783 113.465C74.9151 113.465 72.4447 112.785 70.3587 111.473L70.2248 136.899ZM36.0827 207.982C36.1969 206.838 36.3671 205.705 36.7391 204.675C37.251 204.742 37.751 204.809 38.2445 204.875L38.2447 204.875L38.2468 204.876L38.2488 204.876L38.2507 204.876L38.3297 204.887L38.7857 204.947C39.4092 205.03 40.0458 205.115 40.7063 205.2L40.3113 208.606C38.8855 208.53 37.4696 208.321 36.0827 207.982ZM34.2999 210.819C36.1418 211.348 38.0321 211.674 39.942 211.79L39.0616 219.381L39.0505 219.477C38.6996 222.509 38.338 225.634 38.1567 228.767C37.6524 228.614 37.1711 228.387 36.7277 228.091C35.9943 227.601 35.3916 226.942 34.973 226.169C34.9848 225.981 34.9988 225.793 35.0129 225.603L35.013 225.603C35.0211 225.494 35.0292 225.385 35.037 225.275L35.0373 225.271C35.3252 221.368 35.6811 216.543 32.4477 212.95C32.3995 211.731 33.7673 211.041 34.2999 210.819ZM106.953 217.591C106.794 218.05 106.429 218.431 105.931 218.59C104.448 219.068 103.19 219.998 102.939 220.801C102.891 220.953 102.766 221.358 103.312 222.076C104.097 223.109 105.306 223.801 106.585 224.535L106.622 224.556C106.92 224.726 107.219 224.897 107.512 225.07C109.022 225.969 109.555 227.921 109.982 229.486C110.094 229.9 110.203 230.292 110.304 230.574C111.166 232.937 112.92 235.713 116.339 235.486C118.59 235.337 121.31 233.644 122.203 229.334C122.887 226.032 122.271 222.476 121.674 219.034L121.672 219.022C121.598 218.598 121.526 218.177 121.454 217.756C121.442 217.687 121.435 217.618 121.432 217.55L106.953 217.591ZM124.222 216.422C124.418 216.64 124.556 216.915 124.608 217.225C124.667 217.579 124.728 217.932 124.789 218.287L124.79 218.291L124.822 218.476L124.824 218.489C125.471 222.224 126.141 226.086 125.331 229.982C125.266 230.294 125.192 230.6 125.11 230.899C125.69 230.806 126.272 230.734 126.846 230.663L126.849 230.662C129.25 230.364 131.334 230.105 132.739 228.591C132.792 228.412 132.816 228.223 132.811 228.036C132.04 224.431 129.678 217.82 127.59 211.983L127.558 211.893L127.555 211.887C127.27 211.088 126.988 210.296 126.712 209.521C126.647 209.82 126.497 210.096 126.276 210.314C125.978 210.613 125.57 210.781 125.148 210.781H125.122L124.592 210.772L124.728 214.158C124.74 214.578 124.768 215.596 124.222 216.422ZM121.389 210.72L104.644 210.445C104.448 211.753 104.374 213.077 104.422 214.4L121.536 214.352C121.536 214.326 121.536 214.296 121.534 214.267L121.389 210.72Z" fill="black"/>
</g>
<defs>
<clipPath id="clip0_1123_38310">
<rect width="160" height="160" fill="white" transform="translate(0 100)"/>
</clipPath>
</defs>
</svg>
