<svg width="160" height="260" viewBox="0 0 160 260" fill="none" xmlns="http://www.w3.org/2000/svg">
<path d="M100.111 73.6012C99.8818 72.1079 98.4552 71.1292 97.1165 70.4306C95.7778 69.7319 94.2818 69.0146 93.6658 67.6332C92.5138 65.0546 95.1485 61.9159 93.9832 59.3426C93.4632 58.1932 92.2658 57.4759 91.0338 57.1906C89.8018 56.9052 88.5218 57.0279 87.2632 57.1399L83.9538 55.4119C81.7378 51.8732 76.9005 50.7452 72.8232 51.6572C68.7458 52.5692 65.2472 55.0972 61.8658 57.5559L51.2765 65.2759C49.5538 66.5319 47.1192 67.7906 45.4738 66.4332C43.0205 64.4119 46.0072 59.7879 43.9032 57.4146C43.3992 56.8492 42.6792 56.5292 42.1032 56.0359C40.5032 54.6546 40.3032 52.2386 40.5272 50.1292C41.3938 41.9879 46.7725 34.5986 54.0018 30.7559C61.2312 26.9132 70.0818 26.5292 77.8312 29.1559C82.2792 30.6706 86.8498 33.7906 87.4045 38.4546L90.3618 39.4172C93.9938 36.2172 99.5378 36.9319 104.202 38.1932C107.549 39.0972 110.882 40.2146 113.802 42.0786C116.722 43.9426 119.226 46.6359 120.311 49.9292C120.981 51.9559 121.111 54.1959 122.277 55.9932C123.031 57.1612 124.157 58.0412 124.986 59.1559C127.367 62.3559 126.618 67.4439 123.413 69.8226C121.863 70.9719 119.786 71.6306 118.922 73.3586C118.199 74.8066 118.53 76.6892 117.535 77.9639C116.087 79.8172 112.735 79.2786 111.469 81.2599C111.119 81.8066 110.989 82.4812 110.575 82.9799C110.162 83.4786 109.242 83.6706 108.925 83.1106L101.101 83.4679L100.111 73.6012Z" fill="black"/>
<path d="M50.3489 67.3393C48.6289 71.7633 47.5942 75.758 47.3329 78.1767C46.6742 84.2673 47.9036 91.0353 52.5622 95.374C55.0449 97.6833 58.1196 98.8193 61.4076 99.398C64.8369 100.003 68.5169 100.555 71.8449 99.1953C71.6689 101.971 71.6422 103.686 71.7702 106.465L90.5329 104.534C90.2289 100.883 90.9436 97.8647 92.5329 94.5633C92.8929 93.8167 93.6662 93.8247 94.4316 93.582C95.1116 93.3687 95.7782 93.1233 96.4369 92.846C97.7729 92.2913 99.0369 91.574 100.197 90.7127C102.496 88.9767 104.288 86.5393 104.96 83.7127C105.57 81.15 105.141 78.0993 102.293 76.6567C100.285 75.6433 98.4849 76.0033 95.4262 78.6913L100.136 73.6247C99.9062 72.1313 98.4796 71.1527 97.1409 70.454C95.8022 69.7553 94.3062 69.038 93.6902 67.6567C92.5382 65.078 95.1729 61.9393 94.0076 59.366C93.4876 58.2167 92.2902 57.4993 91.0582 57.214C89.8262 56.9287 88.5462 57.0513 87.2876 57.1633L83.9782 55.4353C81.7622 51.8967 76.9249 50.7687 72.8476 51.6807C68.7702 52.5927 65.2476 55.0967 61.8662 57.5553L51.2769 65.2753" fill="#FFD39F"/>
<path fill-rule="evenodd" clip-rule="evenodd" d="M47.1533 68.6277C45.9746 68.6277 45.0893 68.193 44.4546 67.6677C42.5278 66.0794 42.7796 63.6708 42.9822 61.7327L42.9826 61.729C43.124 60.377 43.2573 59.097 42.7053 58.4757C42.5479 58.2997 42.2679 58.113 41.9719 57.9157C41.6919 57.729 41.372 57.5157 41.0626 57.2517C39.324 55.7504 38.5906 53.2304 38.9373 49.961C39.844 41.457 45.3266 33.5557 53.2519 29.345C60.5959 25.441 69.9746 24.8064 78.3453 27.6437C84.4706 29.729 88.4493 33.7024 88.9933 38.2677C89.0973 39.145 88.4706 39.9424 87.5933 40.0464C86.716 40.1504 85.9213 39.5237 85.8146 38.6464C85.2306 33.7344 79.1613 31.3024 77.3133 30.673C69.7639 28.1157 61.3293 28.6757 54.7506 32.1717C47.7506 35.8917 42.9106 42.8384 42.1159 50.3024C41.9559 51.8224 42.0013 53.841 43.1453 54.8277C43.3026 54.961 43.5159 55.105 43.7399 55.2544L43.7448 55.2576C44.173 55.5422 44.6616 55.8669 45.092 56.353C46.5809 58.0311 46.3485 60.2651 46.1619 62.0587L46.1613 62.065C45.9906 63.7077 45.9266 64.7397 46.4866 65.201C47.4333 65.9824 49.668 64.4677 50.3293 63.985L60.9186 56.265L60.9315 56.2557L60.9315 56.2557L60.9315 56.2557C64.2564 53.8393 68.0204 51.1038 72.468 50.1077C77.9506 48.881 82.4333 50.3157 84.7666 54.041C85.236 54.7904 85.0093 55.777 84.26 56.2464C83.5106 56.7157 82.524 56.489 82.0546 55.7397C79.8253 52.1797 75.0946 52.7984 73.1666 53.2304C69.3613 54.081 66.0253 56.505 62.8013 58.8517L52.2146 66.5717C52.0966 66.6578 51.9799 66.7408 51.8646 66.8206C51.9816 67.1647 51.9827 67.5503 51.8409 67.9154C50.0223 72.5928 49.1423 76.3714 48.9236 78.3474C48.2009 84.9474 49.9236 90.7261 53.6543 94.1981C55.6489 96.0541 58.2009 97.2034 61.6863 97.8168C65.2489 98.4381 68.4303 98.8568 71.2409 97.7074C71.7503 97.4994 72.3316 97.5688 72.7796 97.8888C73.2276 98.2114 73.4783 98.7394 73.4436 99.2888C73.2729 101.971 73.2436 102.563 73.3716 105.315C73.4116 106.198 72.7289 106.947 71.8463 106.987C71.8169 106.998 71.7929 106.998 71.7689 106.998C70.9183 106.998 70.2116 106.329 70.1716 105.47C70.0863 103.593 70.0676 102.649 70.1209 101.361C66.9156 101.979 63.6516 101.411 61.1343 100.971C57.0676 100.254 53.9076 98.8061 51.4729 96.5421C46.9983 92.3741 44.9103 85.6168 45.7423 77.9981C46.0106 75.5694 46.9081 72.1211 48.1972 68.5216C47.8261 68.5947 47.4784 68.6277 47.1533 68.6277ZM109.575 85.0629C109.498 85.0629 109.423 85.0602 109.349 85.0522C108.57 84.9829 107.911 84.5669 107.538 83.9109C107.103 83.1429 107.373 82.1669 108.141 81.7296C108.581 81.4789 109.093 81.4629 109.527 81.6389C109.559 81.5642 109.594 81.4842 109.629 81.4069L109.639 81.3829C109.764 81.0874 109.907 80.7523 110.125 80.4122C111.101 78.8869 112.762 78.4016 114.095 78.0122C115.021 77.7429 115.895 77.4869 116.279 76.9935C116.578 76.6129 116.68 75.9701 116.799 75.2238L116.802 75.2042L116.807 75.1757C116.931 74.3933 117.071 73.5085 117.495 72.6575C118.304 71.0394 119.77 70.1862 121.064 69.4327L121.071 69.4282C121.578 69.1349 122.055 68.8549 122.466 68.5509C123.655 67.6682 124.477 66.2202 124.719 64.5775C124.962 62.9349 124.594 61.3109 123.711 60.1242C123.399 59.7056 123.015 59.3002 122.607 58.8736L122.6 58.8656L122.6 58.8655L122.6 58.8654C122.029 58.2652 121.437 57.6434 120.941 56.8735C120.021 55.4549 119.663 53.9135 119.319 52.4229L119.309 52.3781L119.309 52.3779C119.15 51.6959 119 51.0522 118.799 50.4442C117.919 47.7749 115.842 45.2869 112.949 43.4415C110.039 41.5829 106.687 40.5349 103.791 39.7509C98.234 38.2469 94.762 38.5749 92.1833 40.8495C91.5193 41.4335 90.5086 41.3695 89.9246 40.7055C89.3406 40.0415 89.4046 39.0309 90.0686 38.4469C94.474 34.5669 100.162 35.4549 104.626 36.6602C107.754 37.5055 111.394 38.6522 114.669 40.7429C118.181 42.9855 120.727 46.0735 121.837 49.4415C122.087 50.1992 122.262 50.9595 122.432 51.6961L122.432 51.6964L122.434 51.7029C122.73 52.9802 123.01 54.1882 123.623 55.1349C123.96 55.6538 124.422 56.1411 124.911 56.6569L124.922 56.6682L124.959 56.7073L124.959 56.7073L124.959 56.7074C125.401 57.1726 125.859 57.6546 126.274 58.2149C127.661 60.0789 128.247 62.5669 127.882 65.0442C127.517 67.5215 126.237 69.7376 124.37 71.1216C123.819 71.5314 123.242 71.8668 122.683 72.1915L122.679 72.1936C121.639 72.7989 120.738 73.3242 120.357 74.0869C120.152 74.4959 120.061 75.0646 119.964 75.6691L119.964 75.6692L119.959 75.7002C119.797 76.7402 119.61 77.9216 118.799 78.9616C117.778 80.2682 116.298 80.7002 114.991 81.0815C114.002 81.3695 113.149 81.6202 112.821 82.1349C112.743 82.2575 112.661 82.4496 112.575 82.6549C112.407 83.0549 112.197 83.5509 111.813 84.0149C111.271 84.6655 110.413 85.0629 109.575 85.0629ZM98.5294 73.8432C98.5802 74.1783 98.7316 74.4728 98.9483 74.7011C97.6772 75.0388 96.1801 75.8672 94.3453 77.4799C93.6813 78.0639 93.6147 79.0745 94.1987 79.7385C94.7827 80.4025 95.7933 80.4692 96.4573 79.8852C99.388 77.3092 100.457 77.5252 101.548 78.0772C104.047 79.3385 103.663 82.1705 103.38 83.3359C102.831 85.6505 101.348 87.8132 99.22 89.4212C98.164 90.2052 97.0147 90.8585 95.7907 91.3652C95.1853 91.6212 94.5587 91.8505 93.924 92.0505C93.8272 92.0821 93.7188 92.1087 93.604 92.1368L93.5107 92.1599C92.8227 92.3252 91.6733 92.6025 91.0653 93.8639C89.4067 97.3199 88.6253 99.1572 88.964 103.173C89.0333 104.011 89.7347 104.64 90.556 104.64C90.6013 104.64 90.6467 104.637 90.6947 104.627C91.5747 104.552 92.228 103.779 92.1533 102.899C91.8867 99.7625 92.3613 98.5599 93.8947 95.3599C93.9704 95.3353 94.0776 95.3092 94.1764 95.2851C94.2063 95.2778 94.2354 95.2707 94.2627 95.2639C94.4493 95.2185 94.6627 95.1652 94.884 95.0959C95.612 94.8692 96.3347 94.6025 97.0253 94.3119C98.4813 93.7092 99.8627 92.9252 101.137 91.9785C103.868 89.9172 105.769 87.1092 106.489 84.0799C107.433 80.1812 106.092 76.7865 102.988 75.2185C102.475 74.9597 101.934 74.7392 101.342 74.6164C101.62 74.2776 101.758 73.8261 101.687 73.3579C101.337 71.0726 99.3321 69.7819 97.8521 69.0112L97.6361 68.8992C96.5774 68.3499 95.4814 67.7792 95.1241 66.9819C94.7781 66.2076 95.0668 65.0881 95.3727 63.9016L95.3747 63.8939C95.7881 62.2966 96.2547 60.4859 95.4387 58.6832C94.7614 57.1819 93.2867 56.0699 91.3934 55.6326C89.9416 55.2943 88.4872 55.4243 87.2055 55.5389L87.2014 55.5392L87.1214 55.5472C86.2414 55.6272 85.5934 56.4032 85.6707 57.2832C85.7507 58.1632 86.5241 58.8139 87.4067 58.7339L87.4867 58.7259L87.4903 58.7256L87.4904 58.7256C88.6357 58.6244 89.7171 58.5288 90.6734 58.7499C91.5587 58.9552 92.2707 59.4352 92.5267 60.0032C92.8752 60.7774 92.6 61.8462 92.281 63.0852L92.2787 63.0939L92.2771 63.1001C91.8668 64.6906 91.4024 66.4909 92.204 68.2859C93.0147 70.1046 94.7614 71.0112 96.1641 71.7392L96.3747 71.8486C97.7267 72.5526 98.4307 73.2059 98.5294 73.8432ZM58.2467 74.6958C59.2777 74.6958 60.1134 73.681 60.1134 72.4292C60.1134 71.1773 59.2777 70.1625 58.2467 70.1625C57.2158 70.1625 56.3801 71.1773 56.3801 72.4292C56.3801 73.681 57.2158 74.6958 58.2467 74.6958ZM69.1806 73.0542C69.1806 74.306 68.3449 75.3208 67.3139 75.3208C66.283 75.3208 65.4473 74.306 65.4473 73.0542C65.4473 71.8023 66.283 70.7875 67.3139 70.7875C68.3449 70.7875 69.1806 71.8023 69.1806 73.0542Z" fill="black"/>
<path d="M90.499 100C90.739 102.693 91.8403 108.779 95.939 107.867L96.379 108.533C96.179 112.712 94.0617 115.659 90.7443 118.712C87.3737 121.765 83.075 123.6 78.539 123.923C74.539 124.216 70.2857 123.259 67.2937 120.576C64.3017 117.893 62.7283 114.176 64.7097 110.989H64.9977C65.899 111.016 66.7283 110.544 67.491 110.064C68.4617 109.451 69.2883 106.696 69.8883 105.973C70.6883 104.936 72.187 101.243 72.5977 100H90.499V100Z" fill="#FFD39F"/>
<path d="M117.955 174.361C123.861 192.649 127.971 206.676 133.368 224.326C133.635 225.228 134.701 228.414 134.208 229.212C133.877 229.745 133.323 230.086 132.781 230.393C129.821 232.076 126.589 232.217 123.251 232.889L110.859 235.356C93.1227 238.537 75.3227 239.316 57.5547 236.318L54.2027 235.926L42.736 233.732C41.7014 233.534 40.5654 233.27 39.96 232.398C39.4587 231.684 39.4614 230.742 39.4987 229.87C39.6507 226.404 40.0507 222.964 40.4507 219.521L43.6054 192.321C44.9574 180.668 46.312 168.996 48.1547 157.414L48.0267 157.374C44.9254 156.308 41.872 155.124 38.816 153.937C38.3947 153.817 38.016 153.582 37.7174 153.262C37.1174 152.489 37.632 151.38 38.1467 150.545C42.6907 143.158 46.576 135.388 49.7627 127.321C52.1947 121.161 54.7334 114.23 60.6694 111.294L73.0747 112.71L96.416 106.398C100.499 107.492 103.848 110.42 106.597 113.633C110.072 117.694 112.827 122.321 114.747 127.31C118.995 138.358 118.997 150.812 124.12 161.484C121.691 162.204 119.224 162.782 116.731 163.222L117.955 174.361Z" fill="black"/>
<path fill-rule="evenodd" clip-rule="evenodd" d="M74.6121 122.131C73.3614 119.681 72.6121 117.006 72.4121 114.262C79.1534 108.379 86.0254 105.115 93.1748 102.686C93.6174 102.537 94.2228 102.443 94.4574 102.849C94.5454 103.049 94.5668 103.273 94.5214 103.489L94.0441 107.721C93.8201 109.702 93.5721 111.755 92.5321 113.459C91.4334 115.265 89.5721 116.454 87.7321 117.499C84.1241 119.55 80.3481 121.294 76.4468 122.71C76.0148 122.867 75.5054 123.014 75.1134 122.774C74.8921 122.609 74.7188 122.387 74.6121 122.131ZM68.6951 108.797C68.5564 107.186 69.3564 105.656 70.1324 104.237C70.5991 104.205 70.1004 103.37 69.4817 103.29C68.8631 103.21 68.2897 103.624 67.7964 104.01C65.7697 105.592 63.7964 107.264 62.1004 109.194C61.7671 109.469 61.5297 109.84 61.4151 110.256C61.3031 110.672 61.3191 111.112 61.4657 111.517C62.1084 114.432 63.1431 117.245 64.5404 119.882C64.7644 120.306 65.1484 120.792 65.6071 120.661C65.7991 120.586 65.9644 120.458 66.0871 120.293L69.3884 116.56C70.6577 115.128 72.0071 113.488 71.9164 111.576C70.3564 111.997 68.8337 110.408 68.6951 108.797Z" fill="white"/>
<path fill-rule="evenodd" clip-rule="evenodd" d="M39.5091 229.882C39.6611 226.421 40.0611 222.976 40.4611 219.533L43.6185 192.344C44.9518 180.704 46.3118 169.042 48.1518 157.469L48.0291 157.397C45.8505 156.65 43.6958 155.842 41.5465 155.016L41.4371 155.549L37.4665 202.821C37.3038 204.744 37.0691 206.856 35.5865 208.154C35.0088 208.66 34.2733 209.001 33.5479 209.338C32.4114 209.865 31.2996 210.381 30.8585 211.501C30.2922 212.94 31.1877 214.269 32.1087 215.635C32.5972 216.36 33.0928 217.096 33.3811 217.864C33.9393 219.336 33.7111 220.969 33.4852 222.585C33.2255 224.442 32.9689 226.278 33.9145 227.821C35.0025 229.597 37.2585 230.205 39.3091 230.573L39.5091 229.882ZM107.646 216.573C105.499 199.259 104.179 181.896 103.683 164.483L116.846 164.072C117.489 169.884 118.132 175.696 118.776 181.51C120.312 195.388 121.849 209.27 123.384 223.157C123.787 226.789 124.102 230.789 121.99 233.773C121.179 234.917 120.067 235.816 118.776 236.363C117.486 236.909 116.07 237.088 114.683 236.875C113.296 236.661 111.998 236.067 110.931 235.157C109.864 234.248 109.072 233.061 108.643 231.725C108.487 231.238 108.378 230.732 108.269 230.227C108.042 229.177 107.817 228.135 107.179 227.291C106.507 226.399 105.479 225.869 104.458 225.344C103.291 224.744 102.135 224.149 101.536 223.024C100.707 221.459 101.384 219.411 102.72 218.259C104.056 217.107 105.883 216.683 107.646 216.573Z" fill="#FFD39F"/>
<path fill-rule="evenodd" clip-rule="evenodd" d="M75.5994 124.505C75.1807 124.505 74.7221 124.414 74.2794 124.142C74.2394 124.118 74.2021 124.092 74.1647 124.065C73.7274 123.742 73.3834 123.31 73.1647 122.814C72.2543 121.023 71.5983 119.14 71.2031 117.191C71.0319 117.391 70.8676 117.577 70.7167 117.747L67.45 121.437C67.1567 121.811 66.7674 122.101 66.3247 122.275C66.274 122.293 66.2234 122.312 66.1727 122.325C66.0527 122.355 65.8447 122.4 65.5834 122.4C64.9407 122.4 63.986 122.125 63.258 120.749C62.0093 118.394 61.0381 115.901 60.3611 113.323C55.9057 116.129 53.6888 121.76 51.5413 127.217L51.2613 127.926C48.0506 136.057 44.0986 143.955 39.52 151.401C39.216 151.894 39.112 152.185 39.0773 152.334C39.136 152.369 39.2 152.398 39.2693 152.417C39.3173 152.43 39.3626 152.446 39.408 152.462L39.472 152.486L39.5148 152.503C41.9304 153.44 44.4126 154.404 46.8954 155.292C48.0394 148.302 49.3699 141.338 50.989 134.467C51.1916 133.608 52.0503 133.072 52.9143 133.277C53.773 133.48 54.3063 134.341 54.1036 135.203C49.7298 153.769 47.4713 173.104 45.2869 191.805L45.2796 191.867L45.2023 192.533L42.0476 219.733L42.046 219.748C41.6572 223.101 41.2554 226.565 41.1036 229.968C41.085 230.392 41.0503 231.187 41.277 231.507C41.5436 231.885 42.493 232.077 43.0583 232.189L52.341 233.965C53.2076 234.131 53.7783 234.971 53.6103 235.837C53.469 236.6 52.7996 237.133 52.045 237.133C51.9463 237.133 51.845 237.123 51.7436 237.104L42.445 235.325C41.3943 235.115 39.6636 234.765 38.661 233.341C38.3485 232.896 38.158 232.424 38.045 231.947C35.9275 231.479 33.7787 230.647 32.5567 228.652C31.3061 226.618 31.6234 224.348 31.9034 222.348C32.1087 220.89 32.3007 219.511 31.8901 218.423C31.6752 217.846 31.2643 217.233 30.8281 216.583L30.7887 216.524L30.7886 216.524C29.77 215.012 28.5034 213.132 29.3754 210.911C30.0567 209.192 31.6359 208.455 32.9039 207.864L32.9114 207.86C33.5487 207.564 34.1487 207.284 34.5407 206.943C35.5141 206.095 35.7274 204.444 35.8767 202.682L39.7936 156.051C39.2972 155.858 38.8032 155.666 38.312 155.475L38.3066 155.473C37.6373 155.265 37.032 154.886 36.5546 154.371C36.5226 154.337 36.4933 154.302 36.464 154.265C35.552 153.089 35.664 151.563 36.7946 149.726C41.2746 142.441 45.1413 134.71 48.2853 126.753L48.5626 126.046C50.9733 119.918 53.7066 112.974 59.9706 109.878C59.9964 109.865 60.0224 109.853 60.0485 109.842C60.2613 109.223 60.6148 108.659 61.0767 108.197C62.8634 106.243 64.8394 104.445 66.954 102.853C67.5034 102.427 68.5114 101.645 69.826 101.821C70.8607 101.96 72.3407 103 72.298 104.32C72.282 104.8 72.0794 105.224 71.7514 105.523L71.7513 105.523C71.674 105.656 71.5967 105.79 71.5194 105.925L71.5153 105.933C70.9405 106.928 70.3462 107.957 70.4154 108.789C70.4474 109.176 70.7274 109.613 72.522 110.173C73.031 110.332 73.4178 110.729 73.5727 111.222C79.0113 106.921 85.0147 103.772 92.6634 101.174C94.3141 100.617 95.3887 101.262 95.8447 102.049C95.8741 102.102 95.9007 102.156 95.9247 102.209C96.1354 102.692 96.1967 103.214 96.1061 103.732L95.9779 104.871C96.248 104.793 96.5421 104.785 96.8334 104.864C100.639 105.882 104.233 108.416 107.817 112.605C111.42 116.816 114.255 121.576 116.244 126.749C118.215 131.877 119.3 137.317 120.348 142.578L120.356 142.62C121.641 149.066 122.855 155.156 125.567 160.805C125.769 161.229 125.777 161.717 125.585 162.146C125.393 162.576 125.025 162.898 124.577 163.032C122.582 163.617 120.575 164.113 118.558 164.518L119.641 174.391C123.812 187.324 127.107 198.199 130.582 209.665L130.583 209.669L130.584 209.672L130.584 209.672L130.696 210.042C132.035 214.466 133.421 219.04 134.896 223.864C134.928 223.97 134.963 224.085 135.005 224.218C135.904 227.141 136.259 228.938 135.568 230.058C135.04 230.912 134.259 231.4 133.568 231.792C131.087 233.201 128.47 233.631 125.939 234.047L125.938 234.047L125.933 234.048L125.845 234.062L125.844 234.062L125.844 234.062C125.093 234.186 124.322 234.312 123.565 234.466C123.52 234.474 123.475 234.481 123.43 234.486C123.404 234.525 123.377 234.564 123.351 234.603C123.326 234.638 123.302 234.673 123.277 234.708C122.293 236.095 120.946 237.178 119.381 237.842C118.245 238.322 117.034 238.564 115.813 238.564C115.346 238.564 114.88 238.53 114.413 238.458C113.083 238.253 111.821 237.759 110.712 237.013C100.172 238.88 90.1604 239.814 80.525 239.814C72.5543 239.814 64.8423 239.177 57.2903 237.902C56.4183 237.756 55.8317 236.929 55.9783 236.06C56.125 235.188 56.949 234.598 57.821 234.748C73.5257 237.397 89.9751 237.228 108.029 234.228C107.64 233.598 107.327 232.921 107.098 232.21C106.92 231.644 106.8 231.095 106.688 230.562C106.488 229.623 106.312 228.812 105.888 228.247C105.437 227.652 104.602 227.22 103.717 226.764L103.712 226.762C102.415 226.093 100.945 225.336 100.112 223.77C98.9944 221.655 99.6637 218.764 101.672 217.042C102.752 216.114 104.157 215.49 105.861 215.178C103.901 198.843 102.661 182.247 102.17 165.807C99.8929 165.712 97.6118 165.505 95.3294 165.184C94.5214 165.069 93.9294 164.368 93.9534 163.554L94.6814 138.002C94.7054 137.12 95.4414 136.416 96.3268 136.448C97.2094 136.472 97.9054 137.21 97.8814 138.093L97.1934 162.2C105.511 163.192 113.807 162.605 121.897 160.453C119.541 154.911 118.357 148.969 117.208 143.203L117.208 143.203L117.207 143.197C116.185 138.066 115.129 132.765 113.255 127.893C111.396 123.061 108.748 118.616 105.383 114.682C102.233 111.002 99.1641 108.8 96.0041 107.954C95.8769 107.92 95.7575 107.872 95.647 107.811L95.6367 107.902C95.4181 109.844 95.1434 112.257 93.9007 114.294C92.5754 116.473 90.4314 117.809 88.5247 118.892C84.8474 120.982 80.9701 122.772 76.9941 124.214C76.7301 124.316 76.2074 124.505 75.5994 124.505ZM74.0821 114.942C74.3327 117.124 74.9541 119.225 75.9327 121.201C79.7274 119.822 83.4314 118.11 86.9434 116.116C88.5007 115.23 90.2394 114.161 91.1674 112.636C92.0428 111.204 92.2518 109.353 92.454 107.562L92.4554 107.55L92.7967 104.518C85.2501 107.172 79.4127 110.422 74.0821 114.942ZM125.416 230.888C125.244 230.916 125.071 230.944 124.896 230.972C125.535 228.157 125.211 225.193 124.971 222.995L124.97 222.991L121.422 190.636C123.532 197.435 125.494 203.913 127.517 210.591L127.518 210.595L127.518 210.596L127.632 210.97C128.971 215.397 130.357 219.973 131.829 224.786C131.852 224.863 131.881 224.957 131.914 225.064L131.944 225.16C132.571 227.202 132.731 228.109 132.736 228.504C132.554 228.683 132.24 228.863 132.022 228.988L131.987 229.008C130.006 230.135 127.787 230.499 125.438 230.884L125.416 230.888ZM116.429 174.858C116.341 174.587 116.33 174.309 116.383 174.048L115.399 165.076C112.078 165.585 108.732 165.849 105.374 165.866C105.881 182.692 107.178 199.677 109.232 216.378C109.285 216.815 109.157 217.255 108.874 217.596C108.592 217.935 108.184 218.143 107.744 218.17C105.976 218.279 104.634 218.716 103.76 219.468C102.888 220.218 102.522 221.474 102.944 222.268C103.305 222.948 104.172 223.396 105.175 223.913L105.186 223.919L105.198 223.925C106.304 224.497 107.557 225.144 108.445 226.319C109.297 227.448 109.575 228.743 109.82 229.886L109.82 229.886L109.82 229.886L109.821 229.89L109.836 229.959C109.934 230.414 110.027 230.843 110.152 231.236C110.488 232.284 111.112 233.22 111.952 233.94C112.792 234.658 113.816 235.127 114.906 235.295C116 235.463 117.114 235.324 118.133 234.895C119.152 234.463 120.026 233.759 120.666 232.858C122.397 230.418 122.186 226.964 121.789 223.34L116.494 175.06L116.429 174.858ZM46.3812 158.514C44.6674 169.524 43.3763 180.575 42.1101 191.413L42.101 191.491L38.869 219.36L38.8579 219.456C38.5112 222.452 38.1542 225.537 37.9708 228.63C36.8253 228.306 35.7981 227.816 35.2821 226.975C34.6341 225.919 34.8367 224.469 35.0714 222.789L35.0714 222.788L35.0735 222.774C35.3103 221.071 35.5787 219.14 34.8847 217.295C34.5301 216.351 33.9781 215.53 33.4421 214.735C32.6047 213.492 32.1114 212.692 32.3514 212.084C32.5619 211.549 33.3473 211.184 34.2582 210.76L34.2607 210.759C35.0341 210.399 35.9087 209.991 36.6421 209.354C38.5194 207.722 38.8687 205.295 39.0661 202.948L42.9052 157.242C44.0577 157.676 45.2179 158.103 46.3812 158.514ZM63.138 111.189C63.106 111.072 63.09 110.955 63.0954 110.835C63.1514 110.693 63.2394 110.563 63.3514 110.453L63.3515 110.453C63.3755 110.429 63.3967 110.408 63.418 110.384C64.746 108.928 66.186 107.568 67.7167 106.323C67.37 107.157 67.1514 108.064 67.234 109.053C67.41 111.155 68.978 112.203 70.29 112.765C69.9514 113.723 69.146 114.691 68.3247 115.619L65.7274 118.552C64.578 116.245 63.7167 113.805 63.162 111.285L63.138 111.189ZM69.9991 127.204C70.8091 127.204 71.4658 126.548 71.4658 125.738C71.4658 124.928 70.8091 124.271 69.9991 124.271C69.1891 124.271 68.5324 124.928 68.5324 125.738C68.5324 126.548 69.1891 127.204 69.9991 127.204ZM70.4001 135.869C70.4001 136.679 69.7435 137.336 68.9335 137.336C68.1234 137.336 67.4668 136.679 67.4668 135.869C67.4668 135.059 68.1234 134.402 68.9335 134.402C69.7435 134.402 70.4001 135.059 70.4001 135.869Z" fill="black"/>
</svg>
