<svg width="160" height="260" viewBox="0 0 160 260" fill="none" xmlns="http://www.w3.org/2000/svg">
<path d="M48.3944 94.7166C47.9598 95.4366 47.3438 96.0313 46.6104 96.4393C45.8744 96.8473 45.0451 97.0553 44.2051 97.0446C43.3651 97.0313 42.5411 96.7993 41.8184 96.3699C41.0958 95.9406 40.4984 95.3299 40.0824 94.5966C39.2691 93.1539 38.9171 91.0526 37.2931 90.7353C35.9438 90.4686 34.8424 91.7193 33.8264 92.6446C32.6131 93.7406 31.0398 94.5299 29.4051 94.4899C27.7704 94.4499 26.1091 93.4473 25.6078 91.8899C24.8904 89.6686 26.5838 87.3806 26.5704 85.0499C26.6024 84.4206 26.3944 83.8046 25.9891 83.3219C25.0478 82.3459 23.4371 82.8393 22.0878 82.7113C19.2664 82.4446 17.5544 79.0366 18.2478 76.2899C18.9411 73.5433 21.3224 71.5273 23.8478 70.2473C26.3731 68.9673 29.1544 68.2339 31.6691 66.9219C34.7864 65.2873 37.3918 62.8233 39.1998 59.8019C40.6078 57.4473 41.4958 54.8019 42.9891 52.5006C45.6558 48.4046 50.0371 45.7113 54.5944 43.9486C59.1518 42.1859 63.9731 41.2339 68.6398 39.7913C72.1438 38.7086 75.6984 37.3326 79.3491 37.6579C81.7678 37.8739 84.3144 39.0633 85.2158 41.3139L91.4691 43.5139C98.8611 43.8126 105.936 48.3513 109.288 54.9486C110.44 57.2099 111.202 59.7219 112.856 61.6473C115.122 64.2873 118.989 65.7699 119.917 69.1139C121.146 73.5273 116.397 77.4659 116.104 82.0366C115.938 84.6046 117.17 87.4206 115.837 89.6206C114.682 91.5193 112.104 92.0339 110.64 93.7086C108.893 95.7033 108.952 99.0819 106.696 100.474C105.808 101.021 102.373 101.666 101.429 101.231C97.5571 99.4526 97.1491 101.853 93.8744 102.162" fill="black"/>
<path d="M90.5699 104.644C90.2659 100.993 90.9432 97.8628 92.5325 94.5614C92.8925 93.8148 93.6659 93.8228 94.4312 93.5801C95.1112 93.3668 95.7779 93.1215 96.4365 92.8441C97.7725 92.2895 99.0339 91.5721 100.197 90.7108C102.495 88.9748 104.287 86.5374 104.959 83.7108C105.57 81.1481 105.141 78.0974 102.293 76.6548C100.285 75.6414 98.4845 76.0014 95.4259 78.6894L93.0499 78.0894C90.0152 77.9054 87.6232 75.2494 86.6285 72.3801C85.6339 69.5108 85.6979 66.3988 85.4765 63.3694C85.3779 62.0174 85.1645 60.5534 84.1859 59.6148C83.1192 58.5961 81.4952 58.5188 80.0232 58.4974L77.6765 57.6974C76.7725 56.7188 75.6659 55.9481 74.4365 55.4334C73.2072 54.9214 71.8819 54.6788 70.5485 54.7241C69.2179 54.7694 67.9112 55.1001 66.7192 55.6948C65.5272 56.2894 64.4765 57.1348 63.6392 58.1721C62.6392 59.4121 61.8845 60.9721 60.4392 61.6521C58.9939 62.3321 57.3539 61.9374 55.7832 61.9668C54.2125 61.9961 52.3405 62.8468 52.3005 64.4148L50.3645 67.3481C48.6445 71.7721 47.6099 75.7668 47.3485 78.1854C46.6899 84.2761 47.9192 91.0441 52.5779 95.3828C55.0605 97.6921 58.1352 98.8281 61.4232 99.4068C64.8525 100.012 68.5325 100.564 71.8605 99.2041C71.6845 101.98 71.6579 103.961 71.7859 106.74" fill="#FFD39F"/>
<path d="M44.274 98.6546C44.242 98.6546 44.2126 98.6546 44.1806 98.6546C43.0633 98.6386 41.962 98.3293 40.9993 97.7559C40.0366 97.1853 39.2393 96.3693 38.6873 95.3959C38.426 94.9319 38.2206 94.4493 38.0206 93.9853C37.7006 93.2359 37.3406 92.3879 36.9833 92.3186C36.61 92.2439 35.818 92.9879 35.2926 93.4786C35.1593 93.6039 35.0286 93.7266 34.898 93.8439C33.2233 95.3453 31.2633 96.1453 29.3646 96.1026C26.938 96.0466 24.7673 94.5213 24.082 92.3933C23.5086 90.6226 24.0126 88.9559 24.458 87.4839C24.7193 86.6146 24.9673 85.7959 24.9673 85.0626C24.9673 85.0359 24.9673 85.0066 24.97 84.9799C24.9806 84.7799 24.922 84.5853 24.8073 84.4226C24.5993 84.2786 23.9086 84.3079 23.3993 84.3266C22.93 84.3453 22.4446 84.3639 21.9353 84.3159C20.322 84.1639 18.8686 83.2866 17.8446 81.8413C16.6446 80.1479 16.2046 77.8786 16.6953 75.9159C17.3993 73.0919 19.682 70.5746 23.1246 68.8333C24.426 68.1746 25.7753 67.6573 27.0793 67.1586C28.4366 66.6386 29.7166 66.1479 30.9273 65.5159C33.7886 64.0173 36.1806 61.7586 37.842 58.9853C38.45 57.9693 38.9566 56.8893 39.4926 55.7453C40.1353 54.3799 40.7966 52.9666 41.6606 51.6333C44.194 47.7346 48.3566 44.6493 54.0313 42.4599C56.9513 41.3346 59.986 40.5266 62.9193 39.7426C64.6553 39.2786 66.45 38.8013 68.1806 38.2653C68.6606 38.1159 69.1406 37.9639 69.6206 37.8093C72.7753 36.7986 76.0366 35.7559 79.506 36.0679C82.178 36.3079 85.4766 37.6573 86.714 40.7186C87.0446 41.5373 86.65 42.4706 85.8286 42.8013C85.01 43.1319 84.0766 42.7373 83.746 41.9159C83.0473 40.1879 80.8713 39.4039 79.218 39.2546C76.394 39.0013 73.578 39.9026 70.594 40.8573C70.1033 41.0146 69.6126 41.1719 69.1246 41.3239C67.3353 41.8759 65.5086 42.3639 63.7433 42.8359C60.89 43.5959 57.9406 44.3826 55.1833 45.4466C50.1486 47.3879 46.5006 50.0573 44.3433 53.3773C43.5993 54.5239 43.01 55.7773 42.3886 57.1053C41.842 58.2679 41.2766 59.4733 40.586 60.6279C38.6233 63.9079 35.794 66.5799 32.4073 68.3533C31.0313 69.0706 29.602 69.6173 28.2206 70.1479C26.9353 70.6386 25.722 71.1053 24.5673 71.6893C23.0606 72.4519 20.4393 74.1159 19.7966 76.6919C19.53 77.7586 19.7886 79.0546 20.4526 79.9933C20.7886 80.4679 21.3726 81.0519 22.234 81.1319C22.53 81.1613 22.89 81.1453 23.2713 81.1319C24.4153 81.0866 25.9806 81.0253 27.138 82.2253C27.162 82.2519 27.186 82.2759 27.21 82.3053C27.8713 83.0893 28.21 84.0813 28.1673 85.1053C28.1593 86.2973 27.8206 87.4199 27.5193 88.4119C27.1646 89.5826 26.8606 90.5906 27.1273 91.4119C27.394 92.2386 28.386 92.8813 29.4393 92.9053C30.5246 92.9239 31.6953 92.4199 32.7566 91.4679C32.8686 91.3666 32.9886 91.2546 33.1113 91.1399C34.1726 90.1479 35.6286 88.7879 37.6046 89.1799C39.6233 89.5746 40.3993 91.3986 40.9673 92.7319C41.1406 93.1346 41.3006 93.5159 41.4766 93.8253C41.7513 94.3133 42.1513 94.7213 42.634 95.0066C43.1166 95.2919 43.666 95.4493 44.226 95.4573C44.7886 95.4653 45.3406 95.3266 45.8313 95.0546C46.322 94.7826 46.7326 94.3853 47.0233 93.9053C47.4793 93.1479 48.4633 92.9053 49.2206 93.3613C49.978 93.8173 50.2206 94.8013 49.7646 95.5586C49.186 96.5159 48.3646 97.3079 47.386 97.8519C46.434 98.3773 45.3593 98.6546 44.274 98.6546Z" fill="black"/>
<path d="M93.8869 103.767C93.0709 103.767 92.3749 103.146 92.2949 102.317C92.2123 101.437 92.8576 100.655 93.7376 100.573C94.6656 100.485 95.2736 100.186 95.9776 99.8366C97.3829 99.1432 98.9723 98.3566 102.058 99.7566C102.77 99.9059 105.3 99.4392 105.876 99.1112C106.684 98.6126 107.095 97.5112 107.572 96.2392C108.01 95.0686 108.506 93.7406 109.452 92.6579C110.282 91.7112 111.335 91.0899 112.268 90.5459C113.231 89.9806 114.063 89.4926 114.487 88.7939C115.058 87.8499 114.895 86.5406 114.708 85.0232C114.586 84.0286 114.458 82.9992 114.524 81.9379C114.674 79.6152 115.73 77.5806 116.751 75.6126C117.914 73.3726 118.919 71.4366 118.394 69.5486C117.948 67.9406 116.492 66.8099 114.807 65.5032C113.719 64.6579 112.596 63.7859 111.658 62.6952C110.351 61.1752 109.572 59.4099 108.815 57.7032C108.503 56.9966 108.207 56.3272 107.876 55.6792C104.804 49.6339 98.1909 45.3912 91.4176 45.1166C90.5349 45.0819 89.8469 44.3352 89.8843 43.4526C89.9189 42.5699 90.6709 41.8846 91.5483 41.9192C99.5643 42.2419 107.095 47.0739 110.73 54.2286C111.098 54.9512 111.426 55.6926 111.743 56.4072C112.434 57.9699 113.087 59.4472 114.087 60.6099C114.812 61.4552 115.764 62.1939 116.77 62.9752C118.634 64.4232 120.746 66.0632 121.476 68.6899C122.34 71.7912 120.879 74.6046 119.591 77.0872C118.682 78.8392 117.823 80.4926 117.716 82.1432C117.668 82.9032 117.772 83.7406 117.882 84.6286C118.111 86.4712 118.37 88.5592 117.22 90.4526C116.375 91.8446 115.052 92.6206 113.884 93.3032C113.092 93.7672 112.346 94.2046 111.858 94.7646C111.295 95.4072 110.943 96.3539 110.567 97.3566C109.972 98.9512 109.298 100.759 107.548 101.839C106.394 102.549 102.367 103.423 100.772 102.687C99.0389 101.89 98.5243 102.146 97.3936 102.706C96.5749 103.111 95.5536 103.615 94.0389 103.759C93.9883 103.765 93.9376 103.767 93.8869 103.767ZM102.111 99.7806C102.111 99.7832 102.111 99.7832 102.111 99.7806C102.111 99.7832 102.111 99.7832 102.111 99.7806Z" fill="black"/>
<path d="M52.277 66.0221C52.2636 66.0221 52.2503 66.0221 52.2343 66.0221C51.3516 66.0007 50.653 65.2647 50.6743 64.3821C50.7383 61.8407 53.325 60.4194 55.7276 60.3741C56.2343 60.3634 56.7223 60.3927 57.1943 60.4194C58.197 60.4781 59.0636 60.5261 59.733 60.2114C60.413 59.8914 60.941 59.1474 61.549 58.2834C61.8076 57.9181 62.0716 57.5421 62.3703 57.1741C63.357 55.9501 64.573 54.9741 65.981 54.2701C67.389 53.5687 68.901 53.1847 70.4716 53.1314C72.045 53.0781 73.5783 53.3581 75.029 53.9634C76.4796 54.5687 77.7596 55.4621 78.8263 56.6167C79.4263 57.2647 79.3863 58.2781 78.7383 58.8781C78.0903 59.4781 77.077 59.4381 76.477 58.7901C75.7223 57.9741 74.821 57.3447 73.7943 56.9181C72.7703 56.4914 71.685 56.2914 70.5783 56.3314C69.469 56.3687 68.4023 56.6381 67.4076 57.1341C66.413 57.6301 65.557 58.3207 64.8583 59.1847C64.6263 59.4727 64.3996 59.7927 64.1623 60.1314C63.4023 61.2087 62.541 62.4274 61.0956 63.1074C59.693 63.7687 58.269 63.6861 57.013 63.6141C56.581 63.5901 56.173 63.5661 55.789 63.5741C54.789 63.5927 53.885 64.0861 53.877 64.4621C53.8556 65.3314 53.1436 66.0221 52.277 66.0221Z" fill="black"/>
<path d="M93.0272 79.6867C92.9952 79.6867 92.9606 79.6867 92.9286 79.684C90.3446 79.5267 86.7392 77.6574 85.0912 72.9027C84.2326 70.4254 84.0992 67.8707 83.9686 65.3987C83.9366 64.7667 83.9019 64.1161 83.8566 63.4841C83.7766 62.3961 83.6246 61.3161 83.0539 60.7667C82.4406 60.1774 81.2459 60.1134 79.9766 60.0947C79.0939 60.0814 78.3872 59.3561 78.4006 58.4707C78.4139 57.5881 79.1419 56.8814 80.0246 56.8947C81.4859 56.9161 83.6966 56.9481 85.2699 58.4574C86.6246 59.7587 86.9312 61.6094 87.0512 63.252C87.0992 63.9134 87.1339 64.5827 87.1686 65.2307C87.2912 67.5827 87.4086 69.8067 88.1179 71.8547C88.8806 74.0574 90.7259 76.3454 93.1232 76.492C94.0059 76.5454 94.6779 77.3027 94.6246 78.1854C94.5712 79.0334 93.8646 79.6867 93.0272 79.6867Z" fill="black"/>
<path d="M58.2475 74.6935C59.2785 74.6935 60.1142 73.6787 60.1142 72.4268C60.1142 71.175 59.2785 70.1602 58.2475 70.1602C57.2166 70.1602 56.3809 71.175 56.3809 72.4268C56.3809 73.6787 57.2166 74.6935 58.2475 74.6935Z" fill="black"/>
<path d="M67.3139 75.3185C68.3449 75.3185 69.1806 74.3037 69.1806 73.0518C69.1806 71.8 68.3449 70.7852 67.3139 70.7852C66.283 70.7852 65.4473 71.8 65.4473 73.0518C65.4473 74.3037 66.283 75.3185 67.3139 75.3185Z" fill="black"/>
<path d="M90.5564 104.639C89.7351 104.639 89.0337 104.01 88.9644 103.172C88.6257 99.1564 89.4071 97.3191 91.0657 93.8631C91.6737 92.6018 92.8231 92.3244 93.5111 92.1591C93.6604 92.1218 93.8017 92.0898 93.9244 92.0498C94.5591 91.8498 95.1857 91.6204 95.7911 91.3644C97.0151 90.8577 98.1644 90.2044 99.2204 89.4204C101.348 87.8124 102.831 85.6498 103.38 83.3351C103.663 82.1698 104.047 79.3378 101.548 78.0764C100.458 77.5244 99.3884 77.3084 96.4577 79.8844C95.7937 80.4684 94.7831 80.4018 94.1991 79.7378C93.6151 79.0738 93.6817 78.0631 94.3457 77.4791C98.5537 73.7804 100.986 74.2071 102.988 75.2178C106.092 76.7858 107.434 80.1804 106.49 84.0791C105.77 87.1084 103.868 89.9164 101.138 91.9778C99.863 92.9244 98.4817 93.7084 97.0257 94.3111C96.3351 94.6018 95.6124 94.8684 94.8844 95.0951C94.6631 95.1644 94.4497 95.2178 94.263 95.2631C94.1457 95.2924 93.9937 95.3271 93.895 95.3591C92.3617 98.5591 91.887 99.7617 92.1537 102.898C92.2284 103.778 91.575 104.551 90.695 104.626C90.647 104.636 90.6017 104.639 90.5564 104.639Z" fill="black"/>
<path d="M71.7705 106.998C70.9198 106.998 70.2132 106.329 70.1732 105.47C70.0878 103.593 70.0692 102.649 70.1225 101.361C66.9172 101.979 63.6532 101.411 61.1358 100.971C57.0692 100.254 53.9092 98.8061 51.4745 96.5421C46.9998 92.3741 44.9118 85.6168 45.7438 77.9981C46.0558 75.1741 47.2185 70.9714 48.8585 66.7554C49.1785 65.9314 50.1065 65.5234 50.9305 65.8434C51.7545 66.1634 52.1625 67.0914 51.8425 67.9154C50.0238 72.5928 49.1438 76.3714 48.9252 78.3474C48.2025 84.9474 49.9252 90.7261 53.6558 94.1981C55.6505 96.0541 58.2025 97.2034 61.6878 97.8168C65.2505 98.4381 68.4318 98.8568 71.2425 97.7074C71.7518 97.4994 72.3332 97.5688 72.7812 97.8888C73.2292 98.2114 73.4798 98.7394 73.4452 99.2888C73.2745 101.971 73.2452 102.563 73.3732 105.315C73.4132 106.198 72.7305 106.947 71.8478 106.987C71.8185 106.998 71.7945 106.998 71.7705 106.998Z" fill="black"/>
<path d="M90.499 100C90.739 102.693 91.8403 108.779 95.939 107.867L96.379 108.533C96.179 112.712 94.0617 115.659 90.7443 118.712C87.3737 121.765 83.075 123.6 78.539 123.923C74.539 124.216 70.2857 123.259 67.2937 120.576C64.3017 117.893 62.7283 114.176 64.7097 110.989H64.9977C65.899 111.016 66.7283 110.544 67.491 110.064C68.4617 109.451 70.4643 106.936 71.0643 106.213C71.8643 105.176 72.1897 101.243 72.6003 100H90.499V100Z" fill="#FFD39F"/>
<path d="M39.3083 230.576C38.0017 230.533 36.735 230.125 35.647 229.4C34.559 228.674 33.6977 227.661 33.1563 226.472C33.423 222.205 34.223 217.138 30.7563 213.672C30.223 211.538 31.823 209.938 33.6897 209.242L41.1777 210.213L39.3083 230.576Z" fill="#FFD39F"/>
<path fill-rule="evenodd" clip-rule="evenodd" d="M38.4744 203.278C39.6897 203.402 40.8983 203.525 42.1524 203.763L42.2804 203.779L40.4537 219.529L40.4522 219.541C40.0527 222.98 39.6535 226.415 39.5017 229.878C39.4644 230.75 39.4617 231.691 39.963 232.406C40.5683 233.278 41.7044 233.542 42.739 233.739L54.2057 235.934L57.5577 236.326C75.3257 239.323 93.1257 238.545 110.862 235.363L123.254 232.897C124.385 232.546 125.623 232.391 126.871 232.235C129.491 231.908 132.154 231.576 133.96 229.409C134.179 228.905 134.27 228.355 134.227 227.809C133.456 224.106 131.078 217.458 128.892 211.348C127.3 206.897 125.81 202.731 125.118 200.198L124.851 199.763C124.55 179.587 123.731 159.353 119.174 139.734L118.326 137.171C116.086 129.945 113.152 123.011 109.024 116.747L108.491 111.627C108.502 110.793 108.291 109.966 107.88 109.238C107.47 108.51 106.875 107.902 106.155 107.475C105.435 107.049 104.616 106.822 103.779 106.814C102.942 106.806 102.118 107.019 101.39 107.433C102.36 106.153 101.878 104.147 100.611 103.166C99.3444 102.185 97.555 102.102 96.027 102.582C94.499 103.062 93.1817 104.035 91.9284 105.033C91.0207 105.757 90.1225 106.51 89.2223 107.264C85.4412 110.431 81.6244 113.628 76.9204 114.921L73.7684 113.934C72.011 113.539 70.8324 111.889 70.1444 110.227C69.9059 109.652 69.7072 109.058 69.5087 108.465C69.1344 107.346 68.7608 106.23 68.123 105.241C67.147 103.726 65.3017 102.545 63.5897 103.094C61.491 103.766 60.9177 106.395 60.5283 108.566C60.4937 108.897 60.379 109.217 60.1924 109.491C59.8939 109.862 59.3902 109.969 58.9187 110.07C58.8889 110.076 58.8592 110.082 58.8297 110.089C57.763 110.318 56.6777 110.729 55.8964 111.505C55.115 112.281 54.683 113.478 55.0403 114.521L53.691 116.75C52.9443 117.59 51.0243 120.337 51.0243 120.337C46.0925 128.643 44.1926 137.202 42.1275 146.505C42.071 146.76 42.0144 147.014 41.9577 147.27C38.2596 164.774 36.6129 181.367 34.9102 198.523C34.7713 199.924 34.6319 201.328 34.491 202.737C35.8688 203.012 37.1754 203.145 38.4744 203.278ZM41.1829 210.211C38.8122 210.195 36.4549 209.835 34.1855 209.144C34.3455 207.157 34.5189 205.117 35.3749 203.317L41.9695 204.053L41.1829 210.211Z" fill="black"/>
<path d="M105.258 216.266C102.687 217.095 99.6816 220.183 101.855 223.031C103.05 224.602 104.855 225.447 106.511 226.434C107.786 227.191 108.124 229.751 108.618 231.106C109.866 234.522 112.29 237.332 116.266 237.066C120.308 236.799 122.823 233.356 123.591 229.644C124.423 225.618 123.004 220.332 122.335 216.351L105.258 216.266Z" fill="#FFD39F"/>
<path fill-rule="evenodd" clip-rule="evenodd" d="M82.4202 124.518C82.4762 125.366 83.1802 126.014 84.0149 126.014C84.0522 126.014 84.0869 126.014 84.1189 126.006C91.2522 125.539 98.2362 123.304 104.319 119.55C105.575 118.776 106.628 117.966 107.476 117.124C107.518 117.295 107.59 117.462 107.692 117.617C111.383 123.217 114.362 129.767 116.802 137.636C117.015 138.324 117.647 138.764 118.33 138.764C118.487 138.764 118.647 138.74 118.802 138.692C119.647 138.431 120.119 137.535 119.858 136.689C117.327 128.527 114.223 121.713 110.364 115.857C110.063 115.399 109.568 115.147 109.058 115.138C109.725 114.024 110.069 112.861 110.084 111.656C110.098 110.539 109.815 109.435 109.268 108.462C108.722 107.488 107.924 106.672 106.962 106.104C106.002 105.536 104.903 105.232 103.786 105.222C103.679 105.222 103.575 105.222 103.468 105.227C103.314 103.974 102.666 102.747 101.583 101.91C100.007 100.688 97.7455 100.371 95.5402 101.064C93.7242 101.635 92.2069 102.768 90.9242 103.79C89.5174 104.912 88.3396 106.013 87.2006 107.079L87.2006 107.079L87.1589 107.118L87.1561 107.12C84.4587 109.644 82.3282 111.638 78.5829 112.667C77.7295 112.902 77.2282 113.782 77.4629 114.635C77.6975 115.488 78.5802 115.99 79.4309 115.755C83.9402 114.518 86.5669 112.059 89.3455 109.456L89.3889 109.416C90.4821 108.394 91.6135 107.336 92.9189 106.294C94.0229 105.416 95.2069 104.523 96.5002 104.118C97.6895 103.744 98.8869 103.867 99.6255 104.44C100.258 104.931 100.5 105.958 100.108 106.475C99.6495 107.08 99.6789 107.926 100.18 108.496C100.682 109.067 101.514 109.208 102.175 108.835C102.65 108.566 103.188 108.424 103.732 108.424H103.759C104.314 108.427 104.86 108.579 105.338 108.862C105.815 109.144 106.21 109.547 106.482 110.032C106.754 110.518 106.895 111.064 106.887 111.619C106.866 113.355 105.436 115.107 102.642 116.83C97.0015 120.312 90.5242 122.382 83.9109 122.816C83.0309 122.875 82.3615 123.635 82.4202 124.518ZM52.1429 237.152C52.0442 237.152 51.9429 237.142 51.8415 237.123L42.4442 235.323C41.3935 235.112 39.6629 234.763 38.6602 233.339C38.3712 232.927 38.1865 232.492 38.071 232.052C36.8919 231.848 35.765 231.399 34.7615 230.728C33.4255 229.838 32.3668 228.595 31.7028 227.134C31.5935 226.894 31.5455 226.632 31.5615 226.371C31.5867 225.952 31.6191 225.523 31.6519 225.09L31.6519 225.09L31.652 225.089L31.652 225.089L31.6575 225.016C31.9348 221.27 32.2202 217.395 29.6282 214.8C29.4228 214.595 29.2788 214.339 29.2068 214.056C28.577 211.537 29.9651 209.123 32.6816 207.923C32.8026 206.624 32.9855 205.252 33.4184 203.918C33.0562 203.588 32.853 203.097 32.9054 202.577C33.0213 201.423 33.1353 200.271 33.249 199.123L33.3241 198.364L33.3315 198.29C35.0567 180.917 36.6867 164.504 40.3988 146.937L40.5721 146.156C42.6388 136.841 44.5935 128.044 49.6548 119.516C49.6761 119.481 49.6974 119.449 49.7188 119.417L49.748 119.376C50.0541 118.94 51.7455 116.534 52.5028 115.684C52.7872 115.363 53.1718 115.184 53.5677 115.152C53.5539 115.115 53.5404 115.078 53.5275 115.041C52.9915 113.481 53.4795 111.649 54.7701 110.369C55.6741 109.473 56.8901 108.87 58.4955 108.524L58.5888 108.502C58.6928 108.481 58.8315 108.452 58.9355 108.422C58.9355 108.418 58.9361 108.415 58.9368 108.412C58.9372 108.41 58.9376 108.408 58.9378 108.405C58.938 108.404 58.9381 108.402 58.9381 108.401C58.9435 108.358 58.9488 108.318 58.9568 108.278L58.9581 108.271C59.3476 106.134 59.9976 102.568 63.1035 101.569C64.9541 100.977 67.7355 101.609 69.4821 104.388C69.6704 104.687 69.8378 104.991 69.9893 105.298C70.3051 104.612 71.0766 104.225 71.8355 104.419C72.6915 104.635 73.2115 105.507 72.9928 106.363C72.7517 107.32 72.3658 107.96 71.3667 108.939C71.45 109.168 71.5356 109.392 71.6261 109.612C72.0021 110.516 72.8261 112.078 74.1221 112.372C74.9835 112.566 75.5248 113.422 75.3328 114.284C75.1381 115.145 74.2821 115.686 73.4208 115.494C71.4155 115.044 69.7275 113.39 68.6688 110.841C68.4075 110.212 68.1915 109.58 67.9861 108.966L67.9761 108.937C67.6225 107.897 67.2879 106.913 66.7701 106.092C66.1701 105.137 64.9995 104.324 64.0795 104.617C62.9115 104.993 62.4501 106.964 62.1141 108.798C62.0448 109.366 61.8395 109.913 61.5195 110.388C61.4955 110.422 61.4688 110.457 61.4422 110.491L61.4422 110.491L61.4421 110.492C60.7882 111.305 59.872 111.501 59.2614 111.632L59.2555 111.633L59.1701 111.652C58.1968 111.862 57.4768 112.193 57.0261 112.638C56.6288 113.033 56.4261 113.62 56.5568 114.001C56.6795 114.358 57.0848 114.742 57.4635 115.068C60.8981 118.076 65.0768 120.089 69.5568 120.894C70.4261 121.052 71.0048 121.884 70.8475 122.753C70.7035 123.526 70.0288 124.07 69.2715 124.07C69.1781 124.07 69.0821 124.062 68.9861 124.044C63.9355 123.134 59.2235 120.865 55.3621 117.484C55.3047 117.434 55.2467 117.383 55.1885 117.331C55.121 117.503 55.0224 117.666 54.8921 117.812C54.3428 118.428 52.9215 120.423 52.3748 121.201C47.5961 129.273 45.7001 137.809 43.6948 146.849L43.5241 147.615C39.8477 165.013 38.2263 181.358 36.5095 198.665L36.5081 198.679C36.4174 199.585 36.3268 200.495 36.2361 201.407C37.0334 201.519 37.8228 201.601 38.6414 201.684L38.6848 201.688C39.4044 201.762 40.1379 201.837 40.8884 201.938L42.1002 191.488L42.1093 191.411C44.3038 172.627 46.573 153.204 50.9882 134.464C51.1909 133.606 52.0522 133.07 52.9135 133.275C53.7722 133.478 54.3055 134.339 54.1029 135.2C49.729 153.767 47.4705 173.102 45.2861 191.802L45.2789 191.864L45.2015 192.531L42.0469 219.731L42.0452 219.745C41.6564 223.098 41.2546 226.563 41.1029 229.966C41.0842 230.39 41.0495 231.184 41.2762 231.504C41.5429 231.883 42.4922 232.075 43.0575 232.187L52.4389 233.982C53.3055 234.147 53.8762 234.987 53.7082 235.854C53.5669 236.619 52.8975 237.152 52.1429 237.152ZM32.2602 212.926C32.2119 211.706 33.5822 211.016 34.1138 210.794C35.9534 211.322 37.8413 211.648 39.7488 211.765L38.8682 219.358L38.8571 219.454C38.5062 222.486 38.1447 225.61 37.9633 228.741C37.4611 228.588 36.9818 228.361 36.5402 228.067C35.8068 227.576 35.2042 226.918 34.7855 226.144C34.7973 225.956 34.8113 225.768 34.8255 225.579C34.8336 225.47 34.8417 225.361 34.8495 225.251L34.8498 225.247C35.1377 221.344 35.4936 216.519 32.2602 212.926ZM40.5195 205.118L40.118 208.581C38.6933 208.505 37.2784 208.295 35.8926 207.956C36.0059 206.819 36.1761 205.694 36.5416 204.675C37.1446 204.749 37.735 204.809 38.3161 204.868L38.4389 204.881L38.4397 204.881L38.44 204.881C39.1474 204.954 39.8333 205.025 40.5195 205.118ZM57.2895 237.9C64.8415 239.175 72.5535 239.812 80.5242 239.812C90.1816 239.812 100.217 238.873 110.783 236.998C112.217 238.101 113.904 238.683 115.762 238.683C115.962 238.683 116.167 238.678 116.372 238.662C119.2 238.476 121.658 236.939 123.306 234.489C123.445 234.484 123.585 234.461 123.726 234.421C124.721 234.112 125.862 233.968 127.068 233.818C129.838 233.474 132.977 233.082 135.188 230.429C135.286 230.312 135.366 230.181 135.428 230.04C135.745 229.301 135.881 228.485 135.82 227.682C135.814 227.613 135.804 227.546 135.79 227.48C134.996 223.667 132.658 217.13 130.396 210.808L130.396 210.805C128.82 206.405 127.334 202.248 126.657 199.773C126.611 199.606 126.541 199.452 126.45 199.314C126.187 180.034 125.48 161.478 120.943 141.919C120.743 141.058 119.884 140.522 119.023 140.722C118.161 140.922 117.625 141.78 117.825 142.642C122.889 164.474 123.108 185.187 123.34 207.115V207.115L123.34 207.122L123.345 207.527L103.156 207.196C100.156 183.756 99.1214 159.914 100.079 136.306C100.116 135.423 99.4281 134.676 98.5454 134.642C97.6628 134.61 96.9161 135.292 96.8814 136.175C95.8974 160.423 97.0014 184.919 100.161 208.98C100.243 209.599 100.671 210.097 101.236 210.288C101.011 211.926 100.952 213.584 101.062 215.237C101.062 215.536 101.113 215.829 101.217 216.109C101.337 216.429 101.516 216.717 101.75 216.962C101.773 216.986 101.796 217.009 101.82 217.032C100.854 217.762 100.053 218.697 99.7004 219.822C99.3964 220.795 99.303 222.31 100.583 223.99C101.767 225.547 103.402 226.483 104.844 227.307C105.13 227.47 105.412 227.633 105.695 227.801C106.09 228.034 106.521 229.606 106.71 230.293L106.714 230.307C106.844 230.787 106.97 231.241 107.116 231.646C107.455 232.575 107.857 233.421 108.315 234.177C90.1485 237.224 73.6081 237.408 57.8202 234.745C56.9482 234.596 56.1242 235.185 55.9775 236.057C55.8309 236.927 56.4175 237.753 57.2895 237.9ZM106.767 217.569C106.608 218.027 106.243 218.407 105.746 218.566C104.263 219.046 103.004 219.977 102.754 220.779C102.706 220.931 102.58 221.334 103.127 222.051C103.919 223.091 105.139 223.789 106.429 224.528L106.431 224.529L106.649 224.654C106.878 224.785 107.105 224.915 107.33 225.049C108.834 225.941 109.368 227.888 109.797 229.452L109.799 229.459C109.911 229.873 110.02 230.265 110.122 230.547C110.986 232.918 112.73 235.689 116.159 235.467C118.412 235.318 121.132 233.625 122.026 229.318C122.71 226.007 122.091 222.443 121.492 218.994L121.49 218.982L121.459 218.803C121.397 218.447 121.336 218.093 121.276 217.739C121.264 217.669 121.257 217.598 121.255 217.528L106.767 217.569ZM124.031 216.39C124.234 216.611 124.378 216.891 124.431 217.209C124.5 217.617 124.57 218.025 124.642 218.435L124.644 218.449C125.294 222.191 125.966 226.061 125.159 229.969C125.095 230.278 125.022 230.581 124.94 230.878C125.518 230.785 126.097 230.713 126.668 230.642C129.068 230.344 131.156 230.082 132.558 228.57C132.612 228.392 132.636 228.202 132.63 228.016C131.855 224.4 129.486 217.773 127.389 211.91L127.389 211.91L127.38 211.882L127.31 211.687L127.31 211.687L127.309 211.684L127.298 211.656L127.292 211.637C127.033 210.912 126.776 210.195 126.526 209.491C126.461 209.79 126.311 210.068 126.089 210.287C125.793 210.586 125.385 210.754 124.964 210.754H124.937L124.4 210.745L124.532 214.122C124.545 214.538 124.576 215.56 124.031 216.39ZM121.195 210.692L104.45 210.417C104.25 211.729 104.174 213.057 104.222 214.384L121.337 214.336V214.335L121.337 214.312L121.337 214.297C121.337 214.279 121.336 214.26 121.334 214.24L121.195 210.692Z" fill="black"/>
</svg>
