<svg width="160" height="260" viewBox="0 0 160 260" fill="none" xmlns="http://www.w3.org/2000/svg">
<path d="M100.533 92.4314C101.067 94.0687 103.563 93.4287 104.915 92.3567C111.357 87.2447 115.187 79.098 115.373 70.874C115.56 62.65 112.203 54.4714 106.557 48.49C103.184 44.9194 98.6346 41.9807 93.7306 42.2314L85.8666 38.3327C84.7759 35.9087 81.8932 34.7967 79.2399 34.6687C76.5866 34.5407 73.9333 35.1434 71.2799 35.0234C69.1652 34.9274 67.0799 34.3754 64.9653 34.434C60.0506 34.5674 55.8426 37.9167 52.4053 41.434C46.6266 47.346 41.6346 54.8127 41.6506 63.082C41.6506 67.77 42.9839 73.3274 39.5173 76.49C39.0693 76.9007 38.5013 77.4234 38.7173 77.9914C38.7946 78.1407 38.8986 78.274 39.0293 78.3807C39.1599 78.4874 39.3093 78.5674 39.4693 78.6127C42.3679 79.7887 46.0826 78.1114 47.1146 75.146L52.3359 65.2954C54.0853 62.6287 57.7066 61.8447 60.8826 62.17C64.0586 62.4954 67.1039 63.674 70.2853 63.9594C72.8453 64.1674 75.4212 63.7994 77.8212 62.882C80.2212 61.9647 82.3839 60.5167 84.1519 58.65L85.7519 59.082C87.2826 59.8394 88.5732 61.01 89.4799 62.458C90.3839 63.9087 90.8693 65.5807 90.8773 67.29C90.8613 69.042 90.3439 70.7434 90.0559 72.474C89.7679 74.2047 89.7706 76.0874 90.6959 77.5754C91.6212 79.0634 93.7279 79.9114 95.2079 78.97" fill="black"/>
<path d="M90.5591 104.368C90.2524 100.72 90.9618 97.8721 92.5484 94.5707C92.9058 93.8241 93.6818 93.8321 94.4471 93.5894C95.1244 93.3761 95.7964 93.1307 96.4524 92.8534C97.7884 92.2987 99.0498 91.5814 100.212 90.7201C102.511 88.9841 104.3 86.5467 104.975 83.7201C105.586 81.1574 105.156 78.1067 102.295 76.6641C100.29 75.6507 98.4898 76.0107 95.4311 78.6987L95.2151 78.9841C93.7351 79.9254 91.6258 79.0801 90.7031 77.5894C89.7804 76.0987 89.7831 74.2187 90.0631 72.4881C90.3431 70.7574 90.8631 69.0561 90.8844 67.3041C90.8764 65.5947 90.3911 63.9227 89.4871 62.4721C88.5831 61.0214 87.2924 59.8534 85.7591 59.0961L84.1591 58.6641C82.3911 60.5307 80.2284 61.9761 77.8284 62.8961C75.4284 63.8161 72.8524 64.1841 70.2924 63.9734C67.1111 63.6881 64.0658 62.5121 60.8898 62.1841C57.7138 61.8561 54.0924 62.6374 52.3431 65.3094L50.6658 66.9307C49.0658 69.3307 48.7991 72.2641 47.9991 75.1974C47.9991 76.0401 44.7564 87.4214 52.2658 94.9307C54.9324 97.5974 58.3991 98.6641 61.9991 99.4641C65.2284 99.9627 68.7564 100.464 71.8658 99.1974C71.6871 101.973 71.7164 104.416 71.8444 107.195" fill="#FFD39F"/>
<path fill-rule="evenodd" clip-rule="evenodd" d="M38.9323 80.1172C39.7269 80.4319 40.5856 80.5866 41.4576 80.5866C42.5296 80.5866 43.6229 80.3545 44.6576 79.8852C44.9937 79.733 45.3158 79.5593 45.6219 79.3662C45.1693 86.4218 47.2666 92.6247 51.4714 96.5413C53.906 98.8053 57.066 100.253 61.1327 100.971C63.65 101.411 66.914 101.979 70.1194 101.36C70.066 102.648 70.0847 103.592 70.17 105.469C70.21 106.328 70.9167 106.997 71.7674 106.997C71.794 106.997 71.818 106.997 71.8447 106.987C72.7274 106.947 73.41 106.197 73.37 105.315C73.242 102.563 73.2714 101.971 73.442 99.288C73.4767 98.7387 73.226 98.208 72.778 97.888C72.33 97.568 71.7487 97.4987 71.2394 97.7067C68.426 98.856 65.2474 98.4373 61.6847 97.816C58.1994 97.2027 55.6474 96.0533 53.6527 94.1973C49.922 90.7253 48.1994 84.9467 48.922 78.3467C49.1407 76.3707 50.0207 72.592 51.8394 67.9147C51.9794 67.5541 51.98 67.1737 51.8674 66.833C52.0201 66.8795 52.1769 66.9024 52.3329 66.9024C52.8556 66.9024 53.3649 66.6491 53.6689 66.1771C55.0876 64.0144 58.2396 63.5131 60.7143 63.7664C62.1477 63.9118 63.5628 64.2488 65.061 64.6055L65.061 64.6055L65.0983 64.6144C66.7169 65.001 68.3943 65.4011 70.1489 65.5584C72.9329 65.7851 75.7809 65.377 78.3889 64.3797C80.7471 63.4779 82.9287 62.0834 84.7445 60.3262C84.8374 60.4026 84.9404 60.4697 85.0528 60.5254C86.3195 61.152 87.3835 62.1174 88.1328 63.3147C88.8795 64.5147 89.2795 65.896 89.2875 67.2854C89.2795 68.328 89.0555 69.3974 88.8182 70.528L88.8072 70.5805C88.6959 71.111 88.5804 71.6612 88.4875 72.2214C88.0608 74.7814 88.3408 76.8134 89.3462 78.4294C90.0955 79.632 91.3675 80.5387 92.7515 80.8534C93.1062 80.9334 93.4608 80.9734 93.8102 80.9734C94.6235 80.9734 95.4048 80.7547 96.0768 80.3307C96.3194 80.176 96.5064 79.9668 96.6318 79.7293C99.431 77.3141 100.479 77.5324 101.548 78.0733C104.047 79.3346 103.663 82.1666 103.38 83.332C102.831 85.644 101.348 87.8093 99.22 89.4173C98.164 90.2013 97.0147 90.8546 95.7907 91.3613C95.1853 91.6173 94.5587 91.8466 93.924 92.0466C93.8273 92.0782 93.719 92.1047 93.6043 92.1329L93.6042 92.1329L93.5107 92.156C92.8227 92.3213 91.6733 92.5986 91.0653 93.86C89.4067 97.3133 88.6253 99.1533 88.964 103.169C89.0333 104.004 89.7347 104.636 90.556 104.636C90.6013 104.636 90.6467 104.633 90.6947 104.623C91.5747 104.551 92.228 103.775 92.1533 102.895C91.8867 99.7586 92.3613 98.556 93.8947 95.356C93.9704 95.3314 94.0776 95.3053 94.1763 95.2812L94.1764 95.2812C94.2063 95.2739 94.2354 95.2668 94.2627 95.26C94.4493 95.2146 94.6627 95.1613 94.884 95.092C95.612 94.8653 96.3347 94.5986 97.0253 94.308C97.7494 94.0083 98.455 93.6637 99.1382 93.2766C99.4995 94.0569 100.149 94.6165 100.997 94.8711C101.344 94.9751 101.706 95.0205 102.074 95.0205C103.464 95.0205 104.941 94.3618 105.898 93.6045C112.624 88.2685 116.762 79.7831 116.962 70.9058C117.154 62.3938 113.784 53.8205 107.709 47.3858C103.362 42.7858 98.3677 40.3858 93.6371 40.6285C92.7544 40.6738 92.0744 41.4258 92.1197 42.3085C92.1651 43.1911 92.9171 43.8738 93.7997 43.8258C98.8957 43.5698 103.245 47.3245 105.381 49.5858C110.882 55.4151 113.936 63.1591 113.762 70.8365C113.581 78.7751 109.898 86.3511 103.912 91.1005C103.218 91.6471 102.349 91.8631 102.002 91.8258C101.947 91.6904 101.875 91.5661 101.79 91.4548C104.171 89.453 105.828 86.8578 106.489 84.076C107.433 80.1773 106.092 76.7826 102.988 75.2146C100.988 74.204 98.5533 73.7773 94.3453 77.476C94.253 77.5572 94.1721 77.6467 94.103 77.7424C93.8756 77.8015 93.6404 77.7764 93.4635 77.736C92.9115 77.608 92.3622 77.2187 92.0662 76.7414C91.4982 75.8267 91.3568 74.4827 91.6448 72.7467C91.7171 72.2966 91.8098 71.8506 91.9069 71.3836L91.9069 71.3836L91.9069 71.3835L91.9069 71.3835L91.9069 71.3834L91.9488 71.1814C92.2075 69.9467 92.4742 68.672 92.4875 67.2907C92.4768 65.2827 91.9115 63.3227 90.8475 61.6187C89.7835 59.9174 88.2715 58.5467 86.4715 57.656C86.0957 57.47 85.682 57.4455 85.3091 57.5558C85.2893 57.5349 85.2688 57.5144 85.2476 57.4944C84.6076 56.8864 83.5943 56.913 82.9863 57.5557C81.3916 59.2384 79.4076 60.5637 77.2449 61.393C75.0823 62.2224 72.7169 62.5584 70.4236 62.3717C68.9267 62.2397 67.4507 61.8881 65.8894 61.5163L65.8893 61.5163L65.8893 61.5162L65.8892 61.5162L65.8423 61.505C64.2983 61.137 62.6983 60.7557 61.0423 60.585C56.6263 60.1344 52.8689 61.5691 50.9943 64.4251C50.7173 64.8489 50.6669 65.3562 50.8138 65.8033C50.0198 65.5608 49.1607 65.9683 48.8554 66.7547C47.9315 69.1297 47.1591 71.5006 46.6049 73.6231C46.1539 73.7761 45.7757 74.1286 45.6069 74.6132C45.2576 75.6132 44.4309 76.4719 43.3349 76.9679C42.5429 77.3279 41.7029 77.4559 40.9269 77.3492C43.8629 74.3545 43.6043 69.9812 43.3749 66.1039C43.3109 65.0425 43.2523 64.0399 43.2523 63.0719C43.2389 56.4585 46.7056 49.5519 53.5509 42.5465C56.2283 39.8079 60.3269 36.1545 65.0123 36.0265C66.0896 35.9972 67.1909 36.1492 68.3589 36.3119C69.2789 36.4399 70.2309 36.5705 71.2096 36.6159C72.6336 36.6799 74.0336 36.5545 75.3829 36.4319L75.4083 36.4296C76.7136 36.3131 77.9481 36.2029 79.1643 36.2612C81.1509 36.3572 83.5723 37.1225 84.4096 38.9839C84.7723 39.7892 85.7189 40.1492 86.5243 39.7865C87.3296 39.4239 87.6896 38.4772 87.3269 37.6719C85.8976 34.4932 82.2523 33.2079 79.3189 33.0665C77.8809 32.9976 76.4746 33.1239 75.1157 33.246L75.0949 33.2479C73.7936 33.3652 72.5643 33.4745 71.3536 33.4212C70.5387 33.3846 69.7188 33.2713 68.8511 33.1515L68.7963 33.1439C67.5509 32.9705 66.2629 32.7919 64.9216 32.8292C59.0736 32.9865 54.3243 37.1732 51.2603 40.3092C43.8069 47.9332 40.0363 55.5945 40.0496 63.0745C40.0496 64.0835 40.1102 65.1288 40.1689 66.1435L40.1776 66.2932L40.1779 66.2985C40.3911 69.9179 40.5925 73.3368 38.4363 75.3039C37.8923 75.8026 36.6203 76.9705 37.2229 78.5545C37.2416 78.6105 37.2656 78.6639 37.2923 78.7145C37.4683 79.0585 37.7109 79.3599 38.0096 79.6079C38.2843 79.8372 38.5936 80.0079 38.9323 80.1172ZM60.1134 72.4253C60.1134 73.6771 59.2777 74.6919 58.2467 74.6919C57.2158 74.6919 56.3801 73.6771 56.3801 72.4253C56.3801 71.1734 57.2158 70.1586 58.2467 70.1586C59.2777 70.1586 60.1134 71.1734 60.1134 72.4253ZM69.1806 73.0534C69.1806 74.3052 68.3449 75.3201 67.3139 75.3201C66.283 75.3201 65.4473 74.3052 65.4473 73.0534C65.4473 71.8015 66.283 70.7867 67.3139 70.7867C68.3449 70.7867 69.1806 71.8015 69.1806 73.0534Z" fill="black"/>
<g clip-path="url(#clip0_1123_38281)">
<path fill-rule="evenodd" clip-rule="evenodd" d="M90.499 99.9988C90.739 102.692 91.8403 108.777 95.939 107.865L96.379 108.532C96.179 112.711 94.0617 115.657 90.7443 118.711C87.3737 121.764 83.075 123.599 78.539 123.921C74.539 124.215 70.2857 123.257 67.2937 120.575C64.3017 117.892 62.7283 114.175 64.7097 110.988H64.9977C65.899 111.015 66.7283 110.543 67.491 110.063C68.0507 109.709 68.2655 108.563 68.4616 107.517C68.6055 106.748 68.7394 106.034 68.9923 105.727C69.7923 104.689 72.187 101.239 72.5977 99.9961H90.499V99.9988ZM105.384 216.815C102.816 217.644 99.6825 220.175 101.856 223.023C102.842 224.32 104.245 225.122 105.637 225.918C105.93 226.086 106.223 226.254 106.512 226.426C107.464 226.991 107.894 228.562 108.256 229.886L108.256 229.886C108.379 230.335 108.494 230.755 108.618 231.098C109.866 234.522 112.29 237.332 116.266 237.066C120.309 236.799 122.824 233.356 123.592 229.644C124.381 225.822 123.614 221.289 122.962 217.434C122.927 217.227 122.892 217.023 122.858 216.82L105.384 216.815ZM30.7602 213.669C30.2269 211.536 31.8269 209.936 33.6936 209.24L46.9469 211.229C47.4642 215.723 46.4216 219.533 45.1789 223.267C44.9764 223.878 44.853 224.518 44.7301 225.156C44.5245 226.223 44.3204 227.282 43.7496 228.187C42.8376 229.632 41.1816 230.344 39.4109 230.432C36.6109 230.547 33.1602 230.184 33.1602 226.469C33.1876 226.031 33.2206 225.585 33.254 225.133C33.5461 221.18 33.8713 216.78 30.7602 213.669Z" fill="#FFD39F"/>
<path d="M53.2544 183.404C52.5317 190.644 51.4037 197.836 49.8677 204.948C48.5317 204.353 47.0891 204.03 45.6277 204.001L42.1611 203.774C39.4517 203.444 37.2757 203.116 34.5664 202.788C35.6891 190.401 37.1291 178.046 38.8864 165.721C40.4144 154.988 42.1931 144.252 45.3504 133.881C48.1557 124.665 52.6064 115.134 61.0571 110.513L62.0411 108.99L70.2411 102.377C70.7344 103.19 70.3557 104.244 70.0624 103.977L68.9557 107.929C68.8117 108.334 68.7557 108.766 68.7851 109.196C68.9664 110.438 70.4464 110.95 71.6731 111.209L72.8011 111.31C78.0091 109.177 81.9317 107.201 85.8517 105.222C88.8064 103.732 91.8571 102.214 95.1584 101.961L96.4171 106.401C101.134 107.665 104.793 111.3 107.74 115.022C110.953 119.086 113.473 123.652 115.201 128.534C116.169 131.262 117.7 134.332 118.332 137.153L119.174 139.734C124.438 162.401 124.716 185.892 124.966 209.164L101.75 208.782C100.721 200.945 99.9104 193.086 99.3184 185.201L98.2864 185.236C87.9344 186.556 77.3184 185.452 67.3184 184.182C62.0144 184.82 56.5957 184.422 51.5637 182.801" fill="black"/>
<path fill-rule="evenodd" clip-rule="evenodd" d="M72.8012 111.314L75.3558 122.402L75.3804 122.394L75.3805 122.394C79.4336 120.97 83.497 119.542 87.3558 117.656C88.7478 116.976 90.1452 116.208 91.1532 115.032C92.3452 113.642 92.8785 111.832 93.3825 110.064L93.4048 109.985C94.1547 107.345 94.905 104.703 95.1532 101.965C91.8518 102.218 88.8012 103.736 85.8465 105.226L85.7208 105.289C81.8399 107.245 77.9456 109.206 72.8012 111.314ZM34.1855 209.149C34.3562 207.163 34.5695 204.789 35.4229 202.987L49.2682 204.267C49.1135 206.189 48.1482 208.877 47.4202 210.667C47.4069 210.717 47.3775 210.763 47.3375 210.797C47.2709 210.832 47.1935 210.843 47.1215 210.821C45.9464 210.635 44.2322 210.47 42.4029 210.294C39.3092 209.997 35.8865 209.667 34.1855 209.149ZM102.669 215.202C102.525 213.125 102.663 211.039 103.085 208.999L122.746 209.274L122.938 214.189C122.957 214.789 122.917 215.498 122.405 215.789C122.154 215.903 121.879 215.954 121.605 215.933L103.471 215.983C103.277 216.005 103.079 215.959 102.911 215.858C102.829 215.77 102.765 215.666 102.722 215.554C102.679 215.442 102.663 215.322 102.669 215.202ZM68.9476 107.934L70.0543 103.982C70.3476 104.228 70.7263 103.188 70.2303 102.374L62.0303 108.988C61.8329 111.004 62.0649 113.038 62.7156 114.958C63.3663 116.878 64.4169 118.636 65.7983 120.118C68.2943 117.545 70.2863 114.524 71.6649 111.214C70.4383 110.956 68.9583 110.444 68.7769 109.201C68.7476 108.772 68.8036 108.34 68.9476 107.934Z" fill="white"/>
<path fill-rule="evenodd" clip-rule="evenodd" d="M75.3535 124C75.0868 124 74.8202 123.934 74.5828 123.803C74.1828 123.584 73.8975 123.203 73.7962 122.76L73.0187 119.386C72.4778 128.504 71.8654 137.661 71.2687 146.571L71.2426 146.962C70.4565 158.727 69.6447 170.877 69.0102 182.817C79.6277 184.451 89.002 184.737 97.608 183.692C96.4855 167.873 96.2404 151.97 96.8814 136.173C96.9161 135.29 97.6628 134.602 98.5454 134.64C99.4281 134.674 100.116 135.421 100.079 136.304C99.1214 159.912 100.156 183.754 103.156 207.194L123.345 207.525C123.338 206.709 123.331 205.897 123.324 205.087L123.324 205.073L123.323 205.049C123.316 204.169 123.308 203.293 123.3 202.421L123.3 202.401V202.401C123.135 182.318 122.979 163.345 118.273 143.069C118.073 142.208 118.609 141.349 119.471 141.149C120.329 140.949 121.191 141.485 121.391 142.346C126.173 162.967 126.332 182.111 126.5 202.376V202.376L126.5 202.394L126.502 202.603C126.52 204.759 126.538 206.932 126.561 209.133C126.567 209.565 126.396 209.981 126.089 210.285C125.793 210.584 125.385 210.752 124.964 210.752H124.937L124.4 210.743L124.532 214.122C124.545 214.538 124.576 215.561 124.031 216.392C124.233 216.612 124.376 216.891 124.43 217.208L124.477 217.483L124.519 217.726L124.556 217.946C124.584 218.108 124.612 218.27 124.641 218.432L124.643 218.445C125.293 222.188 125.965 226.058 125.158 229.965C124.123 234.963 120.675 238.376 116.371 238.659C116.166 238.677 115.961 238.683 115.761 238.683C111.886 238.683 108.755 236.149 107.115 231.645C106.969 231.24 106.843 230.787 106.713 230.309L106.709 230.295C106.52 229.607 106.089 228.036 105.694 227.803C105.411 227.635 105.129 227.472 104.843 227.309C103.401 226.485 101.766 225.549 100.582 223.992C99.2995 222.312 99.3955 220.797 99.6995 219.824C100.052 218.698 100.854 217.763 101.821 217.032C101.81 217.022 101.8 217.012 101.789 217.002C101.776 216.989 101.763 216.976 101.75 216.962C101.516 216.714 101.334 216.429 101.217 216.109C101.113 215.832 101.062 215.538 101.062 215.24C100.952 213.586 101.011 211.926 101.236 210.287C100.672 210.096 100.243 209.597 100.161 208.978C99.1987 201.648 98.4268 194.277 97.8467 186.886C94.3979 187.302 90.8294 187.508 87.1189 187.508C80.9456 187.508 74.3749 186.935 67.2789 185.783C62.976 186.277 58.6826 186.094 54.6648 185.256C53.9355 191.968 52.8494 198.697 51.4251 205.287C51.2916 205.914 50.7991 206.383 50.1968 206.511C49.9605 208.126 49.5325 209.705 48.9192 211.221C48.8202 211.497 48.6598 211.746 48.448 211.949L46.7642 223.5C46.5188 225.188 46.2121 227.287 45.1055 229.044C43.9828 230.823 41.9375 231.911 39.4922 232.034C39.2095 232.044 38.9108 232.052 38.6015 232.052C36.7828 232.052 34.5588 231.778 33.0682 230.348C32.0682 229.388 31.5588 228.084 31.5588 226.474C31.5588 226.442 31.5588 226.407 31.5615 226.375C31.5867 225.956 31.6192 225.527 31.652 225.093L31.6575 225.02C31.9348 221.274 32.2202 217.399 29.6282 214.804C29.4228 214.599 29.2788 214.343 29.2068 214.06C28.577 211.541 29.965 209.127 32.6813 207.927C32.8026 206.624 32.986 205.247 33.4215 203.909C33.0943 203.584 32.9099 203.122 32.9558 202.628C34.0758 190.263 35.5318 177.764 37.2864 165.479C38.7691 155.066 40.5851 143.972 43.8038 133.399C47.6304 120.876 52.8651 113.156 60.2811 109.1C60.3261 109.076 60.3718 109.053 60.418 109.034C60.4238 108.965 60.4301 108.897 60.4368 108.828C60.4795 108.402 60.6901 108.007 61.0261 107.738L69.2261 101.124C69.5861 100.836 70.0501 100.714 70.5035 100.794C70.9568 100.874 71.3541 101.143 71.5941 101.538C72.2955 102.687 72.1995 104.263 71.4075 105.074L70.4875 108.362C70.4821 108.379 70.4768 108.396 70.4715 108.412C70.4661 108.429 70.4608 108.446 70.4555 108.463C70.3968 108.631 70.3675 108.804 70.3675 108.98C70.4181 109.052 70.7275 109.378 71.9941 109.644C72.1198 109.671 72.2405 109.712 72.354 109.766C77.3642 107.705 81.2468 105.751 85.0042 103.856L85.1268 103.795C88.0495 102.32 91.3642 100.648 95.0308 100.368C95.5002 100.331 95.9615 100.504 96.2922 100.84C96.6228 101.176 96.7881 101.64 96.7455 102.107C96.6631 103.018 96.5286 103.916 96.3595 104.802C96.5137 104.796 96.6713 104.813 96.828 104.855C102.404 106.348 106.441 110.807 108.991 114.028C112.319 118.239 114.916 122.94 116.705 127.999C117.018 128.881 117.394 129.801 117.791 130.773L117.791 130.773L117.828 130.863C118.625 132.812 119.447 134.828 119.889 136.802C120.081 137.663 119.54 138.519 118.679 138.714C118.561 138.74 118.444 138.754 118.327 138.754C117.593 138.754 116.935 138.247 116.767 137.503C116.383 135.791 115.612 133.903 114.865 132.076C114.457 131.082 114.039 130.052 113.689 129.071C112.017 124.34 109.591 119.948 106.481 116.015C104.215 113.148 100.66 109.196 95.9987 107.946C95.8801 107.914 95.7683 107.869 95.6641 107.814C95.4343 108.688 95.189 109.552 94.9465 110.406L94.9428 110.419L94.9215 110.496C94.4281 112.23 93.8121 114.384 92.3668 116.07C91.1828 117.451 89.5962 118.339 88.0575 119.088C84.1162 121.014 79.9482 122.48 75.9162 123.896L75.8842 123.907C75.7108 123.971 75.5322 124 75.3535 124ZM36.5534 204.643C36.1859 205.655 36.0121 206.773 35.8979 207.904C37.6499 208.227 40.2232 208.475 42.5512 208.699C43.9112 208.829 45.2152 208.955 46.2979 209.091C46.6237 208.13 46.8638 207.145 47.0161 206.144C46.8847 206.121 46.7535 206.098 46.623 206.075L46.6228 206.075L46.5691 206.066L46.4546 206.046C45.7663 205.925 45.1169 205.811 44.5584 205.74L40.6011 205.178C39.4623 205.039 38.6438 204.928 37.8912 204.825L37.8906 204.825L37.4998 204.772L37.3152 204.747L37.3146 204.747C37.0636 204.713 36.8136 204.678 36.5534 204.643ZM34.1278 210.792C33.6067 211.007 32.2115 211.699 32.2602 212.93C35.4936 216.523 35.1377 221.347 34.8498 225.251L34.8495 225.255L34.8469 225.29L34.8469 225.29C34.8158 225.705 34.7848 226.117 34.7615 226.519C34.7721 227.546 35.1569 227.914 35.2859 228.038L35.2868 228.039C35.9242 228.652 37.2922 228.919 39.3482 228.836C40.7242 228.767 41.8415 228.22 42.3988 227.335C43.1423 226.159 43.3729 224.583 43.596 223.059L43.5988 223.039L45.1819 212.179C44.323 212.083 43.3456 211.989 42.3334 211.891L42.2446 211.883C39.1917 211.59 36.0442 211.286 34.1278 210.792ZM51.0709 184.308C51.2243 184.357 51.3783 184.406 51.5329 184.453C50.8679 190.716 49.8842 197.001 48.6038 203.17C48.1158 203.092 47.6171 203.004 47.1238 202.916C46.3558 202.78 45.6304 202.652 44.9878 202.57L41.0358 202.007C41.0251 202.004 41.0144 202.002 41.0038 202.002C39.7847 201.852 38.9371 201.736 38.1396 201.627L37.9371 201.599C37.4224 201.527 36.8998 201.455 36.2811 201.375C37.3771 189.567 38.7798 177.652 40.4518 165.93C41.9158 155.644 43.7078 144.698 46.8624 134.332C50.1924 123.433 54.5577 116.498 60.5252 112.673C60.6635 113.617 60.8884 114.551 61.1995 115.468C61.9275 117.618 63.0795 119.548 64.6261 121.207C64.9248 121.527 65.3435 121.711 65.7808 121.716H65.7968C66.2288 121.716 66.6448 121.54 66.9461 121.228C68.032 120.109 69.0229 118.917 69.915 117.658C69.3602 127.139 68.7228 136.683 68.1029 145.966L68.0767 146.358L68.0501 146.756L68.05 146.758C67.2627 158.552 66.4496 170.732 65.8122 182.712C61.0212 183.123 56.288 182.627 52.0522 181.263C51.6442 181.132 51.4709 181.031 51.4016 180.983C51.3758 180.826 51.4073 180.474 51.4215 180.316L51.4229 180.3C52.553 168.169 53.6881 156.041 54.8233 143.911L54.8242 143.902L54.9776 142.263C55.3136 138.687 55.2736 134.289 51.9909 132.017C51.2629 131.513 50.2656 131.695 49.7642 132.423C49.2602 133.151 49.4416 134.148 50.1696 134.649C52.0896 135.975 52.0442 139.255 51.7909 141.964C50.6042 154.641 49.4176 167.321 48.2362 180.001L48.2361 180.003C48.1774 180.638 48.0794 181.698 48.6656 182.663C49.2549 183.631 50.3189 184.065 51.0709 184.308ZM74.6628 112.27L76.5108 120.296C79.9295 119.086 83.4042 117.803 86.6495 116.216C87.7962 115.656 89.0868 114.976 89.9348 113.99C90.9242 112.835 91.3908 111.203 91.8415 109.624L91.8628 109.547L91.868 109.529L91.868 109.529C92.4155 107.599 92.9412 105.746 93.2762 103.88C90.9642 104.435 88.7348 105.558 86.5642 106.654L86.4415 106.715L86.4159 106.728L86.4159 106.728L86.4158 106.728C82.8878 108.505 79.249 110.338 74.6628 112.27ZM121.251 217.531L106.766 217.572C106.606 218.029 106.242 218.409 105.745 218.568C104.262 219.048 103.003 219.979 102.75 220.781C102.702 220.933 102.577 221.336 103.123 222.053C103.915 223.093 105.134 223.792 106.427 224.531L106.645 224.655C106.874 224.786 107.101 224.917 107.326 225.051C108.831 225.943 109.365 227.892 109.794 229.46L109.795 229.464L109.821 229.557C109.926 229.936 110.024 230.29 110.118 230.549C110.982 232.92 112.726 235.691 116.155 235.469C118.409 235.32 121.129 233.627 122.022 229.32C122.707 226.008 122.087 222.44 121.487 218.989L121.486 218.981L121.449 218.765L121.448 218.763C121.389 218.42 121.33 218.08 121.273 217.741C121.261 217.671 121.254 217.601 121.251 217.531ZM121.195 210.69L104.451 210.415C104.25 211.728 104.174 213.056 104.222 214.384L121.337 214.336C121.337 214.306 121.337 214.274 121.334 214.24L121.195 210.69ZM64.2288 114.444C63.7195 112.938 63.4981 111.375 63.5728 109.796L67.6901 106.474L67.4155 107.455C67.2101 108.055 67.1301 108.679 67.1755 109.314C67.1779 109.349 67.1824 109.383 67.1871 109.418L67.1888 109.431C67.3675 110.642 68.1301 111.564 69.4635 112.183C68.4901 114.154 67.2848 115.988 65.8608 117.666C65.1675 116.682 64.6208 115.602 64.2288 114.444Z" fill="black"/>
</g>
<defs>
<clipPath id="clip0_1123_38281">
<rect width="160" height="160" fill="white" transform="translate(0 100)"/>
</clipPath>
</defs>
</svg>
