<svg width="160" height="260" viewBox="0 0 160 260" fill="none" xmlns="http://www.w3.org/2000/svg">
<path d="M44.7524 78.6219C42.315 77.5233 40.819 75.0086 39.9657 72.4886C37.6084 65.5099 39.0964 57.5953 42.867 51.2673C46.6377 44.9393 52.491 40.0673 58.867 36.3579C63.803 33.4859 69.267 31.2086 74.9817 31.1233C80.6964 31.0379 86.6777 33.4779 89.7044 38.3233L93.4884 41.6566C98.2884 40.9233 102.963 43.5926 106.648 46.7553C111.182 50.6379 114.96 55.4913 117.094 61.0646C119.227 66.6379 119.63 72.9499 117.688 78.5926C115.923 83.7153 111.382 88.5286 105.979 88.1126" fill="black"/>
<path d="M71.771 106.731C71.643 103.953 71.6697 101.971 71.8457 99.1953C68.5177 100.555 64.8377 99.9953 61.4084 99.398C58.1204 98.8193 55.0457 97.6833 52.563 95.374C47.9044 91.0353 46.667 84.2673 47.3337 78.1767C47.6004 75.758 48.6297 71.7633 50.3497 67.3393L52.3924 64.438C54.3924 61.1473 56.8964 58.1073 60.059 55.9047C63.2217 53.702 67.091 52.406 70.9257 52.7287C71.9924 52.8193 73.0937 53.046 73.9897 53.646C74.8857 54.246 75.5524 55.2753 75.475 56.35L79.507 58.6753C81.2217 57.5047 83.7444 58.4087 84.9337 60.1233C86.123 61.838 86.2857 64.0353 86.2137 66.1127C86.1417 68.19 85.875 70.302 86.3604 72.3207C86.779 73.95 87.6564 75.4247 88.891 76.5687C90.1257 77.7127 91.6617 78.478 93.3177 78.7713L95.403 78.67C98.4617 75.982 100.262 75.622 102.27 76.6353C105.128 78.078 105.558 81.1287 104.936 83.6913C104.264 86.518 102.472 88.9553 100.174 90.6913C99.0137 91.5527 97.7497 92.27 96.4137 92.8247C95.7577 93.102 95.0884 93.3473 94.4084 93.5607C93.643 93.8033 92.8697 93.7953 92.5097 94.542C90.9257 97.8433 90.251 100.977 90.5604 104.625" fill="#FFD39F"/>
<path fill-rule="evenodd" clip-rule="evenodd" d="M44.1002 80.0743C44.3135 80.1676 44.5322 80.213 44.7509 80.213C45.048 80.213 45.3394 80.129 45.5908 79.9746C45.2929 86.779 47.3888 92.7403 51.4729 96.5444C53.9076 98.8084 57.0676 100.256 61.1343 100.974C63.6516 101.414 66.9156 101.982 70.1209 101.363C70.0676 102.651 70.0863 103.595 70.1716 105.472C70.2116 106.331 70.9183 107 71.7689 107C71.7929 107 71.8169 107 71.8463 106.99C72.7289 106.95 73.4116 106.2 73.3716 105.318C73.2436 102.566 73.2729 101.974 73.4436 99.2911C73.4783 98.7418 73.2276 98.2138 72.7796 97.8911C72.3316 97.5711 71.7503 97.5018 71.2409 97.7098C68.4303 98.8591 65.2489 98.4405 61.6863 97.8191C58.2009 97.2058 55.6489 96.0564 53.6543 94.2004C49.9236 90.7284 48.2009 84.9498 48.9236 78.3498C49.1423 76.3738 50.0223 72.5951 51.8409 67.9178C52.1609 67.0938 51.7529 66.1658 50.9289 65.8458C50.1049 65.5258 49.1769 65.9338 48.8569 66.7578C47.3257 70.6942 46.2106 74.619 45.8154 77.4209C45.6952 77.3139 45.5566 77.2234 45.4015 77.1543C43.2842 76.2103 42.1002 73.8156 41.4789 71.9676C39.4095 65.8636 40.4389 58.429 44.2309 52.0796C47.4895 46.6236 52.6816 41.797 59.6629 37.733C65.3429 34.4263 70.3589 32.7863 74.9962 32.7143C80.6042 32.6316 85.8362 35.1596 88.3375 39.1623C88.8069 39.9116 89.7936 40.141 90.5429 39.6716C91.2922 39.2023 91.5216 38.2156 91.0522 37.4663C87.9242 32.4556 81.7402 29.4103 74.9482 29.5143C69.7455 29.5943 64.2202 31.3756 58.0522 34.965C50.5989 39.3036 45.0229 44.509 41.4842 50.437C37.2202 57.581 36.0842 66.013 38.4495 72.989C39.6335 76.5063 41.5855 78.9543 44.1002 80.0743ZM106.628 89.729C106.366 89.729 106.108 89.7183 105.846 89.6996C105.173 89.6486 104.628 89.1854 104.44 88.5765C103.553 89.842 102.439 90.9948 101.137 91.9778C99.8627 92.9244 98.4813 93.7084 97.0253 94.3111C96.3347 94.6018 95.612 94.8684 94.884 95.0951C94.6627 95.1644 94.4493 95.2178 94.2627 95.2631C94.2476 95.2669 94.2319 95.2707 94.2158 95.2747C94.203 95.2778 94.1899 95.281 94.1767 95.2842C94.0778 95.3083 93.9705 95.3345 93.8947 95.3591C92.3613 98.5591 91.8867 99.7617 92.1533 102.898C92.228 103.778 91.5747 104.551 90.6947 104.626C90.6467 104.636 90.6013 104.639 90.556 104.639C89.7347 104.639 89.0333 104.01 88.964 103.172C88.6253 99.1564 89.4067 97.3191 91.0653 93.8631C91.6733 92.6018 92.8227 92.3244 93.5107 92.1591L93.6042 92.136C93.7189 92.1079 93.8273 92.0813 93.924 92.0498C94.5587 91.8498 95.1853 91.6204 95.7907 91.3644C97.0147 90.8577 98.164 90.2044 99.22 89.4204C101.348 87.8124 102.831 85.6498 103.38 83.3351C103.663 82.1698 104.047 79.3378 101.548 78.0764C100.457 77.5244 99.388 77.3084 96.4573 79.8844C95.8706 80.4004 95.0133 80.4085 94.4188 79.9453C94.1279 80.2209 93.7359 80.3853 93.3182 80.3853C93.2248 80.3853 93.1315 80.3773 93.0355 80.3613C91.0728 80.0119 89.2622 79.1106 87.8008 77.7559C86.3395 76.4012 85.3048 74.6626 84.8088 72.7319C84.3635 70.8759 84.4595 69.0706 84.5528 67.3213L84.5664 67.0598V67.0597V67.0596V67.0596V67.0595V67.0594V67.0593C84.5837 66.7289 84.6009 66.3997 84.6115 66.0706C84.6675 64.4813 84.6035 62.4733 83.6168 61.0493C82.9288 60.0573 81.3422 59.3719 80.4062 60.0119C79.6755 60.5106 78.6808 60.3213 78.1822 59.5933C77.6835 58.8626 77.8728 57.8679 78.6008 57.3693C80.6835 55.9479 84.2515 56.3533 86.2435 59.2279C87.7688 61.4253 87.8808 64.0999 87.8088 66.1853C87.7928 66.6226 87.7715 67.0599 87.7475 67.4973C87.6622 69.0866 87.5822 70.5853 87.9128 71.9639C88.2488 73.2759 88.9635 74.4759 89.9742 75.4146C90.9848 76.3533 92.2355 76.9746 93.5928 77.2173C93.8568 77.2642 94.0942 77.3736 94.2926 77.5276C94.3097 77.5111 94.3273 77.495 94.3453 77.4791C98.5533 73.7804 100.985 74.2071 102.988 75.2178C106.092 76.7858 107.433 80.1804 106.489 84.0791C106.289 84.9215 105.998 85.7468 105.622 86.5437C105.773 86.5102 105.93 86.4981 106.092 86.5103C110.676 86.865 114.628 82.5289 116.166 78.065C117.91 72.9956 117.705 67.1583 115.59 61.6303C113.686 56.6596 110.233 51.9316 105.598 47.9636C101.3 44.2756 97.3051 42.6836 93.7211 43.2303C92.8464 43.3636 92.0304 42.7636 91.8971 41.8916C91.7637 41.0196 92.3637 40.201 93.2357 40.0676C97.7851 39.3716 102.644 41.2116 107.678 45.5343C112.713 49.8463 116.484 55.017 118.577 60.4863C120.961 66.7156 121.18 73.3263 119.19 79.1076C118.182 82.0303 116.428 84.6996 114.246 86.625C111.929 88.6623 109.31 89.7263 106.628 89.729ZM51.5539 65.8194C51.8126 65.9768 52.0979 66.0514 52.3806 66.0514C52.9219 66.0514 53.4499 65.7768 53.7486 65.2834C55.8606 61.7981 58.2873 59.0914 60.9593 57.2354C64.0446 55.0941 67.5326 54.0648 70.7806 54.3394C71.8046 54.4248 72.562 54.6381 73.0926 54.9928C73.5726 55.3128 73.8979 55.8408 73.8686 56.2488C73.8046 57.1314 74.4686 57.8968 75.3486 57.9608C76.2339 58.0248 76.9966 57.3634 77.0606 56.4808C77.1726 54.9208 76.3113 53.2914 74.8659 52.3288C73.8606 51.6568 72.6473 51.2834 71.0499 51.1474C67.0659 50.8114 62.8339 52.0381 59.1379 54.6034C56.0926 56.7154 53.3619 59.7501 51.0153 63.6221C50.5566 64.3768 50.7993 65.3608 51.5539 65.8194ZM58.2467 74.695C59.2777 74.695 60.1134 73.6802 60.1134 72.4284C60.1134 71.1765 59.2777 70.1617 58.2467 70.1617C57.2158 70.1617 56.3801 71.1765 56.3801 72.4284C56.3801 73.6802 57.2158 74.695 58.2467 74.695ZM69.1806 73.0565C69.1806 74.3084 68.3449 75.3232 67.3139 75.3232C66.283 75.3232 65.4473 74.3084 65.4473 73.0565C65.4473 71.8047 66.283 70.7898 67.3139 70.7898C68.3449 70.7898 69.1806 71.8047 69.1806 73.0565Z" fill="black"/>
<g clip-path="url(#clip0_1123_38302)">
<path d="M90.499 100C90.739 102.693 91.8403 108.779 95.939 107.867L96.379 108.533C96.179 112.712 94.0617 115.659 90.7443 118.712C87.3737 121.765 83.075 123.6 78.539 123.923C74.539 124.216 70.2857 123.259 67.2937 120.576C64.3017 117.893 62.7283 114.176 64.7097 110.989H64.9977C65.899 111.016 66.7283 110.544 67.491 110.064C68.4617 109.451 70.4643 106.936 71.0643 106.213C71.8643 105.176 72.1897 101.243 72.6003 100H90.499V100Z" fill="#FFD39F"/>
<path d="M33.8791 209.262C32.0124 209.958 30.4124 211.558 30.9458 213.691C34.4124 217.158 33.6124 222.224 33.3458 226.491C33.8871 227.68 34.7511 228.694 35.8364 229.419C36.9244 230.144 38.1911 230.552 39.4978 230.595L41.7324 210.23L33.8791 209.262Z" fill="#FFD39F"/>
<path d="M96.6034 106.43C101.321 107.694 104.979 111.328 107.926 115.048C111.139 119.115 113.662 123.683 115.393 128.568C116.361 131.294 117.891 134.366 118.523 137.187L119.366 139.75C123.899 159.302 124.737 179.462 125.041 199.568L125.307 200.214C126.934 206.227 133.067 221.427 134.401 227.827C134.443 228.374 134.353 228.923 134.134 229.427C131.467 232.627 126.934 231.827 123.427 232.912L111.035 235.382C93.2994 238.563 86.966 240.939 69.2007 237.944L68.4007 237.744C67.2327 227.92 66.3714 217.712 65.8727 207.427L65.75 207.96C64.0674 217.795 62.4914 226.894 62.1607 236.864L62.11 237.288C58.2887 236.558 46.7367 234.491 42.91 233.76C41.8754 233.56 40.7394 233.299 40.134 232.427C39.6327 231.712 39.6354 230.771 39.6727 229.899C39.8247 226.432 40.2247 222.99 40.6247 219.547L42.454 203.79H42.3154C39.606 203.462 37.43 203.134 34.7207 202.806C35.8434 190.416 37.2834 178.062 39.0407 165.739C40.5714 155.006 42.3474 144.27 45.5047 133.899C48.31 124.683 55.694 112.486 64.1447 107.864L69.406 108.704C72.8727 112.15 78.7047 112.88 82.902 110.392L96.6034 106.43Z" fill="black"/>
<path d="M105.762 216.001C103.194 216.83 99.8713 220.198 102.042 223.046C103.237 224.617 105.042 225.462 106.698 226.446C107.975 227.206 108.311 229.763 108.805 231.121C110.053 234.542 112.477 237.342 116.447 237.083C120.49 236.817 123.005 233.374 123.773 229.659C124.607 225.633 123.271 219.793 122.602 215.809L105.762 216.001Z" fill="#FFD39F"/>
<path fill-rule="evenodd" clip-rule="evenodd" d="M68.5527 150.277L68.7607 110.781C68.7607 109.237 69.0647 103.824 69.5367 103.075C66.07 105.347 63.9553 109.112 61.9607 112.733C60.8167 114.811 59.6353 117.037 59.7927 119.4C59.9088 121.169 60.7498 122.752 61.5933 124.34C62.3573 125.778 63.1234 127.22 63.3553 128.808C63.6774 131.012 62.9389 133.134 62.1945 135.273C61.6382 136.871 61.0785 138.479 60.9553 140.139C60.8087 142.219 61.6247 146.805 62.1713 148.827L66.1553 163.536L66.0193 176.947C70.6487 167.293 76.0567 158.032 82.1927 149.259C84.102 146.523 86.1927 143.483 85.782 140.171C85.6918 139.449 85.4864 138.726 85.2819 138.007C84.8819 136.599 84.486 135.206 84.966 133.867C85.2753 133.003 85.918 132.307 86.542 131.635L95.558 121.965C96.174 121.304 96.8087 120.611 97.078 119.747C97.382 118.76 97.166 117.696 96.9473 116.685L94.2007 104.029C93.958 102.912 93.4913 101.568 92.3607 101.387C89.6487 103.173 87.2407 105.837 85.1313 108.627C83.7752 110.422 82.526 112.277 81.3717 114.183L82.8995 110.393C78.7022 112.881 72.8702 112.151 69.4035 108.705V143.868L71.1934 139.429C70.2163 143.112 69.3702 146.846 68.598 150.592L68.5527 150.277ZM34.3691 209.172C34.5291 207.183 34.7051 205.146 35.5585 203.343L42.0891 204.055L41.3665 210.239C38.9958 210.223 36.6385 209.863 34.3691 209.172ZM102.86 215.224C102.714 213.146 102.852 211.061 103.268 209.021L122.932 209.309L123.13 214.224C123.146 214.81 123.106 215.52 122.596 215.81C122.346 215.925 122.071 215.973 121.796 215.952L103.663 216.002C103.468 216.026 103.271 215.981 103.103 215.88C103.02 215.792 102.956 215.688 102.914 215.576C102.874 215.464 102.855 215.344 102.86 215.224Z" fill="white"/>
<path fill-rule="evenodd" clip-rule="evenodd" d="M68.9432 239.52C74.8019 240.51 79.4392 240.923 83.6392 240.923C90.4206 240.923 96.0659 239.843 103.879 238.344L104.507 238.225L104.508 238.225L104.509 238.224L104.509 238.224L104.51 238.224L104.512 238.224L104.518 238.223C106.541 237.837 108.64 237.436 110.971 237.016C112.407 238.118 114.096 238.7 115.958 238.7C116.155 238.7 116.352 238.694 116.544 238.678C119.369 238.491 121.826 236.956 123.473 234.51C123.615 234.506 123.757 234.482 123.899 234.436C124.894 234.127 126.032 233.986 127.238 233.836C130.011 233.492 133.152 233.1 135.363 230.447C135.462 230.33 135.542 230.199 135.603 230.058C135.92 229.319 136.056 228.503 135.995 227.7L135.993 227.678C135.991 227.656 135.988 227.634 135.985 227.612C135.98 227.574 135.973 227.535 135.966 227.498C135.179 223.717 132.868 217.246 130.628 210.974L130.603 210.906L130.553 210.766C128.988 206.383 127.513 202.255 126.846 199.794C126.802 199.634 126.737 199.488 126.653 199.355C126.452 179.879 125.975 161.275 121.428 141.674C121.228 140.813 120.37 140.277 119.508 140.477C118.647 140.677 118.111 141.536 118.311 142.397C123.119 163.13 123.303 182.882 123.495 203.794L123.496 203.848C123.506 205.078 123.517 206.314 123.53 207.554L103.34 207.224C100.34 183.784 99.3058 159.938 100.263 136.333C100.3 135.45 99.6124 134.704 98.7298 134.669C97.8445 134.637 97.1005 135.32 97.0658 136.202C96.0818 160.45 97.1858 184.944 100.346 209.008C100.428 209.63 100.86 210.13 101.429 210.319C101.207 211.955 101.151 213.611 101.262 215.262C101.259 215.558 101.312 215.848 101.416 216.134C101.534 216.451 101.712 216.736 101.944 216.982C101.967 217.005 101.991 217.028 102.015 217.05C101.045 217.782 100.242 218.719 99.8883 219.846C99.5816 220.82 99.4883 222.334 100.768 224.014C101.955 225.574 103.592 226.51 105.038 227.334L105.242 227.452C105.456 227.574 105.67 227.697 105.88 227.822C106.275 228.058 106.706 229.63 106.895 230.317L106.899 230.332C107.03 230.812 107.155 231.262 107.302 231.67C107.642 232.605 108.048 233.455 108.51 234.214C106.632 234.562 104.879 234.896 103.279 235.203L103.275 235.204C91.0988 237.534 84.344 238.827 69.8686 236.43C68.798 227.21 68.0208 217.802 67.5446 208.454L67.5896 208.194C67.6432 207.881 67.6023 207.574 67.4874 207.301C67.0095 197.411 66.8695 187.599 67.0766 178.16C67.2366 178.022 67.3726 177.848 67.4712 177.643C72.0472 168.096 77.4446 158.856 83.5139 150.179C85.4499 147.406 87.8606 143.952 87.3806 139.984C87.2766 139.131 87.0499 138.328 86.8286 137.552C86.4792 136.323 86.1779 135.262 86.4819 134.411C86.6794 133.855 87.1996 133.294 87.7032 132.751L87.7032 132.751L87.7219 132.731L96.7379 123.062L96.7425 123.057L96.7425 123.057C97.4084 122.34 98.2374 121.448 98.6152 120.224C99.0508 118.814 98.7457 117.401 98.5219 116.365L98.5192 116.352L96.7353 108.134C101.125 109.533 104.49 113.289 106.669 116.04C109.781 119.976 112.208 124.371 113.882 129.104C114.232 130.083 114.65 131.109 115.056 132.101L115.067 132.129L115.067 132.13L115.067 132.13L115.067 132.13L115.067 132.13L115.067 132.13L115.067 132.13L115.067 132.13C115.81 133.951 116.578 135.83 116.96 137.536C117.128 138.28 117.786 138.787 118.52 138.787C118.637 138.787 118.754 138.773 118.872 138.747C119.733 138.552 120.274 137.696 120.082 136.835C119.64 134.859 118.816 132.84 118.018 130.888C117.608 129.885 117.221 128.939 116.898 128.032C115.106 122.968 112.509 118.267 109.178 114.053C106.626 110.832 102.589 106.376 97.0156 104.883C96.6804 104.792 96.3415 104.816 96.0396 104.929L95.7726 103.699C95.2739 101.376 94.2126 100.07 92.6206 99.8137C92.2259 99.7497 91.8206 99.835 91.4872 100.056C88.9779 101.707 86.4846 104.198 83.8606 107.667C83.5787 108.04 83.3014 108.416 83.0286 108.794C82.7184 108.774 82.3992 108.844 82.1116 109.015C78.706 111.035 73.8913 110.53 70.9191 107.906C71.2021 106.888 71.5218 105.959 71.693 105.663C72.0957 105.025 71.997 104.196 71.461 103.668C70.925 103.14 70.093 103.057 69.4637 103.471C67.9254 104.479 66.5071 105.442 65.2228 106.493C65.0437 106.52 64.8661 106.579 64.6977 106.671C55.3964 111.759 46.7111 124.524 43.9991 133.433C40.7884 143.98 38.9697 155.084 37.4817 165.513C35.7297 177.801 34.2711 190.297 33.1511 202.663C33.1056 203.152 33.2866 203.611 33.6089 203.936C33.1729 205.273 32.99 206.647 32.8691 207.947C30.1526 209.147 28.7645 211.561 29.3943 214.081C29.4663 214.363 29.6103 214.619 29.8157 214.825C32.4077 217.419 32.1223 221.294 31.845 225.041L31.8395 225.113L31.8395 225.114L31.8394 225.114L31.8394 225.114C31.8066 225.548 31.7742 225.976 31.749 226.395C31.733 226.657 31.781 226.918 31.8903 227.158C32.5543 228.619 33.613 229.862 34.949 230.753C35.9522 231.425 37.0807 231.873 38.2618 232.077C38.3772 232.518 38.5619 232.953 38.8509 233.365C39.8442 234.779 41.5074 235.118 42.63 235.348L42.6349 235.349C44.3528 235.676 47.6595 236.279 51.0609 236.898L52.4056 237.143C53.1273 237.275 53.854 237.408 54.5703 237.538C57.5351 238.079 60.3207 238.587 61.8349 238.877C61.9336 238.895 62.0323 238.906 62.1336 238.906C62.4696 238.906 62.8029 238.799 63.0803 238.594C63.4403 238.333 63.6723 237.933 63.7256 237.493L63.7763 237.069C63.7816 237.023 63.7843 236.978 63.7869 236.933L63.7869 236.933C63.9552 231.858 64.5098 226.998 65.2401 222.128C65.6724 227.43 66.1997 232.712 66.8206 237.931C66.8979 238.59 67.3752 239.134 68.0206 239.294L68.8206 239.494C68.8605 239.504 68.9032 239.512 68.9432 239.52ZM58.9552 115.227C53.4732 120.844 48.8427 128.503 47.0577 134.364C44.0844 144.127 42.3457 154.057 40.6471 165.964C38.9751 177.687 37.5724 189.604 36.4791 201.409C37.1394 201.494 37.7754 201.579 38.3995 201.663L38.7564 201.711C39.5073 201.811 40.275 201.914 41.0755 202.017L42.2163 192.181L42.2188 192.159C44.426 173.142 46.7086 153.475 51.1843 134.485C51.3869 133.626 52.2483 133.093 53.1096 133.295C53.9683 133.498 54.5016 134.359 54.2989 135.221C49.8647 154.035 47.5928 173.611 45.3956 192.543L45.3956 192.543L45.3949 192.549L42.2403 219.749C41.8509 223.103 41.4483 226.575 41.2963 229.986C41.2776 230.41 41.2429 231.205 41.4696 231.525C41.7321 231.896 42.6377 232.083 43.2457 232.208L43.2563 232.21C45.1363 232.57 49.0173 233.276 52.8017 233.964L52.8122 233.966L52.8282 233.969L52.9789 233.997C55.7496 234.501 58.5923 235.018 60.6456 235.399C61.0349 227.117 62.3789 219.431 63.7976 211.319C63.8713 210.895 63.9456 210.47 64.0201 210.043L64.0225 210.03L64.0231 210.026L64.0234 210.025C64.125 209.443 64.2269 208.86 64.328 208.275C63.5549 192.869 63.5943 177.629 64.4819 163.651C64.4853 163.609 64.4897 163.566 64.496 163.524L60.629 149.247C60.0824 147.228 59.1917 142.423 59.3624 140.028C59.501 138.153 60.1037 136.423 60.6877 134.748L60.6894 134.743C61.3847 132.745 62.0422 130.856 61.7757 129.041C61.5837 127.727 60.9037 126.447 60.1837 125.092L60.1774 125.08C59.2727 123.374 58.338 121.612 58.1997 119.505C58.0974 117.98 58.4409 116.546 58.9552 115.227ZM67.7569 163.499L67.8846 162.835L67.8847 162.834C71.1433 145.066 74.8367 124.928 86.4126 109.592C88.4819 106.854 90.4312 104.806 92.3379 103.366C92.4312 103.582 92.5406 103.899 92.6419 104.371L95.3886 117.027L95.3919 117.042L95.3919 117.043C95.5564 117.807 95.7419 118.668 95.5539 119.278C95.3931 119.8 94.8933 120.337 94.4079 120.86L94.3912 120.878L85.3726 130.55L85.3581 130.565C84.6993 131.277 83.8815 132.161 83.4632 133.331C82.8126 135.147 83.3086 136.891 83.7459 138.427C83.9432 139.115 84.1272 139.763 84.1992 140.368C84.5326 143.123 82.5966 145.899 80.8872 148.347C75.8872 155.499 71.3326 163.027 67.3086 170.792C67.4053 168.531 67.5226 166.294 67.6603 164.089C67.7285 163.903 67.7625 163.703 67.7569 163.499ZM65.8466 156.275L63.717 148.412C63.1624 146.359 62.4264 142.028 62.5517 140.26C62.6583 138.811 63.1667 137.351 63.7048 135.806L63.7064 135.801L63.7077 135.798C64.4993 133.521 65.3168 131.171 64.9384 128.58C64.6667 126.721 63.8234 125.134 63.0084 123.6L63.005 123.593L62.9918 123.568C62.2153 122.103 61.4818 120.719 61.389 119.297C61.269 117.473 62.1704 115.673 63.3624 113.508C64.413 111.601 65.757 110.169 67.4024 108.844C67.2557 109.58 67.1624 110.26 67.1624 110.775L66.9544 150.271C66.9538 150.359 66.9605 150.446 66.9739 150.53C66.5789 152.458 66.206 154.375 65.8466 156.275ZM70.2248 136.899C72.5473 128.654 75.6289 120.551 80.1225 113.176C79.2217 113.37 78.3 113.465 77.3783 113.465C74.9151 113.465 72.4447 112.785 70.3587 111.473L70.2248 136.899ZM36.0827 207.982C36.1969 206.838 36.3671 205.705 36.7391 204.675C37.251 204.742 37.751 204.809 38.2445 204.875L38.2447 204.875L38.2468 204.876L38.2488 204.876L38.2507 204.876L38.3297 204.887L38.7857 204.947C39.4092 205.03 40.0458 205.115 40.7063 205.2L40.3113 208.606C38.8855 208.53 37.4696 208.321 36.0827 207.982ZM34.2999 210.819C36.1418 211.348 38.0321 211.674 39.942 211.79L39.0616 219.381L39.0505 219.477C38.6996 222.509 38.338 225.634 38.1567 228.767C37.6524 228.614 37.1711 228.387 36.7277 228.091C35.9943 227.601 35.3916 226.942 34.973 226.169C34.9848 225.981 34.9988 225.793 35.0129 225.603L35.013 225.603C35.0211 225.494 35.0292 225.385 35.037 225.275L35.0373 225.271C35.3252 221.368 35.6811 216.543 32.4477 212.95C32.3995 211.731 33.7673 211.041 34.2999 210.819ZM106.953 217.591C106.794 218.05 106.429 218.431 105.931 218.59C104.448 219.068 103.19 219.998 102.939 220.801C102.891 220.953 102.766 221.358 103.312 222.076C104.097 223.109 105.306 223.801 106.585 224.535L106.622 224.556C106.92 224.726 107.219 224.897 107.512 225.07C109.022 225.969 109.555 227.921 109.982 229.486C110.094 229.9 110.203 230.292 110.304 230.574C111.166 232.937 112.92 235.713 116.339 235.486C118.59 235.337 121.31 233.644 122.203 229.334C122.887 226.032 122.271 222.476 121.674 219.034L121.672 219.022C121.598 218.598 121.526 218.177 121.454 217.756C121.442 217.687 121.435 217.618 121.432 217.55L106.953 217.591ZM124.222 216.422C124.418 216.64 124.556 216.915 124.608 217.225C124.667 217.579 124.728 217.932 124.789 218.287L124.79 218.291L124.822 218.476L124.824 218.489C125.471 222.224 126.141 226.086 125.331 229.982C125.266 230.294 125.192 230.6 125.11 230.899C125.69 230.806 126.272 230.734 126.846 230.663L126.849 230.662C129.25 230.364 131.334 230.105 132.739 228.591C132.792 228.412 132.816 228.223 132.811 228.036C132.04 224.431 129.678 217.82 127.59 211.983L127.558 211.893L127.555 211.887C127.27 211.088 126.988 210.296 126.712 209.521C126.647 209.82 126.497 210.096 126.276 210.314C125.978 210.613 125.57 210.781 125.148 210.781H125.122L124.592 210.772L124.728 214.158C124.74 214.578 124.768 215.596 124.222 216.422ZM121.389 210.72L104.644 210.445C104.448 211.753 104.374 213.077 104.422 214.4L121.536 214.352C121.536 214.326 121.536 214.296 121.534 214.267L121.389 210.72Z" fill="black"/>
</g>
<defs>
<clipPath id="clip0_1123_38302">
<rect width="160" height="160" fill="white" transform="translate(0 100)"/>
</clipPath>
</defs>
</svg>
