<svg width="160" height="260" viewBox="0 0 160 260" fill="none" xmlns="http://www.w3.org/2000/svg">
<path fill-rule="evenodd" clip-rule="evenodd" d="M82.5199 53.0077C85.1492 50.4184 86.8292 47.0424 88.4586 43.7331C92.4266 35.6744 82.1332 31.6717 76.0186 31.4077C63.0986 30.8451 50.1839 38.5731 44.5839 50.2291C44.3234 50.7712 44.0663 51.3309 43.8063 51.8969C42.0627 55.6929 40.1895 59.771 36.2746 60.7411C35.7151 60.8801 35.1329 60.9443 34.5528 61.0081C33.6091 61.112 32.6709 61.2153 31.8452 61.6397C30.5119 62.3251 29.7679 64.4904 31.0452 65.2904C31.4719 65.5117 31.9466 65.6291 32.4266 65.6317L38.6426 66.1491C38.0292 68.3437 38.0826 71.6184 40.3466 71.8664C41.3039 71.9704 42.1866 71.3811 42.9332 70.7731C43.6005 70.2275 44.4316 69.7097 45.2854 69.1776C46.844 68.2064 48.4787 67.1878 49.3332 65.8664C50.1095 64.6653 50.4621 63.2855 50.8114 61.9185C51.2361 60.2565 51.656 58.6133 52.8266 57.3331C56.2666 53.5997 62.0452 52.2264 66.7946 54.0477C67.561 54.3357 68.2997 54.6988 69.0377 55.0616C70.1587 55.6128 71.2781 56.1631 72.4906 56.4477C76.0826 57.2904 79.8906 55.5971 82.5199 53.0077ZM109.912 51.7474C106.824 45.6327 96.8585 41.3927 89.9999 41.4674C89.9999 41.4674 84.9705 50.8434 83.4665 52.6674C81.4159 55.166 74.9332 57.734 74.9332 57.734C76.196 58.3169 77.6711 58.5812 79.2391 58.8623C81.9757 59.3527 84.9955 59.894 87.6639 62.2674C89.7945 64.6914 90.7519 68.0274 90.5599 71.2487C90.5323 71.712 90.4823 72.1773 90.4324 72.6425C90.299 73.8858 90.1655 75.129 90.4585 76.334C90.8612 77.99 92.4719 79.5394 94.1145 79.0887L106.979 86.6887C107.304 88.3207 109.475 88.6327 110.808 87.7554C112.141 86.878 112.768 85.2567 113.109 83.6967C113.135 83.5771 113.161 83.4563 113.186 83.3349C113.389 82.3707 113.599 81.3711 114.309 80.6914C115.089 79.9258 116.195 79.8071 117.316 79.6868C118.233 79.5883 119.161 79.4887 119.931 79.0327C121.891 77.8727 121.909 74.9127 120.787 72.9314C120.096 71.7129 119.109 70.7133 118.12 69.7112C117.5 69.0837 116.88 68.4552 116.331 67.7714C114.198 65.1138 113.256 61.8189 112.309 58.5044C111.648 56.1916 110.985 53.8693 109.912 51.7474Z" fill="black"/>
<path d="M72.4898 56.4419C70.4791 55.9699 68.7244 54.7672 66.7938 54.0419C62.0444 52.2259 56.2658 53.5992 52.8258 57.3326L50.6658 66.9326C49.0658 69.3326 48.7991 72.2659 47.9991 75.1992C47.9991 76.0419 44.7564 87.4232 52.2658 94.9326C54.9324 97.5992 58.3991 98.6659 61.9991 99.4659C65.2284 99.9646 68.7564 100.466 71.8658 99.1992C71.6871 101.975 71.6604 103.957 71.7884 106.735L90.5884 104.799C90.2818 101.151 90.9538 97.8686 92.5404 94.5672C92.8978 93.8206 93.6738 93.8286 94.4391 93.5859C95.1164 93.3726 95.7884 93.1272 96.4444 92.8499C97.7804 92.2952 99.0418 91.5779 100.204 90.7166C102.503 88.9806 104.292 86.5432 104.967 83.7166C105.578 81.1539 105.148 78.1032 102.287 76.6606C100.282 75.6472 98.4818 76.0072 95.4231 78.6952L94.1058 79.1006C92.4631 79.5512 90.8524 78.0019 90.4498 76.3459C90.0471 74.6899 90.4498 72.9619 90.5511 71.2606C90.7431 68.0392 89.7858 64.7032 87.6551 62.2792C85.5244 59.8552 82.1804 58.4552 78.9911 58.9486" fill="#FFD39F"/>
<path fill-rule="evenodd" clip-rule="evenodd" d="M40.576 73.4795C40.4453 73.4795 40.3093 73.4715 40.1733 73.4581C39.0853 73.3381 38.1893 72.7968 37.576 71.8928C36.7786 70.7141 36.608 69.1008 36.752 67.5995L32.3493 67.2341C31.64 67.2208 30.9333 67.0395 30.304 66.7115C30.2666 66.6928 30.2293 66.6715 30.1946 66.6475C29.2506 66.0555 28.736 65.0421 28.7866 63.8635C28.848 62.3888 29.8053 60.8901 31.112 60.2181C32.1879 59.6643 33.3318 59.5356 34.3422 59.4219L34.376 59.4181C34.92 59.3595 35.432 59.3008 35.888 59.1888C39.0539 58.4053 40.7285 54.7615 42.3488 51.2356L42.352 51.2288L42.434 51.0505L42.4341 51.0504L42.4341 51.0503C42.6703 50.5372 42.9047 50.0278 43.1413 49.5355C49.0053 37.3301 62.5573 29.2181 76.088 29.8075C80.1573 29.9835 87.1866 31.8901 89.8746 36.4261C90.864 38.0928 91.6693 40.8368 89.896 44.4395C88.3066 47.6715 86.5013 51.3328 83.6453 54.1461C80.328 57.4128 75.9146 58.8928 72.128 58.0048C70.7605 57.6846 69.5558 57.0957 68.3892 56.5255L68.3333 56.4981L68.3075 56.4855L68.3074 56.4854L68.3072 56.4853C67.5942 56.1354 66.9196 55.8043 66.2346 55.5461C62.128 53.9701 56.9893 55.1808 54.0053 58.4181C53.153 59.3503 52.8594 60.7985 52.5478 62.3351L52.5466 62.3408L52.5425 62.3611C52.2852 63.6283 52.021 64.9294 51.4301 66.1549C51.9016 66.5879 52.0851 67.2819 51.8394 67.9147C50.0207 72.592 49.1407 76.3707 48.922 78.3467C48.1994 84.9467 49.922 90.7253 53.6527 94.1973C55.6474 96.0533 58.1994 97.2027 61.6847 97.816C65.2474 98.4373 68.426 98.856 71.2394 97.7067C71.7487 97.4987 72.33 97.568 72.778 97.888C73.226 98.208 73.4767 98.7387 73.442 99.288C73.2714 101.971 73.242 102.563 73.37 105.315C73.41 106.197 72.7274 106.947 71.8447 106.987C71.8181 106.997 71.7941 106.997 71.7674 106.997H71.7674C70.9167 106.997 70.21 106.328 70.17 105.469C70.0847 103.592 70.066 102.648 70.1194 101.36C66.914 101.979 63.65 101.411 61.1327 100.971C57.066 100.253 53.906 98.8053 51.4714 96.5413C46.9967 92.3733 44.9087 85.616 45.7407 77.9973C45.978 75.8492 46.7076 72.9034 47.765 69.7608C47.3088 70.0274 46.8411 70.2806 46.3774 70.5316L46.3653 70.5381L46.3534 70.5445C45.4298 71.0435 44.5547 71.5163 43.9493 72.0128C43.0906 72.7088 41.9546 73.4795 40.576 73.4795ZM31.9866 63.9568C32.1306 64.0048 32.2826 64.0315 32.4346 64.0315C32.4749 64.0315 32.5128 64.0338 32.5528 64.0363L32.56 64.0368L38.776 64.5541C39.2506 64.5941 39.6853 64.8421 39.9573 65.2341C40.2293 65.6261 40.312 66.1195 40.184 66.5781C39.8 67.9488 39.8213 69.4955 40.2293 70.0981C40.312 70.2208 40.376 70.2581 40.5226 70.2741C40.951 70.3211 41.6556 69.7491 41.9099 69.5426L41.9253 69.5301C42.768 68.8421 43.8213 68.2715 44.8426 67.7195L44.8564 67.712C46.2414 66.9623 47.6712 66.1884 48.2586 65.2768C48.88 64.3141 49.1386 63.0448 49.4106 61.7008C49.776 59.8928 50.192 57.8421 51.648 56.2501C55.5493 52.0155 62.0133 50.4955 67.3706 52.5515C68.1979 52.8627 68.9828 53.2482 69.741 53.6207L69.7411 53.6207L69.7466 53.6235L69.7562 53.6282C70.822 54.1517 71.827 54.6455 72.8586 54.8875C76.1173 55.6501 79.408 53.8261 81.4 51.8661C83.8683 49.4351 85.4699 46.1851 87.0197 43.0402L87.0266 43.0261C87.9546 41.1408 87.9866 39.5141 87.1253 38.0581C85.384 35.1221 80.08 33.1835 75.9546 33.0048C63.656 32.4688 51.3573 39.8368 46.032 50.9195C45.7808 51.4427 45.5323 51.9838 45.2812 52.5304L45.2666 52.5621C43.4213 56.5808 41.328 61.1355 36.6666 62.2901C36.0215 62.4514 35.3916 62.5213 34.7818 62.589L34.736 62.5941L34.7296 62.5948C33.9159 62.6852 33.1452 62.7709 32.584 63.0581C32.2453 63.2341 32.0133 63.7035 31.9866 63.9568ZM91.4159 80.1752C92.0879 80.5726 92.8159 80.7752 93.5385 80.7752C93.8745 80.7752 94.2079 80.7299 94.5305 80.6446C94.7928 80.5733 95.022 80.441 95.2071 80.2672C95.6444 80.3213 96.1018 80.1954 96.4589 79.8813C99.3896 77.3053 100.459 77.5213 101.55 78.0733C104.048 79.3346 103.664 82.1666 103.382 83.332C102.832 85.644 101.35 87.8093 99.2215 89.4173C98.1656 90.2013 97.0162 90.8546 95.7922 91.3613C95.1869 91.6173 94.5602 91.8466 93.9256 92.0466C93.8288 92.0782 93.7205 92.1047 93.6058 92.1329L93.5122 92.156C92.8242 92.3213 91.6749 92.5986 91.0669 93.86C89.4082 97.3133 88.6269 99.1533 88.9656 103.169C89.0349 104.004 89.7362 104.636 90.5576 104.636C90.6029 104.636 90.6482 104.633 90.6962 104.623C91.5762 104.551 92.2296 103.775 92.1549 102.895C91.8882 99.7586 92.3629 98.556 93.8962 95.356C93.972 95.3314 94.0794 95.3052 94.1783 95.2811C94.208 95.2738 94.2371 95.2668 94.2642 95.26C94.4509 95.2146 94.6642 95.1613 94.8856 95.092C95.6136 94.8653 96.3362 94.5986 97.0269 94.308C98.4829 93.7053 99.8642 92.9213 101.139 91.9746C102.97 90.5927 104.428 88.8751 105.407 86.9803L105.411 87.0015C105.635 88.1375 106.397 89.0522 107.496 89.5108C108.016 89.7268 108.587 89.8335 109.16 89.8335C110.045 89.8335 110.944 89.5802 111.683 89.0868C113.16 88.1135 114.136 86.4602 114.667 84.0335L114.747 83.6575L114.749 83.6446C114.908 82.8894 115.058 82.1782 115.424 81.8282C115.805 81.4524 116.58 81.3696 117.478 81.2737L117.48 81.2735C118.507 81.1642 119.672 81.0388 120.739 80.4068C122.093 79.6068 122.931 78.1988 123.101 76.4415C123.24 74.9962 122.904 73.4282 122.173 72.1402C121.379 70.7385 120.3 69.6458 119.256 68.5878L119.253 68.5855C118.645 67.9695 118.072 67.3882 117.573 66.7695C115.643 64.3642 114.768 61.3055 113.843 58.0655L113.837 58.0441L113.837 58.044C113.167 55.6987 112.474 53.2746 111.336 51.0255C107.949 44.3188 101.133 40.0148 93.9307 40.0148H93.7334C92.8507 40.0228 92.1414 40.7482 92.1521 41.6308C92.1627 42.5082 92.8774 43.2122 93.7521 43.2122H93.7707H93.9334C99.9387 43.2122 105.637 46.8282 108.483 52.4655C109.488 54.4522 110.112 56.6308 110.771 58.9402C111.741 62.3428 112.747 65.8602 115.083 68.7695C115.681 69.5143 116.341 70.1822 116.977 70.8261L116.977 70.8263L116.977 70.8265L116.981 70.8308L116.994 70.8434C117.928 71.7907 118.811 72.6861 119.395 73.7162C120.133 75.0228 120.173 77.0255 119.115 77.6522C118.647 77.9313 117.922 78.009 117.154 78.0914L117.147 78.0922L117.144 78.0925C115.907 78.2258 114.367 78.3917 113.205 79.5322C112.136 80.5561 111.851 81.9133 111.621 83.0039L111.621 83.0039L111.621 83.0042L111.621 83.005C111.597 83.1221 111.573 83.2391 111.547 83.3535C111.203 84.9242 110.672 85.9268 109.928 86.4175C109.595 86.6362 109.069 86.6975 108.731 86.5562C108.573 86.4895 108.56 86.4282 108.549 86.3748C108.376 85.5082 107.533 84.9455 106.667 85.1188C106.466 85.1591 106.281 85.2353 106.118 85.3395C106.265 84.9237 106.39 84.502 106.491 84.076C107.435 80.1773 106.094 76.7826 102.99 75.2146C100.99 74.204 98.5549 73.7773 94.3469 77.476C94.3335 77.4878 94.3203 77.4998 94.3073 77.5119C94.1075 77.4874 93.8997 77.5004 93.6932 77.5566L93.6918 77.5569C93.6184 77.576 93.4003 77.6325 93.0452 77.4232C92.5679 77.1406 92.1519 76.5566 92.0105 75.9699C91.7839 75.0312 91.8985 73.9592 92.0212 72.8205L92.0253 72.7825C92.0747 72.3196 92.126 71.8392 92.1545 71.3539C92.3812 67.5512 91.1812 63.8579 88.8639 61.2206C86.0079 57.9699 82.7972 57.9566 79.7545 58.4259C78.8799 58.5592 78.2825 59.3779 78.4159 60.2499C78.5492 61.1246 79.3679 61.7219 80.2399 61.5886C83.2852 61.1192 84.9145 61.5752 86.4585 63.3326C88.2265 65.3406 89.1359 68.1939 88.9599 71.1619C88.9384 71.5428 88.8979 71.928 88.8553 72.3325L88.8399 72.4792L88.8372 72.5043C88.694 73.8565 88.5461 75.2536 88.9012 76.7192C89.2505 78.1566 90.1892 79.4499 91.4159 80.1752ZM58.2483 74.6919C59.2792 74.6919 60.115 73.6771 60.115 72.4253C60.115 71.1734 59.2792 70.1586 58.2483 70.1586C57.2174 70.1586 56.3816 71.1734 56.3816 72.4253C56.3816 73.6771 57.2174 74.6919 58.2483 74.6919ZM67.3139 75.3201C68.3449 75.3201 69.1806 74.3052 69.1806 73.0534C69.1806 71.8015 68.3449 70.7867 67.3139 70.7867C66.283 70.7867 65.4473 71.8015 65.4473 73.0534C65.4473 74.3052 66.283 75.3201 67.3139 75.3201Z" fill="black"/>
<path d="M90.499 100C90.739 102.693 91.8403 108.779 95.939 107.867L96.379 108.533C96.179 112.712 94.0617 115.659 90.7443 118.712C87.3737 121.765 83.075 123.6 78.539 123.923C74.539 124.216 70.2857 123.259 67.2937 120.576C64.3017 117.893 62.7283 114.176 64.7097 110.989H64.9977C65.899 111.016 66.7283 110.544 67.491 110.064C68.4617 109.451 69.2883 106.696 69.8883 105.973C70.6883 104.936 72.187 101.243 72.5977 100H90.499V100Z" fill="#FFD39F"/>
<path d="M117.955 174.361C123.861 192.649 127.971 206.676 133.368 224.326C133.635 225.228 134.701 228.414 134.208 229.212C133.877 229.745 133.323 230.086 132.781 230.393C129.821 232.076 126.589 232.217 123.251 232.889L110.859 235.356C93.1227 238.537 75.3227 239.316 57.5547 236.318L54.2027 235.926L42.736 233.732C41.7014 233.534 40.5654 233.27 39.96 232.398C39.4587 231.684 39.4614 230.742 39.4987 229.87C39.6507 226.404 40.0507 222.964 40.4507 219.521L43.6054 192.321C44.9574 180.668 46.312 168.996 48.1547 157.414L48.0267 157.374C44.9254 156.308 41.872 155.124 38.816 153.937C38.3947 153.817 38.016 153.582 37.7174 153.262C37.1174 152.489 37.632 151.38 38.1467 150.545C42.6907 143.158 46.576 135.388 49.7627 127.321C52.1947 121.161 54.7334 114.23 60.6694 111.294L73.0747 112.71L96.416 106.398C100.499 107.492 103.848 110.42 106.597 113.633C110.072 117.694 112.827 122.321 114.747 127.31C118.995 138.358 118.997 150.812 124.12 161.484C121.691 162.204 119.224 162.782 116.731 163.222L117.955 174.361Z" fill="black"/>
<path fill-rule="evenodd" clip-rule="evenodd" d="M74.6121 122.131C73.3614 119.681 72.6121 117.006 72.4121 114.262C79.1534 108.379 86.0254 105.115 93.1748 102.686C93.6174 102.537 94.2228 102.443 94.4574 102.849C94.5454 103.049 94.5668 103.273 94.5214 103.489L94.0441 107.721C93.8201 109.702 93.5721 111.755 92.5321 113.459C91.4334 115.265 89.5721 116.454 87.7321 117.499C84.1241 119.55 80.3481 121.294 76.4468 122.71C76.0148 122.867 75.5054 123.014 75.1134 122.774C74.8921 122.609 74.7188 122.387 74.6121 122.131ZM68.6951 108.797C68.5564 107.186 69.3564 105.656 70.1324 104.237C70.5991 104.205 70.1004 103.37 69.4817 103.29C68.8631 103.21 68.2897 103.624 67.7964 104.01C65.7697 105.592 63.7964 107.264 62.1004 109.194C61.7671 109.469 61.5297 109.84 61.4151 110.256C61.3031 110.672 61.3191 111.112 61.4657 111.517C62.1084 114.432 63.1431 117.245 64.5404 119.882C64.7644 120.306 65.1484 120.792 65.6071 120.661C65.7991 120.586 65.9644 120.458 66.0871 120.293L69.3884 116.56C70.6577 115.128 72.0071 113.488 71.9164 111.576C70.3564 111.997 68.8337 110.408 68.6951 108.797Z" fill="white"/>
<path fill-rule="evenodd" clip-rule="evenodd" d="M39.5091 229.882C39.6611 226.421 40.0611 222.976 40.4611 219.533L43.6185 192.344C44.9518 180.704 46.3118 169.042 48.1518 157.469L48.0291 157.397C45.8505 156.65 43.6958 155.842 41.5465 155.016L41.4371 155.549L37.4665 202.821C37.3038 204.744 37.0691 206.856 35.5865 208.154C35.0088 208.66 34.2733 209.001 33.5479 209.338C32.4114 209.865 31.2996 210.381 30.8585 211.501C30.2922 212.94 31.1877 214.269 32.1087 215.635C32.5972 216.36 33.0928 217.096 33.3811 217.864C33.9393 219.336 33.7111 220.969 33.4852 222.585C33.2255 224.442 32.9689 226.278 33.9145 227.821C35.0025 229.597 37.2585 230.205 39.3091 230.573L39.5091 229.882ZM107.646 216.573C105.499 199.259 104.179 181.896 103.683 164.483L116.846 164.072C117.489 169.884 118.132 175.696 118.776 181.51C120.312 195.388 121.849 209.27 123.384 223.157C123.787 226.789 124.102 230.789 121.99 233.773C121.179 234.917 120.067 235.816 118.776 236.363C117.486 236.909 116.07 237.088 114.683 236.875C113.296 236.661 111.998 236.067 110.931 235.157C109.864 234.248 109.072 233.061 108.643 231.725C108.487 231.238 108.378 230.732 108.269 230.227C108.042 229.177 107.817 228.135 107.179 227.291C106.507 226.399 105.479 225.869 104.458 225.344C103.291 224.744 102.135 224.149 101.536 223.024C100.707 221.459 101.384 219.411 102.72 218.259C104.056 217.107 105.883 216.683 107.646 216.573Z" fill="#FFD39F"/>
<path fill-rule="evenodd" clip-rule="evenodd" d="M75.5994 124.505C75.1807 124.505 74.7221 124.414 74.2794 124.142C74.2394 124.118 74.2021 124.092 74.1647 124.065C73.7274 123.742 73.3834 123.31 73.1647 122.814C72.2543 121.023 71.5983 119.14 71.2031 117.191C71.0319 117.391 70.8676 117.577 70.7167 117.747L67.45 121.437C67.1567 121.811 66.7674 122.101 66.3247 122.275C66.274 122.293 66.2234 122.312 66.1727 122.325C66.0527 122.355 65.8447 122.4 65.5834 122.4C64.9407 122.4 63.986 122.125 63.258 120.749C62.0093 118.394 61.0381 115.901 60.3611 113.323C55.9057 116.129 53.6888 121.76 51.5413 127.217L51.2613 127.926C48.0506 136.057 44.0986 143.955 39.52 151.401C39.216 151.894 39.112 152.185 39.0773 152.334C39.136 152.369 39.2 152.398 39.2693 152.417C39.3173 152.43 39.3626 152.446 39.408 152.462L39.472 152.486L39.5148 152.503C41.9304 153.44 44.4126 154.404 46.8954 155.292C48.0394 148.302 49.3699 141.338 50.989 134.467C51.1916 133.608 52.0503 133.072 52.9143 133.277C53.773 133.48 54.3063 134.341 54.1036 135.203C49.7298 153.769 47.4713 173.104 45.2869 191.805L45.2796 191.867L45.2023 192.533L42.0476 219.733L42.046 219.748C41.6572 223.101 41.2554 226.565 41.1036 229.968C41.085 230.392 41.0503 231.187 41.277 231.507C41.5436 231.885 42.493 232.077 43.0583 232.189L52.341 233.965C53.2076 234.131 53.7783 234.971 53.6103 235.837C53.469 236.6 52.7996 237.133 52.045 237.133C51.9463 237.133 51.845 237.123 51.7436 237.104L42.445 235.325C41.3943 235.115 39.6636 234.765 38.661 233.341C38.3485 232.896 38.158 232.424 38.045 231.947C35.9275 231.479 33.7787 230.647 32.5567 228.652C31.3061 226.618 31.6234 224.348 31.9034 222.348C32.1087 220.89 32.3007 219.511 31.8901 218.423C31.6752 217.846 31.2643 217.233 30.8281 216.583L30.7887 216.524L30.7886 216.524C29.77 215.012 28.5034 213.132 29.3754 210.911C30.0567 209.192 31.6359 208.455 32.9039 207.864L32.9114 207.86C33.5487 207.564 34.1487 207.284 34.5407 206.943C35.5141 206.095 35.7274 204.444 35.8767 202.682L39.7936 156.051C39.2972 155.858 38.8032 155.666 38.312 155.475L38.3066 155.473C37.6373 155.265 37.032 154.886 36.5546 154.371C36.5226 154.337 36.4933 154.302 36.464 154.265C35.552 153.089 35.664 151.563 36.7946 149.726C41.2746 142.441 45.1413 134.71 48.2853 126.753L48.5626 126.046C50.9733 119.918 53.7066 112.974 59.9706 109.878C59.9964 109.865 60.0224 109.853 60.0485 109.842C60.2613 109.223 60.6148 108.659 61.0767 108.197C62.8634 106.243 64.8394 104.445 66.954 102.853C67.5034 102.427 68.5114 101.645 69.826 101.821C70.8607 101.96 72.3407 103 72.298 104.32C72.282 104.8 72.0794 105.224 71.7514 105.523L71.7513 105.523C71.674 105.656 71.5967 105.79 71.5194 105.925L71.5153 105.933C70.9405 106.928 70.3462 107.957 70.4154 108.789C70.4474 109.176 70.7274 109.613 72.522 110.173C73.031 110.332 73.4178 110.729 73.5727 111.222C79.0113 106.921 85.0147 103.772 92.6634 101.174C94.3141 100.617 95.3887 101.262 95.8447 102.049C95.8741 102.102 95.9007 102.156 95.9247 102.209C96.1354 102.692 96.1967 103.214 96.1061 103.732L95.9779 104.871C96.248 104.793 96.5421 104.785 96.8334 104.864C100.639 105.882 104.233 108.416 107.817 112.605C111.42 116.816 114.255 121.576 116.244 126.749C118.215 131.877 119.3 137.317 120.348 142.578L120.356 142.62C121.641 149.066 122.855 155.156 125.567 160.805C125.769 161.229 125.777 161.717 125.585 162.146C125.393 162.576 125.025 162.898 124.577 163.032C122.582 163.617 120.575 164.113 118.558 164.518L119.641 174.391C123.812 187.324 127.107 198.199 130.582 209.665L130.583 209.669L130.584 209.672L130.584 209.672L130.696 210.042C132.035 214.466 133.421 219.04 134.896 223.864C134.928 223.97 134.963 224.085 135.005 224.218C135.904 227.141 136.259 228.938 135.568 230.058C135.04 230.912 134.259 231.4 133.568 231.792C131.087 233.201 128.47 233.631 125.939 234.047L125.938 234.047L125.933 234.048L125.845 234.062L125.844 234.062L125.844 234.062C125.093 234.186 124.322 234.312 123.565 234.466C123.52 234.474 123.475 234.481 123.43 234.486C123.404 234.525 123.377 234.564 123.351 234.603C123.326 234.638 123.302 234.673 123.277 234.708C122.293 236.095 120.946 237.178 119.381 237.842C118.245 238.322 117.034 238.564 115.813 238.564C115.346 238.564 114.88 238.53 114.413 238.458C113.083 238.253 111.821 237.759 110.712 237.013C100.172 238.88 90.1604 239.814 80.525 239.814C72.5543 239.814 64.8423 239.177 57.2903 237.902C56.4183 237.756 55.8317 236.929 55.9783 236.06C56.125 235.188 56.949 234.598 57.821 234.748C73.5257 237.397 89.9751 237.228 108.029 234.228C107.64 233.598 107.327 232.921 107.098 232.21C106.92 231.644 106.8 231.095 106.688 230.562C106.488 229.623 106.312 228.812 105.888 228.247C105.437 227.652 104.602 227.22 103.717 226.764L103.712 226.762C102.415 226.093 100.945 225.336 100.112 223.77C98.9944 221.655 99.6637 218.764 101.672 217.042C102.752 216.114 104.157 215.49 105.861 215.178C103.901 198.843 102.661 182.247 102.17 165.807C99.8929 165.712 97.6118 165.505 95.3294 165.184C94.5214 165.069 93.9294 164.368 93.9534 163.554L94.6814 138.002C94.7054 137.12 95.4414 136.416 96.3268 136.448C97.2094 136.472 97.9054 137.21 97.8814 138.093L97.1934 162.2C105.511 163.192 113.807 162.605 121.897 160.453C119.541 154.911 118.357 148.969 117.208 143.203L117.208 143.203L117.207 143.197C116.185 138.066 115.129 132.765 113.255 127.893C111.396 123.061 108.748 118.616 105.383 114.682C102.233 111.002 99.1641 108.8 96.0041 107.954C95.8769 107.92 95.7575 107.872 95.647 107.811L95.6367 107.902C95.4181 109.844 95.1434 112.257 93.9007 114.294C92.5754 116.473 90.4314 117.809 88.5247 118.892C84.8474 120.982 80.9701 122.772 76.9941 124.214C76.7301 124.316 76.2074 124.505 75.5994 124.505ZM74.0821 114.942C74.3327 117.124 74.9541 119.225 75.9327 121.201C79.7274 119.822 83.4314 118.11 86.9434 116.116C88.5007 115.23 90.2394 114.161 91.1674 112.636C92.0428 111.204 92.2518 109.353 92.454 107.562L92.4554 107.55L92.7967 104.518C85.2501 107.172 79.4127 110.422 74.0821 114.942ZM125.416 230.888C125.244 230.916 125.071 230.944 124.896 230.972C125.535 228.157 125.211 225.193 124.971 222.995L124.97 222.991L121.422 190.636C123.532 197.435 125.494 203.913 127.517 210.591L127.518 210.595L127.518 210.596L127.632 210.97C128.971 215.397 130.357 219.973 131.829 224.786C131.852 224.863 131.881 224.957 131.914 225.064L131.944 225.16C132.571 227.202 132.731 228.109 132.736 228.504C132.554 228.683 132.24 228.863 132.022 228.988L131.987 229.008C130.006 230.135 127.787 230.499 125.438 230.884L125.416 230.888ZM116.429 174.858C116.341 174.587 116.33 174.309 116.383 174.048L115.399 165.076C112.078 165.585 108.732 165.849 105.374 165.866C105.881 182.692 107.178 199.677 109.232 216.378C109.285 216.815 109.157 217.255 108.874 217.596C108.592 217.935 108.184 218.143 107.744 218.17C105.976 218.279 104.634 218.716 103.76 219.468C102.888 220.218 102.522 221.474 102.944 222.268C103.305 222.948 104.172 223.396 105.175 223.913L105.186 223.919L105.198 223.925C106.304 224.497 107.557 225.144 108.445 226.319C109.297 227.448 109.575 228.743 109.82 229.886L109.82 229.886L109.82 229.886L109.821 229.89L109.836 229.959C109.934 230.414 110.027 230.843 110.152 231.236C110.488 232.284 111.112 233.22 111.952 233.94C112.792 234.658 113.816 235.127 114.906 235.295C116 235.463 117.114 235.324 118.133 234.895C119.152 234.463 120.026 233.759 120.666 232.858C122.397 230.418 122.186 226.964 121.789 223.34L116.494 175.06L116.429 174.858ZM46.3812 158.514C44.6674 169.524 43.3763 180.575 42.1101 191.413L42.101 191.491L38.869 219.36L38.8579 219.456C38.5112 222.452 38.1542 225.537 37.9708 228.63C36.8253 228.306 35.7981 227.816 35.2821 226.975C34.6341 225.919 34.8367 224.469 35.0714 222.789L35.0714 222.788L35.0735 222.774C35.3103 221.071 35.5787 219.14 34.8847 217.295C34.5301 216.351 33.9781 215.53 33.4421 214.735C32.6047 213.492 32.1114 212.692 32.3514 212.084C32.5619 211.549 33.3473 211.184 34.2582 210.76L34.2607 210.759C35.0341 210.399 35.9087 209.991 36.6421 209.354C38.5194 207.722 38.8687 205.295 39.0661 202.948L42.9052 157.242C44.0577 157.676 45.2179 158.103 46.3812 158.514ZM63.138 111.189C63.106 111.072 63.09 110.955 63.0954 110.835C63.1514 110.693 63.2394 110.563 63.3514 110.453L63.3515 110.453C63.3755 110.429 63.3967 110.408 63.418 110.384C64.746 108.928 66.186 107.568 67.7167 106.323C67.37 107.157 67.1514 108.064 67.234 109.053C67.41 111.155 68.978 112.203 70.29 112.765C69.9514 113.723 69.146 114.691 68.3247 115.619L65.7274 118.552C64.578 116.245 63.7167 113.805 63.162 111.285L63.138 111.189ZM69.9991 127.204C70.8091 127.204 71.4658 126.548 71.4658 125.738C71.4658 124.928 70.8091 124.271 69.9991 124.271C69.1891 124.271 68.5324 124.928 68.5324 125.738C68.5324 126.548 69.1891 127.204 69.9991 127.204ZM70.4001 135.869C70.4001 136.679 69.7435 137.336 68.9335 137.336C68.1234 137.336 67.4668 136.679 67.4668 135.869C67.4668 135.059 68.1234 134.402 68.9335 134.402C69.7435 134.402 70.4001 135.059 70.4001 135.869Z" fill="black"/>
</svg>
