<svg width="180" height="180" viewBox="0 0 180 180" fill="none" xmlns="http://www.w3.org/2000/svg">
<g clip-path="url(#clip0_805_38653)">
<rect width="180" height="180" rx="24" fill="white"/>
<g clip-path="url(#clip1_805_38653)">
<path fill-rule="evenodd" clip-rule="evenodd" d="M103.123 95.2734C103.423 98.6474 104.8 106.271 109.923 105.128L110.473 105.963C110.223 111.198 107.577 114.889 103.43 118.714C99.2167 122.539 93.8433 124.838 88.1733 125.242C83.1733 125.609 77.8567 124.41 74.1167 121.049C70.3767 117.689 68.41 113.032 70.8867 109.04H71.2467C72.3733 109.073 73.41 108.482 74.3633 107.881C75.4405 107.199 77.5343 104.639 78.5155 103.44C78.6395 103.289 78.7458 103.159 78.83 103.057C79.4697 102.226 79.8666 99.9098 80.2039 97.9413C80.3939 96.8327 80.565 95.8343 80.75 95.2734H103.123ZM132.363 136.42C131.637 137.595 130.85 138.731 130.01 139.827C127.133 143.548 123.383 146.745 118.9 148.178L118.253 149.207C117.893 179.633 119.39 210.083 122.357 241.408C121.203 241.505 120.11 241.959 119.223 242.707C118.337 243.456 117.703 244.458 117.41 245.58C117.117 246.703 117.173 247.889 117.58 248.974C117.983 250.06 118.713 250.995 119.67 251.65C120.216 252.021 120.82 252.291 121.424 252.561C121.963 252.802 122.503 253.044 123.003 253.357C125.359 254.829 126.436 257.555 127.505 260.262C128.642 263.14 129.77 265.996 132.417 267.301C136.207 269.168 140.957 266.319 142.673 262.447C144.39 258.575 143.92 254.135 143.41 249.933C141.233 232.054 136.043 179.684 135.137 168.723L132.587 137.899L132.363 136.42ZM47.9697 139.644C48.0908 138.87 48.2121 138.096 48.3333 137.322L48.53 136.667C50.67 138.621 52.3166 141.053 53.3333 143.769L49.5633 216.113L47.8966 236.584L47.8886 236.682C47.6046 240.14 47.3199 243.608 46.61 247C45.98 249.779 45.2066 252.525 44.2966 255.225C43.65 257.269 42.8433 259.507 40.9633 260.536C38.2666 262.006 34.7466 260.012 33.43 257.232C32.1522 254.535 32.3436 251.41 32.5267 248.422C32.5322 248.331 32.5378 248.24 32.5433 248.149C32.6433 246.506 32.69 244.752 31.8466 243.342C31.6597 243.035 31.4342 242.75 31.2085 242.465C31.0357 242.246 30.8627 242.027 30.7066 241.799C30.1 240.897 29.7633 239.841 29.74 238.752C29.7133 237.666 30.0033 236.594 30.5666 235.665C31.13 234.737 31.95 233.988 32.9266 233.514C33.9033 233.04 34.9966 232.853 36.0733 232.983C38.4113 200.675 43.1411 170.475 47.9697 139.644Z" fill="#FFD39F"/>
<path fill-rule="evenodd" clip-rule="evenodd" d="M44.5729 133.916C48.6096 136 51.7329 139.511 53.3329 143.77L53.8729 145.721C51.5696 166.293 48.0296 186.707 43.2729 206.854C41.0162 209.497 42.2629 214.257 45.5229 215.45C47.6068 216.214 49.8228 215.632 52.0243 215.054C52.728 214.869 53.4303 214.684 54.1262 214.544C58.4765 213.678 62.8834 214.583 67.2952 215.489C71.5746 216.367 75.8585 217.247 80.0996 216.512C81.3758 216.291 82.6214 215.925 83.8667 215.559C85.2529 215.152 86.6388 214.745 88.0662 214.538C92.4637 213.901 96.8099 215.178 101.12 216.445C102.191 216.759 103.26 217.073 104.326 217.357C109.686 218.784 115.973 219.275 120.233 215.717L120.25 215.53C118.72 193.201 118.01 171.207 118.27 149.222L118.916 148.193C123.4 146.76 127.15 143.567 130.026 139.842C132.903 136.117 134.996 131.861 137.07 127.635C132.763 125.925 129.533 122.294 126.83 118.512C126.17 117.59 125.53 116.65 124.889 115.711C122.906 112.801 120.923 109.893 118.373 107.488C115 104.308 110.313 102.076 105.776 103.012C105.086 106.653 102.173 108.992 99.1729 110.575C93.5329 113.525 87.1096 114.627 80.8096 113.728C79.3129 113.508 77.8029 113.164 76.5129 112.369C75.2229 111.574 74.1829 110.258 74.0429 108.748C73.8296 106.586 75.4196 104.716 76.3762 103.663C66.3829 107.301 57.9429 114.28 52.4796 123.423C52.0679 124.117 51.6685 124.829 51.2677 125.543C49.4682 128.75 47.6426 132.003 44.5729 133.916ZM144.5 208.311C144.5 208.311 141.326 200.183 137.36 191.975L139.413 211.401C140.413 213.218 143.553 213.145 144.463 211.277C144.81 210.322 144.823 209.276 144.5 208.311Z" fill="black"/>
<path fill-rule="evenodd" clip-rule="evenodd" d="M118.31 146.281C117.65 146.493 117.174 147.016 116.996 147.638C116.553 148 116.267 148.549 116.26 149.167C116.01 170.323 116.64 191.958 118.182 214.725C115.155 216.74 110.664 216.972 104.81 215.414C103.855 215.16 102.87 214.872 101.911 214.591L101.653 214.516C97.193 213.203 92.5797 211.847 87.7497 212.548C86.1797 212.775 84.703 213.21 83.273 213.631C82.0497 213.991 80.893 214.332 79.7297 214.533C75.8678 215.2 71.8927 214.383 67.6877 213.518L67.683 213.517C63.1464 212.582 58.4564 211.616 53.7064 212.572C52.9553 212.72 52.214 212.914 51.4954 213.103L51.495 213.103L51.4948 213.103L51.4942 213.103L51.4697 213.109L51.4571 213.113C49.5051 213.623 47.6632 214.104 46.1797 213.56C45.2664 213.223 44.5397 212.331 44.2364 211.172C43.9364 210.016 44.133 208.887 44.763 208.149C44.9697 207.905 45.1164 207.618 45.1897 207.307C50.573 184.537 54.4297 161.18 56.6564 137.886C56.763 136.787 55.9564 135.808 54.8564 135.701C53.7597 135.598 52.783 136.403 52.6764 137.505C52.6532 137.748 52.6299 137.99 52.6064 138.233C51.3398 136.492 49.8028 134.961 48.0464 133.697C50.1412 131.641 51.5939 129.051 53.0094 126.528L53.0131 126.521C53.4164 125.796 53.7997 125.115 54.1964 124.447C58.2797 117.612 64.3831 112.12 72.0231 108.355C72.0231 108.539 72.0331 108.729 72.0531 108.926C72.2397 110.947 73.5164 112.868 75.4664 114.071C77.1497 115.11 79.053 115.491 80.5297 115.708C87.283 116.673 94.0497 115.511 100.106 112.344C103.896 110.346 106.33 107.817 107.363 104.817C110.49 104.63 114.01 106.12 117.006 108.946C119.396 111.201 121.263 113.937 123.24 116.837L123.391 117.059C123.98 117.922 124.586 118.809 125.206 119.676C127.38 122.72 130.323 126.344 134.38 128.572C132.65 132.057 130.803 135.561 128.446 138.611C126.373 141.293 122.933 144.804 118.31 146.281ZM111.683 220.439C114.246 220.439 116.518 219.997 118.489 219.116C118.981 225.912 119.553 232.812 120.206 239.831C119.383 240.132 118.613 240.576 117.93 241.15C116.716 242.173 115.863 243.522 115.46 245.056C115.056 246.589 115.136 248.186 115.693 249.672C116.25 251.159 117.236 252.415 118.546 253.307C119.221 253.768 119.935 254.088 120.565 254.37L120.565 254.371L120.606 254.389L120.635 254.402L120.635 254.402C121.115 254.618 121.567 254.822 121.943 255.057C123.736 256.178 124.66 258.513 125.638 260.986L125.643 261L125.645 261.007C126.842 264.032 128.195 267.455 131.533 269.101C132.596 269.626 133.766 269.89 134.973 269.89C135.98 269.89 137.013 269.703 138.046 269.328C140.82 268.32 143.296 265.994 144.51 263.255C146.503 258.756 145.893 253.73 145.403 249.688L145.403 249.686C144.498 242.249 143.058 228.731 141.624 214.717C141.711 214.721 141.799 214.723 141.886 214.723H142.023C143.886 214.676 145.51 213.691 146.26 212.154C146.29 212.091 146.32 212.027 146.343 211.96C146.843 210.584 146.86 209.061 146.396 207.671C146.393 207.659 146.389 207.647 146.385 207.636C146.382 207.625 146.378 207.613 146.373 207.602C146.37 207.594 146.367 207.586 146.363 207.577L146.355 207.558C146.178 207.107 143.085 199.257 139.282 191.353C138.267 181.009 137.456 172.421 137.136 168.553L134.586 137.729C134.564 137.468 134.493 137.223 134.383 137.002C136.05 134.257 137.458 131.39 138.835 128.586L138.835 128.586L138.866 128.522C139.113 128.018 139.136 127.437 138.936 126.915C138.733 126.394 138.326 125.98 137.806 125.773C133.69 124.136 130.646 120.408 128.456 117.345C127.81 116.439 127.163 115.494 126.54 114.579C124.53 111.629 122.45 108.579 119.743 106.027C115.413 101.944 110.043 100.084 105.373 101.046C104.576 101.21 103.96 101.838 103.81 102.636C103.353 105.045 101.53 107.062 98.2464 108.796C92.943 111.565 87.0097 112.588 81.0997 111.742C79.943 111.572 78.6164 111.308 77.5597 110.657C76.6897 110.119 76.1031 109.314 76.0331 108.546C75.9564 107.744 76.3997 107.196 77.3597 106.22C77.5497 106.027 77.7331 105.84 77.8997 105.656C78.5197 104.974 78.593 103.956 78.083 103.191C77.573 102.426 76.6064 102.108 75.7397 102.422C64.833 106.394 56.1964 113.296 50.7631 122.392C50.3397 123.107 49.9264 123.842 49.5264 124.554C47.7931 127.647 46.1531 130.567 43.5197 132.207C42.9064 132.588 42.5464 133.269 42.5764 133.991C42.6064 134.712 43.0197 135.36 43.6597 135.691C44.5983 136.176 45.4804 136.746 46.297 137.391L45.993 139.336C41.1597 170.176 36.593 199.34 34.2097 231.032C33.463 231.152 32.7364 231.379 32.0497 231.713C30.7264 232.358 29.623 233.363 28.8564 234.623C28.0897 235.882 27.703 237.329 27.7364 238.802C27.7697 240.279 28.223 241.702 29.053 242.934C29.2497 243.218 29.4564 243.482 29.6397 243.713L29.6493 243.725C29.8391 243.964 30.0182 244.19 30.1297 244.374C30.6664 245.269 30.633 246.612 30.5464 248.029L30.5297 248.299L30.5292 248.308C30.3393 251.416 30.1244 254.933 31.623 258.094C32.623 260.208 34.6064 261.966 36.7964 262.681C37.523 262.918 38.2564 263.035 38.973 263.035C40.013 263.035 41.0197 262.787 41.923 262.293C44.6197 260.816 45.6097 257.713 46.1997 255.846C47.1264 253.1 47.9197 250.274 48.563 247.444C48.5647 247.439 48.5655 247.433 48.5664 247.427C48.5672 247.422 48.568 247.416 48.5697 247.411C49.303 243.896 49.5997 240.312 49.883 236.844L51.4771 217.25C51.8181 217.165 52.1536 217.077 52.483 216.991C53.183 216.807 53.843 216.637 54.493 216.507C58.4497 215.712 62.543 216.554 66.8797 217.446C71.2664 218.351 75.803 219.283 80.413 218.484C81.7755 218.248 83.0768 217.867 84.3328 217.499L84.3997 217.479L84.4503 217.464C85.7882 217.072 87.0524 216.702 88.323 216.517C92.2864 215.942 96.2897 217.118 100.526 218.364L100.697 218.414C101.707 218.709 102.751 219.014 103.783 219.29C106.66 220.055 109.296 220.439 111.683 220.439ZM47.4184 217.809C46.5575 217.787 45.6855 217.647 44.813 217.329C42.663 216.54 41.003 214.619 40.3697 212.191C40.2152 211.598 40.1287 211.001 40.1079 210.414C39.3152 217.876 38.6266 225.428 38.0697 233.13C38.0297 233.677 37.7697 234.182 37.3464 234.529C36.9264 234.877 36.3797 235.04 35.8364 234.974C35.1364 234.89 34.433 235.01 33.7997 235.318C33.1664 235.625 32.6364 236.106 32.273 236.711C31.9064 237.312 31.723 238.004 31.7364 238.708C31.753 239.413 31.9697 240.095 32.363 240.679C32.473 240.84 32.6197 241.027 32.773 241.221L32.8136 241.272C33.0501 241.573 33.3133 241.908 33.5497 242.296C34.6797 244.187 34.6564 246.285 34.5364 248.269L34.5197 248.543C34.3497 251.296 34.1764 254.142 35.233 256.37C35.773 257.506 36.8697 258.488 38.033 258.866C38.5464 259.033 39.3064 259.153 40.0064 258.772C41.1964 258.121 41.8364 256.36 42.3897 254.616C42.393 254.603 42.3964 254.593 42.403 254.58C43.2864 251.961 44.043 249.268 44.6564 246.569C45.3397 243.302 45.623 239.851 45.8964 236.514L47.4184 217.809ZM40.3428 208.233C42.808 185.648 46.2054 163.838 49.76 141.146C50.4466 142.177 51.0193 143.291 51.4631 144.47C51.5611 144.731 51.7074 144.959 51.8878 145.148C49.6233 165.575 46.1031 185.992 41.3997 205.961C40.9117 206.64 40.5567 207.41 40.3428 208.233ZM141.923 210.714C141.605 210.723 141.313 210.623 141.192 210.473C140.968 208.27 140.746 206.069 140.527 203.891C141.709 206.689 142.483 208.649 142.616 208.987C142.766 209.462 142.77 209.976 142.626 210.454C142.506 210.601 142.226 210.708 141.923 210.714ZM120.252 149.855C124.13 148.445 127.787 145.728 130.92 141.933L133.15 168.887C134.09 180.271 139.273 232.452 141.43 250.173C141.976 254.69 142.283 258.401 140.85 261.632C140.073 263.382 138.436 264.925 136.676 265.564C135.823 265.874 134.546 266.111 133.303 265.5C131.354 264.54 130.394 262.112 129.376 259.539L129.37 259.524L129.368 259.52C128.248 256.684 126.982 253.476 124.07 251.657C123.45 251.269 122.81 250.982 122.243 250.728C121.703 250.487 121.193 250.26 120.796 249.99C120.176 249.565 119.706 248.971 119.443 248.266C119.18 247.561 119.143 246.803 119.333 246.075C119.523 245.346 119.926 244.708 120.503 244.224C121.08 243.739 121.776 243.449 122.526 243.389C123.06 243.345 123.553 243.088 123.896 242.677C124.24 242.266 124.403 241.735 124.353 241.201C121.276 208.706 119.936 178.818 120.252 149.855Z" fill="black"/>
</g>
<path fill-rule="evenodd" clip-rule="evenodd" d="M93.1494 35.4035C96.4361 32.1598 98.5361 27.9306 100.573 23.7849C105.533 13.6896 92.6661 8.67541 85.0227 8.34469C68.8727 7.63982 52.7294 17.3209 45.7294 31.9226C45.4037 32.6018 45.0823 33.303 44.7574 34.012C42.5779 38.7673 40.2364 43.8761 35.3427 45.0912C34.6434 45.2655 33.9157 45.3458 33.1905 45.4258C32.0109 45.556 30.8382 45.6854 29.8061 46.217C28.1394 47.0756 27.2094 49.7881 28.8061 50.7903C29.3394 51.0676 29.9327 51.2146 30.5327 51.2179L38.3027 51.866C37.5361 54.6153 37.6027 58.7175 40.4327 59.0282C41.6294 59.1585 42.7327 58.4202 43.6661 57.6586C44.5002 56.9751 45.5389 56.3264 46.6063 55.6599C48.5545 54.4433 50.5979 53.1672 51.6661 51.5119C52.6364 50.0072 53.0771 48.2787 53.5138 46.5662C54.0447 44.4842 54.5696 42.4258 56.0327 40.822C60.3327 36.1451 67.556 34.4247 73.4927 36.7063C74.4508 37.0671 75.3741 37.522 76.2966 37.9765C77.6979 38.6669 79.0971 39.3563 80.6127 39.7129C85.1027 40.7685 89.8627 38.6472 93.1494 35.4035ZM127.389 33.8234C123.529 26.1634 111.073 20.8519 102.499 20.9454C102.499 20.9454 96.2127 32.691 94.3327 34.9759C91.7693 38.1061 83.666 41.3231 83.666 41.3231C85.2445 42.0532 87.0883 42.3843 89.0484 42.7364C92.4691 43.3508 96.2438 44.0288 99.5793 47.0021C102.243 50.0387 103.439 54.2177 103.199 58.2532C103.165 58.8336 103.102 59.4164 103.04 59.9992C102.873 61.5567 102.706 63.1141 103.073 64.6237C103.576 66.6982 105.589 68.6391 107.643 68.0745L123.723 77.5952C124.129 79.6397 126.843 80.0305 128.509 78.9315C130.176 77.8324 130.959 75.8013 131.386 73.8471C131.419 73.6973 131.451 73.5459 131.482 73.3939C131.735 72.1859 131.998 70.9338 132.886 70.0822C133.861 69.1231 135.243 68.9745 136.645 68.8237C137.791 68.7004 138.951 68.5756 139.913 68.0044C142.363 66.5512 142.386 62.8432 140.983 60.3611C140.12 58.8347 138.886 57.5825 137.649 56.3271C136.875 55.541 136.099 54.7537 135.413 53.8971C132.746 50.5679 131.57 46.4402 130.386 42.2881C129.56 39.3908 128.731 36.4815 127.389 33.8234Z" fill="black"/>
<path d="M80.6127 39.7066C78.0994 39.1153 75.906 37.6087 73.4927 36.7001C67.556 34.4251 60.3327 36.1455 56.0327 40.8223L53.3327 52.8485C51.3327 55.855 50.9994 59.5297 49.9994 63.2043C49.9994 64.26 45.946 78.5176 55.3327 87.9247C58.666 91.2653 62.9994 92.6016 67.4994 93.6038C71.536 94.2284 75.946 94.8565 79.8327 93.2697C79.6094 96.7473 79.576 99.2293 79.736 102.71L103.236 100.285C102.853 95.715 103.693 91.6027 105.676 87.4671C106.123 86.5317 107.093 86.5417 108.049 86.2377C108.896 85.9705 109.736 85.6632 110.556 85.3157C112.226 84.6209 113.803 83.7223 115.256 82.6433C118.129 80.4685 120.366 77.4152 121.209 73.8742C121.973 70.6639 121.436 66.8422 117.859 65.035C115.353 63.7656 113.103 64.2165 109.279 67.5839L107.633 68.0916C105.579 68.6562 103.566 66.7153 103.063 64.6408C102.559 62.5663 103.063 60.4016 103.189 58.2703C103.429 54.2348 102.233 50.0558 99.5694 47.0192C96.906 43.9825 92.726 42.2287 88.7394 42.8467" fill="#FFD39F"/>
<path fill-rule="evenodd" clip-rule="evenodd" d="M40.7195 61.0513C40.5561 61.0513 40.3861 61.0413 40.2161 61.0246C38.8561 60.8743 37.7361 60.1962 36.9695 59.0637C35.9728 57.5872 35.7595 55.5661 35.9395 53.6853L30.4361 53.2277C29.5495 53.211 28.6661 52.9838 27.8795 52.5729C27.8328 52.5495 27.7861 52.5228 27.7428 52.4927C26.5628 51.7511 25.9195 50.4817 25.9828 49.0052C26.0595 47.1578 27.2561 45.2804 28.8895 44.4386C30.2344 43.7448 31.6642 43.5836 32.9272 43.4412L32.9695 43.4364C33.6495 43.3629 34.2895 43.2894 34.8595 43.1491C38.8169 42.1676 40.9101 37.6029 42.9355 33.186L42.9395 33.1774L43.0419 32.9544C43.3372 32.3114 43.6303 31.673 43.9261 31.0561C51.2561 15.7662 68.1961 5.60414 85.1095 6.34242C90.1961 6.5629 98.9828 8.95142 102.343 14.6338C103.579 16.7216 104.586 20.1591 102.369 24.6723C100.383 28.7211 98.1261 33.3077 94.5561 36.832C90.4095 40.9243 84.8928 42.7783 80.1595 41.6659C78.4502 41.2647 76.9443 40.5271 75.4862 39.8128L75.4861 39.8127L75.4161 39.7784L75.384 39.7626L75.3839 39.7626C74.4925 39.3241 73.6492 38.9093 72.7928 38.5858C67.6595 36.6116 61.2361 38.1282 57.5061 42.1837C56.4408 43.3514 56.0737 45.1657 55.6842 47.0906L55.6828 47.0977L55.6776 47.1231C55.3561 48.7102 55.0259 50.3398 54.2875 51.8748C54.8771 52.4172 55.1066 53.2868 54.7994 54.0795C52.5261 59.9389 51.4261 64.6725 51.1528 67.1479C50.2495 75.4159 52.4028 82.655 57.0661 87.0044C59.5594 89.3295 62.7495 90.7693 67.1061 91.5376C71.5595 92.316 75.5328 92.8404 79.0494 91.4007C79.6861 91.1401 80.4128 91.2269 80.9728 91.6278C81.5328 92.0287 81.8461 92.6935 81.8028 93.3816C81.5895 96.7423 81.5528 97.4839 81.7128 100.931C81.7628 102.037 80.9095 102.976 79.8061 103.026C79.7728 103.039 79.7428 103.039 79.7095 103.039C78.6461 103.039 77.7628 102.201 77.7128 101.125C77.6061 98.7734 77.5828 97.5908 77.6495 95.9773C73.6428 96.7523 69.5628 96.0407 66.4161 95.4895C61.3328 94.5909 57.3828 92.777 54.3395 89.9408C48.7461 84.7195 46.1361 76.2544 47.1761 66.7103C47.4728 64.0194 48.3846 60.3292 49.7063 56.3926C49.1359 56.7267 48.5511 57.0439 47.9713 57.3584L47.9561 57.3667L47.9412 57.3748L47.9411 57.3748C46.7866 57.9998 45.6928 58.592 44.9361 59.214C43.8628 60.0859 42.4428 61.0513 40.7195 61.0513ZM29.9828 49.1221C30.1628 49.1822 30.3528 49.2156 30.5428 49.2156C30.5931 49.2156 30.6404 49.2186 30.6903 49.2217H30.6904H30.6905H30.6906L30.6995 49.2223L38.4695 49.8704C39.0628 49.9205 39.6061 50.2312 39.9461 50.7222C40.2861 51.2133 40.3895 51.8313 40.2295 52.4059C39.7495 54.123 39.7761 56.0605 40.2861 56.8155C40.3895 56.9691 40.4695 57.0159 40.6528 57.036C41.1882 57.0948 42.0689 56.3783 42.3868 56.1196L42.4061 56.1039C43.4595 55.2421 44.7761 54.5272 46.0528 53.8357L46.07 53.8263C47.8013 52.8872 49.5886 51.9177 50.3228 50.7757C51.0995 49.5697 51.4228 47.9796 51.7628 46.2959C52.2195 44.031 52.7395 41.4621 54.5595 39.4678C59.4361 34.1629 67.5161 32.2588 74.2128 34.8344C75.2469 35.2243 76.228 35.7072 77.1759 36.1739L77.1759 36.1739L77.1828 36.1773L77.1948 36.1832C78.527 36.8391 79.7833 37.4576 81.0728 37.7607C85.1461 38.7161 89.2595 36.4312 91.7495 33.9758C94.8349 30.9304 96.8369 26.8591 98.7742 22.9192L98.7828 22.9018C99.9428 20.5399 99.9828 18.5022 98.9061 16.6782C96.7295 13.0002 90.0995 10.5716 84.9428 10.3478C69.5695 9.67633 54.1961 18.9064 47.5395 32.7899C47.2256 33.4452 46.9149 34.123 46.6012 34.8076L46.6012 34.8076L46.6011 34.8077L46.6011 34.8079L46.5828 34.8477C44.2761 39.882 41.6595 45.5877 35.8328 47.0342C35.0264 47.2362 34.2391 47.3238 33.477 47.4086H33.477L33.4195 47.415L33.4115 47.4159L33.4115 47.4159C32.3944 47.5292 31.431 47.6365 30.7295 47.9963C30.3061 48.2168 30.0161 48.8047 29.9828 49.1221ZM104.269 69.4396C105.109 69.9373 106.019 70.1912 106.923 70.1912C107.343 70.1912 107.759 70.1344 108.163 70.0275C108.49 69.9383 108.777 69.7729 109.008 69.5556C109.555 69.6233 110.126 69.4657 110.573 69.0721C114.236 65.8451 115.573 66.1157 116.936 66.8072C120.06 68.3873 119.58 71.935 119.226 73.3948C118.54 76.2911 116.686 79.0037 114.026 81.0181C112.706 82.0002 111.27 82.8187 109.74 83.4534C108.983 83.7741 108.2 84.0614 107.406 84.3119C107.285 84.3514 107.15 84.3847 107.006 84.42L107.004 84.4204C106.967 84.4297 106.928 84.4392 106.89 84.4489C106.03 84.656 104.593 85.0034 103.833 86.5835C101.76 90.9096 100.783 93.2146 101.206 98.2455C101.293 99.2911 102.17 100.083 103.196 100.083C103.253 100.083 103.31 100.08 103.37 100.066C104.47 99.976 105.286 99.0038 105.193 97.9014C104.86 93.9729 105.453 92.4663 107.37 88.4576C107.464 88.4268 107.598 88.3941 107.722 88.3639L107.723 88.3637C107.76 88.3546 107.796 88.3458 107.83 88.3373C108.063 88.2805 108.33 88.2137 108.606 88.1269C109.516 87.8429 110.42 87.5089 111.283 87.1447C113.103 86.3898 114.83 85.4076 116.423 84.2217C118.711 82.4904 120.534 80.3387 121.758 77.9649L121.763 77.9915C122.043 79.4146 122.996 80.5604 124.369 81.135C125.019 81.4056 125.733 81.5392 126.449 81.5392C127.556 81.5392 128.679 81.2219 129.603 80.6039C131.449 79.3845 132.669 77.3134 133.333 74.2734L133.433 73.8024L133.436 73.7863C133.635 72.8402 133.822 71.9492 134.279 71.5108C134.756 71.0401 135.725 70.9363 136.847 70.8162L136.849 70.8159C138.133 70.679 139.589 70.5219 140.923 69.7302C142.616 68.728 143.663 66.9642 143.876 64.7628C144.049 62.9522 143.629 60.9879 142.716 59.3744C141.724 57.6185 140.375 56.2496 139.069 54.9243L139.066 54.9214C138.306 54.1497 137.589 53.4214 136.966 52.6464C134.553 49.6332 133.459 45.8015 132.303 41.7427L132.295 41.7158C131.458 38.7778 130.592 35.7411 129.169 32.9235C124.936 24.5219 116.416 19.1302 107.413 19.1302H107.166C106.063 19.1402 105.176 20.0489 105.189 21.1546C105.203 22.2537 106.096 23.1356 107.189 23.1356H107.213H107.416C114.923 23.1356 122.046 27.6654 125.603 34.7275C126.859 37.2162 127.639 39.9455 128.463 42.8384C129.676 47.101 130.933 51.5073 133.853 55.1519C134.601 56.0852 135.426 56.922 136.221 57.7288L136.226 57.7341L136.242 57.7499C137.409 58.9367 138.513 60.0582 139.243 61.3487C140.166 62.9856 140.216 65.4944 138.893 66.2794C138.308 66.629 137.402 66.7264 136.442 66.8296L136.433 66.8306L136.429 66.831C134.883 66.9979 132.958 67.2058 131.506 68.6345C130.17 69.9172 129.813 71.6174 129.526 72.9836L129.526 72.984C129.496 73.131 129.466 73.2779 129.433 73.4216C129.003 75.3892 128.339 76.6453 127.409 77.2599C126.993 77.5339 126.336 77.6107 125.913 77.4336C125.716 77.3501 125.699 77.2733 125.686 77.2065C125.469 76.1208 124.416 75.4159 123.333 75.6331C123.081 75.6834 122.851 75.779 122.647 75.9095C122.831 75.3887 122.986 74.8605 123.113 74.3269C124.293 69.4429 122.616 65.1903 118.736 63.2261C116.236 61.96 113.193 61.4255 107.933 66.0589C107.916 66.0735 107.9 66.0883 107.884 66.1033C107.634 66.0724 107.374 66.0888 107.116 66.1591L107.114 66.1596C107.023 66.1834 106.75 66.2543 106.306 65.9921C105.709 65.638 105.189 64.9064 105.013 64.1715C104.729 62.9956 104.873 61.6527 105.026 60.2262L105.031 60.1785C105.093 59.5986 105.157 58.9969 105.193 58.3889C105.476 53.6252 103.976 48.9985 101.079 45.6946C97.5095 41.6225 93.4961 41.6058 89.6928 42.1937C88.5995 42.3607 87.8528 43.3863 88.0195 44.4787C88.1861 45.5744 89.2095 46.3227 90.2995 46.1556C94.1061 45.5677 96.1428 46.1389 98.0728 48.3404C100.283 50.8559 101.419 54.4303 101.199 58.1484C101.173 58.6256 101.122 59.1081 101.069 59.615L101.069 59.6151L101.069 59.6154L101.049 59.7986L101.046 59.83C100.867 61.524 100.682 63.2742 101.126 65.1102C101.563 66.9108 102.736 68.5309 104.269 69.4396ZM62.8095 62.5713C64.0982 62.5713 65.1429 61.3 65.1429 59.7318C65.1429 58.1636 64.0982 56.8923 62.8095 56.8923C61.5209 56.8923 60.4762 58.1636 60.4762 59.7318C60.4762 61.3 61.5209 62.5713 62.8095 62.5713ZM74.1429 63.3564C75.4316 63.3564 76.4762 62.0851 76.4762 60.5169C76.4762 58.9486 75.4316 57.6774 74.1429 57.6774C72.8542 57.6774 71.8096 58.9486 71.8096 60.5169C71.8096 62.0851 72.8542 63.3564 74.1429 63.3564Z" fill="black"/>
</g>
<defs>
<clipPath id="clip0_805_38653">
<rect width="180" height="180" rx="24" fill="white"/>
</clipPath>
<clipPath id="clip1_805_38653">
<rect width="200" height="200.436" fill="white" transform="translate(-10 95.2734)"/>
</clipPath>
</defs>
</svg>
