<svg width="180" height="180" viewBox="0 0 180 180" fill="none" xmlns="http://www.w3.org/2000/svg">
<g clip-path="url(#clip0_805_38148)">
<rect width="180" height="180" rx="24" fill="white"/>
<g clip-path="url(#clip1_805_38148)">
<path d="M103.124 95.2734C103.424 98.6474 104.8 106.271 109.924 105.128L110.474 105.963C110.224 111.198 107.577 114.889 103.43 118.714C99.2171 122.539 93.8437 124.838 88.1737 125.242C83.1737 125.609 77.8571 124.41 74.1171 121.049C70.3771 117.689 68.4104 113.032 70.8871 109.04H71.2471C72.3737 109.073 73.4104 108.482 74.3637 107.881C75.5771 107.113 76.6104 103.662 77.3604 102.756C78.3604 101.457 80.2337 96.8302 80.7471 95.2734H103.124V95.2734Z" fill="#FFD39F"/>
<path d="M137.443 188.427C144.826 211.337 149.963 228.909 156.71 251.02C157.043 252.149 158.376 256.141 157.76 257.14C157.346 257.808 156.653 258.236 155.976 258.62C152.276 260.728 148.236 260.905 144.063 261.747L128.573 264.837C106.403 268.822 84.1529 269.798 61.9429 266.043L57.7529 265.552L43.4196 262.803C42.1262 262.555 40.7062 262.225 39.9496 261.132C39.3229 260.237 39.3262 259.058 39.3729 257.965C39.5629 253.623 40.0629 249.313 40.5629 245L44.5062 210.926C46.1962 196.328 47.8896 181.706 50.1929 167.198L50.0329 167.148C46.1562 165.812 42.3396 164.328 38.5196 162.842C37.9929 162.692 37.5196 162.398 37.1462 161.997C36.3962 161.028 37.0396 159.638 37.6829 158.593C43.3629 149.339 48.2196 139.605 52.2029 129.499C55.2429 121.783 58.4162 113.1 65.8362 109.422L81.3429 111.196L110.52 103.289C115.623 104.659 119.81 108.327 123.246 112.352C127.59 117.44 131.033 123.236 133.433 129.486C138.743 143.326 138.746 158.927 145.15 172.296C142.113 173.198 139.03 173.923 135.913 174.474L137.443 188.427Z" fill="black"/>
<path fill-rule="evenodd" clip-rule="evenodd" d="M83.266 123C81.7027 119.93 80.766 116.579 80.516 113.142C88.9427 105.772 97.5327 101.683 106.469 98.6402C107.023 98.4531 107.779 98.3362 108.073 98.844C108.183 99.0945 108.209 99.3751 108.153 99.6457L107.556 104.947C107.276 107.429 106.966 110.002 105.666 112.136C104.293 114.398 101.966 115.888 99.666 117.197C95.156 119.766 90.436 121.951 85.5593 123.725C85.0193 123.922 84.3827 124.106 83.8927 123.805C83.616 123.598 83.3993 123.321 83.266 123ZM75.8693 106.297C75.696 104.279 76.696 102.362 77.666 100.584C78.2493 100.544 77.626 99.4987 76.8527 99.3984C76.0793 99.2982 75.3627 99.816 74.746 100.3C72.2127 102.281 69.746 104.376 67.626 106.795C67.2093 107.139 66.9127 107.603 66.7693 108.124C66.6293 108.645 66.6493 109.196 66.8327 109.704C67.636 113.355 68.9293 116.88 70.676 120.184C70.956 120.715 71.436 121.323 72.0093 121.159C72.2493 121.066 72.456 120.905 72.6093 120.698L76.736 116.021C78.3227 114.227 80.0093 112.173 79.896 109.778C77.946 110.305 76.0427 108.314 75.8693 106.297Z" fill="white"/>
<path fill-rule="evenodd" clip-rule="evenodd" d="M39.3859 257.979C39.5759 253.643 40.0759 249.326 40.5759 245.014L44.5226 210.953C46.1893 196.371 47.8893 181.763 50.1893 167.265L50.0359 167.175C47.3126 166.239 44.6193 165.227 41.9326 164.191L41.7959 164.86L36.8326 224.078C36.6293 226.487 36.3359 229.133 34.4826 230.759C33.7605 231.393 32.8412 231.821 31.9344 232.242C30.5137 232.903 29.124 233.549 28.5726 234.952C27.8647 236.755 28.9842 238.42 30.1354 240.131C30.746 241.039 31.3655 241.96 31.7259 242.923C32.4237 244.767 32.1383 246.813 31.856 248.837C31.5313 251.164 31.2106 253.463 32.3926 255.396C33.7526 257.621 36.5726 258.383 39.1359 258.844L39.3859 257.979ZM124.556 241.306C121.873 219.615 120.223 197.865 119.603 176.05L136.056 175.536C136.858 182.798 137.66 190.061 138.463 197.326C140.385 214.729 142.308 232.139 144.229 249.554C144.733 254.103 145.126 259.114 142.486 262.852C141.473 264.286 140.083 265.411 138.469 266.096C136.856 266.781 135.086 267.005 133.353 266.738C131.619 266.47 129.996 265.725 128.663 264.586C127.329 263.447 126.339 261.961 125.803 260.287C125.608 259.677 125.471 259.042 125.335 258.41C125.051 257.095 124.77 255.79 123.973 254.731C123.133 253.614 121.847 252.951 120.572 252.294C119.113 251.541 117.668 250.796 116.919 249.387C115.883 247.426 116.729 244.86 118.399 243.417C120.069 241.974 122.353 241.443 124.556 241.306Z" fill="#FFD39F"/>
<path fill-rule="evenodd" clip-rule="evenodd" d="M84.4997 125.966C83.9764 125.966 83.4031 125.852 82.8497 125.512C82.7997 125.481 82.7531 125.448 82.7064 125.415C82.1597 125.01 81.7297 124.469 81.4564 123.848C80.3186 121.604 79.4985 119.245 79.0045 116.805C78.7904 117.055 78.5851 117.287 78.3964 117.501L74.3131 122.124C73.9464 122.592 73.4598 122.956 72.9064 123.173C72.8431 123.196 72.7798 123.22 72.7164 123.237C72.5664 123.273 72.3064 123.33 71.9798 123.33C71.1764 123.33 69.9831 122.986 69.0731 121.262C67.5121 118.311 66.298 115.188 65.4518 111.958C59.8821 115.473 57.1109 122.527 54.4264 129.363L54.0764 130.252C50.0631 140.437 45.1231 150.332 39.3998 159.659C39.0198 160.277 38.8898 160.641 38.8464 160.828C38.9198 160.872 38.9998 160.908 39.0864 160.932C39.1464 160.949 39.2031 160.969 39.2598 160.989L39.3398 161.019L39.3934 161.04C42.413 162.214 45.5158 163.421 48.6195 164.535C50.0495 155.778 51.7126 147.054 53.7364 138.446C53.9897 137.371 55.0631 136.699 56.1431 136.956C57.2164 137.21 57.8831 138.289 57.6297 139.368C52.1624 162.627 49.3393 186.848 46.6088 210.275L46.5997 210.353L46.5031 211.188L42.5597 245.262L42.5577 245.28C42.0716 249.48 41.5695 253.82 41.3797 258.083C41.3564 258.614 41.3131 259.61 41.5964 260.011C41.9297 260.485 43.1164 260.725 43.8231 260.866L55.4264 263.091C56.5097 263.298 57.2231 264.35 57.0131 265.436C56.8364 266.391 55.9997 267.059 55.0564 267.059C54.9331 267.059 54.8064 267.046 54.6797 267.022L43.0564 264.794C41.7431 264.53 39.5797 264.093 38.3264 262.309C37.9353 261.75 37.6971 261.158 37.5559 260.56C34.9093 259.973 32.2236 258.931 30.6964 256.433C29.1331 253.884 29.5297 251.041 29.8797 248.536C30.1364 246.708 30.3764 244.981 29.8631 243.618C29.5945 242.895 29.0809 242.128 28.5357 241.313L28.5357 241.313L28.4864 241.24L28.4863 241.24C27.213 239.345 25.6298 236.99 26.7197 234.208C27.5714 232.054 29.5453 231.131 31.1304 230.39L31.1397 230.386C31.9364 230.015 32.6864 229.665 33.1764 229.237C34.3931 228.175 34.6597 226.107 34.8464 223.899L39.7423 165.484C39.1217 165.243 38.504 165.003 37.8898 164.763L37.8831 164.76C37.0464 164.5 36.2898 164.025 35.6931 163.38C35.6531 163.337 35.6164 163.294 35.5798 163.247C34.4398 161.774 34.5798 159.863 35.9931 157.561C41.5931 148.435 46.4264 138.75 50.3564 128.782L50.7031 127.897C53.7164 120.22 57.1331 111.521 64.9631 107.643C64.9957 107.626 65.0285 107.611 65.0615 107.597C65.3276 106.823 65.7693 106.116 66.3464 105.538C68.5798 103.089 71.0498 100.838 73.6931 98.8435C74.3798 98.309 75.6398 97.3302 77.2831 97.5507C78.5764 97.7244 80.4264 99.0272 80.3731 100.681C80.3531 101.282 80.0998 101.813 79.6898 102.187L79.6891 102.189L79.6891 102.189C79.5926 102.355 79.4962 102.522 79.3998 102.692L79.3947 102.701C78.6762 103.947 77.9333 105.237 78.0198 106.28C78.0598 106.764 78.4098 107.312 80.6531 108.013C81.289 108.212 81.7724 108.709 81.9661 109.326C88.7645 103.938 96.2688 99.9936 105.83 96.739C107.893 96.0408 109.236 96.8492 109.806 97.8347C109.843 97.9015 109.876 97.9683 109.906 98.0351C110.17 98.6398 110.246 99.2945 110.133 99.9426L109.973 101.371C110.311 101.274 110.679 101.264 111.043 101.362C115.8 102.638 120.293 105.812 124.773 111.06C129.276 116.335 132.82 122.298 135.306 128.779C137.77 135.203 139.126 142.017 140.436 148.608L140.447 148.661L140.447 148.661L140.447 148.661L140.447 148.661L140.447 148.661L140.447 148.661C142.053 156.736 143.57 164.365 146.96 171.441C147.213 171.972 147.223 172.584 146.983 173.122C146.743 173.659 146.283 174.064 145.723 174.231C143.229 174.964 140.72 175.585 138.198 176.093L139.551 188.458C144.766 204.662 148.886 218.288 153.23 232.655L153.37 233.119C155.043 238.661 156.776 244.39 158.62 250.433C158.66 250.567 158.703 250.71 158.756 250.877C159.88 254.539 160.323 256.79 159.46 258.193C158.8 259.262 157.823 259.874 156.96 260.365C153.859 262.131 150.588 262.669 147.423 263.19L147.416 263.191L147.303 263.209L147.302 263.21C146.365 263.364 145.401 263.523 144.456 263.715C144.4 263.725 144.344 263.733 144.288 263.739C144.226 263.833 144.162 263.927 144.096 264.019C142.866 265.756 141.183 267.113 139.226 267.944C137.806 268.546 136.293 268.85 134.766 268.85C134.183 268.85 133.6 268.806 133.016 268.716C131.354 268.46 129.778 267.841 128.391 266.907C115.216 269.246 102.701 270.416 90.6564 270.416C80.6931 270.416 71.0531 269.618 61.6131 268.021C60.5231 267.838 59.7898 266.802 59.9731 265.713C60.1564 264.621 61.1864 263.882 62.2764 264.069C81.9075 267.388 102.469 267.177 125.037 263.418C124.551 262.629 124.159 261.781 123.873 260.889C123.65 260.181 123.5 259.493 123.36 258.825C123.11 257.649 122.89 256.633 122.36 255.925C121.796 255.18 120.753 254.639 119.646 254.068L119.641 254.065C118.019 253.227 116.182 252.278 115.14 250.316C113.743 247.667 114.58 244.046 117.09 241.888C118.44 240.725 120.196 239.944 122.326 239.553C119.877 219.09 118.327 198.301 117.712 177.707C114.867 177.589 112.016 177.329 109.163 176.927C108.153 176.783 107.413 175.904 107.443 174.885L108.353 142.876C108.383 141.77 109.303 140.888 110.41 140.928C111.513 140.958 112.383 141.884 112.353 142.989L111.493 173.188C121.89 174.431 132.26 173.696 142.373 171C139.427 164.058 137.947 156.614 136.511 149.39L136.51 149.383C135.233 142.956 133.913 136.315 131.57 130.212C129.246 124.159 125.936 118.59 121.73 113.662C117.793 109.052 113.956 106.293 110.006 105.234C109.847 105.191 109.697 105.13 109.559 105.054L109.546 105.167C109.273 107.599 108.93 110.623 107.376 113.175C105.72 115.904 103.04 117.578 100.656 118.934C96.0597 121.553 91.2131 123.794 86.2431 125.602C85.9131 125.729 85.2597 125.966 84.4997 125.966ZM82.6031 113.986C82.9164 116.719 83.6931 119.351 84.9164 121.827C89.6597 120.1 94.2897 117.955 98.6797 115.456C100.626 114.347 102.8 113.008 103.96 111.097C105.054 109.304 105.315 106.985 105.568 104.741V104.741L105.57 104.726L105.996 100.928C96.5631 104.252 89.2664 108.324 82.6031 113.986ZM146.77 259.232C146.555 259.267 146.338 259.302 146.121 259.338C146.919 255.811 146.514 252.099 146.214 249.346L146.213 249.341L141.778 208.808C144.415 217.327 146.868 225.443 149.397 233.81L149.398 233.812L149.54 234.281C151.213 239.827 152.946 245.559 154.786 251.589C154.823 251.712 154.873 251.873 154.93 252.057C155.713 254.615 155.913 255.751 155.92 256.246C155.692 256.47 155.3 256.695 155.027 256.852L154.983 256.877C152.508 258.289 149.734 258.745 146.798 259.228L146.77 259.232ZM135.536 189.043C135.427 188.703 135.412 188.355 135.479 188.027L134.25 176.792C130.097 177.429 125.916 177.76 121.718 177.781C122.351 198.859 123.973 220.136 126.54 241.056C126.606 241.604 126.446 242.155 126.093 242.583C125.74 243.007 125.23 243.267 124.68 243.301C122.47 243.438 120.793 243.986 119.7 244.928C118.61 245.866 118.153 247.44 118.68 248.435C119.131 249.287 120.215 249.848 121.469 250.496L121.483 250.503L121.498 250.511C122.881 251.227 124.447 252.038 125.556 253.51C126.622 254.925 126.969 256.546 127.275 257.979L127.276 257.983L127.295 258.071L127.295 258.071L127.296 258.071L127.296 258.072C127.418 258.64 127.534 259.178 127.69 259.67C128.11 260.983 128.89 262.155 129.94 263.057C130.99 263.956 132.27 264.544 133.633 264.754C135 264.965 136.393 264.791 137.666 264.253C138.94 263.712 140.033 262.83 140.833 261.701C142.996 258.644 142.733 254.318 142.236 249.778L135.618 189.296L135.536 189.043ZM47.9767 168.571C45.8344 182.363 44.2205 196.207 42.6378 209.784L42.6264 209.882L38.5864 244.794L38.5725 244.914C38.1393 248.666 37.6931 252.53 37.4638 256.405C36.0321 255.999 34.7481 255.385 34.1031 254.332C33.2931 253.009 33.5464 251.192 33.8397 249.087L33.8397 249.087L33.8423 249.068C34.1384 246.935 34.4739 244.517 33.6064 242.205C33.1631 241.023 32.4731 239.994 31.8031 238.998C30.7564 237.441 30.1397 236.439 30.4397 235.678C30.7028 235.007 31.6847 234.549 32.8234 234.019L32.8264 234.017C33.7931 233.566 34.8864 233.055 35.8031 232.257C38.1497 230.212 38.5864 227.172 38.8331 224.233L43.6319 166.977C45.0724 167.521 46.5227 168.056 47.9767 168.571ZM68.9231 109.286C68.8831 109.139 68.8631 108.992 68.8698 108.842C68.9398 108.665 69.0498 108.501 69.1898 108.364C69.2198 108.334 69.2464 108.307 69.2731 108.277C70.9331 106.453 72.7331 104.75 74.6464 103.19C74.2131 104.235 73.9398 105.371 74.0431 106.61C74.2631 109.243 76.2231 110.556 77.8631 111.26C77.4398 112.46 76.4331 113.672 75.4064 114.835L72.1598 118.51C70.7231 115.62 69.6464 112.563 68.9531 109.406L68.9231 109.286ZM77.4998 129.347C78.5123 129.347 79.3331 128.524 79.3331 127.509C79.3331 126.494 78.5123 125.672 77.4998 125.672C76.4873 125.672 75.6664 126.494 75.6664 127.509C75.6664 128.524 76.4873 129.347 77.4998 129.347ZM77.9997 140.203C77.9997 141.218 77.1789 142.041 76.1664 142.041C75.1539 142.041 74.3331 141.218 74.3331 140.203C74.3331 139.189 75.1539 138.366 76.1664 138.366C77.1789 138.366 77.9997 139.189 77.9997 140.203Z" fill="black"/>
</g>
<path d="M108.163 67.823C105.666 67.6393 104.246 64.6996 104.4 62.2008C104.553 59.702 105.733 57.3703 106.103 54.8916C106.953 49.3295 103.173 43.4266 97.7697 41.8866C96.293 41.4657 94.7097 41.3288 93.3664 40.5838C92.2464 39.9591 91.313 38.9135 90.0564 38.693C87.7397 38.2654 85.833 40.6974 83.4897 40.9579C80.3797 41.292 77.9764 37.7209 74.8464 37.7276C71.613 37.7276 69.3764 41.5091 66.1497 41.6628C63.9864 41.7664 62.053 40.1896 59.8897 40.0827C57.093 39.9491 54.7697 42.2975 53.503 44.7996C52.2364 47.3017 51.6097 50.1279 50.0497 52.4596C48.623 54.5909 45.643 56.2345 43.563 54.7379C42.1264 53.709 41.8497 51.6913 41.953 49.9275C42.163 46.3096 43.413 42.8287 45.5497 39.9057C46.2164 39.0171 46.9564 38.1418 47.1964 37.0662C47.5297 35.4827 46.7164 33.9093 46.3964 32.3192C45.693 28.8115 47.8597 24.9498 51.2164 23.7272C52.803 23.1526 54.5764 23.1092 56.063 22.3107C57.5497 21.5123 58.603 19.9991 59.6364 18.6161C65.1064 11.2935 73.8697 5.30043 82.8497 6.92396C88.3597 7.92614 93.183 11.6442 100.036 12.937C104.806 9.38599 112.156 9.9305 116.33 14.1831C121.72 19.6483 121.51 29.336 127.663 33.9327C128.643 34.6676 129.783 35.2689 130.453 36.2911C131.876 38.4625 130.593 41.4123 131.203 43.9411C131.736 46.1359 133.596 47.6993 134.98 49.4832C136.363 51.267 137.25 53.9696 135.773 55.6766C135.13 56.4182 134.173 56.7957 133.416 57.4171C131.556 58.9404 131.186 61.6529 131.416 64.0481C131.646 66.4434 132.473 69.4866 132 71.2237C130.096 78.2824 125.693 76.4818 123.603 77.5709" fill="black"/>
<path d="M53.3327 52.85C51.3327 55.8565 50.9994 59.5312 49.9994 63.2059C49.9994 64.2615 45.946 78.5191 55.3327 87.9263C58.666 91.2669 62.9994 92.6031 67.4994 93.6053C71.536 94.23 75.946 94.858 79.8327 93.2712C79.6094 96.7488 79.576 99.2308 79.736 102.712L103.166 100.286C102.783 95.7165 103.693 91.6043 105.676 87.4686C106.123 86.5332 107.093 86.5433 108.049 86.2393C108.896 85.972 109.736 85.6647 110.556 85.3173C112.226 84.6224 113.803 83.7238 115.256 82.6448C118.129 80.4701 120.366 77.4168 121.209 73.8757C121.973 70.6654 121.436 66.8438 117.859 65.0365C115.353 63.7671 113.103 64.2181 109.279 67.5854L108.153 67.8259C105.656 67.6422 104.236 64.7024 104.389 62.2037C104.543 59.7049 105.723 57.3732 106.093 54.8945C106.943 49.3324 103.163 43.4295 97.7594 41.8895C96.2827 41.4686 94.6994 41.3316 93.356 40.5867C92.236 39.962 91.3027 38.9164 90.046 38.6959C87.7294 38.2683 85.8227 40.7003 83.4794 40.9608C80.3694 41.2949 77.966 37.7238 74.836 37.7305C71.6027 37.7305 69.366 41.512 66.1394 41.6657C63.976 41.7693 62.0427 40.1925 59.8794 40.0856C57.0827 39.952 54.7594 42.3004 53.4927 44.8025C52.226 47.3046 51.5994 50.1308 50.0394 52.4625" fill="#FFD39F"/>
<path fill-rule="evenodd" clip-rule="evenodd" d="M121.827 78.4945C122.184 79.1793 122.881 79.5735 123.604 79.5735C123.917 79.5735 124.231 79.5 124.527 79.333C124.745 79.219 125.308 79.1463 125.814 79.0809L125.854 79.0758L125.859 79.0751C128.223 78.771 132.175 78.2627 133.934 71.7365C134.372 70.1292 134.047 68.0843 133.731 66.1037L133.731 66.1036L133.727 66.0808C133.601 65.2824 133.481 64.5241 133.414 63.8427C133.311 62.7737 133.231 60.1513 134.691 58.9554C134.878 58.7986 135.128 58.6418 135.395 58.474L135.447 58.4409L135.456 58.4358C136.044 58.0663 136.707 57.6494 137.291 56.9777C139.494 54.4322 138.514 50.7542 136.564 48.2421C136.164 47.7276 135.744 47.2432 135.334 46.7756L135.327 46.7678C134.35 45.6482 133.43 44.5949 133.154 43.4583C132.974 42.71 133.031 41.7814 133.094 40.7959C133.207 39.0254 133.334 37.0143 132.131 35.1803C131.411 34.0816 130.421 33.4001 129.548 32.7989L129.547 32.7985L129.419 32.7094L129.419 32.7093C129.232 32.5794 129.046 32.4501 128.864 32.3141C126.042 30.2072 124.709 26.6553 123.296 22.8924L123.294 22.8869C121.951 19.3058 120.561 15.6044 117.761 12.7649C113.121 8.038 105.171 7.23292 99.6107 10.7907C96.5901 10.1172 93.9413 8.94465 91.3728 7.80764L91.3574 7.80082C88.6374 6.59486 86.0707 5.45906 83.2107 4.93793C72.9074 3.07722 63.4541 10.1559 58.0407 17.4017L57.8074 17.7157L57.8047 17.7193C56.9689 18.844 56.1063 20.0046 55.1241 20.5318C54.4976 20.8691 53.6845 21.0428 52.8247 21.2265L52.8247 21.2265L52.8241 21.2267C52.0874 21.3837 51.3241 21.5474 50.5374 21.8313C46.2841 23.3814 43.5507 28.2586 44.4407 32.705C44.5541 33.2762 44.7107 33.804 44.8641 34.3185L44.8667 34.3274C45.1389 35.2456 45.3737 36.0374 45.2507 36.6201C45.1346 37.1455 44.6816 37.7405 44.2007 38.372L44.1941 38.3806L43.9407 38.7147C41.5707 41.9551 40.1941 45.7901 39.9607 49.8021C39.7374 53.6171 41.1674 55.4745 42.4007 56.3597C43.5541 57.1882 44.9474 57.4855 46.4307 57.2182C47.685 56.9916 48.9499 56.3563 50.031 55.4464C48.535 59.7338 47.4977 63.8037 47.1774 66.7089C46.1374 76.253 48.7474 84.718 54.3407 89.9394C57.3841 92.7755 61.3341 94.5895 66.4174 95.4881C69.5641 96.0393 73.6441 96.7508 77.6507 95.9758C77.5841 97.5893 77.6074 98.7719 77.7141 101.124C77.7641 102.199 78.6474 103.038 79.7107 103.038H79.7108C79.7441 103.038 79.7741 103.038 79.8074 103.024C80.9107 102.974 81.7641 102.036 81.7141 100.93C81.5541 97.4824 81.5907 96.7408 81.8041 93.3802C81.8474 92.692 81.5341 92.0272 80.9741 91.6264C80.4141 91.2255 79.6874 91.1386 79.0507 91.3992C75.5341 92.839 71.5607 92.3145 67.1074 91.5362C62.7507 90.7678 59.5607 89.328 57.0674 87.003C52.4041 82.6535 50.2507 75.4145 51.1541 67.1465C51.4274 64.6711 52.5274 59.9375 54.8007 54.0781C55.2007 53.0458 54.6907 51.8833 53.6607 51.4824C53.4261 51.3911 53.1847 51.3471 52.9471 51.3458C53.3611 50.4514 53.7077 49.5455 54.0474 48.6563C54.4474 47.6074 54.8241 46.6219 55.2907 45.6999C56.1641 43.9728 57.8707 41.9851 59.7941 42.0787C60.4841 42.1121 61.2741 42.4161 62.1074 42.7401L62.1272 42.7477C63.3257 43.2103 64.686 43.7352 66.2474 43.6588C68.4065 43.5589 70.0823 42.3776 71.5619 41.3347L71.5774 41.3237C72.7907 40.4652 73.8374 39.7269 74.8541 39.7269H74.8574C75.7941 39.7269 76.8541 40.3783 77.9741 41.0698C79.5874 42.0653 81.4141 43.1911 83.7141 42.9439C85.1507 42.7869 86.3341 42.1188 87.3807 41.5275C88.3107 41.003 89.1141 40.552 89.7174 40.6623C90.0841 40.7257 90.5707 41.0798 91.0841 41.454L91.0905 41.4587C91.4756 41.7381 91.9101 42.0535 92.4041 42.3292C93.5774 42.9773 94.8207 43.2512 95.9207 43.4917C96.3807 43.592 96.8174 43.6888 97.2274 43.8058C101.671 45.0718 104.831 50.0059 104.131 54.5859C103.987 55.5379 103.697 56.5067 103.387 57.5323L103.382 57.5497C102.954 58.974 102.51 60.4485 102.411 62.0688C102.194 65.5798 104.281 69.5384 108.024 69.8123C108.428 69.8429 108.813 69.7503 109.142 69.5661C109.648 69.5948 110.164 69.4323 110.574 69.0707C114.237 65.8437 115.574 66.1142 116.937 66.8057C120.061 68.3858 119.581 71.9336 119.227 73.3934C118.541 76.2897 116.687 79.0023 114.027 81.0166C112.707 81.9988 111.271 82.8172 109.741 83.4519C108.984 83.7726 108.201 84.0599 107.407 84.3105C107.286 84.35 107.151 84.3833 107.008 84.4185C106.986 84.4238 106.965 84.4291 106.943 84.4345C106.926 84.4388 106.908 84.4431 106.891 84.4474C106.031 84.6545 104.594 85.002 103.834 86.5821C101.761 90.9081 100.784 93.2132 101.207 98.2441C101.294 99.2897 102.171 100.081 103.197 100.081C103.254 100.081 103.311 100.078 103.371 100.065C104.471 99.9745 105.287 99.0024 105.194 97.9C104.861 93.9715 105.454 92.4649 107.371 88.4561C107.465 88.4254 107.599 88.3926 107.723 88.3624L107.765 88.3523C107.787 88.3467 107.809 88.3412 107.831 88.3359C108.064 88.2791 108.331 88.2123 108.607 88.1254C109.517 87.8415 110.421 87.5074 111.284 87.1433C113.104 86.3883 114.831 85.4062 116.424 84.2203C118.663 82.5268 120.455 80.4311 121.678 78.1187C121.714 78.2463 121.764 78.3722 121.827 78.4945ZM106.404 62.316C106.313 63.8217 107.082 65.628 108.223 65.8061C113.306 61.444 116.284 61.9819 118.737 63.2246C122.617 65.1889 124.294 69.4415 123.114 74.3254C122.997 74.8178 122.856 75.3055 122.69 75.787C123.541 75.3468 124.457 75.227 125.344 75.1138L125.346 75.1135C127.392 74.8498 129.008 74.6414 130.071 70.6975C130.284 69.9137 130.002 68.151 129.775 66.7357L129.775 66.7356L129.775 66.7355L129.774 66.7289C129.641 65.9005 129.504 65.0453 129.427 64.2402C129.074 60.5689 130.041 57.5924 132.154 55.8653C132.551 55.5379 132.961 55.2807 133.324 55.0569L133.366 55.0302C133.737 54.7964 134.084 54.5777 134.267 54.362C134.914 53.6137 134.337 51.9167 133.404 50.7141C133.08 50.2969 132.717 49.8798 132.334 49.4399L132.334 49.4398L132.334 49.4397L132.324 49.428C131.127 48.0617 129.774 46.5116 129.264 44.4137C128.941 43.0708 129.024 41.7346 129.101 40.552C129.184 39.2392 129.254 38.1067 128.787 37.3918C128.497 36.9509 127.907 36.5433 127.281 36.1124C127.007 35.9253 126.734 35.7349 126.471 35.5378C122.711 32.7283 121.104 28.449 119.551 24.31C118.301 20.9761 117.117 17.8293 114.914 15.5911C111.461 12.0734 105.197 11.5957 101.237 14.5455C100.791 14.8795 100.224 15.0098 99.6741 14.9063C95.8574 14.1847 92.6074 12.7482 89.7441 11.4788C87.2474 10.3731 84.8907 9.33081 82.5007 8.89319C76.9274 7.88433 68.4107 10.2228 61.2441 19.8136L61.0174 20.1176C59.9707 21.5273 58.7841 23.1208 57.0141 24.0729C55.8907 24.6775 54.7074 24.9314 53.6607 25.1519L53.5957 25.1659C52.9863 25.2976 52.4093 25.4223 51.9007 25.6062C49.4741 26.4881 47.8541 29.3811 48.3607 31.9199C48.4407 32.3108 48.5641 32.735 48.6974 33.1827L48.6996 33.1902C49.0724 34.451 49.4934 35.875 49.1574 37.4753C48.8441 38.8817 48.0641 39.9073 47.3741 40.8126L47.1541 41.1032C45.2541 43.7022 44.1441 46.7956 43.9541 50.036C43.8641 51.566 44.1474 52.6817 44.7307 53.0993C44.9007 53.2229 45.1841 53.3699 45.7207 53.273C46.6441 53.106 47.7441 52.3109 48.3941 51.3355C49.1941 50.1411 49.733 48.7313 50.3037 47.2381L50.3107 47.2198L50.3176 47.2019C50.7355 46.1118 51.1671 44.9856 51.7241 43.8859C53.2074 40.9562 56.1607 37.8896 59.9907 38.0733C61.3228 38.1399 62.5026 38.5946 63.54 38.9945L63.5401 38.9945L63.5507 38.9986L63.5759 39.0084C64.5218 39.375 65.3338 39.6898 66.0607 39.6534C67.0636 39.6067 68.1364 38.849 69.2758 38.0444L69.2774 38.0432L69.2775 38.0431C70.8241 36.9508 72.5741 35.7148 74.8541 35.7148H74.8674C76.9307 35.7148 78.6007 36.7437 80.0741 37.6524L80.0873 37.6605C81.3017 38.4087 82.3508 39.0551 83.2841 38.9552C83.9007 38.8851 84.6374 38.4708 85.4207 38.0299C86.7541 37.2782 88.4141 36.3429 90.4274 36.7137C91.6872 36.9335 92.6553 37.6384 93.4342 38.2055L93.4407 38.2103L93.5201 38.2677L93.5201 38.2677L93.5203 38.2679C93.814 38.4806 94.0905 38.6809 94.3474 38.8249C94.9992 39.1864 95.8513 39.3733 96.7571 39.5721L96.7774 39.5766L96.8217 39.5863C97.308 39.6935 97.8129 39.8048 98.3241 39.9507C104.714 41.7713 109.094 48.6062 108.087 55.1872C107.906 56.4052 107.562 57.5482 107.229 58.6549L107.217 58.6948C106.834 59.9609 106.474 61.1568 106.404 62.316ZM62.8107 62.5699C64.0994 62.5699 65.1441 61.2986 65.1441 59.7304C65.1441 58.1622 64.0994 56.8909 62.8107 56.8909C61.5221 56.8909 60.4774 58.1622 60.4774 59.7304C60.4774 61.2986 61.5221 62.5699 62.8107 62.5699ZM74.1441 63.3549C75.4327 63.3549 76.4774 62.0836 76.4774 60.5154C76.4774 58.9472 75.4327 57.6759 74.1441 57.6759C72.8554 57.6759 71.8107 58.9472 71.8107 60.5154C71.8107 62.0836 72.8554 63.3549 74.1441 63.3549Z" fill="black"/>
</g>
<defs>
<clipPath id="clip0_805_38148">
<rect width="180" height="180" rx="24" fill="white"/>
</clipPath>
<clipPath id="clip1_805_38148">
<rect width="200" height="200.436" fill="white" transform="translate(-10 95.2734)"/>
</clipPath>
</defs>
</svg>
