<svg width="180" height="180" viewBox="0 0 180 180" fill="none" xmlns="http://www.w3.org/2000/svg">
<g clip-path="url(#clip0_805_38174)">
<rect width="180" height="180" rx="24" fill="white"/>
<g clip-path="url(#clip1_805_38174)">
<path d="M103.124 95.2734C103.424 98.6474 104.8 106.271 109.924 105.128L110.474 105.963C110.224 111.198 107.577 114.889 103.43 118.714C99.2171 122.539 93.8437 124.838 88.1737 125.242C83.1737 125.609 77.8571 124.41 74.1171 121.049C70.3771 117.689 68.4104 113.032 70.8871 109.04H71.2471C72.3737 109.073 73.4104 108.482 74.3637 107.881C75.5771 107.113 78.0804 103.962 78.8304 103.057C79.8304 101.758 80.2371 96.8302 80.7504 95.2734H103.124V95.2734Z" fill="#FFD39F"/>
<path d="M110.519 103.289C116.416 104.873 120.989 109.426 124.673 114.089C128.689 119.18 131.839 124.899 133.999 131.016C135.209 134.433 137.123 138.278 137.913 141.813L138.966 145.047C144.673 169.677 145.693 195.082 146.066 220.41L146.399 220.791C148.453 228.321 156.119 247.362 157.786 255.38C157.839 256.065 157.726 256.753 157.453 257.384C154.119 261.393 148.453 260.391 144.069 261.754L128.579 264.844C106.409 268.829 84.1595 269.804 61.9495 266.05L57.7595 265.558L43.4261 262.809C42.1328 262.562 40.7128 262.231 39.9561 261.139C39.3294 260.244 39.3328 259.064 39.3795 257.972C39.5695 253.629 40.0695 249.32 40.5695 245.007L42.8561 225.251H42.6828C39.2961 224.837 36.5761 224.426 33.1895 224.015C34.5928 208.498 36.3928 193.021 38.5895 177.581C40.4995 164.135 42.7228 150.685 46.6695 137.694C50.1761 126.149 55.7395 114.209 66.3028 108.42L80.9695 109.422L110.519 103.289Z" fill="black"/>
<path fill-rule="evenodd" clip-rule="evenodd" d="M84.1938 123.333L81.0005 109.443C87.4311 106.802 92.299 104.344 97.1502 101.895L97.3072 101.816C101 99.9486 104.814 98.0478 108.94 97.7305C108.63 101.161 107.692 104.47 106.755 107.778L106.755 107.778L106.727 107.876C106.097 110.091 105.43 112.359 103.94 114.099C102.68 115.573 100.934 116.535 99.1938 117.387C94.3702 119.75 89.291 121.538 84.2246 123.322L84.1938 123.333ZM76.1838 105.207L77.5671 100.256C77.9338 100.563 78.4071 99.2605 77.7871 98.2416L67.5371 106.526C67.2904 109.052 67.5804 111.601 68.3938 114.006C69.2071 116.411 70.5204 118.613 72.2471 120.47C75.3671 117.246 77.8571 113.461 79.5804 109.316C78.0471 108.992 76.1971 108.35 75.9704 106.794C75.9338 106.256 76.0038 105.715 76.1838 105.207ZM118.854 231.815C118.327 234.371 118.154 236.983 118.334 239.586C118.327 239.736 118.347 239.886 118.4 240.026C118.454 240.167 118.534 240.297 118.637 240.407C118.847 240.534 119.094 240.591 119.337 240.564L142.004 240.501C142.347 240.528 142.69 240.464 143.004 240.32C143.644 239.956 143.694 239.068 143.67 238.316L143.43 232.159L118.854 231.815ZM32.7305 232.002C32.9305 229.514 33.1471 226.958 34.2171 224.703L42.5305 225.482L41.4771 233.339C38.5138 233.319 35.5671 232.868 32.7305 232.002Z" fill="white"/>
<path fill-rule="evenodd" clip-rule="evenodd" d="M83.2434 125.084C83.5367 125.244 83.8734 125.328 84.2067 125.328C84.4367 125.328 84.6667 125.291 84.8767 125.217C89.92 123.444 95.1334 121.606 100.063 119.191C101.987 118.252 103.967 117.143 105.45 115.409C107.26 113.298 108.027 110.599 108.643 108.428L108.673 108.327L108.674 108.324L108.674 108.323L108.675 108.322C108.98 107.246 109.288 106.158 109.577 105.057C109.708 105.127 109.85 105.184 110 105.224C115.823 106.791 120.267 111.742 123.103 115.333C126.99 120.26 130.02 125.762 132.113 131.688C132.55 132.918 133.073 134.207 133.583 135.453C134.517 137.741 135.48 140.107 135.96 142.251C136.17 143.183 136.993 143.818 137.91 143.818C138.057 143.818 138.203 143.801 138.35 143.768C139.427 143.524 140.103 142.452 139.863 141.373C139.31 138.901 138.283 136.375 137.287 133.933L137.241 133.821C136.744 132.603 136.275 131.451 135.883 130.345C133.647 124.005 130.4 118.119 126.24 112.844C123.053 108.809 118.007 103.223 111.037 101.352C110.839 101.299 110.64 101.277 110.445 101.284C110.656 100.176 110.824 99.0532 110.927 97.9148C110.98 97.3302 110.773 96.7489 110.36 96.328C109.947 95.9071 109.37 95.69 108.783 95.7367C104.199 96.0873 100.061 98.1797 96.4095 100.026L96.4034 100.029L96.2434 100.11L96.099 100.182L96.0989 100.182C91.4502 102.527 86.6356 104.955 80.44 107.507C80.299 107.44 80.1492 107.388 79.9933 107.355C78.41 107.021 78.0233 106.614 77.9599 106.524C77.9599 106.33 77.9866 106.139 78.0433 105.956L80.1033 101.563C80.4699 100.781 80.2933 99.849 79.6666 99.2544C79.04 98.6598 78.1033 98.5362 77.3433 98.9471L66.5866 104.76C66.0033 105.077 65.6099 105.665 65.5466 106.33C65.538 106.417 65.53 106.505 65.5226 106.593C65.4666 106.617 65.4112 106.644 65.3566 106.674C56.0866 111.755 49.5433 121.426 44.76 137.113C40.7366 150.359 38.4666 164.256 36.6133 177.301C34.4199 192.691 32.6 208.348 31.2 223.839C31.1428 224.455 31.3717 225.033 31.7786 225.44C31.2344 227.115 31.0048 228.838 30.8531 230.47C27.4577 231.973 25.7227 234.997 26.51 238.153C26.6 238.507 26.78 238.828 27.0367 239.085C30.2767 242.335 29.92 247.189 29.5733 251.883L29.5664 251.974L29.5664 251.975L29.5664 251.975L29.5664 251.975L29.5664 251.975L29.5664 251.975L29.5663 251.975L29.5663 251.976C29.5254 252.519 29.4849 253.055 29.4533 253.58C29.4333 253.907 29.4933 254.235 29.63 254.535C30.46 256.366 31.7833 257.923 33.4533 259.038C34.7087 259.88 36.1186 260.442 37.5937 260.697C37.7381 261.249 37.9689 261.793 38.33 262.309C39.5833 264.093 41.7467 264.53 43.06 264.794L54.3767 266.966C54.5033 266.989 54.63 267.002 54.7533 267.002C55.6933 267.002 56.53 266.334 56.7133 265.379C56.9233 264.293 56.21 263.241 55.1267 263.034L43.8267 260.866C43.12 260.725 41.9333 260.485 41.6 260.011C41.3167 259.61 41.36 258.614 41.3833 258.083C41.5731 253.82 42.0752 249.48 42.5612 245.28L42.5612 245.28L42.5633 245.262L46.5067 211.188L46.6033 210.353L46.6124 210.275C49.3429 186.848 52.166 162.627 57.6333 139.368C57.8867 138.289 57.22 137.21 56.1467 136.956C55.07 136.699 53.9933 137.371 53.74 138.446C48.221 161.922 45.3845 186.253 42.6414 209.784L42.63 209.882L41.1079 223.035C40.3421 222.936 39.6004 222.836 38.8728 222.738L38.2866 222.659C37.3366 222.529 36.37 222.399 35.3566 222.269C36.7266 207.48 38.4766 192.551 40.57 177.865C42.4 164.981 44.64 151.268 48.5833 138.283C52.7451 124.631 58.2006 115.944 65.6581 111.152C65.831 112.332 66.1118 113.5 66.5 114.648C67.41 117.34 68.85 119.759 70.7833 121.837C71.1566 122.238 71.6799 122.468 72.2266 122.475H72.2466C72.7866 122.475 73.3066 122.254 73.6833 121.867C75.0205 120.485 76.2429 119.015 77.3454 117.463L73.5433 177.494L73.5405 177.54C71.7139 206.383 69.8271 236.179 73.0123 265.522C69.3991 265.153 65.8227 264.669 62.2766 264.069C61.1866 263.882 60.1566 264.621 59.9733 265.713C59.7899 266.802 60.5233 267.838 61.6133 268.021C65.8984 268.746 70.2248 269.306 74.6039 269.702C74.8173 269.78 75.0465 269.822 75.2833 269.822C75.3633 269.822 75.4433 269.819 75.5233 269.809C75.5408 269.806 75.5581 269.804 75.5754 269.802C75.595 269.799 75.6145 269.796 75.6338 269.792C80.5681 270.208 85.5702 270.417 90.6566 270.417C102.728 270.417 115.272 269.24 128.479 266.891C130.272 268.274 132.38 269.003 134.703 269.003C134.953 269.003 135.21 268.997 135.467 268.977C139.001 268.744 142.073 266.819 144.132 263.751C144.307 263.745 144.483 263.715 144.66 263.665C145.903 263.278 147.33 263.097 148.837 262.91C152.3 262.479 156.223 261.988 158.987 258.664C159.11 258.517 159.21 258.354 159.287 258.177C159.683 257.251 159.853 256.229 159.777 255.224C159.77 255.137 159.757 255.053 159.74 254.97C158.747 250.194 155.825 242.005 152.998 234.086L152.998 234.085L152.997 234.081C151.027 228.569 149.17 223.361 148.323 220.261C148.269 220.06 148.186 219.875 148.079 219.708C147.804 195.071 147.132 171.515 141.443 146.941C141.193 145.862 140.12 145.191 139.043 145.441C137.967 145.692 137.297 146.768 137.547 147.847C143.64 174.174 143.887 199.509 144.147 226.334C144.153 226.944 144.159 227.556 144.165 228.168V228.168V228.169C144.171 228.769 144.177 229.37 144.183 229.972L118.947 229.558C115.197 200.194 113.903 170.326 115.1 140.751C115.147 139.646 114.287 138.71 113.183 138.667C112.077 138.627 111.147 139.482 111.103 140.588C109.873 170.964 111.253 201.65 115.203 231.792C115.306 232.568 115.841 233.192 116.547 233.431C116.265 235.483 116.192 237.562 116.33 239.633C116.33 240.007 116.393 240.374 116.523 240.725C116.673 241.126 116.897 241.487 117.19 241.794C117.218 241.824 117.247 241.852 117.276 241.88C116.068 242.795 115.067 243.966 114.627 245.375C114.247 246.595 114.13 248.492 115.73 250.597C117.21 252.548 119.253 253.72 121.057 254.753C121.413 254.956 121.767 255.16 122.12 255.371C122.613 255.662 123.153 257.631 123.388 258.493L123.393 258.511C123.557 259.112 123.713 259.68 123.897 260.188C124.32 261.352 124.822 262.411 125.395 263.358C108.292 266.233 92.3418 267.073 77.0783 265.888C73.8065 236.615 75.702 206.698 77.5367 177.748L81.2329 119.389L82.2434 123.784C82.3734 124.339 82.7434 124.81 83.2434 125.084ZM32.6412 234.067C31.975 234.346 30.2665 235.211 30.3267 236.737C34.3685 241.238 33.9236 247.282 33.5637 252.172L33.5633 252.177C33.5536 252.315 33.5434 252.451 33.5333 252.588C33.5156 252.825 33.4981 253.06 33.4833 253.296C34.0067 254.265 34.76 255.09 35.6767 255.704C36.2297 256.074 36.83 256.358 37.4588 256.55C37.6855 252.627 38.1375 248.713 38.5761 244.915L38.59 244.794L39.6905 235.284C37.3043 235.138 34.9425 234.73 32.6412 234.067ZM40.1521 231.295L40.6467 227.02C39.6463 226.891 38.6891 226.761 37.7533 226.635L37.2832 226.572L37.2814 226.571L37.2791 226.571L37.276 226.571L37.2721 226.57C36.754 226.501 36.2289 226.43 35.6934 226.359C35.2259 227.648 35.0099 229.072 34.8667 230.513C36.6002 230.938 38.3699 231.201 40.1521 231.295ZM120.28 238.564C120.22 236.901 120.315 235.237 120.565 233.592L141.496 233.937L141.67 238.383C141.672 238.412 141.673 238.439 141.673 238.464C141.673 238.478 141.673 238.491 141.673 238.504V238.504L120.28 238.564ZM145.667 238.236L145.502 234.003L146.173 234.014H146.207C146.733 234.014 147.243 233.804 147.613 233.433C147.89 233.158 148.078 232.81 148.159 232.434C148.476 233.326 148.801 234.236 149.128 235.155L149.139 235.184L149.139 235.184L149.139 235.185L149.139 235.186L149.227 235.431L149.239 235.465C151.859 242.809 154.821 251.112 155.79 255.641C155.797 255.875 155.767 256.112 155.7 256.336C153.947 258.23 151.337 258.557 148.337 258.932C147.623 259.02 146.899 259.111 146.175 259.227C146.278 258.855 146.37 258.474 146.45 258.086C147.459 253.192 146.619 248.343 145.806 243.655L145.803 243.638C145.713 243.124 145.627 242.613 145.54 242.102C145.473 241.704 145.295 241.354 145.042 241.077C145.723 240.038 145.684 238.757 145.667 238.236ZM123.459 242.555L141.57 242.504C141.573 242.59 141.582 242.678 141.597 242.766C141.669 243.199 141.744 243.631 141.819 244.066L141.82 244.075L141.823 244.089L141.823 244.091L141.823 244.092L141.863 244.323L141.866 244.338C142.615 248.659 143.389 253.124 142.533 257.271C141.417 262.666 138.017 264.788 135.2 264.975C130.913 265.252 128.733 261.781 127.653 258.811C127.527 258.457 127.39 257.966 127.25 257.448L127.247 257.439C126.711 255.48 126.044 253.04 124.163 251.923C123.882 251.756 123.598 251.592 123.312 251.428L123.303 251.423L123.04 251.272L123.038 251.27L123.037 251.27C121.425 250.345 119.899 249.47 118.91 248.168C118.227 247.27 118.383 246.765 118.443 246.575C118.757 245.569 120.33 244.403 122.183 243.802C122.805 243.603 123.26 243.128 123.459 242.555ZM85.64 120.698L83.33 110.642C89.0734 108.217 93.63 105.919 98.0367 103.691L98.2 103.607C100.913 102.234 103.7 100.828 106.59 100.133C106.176 102.462 105.522 104.771 104.841 107.179L104.841 107.179L104.827 107.228L104.8 107.329C104.24 109.306 103.657 111.351 102.42 112.797C101.36 114.033 99.7434 114.885 98.3134 115.587C94.2634 117.571 89.9267 119.178 85.64 120.698ZM69.4599 107.766C69.3966 109.67 69.6766 111.548 70.2899 113.365C70.7799 114.815 71.4633 116.164 72.33 117.401C74.11 115.299 75.6166 113.001 76.8333 110.532C75.1666 109.757 74.2133 108.601 73.9899 107.085L73.9878 107.069L73.9878 107.069L73.9878 107.069C73.9819 107.025 73.9763 106.982 73.9733 106.938C73.9333 106.37 73.9733 105.809 74.09 105.257L69.4599 107.766Z" fill="black"/>
</g>
<path d="M108.163 67.823C105.666 67.6393 104.246 64.6996 104.4 62.2008C104.553 59.702 105.733 57.3703 106.103 54.8916C106.953 49.3295 103.173 43.4266 97.7697 41.8866C96.293 41.4657 94.7097 41.3288 93.3664 40.5838C92.2464 39.9591 91.313 38.9135 90.0564 38.693C87.7397 38.2654 85.833 40.6974 83.4897 40.9579C80.3797 41.292 77.9764 37.7209 74.8464 37.7276C71.613 37.7276 69.3764 41.5091 66.1497 41.6628C63.9864 41.7664 62.053 40.1896 59.8897 40.0827C57.093 39.9491 54.7697 42.2975 53.503 44.7996C52.2364 47.3017 51.6097 50.1279 50.0497 52.4596C48.623 54.5909 45.643 56.2345 43.563 54.7379C42.1264 53.709 41.8497 51.6913 41.953 49.9275C42.163 46.3096 43.413 42.8287 45.5497 39.9057C46.2164 39.0171 46.9564 38.1418 47.1964 37.0662C47.5297 35.4827 46.7164 33.9093 46.3964 32.3192C45.693 28.8115 47.8597 24.9498 51.2164 23.7272C52.803 23.1526 54.5764 23.1091 56.063 22.3107C57.5497 21.5123 58.603 19.9991 59.6364 18.616C65.1064 11.2935 73.8697 5.30043 82.8497 6.92396C88.3597 7.92614 93.183 11.6442 100.036 12.937C104.806 9.38599 112.156 9.9305 116.33 14.1831C121.72 19.6483 121.51 29.336 127.663 33.9327C128.643 34.6676 129.783 35.2689 130.453 36.2911C131.876 38.4625 130.593 41.4123 131.203 43.9411C131.736 46.1359 133.596 47.6993 134.98 49.4832C136.363 51.267 137.25 53.9696 135.773 55.6766C135.13 56.4182 134.173 56.7957 133.416 57.4171C131.556 58.9404 131.186 61.6529 131.416 64.0481C131.646 66.4434 132.473 69.4866 132 71.2237C130.096 78.2824 125.693 76.4818 123.603 77.5709" fill="black"/>
<path d="M53.3327 52.85C51.3327 55.8565 50.9994 59.5312 49.9994 63.2059C49.9994 64.2615 45.946 78.5191 55.3327 87.9263C58.666 91.2669 62.9994 92.6031 67.4994 93.6053C71.536 94.23 75.946 94.858 79.8327 93.2712C79.6094 96.7488 79.576 99.2308 79.736 102.712L103.166 100.286C102.783 95.7165 103.693 91.6043 105.676 87.4686C106.123 86.5332 107.093 86.5433 108.049 86.2393C108.896 85.972 109.736 85.6647 110.556 85.3173C112.226 84.6224 113.803 83.7238 115.256 82.6448C118.129 80.4701 120.366 77.4168 121.209 73.8757C121.973 70.6654 121.436 66.8438 117.859 65.0365C115.353 63.7671 113.103 64.2181 109.279 67.5854L108.153 67.8259C105.656 67.6422 104.236 64.7024 104.389 62.2037C104.543 59.7049 105.723 57.3732 106.093 54.8945C106.943 49.3324 103.163 43.4295 97.7594 41.8895C96.2827 41.4686 94.6994 41.3316 93.356 40.5867C92.236 39.962 91.3027 38.9164 90.046 38.6959C87.7294 38.2683 85.8227 40.7003 83.4794 40.9608C80.3694 41.2949 77.966 37.7238 74.836 37.7305C71.6027 37.7305 69.366 41.512 66.1394 41.6657C63.976 41.7693 62.0427 40.1925 59.8794 40.0856C57.0827 39.952 54.7594 42.3004 53.4927 44.8025C52.226 47.3046 51.5994 50.1308 50.0394 52.4625" fill="#FFD39F"/>
<path fill-rule="evenodd" clip-rule="evenodd" d="M121.827 78.4945C122.184 79.1793 122.881 79.5735 123.604 79.5735C123.917 79.5735 124.231 79.5 124.527 79.333C124.745 79.219 125.308 79.1463 125.814 79.0809L125.854 79.0758L125.859 79.0751C128.223 78.771 132.175 78.2627 133.934 71.7365C134.372 70.1292 134.047 68.0843 133.731 66.1037L133.731 66.1036L133.727 66.0808C133.601 65.2824 133.481 64.5241 133.414 63.8427C133.311 62.7737 133.231 60.1513 134.691 58.9554C134.878 58.7986 135.128 58.6418 135.395 58.474L135.447 58.4409L135.456 58.4358C136.044 58.0663 136.707 57.6494 137.291 56.9777C139.494 54.4322 138.514 50.7542 136.564 48.2421C136.164 47.7276 135.744 47.2432 135.334 46.7756L135.327 46.7678C134.35 45.6482 133.43 44.5949 133.154 43.4583C132.974 42.71 133.031 41.7814 133.094 40.7959C133.207 39.0254 133.334 37.0143 132.131 35.1803C131.411 34.0816 130.421 33.4001 129.548 32.7989L129.547 32.7985L129.419 32.7094L129.419 32.7093C129.232 32.5794 129.046 32.4501 128.864 32.3141C126.042 30.2072 124.709 26.6553 123.296 22.8924L123.294 22.8869C121.951 19.3058 120.561 15.6044 117.761 12.7649C113.121 8.038 105.171 7.23292 99.6107 10.7907C96.5901 10.1172 93.9413 8.94465 91.3728 7.80764L91.3574 7.80082C88.6374 6.59486 86.0707 5.45906 83.2107 4.93793C72.9074 3.07722 63.4541 10.1559 58.0407 17.4017L57.8074 17.7157L57.8047 17.7193C56.9689 18.844 56.1063 20.0046 55.1241 20.5318C54.4976 20.8691 53.6845 21.0428 52.8247 21.2265L52.8247 21.2265L52.8241 21.2267C52.0874 21.3837 51.3241 21.5474 50.5374 21.8313C46.2841 23.3814 43.5507 28.2586 44.4407 32.705C44.5541 33.2762 44.7107 33.804 44.8641 34.3185L44.8667 34.3274C45.1389 35.2456 45.3737 36.0374 45.2507 36.6201C45.1346 37.1455 44.6816 37.7405 44.2007 38.372L44.1941 38.3806L43.9407 38.7147C41.5707 41.9551 40.1941 45.7901 39.9607 49.8021C39.7374 53.6171 41.1674 55.4745 42.4007 56.3597C43.5541 57.1882 44.9474 57.4855 46.4307 57.2182C47.685 56.9916 48.9499 56.3563 50.031 55.4464C48.535 59.7338 47.4977 63.8037 47.1774 66.7089C46.1374 76.253 48.7474 84.718 54.3407 89.9394C57.3841 92.7755 61.3341 94.5895 66.4174 95.4881C69.5641 96.0393 73.6441 96.7508 77.6507 95.9758C77.5841 97.5893 77.6074 98.7719 77.7141 101.124C77.7641 102.199 78.6474 103.038 79.7107 103.038H79.7108C79.7441 103.038 79.7741 103.038 79.8074 103.024C80.9107 102.974 81.7641 102.036 81.7141 100.93C81.5541 97.4824 81.5907 96.7408 81.8041 93.3802C81.8474 92.692 81.5341 92.0272 80.9741 91.6264C80.4141 91.2255 79.6874 91.1386 79.0507 91.3992C75.5341 92.839 71.5607 92.3145 67.1074 91.5362C62.7507 90.7678 59.5607 89.328 57.0674 87.003C52.4041 82.6535 50.2507 75.4145 51.1541 67.1465C51.4274 64.6711 52.5274 59.9375 54.8007 54.0781C55.2007 53.0458 54.6907 51.8833 53.6607 51.4824C53.4261 51.3911 53.1847 51.3471 52.9471 51.3458C53.3611 50.4514 53.7077 49.5455 54.0474 48.6563C54.4474 47.6074 54.8241 46.6219 55.2907 45.6999C56.1641 43.9728 57.8707 41.9851 59.7941 42.0787C60.4841 42.1121 61.2741 42.4161 62.1074 42.7401L62.1272 42.7477C63.3257 43.2103 64.686 43.7352 66.2474 43.6588C68.4065 43.5589 70.0823 42.3776 71.5619 41.3347L71.5774 41.3237C72.7907 40.4652 73.8374 39.7269 74.8541 39.7269H74.8574C75.7941 39.7269 76.8541 40.3783 77.9741 41.0698C79.5874 42.0653 81.4141 43.1911 83.7141 42.9439C85.1507 42.7869 86.3341 42.1188 87.3807 41.5275C88.3107 41.003 89.1141 40.552 89.7174 40.6623C90.0841 40.7257 90.5707 41.0798 91.0841 41.454L91.0905 41.4587C91.4756 41.7381 91.9101 42.0535 92.4041 42.3292C93.5774 42.9773 94.8207 43.2512 95.9207 43.4917C96.3807 43.592 96.8174 43.6888 97.2274 43.8058C101.671 45.0718 104.831 50.0059 104.131 54.5859C103.987 55.5379 103.697 56.5067 103.387 57.5323L103.382 57.5497C102.954 58.974 102.51 60.4485 102.411 62.0688C102.194 65.5798 104.281 69.5384 108.024 69.8123C108.428 69.8429 108.813 69.7503 109.142 69.5661C109.648 69.5948 110.164 69.4323 110.574 69.0707C114.237 65.8437 115.574 66.1142 116.937 66.8057C120.061 68.3858 119.581 71.9336 119.227 73.3934C118.541 76.2897 116.687 79.0023 114.027 81.0166C112.707 81.9988 111.271 82.8172 109.741 83.4519C108.984 83.7726 108.201 84.0599 107.407 84.3105C107.286 84.35 107.151 84.3833 107.008 84.4185C106.986 84.4238 106.965 84.4291 106.943 84.4345C106.926 84.4388 106.908 84.4431 106.891 84.4474C106.031 84.6545 104.594 85.002 103.834 86.5821C101.761 90.9081 100.784 93.2132 101.207 98.2441C101.294 99.2897 102.171 100.081 103.197 100.081C103.254 100.081 103.311 100.078 103.371 100.065C104.471 99.9745 105.287 99.0024 105.194 97.9C104.861 93.9715 105.454 92.4649 107.371 88.4561C107.465 88.4254 107.599 88.3926 107.723 88.3624L107.765 88.3523C107.787 88.3467 107.809 88.3412 107.831 88.3359C108.064 88.2791 108.331 88.2123 108.607 88.1254C109.517 87.8415 110.421 87.5074 111.284 87.1433C113.104 86.3883 114.831 85.4062 116.424 84.2203C118.663 82.5268 120.455 80.4311 121.678 78.1187C121.714 78.2463 121.764 78.3722 121.827 78.4945ZM106.404 62.316C106.313 63.8217 107.082 65.628 108.223 65.8061C113.306 61.444 116.284 61.9819 118.737 63.2246C122.617 65.1889 124.294 69.4415 123.114 74.3254C122.997 74.8178 122.856 75.3055 122.69 75.787C123.541 75.3468 124.457 75.227 125.344 75.1138L125.346 75.1135C127.392 74.8498 129.008 74.6414 130.071 70.6975C130.284 69.9137 130.002 68.151 129.775 66.7357L129.775 66.7356L129.775 66.7355L129.774 66.7289C129.641 65.9005 129.504 65.0453 129.427 64.2402C129.074 60.5689 130.041 57.5924 132.154 55.8653C132.551 55.5379 132.961 55.2807 133.324 55.0569L133.366 55.0302C133.737 54.7964 134.084 54.5777 134.267 54.362C134.914 53.6137 134.337 51.9167 133.404 50.7141C133.08 50.2969 132.717 49.8798 132.334 49.4399L132.334 49.4398L132.334 49.4397L132.324 49.428C131.127 48.0617 129.774 46.5116 129.264 44.4137C128.941 43.0708 129.024 41.7346 129.101 40.552C129.184 39.2392 129.254 38.1067 128.787 37.3918C128.497 36.9509 127.907 36.5433 127.281 36.1124C127.007 35.9253 126.734 35.7349 126.471 35.5378C122.711 32.7283 121.104 28.449 119.551 24.31C118.301 20.9761 117.117 17.8293 114.914 15.5911C111.461 12.0734 105.197 11.5957 101.237 14.5455C100.791 14.8795 100.224 15.0098 99.6741 14.9063C95.8574 14.1847 92.6074 12.7482 89.7441 11.4788C87.2474 10.3731 84.8907 9.33081 82.5007 8.89319C76.9274 7.88433 68.4107 10.2228 61.2441 19.8136L61.0174 20.1176C59.9707 21.5273 58.7841 23.1208 57.0141 24.0729C55.8907 24.6775 54.7074 24.9314 53.6607 25.1519L53.5957 25.1659C52.9863 25.2976 52.4093 25.4223 51.9007 25.6062C49.4741 26.4881 47.8541 29.3811 48.3607 31.9199C48.4407 32.3108 48.5641 32.735 48.6974 33.1827L48.6996 33.1902C49.0724 34.451 49.4934 35.875 49.1574 37.4753C48.8441 38.8817 48.0641 39.9073 47.3741 40.8126L47.1541 41.1032C45.2541 43.7022 44.1441 46.7956 43.9541 50.036C43.8641 51.566 44.1474 52.6817 44.7307 53.0993C44.9007 53.2229 45.1841 53.3699 45.7207 53.273C46.6441 53.106 47.7441 52.3109 48.3941 51.3355C49.1941 50.1411 49.733 48.7313 50.3037 47.2381L50.3107 47.2198L50.3176 47.2019C50.7355 46.1118 51.1671 44.9856 51.7241 43.8859C53.2074 40.9562 56.1607 37.8896 59.9907 38.0733C61.3228 38.1399 62.5026 38.5946 63.54 38.9945L63.5401 38.9945L63.5507 38.9986L63.5759 39.0084C64.5218 39.375 65.3338 39.6898 66.0607 39.6534C67.0636 39.6067 68.1364 38.849 69.2758 38.0444L69.2774 38.0432L69.2775 38.0431C70.8241 36.9508 72.5741 35.7148 74.8541 35.7148H74.8674C76.9307 35.7148 78.6007 36.7437 80.0741 37.6524L80.0873 37.6605C81.3017 38.4087 82.3508 39.0551 83.2841 38.9552C83.9007 38.8851 84.6374 38.4708 85.4207 38.0299C86.7541 37.2782 88.4141 36.3429 90.4274 36.7137C91.6872 36.9335 92.6553 37.6384 93.4342 38.2055L93.4407 38.2103L93.5201 38.2677L93.5201 38.2677L93.5203 38.2679C93.814 38.4806 94.0905 38.6809 94.3474 38.8249C94.9992 39.1864 95.8513 39.3733 96.7571 39.5721L96.7774 39.5766L96.8217 39.5863C97.308 39.6935 97.8129 39.8048 98.3241 39.9507C104.714 41.7713 109.094 48.6062 108.087 55.1872C107.906 56.4052 107.562 57.5482 107.229 58.6549L107.217 58.6948C106.834 59.9609 106.474 61.1568 106.404 62.316ZM62.8107 62.5699C64.0994 62.5699 65.1441 61.2986 65.1441 59.7304C65.1441 58.1622 64.0994 56.8909 62.8107 56.8909C61.5221 56.8909 60.4774 58.1622 60.4774 59.7304C60.4774 61.2986 61.5221 62.5699 62.8107 62.5699ZM74.1441 63.3549C75.4327 63.3549 76.4774 62.0836 76.4774 60.5154C76.4774 58.9472 75.4327 57.6759 74.1441 57.6759C72.8554 57.6759 71.8107 58.9472 71.8107 60.5154C71.8107 62.0836 72.8554 63.3549 74.1441 63.3549Z" fill="black"/>
</g>
<defs>
<clipPath id="clip0_805_38174">
<rect width="180" height="180" rx="24" fill="white"/>
</clipPath>
<clipPath id="clip1_805_38174">
<rect width="200" height="200.436" fill="white" transform="translate(-10 95.2734)"/>
</clipPath>
</defs>
</svg>
