<svg width="180" height="180" viewBox="0 0 180 180" fill="none" xmlns="http://www.w3.org/2000/svg">
<g clip-path="url(#clip0_805_38135)">
<rect width="180" height="180" rx="24" fill="white"/>
<g clip-path="url(#clip1_805_38135)">
<path fill-rule="evenodd" clip-rule="evenodd" d="M103.123 95.2734C103.423 98.6474 104.8 106.271 109.923 105.128L110.473 105.963C110.223 111.198 107.577 114.889 103.43 118.714C99.2167 122.539 93.8433 124.838 88.1733 125.242C83.1733 125.609 77.8567 124.41 74.1167 121.049C70.3767 117.689 68.41 113.032 70.8867 109.04H71.2467C72.3733 109.073 73.41 108.482 74.3633 107.881C75.4405 107.199 77.5343 104.639 78.5155 103.44C78.6395 103.289 78.7458 103.159 78.83 103.057C79.4697 102.226 79.8666 99.9098 80.2039 97.9413C80.3939 96.8327 80.565 95.8343 80.75 95.2734H103.123ZM132.363 136.42C131.637 137.595 130.85 138.731 130.01 139.827C127.133 143.548 123.383 146.745 118.9 148.178L118.253 149.207C117.893 179.633 119.39 210.083 122.357 241.408C121.203 241.505 120.11 241.959 119.223 242.707C118.337 243.456 117.703 244.458 117.41 245.58C117.117 246.703 117.173 247.889 117.58 248.974C117.983 250.06 118.713 250.995 119.67 251.65C120.216 252.021 120.82 252.291 121.424 252.561C121.963 252.802 122.503 253.044 123.003 253.357C125.359 254.829 126.436 257.555 127.505 260.262C128.642 263.14 129.77 265.996 132.417 267.301C136.207 269.168 140.957 266.319 142.673 262.447C144.39 258.575 143.92 254.135 143.41 249.933C141.233 232.054 136.043 179.684 135.137 168.723L132.587 137.899L132.363 136.42ZM47.9697 139.644C48.0908 138.87 48.2121 138.096 48.3333 137.322L48.53 136.667C50.67 138.621 52.3166 141.053 53.3333 143.769L49.5633 216.113L47.8966 236.584L47.8886 236.682C47.6046 240.14 47.3199 243.608 46.61 247C45.98 249.779 45.2066 252.525 44.2966 255.225C43.65 257.269 42.8433 259.507 40.9633 260.536C38.2666 262.006 34.7466 260.012 33.43 257.232C32.1522 254.535 32.3436 251.41 32.5267 248.422C32.5322 248.331 32.5378 248.24 32.5433 248.149C32.6433 246.506 32.69 244.752 31.8466 243.342C31.6597 243.035 31.4342 242.75 31.2085 242.465C31.0357 242.246 30.8627 242.027 30.7066 241.799C30.1 240.897 29.7633 239.841 29.74 238.752C29.7133 237.666 30.0033 236.594 30.5666 235.665C31.13 234.737 31.95 233.988 32.9266 233.514C33.9033 233.04 34.9966 232.853 36.0733 232.983C38.4113 200.675 43.1411 170.475 47.9697 139.644Z" fill="#FFD39F"/>
<path fill-rule="evenodd" clip-rule="evenodd" d="M44.5729 133.916C48.6096 136 51.7329 139.511 53.3329 143.77L53.8729 145.721C51.5696 166.293 48.0296 186.707 43.2729 206.854C41.0162 209.497 42.2629 214.257 45.5229 215.45C47.6068 216.214 49.8228 215.632 52.0243 215.054C52.728 214.869 53.4303 214.684 54.1262 214.544C58.4765 213.678 62.8834 214.583 67.2952 215.489C71.5746 216.367 75.8585 217.247 80.0996 216.512C81.3758 216.291 82.6214 215.925 83.8667 215.559C85.2529 215.152 86.6388 214.745 88.0662 214.538C92.4637 213.901 96.8099 215.178 101.12 216.445C102.191 216.759 103.26 217.073 104.326 217.357C109.686 218.784 115.973 219.275 120.233 215.717L120.25 215.53C118.72 193.201 118.01 171.207 118.27 149.222L118.916 148.193C123.4 146.76 127.15 143.567 130.026 139.842C132.903 136.117 134.996 131.861 137.07 127.635C132.763 125.925 129.533 122.294 126.83 118.512C126.17 117.59 125.53 116.65 124.889 115.711C122.906 112.801 120.923 109.893 118.373 107.488C115 104.308 110.313 102.076 105.776 103.012C105.086 106.653 102.173 108.992 99.1729 110.575C93.5329 113.525 87.1096 114.627 80.8096 113.728C79.3129 113.508 77.8029 113.164 76.5129 112.369C75.2229 111.574 74.1829 110.258 74.0429 108.748C73.8296 106.586 75.4196 104.716 76.3762 103.663C66.3829 107.301 57.9429 114.28 52.4796 123.423C52.0679 124.117 51.6685 124.829 51.2677 125.543C49.4682 128.75 47.6426 132.003 44.5729 133.916ZM144.5 208.311C144.5 208.311 141.326 200.183 137.36 191.975L139.413 211.401C140.413 213.218 143.553 213.145 144.463 211.277C144.81 210.322 144.823 209.276 144.5 208.311Z" fill="black"/>
<path fill-rule="evenodd" clip-rule="evenodd" d="M118.31 146.281C117.65 146.493 117.174 147.016 116.996 147.638C116.553 148 116.267 148.549 116.26 149.167C116.01 170.323 116.64 191.958 118.182 214.725C115.155 216.74 110.664 216.972 104.81 215.414C103.855 215.16 102.87 214.872 101.911 214.591L101.653 214.516C97.193 213.203 92.5797 211.847 87.7497 212.548C86.1797 212.775 84.703 213.21 83.273 213.631C82.0497 213.991 80.893 214.332 79.7297 214.533C75.8678 215.2 71.8927 214.383 67.6877 213.518L67.683 213.517C63.1464 212.582 58.4564 211.616 53.7064 212.572C52.9553 212.72 52.214 212.914 51.4954 213.103L51.495 213.103L51.4948 213.103L51.4942 213.103L51.4697 213.109L51.4571 213.113C49.5051 213.623 47.6632 214.104 46.1797 213.56C45.2664 213.223 44.5397 212.331 44.2364 211.172C43.9364 210.016 44.133 208.887 44.763 208.149C44.9697 207.905 45.1164 207.618 45.1897 207.307C50.573 184.537 54.4297 161.18 56.6564 137.886C56.763 136.787 55.9564 135.808 54.8564 135.701C53.7597 135.598 52.783 136.403 52.6764 137.505C52.6532 137.748 52.6299 137.99 52.6064 138.233C51.3398 136.492 49.8028 134.961 48.0464 133.697C50.1412 131.641 51.5939 129.051 53.0094 126.528L53.0131 126.521C53.4164 125.796 53.7997 125.115 54.1964 124.447C58.2797 117.612 64.3831 112.12 72.0231 108.355C72.0231 108.539 72.0331 108.729 72.0531 108.926C72.2397 110.947 73.5164 112.868 75.4664 114.071C77.1497 115.11 79.053 115.491 80.5297 115.708C87.283 116.673 94.0497 115.511 100.106 112.344C103.896 110.346 106.33 107.817 107.363 104.817C110.49 104.63 114.01 106.12 117.006 108.946C119.396 111.201 121.263 113.937 123.24 116.837L123.391 117.059C123.98 117.922 124.586 118.809 125.206 119.676C127.38 122.72 130.323 126.344 134.38 128.572C132.65 132.057 130.803 135.561 128.446 138.611C126.373 141.293 122.933 144.804 118.31 146.281ZM111.683 220.439C114.246 220.439 116.518 219.997 118.489 219.116C118.981 225.912 119.553 232.812 120.206 239.831C119.383 240.132 118.613 240.576 117.93 241.15C116.716 242.173 115.863 243.522 115.46 245.056C115.056 246.589 115.136 248.186 115.693 249.672C116.25 251.159 117.236 252.415 118.546 253.307C119.221 253.768 119.935 254.088 120.565 254.37L120.565 254.371L120.606 254.389L120.635 254.402L120.635 254.402C121.115 254.618 121.567 254.822 121.943 255.057C123.736 256.178 124.66 258.513 125.638 260.986L125.643 261L125.645 261.007C126.842 264.032 128.195 267.455 131.533 269.101C132.596 269.626 133.766 269.89 134.973 269.89C135.98 269.89 137.013 269.703 138.046 269.328C140.82 268.32 143.296 265.994 144.51 263.255C146.503 258.756 145.893 253.73 145.403 249.688L145.403 249.686C144.498 242.249 143.058 228.731 141.624 214.717C141.711 214.721 141.799 214.723 141.886 214.723H142.023C143.886 214.676 145.51 213.691 146.26 212.154C146.29 212.091 146.32 212.027 146.343 211.96C146.843 210.584 146.86 209.061 146.396 207.671C146.393 207.659 146.389 207.647 146.385 207.636C146.382 207.625 146.378 207.613 146.373 207.602C146.37 207.594 146.367 207.586 146.363 207.577L146.355 207.558C146.178 207.107 143.085 199.257 139.282 191.353C138.267 181.009 137.456 172.421 137.136 168.553L134.586 137.729C134.564 137.468 134.493 137.223 134.383 137.002C136.05 134.257 137.458 131.39 138.835 128.586L138.835 128.586L138.866 128.522C139.113 128.018 139.136 127.437 138.936 126.915C138.733 126.394 138.326 125.98 137.806 125.773C133.69 124.136 130.646 120.408 128.456 117.345C127.81 116.439 127.163 115.494 126.54 114.579C124.53 111.629 122.45 108.579 119.743 106.027C115.413 101.944 110.043 100.084 105.373 101.046C104.576 101.21 103.96 101.838 103.81 102.636C103.353 105.045 101.53 107.062 98.2464 108.796C92.943 111.565 87.0097 112.588 81.0997 111.742C79.943 111.572 78.6164 111.308 77.5597 110.657C76.6897 110.119 76.1031 109.314 76.0331 108.546C75.9564 107.744 76.3997 107.196 77.3597 106.22C77.5497 106.027 77.7331 105.84 77.8997 105.656C78.5197 104.974 78.593 103.956 78.083 103.191C77.573 102.426 76.6064 102.108 75.7397 102.422C64.833 106.394 56.1964 113.296 50.7631 122.392C50.3397 123.107 49.9264 123.842 49.5264 124.554C47.7931 127.647 46.1531 130.567 43.5197 132.207C42.9064 132.588 42.5464 133.269 42.5764 133.991C42.6064 134.712 43.0197 135.36 43.6597 135.691C44.5983 136.176 45.4804 136.746 46.297 137.391L45.993 139.336C41.1597 170.176 36.593 199.34 34.2097 231.032C33.463 231.152 32.7364 231.379 32.0497 231.713C30.7264 232.358 29.623 233.363 28.8564 234.623C28.0897 235.882 27.703 237.329 27.7364 238.802C27.7697 240.279 28.223 241.702 29.053 242.934C29.2497 243.218 29.4564 243.482 29.6397 243.713L29.6493 243.725C29.8391 243.964 30.0182 244.19 30.1297 244.374C30.6664 245.269 30.633 246.612 30.5464 248.029L30.5297 248.299L30.5292 248.308C30.3393 251.416 30.1244 254.933 31.623 258.094C32.623 260.208 34.6064 261.966 36.7964 262.681C37.523 262.918 38.2564 263.035 38.973 263.035C40.013 263.035 41.0197 262.787 41.923 262.293C44.6197 260.816 45.6097 257.713 46.1997 255.846C47.1264 253.1 47.9197 250.274 48.563 247.444C48.5647 247.439 48.5655 247.433 48.5664 247.427C48.5672 247.422 48.568 247.416 48.5697 247.411C49.303 243.896 49.5997 240.312 49.883 236.844L51.4771 217.25C51.8181 217.165 52.1536 217.077 52.483 216.991C53.183 216.807 53.843 216.637 54.493 216.507C58.4497 215.712 62.543 216.554 66.8797 217.446C71.2664 218.351 75.803 219.283 80.413 218.484C81.7755 218.248 83.0768 217.867 84.3328 217.499L84.3997 217.479L84.4503 217.464C85.7882 217.072 87.0524 216.702 88.323 216.517C92.2864 215.942 96.2897 217.118 100.526 218.364L100.697 218.414C101.707 218.709 102.751 219.014 103.783 219.29C106.66 220.055 109.296 220.439 111.683 220.439ZM47.4184 217.809C46.5575 217.787 45.6855 217.647 44.813 217.329C42.663 216.54 41.003 214.619 40.3697 212.191C40.2152 211.598 40.1287 211.001 40.1079 210.414C39.3152 217.876 38.6266 225.428 38.0697 233.13C38.0297 233.677 37.7697 234.182 37.3464 234.529C36.9264 234.877 36.3797 235.04 35.8364 234.974C35.1364 234.89 34.433 235.01 33.7997 235.318C33.1664 235.625 32.6364 236.106 32.273 236.711C31.9064 237.312 31.723 238.004 31.7364 238.708C31.753 239.413 31.9697 240.095 32.363 240.679C32.473 240.84 32.6197 241.027 32.773 241.221L32.8136 241.272C33.0501 241.573 33.3133 241.908 33.5497 242.296C34.6797 244.187 34.6564 246.285 34.5364 248.269L34.5197 248.543C34.3497 251.296 34.1764 254.142 35.233 256.37C35.773 257.506 36.8697 258.488 38.033 258.866C38.5464 259.033 39.3064 259.153 40.0064 258.772C41.1964 258.121 41.8364 256.36 42.3897 254.616C42.393 254.603 42.3964 254.593 42.403 254.58C43.2864 251.961 44.043 249.268 44.6564 246.569C45.3397 243.302 45.623 239.851 45.8964 236.514L47.4184 217.809ZM40.3428 208.233C42.808 185.648 46.2054 163.838 49.76 141.146C50.4466 142.177 51.0193 143.291 51.4631 144.47C51.5611 144.731 51.7074 144.959 51.8878 145.148C49.6233 165.575 46.1031 185.992 41.3997 205.961C40.9117 206.64 40.5567 207.41 40.3428 208.233ZM141.923 210.714C141.605 210.723 141.313 210.623 141.192 210.473C140.968 208.27 140.746 206.069 140.527 203.891C141.709 206.689 142.483 208.649 142.616 208.987C142.766 209.462 142.77 209.976 142.626 210.454C142.506 210.601 142.226 210.708 141.923 210.714ZM120.252 149.855C124.13 148.445 127.787 145.728 130.92 141.933L133.15 168.887C134.09 180.271 139.273 232.452 141.43 250.173C141.976 254.69 142.283 258.401 140.85 261.632C140.073 263.382 138.436 264.925 136.676 265.564C135.823 265.874 134.546 266.111 133.303 265.5C131.354 264.54 130.394 262.112 129.376 259.539L129.37 259.524L129.368 259.52C128.248 256.684 126.982 253.476 124.07 251.657C123.45 251.269 122.81 250.982 122.243 250.728C121.703 250.487 121.193 250.26 120.796 249.99C120.176 249.565 119.706 248.971 119.443 248.266C119.18 247.561 119.143 246.803 119.333 246.075C119.523 245.346 119.926 244.708 120.503 244.224C121.08 243.739 121.776 243.449 122.526 243.389C123.06 243.345 123.553 243.088 123.896 242.677C124.24 242.266 124.403 241.735 124.353 241.201C121.276 208.706 119.936 178.818 120.252 149.855Z" fill="black"/>
</g>
<path d="M108.163 67.823C105.666 67.6393 104.246 64.6996 104.4 62.2008C104.553 59.702 105.733 57.3703 106.103 54.8916C106.953 49.3295 103.173 43.4266 97.7697 41.8866C96.293 41.4657 94.7097 41.3288 93.3664 40.5838C92.2464 39.9591 91.313 38.9135 90.0564 38.693C87.7397 38.2654 85.833 40.6974 83.4897 40.9579C80.3797 41.292 77.9764 37.7209 74.8464 37.7276C71.613 37.7276 69.3764 41.5091 66.1497 41.6628C63.9864 41.7664 62.053 40.1896 59.8897 40.0827C57.093 39.9491 54.7697 42.2975 53.503 44.7996C52.2364 47.3017 51.6097 50.1279 50.0497 52.4596C48.623 54.5909 45.643 56.2345 43.563 54.7379C42.1264 53.709 41.8497 51.6913 41.953 49.9275C42.163 46.3096 43.413 42.8287 45.5497 39.9057C46.2164 39.0171 46.9564 38.1418 47.1964 37.0662C47.5297 35.4827 46.7164 33.9093 46.3964 32.3192C45.693 28.8115 47.8597 24.9498 51.2164 23.7272C52.803 23.1526 54.5764 23.1092 56.063 22.3107C57.5497 21.5123 58.603 19.9991 59.6364 18.6161C65.1064 11.2935 73.8697 5.30043 82.8497 6.92396C88.3597 7.92614 93.183 11.6442 100.036 12.937C104.806 9.38599 112.156 9.9305 116.33 14.1831C121.72 19.6483 121.51 29.336 127.663 33.9327C128.643 34.6676 129.783 35.2689 130.453 36.2911C131.876 38.4625 130.593 41.4123 131.203 43.9411C131.736 46.1359 133.596 47.6993 134.98 49.4832C136.363 51.267 137.25 53.9696 135.773 55.6766C135.13 56.4182 134.173 56.7957 133.416 57.4171C131.556 58.9404 131.186 61.6529 131.416 64.0481C131.646 66.4434 132.473 69.4866 132 71.2237C130.096 78.2824 125.693 76.4818 123.603 77.5709" fill="black"/>
<path d="M53.3327 52.85C51.3327 55.8565 50.9994 59.5312 49.9994 63.2059C49.9994 64.2615 45.946 78.5191 55.3327 87.9263C58.666 91.2669 62.9994 92.6031 67.4994 93.6053C71.536 94.23 75.946 94.858 79.8327 93.2712C79.6094 96.7488 79.576 99.2308 79.736 102.712L103.166 100.286C102.783 95.7165 103.693 91.6043 105.676 87.4686C106.123 86.5332 107.093 86.5433 108.049 86.2393C108.896 85.972 109.736 85.6647 110.556 85.3173C112.226 84.6224 113.803 83.7238 115.256 82.6448C118.129 80.4701 120.366 77.4168 121.209 73.8757C121.973 70.6654 121.436 66.8438 117.859 65.0365C115.353 63.7671 113.103 64.2181 109.279 67.5854L108.153 67.8259C105.656 67.6422 104.236 64.7024 104.389 62.2037C104.543 59.7049 105.723 57.3732 106.093 54.8945C106.943 49.3324 103.163 43.4295 97.7594 41.8895C96.2827 41.4686 94.6994 41.3316 93.356 40.5867C92.236 39.962 91.3027 38.9164 90.046 38.6959C87.7294 38.2683 85.8227 40.7003 83.4794 40.9608C80.3694 41.2949 77.966 37.7238 74.836 37.7305C71.6027 37.7305 69.366 41.512 66.1394 41.6657C63.976 41.7693 62.0427 40.1925 59.8794 40.0856C57.0827 39.952 54.7594 42.3004 53.4927 44.8025C52.226 47.3046 51.5994 50.1308 50.0394 52.4625" fill="#FFD39F"/>
<path fill-rule="evenodd" clip-rule="evenodd" d="M121.827 78.4945C122.184 79.1793 122.881 79.5735 123.604 79.5735C123.917 79.5735 124.231 79.5 124.527 79.333C124.745 79.219 125.308 79.1463 125.814 79.0809L125.854 79.0758L125.859 79.0751C128.223 78.771 132.175 78.2627 133.934 71.7365C134.372 70.1292 134.047 68.0843 133.731 66.1037L133.731 66.1036L133.727 66.0808C133.601 65.2824 133.481 64.5241 133.414 63.8427C133.311 62.7737 133.231 60.1513 134.691 58.9554C134.878 58.7986 135.128 58.6418 135.395 58.474L135.447 58.4409L135.456 58.4358C136.044 58.0663 136.707 57.6494 137.291 56.9777C139.494 54.4322 138.514 50.7542 136.564 48.2421C136.164 47.7276 135.744 47.2432 135.334 46.7756L135.327 46.7678C134.35 45.6482 133.43 44.5949 133.154 43.4583C132.974 42.71 133.031 41.7814 133.094 40.7959C133.207 39.0254 133.334 37.0143 132.131 35.1803C131.411 34.0816 130.421 33.4001 129.548 32.7989L129.547 32.7985L129.419 32.7094L129.419 32.7093C129.232 32.5794 129.046 32.4501 128.864 32.3141C126.042 30.2072 124.709 26.6553 123.296 22.8924L123.294 22.8869C121.951 19.3058 120.561 15.6044 117.761 12.7649C113.121 8.038 105.171 7.23292 99.6107 10.7907C96.5901 10.1172 93.9413 8.94465 91.3728 7.80764L91.3574 7.80082C88.6374 6.59486 86.0707 5.45906 83.2107 4.93793C72.9074 3.07722 63.4541 10.1559 58.0407 17.4017L57.8074 17.7157L57.8047 17.7193C56.9689 18.844 56.1063 20.0046 55.1241 20.5318C54.4976 20.8691 53.6845 21.0428 52.8247 21.2265L52.8247 21.2265L52.8241 21.2267C52.0874 21.3837 51.3241 21.5474 50.5374 21.8313C46.2841 23.3814 43.5507 28.2586 44.4407 32.705C44.5541 33.2762 44.7107 33.804 44.8641 34.3185L44.8667 34.3274C45.1389 35.2456 45.3737 36.0374 45.2507 36.6201C45.1346 37.1455 44.6816 37.7405 44.2007 38.372L44.1941 38.3806L43.9407 38.7147C41.5707 41.9551 40.1941 45.7901 39.9607 49.8021C39.7374 53.6171 41.1674 55.4745 42.4007 56.3597C43.5541 57.1882 44.9474 57.4855 46.4307 57.2182C47.685 56.9916 48.9499 56.3563 50.031 55.4464C48.535 59.7338 47.4977 63.8037 47.1774 66.7089C46.1374 76.253 48.7474 84.718 54.3407 89.9394C57.3841 92.7755 61.3341 94.5895 66.4174 95.4881C69.5641 96.0393 73.6441 96.7508 77.6507 95.9758C77.5841 97.5893 77.6074 98.7719 77.7141 101.124C77.7641 102.199 78.6474 103.038 79.7107 103.038H79.7108C79.7441 103.038 79.7741 103.038 79.8074 103.024C80.9107 102.974 81.7641 102.036 81.7141 100.93C81.5541 97.4824 81.5907 96.7408 81.8041 93.3802C81.8474 92.692 81.5341 92.0272 80.9741 91.6264C80.4141 91.2255 79.6874 91.1386 79.0507 91.3992C75.5341 92.839 71.5607 92.3145 67.1074 91.5362C62.7507 90.7678 59.5607 89.328 57.0674 87.003C52.4041 82.6535 50.2507 75.4145 51.1541 67.1465C51.4274 64.6711 52.5274 59.9375 54.8007 54.0781C55.2007 53.0458 54.6907 51.8833 53.6607 51.4824C53.4261 51.3911 53.1847 51.3471 52.9471 51.3458C53.3611 50.4514 53.7077 49.5455 54.0474 48.6563C54.4474 47.6074 54.8241 46.6219 55.2907 45.6999C56.1641 43.9728 57.8707 41.9851 59.7941 42.0787C60.4841 42.1121 61.2741 42.4161 62.1074 42.7401L62.1272 42.7477C63.3257 43.2103 64.686 43.7352 66.2474 43.6588C68.4065 43.5589 70.0823 42.3776 71.5619 41.3347L71.5774 41.3237C72.7907 40.4652 73.8374 39.7269 74.8541 39.7269H74.8574C75.7941 39.7269 76.8541 40.3783 77.9741 41.0698C79.5874 42.0653 81.4141 43.1911 83.7141 42.9439C85.1507 42.7869 86.3341 42.1188 87.3807 41.5275C88.3107 41.003 89.1141 40.552 89.7174 40.6623C90.0841 40.7257 90.5707 41.0798 91.0841 41.454L91.0905 41.4587C91.4756 41.7381 91.9101 42.0535 92.4041 42.3292C93.5774 42.9773 94.8207 43.2512 95.9207 43.4917C96.3807 43.592 96.8174 43.6888 97.2274 43.8058C101.671 45.0718 104.831 50.0059 104.131 54.5859C103.987 55.5379 103.697 56.5067 103.387 57.5323L103.382 57.5497C102.954 58.974 102.51 60.4485 102.411 62.0688C102.194 65.5798 104.281 69.5384 108.024 69.8123C108.428 69.8429 108.813 69.7503 109.142 69.5661C109.648 69.5948 110.164 69.4323 110.574 69.0707C114.237 65.8437 115.574 66.1142 116.937 66.8057C120.061 68.3858 119.581 71.9336 119.227 73.3934C118.541 76.2897 116.687 79.0023 114.027 81.0166C112.707 81.9988 111.271 82.8172 109.741 83.4519C108.984 83.7726 108.201 84.0599 107.407 84.3105C107.286 84.35 107.151 84.3833 107.008 84.4185C106.986 84.4238 106.965 84.4291 106.943 84.4345C106.926 84.4388 106.908 84.4431 106.891 84.4474C106.031 84.6545 104.594 85.002 103.834 86.5821C101.761 90.9081 100.784 93.2132 101.207 98.2441C101.294 99.2897 102.171 100.081 103.197 100.081C103.254 100.081 103.311 100.078 103.371 100.065C104.471 99.9745 105.287 99.0024 105.194 97.9C104.861 93.9715 105.454 92.4649 107.371 88.4561C107.465 88.4254 107.599 88.3926 107.723 88.3624L107.765 88.3523C107.787 88.3467 107.809 88.3412 107.831 88.3359C108.064 88.2791 108.331 88.2123 108.607 88.1254C109.517 87.8415 110.421 87.5074 111.284 87.1433C113.104 86.3883 114.831 85.4062 116.424 84.2203C118.663 82.5268 120.455 80.4311 121.678 78.1187C121.714 78.2463 121.764 78.3722 121.827 78.4945ZM106.404 62.316C106.313 63.8217 107.082 65.628 108.223 65.8061C113.306 61.444 116.284 61.9819 118.737 63.2246C122.617 65.1889 124.294 69.4415 123.114 74.3254C122.997 74.8178 122.856 75.3055 122.69 75.787C123.541 75.3468 124.457 75.227 125.344 75.1138L125.346 75.1135C127.392 74.8498 129.008 74.6414 130.071 70.6975C130.284 69.9137 130.002 68.151 129.775 66.7357L129.775 66.7356L129.775 66.7355L129.774 66.7289C129.641 65.9005 129.504 65.0453 129.427 64.2402C129.074 60.5689 130.041 57.5924 132.154 55.8653C132.551 55.5379 132.961 55.2807 133.324 55.0569L133.366 55.0302C133.737 54.7964 134.084 54.5777 134.267 54.362C134.914 53.6137 134.337 51.9167 133.404 50.7141C133.08 50.2969 132.717 49.8798 132.334 49.4399L132.334 49.4398L132.334 49.4397L132.324 49.428C131.127 48.0617 129.774 46.5116 129.264 44.4137C128.941 43.0708 129.024 41.7346 129.101 40.552C129.184 39.2392 129.254 38.1067 128.787 37.3918C128.497 36.9509 127.907 36.5433 127.281 36.1124C127.007 35.9253 126.734 35.7349 126.471 35.5378C122.711 32.7283 121.104 28.449 119.551 24.31C118.301 20.9761 117.117 17.8293 114.914 15.5911C111.461 12.0734 105.197 11.5957 101.237 14.5455C100.791 14.8795 100.224 15.0098 99.6741 14.9063C95.8574 14.1847 92.6074 12.7482 89.7441 11.4788C87.2474 10.3731 84.8907 9.33081 82.5007 8.89319C76.9274 7.88433 68.4107 10.2228 61.2441 19.8136L61.0174 20.1176C59.9707 21.5273 58.7841 23.1208 57.0141 24.0729C55.8907 24.6775 54.7074 24.9314 53.6607 25.1519L53.5957 25.1659C52.9863 25.2976 52.4093 25.4223 51.9007 25.6062C49.4741 26.4881 47.8541 29.3811 48.3607 31.9199C48.4407 32.3108 48.5641 32.735 48.6974 33.1827L48.6996 33.1902C49.0724 34.451 49.4934 35.875 49.1574 37.4753C48.8441 38.8817 48.0641 39.9073 47.3741 40.8126L47.1541 41.1032C45.2541 43.7022 44.1441 46.7956 43.9541 50.036C43.8641 51.566 44.1474 52.6817 44.7307 53.0993C44.9007 53.2229 45.1841 53.3699 45.7207 53.273C46.6441 53.106 47.7441 52.3109 48.3941 51.3355C49.1941 50.1411 49.733 48.7313 50.3037 47.2381L50.3107 47.2198L50.3176 47.2019C50.7355 46.1118 51.1671 44.9856 51.7241 43.8859C53.2074 40.9562 56.1607 37.8896 59.9907 38.0733C61.3228 38.1399 62.5026 38.5946 63.54 38.9945L63.5401 38.9945L63.5507 38.9986L63.5759 39.0084C64.5218 39.375 65.3338 39.6898 66.0607 39.6534C67.0636 39.6067 68.1364 38.849 69.2758 38.0444L69.2774 38.0432L69.2775 38.0431C70.8241 36.9508 72.5741 35.7148 74.8541 35.7148H74.8674C76.9307 35.7148 78.6007 36.7437 80.0741 37.6524L80.0873 37.6605C81.3017 38.4087 82.3508 39.0551 83.2841 38.9552C83.9007 38.8851 84.6374 38.4708 85.4207 38.0299C86.7541 37.2782 88.4141 36.3429 90.4274 36.7137C91.6872 36.9335 92.6553 37.6384 93.4342 38.2055L93.4407 38.2103L93.5201 38.2677L93.5201 38.2677L93.5203 38.2679C93.814 38.4806 94.0905 38.6809 94.3474 38.8249C94.9992 39.1864 95.8513 39.3733 96.7571 39.5721L96.7774 39.5766L96.8217 39.5863C97.308 39.6935 97.8129 39.8048 98.3241 39.9507C104.714 41.7713 109.094 48.6062 108.087 55.1872C107.906 56.4052 107.562 57.5482 107.229 58.6549L107.217 58.6948C106.834 59.9609 106.474 61.1568 106.404 62.316ZM62.8107 62.5699C64.0994 62.5699 65.1441 61.2986 65.1441 59.7304C65.1441 58.1622 64.0994 56.8909 62.8107 56.8909C61.5221 56.8909 60.4774 58.1622 60.4774 59.7304C60.4774 61.2986 61.5221 62.5699 62.8107 62.5699ZM74.1441 63.3549C75.4327 63.3549 76.4774 62.0836 76.4774 60.5154C76.4774 58.9472 75.4327 57.6759 74.1441 57.6759C72.8554 57.6759 71.8107 58.9472 71.8107 60.5154C71.8107 62.0836 72.8554 63.3549 74.1441 63.3549Z" fill="black"/>
</g>
<defs>
<clipPath id="clip0_805_38135">
<rect width="180" height="180" rx="24" fill="white"/>
</clipPath>
<clipPath id="clip1_805_38135">
<rect width="200" height="200.436" fill="white" transform="translate(-10 95.2734)"/>
</clipPath>
</defs>
</svg>
