<svg width="180" height="180" viewBox="0 0 180 180" fill="none" xmlns="http://www.w3.org/2000/svg">
<g clip-path="url(#clip0_805_38913)">
<rect width="180" height="180" rx="24" fill="white"/>
<g clip-path="url(#clip1_805_38913)">
<path d="M103.124 95.2734C103.424 98.6474 104.8 106.271 109.924 105.128L110.474 105.963C110.224 111.198 107.577 114.889 103.43 118.714C99.2171 122.539 93.8437 124.838 88.1737 125.242C83.1737 125.609 77.8571 124.41 74.1171 121.049C70.3771 117.689 68.4104 113.032 70.8871 109.04H71.2471C72.3737 109.073 73.4104 108.482 74.3637 107.881C75.5771 107.113 78.0804 103.962 78.8304 103.057C79.8304 101.758 80.2371 96.8302 80.7504 95.2734H103.124V95.2734Z" fill="#FFD39F"/>
<path fill-rule="evenodd" clip-rule="evenodd" d="M38.0931 224.65C39.6121 224.805 41.1229 224.959 42.6904 225.258L42.8504 225.278L40.5671 245.007L40.5653 245.023C40.0659 249.331 39.5669 253.635 39.3771 257.972C39.3304 259.065 39.3271 260.244 39.9538 261.139C40.7104 262.231 42.1304 262.562 43.4238 262.809L57.7571 265.559L61.9471 266.05C84.1571 269.805 106.407 268.829 128.577 264.844L144.067 261.754C145.481 261.314 147.029 261.12 148.589 260.925C151.864 260.516 155.193 260.1 157.45 257.384C157.724 256.753 157.837 256.065 157.784 255.38C156.82 250.741 153.847 242.413 151.115 234.759C149.125 229.183 147.263 223.965 146.397 220.791L146.064 220.247C145.687 194.972 144.664 169.623 138.967 145.047L137.907 141.836C135.107 132.783 131.44 124.098 126.28 116.251L125.614 109.837C125.627 108.791 125.364 107.756 124.85 106.844C124.337 105.932 123.594 105.17 122.694 104.635C121.794 104.101 120.77 103.817 119.724 103.807C118.677 103.797 117.647 104.064 116.737 104.582C117.95 102.979 117.347 100.466 115.764 99.2371C114.18 98.0078 111.944 97.9042 110.034 98.5055C108.124 99.1068 106.477 100.326 104.91 101.576C103.776 102.483 102.653 103.426 101.528 104.37C96.8015 108.338 92.0305 112.344 86.1504 113.962L82.2104 112.726C80.0138 112.232 78.5404 110.164 77.6804 108.083C77.3824 107.362 77.134 106.618 76.8859 105.875C76.418 104.474 75.951 103.076 75.1538 101.836C73.9338 99.9386 71.6271 98.4587 69.4871 99.1469C66.8638 99.9887 66.1471 103.283 65.6604 106.002C65.6171 106.416 65.4738 106.817 65.2404 107.161C64.8674 107.626 64.2377 107.76 63.6483 107.886C63.6111 107.893 63.574 107.901 63.5371 107.909C62.2038 108.197 60.8471 108.711 59.8704 109.683C58.8938 110.655 58.3538 112.155 58.8004 113.461L57.1138 116.254C56.1804 117.306 53.7804 120.747 53.7804 120.747C47.6156 131.153 45.2408 141.875 42.6593 153.529C42.5888 153.848 42.5181 154.167 42.4471 154.487C37.8245 176.415 35.7661 197.201 33.6378 218.693C33.4641 220.448 33.2899 222.207 33.1138 223.972C34.836 224.317 36.4693 224.484 38.0931 224.65ZM41.4771 233.335C38.5138 233.315 35.5671 232.864 32.7305 231.999C32.9305 229.51 33.1471 226.955 34.2171 224.7L42.4605 225.622L41.4771 233.335Z" fill="black"/>
<path fill-rule="evenodd" clip-rule="evenodd" d="M93.0267 125.985C93.0967 127.048 93.9767 127.859 95.02 127.859C95.0667 127.859 95.11 127.859 95.15 127.849C104.067 127.265 112.797 124.465 120.4 119.762C121.97 118.792 123.286 117.778 124.346 116.723C124.4 116.937 124.489 117.145 124.617 117.34C129.23 124.355 132.953 132.56 136.003 142.418C136.27 143.28 137.06 143.831 137.913 143.831C138.11 143.831 138.31 143.801 138.503 143.741C139.56 143.413 140.15 142.291 139.823 141.232C136.66 131.006 132.78 122.471 127.957 115.135C127.581 114.562 126.962 114.246 126.325 114.234C127.158 112.838 127.587 111.383 127.607 109.874C127.623 108.474 127.27 107.091 126.587 105.872C125.903 104.652 124.907 103.63 123.703 102.918C122.503 102.207 121.13 101.826 119.733 101.813C119.6 101.813 119.47 101.813 119.337 101.819C119.143 100.249 118.333 98.7127 116.98 97.6637C115.01 96.1337 112.183 95.7362 109.427 96.6048C107.157 97.3197 105.26 98.7394 103.657 100.019C101.898 101.425 100.426 102.805 99.002 104.139L98.95 104.188L98.9465 104.191C95.5749 107.353 92.9118 109.851 88.23 111.14C87.1634 111.434 86.5367 112.536 86.83 113.605C87.1234 114.674 88.2267 115.302 89.29 115.008C94.9267 113.458 98.21 110.378 101.683 107.118L101.738 107.067C103.104 105.786 104.518 104.461 106.15 103.156C107.53 102.057 109.01 100.938 110.627 100.43C112.113 99.9621 113.61 100.116 114.533 100.834C115.323 101.449 115.627 102.735 115.137 103.383C114.563 104.141 114.6 105.2 115.227 105.915C115.853 106.63 116.893 106.807 117.72 106.339C118.313 106.002 118.987 105.825 119.667 105.825H119.7C120.393 105.828 121.077 106.019 121.673 106.373C122.27 106.727 122.763 107.231 123.103 107.839C123.443 108.447 123.62 109.132 123.61 109.827C123.583 112.002 121.797 114.196 118.303 116.354C111.253 120.717 103.157 123.309 94.89 123.854C93.79 123.927 92.9534 124.88 93.0267 125.985ZM55.18 267.085C55.0567 267.085 54.93 267.072 54.8034 267.049L43.0567 264.794C41.7434 264.53 39.58 264.092 38.3267 262.308C37.9654 261.792 37.7346 261.248 37.5902 260.696C36.1164 260.44 34.7077 259.878 33.4533 259.038C31.7833 257.922 30.46 256.365 29.63 254.535C29.4933 254.234 29.4333 253.907 29.4533 253.579C29.4849 253.055 29.5254 252.518 29.5663 251.975L29.5663 251.975L29.5664 251.975L29.5664 251.975L29.5664 251.974L29.5664 251.974L29.5664 251.974L29.5664 251.974L29.5733 251.882C29.92 247.189 30.2767 242.335 27.0367 239.084C26.78 238.827 26.6 238.507 26.51 238.152C25.7227 234.996 27.4577 231.973 30.8531 230.469C31.0044 228.841 31.2333 227.122 31.7747 225.451C31.3219 225.037 31.0677 224.422 31.1333 223.771C31.2781 222.325 31.4207 220.882 31.5628 219.442L31.6566 218.493L31.6658 218.4C33.8224 196.637 35.8599 176.076 40.4999 154.07L40.7166 153.091C43.2999 141.422 45.7433 130.402 52.0699 119.718C52.0966 119.675 52.1233 119.635 52.1499 119.595L52.1865 119.543C52.5693 118.997 54.6834 115.982 55.6299 114.918C55.9852 114.517 56.4657 114.292 56.9602 114.252C56.9429 114.206 56.9262 114.16 56.9101 114.113C56.2401 112.159 56.8501 109.864 58.4634 108.26C59.5934 107.138 61.1134 106.383 63.1201 105.948L63.2367 105.922C63.3667 105.895 63.5401 105.858 63.6701 105.821C63.6701 105.816 63.6709 105.812 63.6717 105.808L63.6717 105.808C63.6726 105.804 63.6734 105.8 63.6734 105.795C63.6801 105.741 63.6867 105.691 63.6967 105.641L63.6984 105.632C64.1852 102.955 64.9978 98.4874 68.8801 97.2361C71.1934 96.4945 74.6701 97.2862 76.8534 100.767C77.0892 101.143 77.2987 101.525 77.4885 101.91C77.8829 101.049 78.8476 100.564 79.7966 100.807C80.8666 101.078 81.5166 102.17 81.2433 103.243C80.9419 104.442 80.4594 105.245 79.2098 106.471C79.3137 106.757 79.4204 107.037 79.5334 107.311C80.0034 108.444 81.0334 110.401 82.6534 110.769C83.7301 111.013 84.4067 112.085 84.1667 113.164C83.9234 114.243 82.8534 114.921 81.7767 114.681C79.2701 114.116 77.1601 112.045 75.8367 108.851C75.5101 108.063 75.2401 107.271 74.9834 106.503L74.9709 106.466C74.5289 105.163 74.1106 103.931 73.4634 102.902C72.7134 101.706 71.2501 100.687 70.1001 101.054C68.6401 101.525 68.0634 103.994 67.6434 106.292C67.5567 107.004 67.3001 107.689 66.9001 108.283C66.8701 108.327 66.8367 108.37 66.8034 108.414C65.986 109.433 64.8408 109.678 64.0774 109.842L64.0701 109.844L63.9634 109.867C62.7467 110.131 61.8467 110.545 61.2834 111.103C60.7867 111.597 60.5334 112.332 60.6967 112.81C60.8501 113.258 61.3567 113.739 61.8301 114.146C66.1234 117.914 71.3467 120.437 76.9467 121.445C78.0334 121.642 78.7567 122.685 78.5601 123.774C78.3801 124.743 77.5367 125.424 76.5901 125.424C76.4734 125.424 76.3534 125.414 76.2334 125.391C69.9201 124.252 64.0301 121.409 59.2034 117.173C59.1317 117.111 59.0594 117.048 58.9867 116.983C58.9024 117.198 58.7793 117.401 58.6166 117.584C57.9299 118.355 56.1533 120.854 55.4699 121.83C49.4966 131.942 47.1266 142.635 44.6199 153.959L44.4066 154.918C39.8111 176.713 37.7843 197.19 35.6383 218.87L35.6366 218.887C35.5233 220.023 35.4099 221.162 35.2966 222.305C36.2933 222.445 37.2799 222.549 38.3033 222.652L38.3572 222.658C39.2569 222.75 40.1738 222.844 41.1121 222.97L42.6267 209.881L42.6381 209.784C45.3812 186.253 48.2176 161.921 53.7367 138.446C53.99 137.37 55.0667 136.699 56.1434 136.956C57.2167 137.21 57.8834 138.289 57.63 139.368C52.1628 162.626 49.3396 186.848 46.6091 210.274L46.6 210.352L46.5034 211.187L42.56 245.261L42.558 245.279C42.0719 249.479 41.5698 253.819 41.38 258.083C41.3567 258.614 41.3134 259.609 41.5967 260.01C41.93 260.484 43.1167 260.725 43.8234 260.865L55.55 263.113C56.6334 263.321 57.3467 264.373 57.1367 265.459C56.96 266.417 56.1234 267.085 55.18 267.085ZM30.3267 236.736C30.2665 235.21 31.975 234.346 32.6412 234.067C34.9414 234.729 37.3022 235.137 39.6872 235.283L38.5867 244.794L38.5728 244.914C38.1342 248.712 37.6823 252.626 37.4556 256.549C36.8279 256.357 36.2288 256.073 35.6767 255.704C34.76 255.089 34.0067 254.264 33.4833 253.295C33.4981 253.06 33.5156 252.824 33.5333 252.587C33.5434 252.451 33.5536 252.314 33.5633 252.176L33.5637 252.171C33.9236 247.281 34.3685 241.238 30.3267 236.736ZM40.651 226.954L40.1488 231.295C38.3678 231.2 36.5991 230.937 34.8667 230.513C35.0084 229.087 35.2215 227.677 35.6789 226.399C36.4325 226.491 37.1704 226.567 37.8966 226.641L38.0502 226.657C38.9351 226.748 39.7928 226.837 40.651 226.954ZM61.6133 268.021C71.0533 269.618 80.6933 270.416 90.6566 270.416C102.728 270.416 115.272 269.24 128.479 266.891C130.272 268.273 132.38 269.003 134.703 269.003C134.953 269.003 135.21 268.996 135.467 268.976C139.001 268.744 142.073 266.819 144.132 263.75C144.307 263.744 144.483 263.715 144.66 263.665C145.903 263.277 147.33 263.097 148.837 262.91C152.3 262.479 156.223 261.988 158.987 258.664C159.11 258.517 159.21 258.353 159.287 258.176C159.683 257.251 159.853 256.229 159.777 255.223C159.773 255.18 159.768 255.138 159.762 255.096C159.756 255.053 159.748 255.011 159.74 254.969C158.747 250.193 155.825 242.004 152.998 234.085L152.998 234.084L152.997 234.08C151.027 228.568 149.17 223.36 148.323 220.26C148.266 220.05 148.178 219.857 148.065 219.684C147.736 195.531 146.852 172.286 141.18 147.783C140.93 146.704 139.857 146.032 138.78 146.283C137.703 146.533 137.033 147.609 137.283 148.688C143.613 176.038 143.887 201.985 144.177 229.456L144.177 229.464L144.183 229.971L118.947 229.557C115.197 200.193 113.903 170.325 115.1 140.751C115.147 139.645 114.287 138.71 113.183 138.666C112.08 138.626 111.147 139.481 111.103 140.587C109.873 170.963 111.253 201.65 115.203 231.792C115.306 232.567 115.841 233.192 116.547 233.431C116.265 235.483 116.192 237.561 116.33 239.632C116.33 240.006 116.393 240.374 116.523 240.725C116.673 241.126 116.897 241.486 117.19 241.794C117.218 241.823 117.247 241.852 117.276 241.879C116.068 242.795 115.067 243.966 114.627 245.375C114.247 246.594 114.13 248.492 115.73 250.596C117.21 252.547 119.253 253.72 121.057 254.752C121.413 254.956 121.767 255.16 122.12 255.37C122.613 255.662 123.153 257.631 123.388 258.492L123.393 258.51C123.557 259.111 123.713 259.679 123.897 260.187C124.32 261.351 124.822 262.41 125.395 263.358C102.687 267.174 82.0113 267.405 62.2766 264.069C61.1866 263.882 60.1566 264.62 59.9733 265.712C59.7899 266.801 60.5233 267.837 61.6133 268.021ZM123.46 242.554C123.26 243.127 122.805 243.602 122.183 243.801C120.33 244.403 118.757 245.569 118.443 246.574C118.383 246.765 118.227 247.269 118.91 248.168C119.899 249.47 121.425 250.345 123.037 251.27L123.038 251.27L123.04 251.271C123.131 251.323 123.221 251.375 123.312 251.427C123.598 251.592 123.882 251.755 124.163 251.922C126.044 253.04 126.711 255.479 127.247 257.438L127.25 257.448C127.39 257.966 127.527 258.457 127.653 258.811C128.733 261.781 130.913 265.251 135.2 264.974C138.017 264.787 141.417 262.666 142.533 257.271C143.389 253.123 142.615 248.659 141.866 244.337L141.863 244.323L141.823 244.092C141.747 243.648 141.671 243.207 141.597 242.766C141.582 242.678 141.573 242.59 141.57 242.503L123.46 242.554ZM145.042 241.077C145.295 241.353 145.473 241.704 145.54 242.101C145.627 242.612 145.713 243.123 145.803 243.638L145.806 243.655C146.619 248.343 147.459 253.191 146.45 258.086C146.37 258.474 146.278 258.854 146.175 259.226C146.899 259.11 147.623 259.02 148.337 258.931C151.337 258.557 153.947 258.23 155.7 256.335C155.767 256.112 155.797 255.874 155.79 255.641C154.821 251.111 151.859 242.809 149.239 235.464L149.227 235.43L149.139 235.185L149.139 235.184L149.139 235.184L149.139 235.184C148.807 234.254 148.479 233.334 148.159 232.432C148.078 232.807 147.89 233.154 147.613 233.429C147.243 233.803 146.733 234.013 146.207 234.013H146.173L145.502 234.002L145.667 238.236C145.684 238.757 145.723 240.037 145.042 241.077ZM141.496 233.936L120.565 233.592C120.315 235.236 120.22 236.901 120.28 238.563L141.673 238.503V238.503C141.673 238.486 141.673 238.469 141.673 238.45C141.673 238.429 141.672 238.406 141.67 238.383L141.496 233.936Z" fill="black"/>
</g>
<path fill-rule="evenodd" clip-rule="evenodd" d="M93.1494 35.4035C96.4361 32.1598 98.5361 27.9306 100.573 23.7849C105.533 13.6896 92.6661 8.67541 85.0227 8.34469C68.8727 7.63982 52.7294 17.3209 45.7294 31.9226C45.4037 32.6018 45.0823 33.303 44.7574 34.012C42.5779 38.7673 40.2364 43.8761 35.3427 45.0912C34.6434 45.2655 33.9157 45.3458 33.1905 45.4258C32.0109 45.556 30.8382 45.6854 29.8061 46.217C28.1394 47.0756 27.2094 49.7881 28.8061 50.7903C29.3394 51.0676 29.9327 51.2146 30.5327 51.2179L38.3027 51.866C37.5361 54.6153 37.6027 58.7175 40.4327 59.0282C41.6294 59.1585 42.7327 58.4202 43.6661 57.6586C44.5002 56.9751 45.5389 56.3264 46.6063 55.6599C48.5545 54.4433 50.5979 53.1672 51.6661 51.5119C52.6364 50.0072 53.0771 48.2787 53.5138 46.5662C54.0447 44.4842 54.5696 42.4258 56.0327 40.822C60.3327 36.1451 67.556 34.4247 73.4927 36.7063C74.4508 37.0671 75.3741 37.522 76.2966 37.9765C77.6979 38.6669 79.0971 39.3563 80.6127 39.7129C85.1027 40.7685 89.8627 38.6472 93.1494 35.4035ZM127.389 33.8234C123.529 26.1634 111.073 20.8519 102.499 20.9454C102.499 20.9454 96.2127 32.691 94.3327 34.9759C91.7693 38.1061 83.666 41.3231 83.666 41.3231C85.2445 42.0532 87.0883 42.3843 89.0484 42.7364C92.4691 43.3508 96.2438 44.0288 99.5793 47.0021C102.243 50.0387 103.439 54.2177 103.199 58.2532C103.165 58.8336 103.102 59.4164 103.04 59.9992C102.873 61.5567 102.706 63.1141 103.073 64.6237C103.576 66.6982 105.589 68.6391 107.643 68.0745L123.723 77.5952C124.129 79.6397 126.843 80.0305 128.509 78.9315C130.176 77.8324 130.959 75.8013 131.386 73.8471C131.419 73.6973 131.451 73.5459 131.482 73.3939C131.735 72.1859 131.998 70.9338 132.886 70.0822C133.861 69.1231 135.243 68.9745 136.645 68.8237C137.791 68.7004 138.951 68.5756 139.913 68.0044C142.363 66.5512 142.386 62.8432 140.983 60.3611C140.12 58.8347 138.886 57.5825 137.649 56.3271C136.875 55.541 136.099 54.7537 135.413 53.8971C132.746 50.5679 131.57 46.4402 130.386 42.2881C129.56 39.3908 128.731 36.4815 127.389 33.8234Z" fill="black"/>
<path d="M80.6127 39.7066C78.0994 39.1153 75.906 37.6087 73.4927 36.7001C67.556 34.4251 60.3327 36.1455 56.0327 40.8223L53.3327 52.8485C51.3327 55.855 50.9994 59.5297 49.9994 63.2043C49.9994 64.26 45.946 78.5176 55.3327 87.9247C58.666 91.2653 62.9994 92.6016 67.4994 93.6038C71.536 94.2284 75.946 94.8565 79.8327 93.2697C79.6094 96.7473 79.576 99.2293 79.736 102.71L103.236 100.285C102.853 95.715 103.693 91.6027 105.676 87.4671C106.123 86.5317 107.093 86.5417 108.049 86.2377C108.896 85.9705 109.736 85.6632 110.556 85.3157C112.226 84.6209 113.803 83.7223 115.256 82.6433C118.129 80.4685 120.366 77.4152 121.209 73.8742C121.973 70.6639 121.436 66.8422 117.859 65.035C115.353 63.7656 113.103 64.2165 109.279 67.5839L107.633 68.0916C105.579 68.6562 103.566 66.7153 103.063 64.6408C102.559 62.5663 103.063 60.4016 103.189 58.2703C103.429 54.2348 102.233 50.0558 99.5694 47.0192C96.906 43.9825 92.726 42.2287 88.7394 42.8467" fill="#FFD39F"/>
<path fill-rule="evenodd" clip-rule="evenodd" d="M40.7195 61.0513C40.5561 61.0513 40.3861 61.0413 40.2161 61.0246C38.8561 60.8743 37.7361 60.1962 36.9695 59.0637C35.9728 57.5872 35.7595 55.5661 35.9395 53.6853L30.4361 53.2277C29.5495 53.211 28.6661 52.9838 27.8795 52.5729C27.8328 52.5495 27.7861 52.5228 27.7428 52.4927C26.5628 51.7511 25.9195 50.4817 25.9828 49.0052C26.0595 47.1578 27.2561 45.2804 28.8895 44.4386C30.2344 43.7448 31.6642 43.5836 32.9272 43.4412L32.9695 43.4364C33.6495 43.3629 34.2895 43.2894 34.8595 43.1491C38.8169 42.1676 40.9101 37.6029 42.9355 33.186L42.9395 33.1774L43.0419 32.9544C43.3372 32.3114 43.6303 31.673 43.9261 31.0561C51.2561 15.7662 68.1961 5.60414 85.1095 6.34242C90.1961 6.5629 98.9828 8.95142 102.343 14.6338C103.579 16.7216 104.586 20.1591 102.369 24.6723C100.383 28.7211 98.1261 33.3077 94.5561 36.832C90.4095 40.9243 84.8928 42.7783 80.1595 41.6659C78.4502 41.2647 76.9443 40.5271 75.4862 39.8128L75.4861 39.8127L75.4161 39.7784L75.384 39.7626L75.3839 39.7626C74.4925 39.3241 73.6492 38.9093 72.7928 38.5858C67.6595 36.6116 61.2361 38.1282 57.5061 42.1837C56.4408 43.3514 56.0737 45.1657 55.6842 47.0906L55.6828 47.0977L55.6776 47.1231C55.3561 48.7102 55.0259 50.3398 54.2875 51.8748C54.8771 52.4172 55.1066 53.2868 54.7994 54.0795C52.5261 59.9389 51.4261 64.6725 51.1528 67.1479C50.2495 75.4159 52.4028 82.655 57.0661 87.0044C59.5594 89.3295 62.7495 90.7693 67.1061 91.5376C71.5595 92.316 75.5328 92.8404 79.0494 91.4007C79.6861 91.1401 80.4128 91.2269 80.9728 91.6278C81.5328 92.0287 81.8461 92.6935 81.8028 93.3816C81.5895 96.7423 81.5528 97.4839 81.7128 100.931C81.7628 102.037 80.9095 102.976 79.8061 103.026C79.7728 103.039 79.7428 103.039 79.7095 103.039C78.6461 103.039 77.7628 102.201 77.7128 101.125C77.6061 98.7734 77.5828 97.5908 77.6495 95.9773C73.6428 96.7523 69.5628 96.0407 66.4161 95.4895C61.3328 94.5909 57.3828 92.777 54.3395 89.9408C48.7461 84.7195 46.1361 76.2544 47.1761 66.7103C47.4728 64.0194 48.3846 60.3292 49.7063 56.3926C49.1359 56.7267 48.5511 57.0439 47.9713 57.3584L47.9561 57.3667L47.9412 57.3748L47.9411 57.3748C46.7866 57.9998 45.6928 58.592 44.9361 59.214C43.8628 60.0859 42.4428 61.0513 40.7195 61.0513ZM29.9828 49.1221C30.1628 49.1822 30.3528 49.2156 30.5428 49.2156C30.5931 49.2156 30.6404 49.2186 30.6903 49.2217H30.6904H30.6905H30.6906L30.6995 49.2223L38.4695 49.8704C39.0628 49.9205 39.6061 50.2312 39.9461 50.7222C40.2861 51.2133 40.3895 51.8313 40.2295 52.4059C39.7495 54.123 39.7761 56.0605 40.2861 56.8155C40.3895 56.9691 40.4695 57.0159 40.6528 57.036C41.1882 57.0948 42.0689 56.3783 42.3868 56.1196L42.4061 56.1039C43.4595 55.2421 44.7761 54.5272 46.0528 53.8357L46.07 53.8263C47.8013 52.8872 49.5886 51.9177 50.3228 50.7757C51.0995 49.5697 51.4228 47.9796 51.7628 46.2959C52.2195 44.031 52.7395 41.4621 54.5595 39.4678C59.4361 34.1629 67.5161 32.2588 74.2128 34.8344C75.2469 35.2243 76.228 35.7072 77.1759 36.1739L77.1759 36.1739L77.1828 36.1773L77.1948 36.1832C78.527 36.8391 79.7833 37.4576 81.0728 37.7607C85.1461 38.7161 89.2595 36.4312 91.7495 33.9758C94.8349 30.9304 96.8369 26.8591 98.7742 22.9192L98.7828 22.9018C99.9428 20.5399 99.9828 18.5022 98.9061 16.6782C96.7295 13.0002 90.0995 10.5716 84.9428 10.3478C69.5695 9.67633 54.1961 18.9064 47.5395 32.7899C47.2256 33.4452 46.9149 34.123 46.6012 34.8076L46.6012 34.8076L46.6011 34.8077L46.6011 34.8079L46.5828 34.8477C44.2761 39.882 41.6595 45.5877 35.8328 47.0342C35.0264 47.2362 34.2391 47.3238 33.477 47.4086H33.477L33.4195 47.415L33.4115 47.4159L33.4115 47.4159C32.3944 47.5292 31.431 47.6365 30.7295 47.9963C30.3061 48.2168 30.0161 48.8047 29.9828 49.1221ZM104.269 69.4396C105.109 69.9373 106.019 70.1912 106.923 70.1912C107.343 70.1912 107.759 70.1344 108.163 70.0275C108.49 69.9383 108.777 69.7729 109.008 69.5556C109.555 69.6233 110.126 69.4657 110.573 69.0721C114.236 65.8451 115.573 66.1157 116.936 66.8072C120.06 68.3873 119.58 71.935 119.226 73.3948C118.54 76.2911 116.686 79.0037 114.026 81.0181C112.706 82.0002 111.27 82.8187 109.74 83.4534C108.983 83.7741 108.2 84.0614 107.406 84.3119C107.285 84.3514 107.15 84.3847 107.006 84.42L107.004 84.4204C106.967 84.4297 106.928 84.4392 106.89 84.4489C106.03 84.656 104.593 85.0034 103.833 86.5835C101.76 90.9096 100.783 93.2146 101.206 98.2455C101.293 99.2911 102.17 100.083 103.196 100.083C103.253 100.083 103.31 100.08 103.37 100.066C104.47 99.976 105.286 99.0038 105.193 97.9014C104.86 93.9729 105.453 92.4663 107.37 88.4576C107.464 88.4268 107.598 88.3941 107.722 88.3639L107.723 88.3637C107.76 88.3546 107.796 88.3458 107.83 88.3373C108.063 88.2805 108.33 88.2137 108.606 88.1269C109.516 87.8429 110.42 87.5089 111.283 87.1447C113.103 86.3898 114.83 85.4076 116.423 84.2217C118.711 82.4904 120.534 80.3387 121.758 77.9649L121.763 77.9915C122.043 79.4146 122.996 80.5604 124.369 81.135C125.019 81.4056 125.733 81.5392 126.449 81.5392C127.556 81.5392 128.679 81.2219 129.603 80.6039C131.449 79.3845 132.669 77.3134 133.333 74.2734L133.433 73.8024L133.436 73.7863C133.635 72.8402 133.822 71.9492 134.279 71.5108C134.756 71.0401 135.725 70.9363 136.847 70.8162L136.849 70.8159C138.133 70.679 139.589 70.5219 140.923 69.7302C142.616 68.728 143.663 66.9642 143.876 64.7628C144.049 62.9522 143.629 60.9879 142.716 59.3744C141.724 57.6185 140.375 56.2496 139.069 54.9243L139.066 54.9214C138.306 54.1497 137.589 53.4214 136.966 52.6464C134.553 49.6332 133.459 45.8015 132.303 41.7427L132.295 41.7158C131.458 38.7778 130.592 35.7411 129.169 32.9235C124.936 24.5219 116.416 19.1302 107.413 19.1302H107.166C106.063 19.1402 105.176 20.0489 105.189 21.1546C105.203 22.2537 106.096 23.1356 107.189 23.1356H107.213H107.416C114.923 23.1356 122.046 27.6654 125.603 34.7275C126.859 37.2162 127.639 39.9455 128.463 42.8384C129.676 47.101 130.933 51.5073 133.853 55.1519C134.601 56.0852 135.426 56.922 136.221 57.7288L136.226 57.7341L136.242 57.7499C137.409 58.9367 138.513 60.0582 139.243 61.3487C140.166 62.9856 140.216 65.4944 138.893 66.2794C138.308 66.629 137.402 66.7264 136.442 66.8296L136.433 66.8306L136.429 66.831C134.883 66.9979 132.958 67.2058 131.506 68.6345C130.17 69.9172 129.813 71.6174 129.526 72.9836L129.526 72.984C129.496 73.131 129.466 73.2779 129.433 73.4216C129.003 75.3892 128.339 76.6453 127.409 77.2599C126.993 77.5339 126.336 77.6107 125.913 77.4336C125.716 77.3501 125.699 77.2733 125.686 77.2065C125.469 76.1208 124.416 75.4159 123.333 75.6331C123.081 75.6834 122.851 75.779 122.647 75.9095C122.831 75.3887 122.986 74.8605 123.113 74.3269C124.293 69.4429 122.616 65.1903 118.736 63.2261C116.236 61.96 113.193 61.4255 107.933 66.0589C107.916 66.0735 107.9 66.0883 107.884 66.1033C107.634 66.0724 107.374 66.0888 107.116 66.1591L107.114 66.1596C107.023 66.1834 106.75 66.2543 106.306 65.9921C105.709 65.638 105.189 64.9064 105.013 64.1715C104.729 62.9956 104.873 61.6527 105.026 60.2262L105.031 60.1785C105.093 59.5986 105.157 58.9969 105.193 58.3889C105.476 53.6252 103.976 48.9985 101.079 45.6946C97.5095 41.6225 93.4961 41.6058 89.6928 42.1937C88.5995 42.3607 87.8528 43.3863 88.0195 44.4787C88.1861 45.5744 89.2095 46.3227 90.2995 46.1556C94.1061 45.5677 96.1428 46.1389 98.0728 48.3404C100.283 50.8559 101.419 54.4303 101.199 58.1484C101.173 58.6256 101.122 59.1081 101.069 59.615L101.069 59.6151L101.069 59.6154L101.049 59.7986L101.046 59.83C100.867 61.524 100.682 63.2742 101.126 65.1102C101.563 66.9108 102.736 68.5309 104.269 69.4396ZM62.8095 62.5713C64.0982 62.5713 65.1429 61.3 65.1429 59.7318C65.1429 58.1636 64.0982 56.8923 62.8095 56.8923C61.5209 56.8923 60.4762 58.1636 60.4762 59.7318C60.4762 61.3 61.5209 62.5713 62.8095 62.5713ZM74.1429 63.3564C75.4316 63.3564 76.4762 62.0851 76.4762 60.5169C76.4762 58.9486 75.4316 57.6774 74.1429 57.6774C72.8542 57.6774 71.8096 58.9486 71.8096 60.5169C71.8096 62.0851 72.8542 63.3564 74.1429 63.3564Z" fill="black"/>
</g>
<defs>
<clipPath id="clip0_805_38913">
<rect width="180" height="180" rx="24" fill="white"/>
</clipPath>
<clipPath id="clip1_805_38913">
<rect width="200" height="200.436" fill="white" transform="translate(-10 95.2734)"/>
</clipPath>
</defs>
</svg>
