<svg width="180" height="180" viewBox="0 0 180 180" fill="none" xmlns="http://www.w3.org/2000/svg">
<g clip-path="url(#clip0_805_38640)">
<rect width="180" height="180" rx="24" fill="white"/>
<g clip-path="url(#clip1_805_38640)">
<path fill-rule="evenodd" clip-rule="evenodd" d="M103.123 95.2734C103.423 98.6474 104.8 106.271 109.923 105.128L110.473 105.963C110.223 111.198 107.577 114.889 103.43 118.714C99.2167 122.539 93.8433 124.838 88.1733 125.242C83.1733 125.609 77.8567 124.41 74.1167 121.049C70.3767 117.689 68.41 113.032 70.8867 109.04H71.2467C72.3733 109.073 73.41 108.482 74.3633 107.881C75.4405 107.199 77.5343 104.639 78.5155 103.44C78.6395 103.289 78.7458 103.159 78.83 103.057C79.4697 102.226 79.8666 99.9098 80.2039 97.9413C80.3939 96.8327 80.565 95.8343 80.75 95.2734H103.123ZM132.363 136.42C131.637 137.595 130.85 138.731 130.01 139.827C127.133 143.548 123.383 146.745 118.9 148.178L118.253 149.207C117.893 179.633 119.39 210.083 122.357 241.408C121.203 241.505 120.11 241.959 119.223 242.707C118.337 243.456 117.703 244.458 117.41 245.58C117.117 246.703 117.173 247.889 117.58 248.974C117.983 250.06 118.713 250.995 119.67 251.65C120.216 252.021 120.82 252.291 121.424 252.561C121.963 252.802 122.503 253.044 123.003 253.357C125.359 254.829 126.436 257.555 127.505 260.262C128.642 263.14 129.77 265.996 132.417 267.301C136.207 269.168 140.957 266.319 142.673 262.447C144.39 258.575 143.92 254.135 143.41 249.933C141.233 232.054 136.043 179.684 135.137 168.723L132.587 137.899L132.363 136.42ZM47.9697 139.644C48.0908 138.87 48.2121 138.096 48.3333 137.322L48.53 136.667C50.67 138.621 52.3166 141.053 53.3333 143.769L49.5633 216.113L47.8966 236.584L47.8886 236.682C47.6046 240.14 47.3199 243.608 46.61 247C45.98 249.779 45.2066 252.525 44.2966 255.225C43.65 257.269 42.8433 259.507 40.9633 260.536C38.2666 262.006 34.7466 260.012 33.43 257.232C32.1522 254.535 32.3436 251.41 32.5267 248.422C32.5322 248.331 32.5378 248.24 32.5433 248.149C32.6433 246.506 32.69 244.752 31.8466 243.342C31.6597 243.035 31.4342 242.75 31.2085 242.465C31.0357 242.246 30.8627 242.027 30.7066 241.799C30.1 240.897 29.7633 239.841 29.74 238.752C29.7133 237.666 30.0033 236.594 30.5666 235.665C31.13 234.737 31.95 233.988 32.9266 233.514C33.9033 233.04 34.9966 232.853 36.0733 232.983C38.4113 200.675 43.1411 170.475 47.9697 139.644Z" fill="#FFD39F"/>
<path fill-rule="evenodd" clip-rule="evenodd" d="M44.5729 133.916C48.6096 136 51.7329 139.511 53.3329 143.77L53.8729 145.721C51.5696 166.293 48.0296 186.707 43.2729 206.854C41.0162 209.497 42.2629 214.257 45.5229 215.45C47.6068 216.214 49.8228 215.632 52.0243 215.054C52.728 214.869 53.4303 214.684 54.1262 214.544C58.4765 213.678 62.8834 214.583 67.2952 215.489C71.5746 216.367 75.8585 217.247 80.0996 216.512C81.3758 216.291 82.6214 215.925 83.8667 215.559C85.2529 215.152 86.6388 214.745 88.0662 214.538C92.4637 213.901 96.8099 215.178 101.12 216.445C102.191 216.759 103.26 217.073 104.326 217.357C109.686 218.784 115.973 219.275 120.233 215.717L120.25 215.53C118.72 193.201 118.01 171.207 118.27 149.222L118.916 148.193C123.4 146.76 127.15 143.567 130.026 139.842C132.903 136.117 134.996 131.861 137.07 127.635C132.763 125.925 129.533 122.294 126.83 118.512C126.17 117.59 125.53 116.65 124.889 115.711C122.906 112.801 120.923 109.893 118.373 107.488C115 104.308 110.313 102.076 105.776 103.012C105.086 106.653 102.173 108.992 99.1729 110.575C93.5329 113.525 87.1096 114.627 80.8096 113.728C79.3129 113.508 77.8029 113.164 76.5129 112.369C75.2229 111.574 74.1829 110.258 74.0429 108.748C73.8296 106.586 75.4196 104.716 76.3762 103.663C66.3829 107.301 57.9429 114.28 52.4796 123.423C52.0679 124.117 51.6685 124.829 51.2677 125.543C49.4682 128.75 47.6426 132.003 44.5729 133.916ZM144.5 208.311C144.5 208.311 141.326 200.183 137.36 191.975L139.413 211.401C140.413 213.218 143.553 213.145 144.463 211.277C144.81 210.322 144.823 209.276 144.5 208.311Z" fill="black"/>
<path fill-rule="evenodd" clip-rule="evenodd" d="M118.31 146.281C117.65 146.493 117.174 147.016 116.996 147.638C116.553 148 116.267 148.549 116.26 149.167C116.01 170.323 116.64 191.958 118.182 214.725C115.155 216.74 110.664 216.972 104.81 215.414C103.855 215.16 102.87 214.872 101.911 214.591L101.653 214.516C97.193 213.203 92.5797 211.847 87.7497 212.548C86.1797 212.775 84.703 213.21 83.273 213.631C82.0497 213.991 80.893 214.332 79.7297 214.533C75.8678 215.2 71.8927 214.383 67.6877 213.518L67.683 213.517C63.1464 212.582 58.4564 211.616 53.7064 212.572C52.9553 212.72 52.214 212.914 51.4954 213.103L51.495 213.103L51.4948 213.103L51.4942 213.103L51.4697 213.109L51.4571 213.113C49.5051 213.623 47.6632 214.104 46.1797 213.56C45.2664 213.223 44.5397 212.331 44.2364 211.172C43.9364 210.016 44.133 208.887 44.763 208.149C44.9697 207.905 45.1164 207.618 45.1897 207.307C50.573 184.537 54.4297 161.18 56.6564 137.886C56.763 136.787 55.9564 135.808 54.8564 135.701C53.7597 135.598 52.783 136.403 52.6764 137.505C52.6532 137.748 52.6299 137.99 52.6064 138.233C51.3398 136.492 49.8028 134.961 48.0464 133.697C50.1412 131.641 51.5939 129.051 53.0094 126.528L53.0131 126.521C53.4164 125.796 53.7997 125.115 54.1964 124.447C58.2797 117.612 64.3831 112.12 72.0231 108.355C72.0231 108.539 72.0331 108.729 72.0531 108.926C72.2397 110.947 73.5164 112.868 75.4664 114.071C77.1497 115.11 79.053 115.491 80.5297 115.708C87.283 116.673 94.0497 115.511 100.106 112.344C103.896 110.346 106.33 107.817 107.363 104.817C110.49 104.63 114.01 106.12 117.006 108.946C119.396 111.201 121.263 113.937 123.24 116.837L123.391 117.059C123.98 117.922 124.586 118.809 125.206 119.676C127.38 122.72 130.323 126.344 134.38 128.572C132.65 132.057 130.803 135.561 128.446 138.611C126.373 141.293 122.933 144.804 118.31 146.281ZM111.683 220.439C114.246 220.439 116.518 219.997 118.489 219.116C118.981 225.912 119.553 232.812 120.206 239.831C119.383 240.132 118.613 240.576 117.93 241.15C116.716 242.173 115.863 243.522 115.46 245.056C115.056 246.589 115.136 248.186 115.693 249.672C116.25 251.159 117.236 252.415 118.546 253.307C119.221 253.768 119.935 254.088 120.565 254.37L120.565 254.371L120.606 254.389L120.635 254.402L120.635 254.402C121.115 254.618 121.567 254.822 121.943 255.057C123.736 256.178 124.66 258.513 125.638 260.986L125.643 261L125.645 261.007C126.842 264.032 128.195 267.455 131.533 269.101C132.596 269.626 133.766 269.89 134.973 269.89C135.98 269.89 137.013 269.703 138.046 269.328C140.82 268.32 143.296 265.994 144.51 263.255C146.503 258.756 145.893 253.73 145.403 249.688L145.403 249.686C144.498 242.249 143.058 228.731 141.624 214.717C141.711 214.721 141.799 214.723 141.886 214.723H142.023C143.886 214.676 145.51 213.691 146.26 212.154C146.29 212.091 146.32 212.027 146.343 211.96C146.843 210.584 146.86 209.061 146.396 207.671C146.393 207.659 146.389 207.647 146.385 207.636C146.382 207.625 146.378 207.613 146.373 207.602C146.37 207.594 146.367 207.586 146.363 207.577L146.355 207.558C146.178 207.107 143.085 199.257 139.282 191.353C138.267 181.009 137.456 172.421 137.136 168.553L134.586 137.729C134.564 137.468 134.493 137.223 134.383 137.002C136.05 134.257 137.458 131.39 138.835 128.586L138.835 128.586L138.866 128.522C139.113 128.018 139.136 127.437 138.936 126.915C138.733 126.394 138.326 125.98 137.806 125.773C133.69 124.136 130.646 120.408 128.456 117.345C127.81 116.439 127.163 115.494 126.54 114.579C124.53 111.629 122.45 108.579 119.743 106.027C115.413 101.944 110.043 100.084 105.373 101.046C104.576 101.21 103.96 101.838 103.81 102.636C103.353 105.045 101.53 107.062 98.2464 108.796C92.943 111.565 87.0097 112.588 81.0997 111.742C79.943 111.572 78.6164 111.308 77.5597 110.657C76.6897 110.119 76.1031 109.314 76.0331 108.546C75.9564 107.744 76.3997 107.196 77.3597 106.22C77.5497 106.027 77.7331 105.84 77.8997 105.656C78.5197 104.974 78.593 103.956 78.083 103.191C77.573 102.426 76.6064 102.108 75.7397 102.422C64.833 106.394 56.1964 113.296 50.7631 122.392C50.3397 123.107 49.9264 123.842 49.5264 124.554C47.7931 127.647 46.1531 130.567 43.5197 132.207C42.9064 132.588 42.5464 133.269 42.5764 133.991C42.6064 134.712 43.0197 135.36 43.6597 135.691C44.5983 136.176 45.4804 136.746 46.297 137.391L45.993 139.336C41.1597 170.176 36.593 199.34 34.2097 231.032C33.463 231.152 32.7364 231.379 32.0497 231.713C30.7264 232.358 29.623 233.363 28.8564 234.623C28.0897 235.882 27.703 237.329 27.7364 238.802C27.7697 240.279 28.223 241.702 29.053 242.934C29.2497 243.218 29.4564 243.482 29.6397 243.713L29.6493 243.725C29.8391 243.964 30.0182 244.19 30.1297 244.374C30.6664 245.269 30.633 246.612 30.5464 248.029L30.5297 248.299L30.5292 248.308C30.3393 251.416 30.1244 254.933 31.623 258.094C32.623 260.208 34.6064 261.966 36.7964 262.681C37.523 262.918 38.2564 263.035 38.973 263.035C40.013 263.035 41.0197 262.787 41.923 262.293C44.6197 260.816 45.6097 257.713 46.1997 255.846C47.1264 253.1 47.9197 250.274 48.563 247.444C48.5647 247.439 48.5655 247.433 48.5664 247.427C48.5672 247.422 48.568 247.416 48.5697 247.411C49.303 243.896 49.5997 240.312 49.883 236.844L51.4771 217.25C51.8181 217.165 52.1536 217.077 52.483 216.991C53.183 216.807 53.843 216.637 54.493 216.507C58.4497 215.712 62.543 216.554 66.8797 217.446C71.2664 218.351 75.803 219.283 80.413 218.484C81.7755 218.248 83.0768 217.867 84.3328 217.499L84.3997 217.479L84.4503 217.464C85.7882 217.072 87.0524 216.702 88.323 216.517C92.2864 215.942 96.2897 217.118 100.526 218.364L100.697 218.414C101.707 218.709 102.751 219.014 103.783 219.29C106.66 220.055 109.296 220.439 111.683 220.439ZM47.4184 217.809C46.5575 217.787 45.6855 217.647 44.813 217.329C42.663 216.54 41.003 214.619 40.3697 212.191C40.2152 211.598 40.1287 211.001 40.1079 210.414C39.3152 217.876 38.6266 225.428 38.0697 233.13C38.0297 233.677 37.7697 234.182 37.3464 234.529C36.9264 234.877 36.3797 235.04 35.8364 234.974C35.1364 234.89 34.433 235.01 33.7997 235.318C33.1664 235.625 32.6364 236.106 32.273 236.711C31.9064 237.312 31.723 238.004 31.7364 238.708C31.753 239.413 31.9697 240.095 32.363 240.679C32.473 240.84 32.6197 241.027 32.773 241.221L32.8136 241.272C33.0501 241.573 33.3133 241.908 33.5497 242.296C34.6797 244.187 34.6564 246.285 34.5364 248.269L34.5197 248.543C34.3497 251.296 34.1764 254.142 35.233 256.37C35.773 257.506 36.8697 258.488 38.033 258.866C38.5464 259.033 39.3064 259.153 40.0064 258.772C41.1964 258.121 41.8364 256.36 42.3897 254.616C42.393 254.603 42.3964 254.593 42.403 254.58C43.2864 251.961 44.043 249.268 44.6564 246.569C45.3397 243.302 45.623 239.851 45.8964 236.514L47.4184 217.809ZM40.3428 208.233C42.808 185.648 46.2054 163.838 49.76 141.146C50.4466 142.177 51.0193 143.291 51.4631 144.47C51.5611 144.731 51.7074 144.959 51.8878 145.148C49.6233 165.575 46.1031 185.992 41.3997 205.961C40.9117 206.64 40.5567 207.41 40.3428 208.233ZM141.923 210.714C141.605 210.723 141.313 210.623 141.192 210.473C140.968 208.27 140.746 206.069 140.527 203.891C141.709 206.689 142.483 208.649 142.616 208.987C142.766 209.462 142.77 209.976 142.626 210.454C142.506 210.601 142.226 210.708 141.923 210.714ZM120.252 149.855C124.13 148.445 127.787 145.728 130.92 141.933L133.15 168.887C134.09 180.271 139.273 232.452 141.43 250.173C141.976 254.69 142.283 258.401 140.85 261.632C140.073 263.382 138.436 264.925 136.676 265.564C135.823 265.874 134.546 266.111 133.303 265.5C131.354 264.54 130.394 262.112 129.376 259.539L129.37 259.524L129.368 259.52C128.248 256.684 126.982 253.476 124.07 251.657C123.45 251.269 122.81 250.982 122.243 250.728C121.703 250.487 121.193 250.26 120.796 249.99C120.176 249.565 119.706 248.971 119.443 248.266C119.18 247.561 119.143 246.803 119.333 246.075C119.523 245.346 119.926 244.708 120.503 244.224C121.08 243.739 121.776 243.449 122.526 243.389C123.06 243.345 123.553 243.088 123.896 242.677C124.24 242.266 124.403 241.735 124.353 241.201C121.276 208.706 119.936 178.818 120.252 149.855Z" fill="black"/>
</g>
<path d="M115.667 84.789C116.334 86.8401 119.454 86.0384 121.144 84.6954C129.197 78.2915 133.984 68.086 134.217 57.7836C134.45 47.4812 130.254 37.2356 123.197 29.7426C118.98 25.2696 113.294 21.5882 107.164 21.9023L97.3337 17.0183C95.9704 13.9817 92.367 12.5887 89.0504 12.4283C85.7337 12.268 82.417 13.023 79.1004 12.8726C76.457 12.7524 73.8504 12.0609 71.2071 12.1344C65.0637 12.3014 59.8037 16.4972 55.5071 20.9034C48.2837 28.3095 42.0437 37.6632 42.0637 48.0224C42.0637 53.8951 43.7304 60.8569 39.3971 64.8189C38.8371 65.3333 38.1271 65.9881 38.3971 66.6996C38.4937 66.8867 38.6237 67.0538 38.7871 67.1874C38.9504 67.321 39.1371 67.4212 39.3371 67.478C42.9604 68.9512 47.6037 66.85 48.8937 63.1352L55.4204 50.7951C57.6071 47.4545 62.1337 46.4723 66.1037 46.8799C70.0737 47.2875 73.8804 48.764 77.8571 49.1214C81.0571 49.382 84.277 48.921 87.277 47.7718C90.277 46.6227 92.9804 44.8087 95.1904 42.4703L97.1904 43.0115C99.1037 43.9602 100.717 45.4267 101.85 47.2407C102.98 49.058 103.587 51.1525 103.597 53.2938C103.577 55.4886 102.93 57.6199 102.57 59.788C102.21 61.956 102.214 64.3145 103.37 66.1785C104.527 68.0426 107.16 69.1049 109.01 67.9257" fill="black"/>
<path d="M103.199 99.7467C102.816 95.1767 103.703 91.609 105.686 87.4733C106.133 86.5379 107.103 86.548 108.059 86.244C108.906 85.9767 109.746 85.6694 110.566 85.322C112.236 84.6271 113.813 83.7285 115.266 82.6495C118.139 80.4748 120.376 77.4215 121.219 73.8804C121.983 70.6701 121.446 66.8485 117.869 65.0412C115.363 63.7718 113.113 64.2228 109.289 67.5901L109.019 67.9475C107.169 69.1268 104.533 68.0678 103.379 66.2004C102.226 64.333 102.229 61.9779 102.579 59.8098C102.929 57.6418 103.579 55.5105 103.606 53.3157C103.596 51.1744 102.989 49.0798 101.859 47.2626C100.729 45.4453 99.116 43.9821 97.1994 43.0334L95.1994 42.4922C92.9894 44.8306 90.286 46.6412 87.286 47.7937C84.286 48.9462 81.066 49.4072 77.866 49.1433C73.8894 48.7859 70.0827 47.3127 66.1127 46.9018C62.1427 46.4909 57.616 47.4697 55.4294 50.817L53.3327 52.848C51.3327 55.8546 50.9994 59.5292 49.9994 63.2039C49.9994 64.2595 45.946 78.5172 55.3327 87.9243C58.666 91.2649 62.9994 92.6011 67.4994 93.6033C71.536 94.228 75.946 94.856 79.8327 93.2692C79.6094 96.7468 79.646 99.8068 79.806 103.288" fill="#FFD39F"/>
<path fill-rule="evenodd" clip-rule="evenodd" d="M38.6668 69.3661C39.6601 69.7603 40.7335 69.9541 41.8235 69.9541C43.1635 69.9541 44.5301 69.6634 45.8235 69.0755C46.2434 68.885 46.6459 68.6674 47.0283 68.4257C46.4626 77.2641 49.0843 85.0345 54.3401 89.9408C57.3835 92.777 61.3335 94.591 66.4168 95.4896C69.5635 96.0408 73.6435 96.7523 77.6501 95.9773C77.5835 97.5908 77.6068 98.7734 77.7135 101.125C77.7635 102.201 78.6468 103.039 79.7101 103.039C79.7435 103.039 79.7735 103.039 79.8068 103.026C80.9101 102.976 81.7635 102.037 81.7135 100.931C81.5535 97.4839 81.5901 96.7423 81.8035 93.3817C81.8468 92.6935 81.5335 92.0287 80.9735 91.6278C80.4135 91.227 79.6868 91.1401 79.0501 91.4007C75.5334 92.8405 71.5601 92.316 67.1068 91.5377C62.7501 90.7693 59.5601 89.3295 57.0668 87.0045C52.4035 82.655 50.2501 75.4159 51.1535 67.148C51.4268 64.6726 52.5268 59.939 54.8001 54.0796C54.9748 53.6287 54.9759 53.1531 54.836 52.7269C55.0265 52.7849 55.2221 52.8135 55.4168 52.8135C56.0701 52.8135 56.7068 52.4961 57.0868 51.9048C58.8601 49.1956 62.8001 48.5676 65.8934 48.8849C67.6853 49.0672 69.4541 49.4893 71.3269 49.9361L71.3269 49.9361L71.3734 49.9472C73.3968 50.4316 75.4934 50.9327 77.6868 51.1298C81.1668 51.4138 84.7268 50.9026 87.9868 49.6533C90.935 48.5234 93.6625 46.7759 95.9324 44.5741C96.0482 44.6695 96.1767 44.7533 96.3168 44.8228C97.9001 45.6078 99.2301 46.8171 100.167 48.317C101.1 49.8203 101.6 51.5507 101.61 53.2912C101.6 54.5974 101.32 55.9369 101.023 57.3534L101.01 57.4191L101.01 57.4197L101.009 57.4201L101.009 57.4201C100.87 58.0844 100.726 58.7732 100.61 59.4746C100.077 62.6816 100.427 65.2271 101.683 67.2515C102.62 68.7581 104.21 69.8939 105.94 70.2881C106.383 70.3884 106.827 70.4385 107.263 70.4385C108.28 70.4385 109.257 70.1645 110.097 69.6334C110.398 69.4406 110.631 69.1805 110.788 68.885C114.29 65.856 115.6 66.1294 116.937 66.8072C120.06 68.3873 119.58 71.935 119.227 73.3949C118.54 76.2912 116.687 79.0037 114.027 81.0181C112.707 82.0003 111.27 82.8187 109.74 83.4534C108.983 83.7741 108.2 84.0614 107.407 84.3119C107.286 84.3515 107.15 84.3848 107.007 84.42L107.005 84.4205C106.967 84.4298 106.929 84.4392 106.89 84.4489C106.03 84.656 104.593 85.0034 103.833 86.5835C101.76 90.9096 100.783 93.2146 101.207 98.2456C101.293 99.2912 102.17 100.083 103.197 100.083C103.253 100.083 103.31 100.08 103.37 100.066C104.47 99.976 105.287 99.0039 105.193 97.9015C104.86 93.9729 105.453 92.4663 107.37 88.4576C107.465 88.4268 107.599 88.3941 107.722 88.3639L107.761 88.3544C107.785 88.3486 107.808 88.3429 107.83 88.3374C108.063 88.2806 108.33 88.2138 108.607 88.1269C109.517 87.8429 110.42 87.5089 111.283 87.1448C112.188 86.7694 113.07 86.338 113.924 85.8532C114.375 86.8301 115.187 87.5308 116.247 87.8496C116.68 87.9799 117.133 88.0367 117.593 88.0367C119.33 88.0367 121.177 87.2116 122.373 86.2628C130.78 79.5783 135.953 68.9485 136.203 57.8277C136.443 47.1645 132.23 36.4245 124.637 28.3637C119.203 22.6011 112.96 19.5946 107.047 19.8986C105.943 19.9554 105.093 20.8974 105.15 22.0032C105.207 23.1089 106.147 23.9641 107.25 23.904C113.62 23.5833 119.057 28.2868 121.727 31.1196C128.603 38.4222 132.42 48.1233 132.203 57.7409C131.977 67.6858 127.373 77.1764 119.89 83.126C119.023 83.8109 117.937 84.0814 117.503 84.0347C117.435 83.8654 117.345 83.7102 117.239 83.5709C120.215 81.0632 122.287 77.812 123.113 74.3269C124.293 69.443 122.617 65.1904 118.737 63.2261C116.237 61.96 113.193 61.4255 107.933 66.0589C107.819 66.16 107.718 66.2713 107.632 66.3902C107.347 66.4653 107.052 66.4337 106.83 66.383C106.14 66.2226 105.453 65.7349 105.083 65.1369C104.373 63.9911 104.197 62.3074 104.557 60.1327C104.647 59.5689 104.763 59.0102 104.884 58.4254L104.884 58.4251L104.937 58.1718C105.26 56.6251 105.593 55.0283 105.61 53.2979C105.597 50.7824 104.89 48.3271 103.56 46.1924C102.23 44.0611 100.34 42.3441 98.0901 41.2283C97.6198 40.995 97.102 40.9645 96.6355 41.1032C96.6112 41.0776 96.5861 41.0525 96.5601 41.0279C95.7601 40.2662 94.4935 40.2996 93.7334 41.1047C91.7401 43.2126 89.2601 44.8729 86.5568 45.9118C83.8535 46.9507 80.8968 47.3716 78.0301 47.1378C76.1589 46.9724 74.3137 46.532 72.3621 46.0661L72.3034 46.0521C70.3734 45.5911 68.3734 45.1134 66.3034 44.8996C60.7834 44.335 56.0868 46.1323 53.7434 49.7101C53.3977 50.2403 53.3344 50.8748 53.5171 51.4343C52.5249 51.1312 51.4517 51.6417 51.0701 52.6264C49.9152 55.6019 48.9497 58.572 48.2569 61.231C47.6935 61.4228 47.221 61.8643 47.0101 62.4711C46.5735 63.7239 45.5401 64.7995 44.1701 65.4209C43.1801 65.8719 42.1301 66.0322 41.1601 65.8986C44.8301 62.1471 44.5068 56.6685 44.2201 51.8113C44.1401 50.4817 44.0668 49.2257 44.0668 48.013C44.0501 39.7284 48.3835 31.0762 56.9401 22.3005C60.2868 18.8697 65.4101 14.2931 71.2668 14.1327C72.6135 14.096 73.9901 14.2864 75.4501 14.4902C76.6001 14.6505 77.7901 14.8142 79.0135 14.871C80.7935 14.9512 82.5435 14.7942 84.2301 14.6405L84.2618 14.6377C85.8934 14.4917 87.4366 14.3537 88.9568 14.4267C91.4401 14.547 94.4668 15.5057 95.5135 17.8374C95.9668 18.8463 97.1501 19.2973 98.1568 18.843C99.1635 18.3886 99.6135 17.2027 99.1601 16.1939C97.3735 12.2119 92.8168 10.6017 89.1501 10.4247C87.3526 10.3382 85.5947 10.4965 83.8961 10.6495L83.8701 10.6518C82.2435 10.7988 80.7068 10.9358 79.1935 10.869C78.1749 10.8232 77.1499 10.6812 76.0653 10.531L75.9968 10.5215C74.4401 10.3044 72.8301 10.0806 71.1535 10.1273C63.8435 10.3244 57.9068 15.5692 54.0768 19.4977C44.7601 29.0485 40.0468 38.646 40.0635 48.0164C40.0635 49.2803 40.1392 50.5898 40.2126 51.861L40.2235 52.0485L40.2239 52.0552C40.4904 56.5892 40.7421 60.8722 38.0468 63.3364C37.3668 63.961 35.7768 65.4242 36.5301 67.4085C36.5535 67.4787 36.5835 67.5455 36.6168 67.609C36.8368 68.0399 37.1401 68.4174 37.5135 68.7281C37.8568 69.0154 38.2435 69.2292 38.6668 69.3661ZM65.1435 59.7319C65.1435 61.3001 64.0988 62.5714 62.8101 62.5714C61.5215 62.5714 60.4768 61.3001 60.4768 59.7319C60.4768 58.1637 61.5215 56.8924 62.8101 56.8924C64.0988 56.8924 65.1435 58.1637 65.1435 59.7319ZM76.4768 60.5169C76.4768 62.0851 75.4321 63.3564 74.1435 63.3564C72.8548 63.3564 71.8101 62.0851 71.8101 60.5169C71.8101 58.9487 72.8548 57.6774 74.1435 57.6774C75.4321 57.6774 76.4768 58.9487 76.4768 60.5169Z" fill="black"/>
</g>
<defs>
<clipPath id="clip0_805_38640">
<rect width="180" height="180" rx="24" fill="white"/>
</clipPath>
<clipPath id="clip1_805_38640">
<rect width="200" height="200.436" fill="white" transform="translate(-10 95.2734)"/>
</clipPath>
</defs>
</svg>
