<svg width="180" height="180" viewBox="0 0 180 180" fill="none" xmlns="http://www.w3.org/2000/svg">
<g clip-path="url(#clip0_567_716)">
<rect width="180" height="180" rx="24" fill="white"/>
<g clip-path="url(#clip1_567_716)">
<path fill-rule="evenodd" clip-rule="evenodd" d="M103.124 95.2729C103.424 98.6469 104.8 106.27 109.924 105.128L110.474 105.963C110.224 111.197 107.577 114.889 103.43 118.714C99.217 122.539 93.8436 124.837 88.1736 125.241C83.1736 125.609 77.857 124.41 74.117 121.049C70.377 117.688 68.4103 113.031 70.887 109.039H71.247C72.3736 109.073 73.4103 108.482 74.3636 107.88C75.0632 107.437 75.3317 106.001 75.5768 104.691C75.7568 103.728 75.9242 102.833 76.2403 102.448C77.2403 101.149 80.2336 96.8262 80.747 95.2695H103.124V95.2729ZM121.73 241.611C118.52 242.65 114.604 245.82 117.32 249.388C118.553 251.013 120.307 252.018 122.046 253.015C122.413 253.225 122.78 253.435 123.14 253.65C124.33 254.359 124.868 256.327 125.32 257.985C125.474 258.547 125.618 259.074 125.774 259.503C127.334 263.793 130.364 267.314 135.334 266.979C140.387 266.645 143.53 262.333 144.49 257.683C145.477 252.895 144.519 247.216 143.703 242.386C143.659 242.128 143.616 241.871 143.574 241.618L121.73 241.611ZM28.4503 237.669C27.7836 234.997 29.7836 232.992 32.117 232.12L48.6836 234.612C49.3303 240.241 48.027 245.015 46.4736 249.692C46.2205 250.458 46.0662 251.26 45.9126 252.059C45.6557 253.395 45.4005 254.722 44.687 255.855C43.547 257.666 41.477 258.558 39.2636 258.668C35.7636 258.812 31.4503 258.357 31.4503 253.704C31.4845 253.156 31.5257 252.597 31.5674 252.031C31.9327 247.078 32.3391 241.566 28.4503 237.669Z" fill="#FFD39F"/>
<path d="M56.567 199.756C55.6637 208.825 54.2537 217.835 52.3337 226.744C50.6637 225.999 48.8604 225.595 47.0337 225.558L42.7004 225.274C39.3137 224.86 36.5937 224.449 33.207 224.038C34.6104 208.521 36.4104 193.044 38.607 177.604C40.517 164.158 42.7404 150.709 46.687 137.717C50.1937 126.172 55.757 114.233 66.3204 108.444L67.5504 106.536L77.8004 98.2516C78.417 99.2705 77.9437 100.59 77.577 100.256L76.1937 105.207C76.0137 105.714 75.9437 106.256 75.9804 106.794C76.207 108.35 78.057 108.992 79.5904 109.316L81.0004 109.443C87.5104 106.77 92.4137 104.295 97.3137 101.816C101.007 99.9486 104.82 98.0478 108.947 97.7305L110.52 103.293C116.417 104.876 120.99 109.429 124.674 114.093C128.69 119.184 131.84 124.903 134 131.02C135.21 134.437 137.124 138.282 137.914 141.816L138.967 145.05C145.547 173.445 145.894 202.872 146.207 232.026L117.187 231.548C115.9 221.73 114.887 211.885 114.147 202.007L112.857 202.051C99.917 203.704 86.647 202.321 74.147 200.731C67.517 201.529 60.7437 201.032 54.4537 199.001" fill="black"/>
<path fill-rule="evenodd" clip-rule="evenodd" d="M81.0005 109.443L84.1938 123.333L84.2246 123.322C89.291 121.538 94.3702 119.75 99.1938 117.387C100.934 116.535 102.68 115.573 103.94 114.099C105.43 112.359 106.097 110.091 106.727 107.876L106.755 107.778L106.755 107.778C107.692 104.47 108.63 101.161 108.94 97.7305C104.814 98.0478 101 99.9486 97.3071 101.816L97.1502 101.895C92.299 104.344 87.4311 106.802 81.0005 109.443ZM32.7305 232.002C32.9438 229.514 33.2105 226.54 34.2771 224.282L51.5838 225.886C51.3905 228.294 50.1838 231.662 49.2738 233.903C49.2571 233.967 49.2205 234.023 49.1705 234.067C49.0871 234.11 48.9905 234.124 48.9005 234.097C47.4315 233.864 45.2888 233.657 43.0023 233.436C39.1351 233.064 34.8566 232.651 32.7305 232.002ZM118.334 239.586C118.154 236.983 118.327 234.371 118.854 231.815L143.43 232.159L143.67 238.316C143.694 239.068 143.644 239.956 143.004 240.32C142.69 240.464 142.347 240.528 142.004 240.501L119.337 240.564C119.094 240.591 118.847 240.534 118.637 240.407C118.534 240.297 118.454 240.167 118.4 240.026C118.347 239.886 118.327 239.736 118.334 239.586ZM76.1838 105.207L77.5672 100.256C77.9338 100.563 78.4071 99.2605 77.7871 98.2416L67.5371 106.526C67.2905 109.052 67.5805 111.601 68.3938 114.006C69.2071 116.411 70.5205 118.613 72.2471 120.47C75.3671 117.246 77.8571 113.461 79.5805 109.316C78.0471 108.992 76.1971 108.35 75.9705 106.794C75.9338 106.256 76.0038 105.715 76.1838 105.207Z" fill="white"/>
<path fill-rule="evenodd" clip-rule="evenodd" d="M84.1933 125.337C83.86 125.337 83.5266 125.254 83.23 125.09C82.73 124.816 82.3733 124.338 82.2466 123.784L81.2742 119.554C80.5981 130.978 79.8326 142.45 79.0867 153.612L79.0541 154.1L79.0541 154.1L79.0541 154.101L79.0541 154.101L79.054 154.101C78.0714 168.84 77.0567 184.06 76.2636 199.017C89.5357 201.064 101.254 201.422 112.011 200.113C110.608 180.296 110.302 160.376 111.103 140.587C111.147 139.481 112.08 138.619 113.183 138.666C114.287 138.71 115.147 139.645 115.1 140.751C113.903 170.325 115.197 200.193 118.947 229.557L144.183 229.971C144.174 228.943 144.165 227.919 144.156 226.899C144.147 225.787 144.137 224.68 144.127 223.577L144.126 223.552C143.92 198.394 143.725 174.626 137.843 149.226C137.593 148.147 138.263 147.071 139.34 146.821C140.413 146.57 141.49 147.242 141.74 148.321C147.718 174.152 147.917 198.135 148.126 223.521V223.522L148.127 223.544L148.129 223.794L148.129 223.8C148.151 226.502 148.174 229.227 148.203 231.986C148.21 232.527 147.997 233.048 147.613 233.429C147.243 233.803 146.733 234.013 146.207 234.013H146.173L145.502 234.002L145.667 238.236C145.684 238.757 145.723 240.038 145.041 241.079C145.293 241.354 145.472 241.704 145.54 242.101L145.598 242.443L145.599 242.445C145.666 242.841 145.734 243.239 145.803 243.634L145.806 243.651C146.619 248.34 147.459 253.188 146.45 258.082C145.157 264.343 140.847 268.619 135.467 268.973C135.21 268.996 134.953 269.003 134.703 269.003C129.86 269.003 125.947 265.829 123.897 260.187C123.713 259.679 123.557 259.111 123.393 258.513L123.388 258.496C123.152 257.634 122.613 255.665 122.12 255.373C121.767 255.163 121.413 254.959 121.057 254.755C119.253 253.723 117.21 252.55 115.73 250.6C114.127 248.495 114.247 246.598 114.627 245.378C115.068 243.968 116.069 242.797 117.278 241.881C117.248 241.853 117.218 241.824 117.19 241.794C116.897 241.483 116.67 241.126 116.523 240.725C116.393 240.377 116.33 240.01 116.33 239.636C116.192 237.564 116.265 235.485 116.548 233.431C115.841 233.192 115.306 232.567 115.203 231.792C114 222.608 113.035 213.374 112.31 204.114C107.999 204.635 103.538 204.893 98.9 204.893C91.1833 204.893 82.97 204.175 74.1 202.732C68.7217 203.351 63.3552 203.122 58.3332 202.073C57.4217 210.482 56.0639 218.912 54.2833 227.169C54.1164 227.954 53.5001 228.542 52.7467 228.702C52.4513 230.724 51.9164 232.702 51.15 234.601C51.0262 234.946 50.8258 235.259 50.5611 235.513L48.4567 249.982C48.15 252.096 47.7667 254.725 46.3833 256.927C44.98 259.155 42.4233 260.518 39.3667 260.671C39.0133 260.685 38.64 260.695 38.2533 260.695C35.98 260.695 33.2 260.351 31.3367 258.56C30.0867 257.358 29.45 255.724 29.45 253.706C29.45 253.666 29.45 253.623 29.4533 253.583C29.4849 253.058 29.5254 252.52 29.5664 251.977L29.5733 251.886C29.92 247.192 30.2767 242.338 27.0367 239.088C26.78 238.831 26.6 238.51 26.51 238.156C25.7227 235 27.4576 231.976 30.8527 230.473C31.0043 228.841 31.2337 227.117 31.7778 225.442C31.3694 225.035 31.1394 224.456 31.1967 223.838C32.5967 208.348 34.4167 192.69 36.61 177.3C38.4633 164.255 40.7333 150.358 44.7567 137.113C49.54 121.425 56.0833 111.754 65.3533 106.673C65.4091 106.643 65.4656 106.615 65.5228 106.59C65.5302 106.503 65.5381 106.416 65.5467 106.329C65.6 105.795 65.8633 105.3 66.2833 104.963L76.5333 96.6783C76.9833 96.3175 77.5633 96.1638 78.13 96.2641C78.6967 96.3643 79.1933 96.7017 79.4933 97.1961C80.37 98.6359 80.25 100.61 79.26 101.626L78.11 105.745C78.1033 105.766 78.0967 105.787 78.09 105.808C78.0833 105.829 78.0767 105.85 78.07 105.872C77.9967 106.082 77.96 106.299 77.96 106.52C78.0233 106.61 78.41 107.017 79.9933 107.351C80.1512 107.385 80.3027 107.437 80.4452 107.506C86.7074 104.924 91.5603 102.475 96.2566 100.102L96.41 100.025C100.063 98.1781 104.207 96.0836 108.79 95.7328C109.377 95.6861 109.953 95.9032 110.367 96.3241C110.78 96.745 110.987 97.3263 110.933 97.9109C110.83 99.0513 110.662 100.176 110.451 101.285C110.644 101.278 110.841 101.3 111.037 101.352C118.007 103.223 123.053 108.808 126.24 112.843C130.4 118.118 133.647 124.008 135.883 130.345C136.275 131.45 136.744 132.602 137.241 133.82L137.287 133.933C138.283 136.375 139.31 138.9 139.863 141.372C140.103 142.451 139.427 143.523 138.35 143.767C138.203 143.801 138.057 143.817 137.91 143.817C136.993 143.817 136.17 143.183 135.96 142.251C135.48 140.106 134.517 137.741 133.583 135.453C133.073 134.207 132.55 132.917 132.113 131.688C130.023 125.762 126.99 120.26 123.103 115.332C120.27 111.741 115.827 106.79 110 105.224C109.852 105.184 109.712 105.128 109.582 105.059C109.295 106.154 108.988 107.236 108.685 108.307L108.685 108.307L108.68 108.324L108.653 108.42C108.037 110.592 107.267 113.291 105.46 115.402C103.98 117.133 101.997 118.245 100.073 119.184C95.1466 121.596 89.9366 123.433 84.8966 125.207L84.8566 125.22C84.64 125.3 84.4166 125.337 84.1933 125.337ZM35.6923 226.362C35.2332 227.629 35.016 229.03 34.8733 230.446C37.0633 230.85 40.28 231.161 43.19 231.441C44.89 231.605 46.52 231.762 47.8733 231.932C48.2805 230.73 48.5805 229.496 48.7709 228.242C48.607 228.213 48.4435 228.185 48.2806 228.156L48.2803 228.156L48.2133 228.144L48.0698 228.119L48.0693 228.119C47.2093 227.968 46.3978 227.825 45.7 227.736L40.7533 227.032C39.3293 226.858 38.306 226.719 37.365 226.59L36.8767 226.524L36.6462 226.492C36.3317 226.449 36.0184 226.406 35.6923 226.362ZM32.6579 234.063C32.004 234.334 30.266 235.2 30.3267 236.739C34.3685 241.241 33.9236 247.285 33.5637 252.174L33.5633 252.18L33.5601 252.223C33.5212 252.743 33.4825 253.259 33.4533 253.763C33.4666 255.049 33.9476 255.511 34.1088 255.666L34.11 255.667C34.9067 256.436 36.6167 256.77 39.1867 256.666C40.9067 256.579 42.3033 255.894 43 254.785C43.9293 253.312 44.2175 251.338 44.4964 249.428L44.5 249.404L46.4785 235.801C45.4044 235.681 44.1821 235.563 42.9162 235.44L42.8067 235.43C38.9891 235.063 35.0532 234.682 32.6579 234.063ZM53.84 200.885C54.0321 200.947 54.2249 201.008 54.4184 201.067C53.5872 208.913 52.3574 216.787 50.7567 224.516C50.1467 224.419 49.5233 224.309 48.9067 224.199C47.9467 224.028 47.04 223.868 46.2367 223.765L41.2967 223.06L41.2966 223.06C41.2833 223.056 41.27 223.053 41.2567 223.053C39.7335 222.865 38.6743 222.72 37.6778 222.583L37.6766 222.583L37.4233 222.549C36.78 222.458 36.1267 222.368 35.3533 222.268C36.7233 207.476 38.4767 192.55 40.5667 177.865C42.3967 164.98 44.6367 151.267 48.58 138.282C52.7424 124.629 58.1987 115.941 65.6576 111.149C65.8306 112.331 66.1115 113.499 66.5 114.647C67.41 117.34 68.85 119.758 70.7833 121.836C71.1567 122.237 71.68 122.468 72.2267 122.474H72.2467C72.7867 122.474 73.3067 122.254 73.6833 121.863C75.0408 120.462 76.2794 118.968 77.3945 117.39C76.7011 129.267 75.9044 141.224 75.1294 152.853L75.1293 152.854L75.0967 153.345L75.0635 153.843L75.0634 153.843V153.843C74.0792 168.619 73.0629 183.877 72.2661 198.886C66.2775 199.401 60.3612 198.778 55.0667 197.07C54.5567 196.906 54.34 196.779 54.2533 196.719C54.2211 196.522 54.2605 196.082 54.2782 195.884L54.28 195.864C55.6929 180.665 57.1119 165.47 58.5311 150.272L58.7233 148.214C59.1433 143.734 59.0933 138.225 54.99 135.379C54.08 134.748 52.8333 134.975 52.2066 135.887C51.5766 136.799 51.8033 138.048 52.7133 138.676C55.1133 140.336 55.0567 144.445 54.74 147.839C53.2567 163.721 51.7733 179.605 50.2966 195.49L50.2965 195.492C50.2231 196.287 50.1006 197.615 50.8333 198.824C51.57 200.036 52.9 200.581 53.84 200.885ZM83.33 110.642L85.64 120.697C89.9133 119.18 94.2566 117.574 98.3133 115.586C99.7466 114.884 101.36 114.033 102.42 112.797C103.657 111.35 104.24 109.306 104.803 107.328L104.83 107.231L104.836 107.208C105.521 104.791 106.178 102.47 106.597 100.132C103.707 100.827 100.92 102.234 98.2066 103.607L98.0533 103.683L98.0214 103.7L98.0214 103.7C93.6113 105.926 89.0628 108.222 83.33 110.642ZM141.567 242.506L123.459 242.557C123.26 243.13 122.805 243.606 122.183 243.805C120.33 244.406 118.757 245.572 118.44 246.577C118.38 246.768 118.223 247.272 118.907 248.171C119.897 249.474 121.42 250.349 123.037 251.274L123.17 251.351L123.308 251.431L123.31 251.431L123.31 251.432L123.311 251.432C123.596 251.596 123.88 251.759 124.16 251.926C126.042 253.044 126.709 255.486 127.245 257.449L127.247 257.454L127.279 257.571C127.41 258.045 127.533 258.49 127.65 258.814C128.73 261.784 130.91 265.255 135.197 264.977C138.013 264.79 141.413 262.669 142.53 257.274C143.386 253.125 142.611 248.655 141.862 244.332L141.86 244.323C141.77 243.801 141.68 243.284 141.593 242.769C141.579 242.681 141.57 242.593 141.567 242.506ZM141.496 233.936L120.565 233.592C120.315 235.236 120.22 236.901 120.28 238.563L141.673 238.503V238.502C141.673 238.484 141.673 238.465 141.673 238.445C141.672 238.425 141.672 238.404 141.67 238.383L141.496 233.936ZM70.2867 113.365C69.65 111.477 69.3733 109.52 69.4667 107.542L74.6133 103.38L74.27 104.609C74.0133 105.36 73.9133 106.142 73.97 106.937C73.973 106.982 73.9786 107.024 73.9846 107.069L73.9867 107.084C74.21 108.601 75.1633 109.757 76.83 110.532C75.6133 113 74.1067 115.299 72.3267 117.4C71.46 116.167 70.7767 114.814 70.2867 113.365Z" fill="black"/>
</g>
<path d="M50.493 87.6528C49.9497 88.5548 49.1797 89.2998 48.263 89.8109C47.343 90.322 46.3064 90.5826 45.2564 90.5692C44.2064 90.5525 43.1764 90.2618 42.273 89.724C41.3697 89.1862 40.623 88.4212 40.103 87.5025C39.0864 85.6953 38.6464 83.0629 36.6164 82.6653C34.9297 82.3313 33.553 83.898 32.283 85.0572C30.7664 86.4302 28.7997 87.419 26.7564 87.3689C24.713 87.3188 22.6364 86.0627 22.0097 84.1118C21.113 81.3291 23.2297 78.4629 23.213 75.5432C23.253 74.7548 22.993 73.9831 22.4864 73.3785C21.3097 72.1558 19.2964 72.7738 17.6097 72.6135C14.083 72.2794 11.943 68.0101 12.8097 64.5693C13.6764 61.1285 16.653 58.603 19.8097 56.9995C22.9664 55.396 26.443 54.4774 29.5864 52.8338C33.483 50.786 36.7397 47.6993 38.9997 43.9144C40.7597 40.9647 41.8697 37.6508 43.7364 34.7679C47.0697 29.6367 52.5464 26.2627 58.243 24.0546C63.9397 21.8465 69.9664 20.6539 75.7997 18.8466C80.1797 17.4903 84.623 15.7666 89.1864 16.1741C92.2097 16.4447 95.393 17.9346 96.5197 20.7541L104.336 23.5101C113.576 23.8842 122.42 29.5699 126.61 37.8345C128.05 40.6674 129.003 43.8142 131.07 46.2261C133.903 49.5333 138.736 51.3907 139.896 55.5798C141.433 61.1085 135.496 66.0425 135.13 71.7683C134.923 74.9853 136.463 78.513 134.796 81.269C133.353 83.6475 130.13 84.2922 128.3 86.3901C126.116 88.8889 126.19 93.1214 123.37 94.8652C122.26 95.55 117.966 96.3584 116.786 95.8139C111.946 93.5857 111.436 96.5923 107.343 96.9798" fill="black"/>
<path d="M103.213 100.093C102.833 95.5202 103.68 91.5983 105.667 87.4627C106.117 86.5273 107.083 86.5373 108.04 86.2333C108.89 85.9661 109.723 85.6587 110.547 85.3113C112.217 84.6165 113.793 83.7179 115.247 82.6388C118.12 80.4641 120.36 77.4108 121.2 73.8698C121.963 70.6595 121.427 66.8378 117.867 65.0306C115.357 63.7611 113.107 64.2121 109.283 67.5794L106.313 66.8278C102.52 66.5973 99.53 63.2701 98.2866 59.6756C97.0433 56.0811 97.1233 52.1826 96.8466 48.3877C96.7233 46.694 96.4566 44.86 95.2333 43.6841C93.9 42.408 91.87 42.3112 90.03 42.2844L87.0966 41.2823C85.9666 40.0563 84.5833 39.0908 83.0466 38.4461C81.51 37.8047 79.8533 37.5007 78.1866 37.5575C76.5233 37.6143 74.89 38.0285 73.4 38.7735C71.91 39.5184 70.5966 40.5774 69.55 41.8769C68.3 43.4303 67.3566 45.3845 65.55 46.2364C63.7433 47.0882 61.6933 46.5938 59.73 46.6306C57.7666 46.6673 55.4266 47.733 55.3766 49.6972L52.9566 53.3719C50.8066 58.9139 49.5133 63.9181 49.1866 66.9481C48.3633 74.578 49.9 83.0564 55.7233 88.4916C58.8266 91.3845 62.67 92.8076 66.78 93.5325C71.0666 94.2908 75.6666 94.9823 79.8266 93.2786C79.6066 96.7562 79.5733 99.2383 79.7333 102.719" fill="#FFD39F"/>
<path d="M45.343 92.5836C45.303 92.5836 45.2663 92.5836 45.2263 92.5836C43.8296 92.5635 42.453 92.176 41.2496 91.4578C40.0463 90.7429 39.0496 89.7207 38.3596 88.5014C38.033 87.9201 37.7763 87.3155 37.5263 86.7342C37.1263 85.7955 36.6763 84.7332 36.2296 84.6463C35.763 84.5528 34.773 85.4848 34.1163 86.0995C33.9496 86.2565 33.7863 86.4102 33.623 86.5572C31.5296 88.4379 29.0796 89.4401 26.7063 89.3866C23.673 89.3165 20.9596 87.4057 20.103 84.7399C19.3863 82.5217 20.0163 80.4338 20.573 78.5898C20.8996 77.5008 21.2096 76.4752 21.2096 75.5566C21.2096 75.5232 21.2096 75.4864 21.213 75.453C21.2263 75.2025 21.153 74.9586 21.0096 74.7548C20.7496 74.5744 19.8863 74.6112 19.2496 74.6346C18.663 74.6579 18.0563 74.6813 17.4196 74.6212C15.403 74.4308 13.5863 73.3317 12.3063 71.5211C10.8063 69.3998 10.2563 66.557 10.8696 64.0983C11.7496 60.5606 14.603 57.4071 18.9063 55.2257C20.533 54.4006 22.2196 53.7525 23.8496 53.1278C25.5463 52.4764 27.1463 51.8617 28.6596 51.07C32.2363 49.1926 35.2263 46.3631 37.303 42.8889C38.063 41.6161 38.6963 40.2632 39.3663 38.8301C40.1696 37.1197 40.9963 35.3492 42.0763 33.6789C45.243 28.7949 50.4463 24.9298 57.5396 22.1872C61.1896 20.7775 64.983 19.7653 68.6496 18.7831C70.8196 18.2019 73.063 17.6039 75.2263 16.9325C75.8263 16.7454 76.4263 16.555 77.0263 16.3612C80.9696 15.0951 85.0463 13.789 89.3829 14.1798C92.723 14.4805 96.8463 16.1708 98.393 20.0058C98.8063 21.0314 98.313 22.2006 97.2863 22.6148C96.2629 23.029 95.0963 22.5346 94.6829 21.5057C93.8096 19.341 91.0896 18.3589 89.023 18.1718C85.493 17.8545 81.973 18.9836 78.243 20.1795C77.6296 20.3766 77.0163 20.5737 76.4063 20.7641C74.1696 21.4556 71.8863 22.067 69.6796 22.6582C66.113 23.6103 62.4263 24.5958 58.9796 25.9287C52.6863 28.3606 48.1263 31.7046 45.4296 35.8636C44.4996 37.3001 43.763 38.8701 42.9863 40.5338C42.303 41.9903 41.5963 43.5002 40.733 44.9467C38.2796 49.0556 34.743 52.4029 30.5096 54.6244C28.7896 55.523 27.003 56.2078 25.2763 56.8726C23.6696 57.4873 22.153 58.0719 20.7096 58.8035C18.8263 59.7589 15.5496 61.8434 14.7463 65.0704C14.413 66.4067 14.7363 68.0302 15.5663 69.2061C15.9863 69.8007 16.7163 70.5323 17.793 70.6325C18.163 70.6693 18.613 70.6492 19.0896 70.6325C20.5196 70.5757 22.4763 70.4989 23.923 72.0022C23.953 72.0356 23.983 72.0657 24.013 72.1024C24.8396 73.0845 25.263 74.3272 25.2096 75.61C25.1996 77.1033 24.7763 78.5097 24.3996 79.7524C23.9563 81.2189 23.5763 82.4816 23.9096 83.5105C24.243 84.5461 25.483 85.3512 26.7996 85.3813C28.1563 85.4046 29.6196 84.7733 30.9463 83.5807C31.0863 83.4537 31.2363 83.3134 31.3896 83.1698C32.7163 81.9271 34.5363 80.2234 37.0063 80.7145C39.5296 81.2089 40.4996 83.4938 41.2096 85.1641C41.4263 85.6685 41.6263 86.1463 41.8463 86.5338C42.1896 87.1451 42.6896 87.6562 43.293 88.0136C43.8963 88.3711 44.583 88.5682 45.283 88.5782C45.9863 88.5882 46.6763 88.4145 47.2896 88.0738C47.903 87.733 48.4163 87.2353 48.7796 86.634C49.3496 85.6853 50.5796 85.3813 51.5263 85.9525C52.473 86.5237 52.7763 87.7564 52.2063 88.7052C51.483 89.9044 50.4563 90.8966 49.233 91.5781C48.043 92.2362 46.6996 92.5836 45.343 92.5836Z" fill="black"/>
<path d="M107.359 98.9878C106.339 98.9878 105.469 98.2095 105.369 97.1705C105.265 96.0681 106.072 95.0894 107.172 94.9858C108.332 94.8756 109.092 94.5014 109.972 94.0638C111.729 93.1952 113.715 92.2097 117.572 93.9636C118.462 94.1506 121.625 93.566 122.345 93.1551C123.355 92.5304 123.869 91.1508 124.465 89.5573C125.012 88.0908 125.632 86.4272 126.815 85.0709C127.852 83.885 129.169 83.1066 130.335 82.4252C131.539 81.7169 132.579 81.1056 133.109 80.2304C133.822 79.0478 133.619 77.4076 133.385 75.5068C133.232 74.2607 133.072 72.9713 133.155 71.6417C133.342 68.7321 134.662 66.1832 135.939 63.7178C137.392 60.9117 138.649 58.4864 137.992 56.1213C137.435 54.1069 135.615 52.6905 133.509 51.0536C132.149 49.9946 130.745 48.9023 129.572 47.536C127.939 45.6318 126.965 43.4204 126.019 41.2824C125.629 40.3971 125.259 39.5586 124.845 38.7469C121.005 31.1737 112.739 25.8588 104.272 25.5148C103.169 25.4713 102.309 24.536 102.355 23.4302C102.399 22.3245 103.339 21.466 104.435 21.5094C114.455 21.9136 123.869 27.9668 128.412 36.9296C128.872 37.8349 129.282 38.7636 129.679 39.6588C130.542 41.6164 131.359 43.4671 132.609 44.9236C133.515 45.9826 134.705 46.9079 135.962 47.8867C138.292 49.7007 140.932 51.7551 141.845 55.0456C142.925 58.9307 141.099 62.4551 139.489 65.5652C138.352 67.7599 137.279 69.8311 137.145 71.8989C137.085 72.851 137.215 73.9 137.352 75.0124C137.639 77.3207 137.962 79.9364 136.525 82.3082C135.469 84.052 133.815 85.0241 132.355 85.8793C131.365 86.4606 130.432 87.0084 129.822 87.71C129.119 88.5151 128.679 89.701 128.209 90.957C127.465 92.9547 126.622 95.2196 124.435 96.5726C122.992 97.4612 117.959 98.5569 115.965 97.6349C113.799 96.636 113.155 96.9567 111.742 97.6583C110.719 98.166 109.442 98.7974 107.549 98.9778C107.485 98.9845 107.422 98.9878 107.359 98.9878ZM117.639 93.9936C117.639 93.997 117.639 93.997 117.639 93.9936C117.639 93.997 117.639 93.997 117.639 93.9936Z" fill="black"/>
<path d="M55.3457 51.7033C55.3291 51.7033 55.3124 51.7033 55.2924 51.7033C54.1891 51.6766 53.3157 50.7546 53.3424 49.6489C53.4224 46.4653 56.6557 44.6847 59.6591 44.628C60.2924 44.6146 60.9024 44.6513 61.4924 44.6847C62.7457 44.7582 63.8291 44.8184 64.6657 44.4242C65.5157 44.0233 66.1757 43.0913 66.9357 42.0089C67.2591 41.5513 67.5891 41.0802 67.9624 40.6192C69.1957 39.0859 70.7157 37.8633 72.4757 36.9813C74.2357 36.1028 76.1257 35.6217 78.0891 35.5549C80.0557 35.4881 81.9724 35.8389 83.7857 36.5972C85.5991 37.3555 87.1991 38.4746 88.5324 39.9211C89.2824 40.7328 89.2324 42.0022 88.4224 42.7539C87.6124 43.5055 86.3457 43.4554 85.5957 42.6436C84.6524 41.6214 83.5257 40.833 82.2424 40.2985C80.9624 39.764 79.6057 39.5135 78.2224 39.5636C76.8357 39.6104 75.5024 39.9478 74.2591 40.5691C73.0157 41.1905 71.9457 42.0557 71.0724 43.138C70.7824 43.4988 70.4991 43.8997 70.2024 44.324C69.2524 45.6736 68.1757 47.2002 66.3691 48.0521C64.6157 48.8805 62.8357 48.777 61.2657 48.6868C60.7257 48.6567 60.2157 48.6266 59.7357 48.6367C58.4857 48.6601 57.3557 49.2781 57.3457 49.7491C57.3191 50.8381 56.4291 51.7033 55.3457 51.7033Z" fill="black"/>
<path d="M106.286 68.8179C106.246 68.8179 106.202 68.8179 106.162 68.8146C102.932 68.6175 98.4255 66.2757 96.3655 60.3194C95.2922 57.216 95.1255 54.0157 94.9622 50.919C94.9222 50.1273 94.8788 49.3122 94.8222 48.5205C94.7222 47.1575 94.5322 45.8046 93.8188 45.1164C93.0522 44.3781 91.5589 44.298 89.9722 44.2746C88.8689 44.2579 87.9855 43.3492 88.0022 42.2402C88.0189 41.1344 88.9289 40.2492 90.0322 40.2659C91.8589 40.2926 94.6222 40.3327 96.5888 42.2234C98.2822 43.8537 98.6655 46.172 98.8155 48.2298C98.8755 49.0583 98.9189 49.8968 98.9622 50.7086C99.1155 53.655 99.2622 56.441 100.149 59.0066C101.102 61.7659 103.409 64.6322 106.406 64.8159C107.509 64.8827 108.349 65.8314 108.282 66.9372C108.216 67.9995 107.332 68.8179 106.286 68.8179Z" fill="black"/>
<path d="M62.8099 62.5696C64.0986 62.5696 65.1432 61.2983 65.1432 59.7301C65.1432 58.1619 64.0986 56.8906 62.8099 56.8906C61.5212 56.8906 60.4766 58.1619 60.4766 59.7301C60.4766 61.2983 61.5212 62.5696 62.8099 62.5696Z" fill="black"/>
<path d="M74.1439 63.3548C75.4325 63.3548 76.4772 62.0835 76.4772 60.5153C76.4772 58.9471 75.4325 57.6758 74.1439 57.6758C72.8552 57.6758 71.8105 58.9471 71.8105 60.5153C71.8105 62.0835 72.8552 63.3548 74.1439 63.3548Z" fill="black"/>
<path d="M103.196 100.081C102.17 100.081 101.293 99.2927 101.206 98.2438C100.783 93.2128 101.76 90.9112 103.833 86.5818C104.593 85.0017 106.03 84.6542 106.89 84.4471C107.076 84.4003 107.253 84.3603 107.406 84.3101C108.2 84.0596 108.983 83.7723 109.74 83.4516C111.27 82.8169 112.706 81.9985 114.026 81.0163C116.686 79.0019 118.54 76.2927 119.226 73.3931C119.58 71.9332 120.06 68.3855 116.936 66.8054C115.573 66.1139 114.236 65.8433 110.573 69.0704C109.743 69.8019 108.48 69.7184 107.75 68.8866C107.02 68.0548 107.103 66.7887 107.933 66.0571C113.193 61.4237 116.233 61.9582 118.736 63.2243C122.616 65.1886 124.293 69.4412 123.113 74.3251C122.213 78.12 119.836 81.6377 116.423 84.22C114.83 85.4059 113.103 86.388 111.283 87.143C110.42 87.5071 109.516 87.8412 108.606 88.1251C108.33 88.212 108.063 88.2788 107.83 88.3356C107.683 88.3723 107.493 88.4157 107.37 88.4558C105.453 92.4645 104.86 93.9711 105.193 97.8997C105.286 99.0021 104.47 99.9709 103.37 100.064C103.31 100.078 103.253 100.081 103.196 100.081Z" fill="black"/>
<path d="M79.7126 103.036C78.6493 103.036 77.766 102.197 77.716 101.122C77.6093 98.7698 77.586 97.5873 77.6526 95.9738C73.646 96.7488 69.566 96.0372 66.4193 95.486C61.336 94.5874 57.386 92.7735 54.3426 89.9373C48.7493 84.716 46.1393 76.2509 47.1793 66.7068C47.5693 63.1691 49.0226 57.9043 51.0726 52.6229C51.4726 51.5906 52.6326 51.0795 53.6626 51.4804C54.6926 51.8813 55.2026 53.0438 54.8026 54.076C52.5293 59.9354 51.4293 64.669 51.156 67.1444C50.2526 75.4124 52.406 82.6515 57.0693 87.0009C59.5626 89.326 62.7526 90.7658 67.1093 91.5341C71.5626 92.3125 75.5393 92.8369 79.0526 91.3971C79.6893 91.1366 80.416 91.2234 80.976 91.6243C81.536 92.0285 81.8493 92.69 81.806 93.3781C81.5926 96.7388 81.556 97.4804 81.716 100.928C81.766 102.034 80.9126 102.972 79.8093 103.022C79.7726 103.036 79.7426 103.036 79.7126 103.036Z" fill="black"/>
</g>
<defs>
<clipPath id="clip0_567_716">
<rect width="180" height="180" rx="24" fill="white"/>
</clipPath>
<clipPath id="clip1_567_716">
<rect width="200" height="200.436" fill="white" transform="translate(-10 95.2734)"/>
</clipPath>
</defs>
</svg>
