<svg width="180" height="180" viewBox="0 0 180 180" fill="none" xmlns="http://www.w3.org/2000/svg">
<g clip-path="url(#clip0_805_37773)">
<rect width="180" height="180" rx="24" fill="white"/>
<g clip-path="url(#clip1_805_37773)">
<path d="M103.124 95.2734C103.424 98.6474 104.8 106.271 109.924 105.128L110.474 105.963C110.224 111.198 107.577 114.889 103.43 118.714C99.2171 122.539 93.8437 124.838 88.1737 125.242C83.1737 125.609 77.8571 124.41 74.1171 121.049C70.3771 117.689 68.4104 113.032 70.8871 109.04H71.2471C72.3737 109.073 73.4104 108.482 74.3637 107.881C75.5771 107.113 78.0804 103.962 78.8304 103.057C79.8304 101.758 80.2371 96.8302 80.7504 95.2734H103.124V95.2734Z" fill="#FFD39F"/>
<path fill-rule="evenodd" clip-rule="evenodd" d="M38.0931 224.649C39.6121 224.805 41.1229 224.959 42.6904 225.258L42.8504 225.278L40.5671 245.007L40.5653 245.023C40.0659 249.331 39.5669 253.635 39.3771 257.972C39.3304 259.065 39.3271 260.244 39.9538 261.139C40.7104 262.231 42.1304 262.562 43.4238 262.809L57.7571 265.559L61.9471 266.05C84.1571 269.805 106.407 268.829 128.577 264.844L144.067 261.754C145.481 261.314 147.029 261.12 148.589 260.925C151.864 260.516 155.193 260.1 157.45 257.384C157.724 256.753 157.837 256.065 157.784 255.38C156.82 250.741 153.847 242.413 151.115 234.759C149.125 229.183 147.263 223.965 146.397 220.791L146.064 220.247C145.687 194.972 144.664 169.623 138.967 145.047L137.907 141.836C135.107 132.783 131.44 124.098 126.28 116.251L125.614 109.837C125.627 108.791 125.364 107.756 124.85 106.844C124.337 105.932 123.594 105.17 122.694 104.635C121.794 104.101 120.77 103.817 119.724 103.807C118.677 103.797 117.647 104.064 116.737 104.582C117.95 102.979 117.347 100.466 115.764 99.2371C114.18 98.0078 111.944 97.9042 110.034 98.5055C108.124 99.1068 106.477 100.326 104.91 101.576C103.776 102.483 102.653 103.426 101.528 104.37C96.8015 108.338 92.0305 112.344 86.1504 113.962L82.2104 112.726C80.0138 112.232 78.5404 110.164 77.6804 108.083C77.3824 107.362 77.134 106.618 76.8859 105.875C76.418 104.474 75.951 103.076 75.1538 101.836C73.9338 99.9386 71.6271 98.4587 69.4871 99.1469C66.8638 99.9887 66.1471 103.283 65.6604 106.002C65.6171 106.416 65.4738 106.817 65.2404 107.161C64.8674 107.626 64.2377 107.76 63.6483 107.886C63.6111 107.893 63.574 107.901 63.5371 107.909C62.2038 108.197 60.8471 108.711 59.8704 109.683C58.8938 110.655 58.3538 112.155 58.8004 113.461L57.1138 116.254C56.1804 117.306 53.7804 120.747 53.7804 120.747C47.6156 131.153 45.2408 141.875 42.6593 153.529C42.5888 153.848 42.5181 154.167 42.4471 154.487C37.8245 176.415 35.7661 197.201 33.6378 218.693C33.4641 220.448 33.2899 222.207 33.1138 223.972C34.836 224.317 36.4693 224.484 38.0931 224.649ZM41.4771 233.335C38.5138 233.315 35.5671 232.864 32.7305 231.999C32.9305 229.51 33.1471 226.955 34.2171 224.7L42.4605 225.622L41.4771 233.335Z" fill="black"/>
<path fill-rule="evenodd" clip-rule="evenodd" d="M93.0267 125.985C93.0967 127.048 93.9767 127.859 95.02 127.859C95.0667 127.859 95.11 127.859 95.15 127.849C104.067 127.265 112.797 124.465 120.4 119.762C121.97 118.792 123.286 117.778 124.346 116.723C124.4 116.937 124.489 117.145 124.617 117.34C129.23 124.355 132.953 132.56 136.003 142.418C136.27 143.28 137.06 143.831 137.913 143.831C138.11 143.831 138.31 143.801 138.503 143.741C139.56 143.413 140.15 142.291 139.823 141.232C136.66 131.006 132.78 122.471 127.957 115.135C127.581 114.562 126.962 114.246 126.325 114.234C127.158 112.838 127.587 111.383 127.607 109.874C127.623 108.474 127.27 107.091 126.587 105.872C125.903 104.652 124.907 103.63 123.703 102.918C122.503 102.207 121.13 101.826 119.733 101.813C119.6 101.813 119.47 101.813 119.337 101.819C119.143 100.249 118.333 98.7127 116.98 97.6637C115.01 96.1337 112.183 95.7362 109.427 96.6048C107.157 97.3197 105.26 98.7394 103.657 100.019C101.898 101.425 100.426 102.805 99.002 104.139L98.95 104.188L98.9465 104.191C95.5749 107.353 92.9118 109.851 88.23 111.14C87.1634 111.434 86.5367 112.536 86.83 113.605C87.1234 114.674 88.2267 115.302 89.29 115.008C94.9267 113.458 98.21 110.378 101.683 107.118L101.738 107.067C103.104 105.786 104.518 104.461 106.15 103.156C107.53 102.057 109.01 100.938 110.627 100.43C112.113 99.9621 113.61 100.116 114.533 100.834C115.323 101.449 115.627 102.735 115.137 103.383C114.563 104.141 114.6 105.2 115.227 105.915C115.853 106.63 116.893 106.807 117.72 106.339C118.313 106.002 118.987 105.825 119.667 105.825H119.7C120.393 105.828 121.077 106.019 121.673 106.373C122.27 106.727 122.763 107.231 123.103 107.839C123.443 108.447 123.62 109.132 123.61 109.827C123.583 112.002 121.797 114.196 118.303 116.354C111.253 120.717 103.157 123.309 94.89 123.854C93.79 123.927 92.9534 124.88 93.0267 125.985ZM55.18 267.085C55.0567 267.085 54.93 267.072 54.8034 267.049L43.0567 264.794C41.7434 264.53 39.58 264.092 38.3267 262.308C37.9654 261.792 37.7346 261.248 37.5902 260.696C36.1164 260.44 34.7077 259.878 33.4533 259.038C31.7833 257.922 30.46 256.365 29.63 254.535C29.4933 254.234 29.4333 253.907 29.4533 253.579C29.4849 253.055 29.5254 252.518 29.5663 251.975L29.5663 251.975L29.5664 251.975L29.5664 251.975L29.5664 251.974L29.5664 251.974L29.5664 251.974L29.5664 251.974L29.5733 251.882C29.92 247.189 30.2767 242.335 27.0367 239.084C26.78 238.827 26.6 238.507 26.51 238.152C25.7227 234.996 27.4577 231.973 30.8531 230.469C31.0044 228.841 31.2333 227.122 31.7747 225.451C31.3219 225.037 31.0677 224.422 31.1333 223.771C31.2781 222.325 31.4207 220.882 31.5628 219.442L31.6566 218.493L31.6658 218.4C33.8224 196.637 35.8599 176.076 40.4999 154.07L40.7166 153.091C43.2999 141.422 45.7433 130.402 52.0699 119.718C52.0966 119.675 52.1233 119.635 52.1499 119.595L52.1865 119.543C52.5693 118.997 54.6834 115.982 55.6299 114.918C55.9852 114.517 56.4657 114.292 56.9602 114.252C56.9429 114.206 56.9262 114.16 56.9101 114.113C56.2401 112.159 56.8501 109.864 58.4634 108.26C59.5934 107.138 61.1134 106.383 63.1201 105.948L63.2367 105.922C63.3667 105.895 63.5401 105.858 63.6701 105.821C63.6701 105.816 63.6709 105.812 63.6717 105.808L63.6717 105.808C63.6726 105.804 63.6734 105.8 63.6734 105.795C63.6801 105.741 63.6867 105.691 63.6967 105.641L63.6984 105.632C64.1852 102.955 64.9978 98.4874 68.8801 97.2361C71.1934 96.4945 74.6701 97.2862 76.8534 100.767C77.0892 101.143 77.2987 101.525 77.4885 101.91C77.8829 101.049 78.8476 100.564 79.7966 100.807C80.8666 101.078 81.5166 102.17 81.2433 103.243C80.9419 104.442 80.4594 105.245 79.2098 106.471C79.3137 106.757 79.4204 107.037 79.5334 107.311C80.0034 108.444 81.0334 110.401 82.6534 110.769C83.7301 111.013 84.4067 112.085 84.1667 113.164C83.9234 114.243 82.8534 114.921 81.7767 114.681C79.2701 114.116 77.1601 112.045 75.8367 108.851C75.5101 108.063 75.2401 107.271 74.9834 106.503L74.9709 106.466C74.5289 105.163 74.1106 103.931 73.4634 102.902C72.7134 101.706 71.2501 100.687 70.1001 101.054C68.6401 101.525 68.0634 103.994 67.6434 106.292C67.5567 107.004 67.3001 107.689 66.9001 108.283C66.8701 108.327 66.8367 108.37 66.8034 108.414C65.986 109.433 64.8408 109.678 64.0774 109.842L64.0701 109.844L63.9634 109.867C62.7467 110.131 61.8467 110.545 61.2834 111.103C60.7867 111.597 60.5334 112.332 60.6967 112.81C60.8501 113.258 61.3567 113.739 61.8301 114.146C66.1234 117.914 71.3467 120.437 76.9467 121.445C78.0334 121.642 78.7567 122.685 78.5601 123.774C78.3801 124.743 77.5367 125.424 76.5901 125.424C76.4734 125.424 76.3534 125.414 76.2334 125.391C69.9201 124.252 64.0301 121.409 59.2034 117.173C59.1317 117.111 59.0594 117.048 58.9867 116.983C58.9024 117.198 58.7793 117.401 58.6166 117.584C57.9299 118.355 56.1533 120.854 55.4699 121.83C49.4966 131.942 47.1266 142.635 44.6199 153.959L44.4066 154.918C39.8111 176.713 37.7843 197.19 35.6383 218.87L35.6366 218.887C35.5233 220.023 35.4099 221.162 35.2966 222.305C36.2933 222.445 37.2799 222.549 38.3033 222.652L38.3572 222.658C39.2569 222.75 40.1738 222.844 41.1121 222.97L42.6267 209.881L42.6381 209.784C45.3812 186.253 48.2176 161.921 53.7367 138.446C53.99 137.37 55.0667 136.699 56.1434 136.956C57.2167 137.21 57.8834 138.289 57.63 139.368C52.1628 162.626 49.3396 186.848 46.6091 210.274L46.6 210.352L46.5034 211.187L42.56 245.261L42.558 245.279C42.0719 249.479 41.5698 253.819 41.38 258.083C41.3567 258.614 41.3134 259.609 41.5967 260.01C41.93 260.484 43.1167 260.725 43.8234 260.865L55.55 263.113C56.6334 263.321 57.3467 264.373 57.1367 265.459C56.96 266.417 56.1234 267.085 55.18 267.085ZM30.3267 236.736C30.2665 235.21 31.975 234.346 32.6412 234.067C34.9414 234.729 37.3022 235.137 39.6872 235.283L38.5867 244.794L38.5728 244.914C38.1342 248.712 37.6823 252.626 37.4556 256.549C36.8279 256.357 36.2288 256.073 35.6767 255.704C34.76 255.089 34.0067 254.264 33.4833 253.295C33.4981 253.06 33.5156 252.824 33.5333 252.587C33.5434 252.451 33.5536 252.314 33.5633 252.176L33.5637 252.171C33.9236 247.281 34.3685 241.238 30.3267 236.736ZM40.651 226.954L40.1488 231.295C38.3678 231.2 36.5991 230.937 34.8667 230.513C35.0084 229.087 35.2215 227.677 35.6789 226.399C36.4325 226.491 37.1704 226.567 37.8966 226.641L38.0502 226.657C38.9351 226.748 39.7928 226.837 40.651 226.954ZM61.6133 268.021C71.0533 269.618 80.6933 270.416 90.6566 270.416C102.728 270.416 115.272 269.24 128.479 266.891C130.272 268.273 132.38 269.003 134.703 269.003C134.953 269.003 135.21 268.996 135.467 268.976C139.001 268.744 142.073 266.819 144.132 263.75C144.307 263.744 144.483 263.715 144.66 263.665C145.903 263.277 147.33 263.097 148.837 262.91C152.3 262.479 156.223 261.988 158.987 258.664C159.11 258.517 159.21 258.353 159.287 258.176C159.683 257.251 159.853 256.229 159.777 255.223C159.773 255.18 159.768 255.138 159.762 255.096C159.756 255.053 159.748 255.011 159.74 254.969C158.747 250.193 155.825 242.004 152.998 234.085L152.998 234.084L152.997 234.08C151.027 228.568 149.17 223.36 148.323 220.26C148.266 220.05 148.178 219.857 148.065 219.684C147.736 195.531 146.852 172.286 141.18 147.783C140.93 146.704 139.857 146.032 138.78 146.283C137.703 146.533 137.033 147.609 137.283 148.688C143.613 176.038 143.887 201.985 144.177 229.456L144.177 229.464L144.183 229.971L118.947 229.557C115.197 200.193 113.903 170.325 115.1 140.751C115.147 139.645 114.287 138.71 113.183 138.666C112.08 138.626 111.147 139.481 111.103 140.587C109.873 170.963 111.253 201.65 115.203 231.792C115.306 232.567 115.841 233.192 116.547 233.431C116.265 235.483 116.192 237.561 116.33 239.632C116.33 240.006 116.393 240.374 116.523 240.725C116.673 241.126 116.897 241.486 117.19 241.794C117.218 241.823 117.247 241.852 117.276 241.879C116.068 242.795 115.067 243.966 114.627 245.375C114.247 246.594 114.13 248.492 115.73 250.596C117.21 252.547 119.253 253.72 121.057 254.752C121.413 254.956 121.767 255.16 122.12 255.37C122.613 255.662 123.153 257.631 123.388 258.492L123.393 258.51C123.557 259.111 123.713 259.679 123.897 260.187C124.32 261.351 124.822 262.41 125.395 263.358C102.687 267.174 82.0113 267.405 62.2766 264.069C61.1866 263.882 60.1566 264.62 59.9733 265.712C59.7899 266.801 60.5233 267.837 61.6133 268.021ZM123.46 242.554C123.26 243.127 122.805 243.602 122.183 243.801C120.33 244.403 118.757 245.569 118.443 246.574C118.383 246.765 118.227 247.269 118.91 248.168C119.899 249.47 121.425 250.345 123.037 251.27L123.038 251.27L123.04 251.271C123.131 251.323 123.221 251.375 123.312 251.427C123.598 251.592 123.882 251.755 124.163 251.922C126.044 253.04 126.711 255.479 127.247 257.438L127.25 257.448C127.39 257.966 127.527 258.457 127.653 258.811C128.733 261.781 130.913 265.251 135.2 264.974C138.017 264.787 141.417 262.666 142.533 257.271C143.389 253.123 142.615 248.659 141.866 244.337L141.863 244.323L141.823 244.092C141.747 243.648 141.671 243.207 141.597 242.766C141.582 242.678 141.573 242.59 141.57 242.503L123.46 242.554ZM145.042 241.077C145.295 241.353 145.473 241.704 145.54 242.101C145.627 242.612 145.713 243.123 145.803 243.638L145.806 243.655C146.619 248.343 147.459 253.191 146.45 258.086C146.37 258.474 146.278 258.854 146.175 259.226C146.899 259.11 147.623 259.02 148.337 258.931C151.337 258.557 153.947 258.23 155.7 256.335C155.767 256.112 155.797 255.874 155.79 255.641C154.821 251.111 151.859 242.809 149.239 235.464L149.227 235.43L149.139 235.185L149.139 235.184L149.139 235.184L149.139 235.184C148.807 234.254 148.479 233.334 148.159 232.432C148.078 232.807 147.89 233.154 147.613 233.429C147.243 233.803 146.733 234.013 146.207 234.013H146.173L145.502 234.002L145.667 238.236C145.684 238.757 145.723 240.037 145.042 241.077ZM141.496 233.936L120.565 233.592C120.315 235.236 120.22 236.901 120.28 238.563L141.673 238.503V238.503C141.673 238.486 141.673 238.469 141.673 238.45C141.673 238.429 141.672 238.406 141.67 238.383L141.496 233.936Z" fill="black"/>
</g>
<path d="M107.087 65.4556C109.397 62.7297 108.68 58.0094 105.667 56.1019C104.587 55.4138 103.22 54.9862 102.63 53.8504C101.964 52.5977 102.567 51.0977 102.917 49.7281C102.917 49.6847 102.94 49.6379 102.954 49.5945C103.954 45.4655 99.2437 42.4022 95.8137 44.9009C91.5303 48.021 86.6637 50.2459 81.5037 51.4452C78.837 52.0598 75.5604 52.1801 73.9137 49.9953C72.9404 48.6992 72.707 46.7416 70.247 46.9253C69.5304 46.9855 68.8404 47.236 68.247 47.6469C63.8437 50.6234 58.807 52.5175 53.537 53.1823C52.0637 53.366 50.537 53.4495 49.1137 53.0253C45.027 51.8059 43.1703 46.5913 44.4037 42.5024C45.637 38.4135 49.1203 35.3902 52.8003 33.2255C55.0803 31.8893 57.6203 30.66 58.9937 28.3917C59.8003 27.0555 60.117 25.4653 60.927 24.1324C61.737 22.7995 63.0037 21.794 64.2937 20.8854C71.2437 16.0649 79.5537 13.6129 88.0003 13.8835C93.0003 14.0572 98.877 16.0716 99.957 20.9555L107.624 24.1926C113.524 25.1012 119.524 27.0922 123.7 31.3682C127.877 35.6441 129.7 42.6293 126.7 47.8039C126.307 48.472 125.82 49.1802 125.84 49.9686C125.867 50.9708 126.704 51.7592 127.397 52.5008C128.61 53.817 129.534 55.3737 130.104 57.0707C130.674 58.7677 130.88 60.565 130.71 62.3489C130.554 63.8989 130.044 65.5024 128.884 66.5279C127.724 67.5535 125.747 67.764 124.65 66.6616L108.017 69.2171L107.087 65.4556Z" fill="black"/>
<path d="M52.9371 53.3582C50.7871 58.9002 49.4938 63.9044 49.1671 66.9344C48.3438 74.5643 49.8804 83.0427 55.7038 88.4779C58.8071 91.3708 62.6504 92.7939 66.7604 93.5188C71.0471 94.2771 75.6471 94.9686 79.8071 93.2649C79.5871 96.7425 79.5538 99.2246 79.7138 102.705L103.214 100.093C102.834 95.5198 103.68 91.598 105.667 87.4623C106.117 86.527 107.084 86.537 108.04 86.233C108.89 85.9657 109.724 85.6584 110.547 85.311C112.217 84.6161 113.794 83.7175 115.247 82.6385C118.12 80.4638 120.36 77.4105 121.2 73.8694C121.964 70.6591 121.427 66.8375 117.867 65.0302C115.357 63.7608 113.107 64.2118 109.284 67.5791L107.117 65.4678C109.427 62.7419 108.71 58.0217 105.697 56.1142C104.617 55.426 103.25 54.9984 102.66 53.8626C101.994 52.6099 102.597 51.11 102.947 49.7403C102.947 49.6969 102.97 49.6501 102.984 49.6067C103.984 45.4777 99.2738 42.4144 95.8438 44.9132C91.5604 48.0333 86.6938 50.2581 81.5338 51.4574C78.8671 52.0721 75.5904 52.1923 73.9438 50.0076C72.9704 48.7114 72.7371 46.7538 70.2771 46.9376C69.5604 46.9977 68.8704 47.2482 68.2771 47.6591C63.8638 50.6356 58.8138 52.5264 53.5371 53.1845" fill="#FFD39F"/>
<path d="M126.573 69.41C125.323 69.41 124.11 68.9657 123.223 68.0771C122.443 67.2921 122.447 66.0226 123.227 65.2409C124.01 64.4592 125.277 64.4626 126.057 65.2443C126.307 65.4948 127.09 65.4314 127.55 65.0238C128.167 64.4793 128.577 63.4571 128.71 62.1442C128.853 60.6409 128.683 59.1477 128.197 57.7079C127.713 56.2681 126.947 54.9753 125.917 53.8595L125.747 53.6791C124.957 52.844 123.873 51.7015 123.83 50.0212C123.797 48.7351 124.4 47.7295 124.84 46.9946L124.967 46.7842C127.62 42.2042 125.557 36.141 122.26 32.7704C118.983 29.4164 113.953 27.1982 107.31 26.1727C106.217 26.0056 105.47 24.9801 105.637 23.8877C105.803 22.7953 106.827 22.0437 107.917 22.2107C115.437 23.3699 121.223 25.9789 125.12 29.9643C127.483 32.3828 129.16 35.5364 129.84 38.8436C130.577 42.4213 130.073 45.959 128.42 48.8119L128.27 49.0624C128.117 49.3163 127.863 49.7372 127.833 49.911C127.903 50.1348 128.37 50.6258 128.65 50.9232L128.847 51.1303C130.27 52.6736 131.323 54.4508 131.99 56.4285C132.657 58.4061 132.89 60.4606 132.693 62.5384C132.453 64.9035 131.593 66.7977 130.2 68.0303C129.157 68.949 127.847 69.41 126.573 69.41Z" fill="black"/>
<path d="M107.087 67.459C106.63 67.459 106.17 67.302 105.793 66.9813C104.95 66.2631 104.85 65.0003 105.563 64.1552C106.28 63.31 106.59 62.0439 106.397 60.7678C106.203 59.495 105.53 58.3826 104.6 57.7947C104.37 57.6477 104.1 57.504 103.813 57.3504C102.817 56.8192 101.573 56.1544 100.857 54.7748C99.9233 53.0209 100.44 51.1736 100.82 49.8207C100.867 49.6536 100.913 49.4866 100.957 49.3229C100.977 49.216 101.003 49.1191 101.03 49.039C101.357 47.5156 100.313 46.6772 99.9799 46.4533C99.2499 45.9623 98.0833 45.7251 96.9933 46.5168C92.4666 49.814 87.4099 52.1257 81.9599 53.3918C77.5099 54.4173 74.1766 53.659 72.3233 51.197C71.9933 50.7594 71.7499 50.3117 71.5366 49.9175C70.9699 48.8753 70.9499 48.8753 70.3999 48.9187C70.0499 48.9488 69.6966 49.0757 69.3932 49.2862C64.7299 52.4363 59.3433 54.4641 53.7933 55.1623C52.2266 55.3594 50.3799 55.483 48.5499 54.9384C46.3866 54.2937 44.5499 52.737 43.3766 50.5589C41.9766 47.9533 41.6466 44.7229 42.4933 41.9135C43.6999 37.9148 46.8266 34.4071 51.7933 31.4875C52.0999 31.3071 52.4066 31.1334 52.7166 30.9563C54.5933 29.884 56.3633 28.8718 57.2899 27.3418C57.5999 26.8307 57.8399 26.2026 58.0966 25.5379C58.4066 24.7328 58.7266 23.901 59.2266 23.0792C60.2333 21.4189 61.7099 20.2497 63.1499 19.2342C70.4133 14.1965 79.2566 11.5875 88.0699 11.8681C93.6199 12.0619 100.573 14.4404 101.917 20.5103C102.157 21.5926 101.477 22.6616 100.397 22.9021C99.3199 23.1393 98.2499 22.4612 98.0099 21.3788C97.2166 17.791 92.3799 16.0305 87.9366 15.8769C79.9799 15.6163 71.9866 17.9814 65.4366 22.5246C64.3599 23.283 63.2666 24.1348 62.6399 25.1671C62.3266 25.6815 62.0833 26.3129 61.8266 26.981C61.5199 27.7794 61.2033 28.6045 60.7099 29.4196C59.2466 31.8382 56.8299 33.2212 54.6966 34.4372C54.3999 34.6076 54.1066 34.7746 53.8133 34.945C49.7466 37.3368 47.2266 40.0728 46.3199 43.0727C45.7833 44.8565 46.0033 46.9945 46.8966 48.6548C47.3666 49.5267 48.2299 50.6591 49.6866 51.0934C50.8099 51.4275 52.1399 51.3273 53.2933 51.1836C58.2233 50.5623 63.0099 48.7617 67.1333 45.9756C67.9899 45.381 69.0166 45.0102 70.0833 44.92C73.2466 44.6795 74.4199 46.8408 75.0499 48C75.2132 48.3007 75.3666 48.5846 75.5166 48.7817C76.6632 50.305 79.7766 49.7806 81.0599 49.4833C85.9832 48.3408 90.5533 46.2496 94.6433 43.2697C96.9132 41.6162 99.8833 41.556 102.21 43.1161C104.497 44.6494 105.553 47.3753 104.903 50.0545C104.893 50.0946 104.883 50.1313 104.87 50.1714C104.87 50.1748 104.87 50.1781 104.867 50.1781C104.863 50.1881 104.86 50.2015 104.86 50.2115C104.803 50.4353 104.74 50.6625 104.677 50.893C104.47 51.6279 104.217 52.5432 104.403 52.894C104.557 53.1913 105.14 53.502 105.703 53.8026C106.043 53.983 106.393 54.1701 106.75 54.3973C108.67 55.6132 109.987 57.7111 110.36 60.1498C110.733 62.5951 110.1 64.997 108.623 66.7374C108.217 67.2185 107.653 67.459 107.087 67.459ZM104.917 49.7305C104.917 49.7338 104.917 49.7338 104.917 49.7305C104.917 49.7338 104.917 49.7338 104.917 49.7305ZM104.917 49.7271V49.7305V49.7271Z" fill="black"/>
<path d="M62.8099 62.5696C64.0986 62.5696 65.1432 61.2983 65.1432 59.7301C65.1432 58.1619 64.0986 56.8906 62.8099 56.8906C61.5212 56.8906 60.4766 58.1619 60.4766 59.7301C60.4766 61.2983 61.5212 62.5696 62.8099 62.5696Z" fill="black"/>
<path d="M74.1439 63.3548C75.4325 63.3548 76.4772 62.0835 76.4772 60.5153C76.4772 58.9471 75.4325 57.6758 74.1439 57.6758C72.8552 57.6758 71.8105 58.9471 71.8105 60.5153C71.8105 62.0835 72.8552 63.3548 74.1439 63.3548Z" fill="black"/>
<path d="M103.196 100.081C102.17 100.081 101.293 99.2927 101.206 98.2438C100.783 93.2128 101.76 90.9112 103.833 86.5818C104.593 85.0017 106.03 84.6542 106.89 84.4471C107.076 84.4003 107.253 84.3603 107.406 84.3101C108.2 84.0596 108.983 83.7723 109.74 83.4516C111.27 82.8169 112.706 81.9985 114.026 81.0163C116.686 79.0019 118.54 76.2927 119.226 73.3931C119.58 71.9332 120.06 68.3855 116.936 66.8054C115.573 66.1139 114.236 65.8433 110.573 69.0704C109.743 69.8019 108.48 69.7184 107.75 68.8866C107.02 68.0548 107.103 66.7887 107.933 66.0571C113.193 61.4237 116.233 61.9582 118.736 63.2243C122.616 65.1886 124.293 69.4412 123.113 74.3251C122.213 78.12 119.836 81.6377 116.423 84.22C114.83 85.4059 113.103 86.388 111.283 87.143C110.42 87.5071 109.516 87.8412 108.606 88.1251C108.33 88.212 108.063 88.2788 107.83 88.3356C107.683 88.3723 107.493 88.4157 107.37 88.4558C105.453 92.4645 104.86 93.9711 105.193 97.8997C105.286 99.0021 104.47 99.9709 103.37 100.064C103.31 100.078 103.253 100.081 103.196 100.081Z" fill="black"/>
<path d="M79.7126 103.036C78.6493 103.036 77.766 102.197 77.716 101.122C77.6093 98.7698 77.586 97.5873 77.6526 95.9738C73.646 96.7488 69.566 96.0372 66.4193 95.486C61.336 94.5874 57.386 92.7735 54.3426 89.9373C48.7493 84.716 46.1393 76.2509 47.1793 66.7068C47.5693 63.1691 49.0226 57.9043 51.0726 52.6229C51.4726 51.5906 52.6326 51.0795 53.6626 51.4804C54.6926 51.8813 55.2026 53.0438 54.8026 54.076C52.5293 59.9354 51.4293 64.669 51.156 67.1444C50.2526 75.4124 52.406 82.6515 57.0693 87.0009C59.5626 89.326 62.7526 90.7658 67.1093 91.5341C71.5626 92.3125 75.5393 92.8369 79.0526 91.3971C79.6893 91.1366 80.416 91.2234 80.976 91.6243C81.536 92.0285 81.8493 92.69 81.806 93.3781C81.5926 96.7388 81.556 97.4804 81.716 100.928C81.766 102.034 80.9126 102.972 79.8093 103.022C79.7726 103.036 79.7426 103.036 79.7126 103.036Z" fill="black"/>
</g>
<defs>
<clipPath id="clip0_805_37773">
<rect width="180" height="180" rx="24" fill="white"/>
</clipPath>
<clipPath id="clip1_805_37773">
<rect width="200" height="200.436" fill="white" transform="translate(-10 95.2734)"/>
</clipPath>
</defs>
</svg>
