<svg width="180" height="180" viewBox="0 0 180 180" fill="none" xmlns="http://www.w3.org/2000/svg">
<g clip-path="url(#clip0_805_37682)">
<rect width="180" height="180" rx="24" fill="white"/>
<g clip-path="url(#clip1_805_37682)">
<path fill-rule="evenodd" clip-rule="evenodd" d="M103.124 95.2729C103.424 98.6469 104.8 106.27 109.924 105.128L110.474 105.963C110.224 111.197 107.577 114.889 103.43 118.714C99.217 122.539 93.8436 124.837 88.1736 125.241C83.1736 125.609 77.857 124.41 74.117 121.049C70.377 117.688 68.4103 113.031 70.887 109.039H71.247C72.3736 109.073 73.4103 108.482 74.3636 107.88C75.0632 107.437 75.3317 106.001 75.5768 104.691C75.7568 103.728 75.9242 102.833 76.2403 102.448C77.2403 101.149 80.2336 96.8262 80.747 95.2695H103.124V95.2729ZM121.73 241.611C118.52 242.65 114.604 245.82 117.32 249.388C118.553 251.013 120.307 252.018 122.046 253.015C122.413 253.225 122.78 253.435 123.14 253.65C124.33 254.359 124.868 256.327 125.32 257.985C125.474 258.547 125.618 259.074 125.774 259.503C127.334 263.793 130.364 267.314 135.334 266.979C140.387 266.645 143.53 262.333 144.49 257.683C145.477 252.895 144.519 247.216 143.703 242.386C143.659 242.128 143.616 241.871 143.574 241.618L121.73 241.611ZM28.4503 237.669C27.7836 234.997 29.7836 232.992 32.117 232.12L48.6836 234.612C49.3303 240.241 48.027 245.015 46.4736 249.692C46.2205 250.458 46.0662 251.26 45.9126 252.059C45.6557 253.395 45.4005 254.722 44.687 255.855C43.547 257.666 41.477 258.558 39.2636 258.668C35.7636 258.812 31.4503 258.357 31.4503 253.704C31.4845 253.156 31.5257 252.597 31.5674 252.031C31.9327 247.078 32.3391 241.566 28.4503 237.669Z" fill="#FFD39F"/>
<path d="M56.567 199.756C55.6637 208.825 54.2537 217.835 52.3337 226.744C50.6637 225.999 48.8604 225.595 47.0337 225.558L42.7004 225.274C39.3137 224.86 36.5937 224.449 33.207 224.038C34.6104 208.521 36.4104 193.044 38.607 177.604C40.517 164.158 42.7404 150.709 46.687 137.717C50.1937 126.172 55.757 114.233 66.3204 108.444L67.5504 106.536L77.8004 98.2516C78.417 99.2705 77.9437 100.59 77.577 100.256L76.1937 105.207C76.0137 105.714 75.9437 106.256 75.9804 106.794C76.207 108.35 78.057 108.992 79.5904 109.316L81.0004 109.443C87.5104 106.77 92.4137 104.295 97.3137 101.816C101.007 99.9486 104.82 98.0478 108.947 97.7305L110.52 103.293C116.417 104.876 120.99 109.429 124.674 114.093C128.69 119.184 131.84 124.903 134 131.02C135.21 134.437 137.124 138.282 137.914 141.816L138.967 145.05C145.547 173.445 145.894 202.872 146.207 232.026L117.187 231.548C115.9 221.73 114.887 211.885 114.147 202.007L112.857 202.051C99.917 203.704 86.647 202.321 74.147 200.731C67.517 201.529 60.7437 201.032 54.4537 199.001" fill="black"/>
<path fill-rule="evenodd" clip-rule="evenodd" d="M81.0005 109.443L84.1938 123.333L84.2246 123.322C89.291 121.538 94.3702 119.75 99.1938 117.387C100.934 116.535 102.68 115.573 103.94 114.099C105.43 112.359 106.097 110.091 106.727 107.876L106.755 107.778L106.755 107.778C107.692 104.47 108.63 101.161 108.94 97.7305C104.814 98.0478 101 99.9486 97.3071 101.816L97.1502 101.895C92.299 104.344 87.4311 106.802 81.0005 109.443ZM32.7305 232.002C32.9438 229.514 33.2105 226.54 34.2771 224.282L51.5838 225.886C51.3905 228.294 50.1838 231.662 49.2738 233.903C49.2571 233.967 49.2205 234.023 49.1705 234.067C49.0871 234.11 48.9905 234.124 48.9005 234.097C47.4315 233.864 45.2888 233.657 43.0023 233.436C39.1351 233.064 34.8566 232.651 32.7305 232.002ZM118.334 239.586C118.154 236.983 118.327 234.371 118.854 231.815L143.43 232.159L143.67 238.316C143.694 239.068 143.644 239.956 143.004 240.32C142.69 240.464 142.347 240.528 142.004 240.501L119.337 240.564C119.094 240.591 118.847 240.534 118.637 240.407C118.534 240.297 118.454 240.167 118.4 240.026C118.347 239.886 118.327 239.736 118.334 239.586ZM76.1838 105.207L77.5672 100.256C77.9338 100.563 78.4071 99.2605 77.7871 98.2416L67.5371 106.526C67.2905 109.052 67.5805 111.601 68.3938 114.006C69.2071 116.411 70.5205 118.613 72.2471 120.47C75.3671 117.246 77.8571 113.461 79.5805 109.316C78.0471 108.992 76.1971 108.35 75.9705 106.794C75.9338 106.256 76.0038 105.715 76.1838 105.207Z" fill="white"/>
<path fill-rule="evenodd" clip-rule="evenodd" d="M84.1933 125.337C83.86 125.337 83.5266 125.254 83.23 125.09C82.73 124.816 82.3733 124.338 82.2466 123.784L81.2742 119.554C80.5981 130.978 79.8326 142.45 79.0867 153.612L79.0541 154.1L79.0541 154.1L79.0541 154.101L79.0541 154.101L79.054 154.101C78.0714 168.84 77.0567 184.06 76.2636 199.017C89.5357 201.064 101.254 201.422 112.011 200.113C110.608 180.296 110.302 160.376 111.103 140.587C111.147 139.481 112.08 138.619 113.183 138.666C114.287 138.71 115.147 139.645 115.1 140.751C113.903 170.325 115.197 200.193 118.947 229.557L144.183 229.971C144.174 228.943 144.165 227.919 144.156 226.899C144.147 225.787 144.137 224.68 144.127 223.577L144.126 223.552C143.92 198.394 143.725 174.626 137.843 149.226C137.593 148.147 138.263 147.071 139.34 146.821C140.413 146.57 141.49 147.242 141.74 148.321C147.718 174.152 147.917 198.135 148.126 223.521V223.522L148.127 223.544L148.129 223.794L148.129 223.8C148.151 226.502 148.174 229.227 148.203 231.986C148.21 232.527 147.997 233.048 147.613 233.429C147.243 233.803 146.733 234.013 146.207 234.013H146.173L145.502 234.002L145.667 238.236C145.684 238.757 145.723 240.038 145.041 241.079C145.293 241.354 145.472 241.704 145.54 242.101L145.598 242.443L145.599 242.445C145.666 242.841 145.734 243.239 145.803 243.634L145.806 243.651C146.619 248.34 147.459 253.188 146.45 258.082C145.157 264.343 140.847 268.619 135.467 268.973C135.21 268.996 134.953 269.003 134.703 269.003C129.86 269.003 125.947 265.829 123.897 260.187C123.713 259.679 123.557 259.111 123.393 258.513L123.388 258.496C123.152 257.634 122.613 255.665 122.12 255.373C121.767 255.163 121.413 254.959 121.057 254.755C119.253 253.723 117.21 252.55 115.73 250.6C114.127 248.495 114.247 246.598 114.627 245.378C115.068 243.968 116.069 242.797 117.278 241.881C117.248 241.853 117.218 241.824 117.19 241.794C116.897 241.483 116.67 241.126 116.523 240.725C116.393 240.377 116.33 240.01 116.33 239.636C116.192 237.564 116.265 235.485 116.548 233.431C115.841 233.192 115.306 232.567 115.203 231.792C114 222.608 113.035 213.374 112.31 204.114C107.999 204.635 103.538 204.893 98.9 204.893C91.1833 204.893 82.97 204.175 74.1 202.732C68.7217 203.351 63.3552 203.122 58.3332 202.073C57.4217 210.482 56.0639 218.912 54.2833 227.169C54.1164 227.954 53.5001 228.542 52.7467 228.702C52.4513 230.724 51.9164 232.702 51.15 234.601C51.0262 234.946 50.8258 235.259 50.5611 235.513L48.4567 249.982C48.15 252.096 47.7667 254.725 46.3833 256.927C44.98 259.155 42.4233 260.518 39.3667 260.671C39.0133 260.685 38.64 260.695 38.2533 260.695C35.98 260.695 33.2 260.351 31.3367 258.56C30.0867 257.358 29.45 255.724 29.45 253.706C29.45 253.666 29.45 253.623 29.4533 253.583C29.4849 253.058 29.5254 252.52 29.5664 251.977L29.5733 251.886C29.92 247.192 30.2767 242.338 27.0367 239.088C26.78 238.831 26.6 238.51 26.51 238.156C25.7227 235 27.4576 231.976 30.8527 230.473C31.0043 228.841 31.2337 227.117 31.7778 225.442C31.3694 225.035 31.1394 224.456 31.1967 223.838C32.5967 208.348 34.4167 192.69 36.61 177.3C38.4633 164.255 40.7333 150.358 44.7567 137.113C49.54 121.425 56.0833 111.754 65.3533 106.673C65.4091 106.643 65.4656 106.615 65.5228 106.59C65.5302 106.503 65.5381 106.416 65.5467 106.329C65.6 105.795 65.8633 105.3 66.2833 104.963L76.5333 96.6783C76.9833 96.3175 77.5633 96.1638 78.13 96.2641C78.6967 96.3643 79.1933 96.7017 79.4933 97.1961C80.37 98.6359 80.25 100.61 79.26 101.626L78.11 105.745C78.1033 105.766 78.0967 105.787 78.09 105.808C78.0833 105.829 78.0767 105.85 78.07 105.872C77.9967 106.082 77.96 106.299 77.96 106.52C78.0233 106.61 78.41 107.017 79.9933 107.351C80.1512 107.385 80.3027 107.437 80.4452 107.506C86.7074 104.924 91.5603 102.475 96.2566 100.102L96.41 100.025C100.063 98.1781 104.207 96.0836 108.79 95.7328C109.377 95.6861 109.953 95.9032 110.367 96.3241C110.78 96.745 110.987 97.3263 110.933 97.9109C110.83 99.0513 110.662 100.176 110.451 101.285C110.644 101.278 110.841 101.3 111.037 101.352C118.007 103.223 123.053 108.808 126.24 112.843C130.4 118.118 133.647 124.008 135.883 130.345C136.275 131.45 136.744 132.602 137.241 133.82L137.287 133.933C138.283 136.375 139.31 138.9 139.863 141.372C140.103 142.451 139.427 143.523 138.35 143.767C138.203 143.801 138.057 143.817 137.91 143.817C136.993 143.817 136.17 143.183 135.96 142.251C135.48 140.106 134.517 137.741 133.583 135.453C133.073 134.207 132.55 132.917 132.113 131.688C130.023 125.762 126.99 120.26 123.103 115.332C120.27 111.741 115.827 106.79 110 105.224C109.852 105.184 109.712 105.128 109.582 105.059C109.295 106.154 108.988 107.236 108.685 108.307L108.685 108.307L108.68 108.324L108.653 108.42C108.037 110.592 107.267 113.291 105.46 115.402C103.98 117.133 101.997 118.245 100.073 119.184C95.1466 121.596 89.9366 123.433 84.8966 125.207L84.8566 125.22C84.64 125.3 84.4166 125.337 84.1933 125.337ZM35.6923 226.362C35.2332 227.629 35.016 229.03 34.8733 230.446C37.0633 230.85 40.28 231.161 43.19 231.441C44.89 231.605 46.52 231.762 47.8733 231.932C48.2805 230.73 48.5805 229.496 48.7709 228.242C48.607 228.213 48.4435 228.185 48.2806 228.156L48.2803 228.156L48.2133 228.144L48.0698 228.119L48.0693 228.119C47.2093 227.968 46.3978 227.825 45.7 227.736L40.7533 227.032C39.3293 226.858 38.306 226.719 37.365 226.59L36.8767 226.524L36.6462 226.492C36.3317 226.449 36.0184 226.406 35.6923 226.362ZM32.6579 234.063C32.004 234.334 30.266 235.2 30.3267 236.739C34.3685 241.241 33.9236 247.285 33.5637 252.174L33.5633 252.18L33.5601 252.223C33.5212 252.743 33.4825 253.259 33.4533 253.763C33.4666 255.049 33.9476 255.511 34.1088 255.666L34.11 255.667C34.9067 256.436 36.6167 256.77 39.1867 256.666C40.9067 256.579 42.3033 255.894 43 254.785C43.9293 253.312 44.2175 251.338 44.4964 249.428L44.5 249.404L46.4785 235.801C45.4044 235.681 44.1821 235.563 42.9162 235.44L42.8067 235.43C38.9891 235.063 35.0532 234.682 32.6579 234.063ZM53.84 200.885C54.0321 200.947 54.2249 201.008 54.4184 201.067C53.5872 208.913 52.3574 216.787 50.7567 224.516C50.1467 224.419 49.5233 224.309 48.9067 224.199C47.9467 224.028 47.04 223.868 46.2367 223.765L41.2967 223.06L41.2966 223.06C41.2833 223.056 41.27 223.053 41.2567 223.053C39.7335 222.865 38.6743 222.72 37.6778 222.583L37.6766 222.583L37.4233 222.549C36.78 222.458 36.1267 222.368 35.3533 222.268C36.7233 207.476 38.4767 192.55 40.5667 177.865C42.3967 164.98 44.6367 151.267 48.58 138.282C52.7424 124.629 58.1987 115.941 65.6576 111.149C65.8306 112.331 66.1115 113.499 66.5 114.647C67.41 117.34 68.85 119.758 70.7833 121.836C71.1567 122.237 71.68 122.468 72.2267 122.474H72.2467C72.7867 122.474 73.3067 122.254 73.6833 121.863C75.0408 120.462 76.2794 118.968 77.3945 117.39C76.7011 129.267 75.9044 141.224 75.1294 152.853L75.1293 152.854L75.0967 153.345L75.0635 153.843L75.0634 153.843V153.843C74.0792 168.619 73.0629 183.877 72.2661 198.886C66.2775 199.401 60.3612 198.778 55.0667 197.07C54.5567 196.906 54.34 196.779 54.2533 196.719C54.2211 196.522 54.2605 196.082 54.2782 195.884L54.28 195.864C55.6929 180.665 57.1119 165.47 58.5311 150.272L58.7233 148.214C59.1433 143.734 59.0933 138.225 54.99 135.379C54.08 134.748 52.8333 134.975 52.2066 135.887C51.5766 136.799 51.8033 138.048 52.7133 138.676C55.1133 140.336 55.0567 144.445 54.74 147.839C53.2567 163.721 51.7733 179.605 50.2966 195.49L50.2965 195.492C50.2231 196.287 50.1006 197.615 50.8333 198.824C51.57 200.036 52.9 200.581 53.84 200.885ZM83.33 110.642L85.64 120.697C89.9133 119.18 94.2566 117.574 98.3133 115.586C99.7466 114.884 101.36 114.033 102.42 112.797C103.657 111.35 104.24 109.306 104.803 107.328L104.83 107.231L104.836 107.208C105.521 104.791 106.178 102.47 106.597 100.132C103.707 100.827 100.92 102.234 98.2066 103.607L98.0533 103.683L98.0214 103.7L98.0214 103.7C93.6113 105.926 89.0628 108.222 83.33 110.642ZM141.567 242.506L123.459 242.557C123.26 243.13 122.805 243.606 122.183 243.805C120.33 244.406 118.757 245.572 118.44 246.577C118.38 246.768 118.223 247.272 118.907 248.171C119.897 249.474 121.42 250.349 123.037 251.274L123.17 251.351L123.308 251.431L123.31 251.431L123.31 251.432L123.311 251.432C123.596 251.596 123.88 251.759 124.16 251.926C126.042 253.044 126.709 255.486 127.245 257.449L127.247 257.454L127.279 257.571C127.41 258.045 127.533 258.49 127.65 258.814C128.73 261.784 130.91 265.255 135.197 264.977C138.013 264.79 141.413 262.669 142.53 257.274C143.386 253.125 142.611 248.655 141.862 244.332L141.86 244.323C141.77 243.801 141.68 243.284 141.593 242.769C141.579 242.681 141.57 242.593 141.567 242.506ZM141.496 233.936L120.565 233.592C120.315 235.236 120.22 236.901 120.28 238.563L141.673 238.503V238.502C141.673 238.484 141.673 238.465 141.673 238.445C141.672 238.425 141.672 238.404 141.67 238.383L141.496 233.936ZM70.2867 113.365C69.65 111.477 69.3733 109.52 69.4667 107.542L74.6133 103.38L74.27 104.609C74.0133 105.36 73.9133 106.142 73.97 106.937C73.973 106.982 73.9786 107.024 73.9846 107.069L73.9867 107.084C74.21 108.601 75.1633 109.757 76.83 110.532C75.6133 113 74.1067 115.299 72.3267 117.4C71.46 116.167 70.7767 114.814 70.2867 113.365Z" fill="black"/>
</g>
<path d="M107.087 65.4556C109.397 62.7297 108.68 58.0094 105.667 56.1019C104.587 55.4138 103.22 54.9862 102.63 53.8504C101.964 52.5977 102.567 51.0977 102.917 49.7281C102.917 49.6847 102.94 49.6379 102.954 49.5945C103.954 45.4655 99.2437 42.4022 95.8137 44.9009C91.5303 48.021 86.6637 50.2459 81.5037 51.4452C78.837 52.0598 75.5604 52.1801 73.9137 49.9953C72.9404 48.6992 72.707 46.7416 70.247 46.9253C69.5304 46.9855 68.8404 47.236 68.247 47.6469C63.8437 50.6234 58.807 52.5175 53.537 53.1823C52.0637 53.366 50.537 53.4495 49.1137 53.0253C45.027 51.8059 43.1703 46.5913 44.4037 42.5024C45.637 38.4135 49.1203 35.3902 52.8003 33.2255C55.0803 31.8893 57.6203 30.66 58.9937 28.3917C59.8003 27.0555 60.117 25.4653 60.927 24.1324C61.737 22.7995 63.0037 21.794 64.2937 20.8854C71.2437 16.0649 79.5537 13.6129 88.0003 13.8835C93.0003 14.0572 98.877 16.0716 99.957 20.9555L107.624 24.1926C113.524 25.1012 119.524 27.0922 123.7 31.3682C127.877 35.6441 129.7 42.6293 126.7 47.8039C126.307 48.472 125.82 49.1802 125.84 49.9686C125.867 50.9708 126.704 51.7592 127.397 52.5008C128.61 53.817 129.534 55.3737 130.104 57.0707C130.674 58.7677 130.88 60.565 130.71 62.3489C130.554 63.8989 130.044 65.5024 128.884 66.5279C127.724 67.5535 125.747 67.764 124.65 66.6616L108.017 69.2171L107.087 65.4556Z" fill="black"/>
<path d="M52.9371 53.3582C50.7871 58.9002 49.4938 63.9044 49.1671 66.9344C48.3438 74.5643 49.8804 83.0427 55.7038 88.4779C58.8071 91.3708 62.6504 92.7939 66.7604 93.5188C71.0471 94.2771 75.6471 94.9686 79.8071 93.2649C79.5871 96.7425 79.5538 99.2246 79.7138 102.705L103.214 100.093C102.834 95.5198 103.68 91.598 105.667 87.4623C106.117 86.527 107.084 86.537 108.04 86.233C108.89 85.9657 109.724 85.6584 110.547 85.311C112.217 84.6161 113.794 83.7175 115.247 82.6385C118.12 80.4638 120.36 77.4105 121.2 73.8694C121.964 70.6591 121.427 66.8375 117.867 65.0302C115.357 63.7608 113.107 64.2118 109.284 67.5791L107.117 65.4678C109.427 62.7419 108.71 58.0217 105.697 56.1142C104.617 55.426 103.25 54.9984 102.66 53.8626C101.994 52.6099 102.597 51.11 102.947 49.7403C102.947 49.6969 102.97 49.6501 102.984 49.6067C103.984 45.4777 99.2738 42.4144 95.8438 44.9132C91.5604 48.0333 86.6938 50.2581 81.5338 51.4574C78.8671 52.0721 75.5904 52.1923 73.9438 50.0076C72.9704 48.7114 72.7371 46.7538 70.2771 46.9376C69.5604 46.9977 68.8704 47.2482 68.2771 47.6591C63.8638 50.6356 58.8138 52.5264 53.5371 53.1845" fill="#FFD39F"/>
<path d="M126.573 69.41C125.323 69.41 124.11 68.9657 123.223 68.0771C122.443 67.2921 122.447 66.0226 123.227 65.2409C124.01 64.4592 125.277 64.4626 126.057 65.2443C126.307 65.4948 127.09 65.4314 127.55 65.0238C128.167 64.4793 128.577 63.4571 128.71 62.1442C128.853 60.6409 128.683 59.1477 128.197 57.7079C127.713 56.2681 126.947 54.9753 125.917 53.8595L125.747 53.6791C124.957 52.844 123.873 51.7015 123.83 50.0212C123.797 48.7351 124.4 47.7295 124.84 46.9946L124.967 46.7842C127.62 42.2042 125.557 36.141 122.26 32.7704C118.983 29.4164 113.953 27.1982 107.31 26.1727C106.217 26.0056 105.47 24.9801 105.637 23.8877C105.803 22.7953 106.827 22.0437 107.917 22.2107C115.437 23.3699 121.223 25.9789 125.12 29.9643C127.483 32.3828 129.16 35.5364 129.84 38.8436C130.577 42.4213 130.073 45.959 128.42 48.8119L128.27 49.0624C128.117 49.3163 127.863 49.7372 127.833 49.911C127.903 50.1348 128.37 50.6258 128.65 50.9232L128.847 51.1303C130.27 52.6736 131.323 54.4508 131.99 56.4285C132.657 58.4061 132.89 60.4606 132.693 62.5384C132.453 64.9035 131.593 66.7977 130.2 68.0303C129.157 68.949 127.847 69.41 126.573 69.41Z" fill="black"/>
<path d="M107.087 67.459C106.63 67.459 106.17 67.302 105.793 66.9813C104.95 66.2631 104.85 65.0003 105.563 64.1552C106.28 63.31 106.59 62.0439 106.397 60.7678C106.203 59.495 105.53 58.3826 104.6 57.7947C104.37 57.6477 104.1 57.504 103.813 57.3504C102.817 56.8192 101.573 56.1544 100.857 54.7748C99.9233 53.0209 100.44 51.1736 100.82 49.8207C100.867 49.6536 100.913 49.4866 100.957 49.3229C100.977 49.216 101.003 49.1191 101.03 49.039C101.357 47.5156 100.313 46.6772 99.9799 46.4533C99.2499 45.9623 98.0833 45.7251 96.9933 46.5168C92.4666 49.814 87.4099 52.1257 81.9599 53.3918C77.5099 54.4173 74.1766 53.659 72.3233 51.197C71.9933 50.7594 71.7499 50.3117 71.5366 49.9175C70.9699 48.8753 70.9499 48.8753 70.3999 48.9187C70.0499 48.9488 69.6966 49.0757 69.3932 49.2862C64.7299 52.4363 59.3433 54.4641 53.7933 55.1623C52.2266 55.3594 50.3799 55.483 48.5499 54.9384C46.3866 54.2937 44.5499 52.737 43.3766 50.5589C41.9766 47.9533 41.6466 44.7229 42.4933 41.9135C43.6999 37.9148 46.8266 34.4071 51.7933 31.4875C52.0999 31.3071 52.4066 31.1334 52.7166 30.9563C54.5933 29.884 56.3633 28.8718 57.2899 27.3418C57.5999 26.8307 57.8399 26.2026 58.0966 25.5379C58.4066 24.7328 58.7266 23.901 59.2266 23.0792C60.2333 21.4189 61.7099 20.2497 63.1499 19.2342C70.4133 14.1965 79.2566 11.5875 88.0699 11.8681C93.6199 12.0619 100.573 14.4404 101.917 20.5103C102.157 21.5926 101.477 22.6616 100.397 22.9021C99.3199 23.1393 98.2499 22.4612 98.0099 21.3788C97.2166 17.791 92.3799 16.0305 87.9366 15.8769C79.9799 15.6163 71.9866 17.9814 65.4366 22.5246C64.3599 23.283 63.2666 24.1348 62.6399 25.1671C62.3266 25.6815 62.0833 26.3129 61.8266 26.981C61.5199 27.7794 61.2033 28.6045 60.7099 29.4196C59.2466 31.8382 56.8299 33.2212 54.6966 34.4372C54.3999 34.6076 54.1066 34.7746 53.8133 34.945C49.7466 37.3368 47.2266 40.0728 46.3199 43.0727C45.7833 44.8565 46.0033 46.9945 46.8966 48.6548C47.3666 49.5267 48.2299 50.6591 49.6866 51.0934C50.8099 51.4275 52.1399 51.3273 53.2933 51.1836C58.2233 50.5623 63.0099 48.7617 67.1333 45.9756C67.9899 45.381 69.0166 45.0102 70.0833 44.92C73.2466 44.6795 74.4199 46.8408 75.0499 48C75.2132 48.3007 75.3666 48.5846 75.5166 48.7817C76.6632 50.305 79.7766 49.7806 81.0599 49.4833C85.9832 48.3408 90.5533 46.2496 94.6433 43.2697C96.9132 41.6162 99.8833 41.556 102.21 43.1161C104.497 44.6494 105.553 47.3753 104.903 50.0545C104.893 50.0946 104.883 50.1313 104.87 50.1714C104.87 50.1748 104.87 50.1781 104.867 50.1781C104.863 50.1881 104.86 50.2015 104.86 50.2115C104.803 50.4353 104.74 50.6625 104.677 50.893C104.47 51.6279 104.217 52.5432 104.403 52.894C104.557 53.1913 105.14 53.502 105.703 53.8026C106.043 53.983 106.393 54.1701 106.75 54.3973C108.67 55.6132 109.987 57.7111 110.36 60.1498C110.733 62.5951 110.1 64.997 108.623 66.7374C108.217 67.2185 107.653 67.459 107.087 67.459ZM104.917 49.7305C104.917 49.7338 104.917 49.7338 104.917 49.7305C104.917 49.7338 104.917 49.7338 104.917 49.7305ZM104.917 49.7271V49.7305V49.7271Z" fill="black"/>
<path d="M62.8099 62.5696C64.0986 62.5696 65.1432 61.2983 65.1432 59.7301C65.1432 58.1619 64.0986 56.8906 62.8099 56.8906C61.5212 56.8906 60.4766 58.1619 60.4766 59.7301C60.4766 61.2983 61.5212 62.5696 62.8099 62.5696Z" fill="black"/>
<path d="M74.1439 63.3548C75.4325 63.3548 76.4772 62.0835 76.4772 60.5153C76.4772 58.9471 75.4325 57.6758 74.1439 57.6758C72.8552 57.6758 71.8105 58.9471 71.8105 60.5153C71.8105 62.0835 72.8552 63.3548 74.1439 63.3548Z" fill="black"/>
<path d="M103.196 100.081C102.17 100.081 101.293 99.2927 101.206 98.2438C100.783 93.2128 101.76 90.9112 103.833 86.5818C104.593 85.0017 106.03 84.6542 106.89 84.4471C107.076 84.4003 107.253 84.3603 107.406 84.3101C108.2 84.0596 108.983 83.7723 109.74 83.4516C111.27 82.8169 112.706 81.9985 114.026 81.0163C116.686 79.0019 118.54 76.2927 119.226 73.3931C119.58 71.9332 120.06 68.3855 116.936 66.8054C115.573 66.1139 114.236 65.8433 110.573 69.0704C109.743 69.8019 108.48 69.7184 107.75 68.8866C107.02 68.0548 107.103 66.7887 107.933 66.0571C113.193 61.4237 116.233 61.9582 118.736 63.2243C122.616 65.1886 124.293 69.4412 123.113 74.3251C122.213 78.12 119.836 81.6377 116.423 84.22C114.83 85.4059 113.103 86.388 111.283 87.143C110.42 87.5071 109.516 87.8412 108.606 88.1251C108.33 88.212 108.063 88.2788 107.83 88.3356C107.683 88.3723 107.493 88.4157 107.37 88.4558C105.453 92.4645 104.86 93.9711 105.193 97.8997C105.286 99.0021 104.47 99.9709 103.37 100.064C103.31 100.078 103.253 100.081 103.196 100.081Z" fill="black"/>
<path d="M79.7126 103.036C78.6493 103.036 77.766 102.197 77.716 101.122C77.6093 98.7698 77.586 97.5873 77.6526 95.9738C73.646 96.7488 69.566 96.0372 66.4193 95.486C61.336 94.5874 57.386 92.7735 54.3426 89.9373C48.7493 84.716 46.1393 76.2509 47.1793 66.7068C47.5693 63.1691 49.0226 57.9043 51.0726 52.6229C51.4726 51.5906 52.6326 51.0795 53.6626 51.4804C54.6926 51.8813 55.2026 53.0438 54.8026 54.076C52.5293 59.9354 51.4293 64.669 51.156 67.1444C50.2526 75.4124 52.406 82.6515 57.0693 87.0009C59.5626 89.326 62.7526 90.7658 67.1093 91.5341C71.5626 92.3125 75.5393 92.8369 79.0526 91.3971C79.6893 91.1366 80.416 91.2234 80.976 91.6243C81.536 92.0285 81.8493 92.69 81.806 93.3781C81.5926 96.7388 81.556 97.4804 81.716 100.928C81.766 102.034 80.9126 102.972 79.8093 103.022C79.7726 103.036 79.7426 103.036 79.7126 103.036Z" fill="black"/>
</g>
<defs>
<clipPath id="clip0_805_37682">
<rect width="180" height="180" rx="24" fill="white"/>
</clipPath>
<clipPath id="clip1_805_37682">
<rect width="200" height="200.436" fill="white" transform="translate(-10 95.2734)"/>
</clipPath>
</defs>
</svg>
