<svg width="180" height="180" viewBox="0 0 180 180" fill="none" xmlns="http://www.w3.org/2000/svg">
<g clip-path="url(#clip0_805_33505)">
<rect width="180" height="180" rx="24" fill="white"/>
<g clip-path="url(#clip1_805_33505)">
<path d="M103.124 95.2734C103.424 98.6474 104.8 106.271 109.924 105.128L110.474 105.963C110.224 111.198 107.577 114.889 103.43 118.714C99.2171 122.539 93.8437 124.838 88.1737 125.242C83.1737 125.609 77.8571 124.41 74.1171 121.049C70.3771 117.689 68.4104 113.032 70.8871 109.04H71.2471C72.3737 109.073 73.4104 108.482 74.3637 107.881C75.5771 107.113 78.0804 103.962 78.8304 103.057C79.8304 101.758 80.2371 96.8302 80.7504 95.2734H103.124V95.2734Z" fill="#FFD39F"/>
<path fill-rule="evenodd" clip-rule="evenodd" d="M38.0931 224.649C39.6121 224.805 41.1229 224.959 42.6904 225.258L42.8504 225.278L40.5671 245.007L40.5653 245.023C40.0659 249.331 39.5669 253.635 39.3771 257.972C39.3304 259.065 39.3271 260.244 39.9538 261.139C40.7104 262.231 42.1304 262.562 43.4238 262.809L57.7571 265.559L61.9471 266.05C84.1571 269.805 106.407 268.829 128.577 264.844L144.067 261.754C145.481 261.314 147.029 261.12 148.589 260.925C151.864 260.516 155.193 260.1 157.45 257.384C157.724 256.753 157.837 256.065 157.784 255.38C156.82 250.741 153.847 242.413 151.115 234.759C149.125 229.183 147.263 223.965 146.397 220.791L146.064 220.247C145.687 194.972 144.664 169.623 138.967 145.047L137.907 141.836C135.107 132.783 131.44 124.098 126.28 116.251L125.614 109.837C125.627 108.791 125.364 107.756 124.85 106.844C124.337 105.932 123.594 105.17 122.694 104.635C121.794 104.101 120.77 103.817 119.724 103.807C118.677 103.797 117.647 104.064 116.737 104.582C117.95 102.979 117.347 100.466 115.764 99.2371C114.18 98.0078 111.944 97.9042 110.034 98.5055C108.124 99.1068 106.477 100.326 104.91 101.576C103.776 102.483 102.653 103.426 101.528 104.37C96.8015 108.338 92.0305 112.344 86.1504 113.962L82.2104 112.726C80.0138 112.232 78.5404 110.164 77.6804 108.083C77.3824 107.362 77.134 106.618 76.8859 105.875C76.418 104.474 75.951 103.076 75.1538 101.836C73.9338 99.9386 71.6271 98.4587 69.4871 99.1469C66.8638 99.9887 66.1471 103.283 65.6604 106.002C65.6171 106.416 65.4738 106.817 65.2404 107.161C64.8674 107.626 64.2377 107.76 63.6483 107.886C63.6111 107.893 63.574 107.901 63.5371 107.909C62.2038 108.197 60.8471 108.711 59.8704 109.683C58.8938 110.655 58.3538 112.155 58.8004 113.461L57.1138 116.254C56.1804 117.306 53.7804 120.747 53.7804 120.747C47.6156 131.153 45.2408 141.875 42.6593 153.529C42.5888 153.848 42.5181 154.167 42.4471 154.487C37.8245 176.415 35.7661 197.201 33.6378 218.693C33.4641 220.448 33.2899 222.207 33.1138 223.972C34.836 224.317 36.4693 224.484 38.0931 224.649ZM41.4771 233.335C38.5138 233.315 35.5671 232.864 32.7305 231.999C32.9305 229.51 33.1471 226.955 34.2171 224.7L42.4605 225.622L41.4771 233.335Z" fill="black"/>
<path fill-rule="evenodd" clip-rule="evenodd" d="M93.0267 125.985C93.0967 127.048 93.9767 127.859 95.02 127.859C95.0667 127.859 95.11 127.859 95.15 127.849C104.067 127.265 112.797 124.465 120.4 119.762C121.97 118.792 123.286 117.778 124.346 116.723C124.4 116.937 124.489 117.145 124.617 117.34C129.23 124.355 132.953 132.56 136.003 142.418C136.27 143.28 137.06 143.831 137.913 143.831C138.11 143.831 138.31 143.801 138.503 143.741C139.56 143.413 140.15 142.291 139.823 141.232C136.66 131.006 132.78 122.471 127.957 115.135C127.581 114.562 126.962 114.246 126.325 114.234C127.158 112.838 127.587 111.383 127.607 109.874C127.623 108.474 127.27 107.091 126.587 105.872C125.903 104.652 124.907 103.63 123.703 102.918C122.503 102.207 121.13 101.826 119.733 101.813C119.6 101.813 119.47 101.813 119.337 101.819C119.143 100.249 118.333 98.7127 116.98 97.6637C115.01 96.1337 112.183 95.7362 109.427 96.6048C107.157 97.3197 105.26 98.7394 103.657 100.019C101.898 101.425 100.426 102.805 99.002 104.139L98.95 104.188L98.9465 104.191C95.5749 107.353 92.9118 109.851 88.23 111.14C87.1634 111.434 86.5367 112.536 86.83 113.605C87.1234 114.674 88.2267 115.302 89.29 115.008C94.9267 113.458 98.21 110.378 101.683 107.118L101.738 107.067C103.104 105.786 104.518 104.461 106.15 103.156C107.53 102.057 109.01 100.938 110.627 100.43C112.113 99.9621 113.61 100.116 114.533 100.834C115.323 101.449 115.627 102.735 115.137 103.383C114.563 104.141 114.6 105.2 115.227 105.915C115.853 106.63 116.893 106.807 117.72 106.339C118.313 106.002 118.987 105.825 119.667 105.825H119.7C120.393 105.828 121.077 106.019 121.673 106.373C122.27 106.727 122.763 107.231 123.103 107.839C123.443 108.447 123.62 109.132 123.61 109.827C123.583 112.002 121.797 114.196 118.303 116.354C111.253 120.717 103.157 123.309 94.89 123.854C93.79 123.927 92.9534 124.88 93.0267 125.985ZM55.18 267.085C55.0567 267.085 54.93 267.072 54.8034 267.049L43.0567 264.794C41.7434 264.53 39.58 264.092 38.3267 262.308C37.9654 261.792 37.7346 261.248 37.5902 260.696C36.1164 260.44 34.7077 259.878 33.4533 259.038C31.7833 257.922 30.46 256.365 29.63 254.535C29.4933 254.234 29.4333 253.907 29.4533 253.579C29.4849 253.055 29.5254 252.518 29.5663 251.975L29.5663 251.975L29.5664 251.975L29.5664 251.975L29.5664 251.974L29.5664 251.974L29.5664 251.974L29.5664 251.974L29.5733 251.882C29.92 247.189 30.2767 242.335 27.0367 239.084C26.78 238.827 26.6 238.507 26.51 238.152C25.7227 234.996 27.4577 231.973 30.8531 230.469C31.0044 228.841 31.2333 227.122 31.7747 225.451C31.3219 225.037 31.0677 224.422 31.1333 223.771C31.2781 222.325 31.4207 220.882 31.5628 219.442L31.6566 218.493L31.6658 218.4C33.8224 196.637 35.8599 176.076 40.4999 154.07L40.7166 153.091C43.2999 141.422 45.7433 130.402 52.0699 119.718C52.0966 119.675 52.1233 119.635 52.1499 119.595L52.1865 119.543C52.5693 118.997 54.6834 115.982 55.6299 114.918C55.9852 114.517 56.4657 114.292 56.9602 114.252C56.9429 114.206 56.9262 114.16 56.9101 114.113C56.2401 112.159 56.8501 109.864 58.4634 108.26C59.5934 107.138 61.1134 106.383 63.1201 105.948L63.2367 105.922C63.3667 105.895 63.5401 105.858 63.6701 105.821C63.6701 105.816 63.6709 105.812 63.6717 105.808L63.6717 105.808C63.6726 105.804 63.6734 105.8 63.6734 105.795C63.6801 105.741 63.6867 105.691 63.6967 105.641L63.6984 105.632C64.1852 102.955 64.9978 98.4874 68.8801 97.2361C71.1934 96.4945 74.6701 97.2862 76.8534 100.767C77.0892 101.143 77.2987 101.525 77.4885 101.91C77.8829 101.049 78.8476 100.564 79.7966 100.807C80.8666 101.078 81.5166 102.17 81.2433 103.243C80.9419 104.442 80.4594 105.245 79.2098 106.471C79.3137 106.757 79.4204 107.037 79.5334 107.311C80.0034 108.444 81.0334 110.401 82.6534 110.769C83.7301 111.013 84.4067 112.085 84.1667 113.164C83.9234 114.243 82.8534 114.921 81.7767 114.681C79.2701 114.116 77.1601 112.045 75.8367 108.851C75.5101 108.063 75.2401 107.271 74.9834 106.503L74.9709 106.466C74.5289 105.163 74.1106 103.931 73.4634 102.902C72.7134 101.706 71.2501 100.687 70.1001 101.054C68.6401 101.525 68.0634 103.994 67.6434 106.292C67.5567 107.004 67.3001 107.689 66.9001 108.283C66.8701 108.327 66.8367 108.37 66.8034 108.414C65.986 109.433 64.8408 109.678 64.0774 109.842L64.0701 109.844L63.9634 109.867C62.7467 110.131 61.8467 110.545 61.2834 111.103C60.7867 111.597 60.5334 112.332 60.6967 112.81C60.8501 113.258 61.3567 113.739 61.8301 114.146C66.1234 117.914 71.3467 120.437 76.9467 121.445C78.0334 121.642 78.7567 122.685 78.5601 123.774C78.3801 124.743 77.5367 125.424 76.5901 125.424C76.4734 125.424 76.3534 125.414 76.2334 125.391C69.9201 124.252 64.0301 121.409 59.2034 117.173C59.1317 117.111 59.0594 117.048 58.9867 116.983C58.9024 117.198 58.7793 117.401 58.6166 117.584C57.9299 118.355 56.1533 120.854 55.4699 121.83C49.4966 131.942 47.1266 142.635 44.6199 153.959L44.4066 154.918C39.8111 176.713 37.7843 197.19 35.6383 218.87L35.6366 218.887C35.5233 220.023 35.4099 221.162 35.2966 222.305C36.2933 222.445 37.2799 222.549 38.3033 222.652L38.3572 222.658C39.2569 222.75 40.1738 222.844 41.1121 222.97L42.6267 209.881L42.6381 209.784C45.3812 186.253 48.2176 161.921 53.7367 138.446C53.99 137.37 55.0667 136.699 56.1434 136.956C57.2167 137.21 57.8834 138.289 57.63 139.368C52.1628 162.626 49.3396 186.848 46.6091 210.274L46.6 210.352L46.5034 211.187L42.56 245.261L42.558 245.279C42.0719 249.479 41.5698 253.819 41.38 258.083C41.3567 258.614 41.3134 259.609 41.5967 260.01C41.93 260.484 43.1167 260.725 43.8234 260.865L55.55 263.113C56.6334 263.321 57.3467 264.373 57.1367 265.459C56.96 266.417 56.1234 267.085 55.18 267.085ZM30.3267 236.736C30.2665 235.21 31.975 234.346 32.6412 234.067C34.9414 234.729 37.3022 235.137 39.6872 235.283L38.5867 244.794L38.5728 244.914C38.1342 248.712 37.6823 252.626 37.4556 256.549C36.8279 256.357 36.2288 256.073 35.6767 255.704C34.76 255.089 34.0067 254.264 33.4833 253.295C33.4981 253.06 33.5156 252.824 33.5333 252.587C33.5434 252.451 33.5536 252.314 33.5633 252.176L33.5637 252.171C33.9236 247.281 34.3685 241.238 30.3267 236.736ZM40.651 226.954L40.1488 231.295C38.3678 231.2 36.5991 230.937 34.8667 230.513C35.0084 229.087 35.2215 227.677 35.6789 226.399C36.4325 226.491 37.1704 226.567 37.8966 226.641L38.0502 226.657C38.9351 226.748 39.7928 226.837 40.651 226.954ZM61.6133 268.021C71.0533 269.618 80.6933 270.416 90.6566 270.416C102.728 270.416 115.272 269.24 128.479 266.891C130.272 268.273 132.38 269.003 134.703 269.003C134.953 269.003 135.21 268.996 135.467 268.976C139.001 268.744 142.073 266.819 144.132 263.75C144.307 263.744 144.483 263.715 144.66 263.665C145.903 263.277 147.33 263.097 148.837 262.91C152.3 262.479 156.223 261.988 158.987 258.664C159.11 258.517 159.21 258.353 159.287 258.176C159.683 257.251 159.853 256.229 159.777 255.223C159.773 255.18 159.768 255.138 159.762 255.096C159.756 255.053 159.748 255.011 159.74 254.969C158.747 250.193 155.825 242.004 152.998 234.085L152.998 234.084L152.997 234.08C151.027 228.568 149.17 223.36 148.323 220.26C148.266 220.05 148.178 219.857 148.065 219.684C147.736 195.531 146.852 172.286 141.18 147.783C140.93 146.704 139.857 146.032 138.78 146.283C137.703 146.533 137.033 147.609 137.283 148.688C143.613 176.038 143.887 201.985 144.177 229.456L144.177 229.464L144.183 229.971L118.947 229.557C115.197 200.193 113.903 170.325 115.1 140.751C115.147 139.645 114.287 138.71 113.183 138.666C112.08 138.626 111.147 139.481 111.103 140.587C109.873 170.963 111.253 201.65 115.203 231.792C115.306 232.567 115.841 233.192 116.547 233.431C116.265 235.483 116.192 237.561 116.33 239.632C116.33 240.006 116.393 240.374 116.523 240.725C116.673 241.126 116.897 241.486 117.19 241.794C117.218 241.823 117.247 241.852 117.276 241.879C116.068 242.795 115.067 243.966 114.627 245.375C114.247 246.594 114.13 248.492 115.73 250.596C117.21 252.547 119.253 253.72 121.057 254.752C121.413 254.956 121.767 255.16 122.12 255.37C122.613 255.662 123.153 257.631 123.388 258.492L123.393 258.51C123.557 259.111 123.713 259.679 123.897 260.187C124.32 261.351 124.822 262.41 125.395 263.358C102.687 267.174 82.0113 267.405 62.2766 264.069C61.1866 263.882 60.1566 264.62 59.9733 265.712C59.7899 266.801 60.5233 267.837 61.6133 268.021ZM123.46 242.554C123.26 243.127 122.805 243.602 122.183 243.801C120.33 244.403 118.757 245.569 118.443 246.574C118.383 246.765 118.227 247.269 118.91 248.168C119.899 249.47 121.425 250.345 123.037 251.27L123.038 251.27L123.04 251.271C123.131 251.323 123.221 251.375 123.312 251.427C123.598 251.592 123.882 251.755 124.163 251.922C126.044 253.04 126.711 255.479 127.247 257.438L127.25 257.448C127.39 257.966 127.527 258.457 127.653 258.811C128.733 261.781 130.913 265.251 135.2 264.974C138.017 264.787 141.417 262.666 142.533 257.271C143.389 253.123 142.615 248.659 141.866 244.337L141.863 244.323L141.823 244.092C141.747 243.648 141.671 243.207 141.597 242.766C141.582 242.678 141.573 242.59 141.57 242.503L123.46 242.554ZM145.042 241.077C145.295 241.353 145.473 241.704 145.54 242.101C145.627 242.612 145.713 243.123 145.803 243.638L145.806 243.655C146.619 248.343 147.459 253.191 146.45 258.086C146.37 258.474 146.278 258.854 146.175 259.226C146.899 259.11 147.623 259.02 148.337 258.931C151.337 258.557 153.947 258.23 155.7 256.335C155.767 256.112 155.797 255.874 155.79 255.641C154.821 251.111 151.859 242.809 149.239 235.464L149.227 235.43L149.139 235.185L149.139 235.184L149.139 235.184L149.139 235.184C148.807 234.254 148.479 233.334 148.159 232.432C148.078 232.807 147.89 233.154 147.613 233.429C147.243 233.803 146.733 234.013 146.207 234.013H146.173L145.502 234.002L145.667 238.236C145.684 238.757 145.723 240.037 145.042 241.077ZM141.496 233.936L120.565 233.592C120.315 235.236 120.22 236.901 120.28 238.563L141.673 238.503V238.503C141.673 238.486 141.673 238.469 141.673 238.45C141.673 238.429 141.672 238.406 141.67 238.383L141.496 233.936Z" fill="black"/>
</g>
<path d="M50.493 87.6528C49.9497 88.5548 49.1797 89.2998 48.263 89.8109C47.343 90.322 46.3064 90.5826 45.2564 90.5692C44.2064 90.5525 43.1764 90.2618 42.273 89.724C41.3697 89.1862 40.623 88.4212 40.103 87.5025C39.0864 85.6953 38.6464 83.0629 36.6164 82.6653C34.9297 82.3313 33.553 83.898 32.283 85.0572C30.7664 86.4302 28.7997 87.419 26.7564 87.3689C24.713 87.3188 22.6364 86.0627 22.0097 84.1118C21.113 81.3291 23.2297 78.4629 23.213 75.5432C23.253 74.7548 22.993 73.9831 22.4864 73.3785C21.3097 72.1558 19.2964 72.7738 17.6097 72.6135C14.083 72.2794 11.943 68.0101 12.8097 64.5693C13.6764 61.1285 16.653 58.603 19.8097 56.9995C22.9664 55.396 26.443 54.4774 29.5864 52.8338C33.483 50.786 36.7397 47.6993 38.9997 43.9144C40.7597 40.9647 41.8697 37.6508 43.7364 34.7679C47.0697 29.6367 52.5464 26.2627 58.243 24.0546C63.9397 21.8465 69.9664 20.6539 75.7997 18.8466C80.1797 17.4903 84.623 15.7666 89.1864 16.1741C92.2097 16.4447 95.393 17.9346 96.5197 20.7541L104.336 23.5101C113.576 23.8842 122.42 29.5699 126.61 37.8345C128.05 40.6674 129.003 43.8142 131.07 46.2261C133.903 49.5333 138.736 51.3907 139.896 55.5798C141.433 61.1085 135.496 66.0425 135.13 71.7683C134.923 74.9853 136.463 78.513 134.796 81.269C133.353 83.6475 130.13 84.2922 128.3 86.3901C126.116 88.8889 126.19 93.1214 123.37 94.8652C122.26 95.55 117.966 96.3584 116.786 95.8139C111.946 93.5857 111.436 96.5923 107.343 96.9798" fill="black"/>
<path d="M103.213 100.093C102.833 95.5202 103.68 91.5983 105.667 87.4627C106.117 86.5273 107.083 86.5373 108.04 86.2333C108.89 85.9661 109.723 85.6587 110.547 85.3113C112.217 84.6165 113.793 83.7179 115.247 82.6388C118.12 80.4641 120.36 77.4108 121.2 73.8698C121.963 70.6595 121.427 66.8378 117.867 65.0306C115.357 63.7611 113.107 64.2121 109.283 67.5794L106.313 66.8278C102.52 66.5973 99.53 63.2701 98.2866 59.6756C97.0433 56.0811 97.1233 52.1826 96.8466 48.3877C96.7233 46.694 96.4566 44.86 95.2333 43.6841C93.9 42.408 91.87 42.3112 90.03 42.2844L87.0966 41.2823C85.9666 40.0563 84.5833 39.0908 83.0466 38.4461C81.51 37.8047 79.8533 37.5007 78.1866 37.5575C76.5233 37.6143 74.89 38.0285 73.4 38.7735C71.91 39.5184 70.5966 40.5774 69.55 41.8769C68.3 43.4303 67.3566 45.3845 65.55 46.2364C63.7433 47.0882 61.6933 46.5938 59.73 46.6306C57.7666 46.6673 55.4266 47.733 55.3766 49.6972L52.9566 53.3719C50.8066 58.9139 49.5133 63.9181 49.1866 66.9481C48.3633 74.578 49.9 83.0564 55.7233 88.4916C58.8266 91.3845 62.67 92.8076 66.78 93.5325C71.0666 94.2908 75.6666 94.9823 79.8266 93.2786C79.6066 96.7562 79.5733 99.2383 79.7333 102.719" fill="#FFD39F"/>
<path d="M45.343 92.5836C45.303 92.5836 45.2663 92.5836 45.2263 92.5836C43.8296 92.5635 42.453 92.176 41.2496 91.4578C40.0463 90.7429 39.0496 89.7207 38.3596 88.5014C38.033 87.9201 37.7763 87.3155 37.5263 86.7342C37.1263 85.7955 36.6763 84.7332 36.2296 84.6463C35.763 84.5528 34.773 85.4848 34.1163 86.0995C33.9496 86.2565 33.7863 86.4102 33.623 86.5572C31.5296 88.4379 29.0796 89.4401 26.7063 89.3866C23.673 89.3165 20.9596 87.4057 20.103 84.7399C19.3863 82.5217 20.0163 80.4338 20.573 78.5898C20.8996 77.5008 21.2096 76.4752 21.2096 75.5566C21.2096 75.5232 21.2096 75.4864 21.213 75.453C21.2263 75.2025 21.153 74.9586 21.0096 74.7548C20.7496 74.5744 19.8863 74.6112 19.2496 74.6346C18.663 74.6579 18.0563 74.6813 17.4196 74.6212C15.403 74.4308 13.5863 73.3317 12.3063 71.5211C10.8063 69.3998 10.2563 66.557 10.8696 64.0983C11.7496 60.5606 14.603 57.4071 18.9063 55.2257C20.533 54.4006 22.2196 53.7525 23.8496 53.1278C25.5463 52.4764 27.1463 51.8617 28.6596 51.07C32.2363 49.1926 35.2263 46.3631 37.303 42.8889C38.063 41.6161 38.6963 40.2632 39.3663 38.8301C40.1696 37.1197 40.9963 35.3492 42.0763 33.6789C45.243 28.7949 50.4463 24.9298 57.5396 22.1872C61.1896 20.7775 64.983 19.7653 68.6496 18.7831C70.8196 18.2019 73.063 17.6039 75.2263 16.9325C75.8263 16.7454 76.4263 16.555 77.0263 16.3612C80.9696 15.0951 85.0463 13.789 89.3829 14.1798C92.723 14.4805 96.8463 16.1708 98.393 20.0058C98.8063 21.0314 98.313 22.2006 97.2863 22.6148C96.2629 23.029 95.0963 22.5346 94.6829 21.5057C93.8096 19.341 91.0896 18.3589 89.023 18.1718C85.493 17.8545 81.973 18.9836 78.243 20.1795C77.6296 20.3766 77.0163 20.5737 76.4063 20.7641C74.1696 21.4556 71.8863 22.067 69.6796 22.6582C66.113 23.6103 62.4263 24.5958 58.9796 25.9287C52.6863 28.3606 48.1263 31.7046 45.4296 35.8636C44.4996 37.3001 43.763 38.8701 42.9863 40.5338C42.303 41.9903 41.5963 43.5002 40.733 44.9467C38.2796 49.0556 34.743 52.4029 30.5096 54.6244C28.7896 55.523 27.003 56.2078 25.2763 56.8726C23.6696 57.4873 22.153 58.0719 20.7096 58.8035C18.8263 59.7589 15.5496 61.8434 14.7463 65.0704C14.413 66.4067 14.7363 68.0302 15.5663 69.2061C15.9863 69.8007 16.7163 70.5323 17.793 70.6325C18.163 70.6693 18.613 70.6492 19.0896 70.6325C20.5196 70.5757 22.4763 70.4989 23.923 72.0022C23.953 72.0356 23.983 72.0657 24.013 72.1024C24.8396 73.0845 25.263 74.3272 25.2096 75.61C25.1996 77.1033 24.7763 78.5097 24.3996 79.7524C23.9563 81.2189 23.5763 82.4816 23.9096 83.5105C24.243 84.5461 25.483 85.3512 26.7996 85.3813C28.1563 85.4046 29.6196 84.7733 30.9463 83.5807C31.0863 83.4537 31.2363 83.3134 31.3896 83.1698C32.7163 81.9271 34.5363 80.2234 37.0063 80.7145C39.5296 81.2089 40.4996 83.4938 41.2096 85.1641C41.4263 85.6685 41.6263 86.1463 41.8463 86.5338C42.1896 87.1451 42.6896 87.6562 43.293 88.0136C43.8963 88.3711 44.583 88.5682 45.283 88.5782C45.9863 88.5882 46.6763 88.4145 47.2896 88.0738C47.903 87.733 48.4163 87.2353 48.7796 86.634C49.3496 85.6853 50.5796 85.3813 51.5263 85.9525C52.473 86.5237 52.7763 87.7564 52.2063 88.7052C51.483 89.9044 50.4563 90.8966 49.233 91.5781C48.043 92.2362 46.6996 92.5836 45.343 92.5836Z" fill="black"/>
<path d="M107.359 98.9878C106.339 98.9878 105.469 98.2095 105.369 97.1705C105.265 96.0681 106.072 95.0894 107.172 94.9858C108.332 94.8756 109.092 94.5014 109.972 94.0638C111.729 93.1952 113.715 92.2097 117.572 93.9636C118.462 94.1506 121.625 93.566 122.345 93.1551C123.355 92.5304 123.869 91.1508 124.465 89.5573C125.012 88.0908 125.632 86.4272 126.815 85.0709C127.852 83.885 129.169 83.1066 130.335 82.4252C131.539 81.7169 132.579 81.1056 133.109 80.2304C133.822 79.0478 133.619 77.4076 133.385 75.5068C133.232 74.2607 133.072 72.9713 133.155 71.6417C133.342 68.7321 134.662 66.1832 135.939 63.7178C137.392 60.9117 138.649 58.4864 137.992 56.1213C137.435 54.1069 135.615 52.6905 133.509 51.0536C132.149 49.9946 130.745 48.9023 129.572 47.536C127.939 45.6318 126.965 43.4204 126.019 41.2824C125.629 40.3971 125.259 39.5586 124.845 38.7469C121.005 31.1737 112.739 25.8588 104.272 25.5148C103.169 25.4713 102.309 24.536 102.355 23.4302C102.399 22.3245 103.339 21.466 104.435 21.5094C114.455 21.9136 123.869 27.9668 128.412 36.9296C128.872 37.8349 129.282 38.7636 129.679 39.6588C130.542 41.6164 131.359 43.4671 132.609 44.9236C133.515 45.9826 134.705 46.9079 135.962 47.8867C138.292 49.7007 140.932 51.7551 141.845 55.0456C142.925 58.9307 141.099 62.4551 139.489 65.5652C138.352 67.7599 137.279 69.8311 137.145 71.8989C137.085 72.851 137.215 73.9 137.352 75.0124C137.639 77.3207 137.962 79.9364 136.525 82.3082C135.469 84.052 133.815 85.0241 132.355 85.8793C131.365 86.4606 130.432 87.0084 129.822 87.71C129.119 88.5151 128.679 89.701 128.209 90.957C127.465 92.9547 126.622 95.2196 124.435 96.5726C122.992 97.4612 117.959 98.5569 115.965 97.6349C113.799 96.636 113.155 96.9567 111.742 97.6583C110.719 98.166 109.442 98.7974 107.549 98.9778C107.485 98.9845 107.422 98.9878 107.359 98.9878ZM117.639 93.9936C117.639 93.997 117.639 93.997 117.639 93.9936C117.639 93.997 117.639 93.997 117.639 93.9936Z" fill="black"/>
<path d="M55.3457 51.7033C55.3291 51.7033 55.3124 51.7033 55.2924 51.7033C54.1891 51.6766 53.3157 50.7546 53.3424 49.6489C53.4224 46.4653 56.6557 44.6847 59.6591 44.628C60.2924 44.6146 60.9024 44.6513 61.4924 44.6847C62.7457 44.7582 63.8291 44.8184 64.6657 44.4242C65.5157 44.0233 66.1757 43.0913 66.9357 42.0089C67.2591 41.5513 67.5891 41.0802 67.9624 40.6192C69.1957 39.0859 70.7157 37.8633 72.4757 36.9813C74.2357 36.1028 76.1257 35.6217 78.0891 35.5549C80.0557 35.4881 81.9724 35.8389 83.7857 36.5972C85.5991 37.3555 87.1991 38.4746 88.5324 39.9211C89.2824 40.7328 89.2324 42.0022 88.4224 42.7539C87.6124 43.5055 86.3457 43.4554 85.5957 42.6436C84.6524 41.6214 83.5257 40.833 82.2424 40.2985C80.9624 39.764 79.6057 39.5135 78.2224 39.5636C76.8357 39.6104 75.5024 39.9478 74.2591 40.5691C73.0157 41.1905 71.9457 42.0557 71.0724 43.138C70.7824 43.4988 70.4991 43.8997 70.2024 44.324C69.2524 45.6736 68.1757 47.2002 66.3691 48.0521C64.6157 48.8805 62.8357 48.777 61.2657 48.6868C60.7257 48.6567 60.2157 48.6266 59.7357 48.6367C58.4857 48.6601 57.3557 49.2781 57.3457 49.7491C57.3191 50.8381 56.4291 51.7033 55.3457 51.7033Z" fill="black"/>
<path d="M106.286 68.8179C106.246 68.8179 106.202 68.8179 106.162 68.8146C102.932 68.6175 98.4255 66.2757 96.3655 60.3194C95.2922 57.216 95.1255 54.0157 94.9622 50.919C94.9222 50.1273 94.8788 49.3122 94.8222 48.5205C94.7222 47.1575 94.5322 45.8046 93.8188 45.1164C93.0522 44.3781 91.5589 44.298 89.9722 44.2746C88.8689 44.2579 87.9855 43.3492 88.0022 42.2402C88.0189 41.1344 88.9289 40.2492 90.0322 40.2659C91.8589 40.2926 94.6222 40.3327 96.5888 42.2234C98.2822 43.8537 98.6655 46.172 98.8155 48.2298C98.8755 49.0583 98.9189 49.8968 98.9622 50.7086C99.1155 53.655 99.2622 56.441 100.149 59.0066C101.102 61.7659 103.409 64.6322 106.406 64.8159C107.509 64.8827 108.349 65.8314 108.282 66.9372C108.216 67.9995 107.332 68.8179 106.286 68.8179Z" fill="black"/>
<path d="M62.8099 62.5696C64.0986 62.5696 65.1432 61.2983 65.1432 59.7301C65.1432 58.1619 64.0986 56.8906 62.8099 56.8906C61.5212 56.8906 60.4766 58.1619 60.4766 59.7301C60.4766 61.2983 61.5212 62.5696 62.8099 62.5696Z" fill="black"/>
<path d="M74.1439 63.3548C75.4325 63.3548 76.4772 62.0835 76.4772 60.5153C76.4772 58.9471 75.4325 57.6758 74.1439 57.6758C72.8552 57.6758 71.8105 58.9471 71.8105 60.5153C71.8105 62.0835 72.8552 63.3548 74.1439 63.3548Z" fill="black"/>
<path d="M103.196 100.081C102.17 100.081 101.293 99.2927 101.206 98.2438C100.783 93.2128 101.76 90.9112 103.833 86.5818C104.593 85.0017 106.03 84.6542 106.89 84.4471C107.076 84.4003 107.253 84.3603 107.406 84.3101C108.2 84.0596 108.983 83.7723 109.74 83.4516C111.27 82.8169 112.706 81.9985 114.026 81.0163C116.686 79.0019 118.54 76.2927 119.226 73.3931C119.58 71.9332 120.06 68.3855 116.936 66.8054C115.573 66.1139 114.236 65.8433 110.573 69.0704C109.743 69.8019 108.48 69.7184 107.75 68.8866C107.02 68.0548 107.103 66.7887 107.933 66.0571C113.193 61.4237 116.233 61.9582 118.736 63.2243C122.616 65.1886 124.293 69.4412 123.113 74.3251C122.213 78.12 119.836 81.6377 116.423 84.22C114.83 85.4059 113.103 86.388 111.283 87.143C110.42 87.5071 109.516 87.8412 108.606 88.1251C108.33 88.212 108.063 88.2788 107.83 88.3356C107.683 88.3723 107.493 88.4157 107.37 88.4558C105.453 92.4645 104.86 93.9711 105.193 97.8997C105.286 99.0021 104.47 99.9709 103.37 100.064C103.31 100.078 103.253 100.081 103.196 100.081Z" fill="black"/>
<path d="M79.7126 103.036C78.6493 103.036 77.766 102.197 77.716 101.122C77.6093 98.7698 77.586 97.5873 77.6526 95.9738C73.646 96.7488 69.566 96.0372 66.4193 95.486C61.336 94.5874 57.386 92.7735 54.3426 89.9373C48.7493 84.716 46.1393 76.2509 47.1793 66.7068C47.5693 63.1691 49.0226 57.9043 51.0726 52.6229C51.4726 51.5906 52.6326 51.0795 53.6626 51.4804C54.6926 51.8813 55.2026 53.0438 54.8026 54.076C52.5293 59.9354 51.4293 64.669 51.156 67.1444C50.2526 75.4124 52.406 82.6515 57.0693 87.0009C59.5626 89.326 62.7526 90.7658 67.1093 91.5341C71.5626 92.3125 75.5393 92.8369 79.0526 91.3971C79.6893 91.1366 80.416 91.2234 80.976 91.6243C81.536 92.0285 81.8493 92.69 81.806 93.3781C81.5926 96.7388 81.556 97.4804 81.716 100.928C81.766 102.034 80.9126 102.972 79.8093 103.022C79.7726 103.036 79.7426 103.036 79.7126 103.036Z" fill="black"/>
</g>
<defs>
<clipPath id="clip0_805_33505">
<rect width="180" height="180" rx="24" fill="white"/>
</clipPath>
<clipPath id="clip1_805_33505">
<rect width="200" height="200.436" fill="white" transform="translate(-10 95.2734)"/>
</clipPath>
</defs>
</svg>
