<svg width="180" height="180" viewBox="0 0 180 180" fill="none" xmlns="http://www.w3.org/2000/svg">
<g clip-path="url(#clip0_805_37307)">
<rect width="180" height="180" rx="24" fill="white"/>
<g clip-path="url(#clip1_805_37307)">
<path d="M103.124 95.2734C103.424 98.6474 104.8 106.271 109.924 105.128L110.474 105.963C110.224 111.198 107.577 114.889 103.43 118.714C99.2171 122.539 93.8437 124.838 88.1737 125.242C83.1737 125.609 77.8571 124.41 74.1171 121.049C70.3771 117.689 68.4104 113.032 70.8871 109.04H71.2471C72.3737 109.073 73.4104 108.482 74.3637 107.881C75.5771 107.113 78.0804 103.962 78.8304 103.057C79.8304 101.758 80.2371 96.8302 80.7504 95.2734H103.124V95.2734Z" fill="#FFD39F"/>
<path d="M110.63 103.262C115.734 104.628 119.92 108.303 123.357 112.311C127.7 117.399 131.144 123.195 133.544 129.445C138.854 143.285 138.857 158.886 145.26 172.255C141.784 173.287 138.247 174.089 134.667 174.66L137.554 188.38C144.937 211.29 150.074 228.861 156.82 250.973C157.154 252.102 158.487 256.094 157.87 257.093C157.457 257.761 156.764 258.189 156.087 258.573C152.387 260.681 148.347 260.858 144.174 261.7L128.684 264.79C106.514 268.775 84.2635 269.75 62.0535 265.995L57.8635 265.504L43.5302 262.755C42.2368 262.508 40.8168 262.177 40.0602 261.085C39.4335 260.19 39.4368 259.01 39.4835 257.918C39.6735 253.575 40.1735 249.266 40.6735 244.953L44.6168 210.879C46.3335 196.324 48.0002 181.709 50.3335 167.204L50.1735 167.137C46.2968 165.801 42.4802 164.318 38.6602 162.831C38.1335 162.681 37.6602 162.387 37.2868 161.986C36.5368 161.017 37.1802 159.628 37.8235 158.582C43.5002 149.329 48.3535 139.594 52.3335 129.489C55.3735 121.772 58.5468 113.09 65.9668 109.412L74.3768 105.884C73.6635 107.103 74.5668 110.581 75.5302 111.613C76.4935 112.645 77.8635 113.187 79.1968 113.618C83.6702 115.014 88.5302 115.385 93.0702 114.286C97.6102 113.187 101.854 110.518 104.52 106.652C105.187 105.704 105.744 104.675 106.57 103.87C107.397 103.065 108.57 102.497 109.694 102.747L110.63 103.262Z" fill="black"/>
<path fill-rule="evenodd" clip-rule="evenodd" d="M36.8443 224.069L41.8076 164.851L50.631 164.66C48.1143 180.004 46.321 195.48 44.531 210.931L40.5876 245.005L40.5858 245.021C40.0864 249.328 39.5874 253.632 39.3976 257.97L39.1476 258.835C36.5843 258.374 33.7643 257.612 32.4043 255.387C31.2146 253.45 31.5365 251.146 31.8621 248.814C32.1442 246.794 32.4292 244.754 31.7376 242.914C31.3772 241.951 30.7577 241.03 30.1471 240.122C28.9959 238.411 27.8764 236.746 28.5843 234.943C29.1432 233.531 30.5569 232.872 31.9871 232.205C32.8857 231.786 33.7907 231.364 34.4943 230.75C36.3176 229.16 36.641 226.488 36.8443 224.069ZM124.554 241.3C121.894 219.62 120.264 197.866 119.668 176.042L136.121 175.54L144.221 249.561C144.718 254.111 145.104 259.126 142.461 262.86C141.448 264.29 140.054 265.413 138.441 266.097C136.828 266.782 135.058 267.003 133.324 266.735C131.594 266.468 129.971 265.72 128.638 264.581C127.304 263.442 126.318 261.952 125.781 260.278C125.588 259.668 125.452 259.035 125.317 258.405C125.035 257.087 124.756 255.781 123.958 254.719C123.119 253.607 121.836 252.944 120.563 252.287C119.104 251.533 117.657 250.786 116.908 249.374C115.874 247.417 116.721 244.848 118.394 243.408C120.068 241.968 122.351 241.437 124.554 241.3Z" fill="#FFD39F"/>
<path fill-rule="evenodd" clip-rule="evenodd" d="M103.526 103.449C103.621 103.619 103.717 103.79 103.816 103.961C103.623 104.238 103.444 104.511 103.273 104.772C103.106 105.026 102.94 105.28 102.756 105.544C100.47 108.858 96.7264 111.347 92.4831 112.369C88.5031 113.327 84.0764 113.11 79.6931 111.741C78.6131 111.39 77.5231 110.972 76.8731 110.274C76.492 109.866 76.2915 109.268 76.3902 108.9C77.1636 108.35 77.7677 107.803 78.2129 107.4L78.2298 107.385L78.3465 107.278C79.9898 105.791 80.4864 104.913 80.9231 103.997C80.9731 103.89 81.0231 103.787 81.0798 103.677C81.5931 102.698 81.2198 101.485 80.2431 100.967C79.2665 100.453 78.0564 100.827 77.5398 101.806C77.4564 101.966 77.3831 102.116 77.3098 102.27C77.0804 102.754 76.892 103.148 75.9748 104.017C75.3927 103.343 74.4101 103.119 73.5764 103.533L68.1798 106.205C67.5236 106.531 67.1237 107.169 67.0713 107.851C66.4851 107.399 65.6705 107.291 64.9631 107.642C57.1331 111.52 53.7164 120.219 50.7031 127.896L50.3564 128.781C46.4264 138.749 41.5931 148.434 35.9931 157.56C34.5798 159.862 34.4398 161.773 35.5798 163.246C35.6164 163.293 35.6531 163.336 35.6931 163.38C36.2898 164.024 37.0464 164.499 37.8831 164.759L37.8898 164.763C38.504 165.002 39.1217 165.243 39.7423 165.484L34.8464 223.898C34.6597 226.106 34.3931 228.174 33.1764 229.236C32.6864 229.664 31.9364 230.015 31.1397 230.385L31.1304 230.39C29.5453 231.131 27.5714 232.053 26.7197 234.207C25.6298 236.99 27.213 239.345 28.4863 241.239L28.4864 241.239L28.5357 241.313L28.5357 241.313C29.0809 242.127 29.5945 242.894 29.8631 243.617C30.3764 244.98 30.1364 246.707 29.8797 248.535C29.5297 251.04 29.1331 253.883 30.6964 256.432C32.2243 258.931 34.9117 259.973 37.5594 260.56C37.7007 261.158 37.9389 261.75 38.3298 262.308C39.5831 264.092 41.7464 264.53 43.0598 264.794L55.2498 267.132C55.3764 267.155 55.5031 267.169 55.6264 267.169C56.5664 267.169 57.4064 266.501 57.5864 265.545C57.7964 264.459 57.0831 263.407 55.9998 263.2L43.8264 260.865C43.1198 260.725 41.9331 260.484 41.5998 260.01C41.3164 259.609 41.3598 258.613 41.3831 258.082C41.5728 253.819 42.075 249.479 42.561 245.279L42.561 245.279L42.5631 245.261L46.5064 211.187L46.6031 210.352L46.6122 210.274C49.3427 186.847 52.1658 162.626 57.6331 139.368C57.8864 138.289 57.2198 137.209 56.1464 136.956C55.0664 136.698 53.9931 137.37 53.7398 138.446C51.7159 147.054 50.0528 155.778 48.6227 164.535C45.5179 163.421 42.4138 162.214 39.3932 161.039L39.3398 161.018L39.2598 160.988C39.2031 160.968 39.1464 160.948 39.0864 160.931C38.9998 160.908 38.9198 160.871 38.8464 160.827C38.8898 160.64 39.0198 160.276 39.3998 159.658C45.1231 150.331 50.0631 140.436 54.0764 130.251L54.4264 129.362C57.3098 122.02 60.2931 114.427 66.7364 111.236C67.3925 110.911 67.7924 110.273 67.8449 109.591C68.0754 109.768 68.3413 109.893 68.6221 109.957C68.0316 110.433 67.74 111.228 67.9398 112.011C68.8531 115.616 72.0564 117.741 74.9864 119.448C77.8498 121.118 81.1431 121.445 84.0064 121.622C85.3764 121.709 86.8831 121.776 88.4698 121.776C91.7664 121.776 95.4164 121.485 98.9198 120.446C104.97 118.659 108.836 113.014 110.603 109.81C111.136 108.841 110.786 107.622 109.82 107.087C108.853 106.553 107.636 106.904 107.103 107.872C105.633 110.538 102.47 115.218 97.7898 116.601C93.2164 117.954 88.3764 117.877 84.2498 117.624C81.8464 117.473 79.1031 117.213 76.9964 115.983C74.7698 114.687 72.3498 113.124 71.8164 111.026C71.6331 110.296 71.0717 109.762 70.3952 109.581L72.3954 108.59C72.2342 110.113 72.779 111.755 73.9531 113.013C75.2264 114.376 76.8764 115.041 78.4864 115.562C81.4731 116.498 84.4864 116.965 87.4131 116.965C89.4731 116.965 91.4864 116.735 93.4231 116.267C98.6098 115.014 103.21 111.938 106.04 107.839C106.24 107.555 106.43 107.265 106.619 106.974L106.62 106.974L106.631 106.957C107.033 106.342 107.414 105.761 107.846 105.34C108.272 104.924 108.808 104.671 109.129 104.733C109.366 104.965 109.664 105.141 110.006 105.233C113.956 106.292 117.793 109.052 121.73 113.662C125.936 118.589 129.246 124.158 131.57 130.211C133.913 136.314 135.233 142.955 136.51 149.383L136.511 149.39C137.947 156.613 139.427 164.057 142.373 171C132.26 173.695 121.89 174.43 111.493 173.188L112.353 142.989C112.383 141.883 111.513 140.958 110.41 140.928C109.306 140.887 108.383 141.769 108.353 142.875L107.443 174.885C107.413 175.904 108.153 176.782 109.163 176.926C112.016 177.328 114.867 177.588 117.712 177.706C118.327 198.3 119.877 219.089 122.326 239.552C120.196 239.943 118.44 240.724 117.09 241.887C114.58 244.045 113.743 247.666 115.14 250.315C116.182 252.277 118.019 253.226 119.641 254.064L119.646 254.067C120.753 254.638 121.796 255.179 122.36 255.924C122.89 256.632 123.11 257.648 123.36 258.824C123.5 259.492 123.65 260.18 123.873 260.888C124.159 261.78 124.551 262.629 125.037 263.417C102.469 267.176 81.9075 267.387 62.2764 264.069C61.1864 263.881 60.1564 264.62 59.9731 265.712C59.7898 266.801 60.5231 267.837 61.6131 268.02C71.0531 269.617 80.6931 270.416 90.6564 270.416C102.701 270.416 115.216 269.245 128.391 266.906C129.778 267.84 131.354 268.459 133.016 268.715C133.6 268.806 134.183 268.849 134.766 268.849C136.293 268.849 137.806 268.545 139.226 267.944C141.183 267.112 142.866 265.756 144.096 264.018C144.162 263.926 144.226 263.832 144.288 263.738C144.344 263.732 144.4 263.724 144.456 263.714C145.401 263.522 146.365 263.363 147.302 263.209L147.303 263.209L147.416 263.19L147.423 263.189C150.588 262.668 153.859 262.13 156.96 260.364C157.823 259.873 158.8 259.261 159.46 258.192C160.323 256.789 159.88 254.538 158.756 250.877C158.703 250.709 158.66 250.566 158.62 250.432C156.776 244.389 155.043 238.66 153.37 233.118L153.23 232.654C148.886 218.287 144.766 204.661 139.551 188.458L138.198 176.092C140.72 175.585 143.229 174.964 145.723 174.23C146.283 174.063 146.743 173.659 146.983 173.121C147.223 172.583 147.213 171.972 146.96 171.441C143.57 164.364 142.053 156.735 140.447 148.66L140.447 148.66L140.447 148.66L140.447 148.66L140.447 148.66L140.447 148.66L140.436 148.608C139.126 142.017 137.77 135.202 135.306 128.778C132.82 122.297 129.276 116.334 124.773 111.059C120.293 105.811 115.8 102.638 111.043 101.362C111.019 101.355 110.994 101.349 110.969 101.343C110.713 101.092 110.385 100.908 110.01 100.824C108.983 100.595 107.886 100.74 106.859 101.212C106.623 100.792 106.357 100.332 106.033 99.8516C105.416 98.9363 104.173 98.6924 103.256 99.3105C102.343 99.9285 102.1 101.175 102.716 102.093C103.005 102.522 103.251 102.959 103.489 103.383L103.526 103.449ZM146.121 259.337C146.338 259.302 146.555 259.266 146.77 259.231L146.798 259.227C149.734 258.744 152.508 258.288 154.983 256.876L155.027 256.851C155.3 256.694 155.692 256.47 155.92 256.245C155.913 255.75 155.713 254.615 154.93 252.056L154.893 251.937C154.851 251.802 154.815 251.684 154.786 251.588C152.946 245.558 151.213 239.826 149.54 234.28L149.398 233.811L149.397 233.81C146.868 225.442 144.415 217.326 141.778 208.807L146.213 249.34L146.214 249.346C146.514 252.099 146.919 255.811 146.121 259.337ZM135.479 188.027C135.412 188.354 135.427 188.702 135.536 189.042L135.618 189.295L142.236 249.777C142.733 254.317 142.996 258.643 140.833 261.7C140.033 262.829 138.94 263.711 137.666 264.252C136.393 264.79 135 264.964 133.633 264.753C132.27 264.543 130.99 263.955 129.94 263.056C128.89 262.154 128.11 260.982 127.69 259.669C127.534 259.177 127.418 258.639 127.296 258.071L127.296 258.071L127.295 258.07L127.295 258.07L127.276 257.982L127.275 257.978C126.969 256.546 126.622 254.924 125.556 253.509C124.447 252.038 122.881 251.226 121.498 250.51L121.483 250.502L121.469 250.495C120.215 249.847 119.131 249.287 118.68 248.435C118.153 247.439 118.61 245.866 119.7 244.927C120.793 243.985 122.47 243.437 124.68 243.3C125.23 243.267 125.74 243.006 126.093 242.582C126.446 242.154 126.606 241.603 126.54 241.055C123.973 220.135 122.351 198.858 121.718 177.78C125.916 177.759 130.097 177.428 134.25 176.791L135.479 188.027ZM42.6411 209.783C44.2239 196.206 45.8377 182.363 47.9799 168.571C46.5248 168.056 45.0734 167.52 43.6319 166.976L38.8331 224.232C38.5864 227.172 38.1497 230.212 35.8031 232.256C34.8864 233.054 33.7931 233.566 32.8264 234.017L32.8234 234.018C31.6847 234.549 30.7028 235.006 30.4397 235.677C30.1397 236.438 30.7564 237.441 31.8031 238.997C32.4731 239.993 33.1631 241.022 33.6064 242.204C34.4739 244.516 34.1384 246.934 33.8423 249.067L33.8397 249.086L33.8397 249.086C33.5464 251.191 33.2931 253.008 34.1031 254.331C34.7486 255.385 36.034 255.999 37.4671 256.405C37.6964 252.53 38.1426 248.666 38.5758 244.914L38.5898 244.793L42.6298 209.881L42.6411 209.783Z" fill="black"/>
</g>
<path d="M45.9395 67.4937C42.8928 66.1174 41.0228 62.9672 39.9562 59.8103C37.0095 51.068 38.8695 41.1531 43.5828 33.2258C48.2962 25.2986 55.6128 19.1953 63.5828 14.5486C69.7528 10.9508 76.5828 8.09789 83.7261 7.99099C90.8695 7.88409 98.3462 10.9407 102.129 17.0106L106.859 21.1863C112.859 20.2677 118.703 23.6116 123.309 27.5736C128.976 32.4375 133.699 38.5174 136.366 45.4992C139.033 52.481 139.536 60.3882 137.109 67.4569C134.903 73.8742 129.226 79.904 122.473 79.3829" fill="black"/>
<path d="M79.7133 102.704C79.5533 99.223 79.5866 96.741 79.8066 93.2634C75.6466 94.9671 71.0466 94.2656 66.76 93.5173C62.65 92.7924 58.8066 91.3693 55.7033 88.4763C49.88 83.0412 48.3333 74.5628 49.1666 66.9328C49.5 63.9029 50.7866 58.8987 52.9366 53.3567L55.49 49.7221C57.99 45.5998 61.12 41.7915 65.0733 39.0322C69.0266 36.2729 73.8633 34.6493 78.6566 35.0535C79.99 35.1671 81.3666 35.4511 82.4866 36.2027C83.6066 36.9543 84.44 38.2438 84.3433 39.5901L89.3833 42.5031C91.5266 41.0365 94.68 42.169 96.1666 44.317C97.6533 46.465 97.8566 49.2177 97.7666 51.82C97.6766 54.4223 97.3433 57.0681 97.95 59.5969C98.4733 61.638 99.57 63.4853 101.113 64.9185C102.657 66.3516 104.577 67.3103 106.647 67.6778L109.253 67.5509C113.077 64.1835 115.327 63.7326 117.837 65.002C121.41 66.8092 121.947 70.6309 121.17 73.8412C120.33 77.3822 118.09 80.4355 115.217 82.6103C113.767 83.6893 112.187 84.5879 110.517 85.2827C109.697 85.6302 108.86 85.9375 108.01 86.2047C107.053 86.5087 106.087 86.4987 105.637 87.4341C103.657 91.5697 102.813 95.4949 103.2 100.065" fill="#FFD39F"/>
<path fill-rule="evenodd" clip-rule="evenodd" d="M45.1267 69.3097C45.3934 69.4266 45.6667 69.4834 45.9401 69.4834C46.3118 69.4834 46.6763 69.378 46.9907 69.1843C46.6185 77.7081 49.2384 85.1757 54.3434 89.9412C57.3867 92.7773 61.3367 94.5913 66.4201 95.4899C69.5667 96.0411 73.6467 96.7527 77.6534 95.9776C77.5867 97.5911 77.6101 98.7737 77.7167 101.125C77.7667 102.201 78.6501 103.04 79.7134 103.04C79.7434 103.04 79.7734 103.04 79.8101 103.026C80.9134 102.976 81.7667 102.037 81.7167 100.932C81.5567 97.4842 81.5934 96.7426 81.8067 93.382C81.8501 92.6938 81.5367 92.0324 80.9767 91.6282C80.4167 91.2273 79.6901 91.1404 79.0534 91.401C75.5401 92.8408 71.5634 92.3163 67.1101 91.538C62.7534 90.7696 59.5634 89.3298 57.0701 87.0048C52.4067 82.6553 50.2534 75.4163 51.1567 67.1483C51.4301 64.6729 52.5301 59.9393 54.8034 54.0799C55.2034 53.0476 54.6934 51.8851 53.6634 51.4842C52.6334 51.0834 51.4734 51.5945 51.0734 52.6267C49.159 57.5587 47.765 62.4761 47.2713 65.9862C47.1208 65.852 46.9474 65.7383 46.7534 65.6517C44.1067 64.4692 42.6267 61.4693 41.8501 59.1543C39.2634 51.5076 40.5501 42.1941 45.2901 34.2401C49.3634 27.4052 55.8534 21.3588 64.5801 16.2677C71.6801 12.1254 77.9501 10.0709 83.7467 9.9807C90.7567 9.87714 97.2967 13.044 100.423 18.0583C101.01 18.997 102.243 19.2843 103.18 18.6963C104.117 18.1084 104.403 16.8723 103.817 15.9336C99.9067 9.65666 92.1767 5.8417 83.6867 5.97198C77.1834 6.0722 70.2767 8.30372 62.5667 12.8002C53.2501 18.2353 46.2801 24.7562 41.8567 32.1823C36.5267 41.1318 35.1067 51.6947 38.0634 60.4337C39.5434 64.84 41.9834 67.9066 45.1267 69.3097ZM123.287 81.406C122.96 81.406 122.637 81.3926 122.31 81.3692C121.468 81.3053 120.786 80.7246 120.552 79.9612C119.443 81.5466 118.051 82.9907 116.423 84.2221C114.83 85.408 113.103 86.3901 111.283 87.1451C110.42 87.5092 109.517 87.8433 108.607 88.1272C108.33 88.2141 108.063 88.2809 107.83 88.3377C107.796 88.3462 107.76 88.3551 107.722 88.3642C107.599 88.3944 107.465 88.4272 107.37 88.458C105.453 92.4667 104.86 93.9733 105.193 97.9018C105.287 99.0042 104.47 99.973 103.37 100.067C103.31 100.08 103.253 100.083 103.197 100.083C102.17 100.083 101.293 99.2948 101.207 98.2459C100.783 93.215 101.76 90.9133 103.833 86.5839C104.593 85.0038 106.03 84.6564 106.89 84.4492C106.929 84.4395 106.967 84.4301 107.005 84.4208L107.007 84.4203C107.15 84.3851 107.286 84.3518 107.407 84.3123C108.2 84.0617 108.983 83.7744 109.74 83.4537C111.27 82.819 112.707 82.0006 114.027 81.0185C116.687 79.0041 118.54 76.2948 119.227 73.3952C119.58 71.9354 120.06 68.3877 116.937 66.8076C115.573 66.1161 114.237 65.8455 110.573 69.0725C109.84 69.7187 108.769 69.729 108.026 69.1493C107.662 69.4946 107.172 69.7005 106.65 69.7005C106.533 69.7005 106.417 69.6905 106.297 69.6705C103.843 69.2328 101.58 68.1037 99.7534 66.4067C97.9267 64.7097 96.6334 62.5316 96.0134 60.113C95.4567 57.788 95.5767 55.5264 95.6934 53.3349L95.7104 53.0075C95.732 52.5933 95.7535 52.1808 95.7667 51.7682C95.8367 49.7772 95.7567 47.2617 94.5234 45.4779C93.6634 44.2352 91.6801 43.3766 90.5101 44.1784C89.5967 44.8031 88.3534 44.5659 87.7301 43.6539C87.1067 42.7386 87.3434 41.4925 88.2534 40.8679C90.8567 39.0873 95.3167 39.5951 97.8067 43.1962C99.7134 45.9489 99.8534 49.2995 99.7634 51.9119C99.7434 52.4597 99.7167 53.0076 99.6867 53.5554C99.5801 55.5464 99.4801 57.4238 99.8934 59.1509C100.313 60.7945 101.207 62.2978 102.47 63.4737C103.733 64.6495 105.297 65.4279 106.993 65.7319C107.323 65.7907 107.62 65.9275 107.867 66.1201C107.881 66.1068 107.895 66.0937 107.909 66.0808C107.917 66.0736 107.925 66.0664 107.933 66.0593C113.193 61.4259 116.233 61.9604 118.737 63.2264C122.617 65.1907 124.293 69.4433 123.113 74.3272C122.863 75.383 122.498 76.4173 122.029 77.4159C122.217 77.3739 122.415 77.3585 122.617 77.3739C128.347 77.8182 133.287 72.3864 135.21 66.7942C137.39 60.4437 137.133 53.1312 134.49 46.2061C132.11 39.9792 127.793 34.0564 122 29.0856C116.627 24.4655 111.633 22.4712 107.153 23.156C106.06 23.323 105.04 22.5714 104.873 21.479C104.707 20.3866 105.457 19.3611 106.547 19.1941C112.233 18.3222 118.307 20.6272 124.6 26.0423C130.893 31.444 135.607 37.9214 138.223 44.773C141.203 52.5766 141.477 60.858 138.99 68.1004C137.73 71.7617 135.537 75.1056 132.81 77.5175C129.913 80.0697 126.64 81.4026 123.287 81.406ZM54.4434 51.4508C54.7667 51.6479 55.1234 51.7415 55.4767 51.7415C56.1534 51.7415 56.8134 51.3974 57.1867 50.7794C59.8267 46.4132 62.8601 43.0225 66.2001 40.6975C70.0567 38.015 74.4167 36.7255 78.4767 37.0696C79.7567 37.1765 80.7034 37.4437 81.3667 37.888C81.9667 38.2889 82.3734 38.9503 82.3367 39.4614C82.2567 40.5672 83.0867 41.5259 84.1867 41.6061C85.2934 41.6863 86.2467 40.8578 86.3267 39.7521C86.4667 37.7978 85.3901 35.7567 83.5834 34.5508C82.3267 33.7089 80.8101 33.2412 78.8134 33.0709C73.8334 32.65 68.5434 34.1866 63.9234 37.4003C60.1167 40.046 56.7034 43.8476 53.7701 48.6982C53.1967 49.6436 53.5001 50.8763 54.4434 51.4508ZM62.8101 62.5717C64.0987 62.5717 65.1434 61.3004 65.1434 59.7322C65.1434 58.164 64.0987 56.8927 62.8101 56.8927C61.5214 56.8927 60.4767 58.164 60.4767 59.7322C60.4767 61.3004 61.5214 62.5717 62.8101 62.5717ZM76.4767 60.5172C76.4767 62.0854 75.4321 63.3567 74.1434 63.3567C72.8547 63.3567 71.8101 62.0854 71.8101 60.5172C71.8101 58.949 72.8547 57.6777 74.1434 57.6777C75.4321 57.6777 76.4767 58.949 76.4767 60.5172Z" fill="black"/>
</g>
<defs>
<clipPath id="clip0_805_37307">
<rect width="180" height="180" rx="24" fill="white"/>
</clipPath>
<clipPath id="clip1_805_37307">
<rect width="200" height="200.436" fill="white" transform="translate(-10 95.2734)"/>
</clipPath>
</defs>
</svg>
