<svg width="180" height="180" viewBox="0 0 180 180" fill="none" xmlns="http://www.w3.org/2000/svg">
<g clip-path="url(#clip0_805_37695)">
<rect width="180" height="180" rx="24" fill="white"/>
<g clip-path="url(#clip1_805_37695)">
<path fill-rule="evenodd" clip-rule="evenodd" d="M109.923 105.128C104.8 106.271 103.423 98.6474 103.123 95.2734H80.75C80.565 95.8343 80.3939 96.8327 80.2039 97.9413C79.8666 99.9098 79.4697 102.226 78.83 103.057C78.7458 103.159 78.6395 103.289 78.5155 103.44C77.5343 104.639 75.4404 107.199 74.3633 107.881C73.41 108.482 72.3733 109.073 71.2466 109.04H70.8866C68.41 113.032 70.3766 117.689 74.1166 121.049C77.8566 124.41 83.1733 125.609 88.1733 125.242C93.8433 124.838 99.2166 122.539 103.43 118.714C107.577 114.889 110.223 111.198 110.473 105.963L109.923 105.128ZM115.213 148.723L115.677 149.251C115.393 173.189 117.854 197.106 120.361 221.473C121.041 228.077 121.724 234.715 122.357 241.394C121.2 241.491 120.1 241.942 119.213 242.691C118.323 243.439 117.687 244.444 117.393 245.57C117.097 246.696 117.16 247.885 117.567 248.974C117.973 250.063 118.71 250.999 119.67 251.653C120.216 252.024 120.82 252.294 121.424 252.564L121.424 252.564C121.963 252.805 122.503 253.047 123.003 253.36C125.359 254.832 126.436 257.559 127.505 260.266C128.642 263.143 129.77 265.999 132.417 267.304C136.207 269.171 140.957 266.322 142.673 262.45C144.39 258.578 143.92 254.139 143.41 249.936C141.233 232.057 136.043 179.687 135.137 168.726C135.137 168.726 130.79 128.212 129.67 123.558C128.55 118.905 124.753 114.923 121.293 111.622L120.547 111.138C118.21 117.061 111.777 142.439 115.213 148.723ZM61.7566 115.243L62.3733 113.326C60.42 113.86 58.9466 115.447 57.7066 117.044C53.85 121.985 51.8133 128.252 50.8533 134.449C50.1638 138.902 49.3817 143.904 48.5372 149.306L48.5371 149.306C44.7231 173.701 39.6374 206.229 36.0733 232.983C34.9966 232.852 33.9033 233.04 32.9266 233.514C31.95 233.988 31.13 234.737 30.5666 235.665C30.0033 236.594 29.7133 237.666 29.74 238.752C29.7633 239.841 30.1 240.897 30.7066 241.799C30.8627 242.027 31.0357 242.246 31.2084 242.465L31.2085 242.465C31.4343 242.75 31.6597 243.035 31.8466 243.342C32.69 244.752 32.6433 246.506 32.5433 248.149L32.5267 248.422C32.3436 251.41 32.1522 254.535 33.43 257.232C34.7466 260.012 38.2666 262.006 40.9633 260.536C42.8433 259.507 43.65 257.269 44.2966 255.224C45.2066 252.525 45.98 249.779 46.61 247C47.3266 243.576 50.2766 228.383 50.5633 224.892L47.89 223.579C47.89 223.579 57.4933 151.679 61.7566 115.243Z" fill="#FFD39F"/>
<path d="M115.214 148.724C111.777 142.44 118.21 117.062 120.544 111.139C120.78 110.684 120.457 110.992 120.404 110.484C120.24 109.706 113.557 105.476 110.564 105.129C109.997 110.808 107.624 114.853 103.427 118.715C99.2136 122.54 93.8402 124.838 88.1702 125.243C83.1702 125.61 77.8536 124.411 74.1136 121.05C70.3736 117.69 68.6136 111.93 71.0902 107.948L64.3336 111.055C63.5302 111.423 62.6669 111.83 62.2102 112.582C61.7536 113.333 61.8769 114.339 61.7769 115.254C57.5002 151.69 46.6702 221.529 47.6369 221.636C69.9969 224.288 98.8902 226.676 120.56 220.543H120.614C118.834 196.491 115.417 172.893 115.704 149.258" fill="black"/>
<path fill-rule="evenodd" clip-rule="evenodd" d="M109.369 103.521C109.776 103.218 110.286 103.082 110.79 103.139C112.936 103.39 115.94 104.983 117.54 105.912C121.326 108.11 122.063 109.146 122.276 109.767C122.313 109.822 122.347 109.88 122.378 109.939C122.483 110.007 122.583 110.085 122.676 110.175C126.61 113.923 130.416 118.085 131.62 123.093C132.753 127.82 136.95 166.855 137.126 168.515C137.126 168.523 137.127 168.532 137.128 168.54C137.129 168.548 137.13 168.557 137.13 168.565C138.07 179.926 143.243 232.01 145.396 249.698L145.397 249.7C145.887 253.742 146.496 258.769 144.503 263.267C143.29 266.007 140.813 268.332 138.04 269.341C137.013 269.701 135.98 269.889 134.973 269.889C133.766 269.889 132.596 269.625 131.533 269.1C128.195 267.454 126.842 264.03 125.645 261.005L125.643 260.999L125.638 260.985C124.66 258.512 123.736 256.177 121.943 255.056C121.567 254.82 121.114 254.617 120.634 254.401L120.606 254.388L120.565 254.369L120.565 254.369L120.564 254.369C119.934 254.086 119.221 253.766 118.546 253.306C117.236 252.414 116.25 251.158 115.693 249.671C115.136 248.185 115.056 246.588 115.46 245.055C115.863 243.521 116.716 242.172 117.93 241.149C118.613 240.575 119.38 240.13 120.203 239.83C119.665 234.238 119.09 228.625 118.527 223.151C108.922 225.529 98.0821 226.394 87.0764 226.394C75.2518 226.394 63.2317 225.394 52.3231 224.189C51.5426 230.145 49.2341 244.222 48.5697 247.403C48.5664 247.413 48.5664 247.426 48.563 247.436C47.9197 250.266 47.1264 253.092 46.1997 255.838C45.6097 257.705 44.6197 260.809 41.923 262.285C41.0197 262.786 40.013 263.034 38.973 263.034C38.2564 263.034 37.523 262.917 36.7964 262.68C34.6064 261.965 32.623 260.207 31.623 258.093C30.1244 254.932 30.3393 251.415 30.5292 248.307L30.5297 248.298L30.5464 248.028C30.633 246.611 30.6664 245.268 30.1297 244.373C30.0253 244.201 29.8614 243.991 29.6851 243.766L29.6397 243.708C29.4564 243.478 29.2497 243.217 29.053 242.93C28.223 241.697 27.7697 240.274 27.7364 238.798C27.703 237.324 28.0897 235.878 28.8564 234.619C29.623 233.359 30.7264 232.354 32.0497 231.709C32.7697 231.358 33.5364 231.124 34.3197 231.011C37.8412 205.108 42.4783 175.35 46.2206 151.334L46.2264 151.297L46.7722 147.791L46.7725 147.79C47.5383 142.873 48.2523 138.288 48.8897 134.143C50.0397 126.674 52.4797 120.504 56.143 115.81C57.2196 114.423 58.5222 112.954 60.2444 112.038C60.3157 111.872 60.4 111.706 60.4997 111.541C61.2826 110.251 62.6071 109.643 63.4872 109.238L63.4997 109.233L70.2564 106.129C71.0182 105.781 71.912 105.943 72.497 106.528C73.8351 105.953 74.8071 105.074 75.5238 104.427L75.5363 104.415L75.6563 104.305C76.943 103.143 77.0797 102.832 77.353 102.207C77.3741 102.158 77.3962 102.109 77.4187 102.058C77.4388 102.013 77.4592 101.967 77.4797 101.92C77.9363 100.911 79.1197 100.464 80.1264 100.921C81.133 101.379 81.5797 102.565 81.123 103.574L81.013 103.821C80.543 104.893 80.1297 105.665 78.333 107.285L78.2163 107.389L78.212 107.393C77.1051 108.395 75.1359 110.179 72.0756 110.861C71.5299 113.655 72.8148 117.194 75.4464 119.562C78.4597 122.271 83.043 123.614 88.023 123.246C93.2264 122.876 98.2197 120.741 102.083 117.233C105.432 114.153 107.341 111.106 108.179 107.387C105.411 106.815 104.377 104.97 103.53 103.453L103.492 103.387C103.254 102.963 103.008 102.526 102.72 102.097C102.103 101.178 102.346 99.9324 103.26 99.3144C104.176 98.6963 105.42 98.9402 106.036 99.8555C106.433 100.443 106.743 100.998 107.016 101.489L107.02 101.496C107.828 102.938 108.083 103.392 109.369 103.521ZM50.7297 219.97C50.8049 219.976 50.8788 219.986 50.9512 220.001C72.2328 222.421 98.1502 224.213 118.113 219.121C115.681 195.443 113.457 172.963 113.671 150.008C113.59 149.91 113.517 149.803 113.453 149.687C111.723 146.527 111.82 139.709 113.743 129.426C115.08 122.278 117.056 114.892 118.366 111.227C117.246 110.332 114.386 108.595 112.2 107.686C111.253 112.46 108.903 116.391 104.776 120.186C100.243 124.302 94.3997 126.804 88.3097 127.238C82.2564 127.679 76.5964 125.969 72.7764 122.538C69.8297 119.889 67.7664 115.643 67.9597 111.588L65.163 112.874L65.147 112.881C64.9267 112.983 64.634 113.118 64.3859 113.258C64.4059 113.815 64.1919 114.348 63.8128 114.735C63.8031 114.966 63.7887 115.216 63.7597 115.469C63.753 115.533 63.743 115.596 63.7297 115.657C57.2197 147.292 50.123 209.273 49.5797 219.843C49.9309 219.884 50.2835 219.924 50.6373 219.965C50.668 219.966 50.6988 219.968 50.7297 219.97ZM49.7297 180.741C51.2338 168.645 55.0338 139.429 59.0747 118.572C55.9591 122.69 53.8653 128.132 52.843 134.758C52.1819 139.059 51.4383 143.835 50.64 148.962L50.1797 151.919C46.3564 176.452 41.5997 206.985 38.0564 233.249C37.9097 234.335 36.9197 235.096 35.8397 234.969C35.1397 234.886 34.4364 235.006 33.803 235.313C33.1697 235.621 32.6397 236.102 32.2764 236.706C31.9097 237.308 31.7264 237.999 31.7397 238.704C31.7564 239.409 31.973 240.09 32.3664 240.675C32.4764 240.835 32.623 241.022 32.7764 241.216L32.8168 241.268L32.8169 241.268C33.0534 241.569 33.3166 241.903 33.553 242.292C34.683 244.183 34.6597 246.281 34.5397 248.265L34.523 248.539C34.353 251.291 34.1797 254.138 35.2364 256.366C35.7764 257.502 36.873 258.484 38.0364 258.861C38.5497 259.028 39.3097 259.149 40.0097 258.768C41.1997 258.116 41.8397 256.356 42.393 254.612C42.3964 254.599 42.3997 254.589 42.4064 254.575C43.2897 251.956 44.0464 249.26 44.6597 246.564C45.3026 243.48 47.5929 229.489 48.3496 223.737C48.0318 223.699 47.7152 223.662 47.3997 223.625C46.8464 223.558 46.3264 223.25 45.9964 222.799C45.453 222.051 45.2297 221.741 46.4864 209.187C47.273 201.329 48.423 191.228 49.7297 180.741ZM117.676 130.165C118.829 123.997 120.359 118.173 121.472 114.592C124.362 117.497 126.913 120.631 127.73 124.028C128.586 127.609 131.646 154.942 133.146 168.916C134.093 180.351 139.27 232.467 141.426 250.176C141.973 254.692 142.28 258.404 140.846 261.634C140.07 263.384 138.433 264.928 136.673 265.566C135.82 265.876 134.543 266.114 133.3 265.502C131.35 264.542 130.39 262.115 129.373 259.542L129.366 259.526L129.365 259.522C128.245 256.687 126.978 253.479 124.066 251.659C123.446 251.271 122.806 250.984 122.24 250.73C121.7 250.49 121.19 250.263 120.793 249.992C120.173 249.568 119.703 248.973 119.44 248.268C119.176 247.563 119.14 246.805 119.33 246.077C119.52 245.348 119.923 244.71 120.5 244.226C121.076 243.742 121.773 243.451 122.523 243.391C123.056 243.347 123.55 243.09 123.893 242.679C124.236 242.268 124.4 241.737 124.35 241.203C123.72 234.556 123.032 227.864 122.366 221.391C122.563 220.969 122.616 220.477 122.48 219.993C122.41 219.748 122.299 219.527 122.154 219.334C119.683 195.275 117.404 172.477 117.68 149.273C117.687 148.628 117.389 148.051 116.921 147.678C116.44 146.709 115.309 142.847 117.676 130.165ZM47.8564 219.643C47.861 219.643 47.8656 219.643 47.8706 219.644C47.8764 219.645 47.8825 219.646 47.8897 219.646C47.8829 219.644 47.877 219.643 47.8716 219.643C47.8662 219.643 47.8613 219.643 47.8564 219.643Z" fill="black"/>
</g>
<path d="M107.087 65.4556C109.397 62.7297 108.68 58.0094 105.667 56.1019C104.587 55.4138 103.22 54.9862 102.63 53.8504C101.964 52.5977 102.567 51.0977 102.917 49.7281C102.917 49.6847 102.94 49.6379 102.954 49.5945C103.954 45.4655 99.2437 42.4022 95.8137 44.9009C91.5303 48.021 86.6637 50.2459 81.5037 51.4452C78.837 52.0598 75.5604 52.1801 73.9137 49.9953C72.9404 48.6992 72.707 46.7416 70.247 46.9253C69.5304 46.9855 68.8404 47.236 68.247 47.6469C63.8437 50.6234 58.807 52.5175 53.537 53.1823C52.0637 53.366 50.537 53.4495 49.1137 53.0253C45.027 51.8059 43.1703 46.5913 44.4037 42.5024C45.637 38.4135 49.1203 35.3902 52.8003 33.2255C55.0803 31.8893 57.6203 30.66 58.9937 28.3917C59.8003 27.0555 60.117 25.4653 60.927 24.1324C61.737 22.7995 63.0037 21.794 64.2937 20.8854C71.2437 16.0649 79.5537 13.6129 88.0003 13.8835C93.0003 14.0572 98.877 16.0716 99.957 20.9555L107.624 24.1926C113.524 25.1012 119.524 27.0922 123.7 31.3682C127.877 35.6441 129.7 42.6293 126.7 47.8039C126.307 48.472 125.82 49.1802 125.84 49.9686C125.867 50.9708 126.704 51.7592 127.397 52.5008C128.61 53.817 129.534 55.3737 130.104 57.0707C130.674 58.7677 130.88 60.565 130.71 62.3489C130.554 63.8989 130.044 65.5024 128.884 66.5279C127.724 67.5535 125.747 67.764 124.65 66.6616L108.017 69.2171L107.087 65.4556Z" fill="black"/>
<path d="M52.9371 53.3582C50.7871 58.9002 49.4938 63.9044 49.1671 66.9344C48.3438 74.5643 49.8804 83.0427 55.7038 88.4779C58.8071 91.3708 62.6504 92.7939 66.7604 93.5188C71.0471 94.2771 75.6471 94.9686 79.8071 93.2649C79.5871 96.7425 79.5538 99.2246 79.7138 102.705L103.214 100.093C102.834 95.5198 103.68 91.598 105.667 87.4623C106.117 86.527 107.084 86.537 108.04 86.233C108.89 85.9657 109.724 85.6584 110.547 85.311C112.217 84.6161 113.794 83.7175 115.247 82.6385C118.12 80.4638 120.36 77.4105 121.2 73.8694C121.964 70.6591 121.427 66.8375 117.867 65.0302C115.357 63.7608 113.107 64.2118 109.284 67.5791L107.117 65.4678C109.427 62.7419 108.71 58.0217 105.697 56.1142C104.617 55.426 103.25 54.9984 102.66 53.8626C101.994 52.6099 102.597 51.11 102.947 49.7403C102.947 49.6969 102.97 49.6501 102.984 49.6067C103.984 45.4777 99.2738 42.4144 95.8438 44.9132C91.5604 48.0333 86.6938 50.2581 81.5338 51.4574C78.8671 52.0721 75.5904 52.1923 73.9438 50.0076C72.9704 48.7114 72.7371 46.7538 70.2771 46.9376C69.5604 46.9977 68.8704 47.2482 68.2771 47.6591C63.8638 50.6356 58.8138 52.5264 53.5371 53.1845" fill="#FFD39F"/>
<path d="M126.573 69.41C125.323 69.41 124.11 68.9657 123.223 68.0771C122.443 67.2921 122.447 66.0226 123.227 65.2409C124.01 64.4592 125.277 64.4626 126.057 65.2443C126.307 65.4948 127.09 65.4314 127.55 65.0238C128.167 64.4793 128.577 63.4571 128.71 62.1442C128.853 60.6409 128.683 59.1477 128.197 57.7079C127.713 56.2681 126.947 54.9753 125.917 53.8595L125.747 53.6791C124.957 52.844 123.873 51.7015 123.83 50.0212C123.797 48.7351 124.4 47.7295 124.84 46.9946L124.967 46.7842C127.62 42.2042 125.557 36.141 122.26 32.7704C118.983 29.4164 113.953 27.1982 107.31 26.1727C106.217 26.0056 105.47 24.9801 105.637 23.8877C105.803 22.7953 106.827 22.0437 107.917 22.2107C115.437 23.3699 121.223 25.9789 125.12 29.9643C127.483 32.3828 129.16 35.5364 129.84 38.8436C130.577 42.4213 130.073 45.959 128.42 48.8119L128.27 49.0624C128.117 49.3163 127.863 49.7372 127.833 49.911C127.903 50.1348 128.37 50.6258 128.65 50.9232L128.847 51.1303C130.27 52.6736 131.323 54.4508 131.99 56.4285C132.657 58.4061 132.89 60.4606 132.693 62.5384C132.453 64.9035 131.593 66.7977 130.2 68.0303C129.157 68.949 127.847 69.41 126.573 69.41Z" fill="black"/>
<path d="M107.087 67.459C106.63 67.459 106.17 67.302 105.793 66.9813C104.95 66.2631 104.85 65.0003 105.563 64.1552C106.28 63.31 106.59 62.0439 106.397 60.7678C106.203 59.495 105.53 58.3826 104.6 57.7947C104.37 57.6477 104.1 57.504 103.813 57.3504C102.817 56.8192 101.573 56.1544 100.857 54.7748C99.9233 53.0209 100.44 51.1736 100.82 49.8207C100.867 49.6536 100.913 49.4866 100.957 49.3229C100.977 49.216 101.003 49.1191 101.03 49.039C101.357 47.5156 100.313 46.6772 99.9799 46.4533C99.2499 45.9623 98.0833 45.7251 96.9933 46.5168C92.4666 49.814 87.4099 52.1257 81.9599 53.3918C77.5099 54.4173 74.1766 53.659 72.3233 51.197C71.9933 50.7594 71.7499 50.3117 71.5366 49.9175C70.9699 48.8753 70.9499 48.8753 70.3999 48.9187C70.0499 48.9488 69.6966 49.0757 69.3932 49.2862C64.7299 52.4363 59.3433 54.4641 53.7933 55.1623C52.2266 55.3594 50.3799 55.483 48.5499 54.9384C46.3866 54.2937 44.5499 52.737 43.3766 50.5589C41.9766 47.9533 41.6466 44.7229 42.4933 41.9135C43.6999 37.9148 46.8266 34.4071 51.7933 31.4875C52.0999 31.3071 52.4066 31.1334 52.7166 30.9563C54.5933 29.884 56.3633 28.8718 57.2899 27.3418C57.5999 26.8307 57.8399 26.2026 58.0966 25.5379C58.4066 24.7328 58.7266 23.901 59.2266 23.0792C60.2333 21.4189 61.7099 20.2497 63.1499 19.2342C70.4133 14.1965 79.2566 11.5875 88.0699 11.8681C93.6199 12.0619 100.573 14.4404 101.917 20.5103C102.157 21.5926 101.477 22.6616 100.397 22.9021C99.3199 23.1393 98.2499 22.4612 98.0099 21.3788C97.2166 17.791 92.3799 16.0305 87.9366 15.8769C79.9799 15.6163 71.9866 17.9814 65.4366 22.5246C64.3599 23.283 63.2666 24.1348 62.6399 25.1671C62.3266 25.6815 62.0833 26.3129 61.8266 26.981C61.5199 27.7794 61.2033 28.6045 60.7099 29.4196C59.2466 31.8382 56.8299 33.2212 54.6966 34.4372C54.3999 34.6076 54.1066 34.7746 53.8133 34.945C49.7466 37.3368 47.2266 40.0728 46.3199 43.0727C45.7833 44.8565 46.0033 46.9945 46.8966 48.6548C47.3666 49.5267 48.2299 50.6591 49.6866 51.0934C50.8099 51.4275 52.1399 51.3273 53.2933 51.1836C58.2233 50.5623 63.0099 48.7617 67.1333 45.9756C67.9899 45.381 69.0166 45.0102 70.0833 44.92C73.2466 44.6795 74.4199 46.8408 75.0499 48C75.2132 48.3007 75.3666 48.5846 75.5166 48.7817C76.6632 50.305 79.7766 49.7806 81.0599 49.4833C85.9832 48.3408 90.5533 46.2496 94.6433 43.2697C96.9132 41.6162 99.8833 41.556 102.21 43.1161C104.497 44.6494 105.553 47.3753 104.903 50.0545C104.893 50.0946 104.883 50.1313 104.87 50.1714C104.87 50.1748 104.87 50.1781 104.867 50.1781C104.863 50.1881 104.86 50.2015 104.86 50.2115C104.803 50.4353 104.74 50.6625 104.677 50.893C104.47 51.6279 104.217 52.5432 104.403 52.894C104.557 53.1913 105.14 53.502 105.703 53.8026C106.043 53.983 106.393 54.1701 106.75 54.3973C108.67 55.6132 109.987 57.7111 110.36 60.1498C110.733 62.5951 110.1 64.997 108.623 66.7374C108.217 67.2185 107.653 67.459 107.087 67.459ZM104.917 49.7305C104.917 49.7338 104.917 49.7338 104.917 49.7305C104.917 49.7338 104.917 49.7338 104.917 49.7305ZM104.917 49.7271V49.7305V49.7271Z" fill="black"/>
<path d="M62.8099 62.5696C64.0986 62.5696 65.1432 61.2983 65.1432 59.7301C65.1432 58.1619 64.0986 56.8906 62.8099 56.8906C61.5212 56.8906 60.4766 58.1619 60.4766 59.7301C60.4766 61.2983 61.5212 62.5696 62.8099 62.5696Z" fill="black"/>
<path d="M74.1439 63.3548C75.4325 63.3548 76.4772 62.0835 76.4772 60.5153C76.4772 58.9471 75.4325 57.6758 74.1439 57.6758C72.8552 57.6758 71.8105 58.9471 71.8105 60.5153C71.8105 62.0835 72.8552 63.3548 74.1439 63.3548Z" fill="black"/>
<path d="M103.196 100.081C102.17 100.081 101.293 99.2927 101.206 98.2438C100.783 93.2128 101.76 90.9112 103.833 86.5818C104.593 85.0017 106.03 84.6542 106.89 84.4471C107.076 84.4003 107.253 84.3603 107.406 84.3101C108.2 84.0596 108.983 83.7723 109.74 83.4516C111.27 82.8169 112.706 81.9985 114.026 81.0163C116.686 79.0019 118.54 76.2927 119.226 73.3931C119.58 71.9332 120.06 68.3855 116.936 66.8054C115.573 66.1139 114.236 65.8433 110.573 69.0704C109.743 69.8019 108.48 69.7184 107.75 68.8866C107.02 68.0548 107.103 66.7887 107.933 66.0571C113.193 61.4237 116.233 61.9582 118.736 63.2243C122.616 65.1886 124.293 69.4412 123.113 74.3251C122.213 78.12 119.836 81.6377 116.423 84.22C114.83 85.4059 113.103 86.388 111.283 87.143C110.42 87.5071 109.516 87.8412 108.606 88.1251C108.33 88.212 108.063 88.2788 107.83 88.3356C107.683 88.3723 107.493 88.4157 107.37 88.4558C105.453 92.4645 104.86 93.9711 105.193 97.8997C105.286 99.0021 104.47 99.9709 103.37 100.064C103.31 100.078 103.253 100.081 103.196 100.081Z" fill="black"/>
<path d="M79.7126 103.036C78.6493 103.036 77.766 102.197 77.716 101.122C77.6093 98.7698 77.586 97.5873 77.6526 95.9738C73.646 96.7488 69.566 96.0372 66.4193 95.486C61.336 94.5874 57.386 92.7735 54.3426 89.9373C48.7493 84.716 46.1393 76.2509 47.1793 66.7068C47.5693 63.1691 49.0226 57.9043 51.0726 52.6229C51.4726 51.5906 52.6326 51.0795 53.6626 51.4804C54.6926 51.8813 55.2026 53.0438 54.8026 54.076C52.5293 59.9354 51.4293 64.669 51.156 67.1444C50.2526 75.4124 52.406 82.6515 57.0693 87.0009C59.5626 89.326 62.7526 90.7658 67.1093 91.5341C71.5626 92.3125 75.5393 92.8369 79.0526 91.3971C79.6893 91.1366 80.416 91.2234 80.976 91.6243C81.536 92.0285 81.8493 92.69 81.806 93.3781C81.5926 96.7388 81.556 97.4804 81.716 100.928C81.766 102.034 80.9126 102.972 79.8093 103.022C79.7726 103.036 79.7426 103.036 79.7126 103.036Z" fill="black"/>
</g>
<defs>
<clipPath id="clip0_805_37695">
<rect width="180" height="180" rx="24" fill="white"/>
</clipPath>
<clipPath id="clip1_805_37695">
<rect width="200" height="200.436" fill="white" transform="translate(-10 95.2734)"/>
</clipPath>
</defs>
</svg>
