<svg width="180" height="180" viewBox="0 0 180 180" fill="none" xmlns="http://www.w3.org/2000/svg">
<g clip-path="url(#clip0_805_38536)">
<rect width="180" height="180" rx="24" fill="white"/>
<g clip-path="url(#clip1_805_38536)">
<path fill-rule="evenodd" clip-rule="evenodd" d="M103.124 95.2729C103.424 98.6469 104.8 106.27 109.924 105.128L110.474 105.963C110.224 111.197 107.577 114.889 103.43 118.714C99.217 122.539 93.8436 124.837 88.1736 125.241C83.1736 125.609 77.857 124.41 74.117 121.049C70.377 117.688 68.4103 113.031 70.887 109.039H71.247C72.3736 109.073 73.4103 108.482 74.3636 107.88C75.0632 107.437 75.3317 106.001 75.5768 104.691C75.7568 103.728 75.9242 102.833 76.2403 102.448C77.2403 101.149 80.2336 96.8262 80.747 95.2695H103.124V95.2729ZM121.73 241.611C118.52 242.65 114.604 245.82 117.32 249.388C118.553 251.013 120.307 252.018 122.046 253.015C122.413 253.225 122.78 253.435 123.14 253.65C124.33 254.359 124.868 256.327 125.32 257.985C125.474 258.547 125.618 259.074 125.774 259.503C127.334 263.793 130.364 267.314 135.334 266.979C140.387 266.645 143.53 262.333 144.49 257.683C145.477 252.895 144.519 247.216 143.703 242.386C143.659 242.128 143.616 241.871 143.574 241.618L121.73 241.611ZM28.4503 237.669C27.7836 234.997 29.7836 232.992 32.117 232.12L48.6836 234.612C49.3303 240.241 48.027 245.015 46.4736 249.692C46.2205 250.458 46.0662 251.26 45.9126 252.059C45.6557 253.395 45.4005 254.722 44.687 255.855C43.547 257.666 41.477 258.558 39.2636 258.668C35.7636 258.812 31.4503 258.357 31.4503 253.704C31.4845 253.156 31.5257 252.597 31.5674 252.031C31.9327 247.078 32.3391 241.566 28.4503 237.669Z" fill="#FFD39F"/>
<path d="M56.567 199.756C55.6637 208.825 54.2537 217.835 52.3337 226.744C50.6637 225.999 48.8604 225.595 47.0337 225.558L42.7004 225.274C39.3137 224.86 36.5937 224.449 33.207 224.038C34.6104 208.521 36.4104 193.044 38.607 177.604C40.517 164.158 42.7404 150.709 46.687 137.717C50.1937 126.172 55.757 114.233 66.3204 108.444L67.5504 106.536L77.8004 98.2516C78.417 99.2705 77.9437 100.59 77.577 100.256L76.1937 105.207C76.0137 105.714 75.9437 106.256 75.9804 106.794C76.207 108.35 78.057 108.992 79.5904 109.316L81.0004 109.443C87.5104 106.77 92.4137 104.295 97.3137 101.816C101.007 99.9486 104.82 98.0478 108.947 97.7305L110.52 103.293C116.417 104.876 120.99 109.429 124.674 114.093C128.69 119.184 131.84 124.903 134 131.02C135.21 134.437 137.124 138.282 137.914 141.816L138.967 145.05C145.547 173.445 145.894 202.872 146.207 232.026L117.187 231.548C115.9 221.73 114.887 211.885 114.147 202.007L112.857 202.051C99.917 203.704 86.647 202.321 74.147 200.731C67.517 201.529 60.7437 201.032 54.4537 199.001" fill="black"/>
<path fill-rule="evenodd" clip-rule="evenodd" d="M81.0005 109.443L84.1938 123.333L84.2246 123.322C89.291 121.538 94.3702 119.75 99.1938 117.387C100.934 116.535 102.68 115.573 103.94 114.099C105.43 112.359 106.097 110.091 106.727 107.876L106.755 107.778L106.755 107.778C107.692 104.47 108.63 101.161 108.94 97.7305C104.814 98.0478 101 99.9486 97.3071 101.816L97.1502 101.895C92.299 104.344 87.4311 106.802 81.0005 109.443ZM32.7305 232.002C32.9438 229.514 33.2105 226.54 34.2771 224.282L51.5838 225.886C51.3905 228.294 50.1838 231.662 49.2738 233.903C49.2571 233.967 49.2205 234.023 49.1705 234.067C49.0871 234.11 48.9905 234.124 48.9005 234.097C47.4315 233.864 45.2888 233.657 43.0023 233.436C39.1351 233.064 34.8566 232.651 32.7305 232.002ZM118.334 239.586C118.154 236.983 118.327 234.371 118.854 231.815L143.43 232.159L143.67 238.316C143.694 239.068 143.644 239.956 143.004 240.32C142.69 240.464 142.347 240.528 142.004 240.501L119.337 240.564C119.094 240.591 118.847 240.534 118.637 240.407C118.534 240.297 118.454 240.167 118.4 240.026C118.347 239.886 118.327 239.736 118.334 239.586ZM76.1838 105.207L77.5672 100.256C77.9338 100.563 78.4071 99.2605 77.7871 98.2416L67.5371 106.526C67.2905 109.052 67.5805 111.601 68.3938 114.006C69.2071 116.411 70.5205 118.613 72.2471 120.47C75.3671 117.246 77.8571 113.461 79.5805 109.316C78.0471 108.992 76.1971 108.35 75.9705 106.794C75.9338 106.256 76.0038 105.715 76.1838 105.207Z" fill="white"/>
<path fill-rule="evenodd" clip-rule="evenodd" d="M84.1933 125.337C83.86 125.337 83.5266 125.254 83.23 125.09C82.73 124.816 82.3733 124.338 82.2466 123.784L81.2742 119.554C80.5981 130.978 79.8326 142.45 79.0867 153.612L79.0541 154.1L79.0541 154.1L79.0541 154.101L79.0541 154.101L79.054 154.101C78.0714 168.84 77.0567 184.06 76.2636 199.017C89.5357 201.064 101.254 201.422 112.011 200.113C110.608 180.296 110.302 160.376 111.103 140.587C111.147 139.481 112.08 138.619 113.183 138.666C114.287 138.71 115.147 139.645 115.1 140.751C113.903 170.325 115.197 200.193 118.947 229.557L144.183 229.971C144.174 228.943 144.165 227.919 144.156 226.899C144.147 225.787 144.137 224.68 144.127 223.577L144.126 223.552C143.92 198.394 143.725 174.626 137.843 149.226C137.593 148.147 138.263 147.071 139.34 146.821C140.413 146.57 141.49 147.242 141.74 148.321C147.718 174.152 147.917 198.135 148.126 223.521V223.522L148.127 223.544L148.129 223.794L148.129 223.8C148.151 226.502 148.174 229.227 148.203 231.986C148.21 232.527 147.997 233.048 147.613 233.429C147.243 233.803 146.733 234.013 146.207 234.013H146.173L145.502 234.002L145.667 238.236C145.684 238.757 145.723 240.038 145.041 241.079C145.293 241.354 145.472 241.704 145.54 242.101L145.598 242.443L145.599 242.445C145.666 242.841 145.734 243.239 145.803 243.634L145.806 243.651C146.619 248.34 147.459 253.188 146.45 258.082C145.157 264.343 140.847 268.619 135.467 268.973C135.21 268.996 134.953 269.003 134.703 269.003C129.86 269.003 125.947 265.829 123.897 260.187C123.713 259.679 123.557 259.111 123.393 258.513L123.388 258.496C123.152 257.634 122.613 255.665 122.12 255.373C121.767 255.163 121.413 254.959 121.057 254.755C119.253 253.723 117.21 252.55 115.73 250.6C114.127 248.495 114.247 246.598 114.627 245.378C115.068 243.968 116.069 242.797 117.278 241.881C117.248 241.853 117.218 241.824 117.19 241.794C116.897 241.483 116.67 241.126 116.523 240.725C116.393 240.377 116.33 240.01 116.33 239.636C116.192 237.564 116.265 235.485 116.548 233.431C115.841 233.192 115.306 232.567 115.203 231.792C114 222.608 113.035 213.374 112.31 204.114C107.999 204.635 103.538 204.893 98.9 204.893C91.1833 204.893 82.97 204.175 74.1 202.732C68.7217 203.351 63.3552 203.122 58.3332 202.073C57.4217 210.482 56.0639 218.912 54.2833 227.169C54.1164 227.954 53.5001 228.542 52.7467 228.702C52.4513 230.724 51.9164 232.702 51.15 234.601C51.0262 234.946 50.8258 235.259 50.5611 235.513L48.4567 249.982C48.15 252.096 47.7667 254.725 46.3833 256.927C44.98 259.155 42.4233 260.518 39.3667 260.671C39.0133 260.685 38.64 260.695 38.2533 260.695C35.98 260.695 33.2 260.351 31.3367 258.56C30.0867 257.358 29.45 255.724 29.45 253.706C29.45 253.666 29.45 253.623 29.4533 253.583C29.4849 253.058 29.5254 252.52 29.5664 251.977L29.5733 251.886C29.92 247.192 30.2767 242.338 27.0367 239.088C26.78 238.831 26.6 238.51 26.51 238.156C25.7227 235 27.4576 231.976 30.8527 230.473C31.0043 228.841 31.2337 227.117 31.7778 225.442C31.3694 225.035 31.1394 224.456 31.1967 223.838C32.5967 208.348 34.4167 192.69 36.61 177.3C38.4633 164.255 40.7333 150.358 44.7567 137.113C49.54 121.425 56.0833 111.754 65.3533 106.673C65.4091 106.643 65.4656 106.615 65.5228 106.59C65.5302 106.503 65.5381 106.416 65.5467 106.329C65.6 105.795 65.8633 105.3 66.2833 104.963L76.5333 96.6783C76.9833 96.3175 77.5633 96.1638 78.13 96.2641C78.6967 96.3643 79.1933 96.7017 79.4933 97.1961C80.37 98.6359 80.25 100.61 79.26 101.626L78.11 105.745C78.1033 105.766 78.0967 105.787 78.09 105.808C78.0833 105.829 78.0767 105.85 78.07 105.872C77.9967 106.082 77.96 106.299 77.96 106.52C78.0233 106.61 78.41 107.017 79.9933 107.351C80.1512 107.385 80.3027 107.437 80.4452 107.506C86.7074 104.924 91.5603 102.475 96.2566 100.102L96.41 100.025C100.063 98.1781 104.207 96.0836 108.79 95.7328C109.377 95.6861 109.953 95.9032 110.367 96.3241C110.78 96.745 110.987 97.3263 110.933 97.9109C110.83 99.0513 110.662 100.176 110.451 101.285C110.644 101.278 110.841 101.3 111.037 101.352C118.007 103.223 123.053 108.808 126.24 112.843C130.4 118.118 133.647 124.008 135.883 130.345C136.275 131.45 136.744 132.602 137.241 133.82L137.287 133.933C138.283 136.375 139.31 138.9 139.863 141.372C140.103 142.451 139.427 143.523 138.35 143.767C138.203 143.801 138.057 143.817 137.91 143.817C136.993 143.817 136.17 143.183 135.96 142.251C135.48 140.106 134.517 137.741 133.583 135.453C133.073 134.207 132.55 132.917 132.113 131.688C130.023 125.762 126.99 120.26 123.103 115.332C120.27 111.741 115.827 106.79 110 105.224C109.852 105.184 109.712 105.128 109.582 105.059C109.295 106.154 108.988 107.236 108.685 108.307L108.685 108.307L108.68 108.324L108.653 108.42C108.037 110.592 107.267 113.291 105.46 115.402C103.98 117.133 101.997 118.245 100.073 119.184C95.1466 121.596 89.9366 123.433 84.8966 125.207L84.8566 125.22C84.64 125.3 84.4166 125.337 84.1933 125.337ZM35.6923 226.362C35.2332 227.629 35.016 229.03 34.8733 230.446C37.0633 230.85 40.28 231.161 43.19 231.441C44.89 231.605 46.52 231.762 47.8733 231.932C48.2805 230.73 48.5805 229.496 48.7709 228.242C48.607 228.213 48.4435 228.185 48.2806 228.156L48.2803 228.156L48.2133 228.144L48.0698 228.119L48.0693 228.119C47.2093 227.968 46.3978 227.825 45.7 227.736L40.7533 227.032C39.3293 226.858 38.306 226.719 37.365 226.59L36.8767 226.524L36.6462 226.492C36.3317 226.449 36.0184 226.406 35.6923 226.362ZM32.6579 234.063C32.004 234.334 30.266 235.2 30.3267 236.739C34.3685 241.241 33.9236 247.285 33.5637 252.174L33.5633 252.18L33.5601 252.223C33.5212 252.743 33.4825 253.259 33.4533 253.763C33.4666 255.049 33.9476 255.511 34.1088 255.666L34.11 255.667C34.9067 256.436 36.6167 256.77 39.1867 256.666C40.9067 256.579 42.3033 255.894 43 254.785C43.9293 253.312 44.2175 251.338 44.4964 249.428L44.5 249.404L46.4785 235.801C45.4044 235.681 44.1821 235.563 42.9162 235.44L42.8067 235.43C38.9891 235.063 35.0532 234.682 32.6579 234.063ZM53.84 200.885C54.0321 200.947 54.2249 201.008 54.4184 201.067C53.5872 208.913 52.3574 216.787 50.7567 224.516C50.1467 224.419 49.5233 224.309 48.9067 224.199C47.9467 224.028 47.04 223.868 46.2367 223.765L41.2967 223.06L41.2966 223.06C41.2833 223.056 41.27 223.053 41.2567 223.053C39.7335 222.865 38.6743 222.72 37.6778 222.583L37.6766 222.583L37.4233 222.549C36.78 222.458 36.1267 222.368 35.3533 222.268C36.7233 207.476 38.4767 192.55 40.5667 177.865C42.3967 164.98 44.6367 151.267 48.58 138.282C52.7424 124.629 58.1987 115.941 65.6576 111.149C65.8306 112.331 66.1115 113.499 66.5 114.647C67.41 117.34 68.85 119.758 70.7833 121.836C71.1567 122.237 71.68 122.468 72.2267 122.474H72.2467C72.7867 122.474 73.3067 122.254 73.6833 121.863C75.0408 120.462 76.2794 118.968 77.3945 117.39C76.7011 129.267 75.9044 141.224 75.1294 152.853L75.1293 152.854L75.0967 153.345L75.0635 153.843L75.0634 153.843V153.843C74.0792 168.619 73.0629 183.877 72.2661 198.886C66.2775 199.401 60.3612 198.778 55.0667 197.07C54.5567 196.906 54.34 196.779 54.2533 196.719C54.2211 196.522 54.2605 196.082 54.2782 195.884L54.28 195.864C55.6929 180.665 57.1119 165.47 58.5311 150.272L58.7233 148.214C59.1433 143.734 59.0933 138.225 54.99 135.379C54.08 134.748 52.8333 134.975 52.2066 135.887C51.5766 136.799 51.8033 138.048 52.7133 138.676C55.1133 140.336 55.0567 144.445 54.74 147.839C53.2567 163.721 51.7733 179.605 50.2966 195.49L50.2965 195.492C50.2231 196.287 50.1006 197.615 50.8333 198.824C51.57 200.036 52.9 200.581 53.84 200.885ZM83.33 110.642L85.64 120.697C89.9133 119.18 94.2566 117.574 98.3133 115.586C99.7466 114.884 101.36 114.033 102.42 112.797C103.657 111.35 104.24 109.306 104.803 107.328L104.83 107.231L104.836 107.208C105.521 104.791 106.178 102.47 106.597 100.132C103.707 100.827 100.92 102.234 98.2066 103.607L98.0533 103.683L98.0214 103.7L98.0214 103.7C93.6113 105.926 89.0628 108.222 83.33 110.642ZM141.567 242.506L123.459 242.557C123.26 243.13 122.805 243.606 122.183 243.805C120.33 244.406 118.757 245.572 118.44 246.577C118.38 246.768 118.223 247.272 118.907 248.171C119.897 249.474 121.42 250.349 123.037 251.274L123.17 251.351L123.308 251.431L123.31 251.431L123.31 251.432L123.311 251.432C123.596 251.596 123.88 251.759 124.16 251.926C126.042 253.044 126.709 255.486 127.245 257.449L127.247 257.454L127.279 257.571C127.41 258.045 127.533 258.49 127.65 258.814C128.73 261.784 130.91 265.255 135.197 264.977C138.013 264.79 141.413 262.669 142.53 257.274C143.386 253.125 142.611 248.655 141.862 244.332L141.86 244.323C141.77 243.801 141.68 243.284 141.593 242.769C141.579 242.681 141.57 242.593 141.567 242.506ZM141.496 233.936L120.565 233.592C120.315 235.236 120.22 236.901 120.28 238.563L141.673 238.503V238.502C141.673 238.484 141.673 238.465 141.673 238.445C141.672 238.425 141.672 238.404 141.67 238.383L141.496 233.936ZM70.2867 113.365C69.65 111.477 69.3733 109.52 69.4667 107.542L74.6133 103.38L74.27 104.609C74.0133 105.36 73.9133 106.142 73.97 106.937C73.973 106.982 73.9786 107.024 73.9846 107.069L73.9867 107.084C74.21 108.601 75.1633 109.757 76.83 110.532C75.6133 113 74.1067 115.299 72.3267 117.4C71.46 116.167 70.7767 114.814 70.2867 113.365Z" fill="black"/>
</g>
<path d="M115.667 84.789C116.334 86.8401 119.454 86.0384 121.144 84.6954C129.197 78.2915 133.984 68.086 134.217 57.7836C134.45 47.4812 130.254 37.2356 123.197 29.7426C118.98 25.2696 113.294 21.5882 107.164 21.9023L97.3337 17.0183C95.9704 13.9817 92.367 12.5887 89.0504 12.4283C85.7337 12.268 82.417 13.023 79.1004 12.8726C76.457 12.7524 73.8504 12.0609 71.2071 12.1344C65.0637 12.3014 59.8037 16.4972 55.5071 20.9034C48.2837 28.3095 42.0437 37.6632 42.0637 48.0224C42.0637 53.8951 43.7304 60.8569 39.3971 64.8189C38.8371 65.3333 38.1271 65.9881 38.3971 66.6996C38.4937 66.8867 38.6237 67.0538 38.7871 67.1874C38.9504 67.321 39.1371 67.4212 39.3371 67.478C42.9604 68.9512 47.6037 66.85 48.8937 63.1352L55.4204 50.7951C57.6071 47.4545 62.1337 46.4723 66.1037 46.8799C70.0737 47.2875 73.8804 48.764 77.8571 49.1214C81.0571 49.382 84.277 48.921 87.277 47.7718C90.277 46.6227 92.9804 44.8087 95.1904 42.4703L97.1904 43.0115C99.1037 43.9602 100.717 45.4267 101.85 47.2407C102.98 49.058 103.587 51.1525 103.597 53.2938C103.577 55.4886 102.93 57.6199 102.57 59.788C102.21 61.956 102.214 64.3145 103.37 66.1785C104.527 68.0426 107.16 69.1049 109.01 67.9257" fill="black"/>
<path d="M103.199 99.7467C102.816 95.1767 103.703 91.609 105.686 87.4733C106.133 86.5379 107.103 86.548 108.059 86.244C108.906 85.9767 109.746 85.6694 110.566 85.322C112.236 84.6271 113.813 83.7285 115.266 82.6495C118.139 80.4748 120.376 77.4215 121.219 73.8804C121.983 70.6701 121.446 66.8485 117.869 65.0412C115.363 63.7718 113.113 64.2228 109.289 67.5901L109.019 67.9475C107.169 69.1268 104.533 68.0678 103.379 66.2004C102.226 64.333 102.229 61.9779 102.579 59.8098C102.929 57.6418 103.579 55.5105 103.606 53.3157C103.596 51.1744 102.989 49.0798 101.859 47.2626C100.729 45.4453 99.116 43.9821 97.1994 43.0334L95.1994 42.4922C92.9894 44.8306 90.286 46.6412 87.286 47.7937C84.286 48.9462 81.066 49.4072 77.866 49.1433C73.8894 48.7859 70.0827 47.3127 66.1127 46.9018C62.1427 46.4909 57.616 47.4697 55.4294 50.817L53.3327 52.848C51.3327 55.8546 50.9994 59.5292 49.9994 63.2039C49.9994 64.2595 45.946 78.5172 55.3327 87.9243C58.666 91.2649 62.9994 92.6011 67.4994 93.6033C71.536 94.228 75.946 94.856 79.8327 93.2692C79.6094 96.7468 79.646 99.8068 79.806 103.288" fill="#FFD39F"/>
<path fill-rule="evenodd" clip-rule="evenodd" d="M38.6668 69.3661C39.6601 69.7603 40.7335 69.9541 41.8235 69.9541C43.1635 69.9541 44.5301 69.6634 45.8235 69.0755C46.2434 68.885 46.6459 68.6674 47.0283 68.4257C46.4626 77.2641 49.0843 85.0345 54.3401 89.9408C57.3835 92.777 61.3335 94.591 66.4168 95.4896C69.5635 96.0408 73.6435 96.7523 77.6501 95.9773C77.5835 97.5908 77.6068 98.7734 77.7135 101.125C77.7635 102.201 78.6468 103.039 79.7101 103.039C79.7435 103.039 79.7735 103.039 79.8068 103.026C80.9101 102.976 81.7635 102.037 81.7135 100.931C81.5535 97.4839 81.5901 96.7423 81.8035 93.3817C81.8468 92.6935 81.5335 92.0287 80.9735 91.6278C80.4135 91.227 79.6868 91.1401 79.0501 91.4007C75.5334 92.8405 71.5601 92.316 67.1068 91.5377C62.7501 90.7693 59.5601 89.3295 57.0668 87.0045C52.4035 82.655 50.2501 75.4159 51.1535 67.148C51.4268 64.6726 52.5268 59.939 54.8001 54.0796C54.9748 53.6287 54.9759 53.1531 54.836 52.7269C55.0265 52.7849 55.2221 52.8135 55.4168 52.8135C56.0701 52.8135 56.7068 52.4961 57.0868 51.9048C58.8601 49.1956 62.8001 48.5676 65.8934 48.8849C67.6853 49.0672 69.4541 49.4893 71.3269 49.9361L71.3269 49.9361L71.3734 49.9472C73.3968 50.4316 75.4934 50.9327 77.6868 51.1298C81.1668 51.4138 84.7268 50.9026 87.9868 49.6533C90.935 48.5234 93.6625 46.7759 95.9324 44.5741C96.0482 44.6695 96.1767 44.7533 96.3168 44.8228C97.9001 45.6078 99.2301 46.8171 100.167 48.317C101.1 49.8203 101.6 51.5507 101.61 53.2912C101.6 54.5974 101.32 55.9369 101.023 57.3534L101.01 57.4191L101.01 57.4197L101.009 57.4201L101.009 57.4201C100.87 58.0844 100.726 58.7732 100.61 59.4746C100.077 62.6816 100.427 65.2271 101.683 67.2515C102.62 68.7581 104.21 69.8939 105.94 70.2881C106.383 70.3884 106.827 70.4385 107.263 70.4385C108.28 70.4385 109.257 70.1645 110.097 69.6334C110.398 69.4406 110.631 69.1805 110.788 68.885C114.29 65.856 115.6 66.1294 116.937 66.8072C120.06 68.3873 119.58 71.935 119.227 73.3949C118.54 76.2912 116.687 79.0037 114.027 81.0181C112.707 82.0003 111.27 82.8187 109.74 83.4534C108.983 83.7741 108.2 84.0614 107.407 84.3119C107.286 84.3515 107.15 84.3848 107.007 84.42L107.005 84.4205C106.967 84.4298 106.929 84.4392 106.89 84.4489C106.03 84.656 104.593 85.0034 103.833 86.5835C101.76 90.9096 100.783 93.2146 101.207 98.2456C101.293 99.2912 102.17 100.083 103.197 100.083C103.253 100.083 103.31 100.08 103.37 100.066C104.47 99.976 105.287 99.0039 105.193 97.9015C104.86 93.9729 105.453 92.4663 107.37 88.4576C107.465 88.4268 107.599 88.3941 107.722 88.3639L107.761 88.3544C107.785 88.3486 107.808 88.3429 107.83 88.3374C108.063 88.2806 108.33 88.2138 108.607 88.1269C109.517 87.8429 110.42 87.5089 111.283 87.1448C112.188 86.7694 113.07 86.338 113.924 85.8532C114.375 86.8301 115.187 87.5308 116.247 87.8496C116.68 87.9799 117.133 88.0367 117.593 88.0367C119.33 88.0367 121.177 87.2116 122.373 86.2628C130.78 79.5783 135.953 68.9485 136.203 57.8277C136.443 47.1645 132.23 36.4245 124.637 28.3637C119.203 22.6011 112.96 19.5946 107.047 19.8986C105.943 19.9554 105.093 20.8974 105.15 22.0032C105.207 23.1089 106.147 23.9641 107.25 23.904C113.62 23.5833 119.057 28.2868 121.727 31.1196C128.603 38.4222 132.42 48.1233 132.203 57.7409C131.977 67.6858 127.373 77.1764 119.89 83.126C119.023 83.8109 117.937 84.0814 117.503 84.0347C117.435 83.8654 117.345 83.7102 117.239 83.5709C120.215 81.0632 122.287 77.812 123.113 74.3269C124.293 69.443 122.617 65.1904 118.737 63.2261C116.237 61.96 113.193 61.4255 107.933 66.0589C107.819 66.16 107.718 66.2713 107.632 66.3902C107.347 66.4653 107.052 66.4337 106.83 66.383C106.14 66.2226 105.453 65.7349 105.083 65.1369C104.373 63.9911 104.197 62.3074 104.557 60.1327C104.647 59.5689 104.763 59.0102 104.884 58.4254L104.884 58.4251L104.937 58.1718C105.26 56.6251 105.593 55.0283 105.61 53.2979C105.597 50.7824 104.89 48.3271 103.56 46.1924C102.23 44.0611 100.34 42.3441 98.0901 41.2283C97.6198 40.995 97.102 40.9645 96.6355 41.1032C96.6112 41.0776 96.5861 41.0525 96.5601 41.0279C95.7601 40.2662 94.4935 40.2996 93.7334 41.1047C91.7401 43.2126 89.2601 44.8729 86.5568 45.9118C83.8535 46.9507 80.8968 47.3716 78.0301 47.1378C76.1589 46.9724 74.3137 46.532 72.3621 46.0661L72.3034 46.0521C70.3734 45.5911 68.3734 45.1134 66.3034 44.8996C60.7834 44.335 56.0868 46.1323 53.7434 49.7101C53.3977 50.2403 53.3344 50.8748 53.5171 51.4343C52.5249 51.1312 51.4517 51.6417 51.0701 52.6264C49.9152 55.6019 48.9497 58.572 48.2569 61.231C47.6935 61.4228 47.221 61.8643 47.0101 62.4711C46.5735 63.7239 45.5401 64.7995 44.1701 65.4209C43.1801 65.8719 42.1301 66.0322 41.1601 65.8986C44.8301 62.1471 44.5068 56.6685 44.2201 51.8113C44.1401 50.4817 44.0668 49.2257 44.0668 48.013C44.0501 39.7284 48.3835 31.0762 56.9401 22.3005C60.2868 18.8697 65.4101 14.2931 71.2668 14.1327C72.6135 14.096 73.9901 14.2864 75.4501 14.4902C76.6001 14.6505 77.7901 14.8142 79.0135 14.871C80.7935 14.9512 82.5435 14.7942 84.2301 14.6405L84.2618 14.6377C85.8934 14.4917 87.4366 14.3537 88.9568 14.4267C91.4401 14.547 94.4668 15.5057 95.5135 17.8374C95.9668 18.8463 97.1501 19.2973 98.1568 18.843C99.1635 18.3886 99.6135 17.2027 99.1601 16.1939C97.3735 12.2119 92.8168 10.6017 89.1501 10.4247C87.3526 10.3382 85.5947 10.4965 83.8961 10.6495L83.8701 10.6518C82.2435 10.7988 80.7068 10.9358 79.1935 10.869C78.1749 10.8232 77.1499 10.6812 76.0653 10.531L75.9968 10.5215C74.4401 10.3044 72.8301 10.0806 71.1535 10.1273C63.8435 10.3244 57.9068 15.5692 54.0768 19.4977C44.7601 29.0485 40.0468 38.646 40.0635 48.0164C40.0635 49.2803 40.1392 50.5898 40.2126 51.861L40.2235 52.0485L40.2239 52.0552C40.4904 56.5892 40.7421 60.8722 38.0468 63.3364C37.3668 63.961 35.7768 65.4242 36.5301 67.4085C36.5535 67.4787 36.5835 67.5455 36.6168 67.609C36.8368 68.0399 37.1401 68.4174 37.5135 68.7281C37.8568 69.0154 38.2435 69.2292 38.6668 69.3661ZM65.1435 59.7319C65.1435 61.3001 64.0988 62.5714 62.8101 62.5714C61.5215 62.5714 60.4768 61.3001 60.4768 59.7319C60.4768 58.1637 61.5215 56.8924 62.8101 56.8924C64.0988 56.8924 65.1435 58.1637 65.1435 59.7319ZM76.4768 60.5169C76.4768 62.0851 75.4321 63.3564 74.1435 63.3564C72.8548 63.3564 71.8101 62.0851 71.8101 60.5169C71.8101 58.9487 72.8548 57.6774 74.1435 57.6774C75.4321 57.6774 76.4768 58.9487 76.4768 60.5169Z" fill="black"/>
</g>
<defs>
<clipPath id="clip0_805_38536">
<rect width="180" height="180" rx="24" fill="white"/>
</clipPath>
<clipPath id="clip1_805_38536">
<rect width="200" height="200.436" fill="white" transform="translate(-10 95.2734)"/>
</clipPath>
</defs>
</svg>
