<svg width="180" height="180" viewBox="0 0 180 180" fill="none" xmlns="http://www.w3.org/2000/svg">
<g clip-path="url(#clip0_805_38614)">
<rect width="180" height="180" rx="24" fill="white"/>
<g clip-path="url(#clip1_805_38614)">
<path fill-rule="evenodd" clip-rule="evenodd" d="M109.923 105.128C104.8 106.271 103.423 98.6474 103.123 95.2734H80.75C80.565 95.8343 80.3939 96.8327 80.2039 97.9413C79.8666 99.9098 79.4697 102.226 78.83 103.057C78.7458 103.159 78.6395 103.289 78.5155 103.44C77.5343 104.639 75.4404 107.199 74.3633 107.881C73.41 108.482 72.3733 109.073 71.2466 109.04H70.8866C68.41 113.032 70.3766 117.689 74.1166 121.049C77.8566 124.41 83.1733 125.609 88.1733 125.242C93.8433 124.838 99.2166 122.539 103.43 118.714C107.577 114.889 110.223 111.198 110.473 105.963L109.923 105.128ZM115.213 148.723L115.677 149.251C115.393 173.189 117.854 197.106 120.361 221.473C121.041 228.077 121.724 234.715 122.357 241.394C121.2 241.491 120.1 241.942 119.213 242.691C118.323 243.439 117.687 244.444 117.393 245.57C117.097 246.696 117.16 247.885 117.567 248.974C117.973 250.063 118.71 250.999 119.67 251.653C120.216 252.024 120.82 252.294 121.424 252.564L121.424 252.564C121.963 252.805 122.503 253.047 123.003 253.36C125.359 254.832 126.436 257.559 127.505 260.266C128.642 263.143 129.77 265.999 132.417 267.304C136.207 269.171 140.957 266.322 142.673 262.45C144.39 258.578 143.92 254.139 143.41 249.936C141.233 232.057 136.043 179.687 135.137 168.726C135.137 168.726 130.79 128.212 129.67 123.558C128.55 118.905 124.753 114.923 121.293 111.622L120.547 111.138C118.21 117.061 111.777 142.439 115.213 148.723ZM61.7566 115.243L62.3733 113.326C60.42 113.86 58.9466 115.447 57.7066 117.044C53.85 121.985 51.8133 128.252 50.8533 134.449C50.1638 138.902 49.3817 143.904 48.5372 149.306L48.5371 149.306C44.7231 173.701 39.6374 206.229 36.0733 232.983C34.9966 232.852 33.9033 233.04 32.9266 233.514C31.95 233.988 31.13 234.737 30.5666 235.665C30.0033 236.594 29.7133 237.666 29.74 238.752C29.7633 239.841 30.1 240.897 30.7066 241.799C30.8627 242.027 31.0357 242.246 31.2084 242.465L31.2085 242.465C31.4343 242.75 31.6597 243.035 31.8466 243.342C32.69 244.752 32.6433 246.506 32.5433 248.149L32.5267 248.422C32.3436 251.41 32.1522 254.535 33.43 257.232C34.7466 260.012 38.2666 262.006 40.9633 260.536C42.8433 259.507 43.65 257.269 44.2966 255.224C45.2066 252.525 45.98 249.779 46.61 247C47.3266 243.576 50.2766 228.383 50.5633 224.892L47.89 223.579C47.89 223.579 57.4933 151.679 61.7566 115.243Z" fill="#FFD39F"/>
<path d="M115.214 148.724C111.777 142.44 118.21 117.062 120.544 111.139C120.78 110.684 120.457 110.992 120.404 110.484C120.24 109.706 113.557 105.476 110.564 105.129C109.997 110.808 107.624 114.853 103.427 118.715C99.2136 122.54 93.8402 124.838 88.1702 125.243C83.1702 125.61 77.8536 124.411 74.1136 121.05C70.3736 117.69 68.6136 111.93 71.0902 107.948L64.3336 111.055C63.5302 111.423 62.6669 111.83 62.2102 112.582C61.7536 113.333 61.8769 114.339 61.7769 115.254C57.5002 151.69 46.6702 221.529 47.6369 221.636C69.9969 224.288 98.8902 226.676 120.56 220.543H120.614C118.834 196.491 115.417 172.893 115.704 149.258" fill="black"/>
<path fill-rule="evenodd" clip-rule="evenodd" d="M109.369 103.521C109.776 103.218 110.286 103.082 110.79 103.139C112.936 103.39 115.94 104.983 117.54 105.912C121.326 108.11 122.063 109.146 122.276 109.767C122.313 109.822 122.347 109.88 122.378 109.939C122.483 110.007 122.583 110.085 122.676 110.175C126.61 113.923 130.416 118.085 131.62 123.093C132.753 127.82 136.95 166.855 137.126 168.515C137.126 168.523 137.127 168.532 137.128 168.54C137.129 168.548 137.13 168.557 137.13 168.565C138.07 179.926 143.243 232.01 145.396 249.698L145.397 249.7C145.887 253.742 146.496 258.769 144.503 263.267C143.29 266.007 140.813 268.332 138.04 269.341C137.013 269.701 135.98 269.889 134.973 269.889C133.766 269.889 132.596 269.625 131.533 269.1C128.195 267.454 126.842 264.03 125.645 261.005L125.643 260.999L125.638 260.985C124.66 258.512 123.736 256.177 121.943 255.056C121.567 254.82 121.114 254.617 120.634 254.401L120.606 254.388L120.565 254.369L120.565 254.369L120.564 254.369C119.934 254.086 119.221 253.766 118.546 253.306C117.236 252.414 116.25 251.158 115.693 249.671C115.136 248.185 115.056 246.588 115.46 245.055C115.863 243.521 116.716 242.172 117.93 241.149C118.613 240.575 119.38 240.13 120.203 239.83C119.665 234.238 119.09 228.625 118.527 223.151C108.922 225.529 98.0821 226.394 87.0764 226.394C75.2518 226.394 63.2317 225.394 52.3231 224.189C51.5426 230.145 49.2341 244.222 48.5697 247.403C48.5664 247.413 48.5664 247.426 48.563 247.436C47.9197 250.266 47.1264 253.092 46.1997 255.838C45.6097 257.705 44.6197 260.809 41.923 262.285C41.0197 262.786 40.013 263.034 38.973 263.034C38.2564 263.034 37.523 262.917 36.7964 262.68C34.6064 261.965 32.623 260.207 31.623 258.093C30.1244 254.932 30.3393 251.415 30.5292 248.307L30.5297 248.298L30.5464 248.028C30.633 246.611 30.6664 245.268 30.1297 244.373C30.0253 244.201 29.8614 243.991 29.6851 243.766L29.6397 243.708C29.4564 243.478 29.2497 243.217 29.053 242.93C28.223 241.697 27.7697 240.274 27.7364 238.798C27.703 237.324 28.0897 235.878 28.8564 234.619C29.623 233.359 30.7264 232.354 32.0497 231.709C32.7697 231.358 33.5364 231.124 34.3197 231.011C37.8412 205.108 42.4783 175.35 46.2206 151.334L46.2264 151.297L46.7722 147.791L46.7725 147.79C47.5383 142.873 48.2523 138.288 48.8897 134.143C50.0397 126.674 52.4797 120.504 56.143 115.81C57.2196 114.423 58.5222 112.954 60.2444 112.038C60.3157 111.872 60.4 111.706 60.4997 111.541C61.2826 110.251 62.6071 109.643 63.4872 109.238L63.4997 109.233L70.2564 106.129C71.0182 105.781 71.912 105.943 72.497 106.528C73.8351 105.953 74.8071 105.074 75.5238 104.427L75.5363 104.415L75.6563 104.305C76.943 103.143 77.0797 102.832 77.353 102.207C77.3741 102.158 77.3962 102.109 77.4187 102.058C77.4388 102.013 77.4592 101.967 77.4797 101.92C77.9363 100.911 79.1197 100.464 80.1264 100.921C81.133 101.379 81.5797 102.565 81.123 103.574L81.013 103.821C80.543 104.893 80.1297 105.665 78.333 107.285L78.2163 107.389L78.212 107.393C77.1051 108.395 75.1359 110.179 72.0756 110.861C71.5299 113.655 72.8148 117.194 75.4464 119.562C78.4597 122.271 83.043 123.614 88.023 123.246C93.2264 122.876 98.2197 120.741 102.083 117.233C105.432 114.153 107.341 111.106 108.179 107.387C105.411 106.815 104.377 104.97 103.53 103.453L103.492 103.387C103.254 102.963 103.008 102.526 102.72 102.097C102.103 101.178 102.346 99.9324 103.26 99.3144C104.176 98.6963 105.42 98.9402 106.036 99.8555C106.433 100.443 106.743 100.998 107.016 101.489L107.02 101.496C107.828 102.938 108.083 103.392 109.369 103.521ZM50.7297 219.97C50.8049 219.976 50.8788 219.986 50.9512 220.001C72.2328 222.421 98.1502 224.213 118.113 219.121C115.681 195.443 113.457 172.963 113.671 150.008C113.59 149.91 113.517 149.803 113.453 149.687C111.723 146.527 111.82 139.709 113.743 129.426C115.08 122.278 117.056 114.892 118.366 111.227C117.246 110.332 114.386 108.595 112.2 107.686C111.253 112.46 108.903 116.391 104.776 120.186C100.243 124.302 94.3997 126.804 88.3097 127.238C82.2564 127.679 76.5964 125.969 72.7764 122.538C69.8297 119.889 67.7664 115.643 67.9597 111.588L65.163 112.874L65.147 112.881C64.9267 112.983 64.634 113.118 64.3859 113.258C64.4059 113.815 64.1919 114.348 63.8128 114.735C63.8031 114.966 63.7887 115.216 63.7597 115.469C63.753 115.533 63.743 115.596 63.7297 115.657C57.2197 147.292 50.123 209.273 49.5797 219.843C49.9309 219.884 50.2835 219.924 50.6373 219.965C50.668 219.966 50.6988 219.968 50.7297 219.97ZM49.7297 180.741C51.2338 168.645 55.0338 139.429 59.0747 118.572C55.9591 122.69 53.8653 128.132 52.843 134.758C52.1819 139.059 51.4383 143.835 50.64 148.962L50.1797 151.919C46.3564 176.452 41.5997 206.985 38.0564 233.249C37.9097 234.335 36.9197 235.096 35.8397 234.969C35.1397 234.886 34.4364 235.006 33.803 235.313C33.1697 235.621 32.6397 236.102 32.2764 236.706C31.9097 237.308 31.7264 237.999 31.7397 238.704C31.7564 239.409 31.973 240.09 32.3664 240.675C32.4764 240.835 32.623 241.022 32.7764 241.216L32.8168 241.268L32.8169 241.268C33.0534 241.569 33.3166 241.903 33.553 242.292C34.683 244.183 34.6597 246.281 34.5397 248.265L34.523 248.539C34.353 251.291 34.1797 254.138 35.2364 256.366C35.7764 257.502 36.873 258.484 38.0364 258.861C38.5497 259.028 39.3097 259.149 40.0097 258.768C41.1997 258.116 41.8397 256.356 42.393 254.612C42.3964 254.599 42.3997 254.589 42.4064 254.575C43.2897 251.956 44.0464 249.26 44.6597 246.564C45.3026 243.48 47.5929 229.489 48.3496 223.737C48.0318 223.699 47.7152 223.662 47.3997 223.625C46.8464 223.558 46.3264 223.25 45.9964 222.799C45.453 222.051 45.2297 221.741 46.4864 209.187C47.273 201.329 48.423 191.228 49.7297 180.741ZM117.676 130.165C118.829 123.997 120.359 118.173 121.472 114.592C124.362 117.497 126.913 120.631 127.73 124.028C128.586 127.609 131.646 154.942 133.146 168.916C134.093 180.351 139.27 232.467 141.426 250.176C141.973 254.692 142.28 258.404 140.846 261.634C140.07 263.384 138.433 264.928 136.673 265.566C135.82 265.876 134.543 266.114 133.3 265.502C131.35 264.542 130.39 262.115 129.373 259.542L129.366 259.526L129.365 259.522C128.245 256.687 126.978 253.479 124.066 251.659C123.446 251.271 122.806 250.984 122.24 250.73C121.7 250.49 121.19 250.263 120.793 249.992C120.173 249.568 119.703 248.973 119.44 248.268C119.176 247.563 119.14 246.805 119.33 246.077C119.52 245.348 119.923 244.71 120.5 244.226C121.076 243.742 121.773 243.451 122.523 243.391C123.056 243.347 123.55 243.09 123.893 242.679C124.236 242.268 124.4 241.737 124.35 241.203C123.72 234.556 123.032 227.864 122.366 221.391C122.563 220.969 122.616 220.477 122.48 219.993C122.41 219.748 122.299 219.527 122.154 219.334C119.683 195.275 117.404 172.477 117.68 149.273C117.687 148.628 117.389 148.051 116.921 147.678C116.44 146.709 115.309 142.847 117.676 130.165ZM47.8564 219.643C47.861 219.643 47.8656 219.643 47.8706 219.644C47.8764 219.645 47.8825 219.646 47.8897 219.646C47.8829 219.644 47.877 219.643 47.8716 219.643C47.8662 219.643 47.8613 219.643 47.8564 219.643Z" fill="black"/>
</g>
<path d="M115.139 61.2004C114.853 59.3297 113.069 58.1037 111.396 57.2284C109.723 56.3532 107.853 55.4546 107.083 53.7241C105.643 50.4938 108.936 46.5619 107.479 43.3382C106.829 41.8984 105.333 40.9998 103.793 40.6424C102.253 40.2849 100.653 40.4386 99.0794 40.5789L94.9428 38.4142C92.1728 33.9812 86.1261 32.5682 81.0294 33.7106C75.9328 34.8531 71.5594 38.02 67.3328 41.1L54.0961 50.7711C51.9428 52.3445 48.8994 53.9212 46.8428 52.2209C43.7761 49.6887 47.5094 43.8961 44.8794 40.923C44.2494 40.2148 43.3494 39.8139 42.6294 39.1959C40.6294 37.4655 40.3794 34.4389 40.6594 31.7965C41.7428 21.5976 48.4661 12.3409 57.5028 7.52706C66.5394 2.71326 77.6028 2.23222 87.2895 5.5227C92.8494 7.42016 98.5628 11.3287 99.2561 17.1714L102.953 18.3773C107.493 14.3686 114.423 15.2639 120.253 16.844C124.436 17.9764 128.603 19.3762 132.253 21.7112C135.903 24.0463 139.033 27.4203 140.389 31.5459C141.226 34.0848 141.389 36.8909 142.846 39.1425C143.789 40.6056 145.196 41.708 146.233 43.1044C149.209 47.1131 148.273 53.487 144.266 56.4668C142.329 57.9066 139.733 58.7317 138.653 60.8964C137.749 62.7104 138.163 65.0688 136.919 66.6656C135.109 68.9873 130.919 68.3125 129.336 70.7946C128.899 71.4794 128.736 72.3246 128.219 72.9493C127.703 73.574 126.553 73.8145 126.156 73.113L116.376 73.5606L115.139 61.2004Z" fill="black"/>
<path d="M52.9371 53.3573C50.7871 58.8993 49.4938 63.9036 49.1671 66.9335C48.3438 74.5634 49.8804 83.0418 55.7038 88.477C58.8071 91.3699 62.6504 92.793 66.7604 93.5179C71.0471 94.2762 75.6471 94.9678 79.8071 93.2641C79.5871 96.7416 79.5538 98.8896 79.7138 102.371L103.167 99.9519C102.787 95.3787 103.68 91.5971 105.667 87.4614C106.117 86.5261 107.084 86.5361 108.04 86.2321C108.89 85.9648 109.724 85.6575 110.547 85.3101C112.217 84.6153 113.797 83.7166 115.247 82.6376C118.12 80.4629 120.36 77.4096 121.2 73.8686C121.964 70.6582 121.427 66.8366 117.867 65.0293C115.357 63.7599 113.107 64.2109 109.284 67.5782L115.17 61.2311C114.884 59.3603 113.1 58.1343 111.427 57.2591C109.754 56.3839 107.884 55.4853 107.114 53.7548C105.674 50.5245 108.967 46.5926 107.51 43.3689C106.86 41.9291 105.364 41.0305 103.824 40.6731C102.284 40.3156 100.684 40.4693 99.1104 40.6096L94.9738 38.4449C92.2038 34.0119 86.1571 32.5988 81.0604 33.7413C75.9638 34.8838 71.5604 38.0206 67.3338 41.1006L54.0971 50.7717" fill="#FFD39F"/>
<path fill-rule="evenodd" clip-rule="evenodd" d="M48.9431 54.9713C47.4697 54.9713 46.3631 54.4268 45.5697 53.7687C43.1613 51.779 43.476 48.7616 43.7293 46.3338L43.7297 46.3292C43.9064 44.6355 44.0731 43.0321 43.3831 42.2537C43.1864 42.0332 42.8364 41.7994 42.4664 41.5522C42.1164 41.3183 41.7164 41.0511 41.3297 40.7204C39.1564 38.8396 38.2397 35.6827 38.6731 31.5872C39.8064 20.934 46.6597 11.0358 56.5664 5.76103C65.7464 0.870398 77.4697 0.0753368 87.9331 3.62973C95.5897 6.24208 100.563 11.2196 101.243 16.9387C101.373 18.0377 100.59 19.0366 99.4931 19.1668C98.3964 19.2971 97.4031 18.5121 97.2697 17.413C96.5397 11.2596 88.9531 8.21302 86.6431 7.42464C77.2064 4.22101 66.6631 4.92254 58.4397 9.30206C49.6897 13.9622 43.6397 22.6644 42.6464 32.0148C42.4464 33.9189 42.5031 36.4477 43.9331 37.6838C44.1297 37.8508 44.3964 38.0312 44.6764 38.2183L44.6824 38.2223C45.2176 38.5787 45.8284 38.9855 46.3664 39.5946C48.2276 41.6967 47.9371 44.4953 47.7039 46.7422L47.7031 46.7501C47.4897 48.8079 47.4097 50.1007 48.1097 50.6787C49.2931 51.6575 52.0864 49.76 52.9131 49.1554L66.1497 39.4843L66.1658 39.4726C70.3219 36.4456 75.0269 33.0187 80.5864 31.7709C87.4397 30.2342 93.0431 32.0315 95.9597 36.6983C96.5464 37.637 96.2631 38.873 95.3264 39.461C94.3897 40.0489 93.1564 39.7649 92.5697 38.8262C89.7831 34.3666 83.8697 35.1416 81.4597 35.6827C76.7031 36.7484 72.5331 39.785 68.5031 42.7247L55.2697 52.3957C55.1223 52.5035 54.9766 52.6074 54.8325 52.7073C54.9789 53.1385 54.9805 53.6217 54.8031 54.0794C52.5298 59.9388 51.4298 64.6724 51.1564 67.1478C50.2531 75.4158 52.4065 82.6548 57.0698 87.0043C59.5631 89.3294 62.7531 90.7691 67.1098 91.5375C71.5631 92.3158 75.5398 92.8403 79.0531 91.4005C79.6898 91.14 80.4165 91.2268 80.9764 91.6277C81.5364 92.0319 81.8498 92.6933 81.8065 93.3815C81.5931 96.7421 81.5564 97.4837 81.7164 100.931C81.7664 102.037 80.9131 102.976 79.8098 103.026C79.7731 103.039 79.7431 103.039 79.7131 103.039C78.6498 103.039 77.7664 102.201 77.7164 101.125C77.6098 98.7732 77.5864 97.5907 77.6531 95.9771C73.6465 96.7522 69.5664 96.0406 66.4198 95.4894C61.3364 94.5908 57.3864 92.7768 54.3431 89.9407C48.7498 84.7193 46.1398 76.2543 47.1798 66.7102C47.5152 63.6676 48.6371 59.3476 50.2487 54.8382C49.7845 54.93 49.3497 54.9713 48.9431 54.9713ZM126.97 75.5594C126.873 75.5594 126.78 75.5561 126.686 75.5461C125.713 75.4592 124.89 74.9381 124.423 74.1163C123.88 73.1542 124.216 71.9315 125.176 71.3837C125.726 71.0697 126.366 71.0496 126.91 71.2701C126.95 71.1766 126.993 71.0763 127.036 70.9795L127.049 70.9494C127.206 70.5792 127.384 70.1595 127.656 69.7334C128.876 67.8226 130.953 67.2146 132.62 66.7269C133.776 66.3895 134.87 66.0688 135.35 65.4508C135.723 64.9739 135.851 64.1688 135.999 63.2338L136.003 63.2092L136.009 63.1736C136.164 62.1935 136.34 61.085 136.87 60.019C137.881 57.9919 139.713 56.9231 141.33 55.9791L141.34 55.9735C141.973 55.6061 142.57 55.2553 143.083 54.8745C144.57 53.7687 145.596 51.9548 145.9 49.897C146.203 47.8392 145.743 45.8047 144.64 44.3182C144.25 43.7937 143.77 43.2859 143.26 42.7514L143.25 42.7416C142.537 41.9897 141.797 41.2106 141.176 40.246C140.026 38.4688 139.58 36.5379 139.15 34.6705L139.137 34.6144C138.938 33.76 138.751 32.9535 138.5 32.1918C137.4 28.8479 134.803 25.7311 131.186 23.4194C127.55 21.091 123.36 19.7782 119.74 18.796C112.793 16.9119 108.453 17.3228 105.23 20.1724C104.4 20.9039 103.136 20.8238 102.406 19.992C101.676 19.1602 101.756 17.8941 102.586 17.1625C108.093 12.3019 115.203 13.4143 120.783 14.9243C124.693 15.9832 129.243 17.4197 133.336 20.0387C137.726 22.8482 140.91 26.7166 142.296 30.9358C142.609 31.8851 142.828 32.8377 143.041 33.7606L143.043 33.7686C143.413 35.3687 143.763 36.882 144.53 38.0679C144.95 38.7179 145.528 39.3284 146.14 39.9745L146.153 39.9888L146.199 40.0377C146.752 40.6205 147.324 41.2244 147.843 41.9263C149.576 44.2614 150.31 47.3782 149.853 50.4816C149.396 53.585 147.796 56.361 145.463 58.0948C144.775 58.6081 144.053 59.0282 143.354 59.4349L143.354 59.4351L143.35 59.4377C142.05 60.196 140.923 60.8541 140.446 61.8095C140.191 62.322 140.077 63.0346 139.956 63.7919L139.95 63.8306C139.746 65.1334 139.513 66.6133 138.5 67.9161C137.223 69.553 135.373 70.0942 133.74 70.5719C132.503 70.9327 131.436 71.2467 131.026 71.8914C130.93 72.0451 130.826 72.2856 130.72 72.5429C130.51 73.044 130.246 73.6653 129.766 74.2466C129.09 75.0617 128.016 75.5594 126.97 75.5594ZM113.163 61.5055C113.226 61.9243 113.415 62.2926 113.685 62.5783C112.096 63.0016 110.226 64.0394 107.933 66.0588C107.103 66.7904 107.02 68.0564 107.75 68.8883C108.48 69.7201 109.743 69.8036 110.573 69.072C114.236 65.845 115.573 66.1156 116.936 66.8071C120.06 68.3872 119.58 71.9349 119.226 73.3947C118.54 76.2943 116.686 79.0036 114.026 81.018C112.706 82.0001 111.27 82.8185 109.74 83.4532C108.983 83.7739 108.2 84.0612 107.406 84.3118C107.286 84.3513 107.15 84.3846 107.007 84.4199C106.968 84.4293 106.929 84.4389 106.89 84.4487C106.03 84.6559 104.593 85.0033 103.833 86.5834C101.76 90.9128 100.783 93.2145 101.206 98.2454C101.293 99.2943 102.17 100.083 103.196 100.083C103.253 100.083 103.31 100.079 103.37 100.066C104.47 99.9725 105.286 99.0037 105.193 97.9013C104.86 93.9728 105.453 92.4662 107.37 88.4575C107.464 88.4267 107.598 88.3939 107.722 88.3637C107.743 88.3586 107.763 88.3536 107.783 88.3487C107.799 88.3448 107.815 88.341 107.83 88.3372C108.063 88.2804 108.33 88.2136 108.606 88.1267C109.516 87.8428 110.42 87.5087 111.283 87.1446C113.103 86.3896 114.83 85.4075 116.423 84.2216C119.836 81.6393 122.213 78.1217 123.113 74.3267C124.293 69.4428 122.616 65.1902 118.736 63.2259C118.096 62.9019 117.42 62.6258 116.681 62.472C117.027 62.0477 117.199 61.4831 117.11 60.8975C116.673 58.0347 114.166 56.4178 112.316 55.4524L112.046 55.3121C110.723 54.6239 109.353 53.909 108.906 52.9102C108.474 51.9402 108.835 50.5377 109.217 49.0514L109.22 49.0418C109.736 47.0408 110.32 44.7725 109.3 42.5142C108.453 40.6335 106.61 39.2405 104.243 38.6926C102.428 38.2688 100.61 38.4317 99.0083 38.5752H99.0083L99.0031 38.5757L98.9031 38.5857C97.8031 38.6859 96.9931 39.658 97.0897 40.7604C97.1897 41.8628 98.1564 42.6779 99.2597 42.5777L99.3597 42.5677L99.3643 42.5673C100.796 42.4405 102.148 42.3208 103.343 42.5978C104.45 42.855 105.34 43.4563 105.66 44.1678C106.095 45.1377 105.751 46.4766 105.353 48.0286L105.353 48.0287L105.35 48.0396L105.348 48.0474C104.835 50.0398 104.254 52.2951 105.256 54.5437C106.27 56.822 108.453 57.9578 110.206 58.8698L110.47 59.0068C112.16 59.8887 113.04 60.7071 113.163 61.5055ZM62.8098 62.5712C64.0984 62.5712 65.1431 61.2999 65.1431 59.7317C65.1431 58.1635 64.0984 56.8922 62.8098 56.8922C61.5211 56.8922 60.4764 58.1635 60.4764 59.7317C60.4764 61.2999 61.5211 62.5712 62.8098 62.5712ZM76.4765 60.5167C76.4765 62.085 75.4318 63.3562 74.1431 63.3562C72.8545 63.3562 71.8098 62.085 71.8098 60.5167C71.8098 58.9485 72.8545 57.6772 74.1431 57.6772C75.4318 57.6772 76.4765 58.9485 76.4765 60.5167Z" fill="black"/>
</g>
<defs>
<clipPath id="clip0_805_38614">
<rect width="180" height="180" rx="24" fill="white"/>
</clipPath>
<clipPath id="clip1_805_38614">
<rect width="200" height="200.436" fill="white" transform="translate(-10 95.2734)"/>
</clipPath>
</defs>
</svg>
