<svg width="180" height="180" viewBox="0 0 180 180" fill="none" xmlns="http://www.w3.org/2000/svg">
<g clip-path="url(#clip0_805_38549)">
<rect width="180" height="180" rx="24" fill="white"/>
<g clip-path="url(#clip1_805_38549)">
<path fill-rule="evenodd" clip-rule="evenodd" d="M103.124 95.2729C103.424 98.6469 104.8 106.27 109.924 105.128L110.474 105.963C110.224 111.197 107.577 114.889 103.43 118.714C99.217 122.539 93.8436 124.837 88.1736 125.241C83.1736 125.609 77.857 124.41 74.117 121.049C70.377 117.688 68.4103 113.031 70.887 109.039H71.247C72.3736 109.073 73.4103 108.482 74.3636 107.88C75.0632 107.437 75.3317 106.001 75.5768 104.691C75.7568 103.728 75.9242 102.833 76.2403 102.448C77.2403 101.149 80.2336 96.8262 80.747 95.2695H103.124V95.2729ZM121.73 241.611C118.52 242.65 114.604 245.82 117.32 249.388C118.553 251.013 120.307 252.018 122.046 253.015C122.413 253.225 122.78 253.435 123.14 253.65C124.33 254.359 124.868 256.327 125.32 257.985C125.474 258.547 125.618 259.074 125.774 259.503C127.334 263.793 130.364 267.314 135.334 266.979C140.387 266.645 143.53 262.333 144.49 257.683C145.477 252.895 144.519 247.216 143.703 242.386C143.659 242.128 143.616 241.871 143.574 241.618L121.73 241.611ZM28.4503 237.669C27.7836 234.997 29.7836 232.992 32.117 232.12L48.6836 234.612C49.3303 240.241 48.027 245.015 46.4736 249.692C46.2205 250.458 46.0662 251.26 45.9126 252.059C45.6557 253.395 45.4005 254.722 44.687 255.855C43.547 257.666 41.477 258.558 39.2636 258.668C35.7636 258.812 31.4503 258.357 31.4503 253.704C31.4845 253.156 31.5257 252.597 31.5674 252.031C31.9327 247.078 32.3391 241.566 28.4503 237.669Z" fill="#FFD39F"/>
<path d="M56.567 199.756C55.6637 208.825 54.2537 217.835 52.3337 226.744C50.6637 225.999 48.8604 225.595 47.0337 225.558L42.7004 225.274C39.3137 224.86 36.5937 224.449 33.207 224.038C34.6104 208.521 36.4104 193.044 38.607 177.604C40.517 164.158 42.7404 150.709 46.687 137.717C50.1937 126.172 55.757 114.233 66.3204 108.444L67.5504 106.536L77.8004 98.2516C78.417 99.2705 77.9437 100.59 77.577 100.256L76.1937 105.207C76.0137 105.714 75.9437 106.256 75.9804 106.794C76.207 108.35 78.057 108.992 79.5904 109.316L81.0004 109.443C87.5104 106.77 92.4137 104.295 97.3137 101.816C101.007 99.9486 104.82 98.0478 108.947 97.7305L110.52 103.293C116.417 104.876 120.99 109.429 124.674 114.093C128.69 119.184 131.84 124.903 134 131.02C135.21 134.437 137.124 138.282 137.914 141.816L138.967 145.05C145.547 173.445 145.894 202.872 146.207 232.026L117.187 231.548C115.9 221.73 114.887 211.885 114.147 202.007L112.857 202.051C99.917 203.704 86.647 202.321 74.147 200.731C67.517 201.529 60.7437 201.032 54.4537 199.001" fill="black"/>
<path fill-rule="evenodd" clip-rule="evenodd" d="M81.0005 109.443L84.1938 123.333L84.2246 123.322C89.291 121.538 94.3702 119.75 99.1938 117.387C100.934 116.535 102.68 115.573 103.94 114.099C105.43 112.359 106.097 110.091 106.727 107.876L106.755 107.778L106.755 107.778C107.692 104.47 108.63 101.161 108.94 97.7305C104.814 98.0478 101 99.9486 97.3071 101.816L97.1502 101.895C92.299 104.344 87.4311 106.802 81.0005 109.443ZM32.7305 232.002C32.9438 229.514 33.2105 226.54 34.2771 224.282L51.5838 225.886C51.3905 228.294 50.1838 231.662 49.2738 233.903C49.2571 233.967 49.2205 234.023 49.1705 234.067C49.0871 234.11 48.9905 234.124 48.9005 234.097C47.4315 233.864 45.2888 233.657 43.0023 233.436C39.1351 233.064 34.8566 232.651 32.7305 232.002ZM118.334 239.586C118.154 236.983 118.327 234.371 118.854 231.815L143.43 232.159L143.67 238.316C143.694 239.068 143.644 239.956 143.004 240.32C142.69 240.464 142.347 240.528 142.004 240.501L119.337 240.564C119.094 240.591 118.847 240.534 118.637 240.407C118.534 240.297 118.454 240.167 118.4 240.026C118.347 239.886 118.327 239.736 118.334 239.586ZM76.1838 105.207L77.5672 100.256C77.9338 100.563 78.4071 99.2605 77.7871 98.2416L67.5371 106.526C67.2905 109.052 67.5805 111.601 68.3938 114.006C69.2071 116.411 70.5205 118.613 72.2471 120.47C75.3671 117.246 77.8571 113.461 79.5805 109.316C78.0471 108.992 76.1971 108.35 75.9705 106.794C75.9338 106.256 76.0038 105.715 76.1838 105.207Z" fill="white"/>
<path fill-rule="evenodd" clip-rule="evenodd" d="M84.1933 125.337C83.86 125.337 83.5266 125.254 83.23 125.09C82.73 124.816 82.3733 124.338 82.2466 123.784L81.2742 119.554C80.5981 130.978 79.8326 142.45 79.0867 153.612L79.0541 154.1L79.0541 154.1L79.0541 154.101L79.0541 154.101L79.054 154.101C78.0714 168.84 77.0567 184.06 76.2636 199.017C89.5357 201.064 101.254 201.422 112.011 200.113C110.608 180.296 110.302 160.376 111.103 140.587C111.147 139.481 112.08 138.619 113.183 138.666C114.287 138.71 115.147 139.645 115.1 140.751C113.903 170.325 115.197 200.193 118.947 229.557L144.183 229.971C144.174 228.943 144.165 227.919 144.156 226.899C144.147 225.787 144.137 224.68 144.127 223.577L144.126 223.552C143.92 198.394 143.725 174.626 137.843 149.226C137.593 148.147 138.263 147.071 139.34 146.821C140.413 146.57 141.49 147.242 141.74 148.321C147.718 174.152 147.917 198.135 148.126 223.521V223.522L148.127 223.544L148.129 223.794L148.129 223.8C148.151 226.502 148.174 229.227 148.203 231.986C148.21 232.527 147.997 233.048 147.613 233.429C147.243 233.803 146.733 234.013 146.207 234.013H146.173L145.502 234.002L145.667 238.236C145.684 238.757 145.723 240.038 145.041 241.079C145.293 241.354 145.472 241.704 145.54 242.101L145.598 242.443L145.599 242.445C145.666 242.841 145.734 243.239 145.803 243.634L145.806 243.651C146.619 248.34 147.459 253.188 146.45 258.082C145.157 264.343 140.847 268.619 135.467 268.973C135.21 268.996 134.953 269.003 134.703 269.003C129.86 269.003 125.947 265.829 123.897 260.187C123.713 259.679 123.557 259.111 123.393 258.513L123.388 258.496C123.152 257.634 122.613 255.665 122.12 255.373C121.767 255.163 121.413 254.959 121.057 254.755C119.253 253.723 117.21 252.55 115.73 250.6C114.127 248.495 114.247 246.598 114.627 245.378C115.068 243.968 116.069 242.797 117.278 241.881C117.248 241.853 117.218 241.824 117.19 241.794C116.897 241.483 116.67 241.126 116.523 240.725C116.393 240.377 116.33 240.01 116.33 239.636C116.192 237.564 116.265 235.485 116.548 233.431C115.841 233.192 115.306 232.567 115.203 231.792C114 222.608 113.035 213.374 112.31 204.114C107.999 204.635 103.538 204.893 98.9 204.893C91.1833 204.893 82.97 204.175 74.1 202.732C68.7217 203.351 63.3552 203.122 58.3332 202.073C57.4217 210.482 56.0639 218.912 54.2833 227.169C54.1164 227.954 53.5001 228.542 52.7467 228.702C52.4513 230.724 51.9164 232.702 51.15 234.601C51.0262 234.946 50.8258 235.259 50.5611 235.513L48.4567 249.982C48.15 252.096 47.7667 254.725 46.3833 256.927C44.98 259.155 42.4233 260.518 39.3667 260.671C39.0133 260.685 38.64 260.695 38.2533 260.695C35.98 260.695 33.2 260.351 31.3367 258.56C30.0867 257.358 29.45 255.724 29.45 253.706C29.45 253.666 29.45 253.623 29.4533 253.583C29.4849 253.058 29.5254 252.52 29.5664 251.977L29.5733 251.886C29.92 247.192 30.2767 242.338 27.0367 239.088C26.78 238.831 26.6 238.51 26.51 238.156C25.7227 235 27.4576 231.976 30.8527 230.473C31.0043 228.841 31.2337 227.117 31.7778 225.442C31.3694 225.035 31.1394 224.456 31.1967 223.838C32.5967 208.348 34.4167 192.69 36.61 177.3C38.4633 164.255 40.7333 150.358 44.7567 137.113C49.54 121.425 56.0833 111.754 65.3533 106.673C65.4091 106.643 65.4656 106.615 65.5228 106.59C65.5302 106.503 65.5381 106.416 65.5467 106.329C65.6 105.795 65.8633 105.3 66.2833 104.963L76.5333 96.6783C76.9833 96.3175 77.5633 96.1638 78.13 96.2641C78.6967 96.3643 79.1933 96.7017 79.4933 97.1961C80.37 98.6359 80.25 100.61 79.26 101.626L78.11 105.745C78.1033 105.766 78.0967 105.787 78.09 105.808C78.0833 105.829 78.0767 105.85 78.07 105.872C77.9967 106.082 77.96 106.299 77.96 106.52C78.0233 106.61 78.41 107.017 79.9933 107.351C80.1512 107.385 80.3027 107.437 80.4452 107.506C86.7074 104.924 91.5603 102.475 96.2566 100.102L96.41 100.025C100.063 98.1781 104.207 96.0836 108.79 95.7328C109.377 95.6861 109.953 95.9032 110.367 96.3241C110.78 96.745 110.987 97.3263 110.933 97.9109C110.83 99.0513 110.662 100.176 110.451 101.285C110.644 101.278 110.841 101.3 111.037 101.352C118.007 103.223 123.053 108.808 126.24 112.843C130.4 118.118 133.647 124.008 135.883 130.345C136.275 131.45 136.744 132.602 137.241 133.82L137.287 133.933C138.283 136.375 139.31 138.9 139.863 141.372C140.103 142.451 139.427 143.523 138.35 143.767C138.203 143.801 138.057 143.817 137.91 143.817C136.993 143.817 136.17 143.183 135.96 142.251C135.48 140.106 134.517 137.741 133.583 135.453C133.073 134.207 132.55 132.917 132.113 131.688C130.023 125.762 126.99 120.26 123.103 115.332C120.27 111.741 115.827 106.79 110 105.224C109.852 105.184 109.712 105.128 109.582 105.059C109.295 106.154 108.988 107.236 108.685 108.307L108.685 108.307L108.68 108.324L108.653 108.42C108.037 110.592 107.267 113.291 105.46 115.402C103.98 117.133 101.997 118.245 100.073 119.184C95.1466 121.596 89.9366 123.433 84.8966 125.207L84.8566 125.22C84.64 125.3 84.4166 125.337 84.1933 125.337ZM35.6923 226.362C35.2332 227.629 35.016 229.03 34.8733 230.446C37.0633 230.85 40.28 231.161 43.19 231.441C44.89 231.605 46.52 231.762 47.8733 231.932C48.2805 230.73 48.5805 229.496 48.7709 228.242C48.607 228.213 48.4435 228.185 48.2806 228.156L48.2803 228.156L48.2133 228.144L48.0698 228.119L48.0693 228.119C47.2093 227.968 46.3978 227.825 45.7 227.736L40.7533 227.032C39.3293 226.858 38.306 226.719 37.365 226.59L36.8767 226.524L36.6462 226.492C36.3317 226.449 36.0184 226.406 35.6923 226.362ZM32.6579 234.063C32.004 234.334 30.266 235.2 30.3267 236.739C34.3685 241.241 33.9236 247.285 33.5637 252.174L33.5633 252.18L33.5601 252.223C33.5212 252.743 33.4825 253.259 33.4533 253.763C33.4666 255.049 33.9476 255.511 34.1088 255.666L34.11 255.667C34.9067 256.436 36.6167 256.77 39.1867 256.666C40.9067 256.579 42.3033 255.894 43 254.785C43.9293 253.312 44.2175 251.338 44.4964 249.428L44.5 249.404L46.4785 235.801C45.4044 235.681 44.1821 235.563 42.9162 235.44L42.8067 235.43C38.9891 235.063 35.0532 234.682 32.6579 234.063ZM53.84 200.885C54.0321 200.947 54.2249 201.008 54.4184 201.067C53.5872 208.913 52.3574 216.787 50.7567 224.516C50.1467 224.419 49.5233 224.309 48.9067 224.199C47.9467 224.028 47.04 223.868 46.2367 223.765L41.2967 223.06L41.2966 223.06C41.2833 223.056 41.27 223.053 41.2567 223.053C39.7335 222.865 38.6743 222.72 37.6778 222.583L37.6766 222.583L37.4233 222.549C36.78 222.458 36.1267 222.368 35.3533 222.268C36.7233 207.476 38.4767 192.55 40.5667 177.865C42.3967 164.98 44.6367 151.267 48.58 138.282C52.7424 124.629 58.1987 115.941 65.6576 111.149C65.8306 112.331 66.1115 113.499 66.5 114.647C67.41 117.34 68.85 119.758 70.7833 121.836C71.1567 122.237 71.68 122.468 72.2267 122.474H72.2467C72.7867 122.474 73.3067 122.254 73.6833 121.863C75.0408 120.462 76.2794 118.968 77.3945 117.39C76.7011 129.267 75.9044 141.224 75.1294 152.853L75.1293 152.854L75.0967 153.345L75.0635 153.843L75.0634 153.843V153.843C74.0792 168.619 73.0629 183.877 72.2661 198.886C66.2775 199.401 60.3612 198.778 55.0667 197.07C54.5567 196.906 54.34 196.779 54.2533 196.719C54.2211 196.522 54.2605 196.082 54.2782 195.884L54.28 195.864C55.6929 180.665 57.1119 165.47 58.5311 150.272L58.7233 148.214C59.1433 143.734 59.0933 138.225 54.99 135.379C54.08 134.748 52.8333 134.975 52.2066 135.887C51.5766 136.799 51.8033 138.048 52.7133 138.676C55.1133 140.336 55.0567 144.445 54.74 147.839C53.2567 163.721 51.7733 179.605 50.2966 195.49L50.2965 195.492C50.2231 196.287 50.1006 197.615 50.8333 198.824C51.57 200.036 52.9 200.581 53.84 200.885ZM83.33 110.642L85.64 120.697C89.9133 119.18 94.2566 117.574 98.3133 115.586C99.7466 114.884 101.36 114.033 102.42 112.797C103.657 111.35 104.24 109.306 104.803 107.328L104.83 107.231L104.836 107.208C105.521 104.791 106.178 102.47 106.597 100.132C103.707 100.827 100.92 102.234 98.2066 103.607L98.0533 103.683L98.0214 103.7L98.0214 103.7C93.6113 105.926 89.0628 108.222 83.33 110.642ZM141.567 242.506L123.459 242.557C123.26 243.13 122.805 243.606 122.183 243.805C120.33 244.406 118.757 245.572 118.44 246.577C118.38 246.768 118.223 247.272 118.907 248.171C119.897 249.474 121.42 250.349 123.037 251.274L123.17 251.351L123.308 251.431L123.31 251.431L123.31 251.432L123.311 251.432C123.596 251.596 123.88 251.759 124.16 251.926C126.042 253.044 126.709 255.486 127.245 257.449L127.247 257.454L127.279 257.571C127.41 258.045 127.533 258.49 127.65 258.814C128.73 261.784 130.91 265.255 135.197 264.977C138.013 264.79 141.413 262.669 142.53 257.274C143.386 253.125 142.611 248.655 141.862 244.332L141.86 244.323C141.77 243.801 141.68 243.284 141.593 242.769C141.579 242.681 141.57 242.593 141.567 242.506ZM141.496 233.936L120.565 233.592C120.315 235.236 120.22 236.901 120.28 238.563L141.673 238.503V238.502C141.673 238.484 141.673 238.465 141.673 238.445C141.672 238.425 141.672 238.404 141.67 238.383L141.496 233.936ZM70.2867 113.365C69.65 111.477 69.3733 109.52 69.4667 107.542L74.6133 103.38L74.27 104.609C74.0133 105.36 73.9133 106.142 73.97 106.937C73.973 106.982 73.9786 107.024 73.9846 107.069L73.9867 107.084C74.21 108.601 75.1633 109.757 76.83 110.532C75.6133 113 74.1067 115.299 72.3267 117.4C71.46 116.167 70.7767 114.814 70.2867 113.365Z" fill="black"/>
</g>
<path fill-rule="evenodd" clip-rule="evenodd" d="M93.1494 35.4035C96.4361 32.1598 98.5361 27.9306 100.573 23.7849C105.533 13.6896 92.6661 8.67541 85.0227 8.34469C68.8727 7.63982 52.7294 17.3209 45.7294 31.9226C45.4037 32.6018 45.0823 33.303 44.7574 34.012C42.5779 38.7673 40.2364 43.8761 35.3427 45.0912C34.6434 45.2655 33.9157 45.3458 33.1905 45.4258C32.0109 45.556 30.8382 45.6854 29.8061 46.217C28.1394 47.0756 27.2094 49.7881 28.8061 50.7903C29.3394 51.0676 29.9327 51.2146 30.5327 51.2179L38.3027 51.866C37.5361 54.6153 37.6027 58.7175 40.4327 59.0282C41.6294 59.1585 42.7327 58.4202 43.6661 57.6586C44.5002 56.9751 45.5389 56.3264 46.6063 55.6599C48.5545 54.4433 50.5979 53.1672 51.6661 51.5119C52.6364 50.0072 53.0771 48.2787 53.5138 46.5662C54.0447 44.4842 54.5696 42.4258 56.0327 40.822C60.3327 36.1451 67.556 34.4247 73.4927 36.7063C74.4508 37.0671 75.3741 37.522 76.2966 37.9765C77.6979 38.6669 79.0971 39.3563 80.6127 39.7129C85.1027 40.7685 89.8627 38.6472 93.1494 35.4035ZM127.389 33.8234C123.529 26.1634 111.073 20.8519 102.499 20.9454C102.499 20.9454 96.2127 32.691 94.3327 34.9759C91.7693 38.1061 83.666 41.3231 83.666 41.3231C85.2445 42.0532 87.0883 42.3843 89.0484 42.7364C92.4691 43.3508 96.2438 44.0288 99.5793 47.0021C102.243 50.0387 103.439 54.2177 103.199 58.2532C103.165 58.8336 103.102 59.4164 103.04 59.9992C102.873 61.5567 102.706 63.1141 103.073 64.6237C103.576 66.6982 105.589 68.6391 107.643 68.0745L123.723 77.5952C124.129 79.6397 126.843 80.0305 128.509 78.9315C130.176 77.8324 130.959 75.8013 131.386 73.8471C131.419 73.6973 131.451 73.5459 131.482 73.3939C131.735 72.1859 131.998 70.9338 132.886 70.0822C133.861 69.1231 135.243 68.9745 136.645 68.8237C137.791 68.7004 138.951 68.5756 139.913 68.0044C142.363 66.5512 142.386 62.8432 140.983 60.3611C140.12 58.8347 138.886 57.5825 137.649 56.3271C136.875 55.541 136.099 54.7537 135.413 53.8971C132.746 50.5679 131.57 46.4402 130.386 42.2881C129.56 39.3908 128.731 36.4815 127.389 33.8234Z" fill="black"/>
<path d="M80.6127 39.7066C78.0994 39.1153 75.906 37.6087 73.4927 36.7001C67.556 34.4251 60.3327 36.1455 56.0327 40.8223L53.3327 52.8485C51.3327 55.855 50.9994 59.5297 49.9994 63.2043C49.9994 64.26 45.946 78.5176 55.3327 87.9247C58.666 91.2653 62.9994 92.6016 67.4994 93.6038C71.536 94.2284 75.946 94.8565 79.8327 93.2697C79.6094 96.7473 79.576 99.2293 79.736 102.71L103.236 100.285C102.853 95.715 103.693 91.6027 105.676 87.4671C106.123 86.5317 107.093 86.5417 108.049 86.2377C108.896 85.9705 109.736 85.6632 110.556 85.3157C112.226 84.6209 113.803 83.7223 115.256 82.6433C118.129 80.4685 120.366 77.4152 121.209 73.8742C121.973 70.6639 121.436 66.8422 117.859 65.035C115.353 63.7656 113.103 64.2165 109.279 67.5839L107.633 68.0916C105.579 68.6562 103.566 66.7153 103.063 64.6408C102.559 62.5663 103.063 60.4016 103.189 58.2703C103.429 54.2348 102.233 50.0558 99.5694 47.0192C96.906 43.9825 92.726 42.2287 88.7394 42.8467" fill="#FFD39F"/>
<path fill-rule="evenodd" clip-rule="evenodd" d="M40.7195 61.0513C40.5561 61.0513 40.3861 61.0413 40.2161 61.0246C38.8561 60.8743 37.7361 60.1962 36.9695 59.0637C35.9728 57.5872 35.7595 55.5661 35.9395 53.6853L30.4361 53.2277C29.5495 53.211 28.6661 52.9838 27.8795 52.5729C27.8328 52.5495 27.7861 52.5228 27.7428 52.4927C26.5628 51.7511 25.9195 50.4817 25.9828 49.0052C26.0595 47.1578 27.2561 45.2804 28.8895 44.4386C30.2344 43.7448 31.6642 43.5836 32.9272 43.4412L32.9695 43.4364C33.6495 43.3629 34.2895 43.2894 34.8595 43.1491C38.8169 42.1676 40.9101 37.6029 42.9355 33.186L42.9395 33.1774L43.0419 32.9544C43.3372 32.3114 43.6303 31.673 43.9261 31.0561C51.2561 15.7662 68.1961 5.60414 85.1095 6.34242C90.1961 6.5629 98.9828 8.95142 102.343 14.6338C103.579 16.7216 104.586 20.1591 102.369 24.6723C100.383 28.7211 98.1261 33.3077 94.5561 36.832C90.4095 40.9243 84.8928 42.7783 80.1595 41.6659C78.4502 41.2647 76.9443 40.5271 75.4862 39.8128L75.4861 39.8127L75.4161 39.7784L75.384 39.7626L75.3839 39.7626C74.4925 39.3241 73.6492 38.9093 72.7928 38.5858C67.6595 36.6116 61.2361 38.1282 57.5061 42.1837C56.4408 43.3514 56.0737 45.1657 55.6842 47.0906L55.6828 47.0977L55.6776 47.1231C55.3561 48.7102 55.0259 50.3398 54.2875 51.8748C54.8771 52.4172 55.1066 53.2868 54.7994 54.0795C52.5261 59.9389 51.4261 64.6725 51.1528 67.1479C50.2495 75.4159 52.4028 82.655 57.0661 87.0044C59.5594 89.3295 62.7495 90.7693 67.1061 91.5376C71.5595 92.316 75.5328 92.8404 79.0494 91.4007C79.6861 91.1401 80.4128 91.2269 80.9728 91.6278C81.5328 92.0287 81.8461 92.6935 81.8028 93.3816C81.5895 96.7423 81.5528 97.4839 81.7128 100.931C81.7628 102.037 80.9095 102.976 79.8061 103.026C79.7728 103.039 79.7428 103.039 79.7095 103.039C78.6461 103.039 77.7628 102.201 77.7128 101.125C77.6061 98.7734 77.5828 97.5908 77.6495 95.9773C73.6428 96.7523 69.5628 96.0407 66.4161 95.4895C61.3328 94.5909 57.3828 92.777 54.3395 89.9408C48.7461 84.7195 46.1361 76.2544 47.1761 66.7103C47.4728 64.0194 48.3846 60.3292 49.7063 56.3926C49.1359 56.7267 48.5511 57.0439 47.9713 57.3584L47.9561 57.3667L47.9412 57.3748L47.9411 57.3748C46.7866 57.9998 45.6928 58.592 44.9361 59.214C43.8628 60.0859 42.4428 61.0513 40.7195 61.0513ZM29.9828 49.1221C30.1628 49.1822 30.3528 49.2156 30.5428 49.2156C30.5931 49.2156 30.6404 49.2186 30.6903 49.2217H30.6904H30.6905H30.6906L30.6995 49.2223L38.4695 49.8704C39.0628 49.9205 39.6061 50.2312 39.9461 50.7222C40.2861 51.2133 40.3895 51.8313 40.2295 52.4059C39.7495 54.123 39.7761 56.0605 40.2861 56.8155C40.3895 56.9691 40.4695 57.0159 40.6528 57.036C41.1882 57.0948 42.0689 56.3783 42.3868 56.1196L42.4061 56.1039C43.4595 55.2421 44.7761 54.5272 46.0528 53.8357L46.07 53.8263C47.8013 52.8872 49.5886 51.9177 50.3228 50.7757C51.0995 49.5697 51.4228 47.9796 51.7628 46.2959C52.2195 44.031 52.7395 41.4621 54.5595 39.4678C59.4361 34.1629 67.5161 32.2588 74.2128 34.8344C75.2469 35.2243 76.228 35.7072 77.1759 36.1739L77.1759 36.1739L77.1828 36.1773L77.1948 36.1832C78.527 36.8391 79.7833 37.4576 81.0728 37.7607C85.1461 38.7161 89.2595 36.4312 91.7495 33.9758C94.8349 30.9304 96.8369 26.8591 98.7742 22.9192L98.7828 22.9018C99.9428 20.5399 99.9828 18.5022 98.9061 16.6782C96.7295 13.0002 90.0995 10.5716 84.9428 10.3478C69.5695 9.67633 54.1961 18.9064 47.5395 32.7899C47.2256 33.4452 46.9149 34.123 46.6012 34.8076L46.6012 34.8076L46.6011 34.8077L46.6011 34.8079L46.5828 34.8477C44.2761 39.882 41.6595 45.5877 35.8328 47.0342C35.0264 47.2362 34.2391 47.3238 33.477 47.4086H33.477L33.4195 47.415L33.4115 47.4159L33.4115 47.4159C32.3944 47.5292 31.431 47.6365 30.7295 47.9963C30.3061 48.2168 30.0161 48.8047 29.9828 49.1221ZM104.269 69.4396C105.109 69.9373 106.019 70.1912 106.923 70.1912C107.343 70.1912 107.759 70.1344 108.163 70.0275C108.49 69.9383 108.777 69.7729 109.008 69.5556C109.555 69.6233 110.126 69.4657 110.573 69.0721C114.236 65.8451 115.573 66.1157 116.936 66.8072C120.06 68.3873 119.58 71.935 119.226 73.3948C118.54 76.2911 116.686 79.0037 114.026 81.0181C112.706 82.0002 111.27 82.8187 109.74 83.4534C108.983 83.7741 108.2 84.0614 107.406 84.3119C107.285 84.3514 107.15 84.3847 107.006 84.42L107.004 84.4204C106.967 84.4297 106.928 84.4392 106.89 84.4489C106.03 84.656 104.593 85.0034 103.833 86.5835C101.76 90.9096 100.783 93.2146 101.206 98.2455C101.293 99.2911 102.17 100.083 103.196 100.083C103.253 100.083 103.31 100.08 103.37 100.066C104.47 99.976 105.286 99.0038 105.193 97.9014C104.86 93.9729 105.453 92.4663 107.37 88.4576C107.464 88.4268 107.598 88.3941 107.722 88.3639L107.723 88.3637C107.76 88.3546 107.796 88.3458 107.83 88.3373C108.063 88.2805 108.33 88.2137 108.606 88.1269C109.516 87.8429 110.42 87.5089 111.283 87.1447C113.103 86.3898 114.83 85.4076 116.423 84.2217C118.711 82.4904 120.534 80.3387 121.758 77.9649L121.763 77.9915C122.043 79.4146 122.996 80.5604 124.369 81.135C125.019 81.4056 125.733 81.5392 126.449 81.5392C127.556 81.5392 128.679 81.2219 129.603 80.6039C131.449 79.3845 132.669 77.3134 133.333 74.2734L133.433 73.8024L133.436 73.7863C133.635 72.8402 133.822 71.9492 134.279 71.5108C134.756 71.0401 135.725 70.9363 136.847 70.8162L136.849 70.8159C138.133 70.679 139.589 70.5219 140.923 69.7302C142.616 68.728 143.663 66.9642 143.876 64.7628C144.049 62.9522 143.629 60.9879 142.716 59.3744C141.724 57.6185 140.375 56.2496 139.069 54.9243L139.066 54.9214C138.306 54.1497 137.589 53.4214 136.966 52.6464C134.553 49.6332 133.459 45.8015 132.303 41.7427L132.295 41.7158C131.458 38.7778 130.592 35.7411 129.169 32.9235C124.936 24.5219 116.416 19.1302 107.413 19.1302H107.166C106.063 19.1402 105.176 20.0489 105.189 21.1546C105.203 22.2537 106.096 23.1356 107.189 23.1356H107.213H107.416C114.923 23.1356 122.046 27.6654 125.603 34.7275C126.859 37.2162 127.639 39.9455 128.463 42.8384C129.676 47.101 130.933 51.5073 133.853 55.1519C134.601 56.0852 135.426 56.922 136.221 57.7288L136.226 57.7341L136.242 57.7499C137.409 58.9367 138.513 60.0582 139.243 61.3487C140.166 62.9856 140.216 65.4944 138.893 66.2794C138.308 66.629 137.402 66.7264 136.442 66.8296L136.433 66.8306L136.429 66.831C134.883 66.9979 132.958 67.2058 131.506 68.6345C130.17 69.9172 129.813 71.6174 129.526 72.9836L129.526 72.984C129.496 73.131 129.466 73.2779 129.433 73.4216C129.003 75.3892 128.339 76.6453 127.409 77.2599C126.993 77.5339 126.336 77.6107 125.913 77.4336C125.716 77.3501 125.699 77.2733 125.686 77.2065C125.469 76.1208 124.416 75.4159 123.333 75.6331C123.081 75.6834 122.851 75.779 122.647 75.9095C122.831 75.3887 122.986 74.8605 123.113 74.3269C124.293 69.4429 122.616 65.1903 118.736 63.2261C116.236 61.96 113.193 61.4255 107.933 66.0589C107.916 66.0735 107.9 66.0883 107.884 66.1033C107.634 66.0724 107.374 66.0888 107.116 66.1591L107.114 66.1596C107.023 66.1834 106.75 66.2543 106.306 65.9921C105.709 65.638 105.189 64.9064 105.013 64.1715C104.729 62.9956 104.873 61.6527 105.026 60.2262L105.031 60.1785C105.093 59.5986 105.157 58.9969 105.193 58.3889C105.476 53.6252 103.976 48.9985 101.079 45.6946C97.5095 41.6225 93.4961 41.6058 89.6928 42.1937C88.5995 42.3607 87.8528 43.3863 88.0195 44.4787C88.1861 45.5744 89.2095 46.3227 90.2995 46.1556C94.1061 45.5677 96.1428 46.1389 98.0728 48.3404C100.283 50.8559 101.419 54.4303 101.199 58.1484C101.173 58.6256 101.122 59.1081 101.069 59.615L101.069 59.6151L101.069 59.6154L101.049 59.7986L101.046 59.83C100.867 61.524 100.682 63.2742 101.126 65.1102C101.563 66.9108 102.736 68.5309 104.269 69.4396ZM62.8095 62.5713C64.0982 62.5713 65.1429 61.3 65.1429 59.7318C65.1429 58.1636 64.0982 56.8923 62.8095 56.8923C61.5209 56.8923 60.4762 58.1636 60.4762 59.7318C60.4762 61.3 61.5209 62.5713 62.8095 62.5713ZM74.1429 63.3564C75.4316 63.3564 76.4762 62.0851 76.4762 60.5169C76.4762 58.9486 75.4316 57.6774 74.1429 57.6774C72.8542 57.6774 71.8096 58.9486 71.8096 60.5169C71.8096 62.0851 72.8542 63.3564 74.1429 63.3564Z" fill="black"/>
</g>
<defs>
<clipPath id="clip0_805_38549">
<rect width="180" height="180" rx="24" fill="white"/>
</clipPath>
<clipPath id="clip1_805_38549">
<rect width="200" height="200.436" fill="white" transform="translate(-10 95.2734)"/>
</clipPath>
</defs>
</svg>
