<svg width="180" height="180" viewBox="0 0 180 180" fill="none" xmlns="http://www.w3.org/2000/svg">
<g clip-path="url(#clip0_805_38187)">
<rect width="180" height="180" rx="24" fill="white"/>
<g clip-path="url(#clip1_805_38187)">
<path d="M103.124 95.2734C103.424 98.6474 104.8 106.271 109.924 105.128L110.474 105.963C110.224 111.198 107.577 114.889 103.43 118.714C99.2171 122.539 93.8437 124.838 88.1737 125.242C83.1737 125.609 77.8571 124.41 74.1171 121.049C70.3771 117.689 68.4104 113.032 70.8871 109.04H71.2471C72.3737 109.073 73.4104 108.482 74.3637 107.881C75.5771 107.113 78.0804 103.962 78.8304 103.057C79.8304 101.758 80.2371 96.8302 80.7504 95.2734H103.124V95.2734Z" fill="#FFD39F"/>
<path d="M110.754 103.328C116.65 104.912 121.224 109.465 124.907 114.125C128.924 119.219 132.077 124.942 134.24 131.062C135.45 134.476 137.364 138.324 138.154 141.859L139.207 145.069C144.874 169.562 145.92 194.817 146.3 220.005L146.634 220.814C148.667 228.347 156.334 247.388 158 255.405C158.054 256.09 157.94 256.778 157.667 257.41C154.334 261.418 148.667 260.416 144.284 261.776L128.794 264.869C106.624 268.855 98.7071 271.831 76.5004 268.08L75.5004 267.829C74.0404 255.522 72.9637 242.735 72.3404 229.85L72.1871 230.518C70.0837 242.838 68.1137 254.236 67.7004 266.727L67.6371 267.258C62.8604 266.343 48.4204 263.754 43.6371 262.838C42.3437 262.588 40.9237 262.26 40.1671 261.168C39.5404 260.273 39.5437 259.093 39.5904 258.001C39.7804 253.658 40.2804 249.346 40.7804 245.033L43.0671 225.293H42.8937C39.5071 224.882 36.7871 224.471 33.4004 224.061C34.8037 208.54 36.6037 193.063 38.8004 177.626C40.7137 164.18 42.9337 150.731 46.8804 137.74C50.3871 126.194 59.6171 110.915 70.1804 105.125L76.7571 106.178C81.0904 110.494 88.3804 111.409 93.6271 108.292L110.754 103.328Z" fill="black"/>
<path fill-rule="evenodd" clip-rule="evenodd" d="M75.6928 158.258L75.9528 108.781C75.9528 106.846 76.3328 100.065 76.9228 99.1263C72.5895 101.973 69.9461 106.689 67.4528 111.226C66.0228 113.828 64.5461 116.618 64.7428 119.577C64.888 121.793 65.9392 123.776 66.9936 125.766C67.9486 127.567 68.9062 129.374 69.1961 131.363C69.5987 134.124 68.6756 136.782 67.745 139.462C67.0497 141.464 66.3501 143.479 66.1961 145.557C66.0128 148.163 67.0328 153.909 67.7161 156.441L72.6961 174.868L72.5261 191.667C78.3128 179.575 85.0728 167.973 92.7428 156.982C95.1295 153.555 97.7428 149.746 97.2295 145.597C97.1167 144.694 96.8599 143.788 96.6044 142.887C96.1044 141.124 95.6094 139.378 96.2095 137.7C96.5961 136.618 97.3995 135.746 98.1795 134.904L109.449 122.791C110.219 121.963 111.013 121.094 111.349 120.012C111.729 118.776 111.459 117.443 111.186 116.177L107.753 100.322C107.449 98.9225 106.866 97.2389 105.453 97.0117C102.063 99.2499 99.0528 102.587 96.4161 106.081C94.72 108.332 93.1577 110.657 91.7142 113.046L93.6262 108.293C88.3796 111.41 81.0896 110.494 76.7562 106.178V150.227L78.9952 144.662C77.7732 149.278 76.7152 153.958 75.7495 158.652L75.6928 158.258ZM32.9629 232.035C33.1629 229.543 33.3829 226.991 34.4496 224.733L42.6129 225.625L41.7096 233.372C38.7462 233.351 35.7996 232.9 32.9629 232.035ZM118.576 239.618C118.393 237.016 118.566 234.404 119.086 231.848L143.666 232.209L143.913 238.366C143.933 239.101 143.883 239.989 143.246 240.353C142.933 240.497 142.59 240.557 142.246 240.53L119.58 240.594C119.336 240.624 119.09 240.567 118.88 240.44C118.776 240.33 118.696 240.2 118.643 240.059C118.593 239.919 118.57 239.769 118.576 239.618Z" fill="white"/>
<path fill-rule="evenodd" clip-rule="evenodd" d="M76.179 270.055C83.5024 271.295 89.299 271.813 94.549 271.813C103.026 271.813 110.082 270.46 119.849 268.582L120.637 268.432C123.169 267.948 125.796 267.445 128.714 266.918C130.508 268.298 132.619 269.026 134.946 269.026C135.192 269.026 135.439 269.02 135.679 269C139.209 268.765 142.279 266.843 144.338 263.781C144.516 263.776 144.694 263.746 144.872 263.688C146.116 263.301 147.539 263.124 149.046 262.937C152.512 262.506 156.439 262.015 159.202 258.691C159.326 258.544 159.426 258.38 159.502 258.203C159.899 257.278 160.069 256.255 159.992 255.25C159.986 255.166 159.972 255.079 159.956 254.996C158.973 250.26 156.084 242.154 153.283 234.297L153.252 234.211L153.19 234.036C151.233 228.545 149.39 223.374 148.556 220.29C148.502 220.092 148.42 219.909 148.316 219.744C148.065 195.344 147.469 172.037 141.786 147.482C141.536 146.403 140.462 145.732 139.386 145.982C138.309 146.233 137.639 147.308 137.889 148.387C143.899 174.361 144.129 199.104 144.369 225.301L144.37 225.371L144.37 225.374C144.383 226.914 144.396 228.459 144.412 230.012L119.176 229.597C115.426 200.234 114.132 170.362 115.329 140.791C115.376 139.685 114.516 138.75 113.412 138.706C112.306 138.666 111.376 139.522 111.332 140.627C110.102 171.003 111.482 201.687 115.432 231.832C115.535 232.611 116.075 233.237 116.785 233.474C116.507 235.524 116.438 237.598 116.576 239.666C116.572 240.037 116.639 240.401 116.769 240.758C116.916 241.156 117.139 241.513 117.429 241.821C117.444 241.836 117.459 241.851 117.474 241.865C117.488 241.879 117.502 241.893 117.517 241.906C116.305 242.822 115.301 243.996 114.859 245.408C114.476 246.628 114.359 248.525 115.959 250.63C117.442 252.584 119.489 253.756 121.296 254.789L121.512 254.913L121.551 254.936C121.819 255.089 122.086 255.243 122.349 255.4C122.842 255.695 123.382 257.664 123.617 258.526L123.622 258.544C123.786 259.145 123.942 259.709 124.126 260.221C124.552 261.392 125.058 262.457 125.637 263.409C123.29 263.843 121.099 264.262 119.099 264.647L119.093 264.648C103.874 267.567 95.43 269.186 77.3357 266.184C75.9973 254.632 75.0257 242.845 74.4305 231.133L74.4857 230.813C74.5525 230.423 74.5019 230.039 74.3595 229.699C73.7619 217.307 73.5868 205.013 73.8457 193.188C74.0457 193.015 74.2157 192.797 74.339 192.54C80.059 180.581 86.8057 169.006 94.3924 158.135C96.8124 154.661 99.8257 150.335 99.2257 145.364C99.0957 144.295 98.8124 143.29 98.5357 142.318C98.099 140.778 97.7224 139.448 98.1024 138.382C98.3493 137.686 98.9996 136.983 99.629 136.303L99.6524 136.278L110.922 124.165L110.928 124.159C111.76 123.261 112.797 122.144 113.269 120.61C113.814 118.844 113.432 117.074 113.152 115.775L113.149 115.76L110.919 105.466C116.406 107.218 120.612 111.924 123.336 115.369C127.226 120.3 130.259 125.805 132.352 131.735C132.789 132.961 133.312 134.247 133.819 135.489L133.833 135.525C134.762 137.805 135.721 140.161 136.199 142.298C136.409 143.23 137.232 143.864 138.149 143.864C138.296 143.864 138.442 143.848 138.589 143.814C139.666 143.57 140.342 142.498 140.102 141.419C139.549 138.944 138.519 136.415 137.522 133.97C137.009 132.713 136.526 131.528 136.122 130.392C133.882 124.048 130.636 118.158 126.472 112.88C123.282 108.845 118.236 103.263 111.269 101.392C110.85 101.279 110.427 101.309 110.05 101.45L109.716 99.9088C109.092 96.9992 107.766 95.3623 105.776 95.0416C105.282 94.9614 104.776 95.0683 104.359 95.3456C101.222 97.4134 98.1057 100.534 94.8257 104.88C94.4737 105.347 94.1274 105.817 93.7867 106.29C93.3985 106.265 92.9989 106.353 92.6391 106.567C88.3819 109.098 82.3636 108.465 78.6483 105.178C79.0021 103.903 79.4016 102.738 79.6157 102.367C80.119 101.569 79.9957 100.53 79.3257 99.8687C78.6557 99.2072 77.6157 99.1037 76.829 99.6215C74.906 100.885 73.133 102.091 71.5276 103.407C71.304 103.442 71.0824 103.515 70.8723 103.63C59.2456 110.004 48.389 125.995 44.999 137.156C40.9856 150.368 38.7123 164.279 36.8523 177.344C34.6623 192.737 32.839 208.391 31.439 223.882C31.3822 224.494 31.6081 225.069 32.0106 225.476C31.4652 227.152 31.2365 228.873 31.0853 230.503C27.6901 232.006 25.9551 235.03 26.7424 238.186C26.8324 238.54 27.0124 238.861 27.2691 239.118C30.5091 242.368 30.1524 247.222 29.8057 251.916L29.7988 252.007L29.7988 252.008L29.7988 252.008L29.7988 252.008L29.7988 252.008L29.7988 252.008C29.7578 252.551 29.7173 253.088 29.6857 253.613C29.6657 253.94 29.7257 254.268 29.8624 254.568C30.6924 256.399 32.0157 257.956 33.6857 259.071C34.9394 259.913 36.3495 260.475 37.8254 260.73C37.9697 261.283 38.2006 261.829 38.5623 262.345C39.8038 264.116 41.8829 264.542 43.2861 264.829L43.2923 264.831C45.436 265.24 49.559 265.993 53.8031 266.768L53.8156 266.77L55.5057 267.079C56.4067 267.244 57.3139 267.41 58.208 267.573L58.2086 267.573L58.2124 267.574C61.918 268.251 65.3997 268.887 67.2923 269.25C67.4157 269.274 67.539 269.287 67.6657 269.287C68.0857 269.287 68.5023 269.153 68.849 268.896C69.299 268.569 69.589 268.068 69.6557 267.516L69.719 266.985C69.7257 266.929 69.729 266.872 69.7323 266.815C69.9427 260.456 70.6364 254.365 71.5497 248.263C72.0902 254.906 72.7495 261.525 73.5257 268.064C73.6224 268.889 74.219 269.571 75.0257 269.771L76.0257 270.022C76.0686 270.033 76.1139 270.042 76.1575 270.051L76.179 270.055ZM63.6928 114.351C56.8409 121.387 51.0534 130.981 48.8223 138.322C45.1056 150.552 42.9323 162.993 40.809 177.908C38.719 192.594 36.9656 207.523 35.599 222.311C36.4228 222.418 37.2162 222.524 37.9948 222.629L37.9983 222.629L38.0007 222.629L38.4456 222.689C39.3839 222.815 40.3432 222.943 41.3433 223.072L42.769 210.753L42.7721 210.726C45.5311 186.903 48.3844 162.265 53.979 138.476C54.2323 137.4 55.309 136.732 56.3857 136.986C57.459 137.24 58.1257 138.319 57.8723 139.398C52.3296 162.967 49.4896 187.491 46.7432 211.207L46.7423 211.214L42.799 245.288C42.3123 249.491 41.809 253.84 41.619 258.113C41.5957 258.644 41.5523 259.639 41.8357 260.04C42.1637 260.505 43.2955 260.739 44.0554 260.896L44.0557 260.896L44.069 260.899C46.4226 261.35 51.285 262.237 56.0224 263.1L56.0264 263.101L56.2223 263.137C59.6857 263.768 63.239 264.416 65.8057 264.894C66.2923 254.518 67.9723 244.891 69.7457 234.729C69.8388 234.191 69.9327 233.653 70.0269 233.113C70.1545 232.381 70.2827 231.646 70.4098 230.908C69.4436 211.61 69.493 192.522 70.6024 175.012C70.6066 174.959 70.6121 174.906 70.6199 174.853L65.7857 156.966C65.1023 154.437 63.989 148.418 64.2023 145.418C64.3757 143.069 65.129 140.901 65.859 138.803L65.8611 138.797C66.7303 136.294 67.5521 133.928 67.219 131.654C66.979 130.008 66.129 128.404 65.229 126.707L65.2211 126.692C64.0902 124.555 62.9219 122.348 62.749 119.708C62.6211 117.798 63.0502 116.002 63.6928 114.351ZM74.6956 174.824L74.8557 173.99L74.8559 173.989C78.9292 151.731 83.5459 126.503 98.0157 107.292C100.602 103.861 103.039 101.295 105.422 99.4912C105.539 99.7618 105.676 100.159 105.802 100.751L109.236 116.605L109.24 116.624C109.446 117.582 109.677 118.661 109.442 119.425C109.241 120.079 108.617 120.752 108.01 121.406L107.989 121.429L96.7157 133.545L96.6977 133.565C95.874 134.457 94.8519 135.564 94.329 137.03C93.5157 139.304 94.1357 141.489 94.6824 143.413C94.929 144.275 95.159 145.087 95.249 145.845C95.6657 149.296 93.2457 152.774 91.109 155.84C84.859 164.8 79.1657 174.23 74.1357 183.958C74.2567 181.124 74.4033 178.321 74.5756 175.557C74.6599 175.326 74.7021 175.077 74.6956 174.824ZM72.3082 165.772L69.6457 155.921C68.9523 153.348 68.0323 147.923 68.189 145.708C68.3222 143.893 68.9578 142.064 69.6304 140.128L69.6323 140.123L69.634 140.118C70.6235 137.267 71.6454 134.322 71.1723 131.077C70.8328 128.748 69.7786 126.759 68.7599 124.838L68.7557 124.83L68.7391 124.798C67.7686 122.963 66.8517 121.228 66.7357 119.448C66.5857 117.163 67.7123 114.908 69.2023 112.195C70.5157 109.807 72.1957 108.013 74.2523 106.353C74.069 107.275 73.9523 108.127 73.9523 108.771L73.6923 158.249C73.6917 158.36 73.7002 158.47 73.7171 158.577C73.2235 160.991 72.7574 163.392 72.3082 165.772ZM77.7804 141.502C80.6837 131.172 84.5362 121.019 90.1543 111.779C89.0277 112.022 87.8751 112.142 86.7224 112.142C83.6434 112.142 80.5552 111.29 77.9478 109.645L77.7804 141.502ZM35.1023 230.546C35.2451 229.113 35.4579 227.693 35.9233 226.403C36.5586 226.486 37.1794 226.569 37.792 226.651L37.8022 226.653L37.8065 226.653L37.8105 226.654L37.8142 226.654L37.9123 226.668L38.4833 226.744C39.2619 226.848 40.057 226.953 40.8818 227.06L40.3879 231.328C38.6057 231.234 36.8359 230.971 35.1023 230.546ZM32.8736 234.1C35.176 234.763 37.5389 235.172 39.9263 235.317L38.8257 244.827L38.8118 244.947C38.3732 248.746 37.9213 252.659 37.6946 256.584C37.0645 256.392 36.4631 256.108 35.9091 255.737C34.9924 255.123 34.2391 254.298 33.7157 253.329C33.7306 253.093 33.7481 252.858 33.7657 252.621C33.7758 252.484 33.786 252.348 33.7957 252.21L33.7961 252.205C34.1561 247.315 34.6009 241.271 30.5591 236.77C30.4989 235.244 32.2074 234.379 32.8736 234.1ZM123.69 242.584C123.491 243.158 123.035 243.636 122.412 243.835C120.559 244.433 118.986 245.599 118.672 246.604C118.612 246.795 118.456 247.302 119.139 248.201C120.12 249.495 121.63 250.363 123.23 251.282L123.276 251.308C123.649 251.522 124.022 251.735 124.389 251.953C126.276 253.078 126.942 255.524 127.476 257.485C127.616 258.002 127.752 258.493 127.879 258.848C128.956 261.807 131.149 265.285 135.422 265.001C138.236 264.814 141.636 262.693 142.752 257.294C143.608 253.157 142.837 248.702 142.092 244.391L142.089 244.376C141.996 243.848 141.907 243.324 141.817 242.799L141.817 242.798L141.816 242.789C141.801 242.703 141.793 242.618 141.789 242.533L123.69 242.584ZM145.276 241.119C145.521 241.392 145.694 241.736 145.759 242.125C145.833 242.567 145.909 243.01 145.985 243.455L145.985 243.456L145.986 243.46L146.026 243.691L146.029 243.708C146.838 248.387 147.674 253.225 146.662 258.106C146.581 258.497 146.489 258.881 146.385 259.257C147.111 259.141 147.839 259.05 148.556 258.961L148.559 258.961H148.56C151.561 258.587 154.166 258.262 155.922 256.366C155.989 256.142 156.019 255.905 156.012 255.671C155.049 251.154 152.096 242.873 149.486 235.56L149.446 235.448L149.446 235.448C149.088 234.445 148.734 233.452 148.389 232.479C148.308 232.851 148.12 233.196 147.846 233.469C147.472 233.843 146.962 234.054 146.436 234.054H146.402L145.739 234.043L145.909 238.283C145.924 238.809 145.958 240.085 145.276 241.119ZM141.734 233.977L120.804 233.632C120.558 235.271 120.466 236.93 120.526 238.587L141.919 238.527C141.919 238.493 141.919 238.457 141.916 238.42L141.734 233.977Z" fill="black"/>
</g>
<path d="M108.163 67.823C105.666 67.6393 104.246 64.6996 104.4 62.2008C104.553 59.702 105.733 57.3703 106.103 54.8916C106.953 49.3295 103.173 43.4266 97.7697 41.8866C96.293 41.4657 94.7097 41.3288 93.3664 40.5838C92.2464 39.9591 91.313 38.9135 90.0564 38.693C87.7397 38.2654 85.833 40.6974 83.4897 40.9579C80.3797 41.292 77.9764 37.7209 74.8464 37.7276C71.613 37.7276 69.3764 41.5091 66.1497 41.6628C63.9864 41.7664 62.053 40.1896 59.8897 40.0827C57.093 39.9491 54.7697 42.2975 53.503 44.7996C52.2364 47.3017 51.6097 50.1279 50.0497 52.4596C48.623 54.5909 45.643 56.2345 43.563 54.7379C42.1264 53.709 41.8497 51.6913 41.953 49.9275C42.163 46.3096 43.413 42.8287 45.5497 39.9057C46.2164 39.0171 46.9564 38.1418 47.1964 37.0662C47.5297 35.4827 46.7164 33.9093 46.3964 32.3192C45.693 28.8115 47.8597 24.9498 51.2164 23.7272C52.803 23.1526 54.5764 23.1091 56.063 22.3107C57.5497 21.5123 58.603 19.9991 59.6364 18.616C65.1064 11.2935 73.8697 5.30043 82.8497 6.92396C88.3597 7.92614 93.183 11.6442 100.036 12.937C104.806 9.38599 112.156 9.9305 116.33 14.1831C121.72 19.6483 121.51 29.336 127.663 33.9327C128.643 34.6676 129.783 35.2689 130.453 36.2911C131.876 38.4625 130.593 41.4123 131.203 43.9411C131.736 46.1359 133.596 47.6993 134.98 49.4832C136.363 51.267 137.25 53.9696 135.773 55.6766C135.13 56.4182 134.173 56.7957 133.416 57.4171C131.556 58.9404 131.186 61.6529 131.416 64.0481C131.646 66.4434 132.473 69.4866 132 71.2237C130.096 78.2824 125.693 76.4818 123.603 77.5709" fill="black"/>
<path d="M53.3327 52.85C51.3327 55.8565 50.9994 59.5312 49.9994 63.2059C49.9994 64.2615 45.946 78.5191 55.3327 87.9263C58.666 91.2669 62.9994 92.6031 67.4994 93.6053C71.536 94.23 75.946 94.858 79.8327 93.2712C79.6094 96.7488 79.576 99.2308 79.736 102.712L103.166 100.286C102.783 95.7165 103.693 91.6043 105.676 87.4686C106.123 86.5332 107.093 86.5433 108.049 86.2393C108.896 85.972 109.736 85.6647 110.556 85.3173C112.226 84.6224 113.803 83.7238 115.256 82.6448C118.129 80.4701 120.366 77.4168 121.209 73.8757C121.973 70.6654 121.436 66.8438 117.859 65.0365C115.353 63.7671 113.103 64.2181 109.279 67.5854L108.153 67.8259C105.656 67.6422 104.236 64.7024 104.389 62.2037C104.543 59.7049 105.723 57.3732 106.093 54.8945C106.943 49.3324 103.163 43.4295 97.7594 41.8895C96.2827 41.4686 94.6994 41.3316 93.356 40.5867C92.236 39.962 91.3027 38.9164 90.046 38.6959C87.7294 38.2683 85.8227 40.7003 83.4794 40.9608C80.3694 41.2949 77.966 37.7238 74.836 37.7305C71.6027 37.7305 69.366 41.512 66.1394 41.6657C63.976 41.7693 62.0427 40.1925 59.8794 40.0856C57.0827 39.952 54.7594 42.3004 53.4927 44.8025C52.226 47.3046 51.5994 50.1308 50.0394 52.4625" fill="#FFD39F"/>
<path fill-rule="evenodd" clip-rule="evenodd" d="M121.827 78.4945C122.184 79.1793 122.881 79.5735 123.604 79.5735C123.917 79.5735 124.231 79.5 124.527 79.333C124.745 79.219 125.308 79.1463 125.814 79.0809L125.854 79.0758L125.859 79.0751C128.223 78.771 132.175 78.2627 133.934 71.7365C134.372 70.1292 134.047 68.0843 133.731 66.1037L133.731 66.1036L133.727 66.0808C133.601 65.2824 133.481 64.5241 133.414 63.8427C133.311 62.7737 133.231 60.1513 134.691 58.9554C134.878 58.7986 135.128 58.6418 135.395 58.474L135.447 58.4409L135.456 58.4358C136.044 58.0663 136.707 57.6494 137.291 56.9777C139.494 54.4322 138.514 50.7542 136.564 48.2421C136.164 47.7276 135.744 47.2432 135.334 46.7756L135.327 46.7678C134.35 45.6482 133.43 44.5949 133.154 43.4583C132.974 42.71 133.031 41.7814 133.094 40.7959C133.207 39.0254 133.334 37.0143 132.131 35.1803C131.411 34.0816 130.421 33.4001 129.548 32.7989L129.547 32.7985L129.419 32.7094L129.419 32.7093C129.232 32.5794 129.046 32.4501 128.864 32.3141C126.042 30.2072 124.709 26.6553 123.296 22.8924L123.294 22.8869C121.951 19.3058 120.561 15.6044 117.761 12.7649C113.121 8.038 105.171 7.23292 99.6107 10.7907C96.5901 10.1172 93.9413 8.94465 91.3728 7.80764L91.3574 7.80082C88.6374 6.59486 86.0707 5.45906 83.2107 4.93793C72.9074 3.07722 63.4541 10.1559 58.0407 17.4017L57.8074 17.7157L57.8047 17.7193C56.9689 18.844 56.1063 20.0046 55.1241 20.5318C54.4976 20.8691 53.6845 21.0428 52.8247 21.2265L52.8247 21.2265L52.8241 21.2267C52.0874 21.3837 51.3241 21.5474 50.5374 21.8313C46.2841 23.3814 43.5507 28.2586 44.4407 32.705C44.5541 33.2762 44.7107 33.804 44.8641 34.3185L44.8667 34.3274C45.1389 35.2456 45.3737 36.0374 45.2507 36.6201C45.1346 37.1455 44.6816 37.7405 44.2007 38.372L44.1941 38.3806L43.9407 38.7147C41.5707 41.9551 40.1941 45.7901 39.9607 49.8021C39.7374 53.6171 41.1674 55.4745 42.4007 56.3597C43.5541 57.1882 44.9474 57.4855 46.4307 57.2182C47.685 56.9916 48.9499 56.3563 50.031 55.4464C48.535 59.7338 47.4977 63.8037 47.1774 66.7089C46.1374 76.253 48.7474 84.718 54.3407 89.9394C57.3841 92.7755 61.3341 94.5895 66.4174 95.4881C69.5641 96.0393 73.6441 96.7508 77.6507 95.9758C77.5841 97.5893 77.6074 98.7719 77.7141 101.124C77.7641 102.199 78.6474 103.038 79.7107 103.038H79.7108C79.7441 103.038 79.7741 103.038 79.8074 103.024C80.9107 102.974 81.7641 102.036 81.7141 100.93C81.5541 97.4824 81.5907 96.7408 81.8041 93.3802C81.8474 92.692 81.5341 92.0272 80.9741 91.6264C80.4141 91.2255 79.6874 91.1386 79.0507 91.3992C75.5341 92.839 71.5607 92.3145 67.1074 91.5362C62.7507 90.7678 59.5607 89.328 57.0674 87.003C52.4041 82.6535 50.2507 75.4145 51.1541 67.1465C51.4274 64.6711 52.5274 59.9375 54.8007 54.0781C55.2007 53.0458 54.6907 51.8833 53.6607 51.4824C53.4261 51.3911 53.1847 51.3471 52.9471 51.3458C53.3611 50.4514 53.7077 49.5455 54.0474 48.6563C54.4474 47.6074 54.8241 46.6219 55.2907 45.6999C56.1641 43.9728 57.8707 41.9851 59.7941 42.0787C60.4841 42.1121 61.2741 42.4161 62.1074 42.7401L62.1272 42.7477C63.3257 43.2103 64.686 43.7352 66.2474 43.6588C68.4065 43.5589 70.0823 42.3776 71.5619 41.3347L71.5774 41.3237C72.7907 40.4652 73.8374 39.7269 74.8541 39.7269H74.8574C75.7941 39.7269 76.8541 40.3783 77.9741 41.0698C79.5874 42.0653 81.4141 43.1911 83.7141 42.9439C85.1507 42.7869 86.3341 42.1188 87.3807 41.5275C88.3107 41.003 89.1141 40.552 89.7174 40.6623C90.0841 40.7257 90.5707 41.0798 91.0841 41.454L91.0905 41.4587C91.4756 41.7381 91.9101 42.0535 92.4041 42.3292C93.5774 42.9773 94.8207 43.2512 95.9207 43.4917C96.3807 43.592 96.8174 43.6888 97.2274 43.8058C101.671 45.0718 104.831 50.0059 104.131 54.5859C103.987 55.5379 103.697 56.5067 103.387 57.5323L103.382 57.5497C102.954 58.974 102.51 60.4485 102.411 62.0688C102.194 65.5798 104.281 69.5384 108.024 69.8123C108.428 69.8429 108.813 69.7503 109.142 69.5661C109.648 69.5948 110.164 69.4323 110.574 69.0707C114.237 65.8437 115.574 66.1142 116.937 66.8057C120.061 68.3858 119.581 71.9336 119.227 73.3934C118.541 76.2897 116.687 79.0023 114.027 81.0166C112.707 81.9988 111.271 82.8172 109.741 83.4519C108.984 83.7726 108.201 84.0599 107.407 84.3105C107.286 84.35 107.151 84.3833 107.008 84.4185C106.986 84.4238 106.965 84.4291 106.943 84.4345C106.926 84.4388 106.908 84.4431 106.891 84.4474C106.031 84.6545 104.594 85.002 103.834 86.5821C101.761 90.9081 100.784 93.2132 101.207 98.2441C101.294 99.2897 102.171 100.081 103.197 100.081C103.254 100.081 103.311 100.078 103.371 100.065C104.471 99.9745 105.287 99.0024 105.194 97.9C104.861 93.9715 105.454 92.4649 107.371 88.4561C107.465 88.4254 107.599 88.3926 107.723 88.3624L107.765 88.3523C107.787 88.3467 107.809 88.3412 107.831 88.3359C108.064 88.2791 108.331 88.2123 108.607 88.1254C109.517 87.8415 110.421 87.5074 111.284 87.1433C113.104 86.3883 114.831 85.4062 116.424 84.2203C118.663 82.5268 120.455 80.4311 121.678 78.1187C121.714 78.2463 121.764 78.3722 121.827 78.4945ZM106.404 62.316C106.313 63.8217 107.082 65.628 108.223 65.8061C113.306 61.444 116.284 61.9819 118.737 63.2246C122.617 65.1889 124.294 69.4415 123.114 74.3254C122.997 74.8178 122.856 75.3055 122.69 75.787C123.541 75.3468 124.457 75.227 125.344 75.1138L125.346 75.1135C127.392 74.8498 129.008 74.6414 130.071 70.6975C130.284 69.9137 130.002 68.151 129.775 66.7357L129.775 66.7356L129.775 66.7355L129.774 66.7289C129.641 65.9005 129.504 65.0453 129.427 64.2402C129.074 60.5689 130.041 57.5924 132.154 55.8653C132.551 55.5379 132.961 55.2807 133.324 55.0569L133.366 55.0302C133.737 54.7964 134.084 54.5777 134.267 54.362C134.914 53.6137 134.337 51.9167 133.404 50.7141C133.08 50.2969 132.717 49.8798 132.334 49.4399L132.334 49.4398L132.334 49.4397L132.324 49.428C131.127 48.0617 129.774 46.5116 129.264 44.4137C128.941 43.0708 129.024 41.7346 129.101 40.552C129.184 39.2392 129.254 38.1067 128.787 37.3918C128.497 36.9509 127.907 36.5433 127.281 36.1124C127.007 35.9253 126.734 35.7349 126.471 35.5378C122.711 32.7283 121.104 28.449 119.551 24.31C118.301 20.9761 117.117 17.8293 114.914 15.5911C111.461 12.0734 105.197 11.5957 101.237 14.5455C100.791 14.8795 100.224 15.0098 99.6741 14.9063C95.8574 14.1847 92.6074 12.7482 89.7441 11.4788C87.2474 10.3731 84.8907 9.33081 82.5007 8.89319C76.9274 7.88433 68.4107 10.2228 61.2441 19.8136L61.0174 20.1176C59.9707 21.5273 58.7841 23.1208 57.0141 24.0729C55.8907 24.6775 54.7074 24.9314 53.6607 25.1519L53.5957 25.1659C52.9863 25.2976 52.4093 25.4223 51.9007 25.6062C49.4741 26.4881 47.8541 29.3811 48.3607 31.9199C48.4407 32.3108 48.5641 32.735 48.6974 33.1827L48.6996 33.1902C49.0724 34.451 49.4934 35.875 49.1574 37.4753C48.8441 38.8817 48.0641 39.9073 47.3741 40.8126L47.1541 41.1032C45.2541 43.7022 44.1441 46.7956 43.9541 50.036C43.8641 51.566 44.1474 52.6817 44.7307 53.0993C44.9007 53.2229 45.1841 53.3699 45.7207 53.273C46.6441 53.106 47.7441 52.3109 48.3941 51.3355C49.1941 50.1411 49.733 48.7313 50.3037 47.2381L50.3107 47.2198L50.3176 47.2019C50.7355 46.1118 51.1671 44.9856 51.7241 43.8859C53.2074 40.9562 56.1607 37.8896 59.9907 38.0733C61.3228 38.1399 62.5026 38.5946 63.54 38.9945L63.5401 38.9945L63.5507 38.9986L63.5759 39.0084C64.5218 39.375 65.3338 39.6898 66.0607 39.6534C67.0636 39.6067 68.1364 38.849 69.2758 38.0444L69.2774 38.0432L69.2775 38.0431C70.8241 36.9508 72.5741 35.7148 74.8541 35.7148H74.8674C76.9307 35.7148 78.6007 36.7437 80.0741 37.6524L80.0873 37.6605C81.3017 38.4087 82.3508 39.0551 83.2841 38.9552C83.9007 38.8851 84.6374 38.4708 85.4207 38.0299C86.7541 37.2782 88.4141 36.3429 90.4274 36.7137C91.6872 36.9335 92.6553 37.6384 93.4342 38.2055L93.4407 38.2103L93.5201 38.2677L93.5201 38.2677L93.5203 38.2679C93.814 38.4806 94.0905 38.6809 94.3474 38.8249C94.9992 39.1864 95.8513 39.3733 96.7571 39.5721L96.7774 39.5766L96.8217 39.5863C97.308 39.6935 97.8129 39.8048 98.3241 39.9507C104.714 41.7713 109.094 48.6062 108.087 55.1872C107.906 56.4052 107.562 57.5482 107.229 58.6549L107.217 58.6948C106.834 59.9609 106.474 61.1568 106.404 62.316ZM62.8107 62.5699C64.0994 62.5699 65.1441 61.2986 65.1441 59.7304C65.1441 58.1622 64.0994 56.8909 62.8107 56.8909C61.5221 56.8909 60.4774 58.1622 60.4774 59.7304C60.4774 61.2986 61.5221 62.5699 62.8107 62.5699ZM74.1441 63.3549C75.4327 63.3549 76.4774 62.0836 76.4774 60.5154C76.4774 58.9472 75.4327 57.6759 74.1441 57.6759C72.8554 57.6759 71.8107 58.9472 71.8107 60.5154C71.8107 62.0836 72.8554 63.3549 74.1441 63.3549Z" fill="black"/>
</g>
<defs>
<clipPath id="clip0_805_38187">
<rect width="180" height="180" rx="24" fill="white"/>
</clipPath>
<clipPath id="clip1_805_38187">
<rect width="200" height="200.436" fill="white" transform="translate(-10 95.2734)"/>
</clipPath>
</defs>
</svg>
