<svg width="180" height="180" viewBox="0 0 180 180" fill="none" xmlns="http://www.w3.org/2000/svg">
<g clip-path="url(#clip0_805_38874)">
<rect width="180" height="180" rx="24" fill="white"/>
<g clip-path="url(#clip1_805_38874)">
<path d="M103.124 95.2734C103.424 98.6474 104.8 106.271 109.924 105.128L110.474 105.963C110.224 111.198 107.577 114.889 103.43 118.714C99.2171 122.539 93.8437 124.838 88.1737 125.242C83.1737 125.609 77.8571 124.41 74.1171 121.049C70.3771 117.689 68.4104 113.032 70.8871 109.04H71.2471C72.3737 109.073 73.4104 108.482 74.3637 107.881C75.5771 107.113 78.0804 103.962 78.8304 103.057C79.8304 101.758 80.2371 96.8302 80.7504 95.2734H103.124V95.2734Z" fill="#FFD39F"/>
<path d="M110.754 103.328C116.65 104.912 121.224 109.465 124.907 114.125C128.924 119.219 132.077 124.942 134.24 131.062C135.45 134.476 137.364 138.324 138.154 141.859L139.207 145.069C144.874 169.562 145.92 194.817 146.3 220.005L146.634 220.814C148.667 228.347 156.334 247.388 158 255.405C158.054 256.09 157.94 256.778 157.667 257.41C154.334 261.418 148.667 260.416 144.284 261.776L128.794 264.869C106.624 268.855 98.7071 271.831 76.5004 268.08L75.5004 267.829C74.0404 255.522 72.9637 242.735 72.3404 229.85L72.1871 230.518C70.0837 242.838 68.1137 254.236 67.7004 266.727L67.6371 267.258C62.8604 266.343 48.4204 263.754 43.6371 262.838C42.3437 262.588 40.9237 262.26 40.1671 261.168C39.5404 260.273 39.5437 259.093 39.5904 258.001C39.7804 253.658 40.2804 249.346 40.7804 245.033L43.0671 225.293H42.8937C39.5071 224.882 36.7871 224.471 33.4004 224.061C34.8037 208.54 36.6037 193.063 38.8004 177.626C40.7137 164.18 42.9337 150.731 46.8804 137.74C50.3871 126.194 59.6171 110.915 70.1804 105.125L76.7571 106.178C81.0904 110.494 88.3804 111.409 93.6271 108.292L110.754 103.328Z" fill="black"/>
<path fill-rule="evenodd" clip-rule="evenodd" d="M75.6928 158.258L75.9528 108.781C75.9528 106.846 76.3328 100.065 76.9228 99.1263C72.5895 101.973 69.9461 106.689 67.4528 111.226C66.0228 113.828 64.5461 116.618 64.7428 119.577C64.888 121.793 65.9392 123.776 66.9936 125.766C67.9486 127.567 68.9062 129.374 69.1961 131.363C69.5987 134.124 68.6756 136.782 67.745 139.462C67.0497 141.464 66.3501 143.479 66.1961 145.557C66.0128 148.163 67.0328 153.909 67.7161 156.441L72.6961 174.868L72.5261 191.667C78.3128 179.575 85.0728 167.973 92.7428 156.982C95.1295 153.555 97.7428 149.746 97.2295 145.597C97.1167 144.694 96.8599 143.788 96.6044 142.887C96.1044 141.124 95.6094 139.378 96.2095 137.7C96.5961 136.618 97.3995 135.746 98.1795 134.904L109.449 122.791C110.219 121.963 111.013 121.094 111.349 120.012C111.729 118.776 111.459 117.443 111.186 116.177L107.753 100.322C107.449 98.9225 106.866 97.2389 105.453 97.0117C102.063 99.2499 99.0528 102.587 96.4161 106.081C94.72 108.332 93.1577 110.657 91.7142 113.046L93.6262 108.293C88.3796 111.41 81.0896 110.494 76.7562 106.178V150.227L78.9952 144.662C77.7732 149.278 76.7152 153.958 75.7495 158.652L75.6928 158.258ZM32.9629 232.035C33.1629 229.543 33.3829 226.991 34.4496 224.733L42.6129 225.625L41.7096 233.372C38.7462 233.351 35.7996 232.9 32.9629 232.035ZM118.576 239.618C118.393 237.016 118.566 234.404 119.086 231.848L143.666 232.209L143.913 238.366C143.933 239.101 143.883 239.989 143.246 240.353C142.933 240.497 142.59 240.557 142.246 240.53L119.58 240.594C119.336 240.624 119.09 240.567 118.88 240.44C118.776 240.33 118.696 240.2 118.643 240.059C118.593 239.919 118.57 239.769 118.576 239.618Z" fill="white"/>
<path fill-rule="evenodd" clip-rule="evenodd" d="M76.179 270.055C83.5024 271.295 89.299 271.813 94.549 271.813C103.026 271.813 110.082 270.46 119.849 268.582L120.637 268.432C123.169 267.948 125.796 267.445 128.714 266.918C130.508 268.298 132.619 269.026 134.946 269.026C135.192 269.026 135.439 269.02 135.679 269C139.209 268.765 142.279 266.843 144.338 263.781C144.516 263.776 144.694 263.746 144.872 263.688C146.116 263.301 147.539 263.124 149.046 262.937C152.512 262.506 156.439 262.015 159.202 258.691C159.326 258.544 159.426 258.38 159.502 258.203C159.899 257.278 160.069 256.255 159.992 255.25C159.986 255.166 159.972 255.079 159.956 254.996C158.973 250.26 156.084 242.154 153.283 234.297L153.252 234.211L153.19 234.036C151.233 228.545 149.39 223.374 148.556 220.29C148.502 220.092 148.42 219.909 148.316 219.744C148.065 195.344 147.469 172.037 141.786 147.482C141.536 146.403 140.462 145.732 139.386 145.982C138.309 146.233 137.639 147.308 137.889 148.387C143.899 174.361 144.129 199.104 144.369 225.301L144.37 225.371L144.37 225.374C144.383 226.914 144.396 228.459 144.412 230.012L119.176 229.597C115.426 200.234 114.132 170.362 115.329 140.791C115.376 139.685 114.516 138.75 113.412 138.706C112.306 138.666 111.376 139.522 111.332 140.627C110.102 171.003 111.482 201.687 115.432 231.832C115.535 232.611 116.075 233.237 116.785 233.474C116.507 235.524 116.438 237.598 116.576 239.666C116.572 240.037 116.639 240.401 116.769 240.758C116.916 241.156 117.139 241.513 117.429 241.821C117.444 241.836 117.459 241.851 117.474 241.865C117.488 241.879 117.502 241.893 117.517 241.906C116.305 242.822 115.301 243.996 114.859 245.408C114.476 246.628 114.359 248.525 115.959 250.63C117.442 252.584 119.489 253.756 121.296 254.789L121.512 254.913L121.551 254.936C121.819 255.089 122.086 255.243 122.349 255.4C122.842 255.695 123.382 257.664 123.617 258.526L123.622 258.544C123.786 259.145 123.942 259.709 124.126 260.221C124.552 261.392 125.058 262.457 125.637 263.409C123.29 263.843 121.099 264.262 119.099 264.647L119.093 264.648C103.874 267.567 95.43 269.186 77.3357 266.184C75.9973 254.632 75.0257 242.845 74.4305 231.133L74.4857 230.813C74.5525 230.423 74.5019 230.039 74.3595 229.699C73.7619 217.307 73.5868 205.013 73.8457 193.188C74.0457 193.015 74.2157 192.797 74.339 192.54C80.059 180.581 86.8057 169.006 94.3924 158.135C96.8124 154.661 99.8257 150.335 99.2257 145.364C99.0957 144.295 98.8124 143.29 98.5357 142.318C98.099 140.778 97.7224 139.448 98.1024 138.382C98.3493 137.686 98.9996 136.983 99.629 136.303L99.6524 136.278L110.922 124.165L110.928 124.159C111.76 123.261 112.797 122.144 113.269 120.61C113.814 118.844 113.432 117.074 113.152 115.775L113.149 115.76L110.919 105.466C116.406 107.218 120.612 111.924 123.336 115.369C127.226 120.3 130.259 125.805 132.352 131.735C132.789 132.961 133.312 134.247 133.819 135.489L133.833 135.525C134.762 137.805 135.721 140.161 136.199 142.298C136.409 143.23 137.232 143.864 138.149 143.864C138.296 143.864 138.442 143.848 138.589 143.814C139.666 143.57 140.342 142.498 140.102 141.419C139.549 138.944 138.519 136.415 137.522 133.97C137.009 132.713 136.526 131.528 136.122 130.392C133.882 124.048 130.636 118.158 126.472 112.88C123.282 108.845 118.236 103.263 111.269 101.392C110.85 101.279 110.427 101.309 110.05 101.45L109.716 99.9088C109.092 96.9992 107.766 95.3623 105.776 95.0416C105.282 94.9614 104.776 95.0683 104.359 95.3456C101.222 97.4134 98.1057 100.534 94.8257 104.88C94.4737 105.347 94.1274 105.817 93.7867 106.29C93.3985 106.265 92.9989 106.353 92.6391 106.567C88.3819 109.098 82.3636 108.465 78.6483 105.178C79.0021 103.903 79.4016 102.738 79.6157 102.367C80.119 101.569 79.9957 100.53 79.3257 99.8687C78.6557 99.2072 77.6157 99.1037 76.829 99.6215C74.906 100.885 73.133 102.091 71.5276 103.407C71.304 103.442 71.0824 103.515 70.8723 103.63C59.2456 110.004 48.389 125.995 44.999 137.156C40.9856 150.368 38.7123 164.279 36.8523 177.344C34.6623 192.737 32.839 208.391 31.439 223.882C31.3822 224.494 31.6081 225.069 32.0106 225.476C31.4652 227.152 31.2365 228.873 31.0853 230.503C27.6901 232.006 25.9551 235.03 26.7424 238.186C26.8324 238.54 27.0124 238.861 27.2691 239.118C30.5091 242.368 30.1524 247.222 29.8057 251.916L29.7988 252.007L29.7988 252.008L29.7988 252.008L29.7988 252.008L29.7988 252.008L29.7988 252.008C29.7578 252.551 29.7173 253.088 29.6857 253.613C29.6657 253.94 29.7257 254.268 29.8624 254.568C30.6924 256.399 32.0157 257.956 33.6857 259.071C34.9394 259.913 36.3495 260.475 37.8254 260.73C37.9697 261.283 38.2006 261.829 38.5623 262.345C39.8038 264.116 41.8829 264.542 43.2861 264.829L43.2923 264.831C45.436 265.24 49.559 265.993 53.8031 266.768L53.8156 266.77L55.5057 267.079C56.4067 267.244 57.3139 267.41 58.208 267.573L58.2086 267.573L58.2124 267.574C61.918 268.251 65.3997 268.887 67.2923 269.25C67.4157 269.274 67.539 269.287 67.6657 269.287C68.0857 269.287 68.5023 269.153 68.849 268.896C69.299 268.569 69.589 268.068 69.6557 267.516L69.719 266.985C69.7257 266.929 69.729 266.872 69.7323 266.815C69.9427 260.456 70.6364 254.365 71.5497 248.263C72.0902 254.906 72.7495 261.525 73.5257 268.064C73.6224 268.889 74.219 269.571 75.0257 269.771L76.0257 270.022C76.0686 270.033 76.1139 270.042 76.1575 270.051L76.179 270.055ZM63.6928 114.351C56.8409 121.387 51.0534 130.981 48.8223 138.322C45.1056 150.552 42.9323 162.993 40.809 177.908C38.719 192.594 36.9656 207.523 35.599 222.311C36.4228 222.418 37.2162 222.524 37.9948 222.629L37.9983 222.629L38.0007 222.629L38.4456 222.689C39.3839 222.815 40.3432 222.943 41.3433 223.072L42.769 210.753L42.7721 210.726C45.5311 186.903 48.3844 162.265 53.979 138.476C54.2323 137.4 55.309 136.732 56.3857 136.986C57.459 137.24 58.1257 138.319 57.8723 139.398C52.3296 162.967 49.4896 187.491 46.7432 211.207L46.7423 211.214L42.799 245.288C42.3123 249.491 41.809 253.84 41.619 258.113C41.5957 258.644 41.5523 259.639 41.8357 260.04C42.1637 260.505 43.2955 260.739 44.0554 260.896L44.0557 260.896L44.069 260.899C46.4226 261.35 51.285 262.237 56.0224 263.1L56.0264 263.101L56.2223 263.137C59.6857 263.768 63.239 264.416 65.8057 264.894C66.2923 254.518 67.9723 244.891 69.7457 234.729C69.8388 234.191 69.9327 233.653 70.0269 233.113C70.1545 232.381 70.2827 231.646 70.4098 230.908C69.4436 211.61 69.493 192.522 70.6024 175.012C70.6066 174.959 70.6121 174.906 70.6199 174.853L65.7857 156.966C65.1023 154.437 63.989 148.418 64.2023 145.418C64.3757 143.069 65.129 140.901 65.859 138.803L65.8611 138.797C66.7303 136.294 67.5521 133.928 67.219 131.654C66.979 130.008 66.129 128.404 65.229 126.707L65.2211 126.692C64.0902 124.555 62.9219 122.348 62.749 119.708C62.6211 117.798 63.0502 116.002 63.6928 114.351ZM74.6956 174.824L74.8557 173.99L74.8559 173.989C78.9292 151.731 83.5459 126.503 98.0157 107.292C100.602 103.861 103.039 101.295 105.422 99.4912C105.539 99.7618 105.676 100.159 105.802 100.751L109.236 116.605L109.24 116.624C109.446 117.582 109.677 118.661 109.442 119.425C109.241 120.079 108.617 120.752 108.01 121.406L107.989 121.429L96.7157 133.545L96.6977 133.565C95.874 134.457 94.8519 135.564 94.329 137.03C93.5157 139.304 94.1357 141.489 94.6824 143.413C94.929 144.275 95.159 145.087 95.249 145.845C95.6657 149.296 93.2457 152.774 91.109 155.84C84.859 164.8 79.1657 174.23 74.1357 183.958C74.2567 181.124 74.4033 178.321 74.5756 175.557C74.6599 175.326 74.7021 175.077 74.6956 174.824ZM72.3082 165.772L69.6457 155.921C68.9523 153.348 68.0323 147.923 68.189 145.708C68.3222 143.893 68.9578 142.064 69.6304 140.128L69.6323 140.123L69.634 140.118C70.6235 137.267 71.6454 134.322 71.1723 131.077C70.8328 128.748 69.7786 126.759 68.7599 124.838L68.7557 124.83L68.7391 124.798C67.7686 122.963 66.8517 121.228 66.7357 119.448C66.5857 117.163 67.7123 114.908 69.2023 112.195C70.5157 109.807 72.1957 108.013 74.2523 106.353C74.069 107.275 73.9523 108.127 73.9523 108.771L73.6923 158.249C73.6917 158.36 73.7002 158.47 73.7171 158.577C73.2235 160.991 72.7574 163.392 72.3082 165.772ZM77.7804 141.502C80.6837 131.172 84.5362 121.019 90.1543 111.779C89.0277 112.022 87.8751 112.142 86.7224 112.142C83.6434 112.142 80.5552 111.29 77.9478 109.645L77.7804 141.502ZM35.1023 230.546C35.2451 229.113 35.4579 227.693 35.9233 226.403C36.5586 226.486 37.1794 226.569 37.792 226.651L37.8022 226.653L37.8065 226.653L37.8105 226.654L37.8142 226.654L37.9123 226.668L38.4833 226.744C39.2619 226.848 40.057 226.953 40.8818 227.06L40.3879 231.328C38.6057 231.234 36.8359 230.971 35.1023 230.546ZM32.8736 234.1C35.176 234.763 37.5389 235.172 39.9263 235.317L38.8257 244.827L38.8118 244.947C38.3732 248.746 37.9213 252.659 37.6946 256.584C37.0645 256.392 36.4631 256.108 35.9091 255.737C34.9924 255.123 34.2391 254.298 33.7157 253.329C33.7306 253.093 33.7481 252.858 33.7657 252.621C33.7758 252.484 33.786 252.348 33.7957 252.21L33.7961 252.205C34.1561 247.315 34.6009 241.271 30.5591 236.77C30.4989 235.244 32.2074 234.379 32.8736 234.1ZM123.69 242.584C123.491 243.158 123.035 243.636 122.412 243.835C120.559 244.433 118.986 245.599 118.672 246.604C118.612 246.795 118.456 247.302 119.139 248.201C120.12 249.495 121.63 250.363 123.23 251.282L123.276 251.308C123.649 251.522 124.022 251.735 124.389 251.953C126.276 253.078 126.942 255.524 127.476 257.485C127.616 258.002 127.752 258.493 127.879 258.848C128.956 261.807 131.149 265.285 135.422 265.001C138.236 264.814 141.636 262.693 142.752 257.294C143.608 253.157 142.837 248.702 142.092 244.391L142.089 244.376C141.996 243.848 141.907 243.324 141.817 242.799L141.817 242.798L141.816 242.789C141.801 242.703 141.793 242.618 141.789 242.533L123.69 242.584ZM145.276 241.119C145.521 241.392 145.694 241.736 145.759 242.125C145.833 242.567 145.909 243.01 145.985 243.455L145.985 243.456L145.986 243.46L146.026 243.691L146.029 243.708C146.838 248.387 147.674 253.225 146.662 258.106C146.581 258.497 146.489 258.881 146.385 259.257C147.111 259.141 147.839 259.05 148.556 258.961L148.559 258.961H148.56C151.561 258.587 154.166 258.262 155.922 256.366C155.989 256.142 156.019 255.905 156.012 255.671C155.049 251.154 152.096 242.873 149.486 235.56L149.446 235.448L149.446 235.448C149.088 234.445 148.734 233.452 148.389 232.479C148.308 232.851 148.12 233.196 147.846 233.469C147.472 233.843 146.962 234.054 146.436 234.054H146.402L145.739 234.043L145.909 238.283C145.924 238.809 145.958 240.085 145.276 241.119ZM141.734 233.977L120.804 233.632C120.558 235.271 120.466 236.93 120.526 238.587L141.919 238.527C141.919 238.493 141.919 238.457 141.916 238.42L141.734 233.977Z" fill="black"/>
</g>
<path d="M115.139 61.2004C114.853 59.3297 113.069 58.1037 111.396 57.2284C109.723 56.3532 107.853 55.4546 107.083 53.7241C105.643 50.4938 108.936 46.5619 107.479 43.3382C106.829 41.8984 105.333 40.9998 103.793 40.6424C102.253 40.2849 100.653 40.4386 99.0794 40.5789L94.9428 38.4142C92.1728 33.9812 86.1261 32.5682 81.0294 33.7106C75.9328 34.8531 71.5594 38.02 67.3328 41.1L54.0961 50.7711C51.9428 52.3445 48.8994 53.9212 46.8428 52.2209C43.7761 49.6887 47.5094 43.8961 44.8794 40.923C44.2494 40.2148 43.3494 39.8139 42.6294 39.1959C40.6294 37.4655 40.3794 34.4389 40.6594 31.7965C41.7428 21.5976 48.4661 12.3409 57.5028 7.52706C66.5394 2.71326 77.6028 2.23222 87.2895 5.5227C92.8494 7.42016 98.5628 11.3287 99.2561 17.1714L102.953 18.3773C107.493 14.3686 114.423 15.2639 120.253 16.844C124.436 17.9764 128.603 19.3762 132.253 21.7112C135.903 24.0463 139.033 27.4203 140.389 31.5459C141.226 34.0848 141.389 36.8909 142.846 39.1425C143.789 40.6056 145.196 41.708 146.233 43.1044C149.209 47.1131 148.273 53.487 144.266 56.4668C142.329 57.9066 139.733 58.7317 138.653 60.8964C137.749 62.7104 138.163 65.0688 136.919 66.6656C135.109 68.9873 130.919 68.3125 129.336 70.7946C128.899 71.4794 128.736 72.3246 128.219 72.9493C127.703 73.574 126.553 73.8145 126.156 73.113L116.376 73.5606L115.139 61.2004Z" fill="black"/>
<path d="M52.9371 53.3573C50.7871 58.8993 49.4938 63.9036 49.1671 66.9335C48.3438 74.5634 49.8804 83.0418 55.7038 88.477C58.8071 91.3699 62.6504 92.793 66.7604 93.5179C71.0471 94.2762 75.6471 94.9678 79.8071 93.2641C79.5871 96.7416 79.5538 98.8896 79.7138 102.371L103.167 99.9519C102.787 95.3787 103.68 91.5971 105.667 87.4614C106.117 86.5261 107.084 86.5361 108.04 86.2321C108.89 85.9648 109.724 85.6575 110.547 85.3101C112.217 84.6153 113.797 83.7166 115.247 82.6376C118.12 80.4629 120.36 77.4096 121.2 73.8686C121.964 70.6582 121.427 66.8366 117.867 65.0293C115.357 63.7599 113.107 64.2109 109.284 67.5782L115.17 61.2311C114.884 59.3603 113.1 58.1343 111.427 57.2591C109.754 56.3839 107.884 55.4853 107.114 53.7548C105.674 50.5245 108.967 46.5926 107.51 43.3689C106.86 41.9291 105.364 41.0305 103.824 40.6731C102.284 40.3156 100.684 40.4693 99.1104 40.6096L94.9738 38.4449C92.2038 34.0119 86.1571 32.5988 81.0604 33.7413C75.9638 34.8838 71.5604 38.0206 67.3338 41.1006L54.0971 50.7717" fill="#FFD39F"/>
<path fill-rule="evenodd" clip-rule="evenodd" d="M48.9431 54.9713C47.4697 54.9713 46.3631 54.4268 45.5697 53.7687C43.1613 51.779 43.476 48.7616 43.7293 46.3338L43.7297 46.3292C43.9064 44.6355 44.0731 43.0321 43.3831 42.2537C43.1864 42.0332 42.8364 41.7994 42.4664 41.5522C42.1164 41.3183 41.7164 41.0511 41.3297 40.7204C39.1564 38.8396 38.2397 35.6827 38.6731 31.5872C39.8064 20.934 46.6597 11.0358 56.5664 5.76103C65.7464 0.870398 77.4697 0.0753368 87.9331 3.62973C95.5897 6.24208 100.563 11.2196 101.243 16.9387C101.373 18.0377 100.59 19.0366 99.4931 19.1668C98.3964 19.2971 97.4031 18.5121 97.2697 17.413C96.5397 11.2596 88.9531 8.21302 86.6431 7.42464C77.2064 4.22101 66.6631 4.92254 58.4397 9.30206C49.6897 13.9622 43.6397 22.6644 42.6464 32.0148C42.4464 33.9189 42.5031 36.4477 43.9331 37.6838C44.1297 37.8508 44.3964 38.0312 44.6764 38.2183L44.6824 38.2223C45.2176 38.5787 45.8284 38.9855 46.3664 39.5946C48.2276 41.6967 47.9371 44.4953 47.7039 46.7422L47.7031 46.7501C47.4897 48.8079 47.4097 50.1007 48.1097 50.6787C49.2931 51.6575 52.0864 49.76 52.9131 49.1554L66.1497 39.4843L66.1658 39.4726C70.3219 36.4456 75.0269 33.0187 80.5864 31.7709C87.4397 30.2342 93.0431 32.0315 95.9597 36.6983C96.5464 37.637 96.2631 38.873 95.3264 39.461C94.3897 40.0489 93.1564 39.7649 92.5697 38.8262C89.7831 34.3666 83.8697 35.1416 81.4597 35.6827C76.7031 36.7484 72.5331 39.785 68.5031 42.7247L55.2697 52.3957C55.1223 52.5035 54.9766 52.6074 54.8325 52.7073C54.9789 53.1385 54.9805 53.6217 54.8031 54.0794C52.5298 59.9388 51.4298 64.6724 51.1564 67.1478C50.2531 75.4158 52.4065 82.6548 57.0698 87.0043C59.5631 89.3294 62.7531 90.7691 67.1098 91.5375C71.5631 92.3158 75.5398 92.8403 79.0531 91.4005C79.6898 91.14 80.4165 91.2268 80.9764 91.6277C81.5364 92.0319 81.8498 92.6933 81.8065 93.3815C81.5931 96.7421 81.5564 97.4837 81.7164 100.931C81.7664 102.037 80.9131 102.976 79.8098 103.026C79.7731 103.039 79.7431 103.039 79.7131 103.039C78.6498 103.039 77.7664 102.201 77.7164 101.125C77.6098 98.7732 77.5864 97.5907 77.6531 95.9771C73.6465 96.7522 69.5664 96.0406 66.4198 95.4894C61.3364 94.5908 57.3864 92.7768 54.3431 89.9407C48.7498 84.7193 46.1398 76.2543 47.1798 66.7102C47.5152 63.6676 48.6371 59.3476 50.2487 54.8382C49.7845 54.93 49.3497 54.9713 48.9431 54.9713ZM126.97 75.5594C126.873 75.5594 126.78 75.5561 126.686 75.5461C125.713 75.4592 124.89 74.9381 124.423 74.1163C123.88 73.1542 124.216 71.9315 125.176 71.3837C125.726 71.0697 126.366 71.0496 126.91 71.2701C126.95 71.1766 126.993 71.0763 127.036 70.9795L127.049 70.9494C127.206 70.5792 127.384 70.1595 127.656 69.7334C128.876 67.8226 130.953 67.2146 132.62 66.7269C133.776 66.3895 134.87 66.0688 135.35 65.4508C135.723 64.9739 135.851 64.1688 135.999 63.2338L136.003 63.2092L136.009 63.1736C136.164 62.1935 136.34 61.085 136.87 60.019C137.881 57.9919 139.713 56.9231 141.33 55.9791L141.34 55.9735C141.973 55.6061 142.57 55.2553 143.083 54.8745C144.57 53.7687 145.596 51.9548 145.9 49.897C146.203 47.8392 145.743 45.8047 144.64 44.3182C144.25 43.7937 143.77 43.2859 143.26 42.7514L143.25 42.7416C142.537 41.9897 141.797 41.2106 141.176 40.246C140.026 38.4688 139.58 36.5379 139.15 34.6705L139.137 34.6144C138.938 33.76 138.751 32.9535 138.5 32.1918C137.4 28.8479 134.803 25.7311 131.186 23.4194C127.55 21.091 123.36 19.7782 119.74 18.796C112.793 16.9119 108.453 17.3228 105.23 20.1724C104.4 20.9039 103.136 20.8238 102.406 19.992C101.676 19.1602 101.756 17.8941 102.586 17.1625C108.093 12.3019 115.203 13.4143 120.783 14.9243C124.693 15.9832 129.243 17.4197 133.336 20.0387C137.726 22.8482 140.91 26.7166 142.296 30.9358C142.609 31.8851 142.828 32.8377 143.041 33.7606L143.043 33.7686C143.413 35.3687 143.763 36.882 144.53 38.0679C144.95 38.7179 145.528 39.3284 146.14 39.9745L146.153 39.9888L146.199 40.0377C146.752 40.6205 147.324 41.2244 147.843 41.9263C149.576 44.2614 150.31 47.3782 149.853 50.4816C149.396 53.585 147.796 56.361 145.463 58.0948C144.775 58.6081 144.053 59.0282 143.354 59.4349L143.354 59.4351L143.35 59.4377C142.05 60.196 140.923 60.8541 140.446 61.8095C140.191 62.322 140.077 63.0346 139.956 63.7919L139.95 63.8306C139.746 65.1334 139.513 66.6133 138.5 67.9161C137.223 69.553 135.373 70.0942 133.74 70.5719C132.503 70.9327 131.436 71.2467 131.026 71.8914C130.93 72.0451 130.826 72.2856 130.72 72.5429C130.51 73.044 130.246 73.6653 129.766 74.2466C129.09 75.0617 128.016 75.5594 126.97 75.5594ZM113.163 61.5055C113.226 61.9243 113.415 62.2926 113.685 62.5783C112.096 63.0016 110.226 64.0394 107.933 66.0588C107.103 66.7904 107.02 68.0564 107.75 68.8883C108.48 69.7201 109.743 69.8036 110.573 69.072C114.236 65.845 115.573 66.1156 116.936 66.8071C120.06 68.3872 119.58 71.9349 119.226 73.3947C118.54 76.2943 116.686 79.0036 114.026 81.018C112.706 82.0001 111.27 82.8185 109.74 83.4532C108.983 83.7739 108.2 84.0612 107.406 84.3118C107.286 84.3513 107.15 84.3846 107.007 84.4199C106.968 84.4293 106.929 84.4389 106.89 84.4487C106.03 84.6559 104.593 85.0033 103.833 86.5834C101.76 90.9128 100.783 93.2145 101.206 98.2454C101.293 99.2943 102.17 100.083 103.196 100.083C103.253 100.083 103.31 100.079 103.37 100.066C104.47 99.9725 105.286 99.0037 105.193 97.9013C104.86 93.9728 105.453 92.4662 107.37 88.4575C107.464 88.4267 107.598 88.3939 107.722 88.3637C107.743 88.3586 107.763 88.3536 107.783 88.3487C107.799 88.3448 107.815 88.341 107.83 88.3372C108.063 88.2804 108.33 88.2136 108.606 88.1267C109.516 87.8428 110.42 87.5087 111.283 87.1446C113.103 86.3896 114.83 85.4075 116.423 84.2216C119.836 81.6393 122.213 78.1217 123.113 74.3267C124.293 69.4428 122.616 65.1902 118.736 63.2259C118.096 62.9019 117.42 62.6258 116.681 62.472C117.027 62.0477 117.199 61.4831 117.11 60.8975C116.673 58.0347 114.166 56.4178 112.316 55.4524L112.046 55.3121C110.723 54.6239 109.353 53.909 108.906 52.9102C108.474 51.9402 108.835 50.5377 109.217 49.0514L109.22 49.0418C109.736 47.0408 110.32 44.7725 109.3 42.5142C108.453 40.6335 106.61 39.2405 104.243 38.6926C102.428 38.2688 100.61 38.4317 99.0083 38.5752H99.0083L99.0031 38.5757L98.9031 38.5857C97.8031 38.6859 96.9931 39.658 97.0897 40.7604C97.1897 41.8628 98.1564 42.6779 99.2597 42.5777L99.3597 42.5677L99.3643 42.5673C100.796 42.4405 102.148 42.3208 103.343 42.5978C104.45 42.855 105.34 43.4563 105.66 44.1678C106.095 45.1377 105.751 46.4766 105.353 48.0286L105.353 48.0287L105.35 48.0396L105.348 48.0474C104.835 50.0398 104.254 52.2951 105.256 54.5437C106.27 56.822 108.453 57.9578 110.206 58.8698L110.47 59.0068C112.16 59.8887 113.04 60.7071 113.163 61.5055ZM62.8098 62.5712C64.0984 62.5712 65.1431 61.2999 65.1431 59.7317C65.1431 58.1635 64.0984 56.8922 62.8098 56.8922C61.5211 56.8922 60.4764 58.1635 60.4764 59.7317C60.4764 61.2999 61.5211 62.5712 62.8098 62.5712ZM76.4765 60.5167C76.4765 62.085 75.4318 63.3562 74.1431 63.3562C72.8545 63.3562 71.8098 62.085 71.8098 60.5167C71.8098 58.9485 72.8545 57.6772 74.1431 57.6772C75.4318 57.6772 76.4765 58.9485 76.4765 60.5167Z" fill="black"/>
</g>
<defs>
<clipPath id="clip0_805_38874">
<rect width="180" height="180" rx="24" fill="white"/>
</clipPath>
<clipPath id="clip1_805_38874">
<rect width="200" height="200.436" fill="white" transform="translate(-10 95.2734)"/>
</clipPath>
</defs>
</svg>
