<svg width="180" height="180" viewBox="0 0 180 180" fill="none" xmlns="http://www.w3.org/2000/svg">
<g clip-path="url(#clip0_805_38848)">
<rect width="180" height="180" rx="24" fill="white"/>
<g clip-path="url(#clip1_805_38848)">
<path d="M103.124 95.2734C103.424 98.6474 104.8 106.271 109.924 105.128L110.474 105.963C110.224 111.198 107.577 114.889 103.43 118.714C99.2171 122.539 93.8437 124.838 88.1737 125.242C83.1737 125.609 77.8571 124.41 74.1171 121.049C70.3771 117.689 68.4104 113.032 70.8871 109.04H71.2471C72.3737 109.073 73.4104 108.482 74.3637 107.881C75.5771 107.113 78.0804 103.962 78.8304 103.057C79.8304 101.758 80.2371 96.8302 80.7504 95.2734H103.124V95.2734Z" fill="#FFD39F"/>
<path d="M110.754 103.328C116.65 104.912 121.224 109.465 124.907 114.125C128.924 119.219 132.077 124.942 134.24 131.062C135.45 134.476 137.364 138.324 138.154 141.859L139.207 145.069C144.874 169.562 145.92 194.817 146.3 220.005L146.634 220.814C148.667 228.347 156.334 247.388 158 255.405C158.054 256.09 157.94 256.778 157.667 257.41C154.334 261.418 148.667 260.416 144.284 261.776L128.794 264.869C106.624 268.855 98.7071 271.831 76.5004 268.08L75.5004 267.829C74.0404 255.522 72.9637 242.735 72.3404 229.85L72.1871 230.518C70.0837 242.838 68.1137 254.236 67.7004 266.727L67.6371 267.258C62.8604 266.343 48.4204 263.754 43.6371 262.838C42.3437 262.588 40.9237 262.26 40.1671 261.168C39.5404 260.273 39.5437 259.093 39.5904 258.001C39.7804 253.658 40.2804 249.346 40.7804 245.033L43.0671 225.293H42.8937C39.5071 224.882 36.7871 224.471 33.4004 224.061C34.8037 208.54 36.6037 193.063 38.8004 177.626C40.7137 164.18 42.9337 150.731 46.8804 137.74C50.3871 126.194 59.6171 110.915 70.1804 105.125L76.7571 106.178C81.0904 110.494 88.3804 111.409 93.6271 108.292L110.754 103.328Z" fill="black"/>
<path fill-rule="evenodd" clip-rule="evenodd" d="M75.6928 158.258L75.9528 108.781C75.9528 106.846 76.3328 100.065 76.9228 99.1263C72.5895 101.973 69.9461 106.689 67.4528 111.226C66.0228 113.828 64.5461 116.618 64.7428 119.577C64.888 121.793 65.9392 123.776 66.9936 125.766C67.9486 127.567 68.9062 129.374 69.1961 131.363C69.5987 134.124 68.6756 136.782 67.745 139.462C67.0497 141.464 66.3501 143.479 66.1961 145.557C66.0128 148.163 67.0328 153.909 67.7161 156.441L72.6961 174.868L72.5261 191.667C78.3128 179.575 85.0728 167.973 92.7428 156.982C95.1295 153.555 97.7428 149.746 97.2295 145.597C97.1167 144.694 96.8599 143.788 96.6044 142.887C96.1044 141.124 95.6094 139.378 96.2095 137.7C96.5961 136.618 97.3995 135.746 98.1795 134.904L109.449 122.791C110.219 121.963 111.013 121.094 111.349 120.012C111.729 118.776 111.459 117.443 111.186 116.177L107.753 100.322C107.449 98.9225 106.866 97.2389 105.453 97.0117C102.063 99.2499 99.0528 102.587 96.4161 106.081C94.72 108.332 93.1577 110.657 91.7142 113.046L93.6262 108.293C88.3796 111.41 81.0896 110.494 76.7562 106.178V150.227L78.9952 144.662C77.7732 149.278 76.7152 153.958 75.7495 158.652L75.6928 158.258ZM32.9629 232.035C33.1629 229.543 33.3829 226.991 34.4496 224.733L42.6129 225.625L41.7096 233.372C38.7462 233.351 35.7996 232.9 32.9629 232.035ZM118.576 239.618C118.393 237.016 118.566 234.404 119.086 231.848L143.666 232.209L143.913 238.366C143.933 239.101 143.883 239.989 143.246 240.353C142.933 240.497 142.59 240.557 142.246 240.53L119.58 240.594C119.336 240.624 119.09 240.567 118.88 240.44C118.776 240.33 118.696 240.2 118.643 240.059C118.593 239.919 118.57 239.769 118.576 239.618Z" fill="white"/>
<path fill-rule="evenodd" clip-rule="evenodd" d="M76.179 270.055C83.5024 271.295 89.299 271.813 94.549 271.813C103.026 271.813 110.082 270.46 119.849 268.582L120.637 268.432C123.169 267.948 125.796 267.445 128.714 266.918C130.508 268.298 132.619 269.026 134.946 269.026C135.192 269.026 135.439 269.02 135.679 269C139.209 268.765 142.279 266.843 144.338 263.781C144.516 263.776 144.694 263.746 144.872 263.688C146.116 263.301 147.539 263.124 149.046 262.937C152.512 262.506 156.439 262.015 159.202 258.691C159.326 258.544 159.426 258.38 159.502 258.203C159.899 257.278 160.069 256.255 159.992 255.25C159.986 255.166 159.972 255.079 159.956 254.996C158.973 250.26 156.084 242.154 153.283 234.297L153.252 234.211L153.19 234.036C151.233 228.545 149.39 223.374 148.556 220.29C148.502 220.092 148.42 219.909 148.316 219.744C148.065 195.344 147.469 172.037 141.786 147.482C141.536 146.403 140.462 145.732 139.386 145.982C138.309 146.233 137.639 147.308 137.889 148.387C143.899 174.361 144.129 199.104 144.369 225.301L144.37 225.371L144.37 225.374C144.383 226.914 144.396 228.459 144.412 230.012L119.176 229.597C115.426 200.234 114.132 170.362 115.329 140.791C115.376 139.685 114.516 138.75 113.412 138.706C112.306 138.666 111.376 139.522 111.332 140.627C110.102 171.003 111.482 201.687 115.432 231.832C115.535 232.611 116.075 233.237 116.785 233.474C116.507 235.524 116.438 237.598 116.576 239.666C116.572 240.037 116.639 240.401 116.769 240.758C116.916 241.156 117.139 241.513 117.429 241.821C117.444 241.836 117.459 241.851 117.474 241.865C117.488 241.879 117.502 241.893 117.517 241.906C116.305 242.822 115.301 243.996 114.859 245.408C114.476 246.628 114.359 248.525 115.959 250.63C117.442 252.584 119.489 253.756 121.296 254.789L121.512 254.913L121.551 254.936C121.819 255.089 122.086 255.243 122.349 255.4C122.842 255.695 123.382 257.664 123.617 258.526L123.622 258.544C123.786 259.145 123.942 259.709 124.126 260.221C124.552 261.392 125.058 262.457 125.637 263.409C123.29 263.843 121.099 264.262 119.099 264.647L119.093 264.648C103.874 267.567 95.43 269.186 77.3357 266.184C75.9973 254.632 75.0257 242.845 74.4305 231.133L74.4857 230.813C74.5525 230.423 74.5019 230.039 74.3595 229.699C73.7619 217.307 73.5868 205.013 73.8457 193.188C74.0457 193.015 74.2157 192.797 74.339 192.54C80.059 180.581 86.8057 169.006 94.3924 158.135C96.8124 154.661 99.8257 150.335 99.2257 145.364C99.0957 144.295 98.8124 143.29 98.5357 142.318C98.099 140.778 97.7224 139.448 98.1024 138.382C98.3493 137.686 98.9996 136.983 99.629 136.303L99.6524 136.278L110.922 124.165L110.928 124.159C111.76 123.261 112.797 122.144 113.269 120.61C113.814 118.844 113.432 117.074 113.152 115.775L113.149 115.76L110.919 105.466C116.406 107.218 120.612 111.924 123.336 115.369C127.226 120.3 130.259 125.805 132.352 131.735C132.789 132.961 133.312 134.247 133.819 135.489L133.833 135.525C134.762 137.805 135.721 140.161 136.199 142.298C136.409 143.23 137.232 143.864 138.149 143.864C138.296 143.864 138.442 143.848 138.589 143.814C139.666 143.57 140.342 142.498 140.102 141.419C139.549 138.944 138.519 136.415 137.522 133.97C137.009 132.713 136.526 131.528 136.122 130.392C133.882 124.048 130.636 118.158 126.472 112.88C123.282 108.845 118.236 103.263 111.269 101.392C110.85 101.279 110.427 101.309 110.05 101.45L109.716 99.9088C109.092 96.9992 107.766 95.3623 105.776 95.0416C105.282 94.9614 104.776 95.0683 104.359 95.3456C101.222 97.4134 98.1057 100.534 94.8257 104.88C94.4737 105.347 94.1274 105.817 93.7867 106.29C93.3985 106.265 92.9989 106.353 92.6391 106.567C88.3819 109.098 82.3636 108.465 78.6483 105.178C79.0021 103.903 79.4016 102.738 79.6157 102.367C80.119 101.569 79.9957 100.53 79.3257 99.8687C78.6557 99.2072 77.6157 99.1037 76.829 99.6215C74.906 100.885 73.133 102.091 71.5276 103.407C71.304 103.442 71.0824 103.515 70.8723 103.63C59.2456 110.004 48.389 125.995 44.999 137.156C40.9856 150.368 38.7123 164.279 36.8523 177.344C34.6623 192.737 32.839 208.391 31.439 223.882C31.3822 224.494 31.6081 225.069 32.0106 225.476C31.4652 227.152 31.2365 228.873 31.0853 230.503C27.6901 232.006 25.9551 235.03 26.7424 238.186C26.8324 238.54 27.0124 238.861 27.2691 239.118C30.5091 242.368 30.1524 247.222 29.8057 251.916L29.7988 252.007L29.7988 252.008L29.7988 252.008L29.7988 252.008L29.7988 252.008L29.7988 252.008C29.7578 252.551 29.7173 253.088 29.6857 253.613C29.6657 253.94 29.7257 254.268 29.8624 254.568C30.6924 256.399 32.0157 257.956 33.6857 259.071C34.9394 259.913 36.3495 260.475 37.8254 260.73C37.9697 261.283 38.2006 261.829 38.5623 262.345C39.8038 264.116 41.8829 264.542 43.2861 264.829L43.2923 264.831C45.436 265.24 49.559 265.993 53.8031 266.768L53.8156 266.77L55.5057 267.079C56.4067 267.244 57.3139 267.41 58.208 267.573L58.2086 267.573L58.2124 267.574C61.918 268.251 65.3997 268.887 67.2923 269.25C67.4157 269.274 67.539 269.287 67.6657 269.287C68.0857 269.287 68.5023 269.153 68.849 268.896C69.299 268.569 69.589 268.068 69.6557 267.516L69.719 266.985C69.7257 266.929 69.729 266.872 69.7323 266.815C69.9427 260.456 70.6364 254.365 71.5497 248.263C72.0902 254.906 72.7495 261.525 73.5257 268.064C73.6224 268.889 74.219 269.571 75.0257 269.771L76.0257 270.022C76.0686 270.033 76.1139 270.042 76.1575 270.051L76.179 270.055ZM63.6928 114.351C56.8409 121.387 51.0534 130.981 48.8223 138.322C45.1056 150.552 42.9323 162.993 40.809 177.908C38.719 192.594 36.9656 207.523 35.599 222.311C36.4228 222.418 37.2162 222.524 37.9948 222.629L37.9983 222.629L38.0007 222.629L38.4456 222.689C39.3839 222.815 40.3432 222.943 41.3433 223.072L42.769 210.753L42.7721 210.726C45.5311 186.903 48.3844 162.265 53.979 138.476C54.2323 137.4 55.309 136.732 56.3857 136.986C57.459 137.24 58.1257 138.319 57.8723 139.398C52.3296 162.967 49.4896 187.491 46.7432 211.207L46.7423 211.214L42.799 245.288C42.3123 249.491 41.809 253.84 41.619 258.113C41.5957 258.644 41.5523 259.639 41.8357 260.04C42.1637 260.505 43.2955 260.739 44.0554 260.896L44.0557 260.896L44.069 260.899C46.4226 261.35 51.285 262.237 56.0224 263.1L56.0264 263.101L56.2223 263.137C59.6857 263.768 63.239 264.416 65.8057 264.894C66.2923 254.518 67.9723 244.891 69.7457 234.729C69.8388 234.191 69.9327 233.653 70.0269 233.113C70.1545 232.381 70.2827 231.646 70.4098 230.908C69.4436 211.61 69.493 192.522 70.6024 175.012C70.6066 174.959 70.6121 174.906 70.6199 174.853L65.7857 156.966C65.1023 154.437 63.989 148.418 64.2023 145.418C64.3757 143.069 65.129 140.901 65.859 138.803L65.8611 138.797C66.7303 136.294 67.5521 133.928 67.219 131.654C66.979 130.008 66.129 128.404 65.229 126.707L65.2211 126.692C64.0902 124.555 62.9219 122.348 62.749 119.708C62.6211 117.798 63.0502 116.002 63.6928 114.351ZM74.6956 174.824L74.8557 173.99L74.8559 173.989C78.9292 151.731 83.5459 126.503 98.0157 107.292C100.602 103.861 103.039 101.295 105.422 99.4912C105.539 99.7618 105.676 100.159 105.802 100.751L109.236 116.605L109.24 116.624C109.446 117.582 109.677 118.661 109.442 119.425C109.241 120.079 108.617 120.752 108.01 121.406L107.989 121.429L96.7157 133.545L96.6977 133.565C95.874 134.457 94.8519 135.564 94.329 137.03C93.5157 139.304 94.1357 141.489 94.6824 143.413C94.929 144.275 95.159 145.087 95.249 145.845C95.6657 149.296 93.2457 152.774 91.109 155.84C84.859 164.8 79.1657 174.23 74.1357 183.958C74.2567 181.124 74.4033 178.321 74.5756 175.557C74.6599 175.326 74.7021 175.077 74.6956 174.824ZM72.3082 165.772L69.6457 155.921C68.9523 153.348 68.0323 147.923 68.189 145.708C68.3222 143.893 68.9578 142.064 69.6304 140.128L69.6323 140.123L69.634 140.118C70.6235 137.267 71.6454 134.322 71.1723 131.077C70.8328 128.748 69.7786 126.759 68.7599 124.838L68.7557 124.83L68.7391 124.798C67.7686 122.963 66.8517 121.228 66.7357 119.448C66.5857 117.163 67.7123 114.908 69.2023 112.195C70.5157 109.807 72.1957 108.013 74.2523 106.353C74.069 107.275 73.9523 108.127 73.9523 108.771L73.6923 158.249C73.6917 158.36 73.7002 158.47 73.7171 158.577C73.2235 160.991 72.7574 163.392 72.3082 165.772ZM77.7804 141.502C80.6837 131.172 84.5362 121.019 90.1543 111.779C89.0277 112.022 87.8751 112.142 86.7224 112.142C83.6434 112.142 80.5552 111.29 77.9478 109.645L77.7804 141.502ZM35.1023 230.546C35.2451 229.113 35.4579 227.693 35.9233 226.403C36.5586 226.486 37.1794 226.569 37.792 226.651L37.8022 226.653L37.8065 226.653L37.8105 226.654L37.8142 226.654L37.9123 226.668L38.4833 226.744C39.2619 226.848 40.057 226.953 40.8818 227.06L40.3879 231.328C38.6057 231.234 36.8359 230.971 35.1023 230.546ZM32.8736 234.1C35.176 234.763 37.5389 235.172 39.9263 235.317L38.8257 244.827L38.8118 244.947C38.3732 248.746 37.9213 252.659 37.6946 256.584C37.0645 256.392 36.4631 256.108 35.9091 255.737C34.9924 255.123 34.2391 254.298 33.7157 253.329C33.7306 253.093 33.7481 252.858 33.7657 252.621C33.7758 252.484 33.786 252.348 33.7957 252.21L33.7961 252.205C34.1561 247.315 34.6009 241.271 30.5591 236.77C30.4989 235.244 32.2074 234.379 32.8736 234.1ZM123.69 242.584C123.491 243.158 123.035 243.636 122.412 243.835C120.559 244.433 118.986 245.599 118.672 246.604C118.612 246.795 118.456 247.302 119.139 248.201C120.12 249.495 121.63 250.363 123.23 251.282L123.276 251.308C123.649 251.522 124.022 251.735 124.389 251.953C126.276 253.078 126.942 255.524 127.476 257.485C127.616 258.002 127.752 258.493 127.879 258.848C128.956 261.807 131.149 265.285 135.422 265.001C138.236 264.814 141.636 262.693 142.752 257.294C143.608 253.157 142.837 248.702 142.092 244.391L142.089 244.376C141.996 243.848 141.907 243.324 141.817 242.799L141.817 242.798L141.816 242.789C141.801 242.703 141.793 242.618 141.789 242.533L123.69 242.584ZM145.276 241.119C145.521 241.392 145.694 241.736 145.759 242.125C145.833 242.567 145.909 243.01 145.985 243.455L145.985 243.456L145.986 243.46L146.026 243.691L146.029 243.708C146.838 248.387 147.674 253.225 146.662 258.106C146.581 258.497 146.489 258.881 146.385 259.257C147.111 259.141 147.839 259.05 148.556 258.961L148.559 258.961H148.56C151.561 258.587 154.166 258.262 155.922 256.366C155.989 256.142 156.019 255.905 156.012 255.671C155.049 251.154 152.096 242.873 149.486 235.56L149.446 235.448L149.446 235.448C149.088 234.445 148.734 233.452 148.389 232.479C148.308 232.851 148.12 233.196 147.846 233.469C147.472 233.843 146.962 234.054 146.436 234.054H146.402L145.739 234.043L145.909 238.283C145.924 238.809 145.958 240.085 145.276 241.119ZM141.734 233.977L120.804 233.632C120.558 235.271 120.466 236.93 120.526 238.587L141.919 238.527C141.919 238.493 141.919 238.457 141.916 238.42L141.734 233.977Z" fill="black"/>
</g>
<path d="M115.667 84.789C116.334 86.8401 119.454 86.0384 121.144 84.6954C129.197 78.2915 133.984 68.086 134.217 57.7836C134.45 47.4812 130.254 37.2356 123.197 29.7426C118.98 25.2696 113.294 21.5882 107.164 21.9023L97.3337 17.0183C95.9704 13.9817 92.367 12.5887 89.0504 12.4283C85.7337 12.268 82.417 13.023 79.1004 12.8726C76.457 12.7524 73.8504 12.0609 71.2071 12.1344C65.0637 12.3014 59.8037 16.4972 55.5071 20.9034C48.2837 28.3095 42.0437 37.6632 42.0637 48.0224C42.0637 53.8951 43.7304 60.8569 39.3971 64.8189C38.8371 65.3333 38.1271 65.9881 38.3971 66.6996C38.4937 66.8867 38.6237 67.0538 38.7871 67.1874C38.9504 67.321 39.1371 67.4212 39.3371 67.478C42.9604 68.9512 47.6037 66.85 48.8937 63.1352L55.4204 50.7951C57.6071 47.4545 62.1337 46.4723 66.1037 46.8799C70.0737 47.2875 73.8804 48.764 77.8571 49.1214C81.0571 49.382 84.277 48.921 87.277 47.7718C90.277 46.6227 92.9804 44.8087 95.1904 42.4703L97.1904 43.0115C99.1037 43.9602 100.717 45.4267 101.85 47.2407C102.98 49.058 103.587 51.1525 103.597 53.2938C103.577 55.4886 102.93 57.6199 102.57 59.788C102.21 61.956 102.214 64.3145 103.37 66.1785C104.527 68.0426 107.16 69.1049 109.01 67.9257" fill="black"/>
<path d="M103.199 99.7467C102.816 95.1767 103.703 91.609 105.686 87.4733C106.133 86.5379 107.103 86.548 108.059 86.244C108.906 85.9767 109.746 85.6694 110.566 85.322C112.236 84.6271 113.813 83.7285 115.266 82.6495C118.139 80.4748 120.376 77.4215 121.219 73.8804C121.983 70.6701 121.446 66.8485 117.869 65.0412C115.363 63.7718 113.113 64.2228 109.289 67.5901L109.019 67.9475C107.169 69.1268 104.533 68.0678 103.379 66.2004C102.226 64.333 102.229 61.9779 102.579 59.8098C102.929 57.6418 103.579 55.5105 103.606 53.3157C103.596 51.1744 102.989 49.0798 101.859 47.2626C100.729 45.4453 99.116 43.9821 97.1994 43.0334L95.1994 42.4922C92.9894 44.8306 90.286 46.6412 87.286 47.7937C84.286 48.9462 81.066 49.4072 77.866 49.1433C73.8894 48.7859 70.0827 47.3127 66.1127 46.9018C62.1427 46.4909 57.616 47.4697 55.4294 50.817L53.3327 52.848C51.3327 55.8546 50.9994 59.5292 49.9994 63.2039C49.9994 64.2595 45.946 78.5172 55.3327 87.9243C58.666 91.2649 62.9994 92.6011 67.4994 93.6033C71.536 94.228 75.946 94.856 79.8327 93.2692C79.6094 96.7468 79.646 99.8068 79.806 103.288" fill="#FFD39F"/>
<path fill-rule="evenodd" clip-rule="evenodd" d="M38.6668 69.3661C39.6601 69.7603 40.7335 69.9541 41.8235 69.9541C43.1635 69.9541 44.5301 69.6634 45.8235 69.0755C46.2434 68.885 46.6459 68.6674 47.0283 68.4257C46.4626 77.2641 49.0843 85.0345 54.3401 89.9408C57.3835 92.777 61.3335 94.591 66.4168 95.4896C69.5635 96.0408 73.6435 96.7523 77.6501 95.9773C77.5835 97.5908 77.6068 98.7734 77.7135 101.125C77.7635 102.201 78.6468 103.039 79.7101 103.039C79.7435 103.039 79.7735 103.039 79.8068 103.026C80.9101 102.976 81.7635 102.037 81.7135 100.931C81.5535 97.4839 81.5901 96.7423 81.8035 93.3817C81.8468 92.6935 81.5335 92.0287 80.9735 91.6278C80.4135 91.227 79.6868 91.1401 79.0501 91.4007C75.5334 92.8405 71.5601 92.316 67.1068 91.5377C62.7501 90.7693 59.5601 89.3295 57.0668 87.0045C52.4035 82.655 50.2501 75.4159 51.1535 67.148C51.4268 64.6726 52.5268 59.939 54.8001 54.0796C54.9748 53.6287 54.9759 53.1531 54.836 52.7269C55.0265 52.7849 55.2221 52.8135 55.4168 52.8135C56.0701 52.8135 56.7068 52.4961 57.0868 51.9048C58.8601 49.1956 62.8001 48.5676 65.8934 48.8849C67.6853 49.0672 69.4541 49.4893 71.3269 49.9361L71.3269 49.9361L71.3734 49.9472C73.3968 50.4316 75.4934 50.9327 77.6868 51.1298C81.1668 51.4138 84.7268 50.9026 87.9868 49.6533C90.935 48.5234 93.6625 46.7759 95.9324 44.5741C96.0482 44.6695 96.1767 44.7533 96.3168 44.8228C97.9001 45.6078 99.2301 46.8171 100.167 48.317C101.1 49.8203 101.6 51.5507 101.61 53.2912C101.6 54.5974 101.32 55.9369 101.023 57.3534L101.01 57.4191L101.01 57.4197L101.009 57.4201L101.009 57.4201C100.87 58.0844 100.726 58.7732 100.61 59.4746C100.077 62.6816 100.427 65.2271 101.683 67.2515C102.62 68.7581 104.21 69.8939 105.94 70.2881C106.383 70.3884 106.827 70.4385 107.263 70.4385C108.28 70.4385 109.257 70.1645 110.097 69.6334C110.398 69.4406 110.631 69.1805 110.788 68.885C114.29 65.856 115.6 66.1294 116.937 66.8072C120.06 68.3873 119.58 71.935 119.227 73.3949C118.54 76.2912 116.687 79.0037 114.027 81.0181C112.707 82.0003 111.27 82.8187 109.74 83.4534C108.983 83.7741 108.2 84.0614 107.407 84.3119C107.286 84.3515 107.15 84.3848 107.007 84.42L107.005 84.4205C106.967 84.4298 106.929 84.4392 106.89 84.4489C106.03 84.656 104.593 85.0034 103.833 86.5835C101.76 90.9096 100.783 93.2146 101.207 98.2456C101.293 99.2912 102.17 100.083 103.197 100.083C103.253 100.083 103.31 100.08 103.37 100.066C104.47 99.976 105.287 99.0039 105.193 97.9015C104.86 93.9729 105.453 92.4663 107.37 88.4576C107.465 88.4268 107.599 88.3941 107.722 88.3639L107.761 88.3544C107.785 88.3486 107.808 88.3429 107.83 88.3374C108.063 88.2806 108.33 88.2138 108.607 88.1269C109.517 87.8429 110.42 87.5089 111.283 87.1448C112.188 86.7694 113.07 86.338 113.924 85.8532C114.375 86.8301 115.187 87.5308 116.247 87.8496C116.68 87.9799 117.133 88.0367 117.593 88.0367C119.33 88.0367 121.177 87.2116 122.373 86.2628C130.78 79.5783 135.953 68.9485 136.203 57.8277C136.443 47.1645 132.23 36.4245 124.637 28.3637C119.203 22.6011 112.96 19.5946 107.047 19.8986C105.943 19.9554 105.093 20.8974 105.15 22.0032C105.207 23.1089 106.147 23.9641 107.25 23.904C113.62 23.5833 119.057 28.2868 121.727 31.1196C128.603 38.4222 132.42 48.1233 132.203 57.7409C131.977 67.6858 127.373 77.1764 119.89 83.126C119.023 83.8109 117.937 84.0814 117.503 84.0347C117.435 83.8654 117.345 83.7102 117.239 83.5709C120.215 81.0632 122.287 77.812 123.113 74.3269C124.293 69.443 122.617 65.1904 118.737 63.2261C116.237 61.96 113.193 61.4255 107.933 66.0589C107.819 66.16 107.718 66.2713 107.632 66.3902C107.347 66.4653 107.052 66.4337 106.83 66.383C106.14 66.2226 105.453 65.7349 105.083 65.1369C104.373 63.9911 104.197 62.3074 104.557 60.1327C104.647 59.5689 104.763 59.0102 104.884 58.4254L104.884 58.4251L104.937 58.1718C105.26 56.6251 105.593 55.0283 105.61 53.2979C105.597 50.7824 104.89 48.3271 103.56 46.1924C102.23 44.0611 100.34 42.3441 98.0901 41.2283C97.6198 40.995 97.102 40.9645 96.6355 41.1032C96.6112 41.0776 96.5861 41.0525 96.5601 41.0279C95.7601 40.2662 94.4935 40.2996 93.7334 41.1047C91.7401 43.2126 89.2601 44.8729 86.5568 45.9118C83.8535 46.9507 80.8968 47.3716 78.0301 47.1378C76.1589 46.9724 74.3137 46.532 72.3621 46.0661L72.3034 46.0521C70.3734 45.5911 68.3734 45.1134 66.3034 44.8996C60.7834 44.335 56.0868 46.1323 53.7434 49.7101C53.3977 50.2403 53.3344 50.8748 53.5171 51.4343C52.5249 51.1312 51.4517 51.6417 51.0701 52.6264C49.9152 55.6019 48.9497 58.572 48.2569 61.231C47.6935 61.4228 47.221 61.8643 47.0101 62.4711C46.5735 63.7239 45.5401 64.7995 44.1701 65.4209C43.1801 65.8719 42.1301 66.0322 41.1601 65.8986C44.8301 62.1471 44.5068 56.6685 44.2201 51.8113C44.1401 50.4817 44.0668 49.2257 44.0668 48.013C44.0501 39.7284 48.3835 31.0762 56.9401 22.3005C60.2868 18.8697 65.4101 14.2931 71.2668 14.1327C72.6135 14.096 73.9901 14.2864 75.4501 14.4902C76.6001 14.6505 77.7901 14.8142 79.0135 14.871C80.7935 14.9512 82.5435 14.7942 84.2301 14.6405L84.2618 14.6377C85.8934 14.4917 87.4366 14.3537 88.9568 14.4267C91.4401 14.547 94.4668 15.5057 95.5135 17.8374C95.9668 18.8463 97.1501 19.2973 98.1568 18.843C99.1635 18.3886 99.6135 17.2027 99.1601 16.1939C97.3735 12.2119 92.8168 10.6017 89.1501 10.4247C87.3526 10.3382 85.5947 10.4965 83.8961 10.6495L83.8701 10.6518C82.2435 10.7988 80.7068 10.9358 79.1935 10.869C78.1749 10.8232 77.1499 10.6812 76.0653 10.531L75.9968 10.5215C74.4401 10.3044 72.8301 10.0806 71.1535 10.1273C63.8435 10.3244 57.9068 15.5692 54.0768 19.4977C44.7601 29.0485 40.0468 38.646 40.0635 48.0164C40.0635 49.2803 40.1392 50.5898 40.2126 51.861L40.2235 52.0485L40.2239 52.0552C40.4904 56.5892 40.7421 60.8722 38.0468 63.3364C37.3668 63.961 35.7768 65.4242 36.5301 67.4085C36.5535 67.4787 36.5835 67.5455 36.6168 67.609C36.8368 68.0399 37.1401 68.4174 37.5135 68.7281C37.8568 69.0154 38.2435 69.2292 38.6668 69.3661ZM65.1435 59.7319C65.1435 61.3001 64.0988 62.5714 62.8101 62.5714C61.5215 62.5714 60.4768 61.3001 60.4768 59.7319C60.4768 58.1637 61.5215 56.8924 62.8101 56.8924C64.0988 56.8924 65.1435 58.1637 65.1435 59.7319ZM76.4768 60.5169C76.4768 62.0851 75.4321 63.3564 74.1435 63.3564C72.8548 63.3564 71.8101 62.0851 71.8101 60.5169C71.8101 58.9487 72.8548 57.6774 74.1435 57.6774C75.4321 57.6774 76.4768 58.9487 76.4768 60.5169Z" fill="black"/>
</g>
<defs>
<clipPath id="clip0_805_38848">
<rect width="180" height="180" rx="24" fill="white"/>
</clipPath>
<clipPath id="clip1_805_38848">
<rect width="200" height="200.436" fill="white" transform="translate(-10 95.2734)"/>
</clipPath>
</defs>
</svg>
