<svg width="180" height="180" viewBox="0 0 180 180" fill="none" xmlns="http://www.w3.org/2000/svg">
<g clip-path="url(#clip0_805_38731)">
<rect width="180" height="180" rx="24" fill="white"/>
<g clip-path="url(#clip1_805_38731)">
<path d="M103.124 95.2734C103.424 98.6474 104.8 106.271 109.924 105.128L110.474 105.963C110.224 111.198 107.577 114.889 103.43 118.714C99.2171 122.539 93.8437 124.838 88.1737 125.242C83.1737 125.609 77.8571 124.41 74.1171 121.049C70.3771 117.689 68.4104 113.032 70.8871 109.04H71.2471C72.3737 109.073 73.4104 108.482 74.3637 107.881C75.5771 107.113 76.6104 103.662 77.3604 102.756C78.3604 101.457 80.2337 96.8302 80.7471 95.2734H103.124V95.2734Z" fill="#FFD39F"/>
<path d="M137.443 188.427C144.826 211.337 149.963 228.909 156.71 251.02C157.043 252.149 158.376 256.141 157.76 257.14C157.346 257.808 156.653 258.236 155.976 258.62C152.276 260.728 148.236 260.905 144.063 261.747L128.573 264.837C106.403 268.822 84.1529 269.798 61.9429 266.043L57.7529 265.552L43.4195 262.803C42.1262 262.555 40.7062 262.225 39.9496 261.132C39.3229 260.237 39.3262 259.058 39.3729 257.965C39.5629 253.623 40.0629 249.313 40.5629 245L44.5062 210.926C46.1962 196.328 47.8896 181.706 50.1929 167.198L50.0329 167.148C46.1562 165.812 42.3396 164.328 38.5196 162.842C37.9929 162.692 37.5196 162.398 37.1462 161.997C36.3962 161.028 37.0396 159.638 37.6829 158.593C43.3629 149.339 48.2196 139.605 52.2029 129.499C55.2429 121.783 58.4162 113.1 65.8362 109.422L81.3429 111.196L110.52 103.289C115.623 104.659 119.81 108.327 123.246 112.352C127.59 117.44 131.033 123.236 133.433 129.486C138.743 143.326 138.746 158.927 145.15 172.296C142.113 173.198 139.03 173.923 135.913 174.474L137.443 188.427Z" fill="black"/>
<path fill-rule="evenodd" clip-rule="evenodd" d="M83.266 123C81.7027 119.93 80.766 116.579 80.516 113.142C88.9427 105.772 97.5327 101.683 106.469 98.6402C107.023 98.4531 107.779 98.3362 108.073 98.844C108.183 99.0945 108.209 99.3751 108.153 99.6457L107.556 104.947C107.276 107.429 106.966 110.002 105.666 112.136C104.293 114.398 101.966 115.888 99.666 117.197C95.156 119.766 90.436 121.951 85.5593 123.725C85.0193 123.922 84.3827 124.106 83.8927 123.805C83.616 123.598 83.3993 123.321 83.266 123ZM75.8693 106.297C75.696 104.279 76.696 102.362 77.666 100.584C78.2493 100.544 77.626 99.4987 76.8527 99.3984C76.0793 99.2982 75.3627 99.816 74.746 100.3C72.2127 102.281 69.746 104.376 67.626 106.795C67.2093 107.139 66.9127 107.603 66.7693 108.124C66.6293 108.645 66.6493 109.196 66.8327 109.704C67.636 113.355 68.9293 116.88 70.676 120.184C70.956 120.715 71.436 121.323 72.0093 121.159C72.2493 121.066 72.456 120.905 72.6093 120.698L76.736 116.021C78.3227 114.227 80.0093 112.173 79.896 109.778C77.946 110.305 76.0427 108.314 75.8693 106.297Z" fill="white"/>
<path fill-rule="evenodd" clip-rule="evenodd" d="M39.3859 257.979C39.5759 253.643 40.0759 249.326 40.5759 245.014L44.5226 210.953C46.1893 196.371 47.8893 181.763 50.1893 167.265L50.0359 167.175C47.3126 166.239 44.6193 165.227 41.9326 164.191L41.7959 164.86L36.8326 224.078C36.6293 226.487 36.3359 229.133 34.4826 230.759C33.7605 231.393 32.8412 231.821 31.9344 232.242C30.5137 232.903 29.124 233.549 28.5726 234.952C27.8647 236.755 28.9842 238.42 30.1354 240.131C30.746 241.039 31.3655 241.96 31.7259 242.923C32.4237 244.767 32.1383 246.813 31.856 248.837C31.5313 251.164 31.2106 253.463 32.3926 255.396C33.7526 257.621 36.5726 258.383 39.1359 258.844L39.3859 257.979ZM124.556 241.306C121.873 219.615 120.223 197.865 119.603 176.05L136.056 175.536C136.858 182.798 137.66 190.061 138.463 197.326C140.385 214.729 142.308 232.139 144.229 249.554C144.733 254.103 145.126 259.114 142.486 262.852C141.473 264.286 140.083 265.411 138.469 266.096C136.856 266.781 135.086 267.005 133.353 266.738C131.619 266.47 129.996 265.725 128.663 264.586C127.329 263.447 126.339 261.961 125.803 260.287C125.608 259.677 125.471 259.042 125.335 258.41C125.051 257.095 124.77 255.79 123.973 254.731C123.133 253.614 121.847 252.951 120.572 252.294C119.113 251.541 117.668 250.796 116.919 249.387C115.883 247.426 116.729 244.86 118.399 243.417C120.069 241.974 122.353 241.443 124.556 241.306Z" fill="#FFD39F"/>
<path fill-rule="evenodd" clip-rule="evenodd" d="M84.4997 125.966C83.9764 125.966 83.4031 125.852 82.8497 125.512C82.7997 125.481 82.7531 125.448 82.7064 125.415C82.1597 125.01 81.7297 124.469 81.4564 123.848C80.3186 121.604 79.4985 119.245 79.0045 116.805C78.7904 117.055 78.5851 117.287 78.3964 117.501L74.3131 122.124C73.9464 122.592 73.4598 122.956 72.9064 123.173C72.8431 123.196 72.7798 123.22 72.7164 123.237C72.5664 123.273 72.3064 123.33 71.9798 123.33C71.1764 123.33 69.9831 122.986 69.0731 121.262C67.5121 118.311 66.298 115.188 65.4518 111.958C59.8821 115.473 57.1109 122.527 54.4264 129.363L54.0764 130.252C50.0631 140.437 45.1231 150.332 39.3998 159.659C39.0198 160.277 38.8898 160.641 38.8464 160.828C38.9198 160.872 38.9998 160.908 39.0864 160.932C39.1464 160.949 39.2031 160.969 39.2598 160.989L39.3398 161.019L39.3934 161.04C42.413 162.214 45.5158 163.421 48.6195 164.535C50.0495 155.778 51.7126 147.054 53.7364 138.446C53.9897 137.371 55.0631 136.699 56.1431 136.956C57.2164 137.21 57.8831 138.289 57.6297 139.368C52.1624 162.627 49.3393 186.848 46.6088 210.275L46.5997 210.353L46.5031 211.188L42.5597 245.262L42.5577 245.28C42.0716 249.48 41.5695 253.82 41.3797 258.083C41.3564 258.614 41.3131 259.61 41.5964 260.011C41.9297 260.485 43.1164 260.725 43.8231 260.866L55.4264 263.091C56.5097 263.298 57.2231 264.35 57.0131 265.436C56.8364 266.391 55.9997 267.059 55.0564 267.059C54.9331 267.059 54.8064 267.046 54.6797 267.022L43.0564 264.794C41.7431 264.53 39.5797 264.093 38.3264 262.309C37.9353 261.75 37.6971 261.158 37.5559 260.56C34.9093 259.973 32.2236 258.931 30.6964 256.433C29.1331 253.884 29.5297 251.041 29.8797 248.536C30.1364 246.708 30.3764 244.981 29.8631 243.618C29.5945 242.895 29.0809 242.128 28.5357 241.313L28.5357 241.313L28.4864 241.24L28.4863 241.24C27.213 239.345 25.6298 236.99 26.7197 234.208C27.5714 232.054 29.5453 231.131 31.1304 230.39L31.1397 230.386C31.9364 230.015 32.6864 229.665 33.1764 229.237C34.3931 228.175 34.6597 226.107 34.8464 223.899L39.7423 165.484C39.1217 165.243 38.504 165.003 37.8898 164.763L37.8831 164.76C37.0464 164.5 36.2898 164.025 35.6931 163.38C35.6531 163.337 35.6164 163.294 35.5798 163.247C34.4398 161.774 34.5798 159.863 35.9931 157.561C41.5931 148.435 46.4264 138.75 50.3564 128.782L50.7031 127.897C53.7164 120.22 57.1331 111.521 64.9631 107.643C64.9957 107.626 65.0285 107.611 65.0615 107.597C65.3276 106.823 65.7693 106.116 66.3464 105.538C68.5798 103.089 71.0498 100.838 73.6931 98.8435C74.3798 98.309 75.6398 97.3302 77.2831 97.5507C78.5764 97.7244 80.4264 99.0272 80.3731 100.681C80.3531 101.282 80.0998 101.813 79.6898 102.187L79.6891 102.189L79.6891 102.189C79.5926 102.355 79.4962 102.522 79.3998 102.692L79.3947 102.701C78.6762 103.947 77.9333 105.237 78.0198 106.28C78.0598 106.764 78.4098 107.312 80.6531 108.013C81.289 108.212 81.7724 108.709 81.9661 109.326C88.7645 103.938 96.2688 99.9936 105.83 96.739C107.893 96.0408 109.236 96.8492 109.806 97.8347C109.843 97.9015 109.876 97.9683 109.906 98.0351C110.17 98.6398 110.246 99.2945 110.133 99.9426L109.973 101.371C110.311 101.274 110.679 101.264 111.043 101.362C115.8 102.638 120.293 105.812 124.773 111.06C129.276 116.335 132.82 122.298 135.306 128.779C137.77 135.203 139.126 142.017 140.436 148.608L140.447 148.661L140.447 148.661L140.447 148.661L140.447 148.661L140.447 148.661L140.447 148.661C142.053 156.736 143.57 164.365 146.96 171.441C147.213 171.972 147.223 172.584 146.983 173.122C146.743 173.659 146.283 174.064 145.723 174.231C143.229 174.964 140.72 175.585 138.198 176.093L139.551 188.458C144.766 204.662 148.886 218.288 153.23 232.655L153.37 233.119C155.043 238.661 156.776 244.39 158.62 250.433C158.66 250.567 158.703 250.71 158.756 250.877C159.88 254.539 160.323 256.79 159.46 258.193C158.8 259.262 157.823 259.874 156.96 260.365C153.859 262.131 150.588 262.669 147.423 263.19L147.416 263.191L147.303 263.209L147.302 263.21C146.365 263.364 145.401 263.523 144.456 263.715C144.4 263.725 144.344 263.733 144.288 263.739C144.226 263.833 144.162 263.927 144.096 264.019C142.866 265.756 141.183 267.113 139.226 267.944C137.806 268.546 136.293 268.85 134.766 268.85C134.183 268.85 133.6 268.806 133.016 268.716C131.354 268.46 129.778 267.841 128.391 266.907C115.216 269.246 102.701 270.416 90.6564 270.416C80.6931 270.416 71.0531 269.618 61.6131 268.021C60.5231 267.838 59.7898 266.802 59.9731 265.713C60.1564 264.621 61.1864 263.882 62.2764 264.069C81.9075 267.388 102.469 267.177 125.037 263.418C124.551 262.629 124.159 261.781 123.873 260.889C123.65 260.181 123.5 259.493 123.36 258.825C123.11 257.649 122.89 256.633 122.36 255.925C121.796 255.18 120.753 254.639 119.646 254.068L119.641 254.065C118.019 253.227 116.182 252.278 115.14 250.316C113.743 247.667 114.58 244.046 117.09 241.888C118.44 240.725 120.196 239.944 122.326 239.553C119.877 219.09 118.327 198.301 117.712 177.707C114.867 177.589 112.016 177.329 109.163 176.927C108.153 176.783 107.413 175.904 107.443 174.885L108.353 142.876C108.383 141.77 109.303 140.888 110.41 140.928C111.513 140.958 112.383 141.884 112.353 142.989L111.493 173.188C121.89 174.431 132.26 173.696 142.373 171C139.427 164.058 137.947 156.614 136.511 149.39L136.51 149.383C135.233 142.956 133.913 136.315 131.57 130.212C129.246 124.159 125.936 118.59 121.73 113.662C117.793 109.052 113.956 106.293 110.006 105.234C109.847 105.191 109.697 105.13 109.559 105.054L109.546 105.167C109.273 107.599 108.93 110.623 107.376 113.175C105.72 115.904 103.04 117.578 100.656 118.934C96.0597 121.553 91.2131 123.794 86.2431 125.602C85.9131 125.729 85.2597 125.966 84.4997 125.966ZM82.6031 113.986C82.9164 116.719 83.6931 119.351 84.9164 121.827C89.6597 120.1 94.2897 117.955 98.6797 115.456C100.626 114.347 102.8 113.008 103.96 111.097C105.054 109.304 105.315 106.985 105.568 104.741V104.741L105.57 104.726L105.996 100.928C96.5631 104.252 89.2664 108.324 82.6031 113.986ZM146.77 259.232C146.555 259.267 146.338 259.302 146.121 259.338C146.919 255.811 146.514 252.099 146.214 249.346L146.213 249.341L141.778 208.808C144.415 217.327 146.868 225.443 149.397 233.81L149.398 233.812L149.54 234.281C151.213 239.827 152.946 245.559 154.786 251.589C154.823 251.712 154.873 251.873 154.93 252.057C155.713 254.615 155.913 255.751 155.92 256.246C155.692 256.47 155.3 256.695 155.027 256.852L154.983 256.877C152.508 258.289 149.734 258.745 146.798 259.227L146.77 259.232ZM135.536 189.043C135.427 188.703 135.412 188.355 135.479 188.027L134.25 176.792C130.097 177.429 125.916 177.76 121.718 177.781C122.351 198.859 123.973 220.136 126.54 241.056C126.606 241.604 126.446 242.155 126.093 242.583C125.74 243.007 125.23 243.267 124.68 243.301C122.47 243.438 120.793 243.986 119.7 244.928C118.61 245.866 118.153 247.44 118.68 248.435C119.131 249.287 120.215 249.848 121.469 250.496L121.483 250.503L121.498 250.511C122.881 251.227 124.447 252.038 125.556 253.51C126.622 254.925 126.969 256.546 127.275 257.979L127.276 257.983L127.295 258.071L127.295 258.071L127.296 258.071L127.296 258.072C127.418 258.64 127.534 259.178 127.69 259.67C128.11 260.983 128.89 262.155 129.94 263.057C130.99 263.956 132.27 264.544 133.633 264.754C135 264.965 136.393 264.791 137.666 264.253C138.94 263.712 140.033 262.83 140.833 261.701C142.996 258.644 142.733 254.318 142.236 249.778L135.618 189.296L135.536 189.043ZM47.9767 168.571C45.8344 182.363 44.2205 196.207 42.6378 209.784L42.6264 209.882L38.5864 244.794L38.5725 244.914C38.1393 248.666 37.6931 252.53 37.4638 256.405C36.0321 255.999 34.7481 255.385 34.1031 254.332C33.2931 253.009 33.5464 251.191 33.8397 249.087L33.8397 249.087L33.8423 249.068C34.1384 246.935 34.4739 244.517 33.6064 242.205C33.1631 241.023 32.4731 239.994 31.8031 238.998C30.7564 237.441 30.1397 236.439 30.4397 235.678C30.7028 235.007 31.6847 234.549 32.8234 234.019L32.8264 234.017C33.7931 233.566 34.8864 233.055 35.8031 232.257C38.1497 230.212 38.5864 227.172 38.8331 224.233L43.6319 166.977C45.0724 167.521 46.5227 168.056 47.9767 168.571ZM68.9231 109.286C68.8831 109.139 68.8631 108.992 68.8698 108.842C68.9398 108.665 69.0498 108.501 69.1898 108.364C69.2198 108.334 69.2464 108.307 69.2731 108.277C70.9331 106.453 72.7331 104.75 74.6464 103.19C74.2131 104.235 73.9398 105.371 74.0431 106.61C74.2631 109.243 76.2231 110.556 77.8631 111.26C77.4398 112.46 76.4331 113.672 75.4064 114.835L72.1598 118.51C70.7231 115.62 69.6464 112.563 68.9531 109.406L68.9231 109.286ZM77.4998 129.347C78.5123 129.347 79.3331 128.524 79.3331 127.509C79.3331 126.494 78.5123 125.672 77.4998 125.672C76.4873 125.672 75.6664 126.494 75.6664 127.509C75.6664 128.524 76.4873 129.347 77.4998 129.347ZM77.9997 140.203C77.9997 141.218 77.1789 142.041 76.1664 142.041C75.1539 142.041 74.3331 141.218 74.3331 140.203C74.3331 139.189 75.1539 138.366 76.1664 138.366C77.1789 138.366 77.9997 139.189 77.9997 140.203Z" fill="black"/>
</g>
<path d="M109.547 92.4073C110.737 94.1812 111.974 96.0051 113.744 97.2011C115.514 98.397 117.971 98.8313 119.774 97.6888C121.774 96.416 123.027 93.346 125.381 93.6801C126.311 93.8171 127.047 94.5052 127.747 95.1433C129.704 96.9572 131.967 98.7344 134.631 98.9014C137.294 99.0685 140.214 96.8303 139.751 94.1979C139.587 93.2692 139.041 92.414 139.051 91.472C139.067 89.8284 140.717 88.7126 141.431 87.2361C143.144 83.7518 139.504 79.1953 141.497 75.8614C142.111 74.8425 143.147 74.1677 144.037 73.3793C148.457 69.4541 148.874 61.8275 144.904 57.4413C143.434 55.8178 141.437 54.5484 140.654 52.5006C140.167 51.2278 140.221 49.8281 140.244 48.4618C140.371 40.6582 139.161 32.6708 135.451 25.8059C131.741 18.9409 126.997 17.0502 119.351 15.5703L113.374 11.8489C111.507 8.87573 107.967 7.44595 104.581 6.54399C93.9141 3.71116 80.5941 0.651179 70.4908 5.07747C60.3875 9.50376 51.9108 17.7216 47.5308 27.8637C45.2708 33.0984 43.9975 38.9311 40.3075 43.2738C37.1608 46.9786 32.5875 49.1834 29.1708 52.6275C25.7541 56.0717 23.7341 61.9812 26.8608 65.7026C27.4941 66.4576 28.3208 67.0956 28.6808 68.0176C29.9175 71.1812 25.1708 73.2156 23.6408 76.2489C22.2108 79.0884 23.9008 82.5325 26.0508 84.8743C28.2008 87.216 30.9175 89.2171 32.0908 92.1668C32.9608 94.3582 33.0208 97.1075 34.9108 98.5139C37.0275 100.091 40.0541 98.9616 42.6275 99.5462C45.2008 100.131 47.0475 102.366 49.0541 104.113C51.0608 105.86 54.0375 107.216 56.2908 105.803C57.4908 105.048 58.1808 103.662 59.3741 102.9C61.7775 101.363 64.8475 102.917 67.5641 103.782C70.2808 104.647 74.3708 103.745 74.2075 100.892" fill="black"/>
<path d="M103.214 100.093C102.834 95.5198 103.68 91.5979 105.667 87.4623C106.117 86.5269 107.084 86.5369 108.04 86.2329C108.89 85.9657 109.724 85.6583 110.547 85.3109C112.217 84.6161 113.797 83.7175 115.247 82.6384C118.12 80.4637 120.36 77.4104 121.2 73.8694C121.964 70.6591 121.427 66.8374 117.867 65.0302C115.357 63.7607 113.107 64.2117 109.284 67.579L108.15 64.8765C109.344 59.0204 109.83 53.0374 109.6 47.0644C109.494 44.2583 105.7 39.8488 103.11 38.7764L98.6238 34.1998C96.2904 29.523 79.4138 28.0164 74.4071 29.4695C65.7138 32.299 63.1904 33.7956 60.6738 37.1896C58.1571 40.5837 56.8038 44.6826 55.4938 48.7013L52.9371 53.3514C50.7871 58.8935 49.4938 63.8977 49.1671 66.9276C48.3438 74.5575 49.8804 83.036 55.7038 88.4711C58.8071 91.3641 62.6504 92.7872 66.7604 93.5121C71.0471 94.2704 75.6471 94.9619 79.8071 93.2582C79.5871 96.7357 79.5538 99.5519 79.7138 103.033" fill="#FFD39F"/>
<path fill-rule="evenodd" clip-rule="evenodd" d="M47.7394 105.629C49.486 107.149 51.846 108.405 54.186 108.405C55.266 108.405 56.3427 108.138 57.346 107.486C58.196 106.952 58.8027 106.264 59.336 105.656L59.3553 105.634C59.7348 105.204 60.092 104.8 60.4427 104.577C61.6294 103.818 63.5227 104.483 65.526 105.191C65.9927 105.358 66.476 105.525 66.9527 105.679C69.516 106.497 72.5794 106.076 74.3994 104.66C75.6494 103.688 76.286 102.305 76.1994 100.765C76.136 99.6592 75.1927 98.814 74.0894 98.8775C72.986 98.9409 72.1427 99.8863 72.206 100.992C72.216 101.152 72.2027 101.293 71.946 101.49C71.1727 102.094 69.4394 102.261 68.166 101.857C67.736 101.72 67.2994 101.567 66.856 101.41L66.8471 101.406C64.2953 100.508 61.1194 99.3907 58.296 101.196C57.4706 101.722 56.8774 102.395 56.3545 102.989L56.3394 103.006C55.9494 103.451 55.5827 103.868 55.226 104.092C53.966 104.884 51.876 103.908 50.3627 102.589C49.981 102.257 49.6052 101.904 49.2072 101.53L49.2071 101.53L49.2066 101.53L49.2064 101.529L49.1394 101.466L49.1285 101.456C47.4778 99.9087 45.6104 98.158 43.066 97.5813C41.8194 97.2974 40.556 97.3341 39.4427 97.3675L39.4281 97.3679C38.0376 97.4079 36.8335 97.4424 36.0994 96.8931C35.35 96.3324 35.0333 95.1347 34.667 93.7499L34.666 93.7463C34.466 92.9813 34.256 92.1929 33.946 91.4112C32.926 88.8523 31.056 87.0217 29.246 85.2512L29.0582 85.0661C28.5168 84.5331 28.0007 84.025 27.5194 83.5007C25.9394 81.7803 24.4427 79.0811 25.4227 77.1369C25.8427 76.3051 26.7394 75.4298 27.606 74.5846C29.376 72.8609 31.7994 70.4958 30.5394 67.2721C30.1394 66.2499 29.446 65.525 28.8894 64.9437C28.7027 64.7499 28.5294 64.5662 28.386 64.3958C26.0927 61.6699 27.7427 56.8895 30.5827 54.0266C32.0085 52.5877 33.6674 51.3723 35.4263 50.0837L35.4263 50.0836L35.4263 50.0836L35.4294 50.0814L35.4317 50.0797L35.4317 50.0797L35.4317 50.0797C37.651 48.4533 39.9434 46.7734 41.8227 44.5594C44.6756 41.2031 46.1621 37.1339 47.6004 33.1968L47.606 33.1813L47.6541 33.0502C48.1924 31.581 48.7476 30.0657 49.3594 28.6481C53.4694 19.1308 61.4627 11.2035 71.286 6.90084C80.6427 2.80193 93.1127 5.56126 104.063 8.47092C106.553 9.1357 110.049 10.3149 111.676 12.9072C112.263 13.8426 113.496 14.1232 114.433 13.5353C115.366 12.9473 115.646 11.708 115.059 10.7726C112.683 6.9877 108.229 5.43766 105.086 4.59917C93.4827 1.51914 80.2194 -1.38384 69.6827 3.23287C58.9427 7.93977 50.196 16.6253 45.6894 27.0613C45.0127 28.6281 44.4194 30.2483 43.8494 31.8117C42.4694 35.5899 41.166 39.1576 38.776 41.9704C37.2078 43.8179 35.2107 45.282 33.0999 46.8295L33.0998 46.8296L33.066 46.8544C31.2594 48.1772 29.3927 49.5469 27.7427 51.2105C25.7194 53.2483 24.2094 55.9475 23.6027 58.6099C22.8694 61.8236 23.4794 64.7967 25.3194 66.9881C25.5265 67.2385 25.7365 67.4582 25.9391 67.6701L25.9392 67.6702L25.996 67.7297C26.3594 68.1072 26.6994 68.4613 26.8094 68.7453C27.0594 69.3867 26.426 70.1483 24.8094 71.7251L24.7963 71.7378C23.7495 72.7603 22.5631 73.9191 21.846 75.343C20.5994 77.815 20.6627 81.974 24.5694 86.23C25.1794 86.8947 25.8227 87.5261 26.446 88.1341L26.4548 88.1427C28.0316 89.6862 29.5207 91.1439 30.2227 92.9078C30.4419 93.4637 30.6115 94.1024 30.7907 94.7778L30.7908 94.7779L30.7908 94.7781L30.7909 94.7782L30.7927 94.7852C31.2794 96.6326 31.8327 98.7271 33.7094 100.124C35.5588 101.5 37.6739 101.44 39.5443 101.387H39.5444L39.556 101.386L39.5793 101.386C40.534 101.359 41.4321 101.334 42.1794 101.503C43.6727 101.844 44.9994 103.087 46.4027 104.406L46.5475 104.541L46.5477 104.542C46.9349 104.903 47.3306 105.273 47.7394 105.629ZM134.503 100.919C134.639 100.929 134.779 100.932 134.919 100.932C136.919 100.932 138.949 100.027 140.299 98.5234C141.506 97.1738 142.009 95.5235 141.719 93.8766C141.623 93.3287 141.456 92.851 141.306 92.4301C141.179 92.0727 141.049 91.7052 141.049 91.5181C141.053 91.1675 141.506 90.5964 141.946 90.042L141.946 90.0416C142.376 89.5004 142.863 88.8857 143.226 88.1475C144.374 85.813 143.828 83.3821 143.345 81.2334L143.343 81.2224L143.341 81.213C142.945 79.4531 142.604 77.9368 143.213 76.9197C143.493 76.4554 144.036 76.0077 144.613 75.5367C144.866 75.3296 145.119 75.1225 145.363 74.9053C147.866 72.6905 149.416 69.3466 149.616 65.7321C149.819 62.1109 148.643 58.6066 146.389 56.1178C145.879 55.5566 145.339 55.0522 144.816 54.5678C143.833 53.6558 142.903 52.7906 142.526 51.8085C142.207 50.9693 142.226 49.8878 142.246 48.7459L142.246 48.7351L142.249 48.518C142.399 39.2879 140.706 31.3306 137.216 24.8732C133.226 17.4905 127.993 15.2223 119.736 13.6255C118.649 13.415 117.603 14.1265 117.393 15.2122C117.183 16.2979 117.893 17.3502 118.976 17.5607C126.343 18.9871 130.426 20.7309 133.696 26.7807C136.856 32.6268 138.389 39.9159 138.249 48.4478L138.246 48.6583L138.246 48.6818C138.222 50.0858 138.196 51.6769 138.793 53.2382C139.503 55.0923 140.883 56.3751 142.099 57.5042C142.583 57.9518 143.036 58.3727 143.429 58.807C144.966 60.5074 145.766 62.9494 145.626 65.5082C145.486 68.0605 144.426 70.3889 142.719 71.8988C142.564 72.0366 142.404 72.1688 142.243 72.301C142.19 72.345 142.136 72.3891 142.083 72.4333C141.306 73.068 140.426 73.7896 139.786 74.8519C138.349 77.2504 138.929 79.826 139.443 82.101C139.816 83.7512 140.166 85.308 139.643 86.3703C139.469 86.7244 139.153 87.1252 138.819 87.5462C138.039 88.5249 137.073 89.7476 137.056 91.4914C137.056 92.3899 137.326 93.1514 137.543 93.7627L137.543 93.763L137.553 93.7924C137.653 94.079 137.747 94.3516 137.786 94.5647C137.879 95.0892 137.586 95.5469 137.326 95.8409C136.706 96.5324 135.653 96.9767 134.763 96.9199C132.709 96.7896 130.756 95.2128 129.106 93.6862L129.066 93.6494L129.057 93.6414C128.265 92.9139 127.184 91.9216 125.666 91.7152C123.113 91.3544 121.466 93.1817 120.266 94.518C119.719 95.126 119.203 95.7005 118.709 96.0146C117.586 96.7294 115.929 96.2785 114.866 95.5602C113.392 94.5631 112.287 92.9135 111.218 91.3192L111.213 91.311C110.596 90.3923 109.353 90.1451 108.436 90.7631C107.519 91.3812 107.273 92.6272 107.889 93.5459L107.908 93.5736L107.908 93.5736C109.13 95.3942 110.514 97.455 112.629 98.8841C115.286 100.678 118.513 100.882 120.853 99.3986C121.808 98.788 122.564 97.9474 123.234 97.203L123.236 97.2005L123.251 97.1842C123.943 96.4142 124.656 95.6208 125.113 95.6872C125.4 95.7236 125.943 96.2225 126.345 96.5923L126.345 96.5924L126.356 96.6025L126.389 96.6326C128.546 98.6336 131.199 100.708 134.503 100.919ZM55.4927 50.7094C55.286 50.7094 55.076 50.676 54.8727 50.6092C53.8227 50.2651 53.2494 49.1327 53.5927 48.0804C54.8727 44.1485 56.326 39.6921 59.0694 35.9941C60.8394 33.6056 62.8827 31.9219 65.896 30.3585C71.2427 27.5892 77.3694 26.42 83.6161 26.9745C87.9061 27.3553 98.136 28.735 100.413 33.3016C100.906 34.2904 100.506 35.4963 99.5194 35.9908C98.5327 36.4852 97.3294 36.0843 96.8361 35.0955C96.0861 33.5922 90.8027 31.638 83.2627 30.9665C77.7727 30.4788 72.4027 31.501 67.7327 33.9196C65.2594 35.199 63.6794 36.4918 62.2794 38.386C59.9264 41.559 58.6398 45.5068 57.3967 49.3212L57.3967 49.3212L57.396 49.3231C57.1194 50.1716 56.336 50.7094 55.4927 50.7094ZM111.619 47.0014C111.835 52.7507 111.401 58.5296 110.328 64.1911C114.167 61.6191 116.64 62.1663 118.736 63.2266C122.616 65.1909 124.293 69.4435 123.113 74.3274C122.213 78.1223 119.836 81.64 116.423 84.2223C114.829 85.4082 113.103 86.3903 111.283 87.1453C110.419 87.5094 109.516 87.8435 108.606 88.1274C108.329 88.2143 108.063 88.2811 107.829 88.3379C107.795 88.3464 107.759 88.3553 107.722 88.3644C107.598 88.3946 107.464 88.4273 107.369 88.4581C105.453 92.4668 104.859 93.9734 105.193 97.902C105.286 99.0044 104.469 99.9732 103.369 100.067C103.309 100.08 103.253 100.083 103.196 100.083C102.169 100.083 101.293 99.295 101.206 98.2461C100.783 93.2151 101.759 90.9135 103.833 86.5841C104.593 85.004 106.029 84.6565 106.889 84.4494C106.929 84.4395 106.968 84.43 107.006 84.4205C107.15 84.3853 107.285 84.352 107.406 84.3124C108.199 84.0619 108.983 83.7746 109.739 83.4539C111.269 82.8192 112.706 82.0008 114.026 81.0186C116.686 79.0042 118.539 76.295 119.226 73.3954C119.579 71.9355 120.059 68.3878 116.936 66.8077C115.573 66.1162 114.236 65.8456 110.573 69.0727C109.743 69.8042 108.479 69.7207 107.749 68.8889C107.216 68.2806 107.117 67.4399 107.427 66.746C106.532 66.3984 105.992 65.4466 106.193 64.476C107.359 58.7836 107.839 52.9509 107.619 47.1417C107.559 45.3277 104.463 41.4994 102.363 40.6308C101.343 40.2066 100.856 39.0374 101.279 38.0118C101.703 36.9896 102.869 36.5019 103.893 36.9261C105.456 37.5742 107.316 39.1008 108.863 41.0083C109.859 42.2377 111.539 44.6462 111.619 47.0014ZM62.8094 62.5719C64.0981 62.5719 65.1427 61.3006 65.1427 59.7324C65.1427 58.1642 64.0981 56.8929 62.8094 56.8929C61.5207 56.8929 60.4761 58.1642 60.4761 59.7324C60.4761 61.3006 61.5207 62.5719 62.8094 62.5719ZM76.4761 60.5174C76.4761 62.0856 75.4314 63.3569 74.1428 63.3569C72.8541 63.3569 71.8094 62.0856 71.8094 60.5174C71.8094 58.9492 72.8541 57.6779 74.1428 57.6779C75.4314 57.6779 76.4761 58.9492 76.4761 60.5174ZM77.7161 101.126C77.7661 102.201 78.6494 103.04 79.7127 103.04C79.7428 103.04 79.7727 103.04 79.8094 103.026C80.9127 102.976 81.7661 102.038 81.7161 100.932C81.5561 97.4844 81.5928 96.7428 81.8061 93.3822C81.8494 92.694 81.5361 92.0326 80.9761 91.6283C80.4161 91.2275 79.6894 91.1406 79.0527 91.4012C75.5394 92.841 71.5627 92.3165 67.1094 91.5382C62.7527 90.7698 59.5628 89.33 57.0694 87.005C52.4061 82.6555 50.2527 75.4164 51.1561 67.1485C51.4294 64.6731 52.5294 59.9395 54.8027 54.0801C55.2027 53.0478 54.6927 51.8853 53.6628 51.4844C52.6327 51.0836 51.4727 51.5947 51.0727 52.6269C49.0227 57.9084 47.5694 63.1732 47.1794 66.7109C46.1394 76.2549 48.7494 84.72 54.3427 89.9414C57.3861 92.7775 61.3361 94.5915 66.4194 95.4901C69.5661 96.0413 73.6461 96.7528 77.6527 95.9778C77.5861 97.5913 77.6094 98.7739 77.7161 101.126Z" fill="black"/>
</g>
<defs>
<clipPath id="clip0_805_38731">
<rect width="180" height="180" rx="24" fill="white"/>
</clipPath>
<clipPath id="clip1_805_38731">
<rect width="200" height="200.436" fill="white" transform="translate(-10 95.2734)"/>
</clipPath>
</defs>
</svg>
