<svg width="180" height="180" viewBox="0 0 180 180" fill="none" xmlns="http://www.w3.org/2000/svg">
<g clip-path="url(#clip0_805_38783)">
<rect width="180" height="180" rx="24" fill="white"/>
<g clip-path="url(#clip1_805_38783)">
<path d="M103.124 95.2734C103.424 98.6474 104.8 106.271 109.924 105.128L110.474 105.963C110.224 111.198 107.577 114.889 103.43 118.714C99.2171 122.539 93.8437 124.838 88.1737 125.242C83.1737 125.609 77.8571 124.41 74.1171 121.049C70.3771 117.689 68.4104 113.032 70.8871 109.04H71.2471C72.3737 109.073 73.4104 108.482 74.3637 107.881C75.5771 107.113 78.0804 103.962 78.8304 103.057C79.8304 101.758 80.2371 96.8302 80.7504 95.2734H103.124V95.2734Z" fill="#FFD39F"/>
<path d="M110.63 103.262C115.734 104.628 119.92 108.303 123.357 112.311C127.7 117.399 131.144 123.195 133.544 129.445C138.854 143.285 138.857 158.886 145.26 172.255C141.784 173.287 138.247 174.089 134.667 174.66L137.554 188.38C144.937 211.29 150.074 228.861 156.82 250.973C157.154 252.102 158.487 256.094 157.87 257.093C157.457 257.761 156.764 258.189 156.087 258.573C152.387 260.681 148.347 260.858 144.174 261.7L128.684 264.79C106.514 268.775 84.2635 269.75 62.0535 265.995L57.8635 265.504L43.5302 262.755C42.2368 262.508 40.8168 262.177 40.0602 261.085C39.4335 260.19 39.4368 259.01 39.4835 257.918C39.6735 253.575 40.1735 249.266 40.6735 244.953L44.6168 210.879C46.3335 196.324 48.0002 181.709 50.3335 167.204L50.1735 167.137C46.2968 165.801 42.4802 164.318 38.6602 162.831C38.1335 162.681 37.6602 162.387 37.2868 161.986C36.5368 161.017 37.1802 159.628 37.8235 158.582C43.5002 149.329 48.3535 139.594 52.3335 129.489C55.3735 121.772 58.5468 113.09 65.9668 109.412L74.3768 105.884C73.6635 107.103 74.5668 110.581 75.5302 111.613C76.4935 112.645 77.8635 113.187 79.1968 113.618C83.6702 115.014 88.5302 115.385 93.0702 114.286C97.6102 113.187 101.854 110.518 104.52 106.652C105.187 105.704 105.744 104.675 106.57 103.87C107.397 103.065 108.57 102.497 109.694 102.747L110.63 103.262Z" fill="black"/>
<path fill-rule="evenodd" clip-rule="evenodd" d="M36.8443 224.069L41.8076 164.851L50.631 164.66C48.1143 180.004 46.321 195.48 44.531 210.931L40.5876 245.005L40.5858 245.021C40.0864 249.328 39.5874 253.632 39.3976 257.97L39.1476 258.835C36.5843 258.374 33.7643 257.612 32.4043 255.387C31.2146 253.45 31.5365 251.146 31.8621 248.814C32.1442 246.794 32.4292 244.754 31.7376 242.914C31.3772 241.951 30.7577 241.03 30.1471 240.122C28.9959 238.411 27.8764 236.746 28.5843 234.943C29.1432 233.531 30.5569 232.872 31.9871 232.205C32.8857 231.786 33.7907 231.364 34.4943 230.75C36.3176 229.16 36.641 226.488 36.8443 224.069ZM124.554 241.3C121.894 219.62 120.264 197.866 119.668 176.042L136.121 175.54L144.221 249.561C144.718 254.111 145.104 259.126 142.461 262.86C141.448 264.29 140.054 265.413 138.441 266.097C136.828 266.782 135.058 267.003 133.324 266.735C131.594 266.468 129.971 265.72 128.638 264.581C127.304 263.442 126.318 261.952 125.781 260.278C125.588 259.668 125.452 259.035 125.317 258.405C125.035 257.087 124.756 255.781 123.958 254.719C123.119 253.607 121.836 252.944 120.563 252.287C119.104 251.533 117.657 250.786 116.908 249.374C115.874 247.417 116.721 244.848 118.394 243.408C120.068 241.968 122.351 241.437 124.554 241.3Z" fill="#FFD39F"/>
<path fill-rule="evenodd" clip-rule="evenodd" d="M103.526 103.449C103.621 103.619 103.717 103.79 103.816 103.961C103.623 104.238 103.444 104.511 103.273 104.772C103.106 105.026 102.94 105.28 102.756 105.544C100.47 108.858 96.7264 111.347 92.4831 112.369C88.5031 113.327 84.0764 113.11 79.6931 111.741C78.6131 111.39 77.5231 110.972 76.8731 110.274C76.492 109.866 76.2915 109.268 76.3902 108.9C77.1636 108.35 77.7677 107.803 78.2129 107.4L78.2298 107.385L78.3465 107.278C79.9898 105.791 80.4864 104.913 80.9231 103.997C80.9731 103.89 81.0231 103.787 81.0798 103.677C81.5931 102.698 81.2198 101.485 80.2431 100.967C79.2665 100.453 78.0564 100.827 77.5398 101.806C77.4564 101.966 77.3831 102.116 77.3098 102.27C77.0804 102.754 76.892 103.148 75.9748 104.017C75.3927 103.343 74.4101 103.119 73.5764 103.533L68.1798 106.205C67.5236 106.531 67.1237 107.169 67.0713 107.851C66.4851 107.399 65.6705 107.291 64.9631 107.642C57.1331 111.52 53.7164 120.219 50.7031 127.896L50.3564 128.781C46.4264 138.749 41.5931 148.434 35.9931 157.56C34.5798 159.862 34.4398 161.773 35.5798 163.246C35.6164 163.293 35.6531 163.336 35.6931 163.38C36.2898 164.024 37.0464 164.499 37.8831 164.759L37.8898 164.763C38.504 165.002 39.1217 165.243 39.7423 165.484L34.8464 223.898C34.6597 226.106 34.3931 228.174 33.1764 229.236C32.6864 229.664 31.9364 230.015 31.1397 230.385L31.1304 230.39C29.5453 231.131 27.5714 232.053 26.7197 234.207C25.6298 236.99 27.213 239.345 28.4863 241.239L28.4864 241.239L28.5357 241.313L28.5357 241.313C29.0809 242.127 29.5945 242.894 29.8631 243.617C30.3764 244.98 30.1364 246.707 29.8797 248.535C29.5297 251.04 29.1331 253.883 30.6964 256.432C32.2243 258.931 34.9117 259.973 37.5594 260.56C37.7007 261.158 37.9389 261.75 38.3298 262.308C39.5831 264.092 41.7464 264.53 43.0598 264.794L55.2498 267.132C55.3764 267.155 55.5031 267.169 55.6264 267.169C56.5664 267.169 57.4064 266.501 57.5864 265.545C57.7964 264.459 57.0831 263.407 55.9998 263.2L43.8264 260.865C43.1198 260.725 41.9331 260.484 41.5998 260.01C41.3164 259.609 41.3598 258.613 41.3831 258.082C41.5728 253.819 42.075 249.479 42.561 245.279L42.561 245.279L42.5631 245.261L46.5064 211.187L46.6031 210.352L46.6122 210.274C49.3427 186.847 52.1658 162.626 57.6331 139.368C57.8864 138.289 57.2198 137.209 56.1464 136.956C55.0664 136.698 53.9931 137.37 53.7398 138.446C51.7159 147.054 50.0528 155.778 48.6227 164.535C45.5179 163.421 42.4138 162.214 39.3932 161.039L39.3398 161.018L39.2598 160.988C39.2031 160.968 39.1464 160.948 39.0864 160.931C38.9998 160.908 38.9198 160.871 38.8464 160.827C38.8898 160.64 39.0198 160.276 39.3998 159.658C45.1231 150.331 50.0631 140.436 54.0764 130.251L54.4264 129.362C57.3098 122.02 60.2931 114.427 66.7364 111.236C67.3925 110.911 67.7924 110.273 67.8449 109.591C68.0754 109.768 68.3413 109.893 68.6221 109.957C68.0316 110.433 67.74 111.228 67.9398 112.011C68.8531 115.616 72.0564 117.741 74.9864 119.448C77.8498 121.118 81.1431 121.445 84.0064 121.622C85.3764 121.709 86.8831 121.776 88.4698 121.776C91.7664 121.776 95.4164 121.485 98.9198 120.446C104.97 118.659 108.836 113.014 110.603 109.81C111.136 108.841 110.786 107.622 109.82 107.087C108.853 106.553 107.636 106.904 107.103 107.872C105.633 110.538 102.47 115.218 97.7898 116.601C93.2164 117.954 88.3764 117.877 84.2498 117.624C81.8464 117.473 79.1031 117.213 76.9964 115.983C74.7698 114.687 72.3498 113.124 71.8164 111.026C71.6331 110.296 71.0717 109.762 70.3952 109.581L72.3954 108.59C72.2342 110.113 72.779 111.755 73.9531 113.013C75.2264 114.376 76.8764 115.041 78.4864 115.562C81.4731 116.498 84.4864 116.965 87.4131 116.965C89.4731 116.965 91.4864 116.735 93.4231 116.267C98.6098 115.014 103.21 111.938 106.04 107.839C106.24 107.555 106.43 107.265 106.619 106.974L106.62 106.974L106.631 106.957C107.033 106.342 107.414 105.761 107.846 105.34C108.272 104.924 108.808 104.671 109.129 104.733C109.366 104.965 109.664 105.141 110.006 105.233C113.956 106.292 117.793 109.052 121.73 113.662C125.936 118.589 129.246 124.158 131.57 130.211C133.913 136.314 135.233 142.955 136.51 149.383L136.511 149.39C137.947 156.613 139.427 164.057 142.373 171C132.26 173.695 121.89 174.43 111.493 173.188L112.353 142.989C112.383 141.883 111.513 140.958 110.41 140.928C109.306 140.887 108.383 141.769 108.353 142.875L107.443 174.885C107.413 175.904 108.153 176.782 109.163 176.926C112.016 177.328 114.867 177.588 117.712 177.706C118.327 198.3 119.877 219.089 122.326 239.552C120.196 239.943 118.44 240.724 117.09 241.887C114.58 244.045 113.743 247.666 115.14 250.315C116.182 252.277 118.019 253.226 119.641 254.064L119.646 254.067C120.753 254.638 121.796 255.179 122.36 255.924C122.89 256.632 123.11 257.648 123.36 258.824C123.5 259.492 123.65 260.18 123.873 260.888C124.159 261.78 124.551 262.629 125.037 263.417C102.469 267.176 81.9075 267.387 62.2764 264.069C61.1864 263.881 60.1564 264.62 59.9731 265.712C59.7898 266.801 60.5231 267.837 61.6131 268.02C71.0531 269.617 80.6931 270.416 90.6564 270.416C102.701 270.416 115.216 269.245 128.391 266.906C129.778 267.84 131.354 268.459 133.016 268.715C133.6 268.806 134.183 268.849 134.766 268.849C136.293 268.849 137.806 268.545 139.226 267.944C141.183 267.112 142.866 265.756 144.096 264.018C144.162 263.926 144.226 263.832 144.288 263.738C144.344 263.732 144.4 263.724 144.456 263.714C145.401 263.522 146.365 263.363 147.302 263.209L147.303 263.209L147.416 263.19L147.423 263.189C150.588 262.668 153.859 262.13 156.96 260.364C157.823 259.873 158.8 259.261 159.46 258.192C160.323 256.789 159.88 254.538 158.756 250.877C158.703 250.709 158.66 250.566 158.62 250.432C156.776 244.389 155.043 238.66 153.37 233.118L153.23 232.654C148.886 218.287 144.766 204.661 139.551 188.458L138.198 176.092C140.72 175.585 143.229 174.964 145.723 174.23C146.283 174.063 146.743 173.659 146.983 173.121C147.223 172.583 147.213 171.972 146.96 171.441C143.57 164.364 142.053 156.735 140.447 148.66L140.447 148.66L140.447 148.66L140.447 148.66L140.447 148.66L140.447 148.66L140.436 148.608C139.126 142.017 137.77 135.202 135.306 128.778C132.82 122.297 129.276 116.334 124.773 111.059C120.293 105.811 115.8 102.638 111.043 101.362C111.019 101.355 110.994 101.349 110.969 101.343C110.713 101.092 110.385 100.908 110.01 100.824C108.983 100.595 107.886 100.74 106.859 101.212C106.623 100.792 106.357 100.332 106.033 99.8516C105.416 98.9363 104.173 98.6924 103.256 99.3105C102.343 99.9285 102.1 101.175 102.716 102.093C103.005 102.522 103.251 102.959 103.489 103.383L103.526 103.449ZM146.121 259.337C146.338 259.302 146.555 259.266 146.77 259.231L146.798 259.227C149.734 258.744 152.508 258.288 154.983 256.876L155.027 256.851C155.3 256.694 155.692 256.47 155.92 256.245C155.913 255.75 155.713 254.615 154.93 252.056L154.893 251.937C154.851 251.802 154.815 251.684 154.786 251.588C152.946 245.558 151.213 239.826 149.54 234.28L149.398 233.811L149.397 233.81C146.868 225.442 144.415 217.326 141.778 208.807L146.213 249.34L146.214 249.346C146.514 252.099 146.919 255.811 146.121 259.337ZM135.479 188.027C135.412 188.354 135.427 188.702 135.536 189.042L135.618 189.295L142.236 249.777C142.733 254.317 142.996 258.643 140.833 261.7C140.033 262.829 138.94 263.711 137.666 264.252C136.393 264.79 135 264.964 133.633 264.753C132.27 264.543 130.99 263.955 129.94 263.056C128.89 262.154 128.11 260.982 127.69 259.669C127.534 259.177 127.418 258.639 127.296 258.071L127.296 258.071L127.295 258.07L127.295 258.07L127.276 257.982L127.275 257.978C126.969 256.546 126.622 254.924 125.556 253.509C124.447 252.038 122.881 251.226 121.498 250.51L121.483 250.502L121.469 250.495C120.215 249.847 119.131 249.287 118.68 248.435C118.153 247.439 118.61 245.866 119.7 244.927C120.793 243.985 122.47 243.437 124.68 243.3C125.23 243.267 125.74 243.006 126.093 242.582C126.446 242.154 126.606 241.603 126.54 241.055C123.973 220.135 122.351 198.858 121.718 177.78C125.916 177.759 130.097 177.428 134.25 176.791L135.479 188.027ZM42.6411 209.783C44.2239 196.206 45.8377 182.363 47.9799 168.571C46.5248 168.056 45.0734 167.52 43.6319 166.976L38.8331 224.232C38.5864 227.172 38.1497 230.212 35.8031 232.256C34.8864 233.054 33.7931 233.566 32.8264 234.017L32.8234 234.018C31.6847 234.549 30.7028 235.006 30.4397 235.677C30.1397 236.438 30.7564 237.441 31.8031 238.997C32.4731 239.993 33.1631 241.022 33.6064 242.204C34.4739 244.516 34.1384 246.934 33.8423 249.067L33.8397 249.086L33.8397 249.086C33.5464 251.191 33.2931 253.008 34.1031 254.331C34.7486 255.385 36.034 255.999 37.4671 256.405C37.6964 252.53 38.1426 248.666 38.5758 244.914L38.5898 244.793L42.6298 209.881L42.6411 209.783Z" fill="black"/>
</g>
<path d="M109.547 92.4073C110.737 94.1812 111.974 96.0051 113.744 97.2011C115.514 98.397 117.971 98.8313 119.774 97.6888C121.774 96.416 123.027 93.346 125.381 93.6801C126.311 93.8171 127.047 94.5052 127.747 95.1433C129.704 96.9572 131.967 98.7344 134.631 98.9014C137.294 99.0685 140.214 96.8303 139.751 94.1979C139.587 93.2692 139.041 92.414 139.051 91.472C139.067 89.8284 140.717 88.7126 141.431 87.2361C143.144 83.7518 139.504 79.1953 141.497 75.8614C142.111 74.8425 143.147 74.1677 144.037 73.3793C148.457 69.4541 148.874 61.8275 144.904 57.4413C143.434 55.8178 141.437 54.5484 140.654 52.5006C140.167 51.2278 140.221 49.8281 140.244 48.4618C140.371 40.6582 139.161 32.6708 135.451 25.8059C131.741 18.9409 126.997 17.0502 119.351 15.5703L113.374 11.8489C111.507 8.87573 107.967 7.44595 104.581 6.54399C93.9141 3.71116 80.5941 0.651179 70.4908 5.07747C60.3875 9.50376 51.9108 17.7216 47.5308 27.8637C45.2708 33.0984 43.9975 38.9311 40.3075 43.2738C37.1608 46.9786 32.5875 49.1834 29.1708 52.6275C25.7541 56.0717 23.7341 61.9812 26.8608 65.7026C27.4941 66.4576 28.3208 67.0956 28.6808 68.0176C29.9175 71.1812 25.1708 73.2156 23.6408 76.2489C22.2108 79.0884 23.9008 82.5325 26.0508 84.8743C28.2008 87.216 30.9175 89.2171 32.0908 92.1668C32.9608 94.3582 33.0208 97.1075 34.9108 98.5139C37.0275 100.091 40.0541 98.9616 42.6275 99.5462C45.2008 100.131 47.0475 102.366 49.0541 104.113C51.0608 105.86 54.0375 107.216 56.2908 105.803C57.4908 105.048 58.1808 103.662 59.3741 102.9C61.7775 101.363 64.8475 102.917 67.5641 103.782C70.2808 104.647 74.3708 103.745 74.2075 100.892" fill="black"/>
<path d="M103.214 100.093C102.834 95.5198 103.68 91.5979 105.667 87.4623C106.117 86.5269 107.084 86.5369 108.04 86.2329C108.89 85.9657 109.724 85.6583 110.547 85.3109C112.217 84.6161 113.797 83.7175 115.247 82.6384C118.12 80.4637 120.36 77.4104 121.2 73.8694C121.964 70.6591 121.427 66.8374 117.867 65.0302C115.357 63.7607 113.107 64.2117 109.284 67.579L108.15 64.8765C109.344 59.0204 109.83 53.0374 109.6 47.0644C109.494 44.2583 105.7 39.8488 103.11 38.7764L98.6238 34.1998C96.2904 29.523 79.4138 28.0164 74.4071 29.4695C65.7138 32.299 63.1904 33.7956 60.6738 37.1896C58.1571 40.5837 56.8038 44.6826 55.4938 48.7013L52.9371 53.3514C50.7871 58.8935 49.4938 63.8977 49.1671 66.9276C48.3438 74.5575 49.8804 83.036 55.7038 88.4711C58.8071 91.3641 62.6504 92.7872 66.7604 93.5121C71.0471 94.2704 75.6471 94.9619 79.8071 93.2582C79.5871 96.7357 79.5538 99.5519 79.7138 103.033" fill="#FFD39F"/>
<path fill-rule="evenodd" clip-rule="evenodd" d="M47.7394 105.629C49.486 107.149 51.846 108.405 54.186 108.405C55.266 108.405 56.3427 108.138 57.346 107.486C58.196 106.952 58.8027 106.264 59.336 105.656L59.3553 105.634C59.7348 105.204 60.092 104.8 60.4427 104.577C61.6294 103.818 63.5227 104.483 65.526 105.191C65.9927 105.358 66.476 105.525 66.9527 105.679C69.516 106.497 72.5794 106.076 74.3994 104.66C75.6494 103.688 76.286 102.305 76.1994 100.765C76.136 99.6592 75.1927 98.814 74.0894 98.8775C72.986 98.9409 72.1427 99.8863 72.206 100.992C72.216 101.152 72.2027 101.293 71.946 101.49C71.1727 102.094 69.4394 102.261 68.166 101.857C67.736 101.72 67.2994 101.567 66.856 101.41L66.8471 101.406C64.2953 100.508 61.1194 99.3907 58.296 101.196C57.4706 101.722 56.8774 102.395 56.3545 102.989L56.3394 103.006C55.9494 103.451 55.5827 103.868 55.226 104.092C53.966 104.884 51.876 103.908 50.3627 102.589C49.981 102.257 49.6052 101.904 49.2072 101.53L49.2071 101.53L49.2066 101.53L49.2064 101.529L49.1394 101.466L49.1285 101.456C47.4778 99.9087 45.6104 98.158 43.066 97.5813C41.8194 97.2974 40.556 97.3341 39.4427 97.3675L39.4281 97.3679C38.0376 97.4079 36.8335 97.4424 36.0994 96.8931C35.35 96.3324 35.0333 95.1347 34.667 93.7499L34.666 93.7463C34.466 92.9813 34.256 92.1929 33.946 91.4112C32.926 88.8523 31.056 87.0217 29.246 85.2512L29.0582 85.0661C28.5168 84.5331 28.0007 84.025 27.5194 83.5007C25.9394 81.7803 24.4427 79.0811 25.4227 77.1369C25.8427 76.3051 26.7394 75.4298 27.606 74.5846C29.376 72.8609 31.7994 70.4958 30.5394 67.2721C30.1394 66.2499 29.446 65.525 28.8894 64.9437C28.7027 64.7499 28.5294 64.5662 28.386 64.3958C26.0927 61.6699 27.7427 56.8895 30.5827 54.0266C32.0085 52.5877 33.6674 51.3723 35.4263 50.0837L35.4263 50.0836L35.4263 50.0836L35.4294 50.0814L35.4317 50.0797L35.4317 50.0797L35.4317 50.0797C37.651 48.4533 39.9434 46.7734 41.8227 44.5594C44.6756 41.2031 46.1621 37.1339 47.6004 33.1968L47.606 33.1813L47.6541 33.0502C48.1924 31.581 48.7476 30.0657 49.3594 28.6481C53.4694 19.1308 61.4627 11.2035 71.286 6.90084C80.6427 2.80193 93.1127 5.56126 104.063 8.47092C106.553 9.1357 110.049 10.3149 111.676 12.9072C112.263 13.8426 113.496 14.1232 114.433 13.5353C115.366 12.9473 115.646 11.708 115.059 10.7726C112.683 6.9877 108.229 5.43766 105.086 4.59917C93.4827 1.51914 80.2194 -1.38384 69.6827 3.23287C58.9427 7.93977 50.196 16.6253 45.6894 27.0613C45.0127 28.6281 44.4194 30.2483 43.8494 31.8117C42.4694 35.5899 41.166 39.1576 38.776 41.9704C37.2078 43.8179 35.2107 45.282 33.0999 46.8295L33.0998 46.8296L33.066 46.8544C31.2594 48.1772 29.3927 49.5469 27.7427 51.2105C25.7194 53.2483 24.2094 55.9475 23.6027 58.6099C22.8694 61.8236 23.4794 64.7967 25.3194 66.9881C25.5265 67.2385 25.7365 67.4582 25.9391 67.6701L25.9392 67.6702L25.996 67.7297C26.3594 68.1072 26.6994 68.4613 26.8094 68.7453C27.0594 69.3867 26.426 70.1483 24.8094 71.7251L24.7963 71.7378C23.7495 72.7603 22.5631 73.9191 21.846 75.343C20.5994 77.815 20.6627 81.974 24.5694 86.23C25.1794 86.8947 25.8227 87.5261 26.446 88.1341L26.4548 88.1427C28.0316 89.6862 29.5207 91.1439 30.2227 92.9078C30.4419 93.4637 30.6115 94.1024 30.7907 94.7778L30.7908 94.7779L30.7908 94.7781L30.7909 94.7782L30.7927 94.7852C31.2794 96.6326 31.8327 98.7271 33.7094 100.124C35.5588 101.5 37.6739 101.44 39.5443 101.387H39.5444L39.556 101.386L39.5793 101.386C40.534 101.359 41.4321 101.334 42.1794 101.503C43.6727 101.844 44.9994 103.087 46.4027 104.406L46.5475 104.541L46.5477 104.542C46.9349 104.903 47.3306 105.273 47.7394 105.629ZM134.503 100.919C134.639 100.929 134.779 100.932 134.919 100.932C136.919 100.932 138.949 100.027 140.299 98.5234C141.506 97.1738 142.009 95.5235 141.719 93.8766C141.623 93.3287 141.456 92.851 141.306 92.4301C141.179 92.0727 141.049 91.7052 141.049 91.5181C141.053 91.1675 141.506 90.5964 141.946 90.042L141.946 90.0416C142.376 89.5004 142.863 88.8857 143.226 88.1475C144.374 85.813 143.828 83.3821 143.345 81.2334L143.343 81.2224L143.341 81.213C142.945 79.4531 142.604 77.9368 143.213 76.9197C143.493 76.4554 144.036 76.0077 144.613 75.5367C144.866 75.3296 145.119 75.1225 145.363 74.9053C147.866 72.6905 149.416 69.3466 149.616 65.7321C149.819 62.1109 148.643 58.6066 146.389 56.1178C145.879 55.5566 145.339 55.0522 144.816 54.5678C143.833 53.6558 142.903 52.7906 142.526 51.8085C142.207 50.9693 142.226 49.8878 142.246 48.7459L142.246 48.7351L142.249 48.518C142.399 39.2879 140.706 31.3306 137.216 24.8732C133.226 17.4905 127.993 15.2223 119.736 13.6255C118.649 13.415 117.603 14.1265 117.393 15.2122C117.183 16.2979 117.893 17.3502 118.976 17.5607C126.343 18.9871 130.426 20.7309 133.696 26.7807C136.856 32.6268 138.389 39.9159 138.249 48.4478L138.246 48.6583L138.246 48.6818C138.222 50.0858 138.196 51.6769 138.793 53.2382C139.503 55.0923 140.883 56.3751 142.099 57.5042C142.583 57.9518 143.036 58.3727 143.429 58.807C144.966 60.5074 145.766 62.9494 145.626 65.5082C145.486 68.0605 144.426 70.3889 142.719 71.8988C142.564 72.0366 142.404 72.1688 142.243 72.301C142.19 72.345 142.136 72.3891 142.083 72.4333C141.306 73.068 140.426 73.7896 139.786 74.8519C138.349 77.2504 138.929 79.826 139.443 82.101C139.816 83.7512 140.166 85.308 139.643 86.3703C139.469 86.7244 139.153 87.1252 138.819 87.5462C138.039 88.5249 137.073 89.7476 137.056 91.4914C137.056 92.3899 137.326 93.1514 137.543 93.7627L137.543 93.763L137.553 93.7924C137.653 94.079 137.747 94.3516 137.786 94.5647C137.879 95.0892 137.586 95.5469 137.326 95.8409C136.706 96.5324 135.653 96.9767 134.763 96.9199C132.709 96.7896 130.756 95.2128 129.106 93.6862L129.066 93.6494L129.057 93.6414C128.265 92.9139 127.184 91.9216 125.666 91.7152C123.113 91.3544 121.466 93.1817 120.266 94.518C119.719 95.126 119.203 95.7005 118.709 96.0146C117.586 96.7294 115.929 96.2785 114.866 95.5602C113.392 94.5631 112.287 92.9135 111.218 91.3192L111.213 91.311C110.596 90.3923 109.353 90.1451 108.436 90.7631C107.519 91.3812 107.273 92.6272 107.889 93.5459L107.908 93.5736L107.908 93.5736C109.13 95.3942 110.514 97.455 112.629 98.8841C115.286 100.678 118.513 100.882 120.853 99.3986C121.808 98.788 122.564 97.9474 123.234 97.203L123.236 97.2005L123.251 97.1842C123.943 96.4142 124.656 95.6208 125.113 95.6872C125.4 95.7236 125.943 96.2225 126.345 96.5923L126.345 96.5924L126.356 96.6025L126.389 96.6326C128.546 98.6336 131.199 100.708 134.503 100.919ZM55.4927 50.7094C55.286 50.7094 55.076 50.676 54.8727 50.6092C53.8227 50.2651 53.2494 49.1327 53.5927 48.0804C54.8727 44.1485 56.326 39.6921 59.0694 35.9941C60.8394 33.6056 62.8827 31.9219 65.896 30.3585C71.2427 27.5892 77.3694 26.42 83.6161 26.9745C87.9061 27.3553 98.136 28.735 100.413 33.3016C100.906 34.2904 100.506 35.4963 99.5194 35.9908C98.5327 36.4852 97.3294 36.0843 96.8361 35.0955C96.0861 33.5922 90.8027 31.638 83.2627 30.9665C77.7727 30.4788 72.4027 31.501 67.7327 33.9196C65.2594 35.199 63.6794 36.4918 62.2794 38.386C59.9264 41.559 58.6398 45.5068 57.3967 49.3212L57.3967 49.3212L57.396 49.3231C57.1194 50.1716 56.336 50.7094 55.4927 50.7094ZM111.619 47.0014C111.835 52.7507 111.401 58.5296 110.328 64.1911C114.167 61.6191 116.64 62.1663 118.736 63.2266C122.616 65.1909 124.293 69.4435 123.113 74.3274C122.213 78.1223 119.836 81.64 116.423 84.2223C114.829 85.4082 113.103 86.3903 111.283 87.1453C110.419 87.5094 109.516 87.8435 108.606 88.1274C108.329 88.2143 108.063 88.2811 107.829 88.3379C107.795 88.3464 107.759 88.3553 107.722 88.3644C107.598 88.3946 107.464 88.4273 107.369 88.4581C105.453 92.4668 104.859 93.9734 105.193 97.902C105.286 99.0044 104.469 99.9732 103.369 100.067C103.309 100.08 103.253 100.083 103.196 100.083C102.169 100.083 101.293 99.295 101.206 98.2461C100.783 93.2151 101.759 90.9135 103.833 86.5841C104.593 85.004 106.029 84.6565 106.889 84.4494C106.929 84.4395 106.968 84.43 107.006 84.4205C107.15 84.3853 107.285 84.352 107.406 84.3124C108.199 84.0619 108.983 83.7746 109.739 83.4539C111.269 82.8192 112.706 82.0008 114.026 81.0186C116.686 79.0042 118.539 76.295 119.226 73.3954C119.579 71.9355 120.059 68.3878 116.936 66.8077C115.573 66.1162 114.236 65.8456 110.573 69.0727C109.743 69.8042 108.479 69.7207 107.749 68.8889C107.216 68.2806 107.117 67.4399 107.427 66.746C106.532 66.3984 105.992 65.4466 106.193 64.476C107.359 58.7836 107.839 52.9509 107.619 47.1417C107.559 45.3277 104.463 41.4994 102.363 40.6308C101.343 40.2066 100.856 39.0374 101.279 38.0118C101.703 36.9896 102.869 36.5019 103.893 36.9261C105.456 37.5742 107.316 39.1008 108.863 41.0083C109.859 42.2377 111.539 44.6462 111.619 47.0014ZM62.8094 62.5719C64.0981 62.5719 65.1427 61.3006 65.1427 59.7324C65.1427 58.1642 64.0981 56.8929 62.8094 56.8929C61.5207 56.8929 60.4761 58.1642 60.4761 59.7324C60.4761 61.3006 61.5207 62.5719 62.8094 62.5719ZM76.4761 60.5174C76.4761 62.0856 75.4314 63.3569 74.1428 63.3569C72.8541 63.3569 71.8094 62.0856 71.8094 60.5174C71.8094 58.9492 72.8541 57.6779 74.1428 57.6779C75.4314 57.6779 76.4761 58.9492 76.4761 60.5174ZM77.7161 101.126C77.7661 102.201 78.6494 103.04 79.7127 103.04C79.7428 103.04 79.7727 103.04 79.8094 103.026C80.9127 102.976 81.7661 102.038 81.7161 100.932C81.5561 97.4844 81.5928 96.7428 81.8061 93.3822C81.8494 92.694 81.5361 92.0326 80.9761 91.6283C80.4161 91.2275 79.6894 91.1406 79.0527 91.4012C75.5394 92.841 71.5627 92.3165 67.1094 91.5382C62.7527 90.7698 59.5628 89.33 57.0694 87.005C52.4061 82.6555 50.2527 75.4164 51.1561 67.1485C51.4294 64.6731 52.5294 59.9395 54.8027 54.0801C55.2027 53.0478 54.6927 51.8853 53.6628 51.4844C52.6327 51.0836 51.4727 51.5947 51.0727 52.6269C49.0227 57.9084 47.5694 63.1732 47.1794 66.7109C46.1394 76.2549 48.7494 84.72 54.3427 89.9414C57.3861 92.7775 61.3361 94.5915 66.4194 95.4901C69.5661 96.0413 73.6461 96.7528 77.6527 95.9778C77.5861 97.5913 77.6094 98.7739 77.7161 101.126Z" fill="black"/>
</g>
<defs>
<clipPath id="clip0_805_38783">
<rect width="180" height="180" rx="24" fill="white"/>
</clipPath>
<clipPath id="clip1_805_38783">
<rect width="200" height="200.436" fill="white" transform="translate(-10 95.2734)"/>
</clipPath>
</defs>
</svg>
