<svg width="180" height="180" viewBox="0 0 180 180" fill="none" xmlns="http://www.w3.org/2000/svg">
<g clip-path="url(#clip0_805_38627)">
<rect width="180" height="180" rx="24" fill="white"/>
<g clip-path="url(#clip1_805_38627)">
<path fill-rule="evenodd" clip-rule="evenodd" d="M109.923 105.128C104.8 106.271 103.423 98.6474 103.123 95.2734H80.75C80.565 95.8343 80.3939 96.8327 80.2039 97.9413C79.8666 99.9098 79.4697 102.226 78.83 103.057C78.7458 103.159 78.6395 103.289 78.5155 103.44C77.5343 104.639 75.4404 107.199 74.3633 107.881C73.41 108.482 72.3733 109.073 71.2466 109.04H70.8866C68.41 113.032 70.3766 117.689 74.1166 121.049C77.8566 124.41 83.1733 125.609 88.1733 125.242C93.8433 124.838 99.2166 122.539 103.43 118.714C107.577 114.889 110.223 111.198 110.473 105.963L109.923 105.128ZM115.213 148.723L115.677 149.251C115.393 173.189 117.854 197.106 120.361 221.473C121.041 228.077 121.724 234.715 122.357 241.394C121.2 241.491 120.1 241.942 119.213 242.691C118.323 243.439 117.687 244.444 117.393 245.57C117.097 246.696 117.16 247.885 117.567 248.974C117.973 250.063 118.71 250.999 119.67 251.653C120.216 252.024 120.82 252.294 121.424 252.564L121.424 252.564C121.963 252.805 122.503 253.047 123.003 253.36C125.359 254.832 126.436 257.559 127.505 260.266C128.642 263.143 129.77 265.999 132.417 267.304C136.207 269.171 140.957 266.322 142.673 262.45C144.39 258.578 143.92 254.139 143.41 249.936C141.233 232.057 136.043 179.687 135.137 168.726C135.137 168.726 130.79 128.212 129.67 123.558C128.55 118.905 124.753 114.923 121.293 111.622L120.547 111.138C118.21 117.061 111.777 142.439 115.213 148.723ZM61.7566 115.243L62.3733 113.326C60.42 113.86 58.9466 115.447 57.7066 117.044C53.85 121.985 51.8133 128.252 50.8533 134.449C50.1638 138.902 49.3817 143.904 48.5372 149.306L48.5371 149.306C44.7231 173.701 39.6374 206.229 36.0733 232.983C34.9966 232.852 33.9033 233.04 32.9266 233.514C31.95 233.988 31.13 234.737 30.5666 235.665C30.0033 236.594 29.7133 237.666 29.74 238.752C29.7633 239.841 30.1 240.897 30.7066 241.799C30.8627 242.027 31.0357 242.246 31.2084 242.465L31.2085 242.465C31.4343 242.75 31.6597 243.035 31.8466 243.342C32.69 244.752 32.6433 246.506 32.5433 248.149L32.5267 248.422C32.3436 251.41 32.1522 254.535 33.43 257.232C34.7466 260.012 38.2666 262.006 40.9633 260.536C42.8433 259.507 43.65 257.269 44.2966 255.224C45.2066 252.525 45.98 249.779 46.61 247C47.3266 243.576 50.2766 228.383 50.5633 224.892L47.89 223.579C47.89 223.579 57.4933 151.679 61.7566 115.243Z" fill="#FFD39F"/>
<path d="M115.214 148.724C111.777 142.44 118.21 117.062 120.544 111.139C120.78 110.684 120.457 110.992 120.404 110.484C120.24 109.706 113.557 105.476 110.564 105.129C109.997 110.808 107.624 114.853 103.427 118.715C99.2136 122.54 93.8402 124.838 88.1702 125.243C83.1702 125.61 77.8536 124.411 74.1136 121.05C70.3736 117.69 68.6136 111.93 71.0902 107.948L64.3336 111.055C63.5302 111.423 62.6669 111.83 62.2102 112.582C61.7536 113.333 61.8769 114.339 61.7769 115.254C57.5002 151.69 46.6702 221.529 47.6369 221.636C69.9969 224.288 98.8902 226.676 120.56 220.543H120.614C118.834 196.491 115.417 172.893 115.704 149.258" fill="black"/>
<path fill-rule="evenodd" clip-rule="evenodd" d="M109.369 103.521C109.776 103.218 110.286 103.082 110.79 103.139C112.936 103.39 115.94 104.983 117.54 105.912C121.326 108.11 122.063 109.146 122.276 109.767C122.313 109.822 122.347 109.88 122.378 109.939C122.483 110.007 122.583 110.085 122.676 110.175C126.61 113.923 130.416 118.085 131.62 123.093C132.753 127.82 136.95 166.855 137.126 168.515C137.126 168.523 137.127 168.532 137.128 168.54C137.129 168.548 137.13 168.557 137.13 168.565C138.07 179.926 143.243 232.01 145.396 249.698L145.397 249.7C145.887 253.742 146.496 258.769 144.503 263.267C143.29 266.007 140.813 268.332 138.04 269.341C137.013 269.701 135.98 269.889 134.973 269.889C133.766 269.889 132.596 269.625 131.533 269.1C128.195 267.454 126.842 264.03 125.645 261.005L125.643 260.999L125.638 260.985C124.66 258.512 123.736 256.177 121.943 255.056C121.567 254.82 121.114 254.617 120.634 254.401L120.606 254.388L120.565 254.369L120.565 254.369L120.564 254.369C119.934 254.086 119.221 253.766 118.546 253.306C117.236 252.414 116.25 251.158 115.693 249.671C115.136 248.185 115.056 246.588 115.46 245.055C115.863 243.521 116.716 242.172 117.93 241.149C118.613 240.575 119.38 240.13 120.203 239.83C119.665 234.238 119.09 228.625 118.527 223.151C108.922 225.529 98.0821 226.394 87.0764 226.394C75.2518 226.394 63.2317 225.394 52.3231 224.189C51.5426 230.145 49.2341 244.222 48.5697 247.403C48.5664 247.413 48.5664 247.426 48.563 247.436C47.9197 250.266 47.1264 253.092 46.1997 255.838C45.6097 257.705 44.6197 260.809 41.923 262.285C41.0197 262.786 40.013 263.034 38.973 263.034C38.2564 263.034 37.523 262.917 36.7964 262.68C34.6064 261.965 32.623 260.207 31.623 258.093C30.1244 254.932 30.3393 251.415 30.5292 248.307L30.5297 248.298L30.5464 248.028C30.633 246.611 30.6664 245.268 30.1297 244.373C30.0253 244.201 29.8614 243.991 29.6851 243.766L29.6397 243.708C29.4564 243.478 29.2497 243.217 29.053 242.93C28.223 241.697 27.7697 240.274 27.7364 238.798C27.703 237.324 28.0897 235.878 28.8564 234.619C29.623 233.359 30.7264 232.354 32.0497 231.709C32.7697 231.358 33.5364 231.124 34.3197 231.011C37.8412 205.108 42.4783 175.35 46.2206 151.334L46.2264 151.297L46.7722 147.791L46.7725 147.79C47.5383 142.873 48.2523 138.288 48.8897 134.143C50.0397 126.674 52.4797 120.504 56.143 115.81C57.2196 114.423 58.5222 112.954 60.2444 112.038C60.3157 111.872 60.4 111.706 60.4997 111.541C61.2826 110.251 62.6071 109.643 63.4872 109.238L63.4997 109.233L70.2564 106.129C71.0182 105.781 71.912 105.943 72.497 106.528C73.8351 105.953 74.8071 105.074 75.5238 104.427L75.5363 104.415L75.6563 104.305C76.943 103.143 77.0797 102.832 77.353 102.207C77.3741 102.158 77.3962 102.109 77.4187 102.058C77.4388 102.013 77.4592 101.967 77.4797 101.92C77.9363 100.911 79.1197 100.464 80.1264 100.921C81.133 101.379 81.5797 102.565 81.123 103.574L81.013 103.821C80.543 104.893 80.1297 105.665 78.333 107.285L78.2163 107.389L78.212 107.393C77.1051 108.395 75.1359 110.179 72.0756 110.861C71.5299 113.655 72.8148 117.194 75.4464 119.562C78.4597 122.271 83.043 123.614 88.023 123.246C93.2264 122.876 98.2197 120.741 102.083 117.233C105.432 114.153 107.341 111.106 108.179 107.387C105.411 106.815 104.377 104.97 103.53 103.453L103.492 103.387C103.254 102.963 103.008 102.526 102.72 102.097C102.103 101.178 102.346 99.9324 103.26 99.3144C104.176 98.6963 105.42 98.9402 106.036 99.8555C106.433 100.443 106.743 100.998 107.016 101.489L107.02 101.496C107.828 102.938 108.083 103.392 109.369 103.521ZM50.7297 219.97C50.8049 219.976 50.8788 219.986 50.9512 220.001C72.2328 222.421 98.1502 224.213 118.113 219.121C115.681 195.443 113.457 172.963 113.671 150.008C113.59 149.91 113.517 149.803 113.453 149.687C111.723 146.527 111.82 139.709 113.743 129.426C115.08 122.278 117.056 114.892 118.366 111.227C117.246 110.332 114.386 108.595 112.2 107.686C111.253 112.46 108.903 116.391 104.776 120.186C100.243 124.302 94.3997 126.804 88.3097 127.238C82.2564 127.679 76.5964 125.969 72.7764 122.538C69.8297 119.889 67.7664 115.643 67.9597 111.588L65.163 112.874L65.147 112.881C64.9267 112.983 64.634 113.118 64.3859 113.258C64.4059 113.815 64.1919 114.348 63.8128 114.735C63.8031 114.966 63.7887 115.216 63.7597 115.469C63.753 115.533 63.743 115.596 63.7297 115.657C57.2197 147.292 50.123 209.273 49.5797 219.843C49.9309 219.884 50.2835 219.924 50.6373 219.965C50.668 219.966 50.6988 219.968 50.7297 219.97ZM49.7297 180.741C51.2338 168.645 55.0338 139.429 59.0747 118.572C55.9591 122.69 53.8653 128.132 52.843 134.758C52.1819 139.059 51.4383 143.835 50.64 148.962L50.1797 151.919C46.3564 176.452 41.5997 206.985 38.0564 233.249C37.9097 234.335 36.9197 235.096 35.8397 234.969C35.1397 234.886 34.4364 235.006 33.803 235.313C33.1697 235.621 32.6397 236.102 32.2764 236.706C31.9097 237.308 31.7264 237.999 31.7397 238.704C31.7564 239.409 31.973 240.09 32.3664 240.675C32.4764 240.835 32.623 241.022 32.7764 241.216L32.8168 241.268L32.8169 241.268C33.0534 241.569 33.3166 241.903 33.553 242.292C34.683 244.183 34.6597 246.281 34.5397 248.265L34.523 248.539C34.353 251.291 34.1797 254.138 35.2364 256.366C35.7764 257.502 36.873 258.484 38.0364 258.861C38.5497 259.028 39.3097 259.149 40.0097 258.768C41.1997 258.116 41.8397 256.356 42.393 254.612C42.3964 254.599 42.3997 254.589 42.4064 254.575C43.2897 251.956 44.0464 249.26 44.6597 246.564C45.3026 243.48 47.5929 229.489 48.3496 223.737C48.0318 223.699 47.7152 223.662 47.3997 223.625C46.8464 223.558 46.3264 223.25 45.9964 222.799C45.453 222.051 45.2297 221.741 46.4864 209.187C47.273 201.329 48.423 191.228 49.7297 180.741ZM117.676 130.165C118.829 123.997 120.359 118.173 121.472 114.592C124.362 117.497 126.913 120.631 127.73 124.028C128.586 127.609 131.646 154.942 133.146 168.916C134.093 180.351 139.27 232.467 141.426 250.176C141.973 254.692 142.28 258.404 140.846 261.634C140.07 263.384 138.433 264.928 136.673 265.566C135.82 265.876 134.543 266.114 133.3 265.502C131.35 264.542 130.39 262.115 129.373 259.542L129.366 259.526L129.365 259.522C128.245 256.687 126.978 253.479 124.066 251.659C123.446 251.271 122.806 250.984 122.24 250.73C121.7 250.49 121.19 250.263 120.793 249.992C120.173 249.568 119.703 248.973 119.44 248.268C119.176 247.563 119.14 246.805 119.33 246.077C119.52 245.348 119.923 244.71 120.5 244.226C121.076 243.742 121.773 243.451 122.523 243.391C123.056 243.347 123.55 243.09 123.893 242.679C124.236 242.268 124.4 241.737 124.35 241.203C123.72 234.556 123.032 227.864 122.366 221.391C122.563 220.969 122.616 220.477 122.48 219.993C122.41 219.748 122.299 219.527 122.154 219.334C119.683 195.275 117.404 172.477 117.68 149.273C117.687 148.628 117.389 148.051 116.921 147.678C116.44 146.709 115.309 142.847 117.676 130.165ZM47.8564 219.643C47.861 219.643 47.8656 219.643 47.8706 219.644C47.8764 219.645 47.8825 219.646 47.8897 219.646C47.8829 219.644 47.877 219.643 47.8716 219.643C47.8662 219.643 47.8613 219.643 47.8564 219.643Z" fill="black"/>
</g>
<path d="M109.547 92.4073C110.737 94.1812 111.974 96.0051 113.744 97.2011C115.514 98.397 117.971 98.8313 119.774 97.6888C121.774 96.416 123.027 93.346 125.381 93.6801C126.311 93.8171 127.047 94.5052 127.747 95.1433C129.704 96.9572 131.967 98.7344 134.631 98.9014C137.294 99.0685 140.214 96.8303 139.751 94.1979C139.587 93.2692 139.041 92.414 139.051 91.472C139.067 89.8284 140.717 88.7126 141.431 87.2361C143.144 83.7518 139.504 79.1953 141.497 75.8614C142.111 74.8425 143.147 74.1677 144.037 73.3793C148.457 69.4541 148.874 61.8275 144.904 57.4413C143.434 55.8178 141.437 54.5484 140.654 52.5006C140.167 51.2278 140.221 49.8281 140.244 48.4618C140.371 40.6582 139.161 32.6708 135.451 25.8059C131.741 18.9409 126.997 17.0502 119.351 15.5703L113.374 11.8489C111.507 8.87573 107.967 7.44595 104.581 6.54399C93.9141 3.71116 80.5941 0.651179 70.4908 5.07747C60.3875 9.50376 51.9108 17.7216 47.5308 27.8637C45.2708 33.0984 43.9975 38.9311 40.3075 43.2738C37.1608 46.9786 32.5875 49.1834 29.1708 52.6275C25.7541 56.0717 23.7341 61.9812 26.8608 65.7026C27.4941 66.4576 28.3208 67.0956 28.6808 68.0176C29.9175 71.1812 25.1708 73.2156 23.6408 76.2489C22.2108 79.0884 23.9008 82.5325 26.0508 84.8743C28.2008 87.216 30.9175 89.2171 32.0908 92.1668C32.9608 94.3582 33.0208 97.1075 34.9108 98.5139C37.0275 100.091 40.0541 98.9616 42.6275 99.5462C45.2008 100.131 47.0475 102.366 49.0541 104.113C51.0608 105.86 54.0375 107.216 56.2908 105.803C57.4908 105.048 58.1808 103.662 59.3741 102.9C61.7775 101.363 64.8475 102.917 67.5641 103.782C70.2808 104.647 74.3708 103.745 74.2075 100.892" fill="black"/>
<path d="M103.214 100.093C102.834 95.5198 103.68 91.5979 105.667 87.4623C106.117 86.5269 107.084 86.5369 108.04 86.2329C108.89 85.9657 109.724 85.6583 110.547 85.3109C112.217 84.6161 113.797 83.7175 115.247 82.6384C118.12 80.4637 120.36 77.4104 121.2 73.8694C121.964 70.6591 121.427 66.8374 117.867 65.0302C115.357 63.7607 113.107 64.2117 109.284 67.579L108.15 64.8765C109.344 59.0204 109.83 53.0374 109.6 47.0644C109.494 44.2583 105.7 39.8488 103.11 38.7764L98.6238 34.1998C96.2904 29.523 79.4138 28.0164 74.4071 29.4695C65.7138 32.299 63.1904 33.7956 60.6738 37.1896C58.1571 40.5837 56.8038 44.6826 55.4938 48.7013L52.9371 53.3514C50.7871 58.8935 49.4938 63.8977 49.1671 66.9276C48.3438 74.5575 49.8804 83.036 55.7038 88.4711C58.8071 91.3641 62.6504 92.7872 66.7604 93.5121C71.0471 94.2704 75.6471 94.9619 79.8071 93.2582C79.5871 96.7357 79.5538 99.5519 79.7138 103.033" fill="#FFD39F"/>
<path fill-rule="evenodd" clip-rule="evenodd" d="M47.7394 105.629C49.486 107.149 51.846 108.405 54.186 108.405C55.266 108.405 56.3427 108.138 57.346 107.486C58.196 106.952 58.8027 106.264 59.336 105.656L59.3553 105.634C59.7348 105.204 60.092 104.8 60.4427 104.577C61.6294 103.818 63.5227 104.483 65.526 105.191C65.9927 105.358 66.476 105.525 66.9527 105.679C69.516 106.497 72.5794 106.076 74.3994 104.66C75.6494 103.688 76.286 102.305 76.1994 100.765C76.136 99.6592 75.1927 98.814 74.0894 98.8775C72.986 98.9409 72.1427 99.8863 72.206 100.992C72.216 101.152 72.2027 101.293 71.946 101.49C71.1727 102.094 69.4394 102.261 68.166 101.857C67.736 101.72 67.2994 101.567 66.856 101.41L66.8471 101.406C64.2953 100.508 61.1194 99.3907 58.296 101.196C57.4706 101.722 56.8774 102.395 56.3545 102.989L56.3394 103.006C55.9494 103.451 55.5827 103.868 55.226 104.092C53.966 104.884 51.876 103.908 50.3627 102.589C49.981 102.257 49.6052 101.904 49.2072 101.53L49.2071 101.53L49.2066 101.53L49.2064 101.529L49.1394 101.466L49.1285 101.456C47.4778 99.9087 45.6104 98.158 43.066 97.5813C41.8194 97.2974 40.556 97.3341 39.4427 97.3675L39.4281 97.3679C38.0376 97.4079 36.8335 97.4424 36.0994 96.8931C35.35 96.3324 35.0333 95.1347 34.667 93.7499L34.666 93.7463C34.466 92.9813 34.256 92.1929 33.946 91.4112C32.926 88.8523 31.056 87.0217 29.246 85.2512L29.0582 85.0661C28.5168 84.5331 28.0007 84.025 27.5194 83.5007C25.9394 81.7803 24.4427 79.0811 25.4227 77.1369C25.8427 76.3051 26.7394 75.4298 27.606 74.5846C29.376 72.8609 31.7994 70.4958 30.5394 67.2721C30.1394 66.2499 29.446 65.525 28.8894 64.9437C28.7027 64.7499 28.5294 64.5662 28.386 64.3958C26.0927 61.6699 27.7427 56.8895 30.5827 54.0266C32.0085 52.5877 33.6674 51.3723 35.4263 50.0837L35.4263 50.0836L35.4263 50.0836L35.4294 50.0814L35.4317 50.0797L35.4317 50.0797L35.4317 50.0797C37.651 48.4533 39.9434 46.7734 41.8227 44.5594C44.6756 41.2031 46.1621 37.1339 47.6004 33.1968L47.606 33.1813L47.6541 33.0502C48.1924 31.581 48.7476 30.0657 49.3594 28.6481C53.4694 19.1308 61.4627 11.2035 71.286 6.90084C80.6427 2.80193 93.1127 5.56126 104.063 8.47092C106.553 9.1357 110.049 10.3149 111.676 12.9072C112.263 13.8426 113.496 14.1232 114.433 13.5353C115.366 12.9473 115.646 11.708 115.059 10.7726C112.683 6.9877 108.229 5.43766 105.086 4.59917C93.4827 1.51914 80.2194 -1.38384 69.6827 3.23287C58.9427 7.93977 50.196 16.6253 45.6894 27.0613C45.0127 28.6281 44.4194 30.2483 43.8494 31.8117C42.4694 35.5899 41.166 39.1576 38.776 41.9704C37.2078 43.8179 35.2107 45.282 33.0999 46.8295L33.0998 46.8296L33.066 46.8544C31.2594 48.1772 29.3927 49.5469 27.7427 51.2105C25.7194 53.2483 24.2094 55.9475 23.6027 58.6099C22.8694 61.8236 23.4794 64.7967 25.3194 66.9881C25.5265 67.2385 25.7365 67.4582 25.9391 67.6701L25.9392 67.6702L25.996 67.7297C26.3594 68.1072 26.6994 68.4613 26.8094 68.7453C27.0594 69.3867 26.426 70.1483 24.8094 71.7251L24.7963 71.7378C23.7495 72.7603 22.5631 73.9191 21.846 75.343C20.5994 77.815 20.6627 81.974 24.5694 86.23C25.1794 86.8947 25.8227 87.5261 26.446 88.1341L26.4548 88.1427C28.0316 89.6862 29.5207 91.1439 30.2227 92.9078C30.4419 93.4637 30.6115 94.1024 30.7907 94.7778L30.7908 94.7779L30.7908 94.7781L30.7909 94.7782L30.7927 94.7852C31.2794 96.6326 31.8327 98.7271 33.7094 100.124C35.5588 101.5 37.6739 101.44 39.5443 101.387H39.5444L39.556 101.386L39.5793 101.386C40.534 101.359 41.4321 101.334 42.1794 101.503C43.6727 101.844 44.9994 103.087 46.4027 104.406L46.5475 104.541L46.5477 104.542C46.9349 104.903 47.3306 105.273 47.7394 105.629ZM134.503 100.919C134.639 100.929 134.779 100.932 134.919 100.932C136.919 100.932 138.949 100.027 140.299 98.5234C141.506 97.1738 142.009 95.5235 141.719 93.8766C141.623 93.3287 141.456 92.851 141.306 92.4301C141.179 92.0727 141.049 91.7052 141.049 91.5181C141.053 91.1675 141.506 90.5964 141.946 90.042L141.946 90.0416C142.376 89.5004 142.863 88.8857 143.226 88.1475C144.374 85.813 143.828 83.3821 143.345 81.2334L143.343 81.2224L143.341 81.213C142.945 79.4531 142.604 77.9368 143.213 76.9197C143.493 76.4554 144.036 76.0077 144.613 75.5367C144.866 75.3296 145.119 75.1225 145.363 74.9053C147.866 72.6905 149.416 69.3466 149.616 65.7321C149.819 62.1109 148.643 58.6066 146.389 56.1178C145.879 55.5566 145.339 55.0522 144.816 54.5678C143.833 53.6558 142.903 52.7906 142.526 51.8085C142.207 50.9693 142.226 49.8878 142.246 48.7459L142.246 48.7351L142.249 48.518C142.399 39.2879 140.706 31.3306 137.216 24.8732C133.226 17.4905 127.993 15.2223 119.736 13.6255C118.649 13.415 117.603 14.1265 117.393 15.2122C117.183 16.2979 117.893 17.3502 118.976 17.5607C126.343 18.9871 130.426 20.7309 133.696 26.7807C136.856 32.6268 138.389 39.9159 138.249 48.4478L138.246 48.6583L138.246 48.6818C138.222 50.0858 138.196 51.6769 138.793 53.2382C139.503 55.0923 140.883 56.3751 142.099 57.5042C142.583 57.9518 143.036 58.3727 143.429 58.807C144.966 60.5074 145.766 62.9494 145.626 65.5082C145.486 68.0605 144.426 70.3889 142.719 71.8988C142.564 72.0366 142.404 72.1688 142.243 72.301C142.19 72.345 142.136 72.3891 142.083 72.4333C141.306 73.068 140.426 73.7896 139.786 74.8519C138.349 77.2504 138.929 79.826 139.443 82.101C139.816 83.7512 140.166 85.308 139.643 86.3703C139.469 86.7244 139.153 87.1252 138.819 87.5462C138.039 88.5249 137.073 89.7476 137.056 91.4914C137.056 92.3899 137.326 93.1514 137.543 93.7627L137.543 93.763L137.553 93.7924C137.653 94.079 137.747 94.3516 137.786 94.5647C137.879 95.0892 137.586 95.5469 137.326 95.8409C136.706 96.5324 135.653 96.9767 134.763 96.9199C132.709 96.7896 130.756 95.2128 129.106 93.6862L129.066 93.6494L129.057 93.6414C128.265 92.9139 127.184 91.9216 125.666 91.7152C123.113 91.3544 121.466 93.1817 120.266 94.518C119.719 95.126 119.203 95.7005 118.709 96.0146C117.586 96.7294 115.929 96.2785 114.866 95.5602C113.392 94.5631 112.287 92.9135 111.218 91.3192L111.213 91.311C110.596 90.3923 109.353 90.1451 108.436 90.7631C107.519 91.3812 107.273 92.6272 107.889 93.5459L107.908 93.5736L107.908 93.5736C109.13 95.3942 110.514 97.455 112.629 98.8841C115.286 100.678 118.513 100.882 120.853 99.3986C121.808 98.788 122.564 97.9474 123.234 97.203L123.236 97.2005L123.251 97.1842C123.943 96.4142 124.656 95.6208 125.113 95.6872C125.4 95.7236 125.943 96.2225 126.345 96.5923L126.345 96.5924L126.356 96.6025L126.389 96.6326C128.546 98.6336 131.199 100.708 134.503 100.919ZM55.4927 50.7094C55.286 50.7094 55.076 50.676 54.8727 50.6092C53.8227 50.2651 53.2494 49.1327 53.5927 48.0804C54.8727 44.1485 56.326 39.6921 59.0694 35.9941C60.8394 33.6056 62.8827 31.9219 65.896 30.3585C71.2427 27.5892 77.3694 26.42 83.6161 26.9745C87.9061 27.3553 98.136 28.735 100.413 33.3016C100.906 34.2904 100.506 35.4963 99.5194 35.9908C98.5327 36.4852 97.3294 36.0843 96.8361 35.0955C96.0861 33.5922 90.8027 31.638 83.2627 30.9665C77.7727 30.4788 72.4027 31.501 67.7327 33.9196C65.2594 35.199 63.6794 36.4918 62.2794 38.386C59.9264 41.559 58.6398 45.5068 57.3967 49.3212L57.3967 49.3212L57.396 49.3231C57.1194 50.1716 56.336 50.7094 55.4927 50.7094ZM111.619 47.0014C111.835 52.7507 111.401 58.5296 110.328 64.1911C114.167 61.6191 116.64 62.1663 118.736 63.2266C122.616 65.1909 124.293 69.4435 123.113 74.3274C122.213 78.1223 119.836 81.64 116.423 84.2223C114.829 85.4082 113.103 86.3903 111.283 87.1453C110.419 87.5094 109.516 87.8435 108.606 88.1274C108.329 88.2143 108.063 88.2811 107.829 88.3379C107.795 88.3464 107.759 88.3553 107.722 88.3644C107.598 88.3946 107.464 88.4273 107.369 88.4581C105.453 92.4668 104.859 93.9734 105.193 97.902C105.286 99.0044 104.469 99.9732 103.369 100.067C103.309 100.08 103.253 100.083 103.196 100.083C102.169 100.083 101.293 99.295 101.206 98.2461C100.783 93.2151 101.759 90.9135 103.833 86.5841C104.593 85.004 106.029 84.6565 106.889 84.4494C106.929 84.4395 106.968 84.43 107.006 84.4205C107.15 84.3853 107.285 84.352 107.406 84.3124C108.199 84.0619 108.983 83.7746 109.739 83.4539C111.269 82.8192 112.706 82.0008 114.026 81.0186C116.686 79.0042 118.539 76.295 119.226 73.3954C119.579 71.9355 120.059 68.3878 116.936 66.8077C115.573 66.1162 114.236 65.8456 110.573 69.0727C109.743 69.8042 108.479 69.7207 107.749 68.8889C107.216 68.2806 107.117 67.4399 107.427 66.746C106.532 66.3984 105.992 65.4466 106.193 64.476C107.359 58.7836 107.839 52.9509 107.619 47.1417C107.559 45.3277 104.463 41.4994 102.363 40.6308C101.343 40.2066 100.856 39.0374 101.279 38.0118C101.703 36.9896 102.869 36.5019 103.893 36.9261C105.456 37.5742 107.316 39.1008 108.863 41.0083C109.859 42.2377 111.539 44.6462 111.619 47.0014ZM62.8094 62.5719C64.0981 62.5719 65.1427 61.3006 65.1427 59.7324C65.1427 58.1642 64.0981 56.8929 62.8094 56.8929C61.5207 56.8929 60.4761 58.1642 60.4761 59.7324C60.4761 61.3006 61.5207 62.5719 62.8094 62.5719ZM76.4761 60.5174C76.4761 62.0856 75.4314 63.3569 74.1428 63.3569C72.8541 63.3569 71.8094 62.0856 71.8094 60.5174C71.8094 58.9492 72.8541 57.6779 74.1428 57.6779C75.4314 57.6779 76.4761 58.9492 76.4761 60.5174ZM77.7161 101.126C77.7661 102.201 78.6494 103.04 79.7127 103.04C79.7428 103.04 79.7727 103.04 79.8094 103.026C80.9127 102.976 81.7661 102.038 81.7161 100.932C81.5561 97.4844 81.5928 96.7428 81.8061 93.3822C81.8494 92.694 81.5361 92.0326 80.9761 91.6283C80.4161 91.2275 79.6894 91.1406 79.0527 91.4012C75.5394 92.841 71.5627 92.3165 67.1094 91.5382C62.7527 90.7698 59.5628 89.33 57.0694 87.005C52.4061 82.6555 50.2527 75.4164 51.1561 67.1485C51.4294 64.6731 52.5294 59.9395 54.8027 54.0801C55.2027 53.0478 54.6927 51.8853 53.6628 51.4844C52.6327 51.0836 51.4727 51.5947 51.0727 52.6269C49.0227 57.9084 47.5694 63.1732 47.1794 66.7109C46.1394 76.2549 48.7494 84.72 54.3427 89.9414C57.3861 92.7775 61.3361 94.5915 66.4194 95.4901C69.5661 96.0413 73.6461 96.7528 77.6527 95.9778C77.5861 97.5913 77.6094 98.7739 77.7161 101.126Z" fill="black"/>
</g>
<defs>
<clipPath id="clip0_805_38627">
<rect width="180" height="180" rx="24" fill="white"/>
</clipPath>
<clipPath id="clip1_805_38627">
<rect width="200" height="200.436" fill="white" transform="translate(-10 95.2734)"/>
</clipPath>
</defs>
</svg>
