<svg width="180" height="180" viewBox="0 0 180 180" fill="none" xmlns="http://www.w3.org/2000/svg">
<g clip-path="url(#clip0_805_37294)">
<rect width="180" height="180" rx="24" fill="white"/>
<g clip-path="url(#clip1_805_37294)">
<path d="M103.124 95.2734C103.424 98.6474 104.8 106.271 109.924 105.128L110.474 105.963C110.224 111.198 107.577 114.889 103.43 118.714C99.2171 122.539 93.8437 124.838 88.1737 125.242C83.1737 125.609 77.8571 124.41 74.1171 121.049C70.3771 117.689 68.4104 113.032 70.8871 109.04H71.2471C72.3737 109.073 73.4104 108.482 74.3637 107.881C75.5771 107.113 76.6104 103.662 77.3604 102.756C78.3604 101.457 80.2337 96.8302 80.7471 95.2734H103.124V95.2734Z" fill="#FFD39F"/>
<path d="M137.443 188.427C144.826 211.337 149.963 228.909 156.71 251.02C157.043 252.149 158.376 256.141 157.76 257.14C157.346 257.808 156.653 258.236 155.976 258.62C152.276 260.728 148.236 260.905 144.063 261.747L128.573 264.837C106.403 268.822 84.1529 269.798 61.9429 266.043L57.7529 265.552L43.4195 262.803C42.1262 262.555 40.7062 262.225 39.9496 261.132C39.3229 260.237 39.3262 259.058 39.3729 257.965C39.5629 253.623 40.0629 249.313 40.5629 245L44.5062 210.926C46.1962 196.328 47.8896 181.706 50.1929 167.198L50.0329 167.148C46.1562 165.812 42.3396 164.328 38.5196 162.842C37.9929 162.692 37.5196 162.398 37.1462 161.997C36.3962 161.028 37.0396 159.638 37.6829 158.593C43.3629 149.339 48.2196 139.605 52.2029 129.499C55.2429 121.783 58.4162 113.1 65.8362 109.422L81.3429 111.196L110.52 103.289C115.623 104.659 119.81 108.327 123.246 112.352C127.59 117.44 131.033 123.236 133.433 129.486C138.743 143.326 138.746 158.927 145.15 172.296C142.113 173.198 139.03 173.923 135.913 174.474L137.443 188.427Z" fill="black"/>
<path fill-rule="evenodd" clip-rule="evenodd" d="M83.266 123C81.7027 119.93 80.766 116.579 80.516 113.142C88.9427 105.772 97.5327 101.683 106.469 98.6402C107.023 98.4531 107.779 98.3362 108.073 98.844C108.183 99.0945 108.209 99.3751 108.153 99.6457L107.556 104.947C107.276 107.429 106.966 110.002 105.666 112.136C104.293 114.398 101.966 115.888 99.666 117.197C95.156 119.766 90.436 121.951 85.5593 123.725C85.0193 123.922 84.3827 124.106 83.8927 123.805C83.616 123.598 83.3993 123.321 83.266 123ZM75.8693 106.297C75.696 104.279 76.696 102.362 77.666 100.584C78.2493 100.544 77.626 99.4987 76.8527 99.3984C76.0793 99.2982 75.3627 99.816 74.746 100.3C72.2127 102.281 69.746 104.376 67.626 106.795C67.2093 107.139 66.9127 107.603 66.7693 108.124C66.6293 108.645 66.6493 109.196 66.8327 109.704C67.636 113.355 68.9293 116.88 70.676 120.184C70.956 120.715 71.436 121.323 72.0093 121.159C72.2493 121.066 72.456 120.905 72.6093 120.698L76.736 116.021C78.3227 114.227 80.0093 112.173 79.896 109.778C77.946 110.305 76.0427 108.314 75.8693 106.297Z" fill="white"/>
<path fill-rule="evenodd" clip-rule="evenodd" d="M39.3859 257.979C39.5759 253.643 40.0759 249.326 40.5759 245.014L44.5226 210.953C46.1893 196.371 47.8893 181.763 50.1893 167.265L50.0359 167.175C47.3126 166.239 44.6193 165.227 41.9326 164.191L41.7959 164.86L36.8326 224.078C36.6293 226.487 36.3359 229.133 34.4826 230.759C33.7605 231.393 32.8412 231.821 31.9344 232.242C30.5137 232.903 29.124 233.549 28.5726 234.952C27.8647 236.755 28.9842 238.42 30.1354 240.131C30.746 241.039 31.3655 241.96 31.7259 242.923C32.4237 244.767 32.1383 246.813 31.856 248.837C31.5313 251.164 31.2106 253.463 32.3926 255.396C33.7526 257.621 36.5726 258.383 39.1359 258.844L39.3859 257.979ZM124.556 241.306C121.873 219.615 120.223 197.865 119.603 176.05L136.056 175.536C136.858 182.798 137.66 190.061 138.463 197.326C140.385 214.729 142.308 232.139 144.229 249.554C144.733 254.103 145.126 259.114 142.486 262.852C141.473 264.286 140.083 265.411 138.469 266.096C136.856 266.781 135.086 267.005 133.353 266.738C131.619 266.47 129.996 265.725 128.663 264.586C127.329 263.447 126.339 261.961 125.803 260.287C125.608 259.677 125.471 259.042 125.335 258.41C125.051 257.095 124.77 255.79 123.973 254.731C123.133 253.614 121.847 252.951 120.572 252.294C119.113 251.541 117.668 250.796 116.919 249.387C115.883 247.426 116.729 244.86 118.399 243.417C120.069 241.974 122.353 241.443 124.556 241.306Z" fill="#FFD39F"/>
<path fill-rule="evenodd" clip-rule="evenodd" d="M84.4997 125.966C83.9764 125.966 83.4031 125.852 82.8497 125.512C82.7997 125.481 82.7531 125.448 82.7064 125.415C82.1597 125.01 81.7297 124.469 81.4564 123.848C80.3186 121.604 79.4985 119.245 79.0045 116.805C78.7904 117.055 78.5851 117.287 78.3964 117.501L74.3131 122.124C73.9464 122.592 73.4598 122.956 72.9064 123.173C72.8431 123.196 72.7798 123.22 72.7164 123.237C72.5664 123.273 72.3064 123.33 71.9798 123.33C71.1764 123.33 69.9831 122.986 69.0731 121.262C67.5121 118.311 66.298 115.188 65.4518 111.958C59.8821 115.473 57.1109 122.527 54.4264 129.363L54.0764 130.252C50.0631 140.437 45.1231 150.332 39.3998 159.659C39.0198 160.277 38.8898 160.641 38.8464 160.828C38.9198 160.872 38.9998 160.908 39.0864 160.932C39.1464 160.949 39.2031 160.969 39.2598 160.989L39.3398 161.019L39.3934 161.04C42.413 162.214 45.5158 163.421 48.6195 164.535C50.0495 155.778 51.7126 147.054 53.7364 138.446C53.9897 137.371 55.0631 136.699 56.1431 136.956C57.2164 137.21 57.8831 138.289 57.6297 139.368C52.1624 162.627 49.3393 186.848 46.6088 210.275L46.5997 210.353L46.5031 211.188L42.5597 245.262L42.5577 245.28C42.0716 249.48 41.5695 253.82 41.3797 258.083C41.3564 258.614 41.3131 259.61 41.5964 260.011C41.9297 260.485 43.1164 260.725 43.8231 260.866L55.4264 263.091C56.5097 263.298 57.2231 264.35 57.0131 265.436C56.8364 266.391 55.9997 267.059 55.0564 267.059C54.9331 267.059 54.8064 267.046 54.6797 267.022L43.0564 264.794C41.7431 264.53 39.5797 264.093 38.3264 262.309C37.9353 261.75 37.6971 261.158 37.5559 260.56C34.9093 259.973 32.2236 258.931 30.6964 256.433C29.1331 253.884 29.5297 251.041 29.8797 248.536C30.1364 246.708 30.3764 244.981 29.8631 243.618C29.5945 242.895 29.0809 242.128 28.5357 241.313L28.5357 241.313L28.4864 241.24L28.4863 241.24C27.213 239.345 25.6298 236.99 26.7197 234.208C27.5714 232.054 29.5453 231.131 31.1304 230.39L31.1397 230.386C31.9364 230.015 32.6864 229.665 33.1764 229.237C34.3931 228.175 34.6597 226.107 34.8464 223.899L39.7423 165.484C39.1217 165.243 38.504 165.003 37.8898 164.763L37.8831 164.76C37.0464 164.5 36.2898 164.025 35.6931 163.38C35.6531 163.337 35.6164 163.294 35.5798 163.247C34.4398 161.774 34.5798 159.863 35.9931 157.561C41.5931 148.435 46.4264 138.75 50.3564 128.782L50.7031 127.897C53.7164 120.22 57.1331 111.521 64.9631 107.643C64.9957 107.626 65.0285 107.611 65.0615 107.597C65.3276 106.823 65.7693 106.116 66.3464 105.538C68.5798 103.089 71.0498 100.838 73.6931 98.8435C74.3798 98.309 75.6398 97.3302 77.2831 97.5507C78.5764 97.7244 80.4264 99.0272 80.3731 100.681C80.3531 101.282 80.0998 101.813 79.6898 102.187L79.6891 102.189L79.6891 102.189C79.5926 102.355 79.4962 102.522 79.3998 102.692L79.3947 102.701C78.6762 103.947 77.9333 105.237 78.0198 106.28C78.0598 106.764 78.4098 107.312 80.6531 108.013C81.289 108.212 81.7724 108.709 81.9661 109.326C88.7645 103.938 96.2688 99.9936 105.83 96.739C107.893 96.0408 109.236 96.8492 109.806 97.8347C109.843 97.9015 109.876 97.9683 109.906 98.0351C110.17 98.6398 110.246 99.2945 110.133 99.9426L109.973 101.371C110.311 101.274 110.679 101.264 111.043 101.362C115.8 102.638 120.293 105.812 124.773 111.06C129.276 116.335 132.82 122.298 135.306 128.779C137.77 135.203 139.126 142.017 140.436 148.608L140.447 148.661L140.447 148.661L140.447 148.661L140.447 148.661L140.447 148.661L140.447 148.661C142.053 156.736 143.57 164.365 146.96 171.441C147.213 171.972 147.223 172.584 146.983 173.122C146.743 173.659 146.283 174.064 145.723 174.231C143.229 174.964 140.72 175.585 138.198 176.093L139.551 188.458C144.766 204.662 148.886 218.288 153.23 232.655L153.37 233.119C155.043 238.661 156.776 244.39 158.62 250.433C158.66 250.567 158.703 250.71 158.756 250.877C159.88 254.539 160.323 256.79 159.46 258.193C158.8 259.262 157.823 259.874 156.96 260.365C153.859 262.131 150.588 262.669 147.423 263.19L147.416 263.191L147.303 263.209L147.302 263.21C146.365 263.364 145.401 263.523 144.456 263.715C144.4 263.725 144.344 263.733 144.288 263.739C144.226 263.833 144.162 263.927 144.096 264.019C142.866 265.756 141.183 267.113 139.226 267.944C137.806 268.546 136.293 268.85 134.766 268.85C134.183 268.85 133.6 268.806 133.016 268.716C131.354 268.46 129.778 267.841 128.391 266.907C115.216 269.246 102.701 270.416 90.6564 270.416C80.6931 270.416 71.0531 269.618 61.6131 268.021C60.5231 267.838 59.7898 266.802 59.9731 265.713C60.1564 264.621 61.1864 263.882 62.2764 264.069C81.9075 267.388 102.469 267.177 125.037 263.418C124.551 262.629 124.159 261.781 123.873 260.889C123.65 260.181 123.5 259.493 123.36 258.825C123.11 257.649 122.89 256.633 122.36 255.925C121.796 255.18 120.753 254.639 119.646 254.068L119.641 254.065C118.019 253.227 116.182 252.278 115.14 250.316C113.743 247.667 114.58 244.046 117.09 241.888C118.44 240.725 120.196 239.944 122.326 239.553C119.877 219.09 118.327 198.301 117.712 177.707C114.867 177.589 112.016 177.329 109.163 176.927C108.153 176.783 107.413 175.904 107.443 174.885L108.353 142.876C108.383 141.77 109.303 140.888 110.41 140.928C111.513 140.958 112.383 141.884 112.353 142.989L111.493 173.188C121.89 174.431 132.26 173.696 142.373 171C139.427 164.058 137.947 156.614 136.511 149.39L136.51 149.383C135.233 142.956 133.913 136.315 131.57 130.212C129.246 124.159 125.936 118.59 121.73 113.662C117.793 109.052 113.956 106.293 110.006 105.234C109.847 105.191 109.697 105.13 109.559 105.054L109.546 105.167C109.273 107.599 108.93 110.623 107.376 113.175C105.72 115.904 103.04 117.578 100.656 118.934C96.0597 121.553 91.2131 123.794 86.2431 125.602C85.9131 125.729 85.2597 125.966 84.4997 125.966ZM82.6031 113.986C82.9164 116.719 83.6931 119.351 84.9164 121.827C89.6597 120.1 94.2897 117.955 98.6797 115.456C100.626 114.347 102.8 113.008 103.96 111.097C105.054 109.304 105.315 106.985 105.568 104.741V104.741L105.57 104.726L105.996 100.928C96.5631 104.252 89.2664 108.324 82.6031 113.986ZM146.77 259.232C146.555 259.267 146.338 259.302 146.121 259.338C146.919 255.811 146.514 252.099 146.214 249.346L146.213 249.341L141.778 208.808C144.415 217.327 146.868 225.443 149.397 233.81L149.398 233.812L149.54 234.281C151.213 239.827 152.946 245.559 154.786 251.589C154.823 251.712 154.873 251.873 154.93 252.057C155.713 254.615 155.913 255.751 155.92 256.246C155.692 256.47 155.3 256.695 155.027 256.852L154.983 256.877C152.508 258.289 149.734 258.745 146.798 259.227L146.77 259.232ZM135.536 189.043C135.427 188.703 135.412 188.355 135.479 188.027L134.25 176.792C130.097 177.429 125.916 177.76 121.718 177.781C122.351 198.859 123.973 220.136 126.54 241.056C126.606 241.604 126.446 242.155 126.093 242.583C125.74 243.007 125.23 243.267 124.68 243.301C122.47 243.438 120.793 243.986 119.7 244.928C118.61 245.866 118.153 247.44 118.68 248.435C119.131 249.287 120.215 249.848 121.469 250.496L121.483 250.503L121.498 250.511C122.881 251.227 124.447 252.038 125.556 253.51C126.622 254.925 126.969 256.546 127.275 257.979L127.276 257.983L127.295 258.071L127.295 258.071L127.296 258.071L127.296 258.072C127.418 258.64 127.534 259.178 127.69 259.67C128.11 260.983 128.89 262.155 129.94 263.057C130.99 263.956 132.27 264.544 133.633 264.754C135 264.965 136.393 264.791 137.666 264.253C138.94 263.712 140.033 262.83 140.833 261.701C142.996 258.644 142.733 254.318 142.236 249.778L135.618 189.296L135.536 189.043ZM47.9767 168.571C45.8344 182.363 44.2205 196.207 42.6378 209.784L42.6264 209.882L38.5864 244.794L38.5725 244.914C38.1393 248.666 37.6931 252.53 37.4638 256.405C36.0321 255.999 34.7481 255.385 34.1031 254.332C33.2931 253.009 33.5464 251.191 33.8397 249.087L33.8397 249.087L33.8423 249.068C34.1384 246.935 34.4739 244.517 33.6064 242.205C33.1631 241.023 32.4731 239.994 31.8031 238.998C30.7564 237.441 30.1397 236.439 30.4397 235.678C30.7028 235.007 31.6847 234.549 32.8234 234.019L32.8264 234.017C33.7931 233.566 34.8864 233.055 35.8031 232.257C38.1497 230.212 38.5864 227.172 38.8331 224.233L43.6319 166.977C45.0724 167.521 46.5227 168.056 47.9767 168.571ZM68.9231 109.286C68.8831 109.139 68.8631 108.992 68.8698 108.842C68.9398 108.665 69.0498 108.501 69.1898 108.364C69.2198 108.334 69.2464 108.307 69.2731 108.277C70.9331 106.453 72.7331 104.75 74.6464 103.19C74.2131 104.235 73.9398 105.371 74.0431 106.61C74.2631 109.243 76.2231 110.556 77.8631 111.26C77.4398 112.46 76.4331 113.672 75.4064 114.835L72.1598 118.51C70.7231 115.62 69.6464 112.563 68.9531 109.406L68.9231 109.286ZM77.4998 129.347C78.5123 129.347 79.3331 128.524 79.3331 127.509C79.3331 126.494 78.5123 125.672 77.4998 125.672C76.4873 125.672 75.6664 126.494 75.6664 127.509C75.6664 128.524 76.4873 129.347 77.4998 129.347ZM77.9997 140.203C77.9997 141.218 77.1789 142.041 76.1664 142.041C75.1539 142.041 74.3331 141.218 74.3331 140.203C74.3331 139.189 75.1539 138.366 76.1664 138.366C77.1789 138.366 77.9997 139.189 77.9997 140.203Z" fill="black"/>
</g>
<path d="M45.9395 67.4937C42.8928 66.1174 41.0228 62.9672 39.9562 59.8103C37.0095 51.068 38.8695 41.1531 43.5828 33.2258C48.2962 25.2986 55.6128 19.1953 63.5828 14.5486C69.7528 10.9508 76.5828 8.09789 83.7261 7.99099C90.8695 7.88409 98.3462 10.9407 102.129 17.0106L106.859 21.1863C112.859 20.2677 118.703 23.6116 123.309 27.5736C128.976 32.4375 133.699 38.5174 136.366 45.4992C139.033 52.481 139.536 60.3882 137.109 67.4569C134.903 73.8742 129.226 79.904 122.473 79.3829" fill="black"/>
<path d="M79.7133 102.704C79.5533 99.223 79.5866 96.741 79.8066 93.2634C75.6466 94.9671 71.0466 94.2656 66.76 93.5173C62.65 92.7924 58.8066 91.3693 55.7033 88.4763C49.88 83.0412 48.3333 74.5628 49.1666 66.9328C49.5 63.9029 50.7866 58.8987 52.9366 53.3567L55.49 49.7221C57.99 45.5998 61.12 41.7915 65.0733 39.0322C69.0266 36.2729 73.8633 34.6493 78.6566 35.0535C79.99 35.1671 81.3666 35.4511 82.4866 36.2027C83.6066 36.9543 84.44 38.2438 84.3433 39.5901L89.3833 42.5031C91.5266 41.0365 94.68 42.169 96.1666 44.317C97.6533 46.465 97.8566 49.2177 97.7666 51.82C97.6766 54.4223 97.3433 57.0681 97.95 59.5969C98.4733 61.638 99.57 63.4853 101.113 64.9185C102.657 66.3516 104.577 67.3103 106.647 67.6778L109.253 67.5509C113.077 64.1835 115.327 63.7326 117.837 65.002C121.41 66.8092 121.947 70.6309 121.17 73.8412C120.33 77.3822 118.09 80.4355 115.217 82.6103C113.767 83.6893 112.187 84.5879 110.517 85.2827C109.697 85.6302 108.86 85.9375 108.01 86.2047C107.053 86.5087 106.087 86.4987 105.637 87.4341C103.657 91.5697 102.813 95.4949 103.2 100.065" fill="#FFD39F"/>
<path fill-rule="evenodd" clip-rule="evenodd" d="M45.1267 69.3097C45.3934 69.4266 45.6667 69.4834 45.9401 69.4834C46.3118 69.4834 46.6763 69.378 46.9907 69.1843C46.6185 77.7081 49.2384 85.1757 54.3434 89.9412C57.3867 92.7773 61.3367 94.5913 66.4201 95.4899C69.5667 96.0411 73.6467 96.7527 77.6534 95.9776C77.5867 97.5911 77.6101 98.7737 77.7167 101.125C77.7667 102.201 78.6501 103.04 79.7134 103.04C79.7434 103.04 79.7734 103.04 79.8101 103.026C80.9134 102.976 81.7667 102.037 81.7167 100.932C81.5567 97.4842 81.5934 96.7426 81.8067 93.382C81.8501 92.6938 81.5367 92.0324 80.9767 91.6282C80.4167 91.2273 79.6901 91.1404 79.0534 91.401C75.5401 92.8408 71.5634 92.3163 67.1101 91.538C62.7534 90.7696 59.5634 89.3298 57.0701 87.0048C52.4067 82.6553 50.2534 75.4163 51.1567 67.1483C51.4301 64.6729 52.5301 59.9393 54.8034 54.0799C55.2034 53.0476 54.6934 51.8851 53.6634 51.4842C52.6334 51.0834 51.4734 51.5945 51.0734 52.6267C49.159 57.5587 47.765 62.4761 47.2713 65.9862C47.1208 65.852 46.9474 65.7383 46.7534 65.6517C44.1067 64.4692 42.6267 61.4693 41.8501 59.1543C39.2634 51.5076 40.5501 42.1941 45.2901 34.2401C49.3634 27.4052 55.8534 21.3588 64.5801 16.2677C71.6801 12.1254 77.9501 10.0709 83.7467 9.9807C90.7567 9.87714 97.2967 13.044 100.423 18.0583C101.01 18.997 102.243 19.2843 103.18 18.6963C104.117 18.1084 104.403 16.8723 103.817 15.9336C99.9067 9.65666 92.1767 5.8417 83.6867 5.97198C77.1834 6.0722 70.2767 8.30372 62.5667 12.8002C53.2501 18.2353 46.2801 24.7562 41.8567 32.1823C36.5267 41.1318 35.1067 51.6947 38.0634 60.4337C39.5434 64.84 41.9834 67.9066 45.1267 69.3097ZM123.287 81.406C122.96 81.406 122.637 81.3926 122.31 81.3692C121.468 81.3053 120.786 80.7246 120.552 79.9612C119.443 81.5466 118.051 82.9907 116.423 84.2221C114.83 85.408 113.103 86.3901 111.283 87.1451C110.42 87.5092 109.517 87.8433 108.607 88.1272C108.33 88.2141 108.063 88.2809 107.83 88.3377C107.796 88.3462 107.76 88.3551 107.722 88.3642C107.599 88.3944 107.465 88.4272 107.37 88.458C105.453 92.4667 104.86 93.9733 105.193 97.9018C105.287 99.0042 104.47 99.973 103.37 100.067C103.31 100.08 103.253 100.083 103.197 100.083C102.17 100.083 101.293 99.2948 101.207 98.2459C100.783 93.215 101.76 90.9133 103.833 86.5839C104.593 85.0038 106.03 84.6564 106.89 84.4492C106.929 84.4395 106.967 84.4301 107.005 84.4208L107.007 84.4203C107.15 84.3851 107.286 84.3518 107.407 84.3123C108.2 84.0617 108.983 83.7744 109.74 83.4537C111.27 82.819 112.707 82.0006 114.027 81.0185C116.687 79.0041 118.54 76.2948 119.227 73.3952C119.58 71.9354 120.06 68.3877 116.937 66.8076C115.573 66.1161 114.237 65.8455 110.573 69.0725C109.84 69.7187 108.769 69.729 108.026 69.1493C107.662 69.4946 107.172 69.7005 106.65 69.7005C106.533 69.7005 106.417 69.6905 106.297 69.6705C103.843 69.2328 101.58 68.1037 99.7534 66.4067C97.9267 64.7097 96.6334 62.5316 96.0134 60.113C95.4567 57.788 95.5767 55.5264 95.6934 53.3349L95.7104 53.0075C95.732 52.5933 95.7535 52.1808 95.7667 51.7682C95.8367 49.7772 95.7567 47.2617 94.5234 45.4779C93.6634 44.2352 91.6801 43.3766 90.5101 44.1784C89.5967 44.8031 88.3534 44.5659 87.7301 43.6539C87.1067 42.7386 87.3434 41.4925 88.2534 40.8679C90.8567 39.0873 95.3167 39.5951 97.8067 43.1962C99.7134 45.9489 99.8534 49.2995 99.7634 51.9119C99.7434 52.4597 99.7167 53.0076 99.6867 53.5554C99.5801 55.5464 99.4801 57.4238 99.8934 59.1509C100.313 60.7945 101.207 62.2978 102.47 63.4737C103.733 64.6495 105.297 65.4279 106.993 65.7319C107.323 65.7907 107.62 65.9275 107.867 66.1201C107.881 66.1068 107.895 66.0937 107.909 66.0808C107.917 66.0736 107.925 66.0664 107.933 66.0593C113.193 61.4259 116.233 61.9604 118.737 63.2264C122.617 65.1907 124.293 69.4433 123.113 74.3272C122.863 75.383 122.498 76.4173 122.029 77.4159C122.217 77.3739 122.415 77.3585 122.617 77.3739C128.347 77.8182 133.287 72.3864 135.21 66.7942C137.39 60.4437 137.133 53.1312 134.49 46.2061C132.11 39.9792 127.793 34.0564 122 29.0856C116.627 24.4655 111.633 22.4712 107.153 23.156C106.06 23.323 105.04 22.5714 104.873 21.479C104.707 20.3866 105.457 19.3611 106.547 19.1941C112.233 18.3222 118.307 20.6272 124.6 26.0423C130.893 31.444 135.607 37.9214 138.223 44.773C141.203 52.5766 141.477 60.858 138.99 68.1004C137.73 71.7617 135.537 75.1056 132.81 77.5175C129.913 80.0697 126.64 81.4026 123.287 81.406ZM54.4434 51.4508C54.7667 51.6479 55.1234 51.7415 55.4767 51.7415C56.1534 51.7415 56.8134 51.3974 57.1867 50.7794C59.8267 46.4132 62.8601 43.0225 66.2001 40.6975C70.0567 38.015 74.4167 36.7255 78.4767 37.0696C79.7567 37.1765 80.7034 37.4437 81.3667 37.888C81.9667 38.2889 82.3734 38.9503 82.3367 39.4614C82.2567 40.5672 83.0867 41.5259 84.1867 41.6061C85.2934 41.6863 86.2467 40.8578 86.3267 39.7521C86.4667 37.7978 85.3901 35.7567 83.5834 34.5508C82.3267 33.7089 80.8101 33.2412 78.8134 33.0709C73.8334 32.65 68.5434 34.1866 63.9234 37.4003C60.1167 40.046 56.7034 43.8476 53.7701 48.6982C53.1967 49.6436 53.5001 50.8763 54.4434 51.4508ZM62.8101 62.5717C64.0987 62.5717 65.1434 61.3004 65.1434 59.7322C65.1434 58.164 64.0987 56.8927 62.8101 56.8927C61.5214 56.8927 60.4767 58.164 60.4767 59.7322C60.4767 61.3004 61.5214 62.5717 62.8101 62.5717ZM76.4767 60.5172C76.4767 62.0854 75.4321 63.3567 74.1434 63.3567C72.8547 63.3567 71.8101 62.0854 71.8101 60.5172C71.8101 58.949 72.8547 57.6777 74.1434 57.6777C75.4321 57.6777 76.4767 58.949 76.4767 60.5172Z" fill="black"/>
</g>
<defs>
<clipPath id="clip0_805_37294">
<rect width="180" height="180" rx="24" fill="white"/>
</clipPath>
<clipPath id="clip1_805_37294">
<rect width="200" height="200.436" fill="white" transform="translate(-10 95.2734)"/>
</clipPath>
</defs>
</svg>
