<svg width="180" height="180" viewBox="0 0 180 180" fill="none" xmlns="http://www.w3.org/2000/svg">
<g clip-path="url(#clip0_805_38744)">
<rect width="180" height="180" rx="24" fill="white"/>
<g clip-path="url(#clip1_805_38744)">
<path d="M103.124 95.2734C103.424 98.6474 104.8 106.271 109.924 105.128L110.474 105.963C110.224 111.198 107.577 114.889 103.43 118.714C99.2171 122.539 93.8437 124.838 88.1737 125.242C83.1737 125.609 77.8571 124.41 74.1171 121.049C70.3771 117.689 68.4104 113.032 70.8871 109.04H71.2471C72.3737 109.073 73.4104 108.482 74.3637 107.881C75.5771 107.113 78.0804 103.962 78.8304 103.057C79.8304 101.758 80.2371 96.8302 80.7504 95.2734H103.124V95.2734Z" fill="#FFD39F"/>
<path d="M110.63 103.262C115.734 104.628 119.92 108.303 123.357 112.311C127.7 117.399 131.144 123.195 133.544 129.445C138.854 143.285 138.857 158.886 145.26 172.255C141.784 173.287 138.247 174.089 134.667 174.66L137.554 188.38C144.937 211.29 150.074 228.861 156.82 250.973C157.154 252.102 158.487 256.094 157.87 257.093C157.457 257.761 156.764 258.189 156.087 258.573C152.387 260.681 148.347 260.858 144.174 261.7L128.684 264.79C106.514 268.775 84.2635 269.75 62.0535 265.996L57.8635 265.504L43.5302 262.755C42.2368 262.508 40.8168 262.177 40.0602 261.085C39.4335 260.19 39.4368 259.01 39.4835 257.918C39.6735 253.575 40.1735 249.266 40.6735 244.953L44.6168 210.879C46.3335 196.324 48.0002 181.709 50.3335 167.204L50.1735 167.137C46.2968 165.801 42.4802 164.318 38.6602 162.831C38.1335 162.681 37.6602 162.387 37.2868 161.986C36.5368 161.017 37.1802 159.628 37.8235 158.582C43.5002 149.329 48.3535 139.594 52.3335 129.489C55.3735 121.772 58.5468 113.09 65.9668 109.412L74.3768 105.884C73.6635 107.103 74.5668 110.581 75.5302 111.613C76.4935 112.645 77.8635 113.187 79.1968 113.618C83.6702 115.014 88.5302 115.385 93.0702 114.286C97.6102 113.187 101.854 110.518 104.52 106.652C105.187 105.704 105.744 104.675 106.57 103.87C107.397 103.065 108.57 102.497 109.694 102.747L110.63 103.262Z" fill="black"/>
<path fill-rule="evenodd" clip-rule="evenodd" d="M36.8443 224.069L41.8076 164.851L50.631 164.66C48.1143 180.004 46.321 195.48 44.531 210.931L40.5876 245.005L40.5858 245.021C40.0864 249.328 39.5874 253.632 39.3976 257.97L39.1476 258.835C36.5843 258.374 33.7643 257.612 32.4043 255.387C31.2146 253.45 31.5365 251.146 31.8621 248.814C32.1442 246.794 32.4292 244.754 31.7376 242.914C31.3772 241.951 30.7577 241.03 30.1471 240.122C28.9959 238.411 27.8764 236.746 28.5843 234.943C29.1432 233.531 30.5569 232.872 31.9871 232.205C32.8857 231.786 33.7907 231.364 34.4943 230.75C36.3176 229.16 36.641 226.488 36.8443 224.069ZM124.554 241.3C121.894 219.62 120.264 197.866 119.668 176.042L136.121 175.54L144.221 249.561C144.718 254.111 145.104 259.126 142.461 262.86C141.448 264.29 140.054 265.413 138.441 266.097C136.828 266.782 135.058 267.003 133.324 266.735C131.594 266.468 129.971 265.72 128.638 264.581C127.304 263.442 126.318 261.952 125.781 260.278C125.588 259.668 125.452 259.035 125.317 258.405C125.035 257.087 124.756 255.781 123.958 254.719C123.119 253.607 121.836 252.944 120.563 252.287C119.104 251.533 117.657 250.786 116.908 249.374C115.874 247.417 116.721 244.848 118.394 243.408C120.068 241.968 122.351 241.437 124.554 241.3Z" fill="#FFD39F"/>
<path fill-rule="evenodd" clip-rule="evenodd" d="M103.526 103.449C103.621 103.619 103.717 103.79 103.816 103.961C103.623 104.238 103.444 104.511 103.273 104.772C103.106 105.026 102.94 105.28 102.756 105.544C100.47 108.858 96.7264 111.347 92.4831 112.369C88.5031 113.327 84.0764 113.11 79.6931 111.741C78.6131 111.39 77.5231 110.972 76.8731 110.274C76.492 109.866 76.2915 109.268 76.3902 108.9C77.1636 108.35 77.7677 107.803 78.2129 107.4L78.2298 107.385L78.3465 107.278C79.9898 105.791 80.4864 104.913 80.9231 103.997C80.9731 103.89 81.0231 103.787 81.0798 103.677C81.5931 102.698 81.2198 101.485 80.2431 100.967C79.2665 100.453 78.0564 100.827 77.5398 101.806C77.4564 101.966 77.3831 102.116 77.3098 102.27C77.0804 102.754 76.892 103.148 75.9748 104.017C75.3927 103.343 74.4101 103.119 73.5764 103.533L68.1798 106.205C67.5236 106.531 67.1237 107.169 67.0713 107.851C66.4851 107.399 65.6705 107.291 64.9631 107.642C57.1331 111.52 53.7164 120.219 50.7031 127.896L50.3564 128.781C46.4264 138.749 41.5931 148.434 35.9931 157.56C34.5798 159.862 34.4398 161.773 35.5798 163.246C35.6164 163.293 35.6531 163.336 35.6931 163.38C36.2898 164.024 37.0464 164.499 37.8831 164.759L37.8898 164.763C38.504 165.002 39.1217 165.243 39.7423 165.484L34.8464 223.898C34.6597 226.106 34.3931 228.174 33.1764 229.236C32.6864 229.664 31.9364 230.015 31.1397 230.385L31.1304 230.39C29.5453 231.131 27.5714 232.053 26.7197 234.207C25.6298 236.99 27.213 239.345 28.4863 241.239L28.4864 241.239L28.5357 241.313L28.5357 241.313C29.0809 242.127 29.5945 242.894 29.8631 243.617C30.3764 244.98 30.1364 246.707 29.8797 248.535C29.5297 251.04 29.1331 253.883 30.6964 256.432C32.2243 258.931 34.9117 259.973 37.5594 260.56C37.7007 261.158 37.9389 261.75 38.3298 262.308C39.5831 264.092 41.7464 264.53 43.0598 264.794L55.2498 267.132C55.3764 267.155 55.5031 267.169 55.6264 267.169C56.5664 267.169 57.4064 266.501 57.5864 265.545C57.7964 264.459 57.0831 263.407 55.9998 263.2L43.8264 260.865C43.1198 260.725 41.9331 260.484 41.5998 260.01C41.3164 259.609 41.3598 258.613 41.3831 258.082C41.5728 253.819 42.075 249.479 42.561 245.279L42.561 245.279L42.5631 245.261L46.5064 211.187L46.6031 210.352L46.6122 210.274C49.3427 186.847 52.1658 162.626 57.6331 139.368C57.8864 138.289 57.2198 137.209 56.1464 136.956C55.0664 136.698 53.9931 137.37 53.7398 138.446C51.7159 147.054 50.0528 155.778 48.6227 164.535C45.5179 163.421 42.4138 162.214 39.3932 161.039L39.3398 161.018L39.2598 160.988C39.2031 160.968 39.1464 160.948 39.0864 160.931C38.9998 160.908 38.9198 160.871 38.8464 160.827C38.8898 160.64 39.0198 160.276 39.3998 159.658C45.1231 150.331 50.0631 140.436 54.0764 130.251L54.4264 129.362C57.3098 122.02 60.2931 114.427 66.7364 111.236C67.3925 110.911 67.7924 110.273 67.8449 109.591C68.0754 109.768 68.3413 109.893 68.6221 109.957C68.0316 110.433 67.74 111.228 67.9398 112.011C68.8531 115.616 72.0564 117.741 74.9864 119.448C77.8498 121.118 81.1431 121.445 84.0064 121.622C85.3764 121.709 86.8831 121.776 88.4698 121.776C91.7664 121.776 95.4164 121.485 98.9198 120.446C104.97 118.659 108.836 113.014 110.603 109.81C111.136 108.841 110.786 107.622 109.82 107.087C108.853 106.553 107.636 106.904 107.103 107.872C105.633 110.538 102.47 115.218 97.7898 116.601C93.2164 117.954 88.3764 117.877 84.2498 117.624C81.8464 117.473 79.1031 117.213 76.9964 115.983C74.7698 114.687 72.3498 113.124 71.8164 111.026C71.6331 110.296 71.0717 109.762 70.3952 109.581L72.3954 108.59C72.2342 110.113 72.779 111.755 73.9531 113.013C75.2264 114.376 76.8764 115.041 78.4864 115.562C81.4731 116.498 84.4864 116.965 87.4131 116.965C89.4731 116.965 91.4864 116.735 93.4231 116.267C98.6098 115.014 103.21 111.938 106.04 107.839C106.24 107.555 106.43 107.265 106.619 106.974L106.62 106.974L106.631 106.957C107.033 106.342 107.414 105.761 107.846 105.34C108.272 104.924 108.808 104.671 109.129 104.733C109.366 104.965 109.664 105.141 110.006 105.233C113.956 106.292 117.793 109.052 121.73 113.662C125.936 118.589 129.246 124.158 131.57 130.211C133.913 136.314 135.233 142.955 136.51 149.383L136.511 149.39C137.947 156.613 139.427 164.057 142.373 171C132.26 173.695 121.89 174.43 111.493 173.188L112.353 142.989C112.383 141.883 111.513 140.958 110.41 140.928C109.306 140.887 108.383 141.769 108.353 142.875L107.443 174.885C107.413 175.904 108.153 176.782 109.163 176.926C112.016 177.328 114.867 177.588 117.712 177.706C118.327 198.3 119.877 219.089 122.326 239.552C120.196 239.943 118.44 240.724 117.09 241.887C114.58 244.045 113.743 247.666 115.14 250.315C116.182 252.277 118.019 253.226 119.641 254.064L119.646 254.067C120.753 254.638 121.796 255.179 122.36 255.924C122.89 256.632 123.11 257.648 123.36 258.824C123.5 259.492 123.65 260.18 123.873 260.888C124.159 261.78 124.551 262.629 125.037 263.417C102.469 267.176 81.9075 267.387 62.2764 264.069C61.1864 263.881 60.1564 264.62 59.9731 265.712C59.7898 266.801 60.5231 267.837 61.6131 268.02C71.0531 269.617 80.6931 270.416 90.6564 270.416C102.701 270.416 115.216 269.245 128.391 266.906C129.778 267.84 131.354 268.459 133.016 268.715C133.6 268.806 134.183 268.849 134.766 268.849C136.293 268.849 137.806 268.545 139.226 267.944C141.183 267.112 142.866 265.756 144.096 264.018C144.162 263.926 144.226 263.832 144.288 263.738C144.344 263.732 144.4 263.724 144.456 263.714C145.401 263.522 146.365 263.363 147.302 263.209L147.303 263.209L147.416 263.19L147.423 263.189C150.588 262.668 153.859 262.13 156.96 260.364C157.823 259.873 158.8 259.261 159.46 258.192C160.323 256.789 159.88 254.538 158.756 250.877C158.703 250.709 158.66 250.566 158.62 250.432C156.776 244.389 155.043 238.66 153.37 233.118L153.23 232.654C148.886 218.287 144.766 204.661 139.551 188.458L138.198 176.092C140.72 175.585 143.229 174.964 145.723 174.23C146.283 174.063 146.743 173.659 146.983 173.121C147.223 172.583 147.213 171.972 146.96 171.441C143.57 164.364 142.053 156.735 140.447 148.66L140.447 148.66L140.447 148.66L140.447 148.66L140.447 148.66L140.447 148.66L140.436 148.608C139.126 142.017 137.77 135.202 135.306 128.778C132.82 122.297 129.276 116.334 124.773 111.059C120.293 105.811 115.8 102.638 111.043 101.362C111.019 101.355 110.994 101.349 110.969 101.343C110.713 101.092 110.385 100.908 110.01 100.824C108.983 100.595 107.886 100.74 106.859 101.212C106.623 100.792 106.357 100.332 106.033 99.8516C105.416 98.9363 104.173 98.6924 103.256 99.3105C102.343 99.9285 102.1 101.175 102.716 102.093C103.005 102.522 103.251 102.959 103.489 103.383L103.526 103.449ZM146.121 259.337C146.338 259.302 146.555 259.266 146.77 259.231L146.798 259.227C149.734 258.744 152.508 258.288 154.983 256.876L155.027 256.851C155.3 256.694 155.692 256.47 155.92 256.245C155.913 255.75 155.713 254.615 154.93 252.056L154.893 251.937C154.851 251.802 154.815 251.684 154.786 251.588C152.946 245.558 151.213 239.826 149.54 234.28L149.398 233.811L149.397 233.81C146.868 225.442 144.415 217.326 141.778 208.807L146.213 249.34L146.214 249.346C146.514 252.099 146.919 255.811 146.121 259.337ZM135.479 188.027C135.412 188.354 135.427 188.702 135.536 189.042L135.618 189.295L142.236 249.778C142.733 254.317 142.996 258.643 140.833 261.7C140.033 262.829 138.94 263.711 137.666 264.252C136.393 264.79 135 264.964 133.633 264.753C132.27 264.543 130.99 263.955 129.94 263.056C128.89 262.154 128.11 260.982 127.69 259.669C127.534 259.177 127.418 258.639 127.296 258.071L127.296 258.071L127.295 258.07L127.295 258.07L127.276 257.982L127.275 257.978C126.969 256.546 126.622 254.924 125.556 253.509C124.447 252.038 122.881 251.226 121.498 250.51L121.483 250.502L121.469 250.495C120.215 249.847 119.131 249.287 118.68 248.435C118.153 247.439 118.61 245.866 119.7 244.927C120.793 243.985 122.47 243.437 124.68 243.3C125.23 243.267 125.74 243.006 126.093 242.582C126.446 242.154 126.606 241.603 126.54 241.055C123.973 220.135 122.351 198.858 121.718 177.78C125.916 177.759 130.097 177.428 134.25 176.791L135.479 188.027ZM42.6411 209.783C44.2239 196.206 45.8377 182.363 47.9799 168.571C46.5248 168.056 45.0734 167.52 43.6319 166.976L38.8331 224.232C38.5864 227.172 38.1497 230.212 35.8031 232.256C34.8864 233.054 33.7931 233.566 32.8264 234.017L32.8234 234.018C31.6847 234.549 30.7028 235.006 30.4397 235.677C30.1397 236.438 30.7564 237.441 31.8031 238.997C32.4731 239.993 33.1631 241.022 33.6064 242.204C34.4739 244.516 34.1384 246.934 33.8423 249.067L33.8397 249.086L33.8397 249.086C33.5464 251.191 33.2931 253.008 34.1031 254.331C34.7486 255.385 36.034 255.999 37.4671 256.405C37.6964 252.53 38.1426 248.666 38.5758 244.914L38.5898 244.793L42.6298 209.881L42.6411 209.783Z" fill="black"/>
</g>
<path d="M115.667 84.789C116.334 86.8401 119.454 86.0384 121.144 84.6954C129.197 78.2915 133.984 68.086 134.217 57.7836C134.45 47.4812 130.254 37.2356 123.197 29.7426C118.98 25.2696 113.294 21.5882 107.164 21.9023L97.3337 17.0183C95.9704 13.9817 92.367 12.5887 89.0504 12.4283C85.7337 12.268 82.417 13.023 79.1004 12.8726C76.457 12.7524 73.8504 12.0609 71.207 12.1344C65.0637 12.3014 59.8037 16.4972 55.5071 20.9034C48.2837 28.3095 42.0437 37.6632 42.0637 48.0224C42.0637 53.8951 43.7304 60.8569 39.3971 64.8189C38.8371 65.3333 38.1271 65.9881 38.3971 66.6996C38.4937 66.8867 38.6237 67.0538 38.7871 67.1874C38.9504 67.321 39.1371 67.4212 39.3371 67.478C42.9604 68.9512 47.6037 66.85 48.8937 63.1352L55.4204 50.7951C57.6071 47.4545 62.1337 46.4723 66.1037 46.8799C70.0737 47.2875 73.8804 48.764 77.8571 49.1214C81.0571 49.382 84.277 48.921 87.277 47.7718C90.277 46.6227 92.9804 44.8087 95.1904 42.4703L97.1904 43.0115C99.1037 43.9602 100.717 45.4267 101.85 47.2407C102.98 49.058 103.587 51.1525 103.597 53.2938C103.577 55.4886 102.93 57.6199 102.57 59.788C102.21 61.956 102.214 64.3145 103.37 66.1785C104.527 68.0426 107.16 69.1049 109.01 67.9257" fill="black"/>
<path d="M103.199 99.7467C102.816 95.1767 103.703 91.609 105.686 87.4733C106.133 86.5379 107.103 86.548 108.059 86.244C108.906 85.9767 109.746 85.6694 110.566 85.322C112.236 84.6271 113.813 83.7285 115.266 82.6495C118.139 80.4748 120.376 77.4215 121.219 73.8804C121.983 70.6701 121.446 66.8485 117.869 65.0412C115.363 63.7718 113.113 64.2228 109.289 67.5901L109.019 67.9475C107.169 69.1268 104.533 68.0678 103.379 66.2004C102.226 64.333 102.229 61.9779 102.579 59.8098C102.929 57.6418 103.579 55.5105 103.606 53.3157C103.596 51.1744 102.989 49.0798 101.859 47.2626C100.729 45.4453 99.116 43.9821 97.1994 43.0334L95.1994 42.4922C92.9894 44.8306 90.286 46.6412 87.286 47.7937C84.286 48.9462 81.066 49.4072 77.866 49.1433C73.8894 48.7859 70.0827 47.3127 66.1127 46.9018C62.1427 46.4909 57.616 47.4697 55.4294 50.817L53.3327 52.848C51.3327 55.8546 50.9994 59.5292 49.9994 63.2039C49.9994 64.2595 45.946 78.5172 55.3327 87.9243C58.666 91.2649 62.9994 92.6011 67.4994 93.6033C71.536 94.228 75.946 94.856 79.8327 93.2692C79.6094 96.7468 79.646 99.8068 79.806 103.288" fill="#FFD39F"/>
<path fill-rule="evenodd" clip-rule="evenodd" d="M38.6668 69.3661C39.6601 69.7603 40.7335 69.9541 41.8235 69.9541C43.1635 69.9541 44.5301 69.6634 45.8235 69.0755C46.2434 68.885 46.6459 68.6674 47.0283 68.4257C46.4626 77.2641 49.0843 85.0345 54.3401 89.9408C57.3835 92.777 61.3335 94.591 66.4168 95.4896C69.5635 96.0408 73.6435 96.7523 77.6501 95.9773C77.5835 97.5908 77.6068 98.7734 77.7135 101.125C77.7635 102.201 78.6468 103.039 79.7101 103.039C79.7435 103.039 79.7735 103.039 79.8068 103.026C80.9101 102.976 81.7635 102.037 81.7135 100.931C81.5535 97.4839 81.5901 96.7423 81.8035 93.3817C81.8468 92.6935 81.5335 92.0287 80.9735 91.6278C80.4135 91.227 79.6868 91.1401 79.0501 91.4007C75.5334 92.8405 71.5601 92.316 67.1068 91.5377C62.7501 90.7693 59.5601 89.3295 57.0668 87.0045C52.4035 82.655 50.2501 75.4159 51.1535 67.148C51.4268 64.6726 52.5268 59.939 54.8001 54.0796C54.9748 53.6287 54.9759 53.1531 54.836 52.7269C55.0265 52.7849 55.2221 52.8135 55.4168 52.8135C56.0701 52.8135 56.7068 52.4961 57.0868 51.9048C58.8601 49.1956 62.8001 48.5676 65.8934 48.8849C67.6853 49.0672 69.4541 49.4893 71.3269 49.9361L71.3269 49.9361L71.3734 49.9472C73.3968 50.4316 75.4934 50.9327 77.6868 51.1298C81.1668 51.4138 84.7268 50.9026 87.9868 49.6533C90.935 48.5234 93.6625 46.7759 95.9324 44.5741C96.0482 44.6695 96.1767 44.7533 96.3168 44.8228C97.9001 45.6078 99.2301 46.8171 100.167 48.317C101.1 49.8203 101.6 51.5507 101.61 53.2912C101.6 54.5974 101.32 55.9369 101.023 57.3534L101.01 57.4191L101.01 57.4197L101.009 57.4201L101.009 57.4201C100.87 58.0844 100.726 58.7732 100.61 59.4746C100.077 62.6816 100.427 65.2271 101.683 67.2515C102.62 68.7581 104.21 69.8939 105.94 70.2881C106.383 70.3884 106.827 70.4385 107.263 70.4385C108.28 70.4385 109.257 70.1645 110.097 69.6334C110.398 69.4406 110.631 69.1805 110.788 68.885C114.29 65.856 115.6 66.1294 116.937 66.8072C120.06 68.3873 119.58 71.935 119.227 73.3949C118.54 76.2912 116.687 79.0037 114.027 81.0181C112.707 82.0003 111.27 82.8187 109.74 83.4534C108.983 83.7741 108.2 84.0614 107.407 84.3119C107.286 84.3515 107.15 84.3848 107.007 84.42L107.005 84.4205C106.967 84.4298 106.929 84.4392 106.89 84.4489C106.03 84.656 104.593 85.0035 103.833 86.5836C101.76 90.9096 100.783 93.2146 101.207 98.2456C101.293 99.2912 102.17 100.083 103.197 100.083C103.253 100.083 103.31 100.08 103.37 100.066C104.47 99.976 105.287 99.0039 105.193 97.9015C104.86 93.9729 105.453 92.4663 107.37 88.4576C107.465 88.4268 107.599 88.3941 107.722 88.3639L107.761 88.3544C107.785 88.3486 107.808 88.3429 107.83 88.3374C108.063 88.2806 108.33 88.2138 108.607 88.1269C109.517 87.843 110.42 87.5089 111.283 87.1448C112.188 86.7695 113.07 86.338 113.924 85.8533C114.375 86.8302 115.187 87.5308 116.247 87.8496C116.68 87.9799 117.133 88.0367 117.593 88.0367C119.33 88.0367 121.177 87.2116 122.373 86.2629C130.78 79.5783 135.953 68.9485 136.203 57.8277C136.443 47.1645 132.23 36.4245 124.637 28.3637C119.203 22.6011 112.96 19.5946 107.047 19.8986C105.943 19.9554 105.093 20.8974 105.15 22.0032C105.207 23.1089 106.147 23.9641 107.25 23.904C113.62 23.5833 119.057 28.2868 121.727 31.1196C128.603 38.4222 132.42 48.1233 132.203 57.7409C131.977 67.6858 127.373 77.1764 119.89 83.126C119.023 83.8109 117.937 84.0814 117.503 84.0347C117.435 83.8654 117.345 83.7102 117.239 83.5709C120.215 81.0633 122.287 77.812 123.113 74.3269C124.293 69.443 122.617 65.1904 118.737 63.2261C116.237 61.96 113.193 61.4255 107.933 66.0589C107.819 66.16 107.718 66.2713 107.632 66.3902C107.347 66.4653 107.052 66.4337 106.83 66.383C106.14 66.2226 105.453 65.7349 105.083 65.1369C104.373 63.9911 104.197 62.3074 104.557 60.1327C104.647 59.5689 104.763 59.0102 104.884 58.4254L104.884 58.4251L104.937 58.1718C105.26 56.6251 105.593 55.0283 105.61 53.2979C105.597 50.7824 104.89 48.3271 103.56 46.1924C102.23 44.0611 100.34 42.3441 98.0901 41.2283C97.6198 40.995 97.102 40.9645 96.6355 41.1032C96.6112 41.0776 96.5861 41.0525 96.5601 41.0279C95.7601 40.2662 94.4935 40.2996 93.7334 41.1047C91.7401 43.2126 89.2601 44.8729 86.5568 45.9118C83.8535 46.9507 80.8968 47.3716 78.0301 47.1378C76.1589 46.9724 74.3137 46.532 72.3621 46.0661L72.3034 46.0521C70.3734 45.5911 68.3734 45.1134 66.3034 44.8996C60.7834 44.335 56.0868 46.1323 53.7434 49.7101C53.3977 50.2403 53.3344 50.8748 53.5171 51.4343C52.5249 51.1312 51.4517 51.6417 51.0701 52.6264C49.9152 55.6019 48.9497 58.572 48.2569 61.231C47.6935 61.4228 47.221 61.8643 47.0101 62.4711C46.5735 63.7239 45.5401 64.7995 44.1701 65.4209C43.1801 65.8719 42.1301 66.0322 41.1601 65.8986C44.8301 62.1471 44.5068 56.6685 44.2201 51.8113C44.1401 50.4817 44.0668 49.2257 44.0668 48.013C44.0501 39.7284 48.3835 31.0762 56.9401 22.3005C60.2868 18.8697 65.4101 14.2931 71.2668 14.1327C72.6135 14.096 73.9901 14.2864 75.4501 14.4902C76.6001 14.6505 77.7901 14.8142 79.0135 14.871C80.7935 14.9512 82.5435 14.7942 84.2301 14.6405L84.2618 14.6377C85.8934 14.4917 87.4366 14.3537 88.9568 14.4267C91.4401 14.547 94.4668 15.5057 95.5135 17.8374C95.9668 18.8463 97.1501 19.2973 98.1568 18.843C99.1635 18.3886 99.6135 17.2027 99.1601 16.1939C97.3735 12.2119 92.8168 10.6017 89.1501 10.4247C87.3526 10.3382 85.5947 10.4965 83.8961 10.6495L83.8701 10.6518C82.2435 10.7988 80.7068 10.9358 79.1935 10.869C78.1749 10.8232 77.1499 10.6812 76.0653 10.531L75.9968 10.5215C74.4401 10.3044 72.8301 10.0806 71.1535 10.1273C63.8435 10.3244 57.9068 15.5692 54.0768 19.4977C44.7601 29.0485 40.0468 38.646 40.0635 48.0164C40.0635 49.2803 40.1392 50.5898 40.2126 51.861L40.2235 52.0485L40.2239 52.0552C40.4904 56.5892 40.7421 60.8722 38.0468 63.3364C37.3668 63.961 35.7768 65.4242 36.5301 67.4085C36.5535 67.4787 36.5835 67.5455 36.6168 67.609C36.8368 68.0399 37.1401 68.4174 37.5135 68.7281C37.8568 69.0154 38.2435 69.2292 38.6668 69.3661ZM65.1435 59.7319C65.1435 61.3001 64.0988 62.5714 62.8101 62.5714C61.5215 62.5714 60.4768 61.3001 60.4768 59.7319C60.4768 58.1637 61.5215 56.8924 62.8101 56.8924C64.0988 56.8924 65.1435 58.1637 65.1435 59.7319ZM76.4768 60.5169C76.4768 62.0851 75.4321 63.3564 74.1435 63.3564C72.8548 63.3564 71.8101 62.0851 71.8101 60.5169C71.8101 58.9487 72.8548 57.6774 74.1435 57.6774C75.4321 57.6774 76.4768 58.9487 76.4768 60.5169Z" fill="black"/>
</g>
<defs>
<clipPath id="clip0_805_38744">
<rect width="180" height="180" rx="24" fill="white"/>
</clipPath>
<clipPath id="clip1_805_38744">
<rect width="200" height="200.436" fill="white" transform="translate(-10 95.2734)"/>
</clipPath>
</defs>
</svg>
