<svg width="180" height="180" viewBox="0 0 180 180" fill="none" xmlns="http://www.w3.org/2000/svg">
<g clip-path="url(#clip0_805_33355)">
<rect width="180" height="180" rx="24" fill="white"/>
<g clip-path="url(#clip1_805_33355)">
<path d="M103.124 95.2734C103.424 98.6474 104.8 106.271 109.924 105.128L110.474 105.963C110.224 111.198 107.577 114.889 103.43 118.714C99.2171 122.539 93.8437 124.838 88.1737 125.242C83.1737 125.609 77.8571 124.41 74.1171 121.049C70.3771 117.689 68.4104 113.032 70.8871 109.04H71.2471C72.3737 109.073 73.4104 108.482 74.3637 107.881C75.5771 107.113 78.0804 103.962 78.8304 103.057C79.8304 101.758 80.2371 96.8302 80.7504 95.2734H103.124V95.2734Z" fill="#FFD39F"/>
<path d="M110.63 103.262C115.734 104.628 119.92 108.303 123.357 112.311C127.7 117.399 131.144 123.195 133.544 129.445C138.854 143.285 138.857 158.886 145.26 172.255C141.784 173.287 138.247 174.089 134.667 174.66L137.554 188.38C144.937 211.29 150.074 228.861 156.82 250.973C157.154 252.102 158.487 256.094 157.87 257.093C157.457 257.761 156.764 258.189 156.087 258.573C152.387 260.681 148.347 260.858 144.174 261.7L128.684 264.79C106.514 268.775 84.2635 269.75 62.0535 265.995L57.8635 265.504L43.5302 262.755C42.2368 262.508 40.8168 262.177 40.0602 261.085C39.4335 260.19 39.4368 259.01 39.4835 257.918C39.6735 253.575 40.1735 249.266 40.6735 244.953L44.6168 210.879C46.3335 196.324 48.0002 181.709 50.3335 167.204L50.1735 167.137C46.2968 165.801 42.4802 164.318 38.6602 162.831C38.1335 162.681 37.6602 162.387 37.2868 161.986C36.5368 161.017 37.1802 159.628 37.8235 158.582C43.5002 149.329 48.3535 139.594 52.3335 129.489C55.3735 121.772 58.5468 113.09 65.9668 109.412L74.3768 105.884C73.6635 107.103 74.5668 110.581 75.5302 111.613C76.4935 112.645 77.8635 113.187 79.1968 113.618C83.6702 115.014 88.5302 115.385 93.0702 114.286C97.6102 113.187 101.854 110.518 104.52 106.652C105.187 105.704 105.744 104.675 106.57 103.87C107.397 103.065 108.57 102.497 109.694 102.747L110.63 103.262Z" fill="black"/>
<path fill-rule="evenodd" clip-rule="evenodd" d="M36.8443 224.069L41.8076 164.851L50.631 164.66C48.1143 180.004 46.321 195.48 44.531 210.931L40.5876 245.005L40.5858 245.021C40.0864 249.328 39.5874 253.632 39.3976 257.97L39.1476 258.835C36.5843 258.374 33.7643 257.612 32.4043 255.387C31.2146 253.45 31.5365 251.146 31.8621 248.814C32.1442 246.794 32.4292 244.754 31.7376 242.914C31.3772 241.951 30.7577 241.03 30.1471 240.122C28.9959 238.411 27.8764 236.746 28.5843 234.943C29.1432 233.531 30.5569 232.872 31.9871 232.205C32.8857 231.786 33.7907 231.364 34.4943 230.75C36.3176 229.16 36.641 226.488 36.8443 224.069ZM124.554 241.3C121.894 219.62 120.264 197.866 119.668 176.042L136.121 175.54L144.221 249.561C144.718 254.111 145.104 259.126 142.461 262.86C141.448 264.29 140.054 265.413 138.441 266.097C136.828 266.782 135.058 267.003 133.324 266.735C131.594 266.468 129.971 265.72 128.638 264.581C127.304 263.442 126.318 261.952 125.781 260.278C125.588 259.668 125.452 259.035 125.317 258.405C125.035 257.087 124.756 255.781 123.958 254.719C123.119 253.607 121.836 252.944 120.563 252.287C119.104 251.533 117.657 250.786 116.908 249.374C115.874 247.417 116.721 244.848 118.394 243.408C120.068 241.968 122.351 241.437 124.554 241.3Z" fill="#FFD39F"/>
<path fill-rule="evenodd" clip-rule="evenodd" d="M103.526 103.449C103.621 103.619 103.717 103.79 103.816 103.961C103.623 104.238 103.444 104.511 103.273 104.772C103.106 105.026 102.94 105.28 102.756 105.544C100.47 108.858 96.7264 111.347 92.4831 112.369C88.5031 113.327 84.0764 113.11 79.6931 111.741C78.6131 111.39 77.5231 110.972 76.8731 110.274C76.492 109.866 76.2915 109.268 76.3902 108.9C77.1636 108.35 77.7677 107.803 78.2129 107.4L78.2298 107.385L78.3465 107.278C79.9898 105.791 80.4864 104.913 80.9231 103.997C80.9731 103.89 81.0231 103.787 81.0798 103.677C81.5931 102.698 81.2198 101.485 80.2431 100.967C79.2665 100.453 78.0564 100.827 77.5398 101.806C77.4564 101.966 77.3831 102.116 77.3098 102.27C77.0804 102.754 76.892 103.148 75.9748 104.017C75.3927 103.343 74.4101 103.119 73.5764 103.533L68.1798 106.205C67.5236 106.531 67.1237 107.169 67.0713 107.851C66.4851 107.399 65.6705 107.291 64.9631 107.642C57.1331 111.52 53.7164 120.219 50.7031 127.896L50.3564 128.781C46.4264 138.749 41.5931 148.434 35.9931 157.56C34.5798 159.862 34.4398 161.773 35.5798 163.246C35.6164 163.293 35.6531 163.336 35.6931 163.38C36.2898 164.024 37.0464 164.499 37.8831 164.759L37.8898 164.763C38.504 165.002 39.1217 165.243 39.7423 165.484L34.8464 223.898C34.6597 226.106 34.3931 228.174 33.1764 229.236C32.6864 229.664 31.9364 230.015 31.1397 230.385L31.1304 230.39C29.5453 231.131 27.5714 232.053 26.7197 234.207C25.6298 236.99 27.213 239.345 28.4863 241.239L28.4864 241.239L28.5357 241.313L28.5357 241.313C29.0809 242.127 29.5945 242.894 29.8631 243.617C30.3764 244.98 30.1364 246.707 29.8797 248.535C29.5297 251.04 29.1331 253.883 30.6964 256.432C32.2243 258.931 34.9117 259.973 37.5594 260.56C37.7007 261.158 37.9389 261.75 38.3298 262.308C39.5831 264.092 41.7464 264.53 43.0598 264.794L55.2498 267.132C55.3764 267.155 55.5031 267.169 55.6264 267.169C56.5664 267.169 57.4064 266.501 57.5864 265.545C57.7964 264.459 57.0831 263.407 55.9998 263.2L43.8264 260.865C43.1198 260.725 41.9331 260.484 41.5998 260.01C41.3164 259.609 41.3598 258.613 41.3831 258.082C41.5728 253.819 42.075 249.479 42.561 245.279L42.561 245.279L42.5631 245.261L46.5064 211.187L46.6031 210.352L46.6122 210.274C49.3427 186.847 52.1658 162.626 57.6331 139.368C57.8864 138.289 57.2198 137.209 56.1464 136.956C55.0664 136.698 53.9931 137.37 53.7398 138.446C51.7159 147.054 50.0528 155.778 48.6227 164.535C45.5179 163.421 42.4138 162.214 39.3932 161.039L39.3398 161.018L39.2598 160.988C39.2031 160.968 39.1464 160.948 39.0864 160.931C38.9998 160.908 38.9198 160.871 38.8464 160.827C38.8898 160.64 39.0198 160.276 39.3998 159.658C45.1231 150.331 50.0631 140.436 54.0764 130.251L54.4264 129.362C57.3098 122.02 60.2931 114.427 66.7364 111.236C67.3925 110.911 67.7924 110.273 67.8449 109.591C68.0754 109.768 68.3413 109.893 68.6221 109.957C68.0316 110.433 67.74 111.228 67.9398 112.011C68.8531 115.616 72.0564 117.741 74.9864 119.448C77.8498 121.118 81.1431 121.445 84.0064 121.622C85.3764 121.709 86.8831 121.776 88.4698 121.776C91.7664 121.776 95.4164 121.485 98.9198 120.446C104.97 118.659 108.836 113.014 110.603 109.81C111.136 108.841 110.786 107.622 109.82 107.087C108.853 106.553 107.636 106.904 107.103 107.872C105.633 110.538 102.47 115.218 97.7898 116.601C93.2164 117.954 88.3764 117.877 84.2498 117.624C81.8464 117.473 79.1031 117.213 76.9964 115.983C74.7698 114.687 72.3498 113.124 71.8164 111.026C71.6331 110.296 71.0717 109.762 70.3952 109.581L72.3954 108.59C72.2342 110.113 72.779 111.755 73.9531 113.013C75.2264 114.376 76.8764 115.041 78.4864 115.562C81.4731 116.498 84.4864 116.965 87.4131 116.965C89.4731 116.965 91.4864 116.735 93.4231 116.267C98.6098 115.014 103.21 111.938 106.04 107.839C106.24 107.555 106.43 107.265 106.619 106.974L106.62 106.974L106.631 106.957C107.033 106.342 107.414 105.761 107.846 105.34C108.272 104.924 108.808 104.671 109.129 104.733C109.366 104.965 109.664 105.141 110.006 105.233C113.956 106.292 117.793 109.052 121.73 113.662C125.936 118.589 129.246 124.158 131.57 130.211C133.913 136.314 135.233 142.955 136.51 149.383L136.511 149.39C137.947 156.613 139.427 164.057 142.373 171C132.26 173.695 121.89 174.43 111.493 173.188L112.353 142.989C112.383 141.883 111.513 140.958 110.41 140.928C109.306 140.887 108.383 141.769 108.353 142.875L107.443 174.885C107.413 175.904 108.153 176.782 109.163 176.926C112.016 177.328 114.867 177.588 117.712 177.706C118.327 198.3 119.877 219.089 122.326 239.552C120.196 239.943 118.44 240.724 117.09 241.887C114.58 244.045 113.743 247.666 115.14 250.315C116.182 252.277 118.019 253.226 119.641 254.064L119.646 254.067C120.753 254.638 121.796 255.179 122.36 255.924C122.89 256.632 123.11 257.648 123.36 258.824C123.5 259.492 123.65 260.18 123.873 260.888C124.159 261.78 124.551 262.629 125.037 263.417C102.469 267.176 81.9075 267.387 62.2764 264.069C61.1864 263.881 60.1564 264.62 59.9731 265.712C59.7898 266.801 60.5231 267.837 61.6131 268.02C71.0531 269.617 80.6931 270.416 90.6564 270.416C102.701 270.416 115.216 269.245 128.391 266.906C129.778 267.84 131.354 268.459 133.016 268.715C133.6 268.806 134.183 268.849 134.766 268.849C136.293 268.849 137.806 268.545 139.226 267.944C141.183 267.112 142.866 265.756 144.096 264.018C144.162 263.926 144.226 263.832 144.288 263.738C144.344 263.732 144.4 263.724 144.456 263.714C145.401 263.522 146.365 263.363 147.302 263.209L147.303 263.209L147.416 263.19L147.423 263.189C150.588 262.668 153.859 262.13 156.96 260.364C157.823 259.873 158.8 259.261 159.46 258.192C160.323 256.789 159.88 254.538 158.756 250.877C158.703 250.709 158.66 250.566 158.62 250.432C156.776 244.389 155.043 238.66 153.37 233.118L153.23 232.654C148.886 218.287 144.766 204.661 139.551 188.458L138.198 176.092C140.72 175.585 143.229 174.964 145.723 174.23C146.283 174.063 146.743 173.659 146.983 173.121C147.223 172.583 147.213 171.972 146.96 171.441C143.57 164.364 142.053 156.735 140.447 148.66L140.447 148.66L140.447 148.66L140.447 148.66L140.447 148.66L140.447 148.66L140.436 148.608C139.126 142.017 137.77 135.202 135.306 128.778C132.82 122.297 129.276 116.334 124.773 111.059C120.293 105.811 115.8 102.638 111.043 101.362C111.019 101.355 110.994 101.349 110.969 101.343C110.713 101.092 110.385 100.908 110.01 100.824C108.983 100.595 107.886 100.74 106.859 101.212C106.623 100.792 106.357 100.332 106.033 99.8516C105.416 98.9363 104.173 98.6924 103.256 99.3105C102.343 99.9285 102.1 101.175 102.716 102.093C103.005 102.522 103.251 102.959 103.489 103.383L103.526 103.449ZM146.121 259.337C146.338 259.302 146.555 259.266 146.77 259.231L146.798 259.227C149.734 258.744 152.508 258.288 154.983 256.876L155.027 256.851C155.3 256.694 155.692 256.47 155.92 256.245C155.913 255.75 155.713 254.615 154.93 252.056L154.893 251.937C154.851 251.802 154.815 251.684 154.786 251.588C152.946 245.558 151.213 239.826 149.54 234.28L149.398 233.811L149.397 233.81C146.868 225.442 144.415 217.326 141.778 208.807L146.213 249.34L146.214 249.346C146.514 252.099 146.919 255.811 146.121 259.337ZM135.479 188.027C135.412 188.354 135.427 188.702 135.536 189.042L135.618 189.295L142.236 249.777C142.733 254.317 142.996 258.643 140.833 261.7C140.033 262.829 138.94 263.711 137.666 264.252C136.393 264.79 135 264.964 133.633 264.753C132.27 264.543 130.99 263.955 129.94 263.056C128.89 262.154 128.11 260.982 127.69 259.669C127.534 259.177 127.418 258.639 127.296 258.071L127.296 258.071L127.295 258.07L127.295 258.07L127.276 257.982L127.275 257.978C126.969 256.546 126.622 254.924 125.556 253.509C124.447 252.038 122.881 251.226 121.498 250.51L121.483 250.502L121.469 250.495C120.215 249.847 119.131 249.287 118.68 248.435C118.153 247.439 118.61 245.866 119.7 244.927C120.793 243.985 122.47 243.437 124.68 243.3C125.23 243.267 125.74 243.006 126.093 242.582C126.446 242.154 126.606 241.603 126.54 241.055C123.973 220.135 122.351 198.858 121.718 177.78C125.916 177.759 130.097 177.428 134.25 176.791L135.479 188.027ZM42.6411 209.783C44.2239 196.206 45.8377 182.363 47.9799 168.571C46.5248 168.056 45.0734 167.52 43.6319 166.976L38.8331 224.232C38.5864 227.172 38.1497 230.212 35.8031 232.256C34.8864 233.054 33.7931 233.566 32.8264 234.017L32.8234 234.018C31.6847 234.549 30.7028 235.006 30.4397 235.677C30.1397 236.438 30.7564 237.441 31.8031 238.997C32.4731 239.993 33.1631 241.022 33.6064 242.204C34.4739 244.516 34.1384 246.934 33.8423 249.067L33.8397 249.086L33.8397 249.086C33.5464 251.191 33.2931 253.008 34.1031 254.331C34.7486 255.385 36.034 255.999 37.4671 256.405C37.6964 252.53 38.1426 248.666 38.5758 244.914L38.5898 244.793L42.6298 209.881L42.6411 209.783Z" fill="black"/>
</g>
<path d="M50.493 87.6528C49.9497 88.5548 49.1797 89.2998 48.263 89.8109C47.343 90.322 46.3064 90.5826 45.2564 90.5692C44.2064 90.5525 43.1764 90.2618 42.273 89.724C41.3697 89.1862 40.623 88.4212 40.103 87.5025C39.0864 85.6953 38.6464 83.0629 36.6164 82.6653C34.9297 82.3313 33.553 83.898 32.283 85.0572C30.7664 86.4302 28.7997 87.419 26.7564 87.3689C24.713 87.3188 22.6364 86.0627 22.0097 84.1118C21.113 81.3291 23.2297 78.4629 23.213 75.5432C23.253 74.7548 22.993 73.9831 22.4864 73.3785C21.3097 72.1558 19.2964 72.7738 17.6097 72.6135C14.083 72.2794 11.943 68.0101 12.8097 64.5693C13.6764 61.1285 16.653 58.603 19.8097 56.9995C22.9664 55.396 26.443 54.4774 29.5864 52.8338C33.483 50.786 36.7397 47.6993 38.9997 43.9144C40.7597 40.9647 41.8697 37.6508 43.7364 34.7679C47.0697 29.6367 52.5464 26.2627 58.243 24.0546C63.9397 21.8465 69.9664 20.6539 75.7997 18.8466C80.1797 17.4903 84.623 15.7666 89.1864 16.1741C92.2097 16.4447 95.393 17.9346 96.5197 20.7541L104.336 23.5101C113.576 23.8842 122.42 29.5699 126.61 37.8345C128.05 40.6674 129.003 43.8142 131.07 46.2261C133.903 49.5333 138.736 51.3907 139.896 55.5798C141.433 61.1085 135.496 66.0425 135.13 71.7683C134.923 74.9853 136.463 78.513 134.796 81.269C133.353 83.6475 130.13 84.2922 128.3 86.3901C126.116 88.8889 126.19 93.1214 123.37 94.8652C122.26 95.55 117.966 96.3584 116.786 95.8139C111.946 93.5857 111.436 96.5923 107.343 96.9798" fill="black"/>
<path d="M103.213 100.093C102.833 95.5202 103.68 91.5983 105.667 87.4627C106.117 86.5273 107.083 86.5373 108.04 86.2333C108.89 85.9661 109.723 85.6587 110.547 85.3113C112.217 84.6165 113.793 83.7179 115.247 82.6388C118.12 80.4641 120.36 77.4108 121.2 73.8698C121.963 70.6595 121.427 66.8378 117.867 65.0306C115.357 63.7611 113.107 64.2121 109.283 67.5794L106.313 66.8278C102.52 66.5973 99.53 63.2701 98.2866 59.6756C97.0433 56.0811 97.1233 52.1826 96.8466 48.3877C96.7233 46.694 96.4566 44.86 95.2333 43.6841C93.9 42.408 91.87 42.3112 90.03 42.2844L87.0966 41.2823C85.9666 40.0563 84.5833 39.0908 83.0466 38.4461C81.51 37.8047 79.8533 37.5007 78.1866 37.5575C76.5233 37.6143 74.89 38.0285 73.4 38.7735C71.91 39.5184 70.5966 40.5774 69.55 41.8769C68.3 43.4303 67.3566 45.3845 65.55 46.2364C63.7433 47.0882 61.6933 46.5938 59.73 46.6306C57.7666 46.6673 55.4266 47.733 55.3766 49.6972L52.9566 53.3719C50.8066 58.9139 49.5133 63.9181 49.1866 66.9481C48.3633 74.578 49.9 83.0564 55.7233 88.4916C58.8266 91.3845 62.67 92.8076 66.78 93.5325C71.0666 94.2908 75.6666 94.9823 79.8266 93.2786C79.6066 96.7562 79.5733 99.2383 79.7333 102.719" fill="#FFD39F"/>
<path d="M45.343 92.5836C45.303 92.5836 45.2663 92.5836 45.2263 92.5836C43.8296 92.5635 42.453 92.176 41.2496 91.4578C40.0463 90.7429 39.0496 89.7207 38.3596 88.5014C38.033 87.9201 37.7763 87.3155 37.5263 86.7342C37.1263 85.7955 36.6763 84.7332 36.2296 84.6463C35.763 84.5528 34.773 85.4848 34.1163 86.0995C33.9496 86.2565 33.7863 86.4102 33.623 86.5572C31.5296 88.4379 29.0796 89.4401 26.7063 89.3866C23.673 89.3165 20.9596 87.4057 20.103 84.7399C19.3863 82.5217 20.0163 80.4338 20.573 78.5898C20.8996 77.5008 21.2096 76.4752 21.2096 75.5566C21.2096 75.5232 21.2096 75.4864 21.213 75.453C21.2263 75.2025 21.153 74.9586 21.0096 74.7548C20.7496 74.5744 19.8863 74.6112 19.2496 74.6346C18.663 74.6579 18.0563 74.6813 17.4196 74.6212C15.403 74.4308 13.5863 73.3317 12.3063 71.5211C10.8063 69.3998 10.2563 66.557 10.8696 64.0983C11.7496 60.5606 14.603 57.4071 18.9063 55.2257C20.533 54.4006 22.2196 53.7525 23.8496 53.1278C25.5463 52.4764 27.1463 51.8617 28.6596 51.07C32.2363 49.1926 35.2263 46.3631 37.303 42.8889C38.063 41.6161 38.6963 40.2632 39.3663 38.8301C40.1696 37.1197 40.9963 35.3492 42.0763 33.6789C45.243 28.7949 50.4463 24.9298 57.5396 22.1872C61.1896 20.7775 64.983 19.7653 68.6496 18.7831C70.8196 18.2019 73.063 17.6039 75.2263 16.9325C75.8263 16.7454 76.4263 16.555 77.0263 16.3612C80.9696 15.0951 85.0463 13.789 89.3829 14.1798C92.723 14.4805 96.8463 16.1708 98.393 20.0058C98.8063 21.0314 98.313 22.2006 97.2863 22.6148C96.2629 23.029 95.0963 22.5346 94.6829 21.5057C93.8096 19.341 91.0896 18.3589 89.023 18.1718C85.493 17.8545 81.973 18.9836 78.243 20.1795C77.6296 20.3766 77.0163 20.5737 76.4063 20.7641C74.1696 21.4556 71.8863 22.067 69.6796 22.6582C66.113 23.6103 62.4263 24.5958 58.9796 25.9287C52.6863 28.3606 48.1263 31.7046 45.4296 35.8636C44.4996 37.3001 43.763 38.8701 42.9863 40.5338C42.303 41.9903 41.5963 43.5002 40.733 44.9467C38.2796 49.0556 34.743 52.4029 30.5096 54.6244C28.7896 55.523 27.003 56.2078 25.2763 56.8726C23.6696 57.4873 22.153 58.0719 20.7096 58.8035C18.8263 59.7589 15.5496 61.8434 14.7463 65.0704C14.413 66.4067 14.7363 68.0302 15.5663 69.2061C15.9863 69.8007 16.7163 70.5323 17.793 70.6325C18.163 70.6693 18.613 70.6492 19.0896 70.6325C20.5196 70.5757 22.4763 70.4989 23.923 72.0022C23.953 72.0356 23.983 72.0657 24.013 72.1024C24.8396 73.0845 25.263 74.3272 25.2096 75.61C25.1996 77.1033 24.7763 78.5097 24.3996 79.7524C23.9563 81.2189 23.5763 82.4816 23.9096 83.5105C24.243 84.5461 25.483 85.3512 26.7996 85.3813C28.1563 85.4046 29.6196 84.7733 30.9463 83.5807C31.0863 83.4537 31.2363 83.3134 31.3896 83.1698C32.7163 81.9271 34.5363 80.2234 37.0063 80.7145C39.5296 81.2089 40.4996 83.4938 41.2096 85.1641C41.4263 85.6685 41.6263 86.1463 41.8463 86.5338C42.1896 87.1451 42.6896 87.6562 43.293 88.0136C43.8963 88.3711 44.583 88.5682 45.283 88.5782C45.9863 88.5882 46.6763 88.4145 47.2896 88.0738C47.903 87.733 48.4163 87.2353 48.7796 86.634C49.3496 85.6853 50.5796 85.3813 51.5263 85.9525C52.473 86.5237 52.7763 87.7564 52.2063 88.7052C51.483 89.9044 50.4563 90.8966 49.233 91.5781C48.043 92.2362 46.6996 92.5836 45.343 92.5836Z" fill="black"/>
<path d="M107.359 98.9878C106.339 98.9878 105.469 98.2095 105.369 97.1705C105.265 96.0681 106.072 95.0894 107.172 94.9858C108.332 94.8756 109.092 94.5014 109.972 94.0638C111.729 93.1952 113.715 92.2097 117.572 93.9636C118.462 94.1506 121.625 93.566 122.345 93.1551C123.355 92.5304 123.869 91.1508 124.465 89.5573C125.012 88.0908 125.632 86.4272 126.815 85.0709C127.852 83.885 129.169 83.1066 130.335 82.4252C131.539 81.7169 132.579 81.1056 133.109 80.2304C133.822 79.0478 133.619 77.4076 133.385 75.5068C133.232 74.2607 133.072 72.9713 133.155 71.6417C133.342 68.7321 134.662 66.1832 135.939 63.7178C137.392 60.9117 138.649 58.4864 137.992 56.1213C137.435 54.1069 135.615 52.6905 133.509 51.0536C132.149 49.9946 130.745 48.9023 129.572 47.536C127.939 45.6318 126.965 43.4204 126.019 41.2824C125.629 40.3971 125.259 39.5586 124.845 38.7469C121.005 31.1737 112.739 25.8588 104.272 25.5148C103.169 25.4713 102.309 24.536 102.355 23.4302C102.399 22.3245 103.339 21.466 104.435 21.5094C114.455 21.9136 123.869 27.9668 128.412 36.9296C128.872 37.8349 129.282 38.7636 129.679 39.6588C130.542 41.6164 131.359 43.4671 132.609 44.9236C133.515 45.9826 134.705 46.9079 135.962 47.8867C138.292 49.7007 140.932 51.7551 141.845 55.0456C142.925 58.9307 141.099 62.4551 139.489 65.5652C138.352 67.7599 137.279 69.8311 137.145 71.8989C137.085 72.851 137.215 73.9 137.352 75.0124C137.639 77.3207 137.962 79.9364 136.525 82.3082C135.469 84.052 133.815 85.0241 132.355 85.8793C131.365 86.4606 130.432 87.0084 129.822 87.71C129.119 88.5151 128.679 89.701 128.209 90.957C127.465 92.9547 126.622 95.2196 124.435 96.5726C122.992 97.4612 117.959 98.5569 115.965 97.6349C113.799 96.636 113.155 96.9567 111.742 97.6583C110.719 98.166 109.442 98.7974 107.549 98.9778C107.485 98.9845 107.422 98.9878 107.359 98.9878ZM117.639 93.9936C117.639 93.997 117.639 93.997 117.639 93.9936C117.639 93.997 117.639 93.997 117.639 93.9936Z" fill="black"/>
<path d="M55.3457 51.7033C55.3291 51.7033 55.3124 51.7033 55.2924 51.7033C54.1891 51.6766 53.3157 50.7546 53.3424 49.6489C53.4224 46.4653 56.6557 44.6847 59.6591 44.628C60.2924 44.6146 60.9024 44.6513 61.4924 44.6847C62.7457 44.7582 63.8291 44.8184 64.6657 44.4242C65.5157 44.0233 66.1757 43.0913 66.9357 42.0089C67.2591 41.5513 67.5891 41.0802 67.9624 40.6192C69.1957 39.0859 70.7157 37.8633 72.4757 36.9813C74.2357 36.1028 76.1257 35.6217 78.0891 35.5549C80.0557 35.4881 81.9724 35.8389 83.7857 36.5972C85.5991 37.3555 87.1991 38.4746 88.5324 39.9211C89.2824 40.7328 89.2324 42.0022 88.4224 42.7539C87.6124 43.5055 86.3457 43.4554 85.5957 42.6436C84.6524 41.6214 83.5257 40.833 82.2424 40.2985C80.9624 39.764 79.6057 39.5135 78.2224 39.5636C76.8357 39.6104 75.5024 39.9478 74.2591 40.5691C73.0157 41.1905 71.9457 42.0557 71.0724 43.138C70.7824 43.4988 70.4991 43.8997 70.2024 44.324C69.2524 45.6736 68.1757 47.2002 66.3691 48.0521C64.6157 48.8805 62.8357 48.777 61.2657 48.6868C60.7257 48.6567 60.2157 48.6266 59.7357 48.6367C58.4857 48.6601 57.3557 49.2781 57.3457 49.7491C57.3191 50.8381 56.4291 51.7033 55.3457 51.7033Z" fill="black"/>
<path d="M106.286 68.8179C106.246 68.8179 106.202 68.8179 106.162 68.8146C102.932 68.6175 98.4255 66.2757 96.3655 60.3194C95.2922 57.216 95.1255 54.0157 94.9622 50.919C94.9222 50.1273 94.8788 49.3122 94.8222 48.5205C94.7222 47.1575 94.5322 45.8046 93.8188 45.1164C93.0522 44.3781 91.5589 44.298 89.9722 44.2746C88.8689 44.2579 87.9855 43.3492 88.0022 42.2402C88.0189 41.1344 88.9289 40.2492 90.0322 40.2659C91.8589 40.2926 94.6222 40.3327 96.5888 42.2234C98.2822 43.8537 98.6655 46.172 98.8155 48.2298C98.8755 49.0583 98.9189 49.8968 98.9622 50.7086C99.1155 53.655 99.2622 56.441 100.149 59.0066C101.102 61.7659 103.409 64.6322 106.406 64.8159C107.509 64.8827 108.349 65.8314 108.282 66.9372C108.216 67.9995 107.332 68.8179 106.286 68.8179Z" fill="black"/>
<path d="M62.8099 62.5696C64.0986 62.5696 65.1432 61.2983 65.1432 59.7301C65.1432 58.1619 64.0986 56.8906 62.8099 56.8906C61.5212 56.8906 60.4766 58.1619 60.4766 59.7301C60.4766 61.2983 61.5212 62.5696 62.8099 62.5696Z" fill="black"/>
<path d="M74.1439 63.3548C75.4325 63.3548 76.4772 62.0835 76.4772 60.5153C76.4772 58.9471 75.4325 57.6758 74.1439 57.6758C72.8552 57.6758 71.8105 58.9471 71.8105 60.5153C71.8105 62.0835 72.8552 63.3548 74.1439 63.3548Z" fill="black"/>
<path d="M103.196 100.081C102.17 100.081 101.293 99.2927 101.206 98.2438C100.783 93.2128 101.76 90.9112 103.833 86.5818C104.593 85.0017 106.03 84.6542 106.89 84.4471C107.076 84.4003 107.253 84.3603 107.406 84.3101C108.2 84.0596 108.983 83.7723 109.74 83.4516C111.27 82.8169 112.706 81.9985 114.026 81.0163C116.686 79.0019 118.54 76.2927 119.226 73.3931C119.58 71.9332 120.06 68.3855 116.936 66.8054C115.573 66.1139 114.236 65.8433 110.573 69.0704C109.743 69.8019 108.48 69.7184 107.75 68.8866C107.02 68.0548 107.103 66.7887 107.933 66.0571C113.193 61.4237 116.233 61.9582 118.736 63.2243C122.616 65.1886 124.293 69.4412 123.113 74.3251C122.213 78.12 119.836 81.6377 116.423 84.22C114.83 85.4059 113.103 86.388 111.283 87.143C110.42 87.5071 109.516 87.8412 108.606 88.1251C108.33 88.212 108.063 88.2788 107.83 88.3356C107.683 88.3723 107.493 88.4157 107.37 88.4558C105.453 92.4645 104.86 93.9711 105.193 97.8997C105.286 99.0021 104.47 99.9709 103.37 100.064C103.31 100.078 103.253 100.081 103.196 100.081Z" fill="black"/>
<path d="M79.7126 103.036C78.6493 103.036 77.766 102.197 77.716 101.122C77.6093 98.7698 77.586 97.5873 77.6526 95.9738C73.646 96.7488 69.566 96.0372 66.4193 95.486C61.336 94.5874 57.386 92.7735 54.3426 89.9373C48.7493 84.716 46.1393 76.2509 47.1793 66.7068C47.5693 63.1691 49.0226 57.9043 51.0726 52.6229C51.4726 51.5906 52.6326 51.0795 53.6626 51.4804C54.6926 51.8813 55.2026 53.0438 54.8026 54.076C52.5293 59.9354 51.4293 64.669 51.156 67.1444C50.2526 75.4124 52.406 82.6515 57.0693 87.0009C59.5626 89.326 62.7526 90.7658 67.1093 91.5341C71.5626 92.3125 75.5393 92.8369 79.0526 91.3971C79.6893 91.1366 80.416 91.2234 80.976 91.6243C81.536 92.0285 81.8493 92.69 81.806 93.3781C81.5926 96.7388 81.556 97.4804 81.716 100.928C81.766 102.034 80.9126 102.972 79.8093 103.022C79.7726 103.036 79.7426 103.036 79.7126 103.036Z" fill="black"/>
</g>
<defs>
<clipPath id="clip0_805_33355">
<rect width="180" height="180" rx="24" fill="white"/>
</clipPath>
<clipPath id="clip1_805_33355">
<rect width="200" height="200.436" fill="white" transform="translate(-10 95.2734)"/>
</clipPath>
</defs>
</svg>
