<svg width="180" height="180" viewBox="0 0 180 180" fill="none" xmlns="http://www.w3.org/2000/svg">
<g clip-path="url(#clip0_805_38809)">
<rect width="180" height="180" rx="24" fill="white"/>
<g clip-path="url(#clip1_805_38809)">
<path d="M103.124 95.2734C103.424 98.6474 104.8 106.271 109.924 105.128L110.474 105.963C110.224 111.198 107.577 114.889 103.43 118.714C99.2171 122.539 93.8437 124.838 88.1737 125.242C83.1737 125.609 77.8571 124.41 74.1171 121.049C70.3771 117.689 68.4104 113.032 70.8871 109.04H71.2471C72.3737 109.073 73.4104 108.482 74.3637 107.881C75.5771 107.113 78.0804 103.962 78.8304 103.057C79.8304 101.758 80.2371 96.8302 80.7504 95.2734H103.124V95.2734Z" fill="#FFD39F"/>
<path d="M110.519 103.289C116.416 104.873 120.989 109.426 124.673 114.089C128.689 119.18 131.839 124.899 133.999 131.016C135.209 134.433 137.123 138.278 137.913 141.813L138.966 145.047C144.673 169.677 145.693 195.082 146.066 220.41L146.399 220.791C148.453 228.321 156.119 247.362 157.786 255.38C157.839 256.065 157.726 256.753 157.453 257.384C154.119 261.393 148.453 260.391 144.069 261.754L128.579 264.844C106.409 268.829 84.1595 269.804 61.9495 266.05L57.7595 265.558L43.4261 262.809C42.1328 262.562 40.7128 262.231 39.9561 261.139C39.3294 260.244 39.3328 259.064 39.3795 257.972C39.5695 253.629 40.0695 249.32 40.5695 245.007L42.8561 225.251H42.6828C39.2961 224.837 36.5761 224.426 33.1895 224.015C34.5928 208.498 36.3928 193.021 38.5895 177.581C40.4995 164.135 42.7228 150.685 46.6695 137.694C50.1761 126.149 55.7395 114.209 66.3028 108.42L80.9695 109.422L110.519 103.289Z" fill="black"/>
<path fill-rule="evenodd" clip-rule="evenodd" d="M84.1938 123.333L81.0005 109.443C87.4311 106.802 92.299 104.344 97.1502 101.895L97.3072 101.816C101 99.9486 104.814 98.0478 108.94 97.7305C108.63 101.161 107.692 104.47 106.755 107.778L106.755 107.778L106.727 107.876C106.097 110.091 105.43 112.359 103.94 114.099C102.68 115.573 100.934 116.535 99.1938 117.387C94.3702 119.75 89.291 121.538 84.2246 123.322L84.1938 123.333ZM76.1838 105.207L77.5671 100.256C77.9338 100.563 78.4071 99.2605 77.7871 98.2416L67.5371 106.526C67.2904 109.052 67.5804 111.601 68.3938 114.006C69.2071 116.411 70.5204 118.613 72.2471 120.47C75.3671 117.246 77.8571 113.461 79.5804 109.316C78.0471 108.992 76.1971 108.35 75.9704 106.794C75.9338 106.256 76.0038 105.715 76.1838 105.207ZM118.854 231.815C118.327 234.371 118.154 236.983 118.334 239.586C118.327 239.736 118.347 239.886 118.4 240.026C118.454 240.167 118.534 240.297 118.637 240.407C118.847 240.534 119.094 240.591 119.337 240.564L142.004 240.501C142.347 240.528 142.69 240.464 143.004 240.32C143.644 239.956 143.694 239.068 143.67 238.316L143.43 232.159L118.854 231.815ZM32.7305 232.002C32.9305 229.514 33.1471 226.958 34.2171 224.703L42.5305 225.482L41.4771 233.339C38.5138 233.319 35.5671 232.868 32.7305 232.002Z" fill="white"/>
<path fill-rule="evenodd" clip-rule="evenodd" d="M83.2434 125.084C83.5367 125.244 83.8734 125.328 84.2067 125.328C84.4367 125.328 84.6667 125.291 84.8767 125.217C89.92 123.444 95.1334 121.606 100.063 119.191C101.987 118.252 103.967 117.143 105.45 115.409C107.26 113.298 108.027 110.599 108.643 108.428L108.673 108.327L108.674 108.324L108.674 108.323L108.675 108.322C108.98 107.246 109.288 106.158 109.577 105.057C109.708 105.127 109.85 105.184 110 105.224C115.823 106.791 120.267 111.742 123.103 115.333C126.99 120.26 130.02 125.762 132.113 131.688C132.55 132.918 133.073 134.207 133.583 135.453C134.517 137.741 135.48 140.107 135.96 142.251C136.17 143.183 136.993 143.818 137.91 143.818C138.057 143.818 138.203 143.801 138.35 143.768C139.427 143.524 140.103 142.452 139.863 141.373C139.31 138.901 138.283 136.375 137.287 133.933L137.241 133.821C136.744 132.603 136.275 131.451 135.883 130.345C133.647 124.005 130.4 118.119 126.24 112.844C123.053 108.809 118.007 103.223 111.037 101.352C110.839 101.299 110.64 101.277 110.445 101.284C110.656 100.176 110.824 99.0532 110.927 97.9148C110.98 97.3302 110.773 96.7489 110.36 96.328C109.947 95.9071 109.37 95.69 108.783 95.7367C104.199 96.0873 100.061 98.1797 96.4095 100.026L96.4034 100.029L96.2434 100.11L96.099 100.182L96.0989 100.182C91.4502 102.527 86.6356 104.955 80.44 107.507C80.299 107.44 80.1492 107.388 79.9933 107.355C78.41 107.021 78.0233 106.614 77.9599 106.524C77.9599 106.33 77.9866 106.139 78.0433 105.956L80.1033 101.563C80.4699 100.781 80.2933 99.849 79.6666 99.2544C79.04 98.6598 78.1033 98.5362 77.3433 98.9471L66.5866 104.76C66.0033 105.077 65.6099 105.665 65.5466 106.33C65.538 106.417 65.53 106.505 65.5226 106.593C65.4666 106.617 65.4112 106.644 65.3566 106.674C56.0866 111.755 49.5433 121.426 44.76 137.113C40.7366 150.359 38.4666 164.256 36.6133 177.301C34.4199 192.691 32.6 208.348 31.2 223.839C31.1428 224.455 31.3717 225.033 31.7786 225.44C31.2344 227.115 31.0048 228.838 30.8531 230.47C27.4577 231.973 25.7227 234.997 26.51 238.153C26.6 238.507 26.78 238.828 27.0367 239.085C30.2767 242.335 29.92 247.189 29.5733 251.883L29.5664 251.974L29.5664 251.975L29.5664 251.975L29.5664 251.975L29.5664 251.975L29.5664 251.975L29.5663 251.975L29.5663 251.976C29.5254 252.519 29.4849 253.055 29.4533 253.58C29.4333 253.907 29.4933 254.235 29.63 254.535C30.46 256.366 31.7833 257.923 33.4533 259.038C34.7087 259.88 36.1186 260.442 37.5937 260.697C37.7381 261.249 37.9689 261.793 38.33 262.309C39.5833 264.093 41.7467 264.53 43.06 264.794L54.3767 266.966C54.5033 266.989 54.63 267.002 54.7533 267.002C55.6933 267.002 56.53 266.334 56.7133 265.379C56.9233 264.293 56.21 263.241 55.1267 263.034L43.8267 260.866C43.12 260.725 41.9333 260.485 41.6 260.011C41.3167 259.61 41.36 258.614 41.3833 258.083C41.5731 253.82 42.0752 249.48 42.5612 245.28L42.5612 245.28L42.5633 245.262L46.5067 211.188L46.6033 210.353L46.6124 210.275C49.3429 186.848 52.166 162.627 57.6333 139.368C57.8867 138.289 57.22 137.21 56.1467 136.956C55.07 136.699 53.9933 137.371 53.74 138.446C48.221 161.922 45.3845 186.253 42.6414 209.784L42.63 209.882L41.1079 223.035C40.3421 222.936 39.6004 222.836 38.8728 222.738L38.2866 222.659C37.3366 222.529 36.37 222.399 35.3566 222.269C36.7266 207.48 38.4766 192.551 40.57 177.865C42.4 164.981 44.64 151.268 48.5833 138.283C52.7451 124.631 58.2006 115.944 65.6581 111.152C65.831 112.332 66.1118 113.5 66.5 114.648C67.41 117.34 68.85 119.759 70.7833 121.837C71.1566 122.238 71.6799 122.468 72.2266 122.475H72.2466C72.7866 122.475 73.3066 122.254 73.6833 121.867C75.0205 120.485 76.2429 119.015 77.3454 117.463L73.5433 177.494L73.5405 177.54C71.7139 206.383 69.8271 236.179 73.0123 265.522C69.3991 265.153 65.8227 264.669 62.2766 264.069C61.1866 263.882 60.1566 264.621 59.9733 265.713C59.7899 266.802 60.5233 267.838 61.6133 268.021C65.8984 268.746 70.2248 269.306 74.6039 269.702C74.8173 269.78 75.0465 269.822 75.2833 269.822C75.3633 269.822 75.4433 269.819 75.5233 269.809C75.5408 269.806 75.5581 269.804 75.5754 269.802C75.595 269.799 75.6145 269.796 75.6338 269.792C80.5681 270.208 85.5702 270.417 90.6566 270.417C102.728 270.417 115.272 269.24 128.479 266.891C130.272 268.274 132.38 269.003 134.703 269.003C134.953 269.003 135.21 268.997 135.467 268.977C139.001 268.744 142.073 266.819 144.132 263.751C144.307 263.745 144.483 263.715 144.66 263.665C145.903 263.278 147.33 263.097 148.837 262.91C152.3 262.479 156.223 261.988 158.987 258.664C159.11 258.517 159.21 258.354 159.287 258.177C159.683 257.251 159.853 256.229 159.777 255.224C159.77 255.137 159.757 255.053 159.74 254.97C158.747 250.194 155.825 242.005 152.998 234.086L152.998 234.085L152.997 234.081C151.027 228.569 149.17 223.361 148.323 220.261C148.269 220.06 148.186 219.875 148.079 219.708C147.804 195.071 147.132 171.515 141.443 146.941C141.193 145.862 140.12 145.191 139.043 145.441C137.967 145.692 137.297 146.768 137.547 147.847C143.64 174.174 143.887 199.509 144.147 226.334C144.153 226.944 144.159 227.556 144.165 228.168V228.168V228.169C144.171 228.769 144.177 229.37 144.183 229.972L118.947 229.558C115.197 200.194 113.903 170.326 115.1 140.751C115.147 139.646 114.287 138.71 113.183 138.667C112.077 138.627 111.147 139.482 111.103 140.588C109.873 170.964 111.253 201.65 115.203 231.792C115.306 232.568 115.841 233.192 116.547 233.431C116.265 235.483 116.192 237.562 116.33 239.633C116.33 240.007 116.393 240.374 116.523 240.725C116.673 241.126 116.897 241.487 117.19 241.794C117.218 241.824 117.247 241.852 117.276 241.88C116.068 242.795 115.067 243.966 114.627 245.375C114.247 246.595 114.13 248.492 115.73 250.597C117.21 252.548 119.253 253.72 121.057 254.753C121.413 254.956 121.767 255.16 122.12 255.371C122.613 255.662 123.153 257.631 123.388 258.493L123.393 258.511C123.557 259.112 123.713 259.68 123.897 260.188C124.32 261.352 124.822 262.411 125.395 263.358C108.292 266.233 92.3418 267.073 77.0783 265.888C73.8065 236.615 75.702 206.698 77.5367 177.748L81.2329 119.389L82.2434 123.784C82.3734 124.339 82.7434 124.81 83.2434 125.084ZM32.6412 234.067C31.975 234.346 30.2665 235.211 30.3267 236.737C34.3685 241.238 33.9236 247.282 33.5637 252.172L33.5633 252.177C33.5536 252.315 33.5434 252.451 33.5333 252.588C33.5156 252.825 33.4981 253.06 33.4833 253.296C34.0067 254.265 34.76 255.09 35.6767 255.704C36.2297 256.074 36.83 256.358 37.4588 256.55C37.6855 252.627 38.1375 248.713 38.5761 244.915L38.59 244.794L39.6905 235.284C37.3043 235.138 34.9425 234.73 32.6412 234.067ZM40.1521 231.295L40.6467 227.02C39.6463 226.891 38.6891 226.761 37.7533 226.635L37.2832 226.572L37.2814 226.571L37.2791 226.571L37.276 226.571L37.2721 226.57C36.754 226.501 36.2289 226.43 35.6934 226.359C35.2259 227.648 35.0099 229.072 34.8667 230.513C36.6002 230.938 38.3699 231.201 40.1521 231.295ZM120.28 238.564C120.22 236.901 120.315 235.237 120.565 233.592L141.496 233.937L141.67 238.383C141.672 238.412 141.673 238.439 141.673 238.464C141.673 238.478 141.673 238.491 141.673 238.504V238.504L120.28 238.564ZM145.667 238.236L145.502 234.003L146.173 234.014H146.207C146.733 234.014 147.243 233.804 147.613 233.433C147.89 233.158 148.078 232.81 148.159 232.434C148.476 233.326 148.801 234.236 149.128 235.155L149.139 235.184L149.139 235.184L149.139 235.185L149.139 235.186L149.227 235.431L149.239 235.465C151.859 242.809 154.821 251.112 155.79 255.641C155.797 255.875 155.767 256.112 155.7 256.336C153.947 258.23 151.337 258.557 148.337 258.932C147.623 259.02 146.899 259.111 146.175 259.227C146.278 258.855 146.37 258.474 146.45 258.086C147.459 253.192 146.619 248.343 145.806 243.655L145.803 243.638C145.713 243.124 145.627 242.613 145.54 242.102C145.473 241.704 145.295 241.354 145.042 241.077C145.723 240.038 145.684 238.757 145.667 238.236ZM123.459 242.555L141.57 242.504C141.573 242.59 141.582 242.678 141.597 242.766C141.669 243.199 141.744 243.631 141.819 244.066L141.82 244.075L141.823 244.089L141.823 244.091L141.823 244.092L141.863 244.323L141.866 244.338C142.615 248.659 143.389 253.124 142.533 257.271C141.417 262.666 138.017 264.788 135.2 264.975C130.913 265.252 128.733 261.781 127.653 258.811C127.527 258.457 127.39 257.966 127.25 257.448L127.247 257.439C126.711 255.48 126.044 253.04 124.163 251.923C123.882 251.756 123.598 251.592 123.312 251.428L123.303 251.423L123.04 251.272L123.038 251.27L123.037 251.27C121.425 250.345 119.899 249.47 118.91 248.168C118.227 247.27 118.383 246.765 118.443 246.575C118.757 245.569 120.33 244.403 122.183 243.802C122.805 243.603 123.26 243.128 123.459 242.555ZM85.64 120.698L83.33 110.642C89.0734 108.217 93.63 105.919 98.0367 103.691L98.2 103.607C100.913 102.234 103.7 100.828 106.59 100.133C106.176 102.462 105.522 104.771 104.841 107.179L104.841 107.179L104.827 107.228L104.8 107.329C104.24 109.306 103.657 111.351 102.42 112.797C101.36 114.033 99.7434 114.885 98.3134 115.587C94.2634 117.571 89.9267 119.178 85.64 120.698ZM69.4599 107.766C69.3966 109.67 69.6766 111.548 70.2899 113.365C70.7799 114.815 71.4633 116.164 72.33 117.401C74.11 115.299 75.6166 113.001 76.8333 110.532C75.1666 109.757 74.2133 108.601 73.9899 107.085L73.9878 107.069L73.9878 107.069L73.9878 107.069C73.9819 107.025 73.9763 106.982 73.9733 106.938C73.9333 106.37 73.9733 105.809 74.09 105.257L69.4599 107.766Z" fill="black"/>
</g>
<path fill-rule="evenodd" clip-rule="evenodd" d="M93.1494 35.4035C96.4361 32.1598 98.5361 27.9306 100.573 23.7849C105.533 13.6896 92.6661 8.67541 85.0227 8.34469C68.8727 7.63982 52.7294 17.3209 45.7294 31.9226C45.4037 32.6018 45.0823 33.303 44.7574 34.012C42.5779 38.7673 40.2364 43.8761 35.3427 45.0912C34.6434 45.2655 33.9157 45.3458 33.1905 45.4258C32.0109 45.556 30.8382 45.6854 29.8061 46.217C28.1394 47.0756 27.2094 49.7881 28.8061 50.7903C29.3394 51.0676 29.9327 51.2146 30.5327 51.2179L38.3027 51.866C37.5361 54.6153 37.6027 58.7175 40.4327 59.0282C41.6294 59.1585 42.7327 58.4202 43.6661 57.6586C44.5002 56.9751 45.5389 56.3264 46.6063 55.6599C48.5545 54.4433 50.5979 53.1672 51.6661 51.5119C52.6364 50.0072 53.0771 48.2787 53.5138 46.5662C54.0447 44.4842 54.5696 42.4258 56.0327 40.822C60.3327 36.1451 67.556 34.4247 73.4927 36.7063C74.4508 37.0671 75.3741 37.522 76.2966 37.9765C77.6979 38.6669 79.0971 39.3563 80.6127 39.7129C85.1027 40.7685 89.8627 38.6472 93.1494 35.4035ZM127.389 33.8234C123.529 26.1634 111.073 20.8519 102.499 20.9454C102.499 20.9454 96.2127 32.691 94.3327 34.9759C91.7693 38.1061 83.666 41.3231 83.666 41.3231C85.2445 42.0532 87.0883 42.3843 89.0484 42.7364C92.4691 43.3508 96.2438 44.0288 99.5793 47.0021C102.243 50.0387 103.439 54.2177 103.199 58.2532C103.165 58.8336 103.102 59.4164 103.04 59.9992C102.873 61.5567 102.706 63.1141 103.073 64.6237C103.576 66.6982 105.589 68.6391 107.643 68.0745L123.723 77.5952C124.129 79.6397 126.843 80.0305 128.509 78.9315C130.176 77.8324 130.959 75.8013 131.386 73.8471C131.419 73.6973 131.451 73.5459 131.482 73.3939C131.735 72.1859 131.998 70.9338 132.886 70.0822C133.861 69.1231 135.243 68.9745 136.645 68.8237C137.791 68.7004 138.951 68.5756 139.913 68.0044C142.363 66.5512 142.386 62.8432 140.983 60.3611C140.12 58.8347 138.886 57.5825 137.649 56.3271C136.875 55.541 136.099 54.7537 135.413 53.8971C132.746 50.5679 131.57 46.4402 130.386 42.2881C129.56 39.3908 128.731 36.4815 127.389 33.8234Z" fill="black"/>
<path d="M80.6127 39.7066C78.0994 39.1153 75.906 37.6087 73.4927 36.7001C67.556 34.4251 60.3327 36.1455 56.0327 40.8223L53.3327 52.8485C51.3327 55.855 50.9994 59.5297 49.9994 63.2043C49.9994 64.26 45.946 78.5176 55.3327 87.9247C58.666 91.2653 62.9994 92.6016 67.4994 93.6038C71.536 94.2284 75.946 94.8565 79.8327 93.2697C79.6094 96.7473 79.576 99.2293 79.736 102.71L103.236 100.285C102.853 95.715 103.693 91.6027 105.676 87.4671C106.123 86.5317 107.093 86.5417 108.049 86.2377C108.896 85.9705 109.736 85.6632 110.556 85.3157C112.226 84.6209 113.803 83.7223 115.256 82.6433C118.129 80.4685 120.366 77.4152 121.209 73.8742C121.973 70.6639 121.436 66.8422 117.859 65.035C115.353 63.7656 113.103 64.2165 109.279 67.5839L107.633 68.0916C105.579 68.6562 103.566 66.7153 103.063 64.6408C102.559 62.5663 103.063 60.4016 103.189 58.2703C103.429 54.2348 102.233 50.0558 99.5694 47.0192C96.906 43.9825 92.726 42.2287 88.7394 42.8467" fill="#FFD39F"/>
<path fill-rule="evenodd" clip-rule="evenodd" d="M40.7195 61.0513C40.5561 61.0513 40.3861 61.0413 40.2161 61.0246C38.8561 60.8743 37.7361 60.1962 36.9695 59.0637C35.9728 57.5872 35.7595 55.5661 35.9395 53.6853L30.4361 53.2277C29.5495 53.211 28.6661 52.9838 27.8795 52.5729C27.8328 52.5495 27.7861 52.5228 27.7428 52.4927C26.5628 51.7511 25.9195 50.4817 25.9828 49.0052C26.0595 47.1578 27.2561 45.2804 28.8895 44.4386C30.2344 43.7448 31.6642 43.5836 32.9272 43.4412L32.9695 43.4364C33.6495 43.3629 34.2895 43.2894 34.8595 43.1491C38.8169 42.1676 40.9101 37.6029 42.9355 33.186L42.9395 33.1774L43.0419 32.9544C43.3372 32.3114 43.6303 31.673 43.9261 31.0561C51.2561 15.7662 68.1961 5.60414 85.1095 6.34242C90.1961 6.5629 98.9828 8.95142 102.343 14.6338C103.579 16.7216 104.586 20.1591 102.369 24.6723C100.383 28.7211 98.1261 33.3077 94.5561 36.832C90.4095 40.9243 84.8928 42.7783 80.1595 41.6659C78.4502 41.2647 76.9443 40.5271 75.4862 39.8128L75.4861 39.8127L75.4161 39.7784L75.384 39.7626L75.3839 39.7626C74.4925 39.3241 73.6492 38.9093 72.7928 38.5858C67.6595 36.6116 61.2361 38.1282 57.5061 42.1837C56.4408 43.3514 56.0737 45.1657 55.6842 47.0906L55.6828 47.0977L55.6776 47.1231C55.3561 48.7102 55.0259 50.3398 54.2875 51.8748C54.8771 52.4172 55.1066 53.2868 54.7994 54.0795C52.5261 59.9389 51.4261 64.6725 51.1528 67.1479C50.2495 75.4159 52.4028 82.655 57.0661 87.0044C59.5594 89.3295 62.7495 90.7693 67.1061 91.5376C71.5595 92.316 75.5328 92.8404 79.0494 91.4007C79.6861 91.1401 80.4128 91.2269 80.9728 91.6278C81.5328 92.0287 81.8461 92.6935 81.8028 93.3816C81.5895 96.7423 81.5528 97.4839 81.7128 100.931C81.7628 102.037 80.9095 102.976 79.8061 103.026C79.7728 103.039 79.7428 103.039 79.7095 103.039C78.6461 103.039 77.7628 102.201 77.7128 101.125C77.6061 98.7734 77.5828 97.5908 77.6495 95.9773C73.6428 96.7523 69.5628 96.0407 66.4161 95.4895C61.3328 94.5909 57.3828 92.777 54.3395 89.9408C48.7461 84.7195 46.1361 76.2544 47.1761 66.7103C47.4728 64.0194 48.3846 60.3292 49.7063 56.3926C49.1359 56.7267 48.5511 57.0439 47.9713 57.3584L47.9561 57.3667L47.9412 57.3748L47.9411 57.3748C46.7866 57.9998 45.6928 58.592 44.9361 59.214C43.8628 60.0859 42.4428 61.0513 40.7195 61.0513ZM29.9828 49.1221C30.1628 49.1822 30.3528 49.2156 30.5428 49.2156C30.5931 49.2156 30.6404 49.2186 30.6903 49.2217H30.6904H30.6905H30.6906L30.6995 49.2223L38.4695 49.8704C39.0628 49.9205 39.6061 50.2312 39.9461 50.7222C40.2861 51.2133 40.3895 51.8313 40.2295 52.4059C39.7495 54.123 39.7761 56.0605 40.2861 56.8155C40.3895 56.9691 40.4695 57.0159 40.6528 57.036C41.1882 57.0948 42.0689 56.3783 42.3868 56.1196L42.4061 56.1039C43.4595 55.2421 44.7761 54.5272 46.0528 53.8357L46.07 53.8263C47.8013 52.8872 49.5886 51.9177 50.3228 50.7757C51.0995 49.5697 51.4228 47.9796 51.7628 46.2959C52.2195 44.031 52.7395 41.4621 54.5595 39.4678C59.4361 34.1629 67.5161 32.2588 74.2128 34.8344C75.2469 35.2243 76.228 35.7072 77.1759 36.1739L77.1759 36.1739L77.1828 36.1773L77.1948 36.1832C78.527 36.8391 79.7833 37.4576 81.0728 37.7607C85.1461 38.7161 89.2595 36.4312 91.7495 33.9758C94.8349 30.9304 96.8369 26.8591 98.7742 22.9192L98.7828 22.9018C99.9428 20.5399 99.9828 18.5022 98.9061 16.6782C96.7295 13.0002 90.0995 10.5716 84.9428 10.3478C69.5695 9.67633 54.1961 18.9064 47.5395 32.7899C47.2256 33.4452 46.9149 34.123 46.6012 34.8076L46.6012 34.8076L46.6011 34.8077L46.6011 34.8079L46.5828 34.8477C44.2761 39.882 41.6595 45.5877 35.8328 47.0342C35.0264 47.2362 34.2391 47.3238 33.477 47.4086H33.477L33.4195 47.415L33.4115 47.4159L33.4115 47.4159C32.3944 47.5292 31.431 47.6365 30.7295 47.9963C30.3061 48.2168 30.0161 48.8047 29.9828 49.1221ZM104.269 69.4396C105.109 69.9373 106.019 70.1912 106.923 70.1912C107.343 70.1912 107.759 70.1344 108.163 70.0275C108.49 69.9383 108.777 69.7729 109.008 69.5556C109.555 69.6233 110.126 69.4657 110.573 69.0721C114.236 65.8451 115.573 66.1157 116.936 66.8072C120.06 68.3873 119.58 71.935 119.226 73.3948C118.54 76.2911 116.686 79.0037 114.026 81.0181C112.706 82.0002 111.27 82.8187 109.74 83.4534C108.983 83.7741 108.2 84.0614 107.406 84.3119C107.285 84.3514 107.15 84.3847 107.006 84.42L107.004 84.4204C106.967 84.4297 106.928 84.4392 106.89 84.4489C106.03 84.656 104.593 85.0034 103.833 86.5835C101.76 90.9096 100.783 93.2146 101.206 98.2455C101.293 99.2911 102.17 100.083 103.196 100.083C103.253 100.083 103.31 100.08 103.37 100.066C104.47 99.976 105.286 99.0038 105.193 97.9014C104.86 93.9729 105.453 92.4663 107.37 88.4576C107.464 88.4268 107.598 88.3941 107.722 88.3639L107.723 88.3637C107.76 88.3546 107.796 88.3458 107.83 88.3373C108.063 88.2805 108.33 88.2137 108.606 88.1269C109.516 87.8429 110.42 87.5089 111.283 87.1447C113.103 86.3898 114.83 85.4076 116.423 84.2217C118.711 82.4904 120.534 80.3387 121.758 77.9649L121.763 77.9915C122.043 79.4146 122.996 80.5604 124.369 81.135C125.019 81.4056 125.733 81.5392 126.449 81.5392C127.556 81.5392 128.679 81.2219 129.603 80.6039C131.449 79.3845 132.669 77.3134 133.333 74.2734L133.433 73.8024L133.436 73.7863C133.635 72.8402 133.822 71.9492 134.279 71.5108C134.756 71.0401 135.725 70.9363 136.847 70.8162L136.849 70.8159C138.133 70.679 139.589 70.5219 140.923 69.7302C142.616 68.728 143.663 66.9642 143.876 64.7628C144.049 62.9522 143.629 60.9879 142.716 59.3744C141.724 57.6185 140.375 56.2496 139.069 54.9243L139.066 54.9214C138.306 54.1497 137.589 53.4214 136.966 52.6464C134.553 49.6332 133.459 45.8015 132.303 41.7427L132.295 41.7158C131.458 38.7778 130.592 35.7411 129.169 32.9235C124.936 24.5219 116.416 19.1302 107.413 19.1302H107.166C106.063 19.1402 105.176 20.0489 105.189 21.1546C105.203 22.2537 106.096 23.1356 107.189 23.1356H107.213H107.416C114.923 23.1356 122.046 27.6654 125.603 34.7275C126.859 37.2162 127.639 39.9455 128.463 42.8384C129.676 47.101 130.933 51.5073 133.853 55.1519C134.601 56.0852 135.426 56.922 136.221 57.7288L136.226 57.7341L136.242 57.7499C137.409 58.9367 138.513 60.0582 139.243 61.3487C140.166 62.9856 140.216 65.4944 138.893 66.2794C138.308 66.629 137.402 66.7264 136.442 66.8296L136.433 66.8306L136.429 66.831C134.883 66.9979 132.958 67.2058 131.506 68.6345C130.17 69.9172 129.813 71.6174 129.526 72.9836L129.526 72.984C129.496 73.131 129.466 73.2779 129.433 73.4216C129.003 75.3892 128.339 76.6453 127.409 77.2599C126.993 77.5339 126.336 77.6107 125.913 77.4336C125.716 77.3501 125.699 77.2733 125.686 77.2065C125.469 76.1208 124.416 75.4159 123.333 75.6331C123.081 75.6834 122.851 75.779 122.647 75.9095C122.831 75.3887 122.986 74.8605 123.113 74.3269C124.293 69.4429 122.616 65.1903 118.736 63.2261C116.236 61.96 113.193 61.4255 107.933 66.0589C107.916 66.0735 107.9 66.0883 107.884 66.1033C107.634 66.0724 107.374 66.0888 107.116 66.1591L107.114 66.1596C107.023 66.1834 106.75 66.2543 106.306 65.9921C105.709 65.638 105.189 64.9064 105.013 64.1715C104.729 62.9956 104.873 61.6527 105.026 60.2262L105.031 60.1785C105.093 59.5986 105.157 58.9969 105.193 58.3889C105.476 53.6252 103.976 48.9985 101.079 45.6946C97.5095 41.6225 93.4961 41.6058 89.6928 42.1937C88.5995 42.3607 87.8528 43.3863 88.0195 44.4787C88.1861 45.5744 89.2095 46.3227 90.2995 46.1556C94.1061 45.5677 96.1428 46.1389 98.0728 48.3404C100.283 50.8559 101.419 54.4303 101.199 58.1484C101.173 58.6256 101.122 59.1081 101.069 59.615L101.069 59.6151L101.069 59.6154L101.049 59.7986L101.046 59.83C100.867 61.524 100.682 63.2742 101.126 65.1102C101.563 66.9108 102.736 68.5309 104.269 69.4396ZM62.8095 62.5713C64.0982 62.5713 65.1429 61.3 65.1429 59.7318C65.1429 58.1636 64.0982 56.8923 62.8095 56.8923C61.5209 56.8923 60.4762 58.1636 60.4762 59.7318C60.4762 61.3 61.5209 62.5713 62.8095 62.5713ZM74.1429 63.3564C75.4316 63.3564 76.4762 62.0851 76.4762 60.5169C76.4762 58.9486 75.4316 57.6774 74.1429 57.6774C72.8542 57.6774 71.8096 58.9486 71.8096 60.5169C71.8096 62.0851 72.8542 63.3564 74.1429 63.3564Z" fill="black"/>
</g>
<defs>
<clipPath id="clip0_805_38809">
<rect width="180" height="180" rx="24" fill="white"/>
</clipPath>
<clipPath id="clip1_805_38809">
<rect width="200" height="200.436" fill="white" transform="translate(-10 95.2734)"/>
</clipPath>
</defs>
</svg>
