<svg width="180" height="180" viewBox="0 0 180 180" fill="none" xmlns="http://www.w3.org/2000/svg">
<g clip-path="url(#clip0_805_37734)">
<rect width="180" height="180" rx="24" fill="white"/>
<g clip-path="url(#clip1_805_37734)">
<path d="M103.124 95.2734C103.424 98.6474 104.8 106.271 109.924 105.128L110.474 105.963C110.224 111.198 107.577 114.889 103.43 118.714C99.2171 122.539 93.8437 124.838 88.1737 125.242C83.1737 125.609 77.8571 124.41 74.1171 121.049C70.3771 117.689 68.4104 113.032 70.8871 109.04H71.2471C72.3737 109.073 73.4104 108.482 74.3637 107.881C75.5771 107.113 78.0804 103.962 78.8304 103.057C79.8304 101.758 80.2371 96.8302 80.7504 95.2734H103.124V95.2734Z" fill="#FFD39F"/>
<path d="M110.63 103.262C115.734 104.628 119.92 108.303 123.357 112.311C127.7 117.399 131.144 123.195 133.544 129.445C138.854 143.285 138.857 158.886 145.26 172.255C141.784 173.287 138.247 174.089 134.667 174.66L137.554 188.38C144.937 211.29 150.074 228.861 156.82 250.973C157.154 252.102 158.487 256.094 157.87 257.093C157.457 257.761 156.764 258.189 156.087 258.573C152.387 260.681 148.347 260.858 144.174 261.7L128.684 264.79C106.514 268.775 84.2635 269.75 62.0535 265.995L57.8635 265.504L43.5302 262.755C42.2368 262.508 40.8168 262.177 40.0602 261.085C39.4335 260.19 39.4368 259.01 39.4835 257.918C39.6735 253.575 40.1735 249.266 40.6735 244.953L44.6168 210.879C46.3335 196.324 48.0002 181.709 50.3335 167.204L50.1735 167.137C46.2968 165.801 42.4802 164.318 38.6602 162.831C38.1335 162.681 37.6602 162.387 37.2868 161.986C36.5368 161.017 37.1802 159.628 37.8235 158.582C43.5002 149.329 48.3535 139.594 52.3335 129.489C55.3735 121.772 58.5468 113.09 65.9668 109.412L74.3768 105.884C73.6635 107.103 74.5668 110.581 75.5302 111.613C76.4935 112.645 77.8635 113.187 79.1968 113.618C83.6702 115.014 88.5302 115.385 93.0702 114.286C97.6102 113.187 101.854 110.518 104.52 106.652C105.187 105.704 105.744 104.675 106.57 103.87C107.397 103.065 108.57 102.497 109.694 102.747L110.63 103.262Z" fill="black"/>
<path fill-rule="evenodd" clip-rule="evenodd" d="M36.8443 224.069L41.8076 164.851L50.631 164.66C48.1143 180.004 46.321 195.48 44.531 210.931L40.5876 245.005L40.5858 245.021C40.0864 249.328 39.5874 253.632 39.3976 257.97L39.1476 258.835C36.5843 258.374 33.7643 257.612 32.4043 255.387C31.2146 253.45 31.5365 251.146 31.8621 248.814C32.1442 246.794 32.4292 244.754 31.7376 242.914C31.3772 241.951 30.7577 241.03 30.1471 240.122C28.9959 238.411 27.8764 236.746 28.5843 234.943C29.1432 233.531 30.5569 232.872 31.9871 232.205C32.8857 231.786 33.7907 231.364 34.4943 230.75C36.3176 229.16 36.641 226.488 36.8443 224.069ZM124.554 241.3C121.894 219.62 120.264 197.866 119.668 176.042L136.121 175.54L144.221 249.561C144.718 254.111 145.104 259.126 142.461 262.86C141.448 264.29 140.054 265.413 138.441 266.097C136.828 266.782 135.058 267.003 133.324 266.735C131.594 266.468 129.971 265.72 128.638 264.581C127.304 263.442 126.318 261.952 125.781 260.278C125.588 259.668 125.452 259.035 125.317 258.405C125.035 257.087 124.756 255.781 123.958 254.719C123.119 253.607 121.836 252.944 120.563 252.287C119.104 251.533 117.657 250.786 116.908 249.374C115.874 247.417 116.721 244.848 118.394 243.408C120.068 241.968 122.351 241.437 124.554 241.3Z" fill="#FFD39F"/>
<path fill-rule="evenodd" clip-rule="evenodd" d="M103.526 103.449C103.621 103.619 103.717 103.79 103.816 103.961C103.623 104.238 103.444 104.511 103.273 104.772C103.106 105.026 102.94 105.28 102.756 105.544C100.47 108.858 96.7264 111.347 92.4831 112.369C88.5031 113.327 84.0764 113.11 79.6931 111.741C78.6131 111.39 77.5231 110.972 76.8731 110.274C76.492 109.866 76.2915 109.268 76.3902 108.9C77.1636 108.35 77.7677 107.803 78.2129 107.4L78.2298 107.385L78.3465 107.278C79.9898 105.791 80.4864 104.913 80.9231 103.997C80.9731 103.89 81.0231 103.787 81.0798 103.677C81.5931 102.698 81.2198 101.485 80.2431 100.967C79.2665 100.453 78.0564 100.827 77.5398 101.806C77.4564 101.966 77.3831 102.116 77.3098 102.27C77.0804 102.754 76.892 103.148 75.9748 104.017C75.3927 103.343 74.4101 103.119 73.5764 103.533L68.1798 106.205C67.5236 106.531 67.1237 107.169 67.0713 107.851C66.4851 107.399 65.6705 107.291 64.9631 107.642C57.1331 111.52 53.7164 120.219 50.7031 127.896L50.3564 128.781C46.4264 138.749 41.5931 148.434 35.9931 157.56C34.5798 159.862 34.4398 161.773 35.5798 163.246C35.6164 163.293 35.6531 163.336 35.6931 163.38C36.2898 164.024 37.0464 164.499 37.8831 164.759L37.8898 164.763C38.504 165.002 39.1217 165.243 39.7423 165.484L34.8464 223.898C34.6597 226.106 34.3931 228.174 33.1764 229.236C32.6864 229.664 31.9364 230.015 31.1397 230.385L31.1304 230.39C29.5453 231.131 27.5714 232.053 26.7197 234.207C25.6298 236.99 27.213 239.345 28.4863 241.239L28.4864 241.239L28.5357 241.313L28.5357 241.313C29.0809 242.127 29.5945 242.894 29.8631 243.617C30.3764 244.98 30.1364 246.707 29.8797 248.535C29.5297 251.04 29.1331 253.883 30.6964 256.432C32.2243 258.931 34.9117 259.973 37.5594 260.56C37.7007 261.158 37.9389 261.75 38.3298 262.308C39.5831 264.092 41.7464 264.53 43.0598 264.794L55.2498 267.132C55.3764 267.155 55.5031 267.169 55.6264 267.169C56.5664 267.169 57.4064 266.501 57.5864 265.545C57.7964 264.459 57.0831 263.407 55.9998 263.2L43.8264 260.865C43.1198 260.725 41.9331 260.484 41.5998 260.01C41.3164 259.609 41.3598 258.613 41.3831 258.082C41.5728 253.819 42.075 249.479 42.561 245.279L42.561 245.279L42.5631 245.261L46.5064 211.187L46.6031 210.352L46.6122 210.274C49.3427 186.847 52.1658 162.626 57.6331 139.368C57.8864 138.289 57.2198 137.209 56.1464 136.956C55.0664 136.698 53.9931 137.37 53.7398 138.446C51.7159 147.054 50.0528 155.778 48.6227 164.535C45.5179 163.421 42.4138 162.214 39.3932 161.039L39.3398 161.018L39.2598 160.988C39.2031 160.968 39.1464 160.948 39.0864 160.931C38.9998 160.908 38.9198 160.871 38.8464 160.827C38.8898 160.64 39.0198 160.276 39.3998 159.658C45.1231 150.331 50.0631 140.436 54.0764 130.251L54.4264 129.362C57.3098 122.02 60.2931 114.427 66.7364 111.236C67.3925 110.911 67.7924 110.273 67.8449 109.591C68.0754 109.768 68.3413 109.893 68.6221 109.957C68.0316 110.433 67.74 111.228 67.9398 112.011C68.8531 115.616 72.0564 117.741 74.9864 119.448C77.8498 121.118 81.1431 121.445 84.0064 121.622C85.3764 121.709 86.8831 121.776 88.4698 121.776C91.7664 121.776 95.4164 121.485 98.9198 120.446C104.97 118.659 108.836 113.014 110.603 109.81C111.136 108.841 110.786 107.622 109.82 107.087C108.853 106.553 107.636 106.904 107.103 107.872C105.633 110.538 102.47 115.218 97.7898 116.601C93.2164 117.954 88.3764 117.877 84.2498 117.624C81.8464 117.473 79.1031 117.213 76.9964 115.983C74.7698 114.687 72.3498 113.124 71.8164 111.026C71.6331 110.296 71.0717 109.762 70.3952 109.581L72.3954 108.59C72.2342 110.113 72.779 111.755 73.9531 113.013C75.2264 114.376 76.8764 115.041 78.4864 115.562C81.4731 116.498 84.4864 116.965 87.4131 116.965C89.4731 116.965 91.4864 116.735 93.4231 116.267C98.6098 115.014 103.21 111.938 106.04 107.839C106.24 107.555 106.43 107.265 106.619 106.974L106.62 106.974L106.631 106.957C107.033 106.342 107.414 105.761 107.846 105.34C108.272 104.924 108.808 104.671 109.129 104.733C109.366 104.965 109.664 105.141 110.006 105.233C113.956 106.292 117.793 109.052 121.73 113.662C125.936 118.589 129.246 124.158 131.57 130.211C133.913 136.314 135.233 142.955 136.51 149.383L136.511 149.39C137.947 156.613 139.427 164.057 142.373 171C132.26 173.695 121.89 174.43 111.493 173.188L112.353 142.989C112.383 141.883 111.513 140.958 110.41 140.928C109.306 140.887 108.383 141.769 108.353 142.875L107.443 174.885C107.413 175.904 108.153 176.782 109.163 176.926C112.016 177.328 114.867 177.588 117.712 177.706C118.327 198.3 119.877 219.089 122.326 239.552C120.196 239.943 118.44 240.724 117.09 241.887C114.58 244.045 113.743 247.666 115.14 250.315C116.182 252.277 118.019 253.226 119.641 254.064L119.646 254.067C120.753 254.638 121.796 255.179 122.36 255.924C122.89 256.632 123.11 257.648 123.36 258.824C123.5 259.492 123.65 260.18 123.873 260.888C124.159 261.78 124.551 262.629 125.037 263.417C102.469 267.176 81.9075 267.387 62.2764 264.069C61.1864 263.881 60.1564 264.62 59.9731 265.712C59.7898 266.801 60.5231 267.837 61.6131 268.02C71.0531 269.617 80.6931 270.416 90.6564 270.416C102.701 270.416 115.216 269.245 128.391 266.906C129.778 267.84 131.354 268.459 133.016 268.715C133.6 268.806 134.183 268.849 134.766 268.849C136.293 268.849 137.806 268.545 139.226 267.944C141.183 267.112 142.866 265.756 144.096 264.018C144.162 263.926 144.226 263.832 144.288 263.738C144.344 263.732 144.4 263.724 144.456 263.714C145.401 263.522 146.365 263.363 147.302 263.209L147.303 263.209L147.416 263.19L147.423 263.189C150.588 262.668 153.859 262.13 156.96 260.364C157.823 259.873 158.8 259.261 159.46 258.192C160.323 256.789 159.88 254.538 158.756 250.877C158.703 250.709 158.66 250.566 158.62 250.432C156.776 244.389 155.043 238.66 153.37 233.118L153.23 232.654C148.886 218.287 144.766 204.661 139.551 188.458L138.198 176.092C140.72 175.585 143.229 174.964 145.723 174.23C146.283 174.063 146.743 173.659 146.983 173.121C147.223 172.583 147.213 171.972 146.96 171.441C143.57 164.364 142.053 156.735 140.447 148.66L140.447 148.66L140.447 148.66L140.447 148.66L140.447 148.66L140.447 148.66L140.436 148.608C139.126 142.017 137.77 135.202 135.306 128.778C132.82 122.297 129.276 116.334 124.773 111.059C120.293 105.811 115.8 102.638 111.043 101.362C111.019 101.355 110.994 101.349 110.969 101.343C110.713 101.092 110.385 100.908 110.01 100.824C108.983 100.595 107.886 100.74 106.859 101.212C106.623 100.792 106.357 100.332 106.033 99.8516C105.416 98.9363 104.173 98.6924 103.256 99.3105C102.343 99.9285 102.1 101.175 102.716 102.093C103.005 102.522 103.251 102.959 103.489 103.383L103.526 103.449ZM146.121 259.337C146.338 259.302 146.555 259.266 146.77 259.231L146.798 259.227C149.734 258.744 152.508 258.288 154.983 256.876L155.027 256.851C155.3 256.694 155.692 256.47 155.92 256.245C155.913 255.75 155.713 254.615 154.93 252.056L154.893 251.937C154.851 251.802 154.815 251.684 154.786 251.588C152.946 245.558 151.213 239.826 149.54 234.28L149.398 233.811L149.397 233.81C146.868 225.442 144.415 217.326 141.778 208.807L146.213 249.34L146.214 249.346C146.514 252.099 146.919 255.811 146.121 259.337ZM135.479 188.027C135.412 188.354 135.427 188.702 135.536 189.042L135.618 189.295L142.236 249.777C142.733 254.317 142.996 258.643 140.833 261.7C140.033 262.829 138.94 263.711 137.666 264.252C136.393 264.79 135 264.964 133.633 264.753C132.27 264.543 130.99 263.955 129.94 263.056C128.89 262.154 128.11 260.982 127.69 259.669C127.534 259.177 127.418 258.639 127.296 258.071L127.296 258.071L127.295 258.07L127.295 258.07L127.276 257.982L127.275 257.978C126.969 256.546 126.622 254.924 125.556 253.509C124.447 252.038 122.881 251.226 121.498 250.51L121.483 250.502L121.469 250.495C120.215 249.847 119.131 249.287 118.68 248.435C118.153 247.439 118.61 245.866 119.7 244.927C120.793 243.985 122.47 243.437 124.68 243.3C125.23 243.267 125.74 243.006 126.093 242.582C126.446 242.154 126.606 241.603 126.54 241.055C123.973 220.135 122.351 198.858 121.718 177.78C125.916 177.759 130.097 177.428 134.25 176.791L135.479 188.027ZM42.6411 209.783C44.2239 196.206 45.8377 182.363 47.9799 168.571C46.5248 168.056 45.0734 167.52 43.6319 166.976L38.8331 224.232C38.5864 227.172 38.1497 230.212 35.8031 232.256C34.8864 233.054 33.7931 233.566 32.8264 234.017L32.8234 234.018C31.6847 234.549 30.7028 235.006 30.4397 235.677C30.1397 236.438 30.7564 237.441 31.8031 238.997C32.4731 239.993 33.1631 241.022 33.6064 242.204C34.4739 244.516 34.1384 246.934 33.8423 249.067L33.8397 249.086L33.8397 249.086C33.5464 251.191 33.2931 253.008 34.1031 254.331C34.7486 255.385 36.034 255.999 37.4671 256.405C37.6964 252.53 38.1426 248.666 38.5758 244.914L38.5898 244.793L42.6298 209.881L42.6411 209.783Z" fill="black"/>
</g>
<path d="M107.087 65.4556C109.397 62.7297 108.68 58.0094 105.667 56.1019C104.587 55.4138 103.22 54.9862 102.63 53.8504C101.964 52.5977 102.567 51.0977 102.917 49.7281C102.917 49.6847 102.94 49.6379 102.954 49.5945C103.954 45.4655 99.2437 42.4022 95.8137 44.9009C91.5303 48.021 86.6637 50.2459 81.5037 51.4452C78.837 52.0598 75.5604 52.1801 73.9137 49.9953C72.9404 48.6992 72.707 46.7416 70.247 46.9253C69.5304 46.9855 68.8404 47.236 68.247 47.6469C63.8437 50.6234 58.807 52.5175 53.537 53.1823C52.0637 53.366 50.537 53.4495 49.1137 53.0253C45.027 51.8059 43.1703 46.5913 44.4037 42.5024C45.637 38.4135 49.1203 35.3902 52.8003 33.2255C55.0803 31.8893 57.6203 30.66 58.9937 28.3917C59.8003 27.0555 60.117 25.4653 60.927 24.1324C61.737 22.7995 63.0037 21.794 64.2937 20.8854C71.2437 16.0649 79.5537 13.6129 88.0003 13.8835C93.0003 14.0572 98.877 16.0716 99.957 20.9555L107.624 24.1926C113.524 25.1012 119.524 27.0922 123.7 31.3682C127.877 35.6441 129.7 42.6293 126.7 47.8039C126.307 48.472 125.82 49.1802 125.84 49.9686C125.867 50.9708 126.704 51.7592 127.397 52.5008C128.61 53.817 129.534 55.3737 130.104 57.0707C130.674 58.7677 130.88 60.565 130.71 62.3489C130.554 63.8989 130.044 65.5024 128.884 66.5279C127.724 67.5535 125.747 67.764 124.65 66.6616L108.017 69.2171L107.087 65.4556Z" fill="black"/>
<path d="M52.9371 53.3582C50.7871 58.9002 49.4938 63.9044 49.1671 66.9344C48.3438 74.5643 49.8804 83.0427 55.7038 88.4779C58.8071 91.3708 62.6504 92.7939 66.7604 93.5188C71.0471 94.2771 75.6471 94.9686 79.8071 93.2649C79.5871 96.7425 79.5538 99.2246 79.7138 102.705L103.214 100.093C102.834 95.5198 103.68 91.598 105.667 87.4623C106.117 86.527 107.084 86.537 108.04 86.233C108.89 85.9657 109.724 85.6584 110.547 85.311C112.217 84.6161 113.794 83.7175 115.247 82.6385C118.12 80.4638 120.36 77.4105 121.2 73.8694C121.964 70.6591 121.427 66.8375 117.867 65.0302C115.357 63.7608 113.107 64.2118 109.284 67.5791L107.117 65.4678C109.427 62.7419 108.71 58.0217 105.697 56.1142C104.617 55.426 103.25 54.9984 102.66 53.8626C101.994 52.6099 102.597 51.11 102.947 49.7403C102.947 49.6969 102.97 49.6501 102.984 49.6067C103.984 45.4777 99.2738 42.4144 95.8438 44.9132C91.5604 48.0333 86.6938 50.2581 81.5338 51.4574C78.8671 52.0721 75.5904 52.1923 73.9438 50.0076C72.9704 48.7114 72.7371 46.7538 70.2771 46.9376C69.5604 46.9977 68.8704 47.2482 68.2771 47.6591C63.8638 50.6356 58.8138 52.5264 53.5371 53.1845" fill="#FFD39F"/>
<path d="M126.573 69.41C125.323 69.41 124.11 68.9657 123.223 68.0771C122.443 67.2921 122.447 66.0226 123.227 65.2409C124.01 64.4592 125.277 64.4626 126.057 65.2443C126.307 65.4948 127.09 65.4314 127.55 65.0238C128.167 64.4793 128.577 63.4571 128.71 62.1442C128.853 60.6409 128.683 59.1477 128.197 57.7079C127.713 56.2681 126.947 54.9753 125.917 53.8595L125.747 53.6791C124.957 52.844 123.873 51.7015 123.83 50.0212C123.797 48.7351 124.4 47.7295 124.84 46.9946L124.967 46.7842C127.62 42.2042 125.557 36.141 122.26 32.7704C118.983 29.4164 113.953 27.1982 107.31 26.1727C106.217 26.0056 105.47 24.9801 105.637 23.8877C105.803 22.7953 106.827 22.0437 107.917 22.2107C115.437 23.3699 121.223 25.9789 125.12 29.9643C127.483 32.3828 129.16 35.5364 129.84 38.8436C130.577 42.4213 130.073 45.959 128.42 48.8119L128.27 49.0624C128.117 49.3163 127.863 49.7372 127.833 49.911C127.903 50.1348 128.37 50.6258 128.65 50.9232L128.847 51.1303C130.27 52.6736 131.323 54.4508 131.99 56.4285C132.657 58.4061 132.89 60.4606 132.693 62.5384C132.453 64.9035 131.593 66.7977 130.2 68.0303C129.157 68.949 127.847 69.41 126.573 69.41Z" fill="black"/>
<path d="M107.087 67.459C106.63 67.459 106.17 67.302 105.793 66.9813C104.95 66.2631 104.85 65.0003 105.563 64.1552C106.28 63.31 106.59 62.0439 106.397 60.7678C106.203 59.495 105.53 58.3826 104.6 57.7947C104.37 57.6477 104.1 57.504 103.813 57.3504C102.817 56.8192 101.573 56.1544 100.857 54.7748C99.9233 53.0209 100.44 51.1736 100.82 49.8207C100.867 49.6536 100.913 49.4866 100.957 49.3229C100.977 49.216 101.003 49.1191 101.03 49.039C101.357 47.5156 100.313 46.6772 99.9799 46.4533C99.2499 45.9623 98.0833 45.7251 96.9933 46.5168C92.4666 49.814 87.4099 52.1257 81.9599 53.3918C77.5099 54.4173 74.1766 53.659 72.3233 51.197C71.9933 50.7594 71.7499 50.3117 71.5366 49.9175C70.9699 48.8753 70.9499 48.8753 70.3999 48.9187C70.0499 48.9488 69.6966 49.0757 69.3932 49.2862C64.7299 52.4363 59.3433 54.4641 53.7933 55.1623C52.2266 55.3594 50.3799 55.483 48.5499 54.9384C46.3866 54.2937 44.5499 52.737 43.3766 50.5589C41.9766 47.9533 41.6466 44.7229 42.4933 41.9135C43.6999 37.9148 46.8266 34.4071 51.7933 31.4875C52.0999 31.3071 52.4066 31.1334 52.7166 30.9563C54.5933 29.884 56.3633 28.8718 57.2899 27.3418C57.5999 26.8307 57.8399 26.2026 58.0966 25.5379C58.4066 24.7328 58.7266 23.901 59.2266 23.0792C60.2333 21.4189 61.7099 20.2497 63.1499 19.2342C70.4133 14.1965 79.2566 11.5875 88.0699 11.8681C93.6199 12.0619 100.573 14.4404 101.917 20.5103C102.157 21.5926 101.477 22.6616 100.397 22.9021C99.3199 23.1393 98.2499 22.4612 98.0099 21.3788C97.2166 17.791 92.3799 16.0305 87.9366 15.8769C79.9799 15.6163 71.9866 17.9814 65.4366 22.5246C64.3599 23.283 63.2666 24.1348 62.6399 25.1671C62.3266 25.6815 62.0833 26.3129 61.8266 26.981C61.5199 27.7794 61.2033 28.6045 60.7099 29.4196C59.2466 31.8382 56.8299 33.2212 54.6966 34.4372C54.3999 34.6076 54.1066 34.7746 53.8133 34.945C49.7466 37.3368 47.2266 40.0728 46.3199 43.0727C45.7833 44.8565 46.0033 46.9945 46.8966 48.6548C47.3666 49.5267 48.2299 50.6591 49.6866 51.0934C50.8099 51.4275 52.1399 51.3273 53.2933 51.1836C58.2233 50.5623 63.0099 48.7617 67.1333 45.9756C67.9899 45.381 69.0166 45.0102 70.0833 44.92C73.2466 44.6795 74.4199 46.8408 75.0499 48C75.2132 48.3007 75.3666 48.5846 75.5166 48.7817C76.6632 50.305 79.7766 49.7806 81.0599 49.4833C85.9832 48.3408 90.5533 46.2496 94.6433 43.2697C96.9132 41.6162 99.8833 41.556 102.21 43.1161C104.497 44.6494 105.553 47.3753 104.903 50.0545C104.893 50.0946 104.883 50.1313 104.87 50.1714C104.87 50.1748 104.87 50.1781 104.867 50.1781C104.863 50.1881 104.86 50.2015 104.86 50.2115C104.803 50.4353 104.74 50.6625 104.677 50.893C104.47 51.6279 104.217 52.5432 104.403 52.894C104.557 53.1913 105.14 53.502 105.703 53.8026C106.043 53.983 106.393 54.1701 106.75 54.3973C108.67 55.6132 109.987 57.7111 110.36 60.1498C110.733 62.5951 110.1 64.997 108.623 66.7374C108.217 67.2185 107.653 67.459 107.087 67.459ZM104.917 49.7305C104.917 49.7338 104.917 49.7338 104.917 49.7305C104.917 49.7338 104.917 49.7338 104.917 49.7305ZM104.917 49.7271V49.7305V49.7271Z" fill="black"/>
<path d="M62.8099 62.5696C64.0986 62.5696 65.1432 61.2983 65.1432 59.7301C65.1432 58.1619 64.0986 56.8906 62.8099 56.8906C61.5212 56.8906 60.4766 58.1619 60.4766 59.7301C60.4766 61.2983 61.5212 62.5696 62.8099 62.5696Z" fill="black"/>
<path d="M74.1439 63.3548C75.4325 63.3548 76.4772 62.0835 76.4772 60.5153C76.4772 58.9471 75.4325 57.6758 74.1439 57.6758C72.8552 57.6758 71.8105 58.9471 71.8105 60.5153C71.8105 62.0835 72.8552 63.3548 74.1439 63.3548Z" fill="black"/>
<path d="M103.196 100.081C102.17 100.081 101.293 99.2927 101.206 98.2438C100.783 93.2128 101.76 90.9112 103.833 86.5818C104.593 85.0017 106.03 84.6542 106.89 84.4471C107.076 84.4003 107.253 84.3603 107.406 84.3101C108.2 84.0596 108.983 83.7723 109.74 83.4516C111.27 82.8169 112.706 81.9985 114.026 81.0163C116.686 79.0019 118.54 76.2927 119.226 73.3931C119.58 71.9332 120.06 68.3855 116.936 66.8054C115.573 66.1139 114.236 65.8433 110.573 69.0704C109.743 69.8019 108.48 69.7184 107.75 68.8866C107.02 68.0548 107.103 66.7887 107.933 66.0571C113.193 61.4237 116.233 61.9582 118.736 63.2243C122.616 65.1886 124.293 69.4412 123.113 74.3251C122.213 78.12 119.836 81.6377 116.423 84.22C114.83 85.4059 113.103 86.388 111.283 87.143C110.42 87.5071 109.516 87.8412 108.606 88.1251C108.33 88.212 108.063 88.2788 107.83 88.3356C107.683 88.3723 107.493 88.4157 107.37 88.4558C105.453 92.4645 104.86 93.9711 105.193 97.8997C105.286 99.0021 104.47 99.9709 103.37 100.064C103.31 100.078 103.253 100.081 103.196 100.081Z" fill="black"/>
<path d="M79.7126 103.036C78.6493 103.036 77.766 102.197 77.716 101.122C77.6093 98.7698 77.586 97.5873 77.6526 95.9738C73.646 96.7488 69.566 96.0372 66.4193 95.486C61.336 94.5874 57.386 92.7735 54.3426 89.9373C48.7493 84.716 46.1393 76.2509 47.1793 66.7068C47.5693 63.1691 49.0226 57.9043 51.0726 52.6229C51.4726 51.5906 52.6326 51.0795 53.6626 51.4804C54.6926 51.8813 55.2026 53.0438 54.8026 54.076C52.5293 59.9354 51.4293 64.669 51.156 67.1444C50.2526 75.4124 52.406 82.6515 57.0693 87.0009C59.5626 89.326 62.7526 90.7658 67.1093 91.5341C71.5626 92.3125 75.5393 92.8369 79.0526 91.3971C79.6893 91.1366 80.416 91.2234 80.976 91.6243C81.536 92.0285 81.8493 92.69 81.806 93.3781C81.5926 96.7388 81.556 97.4804 81.716 100.928C81.766 102.034 80.9126 102.972 79.8093 103.022C79.7726 103.036 79.7426 103.036 79.7126 103.036Z" fill="black"/>
</g>
<defs>
<clipPath id="clip0_805_37734">
<rect width="180" height="180" rx="24" fill="white"/>
</clipPath>
<clipPath id="clip1_805_37734">
<rect width="200" height="200.436" fill="white" transform="translate(-10 95.2734)"/>
</clipPath>
</defs>
</svg>
