<svg width="180" height="180" viewBox="0 0 180 180" fill="none" xmlns="http://www.w3.org/2000/svg">
<g clip-path="url(#clip0_805_37760)">
<rect width="180" height="180" rx="24" fill="white"/>
<g clip-path="url(#clip1_805_37760)">
<path d="M103.124 95.2734C103.424 98.6474 104.8 106.271 109.924 105.128L110.474 105.963C110.224 111.198 107.577 114.889 103.43 118.714C99.2171 122.539 93.8437 124.838 88.1737 125.242C83.1737 125.609 77.8571 124.41 74.1171 121.049C70.3771 117.689 68.4104 113.032 70.8871 109.04H71.2471C72.3737 109.073 73.4104 108.482 74.3637 107.881C75.5771 107.113 78.0804 103.962 78.8304 103.057C79.8304 101.758 80.2371 96.8302 80.7504 95.2734H103.124V95.2734Z" fill="#FFD39F"/>
<path d="M110.754 103.328C116.65 104.912 121.224 109.465 124.907 114.125C128.924 119.219 132.077 124.942 134.24 131.062C135.45 134.476 137.364 138.324 138.154 141.859L139.207 145.069C144.874 169.562 145.92 194.817 146.3 220.005L146.634 220.814C148.667 228.347 156.334 247.388 158 255.405C158.054 256.09 157.94 256.778 157.667 257.41C154.334 261.418 148.667 260.416 144.284 261.776L128.794 264.869C106.624 268.855 98.7071 271.831 76.5004 268.08L75.5004 267.829C74.0404 255.522 72.9637 242.735 72.3404 229.85L72.1871 230.518C70.0837 242.838 68.1137 254.236 67.7004 266.727L67.6371 267.258C62.8604 266.343 48.4204 263.754 43.6371 262.838C42.3437 262.588 40.9237 262.26 40.1671 261.168C39.5404 260.273 39.5437 259.093 39.5904 258.001C39.7804 253.658 40.2804 249.346 40.7804 245.033L43.0671 225.293H42.8937C39.5071 224.882 36.7871 224.471 33.4004 224.061C34.8037 208.54 36.6037 193.063 38.8004 177.626C40.7137 164.18 42.9337 150.731 46.8804 137.74C50.3871 126.194 59.6171 110.915 70.1804 105.125L76.7571 106.178C81.0904 110.494 88.3804 111.409 93.6271 108.292L110.754 103.328Z" fill="black"/>
<path fill-rule="evenodd" clip-rule="evenodd" d="M75.6928 158.258L75.9528 108.781C75.9528 106.846 76.3328 100.065 76.9228 99.1263C72.5895 101.973 69.9461 106.689 67.4528 111.226C66.0228 113.828 64.5461 116.618 64.7428 119.577C64.888 121.793 65.9392 123.776 66.9936 125.766C67.9486 127.567 68.9062 129.374 69.1961 131.363C69.5987 134.124 68.6756 136.782 67.745 139.462C67.0497 141.464 66.3501 143.479 66.1961 145.557C66.0128 148.163 67.0328 153.909 67.7161 156.441L72.6961 174.868L72.5261 191.667C78.3128 179.575 85.0728 167.973 92.7428 156.982C95.1295 153.555 97.7428 149.746 97.2295 145.597C97.1167 144.694 96.8599 143.788 96.6044 142.887C96.1044 141.124 95.6094 139.378 96.2095 137.7C96.5961 136.618 97.3995 135.746 98.1795 134.904L109.449 122.791C110.219 121.963 111.013 121.094 111.349 120.012C111.729 118.776 111.459 117.443 111.186 116.177L107.753 100.322C107.449 98.9225 106.866 97.2389 105.453 97.0117C102.063 99.2499 99.0528 102.587 96.4161 106.081C94.72 108.332 93.1577 110.657 91.7142 113.046L93.6262 108.293C88.3796 111.41 81.0896 110.494 76.7562 106.178V150.227L78.9952 144.662C77.7732 149.278 76.7152 153.958 75.7495 158.652L75.6928 158.258ZM32.9629 232.035C33.1629 229.543 33.3829 226.991 34.4496 224.733L42.6129 225.625L41.7096 233.372C38.7462 233.351 35.7996 232.9 32.9629 232.035ZM118.576 239.618C118.393 237.016 118.566 234.404 119.086 231.848L143.666 232.209L143.913 238.366C143.933 239.101 143.883 239.989 143.246 240.353C142.933 240.497 142.59 240.557 142.246 240.53L119.58 240.594C119.336 240.624 119.09 240.567 118.88 240.44C118.776 240.33 118.696 240.2 118.643 240.059C118.593 239.919 118.57 239.769 118.576 239.618Z" fill="white"/>
<path fill-rule="evenodd" clip-rule="evenodd" d="M76.179 270.055C83.5024 271.295 89.299 271.813 94.549 271.813C103.026 271.813 110.082 270.46 119.849 268.582L120.637 268.432C123.169 267.948 125.796 267.445 128.714 266.918C130.508 268.298 132.619 269.026 134.946 269.026C135.192 269.026 135.439 269.02 135.679 269C139.209 268.765 142.279 266.843 144.338 263.781C144.516 263.776 144.694 263.746 144.872 263.688C146.116 263.301 147.539 263.124 149.046 262.937C152.512 262.506 156.439 262.015 159.202 258.691C159.326 258.544 159.426 258.38 159.502 258.203C159.899 257.278 160.069 256.255 159.992 255.25C159.986 255.166 159.972 255.079 159.956 254.996C158.973 250.26 156.084 242.154 153.283 234.297L153.252 234.211L153.19 234.036C151.233 228.545 149.39 223.374 148.556 220.29C148.502 220.092 148.42 219.909 148.316 219.744C148.065 195.344 147.469 172.037 141.786 147.482C141.536 146.403 140.462 145.732 139.386 145.982C138.309 146.233 137.639 147.308 137.889 148.387C143.899 174.361 144.129 199.104 144.369 225.301L144.37 225.371L144.37 225.374C144.383 226.914 144.396 228.459 144.412 230.012L119.176 229.597C115.426 200.234 114.132 170.362 115.329 140.791C115.376 139.685 114.516 138.75 113.412 138.706C112.306 138.666 111.376 139.522 111.332 140.627C110.102 171.003 111.482 201.687 115.432 231.832C115.535 232.611 116.075 233.237 116.785 233.474C116.507 235.524 116.438 237.598 116.576 239.666C116.572 240.037 116.639 240.401 116.769 240.758C116.916 241.156 117.139 241.513 117.429 241.821C117.444 241.836 117.459 241.851 117.474 241.865C117.488 241.879 117.502 241.893 117.517 241.906C116.305 242.822 115.301 243.996 114.859 245.408C114.476 246.628 114.359 248.525 115.959 250.63C117.442 252.584 119.489 253.756 121.296 254.789L121.512 254.913L121.551 254.936C121.819 255.089 122.086 255.243 122.349 255.4C122.842 255.695 123.382 257.664 123.617 258.526L123.622 258.544C123.786 259.145 123.942 259.709 124.126 260.221C124.552 261.392 125.058 262.457 125.637 263.409C123.29 263.843 121.099 264.262 119.099 264.647L119.093 264.648C103.874 267.567 95.43 269.186 77.3357 266.184C75.9973 254.632 75.0257 242.845 74.4305 231.133L74.4857 230.813C74.5525 230.423 74.5019 230.039 74.3595 229.699C73.7619 217.307 73.5868 205.013 73.8457 193.188C74.0457 193.015 74.2157 192.797 74.339 192.54C80.059 180.581 86.8057 169.006 94.3924 158.135C96.8124 154.661 99.8257 150.335 99.2257 145.364C99.0957 144.295 98.8124 143.29 98.5357 142.318C98.099 140.778 97.7224 139.448 98.1024 138.382C98.3493 137.686 98.9996 136.983 99.629 136.303L99.6524 136.278L110.922 124.165L110.928 124.159C111.76 123.261 112.797 122.144 113.269 120.61C113.814 118.844 113.432 117.074 113.152 115.775L113.149 115.76L110.919 105.466C116.406 107.218 120.612 111.924 123.336 115.369C127.226 120.3 130.259 125.805 132.352 131.735C132.789 132.961 133.312 134.247 133.819 135.489L133.833 135.525C134.762 137.805 135.721 140.161 136.199 142.298C136.409 143.23 137.232 143.864 138.149 143.864C138.296 143.864 138.442 143.848 138.589 143.814C139.666 143.57 140.342 142.498 140.102 141.419C139.549 138.944 138.519 136.415 137.522 133.97C137.009 132.713 136.526 131.528 136.122 130.392C133.882 124.048 130.636 118.158 126.472 112.88C123.282 108.845 118.236 103.263 111.269 101.392C110.85 101.279 110.427 101.309 110.05 101.45L109.716 99.9088C109.092 96.9992 107.766 95.3623 105.776 95.0416C105.282 94.9614 104.776 95.0683 104.359 95.3456C101.222 97.4134 98.1057 100.534 94.8257 104.88C94.4737 105.347 94.1274 105.817 93.7867 106.29C93.3985 106.265 92.9989 106.353 92.6391 106.567C88.3819 109.098 82.3636 108.465 78.6483 105.178C79.0021 103.903 79.4016 102.738 79.6157 102.367C80.119 101.569 79.9957 100.53 79.3257 99.8687C78.6557 99.2072 77.6157 99.1037 76.829 99.6215C74.906 100.885 73.133 102.091 71.5276 103.407C71.304 103.442 71.0824 103.515 70.8723 103.63C59.2456 110.004 48.389 125.995 44.999 137.156C40.9856 150.368 38.7123 164.279 36.8523 177.344C34.6623 192.737 32.839 208.391 31.439 223.882C31.3822 224.494 31.6081 225.069 32.0106 225.476C31.4652 227.152 31.2365 228.873 31.0853 230.503C27.6901 232.006 25.9551 235.03 26.7424 238.186C26.8324 238.54 27.0124 238.861 27.2691 239.118C30.5091 242.368 30.1524 247.222 29.8057 251.916L29.7988 252.007L29.7988 252.008L29.7988 252.008L29.7988 252.008L29.7988 252.008L29.7988 252.008C29.7578 252.551 29.7173 253.088 29.6857 253.613C29.6657 253.94 29.7257 254.268 29.8624 254.568C30.6924 256.399 32.0157 257.956 33.6857 259.071C34.9394 259.913 36.3495 260.475 37.8254 260.73C37.9697 261.283 38.2006 261.829 38.5623 262.345C39.8038 264.116 41.8829 264.542 43.2861 264.829L43.2923 264.831C45.436 265.24 49.559 265.993 53.8031 266.768L53.8156 266.77L55.5057 267.079C56.4067 267.244 57.3139 267.41 58.208 267.573L58.2086 267.573L58.2124 267.574C61.918 268.251 65.3997 268.887 67.2923 269.25C67.4157 269.274 67.539 269.287 67.6657 269.287C68.0857 269.287 68.5023 269.153 68.849 268.896C69.299 268.569 69.589 268.068 69.6557 267.516L69.719 266.985C69.7257 266.929 69.729 266.872 69.7323 266.815C69.9427 260.456 70.6364 254.365 71.5497 248.263C72.0902 254.906 72.7495 261.525 73.5257 268.064C73.6224 268.889 74.219 269.571 75.0257 269.771L76.0257 270.022C76.0686 270.033 76.1139 270.042 76.1575 270.051L76.179 270.055ZM63.6928 114.351C56.8409 121.387 51.0534 130.981 48.8223 138.322C45.1056 150.552 42.9323 162.993 40.809 177.908C38.719 192.594 36.9656 207.523 35.599 222.311C36.4228 222.418 37.2162 222.524 37.9948 222.629L37.9983 222.629L38.0007 222.629L38.4456 222.689C39.3839 222.815 40.3432 222.943 41.3433 223.072L42.769 210.753L42.7721 210.726C45.5311 186.903 48.3844 162.265 53.979 138.476C54.2323 137.4 55.309 136.732 56.3857 136.986C57.459 137.24 58.1257 138.319 57.8723 139.398C52.3296 162.967 49.4896 187.491 46.7432 211.207L46.7423 211.214L42.799 245.288C42.3123 249.491 41.809 253.84 41.619 258.113C41.5957 258.644 41.5523 259.639 41.8357 260.04C42.1637 260.505 43.2955 260.739 44.0554 260.896L44.0557 260.896L44.069 260.899C46.4226 261.35 51.285 262.237 56.0224 263.1L56.0264 263.101L56.2223 263.137C59.6857 263.768 63.239 264.416 65.8057 264.894C66.2923 254.518 67.9723 244.891 69.7457 234.729C69.8388 234.191 69.9327 233.653 70.0269 233.113C70.1545 232.381 70.2827 231.646 70.4098 230.908C69.4436 211.61 69.493 192.522 70.6024 175.012C70.6066 174.959 70.6121 174.906 70.6199 174.853L65.7857 156.966C65.1023 154.437 63.989 148.418 64.2023 145.418C64.3757 143.069 65.129 140.901 65.859 138.803L65.8611 138.797C66.7303 136.294 67.5521 133.928 67.219 131.654C66.979 130.008 66.129 128.404 65.229 126.707L65.2211 126.692C64.0902 124.555 62.9219 122.348 62.749 119.708C62.6211 117.798 63.0502 116.002 63.6928 114.351ZM74.6956 174.824L74.8557 173.99L74.8559 173.989C78.9292 151.731 83.5459 126.503 98.0157 107.292C100.602 103.861 103.039 101.295 105.422 99.4912C105.539 99.7618 105.676 100.159 105.802 100.751L109.236 116.605L109.24 116.624C109.446 117.582 109.677 118.661 109.442 119.425C109.241 120.079 108.617 120.752 108.01 121.406L107.989 121.429L96.7157 133.545L96.6977 133.565C95.874 134.457 94.8519 135.564 94.329 137.03C93.5157 139.304 94.1357 141.489 94.6824 143.413C94.929 144.275 95.159 145.087 95.249 145.845C95.6657 149.296 93.2457 152.774 91.109 155.84C84.859 164.8 79.1657 174.23 74.1357 183.958C74.2567 181.124 74.4033 178.321 74.5756 175.557C74.6599 175.326 74.7021 175.077 74.6956 174.824ZM72.3082 165.772L69.6457 155.921C68.9523 153.348 68.0323 147.923 68.189 145.708C68.3222 143.893 68.9578 142.064 69.6304 140.128L69.6323 140.123L69.634 140.118C70.6235 137.267 71.6454 134.322 71.1723 131.077C70.8328 128.748 69.7786 126.759 68.7599 124.838L68.7557 124.83L68.7391 124.798C67.7686 122.963 66.8517 121.228 66.7357 119.448C66.5857 117.163 67.7123 114.908 69.2023 112.195C70.5157 109.807 72.1957 108.013 74.2523 106.353C74.069 107.275 73.9523 108.127 73.9523 108.771L73.6923 158.249C73.6917 158.36 73.7002 158.47 73.7171 158.577C73.2235 160.991 72.7574 163.392 72.3082 165.772ZM77.7804 141.502C80.6837 131.172 84.5362 121.019 90.1543 111.779C89.0277 112.022 87.8751 112.142 86.7224 112.142C83.6434 112.142 80.5552 111.29 77.9478 109.645L77.7804 141.502ZM35.1023 230.546C35.2451 229.113 35.4579 227.693 35.9233 226.403C36.5586 226.486 37.1794 226.569 37.792 226.651L37.8022 226.653L37.8065 226.653L37.8105 226.654L37.8142 226.654L37.9123 226.668L38.4833 226.744C39.2619 226.848 40.057 226.953 40.8818 227.06L40.3879 231.328C38.6057 231.234 36.8359 230.971 35.1023 230.546ZM32.8736 234.1C35.176 234.763 37.5389 235.172 39.9263 235.317L38.8257 244.827L38.8118 244.947C38.3732 248.746 37.9213 252.659 37.6946 256.584C37.0645 256.392 36.4631 256.108 35.9091 255.737C34.9924 255.123 34.2391 254.298 33.7157 253.329C33.7306 253.093 33.7481 252.858 33.7657 252.621C33.7758 252.484 33.786 252.348 33.7957 252.21L33.7961 252.205C34.1561 247.315 34.6009 241.271 30.5591 236.77C30.4989 235.244 32.2074 234.379 32.8736 234.1ZM123.69 242.584C123.491 243.158 123.035 243.636 122.412 243.835C120.559 244.433 118.986 245.599 118.672 246.604C118.612 246.795 118.456 247.302 119.139 248.201C120.12 249.495 121.63 250.363 123.23 251.282L123.276 251.308C123.649 251.522 124.022 251.735 124.389 251.953C126.276 253.078 126.942 255.524 127.476 257.485C127.616 258.002 127.752 258.493 127.879 258.848C128.956 261.807 131.149 265.285 135.422 265.001C138.236 264.814 141.636 262.693 142.752 257.294C143.608 253.157 142.837 248.702 142.092 244.391L142.089 244.376C141.996 243.848 141.907 243.324 141.817 242.799L141.817 242.798L141.816 242.789C141.801 242.703 141.793 242.618 141.789 242.533L123.69 242.584ZM145.276 241.119C145.521 241.392 145.694 241.736 145.759 242.125C145.833 242.567 145.909 243.01 145.985 243.455L145.985 243.456L145.986 243.46L146.026 243.691L146.029 243.708C146.838 248.387 147.674 253.225 146.662 258.106C146.581 258.497 146.489 258.881 146.385 259.257C147.111 259.141 147.839 259.05 148.556 258.961L148.559 258.961H148.56C151.561 258.587 154.166 258.262 155.922 256.366C155.989 256.142 156.019 255.905 156.012 255.671C155.049 251.154 152.096 242.873 149.486 235.56L149.446 235.448L149.446 235.448C149.088 234.445 148.734 233.452 148.389 232.479C148.308 232.851 148.12 233.196 147.846 233.469C147.472 233.843 146.962 234.054 146.436 234.054H146.402L145.739 234.043L145.909 238.283C145.924 238.809 145.958 240.085 145.276 241.119ZM141.734 233.977L120.804 233.632C120.558 235.271 120.466 236.93 120.526 238.587L141.919 238.527C141.919 238.493 141.919 238.457 141.916 238.42L141.734 233.977Z" fill="black"/>
</g>
<path d="M107.087 65.4556C109.397 62.7297 108.68 58.0094 105.667 56.1019C104.587 55.4138 103.22 54.9862 102.63 53.8504C101.964 52.5977 102.567 51.0977 102.917 49.7281C102.917 49.6847 102.94 49.6379 102.954 49.5945C103.954 45.4655 99.2437 42.4022 95.8137 44.9009C91.5303 48.021 86.6637 50.2459 81.5037 51.4452C78.837 52.0598 75.5604 52.1801 73.9137 49.9953C72.9404 48.6992 72.707 46.7416 70.247 46.9253C69.5304 46.9855 68.8404 47.236 68.247 47.6469C63.8437 50.6234 58.807 52.5175 53.537 53.1823C52.0637 53.366 50.537 53.4495 49.1137 53.0253C45.027 51.8059 43.1703 46.5913 44.4037 42.5024C45.637 38.4135 49.1203 35.3902 52.8003 33.2255C55.0803 31.8893 57.6203 30.66 58.9937 28.3917C59.8003 27.0555 60.117 25.4653 60.927 24.1324C61.737 22.7995 63.0037 21.794 64.2937 20.8854C71.2437 16.0649 79.5537 13.6129 88.0003 13.8835C93.0003 14.0572 98.877 16.0716 99.957 20.9555L107.624 24.1926C113.524 25.1012 119.524 27.0922 123.7 31.3682C127.877 35.6441 129.7 42.6293 126.7 47.8039C126.307 48.472 125.82 49.1802 125.84 49.9686C125.867 50.9708 126.704 51.7592 127.397 52.5008C128.61 53.817 129.534 55.3737 130.104 57.0707C130.674 58.7677 130.88 60.565 130.71 62.3489C130.554 63.8989 130.044 65.5024 128.884 66.5279C127.724 67.5535 125.747 67.764 124.65 66.6616L108.017 69.2171L107.087 65.4556Z" fill="black"/>
<path d="M52.9371 53.3582C50.7871 58.9002 49.4938 63.9044 49.1671 66.9344C48.3438 74.5643 49.8804 83.0427 55.7038 88.4779C58.8071 91.3708 62.6504 92.7939 66.7604 93.5188C71.0471 94.2771 75.6471 94.9686 79.8071 93.2649C79.5871 96.7425 79.5538 99.2246 79.7138 102.705L103.214 100.093C102.834 95.5198 103.68 91.598 105.667 87.4623C106.117 86.527 107.084 86.537 108.04 86.233C108.89 85.9657 109.724 85.6584 110.547 85.311C112.217 84.6161 113.794 83.7175 115.247 82.6385C118.12 80.4638 120.36 77.4105 121.2 73.8694C121.964 70.6591 121.427 66.8375 117.867 65.0302C115.357 63.7608 113.107 64.2118 109.284 67.5791L107.117 65.4678C109.427 62.7419 108.71 58.0217 105.697 56.1142C104.617 55.426 103.25 54.9984 102.66 53.8626C101.994 52.6099 102.597 51.11 102.947 49.7403C102.947 49.6969 102.97 49.6501 102.984 49.6067C103.984 45.4777 99.2738 42.4144 95.8438 44.9132C91.5604 48.0333 86.6938 50.2581 81.5338 51.4574C78.8671 52.0721 75.5904 52.1923 73.9438 50.0076C72.9704 48.7114 72.7371 46.7538 70.2771 46.9376C69.5604 46.9977 68.8704 47.2482 68.2771 47.6591C63.8638 50.6356 58.8138 52.5264 53.5371 53.1845" fill="#FFD39F"/>
<path d="M126.573 69.41C125.323 69.41 124.11 68.9657 123.223 68.0771C122.443 67.2921 122.447 66.0226 123.227 65.2409C124.01 64.4592 125.277 64.4626 126.057 65.2443C126.307 65.4948 127.09 65.4314 127.55 65.0238C128.167 64.4793 128.577 63.4571 128.71 62.1442C128.853 60.6409 128.683 59.1477 128.197 57.7079C127.713 56.2681 126.947 54.9753 125.917 53.8595L125.747 53.6791C124.957 52.844 123.873 51.7015 123.83 50.0212C123.797 48.7351 124.4 47.7295 124.84 46.9946L124.967 46.7842C127.62 42.2042 125.557 36.141 122.26 32.7704C118.983 29.4164 113.953 27.1982 107.31 26.1727C106.217 26.0056 105.47 24.9801 105.637 23.8877C105.803 22.7953 106.827 22.0437 107.917 22.2107C115.437 23.3699 121.223 25.9789 125.12 29.9643C127.483 32.3828 129.16 35.5364 129.84 38.8436C130.577 42.4213 130.073 45.959 128.42 48.8119L128.27 49.0624C128.117 49.3163 127.863 49.7372 127.833 49.911C127.903 50.1348 128.37 50.6258 128.65 50.9232L128.847 51.1303C130.27 52.6736 131.323 54.4508 131.99 56.4285C132.657 58.4061 132.89 60.4606 132.693 62.5384C132.453 64.9035 131.593 66.7977 130.2 68.0303C129.157 68.949 127.847 69.41 126.573 69.41Z" fill="black"/>
<path d="M107.087 67.459C106.63 67.459 106.17 67.302 105.793 66.9813C104.95 66.2631 104.85 65.0003 105.563 64.1552C106.28 63.31 106.59 62.0439 106.397 60.7678C106.203 59.495 105.53 58.3826 104.6 57.7947C104.37 57.6477 104.1 57.504 103.813 57.3504C102.817 56.8192 101.573 56.1544 100.857 54.7748C99.9233 53.0209 100.44 51.1736 100.82 49.8207C100.867 49.6536 100.913 49.4866 100.957 49.3229C100.977 49.216 101.003 49.1191 101.03 49.039C101.357 47.5156 100.313 46.6772 99.9799 46.4533C99.2499 45.9623 98.0833 45.7251 96.9933 46.5168C92.4666 49.814 87.4099 52.1257 81.9599 53.3918C77.5099 54.4173 74.1766 53.659 72.3233 51.197C71.9933 50.7594 71.7499 50.3117 71.5366 49.9175C70.9699 48.8753 70.9499 48.8753 70.3999 48.9187C70.0499 48.9488 69.6966 49.0757 69.3932 49.2862C64.7299 52.4363 59.3433 54.4641 53.7933 55.1623C52.2266 55.3594 50.3799 55.483 48.5499 54.9384C46.3866 54.2937 44.5499 52.737 43.3766 50.5589C41.9766 47.9533 41.6466 44.7229 42.4933 41.9135C43.6999 37.9148 46.8266 34.4071 51.7933 31.4875C52.0999 31.3071 52.4066 31.1334 52.7166 30.9563C54.5933 29.884 56.3633 28.8718 57.2899 27.3418C57.5999 26.8307 57.8399 26.2026 58.0966 25.5379C58.4066 24.7328 58.7266 23.901 59.2266 23.0792C60.2333 21.4189 61.7099 20.2497 63.1499 19.2342C70.4133 14.1965 79.2566 11.5875 88.0699 11.8681C93.6199 12.0619 100.573 14.4404 101.917 20.5103C102.157 21.5926 101.477 22.6616 100.397 22.9021C99.3199 23.1393 98.2499 22.4612 98.0099 21.3788C97.2166 17.791 92.3799 16.0305 87.9366 15.8769C79.9799 15.6163 71.9866 17.9814 65.4366 22.5246C64.3599 23.283 63.2666 24.1348 62.6399 25.1671C62.3266 25.6815 62.0833 26.3129 61.8266 26.981C61.5199 27.7794 61.2033 28.6045 60.7099 29.4196C59.2466 31.8382 56.8299 33.2212 54.6966 34.4372C54.3999 34.6076 54.1066 34.7746 53.8133 34.945C49.7466 37.3368 47.2266 40.0728 46.3199 43.0727C45.7833 44.8565 46.0033 46.9945 46.8966 48.6548C47.3666 49.5267 48.2299 50.6591 49.6866 51.0934C50.8099 51.4275 52.1399 51.3273 53.2933 51.1836C58.2233 50.5623 63.0099 48.7617 67.1333 45.9756C67.9899 45.381 69.0166 45.0102 70.0833 44.92C73.2466 44.6795 74.4199 46.8408 75.0499 48C75.2132 48.3007 75.3666 48.5846 75.5166 48.7817C76.6632 50.305 79.7766 49.7806 81.0599 49.4833C85.9832 48.3408 90.5533 46.2496 94.6433 43.2697C96.9132 41.6162 99.8833 41.556 102.21 43.1161C104.497 44.6494 105.553 47.3753 104.903 50.0545C104.893 50.0946 104.883 50.1313 104.87 50.1714C104.87 50.1748 104.87 50.1781 104.867 50.1781C104.863 50.1881 104.86 50.2015 104.86 50.2115C104.803 50.4353 104.74 50.6625 104.677 50.893C104.47 51.6279 104.217 52.5432 104.403 52.894C104.557 53.1913 105.14 53.502 105.703 53.8026C106.043 53.983 106.393 54.1701 106.75 54.3973C108.67 55.6132 109.987 57.7111 110.36 60.1498C110.733 62.5951 110.1 64.997 108.623 66.7374C108.217 67.2185 107.653 67.459 107.087 67.459ZM104.917 49.7305C104.917 49.7338 104.917 49.7338 104.917 49.7305C104.917 49.7338 104.917 49.7338 104.917 49.7305ZM104.917 49.7271V49.7305V49.7271Z" fill="black"/>
<path d="M62.8099 62.5696C64.0986 62.5696 65.1432 61.2983 65.1432 59.7301C65.1432 58.1619 64.0986 56.8906 62.8099 56.8906C61.5212 56.8906 60.4766 58.1619 60.4766 59.7301C60.4766 61.2983 61.5212 62.5696 62.8099 62.5696Z" fill="black"/>
<path d="M74.1439 63.3548C75.4325 63.3548 76.4772 62.0835 76.4772 60.5153C76.4772 58.9471 75.4325 57.6758 74.1439 57.6758C72.8552 57.6758 71.8105 58.9471 71.8105 60.5153C71.8105 62.0835 72.8552 63.3548 74.1439 63.3548Z" fill="black"/>
<path d="M103.196 100.081C102.17 100.081 101.293 99.2927 101.206 98.2438C100.783 93.2128 101.76 90.9112 103.833 86.5818C104.593 85.0017 106.03 84.6542 106.89 84.4471C107.076 84.4003 107.253 84.3603 107.406 84.3101C108.2 84.0596 108.983 83.7723 109.74 83.4516C111.27 82.8169 112.706 81.9985 114.026 81.0163C116.686 79.0019 118.54 76.2927 119.226 73.3931C119.58 71.9332 120.06 68.3855 116.936 66.8054C115.573 66.1139 114.236 65.8433 110.573 69.0704C109.743 69.8019 108.48 69.7184 107.75 68.8866C107.02 68.0548 107.103 66.7887 107.933 66.0571C113.193 61.4237 116.233 61.9582 118.736 63.2243C122.616 65.1886 124.293 69.4412 123.113 74.3251C122.213 78.12 119.836 81.6377 116.423 84.22C114.83 85.4059 113.103 86.388 111.283 87.143C110.42 87.5071 109.516 87.8412 108.606 88.1251C108.33 88.212 108.063 88.2788 107.83 88.3356C107.683 88.3723 107.493 88.4157 107.37 88.4558C105.453 92.4645 104.86 93.9711 105.193 97.8997C105.286 99.0021 104.47 99.9709 103.37 100.064C103.31 100.078 103.253 100.081 103.196 100.081Z" fill="black"/>
<path d="M79.7126 103.036C78.6493 103.036 77.766 102.197 77.716 101.122C77.6093 98.7698 77.586 97.5873 77.6526 95.9738C73.646 96.7488 69.566 96.0372 66.4193 95.486C61.336 94.5874 57.386 92.7735 54.3426 89.9373C48.7493 84.716 46.1393 76.2509 47.1793 66.7068C47.5693 63.1691 49.0226 57.9043 51.0726 52.6229C51.4726 51.5906 52.6326 51.0795 53.6626 51.4804C54.6926 51.8813 55.2026 53.0438 54.8026 54.076C52.5293 59.9354 51.4293 64.669 51.156 67.1444C50.2526 75.4124 52.406 82.6515 57.0693 87.0009C59.5626 89.326 62.7526 90.7658 67.1093 91.5341C71.5626 92.3125 75.5393 92.8369 79.0526 91.3971C79.6893 91.1366 80.416 91.2234 80.976 91.6243C81.536 92.0285 81.8493 92.69 81.806 93.3781C81.5926 96.7388 81.556 97.4804 81.716 100.928C81.766 102.034 80.9126 102.972 79.8093 103.022C79.7726 103.036 79.7426 103.036 79.7126 103.036Z" fill="black"/>
</g>
<defs>
<clipPath id="clip0_805_37760">
<rect width="180" height="180" rx="24" fill="white"/>
</clipPath>
<clipPath id="clip1_805_37760">
<rect width="200" height="200.436" fill="white" transform="translate(-10 95.2734)"/>
</clipPath>
</defs>
</svg>
