<svg width="180" height="180" viewBox="0 0 180 180" fill="none" xmlns="http://www.w3.org/2000/svg">
<g clip-path="url(#clip0_805_38835)">
<rect width="180" height="180" rx="24" fill="white"/>
<g clip-path="url(#clip1_805_38835)">
<path d="M103.124 95.2734C103.424 98.6474 104.8 106.271 109.924 105.128L110.474 105.963C110.224 111.198 107.577 114.889 103.43 118.714C99.2171 122.539 93.8437 124.838 88.1737 125.242C83.1737 125.609 77.8571 124.41 74.1171 121.049C70.3771 117.689 68.4104 113.032 70.8871 109.04H71.2471C72.3737 109.073 73.4104 108.482 74.3637 107.881C75.5771 107.113 78.0804 103.962 78.8304 103.057C79.8304 101.758 80.2371 96.8302 80.7504 95.2734H103.124V95.2734Z" fill="#FFD39F"/>
<path d="M110.519 103.289C116.416 104.873 120.989 109.426 124.673 114.089C128.689 119.18 131.839 124.899 133.999 131.016C135.209 134.433 137.123 138.278 137.913 141.813L138.966 145.047C144.673 169.677 145.693 195.082 146.066 220.41L146.399 220.791C148.453 228.321 156.119 247.362 157.786 255.38C157.839 256.065 157.726 256.753 157.453 257.384C154.119 261.393 148.453 260.391 144.069 261.754L128.579 264.844C106.409 268.829 84.1595 269.804 61.9495 266.05L57.7595 265.558L43.4261 262.809C42.1328 262.562 40.7128 262.231 39.9561 261.139C39.3294 260.244 39.3328 259.064 39.3795 257.972C39.5695 253.629 40.0695 249.32 40.5695 245.007L42.8561 225.251H42.6828C39.2961 224.837 36.5761 224.426 33.1895 224.015C34.5928 208.498 36.3928 193.021 38.5895 177.581C40.4995 164.135 42.7228 150.685 46.6695 137.694C50.1761 126.149 55.7395 114.209 66.3028 108.42L80.9695 109.422L110.519 103.289Z" fill="black"/>
<path fill-rule="evenodd" clip-rule="evenodd" d="M84.1938 123.333L81.0005 109.443C87.4311 106.802 92.299 104.344 97.1502 101.895L97.3072 101.816C101 99.9486 104.814 98.0478 108.94 97.7305C108.63 101.161 107.692 104.47 106.755 107.778L106.755 107.778L106.727 107.876C106.097 110.091 105.43 112.359 103.94 114.099C102.68 115.573 100.934 116.535 99.1938 117.387C94.3702 119.75 89.291 121.538 84.2246 123.322L84.1938 123.333ZM76.1838 105.207L77.5671 100.256C77.9338 100.563 78.4071 99.2605 77.7871 98.2416L67.5371 106.526C67.2904 109.052 67.5804 111.601 68.3938 114.006C69.2071 116.411 70.5204 118.613 72.2471 120.47C75.3671 117.246 77.8571 113.461 79.5804 109.316C78.0471 108.992 76.1971 108.35 75.9704 106.794C75.9338 106.256 76.0038 105.715 76.1838 105.207ZM118.854 231.815C118.327 234.371 118.154 236.983 118.334 239.586C118.327 239.736 118.347 239.886 118.4 240.026C118.454 240.167 118.534 240.297 118.637 240.407C118.847 240.534 119.094 240.591 119.337 240.564L142.004 240.501C142.347 240.528 142.69 240.464 143.004 240.32C143.644 239.956 143.694 239.068 143.67 238.316L143.43 232.159L118.854 231.815ZM32.7305 232.002C32.9305 229.514 33.1471 226.958 34.2171 224.703L42.5305 225.482L41.4771 233.339C38.5138 233.319 35.5671 232.868 32.7305 232.002Z" fill="white"/>
<path fill-rule="evenodd" clip-rule="evenodd" d="M83.2434 125.084C83.5367 125.244 83.8734 125.328 84.2067 125.328C84.4367 125.328 84.6667 125.291 84.8767 125.217C89.92 123.444 95.1334 121.606 100.063 119.191C101.987 118.252 103.967 117.143 105.45 115.409C107.26 113.298 108.027 110.599 108.643 108.428L108.673 108.327L108.674 108.324L108.674 108.323L108.675 108.322C108.98 107.246 109.288 106.158 109.577 105.057C109.708 105.127 109.85 105.184 110 105.224C115.823 106.791 120.267 111.742 123.103 115.333C126.99 120.26 130.02 125.762 132.113 131.688C132.55 132.918 133.073 134.207 133.583 135.453C134.517 137.741 135.48 140.107 135.96 142.251C136.17 143.183 136.993 143.818 137.91 143.818C138.057 143.818 138.203 143.801 138.35 143.768C139.427 143.524 140.103 142.452 139.863 141.373C139.31 138.901 138.283 136.375 137.287 133.933L137.241 133.821C136.744 132.603 136.275 131.451 135.883 130.345C133.647 124.005 130.4 118.119 126.24 112.844C123.053 108.809 118.007 103.223 111.037 101.352C110.839 101.299 110.64 101.277 110.445 101.284C110.656 100.176 110.824 99.0532 110.927 97.9148C110.98 97.3302 110.773 96.7489 110.36 96.328C109.947 95.9071 109.37 95.69 108.783 95.7367C104.199 96.0873 100.061 98.1797 96.4095 100.026L96.4034 100.029L96.2434 100.11L96.099 100.182L96.0989 100.182C91.4502 102.527 86.6356 104.955 80.44 107.507C80.299 107.44 80.1492 107.388 79.9933 107.355C78.41 107.021 78.0233 106.614 77.9599 106.524C77.9599 106.33 77.9866 106.139 78.0433 105.956L80.1033 101.563C80.4699 100.781 80.2933 99.849 79.6666 99.2544C79.04 98.6598 78.1033 98.5362 77.3433 98.9471L66.5866 104.76C66.0033 105.077 65.6099 105.665 65.5466 106.33C65.538 106.417 65.53 106.505 65.5226 106.593C65.4666 106.617 65.4112 106.644 65.3566 106.674C56.0866 111.755 49.5433 121.426 44.76 137.113C40.7366 150.359 38.4666 164.256 36.6133 177.301C34.4199 192.691 32.6 208.348 31.2 223.839C31.1428 224.455 31.3717 225.033 31.7786 225.44C31.2344 227.115 31.0048 228.838 30.8531 230.47C27.4577 231.973 25.7227 234.997 26.51 238.153C26.6 238.507 26.78 238.828 27.0367 239.085C30.2767 242.335 29.92 247.189 29.5733 251.883L29.5664 251.974L29.5664 251.975L29.5664 251.975L29.5664 251.975L29.5664 251.975L29.5664 251.975L29.5663 251.975L29.5663 251.976C29.5254 252.519 29.4849 253.055 29.4533 253.58C29.4333 253.907 29.4933 254.235 29.63 254.535C30.46 256.366 31.7833 257.923 33.4533 259.038C34.7087 259.88 36.1186 260.442 37.5937 260.697C37.7381 261.249 37.9689 261.793 38.33 262.309C39.5833 264.093 41.7467 264.53 43.06 264.794L54.3767 266.966C54.5033 266.989 54.63 267.002 54.7533 267.002C55.6933 267.002 56.53 266.334 56.7133 265.379C56.9233 264.293 56.21 263.241 55.1267 263.034L43.8267 260.866C43.12 260.725 41.9333 260.485 41.6 260.011C41.3167 259.61 41.36 258.614 41.3833 258.083C41.5731 253.82 42.0752 249.48 42.5612 245.28L42.5612 245.28L42.5633 245.262L46.5067 211.188L46.6033 210.353L46.6124 210.275C49.3429 186.848 52.166 162.627 57.6333 139.368C57.8867 138.289 57.22 137.21 56.1467 136.956C55.07 136.699 53.9933 137.371 53.74 138.446C48.221 161.922 45.3845 186.253 42.6414 209.784L42.63 209.882L41.1079 223.035C40.3421 222.936 39.6004 222.836 38.8728 222.738L38.2866 222.659C37.3366 222.529 36.37 222.399 35.3566 222.269C36.7266 207.48 38.4766 192.551 40.57 177.865C42.4 164.981 44.64 151.268 48.5833 138.283C52.7451 124.631 58.2006 115.944 65.6581 111.152C65.831 112.332 66.1118 113.5 66.5 114.648C67.41 117.34 68.85 119.759 70.7833 121.837C71.1566 122.238 71.6799 122.468 72.2266 122.475H72.2466C72.7866 122.475 73.3066 122.254 73.6833 121.867C75.0205 120.485 76.2429 119.015 77.3454 117.463L73.5433 177.494L73.5405 177.54C71.7139 206.383 69.8271 236.179 73.0123 265.522C69.3991 265.153 65.8227 264.669 62.2766 264.069C61.1866 263.882 60.1566 264.621 59.9733 265.713C59.7899 266.802 60.5233 267.838 61.6133 268.021C65.8984 268.746 70.2248 269.306 74.6039 269.702C74.8173 269.78 75.0465 269.822 75.2833 269.822C75.3633 269.822 75.4433 269.819 75.5233 269.809C75.5408 269.806 75.5581 269.804 75.5754 269.802C75.595 269.799 75.6145 269.796 75.6338 269.792C80.5681 270.208 85.5702 270.417 90.6566 270.417C102.728 270.417 115.272 269.24 128.479 266.891C130.272 268.274 132.38 269.003 134.703 269.003C134.953 269.003 135.21 268.997 135.467 268.977C139.001 268.744 142.073 266.819 144.132 263.751C144.307 263.745 144.483 263.715 144.66 263.665C145.903 263.278 147.33 263.097 148.837 262.91C152.3 262.479 156.223 261.988 158.987 258.664C159.11 258.517 159.21 258.354 159.287 258.177C159.683 257.251 159.853 256.229 159.777 255.224C159.77 255.137 159.757 255.053 159.74 254.97C158.747 250.194 155.825 242.005 152.998 234.086L152.998 234.085L152.997 234.081C151.027 228.569 149.17 223.361 148.323 220.261C148.269 220.06 148.186 219.875 148.079 219.708C147.804 195.071 147.132 171.515 141.443 146.941C141.193 145.862 140.12 145.191 139.043 145.441C137.967 145.692 137.297 146.768 137.547 147.847C143.64 174.174 143.887 199.509 144.147 226.334C144.153 226.944 144.159 227.556 144.165 228.168V228.168V228.169C144.171 228.769 144.177 229.37 144.183 229.972L118.947 229.558C115.197 200.194 113.903 170.326 115.1 140.751C115.147 139.646 114.287 138.71 113.183 138.667C112.077 138.627 111.147 139.482 111.103 140.588C109.873 170.964 111.253 201.65 115.203 231.792C115.306 232.568 115.841 233.192 116.547 233.431C116.265 235.483 116.192 237.562 116.33 239.633C116.33 240.007 116.393 240.374 116.523 240.725C116.673 241.126 116.897 241.487 117.19 241.794C117.218 241.824 117.247 241.852 117.276 241.88C116.068 242.795 115.067 243.966 114.627 245.375C114.247 246.595 114.13 248.492 115.73 250.597C117.21 252.548 119.253 253.72 121.057 254.753C121.413 254.956 121.767 255.16 122.12 255.371C122.613 255.662 123.153 257.631 123.388 258.493L123.393 258.511C123.557 259.112 123.713 259.68 123.897 260.188C124.32 261.352 124.822 262.411 125.395 263.358C108.292 266.233 92.3418 267.073 77.0783 265.888C73.8065 236.615 75.702 206.698 77.5367 177.748L81.2329 119.389L82.2434 123.784C82.3734 124.339 82.7434 124.81 83.2434 125.084ZM32.6412 234.067C31.975 234.346 30.2665 235.211 30.3267 236.737C34.3685 241.238 33.9236 247.282 33.5637 252.172L33.5633 252.177C33.5536 252.315 33.5434 252.451 33.5333 252.588C33.5156 252.825 33.4981 253.06 33.4833 253.296C34.0067 254.265 34.76 255.09 35.6767 255.704C36.2297 256.074 36.83 256.358 37.4588 256.55C37.6855 252.627 38.1375 248.713 38.5761 244.915L38.59 244.794L39.6905 235.284C37.3043 235.138 34.9425 234.73 32.6412 234.067ZM40.1521 231.295L40.6467 227.02C39.6463 226.891 38.6891 226.761 37.7533 226.635L37.2832 226.572L37.2814 226.571L37.2791 226.571L37.276 226.571L37.2721 226.57C36.754 226.501 36.2289 226.43 35.6934 226.359C35.2259 227.648 35.0099 229.072 34.8667 230.513C36.6002 230.938 38.3699 231.201 40.1521 231.295ZM120.28 238.564C120.22 236.901 120.315 235.237 120.565 233.592L141.496 233.937L141.67 238.383C141.672 238.412 141.673 238.439 141.673 238.464C141.673 238.478 141.673 238.491 141.673 238.504V238.504L120.28 238.564ZM145.667 238.236L145.502 234.003L146.173 234.014H146.207C146.733 234.014 147.243 233.804 147.613 233.433C147.89 233.158 148.078 232.81 148.159 232.434C148.476 233.326 148.801 234.236 149.128 235.155L149.139 235.184L149.139 235.184L149.139 235.185L149.139 235.186L149.227 235.431L149.239 235.465C151.859 242.809 154.821 251.112 155.79 255.641C155.797 255.875 155.767 256.112 155.7 256.336C153.947 258.23 151.337 258.557 148.337 258.932C147.623 259.02 146.899 259.111 146.175 259.227C146.278 258.855 146.37 258.474 146.45 258.086C147.459 253.192 146.619 248.343 145.806 243.655L145.803 243.638C145.713 243.124 145.627 242.613 145.54 242.102C145.473 241.704 145.295 241.354 145.042 241.077C145.723 240.038 145.684 238.757 145.667 238.236ZM123.459 242.555L141.57 242.504C141.573 242.59 141.582 242.678 141.597 242.766C141.669 243.199 141.744 243.631 141.819 244.066L141.82 244.075L141.823 244.089L141.823 244.091L141.823 244.092L141.863 244.323L141.866 244.338C142.615 248.659 143.389 253.124 142.533 257.271C141.417 262.666 138.017 264.788 135.2 264.975C130.913 265.252 128.733 261.781 127.653 258.811C127.527 258.457 127.39 257.966 127.25 257.448L127.247 257.439C126.711 255.48 126.044 253.04 124.163 251.923C123.882 251.756 123.598 251.592 123.312 251.428L123.303 251.423L123.04 251.272L123.038 251.27L123.037 251.27C121.425 250.345 119.899 249.47 118.91 248.168C118.227 247.27 118.383 246.765 118.443 246.575C118.757 245.569 120.33 244.403 122.183 243.802C122.805 243.603 123.26 243.128 123.459 242.555ZM85.64 120.698L83.33 110.642C89.0734 108.217 93.63 105.919 98.0367 103.691L98.2 103.607C100.913 102.234 103.7 100.828 106.59 100.133C106.176 102.462 105.522 104.771 104.841 107.179L104.841 107.179L104.827 107.228L104.8 107.329C104.24 109.306 103.657 111.351 102.42 112.797C101.36 114.033 99.7434 114.885 98.3134 115.587C94.2634 117.571 89.9267 119.178 85.64 120.698ZM69.4599 107.766C69.3966 109.67 69.6766 111.548 70.2899 113.365C70.7799 114.815 71.4633 116.164 72.33 117.401C74.11 115.299 75.6166 113.001 76.8333 110.532C75.1666 109.757 74.2133 108.601 73.9899 107.085L73.9878 107.069L73.9878 107.069L73.9878 107.069C73.9819 107.025 73.9763 106.982 73.9733 106.938C73.9333 106.37 73.9733 105.809 74.09 105.257L69.4599 107.766Z" fill="black"/>
</g>
<path d="M109.547 92.4073C110.737 94.1812 111.974 96.0051 113.744 97.2011C115.514 98.397 117.971 98.8313 119.774 97.6888C121.774 96.416 123.027 93.346 125.381 93.6801C126.311 93.8171 127.047 94.5052 127.747 95.1433C129.704 96.9572 131.967 98.7344 134.631 98.9014C137.294 99.0685 140.214 96.8303 139.751 94.1979C139.587 93.2692 139.041 92.414 139.051 91.472C139.067 89.8284 140.717 88.7126 141.431 87.2361C143.144 83.7518 139.504 79.1953 141.497 75.8614C142.111 74.8425 143.147 74.1677 144.037 73.3793C148.457 69.4541 148.874 61.8275 144.904 57.4413C143.434 55.8178 141.437 54.5484 140.654 52.5006C140.167 51.2278 140.221 49.8281 140.244 48.4618C140.371 40.6582 139.161 32.6708 135.451 25.8059C131.741 18.9409 126.997 17.0502 119.351 15.5703L113.374 11.8489C111.507 8.87573 107.967 7.44595 104.581 6.54399C93.9141 3.71116 80.5941 0.651179 70.4908 5.07747C60.3875 9.50376 51.9108 17.7216 47.5308 27.8637C45.2708 33.0984 43.9975 38.9311 40.3075 43.2738C37.1608 46.9786 32.5875 49.1834 29.1708 52.6275C25.7541 56.0717 23.7341 61.9812 26.8608 65.7026C27.4941 66.4576 28.3208 67.0956 28.6808 68.0176C29.9175 71.1812 25.1708 73.2156 23.6408 76.2489C22.2108 79.0884 23.9008 82.5325 26.0508 84.8743C28.2008 87.216 30.9175 89.2171 32.0908 92.1668C32.9608 94.3582 33.0208 97.1075 34.9108 98.5139C37.0275 100.091 40.0541 98.9616 42.6275 99.5462C45.2008 100.131 47.0475 102.366 49.0541 104.113C51.0608 105.86 54.0375 107.216 56.2908 105.803C57.4908 105.048 58.1808 103.662 59.3741 102.9C61.7775 101.363 64.8475 102.917 67.5641 103.782C70.2808 104.647 74.3708 103.745 74.2075 100.892" fill="black"/>
<path d="M103.214 100.093C102.834 95.5198 103.68 91.5979 105.667 87.4623C106.117 86.5269 107.084 86.5369 108.04 86.2329C108.89 85.9657 109.724 85.6583 110.547 85.3109C112.217 84.6161 113.797 83.7175 115.247 82.6384C118.12 80.4637 120.36 77.4104 121.2 73.8694C121.964 70.6591 121.427 66.8374 117.867 65.0302C115.357 63.7607 113.107 64.2117 109.284 67.579L108.15 64.8765C109.344 59.0204 109.83 53.0374 109.6 47.0644C109.494 44.2583 105.7 39.8488 103.11 38.7764L98.6238 34.1998C96.2904 29.523 79.4138 28.0164 74.4071 29.4695C65.7138 32.299 63.1904 33.7956 60.6738 37.1896C58.1571 40.5837 56.8038 44.6826 55.4938 48.7013L52.9371 53.3514C50.7871 58.8935 49.4938 63.8977 49.1671 66.9276C48.3438 74.5575 49.8804 83.036 55.7038 88.4711C58.8071 91.3641 62.6504 92.7872 66.7604 93.5121C71.0471 94.2704 75.6471 94.9619 79.8071 93.2582C79.5871 96.7357 79.5538 99.5519 79.7138 103.033" fill="#FFD39F"/>
<path fill-rule="evenodd" clip-rule="evenodd" d="M47.7394 105.629C49.486 107.149 51.846 108.405 54.186 108.405C55.266 108.405 56.3427 108.138 57.346 107.486C58.196 106.952 58.8027 106.264 59.336 105.656L59.3553 105.634C59.7348 105.204 60.092 104.8 60.4427 104.577C61.6294 103.818 63.5227 104.483 65.526 105.191C65.9927 105.358 66.476 105.525 66.9527 105.679C69.516 106.497 72.5794 106.076 74.3994 104.66C75.6494 103.688 76.286 102.305 76.1994 100.765C76.136 99.6592 75.1927 98.814 74.0894 98.8775C72.986 98.9409 72.1427 99.8863 72.206 100.992C72.216 101.152 72.2027 101.293 71.946 101.49C71.1727 102.094 69.4394 102.261 68.166 101.857C67.736 101.72 67.2994 101.567 66.856 101.41L66.8471 101.406C64.2953 100.508 61.1194 99.3907 58.296 101.196C57.4706 101.722 56.8774 102.395 56.3545 102.989L56.3394 103.006C55.9494 103.451 55.5827 103.868 55.226 104.092C53.966 104.884 51.876 103.908 50.3627 102.589C49.981 102.257 49.6052 101.904 49.2072 101.53L49.2071 101.53L49.2066 101.53L49.2064 101.529L49.1394 101.466L49.1285 101.456C47.4778 99.9087 45.6104 98.158 43.066 97.5813C41.8194 97.2974 40.556 97.3341 39.4427 97.3675L39.4281 97.3679C38.0376 97.4079 36.8335 97.4424 36.0994 96.8931C35.35 96.3324 35.0333 95.1347 34.667 93.7499L34.666 93.7463C34.466 92.9813 34.256 92.1929 33.946 91.4112C32.926 88.8523 31.056 87.0217 29.246 85.2512L29.0582 85.0661C28.5168 84.5331 28.0007 84.025 27.5194 83.5007C25.9394 81.7803 24.4427 79.0811 25.4227 77.1369C25.8427 76.3051 26.7394 75.4298 27.606 74.5846C29.376 72.8609 31.7994 70.4958 30.5394 67.2721C30.1394 66.2499 29.446 65.525 28.8894 64.9437C28.7027 64.7499 28.5294 64.5662 28.386 64.3958C26.0927 61.6699 27.7427 56.8895 30.5827 54.0266C32.0085 52.5877 33.6674 51.3723 35.4263 50.0837L35.4263 50.0836L35.4263 50.0836L35.4294 50.0814L35.4317 50.0797L35.4317 50.0797L35.4317 50.0797C37.651 48.4533 39.9434 46.7734 41.8227 44.5594C44.6756 41.2031 46.1621 37.1339 47.6004 33.1968L47.606 33.1813L47.6541 33.0502C48.1924 31.581 48.7476 30.0657 49.3594 28.6481C53.4694 19.1308 61.4627 11.2035 71.286 6.90084C80.6427 2.80193 93.1127 5.56126 104.063 8.47092C106.553 9.1357 110.049 10.3149 111.676 12.9072C112.263 13.8426 113.496 14.1232 114.433 13.5353C115.366 12.9473 115.646 11.708 115.059 10.7726C112.683 6.9877 108.229 5.43766 105.086 4.59917C93.4827 1.51914 80.2194 -1.38384 69.6827 3.23287C58.9427 7.93977 50.196 16.6253 45.6894 27.0613C45.0127 28.6281 44.4194 30.2483 43.8494 31.8117C42.4694 35.5899 41.166 39.1576 38.776 41.9704C37.2078 43.8179 35.2107 45.282 33.0999 46.8295L33.0998 46.8296L33.066 46.8544C31.2594 48.1772 29.3927 49.5469 27.7427 51.2105C25.7194 53.2483 24.2094 55.9475 23.6027 58.6099C22.8694 61.8236 23.4794 64.7967 25.3194 66.9881C25.5265 67.2385 25.7365 67.4582 25.9391 67.6701L25.9392 67.6702L25.996 67.7297C26.3594 68.1072 26.6994 68.4613 26.8094 68.7453C27.0594 69.3867 26.426 70.1483 24.8094 71.7251L24.7963 71.7378C23.7495 72.7603 22.5631 73.9191 21.846 75.343C20.5994 77.815 20.6627 81.974 24.5694 86.23C25.1794 86.8947 25.8227 87.5261 26.446 88.1341L26.4548 88.1427C28.0316 89.6862 29.5207 91.1439 30.2227 92.9078C30.4419 93.4637 30.6115 94.1024 30.7907 94.7778L30.7908 94.7779L30.7908 94.7781L30.7909 94.7782L30.7927 94.7852C31.2794 96.6326 31.8327 98.7271 33.7094 100.124C35.5588 101.5 37.6739 101.44 39.5443 101.387H39.5444L39.556 101.386L39.5793 101.386C40.534 101.359 41.4321 101.334 42.1794 101.503C43.6727 101.844 44.9994 103.087 46.4027 104.406L46.5475 104.541L46.5477 104.542C46.9349 104.903 47.3306 105.273 47.7394 105.629ZM134.503 100.919C134.639 100.929 134.779 100.932 134.919 100.932C136.919 100.932 138.949 100.027 140.299 98.5234C141.506 97.1738 142.009 95.5235 141.719 93.8766C141.623 93.3287 141.456 92.851 141.306 92.4301C141.179 92.0727 141.049 91.7052 141.049 91.5181C141.053 91.1675 141.506 90.5964 141.946 90.042L141.946 90.0416C142.376 89.5004 142.863 88.8857 143.226 88.1475C144.374 85.813 143.828 83.3821 143.345 81.2334L143.343 81.2224L143.341 81.213C142.945 79.4531 142.604 77.9368 143.213 76.9197C143.493 76.4554 144.036 76.0077 144.613 75.5367C144.866 75.3296 145.119 75.1225 145.363 74.9053C147.866 72.6905 149.416 69.3466 149.616 65.7321C149.819 62.1109 148.643 58.6066 146.389 56.1178C145.879 55.5566 145.339 55.0522 144.816 54.5678C143.833 53.6558 142.903 52.7906 142.526 51.8085C142.207 50.9693 142.226 49.8878 142.246 48.7459L142.246 48.7351L142.249 48.518C142.399 39.2879 140.706 31.3306 137.216 24.8732C133.226 17.4905 127.993 15.2223 119.736 13.6255C118.649 13.415 117.603 14.1265 117.393 15.2122C117.183 16.2979 117.893 17.3502 118.976 17.5607C126.343 18.9871 130.426 20.7309 133.696 26.7807C136.856 32.6268 138.389 39.9159 138.249 48.4478L138.246 48.6583L138.246 48.6818C138.222 50.0858 138.196 51.6769 138.793 53.2382C139.503 55.0923 140.883 56.3751 142.099 57.5042C142.583 57.9518 143.036 58.3727 143.429 58.807C144.966 60.5074 145.766 62.9494 145.626 65.5082C145.486 68.0605 144.426 70.3889 142.719 71.8988C142.564 72.0366 142.404 72.1688 142.243 72.301C142.19 72.345 142.136 72.3891 142.083 72.4333C141.306 73.068 140.426 73.7896 139.786 74.8519C138.349 77.2504 138.929 79.826 139.443 82.101C139.816 83.7512 140.166 85.308 139.643 86.3703C139.469 86.7244 139.153 87.1252 138.819 87.5462C138.039 88.5249 137.073 89.7476 137.056 91.4914C137.056 92.3899 137.326 93.1514 137.543 93.7627L137.543 93.763L137.553 93.7924C137.653 94.079 137.747 94.3516 137.786 94.5647C137.879 95.0892 137.586 95.5469 137.326 95.8409C136.706 96.5324 135.653 96.9767 134.763 96.9199C132.709 96.7896 130.756 95.2128 129.106 93.6862L129.066 93.6494L129.057 93.6414C128.265 92.9139 127.184 91.9216 125.666 91.7152C123.113 91.3544 121.466 93.1817 120.266 94.518C119.719 95.126 119.203 95.7005 118.709 96.0146C117.586 96.7294 115.929 96.2785 114.866 95.5602C113.392 94.5631 112.287 92.9135 111.218 91.3192L111.213 91.311C110.596 90.3923 109.353 90.1451 108.436 90.7631C107.519 91.3812 107.273 92.6272 107.889 93.5459L107.908 93.5736L107.908 93.5736C109.13 95.3942 110.514 97.455 112.629 98.8841C115.286 100.678 118.513 100.882 120.853 99.3986C121.808 98.788 122.564 97.9474 123.234 97.203L123.236 97.2005L123.251 97.1842C123.943 96.4142 124.656 95.6208 125.113 95.6872C125.4 95.7236 125.943 96.2225 126.345 96.5923L126.345 96.5924L126.356 96.6025L126.389 96.6326C128.546 98.6336 131.199 100.708 134.503 100.919ZM55.4927 50.7094C55.286 50.7094 55.076 50.676 54.8727 50.6092C53.8227 50.2651 53.2494 49.1327 53.5927 48.0804C54.8727 44.1485 56.326 39.6921 59.0694 35.9941C60.8394 33.6056 62.8827 31.9219 65.896 30.3585C71.2427 27.5892 77.3694 26.42 83.6161 26.9745C87.9061 27.3553 98.136 28.735 100.413 33.3016C100.906 34.2904 100.506 35.4963 99.5194 35.9908C98.5327 36.4852 97.3294 36.0843 96.8361 35.0955C96.0861 33.5922 90.8027 31.638 83.2627 30.9665C77.7727 30.4788 72.4027 31.501 67.7327 33.9196C65.2594 35.199 63.6794 36.4918 62.2794 38.386C59.9264 41.559 58.6398 45.5068 57.3967 49.3212L57.3967 49.3212L57.396 49.3231C57.1194 50.1716 56.336 50.7094 55.4927 50.7094ZM111.619 47.0014C111.835 52.7507 111.401 58.5296 110.328 64.1911C114.167 61.6191 116.64 62.1663 118.736 63.2266C122.616 65.1909 124.293 69.4435 123.113 74.3274C122.213 78.1223 119.836 81.64 116.423 84.2223C114.829 85.4082 113.103 86.3903 111.283 87.1453C110.419 87.5094 109.516 87.8435 108.606 88.1274C108.329 88.2143 108.063 88.2811 107.829 88.3379C107.795 88.3464 107.759 88.3553 107.722 88.3644C107.598 88.3946 107.464 88.4273 107.369 88.4581C105.453 92.4668 104.859 93.9734 105.193 97.902C105.286 99.0044 104.469 99.9732 103.369 100.067C103.309 100.08 103.253 100.083 103.196 100.083C102.169 100.083 101.293 99.295 101.206 98.2461C100.783 93.2151 101.759 90.9135 103.833 86.5841C104.593 85.004 106.029 84.6565 106.889 84.4494C106.929 84.4395 106.968 84.43 107.006 84.4205C107.15 84.3853 107.285 84.352 107.406 84.3124C108.199 84.0619 108.983 83.7746 109.739 83.4539C111.269 82.8192 112.706 82.0008 114.026 81.0186C116.686 79.0042 118.539 76.295 119.226 73.3954C119.579 71.9355 120.059 68.3878 116.936 66.8077C115.573 66.1162 114.236 65.8456 110.573 69.0727C109.743 69.8042 108.479 69.7207 107.749 68.8889C107.216 68.2806 107.117 67.4399 107.427 66.746C106.532 66.3984 105.992 65.4466 106.193 64.476C107.359 58.7836 107.839 52.9509 107.619 47.1417C107.559 45.3277 104.463 41.4994 102.363 40.6308C101.343 40.2066 100.856 39.0374 101.279 38.0118C101.703 36.9896 102.869 36.5019 103.893 36.9261C105.456 37.5742 107.316 39.1008 108.863 41.0083C109.859 42.2377 111.539 44.6462 111.619 47.0014ZM62.8094 62.5719C64.0981 62.5719 65.1427 61.3006 65.1427 59.7324C65.1427 58.1642 64.0981 56.8929 62.8094 56.8929C61.5207 56.8929 60.4761 58.1642 60.4761 59.7324C60.4761 61.3006 61.5207 62.5719 62.8094 62.5719ZM76.4761 60.5174C76.4761 62.0856 75.4314 63.3569 74.1428 63.3569C72.8541 63.3569 71.8094 62.0856 71.8094 60.5174C71.8094 58.9492 72.8541 57.6779 74.1428 57.6779C75.4314 57.6779 76.4761 58.9492 76.4761 60.5174ZM77.7161 101.126C77.7661 102.201 78.6494 103.04 79.7127 103.04C79.7428 103.04 79.7727 103.04 79.8094 103.026C80.9127 102.976 81.7661 102.038 81.7161 100.932C81.5561 97.4844 81.5928 96.7428 81.8061 93.3822C81.8494 92.694 81.5361 92.0326 80.9761 91.6283C80.4161 91.2275 79.6894 91.1406 79.0527 91.4012C75.5394 92.841 71.5627 92.3165 67.1094 91.5382C62.7527 90.7698 59.5628 89.33 57.0694 87.005C52.4061 82.6555 50.2527 75.4164 51.1561 67.1485C51.4294 64.6731 52.5294 59.9395 54.8027 54.0801C55.2027 53.0478 54.6927 51.8853 53.6628 51.4844C52.6327 51.0836 51.4727 51.5947 51.0727 52.6269C49.0227 57.9084 47.5694 63.1732 47.1794 66.7109C46.1394 76.2549 48.7494 84.72 54.3427 89.9414C57.3861 92.7775 61.3361 94.5915 66.4194 95.4901C69.5661 96.0413 73.6461 96.7528 77.6527 95.9778C77.5861 97.5913 77.6094 98.7739 77.7161 101.126Z" fill="black"/>
</g>
<defs>
<clipPath id="clip0_805_38835">
<rect width="180" height="180" rx="24" fill="white"/>
</clipPath>
<clipPath id="clip1_805_38835">
<rect width="200" height="200.436" fill="white" transform="translate(-10 95.2734)"/>
</clipPath>
</defs>
</svg>
