<svg width="180" height="180" viewBox="0 0 180 180" fill="none" xmlns="http://www.w3.org/2000/svg">
<g clip-path="url(#clip0_805_37346)">
<rect width="180" height="180" rx="24" fill="white"/>
<g clip-path="url(#clip1_805_37346)">
<path d="M103.124 95.2734C103.424 98.6474 104.8 106.271 109.924 105.128L110.474 105.963C110.224 111.198 107.577 114.889 103.43 118.714C99.2171 122.539 93.8437 124.838 88.1737 125.242C83.1737 125.609 77.8571 124.41 74.1171 121.049C70.3771 117.689 68.4104 113.032 70.8871 109.04H71.2471C72.3737 109.073 73.4104 108.482 74.3637 107.881C75.5771 107.113 78.0804 103.962 78.8304 103.057C79.8304 101.758 80.2371 96.8302 80.7504 95.2734H103.124V95.2734Z" fill="#FFD39F"/>
<path fill-rule="evenodd" clip-rule="evenodd" d="M38.0931 224.649C39.6121 224.805 41.1229 224.959 42.6904 225.258L42.8504 225.278L40.5671 245.007L40.5653 245.023C40.0659 249.331 39.5669 253.635 39.3771 257.972C39.3304 259.065 39.3271 260.244 39.9538 261.139C40.7104 262.231 42.1304 262.562 43.4238 262.809L57.7571 265.559L61.9471 266.05C84.1571 269.805 106.407 268.829 128.577 264.844L144.067 261.754C145.481 261.314 147.029 261.12 148.589 260.925C151.864 260.516 155.193 260.1 157.45 257.384C157.724 256.753 157.837 256.065 157.784 255.38C156.82 250.741 153.847 242.413 151.115 234.759C149.125 229.183 147.263 223.965 146.397 220.791L146.064 220.247C145.687 194.972 144.664 169.623 138.967 145.047L137.907 141.836C135.107 132.783 131.44 124.098 126.28 116.251L125.614 109.837C125.627 108.791 125.364 107.756 124.85 106.844C124.337 105.932 123.594 105.17 122.694 104.635C121.794 104.101 120.77 103.817 119.724 103.807C118.677 103.797 117.647 104.064 116.737 104.582C117.95 102.979 117.347 100.466 115.764 99.2371C114.18 98.0078 111.944 97.9042 110.034 98.5055C108.124 99.1068 106.477 100.326 104.91 101.576C103.776 102.483 102.653 103.426 101.528 104.37C96.8015 108.338 92.0305 112.344 86.1504 113.962L82.2104 112.726C80.0138 112.232 78.5404 110.164 77.6804 108.083C77.3824 107.362 77.134 106.618 76.8859 105.875C76.418 104.474 75.951 103.076 75.1538 101.836C73.9338 99.9386 71.6271 98.4587 69.4871 99.1469C66.8638 99.9887 66.1471 103.283 65.6604 106.002C65.6171 106.416 65.4738 106.817 65.2404 107.161C64.8674 107.626 64.2377 107.76 63.6483 107.886C63.6111 107.893 63.574 107.901 63.5371 107.909C62.2038 108.197 60.8471 108.711 59.8704 109.683C58.8938 110.655 58.3538 112.155 58.8004 113.461L57.1138 116.254C56.1804 117.306 53.7804 120.747 53.7804 120.747C47.6156 131.153 45.2408 141.875 42.6593 153.529C42.5888 153.848 42.5181 154.167 42.4471 154.487C37.8245 176.415 35.7661 197.201 33.6378 218.693C33.4641 220.448 33.2899 222.207 33.1138 223.972C34.836 224.317 36.4693 224.484 38.0931 224.649ZM41.4771 233.335C38.5138 233.315 35.5671 232.864 32.7305 231.999C32.9305 229.51 33.1471 226.955 34.2171 224.7L42.4605 225.622L41.4771 233.335Z" fill="black"/>
<path fill-rule="evenodd" clip-rule="evenodd" d="M93.0267 125.985C93.0967 127.048 93.9767 127.859 95.02 127.859C95.0667 127.859 95.11 127.859 95.15 127.849C104.067 127.265 112.797 124.465 120.4 119.762C121.97 118.792 123.286 117.778 124.346 116.723C124.4 116.937 124.489 117.145 124.617 117.34C129.23 124.355 132.953 132.56 136.003 142.418C136.27 143.28 137.06 143.831 137.913 143.831C138.11 143.831 138.31 143.801 138.503 143.741C139.56 143.413 140.15 142.291 139.823 141.232C136.66 131.006 132.78 122.471 127.957 115.135C127.581 114.562 126.962 114.246 126.325 114.234C127.158 112.838 127.587 111.383 127.607 109.874C127.623 108.474 127.27 107.091 126.587 105.872C125.903 104.652 124.907 103.63 123.703 102.918C122.503 102.207 121.13 101.826 119.733 101.813C119.6 101.813 119.47 101.813 119.337 101.819C119.143 100.249 118.333 98.7127 116.98 97.6637C115.01 96.1337 112.183 95.7362 109.427 96.6048C107.157 97.3197 105.26 98.7394 103.657 100.019C101.898 101.425 100.426 102.805 99.002 104.139L98.95 104.188L98.9465 104.191C95.5749 107.353 92.9118 109.851 88.23 111.14C87.1634 111.434 86.5367 112.536 86.83 113.605C87.1234 114.674 88.2267 115.302 89.29 115.008C94.9267 113.458 98.21 110.378 101.683 107.118L101.738 107.067C103.104 105.786 104.518 104.461 106.15 103.156C107.53 102.057 109.01 100.938 110.627 100.43C112.113 99.9621 113.61 100.116 114.533 100.834C115.323 101.449 115.627 102.735 115.137 103.383C114.563 104.141 114.6 105.2 115.227 105.915C115.853 106.63 116.893 106.807 117.72 106.339C118.313 106.002 118.987 105.825 119.667 105.825H119.7C120.393 105.828 121.077 106.019 121.673 106.373C122.27 106.727 122.763 107.231 123.103 107.839C123.443 108.447 123.62 109.132 123.61 109.827C123.583 112.002 121.797 114.196 118.303 116.354C111.253 120.717 103.157 123.309 94.89 123.854C93.79 123.927 92.9534 124.88 93.0267 125.985ZM55.18 267.085C55.0567 267.085 54.93 267.072 54.8034 267.049L43.0567 264.794C41.7434 264.53 39.58 264.092 38.3267 262.308C37.9654 261.792 37.7346 261.248 37.5902 260.696C36.1164 260.44 34.7077 259.878 33.4533 259.038C31.7833 257.922 30.46 256.365 29.63 254.535C29.4933 254.234 29.4333 253.907 29.4533 253.579C29.4849 253.055 29.5254 252.518 29.5663 251.975L29.5663 251.975L29.5664 251.975L29.5664 251.975L29.5664 251.974L29.5664 251.974L29.5664 251.974L29.5664 251.974L29.5733 251.882C29.92 247.189 30.2767 242.335 27.0367 239.084C26.78 238.827 26.6 238.507 26.51 238.152C25.7227 234.996 27.4577 231.973 30.8531 230.469C31.0044 228.841 31.2333 227.122 31.7747 225.451C31.3219 225.037 31.0677 224.422 31.1333 223.771C31.2781 222.325 31.4207 220.882 31.5628 219.442L31.6566 218.493L31.6658 218.4C33.8224 196.637 35.8599 176.076 40.4999 154.07L40.7166 153.091C43.2999 141.422 45.7433 130.402 52.0699 119.718C52.0966 119.675 52.1233 119.635 52.1499 119.595L52.1865 119.543C52.5693 118.997 54.6834 115.982 55.6299 114.918C55.9852 114.517 56.4657 114.292 56.9602 114.252C56.9429 114.206 56.9262 114.16 56.9101 114.113C56.2401 112.159 56.8501 109.864 58.4634 108.26C59.5934 107.138 61.1134 106.383 63.1201 105.948L63.2367 105.922C63.3667 105.895 63.5401 105.858 63.6701 105.821C63.6701 105.816 63.6709 105.812 63.6717 105.808L63.6717 105.808C63.6726 105.804 63.6734 105.8 63.6734 105.795C63.6801 105.741 63.6867 105.691 63.6967 105.641L63.6984 105.632C64.1852 102.955 64.9978 98.4874 68.8801 97.2361C71.1934 96.4945 74.6701 97.2862 76.8534 100.767C77.0892 101.143 77.2987 101.525 77.4885 101.91C77.8829 101.049 78.8476 100.564 79.7966 100.807C80.8666 101.078 81.5166 102.17 81.2433 103.243C80.9419 104.442 80.4594 105.245 79.2098 106.471C79.3137 106.757 79.4204 107.037 79.5334 107.311C80.0034 108.444 81.0334 110.401 82.6534 110.769C83.7301 111.013 84.4067 112.085 84.1667 113.164C83.9234 114.243 82.8534 114.921 81.7767 114.681C79.2701 114.116 77.1601 112.045 75.8367 108.851C75.5101 108.063 75.2401 107.271 74.9834 106.503L74.9709 106.466C74.5289 105.163 74.1106 103.931 73.4634 102.902C72.7134 101.706 71.2501 100.687 70.1001 101.054C68.6401 101.525 68.0634 103.994 67.6434 106.292C67.5567 107.004 67.3001 107.689 66.9001 108.283C66.8701 108.327 66.8367 108.37 66.8034 108.414C65.986 109.433 64.8408 109.678 64.0774 109.842L64.0701 109.844L63.9634 109.867C62.7467 110.131 61.8467 110.545 61.2834 111.103C60.7867 111.597 60.5334 112.332 60.6967 112.81C60.8501 113.258 61.3567 113.739 61.8301 114.146C66.1234 117.914 71.3467 120.437 76.9467 121.445C78.0334 121.642 78.7567 122.685 78.5601 123.774C78.3801 124.743 77.5367 125.424 76.5901 125.424C76.4734 125.424 76.3534 125.414 76.2334 125.391C69.9201 124.252 64.0301 121.409 59.2034 117.173C59.1317 117.111 59.0594 117.048 58.9867 116.983C58.9024 117.198 58.7793 117.401 58.6166 117.584C57.9299 118.355 56.1533 120.854 55.4699 121.83C49.4966 131.942 47.1266 142.635 44.6199 153.959L44.4066 154.918C39.8111 176.713 37.7843 197.19 35.6383 218.87L35.6366 218.887C35.5233 220.023 35.4099 221.162 35.2966 222.305C36.2933 222.445 37.2799 222.549 38.3033 222.652L38.3572 222.658C39.2569 222.75 40.1738 222.844 41.1121 222.97L42.6267 209.881L42.6381 209.784C45.3812 186.253 48.2176 161.921 53.7367 138.446C53.99 137.37 55.0667 136.699 56.1434 136.956C57.2167 137.21 57.8834 138.289 57.63 139.368C52.1628 162.626 49.3396 186.848 46.6091 210.274L46.6 210.352L46.5034 211.187L42.56 245.261L42.558 245.279C42.0719 249.479 41.5698 253.819 41.38 258.083C41.3567 258.614 41.3134 259.609 41.5967 260.01C41.93 260.484 43.1167 260.725 43.8234 260.865L55.55 263.113C56.6334 263.321 57.3467 264.373 57.1367 265.459C56.96 266.417 56.1234 267.085 55.18 267.085ZM30.3267 236.736C30.2665 235.21 31.975 234.346 32.6412 234.067C34.9414 234.729 37.3022 235.137 39.6872 235.283L38.5867 244.794L38.5728 244.914C38.1342 248.712 37.6823 252.626 37.4556 256.549C36.8279 256.357 36.2288 256.073 35.6767 255.704C34.76 255.089 34.0067 254.264 33.4833 253.295C33.4981 253.06 33.5156 252.824 33.5333 252.587C33.5434 252.451 33.5536 252.314 33.5633 252.176L33.5637 252.171C33.9236 247.281 34.3685 241.238 30.3267 236.736ZM40.651 226.954L40.1488 231.295C38.3678 231.2 36.5991 230.937 34.8667 230.513C35.0084 229.087 35.2215 227.677 35.6789 226.399C36.4325 226.491 37.1704 226.567 37.8966 226.641L38.0502 226.657C38.9351 226.748 39.7928 226.837 40.651 226.954ZM61.6133 268.021C71.0533 269.618 80.6933 270.416 90.6566 270.416C102.728 270.416 115.272 269.24 128.479 266.891C130.272 268.273 132.38 269.003 134.703 269.003C134.953 269.003 135.21 268.996 135.467 268.976C139.001 268.744 142.073 266.819 144.132 263.75C144.307 263.744 144.483 263.715 144.66 263.665C145.903 263.277 147.33 263.097 148.837 262.91C152.3 262.479 156.223 261.988 158.987 258.664C159.11 258.517 159.21 258.353 159.287 258.176C159.683 257.251 159.853 256.229 159.777 255.223C159.773 255.18 159.768 255.138 159.762 255.096C159.756 255.053 159.748 255.011 159.74 254.969C158.747 250.193 155.825 242.004 152.998 234.085L152.998 234.084L152.997 234.08C151.027 228.568 149.17 223.36 148.323 220.26C148.266 220.05 148.178 219.857 148.065 219.684C147.736 195.531 146.852 172.286 141.18 147.783C140.93 146.704 139.857 146.032 138.78 146.283C137.703 146.533 137.033 147.609 137.283 148.688C143.613 176.038 143.887 201.985 144.177 229.456L144.177 229.464L144.183 229.971L118.947 229.557C115.197 200.193 113.903 170.325 115.1 140.751C115.147 139.645 114.287 138.71 113.183 138.666C112.08 138.626 111.147 139.481 111.103 140.587C109.873 170.963 111.253 201.65 115.203 231.792C115.306 232.567 115.841 233.192 116.547 233.431C116.265 235.483 116.192 237.561 116.33 239.632C116.33 240.006 116.393 240.374 116.523 240.725C116.673 241.126 116.897 241.486 117.19 241.794C117.218 241.823 117.247 241.852 117.276 241.879C116.068 242.795 115.067 243.966 114.627 245.375C114.247 246.594 114.13 248.492 115.73 250.596C117.21 252.547 119.253 253.72 121.057 254.752C121.413 254.956 121.767 255.16 122.12 255.37C122.613 255.662 123.153 257.631 123.388 258.492L123.393 258.51C123.557 259.111 123.713 259.679 123.897 260.187C124.32 261.351 124.822 262.41 125.395 263.358C102.687 267.174 82.0113 267.405 62.2766 264.069C61.1866 263.882 60.1566 264.62 59.9733 265.712C59.7899 266.801 60.5233 267.837 61.6133 268.021ZM123.46 242.554C123.26 243.127 122.805 243.602 122.183 243.801C120.33 244.403 118.757 245.569 118.443 246.574C118.383 246.765 118.227 247.269 118.91 248.168C119.899 249.47 121.425 250.345 123.037 251.27L123.038 251.27L123.04 251.271C123.131 251.323 123.221 251.375 123.312 251.427C123.598 251.592 123.882 251.755 124.163 251.922C126.044 253.04 126.711 255.479 127.247 257.438L127.25 257.448C127.39 257.966 127.527 258.457 127.653 258.811C128.733 261.781 130.913 265.251 135.2 264.974C138.017 264.787 141.417 262.666 142.533 257.271C143.389 253.123 142.615 248.659 141.866 244.337L141.863 244.323L141.823 244.092C141.747 243.648 141.671 243.207 141.597 242.766C141.582 242.678 141.573 242.59 141.57 242.503L123.46 242.554ZM145.042 241.077C145.295 241.353 145.473 241.704 145.54 242.101C145.627 242.612 145.713 243.123 145.803 243.638L145.806 243.655C146.619 248.343 147.459 253.191 146.45 258.086C146.37 258.474 146.278 258.854 146.175 259.226C146.899 259.11 147.623 259.02 148.337 258.931C151.337 258.557 153.947 258.23 155.7 256.335C155.767 256.112 155.797 255.874 155.79 255.641C154.821 251.111 151.859 242.809 149.239 235.464L149.227 235.43L149.139 235.185L149.139 235.184L149.139 235.184L149.139 235.184C148.807 234.254 148.479 233.334 148.159 232.432C148.078 232.807 147.89 233.154 147.613 233.429C147.243 233.803 146.733 234.013 146.207 234.013H146.173L145.502 234.002L145.667 238.236C145.684 238.757 145.723 240.037 145.042 241.077ZM141.496 233.936L120.565 233.592C120.315 235.236 120.22 236.901 120.28 238.563L141.673 238.503V238.503C141.673 238.486 141.673 238.469 141.673 238.45C141.673 238.429 141.672 238.406 141.67 238.383L141.496 233.936Z" fill="black"/>
</g>
<path d="M45.9395 67.4937C42.8928 66.1174 41.0228 62.9672 39.9562 59.8103C37.0095 51.068 38.8695 41.1531 43.5828 33.2258C48.2962 25.2986 55.6128 19.1953 63.5828 14.5486C69.7528 10.9508 76.5828 8.09789 83.7261 7.99099C90.8695 7.88409 98.3462 10.9407 102.129 17.0106L106.859 21.1863C112.859 20.2677 118.703 23.6116 123.309 27.5736C128.976 32.4375 133.699 38.5174 136.366 45.4992C139.033 52.481 139.536 60.3882 137.109 67.4569C134.903 73.8742 129.226 79.904 122.473 79.3829" fill="black"/>
<path d="M79.7133 102.704C79.5533 99.223 79.5866 96.741 79.8066 93.2634C75.6466 94.9671 71.0466 94.2656 66.76 93.5173C62.65 92.7924 58.8066 91.3693 55.7033 88.4763C49.88 83.0412 48.3333 74.5628 49.1666 66.9328C49.5 63.9029 50.7866 58.8987 52.9366 53.3567L55.49 49.7221C57.99 45.5998 61.12 41.7915 65.0733 39.0322C69.0266 36.2729 73.8633 34.6493 78.6566 35.0535C79.99 35.1671 81.3666 35.4511 82.4866 36.2027C83.6066 36.9543 84.44 38.2438 84.3433 39.5901L89.3833 42.5031C91.5266 41.0365 94.68 42.169 96.1666 44.317C97.6533 46.465 97.8566 49.2177 97.7666 51.82C97.6766 54.4223 97.3433 57.0681 97.95 59.5969C98.4733 61.638 99.57 63.4853 101.113 64.9185C102.657 66.3516 104.577 67.3103 106.647 67.6778L109.253 67.5509C113.077 64.1835 115.327 63.7326 117.837 65.002C121.41 66.8092 121.947 70.6309 121.17 73.8412C120.33 77.3822 118.09 80.4355 115.217 82.6103C113.767 83.6893 112.187 84.5879 110.517 85.2827C109.697 85.6302 108.86 85.9375 108.01 86.2047C107.053 86.5087 106.087 86.4987 105.637 87.4341C103.657 91.5697 102.813 95.4949 103.2 100.065" fill="#FFD39F"/>
<path fill-rule="evenodd" clip-rule="evenodd" d="M45.1267 69.3097C45.3934 69.4266 45.6667 69.4834 45.9401 69.4834C46.3118 69.4834 46.6763 69.378 46.9907 69.1843C46.6185 77.7081 49.2384 85.1757 54.3434 89.9412C57.3867 92.7773 61.3367 94.5913 66.4201 95.4899C69.5667 96.0411 73.6467 96.7527 77.6534 95.9776C77.5867 97.5911 77.6101 98.7737 77.7167 101.125C77.7667 102.201 78.6501 103.04 79.7134 103.04C79.7434 103.04 79.7734 103.04 79.8101 103.026C80.9134 102.976 81.7667 102.037 81.7167 100.932C81.5567 97.4842 81.5934 96.7426 81.8067 93.382C81.8501 92.6938 81.5367 92.0324 80.9767 91.6282C80.4167 91.2273 79.6901 91.1404 79.0534 91.401C75.5401 92.8408 71.5634 92.3163 67.1101 91.538C62.7534 90.7696 59.5634 89.3298 57.0701 87.0048C52.4067 82.6553 50.2534 75.4163 51.1567 67.1483C51.4301 64.6729 52.5301 59.9393 54.8034 54.0799C55.2034 53.0476 54.6934 51.8851 53.6634 51.4842C52.6334 51.0834 51.4734 51.5945 51.0734 52.6267C49.159 57.5587 47.765 62.4761 47.2713 65.9862C47.1208 65.852 46.9474 65.7383 46.7534 65.6517C44.1067 64.4692 42.6267 61.4693 41.8501 59.1543C39.2634 51.5076 40.5501 42.1941 45.2901 34.2401C49.3634 27.4052 55.8534 21.3588 64.5801 16.2677C71.6801 12.1254 77.9501 10.0709 83.7467 9.9807C90.7567 9.87714 97.2967 13.044 100.423 18.0583C101.01 18.997 102.243 19.2843 103.18 18.6963C104.117 18.1084 104.403 16.8723 103.817 15.9336C99.9067 9.65666 92.1767 5.8417 83.6867 5.97198C77.1834 6.0722 70.2767 8.30372 62.5667 12.8002C53.2501 18.2353 46.2801 24.7562 41.8567 32.1823C36.5267 41.1318 35.1067 51.6947 38.0634 60.4337C39.5434 64.84 41.9834 67.9066 45.1267 69.3097ZM123.287 81.406C122.96 81.406 122.637 81.3926 122.31 81.3692C121.468 81.3053 120.786 80.7246 120.552 79.9612C119.443 81.5466 118.051 82.9907 116.423 84.2221C114.83 85.408 113.103 86.3901 111.283 87.1451C110.42 87.5092 109.517 87.8433 108.607 88.1272C108.33 88.2141 108.063 88.2809 107.83 88.3377C107.796 88.3462 107.76 88.3551 107.722 88.3642C107.599 88.3944 107.465 88.4272 107.37 88.458C105.453 92.4667 104.86 93.9733 105.193 97.9018C105.287 99.0042 104.47 99.973 103.37 100.067C103.31 100.08 103.253 100.083 103.197 100.083C102.17 100.083 101.293 99.2948 101.207 98.2459C100.783 93.215 101.76 90.9133 103.833 86.5839C104.593 85.0038 106.03 84.6564 106.89 84.4492C106.929 84.4395 106.967 84.4301 107.005 84.4208L107.007 84.4203C107.15 84.3851 107.286 84.3518 107.407 84.3123C108.2 84.0617 108.983 83.7744 109.74 83.4537C111.27 82.819 112.707 82.0006 114.027 81.0185C116.687 79.0041 118.54 76.2948 119.227 73.3952C119.58 71.9354 120.06 68.3877 116.937 66.8076C115.573 66.1161 114.237 65.8455 110.573 69.0725C109.84 69.7187 108.769 69.729 108.026 69.1493C107.662 69.4946 107.172 69.7005 106.65 69.7005C106.533 69.7005 106.417 69.6905 106.297 69.6705C103.843 69.2328 101.58 68.1037 99.7534 66.4067C97.9267 64.7097 96.6334 62.5316 96.0134 60.113C95.4567 57.788 95.5767 55.5264 95.6934 53.3349L95.7104 53.0075C95.732 52.5933 95.7535 52.1808 95.7667 51.7682C95.8367 49.7772 95.7567 47.2617 94.5234 45.4779C93.6634 44.2352 91.6801 43.3766 90.5101 44.1784C89.5967 44.8031 88.3534 44.5659 87.7301 43.6539C87.1067 42.7386 87.3434 41.4925 88.2534 40.8679C90.8567 39.0873 95.3167 39.5951 97.8067 43.1962C99.7134 45.9489 99.8534 49.2995 99.7634 51.9119C99.7434 52.4597 99.7167 53.0076 99.6867 53.5554C99.5801 55.5464 99.4801 57.4238 99.8934 59.1509C100.313 60.7945 101.207 62.2978 102.47 63.4737C103.733 64.6495 105.297 65.4279 106.993 65.7319C107.323 65.7907 107.62 65.9275 107.867 66.1201C107.881 66.1068 107.895 66.0937 107.909 66.0808C107.917 66.0736 107.925 66.0664 107.933 66.0593C113.193 61.4259 116.233 61.9604 118.737 63.2264C122.617 65.1907 124.293 69.4433 123.113 74.3272C122.863 75.383 122.498 76.4173 122.029 77.4159C122.217 77.3739 122.415 77.3585 122.617 77.3739C128.347 77.8182 133.287 72.3864 135.21 66.7942C137.39 60.4437 137.133 53.1312 134.49 46.2061C132.11 39.9792 127.793 34.0564 122 29.0856C116.627 24.4655 111.633 22.4712 107.153 23.156C106.06 23.323 105.04 22.5714 104.873 21.479C104.707 20.3866 105.457 19.3611 106.547 19.1941C112.233 18.3222 118.307 20.6272 124.6 26.0423C130.893 31.444 135.607 37.9214 138.223 44.773C141.203 52.5766 141.477 60.858 138.99 68.1004C137.73 71.7617 135.537 75.1056 132.81 77.5175C129.913 80.0697 126.64 81.4026 123.287 81.406ZM54.4434 51.4508C54.7667 51.6479 55.1234 51.7415 55.4767 51.7415C56.1534 51.7415 56.8134 51.3974 57.1867 50.7794C59.8267 46.4132 62.8601 43.0225 66.2001 40.6975C70.0567 38.015 74.4167 36.7255 78.4767 37.0696C79.7567 37.1765 80.7034 37.4437 81.3667 37.888C81.9667 38.2889 82.3734 38.9503 82.3367 39.4614C82.2567 40.5672 83.0867 41.5259 84.1867 41.6061C85.2934 41.6863 86.2467 40.8578 86.3267 39.7521C86.4667 37.7978 85.3901 35.7567 83.5834 34.5508C82.3267 33.7089 80.8101 33.2412 78.8134 33.0709C73.8334 32.65 68.5434 34.1866 63.9234 37.4003C60.1167 40.046 56.7034 43.8476 53.7701 48.6982C53.1967 49.6436 53.5001 50.8763 54.4434 51.4508ZM62.8101 62.5717C64.0987 62.5717 65.1434 61.3004 65.1434 59.7322C65.1434 58.164 64.0987 56.8927 62.8101 56.8927C61.5214 56.8927 60.4767 58.164 60.4767 59.7322C60.4767 61.3004 61.5214 62.5717 62.8101 62.5717ZM76.4767 60.5172C76.4767 62.0854 75.4321 63.3567 74.1434 63.3567C72.8547 63.3567 71.8101 62.0854 71.8101 60.5172C71.8101 58.949 72.8547 57.6777 74.1434 57.6777C75.4321 57.6777 76.4767 58.949 76.4767 60.5172Z" fill="black"/>
</g>
<defs>
<clipPath id="clip0_805_37346">
<rect width="180" height="180" rx="24" fill="white"/>
</clipPath>
<clipPath id="clip1_805_37346">
<rect width="200" height="200.436" fill="white" transform="translate(-10 95.2734)"/>
</clipPath>
</defs>
</svg>
