<svg width="180" height="180" viewBox="0 0 180 180" fill="none" xmlns="http://www.w3.org/2000/svg">
<g clip-path="url(#clip0_805_33255)">
<rect width="180" height="180" rx="24" fill="white"/>
<g clip-path="url(#clip1_805_33255)">
<path fill-rule="evenodd" clip-rule="evenodd" d="M103.123 95.2734C103.423 98.6474 104.8 106.271 109.923 105.128L110.473 105.963C110.223 111.198 107.577 114.889 103.43 118.714C99.2167 122.539 93.8433 124.838 88.1733 125.242C83.1733 125.609 77.8567 124.41 74.1167 121.049C70.3767 117.689 68.41 113.032 70.8867 109.04H71.2467C72.3733 109.073 73.41 108.482 74.3633 107.881C75.4405 107.199 77.5343 104.639 78.5155 103.44C78.6395 103.289 78.7458 103.159 78.83 103.057C79.4697 102.226 79.8666 99.9098 80.2039 97.9413C80.3939 96.8327 80.565 95.8343 80.75 95.2734H103.123ZM132.363 136.42C131.637 137.595 130.85 138.731 130.01 139.827C127.133 143.548 123.383 146.745 118.9 148.178L118.253 149.207C117.893 179.633 119.39 210.083 122.357 241.408C121.203 241.505 120.11 241.959 119.223 242.707C118.337 243.456 117.703 244.458 117.41 245.58C117.117 246.703 117.173 247.889 117.58 248.974C117.983 250.06 118.713 250.995 119.67 251.65C120.216 252.021 120.82 252.291 121.424 252.561C121.963 252.802 122.503 253.044 123.003 253.357C125.359 254.829 126.436 257.555 127.505 260.262C128.642 263.14 129.77 265.996 132.417 267.301C136.207 269.168 140.957 266.319 142.673 262.447C144.39 258.575 143.92 254.135 143.41 249.933C141.233 232.054 136.043 179.684 135.137 168.723L132.587 137.899L132.363 136.42ZM47.9697 139.644C48.0908 138.87 48.2121 138.096 48.3333 137.322L48.53 136.667C50.67 138.621 52.3166 141.053 53.3333 143.769L49.5633 216.113L47.8966 236.584L47.8886 236.682C47.6046 240.14 47.3199 243.608 46.61 247C45.98 249.779 45.2066 252.525 44.2966 255.225C43.65 257.269 42.8433 259.507 40.9633 260.536C38.2666 262.006 34.7466 260.012 33.43 257.232C32.1522 254.535 32.3436 251.41 32.5267 248.422C32.5322 248.331 32.5378 248.24 32.5433 248.149C32.6433 246.506 32.69 244.752 31.8466 243.342C31.6597 243.035 31.4342 242.75 31.2085 242.465C31.0357 242.246 30.8627 242.027 30.7066 241.799C30.1 240.897 29.7633 239.841 29.74 238.752C29.7133 237.666 30.0033 236.594 30.5666 235.665C31.13 234.737 31.95 233.988 32.9266 233.514C33.9033 233.04 34.9966 232.853 36.0733 232.983C38.4113 200.675 43.1411 170.475 47.9697 139.644Z" fill="#FFD39F"/>
<path fill-rule="evenodd" clip-rule="evenodd" d="M44.5729 133.916C48.6096 136 51.7329 139.511 53.3329 143.77L53.8729 145.721C51.5696 166.293 48.0296 186.707 43.2729 206.854C41.0162 209.497 42.2629 214.257 45.5229 215.45C47.6068 216.214 49.8228 215.632 52.0243 215.054C52.728 214.869 53.4303 214.684 54.1262 214.544C58.4765 213.678 62.8834 214.583 67.2952 215.489C71.5746 216.367 75.8585 217.247 80.0996 216.512C81.3758 216.291 82.6214 215.925 83.8667 215.559C85.2529 215.152 86.6388 214.745 88.0662 214.538C92.4637 213.901 96.8099 215.178 101.12 216.445C102.191 216.759 103.26 217.073 104.326 217.357C109.686 218.784 115.973 219.275 120.233 215.717L120.25 215.53C118.72 193.201 118.01 171.207 118.27 149.222L118.916 148.193C123.4 146.76 127.15 143.567 130.026 139.842C132.903 136.117 134.996 131.861 137.07 127.635C132.763 125.925 129.533 122.294 126.83 118.512C126.17 117.59 125.53 116.65 124.889 115.711C122.906 112.801 120.923 109.893 118.373 107.488C115 104.308 110.313 102.076 105.776 103.012C105.086 106.653 102.173 108.992 99.1729 110.575C93.5329 113.525 87.1096 114.627 80.8096 113.728C79.3129 113.508 77.8029 113.164 76.5129 112.369C75.2229 111.574 74.1829 110.258 74.0429 108.748C73.8296 106.586 75.4196 104.716 76.3762 103.663C66.3829 107.301 57.9429 114.28 52.4796 123.423C52.0679 124.117 51.6685 124.829 51.2677 125.543C49.4682 128.75 47.6426 132.003 44.5729 133.916ZM144.5 208.311C144.5 208.311 141.326 200.183 137.36 191.975L139.413 211.401C140.413 213.218 143.553 213.145 144.463 211.277C144.81 210.322 144.823 209.276 144.5 208.311Z" fill="black"/>
<path fill-rule="evenodd" clip-rule="evenodd" d="M118.31 146.281C117.65 146.493 117.174 147.016 116.996 147.638C116.553 148 116.267 148.549 116.26 149.167C116.01 170.323 116.64 191.958 118.182 214.725C115.155 216.74 110.664 216.972 104.81 215.414C103.855 215.16 102.87 214.872 101.911 214.591L101.653 214.516C97.193 213.203 92.5797 211.847 87.7497 212.548C86.1797 212.775 84.703 213.21 83.273 213.631C82.0497 213.991 80.893 214.332 79.7297 214.533C75.8678 215.2 71.8927 214.383 67.6877 213.518L67.683 213.517C63.1464 212.582 58.4564 211.616 53.7064 212.572C52.9553 212.72 52.214 212.914 51.4954 213.103L51.495 213.103L51.4948 213.103L51.4942 213.103L51.4697 213.109L51.4571 213.113C49.5051 213.623 47.6632 214.104 46.1797 213.56C45.2664 213.223 44.5397 212.331 44.2364 211.172C43.9364 210.016 44.133 208.887 44.763 208.149C44.9697 207.905 45.1164 207.618 45.1897 207.307C50.573 184.537 54.4297 161.18 56.6564 137.886C56.763 136.787 55.9564 135.808 54.8564 135.701C53.7597 135.598 52.783 136.403 52.6764 137.505C52.6532 137.748 52.6299 137.99 52.6064 138.233C51.3398 136.492 49.8028 134.961 48.0464 133.697C50.1412 131.641 51.5939 129.051 53.0094 126.528L53.0131 126.521C53.4164 125.796 53.7997 125.115 54.1964 124.447C58.2797 117.612 64.3831 112.12 72.0231 108.355C72.0231 108.539 72.0331 108.729 72.0531 108.926C72.2397 110.947 73.5164 112.868 75.4664 114.071C77.1497 115.11 79.053 115.491 80.5297 115.708C87.283 116.673 94.0497 115.511 100.106 112.344C103.896 110.346 106.33 107.817 107.363 104.817C110.49 104.63 114.01 106.12 117.006 108.946C119.396 111.201 121.263 113.937 123.24 116.837L123.391 117.059C123.98 117.922 124.586 118.809 125.206 119.676C127.38 122.72 130.323 126.344 134.38 128.572C132.65 132.057 130.803 135.561 128.446 138.611C126.373 141.293 122.933 144.804 118.31 146.281ZM111.683 220.439C114.246 220.439 116.518 219.997 118.489 219.116C118.981 225.912 119.553 232.812 120.206 239.831C119.383 240.132 118.613 240.576 117.93 241.15C116.716 242.173 115.863 243.522 115.46 245.056C115.056 246.589 115.136 248.186 115.693 249.672C116.25 251.159 117.236 252.415 118.546 253.307C119.221 253.768 119.935 254.088 120.565 254.37L120.565 254.371L120.606 254.389L120.635 254.402L120.635 254.402C121.115 254.618 121.567 254.822 121.943 255.057C123.736 256.178 124.66 258.513 125.638 260.986L125.643 261L125.645 261.007C126.842 264.032 128.195 267.455 131.533 269.101C132.596 269.626 133.766 269.89 134.973 269.89C135.98 269.89 137.013 269.703 138.046 269.328C140.82 268.32 143.296 265.994 144.51 263.255C146.503 258.756 145.893 253.73 145.403 249.688L145.403 249.686C144.498 242.249 143.058 228.731 141.624 214.717C141.711 214.721 141.799 214.723 141.886 214.723H142.023C143.886 214.676 145.51 213.691 146.26 212.154C146.29 212.091 146.32 212.027 146.343 211.96C146.843 210.584 146.86 209.061 146.396 207.671C146.393 207.659 146.389 207.647 146.385 207.636C146.382 207.625 146.378 207.613 146.373 207.602C146.37 207.594 146.367 207.586 146.363 207.577L146.355 207.558C146.178 207.107 143.085 199.257 139.282 191.353C138.267 181.009 137.456 172.421 137.136 168.553L134.586 137.729C134.564 137.468 134.493 137.223 134.383 137.002C136.05 134.257 137.458 131.39 138.835 128.586L138.835 128.586L138.866 128.522C139.113 128.018 139.136 127.437 138.936 126.915C138.733 126.394 138.326 125.98 137.806 125.773C133.69 124.136 130.646 120.408 128.456 117.345C127.81 116.439 127.163 115.494 126.54 114.579C124.53 111.629 122.45 108.579 119.743 106.027C115.413 101.944 110.043 100.084 105.373 101.046C104.576 101.21 103.96 101.838 103.81 102.636C103.353 105.045 101.53 107.062 98.2464 108.796C92.943 111.565 87.0097 112.588 81.0997 111.742C79.943 111.572 78.6164 111.308 77.5597 110.657C76.6897 110.119 76.1031 109.314 76.0331 108.546C75.9564 107.744 76.3997 107.196 77.3597 106.22C77.5497 106.027 77.7331 105.84 77.8997 105.656C78.5197 104.974 78.593 103.956 78.083 103.191C77.573 102.426 76.6064 102.108 75.7397 102.422C64.833 106.394 56.1964 113.296 50.7631 122.392C50.3397 123.107 49.9264 123.842 49.5264 124.554C47.7931 127.647 46.1531 130.567 43.5197 132.207C42.9064 132.588 42.5464 133.269 42.5764 133.991C42.6064 134.712 43.0197 135.36 43.6597 135.691C44.5983 136.176 45.4804 136.746 46.297 137.391L45.993 139.336C41.1597 170.176 36.593 199.34 34.2097 231.032C33.463 231.152 32.7364 231.379 32.0497 231.713C30.7264 232.358 29.623 233.363 28.8564 234.623C28.0897 235.882 27.703 237.329 27.7364 238.802C27.7697 240.279 28.223 241.702 29.053 242.934C29.2497 243.218 29.4564 243.482 29.6397 243.713L29.6493 243.725C29.8391 243.964 30.0182 244.19 30.1297 244.374C30.6664 245.269 30.633 246.612 30.5464 248.029L30.5297 248.299L30.5292 248.308C30.3393 251.416 30.1244 254.933 31.623 258.094C32.623 260.208 34.6064 261.966 36.7964 262.681C37.523 262.918 38.2564 263.035 38.973 263.035C40.013 263.035 41.0197 262.787 41.923 262.293C44.6197 260.816 45.6097 257.713 46.1997 255.846C47.1264 253.1 47.9197 250.274 48.563 247.444C48.5647 247.439 48.5655 247.433 48.5664 247.427C48.5672 247.422 48.568 247.416 48.5697 247.411C49.303 243.896 49.5997 240.312 49.883 236.844L51.4771 217.25C51.8181 217.165 52.1536 217.077 52.483 216.991C53.183 216.807 53.843 216.637 54.493 216.507C58.4497 215.712 62.543 216.554 66.8797 217.446C71.2664 218.351 75.803 219.283 80.413 218.484C81.7755 218.248 83.0768 217.867 84.3328 217.499L84.3997 217.479L84.4503 217.464C85.7882 217.072 87.0524 216.702 88.323 216.517C92.2864 215.942 96.2897 217.118 100.526 218.364L100.697 218.414C101.707 218.709 102.751 219.014 103.783 219.29C106.66 220.055 109.296 220.439 111.683 220.439ZM47.4184 217.809C46.5575 217.787 45.6855 217.647 44.813 217.329C42.663 216.54 41.003 214.619 40.3697 212.191C40.2152 211.598 40.1287 211.001 40.1079 210.414C39.3152 217.876 38.6266 225.428 38.0697 233.13C38.0297 233.677 37.7697 234.182 37.3464 234.529C36.9264 234.877 36.3797 235.04 35.8364 234.974C35.1364 234.89 34.433 235.01 33.7997 235.318C33.1664 235.625 32.6364 236.106 32.273 236.711C31.9064 237.312 31.723 238.004 31.7364 238.708C31.753 239.413 31.9697 240.095 32.363 240.679C32.473 240.84 32.6197 241.027 32.773 241.221L32.8136 241.272C33.0501 241.573 33.3133 241.908 33.5497 242.296C34.6797 244.187 34.6564 246.285 34.5364 248.269L34.5197 248.543C34.3497 251.296 34.1764 254.142 35.233 256.37C35.773 257.506 36.8697 258.488 38.033 258.866C38.5464 259.033 39.3064 259.153 40.0064 258.772C41.1964 258.121 41.8364 256.36 42.3897 254.616C42.393 254.603 42.3964 254.593 42.403 254.58C43.2864 251.961 44.043 249.268 44.6564 246.569C45.3397 243.302 45.623 239.851 45.8964 236.514L47.4184 217.809ZM40.3428 208.233C42.808 185.648 46.2054 163.838 49.76 141.146C50.4466 142.177 51.0193 143.291 51.4631 144.47C51.5611 144.731 51.7074 144.959 51.8878 145.148C49.6233 165.575 46.1031 185.992 41.3997 205.961C40.9117 206.64 40.5567 207.41 40.3428 208.233ZM141.923 210.714C141.605 210.723 141.313 210.623 141.192 210.473C140.968 208.27 140.746 206.069 140.527 203.891C141.709 206.689 142.483 208.649 142.616 208.987C142.766 209.462 142.77 209.976 142.626 210.454C142.506 210.601 142.226 210.708 141.923 210.714ZM120.252 149.855C124.13 148.445 127.787 145.728 130.92 141.933L133.15 168.887C134.09 180.271 139.273 232.452 141.43 250.173C141.976 254.69 142.283 258.401 140.85 261.632C140.073 263.382 138.436 264.925 136.676 265.564C135.823 265.874 134.546 266.111 133.303 265.5C131.354 264.54 130.394 262.112 129.376 259.539L129.37 259.524L129.368 259.52C128.248 256.684 126.982 253.476 124.07 251.657C123.45 251.269 122.81 250.982 122.243 250.728C121.703 250.487 121.193 250.26 120.796 249.99C120.176 249.565 119.706 248.971 119.443 248.266C119.18 247.561 119.143 246.803 119.333 246.075C119.523 245.346 119.926 244.708 120.503 244.224C121.08 243.739 121.776 243.449 122.526 243.389C123.06 243.345 123.553 243.088 123.896 242.677C124.24 242.266 124.403 241.735 124.353 241.201C121.276 208.706 119.936 178.818 120.252 149.855Z" fill="black"/>
</g>
<path d="M50.493 87.6528C49.9497 88.5548 49.1797 89.2998 48.263 89.8109C47.343 90.322 46.3064 90.5826 45.2564 90.5692C44.2064 90.5525 43.1764 90.2618 42.273 89.724C41.3697 89.1862 40.623 88.4212 40.103 87.5025C39.0864 85.6953 38.6464 83.0629 36.6164 82.6653C34.9297 82.3313 33.553 83.898 32.283 85.0572C30.7664 86.4302 28.7997 87.419 26.7564 87.3689C24.713 87.3188 22.6364 86.0627 22.0097 84.1118C21.113 81.3291 23.2297 78.4629 23.213 75.5432C23.253 74.7548 22.993 73.9831 22.4864 73.3785C21.3097 72.1558 19.2964 72.7738 17.6097 72.6135C14.083 72.2794 11.943 68.0101 12.8097 64.5693C13.6764 61.1285 16.653 58.603 19.8097 56.9995C22.9664 55.396 26.443 54.4774 29.5864 52.8338C33.483 50.786 36.7397 47.6993 38.9997 43.9144C40.7597 40.9647 41.8697 37.6508 43.7364 34.7679C47.0697 29.6367 52.5464 26.2627 58.243 24.0546C63.9397 21.8465 69.9664 20.6539 75.7997 18.8466C80.1797 17.4903 84.623 15.7666 89.1864 16.1741C92.2097 16.4447 95.393 17.9346 96.5197 20.7541L104.336 23.5101C113.576 23.8842 122.42 29.5699 126.61 37.8345C128.05 40.6674 129.003 43.8142 131.07 46.2261C133.903 49.5333 138.736 51.3907 139.896 55.5798C141.433 61.1085 135.496 66.0425 135.13 71.7683C134.923 74.9853 136.463 78.513 134.796 81.269C133.353 83.6475 130.13 84.2922 128.3 86.3901C126.116 88.8889 126.19 93.1214 123.37 94.8652C122.26 95.55 117.966 96.3584 116.786 95.8139C111.946 93.5857 111.436 96.5923 107.343 96.9798" fill="black"/>
<path d="M103.213 100.093C102.833 95.5202 103.68 91.5983 105.667 87.4627C106.117 86.5273 107.083 86.5373 108.04 86.2333C108.89 85.9661 109.723 85.6587 110.547 85.3113C112.217 84.6165 113.793 83.7179 115.247 82.6388C118.12 80.4641 120.36 77.4108 121.2 73.8698C121.963 70.6595 121.427 66.8378 117.867 65.0306C115.357 63.7611 113.107 64.2121 109.283 67.5794L106.313 66.8278C102.52 66.5973 99.53 63.2701 98.2866 59.6756C97.0433 56.0811 97.1233 52.1826 96.8466 48.3877C96.7233 46.694 96.4566 44.86 95.2333 43.6841C93.9 42.408 91.87 42.3112 90.03 42.2844L87.0966 41.2823C85.9666 40.0563 84.5833 39.0908 83.0466 38.4461C81.51 37.8047 79.8533 37.5007 78.1866 37.5575C76.5233 37.6143 74.89 38.0285 73.4 38.7735C71.91 39.5184 70.5966 40.5774 69.55 41.8769C68.3 43.4303 67.3566 45.3845 65.55 46.2364C63.7433 47.0882 61.6933 46.5938 59.73 46.6306C57.7666 46.6673 55.4266 47.733 55.3766 49.6972L52.9566 53.3719C50.8066 58.9139 49.5133 63.9181 49.1866 66.9481C48.3633 74.578 49.9 83.0564 55.7233 88.4916C58.8266 91.3845 62.67 92.8076 66.78 93.5325C71.0666 94.2908 75.6666 94.9823 79.8266 93.2786C79.6066 96.7562 79.5733 99.2383 79.7333 102.719" fill="#FFD39F"/>
<path d="M45.343 92.5836C45.303 92.5836 45.2663 92.5836 45.2263 92.5836C43.8296 92.5635 42.453 92.176 41.2496 91.4578C40.0463 90.7429 39.0496 89.7207 38.3596 88.5014C38.033 87.9201 37.7763 87.3155 37.5263 86.7342C37.1263 85.7955 36.6763 84.7332 36.2296 84.6463C35.763 84.5528 34.773 85.4848 34.1163 86.0995C33.9496 86.2565 33.7863 86.4102 33.623 86.5572C31.5296 88.4379 29.0796 89.4401 26.7063 89.3866C23.673 89.3165 20.9596 87.4057 20.103 84.7399C19.3863 82.5217 20.0163 80.4338 20.573 78.5898C20.8996 77.5008 21.2096 76.4752 21.2096 75.5566C21.2096 75.5232 21.2096 75.4864 21.213 75.453C21.2263 75.2025 21.153 74.9586 21.0096 74.7548C20.7496 74.5744 19.8863 74.6112 19.2496 74.6346C18.663 74.6579 18.0563 74.6813 17.4196 74.6212C15.403 74.4308 13.5863 73.3317 12.3063 71.5211C10.8063 69.3998 10.2563 66.557 10.8696 64.0983C11.7496 60.5606 14.603 57.4071 18.9063 55.2257C20.533 54.4006 22.2196 53.7525 23.8496 53.1278C25.5463 52.4764 27.1463 51.8617 28.6596 51.07C32.2363 49.1926 35.2263 46.3631 37.303 42.8889C38.063 41.6161 38.6963 40.2632 39.3663 38.8301C40.1696 37.1197 40.9963 35.3492 42.0763 33.6789C45.243 28.7949 50.4463 24.9298 57.5396 22.1872C61.1896 20.7775 64.983 19.7653 68.6496 18.7831C70.8196 18.2019 73.063 17.6039 75.2263 16.9325C75.8263 16.7454 76.4263 16.555 77.0263 16.3612C80.9696 15.0951 85.0463 13.789 89.3829 14.1798C92.723 14.4805 96.8463 16.1708 98.393 20.0058C98.8063 21.0314 98.313 22.2006 97.2863 22.6148C96.2629 23.029 95.0963 22.5346 94.6829 21.5057C93.8096 19.341 91.0896 18.3589 89.023 18.1718C85.493 17.8545 81.973 18.9836 78.243 20.1795C77.6296 20.3766 77.0163 20.5737 76.4063 20.7641C74.1696 21.4556 71.8863 22.067 69.6796 22.6582C66.113 23.6103 62.4263 24.5958 58.9796 25.9287C52.6863 28.3606 48.1263 31.7046 45.4296 35.8636C44.4996 37.3001 43.763 38.8701 42.9863 40.5338C42.303 41.9903 41.5963 43.5002 40.733 44.9467C38.2796 49.0556 34.743 52.4029 30.5096 54.6244C28.7896 55.523 27.003 56.2078 25.2763 56.8726C23.6696 57.4873 22.153 58.0719 20.7096 58.8035C18.8263 59.7589 15.5496 61.8434 14.7463 65.0704C14.413 66.4067 14.7363 68.0302 15.5663 69.2061C15.9863 69.8007 16.7163 70.5323 17.793 70.6325C18.163 70.6693 18.613 70.6492 19.0896 70.6325C20.5196 70.5757 22.4763 70.4989 23.923 72.0022C23.953 72.0356 23.983 72.0657 24.013 72.1024C24.8396 73.0845 25.263 74.3272 25.2096 75.61C25.1996 77.1033 24.7763 78.5097 24.3996 79.7524C23.9563 81.2189 23.5763 82.4816 23.9096 83.5105C24.243 84.5461 25.483 85.3512 26.7996 85.3813C28.1563 85.4046 29.6196 84.7733 30.9463 83.5807C31.0863 83.4537 31.2363 83.3134 31.3896 83.1698C32.7163 81.9271 34.5363 80.2234 37.0063 80.7145C39.5296 81.2089 40.4996 83.4938 41.2096 85.1641C41.4263 85.6685 41.6263 86.1463 41.8463 86.5338C42.1896 87.1451 42.6896 87.6562 43.293 88.0136C43.8963 88.3711 44.583 88.5682 45.283 88.5782C45.9863 88.5882 46.6763 88.4145 47.2896 88.0738C47.903 87.733 48.4163 87.2353 48.7796 86.634C49.3496 85.6853 50.5796 85.3813 51.5263 85.9525C52.473 86.5237 52.7763 87.7564 52.2063 88.7052C51.483 89.9044 50.4563 90.8966 49.233 91.5781C48.043 92.2362 46.6996 92.5836 45.343 92.5836Z" fill="black"/>
<path d="M107.359 98.9878C106.339 98.9878 105.469 98.2095 105.369 97.1705C105.265 96.0681 106.072 95.0894 107.172 94.9858C108.332 94.8756 109.092 94.5014 109.972 94.0638C111.729 93.1952 113.715 92.2097 117.572 93.9636C118.462 94.1506 121.625 93.566 122.345 93.1551C123.355 92.5304 123.869 91.1508 124.465 89.5573C125.012 88.0908 125.632 86.4272 126.815 85.0709C127.852 83.885 129.169 83.1066 130.335 82.4252C131.539 81.7169 132.579 81.1056 133.109 80.2304C133.822 79.0478 133.619 77.4076 133.385 75.5068C133.232 74.2607 133.072 72.9713 133.155 71.6417C133.342 68.7321 134.662 66.1832 135.939 63.7178C137.392 60.9117 138.649 58.4864 137.992 56.1213C137.435 54.1069 135.615 52.6905 133.509 51.0536C132.149 49.9946 130.745 48.9023 129.572 47.536C127.939 45.6318 126.965 43.4204 126.019 41.2824C125.629 40.3971 125.259 39.5586 124.845 38.7469C121.005 31.1737 112.739 25.8588 104.272 25.5148C103.169 25.4713 102.309 24.536 102.355 23.4302C102.399 22.3245 103.339 21.466 104.435 21.5094C114.455 21.9136 123.869 27.9668 128.412 36.9296C128.872 37.8349 129.282 38.7636 129.679 39.6588C130.542 41.6164 131.359 43.4671 132.609 44.9236C133.515 45.9826 134.705 46.9079 135.962 47.8867C138.292 49.7007 140.932 51.7551 141.845 55.0456C142.925 58.9307 141.099 62.4551 139.489 65.5652C138.352 67.7599 137.279 69.8311 137.145 71.8989C137.085 72.851 137.215 73.9 137.352 75.0124C137.639 77.3207 137.962 79.9364 136.525 82.3082C135.469 84.052 133.815 85.0241 132.355 85.8793C131.365 86.4606 130.432 87.0084 129.822 87.71C129.119 88.5151 128.679 89.701 128.209 90.957C127.465 92.9547 126.622 95.2196 124.435 96.5726C122.992 97.4612 117.959 98.5569 115.965 97.6349C113.799 96.636 113.155 96.9567 111.742 97.6583C110.719 98.166 109.442 98.7974 107.549 98.9778C107.485 98.9845 107.422 98.9878 107.359 98.9878ZM117.639 93.9936C117.639 93.997 117.639 93.997 117.639 93.9936C117.639 93.997 117.639 93.997 117.639 93.9936Z" fill="black"/>
<path d="M55.3457 51.7033C55.3291 51.7033 55.3124 51.7033 55.2924 51.7033C54.1891 51.6766 53.3157 50.7546 53.3424 49.6489C53.4224 46.4653 56.6557 44.6847 59.6591 44.628C60.2924 44.6146 60.9024 44.6513 61.4924 44.6847C62.7457 44.7582 63.8291 44.8184 64.6657 44.4242C65.5157 44.0233 66.1757 43.0913 66.9357 42.0089C67.2591 41.5513 67.5891 41.0802 67.9624 40.6192C69.1957 39.0859 70.7157 37.8633 72.4757 36.9813C74.2357 36.1028 76.1257 35.6217 78.0891 35.5549C80.0557 35.4881 81.9724 35.8389 83.7857 36.5972C85.5991 37.3555 87.1991 38.4746 88.5324 39.9211C89.2824 40.7328 89.2324 42.0022 88.4224 42.7539C87.6124 43.5055 86.3457 43.4554 85.5957 42.6436C84.6524 41.6214 83.5257 40.833 82.2424 40.2985C80.9624 39.764 79.6057 39.5135 78.2224 39.5636C76.8357 39.6104 75.5024 39.9478 74.2591 40.5691C73.0157 41.1905 71.9457 42.0557 71.0724 43.138C70.7824 43.4988 70.4991 43.8997 70.2024 44.324C69.2524 45.6736 68.1757 47.2002 66.3691 48.0521C64.6157 48.8805 62.8357 48.777 61.2657 48.6868C60.7257 48.6567 60.2157 48.6266 59.7357 48.6367C58.4857 48.6601 57.3557 49.2781 57.3457 49.7491C57.3191 50.8381 56.4291 51.7033 55.3457 51.7033Z" fill="black"/>
<path d="M106.286 68.8179C106.246 68.8179 106.202 68.8179 106.162 68.8146C102.932 68.6175 98.4255 66.2757 96.3655 60.3194C95.2922 57.216 95.1255 54.0157 94.9622 50.919C94.9222 50.1273 94.8788 49.3122 94.8222 48.5205C94.7222 47.1575 94.5322 45.8046 93.8188 45.1164C93.0522 44.3781 91.5589 44.298 89.9722 44.2746C88.8689 44.2579 87.9855 43.3492 88.0022 42.2402C88.0189 41.1344 88.9289 40.2492 90.0322 40.2659C91.8589 40.2926 94.6222 40.3327 96.5888 42.2234C98.2822 43.8537 98.6655 46.172 98.8155 48.2298C98.8755 49.0583 98.9189 49.8968 98.9622 50.7086C99.1155 53.655 99.2622 56.441 100.149 59.0066C101.102 61.7659 103.409 64.6322 106.406 64.8159C107.509 64.8827 108.349 65.8314 108.282 66.9372C108.216 67.9995 107.332 68.8179 106.286 68.8179Z" fill="black"/>
<path d="M62.8099 62.5696C64.0986 62.5696 65.1432 61.2983 65.1432 59.7301C65.1432 58.1619 64.0986 56.8906 62.8099 56.8906C61.5212 56.8906 60.4766 58.1619 60.4766 59.7301C60.4766 61.2983 61.5212 62.5696 62.8099 62.5696Z" fill="black"/>
<path d="M74.1439 63.3548C75.4325 63.3548 76.4772 62.0835 76.4772 60.5153C76.4772 58.9471 75.4325 57.6758 74.1439 57.6758C72.8552 57.6758 71.8105 58.9471 71.8105 60.5153C71.8105 62.0835 72.8552 63.3548 74.1439 63.3548Z" fill="black"/>
<path d="M103.196 100.081C102.17 100.081 101.293 99.2927 101.206 98.2438C100.783 93.2128 101.76 90.9112 103.833 86.5818C104.593 85.0017 106.03 84.6542 106.89 84.4471C107.076 84.4003 107.253 84.3603 107.406 84.3101C108.2 84.0596 108.983 83.7723 109.74 83.4516C111.27 82.8169 112.706 81.9985 114.026 81.0163C116.686 79.0019 118.54 76.2927 119.226 73.3931C119.58 71.9332 120.06 68.3855 116.936 66.8054C115.573 66.1139 114.236 65.8433 110.573 69.0704C109.743 69.8019 108.48 69.7184 107.75 68.8866C107.02 68.0548 107.103 66.7887 107.933 66.0571C113.193 61.4237 116.233 61.9582 118.736 63.2243C122.616 65.1886 124.293 69.4412 123.113 74.3251C122.213 78.12 119.836 81.6377 116.423 84.22C114.83 85.4059 113.103 86.388 111.283 87.143C110.42 87.5071 109.516 87.8412 108.606 88.1251C108.33 88.212 108.063 88.2788 107.83 88.3356C107.683 88.3723 107.493 88.4157 107.37 88.4558C105.453 92.4645 104.86 93.9711 105.193 97.8997C105.286 99.0021 104.47 99.9709 103.37 100.064C103.31 100.078 103.253 100.081 103.196 100.081Z" fill="black"/>
<path d="M79.7126 103.036C78.6493 103.036 77.766 102.197 77.716 101.122C77.6093 98.7698 77.586 97.5873 77.6526 95.9738C73.646 96.7488 69.566 96.0372 66.4193 95.486C61.336 94.5874 57.386 92.7735 54.3426 89.9373C48.7493 84.716 46.1393 76.2509 47.1793 66.7068C47.5693 63.1691 49.0226 57.9043 51.0726 52.6229C51.4726 51.5906 52.6326 51.0795 53.6626 51.4804C54.6926 51.8813 55.2026 53.0438 54.8026 54.076C52.5293 59.9354 51.4293 64.669 51.156 67.1444C50.2526 75.4124 52.406 82.6515 57.0693 87.0009C59.5626 89.326 62.7526 90.7658 67.1093 91.5341C71.5626 92.3125 75.5393 92.8369 79.0526 91.3971C79.6893 91.1366 80.416 91.2234 80.976 91.6243C81.536 92.0285 81.8493 92.69 81.806 93.3781C81.5926 96.7388 81.556 97.4804 81.716 100.928C81.766 102.034 80.9126 102.972 79.8093 103.022C79.7726 103.036 79.7426 103.036 79.7126 103.036Z" fill="black"/>
</g>
<defs>
<clipPath id="clip0_805_33255">
<rect width="180" height="180" rx="24" fill="white"/>
</clipPath>
<clipPath id="clip1_805_33255">
<rect width="200" height="200.436" fill="white" transform="translate(-10 95.2734)"/>
</clipPath>
</defs>
</svg>
