<svg width="180" height="180" viewBox="0 0 180 180" fill="none" xmlns="http://www.w3.org/2000/svg">
<g clip-path="url(#clip0_805_38861)">
<rect width="180" height="180" rx="24" fill="white"/>
<g clip-path="url(#clip1_805_38861)">
<path d="M103.124 95.2734C103.424 98.6474 104.8 106.271 109.924 105.128L110.474 105.963C110.224 111.198 107.577 114.889 103.43 118.714C99.2171 122.539 93.8437 124.838 88.1737 125.242C83.1737 125.609 77.8571 124.41 74.1171 121.049C70.3771 117.689 68.4104 113.032 70.8871 109.04H71.2471C72.3737 109.073 73.4104 108.482 74.3637 107.881C75.5771 107.113 78.0804 103.962 78.8304 103.057C79.8304 101.758 80.2371 96.8302 80.7504 95.2734H103.124V95.2734Z" fill="#FFD39F"/>
<path d="M110.754 103.328C116.65 104.912 121.224 109.465 124.907 114.125C128.924 119.219 132.077 124.942 134.24 131.062C135.45 134.476 137.364 138.324 138.154 141.859L139.207 145.069C144.874 169.562 145.92 194.817 146.3 220.005L146.634 220.814C148.667 228.347 156.334 247.388 158 255.405C158.054 256.09 157.94 256.778 157.667 257.41C154.334 261.418 148.667 260.416 144.284 261.776L128.794 264.869C106.624 268.855 98.7071 271.831 76.5004 268.08L75.5004 267.829C74.0404 255.522 72.9637 242.735 72.3404 229.85L72.1871 230.518C70.0837 242.838 68.1137 254.236 67.7004 266.727L67.6371 267.258C62.8604 266.343 48.4204 263.754 43.6371 262.838C42.3437 262.588 40.9237 262.26 40.1671 261.168C39.5404 260.273 39.5437 259.093 39.5904 258.001C39.7804 253.658 40.2804 249.346 40.7804 245.033L43.0671 225.293H42.8937C39.5071 224.882 36.7871 224.471 33.4004 224.061C34.8037 208.54 36.6037 193.063 38.8004 177.626C40.7137 164.18 42.9337 150.731 46.8804 137.74C50.3871 126.194 59.6171 110.915 70.1804 105.125L76.7571 106.178C81.0904 110.494 88.3804 111.409 93.6271 108.292L110.754 103.328Z" fill="black"/>
<path fill-rule="evenodd" clip-rule="evenodd" d="M75.6928 158.258L75.9528 108.781C75.9528 106.846 76.3328 100.065 76.9228 99.1263C72.5895 101.973 69.9461 106.689 67.4528 111.226C66.0228 113.828 64.5461 116.618 64.7428 119.577C64.888 121.793 65.9392 123.776 66.9936 125.766C67.9486 127.567 68.9062 129.374 69.1961 131.363C69.5987 134.124 68.6756 136.782 67.745 139.462C67.0497 141.464 66.3501 143.479 66.1961 145.557C66.0128 148.163 67.0328 153.909 67.7161 156.441L72.6961 174.868L72.5261 191.667C78.3128 179.575 85.0728 167.973 92.7428 156.982C95.1295 153.555 97.7428 149.746 97.2295 145.597C97.1167 144.694 96.8599 143.788 96.6044 142.887C96.1044 141.124 95.6094 139.378 96.2095 137.7C96.5961 136.618 97.3995 135.746 98.1795 134.904L109.449 122.791C110.219 121.963 111.013 121.094 111.349 120.012C111.729 118.776 111.459 117.443 111.186 116.177L107.753 100.322C107.449 98.9225 106.866 97.2389 105.453 97.0117C102.063 99.2499 99.0528 102.587 96.4161 106.081C94.72 108.332 93.1577 110.657 91.7142 113.046L93.6262 108.293C88.3796 111.41 81.0896 110.494 76.7562 106.178V150.227L78.9952 144.662C77.7732 149.278 76.7152 153.958 75.7495 158.652L75.6928 158.258ZM32.9629 232.035C33.1629 229.543 33.3829 226.991 34.4496 224.733L42.6129 225.625L41.7096 233.372C38.7462 233.351 35.7996 232.9 32.9629 232.035ZM118.576 239.618C118.393 237.016 118.566 234.404 119.086 231.848L143.666 232.209L143.913 238.366C143.933 239.101 143.883 239.989 143.246 240.353C142.933 240.497 142.59 240.557 142.246 240.53L119.58 240.594C119.336 240.624 119.09 240.567 118.88 240.44C118.776 240.33 118.696 240.2 118.643 240.059C118.593 239.919 118.57 239.769 118.576 239.618Z" fill="white"/>
<path fill-rule="evenodd" clip-rule="evenodd" d="M76.179 270.055C83.5024 271.295 89.299 271.813 94.549 271.813C103.026 271.813 110.082 270.46 119.849 268.582L120.637 268.432C123.169 267.948 125.796 267.445 128.714 266.918C130.508 268.298 132.619 269.026 134.946 269.026C135.192 269.026 135.439 269.02 135.679 269C139.209 268.765 142.279 266.843 144.338 263.781C144.516 263.776 144.694 263.746 144.872 263.688C146.116 263.301 147.539 263.124 149.046 262.937C152.512 262.506 156.439 262.015 159.202 258.691C159.326 258.544 159.426 258.38 159.502 258.203C159.899 257.278 160.069 256.255 159.992 255.25C159.986 255.166 159.972 255.079 159.956 254.996C158.973 250.26 156.084 242.154 153.283 234.297L153.252 234.211L153.19 234.036C151.233 228.545 149.39 223.374 148.556 220.29C148.502 220.092 148.42 219.909 148.316 219.744C148.065 195.344 147.469 172.037 141.786 147.482C141.536 146.403 140.462 145.732 139.386 145.982C138.309 146.233 137.639 147.308 137.889 148.387C143.899 174.361 144.129 199.104 144.369 225.301L144.37 225.371L144.37 225.374C144.383 226.914 144.396 228.459 144.412 230.012L119.176 229.597C115.426 200.234 114.132 170.362 115.329 140.791C115.376 139.685 114.516 138.75 113.412 138.706C112.306 138.666 111.376 139.522 111.332 140.627C110.102 171.003 111.482 201.687 115.432 231.832C115.535 232.611 116.075 233.237 116.785 233.474C116.507 235.524 116.438 237.598 116.576 239.666C116.572 240.037 116.639 240.401 116.769 240.758C116.916 241.156 117.139 241.513 117.429 241.821C117.444 241.836 117.459 241.851 117.474 241.865C117.488 241.879 117.502 241.893 117.517 241.906C116.305 242.822 115.301 243.996 114.859 245.408C114.476 246.628 114.359 248.525 115.959 250.63C117.442 252.584 119.489 253.756 121.296 254.789L121.512 254.913L121.551 254.936C121.819 255.089 122.086 255.243 122.349 255.4C122.842 255.695 123.382 257.664 123.617 258.526L123.622 258.544C123.786 259.145 123.942 259.709 124.126 260.221C124.552 261.392 125.058 262.457 125.637 263.409C123.29 263.843 121.099 264.262 119.099 264.647L119.093 264.648C103.874 267.567 95.43 269.186 77.3357 266.184C75.9973 254.632 75.0257 242.845 74.4305 231.133L74.4857 230.813C74.5525 230.423 74.5019 230.039 74.3595 229.699C73.7619 217.307 73.5868 205.013 73.8457 193.188C74.0457 193.015 74.2157 192.797 74.339 192.54C80.059 180.581 86.8057 169.006 94.3924 158.135C96.8124 154.661 99.8257 150.335 99.2257 145.364C99.0957 144.295 98.8124 143.29 98.5357 142.318C98.099 140.778 97.7224 139.448 98.1024 138.382C98.3493 137.686 98.9996 136.983 99.629 136.303L99.6524 136.278L110.922 124.165L110.928 124.159C111.76 123.261 112.797 122.144 113.269 120.61C113.814 118.844 113.432 117.074 113.152 115.775L113.149 115.76L110.919 105.466C116.406 107.218 120.612 111.924 123.336 115.369C127.226 120.3 130.259 125.805 132.352 131.735C132.789 132.961 133.312 134.247 133.819 135.489L133.833 135.525C134.762 137.805 135.721 140.161 136.199 142.298C136.409 143.23 137.232 143.864 138.149 143.864C138.296 143.864 138.442 143.848 138.589 143.814C139.666 143.57 140.342 142.498 140.102 141.419C139.549 138.944 138.519 136.415 137.522 133.97C137.009 132.713 136.526 131.528 136.122 130.392C133.882 124.048 130.636 118.158 126.472 112.88C123.282 108.845 118.236 103.263 111.269 101.392C110.85 101.279 110.427 101.309 110.05 101.45L109.716 99.9088C109.092 96.9992 107.766 95.3623 105.776 95.0416C105.282 94.9614 104.776 95.0683 104.359 95.3456C101.222 97.4134 98.1057 100.534 94.8257 104.88C94.4737 105.347 94.1274 105.817 93.7867 106.29C93.3985 106.265 92.9989 106.353 92.6391 106.567C88.3819 109.098 82.3636 108.465 78.6483 105.178C79.0021 103.903 79.4016 102.738 79.6157 102.367C80.119 101.569 79.9957 100.53 79.3257 99.8687C78.6557 99.2072 77.6157 99.1037 76.829 99.6215C74.906 100.885 73.133 102.091 71.5276 103.407C71.304 103.442 71.0824 103.515 70.8723 103.63C59.2456 110.004 48.389 125.995 44.999 137.156C40.9856 150.368 38.7123 164.279 36.8523 177.344C34.6623 192.737 32.839 208.391 31.439 223.882C31.3822 224.494 31.6081 225.069 32.0106 225.476C31.4652 227.152 31.2365 228.873 31.0853 230.503C27.6901 232.006 25.9551 235.03 26.7424 238.186C26.8324 238.54 27.0124 238.861 27.2691 239.118C30.5091 242.368 30.1524 247.222 29.8057 251.916L29.7988 252.007L29.7988 252.008L29.7988 252.008L29.7988 252.008L29.7988 252.008L29.7988 252.008C29.7578 252.551 29.7173 253.088 29.6857 253.613C29.6657 253.94 29.7257 254.268 29.8624 254.568C30.6924 256.399 32.0157 257.956 33.6857 259.071C34.9394 259.913 36.3495 260.475 37.8254 260.73C37.9697 261.283 38.2006 261.829 38.5623 262.345C39.8038 264.116 41.8829 264.542 43.2861 264.829L43.2923 264.831C45.436 265.24 49.559 265.993 53.8031 266.768L53.8156 266.77L55.5057 267.079C56.4067 267.244 57.3139 267.41 58.208 267.573L58.2086 267.573L58.2124 267.574C61.918 268.251 65.3997 268.887 67.2923 269.25C67.4157 269.274 67.539 269.287 67.6657 269.287C68.0857 269.287 68.5023 269.153 68.849 268.896C69.299 268.569 69.589 268.068 69.6557 267.516L69.719 266.985C69.7257 266.929 69.729 266.872 69.7323 266.815C69.9427 260.456 70.6364 254.365 71.5497 248.263C72.0902 254.906 72.7495 261.525 73.5257 268.064C73.6224 268.889 74.219 269.571 75.0257 269.771L76.0257 270.022C76.0686 270.033 76.1139 270.042 76.1575 270.051L76.179 270.055ZM63.6928 114.351C56.8409 121.387 51.0534 130.981 48.8223 138.322C45.1056 150.552 42.9323 162.993 40.809 177.908C38.719 192.594 36.9656 207.523 35.599 222.311C36.4228 222.418 37.2162 222.524 37.9948 222.629L37.9983 222.629L38.0007 222.629L38.4456 222.689C39.3839 222.815 40.3432 222.943 41.3433 223.072L42.769 210.753L42.7721 210.726C45.5311 186.903 48.3844 162.265 53.979 138.476C54.2323 137.4 55.309 136.732 56.3857 136.986C57.459 137.24 58.1257 138.319 57.8723 139.398C52.3296 162.967 49.4896 187.491 46.7432 211.207L46.7423 211.214L42.799 245.288C42.3123 249.491 41.809 253.84 41.619 258.113C41.5957 258.644 41.5523 259.639 41.8357 260.04C42.1637 260.505 43.2955 260.739 44.0554 260.896L44.0557 260.896L44.069 260.899C46.4226 261.35 51.285 262.237 56.0224 263.1L56.0264 263.101L56.2223 263.137C59.6857 263.768 63.239 264.416 65.8057 264.894C66.2923 254.518 67.9723 244.891 69.7457 234.729C69.8388 234.191 69.9327 233.653 70.0269 233.113C70.1545 232.381 70.2827 231.646 70.4098 230.908C69.4436 211.61 69.493 192.522 70.6024 175.012C70.6066 174.959 70.6121 174.906 70.6199 174.853L65.7857 156.966C65.1023 154.437 63.989 148.418 64.2023 145.418C64.3757 143.069 65.129 140.901 65.859 138.803L65.8611 138.797C66.7303 136.294 67.5521 133.928 67.219 131.654C66.979 130.008 66.129 128.404 65.229 126.707L65.2211 126.692C64.0902 124.555 62.9219 122.348 62.749 119.708C62.6211 117.798 63.0502 116.002 63.6928 114.351ZM74.6956 174.824L74.8557 173.99L74.8559 173.989C78.9292 151.731 83.5459 126.503 98.0157 107.292C100.602 103.861 103.039 101.295 105.422 99.4912C105.539 99.7618 105.676 100.159 105.802 100.751L109.236 116.605L109.24 116.624C109.446 117.582 109.677 118.661 109.442 119.425C109.241 120.079 108.617 120.752 108.01 121.406L107.989 121.429L96.7157 133.545L96.6977 133.565C95.874 134.457 94.8519 135.564 94.329 137.03C93.5157 139.304 94.1357 141.489 94.6824 143.413C94.929 144.275 95.159 145.087 95.249 145.845C95.6657 149.296 93.2457 152.774 91.109 155.84C84.859 164.8 79.1657 174.23 74.1357 183.958C74.2567 181.124 74.4033 178.321 74.5756 175.557C74.6599 175.326 74.7021 175.077 74.6956 174.824ZM72.3082 165.772L69.6457 155.921C68.9523 153.348 68.0323 147.923 68.189 145.708C68.3222 143.893 68.9578 142.064 69.6304 140.128L69.6323 140.123L69.634 140.118C70.6235 137.267 71.6454 134.322 71.1723 131.077C70.8328 128.748 69.7786 126.759 68.7599 124.838L68.7557 124.83L68.7391 124.798C67.7686 122.963 66.8517 121.228 66.7357 119.448C66.5857 117.163 67.7123 114.908 69.2023 112.195C70.5157 109.807 72.1957 108.013 74.2523 106.353C74.069 107.275 73.9523 108.127 73.9523 108.771L73.6923 158.249C73.6917 158.36 73.7002 158.47 73.7171 158.577C73.2235 160.991 72.7574 163.392 72.3082 165.772ZM77.7804 141.502C80.6837 131.172 84.5362 121.019 90.1543 111.779C89.0277 112.022 87.8751 112.142 86.7224 112.142C83.6434 112.142 80.5552 111.29 77.9478 109.645L77.7804 141.502ZM35.1023 230.546C35.2451 229.113 35.4579 227.693 35.9233 226.403C36.5586 226.486 37.1794 226.569 37.792 226.651L37.8022 226.653L37.8065 226.653L37.8105 226.654L37.8142 226.654L37.9123 226.668L38.4833 226.744C39.2619 226.848 40.057 226.953 40.8818 227.06L40.3879 231.328C38.6057 231.234 36.8359 230.971 35.1023 230.546ZM32.8736 234.1C35.176 234.763 37.5389 235.172 39.9263 235.317L38.8257 244.827L38.8118 244.947C38.3732 248.746 37.9213 252.659 37.6946 256.584C37.0645 256.392 36.4631 256.108 35.9091 255.737C34.9924 255.123 34.2391 254.298 33.7157 253.329C33.7306 253.093 33.7481 252.858 33.7657 252.621C33.7758 252.484 33.786 252.348 33.7957 252.21L33.7961 252.205C34.1561 247.315 34.6009 241.271 30.5591 236.77C30.4989 235.244 32.2074 234.379 32.8736 234.1ZM123.69 242.584C123.491 243.158 123.035 243.636 122.412 243.835C120.559 244.433 118.986 245.599 118.672 246.604C118.612 246.795 118.456 247.302 119.139 248.201C120.12 249.495 121.63 250.363 123.23 251.282L123.276 251.308C123.649 251.522 124.022 251.735 124.389 251.953C126.276 253.078 126.942 255.524 127.476 257.485C127.616 258.002 127.752 258.493 127.879 258.848C128.956 261.807 131.149 265.285 135.422 265.001C138.236 264.814 141.636 262.693 142.752 257.294C143.608 253.157 142.837 248.702 142.092 244.391L142.089 244.376C141.996 243.848 141.907 243.324 141.817 242.799L141.817 242.798L141.816 242.789C141.801 242.703 141.793 242.618 141.789 242.533L123.69 242.584ZM145.276 241.119C145.521 241.392 145.694 241.736 145.759 242.125C145.833 242.567 145.909 243.01 145.985 243.455L145.985 243.456L145.986 243.46L146.026 243.691L146.029 243.708C146.838 248.387 147.674 253.225 146.662 258.106C146.581 258.497 146.489 258.881 146.385 259.257C147.111 259.141 147.839 259.05 148.556 258.961L148.559 258.961H148.56C151.561 258.587 154.166 258.262 155.922 256.366C155.989 256.142 156.019 255.905 156.012 255.671C155.049 251.154 152.096 242.873 149.486 235.56L149.446 235.448L149.446 235.448C149.088 234.445 148.734 233.452 148.389 232.479C148.308 232.851 148.12 233.196 147.846 233.469C147.472 233.843 146.962 234.054 146.436 234.054H146.402L145.739 234.043L145.909 238.283C145.924 238.809 145.958 240.085 145.276 241.119ZM141.734 233.977L120.804 233.632C120.558 235.271 120.466 236.93 120.526 238.587L141.919 238.527C141.919 238.493 141.919 238.457 141.916 238.42L141.734 233.977Z" fill="black"/>
</g>
<path fill-rule="evenodd" clip-rule="evenodd" d="M93.1494 35.4035C96.4361 32.1598 98.5361 27.9306 100.573 23.7849C105.533 13.6896 92.6661 8.67541 85.0227 8.34469C68.8727 7.63982 52.7294 17.3209 45.7294 31.9226C45.4037 32.6018 45.0823 33.303 44.7574 34.012C42.5779 38.7673 40.2364 43.8761 35.3427 45.0912C34.6434 45.2655 33.9157 45.3458 33.1905 45.4258C32.0109 45.556 30.8382 45.6854 29.8061 46.217C28.1394 47.0756 27.2094 49.7881 28.8061 50.7903C29.3394 51.0676 29.9327 51.2146 30.5327 51.2179L38.3027 51.866C37.5361 54.6153 37.6027 58.7175 40.4327 59.0282C41.6294 59.1585 42.7327 58.4202 43.6661 57.6586C44.5002 56.9751 45.5389 56.3264 46.6063 55.6599C48.5545 54.4433 50.5979 53.1672 51.6661 51.5119C52.6364 50.0072 53.0771 48.2787 53.5138 46.5662C54.0447 44.4842 54.5696 42.4258 56.0327 40.822C60.3327 36.1451 67.556 34.4247 73.4927 36.7063C74.4508 37.0671 75.3741 37.522 76.2966 37.9765C77.6979 38.6669 79.0971 39.3563 80.6127 39.7129C85.1027 40.7685 89.8627 38.6472 93.1494 35.4035ZM127.389 33.8234C123.529 26.1634 111.073 20.8519 102.499 20.9454C102.499 20.9454 96.2127 32.691 94.3327 34.9759C91.7693 38.1061 83.666 41.3231 83.666 41.3231C85.2445 42.0532 87.0883 42.3843 89.0484 42.7364C92.4691 43.3508 96.2438 44.0288 99.5793 47.0021C102.243 50.0387 103.439 54.2177 103.199 58.2532C103.165 58.8336 103.102 59.4164 103.04 59.9992C102.873 61.5567 102.706 63.1141 103.073 64.6237C103.576 66.6982 105.589 68.6391 107.643 68.0745L123.723 77.5952C124.129 79.6397 126.843 80.0305 128.509 78.9315C130.176 77.8324 130.959 75.8013 131.386 73.8471C131.419 73.6973 131.451 73.5459 131.482 73.3939C131.735 72.1859 131.998 70.9338 132.886 70.0822C133.861 69.1231 135.243 68.9745 136.645 68.8237C137.791 68.7004 138.951 68.5756 139.913 68.0044C142.363 66.5512 142.386 62.8432 140.983 60.3611C140.12 58.8347 138.886 57.5825 137.649 56.3271C136.875 55.541 136.099 54.7537 135.413 53.8971C132.746 50.5679 131.57 46.4402 130.386 42.2881C129.56 39.3908 128.731 36.4815 127.389 33.8234Z" fill="black"/>
<path d="M80.6127 39.7066C78.0994 39.1153 75.906 37.6087 73.4927 36.7001C67.556 34.4251 60.3327 36.1455 56.0327 40.8223L53.3327 52.8485C51.3327 55.855 50.9994 59.5297 49.9994 63.2043C49.9994 64.26 45.946 78.5176 55.3327 87.9247C58.666 91.2653 62.9994 92.6016 67.4994 93.6038C71.536 94.2284 75.946 94.8565 79.8327 93.2697C79.6094 96.7473 79.576 99.2293 79.736 102.71L103.236 100.285C102.853 95.715 103.693 91.6027 105.676 87.4671C106.123 86.5317 107.093 86.5417 108.049 86.2377C108.896 85.9705 109.736 85.6632 110.556 85.3157C112.226 84.6209 113.803 83.7223 115.256 82.6433C118.129 80.4685 120.366 77.4152 121.209 73.8742C121.973 70.6639 121.436 66.8422 117.859 65.035C115.353 63.7656 113.103 64.2165 109.279 67.5839L107.633 68.0916C105.579 68.6562 103.566 66.7153 103.063 64.6408C102.559 62.5663 103.063 60.4016 103.189 58.2703C103.429 54.2348 102.233 50.0558 99.5694 47.0192C96.906 43.9825 92.726 42.2287 88.7394 42.8467" fill="#FFD39F"/>
<path fill-rule="evenodd" clip-rule="evenodd" d="M40.7195 61.0513C40.5561 61.0513 40.3861 61.0413 40.2161 61.0246C38.8561 60.8743 37.7361 60.1962 36.9695 59.0637C35.9728 57.5872 35.7595 55.5661 35.9395 53.6853L30.4361 53.2277C29.5495 53.211 28.6661 52.9838 27.8795 52.5729C27.8328 52.5495 27.7861 52.5228 27.7428 52.4927C26.5628 51.7511 25.9195 50.4817 25.9828 49.0052C26.0595 47.1578 27.2561 45.2804 28.8895 44.4386C30.2344 43.7448 31.6642 43.5836 32.9272 43.4412L32.9695 43.4364C33.6495 43.3629 34.2895 43.2894 34.8595 43.1491C38.8169 42.1676 40.9101 37.6029 42.9355 33.186L42.9395 33.1774L43.0419 32.9544C43.3372 32.3114 43.6303 31.673 43.9261 31.0561C51.2561 15.7662 68.1961 5.60414 85.1095 6.34242C90.1961 6.5629 98.9828 8.95142 102.343 14.6338C103.579 16.7216 104.586 20.1591 102.369 24.6723C100.383 28.7211 98.1261 33.3077 94.5561 36.832C90.4095 40.9243 84.8928 42.7783 80.1595 41.6659C78.4502 41.2647 76.9443 40.5271 75.4862 39.8128L75.4861 39.8127L75.4161 39.7784L75.384 39.7626L75.3839 39.7626C74.4925 39.3241 73.6492 38.9093 72.7928 38.5858C67.6595 36.6116 61.2361 38.1282 57.5061 42.1837C56.4408 43.3514 56.0737 45.1657 55.6842 47.0906L55.6828 47.0977L55.6776 47.1231C55.3561 48.7102 55.0259 50.3398 54.2875 51.8748C54.8771 52.4172 55.1066 53.2868 54.7994 54.0795C52.5261 59.9389 51.4261 64.6725 51.1528 67.1479C50.2495 75.4159 52.4028 82.655 57.0661 87.0044C59.5594 89.3295 62.7495 90.7693 67.1061 91.5376C71.5595 92.316 75.5328 92.8404 79.0494 91.4007C79.6861 91.1401 80.4128 91.2269 80.9728 91.6278C81.5328 92.0287 81.8461 92.6935 81.8028 93.3816C81.5895 96.7423 81.5528 97.4839 81.7128 100.931C81.7628 102.037 80.9095 102.976 79.8061 103.026C79.7728 103.039 79.7428 103.039 79.7095 103.039C78.6461 103.039 77.7628 102.201 77.7128 101.125C77.6061 98.7734 77.5828 97.5908 77.6495 95.9773C73.6428 96.7523 69.5628 96.0407 66.4161 95.4895C61.3328 94.5909 57.3828 92.777 54.3395 89.9408C48.7461 84.7195 46.1361 76.2544 47.1761 66.7103C47.4728 64.0194 48.3846 60.3292 49.7063 56.3926C49.1359 56.7267 48.5511 57.0439 47.9713 57.3584L47.9561 57.3667L47.9412 57.3748L47.9411 57.3748C46.7866 57.9998 45.6928 58.592 44.9361 59.214C43.8628 60.0859 42.4428 61.0513 40.7195 61.0513ZM29.9828 49.1221C30.1628 49.1822 30.3528 49.2156 30.5428 49.2156C30.5931 49.2156 30.6404 49.2186 30.6903 49.2217H30.6904H30.6905H30.6906L30.6995 49.2223L38.4695 49.8704C39.0628 49.9205 39.6061 50.2312 39.9461 50.7222C40.2861 51.2133 40.3895 51.8313 40.2295 52.4059C39.7495 54.123 39.7761 56.0605 40.2861 56.8155C40.3895 56.9691 40.4695 57.0159 40.6528 57.036C41.1882 57.0948 42.0689 56.3783 42.3868 56.1196L42.4061 56.1039C43.4595 55.2421 44.7761 54.5272 46.0528 53.8357L46.07 53.8263C47.8013 52.8872 49.5886 51.9177 50.3228 50.7757C51.0995 49.5697 51.4228 47.9796 51.7628 46.2959C52.2195 44.031 52.7395 41.4621 54.5595 39.4678C59.4361 34.1629 67.5161 32.2588 74.2128 34.8344C75.2469 35.2243 76.228 35.7072 77.1759 36.1739L77.1759 36.1739L77.1828 36.1773L77.1948 36.1832C78.527 36.8391 79.7833 37.4576 81.0728 37.7607C85.1461 38.7161 89.2595 36.4312 91.7495 33.9758C94.8349 30.9304 96.8369 26.8591 98.7742 22.9192L98.7828 22.9018C99.9428 20.5399 99.9828 18.5022 98.9061 16.6782C96.7295 13.0002 90.0995 10.5716 84.9428 10.3478C69.5695 9.67633 54.1961 18.9064 47.5395 32.7899C47.2256 33.4452 46.9149 34.123 46.6012 34.8076L46.6012 34.8076L46.6011 34.8077L46.6011 34.8079L46.5828 34.8477C44.2761 39.882 41.6595 45.5877 35.8328 47.0342C35.0264 47.2362 34.2391 47.3238 33.477 47.4086H33.477L33.4195 47.415L33.4115 47.4159L33.4115 47.4159C32.3944 47.5292 31.431 47.6365 30.7295 47.9963C30.3061 48.2168 30.0161 48.8047 29.9828 49.1221ZM104.269 69.4396C105.109 69.9373 106.019 70.1912 106.923 70.1912C107.343 70.1912 107.759 70.1344 108.163 70.0275C108.49 69.9383 108.777 69.7729 109.008 69.5556C109.555 69.6233 110.126 69.4657 110.573 69.0721C114.236 65.8451 115.573 66.1157 116.936 66.8072C120.06 68.3873 119.58 71.935 119.226 73.3948C118.54 76.2911 116.686 79.0037 114.026 81.0181C112.706 82.0002 111.27 82.8187 109.74 83.4534C108.983 83.7741 108.2 84.0614 107.406 84.3119C107.285 84.3514 107.15 84.3847 107.006 84.42L107.004 84.4204C106.967 84.4297 106.928 84.4392 106.89 84.4489C106.03 84.656 104.593 85.0034 103.833 86.5835C101.76 90.9096 100.783 93.2146 101.206 98.2455C101.293 99.2911 102.17 100.083 103.196 100.083C103.253 100.083 103.31 100.08 103.37 100.066C104.47 99.976 105.286 99.0038 105.193 97.9014C104.86 93.9729 105.453 92.4663 107.37 88.4576C107.464 88.4268 107.598 88.3941 107.722 88.3639L107.723 88.3637C107.76 88.3546 107.796 88.3458 107.83 88.3373C108.063 88.2805 108.33 88.2137 108.606 88.1269C109.516 87.8429 110.42 87.5089 111.283 87.1447C113.103 86.3898 114.83 85.4076 116.423 84.2217C118.711 82.4904 120.534 80.3387 121.758 77.9649L121.763 77.9915C122.043 79.4146 122.996 80.5604 124.369 81.135C125.019 81.4056 125.733 81.5392 126.449 81.5392C127.556 81.5392 128.679 81.2219 129.603 80.6039C131.449 79.3845 132.669 77.3134 133.333 74.2734L133.433 73.8024L133.436 73.7863C133.635 72.8402 133.822 71.9492 134.279 71.5108C134.756 71.0401 135.725 70.9363 136.847 70.8162L136.849 70.8159C138.133 70.679 139.589 70.5219 140.923 69.7302C142.616 68.728 143.663 66.9642 143.876 64.7628C144.049 62.9522 143.629 60.9879 142.716 59.3744C141.724 57.6185 140.375 56.2496 139.069 54.9243L139.066 54.9214C138.306 54.1497 137.589 53.4214 136.966 52.6464C134.553 49.6332 133.459 45.8015 132.303 41.7427L132.295 41.7158C131.458 38.7778 130.592 35.7411 129.169 32.9235C124.936 24.5219 116.416 19.1302 107.413 19.1302H107.166C106.063 19.1402 105.176 20.0489 105.189 21.1546C105.203 22.2537 106.096 23.1356 107.189 23.1356H107.213H107.416C114.923 23.1356 122.046 27.6654 125.603 34.7275C126.859 37.2162 127.639 39.9455 128.463 42.8384C129.676 47.101 130.933 51.5073 133.853 55.1519C134.601 56.0852 135.426 56.922 136.221 57.7288L136.226 57.7341L136.242 57.7499C137.409 58.9367 138.513 60.0582 139.243 61.3487C140.166 62.9856 140.216 65.4944 138.893 66.2794C138.308 66.629 137.402 66.7264 136.442 66.8296L136.433 66.8306L136.429 66.831C134.883 66.9979 132.958 67.2058 131.506 68.6345C130.17 69.9172 129.813 71.6174 129.526 72.9836L129.526 72.984C129.496 73.131 129.466 73.2779 129.433 73.4216C129.003 75.3892 128.339 76.6453 127.409 77.2599C126.993 77.5339 126.336 77.6107 125.913 77.4336C125.716 77.3501 125.699 77.2733 125.686 77.2065C125.469 76.1208 124.416 75.4159 123.333 75.6331C123.081 75.6834 122.851 75.779 122.647 75.9095C122.831 75.3887 122.986 74.8605 123.113 74.3269C124.293 69.4429 122.616 65.1903 118.736 63.2261C116.236 61.96 113.193 61.4255 107.933 66.0589C107.916 66.0735 107.9 66.0883 107.884 66.1033C107.634 66.0724 107.374 66.0888 107.116 66.1591L107.114 66.1596C107.023 66.1834 106.75 66.2543 106.306 65.9921C105.709 65.638 105.189 64.9064 105.013 64.1715C104.729 62.9956 104.873 61.6527 105.026 60.2262L105.031 60.1785C105.093 59.5986 105.157 58.9969 105.193 58.3889C105.476 53.6252 103.976 48.9985 101.079 45.6946C97.5095 41.6225 93.4961 41.6058 89.6928 42.1937C88.5995 42.3607 87.8528 43.3863 88.0195 44.4787C88.1861 45.5744 89.2095 46.3227 90.2995 46.1556C94.1061 45.5677 96.1428 46.1389 98.0728 48.3404C100.283 50.8559 101.419 54.4303 101.199 58.1484C101.173 58.6256 101.122 59.1081 101.069 59.615L101.069 59.6151L101.069 59.6154L101.049 59.7986L101.046 59.83C100.867 61.524 100.682 63.2742 101.126 65.1102C101.563 66.9108 102.736 68.5309 104.269 69.4396ZM62.8095 62.5713C64.0982 62.5713 65.1429 61.3 65.1429 59.7318C65.1429 58.1636 64.0982 56.8923 62.8095 56.8923C61.5209 56.8923 60.4762 58.1636 60.4762 59.7318C60.4762 61.3 61.5209 62.5713 62.8095 62.5713ZM74.1429 63.3564C75.4316 63.3564 76.4762 62.0851 76.4762 60.5169C76.4762 58.9486 75.4316 57.6774 74.1429 57.6774C72.8542 57.6774 71.8096 58.9486 71.8096 60.5169C71.8096 62.0851 72.8542 63.3564 74.1429 63.3564Z" fill="black"/>
</g>
<defs>
<clipPath id="clip0_805_38861">
<rect width="180" height="180" rx="24" fill="white"/>
</clipPath>
<clipPath id="clip1_805_38861">
<rect width="200" height="200.436" fill="white" transform="translate(-10 95.2734)"/>
</clipPath>
</defs>
</svg>
