<svg width="180" height="180" viewBox="0 0 180 180" fill="none" xmlns="http://www.w3.org/2000/svg">
<g clip-path="url(#clip0_805_37333)">
<rect width="180" height="180" rx="24" fill="white"/>
<g clip-path="url(#clip1_805_37333)">
<path d="M103.124 95.2734C103.424 98.6474 104.8 106.271 109.924 105.128L110.474 105.963C110.224 111.198 107.577 114.889 103.43 118.714C99.2171 122.539 93.8437 124.838 88.1737 125.242C83.1737 125.609 77.8571 124.41 74.1171 121.049C70.3771 117.689 68.4104 113.032 70.8871 109.04H71.2471C72.3737 109.073 73.4104 108.482 74.3637 107.881C75.5771 107.113 78.0804 103.962 78.8304 103.057C79.8304 101.758 80.2371 96.8302 80.7504 95.2734H103.124V95.2734Z" fill="#FFD39F"/>
<path d="M110.754 103.328C116.65 104.912 121.224 109.465 124.907 114.125C128.924 119.219 132.077 124.942 134.24 131.062C135.45 134.476 137.364 138.324 138.154 141.859L139.207 145.069C144.874 169.562 145.92 194.817 146.3 220.005L146.634 220.814C148.667 228.347 156.334 247.388 158 255.405C158.054 256.09 157.94 256.778 157.667 257.41C154.334 261.418 148.667 260.416 144.284 261.776L128.794 264.869C106.624 268.855 98.7071 271.831 76.5004 268.08L75.5004 267.829C74.0404 255.522 72.9637 242.735 72.3404 229.85L72.1871 230.518C70.0837 242.838 68.1137 254.236 67.7004 266.727L67.6371 267.258C62.8604 266.343 48.4204 263.754 43.6371 262.838C42.3437 262.588 40.9237 262.26 40.1671 261.168C39.5404 260.273 39.5437 259.093 39.5904 258.001C39.7804 253.658 40.2804 249.346 40.7804 245.033L43.0671 225.293H42.8937C39.5071 224.882 36.7871 224.471 33.4004 224.061C34.8037 208.54 36.6037 193.063 38.8004 177.626C40.7137 164.18 42.9337 150.731 46.8804 137.74C50.3871 126.194 59.6171 110.915 70.1804 105.125L76.7571 106.178C81.0904 110.494 88.3804 111.409 93.6271 108.292L110.754 103.328Z" fill="black"/>
<path fill-rule="evenodd" clip-rule="evenodd" d="M75.6928 158.258L75.9528 108.781C75.9528 106.846 76.3328 100.065 76.9228 99.1263C72.5895 101.973 69.9461 106.689 67.4528 111.226C66.0228 113.828 64.5461 116.618 64.7428 119.577C64.888 121.793 65.9392 123.776 66.9936 125.766C67.9486 127.567 68.9062 129.374 69.1961 131.363C69.5987 134.124 68.6756 136.782 67.745 139.462C67.0497 141.464 66.3501 143.479 66.1961 145.557C66.0128 148.163 67.0328 153.909 67.7161 156.441L72.6961 174.868L72.5261 191.667C78.3128 179.575 85.0728 167.973 92.7428 156.982C95.1295 153.555 97.7428 149.746 97.2295 145.597C97.1167 144.694 96.8599 143.788 96.6044 142.887C96.1044 141.124 95.6094 139.378 96.2095 137.7C96.5961 136.618 97.3995 135.746 98.1795 134.904L109.449 122.791C110.219 121.963 111.013 121.094 111.349 120.012C111.729 118.776 111.459 117.443 111.186 116.177L107.753 100.322C107.449 98.9225 106.866 97.2389 105.453 97.0117C102.063 99.2499 99.0528 102.587 96.4161 106.081C94.72 108.332 93.1577 110.657 91.7142 113.046L93.6262 108.293C88.3796 111.41 81.0896 110.494 76.7562 106.178V150.227L78.9952 144.662C77.7732 149.278 76.7152 153.958 75.7495 158.652L75.6928 158.258ZM32.9629 232.035C33.1629 229.543 33.3829 226.991 34.4496 224.733L42.6129 225.625L41.7096 233.372C38.7462 233.351 35.7996 232.9 32.9629 232.035ZM118.576 239.618C118.393 237.016 118.566 234.404 119.086 231.848L143.666 232.209L143.913 238.366C143.933 239.101 143.883 239.989 143.246 240.353C142.933 240.497 142.59 240.557 142.246 240.53L119.58 240.594C119.336 240.624 119.09 240.567 118.88 240.44C118.776 240.33 118.696 240.2 118.643 240.059C118.593 239.919 118.57 239.769 118.576 239.618Z" fill="white"/>
<path fill-rule="evenodd" clip-rule="evenodd" d="M76.179 270.055C83.5024 271.295 89.299 271.813 94.549 271.813C103.026 271.813 110.082 270.46 119.849 268.582L120.637 268.432C123.169 267.948 125.796 267.445 128.714 266.918C130.508 268.298 132.619 269.026 134.946 269.026C135.192 269.026 135.439 269.02 135.679 269C139.209 268.765 142.279 266.843 144.338 263.781C144.516 263.776 144.694 263.746 144.872 263.688C146.116 263.301 147.539 263.124 149.046 262.937C152.512 262.506 156.439 262.015 159.202 258.691C159.326 258.544 159.426 258.38 159.502 258.203C159.899 257.278 160.069 256.255 159.992 255.25C159.986 255.166 159.972 255.079 159.956 254.996C158.973 250.26 156.084 242.154 153.283 234.297L153.252 234.211L153.19 234.036C151.233 228.545 149.39 223.374 148.556 220.29C148.502 220.092 148.42 219.909 148.316 219.744C148.065 195.344 147.469 172.037 141.786 147.482C141.536 146.403 140.462 145.732 139.386 145.982C138.309 146.233 137.639 147.308 137.889 148.387C143.899 174.361 144.129 199.104 144.369 225.301L144.37 225.371L144.37 225.374C144.383 226.914 144.396 228.459 144.412 230.012L119.176 229.597C115.426 200.234 114.132 170.362 115.329 140.791C115.376 139.685 114.516 138.75 113.412 138.706C112.306 138.666 111.376 139.522 111.332 140.627C110.102 171.003 111.482 201.687 115.432 231.832C115.535 232.611 116.075 233.237 116.785 233.474C116.507 235.524 116.438 237.598 116.576 239.666C116.572 240.037 116.639 240.401 116.769 240.758C116.916 241.156 117.139 241.513 117.429 241.821C117.444 241.836 117.459 241.851 117.474 241.865C117.488 241.879 117.502 241.893 117.517 241.906C116.305 242.822 115.301 243.996 114.859 245.408C114.476 246.628 114.359 248.525 115.959 250.63C117.442 252.584 119.489 253.756 121.296 254.789L121.512 254.913L121.551 254.936C121.819 255.089 122.086 255.243 122.349 255.4C122.842 255.695 123.382 257.664 123.617 258.526L123.622 258.544C123.786 259.145 123.942 259.709 124.126 260.221C124.552 261.392 125.058 262.457 125.637 263.409C123.29 263.843 121.099 264.262 119.099 264.647L119.093 264.648C103.874 267.567 95.43 269.186 77.3357 266.184C75.9973 254.632 75.0257 242.845 74.4305 231.133L74.4857 230.813C74.5525 230.423 74.5019 230.039 74.3595 229.699C73.7619 217.307 73.5868 205.013 73.8457 193.188C74.0457 193.015 74.2157 192.797 74.339 192.54C80.059 180.581 86.8057 169.006 94.3924 158.135C96.8124 154.661 99.8257 150.335 99.2257 145.364C99.0957 144.295 98.8124 143.29 98.5357 142.318C98.099 140.778 97.7224 139.448 98.1024 138.382C98.3493 137.686 98.9996 136.983 99.629 136.303L99.6524 136.278L110.922 124.165L110.928 124.159C111.76 123.261 112.797 122.144 113.269 120.61C113.814 118.844 113.432 117.074 113.152 115.775L113.149 115.76L110.919 105.466C116.406 107.218 120.612 111.924 123.336 115.369C127.226 120.3 130.259 125.805 132.352 131.735C132.789 132.961 133.312 134.247 133.819 135.489L133.833 135.525C134.762 137.805 135.721 140.161 136.199 142.298C136.409 143.23 137.232 143.864 138.149 143.864C138.296 143.864 138.442 143.848 138.589 143.814C139.666 143.57 140.342 142.498 140.102 141.419C139.549 138.944 138.519 136.415 137.522 133.97C137.009 132.713 136.526 131.528 136.122 130.392C133.882 124.048 130.636 118.158 126.472 112.88C123.282 108.845 118.236 103.263 111.269 101.392C110.85 101.279 110.427 101.309 110.05 101.45L109.716 99.9088C109.092 96.9992 107.766 95.3623 105.776 95.0416C105.282 94.9614 104.776 95.0683 104.359 95.3456C101.222 97.4134 98.1057 100.534 94.8257 104.88C94.4737 105.347 94.1274 105.817 93.7867 106.29C93.3985 106.265 92.9989 106.353 92.6391 106.567C88.3819 109.098 82.3636 108.465 78.6483 105.178C79.0021 103.903 79.4016 102.738 79.6157 102.367C80.119 101.569 79.9957 100.53 79.3257 99.8687C78.6557 99.2072 77.6157 99.1037 76.829 99.6215C74.906 100.885 73.133 102.091 71.5276 103.407C71.304 103.442 71.0824 103.515 70.8723 103.63C59.2456 110.004 48.389 125.995 44.999 137.156C40.9856 150.368 38.7123 164.279 36.8523 177.344C34.6623 192.737 32.839 208.391 31.439 223.882C31.3822 224.494 31.6081 225.069 32.0106 225.476C31.4652 227.152 31.2365 228.873 31.0853 230.503C27.6901 232.006 25.9551 235.03 26.7424 238.186C26.8324 238.54 27.0124 238.861 27.2691 239.118C30.5091 242.368 30.1524 247.222 29.8057 251.916L29.7988 252.007L29.7988 252.008L29.7988 252.008L29.7988 252.008L29.7988 252.008L29.7988 252.008C29.7578 252.551 29.7173 253.088 29.6857 253.613C29.6657 253.94 29.7257 254.268 29.8624 254.568C30.6924 256.399 32.0157 257.956 33.6857 259.071C34.9394 259.913 36.3495 260.475 37.8254 260.73C37.9697 261.283 38.2006 261.829 38.5623 262.345C39.8038 264.116 41.8829 264.542 43.2861 264.829L43.2923 264.831C45.436 265.24 49.559 265.993 53.8031 266.768L53.8156 266.77L55.5057 267.079C56.4067 267.244 57.3139 267.41 58.208 267.573L58.2086 267.573L58.2124 267.574C61.918 268.251 65.3997 268.887 67.2923 269.25C67.4157 269.274 67.539 269.287 67.6657 269.287C68.0857 269.287 68.5023 269.153 68.849 268.896C69.299 268.569 69.589 268.068 69.6557 267.516L69.719 266.985C69.7257 266.929 69.729 266.872 69.7323 266.815C69.9427 260.456 70.6364 254.365 71.5497 248.263C72.0902 254.906 72.7495 261.525 73.5257 268.064C73.6224 268.889 74.219 269.571 75.0257 269.771L76.0257 270.022C76.0686 270.033 76.1139 270.042 76.1575 270.051L76.179 270.055ZM63.6928 114.351C56.8409 121.387 51.0534 130.981 48.8223 138.322C45.1056 150.552 42.9323 162.993 40.809 177.908C38.719 192.594 36.9656 207.523 35.599 222.311C36.4228 222.418 37.2162 222.524 37.9948 222.629L37.9983 222.629L38.0007 222.629L38.4456 222.689C39.3839 222.815 40.3432 222.943 41.3433 223.072L42.769 210.753L42.7721 210.726C45.5311 186.903 48.3844 162.265 53.979 138.476C54.2323 137.4 55.309 136.732 56.3857 136.986C57.459 137.24 58.1257 138.319 57.8723 139.398C52.3296 162.967 49.4896 187.491 46.7432 211.207L46.7423 211.214L42.799 245.288C42.3123 249.491 41.809 253.84 41.619 258.113C41.5957 258.644 41.5523 259.639 41.8357 260.04C42.1637 260.505 43.2955 260.739 44.0554 260.896L44.0557 260.896L44.069 260.899C46.4226 261.35 51.285 262.237 56.0224 263.1L56.0264 263.101L56.2223 263.137C59.6857 263.768 63.239 264.416 65.8057 264.894C66.2923 254.518 67.9723 244.891 69.7457 234.729C69.8388 234.191 69.9327 233.653 70.0269 233.113C70.1545 232.381 70.2827 231.646 70.4098 230.908C69.4436 211.61 69.493 192.522 70.6024 175.012C70.6066 174.959 70.6121 174.906 70.6199 174.853L65.7857 156.966C65.1023 154.437 63.989 148.418 64.2023 145.418C64.3757 143.069 65.129 140.901 65.859 138.803L65.8611 138.797C66.7303 136.294 67.5521 133.928 67.219 131.654C66.979 130.008 66.129 128.404 65.229 126.707L65.2211 126.692C64.0902 124.555 62.9219 122.348 62.749 119.708C62.6211 117.798 63.0502 116.002 63.6928 114.351ZM74.6956 174.824L74.8557 173.99L74.8559 173.989C78.9292 151.731 83.5459 126.503 98.0157 107.292C100.602 103.861 103.039 101.295 105.422 99.4912C105.539 99.7618 105.676 100.159 105.802 100.751L109.236 116.605L109.24 116.624C109.446 117.582 109.677 118.661 109.442 119.425C109.241 120.079 108.617 120.752 108.01 121.406L107.989 121.429L96.7157 133.545L96.6977 133.565C95.874 134.457 94.8519 135.564 94.329 137.03C93.5157 139.304 94.1357 141.489 94.6824 143.413C94.929 144.275 95.159 145.087 95.249 145.845C95.6657 149.296 93.2457 152.774 91.109 155.84C84.859 164.8 79.1657 174.23 74.1357 183.958C74.2567 181.124 74.4033 178.321 74.5756 175.557C74.6599 175.326 74.7021 175.077 74.6956 174.824ZM72.3082 165.772L69.6457 155.921C68.9523 153.348 68.0323 147.923 68.189 145.708C68.3222 143.893 68.9578 142.064 69.6304 140.128L69.6323 140.123L69.634 140.118C70.6235 137.267 71.6454 134.322 71.1723 131.077C70.8328 128.748 69.7786 126.759 68.7599 124.838L68.7557 124.83L68.7391 124.798C67.7686 122.963 66.8517 121.228 66.7357 119.448C66.5857 117.163 67.7123 114.908 69.2023 112.195C70.5157 109.807 72.1957 108.013 74.2523 106.353C74.069 107.275 73.9523 108.127 73.9523 108.771L73.6923 158.249C73.6917 158.36 73.7002 158.47 73.7171 158.577C73.2235 160.991 72.7574 163.392 72.3082 165.772ZM77.7804 141.502C80.6837 131.172 84.5362 121.019 90.1543 111.779C89.0277 112.022 87.8751 112.142 86.7224 112.142C83.6434 112.142 80.5552 111.29 77.9478 109.645L77.7804 141.502ZM35.1023 230.546C35.2451 229.113 35.4579 227.693 35.9233 226.403C36.5586 226.486 37.1794 226.569 37.792 226.651L37.8022 226.653L37.8065 226.653L37.8105 226.654L37.8142 226.654L37.9123 226.668L38.4833 226.744C39.2619 226.848 40.057 226.953 40.8818 227.06L40.3879 231.328C38.6057 231.234 36.8359 230.971 35.1023 230.546ZM32.8736 234.1C35.176 234.763 37.5389 235.172 39.9263 235.317L38.8257 244.827L38.8118 244.947C38.3732 248.746 37.9213 252.659 37.6946 256.584C37.0645 256.392 36.4631 256.108 35.9091 255.737C34.9924 255.123 34.2391 254.298 33.7157 253.329C33.7306 253.093 33.7481 252.858 33.7657 252.621C33.7758 252.484 33.786 252.348 33.7957 252.21L33.7961 252.205C34.1561 247.315 34.6009 241.271 30.5591 236.77C30.4989 235.244 32.2074 234.379 32.8736 234.1ZM123.69 242.584C123.491 243.158 123.035 243.636 122.412 243.835C120.559 244.433 118.986 245.599 118.672 246.604C118.612 246.795 118.456 247.302 119.139 248.201C120.12 249.495 121.63 250.363 123.23 251.282L123.276 251.308C123.649 251.522 124.022 251.735 124.389 251.953C126.276 253.078 126.942 255.524 127.476 257.485C127.616 258.002 127.752 258.493 127.879 258.848C128.956 261.807 131.149 265.285 135.422 265.001C138.236 264.814 141.636 262.693 142.752 257.294C143.608 253.157 142.837 248.702 142.092 244.391L142.089 244.376C141.996 243.848 141.907 243.324 141.817 242.799L141.817 242.798L141.816 242.789C141.801 242.703 141.793 242.618 141.789 242.533L123.69 242.584ZM145.276 241.119C145.521 241.392 145.694 241.736 145.759 242.125C145.833 242.567 145.909 243.01 145.985 243.455L145.985 243.456L145.986 243.46L146.026 243.691L146.029 243.708C146.838 248.387 147.674 253.225 146.662 258.106C146.581 258.497 146.489 258.881 146.385 259.257C147.111 259.141 147.839 259.05 148.556 258.961L148.559 258.961H148.56C151.561 258.587 154.166 258.262 155.922 256.366C155.989 256.142 156.019 255.905 156.012 255.671C155.049 251.154 152.096 242.873 149.486 235.56L149.446 235.448L149.446 235.448C149.088 234.445 148.734 233.452 148.389 232.479C148.308 232.851 148.12 233.196 147.846 233.469C147.472 233.843 146.962 234.054 146.436 234.054H146.402L145.739 234.043L145.909 238.283C145.924 238.809 145.958 240.085 145.276 241.119ZM141.734 233.977L120.804 233.632C120.558 235.271 120.466 236.93 120.526 238.587L141.919 238.527C141.919 238.493 141.919 238.457 141.916 238.42L141.734 233.977Z" fill="black"/>
</g>
<path d="M45.9395 67.4937C42.8928 66.1174 41.0228 62.9672 39.9562 59.8103C37.0095 51.068 38.8695 41.1531 43.5828 33.2258C48.2962 25.2986 55.6128 19.1953 63.5828 14.5486C69.7528 10.9508 76.5828 8.09789 83.7261 7.99099C90.8695 7.88409 98.3462 10.9407 102.129 17.0106L106.859 21.1863C112.859 20.2677 118.703 23.6116 123.309 27.5736C128.976 32.4375 133.699 38.5174 136.366 45.4992C139.033 52.481 139.536 60.3882 137.109 67.4569C134.903 73.8742 129.226 79.904 122.473 79.3829" fill="black"/>
<path d="M79.7133 102.704C79.5533 99.223 79.5866 96.741 79.8066 93.2634C75.6466 94.9671 71.0466 94.2656 66.76 93.5173C62.65 92.7924 58.8066 91.3693 55.7033 88.4763C49.88 83.0412 48.3333 74.5628 49.1666 66.9328C49.5 63.9029 50.7866 58.8987 52.9366 53.3567L55.49 49.7221C57.99 45.5998 61.12 41.7915 65.0733 39.0322C69.0266 36.2729 73.8633 34.6493 78.6566 35.0535C79.99 35.1671 81.3666 35.4511 82.4866 36.2027C83.6066 36.9543 84.44 38.2438 84.3433 39.5901L89.3833 42.5031C91.5266 41.0365 94.68 42.169 96.1666 44.317C97.6533 46.465 97.8566 49.2177 97.7666 51.82C97.6766 54.4223 97.3433 57.0681 97.95 59.5969C98.4733 61.638 99.57 63.4853 101.113 64.9185C102.657 66.3516 104.577 67.3103 106.647 67.6778L109.253 67.5509C113.077 64.1835 115.327 63.7326 117.837 65.002C121.41 66.8092 121.947 70.6309 121.17 73.8412C120.33 77.3822 118.09 80.4355 115.217 82.6103C113.767 83.6893 112.187 84.5879 110.517 85.2827C109.697 85.6302 108.86 85.9375 108.01 86.2047C107.053 86.5087 106.087 86.4987 105.637 87.4341C103.657 91.5697 102.813 95.4949 103.2 100.065" fill="#FFD39F"/>
<path fill-rule="evenodd" clip-rule="evenodd" d="M45.1267 69.3097C45.3934 69.4266 45.6667 69.4834 45.9401 69.4834C46.3118 69.4834 46.6763 69.378 46.9907 69.1843C46.6185 77.7081 49.2384 85.1757 54.3434 89.9412C57.3867 92.7773 61.3367 94.5913 66.4201 95.4899C69.5667 96.0411 73.6467 96.7527 77.6534 95.9776C77.5867 97.5911 77.6101 98.7737 77.7167 101.125C77.7667 102.201 78.6501 103.04 79.7134 103.04C79.7434 103.04 79.7734 103.04 79.8101 103.026C80.9134 102.976 81.7667 102.037 81.7167 100.932C81.5567 97.4842 81.5934 96.7426 81.8067 93.382C81.8501 92.6938 81.5367 92.0324 80.9767 91.6282C80.4167 91.2273 79.6901 91.1404 79.0534 91.401C75.5401 92.8408 71.5634 92.3163 67.1101 91.538C62.7534 90.7696 59.5634 89.3298 57.0701 87.0048C52.4067 82.6553 50.2534 75.4163 51.1567 67.1483C51.4301 64.6729 52.5301 59.9393 54.8034 54.0799C55.2034 53.0476 54.6934 51.8851 53.6634 51.4842C52.6334 51.0834 51.4734 51.5945 51.0734 52.6267C49.159 57.5587 47.765 62.4761 47.2713 65.9862C47.1208 65.852 46.9474 65.7383 46.7534 65.6517C44.1067 64.4692 42.6267 61.4693 41.8501 59.1543C39.2634 51.5076 40.5501 42.1941 45.2901 34.2401C49.3634 27.4052 55.8534 21.3588 64.5801 16.2677C71.6801 12.1254 77.9501 10.0709 83.7467 9.9807C90.7567 9.87714 97.2967 13.044 100.423 18.0583C101.01 18.997 102.243 19.2843 103.18 18.6963C104.117 18.1084 104.403 16.8723 103.817 15.9336C99.9067 9.65666 92.1767 5.8417 83.6867 5.97198C77.1834 6.0722 70.2767 8.30372 62.5667 12.8002C53.2501 18.2353 46.2801 24.7562 41.8567 32.1823C36.5267 41.1318 35.1067 51.6947 38.0634 60.4337C39.5434 64.84 41.9834 67.9066 45.1267 69.3097ZM123.287 81.406C122.96 81.406 122.637 81.3926 122.31 81.3692C121.468 81.3053 120.786 80.7246 120.552 79.9612C119.443 81.5466 118.051 82.9907 116.423 84.2221C114.83 85.408 113.103 86.3901 111.283 87.1451C110.42 87.5092 109.517 87.8433 108.607 88.1272C108.33 88.2141 108.063 88.2809 107.83 88.3377C107.796 88.3462 107.76 88.3551 107.722 88.3642C107.599 88.3944 107.465 88.4272 107.37 88.458C105.453 92.4667 104.86 93.9733 105.193 97.9018C105.287 99.0042 104.47 99.973 103.37 100.067C103.31 100.08 103.253 100.083 103.197 100.083C102.17 100.083 101.293 99.2948 101.207 98.2459C100.783 93.215 101.76 90.9133 103.833 86.5839C104.593 85.0038 106.03 84.6564 106.89 84.4492C106.929 84.4395 106.967 84.4301 107.005 84.4208L107.007 84.4203C107.15 84.3851 107.286 84.3518 107.407 84.3123C108.2 84.0617 108.983 83.7744 109.74 83.4537C111.27 82.819 112.707 82.0006 114.027 81.0185C116.687 79.0041 118.54 76.2948 119.227 73.3952C119.58 71.9354 120.06 68.3877 116.937 66.8076C115.573 66.1161 114.237 65.8455 110.573 69.0725C109.84 69.7187 108.769 69.729 108.026 69.1493C107.662 69.4946 107.172 69.7005 106.65 69.7005C106.533 69.7005 106.417 69.6905 106.297 69.6705C103.843 69.2328 101.58 68.1037 99.7534 66.4067C97.9267 64.7097 96.6334 62.5316 96.0134 60.113C95.4567 57.788 95.5767 55.5264 95.6934 53.3349L95.7104 53.0075C95.732 52.5933 95.7535 52.1808 95.7667 51.7682C95.8367 49.7772 95.7567 47.2617 94.5234 45.4779C93.6634 44.2352 91.6801 43.3766 90.5101 44.1784C89.5967 44.8031 88.3534 44.5659 87.7301 43.6539C87.1067 42.7386 87.3434 41.4925 88.2534 40.8679C90.8567 39.0873 95.3167 39.5951 97.8067 43.1962C99.7134 45.9489 99.8534 49.2995 99.7634 51.9119C99.7434 52.4597 99.7167 53.0076 99.6867 53.5554C99.5801 55.5464 99.4801 57.4238 99.8934 59.1509C100.313 60.7945 101.207 62.2978 102.47 63.4737C103.733 64.6495 105.297 65.4279 106.993 65.7319C107.323 65.7907 107.62 65.9275 107.867 66.1201C107.881 66.1068 107.895 66.0937 107.909 66.0808C107.917 66.0736 107.925 66.0664 107.933 66.0593C113.193 61.4259 116.233 61.9604 118.737 63.2264C122.617 65.1907 124.293 69.4433 123.113 74.3272C122.863 75.383 122.498 76.4173 122.029 77.4159C122.217 77.3739 122.415 77.3585 122.617 77.3739C128.347 77.8182 133.287 72.3864 135.21 66.7942C137.39 60.4437 137.133 53.1312 134.49 46.2061C132.11 39.9792 127.793 34.0564 122 29.0856C116.627 24.4655 111.633 22.4712 107.153 23.156C106.06 23.323 105.04 22.5714 104.873 21.479C104.707 20.3866 105.457 19.3611 106.547 19.1941C112.233 18.3222 118.307 20.6272 124.6 26.0423C130.893 31.444 135.607 37.9214 138.223 44.773C141.203 52.5766 141.477 60.858 138.99 68.1004C137.73 71.7617 135.537 75.1056 132.81 77.5175C129.913 80.0697 126.64 81.4026 123.287 81.406ZM54.4434 51.4508C54.7667 51.6479 55.1234 51.7415 55.4767 51.7415C56.1534 51.7415 56.8134 51.3974 57.1867 50.7794C59.8267 46.4132 62.8601 43.0225 66.2001 40.6975C70.0567 38.015 74.4167 36.7255 78.4767 37.0696C79.7567 37.1765 80.7034 37.4437 81.3667 37.888C81.9667 38.2889 82.3734 38.9503 82.3367 39.4614C82.2567 40.5672 83.0867 41.5259 84.1867 41.6061C85.2934 41.6863 86.2467 40.8578 86.3267 39.7521C86.4667 37.7978 85.3901 35.7567 83.5834 34.5508C82.3267 33.7089 80.8101 33.2412 78.8134 33.0709C73.8334 32.65 68.5434 34.1866 63.9234 37.4003C60.1167 40.046 56.7034 43.8476 53.7701 48.6982C53.1967 49.6436 53.5001 50.8763 54.4434 51.4508ZM62.8101 62.5717C64.0987 62.5717 65.1434 61.3004 65.1434 59.7322C65.1434 58.164 64.0987 56.8927 62.8101 56.8927C61.5214 56.8927 60.4767 58.164 60.4767 59.7322C60.4767 61.3004 61.5214 62.5717 62.8101 62.5717ZM76.4767 60.5172C76.4767 62.0854 75.4321 63.3567 74.1434 63.3567C72.8547 63.3567 71.8101 62.0854 71.8101 60.5172C71.8101 58.949 72.8547 57.6777 74.1434 57.6777C75.4321 57.6777 76.4767 58.949 76.4767 60.5172Z" fill="black"/>
</g>
<defs>
<clipPath id="clip0_805_37333">
<rect width="180" height="180" rx="24" fill="white"/>
</clipPath>
<clipPath id="clip1_805_37333">
<rect width="200" height="200.436" fill="white" transform="translate(-10 95.2734)"/>
</clipPath>
</defs>
</svg>
