<svg width="180" height="180" viewBox="0 0 180 180" fill="none" xmlns="http://www.w3.org/2000/svg">
<g clip-path="url(#clip0_805_38692)">
<rect width="180" height="180" rx="24" fill="white"/>
<g clip-path="url(#clip1_805_38692)">
<path d="M103.124 95.2734C103.424 98.6474 104.8 106.271 109.924 105.128L110.474 105.963C110.224 111.198 107.577 114.889 103.43 118.714C99.2171 122.539 93.8437 124.838 88.1737 125.242C83.1737 125.609 77.8571 124.41 74.1171 121.049C70.3771 117.689 68.4104 113.032 70.8871 109.04H71.2471C72.3737 109.073 73.4104 108.482 74.3637 107.881C75.5771 107.113 76.6104 103.662 77.3604 102.756C78.3604 101.457 80.2337 96.8302 80.7471 95.2734H103.124V95.2734Z" fill="#FFD39F"/>
<path d="M137.443 188.427C144.826 211.337 149.963 228.909 156.71 251.02C157.043 252.149 158.376 256.141 157.76 257.14C157.346 257.808 156.653 258.236 155.976 258.62C152.276 260.728 148.236 260.905 144.063 261.747L128.573 264.837C106.403 268.822 84.1529 269.798 61.9429 266.043L57.7529 265.552L43.4195 262.803C42.1262 262.555 40.7062 262.225 39.9496 261.132C39.3229 260.237 39.3262 259.058 39.3729 257.965C39.5629 253.623 40.0629 249.313 40.5629 245L44.5062 210.926C46.1962 196.328 47.8896 181.706 50.1929 167.198L50.0329 167.148C46.1562 165.812 42.3396 164.328 38.5196 162.842C37.9929 162.692 37.5196 162.398 37.1462 161.997C36.3962 161.028 37.0396 159.638 37.6829 158.593C43.3629 149.339 48.2196 139.605 52.2029 129.499C55.2429 121.783 58.4162 113.1 65.8362 109.422L81.3429 111.196L110.52 103.289C115.623 104.659 119.81 108.327 123.246 112.352C127.59 117.44 131.033 123.236 133.433 129.486C138.743 143.326 138.746 158.927 145.15 172.296C142.113 173.198 139.03 173.923 135.913 174.474L137.443 188.427Z" fill="black"/>
<path fill-rule="evenodd" clip-rule="evenodd" d="M83.266 123C81.7027 119.93 80.766 116.579 80.516 113.142C88.9427 105.772 97.5327 101.683 106.469 98.6402C107.023 98.4531 107.779 98.3362 108.073 98.844C108.183 99.0945 108.209 99.3751 108.153 99.6457L107.556 104.947C107.276 107.429 106.966 110.002 105.666 112.136C104.293 114.398 101.966 115.888 99.666 117.197C95.156 119.766 90.436 121.951 85.5593 123.725C85.0193 123.922 84.3827 124.106 83.8927 123.805C83.616 123.598 83.3993 123.321 83.266 123ZM75.8693 106.297C75.696 104.279 76.696 102.362 77.666 100.584C78.2493 100.544 77.626 99.4987 76.8527 99.3984C76.0793 99.2982 75.3627 99.816 74.746 100.3C72.2127 102.281 69.746 104.376 67.626 106.795C67.2093 107.139 66.9127 107.603 66.7693 108.124C66.6293 108.645 66.6493 109.196 66.8327 109.704C67.636 113.355 68.9293 116.88 70.676 120.184C70.956 120.715 71.436 121.323 72.0093 121.159C72.2493 121.066 72.456 120.905 72.6093 120.698L76.736 116.021C78.3227 114.227 80.0093 112.173 79.896 109.778C77.946 110.305 76.0427 108.314 75.8693 106.297Z" fill="white"/>
<path fill-rule="evenodd" clip-rule="evenodd" d="M39.3859 257.979C39.5759 253.643 40.0759 249.326 40.5759 245.014L44.5226 210.953C46.1893 196.371 47.8893 181.763 50.1893 167.265L50.0359 167.175C47.3126 166.239 44.6193 165.227 41.9326 164.191L41.7959 164.86L36.8326 224.078C36.6293 226.487 36.3359 229.133 34.4826 230.759C33.7605 231.393 32.8412 231.821 31.9344 232.242C30.5137 232.903 29.124 233.549 28.5726 234.952C27.8647 236.755 28.9842 238.42 30.1354 240.131C30.746 241.039 31.3655 241.96 31.7259 242.923C32.4237 244.767 32.1383 246.813 31.856 248.837C31.5313 251.164 31.2106 253.463 32.3926 255.396C33.7526 257.621 36.5726 258.383 39.1359 258.844L39.3859 257.979ZM124.556 241.306C121.873 219.615 120.223 197.865 119.603 176.05L136.056 175.536C136.858 182.798 137.66 190.061 138.463 197.326C140.385 214.729 142.308 232.139 144.229 249.554C144.733 254.103 145.126 259.114 142.486 262.852C141.473 264.286 140.083 265.411 138.469 266.096C136.856 266.781 135.086 267.005 133.353 266.738C131.619 266.47 129.996 265.725 128.663 264.586C127.329 263.447 126.339 261.961 125.803 260.287C125.608 259.677 125.471 259.042 125.335 258.41C125.051 257.095 124.77 255.79 123.973 254.731C123.133 253.614 121.847 252.951 120.572 252.294C119.113 251.541 117.668 250.796 116.919 249.387C115.883 247.426 116.729 244.86 118.399 243.417C120.069 241.974 122.353 241.443 124.556 241.306Z" fill="#FFD39F"/>
<path fill-rule="evenodd" clip-rule="evenodd" d="M84.4997 125.966C83.9764 125.966 83.4031 125.852 82.8497 125.512C82.7997 125.481 82.7531 125.448 82.7064 125.415C82.1597 125.01 81.7297 124.469 81.4564 123.848C80.3186 121.604 79.4985 119.245 79.0045 116.805C78.7904 117.055 78.5851 117.287 78.3964 117.501L74.3131 122.124C73.9464 122.592 73.4598 122.956 72.9064 123.173C72.8431 123.196 72.7798 123.22 72.7164 123.237C72.5664 123.273 72.3064 123.33 71.9798 123.33C71.1764 123.33 69.9831 122.986 69.0731 121.262C67.5121 118.311 66.298 115.188 65.4518 111.958C59.8821 115.473 57.1109 122.527 54.4264 129.363L54.0764 130.252C50.0631 140.437 45.1231 150.332 39.3998 159.659C39.0198 160.277 38.8898 160.641 38.8464 160.828C38.9198 160.872 38.9998 160.908 39.0864 160.932C39.1464 160.949 39.2031 160.969 39.2598 160.989L39.3398 161.019L39.3934 161.04C42.413 162.214 45.5158 163.421 48.6195 164.535C50.0495 155.778 51.7126 147.054 53.7364 138.446C53.9897 137.371 55.0631 136.699 56.1431 136.956C57.2164 137.21 57.8831 138.289 57.6297 139.368C52.1624 162.627 49.3393 186.848 46.6088 210.275L46.5997 210.353L46.5031 211.188L42.5597 245.262L42.5577 245.28C42.0716 249.48 41.5695 253.82 41.3797 258.083C41.3564 258.614 41.3131 259.61 41.5964 260.011C41.9297 260.485 43.1164 260.725 43.8231 260.866L55.4264 263.091C56.5097 263.298 57.2231 264.35 57.0131 265.436C56.8364 266.391 55.9997 267.059 55.0564 267.059C54.9331 267.059 54.8064 267.046 54.6797 267.022L43.0564 264.794C41.7431 264.53 39.5797 264.093 38.3264 262.309C37.9353 261.75 37.6971 261.158 37.5559 260.56C34.9093 259.973 32.2236 258.931 30.6964 256.433C29.1331 253.884 29.5297 251.041 29.8797 248.536C30.1364 246.708 30.3764 244.981 29.8631 243.618C29.5945 242.895 29.0809 242.128 28.5357 241.313L28.5357 241.313L28.4864 241.24L28.4863 241.24C27.213 239.345 25.6298 236.99 26.7197 234.208C27.5714 232.054 29.5453 231.131 31.1304 230.39L31.1397 230.386C31.9364 230.015 32.6864 229.665 33.1764 229.237C34.3931 228.175 34.6597 226.107 34.8464 223.899L39.7423 165.484C39.1217 165.243 38.504 165.003 37.8898 164.763L37.8831 164.76C37.0464 164.5 36.2898 164.025 35.6931 163.38C35.6531 163.337 35.6164 163.294 35.5798 163.247C34.4398 161.774 34.5798 159.863 35.9931 157.561C41.5931 148.435 46.4264 138.75 50.3564 128.782L50.7031 127.897C53.7164 120.22 57.1331 111.521 64.9631 107.643C64.9957 107.626 65.0285 107.611 65.0615 107.597C65.3276 106.823 65.7693 106.116 66.3464 105.538C68.5798 103.089 71.0498 100.838 73.6931 98.8435C74.3798 98.309 75.6398 97.3302 77.2831 97.5507C78.5764 97.7244 80.4264 99.0272 80.3731 100.681C80.3531 101.282 80.0998 101.813 79.6898 102.187L79.6891 102.189L79.6891 102.189C79.5926 102.355 79.4962 102.522 79.3998 102.692L79.3947 102.701C78.6762 103.947 77.9333 105.237 78.0198 106.28C78.0598 106.764 78.4098 107.312 80.6531 108.013C81.289 108.212 81.7724 108.709 81.9661 109.326C88.7645 103.938 96.2688 99.9936 105.83 96.739C107.893 96.0408 109.236 96.8492 109.806 97.8347C109.843 97.9015 109.876 97.9683 109.906 98.0351C110.17 98.6398 110.246 99.2945 110.133 99.9426L109.973 101.371C110.311 101.274 110.679 101.264 111.043 101.362C115.8 102.638 120.293 105.812 124.773 111.06C129.276 116.335 132.82 122.298 135.306 128.779C137.77 135.203 139.126 142.017 140.436 148.608L140.447 148.661L140.447 148.661L140.447 148.661L140.447 148.661L140.447 148.661L140.447 148.661C142.053 156.736 143.57 164.365 146.96 171.441C147.213 171.972 147.223 172.584 146.983 173.122C146.743 173.659 146.283 174.064 145.723 174.231C143.229 174.964 140.72 175.585 138.198 176.093L139.551 188.458C144.766 204.662 148.886 218.288 153.23 232.655L153.37 233.119C155.043 238.661 156.776 244.39 158.62 250.433C158.66 250.567 158.703 250.71 158.756 250.877C159.88 254.539 160.323 256.79 159.46 258.193C158.8 259.262 157.823 259.874 156.96 260.365C153.859 262.131 150.588 262.669 147.423 263.19L147.416 263.191L147.303 263.209L147.302 263.21C146.365 263.364 145.401 263.523 144.456 263.715C144.4 263.725 144.344 263.733 144.288 263.739C144.226 263.833 144.162 263.927 144.096 264.019C142.866 265.756 141.183 267.113 139.226 267.944C137.806 268.546 136.293 268.85 134.766 268.85C134.183 268.85 133.6 268.806 133.016 268.716C131.354 268.46 129.778 267.841 128.391 266.907C115.216 269.246 102.701 270.416 90.6564 270.416C80.6931 270.416 71.0531 269.618 61.6131 268.021C60.5231 267.838 59.7898 266.802 59.9731 265.713C60.1564 264.621 61.1864 263.882 62.2764 264.069C81.9075 267.388 102.469 267.177 125.037 263.418C124.551 262.629 124.159 261.781 123.873 260.889C123.65 260.181 123.5 259.493 123.36 258.825C123.11 257.649 122.89 256.633 122.36 255.925C121.796 255.18 120.753 254.639 119.646 254.068L119.641 254.065C118.019 253.227 116.182 252.278 115.14 250.316C113.743 247.667 114.58 244.046 117.09 241.888C118.44 240.725 120.196 239.944 122.326 239.553C119.877 219.09 118.327 198.301 117.712 177.707C114.867 177.589 112.016 177.329 109.163 176.927C108.153 176.783 107.413 175.904 107.443 174.885L108.353 142.876C108.383 141.77 109.303 140.888 110.41 140.928C111.513 140.958 112.383 141.884 112.353 142.989L111.493 173.188C121.89 174.431 132.26 173.696 142.373 171C139.427 164.058 137.947 156.614 136.511 149.39L136.51 149.383C135.233 142.956 133.913 136.315 131.57 130.212C129.246 124.159 125.936 118.59 121.73 113.662C117.793 109.052 113.956 106.293 110.006 105.234C109.847 105.191 109.697 105.13 109.559 105.054L109.546 105.167C109.273 107.599 108.93 110.623 107.376 113.175C105.72 115.904 103.04 117.578 100.656 118.934C96.0597 121.553 91.2131 123.794 86.2431 125.602C85.9131 125.729 85.2597 125.966 84.4997 125.966ZM82.6031 113.986C82.9164 116.719 83.6931 119.351 84.9164 121.827C89.6597 120.1 94.2897 117.955 98.6797 115.456C100.626 114.347 102.8 113.008 103.96 111.097C105.054 109.304 105.315 106.985 105.568 104.741V104.741L105.57 104.726L105.996 100.928C96.5631 104.252 89.2664 108.324 82.6031 113.986ZM146.77 259.232C146.555 259.267 146.338 259.302 146.121 259.338C146.919 255.811 146.514 252.099 146.214 249.346L146.213 249.341L141.778 208.808C144.415 217.327 146.868 225.443 149.397 233.81L149.398 233.812L149.54 234.281C151.213 239.827 152.946 245.559 154.786 251.589C154.823 251.712 154.873 251.873 154.93 252.057C155.713 254.615 155.913 255.751 155.92 256.246C155.692 256.47 155.3 256.695 155.027 256.852L154.983 256.877C152.508 258.289 149.734 258.745 146.798 259.227L146.77 259.232ZM135.536 189.043C135.427 188.703 135.412 188.355 135.479 188.027L134.25 176.792C130.097 177.429 125.916 177.76 121.718 177.781C122.351 198.859 123.973 220.136 126.54 241.056C126.606 241.604 126.446 242.155 126.093 242.583C125.74 243.007 125.23 243.267 124.68 243.301C122.47 243.438 120.793 243.986 119.7 244.928C118.61 245.866 118.153 247.44 118.68 248.435C119.131 249.287 120.215 249.848 121.469 250.496L121.483 250.503L121.498 250.511C122.881 251.227 124.447 252.038 125.556 253.51C126.622 254.925 126.969 256.546 127.275 257.979L127.276 257.983L127.295 258.071L127.295 258.071L127.296 258.071L127.296 258.072C127.418 258.64 127.534 259.178 127.69 259.67C128.11 260.983 128.89 262.155 129.94 263.057C130.99 263.956 132.27 264.544 133.633 264.754C135 264.965 136.393 264.791 137.666 264.253C138.94 263.712 140.033 262.83 140.833 261.701C142.996 258.644 142.733 254.318 142.236 249.778L135.618 189.296L135.536 189.043ZM47.9767 168.571C45.8344 182.363 44.2205 196.207 42.6378 209.784L42.6264 209.882L38.5864 244.794L38.5725 244.914C38.1393 248.666 37.6931 252.53 37.4638 256.405C36.0321 255.999 34.7481 255.385 34.1031 254.332C33.2931 253.009 33.5464 251.191 33.8397 249.087L33.8397 249.087L33.8423 249.068C34.1384 246.935 34.4739 244.517 33.6064 242.205C33.1631 241.023 32.4731 239.994 31.8031 238.998C30.7564 237.441 30.1397 236.439 30.4397 235.678C30.7028 235.007 31.6847 234.549 32.8234 234.019L32.8264 234.017C33.7931 233.566 34.8864 233.055 35.8031 232.257C38.1497 230.212 38.5864 227.172 38.8331 224.233L43.6319 166.977C45.0724 167.521 46.5227 168.056 47.9767 168.571ZM68.9231 109.286C68.8831 109.139 68.8631 108.992 68.8698 108.842C68.9398 108.665 69.0498 108.501 69.1898 108.364C69.2198 108.334 69.2464 108.307 69.2731 108.277C70.9331 106.453 72.7331 104.75 74.6464 103.19C74.2131 104.235 73.9398 105.371 74.0431 106.61C74.2631 109.243 76.2231 110.556 77.8631 111.26C77.4398 112.46 76.4331 113.672 75.4064 114.835L72.1598 118.51C70.7231 115.62 69.6464 112.563 68.9531 109.406L68.9231 109.286ZM77.4998 129.347C78.5123 129.347 79.3331 128.524 79.3331 127.509C79.3331 126.494 78.5123 125.672 77.4998 125.672C76.4873 125.672 75.6664 126.494 75.6664 127.509C75.6664 128.524 76.4873 129.347 77.4998 129.347ZM77.9997 140.203C77.9997 141.218 77.1789 142.041 76.1664 142.041C75.1539 142.041 74.3331 141.218 74.3331 140.203C74.3331 139.189 75.1539 138.366 76.1664 138.366C77.1789 138.366 77.9997 139.189 77.9997 140.203Z" fill="black"/>
</g>
<path d="M115.667 84.789C116.334 86.8401 119.454 86.0384 121.144 84.6954C129.197 78.2915 133.984 68.086 134.217 57.7836C134.45 47.4812 130.254 37.2356 123.197 29.7426C118.98 25.2696 113.294 21.5882 107.164 21.9023L97.3337 17.0183C95.9704 13.9817 92.367 12.5887 89.0504 12.4283C85.7337 12.268 82.417 13.023 79.1004 12.8726C76.457 12.7524 73.8504 12.0609 71.2071 12.1344C65.0637 12.3014 59.8037 16.4972 55.5071 20.9034C48.2837 28.3095 42.0437 37.6632 42.0637 48.0224C42.0637 53.8951 43.7304 60.8569 39.3971 64.8189C38.8371 65.3333 38.1271 65.9881 38.3971 66.6996C38.4937 66.8867 38.6237 67.0538 38.7871 67.1874C38.9504 67.321 39.1371 67.4212 39.3371 67.478C42.9604 68.9512 47.6037 66.85 48.8937 63.1352L55.4204 50.7951C57.6071 47.4545 62.1337 46.4723 66.1037 46.8799C70.0737 47.2875 73.8804 48.764 77.8571 49.1214C81.0571 49.382 84.277 48.921 87.277 47.7718C90.277 46.6227 92.9804 44.8087 95.1904 42.4703L97.1904 43.0115C99.1037 43.9602 100.717 45.4267 101.85 47.2407C102.98 49.058 103.587 51.1525 103.597 53.2938C103.577 55.4886 102.93 57.6199 102.57 59.788C102.21 61.956 102.214 64.3145 103.37 66.1785C104.527 68.0426 107.16 69.1049 109.01 67.9257" fill="black"/>
<path d="M103.199 99.7467C102.816 95.1767 103.703 91.609 105.686 87.4733C106.133 86.5379 107.103 86.548 108.059 86.244C108.906 85.9767 109.746 85.6694 110.566 85.322C112.236 84.6271 113.813 83.7285 115.266 82.6495C118.139 80.4748 120.376 77.4215 121.219 73.8804C121.983 70.6701 121.446 66.8485 117.869 65.0412C115.363 63.7718 113.113 64.2228 109.289 67.5901L109.019 67.9475C107.169 69.1268 104.533 68.0678 103.379 66.2004C102.226 64.333 102.229 61.9779 102.579 59.8098C102.929 57.6418 103.579 55.5105 103.606 53.3157C103.596 51.1744 102.989 49.0798 101.859 47.2626C100.729 45.4453 99.116 43.9821 97.1994 43.0334L95.1994 42.4922C92.9894 44.8306 90.286 46.6412 87.286 47.7937C84.286 48.9462 81.066 49.4072 77.866 49.1433C73.8894 48.7859 70.0827 47.3127 66.1127 46.9018C62.1427 46.4909 57.616 47.4697 55.4294 50.817L53.3327 52.848C51.3327 55.8546 50.9994 59.5292 49.9994 63.2039C49.9994 64.2595 45.946 78.5172 55.3327 87.9243C58.666 91.2649 62.9994 92.6011 67.4994 93.6033C71.536 94.228 75.946 94.856 79.8327 93.2692C79.6094 96.7468 79.646 99.8068 79.806 103.288" fill="#FFD39F"/>
<path fill-rule="evenodd" clip-rule="evenodd" d="M38.6668 69.3661C39.6601 69.7603 40.7335 69.9541 41.8235 69.9541C43.1635 69.9541 44.5301 69.6634 45.8235 69.0755C46.2434 68.885 46.6459 68.6674 47.0283 68.4257C46.4626 77.2641 49.0843 85.0345 54.3401 89.9408C57.3835 92.777 61.3335 94.591 66.4168 95.4896C69.5635 96.0408 73.6435 96.7523 77.6501 95.9773C77.5835 97.5908 77.6068 98.7734 77.7135 101.125C77.7635 102.201 78.6468 103.039 79.7101 103.039C79.7435 103.039 79.7735 103.039 79.8068 103.026C80.9101 102.976 81.7635 102.037 81.7135 100.931C81.5535 97.4839 81.5901 96.7423 81.8035 93.3817C81.8468 92.6935 81.5335 92.0287 80.9735 91.6278C80.4135 91.227 79.6868 91.1401 79.0501 91.4007C75.5334 92.8405 71.5601 92.316 67.1068 91.5377C62.7501 90.7693 59.5601 89.3295 57.0668 87.0045C52.4035 82.655 50.2501 75.4159 51.1535 67.148C51.4268 64.6726 52.5268 59.939 54.8001 54.0796C54.9748 53.6287 54.9759 53.1531 54.836 52.7269C55.0265 52.7849 55.2221 52.8135 55.4168 52.8135C56.0701 52.8135 56.7068 52.4961 57.0868 51.9048C58.8601 49.1956 62.8001 48.5676 65.8934 48.8849C67.6853 49.0672 69.4541 49.4893 71.3269 49.9361L71.3269 49.9361L71.3734 49.9472C73.3968 50.4316 75.4934 50.9327 77.6868 51.1298C81.1668 51.4138 84.7268 50.9026 87.9868 49.6533C90.935 48.5234 93.6625 46.7759 95.9324 44.5741C96.0482 44.6695 96.1767 44.7533 96.3168 44.8228C97.9001 45.6078 99.2301 46.8171 100.167 48.317C101.1 49.8203 101.6 51.5507 101.61 53.2912C101.6 54.5974 101.32 55.9369 101.023 57.3534L101.01 57.4191L101.01 57.4197L101.009 57.4201L101.009 57.4201C100.87 58.0844 100.726 58.7732 100.61 59.4746C100.077 62.6816 100.427 65.2271 101.683 67.2515C102.62 68.7581 104.21 69.8939 105.94 70.2881C106.383 70.3884 106.827 70.4385 107.263 70.4385C108.28 70.4385 109.257 70.1645 110.097 69.6334C110.398 69.4406 110.631 69.1805 110.788 68.885C114.29 65.856 115.6 66.1294 116.937 66.8072C120.06 68.3873 119.58 71.935 119.227 73.3949C118.54 76.2912 116.687 79.0037 114.027 81.0181C112.707 82.0003 111.27 82.8187 109.74 83.4534C108.983 83.7741 108.2 84.0614 107.407 84.3119C107.286 84.3515 107.15 84.3848 107.007 84.42L107.005 84.4205C106.967 84.4298 106.929 84.4392 106.89 84.4489C106.03 84.656 104.593 85.0034 103.833 86.5835C101.76 90.9096 100.783 93.2146 101.207 98.2456C101.293 99.2912 102.17 100.083 103.197 100.083C103.253 100.083 103.31 100.08 103.37 100.066C104.47 99.976 105.287 99.0039 105.193 97.9015C104.86 93.9729 105.453 92.4663 107.37 88.4576C107.465 88.4268 107.599 88.3941 107.722 88.3639L107.761 88.3544C107.785 88.3486 107.808 88.3429 107.83 88.3374C108.063 88.2806 108.33 88.2138 108.607 88.1269C109.517 87.8429 110.42 87.5089 111.283 87.1448C112.188 86.7694 113.07 86.338 113.924 85.8532C114.375 86.8301 115.187 87.5308 116.247 87.8496C116.68 87.9799 117.133 88.0367 117.593 88.0367C119.33 88.0367 121.177 87.2116 122.373 86.2628C130.78 79.5783 135.953 68.9485 136.203 57.8277C136.443 47.1645 132.23 36.4245 124.637 28.3637C119.203 22.6011 112.96 19.5946 107.047 19.8986C105.943 19.9554 105.093 20.8974 105.15 22.0032C105.207 23.1089 106.147 23.9641 107.25 23.904C113.62 23.5833 119.057 28.2868 121.727 31.1196C128.603 38.4222 132.42 48.1233 132.203 57.7409C131.977 67.6858 127.373 77.1764 119.89 83.126C119.023 83.8109 117.937 84.0814 117.503 84.0347C117.435 83.8654 117.345 83.7102 117.239 83.5709C120.215 81.0632 122.287 77.812 123.113 74.3269C124.293 69.443 122.617 65.1904 118.737 63.2261C116.237 61.96 113.193 61.4255 107.933 66.0589C107.819 66.16 107.718 66.2713 107.632 66.3902C107.347 66.4653 107.052 66.4337 106.83 66.383C106.14 66.2226 105.453 65.7349 105.083 65.1369C104.373 63.9911 104.197 62.3074 104.557 60.1327C104.647 59.5689 104.763 59.0102 104.884 58.4254L104.884 58.4251L104.937 58.1718C105.26 56.6251 105.593 55.0283 105.61 53.2979C105.597 50.7824 104.89 48.3271 103.56 46.1924C102.23 44.0611 100.34 42.3441 98.0901 41.2283C97.6198 40.995 97.102 40.9645 96.6355 41.1032C96.6112 41.0776 96.5861 41.0525 96.5601 41.0279C95.7601 40.2662 94.4935 40.2996 93.7334 41.1047C91.7401 43.2126 89.2601 44.8729 86.5568 45.9118C83.8535 46.9507 80.8968 47.3716 78.0301 47.1378C76.1589 46.9724 74.3137 46.532 72.3621 46.0661L72.3034 46.0521C70.3734 45.5911 68.3734 45.1134 66.3034 44.8996C60.7834 44.335 56.0868 46.1323 53.7434 49.7101C53.3977 50.2403 53.3344 50.8748 53.5171 51.4343C52.5249 51.1312 51.4517 51.6417 51.0701 52.6264C49.9152 55.6019 48.9497 58.572 48.2569 61.231C47.6935 61.4228 47.221 61.8643 47.0101 62.4711C46.5735 63.7239 45.5401 64.7995 44.1701 65.4209C43.1801 65.8719 42.1301 66.0322 41.1601 65.8986C44.8301 62.1471 44.5068 56.6685 44.2201 51.8113C44.1401 50.4817 44.0668 49.2257 44.0668 48.013C44.0501 39.7284 48.3835 31.0762 56.9401 22.3005C60.2868 18.8697 65.4101 14.2931 71.2668 14.1327C72.6135 14.096 73.9901 14.2864 75.4501 14.4902C76.6001 14.6505 77.7901 14.8142 79.0135 14.871C80.7935 14.9512 82.5435 14.7942 84.2301 14.6405L84.2618 14.6377C85.8934 14.4917 87.4366 14.3537 88.9568 14.4267C91.4401 14.547 94.4668 15.5057 95.5135 17.8374C95.9668 18.8463 97.1501 19.2973 98.1568 18.843C99.1635 18.3886 99.6135 17.2027 99.1601 16.1939C97.3735 12.2119 92.8168 10.6017 89.1501 10.4247C87.3526 10.3382 85.5947 10.4965 83.8961 10.6495L83.8701 10.6518C82.2435 10.7988 80.7068 10.9358 79.1935 10.869C78.1749 10.8232 77.1499 10.6812 76.0653 10.531L75.9968 10.5215C74.4401 10.3044 72.8301 10.0806 71.1535 10.1273C63.8435 10.3244 57.9068 15.5692 54.0768 19.4977C44.7601 29.0485 40.0468 38.646 40.0635 48.0164C40.0635 49.2803 40.1392 50.5898 40.2126 51.861L40.2235 52.0485L40.2239 52.0552C40.4904 56.5892 40.7421 60.8722 38.0468 63.3364C37.3668 63.961 35.7768 65.4242 36.5301 67.4085C36.5535 67.4787 36.5835 67.5455 36.6168 67.609C36.8368 68.0399 37.1401 68.4174 37.5135 68.7281C37.8568 69.0154 38.2435 69.2292 38.6668 69.3661ZM65.1435 59.7319C65.1435 61.3001 64.0988 62.5714 62.8101 62.5714C61.5215 62.5714 60.4768 61.3001 60.4768 59.7319C60.4768 58.1637 61.5215 56.8924 62.8101 56.8924C64.0988 56.8924 65.1435 58.1637 65.1435 59.7319ZM76.4768 60.5169C76.4768 62.0851 75.4321 63.3564 74.1435 63.3564C72.8548 63.3564 71.8101 62.0851 71.8101 60.5169C71.8101 58.9487 72.8548 57.6774 74.1435 57.6774C75.4321 57.6774 76.4768 58.9487 76.4768 60.5169Z" fill="black"/>
</g>
<defs>
<clipPath id="clip0_805_38692">
<rect width="180" height="180" rx="24" fill="white"/>
</clipPath>
<clipPath id="clip1_805_38692">
<rect width="200" height="200.436" fill="white" transform="translate(-10 95.2734)"/>
</clipPath>
</defs>
</svg>
