<svg width="180" height="180" viewBox="0 0 180 180" fill="none" xmlns="http://www.w3.org/2000/svg">
<g clip-path="url(#clip0_805_38161)">
<rect width="180" height="180" rx="24" fill="white"/>
<g clip-path="url(#clip1_805_38161)">
<path d="M103.124 95.2734C103.424 98.6474 104.8 106.271 109.924 105.128L110.474 105.963C110.224 111.198 107.577 114.889 103.43 118.714C99.2171 122.539 93.8437 124.838 88.1737 125.242C83.1737 125.609 77.8571 124.41 74.1171 121.049C70.3771 117.689 68.4104 113.032 70.8871 109.04H71.2471C72.3737 109.073 73.4104 108.482 74.3637 107.881C75.5771 107.113 78.0804 103.962 78.8304 103.057C79.8304 101.758 80.2371 96.8302 80.7504 95.2734H103.124V95.2734Z" fill="#FFD39F"/>
<path d="M110.63 103.262C115.734 104.628 119.92 108.303 123.357 112.311C127.7 117.399 131.144 123.195 133.544 129.445C138.854 143.285 138.857 158.886 145.26 172.255C141.784 173.287 138.247 174.089 134.667 174.66L137.554 188.38C144.937 211.29 150.074 228.861 156.82 250.973C157.154 252.102 158.487 256.094 157.87 257.093C157.457 257.761 156.764 258.189 156.087 258.573C152.387 260.681 148.347 260.858 144.174 261.7L128.684 264.79C106.514 268.775 84.2635 269.75 62.0535 265.995L57.8635 265.504L43.5302 262.755C42.2368 262.508 40.8168 262.177 40.0602 261.085C39.4335 260.19 39.4368 259.01 39.4835 257.918C39.6735 253.575 40.1735 249.266 40.6735 244.953L44.6168 210.879C46.3335 196.324 48.0002 181.709 50.3335 167.204L50.1735 167.137C46.2968 165.801 42.4802 164.318 38.6602 162.831C38.1335 162.681 37.6602 162.387 37.2868 161.986C36.5368 161.017 37.1802 159.628 37.8235 158.582C43.5002 149.329 48.3535 139.594 52.3335 129.489C55.3735 121.772 58.5468 113.09 65.9668 109.412L74.3768 105.884C73.6635 107.103 74.5668 110.581 75.5302 111.613C76.4935 112.645 77.8635 113.187 79.1968 113.618C83.6702 115.014 88.5302 115.385 93.0702 114.286C97.6102 113.187 101.854 110.518 104.52 106.652C105.187 105.704 105.744 104.675 106.57 103.87C107.397 103.065 108.57 102.497 109.694 102.747L110.63 103.262Z" fill="black"/>
<path fill-rule="evenodd" clip-rule="evenodd" d="M36.8443 224.069L41.8076 164.851L50.631 164.66C48.1143 180.004 46.321 195.48 44.531 210.931L40.5876 245.005L40.5858 245.021C40.0864 249.328 39.5874 253.632 39.3976 257.97L39.1476 258.835C36.5843 258.374 33.7643 257.612 32.4043 255.387C31.2146 253.45 31.5365 251.146 31.8621 248.814C32.1442 246.794 32.4292 244.754 31.7376 242.914C31.3772 241.951 30.7577 241.03 30.1471 240.122C28.9959 238.411 27.8764 236.746 28.5843 234.943C29.1432 233.531 30.5569 232.872 31.9871 232.205C32.8857 231.786 33.7907 231.364 34.4943 230.75C36.3176 229.16 36.641 226.488 36.8443 224.069ZM124.554 241.3C121.894 219.62 120.264 197.866 119.668 176.042L136.121 175.54L144.221 249.561C144.718 254.111 145.104 259.126 142.461 262.86C141.448 264.29 140.054 265.413 138.441 266.097C136.828 266.782 135.058 267.003 133.324 266.735C131.594 266.468 129.971 265.72 128.638 264.581C127.304 263.442 126.318 261.952 125.781 260.278C125.588 259.668 125.452 259.035 125.317 258.405C125.035 257.087 124.756 255.781 123.958 254.719C123.119 253.607 121.836 252.944 120.563 252.287C119.104 251.533 117.657 250.786 116.908 249.374C115.874 247.417 116.721 244.848 118.394 243.408C120.068 241.968 122.351 241.437 124.554 241.3Z" fill="#FFD39F"/>
<path fill-rule="evenodd" clip-rule="evenodd" d="M103.526 103.449C103.621 103.619 103.717 103.79 103.816 103.961C103.623 104.238 103.444 104.511 103.273 104.772C103.106 105.026 102.94 105.28 102.756 105.544C100.47 108.858 96.7264 111.347 92.4831 112.369C88.5031 113.327 84.0764 113.11 79.6931 111.741C78.6131 111.39 77.5231 110.972 76.8731 110.274C76.492 109.866 76.2915 109.268 76.3902 108.9C77.1636 108.35 77.7677 107.803 78.2129 107.4L78.2298 107.385L78.3465 107.278C79.9898 105.791 80.4864 104.913 80.9231 103.997C80.9731 103.89 81.0231 103.787 81.0798 103.677C81.5931 102.698 81.2198 101.485 80.2431 100.967C79.2665 100.453 78.0564 100.827 77.5398 101.806C77.4564 101.966 77.3831 102.116 77.3098 102.27C77.0804 102.754 76.892 103.148 75.9748 104.017C75.3927 103.343 74.4101 103.119 73.5764 103.533L68.1798 106.205C67.5236 106.531 67.1237 107.169 67.0713 107.851C66.4851 107.399 65.6705 107.291 64.9631 107.642C57.1331 111.52 53.7164 120.219 50.7031 127.896L50.3564 128.781C46.4264 138.749 41.5931 148.434 35.9931 157.56C34.5798 159.862 34.4398 161.773 35.5798 163.246C35.6164 163.293 35.6531 163.336 35.6931 163.38C36.2898 164.024 37.0464 164.499 37.8831 164.759L37.8898 164.763C38.504 165.002 39.1217 165.243 39.7423 165.484L34.8464 223.898C34.6597 226.106 34.3931 228.174 33.1764 229.236C32.6864 229.664 31.9364 230.015 31.1397 230.385L31.1304 230.39C29.5453 231.131 27.5714 232.053 26.7197 234.207C25.6298 236.99 27.213 239.345 28.4863 241.239L28.4864 241.239L28.5357 241.313L28.5357 241.313C29.0809 242.127 29.5945 242.894 29.8631 243.617C30.3764 244.98 30.1364 246.707 29.8797 248.535C29.5297 251.04 29.1331 253.883 30.6964 256.432C32.2243 258.931 34.9117 259.973 37.5594 260.56C37.7007 261.158 37.9389 261.75 38.3298 262.308C39.5831 264.092 41.7464 264.53 43.0598 264.794L55.2498 267.132C55.3764 267.155 55.5031 267.169 55.6264 267.169C56.5664 267.169 57.4064 266.501 57.5864 265.545C57.7964 264.459 57.0831 263.407 55.9998 263.2L43.8264 260.865C43.1198 260.725 41.9331 260.484 41.5998 260.01C41.3164 259.609 41.3598 258.613 41.3831 258.082C41.5728 253.819 42.075 249.479 42.561 245.279L42.561 245.279L42.5631 245.261L46.5064 211.187L46.6031 210.352L46.6122 210.274C49.3427 186.847 52.1658 162.626 57.6331 139.368C57.8864 138.289 57.2198 137.209 56.1464 136.956C55.0664 136.698 53.9931 137.37 53.7398 138.446C51.7159 147.054 50.0528 155.778 48.6227 164.535C45.5179 163.421 42.4138 162.214 39.3932 161.039L39.3398 161.018L39.2598 160.988C39.2031 160.968 39.1464 160.948 39.0864 160.931C38.9998 160.908 38.9198 160.871 38.8464 160.827C38.8898 160.64 39.0198 160.276 39.3998 159.658C45.1231 150.331 50.0631 140.436 54.0764 130.251L54.4264 129.362C57.3098 122.02 60.2931 114.427 66.7364 111.236C67.3925 110.911 67.7924 110.273 67.8449 109.591C68.0754 109.768 68.3413 109.893 68.6221 109.957C68.0316 110.433 67.74 111.228 67.9398 112.011C68.8531 115.616 72.0564 117.741 74.9864 119.448C77.8498 121.118 81.1431 121.445 84.0064 121.622C85.3764 121.709 86.8831 121.776 88.4698 121.776C91.7664 121.776 95.4164 121.485 98.9198 120.446C104.97 118.659 108.836 113.014 110.603 109.81C111.136 108.841 110.786 107.622 109.82 107.087C108.853 106.553 107.636 106.904 107.103 107.872C105.633 110.538 102.47 115.218 97.7898 116.601C93.2164 117.954 88.3764 117.877 84.2498 117.624C81.8464 117.473 79.1031 117.213 76.9964 115.983C74.7698 114.687 72.3498 113.124 71.8164 111.026C71.6331 110.296 71.0717 109.762 70.3952 109.581L72.3954 108.59C72.2342 110.113 72.779 111.755 73.9531 113.013C75.2264 114.376 76.8764 115.041 78.4864 115.562C81.4731 116.498 84.4864 116.965 87.4131 116.965C89.4731 116.965 91.4864 116.735 93.4231 116.267C98.6098 115.014 103.21 111.938 106.04 107.839C106.24 107.555 106.43 107.265 106.619 106.974L106.62 106.974L106.631 106.957C107.033 106.342 107.414 105.761 107.846 105.34C108.272 104.924 108.808 104.671 109.129 104.733C109.366 104.965 109.664 105.141 110.006 105.233C113.956 106.292 117.793 109.052 121.73 113.662C125.936 118.589 129.246 124.158 131.57 130.211C133.913 136.314 135.233 142.955 136.51 149.383L136.511 149.39C137.947 156.613 139.427 164.057 142.373 171C132.26 173.695 121.89 174.43 111.493 173.188L112.353 142.989C112.383 141.883 111.513 140.958 110.41 140.928C109.306 140.887 108.383 141.769 108.353 142.875L107.443 174.885C107.413 175.904 108.153 176.782 109.163 176.926C112.016 177.328 114.867 177.588 117.712 177.706C118.327 198.3 119.877 219.089 122.326 239.552C120.196 239.943 118.44 240.724 117.09 241.887C114.58 244.045 113.743 247.666 115.14 250.315C116.182 252.277 118.019 253.226 119.641 254.064L119.646 254.067C120.753 254.638 121.796 255.179 122.36 255.924C122.89 256.632 123.11 257.648 123.36 258.824C123.5 259.492 123.65 260.18 123.873 260.888C124.159 261.78 124.551 262.629 125.037 263.417C102.469 267.176 81.9075 267.387 62.2764 264.069C61.1864 263.881 60.1564 264.62 59.9731 265.712C59.7898 266.801 60.5231 267.837 61.6131 268.02C71.0531 269.617 80.6931 270.416 90.6564 270.416C102.701 270.416 115.216 269.245 128.391 266.906C129.778 267.84 131.354 268.459 133.016 268.715C133.6 268.806 134.183 268.849 134.766 268.849C136.293 268.849 137.806 268.545 139.226 267.944C141.183 267.112 142.866 265.756 144.096 264.018C144.162 263.926 144.226 263.832 144.288 263.738C144.344 263.732 144.4 263.724 144.456 263.714C145.401 263.522 146.365 263.363 147.302 263.209L147.303 263.209L147.416 263.19L147.423 263.189C150.588 262.668 153.859 262.13 156.96 260.364C157.823 259.873 158.8 259.261 159.46 258.192C160.323 256.789 159.88 254.538 158.756 250.877C158.703 250.709 158.66 250.566 158.62 250.432C156.776 244.389 155.043 238.66 153.37 233.118L153.23 232.654C148.886 218.287 144.766 204.661 139.551 188.458L138.198 176.092C140.72 175.585 143.229 174.964 145.723 174.23C146.283 174.063 146.743 173.659 146.983 173.121C147.223 172.583 147.213 171.972 146.96 171.441C143.57 164.364 142.053 156.735 140.447 148.66L140.447 148.66L140.447 148.66L140.447 148.66L140.447 148.66L140.447 148.66L140.436 148.608C139.126 142.017 137.77 135.202 135.306 128.778C132.82 122.297 129.276 116.334 124.773 111.059C120.293 105.811 115.8 102.638 111.043 101.362C111.019 101.355 110.994 101.349 110.969 101.343C110.713 101.092 110.385 100.908 110.01 100.824C108.983 100.595 107.886 100.74 106.859 101.212C106.623 100.792 106.357 100.332 106.033 99.8516C105.416 98.9363 104.173 98.6924 103.256 99.3105C102.343 99.9285 102.1 101.175 102.716 102.093C103.005 102.522 103.251 102.959 103.489 103.383L103.526 103.449ZM146.121 259.337C146.338 259.302 146.555 259.266 146.77 259.231L146.798 259.227C149.734 258.744 152.508 258.288 154.983 256.876L155.027 256.851C155.3 256.694 155.692 256.47 155.92 256.245C155.913 255.75 155.713 254.615 154.93 252.056L154.893 251.937C154.851 251.802 154.815 251.684 154.786 251.588C152.946 245.558 151.213 239.826 149.54 234.28L149.398 233.811L149.397 233.81C146.868 225.442 144.415 217.326 141.778 208.807L146.213 249.34L146.214 249.346C146.514 252.099 146.919 255.811 146.121 259.337ZM135.479 188.027C135.412 188.354 135.427 188.702 135.536 189.042L135.618 189.295L142.236 249.777C142.733 254.317 142.996 258.643 140.833 261.7C140.033 262.829 138.94 263.711 137.666 264.252C136.393 264.79 135 264.964 133.633 264.753C132.27 264.543 130.99 263.955 129.94 263.056C128.89 262.154 128.11 260.982 127.69 259.669C127.534 259.177 127.418 258.639 127.296 258.071L127.296 258.071L127.295 258.07L127.295 258.07L127.276 257.982L127.275 257.978C126.969 256.546 126.622 254.924 125.556 253.509C124.447 252.038 122.881 251.226 121.498 250.51L121.483 250.502L121.469 250.495C120.215 249.847 119.131 249.287 118.68 248.435C118.153 247.439 118.61 245.866 119.7 244.927C120.793 243.985 122.47 243.437 124.68 243.3C125.23 243.267 125.74 243.006 126.093 242.582C126.446 242.154 126.606 241.603 126.54 241.055C123.973 220.135 122.351 198.858 121.718 177.78C125.916 177.759 130.097 177.428 134.25 176.791L135.479 188.027ZM42.6411 209.783C44.2239 196.206 45.8377 182.363 47.9799 168.571C46.5248 168.056 45.0734 167.52 43.6319 166.976L38.8331 224.232C38.5864 227.172 38.1497 230.212 35.8031 232.256C34.8864 233.054 33.7931 233.566 32.8264 234.017L32.8234 234.018C31.6847 234.549 30.7028 235.006 30.4397 235.677C30.1397 236.438 30.7564 237.441 31.8031 238.997C32.4731 239.993 33.1631 241.022 33.6064 242.204C34.4739 244.516 34.1384 246.934 33.8423 249.067L33.8397 249.086L33.8397 249.086C33.5464 251.191 33.2931 253.008 34.1031 254.331C34.7486 255.385 36.034 255.999 37.4671 256.405C37.6964 252.53 38.1426 248.666 38.5758 244.914L38.5898 244.793L42.6298 209.881L42.6411 209.783Z" fill="black"/>
</g>
<path d="M108.163 67.823C105.666 67.6393 104.246 64.6996 104.4 62.2008C104.553 59.702 105.733 57.3703 106.103 54.8916C106.953 49.3295 103.173 43.4266 97.7697 41.8866C96.293 41.4657 94.7097 41.3288 93.3664 40.5838C92.2464 39.9591 91.313 38.9135 90.0564 38.693C87.7397 38.2654 85.833 40.6974 83.4897 40.9579C80.3797 41.292 77.9764 37.7209 74.8464 37.7276C71.613 37.7276 69.3764 41.5091 66.1497 41.6628C63.9864 41.7664 62.053 40.1896 59.8897 40.0827C57.093 39.9491 54.7697 42.2975 53.503 44.7996C52.2364 47.3017 51.6097 50.1279 50.0497 52.4596C48.623 54.5909 45.643 56.2345 43.563 54.7379C42.1264 53.709 41.8497 51.6913 41.953 49.9275C42.163 46.3096 43.413 42.8287 45.5497 39.9057C46.2164 39.0171 46.9564 38.1418 47.1964 37.0662C47.5297 35.4827 46.7164 33.9093 46.3964 32.3192C45.693 28.8115 47.8597 24.9498 51.2164 23.7272C52.803 23.1526 54.5764 23.1091 56.063 22.3107C57.5497 21.5123 58.603 19.9991 59.6364 18.616C65.1064 11.2935 73.8697 5.30043 82.8497 6.92396C88.3597 7.92614 93.183 11.6442 100.036 12.937C104.806 9.38599 112.156 9.9305 116.33 14.1831C121.72 19.6483 121.51 29.336 127.663 33.9327C128.643 34.6676 129.783 35.2689 130.453 36.2911C131.876 38.4625 130.593 41.4123 131.203 43.9411C131.736 46.1359 133.596 47.6993 134.98 49.4832C136.363 51.267 137.25 53.9696 135.773 55.6766C135.13 56.4182 134.173 56.7957 133.416 57.4171C131.556 58.9404 131.186 61.6529 131.416 64.0481C131.646 66.4434 132.473 69.4866 132 71.2237C130.096 78.2824 125.693 76.4818 123.603 77.5709" fill="black"/>
<path d="M53.3327 52.85C51.3327 55.8565 50.9994 59.5312 49.9994 63.2059C49.9994 64.2615 45.946 78.5191 55.3327 87.9263C58.666 91.2669 62.9994 92.6031 67.4994 93.6053C71.536 94.23 75.946 94.858 79.8327 93.2712C79.6094 96.7488 79.576 99.2308 79.736 102.712L103.166 100.286C102.783 95.7165 103.693 91.6043 105.676 87.4686C106.123 86.5332 107.093 86.5433 108.049 86.2393C108.896 85.972 109.736 85.6647 110.556 85.3173C112.226 84.6224 113.803 83.7238 115.256 82.6448C118.129 80.4701 120.366 77.4168 121.209 73.8757C121.973 70.6654 121.436 66.8438 117.859 65.0365C115.353 63.7671 113.103 64.2181 109.279 67.5854L108.153 67.8259C105.656 67.6422 104.236 64.7024 104.389 62.2037C104.543 59.7049 105.723 57.3732 106.093 54.8945C106.943 49.3324 103.163 43.4295 97.7594 41.8895C96.2827 41.4686 94.6994 41.3316 93.356 40.5867C92.236 39.962 91.3027 38.9164 90.046 38.6959C87.7294 38.2683 85.8227 40.7003 83.4794 40.9608C80.3694 41.2949 77.966 37.7238 74.836 37.7305C71.6027 37.7305 69.366 41.512 66.1394 41.6657C63.976 41.7693 62.0427 40.1925 59.8794 40.0856C57.0827 39.952 54.7594 42.3004 53.4927 44.8025C52.226 47.3046 51.5994 50.1308 50.0394 52.4625" fill="#FFD39F"/>
<path fill-rule="evenodd" clip-rule="evenodd" d="M121.827 78.4945C122.184 79.1793 122.881 79.5735 123.604 79.5735C123.917 79.5735 124.231 79.5 124.527 79.333C124.745 79.219 125.308 79.1463 125.814 79.0809L125.854 79.0758L125.859 79.0751C128.223 78.771 132.175 78.2627 133.934 71.7365C134.372 70.1292 134.047 68.0843 133.731 66.1037L133.731 66.1036L133.727 66.0808C133.601 65.2824 133.481 64.5241 133.414 63.8427C133.311 62.7737 133.231 60.1513 134.691 58.9554C134.878 58.7986 135.128 58.6418 135.395 58.474L135.447 58.4409L135.456 58.4358C136.044 58.0663 136.707 57.6494 137.291 56.9777C139.494 54.4322 138.514 50.7542 136.564 48.2421C136.164 47.7276 135.744 47.2432 135.334 46.7756L135.327 46.7678C134.35 45.6482 133.43 44.5949 133.154 43.4583C132.974 42.71 133.031 41.7814 133.094 40.7959C133.207 39.0254 133.334 37.0143 132.131 35.1803C131.411 34.0816 130.421 33.4001 129.548 32.7989L129.547 32.7985L129.419 32.7094L129.419 32.7093C129.232 32.5794 129.046 32.4501 128.864 32.3141C126.042 30.2072 124.709 26.6553 123.296 22.8924L123.294 22.8869C121.951 19.3058 120.561 15.6044 117.761 12.7649C113.121 8.038 105.171 7.23292 99.6107 10.7907C96.5901 10.1172 93.9413 8.94465 91.3728 7.80764L91.3574 7.80082C88.6374 6.59486 86.0707 5.45906 83.2107 4.93793C72.9074 3.07722 63.4541 10.1559 58.0407 17.4017L57.8074 17.7157L57.8047 17.7193C56.9689 18.844 56.1063 20.0046 55.1241 20.5318C54.4976 20.8691 53.6845 21.0428 52.8247 21.2265L52.8247 21.2265L52.8241 21.2267C52.0874 21.3837 51.3241 21.5474 50.5374 21.8313C46.2841 23.3814 43.5507 28.2586 44.4407 32.705C44.5541 33.2762 44.7107 33.804 44.8641 34.3185L44.8667 34.3274C45.1389 35.2456 45.3737 36.0374 45.2507 36.6201C45.1346 37.1455 44.6816 37.7405 44.2007 38.372L44.1941 38.3806L43.9407 38.7147C41.5707 41.9551 40.1941 45.7901 39.9607 49.8021C39.7374 53.6171 41.1674 55.4745 42.4007 56.3597C43.5541 57.1882 44.9474 57.4855 46.4307 57.2182C47.685 56.9916 48.9499 56.3563 50.031 55.4464C48.535 59.7338 47.4977 63.8037 47.1774 66.7089C46.1374 76.253 48.7474 84.718 54.3407 89.9394C57.3841 92.7755 61.3341 94.5895 66.4174 95.4881C69.5641 96.0393 73.6441 96.7508 77.6507 95.9758C77.5841 97.5893 77.6074 98.7719 77.7141 101.124C77.7641 102.199 78.6474 103.038 79.7107 103.038H79.7108C79.7441 103.038 79.7741 103.038 79.8074 103.024C80.9107 102.974 81.7641 102.036 81.7141 100.93C81.5541 97.4824 81.5907 96.7408 81.8041 93.3802C81.8474 92.692 81.5341 92.0272 80.9741 91.6264C80.4141 91.2255 79.6874 91.1386 79.0507 91.3992C75.5341 92.839 71.5607 92.3145 67.1074 91.5362C62.7507 90.7678 59.5607 89.328 57.0674 87.003C52.4041 82.6535 50.2507 75.4145 51.1541 67.1465C51.4274 64.6711 52.5274 59.9375 54.8007 54.0781C55.2007 53.0458 54.6907 51.8833 53.6607 51.4824C53.4261 51.3911 53.1847 51.3471 52.9471 51.3458C53.3611 50.4514 53.7077 49.5455 54.0474 48.6563C54.4474 47.6074 54.8241 46.6219 55.2907 45.6999C56.1641 43.9728 57.8707 41.9851 59.7941 42.0787C60.4841 42.1121 61.2741 42.4161 62.1074 42.7401L62.1272 42.7477C63.3257 43.2103 64.686 43.7352 66.2474 43.6588C68.4065 43.5589 70.0823 42.3776 71.5619 41.3347L71.5774 41.3237C72.7907 40.4652 73.8374 39.7269 74.8541 39.7269H74.8574C75.7941 39.7269 76.8541 40.3783 77.9741 41.0698C79.5874 42.0653 81.4141 43.1911 83.7141 42.9439C85.1507 42.7869 86.3341 42.1188 87.3807 41.5275C88.3107 41.003 89.1141 40.552 89.7174 40.6623C90.0841 40.7257 90.5707 41.0798 91.0841 41.454L91.0905 41.4587C91.4756 41.7381 91.9101 42.0535 92.4041 42.3292C93.5774 42.9773 94.8207 43.2512 95.9207 43.4917C96.3807 43.592 96.8174 43.6888 97.2274 43.8058C101.671 45.0718 104.831 50.0059 104.131 54.5859C103.987 55.5379 103.697 56.5067 103.387 57.5323L103.382 57.5497C102.954 58.974 102.51 60.4485 102.411 62.0688C102.194 65.5798 104.281 69.5384 108.024 69.8123C108.428 69.8429 108.813 69.7503 109.142 69.5661C109.648 69.5948 110.164 69.4323 110.574 69.0707C114.237 65.8437 115.574 66.1142 116.937 66.8057C120.061 68.3858 119.581 71.9336 119.227 73.3934C118.541 76.2897 116.687 79.0023 114.027 81.0166C112.707 81.9988 111.271 82.8172 109.741 83.4519C108.984 83.7726 108.201 84.0599 107.407 84.3105C107.286 84.35 107.151 84.3833 107.008 84.4185C106.986 84.4238 106.965 84.4291 106.943 84.4345C106.926 84.4388 106.908 84.4431 106.891 84.4474C106.031 84.6545 104.594 85.002 103.834 86.5821C101.761 90.9081 100.784 93.2132 101.207 98.2441C101.294 99.2897 102.171 100.081 103.197 100.081C103.254 100.081 103.311 100.078 103.371 100.065C104.471 99.9745 105.287 99.0024 105.194 97.9C104.861 93.9715 105.454 92.4649 107.371 88.4561C107.465 88.4254 107.599 88.3926 107.723 88.3624L107.765 88.3523C107.787 88.3467 107.809 88.3412 107.831 88.3359C108.064 88.2791 108.331 88.2123 108.607 88.1254C109.517 87.8415 110.421 87.5074 111.284 87.1433C113.104 86.3883 114.831 85.4062 116.424 84.2203C118.663 82.5268 120.455 80.4311 121.678 78.1187C121.714 78.2463 121.764 78.3722 121.827 78.4945ZM106.404 62.316C106.313 63.8217 107.082 65.628 108.223 65.8061C113.306 61.444 116.284 61.9819 118.737 63.2246C122.617 65.1889 124.294 69.4415 123.114 74.3254C122.997 74.8178 122.856 75.3055 122.69 75.787C123.541 75.3468 124.457 75.227 125.344 75.1138L125.346 75.1135C127.392 74.8498 129.008 74.6414 130.071 70.6975C130.284 69.9137 130.002 68.151 129.775 66.7357L129.775 66.7356L129.775 66.7355L129.774 66.7289C129.641 65.9005 129.504 65.0453 129.427 64.2402C129.074 60.5689 130.041 57.5924 132.154 55.8653C132.551 55.5379 132.961 55.2807 133.324 55.0569L133.366 55.0302C133.737 54.7964 134.084 54.5777 134.267 54.362C134.914 53.6137 134.337 51.9167 133.404 50.7141C133.08 50.2969 132.717 49.8798 132.334 49.4399L132.334 49.4398L132.334 49.4397L132.324 49.428C131.127 48.0617 129.774 46.5116 129.264 44.4137C128.941 43.0708 129.024 41.7346 129.101 40.552C129.184 39.2392 129.254 38.1067 128.787 37.3918C128.497 36.9509 127.907 36.5433 127.281 36.1124C127.007 35.9253 126.734 35.7349 126.471 35.5378C122.711 32.7283 121.104 28.449 119.551 24.31C118.301 20.9761 117.117 17.8293 114.914 15.5911C111.461 12.0734 105.197 11.5957 101.237 14.5455C100.791 14.8795 100.224 15.0098 99.6741 14.9063C95.8574 14.1847 92.6074 12.7482 89.7441 11.4788C87.2474 10.3731 84.8907 9.33081 82.5007 8.89319C76.9274 7.88433 68.4107 10.2228 61.2441 19.8136L61.0174 20.1176C59.9707 21.5273 58.7841 23.1208 57.0141 24.0729C55.8907 24.6775 54.7074 24.9314 53.6607 25.1519L53.5957 25.1659C52.9863 25.2976 52.4093 25.4223 51.9007 25.6062C49.4741 26.4881 47.8541 29.3811 48.3607 31.9199C48.4407 32.3108 48.5641 32.735 48.6974 33.1827L48.6996 33.1902C49.0724 34.451 49.4934 35.875 49.1574 37.4753C48.8441 38.8817 48.0641 39.9073 47.3741 40.8126L47.1541 41.1032C45.2541 43.7022 44.1441 46.7956 43.9541 50.036C43.8641 51.566 44.1474 52.6817 44.7307 53.0993C44.9007 53.2229 45.1841 53.3699 45.7207 53.273C46.6441 53.106 47.7441 52.3109 48.3941 51.3355C49.1941 50.1411 49.733 48.7313 50.3037 47.2381L50.3107 47.2198L50.3176 47.2019C50.7355 46.1118 51.1671 44.9856 51.7241 43.8859C53.2074 40.9562 56.1607 37.8896 59.9907 38.0733C61.3228 38.1399 62.5026 38.5946 63.54 38.9945L63.5401 38.9945L63.5507 38.9986L63.5759 39.0084C64.5218 39.375 65.3338 39.6898 66.0607 39.6534C67.0636 39.6067 68.1364 38.849 69.2758 38.0444L69.2774 38.0432L69.2775 38.0431C70.8241 36.9508 72.5741 35.7148 74.8541 35.7148H74.8674C76.9307 35.7148 78.6007 36.7437 80.0741 37.6524L80.0873 37.6605C81.3017 38.4087 82.3508 39.0551 83.2841 38.9552C83.9007 38.8851 84.6374 38.4708 85.4207 38.0299C86.7541 37.2782 88.4141 36.3429 90.4274 36.7137C91.6872 36.9335 92.6553 37.6384 93.4342 38.2055L93.4407 38.2103L93.5201 38.2677L93.5201 38.2677L93.5203 38.2679C93.814 38.4806 94.0905 38.6809 94.3474 38.8249C94.9992 39.1864 95.8513 39.3733 96.7571 39.5721L96.7774 39.5766L96.8217 39.5863C97.308 39.6935 97.8129 39.8048 98.3241 39.9507C104.714 41.7713 109.094 48.6062 108.087 55.1872C107.906 56.4052 107.562 57.5482 107.229 58.6549L107.217 58.6948C106.834 59.9609 106.474 61.1568 106.404 62.316ZM62.8107 62.5699C64.0994 62.5699 65.1441 61.2986 65.1441 59.7304C65.1441 58.1622 64.0994 56.8909 62.8107 56.8909C61.5221 56.8909 60.4774 58.1622 60.4774 59.7304C60.4774 61.2986 61.5221 62.5699 62.8107 62.5699ZM74.1441 63.3549C75.4327 63.3549 76.4774 62.0836 76.4774 60.5154C76.4774 58.9472 75.4327 57.6759 74.1441 57.6759C72.8554 57.6759 71.8107 58.9472 71.8107 60.5154C71.8107 62.0836 72.8554 63.3549 74.1441 63.3549Z" fill="black"/>
</g>
<defs>
<clipPath id="clip0_805_38161">
<rect width="180" height="180" rx="24" fill="white"/>
</clipPath>
<clipPath id="clip1_805_38161">
<rect width="200" height="200.436" fill="white" transform="translate(-10 95.2734)"/>
</clipPath>
</defs>
</svg>
