<svg width="180" height="180" viewBox="0 0 180 180" fill="none" xmlns="http://www.w3.org/2000/svg">
<g clip-path="url(#clip0_805_38822)">
<rect width="180" height="180" rx="24" fill="white"/>
<g clip-path="url(#clip1_805_38822)">
<path d="M103.124 95.2734C103.424 98.6474 104.8 106.271 109.924 105.128L110.474 105.963C110.224 111.198 107.577 114.889 103.43 118.714C99.2171 122.539 93.8437 124.838 88.1737 125.242C83.1737 125.609 77.8571 124.41 74.1171 121.049C70.3771 117.689 68.4104 113.032 70.8871 109.04H71.2471C72.3737 109.073 73.4104 108.482 74.3637 107.881C75.5771 107.113 78.0804 103.962 78.8304 103.057C79.8304 101.758 80.2371 96.8302 80.7504 95.2734H103.124V95.2734Z" fill="#FFD39F"/>
<path d="M110.519 103.289C116.416 104.873 120.989 109.426 124.673 114.089C128.689 119.18 131.839 124.899 133.999 131.016C135.209 134.433 137.123 138.278 137.913 141.813L138.966 145.047C144.673 169.677 145.693 195.082 146.066 220.41L146.399 220.791C148.453 228.321 156.119 247.362 157.786 255.38C157.839 256.065 157.726 256.753 157.453 257.384C154.119 261.393 148.453 260.391 144.069 261.754L128.579 264.844C106.409 268.829 84.1595 269.804 61.9495 266.05L57.7595 265.558L43.4261 262.809C42.1328 262.562 40.7128 262.231 39.9561 261.139C39.3294 260.244 39.3328 259.064 39.3795 257.972C39.5695 253.629 40.0695 249.32 40.5695 245.007L42.8561 225.251H42.6828C39.2961 224.837 36.5761 224.426 33.1895 224.015C34.5928 208.498 36.3928 193.021 38.5895 177.581C40.4995 164.135 42.7228 150.685 46.6695 137.694C50.1761 126.149 55.7395 114.209 66.3028 108.42L80.9695 109.422L110.519 103.289Z" fill="black"/>
<path fill-rule="evenodd" clip-rule="evenodd" d="M84.1938 123.333L81.0005 109.443C87.4311 106.802 92.299 104.344 97.1502 101.895L97.3072 101.816C101 99.9486 104.814 98.0478 108.94 97.7305C108.63 101.161 107.692 104.47 106.755 107.778L106.755 107.778L106.727 107.876C106.097 110.091 105.43 112.359 103.94 114.099C102.68 115.573 100.934 116.535 99.1938 117.387C94.3702 119.75 89.291 121.538 84.2246 123.322L84.1938 123.333ZM76.1838 105.207L77.5671 100.256C77.9338 100.563 78.4071 99.2605 77.7871 98.2416L67.5371 106.526C67.2904 109.052 67.5804 111.601 68.3938 114.006C69.2071 116.411 70.5204 118.613 72.2471 120.47C75.3671 117.246 77.8571 113.461 79.5804 109.316C78.0471 108.992 76.1971 108.35 75.9704 106.794C75.9338 106.256 76.0038 105.715 76.1838 105.207ZM118.854 231.815C118.327 234.371 118.154 236.983 118.334 239.586C118.327 239.736 118.347 239.886 118.4 240.026C118.454 240.167 118.534 240.297 118.637 240.407C118.847 240.534 119.094 240.591 119.337 240.564L142.004 240.501C142.347 240.528 142.69 240.464 143.004 240.32C143.644 239.956 143.694 239.068 143.67 238.316L143.43 232.159L118.854 231.815ZM32.7305 232.002C32.9305 229.514 33.1471 226.958 34.2171 224.703L42.5305 225.482L41.4771 233.339C38.5138 233.319 35.5671 232.868 32.7305 232.002Z" fill="white"/>
<path fill-rule="evenodd" clip-rule="evenodd" d="M83.2434 125.084C83.5367 125.244 83.8734 125.328 84.2067 125.328C84.4367 125.328 84.6667 125.291 84.8767 125.217C89.92 123.444 95.1334 121.606 100.063 119.191C101.987 118.252 103.967 117.143 105.45 115.409C107.26 113.298 108.027 110.599 108.643 108.428L108.673 108.327L108.674 108.324L108.674 108.323L108.675 108.322C108.98 107.246 109.288 106.158 109.577 105.057C109.708 105.127 109.85 105.184 110 105.224C115.823 106.791 120.267 111.742 123.103 115.333C126.99 120.26 130.02 125.762 132.113 131.688C132.55 132.918 133.073 134.207 133.583 135.453C134.517 137.741 135.48 140.107 135.96 142.251C136.17 143.183 136.993 143.818 137.91 143.818C138.057 143.818 138.203 143.801 138.35 143.768C139.427 143.524 140.103 142.452 139.863 141.373C139.31 138.901 138.283 136.375 137.287 133.933L137.241 133.821C136.744 132.603 136.275 131.451 135.883 130.345C133.647 124.005 130.4 118.119 126.24 112.844C123.053 108.809 118.007 103.223 111.037 101.352C110.839 101.299 110.64 101.277 110.445 101.284C110.656 100.176 110.824 99.0532 110.927 97.9148C110.98 97.3302 110.773 96.7489 110.36 96.328C109.947 95.9071 109.37 95.69 108.783 95.7367C104.199 96.0873 100.061 98.1797 96.4095 100.026L96.4034 100.029L96.2434 100.11L96.099 100.182L96.0989 100.182C91.4502 102.527 86.6356 104.955 80.44 107.507C80.299 107.44 80.1492 107.388 79.9933 107.355C78.41 107.021 78.0233 106.614 77.9599 106.524C77.9599 106.33 77.9866 106.139 78.0433 105.956L80.1033 101.563C80.4699 100.781 80.2933 99.849 79.6666 99.2544C79.04 98.6598 78.1033 98.5362 77.3433 98.9471L66.5866 104.76C66.0033 105.077 65.6099 105.665 65.5466 106.33C65.538 106.417 65.53 106.505 65.5226 106.593C65.4666 106.617 65.4112 106.644 65.3566 106.674C56.0866 111.755 49.5433 121.426 44.76 137.113C40.7366 150.359 38.4666 164.256 36.6133 177.301C34.4199 192.691 32.6 208.348 31.2 223.839C31.1428 224.455 31.3717 225.033 31.7786 225.44C31.2344 227.115 31.0048 228.838 30.8531 230.47C27.4577 231.973 25.7227 234.997 26.51 238.153C26.6 238.507 26.78 238.828 27.0367 239.085C30.2767 242.335 29.92 247.189 29.5733 251.883L29.5664 251.974L29.5664 251.975L29.5664 251.975L29.5664 251.975L29.5664 251.975L29.5664 251.975L29.5663 251.975L29.5663 251.976C29.5254 252.519 29.4849 253.055 29.4533 253.58C29.4333 253.907 29.4933 254.235 29.63 254.535C30.46 256.366 31.7833 257.923 33.4533 259.038C34.7087 259.88 36.1186 260.442 37.5937 260.697C37.7381 261.249 37.9689 261.793 38.33 262.309C39.5833 264.093 41.7467 264.53 43.06 264.794L54.3767 266.966C54.5033 266.989 54.63 267.002 54.7533 267.002C55.6933 267.002 56.53 266.334 56.7133 265.379C56.9233 264.293 56.21 263.241 55.1267 263.034L43.8267 260.866C43.12 260.725 41.9333 260.485 41.6 260.011C41.3167 259.61 41.36 258.614 41.3833 258.083C41.5731 253.82 42.0752 249.48 42.5612 245.28L42.5612 245.28L42.5633 245.262L46.5067 211.188L46.6033 210.353L46.6124 210.275C49.3429 186.848 52.166 162.627 57.6333 139.368C57.8867 138.289 57.22 137.21 56.1467 136.956C55.07 136.699 53.9933 137.371 53.74 138.446C48.221 161.922 45.3845 186.253 42.6414 209.784L42.63 209.882L41.1079 223.035C40.3421 222.936 39.6004 222.836 38.8728 222.738L38.2866 222.659C37.3366 222.529 36.37 222.399 35.3566 222.269C36.7266 207.48 38.4766 192.551 40.57 177.865C42.4 164.981 44.64 151.268 48.5833 138.283C52.7451 124.631 58.2006 115.944 65.6581 111.152C65.831 112.332 66.1118 113.5 66.5 114.648C67.41 117.34 68.85 119.759 70.7833 121.837C71.1566 122.238 71.6799 122.468 72.2266 122.475H72.2466C72.7866 122.475 73.3066 122.254 73.6833 121.867C75.0205 120.485 76.2429 119.015 77.3454 117.463L73.5433 177.494L73.5405 177.54C71.7139 206.383 69.8271 236.179 73.0123 265.522C69.3991 265.153 65.8227 264.669 62.2766 264.069C61.1866 263.882 60.1566 264.621 59.9733 265.713C59.7899 266.802 60.5233 267.838 61.6133 268.021C65.8984 268.746 70.2248 269.306 74.6039 269.702C74.8173 269.78 75.0465 269.822 75.2833 269.822C75.3633 269.822 75.4433 269.819 75.5233 269.809C75.5408 269.806 75.5581 269.804 75.5754 269.802C75.595 269.799 75.6145 269.796 75.6338 269.792C80.5681 270.208 85.5702 270.417 90.6566 270.417C102.728 270.417 115.272 269.24 128.479 266.891C130.272 268.274 132.38 269.003 134.703 269.003C134.953 269.003 135.21 268.997 135.467 268.977C139.001 268.744 142.073 266.819 144.132 263.751C144.307 263.745 144.483 263.715 144.66 263.665C145.903 263.278 147.33 263.097 148.837 262.91C152.3 262.479 156.223 261.988 158.987 258.664C159.11 258.517 159.21 258.354 159.287 258.177C159.683 257.251 159.853 256.229 159.777 255.224C159.77 255.137 159.757 255.053 159.74 254.97C158.747 250.194 155.825 242.005 152.998 234.086L152.998 234.085L152.997 234.081C151.027 228.569 149.17 223.361 148.323 220.261C148.269 220.06 148.186 219.875 148.079 219.708C147.804 195.071 147.132 171.515 141.443 146.941C141.193 145.862 140.12 145.191 139.043 145.441C137.967 145.692 137.297 146.768 137.547 147.847C143.64 174.174 143.887 199.509 144.147 226.334C144.153 226.944 144.159 227.556 144.165 228.168V228.168V228.169C144.171 228.769 144.177 229.37 144.183 229.972L118.947 229.558C115.197 200.194 113.903 170.326 115.1 140.751C115.147 139.646 114.287 138.71 113.183 138.667C112.077 138.627 111.147 139.482 111.103 140.588C109.873 170.964 111.253 201.65 115.203 231.792C115.306 232.568 115.841 233.192 116.547 233.431C116.265 235.483 116.192 237.562 116.33 239.633C116.33 240.007 116.393 240.374 116.523 240.725C116.673 241.126 116.897 241.487 117.19 241.794C117.218 241.824 117.247 241.852 117.276 241.88C116.068 242.795 115.067 243.966 114.627 245.375C114.247 246.595 114.13 248.492 115.73 250.597C117.21 252.548 119.253 253.72 121.057 254.753C121.413 254.956 121.767 255.16 122.12 255.371C122.613 255.662 123.153 257.631 123.388 258.493L123.393 258.511C123.557 259.112 123.713 259.68 123.897 260.188C124.32 261.352 124.822 262.411 125.395 263.358C108.292 266.233 92.3418 267.073 77.0783 265.888C73.8065 236.615 75.702 206.698 77.5367 177.748L81.2329 119.389L82.2434 123.784C82.3734 124.339 82.7434 124.81 83.2434 125.084ZM32.6412 234.067C31.975 234.346 30.2665 235.211 30.3267 236.737C34.3685 241.238 33.9236 247.282 33.5637 252.172L33.5633 252.177C33.5536 252.315 33.5434 252.451 33.5333 252.588C33.5156 252.825 33.4981 253.06 33.4833 253.296C34.0067 254.265 34.76 255.09 35.6767 255.704C36.2297 256.074 36.83 256.358 37.4588 256.55C37.6855 252.627 38.1375 248.713 38.5761 244.915L38.59 244.794L39.6905 235.284C37.3043 235.138 34.9425 234.73 32.6412 234.067ZM40.1521 231.295L40.6467 227.02C39.6463 226.891 38.6891 226.761 37.7533 226.635L37.2832 226.572L37.2814 226.571L37.2791 226.571L37.276 226.571L37.2721 226.57C36.754 226.501 36.2289 226.43 35.6934 226.359C35.2259 227.648 35.0099 229.072 34.8667 230.513C36.6002 230.938 38.3699 231.201 40.1521 231.295ZM120.28 238.564C120.22 236.901 120.315 235.237 120.565 233.592L141.496 233.937L141.67 238.383C141.672 238.412 141.673 238.439 141.673 238.464C141.673 238.478 141.673 238.491 141.673 238.504V238.504L120.28 238.564ZM145.667 238.236L145.502 234.003L146.173 234.014H146.207C146.733 234.014 147.243 233.804 147.613 233.433C147.89 233.158 148.078 232.81 148.159 232.434C148.476 233.326 148.801 234.236 149.128 235.155L149.139 235.184L149.139 235.184L149.139 235.185L149.139 235.186L149.227 235.431L149.239 235.465C151.859 242.809 154.821 251.112 155.79 255.641C155.797 255.875 155.767 256.112 155.7 256.336C153.947 258.23 151.337 258.557 148.337 258.932C147.623 259.02 146.899 259.111 146.175 259.227C146.278 258.855 146.37 258.474 146.45 258.086C147.459 253.192 146.619 248.343 145.806 243.655L145.803 243.638C145.713 243.124 145.627 242.613 145.54 242.102C145.473 241.704 145.295 241.354 145.042 241.077C145.723 240.038 145.684 238.757 145.667 238.236ZM123.459 242.555L141.57 242.504C141.573 242.59 141.582 242.678 141.597 242.766C141.669 243.199 141.744 243.631 141.819 244.066L141.82 244.075L141.823 244.089L141.823 244.091L141.823 244.092L141.863 244.323L141.866 244.338C142.615 248.659 143.389 253.124 142.533 257.271C141.417 262.666 138.017 264.788 135.2 264.975C130.913 265.252 128.733 261.781 127.653 258.811C127.527 258.457 127.39 257.966 127.25 257.448L127.247 257.439C126.711 255.48 126.044 253.04 124.163 251.923C123.882 251.756 123.598 251.592 123.312 251.428L123.303 251.423L123.04 251.272L123.038 251.27L123.037 251.27C121.425 250.345 119.899 249.47 118.91 248.168C118.227 247.27 118.383 246.765 118.443 246.575C118.757 245.569 120.33 244.403 122.183 243.802C122.805 243.603 123.26 243.128 123.459 242.555ZM85.64 120.698L83.33 110.642C89.0734 108.217 93.63 105.919 98.0367 103.691L98.2 103.607C100.913 102.234 103.7 100.828 106.59 100.133C106.176 102.462 105.522 104.771 104.841 107.179L104.841 107.179L104.827 107.228L104.8 107.329C104.24 109.306 103.657 111.351 102.42 112.797C101.36 114.033 99.7434 114.885 98.3134 115.587C94.2634 117.571 89.9267 119.178 85.64 120.698ZM69.4599 107.766C69.3966 109.67 69.6766 111.548 70.2899 113.365C70.7799 114.815 71.4633 116.164 72.33 117.401C74.11 115.299 75.6166 113.001 76.8333 110.532C75.1666 109.757 74.2133 108.601 73.9899 107.085L73.9878 107.069L73.9878 107.069L73.9878 107.069C73.9819 107.025 73.9763 106.982 73.9733 106.938C73.9333 106.37 73.9733 105.809 74.09 105.257L69.4599 107.766Z" fill="black"/>
</g>
<path d="M115.139 61.2004C114.853 59.3297 113.069 58.1037 111.396 57.2284C109.723 56.3532 107.853 55.4546 107.083 53.7241C105.643 50.4938 108.936 46.5619 107.479 43.3382C106.829 41.8984 105.333 40.9998 103.793 40.6424C102.253 40.2849 100.653 40.4386 99.0794 40.5789L94.9428 38.4142C92.1728 33.9812 86.1261 32.5682 81.0294 33.7106C75.9328 34.8531 71.5594 38.02 67.3328 41.1L54.0961 50.7711C51.9428 52.3445 48.8994 53.9212 46.8428 52.2209C43.7761 49.6887 47.5094 43.8961 44.8794 40.923C44.2494 40.2148 43.3494 39.8139 42.6294 39.1959C40.6294 37.4655 40.3794 34.4389 40.6594 31.7965C41.7428 21.5976 48.4661 12.3409 57.5028 7.52706C66.5394 2.71326 77.6028 2.23222 87.2895 5.5227C92.8494 7.42016 98.5628 11.3287 99.2561 17.1714L102.953 18.3773C107.493 14.3686 114.423 15.2639 120.253 16.844C124.436 17.9764 128.603 19.3762 132.253 21.7112C135.903 24.0463 139.033 27.4203 140.389 31.5459C141.226 34.0848 141.389 36.8909 142.846 39.1425C143.789 40.6056 145.196 41.708 146.233 43.1044C149.209 47.1131 148.273 53.487 144.266 56.4668C142.329 57.9066 139.733 58.7317 138.653 60.8964C137.749 62.7104 138.163 65.0688 136.919 66.6656C135.109 68.9873 130.919 68.3125 129.336 70.7946C128.899 71.4794 128.736 72.3246 128.219 72.9493C127.703 73.574 126.553 73.8145 126.156 73.113L116.376 73.5606L115.139 61.2004Z" fill="black"/>
<path d="M52.9371 53.3573C50.7871 58.8993 49.4938 63.9036 49.1671 66.9335C48.3438 74.5634 49.8804 83.0418 55.7038 88.477C58.8071 91.3699 62.6504 92.793 66.7604 93.5179C71.0471 94.2762 75.6471 94.9678 79.8071 93.2641C79.5871 96.7416 79.5538 98.8896 79.7138 102.371L103.167 99.9519C102.787 95.3787 103.68 91.5971 105.667 87.4614C106.117 86.5261 107.084 86.5361 108.04 86.2321C108.89 85.9648 109.724 85.6575 110.547 85.3101C112.217 84.6153 113.797 83.7166 115.247 82.6376C118.12 80.4629 120.36 77.4096 121.2 73.8686C121.964 70.6582 121.427 66.8366 117.867 65.0293C115.357 63.7599 113.107 64.2109 109.284 67.5782L115.17 61.2311C114.884 59.3603 113.1 58.1343 111.427 57.2591C109.754 56.3839 107.884 55.4853 107.114 53.7548C105.674 50.5245 108.967 46.5926 107.51 43.3689C106.86 41.9291 105.364 41.0305 103.824 40.6731C102.284 40.3156 100.684 40.4693 99.1104 40.6096L94.9738 38.4449C92.2038 34.0119 86.1571 32.5988 81.0604 33.7413C75.9638 34.8838 71.5604 38.0206 67.3338 41.1006L54.0971 50.7717" fill="#FFD39F"/>
<path fill-rule="evenodd" clip-rule="evenodd" d="M48.9431 54.9713C47.4697 54.9713 46.3631 54.4268 45.5697 53.7687C43.1613 51.779 43.476 48.7616 43.7293 46.3338L43.7297 46.3292C43.9064 44.6355 44.0731 43.0321 43.3831 42.2537C43.1864 42.0332 42.8364 41.7994 42.4664 41.5522C42.1164 41.3183 41.7164 41.0511 41.3297 40.7204C39.1564 38.8396 38.2397 35.6827 38.6731 31.5872C39.8064 20.934 46.6597 11.0358 56.5664 5.76103C65.7464 0.870398 77.4697 0.0753368 87.9331 3.62973C95.5897 6.24208 100.563 11.2196 101.243 16.9387C101.373 18.0377 100.59 19.0366 99.4931 19.1668C98.3964 19.2971 97.4031 18.5121 97.2697 17.413C96.5397 11.2596 88.9531 8.21302 86.6431 7.42464C77.2064 4.22101 66.6631 4.92254 58.4397 9.30206C49.6897 13.9622 43.6397 22.6644 42.6464 32.0148C42.4464 33.9189 42.5031 36.4477 43.9331 37.6838C44.1297 37.8508 44.3964 38.0312 44.6764 38.2183L44.6824 38.2223C45.2176 38.5787 45.8284 38.9855 46.3664 39.5946C48.2276 41.6967 47.9371 44.4953 47.7039 46.7422L47.7031 46.7501C47.4897 48.8079 47.4097 50.1007 48.1097 50.6787C49.2931 51.6575 52.0864 49.76 52.9131 49.1554L66.1497 39.4843L66.1658 39.4726C70.3219 36.4456 75.0269 33.0187 80.5864 31.7709C87.4397 30.2342 93.0431 32.0315 95.9597 36.6983C96.5464 37.637 96.2631 38.873 95.3264 39.461C94.3897 40.0489 93.1564 39.7649 92.5697 38.8262C89.7831 34.3666 83.8697 35.1416 81.4597 35.6827C76.7031 36.7484 72.5331 39.785 68.5031 42.7247L55.2697 52.3957C55.1223 52.5035 54.9766 52.6074 54.8325 52.7073C54.9789 53.1385 54.9805 53.6217 54.8031 54.0794C52.5298 59.9388 51.4298 64.6724 51.1564 67.1478C50.2531 75.4158 52.4065 82.6548 57.0698 87.0043C59.5631 89.3294 62.7531 90.7691 67.1098 91.5375C71.5631 92.3158 75.5398 92.8403 79.0531 91.4005C79.6898 91.14 80.4165 91.2268 80.9764 91.6277C81.5364 92.0319 81.8498 92.6933 81.8065 93.3815C81.5931 96.7421 81.5564 97.4837 81.7164 100.931C81.7664 102.037 80.9131 102.976 79.8098 103.026C79.7731 103.039 79.7431 103.039 79.7131 103.039C78.6498 103.039 77.7664 102.201 77.7164 101.125C77.6098 98.7732 77.5864 97.5907 77.6531 95.9771C73.6465 96.7522 69.5664 96.0406 66.4198 95.4894C61.3364 94.5908 57.3864 92.7768 54.3431 89.9407C48.7498 84.7193 46.1398 76.2543 47.1798 66.7102C47.5152 63.6676 48.6371 59.3476 50.2487 54.8382C49.7845 54.93 49.3497 54.9713 48.9431 54.9713ZM126.97 75.5594C126.873 75.5594 126.78 75.5561 126.686 75.5461C125.713 75.4592 124.89 74.9381 124.423 74.1163C123.88 73.1542 124.216 71.9315 125.176 71.3837C125.726 71.0697 126.366 71.0496 126.91 71.2701C126.95 71.1766 126.993 71.0763 127.036 70.9795L127.049 70.9494C127.206 70.5792 127.384 70.1595 127.656 69.7334C128.876 67.8226 130.953 67.2146 132.62 66.7269C133.776 66.3895 134.87 66.0688 135.35 65.4508C135.723 64.9739 135.851 64.1688 135.999 63.2338L136.003 63.2092L136.009 63.1736C136.164 62.1935 136.34 61.085 136.87 60.019C137.881 57.9919 139.713 56.9231 141.33 55.9791L141.34 55.9735C141.973 55.6061 142.57 55.2553 143.083 54.8745C144.57 53.7687 145.596 51.9548 145.9 49.897C146.203 47.8392 145.743 45.8047 144.64 44.3182C144.25 43.7937 143.77 43.2859 143.26 42.7514L143.25 42.7416C142.537 41.9897 141.797 41.2106 141.176 40.246C140.026 38.4688 139.58 36.5379 139.15 34.6705L139.137 34.6144C138.938 33.76 138.751 32.9535 138.5 32.1918C137.4 28.8479 134.803 25.7311 131.186 23.4194C127.55 21.091 123.36 19.7782 119.74 18.796C112.793 16.9119 108.453 17.3228 105.23 20.1724C104.4 20.9039 103.136 20.8238 102.406 19.992C101.676 19.1602 101.756 17.8941 102.586 17.1625C108.093 12.3019 115.203 13.4143 120.783 14.9243C124.693 15.9832 129.243 17.4197 133.336 20.0387C137.726 22.8482 140.91 26.7166 142.296 30.9358C142.609 31.8851 142.828 32.8377 143.041 33.7606L143.043 33.7686C143.413 35.3687 143.763 36.882 144.53 38.0679C144.95 38.7179 145.528 39.3284 146.14 39.9745L146.153 39.9888L146.199 40.0377C146.752 40.6205 147.324 41.2244 147.843 41.9263C149.576 44.2614 150.31 47.3782 149.853 50.4816C149.396 53.585 147.796 56.361 145.463 58.0948C144.775 58.6081 144.053 59.0282 143.354 59.4349L143.354 59.4351L143.35 59.4377C142.05 60.196 140.923 60.8541 140.446 61.8095C140.191 62.322 140.077 63.0346 139.956 63.7919L139.95 63.8306C139.746 65.1334 139.513 66.6133 138.5 67.9161C137.223 69.553 135.373 70.0942 133.74 70.5719C132.503 70.9327 131.436 71.2467 131.026 71.8914C130.93 72.0451 130.826 72.2856 130.72 72.5429C130.51 73.044 130.246 73.6653 129.766 74.2466C129.09 75.0617 128.016 75.5594 126.97 75.5594ZM113.163 61.5055C113.226 61.9243 113.415 62.2926 113.685 62.5783C112.096 63.0016 110.226 64.0394 107.933 66.0588C107.103 66.7904 107.02 68.0564 107.75 68.8883C108.48 69.7201 109.743 69.8036 110.573 69.072C114.236 65.845 115.573 66.1156 116.936 66.8071C120.06 68.3872 119.58 71.9349 119.226 73.3947C118.54 76.2943 116.686 79.0036 114.026 81.018C112.706 82.0001 111.27 82.8185 109.74 83.4532C108.983 83.7739 108.2 84.0612 107.406 84.3118C107.286 84.3513 107.15 84.3846 107.007 84.4199C106.968 84.4293 106.929 84.4389 106.89 84.4487C106.03 84.6559 104.593 85.0033 103.833 86.5834C101.76 90.9128 100.783 93.2145 101.206 98.2454C101.293 99.2943 102.17 100.083 103.196 100.083C103.253 100.083 103.31 100.079 103.37 100.066C104.47 99.9725 105.286 99.0037 105.193 97.9013C104.86 93.9728 105.453 92.4662 107.37 88.4575C107.464 88.4267 107.598 88.3939 107.722 88.3637C107.743 88.3586 107.763 88.3536 107.783 88.3487C107.799 88.3448 107.815 88.341 107.83 88.3372C108.063 88.2804 108.33 88.2136 108.606 88.1267C109.516 87.8428 110.42 87.5087 111.283 87.1446C113.103 86.3896 114.83 85.4075 116.423 84.2216C119.836 81.6393 122.213 78.1217 123.113 74.3267C124.293 69.4428 122.616 65.1902 118.736 63.2259C118.096 62.9019 117.42 62.6258 116.681 62.472C117.027 62.0477 117.199 61.4831 117.11 60.8975C116.673 58.0347 114.166 56.4178 112.316 55.4524L112.046 55.3121C110.723 54.6239 109.353 53.909 108.906 52.9102C108.474 51.9402 108.835 50.5377 109.217 49.0514L109.22 49.0418C109.736 47.0408 110.32 44.7725 109.3 42.5142C108.453 40.6335 106.61 39.2405 104.243 38.6926C102.428 38.2688 100.61 38.4317 99.0083 38.5752H99.0083L99.0031 38.5757L98.9031 38.5857C97.8031 38.6859 96.9931 39.658 97.0897 40.7604C97.1897 41.8628 98.1564 42.6779 99.2597 42.5777L99.3597 42.5677L99.3643 42.5673C100.796 42.4405 102.148 42.3208 103.343 42.5978C104.45 42.855 105.34 43.4563 105.66 44.1678C106.095 45.1377 105.751 46.4766 105.353 48.0286L105.353 48.0287L105.35 48.0396L105.348 48.0474C104.835 50.0398 104.254 52.2951 105.256 54.5437C106.27 56.822 108.453 57.9578 110.206 58.8698L110.47 59.0068C112.16 59.8887 113.04 60.7071 113.163 61.5055ZM62.8098 62.5712C64.0984 62.5712 65.1431 61.2999 65.1431 59.7317C65.1431 58.1635 64.0984 56.8922 62.8098 56.8922C61.5211 56.8922 60.4764 58.1635 60.4764 59.7317C60.4764 61.2999 61.5211 62.5712 62.8098 62.5712ZM76.4765 60.5167C76.4765 62.085 75.4318 63.3562 74.1431 63.3562C72.8545 63.3562 71.8098 62.085 71.8098 60.5167C71.8098 58.9485 72.8545 57.6772 74.1431 57.6772C75.4318 57.6772 76.4765 58.9485 76.4765 60.5167Z" fill="black"/>
</g>
<defs>
<clipPath id="clip0_805_38822">
<rect width="180" height="180" rx="24" fill="white"/>
</clipPath>
<clipPath id="clip1_805_38822">
<rect width="200" height="200.436" fill="white" transform="translate(-10 95.2734)"/>
</clipPath>
</defs>
</svg>
