<svg width="180" height="180" viewBox="0 0 180 180" fill="none" xmlns="http://www.w3.org/2000/svg">
<g clip-path="url(#clip0_805_38757)">
<rect width="180" height="180" rx="24" fill="white"/>
<g clip-path="url(#clip1_805_38757)">
<path d="M103.124 95.2734C103.424 98.6474 104.8 106.271 109.924 105.128L110.474 105.963C110.224 111.198 107.577 114.889 103.43 118.714C99.2171 122.539 93.8437 124.838 88.1737 125.242C83.1737 125.609 77.8571 124.41 74.1171 121.049C70.3771 117.689 68.4104 113.032 70.8871 109.04H71.2471C72.3737 109.073 73.4104 108.482 74.3637 107.881C75.5771 107.113 78.0804 103.962 78.8304 103.057C79.8304 101.758 80.2371 96.8302 80.7504 95.2734H103.124V95.2734Z" fill="#FFD39F"/>
<path d="M110.63 103.262C115.734 104.628 119.92 108.303 123.357 112.311C127.7 117.399 131.144 123.195 133.544 129.445C138.854 143.285 138.857 158.886 145.26 172.255C141.784 173.287 138.247 174.089 134.667 174.66L137.554 188.38C144.937 211.29 150.074 228.861 156.82 250.973C157.154 252.102 158.487 256.094 157.87 257.093C157.457 257.761 156.764 258.189 156.087 258.573C152.387 260.681 148.347 260.858 144.174 261.7L128.684 264.79C106.514 268.775 84.2635 269.75 62.0535 265.995L57.8635 265.504L43.5302 262.755C42.2368 262.508 40.8168 262.177 40.0602 261.085C39.4335 260.19 39.4368 259.01 39.4835 257.918C39.6735 253.575 40.1735 249.266 40.6735 244.953L44.6168 210.879C46.3335 196.324 48.0002 181.709 50.3335 167.204L50.1735 167.137C46.2968 165.801 42.4802 164.318 38.6602 162.831C38.1335 162.681 37.6602 162.387 37.2868 161.986C36.5368 161.017 37.1802 159.628 37.8235 158.582C43.5002 149.329 48.3535 139.594 52.3335 129.489C55.3735 121.772 58.5468 113.09 65.9668 109.412L74.3768 105.884C73.6635 107.103 74.5668 110.581 75.5302 111.613C76.4935 112.645 77.8635 113.187 79.1968 113.618C83.6702 115.014 88.5302 115.385 93.0702 114.286C97.6102 113.187 101.854 110.518 104.52 106.652C105.187 105.704 105.744 104.675 106.57 103.87C107.397 103.065 108.57 102.497 109.694 102.747L110.63 103.262Z" fill="black"/>
<path fill-rule="evenodd" clip-rule="evenodd" d="M36.8443 224.069L41.8076 164.851L50.631 164.66C48.1143 180.004 46.321 195.48 44.531 210.931L40.5876 245.005L40.5858 245.021C40.0864 249.328 39.5874 253.632 39.3976 257.97L39.1476 258.835C36.5843 258.374 33.7643 257.612 32.4043 255.387C31.2146 253.45 31.5365 251.146 31.8621 248.814C32.1442 246.794 32.4292 244.754 31.7376 242.914C31.3772 241.951 30.7577 241.03 30.1471 240.122C28.9959 238.411 27.8764 236.746 28.5843 234.943C29.1432 233.531 30.5569 232.872 31.9871 232.205C32.8857 231.786 33.7907 231.364 34.4943 230.75C36.3176 229.16 36.641 226.488 36.8443 224.069ZM124.554 241.3C121.894 219.62 120.264 197.866 119.668 176.042L136.121 175.54L144.221 249.561C144.718 254.111 145.104 259.126 142.461 262.86C141.448 264.29 140.054 265.413 138.441 266.097C136.828 266.782 135.058 267.003 133.324 266.735C131.594 266.468 129.971 265.72 128.638 264.581C127.304 263.442 126.318 261.952 125.781 260.278C125.588 259.668 125.452 259.035 125.317 258.405C125.035 257.087 124.756 255.781 123.958 254.719C123.119 253.607 121.836 252.944 120.563 252.287C119.104 251.533 117.657 250.786 116.908 249.374C115.874 247.417 116.721 244.848 118.394 243.408C120.068 241.968 122.351 241.437 124.554 241.3Z" fill="#FFD39F"/>
<path fill-rule="evenodd" clip-rule="evenodd" d="M103.526 103.449C103.621 103.619 103.717 103.79 103.816 103.961C103.623 104.238 103.444 104.511 103.273 104.772C103.106 105.026 102.94 105.28 102.756 105.544C100.47 108.858 96.7264 111.347 92.4831 112.369C88.5031 113.327 84.0764 113.11 79.6931 111.741C78.6131 111.39 77.5231 110.972 76.8731 110.274C76.492 109.866 76.2915 109.268 76.3902 108.9C77.1636 108.35 77.7677 107.803 78.2129 107.4L78.2298 107.385L78.3465 107.278C79.9898 105.791 80.4864 104.913 80.9231 103.997C80.9731 103.89 81.0231 103.787 81.0798 103.677C81.5931 102.698 81.2198 101.485 80.2431 100.967C79.2665 100.453 78.0564 100.827 77.5398 101.806C77.4564 101.966 77.3831 102.116 77.3098 102.27C77.0804 102.754 76.892 103.148 75.9748 104.017C75.3927 103.343 74.4101 103.119 73.5764 103.533L68.1798 106.205C67.5236 106.531 67.1237 107.169 67.0713 107.851C66.4851 107.399 65.6705 107.291 64.9631 107.642C57.1331 111.52 53.7164 120.219 50.7031 127.896L50.3564 128.781C46.4264 138.749 41.5931 148.434 35.9931 157.56C34.5798 159.862 34.4398 161.773 35.5798 163.246C35.6164 163.293 35.6531 163.336 35.6931 163.38C36.2898 164.024 37.0464 164.499 37.8831 164.759L37.8898 164.763C38.504 165.002 39.1217 165.243 39.7423 165.484L34.8464 223.898C34.6597 226.106 34.3931 228.174 33.1764 229.236C32.6864 229.664 31.9364 230.015 31.1397 230.385L31.1304 230.39C29.5453 231.131 27.5714 232.053 26.7197 234.207C25.6298 236.99 27.213 239.345 28.4863 241.239L28.4864 241.239L28.5357 241.313L28.5357 241.313C29.0809 242.127 29.5945 242.894 29.8631 243.617C30.3764 244.98 30.1364 246.707 29.8797 248.535C29.5297 251.04 29.1331 253.883 30.6964 256.432C32.2243 258.931 34.9117 259.973 37.5594 260.56C37.7007 261.158 37.9389 261.75 38.3298 262.308C39.5831 264.092 41.7464 264.53 43.0598 264.794L55.2498 267.132C55.3764 267.155 55.5031 267.169 55.6264 267.169C56.5664 267.169 57.4064 266.501 57.5864 265.545C57.7964 264.459 57.0831 263.407 55.9998 263.2L43.8264 260.865C43.1198 260.725 41.9331 260.484 41.5998 260.01C41.3164 259.609 41.3598 258.613 41.3831 258.082C41.5728 253.819 42.075 249.479 42.561 245.279L42.561 245.279L42.5631 245.261L46.5064 211.187L46.6031 210.352L46.6122 210.274C49.3427 186.847 52.1658 162.626 57.6331 139.368C57.8864 138.289 57.2198 137.209 56.1464 136.956C55.0664 136.698 53.9931 137.37 53.7398 138.446C51.7159 147.054 50.0528 155.778 48.6227 164.535C45.5179 163.421 42.4138 162.214 39.3932 161.039L39.3398 161.018L39.2598 160.988C39.2031 160.968 39.1464 160.948 39.0864 160.931C38.9998 160.908 38.9198 160.871 38.8464 160.827C38.8898 160.64 39.0198 160.276 39.3998 159.658C45.1231 150.331 50.0631 140.436 54.0764 130.251L54.4264 129.362C57.3098 122.02 60.2931 114.427 66.7364 111.236C67.3925 110.911 67.7924 110.273 67.8449 109.591C68.0754 109.768 68.3413 109.893 68.6221 109.957C68.0316 110.433 67.74 111.228 67.9398 112.011C68.8531 115.616 72.0564 117.741 74.9864 119.448C77.8498 121.118 81.1431 121.445 84.0064 121.622C85.3764 121.709 86.8831 121.776 88.4698 121.776C91.7664 121.776 95.4164 121.485 98.9198 120.446C104.97 118.659 108.836 113.014 110.603 109.81C111.136 108.841 110.786 107.622 109.82 107.087C108.853 106.553 107.636 106.904 107.103 107.872C105.633 110.538 102.47 115.218 97.7898 116.601C93.2164 117.954 88.3764 117.877 84.2498 117.624C81.8464 117.473 79.1031 117.213 76.9964 115.983C74.7698 114.687 72.3498 113.124 71.8164 111.026C71.6331 110.296 71.0717 109.762 70.3952 109.581L72.3954 108.59C72.2342 110.113 72.779 111.755 73.9531 113.013C75.2264 114.376 76.8764 115.041 78.4864 115.562C81.4731 116.498 84.4864 116.965 87.4131 116.965C89.4731 116.965 91.4864 116.735 93.4231 116.267C98.6098 115.014 103.21 111.938 106.04 107.839C106.24 107.555 106.43 107.265 106.619 106.974L106.62 106.974L106.631 106.957C107.033 106.342 107.414 105.761 107.846 105.34C108.272 104.924 108.808 104.671 109.129 104.733C109.366 104.965 109.664 105.141 110.006 105.233C113.956 106.292 117.793 109.052 121.73 113.662C125.936 118.589 129.246 124.158 131.57 130.211C133.913 136.314 135.233 142.955 136.51 149.383L136.511 149.39C137.947 156.613 139.427 164.057 142.373 171C132.26 173.695 121.89 174.43 111.493 173.188L112.353 142.989C112.383 141.883 111.513 140.958 110.41 140.928C109.306 140.887 108.383 141.769 108.353 142.875L107.443 174.885C107.413 175.904 108.153 176.782 109.163 176.926C112.016 177.328 114.867 177.588 117.712 177.706C118.327 198.3 119.877 219.089 122.326 239.552C120.196 239.943 118.44 240.724 117.09 241.887C114.58 244.045 113.743 247.666 115.14 250.315C116.182 252.277 118.019 253.226 119.641 254.064L119.646 254.067C120.753 254.638 121.796 255.179 122.36 255.924C122.89 256.632 123.11 257.648 123.36 258.824C123.5 259.492 123.65 260.18 123.873 260.888C124.159 261.78 124.551 262.629 125.037 263.417C102.469 267.176 81.9075 267.387 62.2764 264.069C61.1864 263.881 60.1564 264.62 59.9731 265.712C59.7898 266.801 60.5231 267.837 61.6131 268.02C71.0531 269.617 80.6931 270.416 90.6564 270.416C102.701 270.416 115.216 269.245 128.391 266.906C129.778 267.84 131.354 268.459 133.016 268.715C133.6 268.806 134.183 268.849 134.766 268.849C136.293 268.849 137.806 268.545 139.226 267.944C141.183 267.112 142.866 265.756 144.096 264.018C144.162 263.926 144.226 263.832 144.288 263.738C144.344 263.732 144.4 263.724 144.456 263.714C145.401 263.522 146.365 263.363 147.302 263.209L147.303 263.209L147.416 263.19L147.423 263.189C150.588 262.668 153.859 262.13 156.96 260.364C157.823 259.873 158.8 259.261 159.46 258.192C160.323 256.789 159.88 254.538 158.756 250.877C158.703 250.709 158.66 250.566 158.62 250.432C156.776 244.389 155.043 238.66 153.37 233.118L153.23 232.654C148.886 218.287 144.766 204.661 139.551 188.458L138.198 176.092C140.72 175.585 143.229 174.964 145.723 174.23C146.283 174.063 146.743 173.659 146.983 173.121C147.223 172.583 147.213 171.972 146.96 171.441C143.57 164.364 142.053 156.735 140.447 148.66L140.447 148.66L140.447 148.66L140.447 148.66L140.447 148.66L140.447 148.66L140.436 148.608C139.126 142.017 137.77 135.202 135.306 128.778C132.82 122.297 129.276 116.334 124.773 111.059C120.293 105.811 115.8 102.638 111.043 101.362C111.019 101.355 110.994 101.349 110.969 101.343C110.713 101.092 110.385 100.908 110.01 100.824C108.983 100.595 107.886 100.74 106.859 101.212C106.623 100.792 106.357 100.332 106.033 99.8516C105.416 98.9363 104.173 98.6924 103.256 99.3105C102.343 99.9285 102.1 101.175 102.716 102.093C103.005 102.522 103.251 102.959 103.489 103.383L103.526 103.449ZM146.121 259.337C146.338 259.302 146.555 259.266 146.77 259.231L146.798 259.227C149.734 258.744 152.508 258.288 154.983 256.876L155.027 256.851C155.3 256.694 155.692 256.47 155.92 256.245C155.913 255.75 155.713 254.615 154.93 252.056L154.893 251.937C154.851 251.802 154.815 251.684 154.786 251.588C152.946 245.558 151.213 239.826 149.54 234.28L149.398 233.811L149.397 233.81C146.868 225.442 144.415 217.326 141.778 208.807L146.213 249.34L146.214 249.346C146.514 252.099 146.919 255.811 146.121 259.337ZM135.479 188.027C135.412 188.354 135.427 188.702 135.536 189.042L135.618 189.295L142.236 249.777C142.733 254.317 142.996 258.643 140.833 261.7C140.033 262.829 138.94 263.711 137.666 264.252C136.393 264.79 135 264.964 133.633 264.753C132.27 264.543 130.99 263.955 129.94 263.056C128.89 262.154 128.11 260.982 127.69 259.669C127.534 259.177 127.418 258.639 127.296 258.071L127.296 258.071L127.295 258.07L127.295 258.07L127.276 257.982L127.275 257.978C126.969 256.546 126.622 254.924 125.556 253.509C124.447 252.038 122.881 251.226 121.498 250.51L121.483 250.502L121.469 250.495C120.215 249.847 119.131 249.287 118.68 248.435C118.153 247.439 118.61 245.866 119.7 244.927C120.793 243.985 122.47 243.437 124.68 243.3C125.23 243.267 125.74 243.006 126.093 242.582C126.446 242.154 126.606 241.603 126.54 241.055C123.973 220.135 122.351 198.858 121.718 177.78C125.916 177.759 130.097 177.428 134.25 176.791L135.479 188.027ZM42.6411 209.783C44.2239 196.206 45.8377 182.363 47.9799 168.571C46.5248 168.056 45.0734 167.52 43.6319 166.976L38.8331 224.232C38.5864 227.172 38.1497 230.212 35.8031 232.256C34.8864 233.054 33.7931 233.566 32.8264 234.017L32.8234 234.018C31.6847 234.549 30.7028 235.006 30.4397 235.677C30.1397 236.438 30.7564 237.441 31.8031 238.997C32.4731 239.993 33.1631 241.022 33.6064 242.204C34.4739 244.516 34.1384 246.934 33.8423 249.067L33.8397 249.086L33.8397 249.086C33.5464 251.191 33.2931 253.008 34.1031 254.331C34.7486 255.385 36.034 255.999 37.4671 256.405C37.6964 252.53 38.1426 248.666 38.5758 244.914L38.5898 244.793L42.6298 209.881L42.6411 209.783Z" fill="black"/>
</g>
<path fill-rule="evenodd" clip-rule="evenodd" d="M93.1494 35.4035C96.4361 32.1598 98.5361 27.9306 100.573 23.7849C105.533 13.6896 92.6661 8.67541 85.0227 8.34469C68.8727 7.63982 52.7294 17.3209 45.7294 31.9226C45.4037 32.6018 45.0823 33.303 44.7574 34.012C42.5779 38.7673 40.2364 43.8761 35.3427 45.0912C34.6434 45.2655 33.9157 45.3458 33.1905 45.4258C32.0109 45.556 30.8382 45.6854 29.8061 46.217C28.1394 47.0756 27.2094 49.7881 28.8061 50.7903C29.3394 51.0676 29.9327 51.2146 30.5327 51.2179L38.3027 51.866C37.5361 54.6153 37.6027 58.7175 40.4327 59.0282C41.6294 59.1585 42.7327 58.4202 43.6661 57.6586C44.5002 56.9751 45.5389 56.3264 46.6063 55.6599C48.5545 54.4433 50.5979 53.1672 51.6661 51.5119C52.6364 50.0072 53.0771 48.2787 53.5138 46.5662C54.0447 44.4842 54.5696 42.4258 56.0327 40.822C60.3327 36.1451 67.556 34.4247 73.4927 36.7063C74.4508 37.0671 75.3741 37.522 76.2966 37.9765C77.6979 38.6669 79.0971 39.3563 80.6127 39.7129C85.1027 40.7685 89.8627 38.6472 93.1494 35.4035ZM127.389 33.8234C123.529 26.1634 111.073 20.8519 102.499 20.9454C102.499 20.9454 96.2127 32.691 94.3327 34.9759C91.7693 38.1061 83.666 41.3231 83.666 41.3231C85.2445 42.0532 87.0883 42.3843 89.0484 42.7364C92.4691 43.3508 96.2438 44.0288 99.5793 47.0021C102.243 50.0387 103.439 54.2177 103.199 58.2532C103.165 58.8336 103.102 59.4164 103.04 59.9992C102.873 61.5567 102.706 63.1141 103.073 64.6237C103.576 66.6982 105.589 68.6391 107.643 68.0745L123.723 77.5952C124.129 79.6397 126.843 80.0305 128.509 78.9315C130.176 77.8324 130.959 75.8013 131.386 73.8471C131.419 73.6973 131.451 73.5459 131.482 73.3939C131.735 72.1859 131.998 70.9338 132.886 70.0822C133.861 69.1231 135.243 68.9745 136.645 68.8237C137.791 68.7004 138.951 68.5756 139.913 68.0044C142.363 66.5512 142.386 62.8432 140.983 60.3611C140.12 58.8347 138.886 57.5825 137.649 56.3271C136.875 55.541 136.099 54.7537 135.413 53.8971C132.746 50.5679 131.57 46.4402 130.386 42.2881C129.56 39.3908 128.731 36.4815 127.389 33.8234Z" fill="black"/>
<path d="M80.6127 39.7066C78.0994 39.1153 75.906 37.6087 73.4927 36.7001C67.556 34.4251 60.3327 36.1455 56.0327 40.8223L53.3327 52.8485C51.3327 55.855 50.9994 59.5297 49.9994 63.2043C49.9994 64.26 45.946 78.5176 55.3327 87.9247C58.666 91.2653 62.9994 92.6016 67.4994 93.6038C71.536 94.2284 75.946 94.8565 79.8327 93.2697C79.6094 96.7473 79.576 99.2293 79.736 102.71L103.236 100.285C102.853 95.715 103.693 91.6027 105.676 87.4671C106.123 86.5317 107.093 86.5417 108.049 86.2377C108.896 85.9705 109.736 85.6632 110.556 85.3157C112.226 84.6209 113.803 83.7223 115.256 82.6433C118.129 80.4685 120.366 77.4152 121.209 73.8742C121.973 70.6639 121.436 66.8422 117.859 65.035C115.353 63.7656 113.103 64.2165 109.279 67.5839L107.633 68.0916C105.579 68.6562 103.566 66.7153 103.063 64.6408C102.559 62.5663 103.063 60.4016 103.189 58.2703C103.429 54.2348 102.233 50.0558 99.5694 47.0192C96.906 43.9825 92.726 42.2287 88.7394 42.8467" fill="#FFD39F"/>
<path fill-rule="evenodd" clip-rule="evenodd" d="M40.7195 61.0513C40.5561 61.0513 40.3861 61.0413 40.2161 61.0246C38.8561 60.8743 37.7361 60.1962 36.9695 59.0637C35.9728 57.5872 35.7595 55.5661 35.9395 53.6853L30.4361 53.2277C29.5495 53.211 28.6661 52.9838 27.8795 52.5729C27.8328 52.5495 27.7861 52.5228 27.7428 52.4927C26.5628 51.7511 25.9195 50.4817 25.9828 49.0052C26.0595 47.1578 27.2561 45.2804 28.8895 44.4386C30.2344 43.7448 31.6642 43.5836 32.9272 43.4412L32.9695 43.4364C33.6495 43.3629 34.2895 43.2894 34.8595 43.1491C38.8169 42.1676 40.9101 37.6029 42.9355 33.186L42.9395 33.1774L43.0419 32.9544C43.3372 32.3114 43.6303 31.673 43.9261 31.0561C51.2561 15.7662 68.1961 5.60414 85.1095 6.34242C90.1961 6.5629 98.9828 8.95142 102.343 14.6338C103.579 16.7216 104.586 20.1591 102.369 24.6723C100.383 28.7211 98.1261 33.3077 94.5561 36.832C90.4095 40.9243 84.8928 42.7783 80.1595 41.6659C78.4502 41.2647 76.9443 40.5271 75.4862 39.8128L75.4861 39.8127L75.4161 39.7784L75.384 39.7626L75.3839 39.7626C74.4925 39.3241 73.6492 38.9093 72.7928 38.5858C67.6595 36.6116 61.2361 38.1282 57.5061 42.1837C56.4408 43.3514 56.0737 45.1657 55.6842 47.0906L55.6828 47.0977L55.6776 47.1231C55.3561 48.7102 55.0259 50.3398 54.2875 51.8748C54.8771 52.4172 55.1066 53.2868 54.7994 54.0795C52.5261 59.9389 51.4261 64.6725 51.1528 67.1479C50.2495 75.4159 52.4028 82.655 57.0661 87.0044C59.5594 89.3295 62.7495 90.7693 67.1061 91.5376C71.5595 92.316 75.5328 92.8404 79.0494 91.4007C79.6861 91.1401 80.4128 91.2269 80.9728 91.6278C81.5328 92.0287 81.8461 92.6935 81.8028 93.3816C81.5895 96.7423 81.5528 97.4839 81.7128 100.931C81.7628 102.037 80.9095 102.976 79.8061 103.026C79.7728 103.039 79.7428 103.039 79.7095 103.039C78.6461 103.039 77.7628 102.201 77.7128 101.125C77.6061 98.7734 77.5828 97.5908 77.6495 95.9773C73.6428 96.7523 69.5628 96.0407 66.4161 95.4895C61.3328 94.5909 57.3828 92.777 54.3395 89.9408C48.7461 84.7195 46.1361 76.2544 47.1761 66.7103C47.4728 64.0194 48.3846 60.3292 49.7063 56.3926C49.1359 56.7267 48.5511 57.0439 47.9713 57.3584L47.9561 57.3667L47.9412 57.3748L47.9411 57.3748C46.7866 57.9998 45.6928 58.592 44.9361 59.214C43.8628 60.0859 42.4428 61.0513 40.7195 61.0513ZM29.9828 49.1221C30.1628 49.1822 30.3528 49.2156 30.5428 49.2156C30.5931 49.2156 30.6404 49.2186 30.6903 49.2217H30.6904H30.6905H30.6906L30.6995 49.2223L38.4695 49.8704C39.0628 49.9205 39.6061 50.2312 39.9461 50.7222C40.2861 51.2133 40.3895 51.8313 40.2295 52.4059C39.7495 54.123 39.7761 56.0605 40.2861 56.8155C40.3895 56.9691 40.4695 57.0159 40.6528 57.036C41.1882 57.0948 42.0689 56.3783 42.3868 56.1196L42.4061 56.1039C43.4595 55.2421 44.7761 54.5272 46.0528 53.8357L46.07 53.8263C47.8013 52.8872 49.5886 51.9177 50.3228 50.7757C51.0995 49.5697 51.4228 47.9796 51.7628 46.2959C52.2195 44.031 52.7395 41.4621 54.5595 39.4678C59.4361 34.1629 67.5161 32.2588 74.2128 34.8344C75.2469 35.2243 76.228 35.7072 77.1759 36.1739L77.1759 36.1739L77.1828 36.1773L77.1948 36.1832C78.527 36.8391 79.7833 37.4576 81.0728 37.7607C85.1461 38.7161 89.2595 36.4312 91.7495 33.9758C94.8349 30.9304 96.8369 26.8591 98.7742 22.9192L98.7828 22.9018C99.9428 20.5399 99.9828 18.5022 98.9061 16.6782C96.7295 13.0002 90.0995 10.5716 84.9428 10.3478C69.5695 9.67633 54.1961 18.9064 47.5395 32.7899C47.2256 33.4452 46.9149 34.123 46.6012 34.8076L46.6012 34.8076L46.6011 34.8077L46.6011 34.8079L46.5828 34.8477C44.2761 39.882 41.6595 45.5877 35.8328 47.0342C35.0264 47.2362 34.2391 47.3238 33.477 47.4086H33.477L33.4195 47.415L33.4115 47.4159L33.4115 47.4159C32.3944 47.5292 31.431 47.6365 30.7295 47.9963C30.3061 48.2168 30.0161 48.8047 29.9828 49.1221ZM104.269 69.4396C105.109 69.9373 106.019 70.1912 106.923 70.1912C107.343 70.1912 107.759 70.1344 108.163 70.0275C108.49 69.9383 108.777 69.7729 109.008 69.5556C109.555 69.6233 110.126 69.4657 110.573 69.0721C114.236 65.8451 115.573 66.1157 116.936 66.8072C120.06 68.3873 119.58 71.935 119.226 73.3948C118.54 76.2911 116.686 79.0037 114.026 81.0181C112.706 82.0002 111.27 82.8187 109.74 83.4534C108.983 83.7741 108.2 84.0614 107.406 84.3119C107.285 84.3514 107.15 84.3847 107.006 84.42L107.004 84.4204C106.967 84.4297 106.928 84.4392 106.89 84.4489C106.03 84.656 104.593 85.0034 103.833 86.5835C101.76 90.9096 100.783 93.2146 101.206 98.2455C101.293 99.2911 102.17 100.083 103.196 100.083C103.253 100.083 103.31 100.08 103.37 100.066C104.47 99.976 105.286 99.0038 105.193 97.9014C104.86 93.9729 105.453 92.4663 107.37 88.4576C107.464 88.4268 107.598 88.3941 107.722 88.3639L107.723 88.3637C107.76 88.3546 107.796 88.3458 107.83 88.3373C108.063 88.2805 108.33 88.2137 108.606 88.1269C109.516 87.8429 110.42 87.5089 111.283 87.1447C113.103 86.3898 114.83 85.4076 116.423 84.2217C118.711 82.4904 120.534 80.3387 121.758 77.9649L121.763 77.9915C122.043 79.4146 122.996 80.5604 124.369 81.135C125.019 81.4056 125.733 81.5392 126.449 81.5392C127.556 81.5392 128.679 81.2219 129.603 80.6039C131.449 79.3845 132.669 77.3134 133.333 74.2734L133.433 73.8024L133.436 73.7863C133.635 72.8402 133.822 71.9492 134.279 71.5108C134.756 71.0401 135.725 70.9363 136.847 70.8162L136.849 70.8159C138.133 70.679 139.589 70.5219 140.923 69.7302C142.616 68.728 143.663 66.9642 143.876 64.7628C144.049 62.9522 143.629 60.9879 142.716 59.3744C141.724 57.6185 140.375 56.2496 139.069 54.9243L139.066 54.9214C138.306 54.1497 137.589 53.4214 136.966 52.6464C134.553 49.6332 133.459 45.8015 132.303 41.7427L132.295 41.7158C131.458 38.7778 130.592 35.7411 129.169 32.9235C124.936 24.5219 116.416 19.1302 107.413 19.1302H107.166C106.063 19.1402 105.176 20.0489 105.189 21.1546C105.203 22.2537 106.096 23.1356 107.189 23.1356H107.213H107.416C114.923 23.1356 122.046 27.6654 125.603 34.7275C126.859 37.2162 127.639 39.9455 128.463 42.8384C129.676 47.101 130.933 51.5073 133.853 55.1519C134.601 56.0852 135.426 56.922 136.221 57.7288L136.226 57.7341L136.242 57.7499C137.409 58.9367 138.513 60.0582 139.243 61.3487C140.166 62.9856 140.216 65.4944 138.893 66.2794C138.308 66.629 137.402 66.7264 136.442 66.8296L136.433 66.8306L136.429 66.831C134.883 66.9979 132.958 67.2058 131.506 68.6345C130.17 69.9172 129.813 71.6174 129.526 72.9836L129.526 72.984C129.496 73.131 129.466 73.2779 129.433 73.4216C129.003 75.3892 128.339 76.6453 127.409 77.2599C126.993 77.5339 126.336 77.6107 125.913 77.4336C125.716 77.3501 125.699 77.2733 125.686 77.2065C125.469 76.1208 124.416 75.4159 123.333 75.6331C123.081 75.6834 122.851 75.779 122.647 75.9095C122.831 75.3887 122.986 74.8605 123.113 74.3269C124.293 69.4429 122.616 65.1903 118.736 63.2261C116.236 61.96 113.193 61.4255 107.933 66.0589C107.916 66.0735 107.9 66.0883 107.884 66.1033C107.634 66.0724 107.374 66.0888 107.116 66.1591L107.114 66.1596C107.023 66.1834 106.75 66.2543 106.306 65.9921C105.709 65.638 105.189 64.9064 105.013 64.1715C104.729 62.9956 104.873 61.6527 105.026 60.2262L105.031 60.1785C105.093 59.5986 105.157 58.9969 105.193 58.3889C105.476 53.6252 103.976 48.9985 101.079 45.6946C97.5095 41.6225 93.4961 41.6058 89.6928 42.1937C88.5995 42.3607 87.8528 43.3863 88.0195 44.4787C88.1861 45.5744 89.2095 46.3227 90.2995 46.1556C94.1061 45.5677 96.1428 46.1389 98.0728 48.3404C100.283 50.8559 101.419 54.4303 101.199 58.1484C101.173 58.6256 101.122 59.1081 101.069 59.615L101.069 59.6151L101.069 59.6154L101.049 59.7986L101.046 59.83C100.867 61.524 100.682 63.2742 101.126 65.1102C101.563 66.9108 102.736 68.5309 104.269 69.4396ZM62.8095 62.5713C64.0982 62.5713 65.1429 61.3 65.1429 59.7318C65.1429 58.1636 64.0982 56.8923 62.8095 56.8923C61.5209 56.8923 60.4762 58.1636 60.4762 59.7318C60.4762 61.3 61.5209 62.5713 62.8095 62.5713ZM74.1429 63.3564C75.4316 63.3564 76.4762 62.0851 76.4762 60.5169C76.4762 58.9486 75.4316 57.6774 74.1429 57.6774C72.8542 57.6774 71.8096 58.9486 71.8096 60.5169C71.8096 62.0851 72.8542 63.3564 74.1429 63.3564Z" fill="black"/>
</g>
<defs>
<clipPath id="clip0_805_38757">
<rect width="180" height="180" rx="24" fill="white"/>
</clipPath>
<clipPath id="clip1_805_38757">
<rect width="200" height="200.436" fill="white" transform="translate(-10 95.2734)"/>
</clipPath>
</defs>
</svg>
