<svg width="180" height="180" viewBox="0 0 180 180" fill="none" xmlns="http://www.w3.org/2000/svg">
<g clip-path="url(#clip0_805_38939)">
<rect width="180" height="180" rx="24" fill="white"/>
<g clip-path="url(#clip1_805_38939)">
<path d="M103.124 95.2734C103.424 98.6474 104.8 106.271 109.924 105.128L110.474 105.963C110.224 111.198 107.577 114.889 103.43 118.714C99.2171 122.539 93.8437 124.838 88.1737 125.242C83.1737 125.609 77.8571 124.41 74.1171 121.049C70.3771 117.689 68.4104 113.032 70.8871 109.04H71.2471C72.3737 109.073 73.4104 108.482 74.3637 107.881C75.5771 107.113 78.0804 103.962 78.8304 103.057C79.8304 101.758 80.2371 96.8302 80.7504 95.2734H103.124V95.2734Z" fill="#FFD39F"/>
<path fill-rule="evenodd" clip-rule="evenodd" d="M38.0931 224.649C39.6121 224.805 41.1229 224.959 42.6904 225.258L42.8504 225.278L40.5671 245.007L40.5653 245.023C40.0659 249.331 39.5669 253.635 39.3771 257.972C39.3304 259.065 39.3271 260.244 39.9538 261.139C40.7104 262.231 42.1304 262.562 43.4238 262.809L57.7571 265.559L61.9471 266.05C84.1571 269.805 106.407 268.829 128.577 264.844L144.067 261.754C145.481 261.314 147.029 261.12 148.589 260.925C151.864 260.516 155.193 260.1 157.45 257.384C157.724 256.753 157.837 256.065 157.784 255.38C156.82 250.741 153.847 242.413 151.115 234.759C149.125 229.183 147.263 223.965 146.397 220.791L146.064 220.247C145.687 194.972 144.664 169.623 138.967 145.047L137.907 141.836C135.107 132.783 131.44 124.098 126.28 116.251L125.614 109.837C125.627 108.791 125.364 107.756 124.85 106.844C124.337 105.932 123.594 105.17 122.694 104.635C121.794 104.101 120.77 103.817 119.724 103.807C118.677 103.797 117.647 104.064 116.737 104.582C117.95 102.979 117.347 100.466 115.764 99.2371C114.18 98.0078 111.944 97.9042 110.034 98.5055C108.124 99.1068 106.477 100.326 104.91 101.576C103.776 102.483 102.653 103.426 101.528 104.37C96.8015 108.338 92.0305 112.344 86.1504 113.962L82.2104 112.726C80.0138 112.232 78.5404 110.164 77.6804 108.083C77.3824 107.362 77.134 106.618 76.8859 105.875C76.418 104.474 75.951 103.076 75.1538 101.836C73.9338 99.9386 71.6271 98.4587 69.4871 99.1469C66.8638 99.9887 66.1471 103.283 65.6604 106.002C65.6171 106.416 65.4738 106.817 65.2404 107.161C64.8674 107.626 64.2377 107.76 63.6483 107.886C63.6111 107.893 63.574 107.901 63.5371 107.909C62.2038 108.197 60.8471 108.711 59.8704 109.683C58.8938 110.655 58.3538 112.155 58.8004 113.461L57.1138 116.254C56.1804 117.306 53.7804 120.747 53.7804 120.747C47.6156 131.153 45.2408 141.875 42.6593 153.529C42.5888 153.848 42.5181 154.167 42.4471 154.487C37.8245 176.415 35.7661 197.201 33.6378 218.693C33.4641 220.448 33.2899 222.207 33.1138 223.972C34.836 224.317 36.4693 224.484 38.0931 224.649ZM41.4771 233.335C38.5138 233.315 35.5671 232.864 32.7305 231.999C32.9305 229.51 33.1471 226.955 34.2171 224.7L42.4605 225.622L41.4771 233.335Z" fill="black"/>
<path fill-rule="evenodd" clip-rule="evenodd" d="M93.0267 125.985C93.0967 127.048 93.9767 127.859 95.02 127.859C95.0667 127.859 95.11 127.859 95.15 127.849C104.067 127.265 112.797 124.465 120.4 119.762C121.97 118.792 123.286 117.778 124.346 116.723C124.4 116.937 124.489 117.145 124.617 117.34C129.23 124.355 132.953 132.56 136.003 142.418C136.27 143.28 137.06 143.831 137.913 143.831C138.11 143.831 138.31 143.801 138.503 143.741C139.56 143.413 140.15 142.291 139.823 141.232C136.66 131.006 132.78 122.471 127.957 115.135C127.581 114.562 126.962 114.246 126.325 114.234C127.158 112.838 127.587 111.383 127.607 109.874C127.623 108.474 127.27 107.091 126.587 105.872C125.903 104.652 124.907 103.63 123.703 102.918C122.503 102.207 121.13 101.826 119.733 101.813C119.6 101.813 119.47 101.813 119.337 101.819C119.143 100.249 118.333 98.7127 116.98 97.6637C115.01 96.1337 112.183 95.7362 109.427 96.6048C107.157 97.3197 105.26 98.7394 103.657 100.019C101.898 101.425 100.426 102.805 99.002 104.139L98.95 104.188L98.9465 104.191C95.5749 107.353 92.9118 109.851 88.23 111.14C87.1634 111.434 86.5367 112.536 86.83 113.605C87.1234 114.674 88.2267 115.302 89.29 115.008C94.9267 113.458 98.21 110.378 101.683 107.118L101.738 107.067C103.104 105.786 104.518 104.461 106.15 103.156C107.53 102.057 109.01 100.938 110.627 100.43C112.113 99.9621 113.61 100.116 114.533 100.834C115.323 101.449 115.627 102.735 115.137 103.383C114.563 104.141 114.6 105.2 115.227 105.915C115.853 106.63 116.893 106.807 117.72 106.339C118.313 106.002 118.987 105.825 119.667 105.825H119.7C120.393 105.828 121.077 106.019 121.673 106.373C122.27 106.727 122.763 107.231 123.103 107.839C123.443 108.447 123.62 109.132 123.61 109.827C123.583 112.002 121.797 114.196 118.303 116.354C111.253 120.717 103.157 123.309 94.89 123.854C93.79 123.927 92.9534 124.88 93.0267 125.985ZM55.18 267.085C55.0567 267.085 54.93 267.072 54.8034 267.049L43.0567 264.794C41.7434 264.53 39.58 264.092 38.3267 262.308C37.9654 261.792 37.7346 261.248 37.5902 260.696C36.1164 260.44 34.7077 259.878 33.4533 259.038C31.7833 257.922 30.46 256.365 29.63 254.535C29.4933 254.234 29.4333 253.907 29.4533 253.579C29.4849 253.055 29.5254 252.518 29.5663 251.975L29.5663 251.975L29.5664 251.975L29.5664 251.975L29.5664 251.974L29.5664 251.974L29.5664 251.974L29.5664 251.974L29.5733 251.882C29.92 247.189 30.2767 242.335 27.0367 239.084C26.78 238.827 26.6 238.507 26.51 238.152C25.7227 234.996 27.4577 231.973 30.8531 230.469C31.0044 228.841 31.2333 227.122 31.7747 225.451C31.3219 225.037 31.0677 224.422 31.1333 223.771C31.2781 222.325 31.4207 220.882 31.5628 219.442L31.6566 218.493L31.6658 218.4C33.8224 196.637 35.8599 176.076 40.4999 154.07L40.7166 153.091C43.2999 141.422 45.7433 130.402 52.0699 119.718C52.0966 119.675 52.1233 119.635 52.1499 119.595L52.1865 119.543C52.5693 118.997 54.6834 115.982 55.6299 114.918C55.9852 114.517 56.4657 114.292 56.9602 114.252C56.9429 114.206 56.9262 114.16 56.9101 114.113C56.2401 112.159 56.8501 109.864 58.4634 108.26C59.5934 107.138 61.1134 106.383 63.1201 105.948L63.2367 105.922C63.3667 105.895 63.5401 105.858 63.6701 105.821C63.6701 105.816 63.6709 105.812 63.6717 105.808L63.6717 105.808C63.6726 105.804 63.6734 105.8 63.6734 105.795C63.6801 105.741 63.6867 105.691 63.6967 105.641L63.6984 105.632C64.1852 102.955 64.9978 98.4874 68.8801 97.2361C71.1934 96.4945 74.6701 97.2862 76.8534 100.767C77.0892 101.143 77.2987 101.525 77.4885 101.91C77.8829 101.049 78.8476 100.564 79.7966 100.807C80.8666 101.078 81.5166 102.17 81.2433 103.243C80.9419 104.442 80.4594 105.245 79.2098 106.471C79.3137 106.757 79.4204 107.037 79.5334 107.311C80.0034 108.444 81.0334 110.401 82.6534 110.769C83.7301 111.013 84.4067 112.085 84.1667 113.164C83.9234 114.243 82.8534 114.921 81.7767 114.681C79.2701 114.116 77.1601 112.045 75.8367 108.851C75.5101 108.063 75.2401 107.271 74.9834 106.503L74.9709 106.466C74.5289 105.163 74.1106 103.931 73.4634 102.902C72.7134 101.706 71.2501 100.687 70.1001 101.054C68.6401 101.525 68.0634 103.994 67.6434 106.292C67.5567 107.004 67.3001 107.689 66.9001 108.283C66.8701 108.327 66.8367 108.37 66.8034 108.414C65.986 109.433 64.8408 109.678 64.0774 109.842L64.0701 109.844L63.9634 109.867C62.7467 110.131 61.8467 110.545 61.2834 111.103C60.7867 111.597 60.5334 112.332 60.6967 112.81C60.8501 113.258 61.3567 113.739 61.8301 114.146C66.1234 117.914 71.3467 120.437 76.9467 121.445C78.0334 121.642 78.7567 122.685 78.5601 123.774C78.3801 124.743 77.5367 125.424 76.5901 125.424C76.4734 125.424 76.3534 125.414 76.2334 125.391C69.9201 124.252 64.0301 121.409 59.2034 117.173C59.1317 117.111 59.0594 117.048 58.9867 116.983C58.9024 117.198 58.7793 117.401 58.6166 117.584C57.9299 118.355 56.1533 120.854 55.4699 121.83C49.4966 131.942 47.1266 142.635 44.6199 153.959L44.4066 154.918C39.8111 176.713 37.7843 197.19 35.6383 218.87L35.6366 218.887C35.5233 220.023 35.4099 221.162 35.2966 222.305C36.2933 222.445 37.2799 222.549 38.3033 222.652L38.3572 222.658C39.2569 222.75 40.1738 222.844 41.1121 222.97L42.6267 209.881L42.6381 209.784C45.3812 186.253 48.2176 161.921 53.7367 138.446C53.99 137.37 55.0667 136.699 56.1434 136.956C57.2167 137.21 57.8834 138.289 57.63 139.368C52.1628 162.626 49.3396 186.848 46.6091 210.274L46.6 210.352L46.5034 211.187L42.56 245.261L42.558 245.279C42.0719 249.479 41.5698 253.819 41.38 258.083C41.3567 258.614 41.3134 259.609 41.5967 260.01C41.93 260.484 43.1167 260.725 43.8234 260.865L55.55 263.113C56.6334 263.321 57.3467 264.373 57.1367 265.459C56.96 266.417 56.1234 267.085 55.18 267.085ZM30.3267 236.736C30.2665 235.21 31.975 234.346 32.6412 234.067C34.9414 234.729 37.3022 235.137 39.6872 235.283L38.5867 244.794L38.5728 244.914C38.1342 248.712 37.6823 252.626 37.4556 256.549C36.8279 256.357 36.2288 256.073 35.6767 255.704C34.76 255.089 34.0067 254.264 33.4833 253.295C33.4981 253.06 33.5156 252.824 33.5333 252.587C33.5434 252.451 33.5536 252.314 33.5633 252.176L33.5637 252.171C33.9236 247.281 34.3685 241.238 30.3267 236.736ZM40.651 226.954L40.1488 231.295C38.3678 231.2 36.5991 230.937 34.8667 230.513C35.0084 229.087 35.2215 227.677 35.6789 226.399C36.4325 226.491 37.1704 226.567 37.8966 226.641L38.0502 226.657C38.9351 226.748 39.7928 226.837 40.651 226.954ZM61.6133 268.021C71.0533 269.618 80.6933 270.416 90.6566 270.416C102.728 270.416 115.272 269.24 128.479 266.891C130.272 268.273 132.38 269.003 134.703 269.003C134.953 269.003 135.21 268.996 135.467 268.976C139.001 268.744 142.073 266.819 144.132 263.75C144.307 263.744 144.483 263.715 144.66 263.665C145.903 263.277 147.33 263.097 148.837 262.91C152.3 262.479 156.223 261.988 158.987 258.664C159.11 258.517 159.21 258.353 159.287 258.176C159.683 257.251 159.853 256.229 159.777 255.223C159.773 255.18 159.768 255.138 159.762 255.096C159.756 255.053 159.748 255.011 159.74 254.969C158.747 250.193 155.825 242.004 152.998 234.085L152.998 234.084L152.997 234.08C151.027 228.568 149.17 223.36 148.323 220.26C148.266 220.05 148.178 219.857 148.065 219.684C147.736 195.531 146.852 172.286 141.18 147.783C140.93 146.704 139.857 146.032 138.78 146.283C137.703 146.533 137.033 147.609 137.283 148.688C143.613 176.038 143.887 201.985 144.177 229.456L144.177 229.464L144.183 229.971L118.947 229.557C115.197 200.193 113.903 170.325 115.1 140.751C115.147 139.645 114.287 138.71 113.183 138.666C112.08 138.626 111.147 139.481 111.103 140.587C109.873 170.963 111.253 201.65 115.203 231.792C115.306 232.567 115.841 233.192 116.547 233.431C116.265 235.483 116.192 237.561 116.33 239.632C116.33 240.006 116.393 240.374 116.523 240.725C116.673 241.126 116.897 241.486 117.19 241.794C117.218 241.823 117.247 241.852 117.276 241.879C116.068 242.795 115.067 243.966 114.627 245.375C114.247 246.594 114.13 248.492 115.73 250.596C117.21 252.547 119.253 253.72 121.057 254.752C121.413 254.956 121.767 255.16 122.12 255.37C122.613 255.662 123.153 257.631 123.388 258.492L123.393 258.51C123.557 259.111 123.713 259.679 123.897 260.187C124.32 261.351 124.822 262.41 125.395 263.358C102.687 267.174 82.0113 267.405 62.2766 264.069C61.1866 263.882 60.1566 264.62 59.9733 265.712C59.7899 266.801 60.5233 267.837 61.6133 268.021ZM123.46 242.554C123.26 243.127 122.805 243.602 122.183 243.801C120.33 244.403 118.757 245.569 118.443 246.574C118.383 246.765 118.227 247.269 118.91 248.168C119.899 249.47 121.425 250.345 123.037 251.27L123.038 251.27L123.04 251.271C123.131 251.323 123.221 251.375 123.312 251.427C123.598 251.592 123.882 251.755 124.163 251.922C126.044 253.04 126.711 255.479 127.247 257.438L127.25 257.448C127.39 257.966 127.527 258.457 127.653 258.811C128.733 261.781 130.913 265.251 135.2 264.974C138.017 264.787 141.417 262.666 142.533 257.271C143.389 253.123 142.615 248.659 141.866 244.337L141.863 244.323L141.823 244.092C141.747 243.648 141.671 243.207 141.597 242.766C141.582 242.678 141.573 242.59 141.57 242.503L123.46 242.554ZM145.042 241.077C145.295 241.353 145.473 241.704 145.54 242.101C145.627 242.612 145.713 243.123 145.803 243.638L145.806 243.655C146.619 248.343 147.459 253.191 146.45 258.086C146.37 258.474 146.278 258.854 146.175 259.226C146.899 259.11 147.623 259.02 148.337 258.931C151.337 258.557 153.947 258.23 155.7 256.335C155.767 256.112 155.797 255.874 155.79 255.641C154.821 251.111 151.859 242.809 149.239 235.464L149.227 235.43L149.139 235.185L149.139 235.184L149.139 235.184L149.139 235.184C148.807 234.254 148.479 233.334 148.159 232.432C148.078 232.807 147.89 233.154 147.613 233.429C147.243 233.803 146.733 234.013 146.207 234.013H146.173L145.502 234.002L145.667 238.236C145.684 238.757 145.723 240.037 145.042 241.077ZM141.496 233.936L120.565 233.592C120.315 235.236 120.22 236.901 120.28 238.563L141.673 238.503V238.503C141.673 238.486 141.673 238.469 141.673 238.45C141.673 238.429 141.672 238.406 141.67 238.383L141.496 233.936Z" fill="black"/>
</g>
<path d="M109.547 92.4073C110.737 94.1812 111.974 96.0051 113.744 97.2011C115.514 98.397 117.971 98.8313 119.774 97.6888C121.774 96.416 123.027 93.346 125.381 93.6801C126.311 93.8171 127.047 94.5052 127.747 95.1433C129.704 96.9572 131.967 98.7344 134.631 98.9014C137.294 99.0685 140.214 96.8303 139.751 94.1979C139.587 93.2692 139.041 92.414 139.051 91.472C139.067 89.8284 140.717 88.7126 141.431 87.2361C143.144 83.7518 139.504 79.1953 141.497 75.8614C142.111 74.8425 143.147 74.1677 144.037 73.3793C148.457 69.4541 148.874 61.8275 144.904 57.4413C143.434 55.8178 141.437 54.5484 140.654 52.5006C140.167 51.2278 140.221 49.8281 140.244 48.4618C140.371 40.6582 139.161 32.6708 135.451 25.8059C131.741 18.9409 126.997 17.0502 119.351 15.5703L113.374 11.8489C111.507 8.87573 107.967 7.44595 104.581 6.54399C93.9141 3.71116 80.5941 0.651179 70.4908 5.07747C60.3875 9.50376 51.9108 17.7216 47.5308 27.8637C45.2708 33.0984 43.9975 38.9311 40.3075 43.2738C37.1608 46.9786 32.5875 49.1834 29.1708 52.6275C25.7541 56.0717 23.7341 61.9812 26.8608 65.7026C27.4941 66.4576 28.3208 67.0956 28.6808 68.0176C29.9175 71.1812 25.1708 73.2156 23.6408 76.2489C22.2108 79.0884 23.9008 82.5325 26.0508 84.8743C28.2008 87.216 30.9175 89.2171 32.0908 92.1668C32.9608 94.3582 33.0208 97.1075 34.9108 98.5139C37.0275 100.091 40.0541 98.9616 42.6275 99.5462C45.2008 100.131 47.0475 102.366 49.0541 104.113C51.0608 105.86 54.0375 107.216 56.2908 105.803C57.4908 105.048 58.1808 103.662 59.3741 102.9C61.7775 101.363 64.8475 102.917 67.5641 103.782C70.2808 104.647 74.3708 103.745 74.2075 100.892" fill="black"/>
<path d="M103.214 100.093C102.834 95.5198 103.68 91.5979 105.667 87.4623C106.117 86.5269 107.084 86.5369 108.04 86.2329C108.89 85.9657 109.724 85.6583 110.547 85.3109C112.217 84.6161 113.797 83.7175 115.247 82.6384C118.12 80.4637 120.36 77.4104 121.2 73.8694C121.964 70.6591 121.427 66.8374 117.867 65.0302C115.357 63.7607 113.107 64.2117 109.284 67.579L108.15 64.8765C109.344 59.0204 109.83 53.0374 109.6 47.0644C109.494 44.2583 105.7 39.8488 103.11 38.7764L98.6238 34.1998C96.2904 29.523 79.4138 28.0164 74.4071 29.4695C65.7138 32.299 63.1904 33.7956 60.6738 37.1896C58.1571 40.5837 56.8038 44.6826 55.4938 48.7013L52.9371 53.3514C50.7871 58.8935 49.4938 63.8977 49.1671 66.9276C48.3438 74.5575 49.8804 83.036 55.7038 88.4711C58.8071 91.3641 62.6504 92.7872 66.7604 93.5121C71.0471 94.2704 75.6471 94.9619 79.8071 93.2582C79.5871 96.7357 79.5538 99.5519 79.7138 103.033" fill="#FFD39F"/>
<path fill-rule="evenodd" clip-rule="evenodd" d="M47.7394 105.629C49.486 107.149 51.846 108.405 54.186 108.405C55.266 108.405 56.3427 108.138 57.346 107.486C58.196 106.952 58.8027 106.264 59.336 105.656L59.3553 105.634C59.7348 105.204 60.092 104.8 60.4427 104.577C61.6294 103.818 63.5227 104.483 65.526 105.191C65.9927 105.358 66.476 105.525 66.9527 105.679C69.516 106.497 72.5794 106.076 74.3994 104.66C75.6494 103.688 76.286 102.305 76.1994 100.765C76.136 99.6592 75.1927 98.814 74.0894 98.8775C72.986 98.9409 72.1427 99.8863 72.206 100.992C72.216 101.152 72.2027 101.293 71.946 101.49C71.1727 102.094 69.4394 102.261 68.166 101.857C67.736 101.72 67.2994 101.567 66.856 101.41L66.8471 101.406C64.2953 100.508 61.1194 99.3907 58.296 101.196C57.4706 101.722 56.8774 102.395 56.3545 102.989L56.3394 103.006C55.9494 103.451 55.5827 103.868 55.226 104.092C53.966 104.884 51.876 103.908 50.3627 102.589C49.981 102.257 49.6052 101.904 49.2072 101.53L49.2071 101.53L49.2066 101.53L49.2064 101.529L49.1394 101.466L49.1285 101.456C47.4778 99.9087 45.6104 98.158 43.066 97.5813C41.8194 97.2974 40.556 97.3341 39.4427 97.3675L39.4281 97.3679C38.0376 97.4079 36.8335 97.4424 36.0994 96.8931C35.35 96.3324 35.0333 95.1347 34.667 93.7499L34.666 93.7463C34.466 92.9813 34.256 92.1929 33.946 91.4112C32.926 88.8523 31.056 87.0217 29.246 85.2512L29.0582 85.0661C28.5168 84.5331 28.0007 84.025 27.5194 83.5007C25.9394 81.7803 24.4427 79.0811 25.4227 77.1369C25.8427 76.3051 26.7394 75.4298 27.606 74.5846C29.376 72.8609 31.7994 70.4958 30.5394 67.2721C30.1394 66.2499 29.446 65.525 28.8894 64.9437C28.7027 64.7499 28.5294 64.5662 28.386 64.3958C26.0927 61.6699 27.7427 56.8895 30.5827 54.0266C32.0085 52.5877 33.6674 51.3723 35.4263 50.0837L35.4263 50.0836L35.4263 50.0836L35.4294 50.0814L35.4317 50.0797L35.4317 50.0797L35.4317 50.0797C37.651 48.4533 39.9434 46.7734 41.8227 44.5594C44.6756 41.2031 46.1621 37.1339 47.6004 33.1968L47.606 33.1813L47.6541 33.0502C48.1924 31.581 48.7476 30.0657 49.3594 28.6481C53.4694 19.1308 61.4627 11.2035 71.286 6.90084C80.6427 2.80193 93.1127 5.56126 104.063 8.47092C106.553 9.1357 110.049 10.3149 111.676 12.9072C112.263 13.8426 113.496 14.1232 114.433 13.5353C115.366 12.9473 115.646 11.708 115.059 10.7726C112.683 6.9877 108.229 5.43766 105.086 4.59917C93.4827 1.51914 80.2194 -1.38384 69.6827 3.23287C58.9427 7.93977 50.196 16.6253 45.6894 27.0613C45.0127 28.6281 44.4194 30.2483 43.8494 31.8117C42.4694 35.5899 41.166 39.1576 38.776 41.9704C37.2078 43.8179 35.2107 45.282 33.0999 46.8295L33.0998 46.8296L33.066 46.8544C31.2594 48.1772 29.3927 49.5469 27.7427 51.2105C25.7194 53.2483 24.2094 55.9475 23.6027 58.6099C22.8694 61.8236 23.4794 64.7967 25.3194 66.9881C25.5265 67.2385 25.7365 67.4582 25.9391 67.6701L25.9392 67.6702L25.996 67.7297C26.3594 68.1072 26.6994 68.4613 26.8094 68.7453C27.0594 69.3867 26.426 70.1483 24.8094 71.7251L24.7963 71.7378C23.7495 72.7603 22.5631 73.9191 21.846 75.343C20.5994 77.815 20.6627 81.974 24.5694 86.23C25.1794 86.8947 25.8227 87.5261 26.446 88.1341L26.4548 88.1427C28.0316 89.6862 29.5207 91.1439 30.2227 92.9078C30.4419 93.4637 30.6115 94.1024 30.7907 94.7778L30.7908 94.7779L30.7908 94.7781L30.7909 94.7782L30.7927 94.7852C31.2794 96.6326 31.8327 98.7271 33.7094 100.124C35.5588 101.5 37.6739 101.44 39.5443 101.387H39.5444L39.556 101.386L39.5793 101.386C40.534 101.359 41.4321 101.334 42.1794 101.503C43.6727 101.844 44.9994 103.087 46.4027 104.406L46.5475 104.541L46.5477 104.542C46.9349 104.903 47.3306 105.273 47.7394 105.629ZM134.503 100.919C134.639 100.929 134.779 100.932 134.919 100.932C136.919 100.932 138.949 100.027 140.299 98.5234C141.506 97.1738 142.009 95.5235 141.719 93.8766C141.623 93.3287 141.456 92.851 141.306 92.4301C141.179 92.0727 141.049 91.7052 141.049 91.5181C141.053 91.1675 141.506 90.5964 141.946 90.042L141.946 90.0416C142.376 89.5004 142.863 88.8857 143.226 88.1475C144.374 85.813 143.828 83.3821 143.345 81.2334L143.343 81.2224L143.341 81.213C142.945 79.4531 142.604 77.9368 143.213 76.9197C143.493 76.4554 144.036 76.0077 144.613 75.5367C144.866 75.3296 145.119 75.1225 145.363 74.9053C147.866 72.6905 149.416 69.3466 149.616 65.7321C149.819 62.1109 148.643 58.6066 146.389 56.1178C145.879 55.5566 145.339 55.0522 144.816 54.5678C143.833 53.6558 142.903 52.7906 142.526 51.8085C142.207 50.9693 142.226 49.8878 142.246 48.7459L142.246 48.7351L142.249 48.518C142.399 39.2879 140.706 31.3306 137.216 24.8732C133.226 17.4905 127.993 15.2223 119.736 13.6255C118.649 13.415 117.603 14.1265 117.393 15.2122C117.183 16.2979 117.893 17.3502 118.976 17.5607C126.343 18.9871 130.426 20.7309 133.696 26.7807C136.856 32.6268 138.389 39.9159 138.249 48.4478L138.246 48.6583L138.246 48.6818C138.222 50.0858 138.196 51.6769 138.793 53.2382C139.503 55.0923 140.883 56.3751 142.099 57.5042C142.583 57.9518 143.036 58.3727 143.429 58.807C144.966 60.5074 145.766 62.9494 145.626 65.5082C145.486 68.0605 144.426 70.3889 142.719 71.8988C142.564 72.0366 142.404 72.1688 142.243 72.301C142.19 72.345 142.136 72.3891 142.083 72.4333C141.306 73.068 140.426 73.7896 139.786 74.8519C138.349 77.2504 138.929 79.826 139.443 82.101C139.816 83.7512 140.166 85.308 139.643 86.3703C139.469 86.7244 139.153 87.1252 138.819 87.5462C138.039 88.5249 137.073 89.7476 137.056 91.4914C137.056 92.3899 137.326 93.1514 137.543 93.7627L137.543 93.763L137.553 93.7924C137.653 94.079 137.747 94.3516 137.786 94.5647C137.879 95.0892 137.586 95.5469 137.326 95.8409C136.706 96.5324 135.653 96.9767 134.763 96.9199C132.709 96.7896 130.756 95.2128 129.106 93.6862L129.066 93.6494L129.057 93.6414C128.265 92.9139 127.184 91.9216 125.666 91.7152C123.113 91.3544 121.466 93.1817 120.266 94.518C119.719 95.126 119.203 95.7005 118.709 96.0146C117.586 96.7294 115.929 96.2785 114.866 95.5602C113.392 94.5631 112.287 92.9135 111.218 91.3192L111.213 91.311C110.596 90.3923 109.353 90.1451 108.436 90.7631C107.519 91.3812 107.273 92.6272 107.889 93.5459L107.908 93.5736L107.908 93.5736C109.13 95.3942 110.514 97.455 112.629 98.8841C115.286 100.678 118.513 100.882 120.853 99.3986C121.808 98.788 122.564 97.9474 123.234 97.203L123.236 97.2005L123.251 97.1842C123.943 96.4142 124.656 95.6208 125.113 95.6872C125.4 95.7236 125.943 96.2225 126.345 96.5923L126.345 96.5924L126.356 96.6025L126.389 96.6326C128.546 98.6336 131.199 100.708 134.503 100.919ZM55.4927 50.7094C55.286 50.7094 55.076 50.676 54.8727 50.6092C53.8227 50.2651 53.2494 49.1327 53.5927 48.0804C54.8727 44.1485 56.326 39.6921 59.0694 35.9941C60.8394 33.6056 62.8827 31.9219 65.896 30.3585C71.2427 27.5892 77.3694 26.42 83.6161 26.9745C87.9061 27.3553 98.136 28.735 100.413 33.3016C100.906 34.2904 100.506 35.4963 99.5194 35.9908C98.5327 36.4852 97.3294 36.0843 96.8361 35.0955C96.0861 33.5922 90.8027 31.638 83.2627 30.9665C77.7727 30.4788 72.4027 31.501 67.7327 33.9196C65.2594 35.199 63.6794 36.4918 62.2794 38.386C59.9264 41.559 58.6398 45.5068 57.3967 49.3212L57.3967 49.3212L57.396 49.3231C57.1194 50.1716 56.336 50.7094 55.4927 50.7094ZM111.619 47.0014C111.835 52.7507 111.401 58.5296 110.328 64.1911C114.167 61.6191 116.64 62.1663 118.736 63.2266C122.616 65.1909 124.293 69.4435 123.113 74.3274C122.213 78.1223 119.836 81.64 116.423 84.2223C114.829 85.4082 113.103 86.3903 111.283 87.1453C110.419 87.5094 109.516 87.8435 108.606 88.1274C108.329 88.2143 108.063 88.2811 107.829 88.3379C107.795 88.3464 107.759 88.3553 107.722 88.3644C107.598 88.3946 107.464 88.4273 107.369 88.4581C105.453 92.4668 104.859 93.9734 105.193 97.902C105.286 99.0044 104.469 99.9732 103.369 100.067C103.309 100.08 103.253 100.083 103.196 100.083C102.169 100.083 101.293 99.295 101.206 98.2461C100.783 93.2151 101.759 90.9135 103.833 86.5841C104.593 85.004 106.029 84.6565 106.889 84.4494C106.929 84.4395 106.968 84.43 107.006 84.4205C107.15 84.3853 107.285 84.352 107.406 84.3124C108.199 84.0619 108.983 83.7746 109.739 83.4539C111.269 82.8192 112.706 82.0008 114.026 81.0186C116.686 79.0042 118.539 76.295 119.226 73.3954C119.579 71.9355 120.059 68.3878 116.936 66.8077C115.573 66.1162 114.236 65.8456 110.573 69.0727C109.743 69.8042 108.479 69.7207 107.749 68.8889C107.216 68.2806 107.117 67.4399 107.427 66.746C106.532 66.3984 105.992 65.4466 106.193 64.476C107.359 58.7836 107.839 52.9509 107.619 47.1417C107.559 45.3277 104.463 41.4994 102.363 40.6308C101.343 40.2066 100.856 39.0374 101.279 38.0118C101.703 36.9896 102.869 36.5019 103.893 36.9261C105.456 37.5742 107.316 39.1008 108.863 41.0083C109.859 42.2377 111.539 44.6462 111.619 47.0014ZM62.8094 62.5719C64.0981 62.5719 65.1427 61.3006 65.1427 59.7324C65.1427 58.1642 64.0981 56.8929 62.8094 56.8929C61.5207 56.8929 60.4761 58.1642 60.4761 59.7324C60.4761 61.3006 61.5207 62.5719 62.8094 62.5719ZM76.4761 60.5174C76.4761 62.0856 75.4314 63.3569 74.1428 63.3569C72.8541 63.3569 71.8094 62.0856 71.8094 60.5174C71.8094 58.9492 72.8541 57.6779 74.1428 57.6779C75.4314 57.6779 76.4761 58.9492 76.4761 60.5174ZM77.7161 101.126C77.7661 102.201 78.6494 103.04 79.7127 103.04C79.7428 103.04 79.7727 103.04 79.8094 103.026C80.9127 102.976 81.7661 102.038 81.7161 100.932C81.5561 97.4844 81.5928 96.7428 81.8061 93.3822C81.8494 92.694 81.5361 92.0326 80.9761 91.6283C80.4161 91.2275 79.6894 91.1406 79.0527 91.4012C75.5394 92.841 71.5627 92.3165 67.1094 91.5382C62.7527 90.7698 59.5628 89.33 57.0694 87.005C52.4061 82.6555 50.2527 75.4164 51.1561 67.1485C51.4294 64.6731 52.5294 59.9395 54.8027 54.0801C55.2027 53.0478 54.6927 51.8853 53.6628 51.4844C52.6327 51.0836 51.4727 51.5947 51.0727 52.6269C49.0227 57.9084 47.5694 63.1732 47.1794 66.7109C46.1394 76.2549 48.7494 84.72 54.3427 89.9414C57.3861 92.7775 61.3361 94.5915 66.4194 95.4901C69.5661 96.0413 73.6461 96.7528 77.6527 95.9778C77.5861 97.5913 77.6094 98.7739 77.7161 101.126Z" fill="black"/>
</g>
<defs>
<clipPath id="clip0_805_38939">
<rect width="180" height="180" rx="24" fill="white"/>
</clipPath>
<clipPath id="clip1_805_38939">
<rect width="200" height="200.436" fill="white" transform="translate(-10 95.2734)"/>
</clipPath>
</defs>
</svg>
