<svg width="180" height="180" viewBox="0 0 180 180" fill="none" xmlns="http://www.w3.org/2000/svg">
<g clip-path="url(#clip0_805_38887)">
<rect width="180" height="180" rx="24" fill="white"/>
<g clip-path="url(#clip1_805_38887)">
<path d="M103.124 95.2734C103.424 98.6474 104.8 106.271 109.924 105.128L110.474 105.963C110.224 111.198 107.577 114.889 103.43 118.714C99.2171 122.539 93.8437 124.838 88.1737 125.242C83.1737 125.609 77.8571 124.41 74.1171 121.049C70.3771 117.689 68.4104 113.032 70.8871 109.04H71.2471C72.3737 109.073 73.4104 108.482 74.3637 107.881C75.5771 107.113 78.0804 103.962 78.8304 103.057C79.8304 101.758 80.2371 96.8302 80.7504 95.2734H103.124V95.2734Z" fill="#FFD39F"/>
<path d="M110.754 103.328C116.65 104.912 121.224 109.465 124.907 114.125C128.924 119.219 132.077 124.942 134.24 131.062C135.45 134.476 137.364 138.324 138.154 141.859L139.207 145.069C144.874 169.562 145.92 194.817 146.3 220.005L146.634 220.814C148.667 228.347 156.334 247.388 158 255.405C158.054 256.09 157.94 256.778 157.667 257.41C154.334 261.418 148.667 260.416 144.284 261.776L128.794 264.869C106.624 268.855 98.7071 271.831 76.5004 268.08L75.5004 267.829C74.0404 255.522 72.9637 242.735 72.3404 229.85L72.1871 230.518C70.0837 242.838 68.1137 254.236 67.7004 266.727L67.6371 267.258C62.8604 266.343 48.4204 263.754 43.6371 262.838C42.3437 262.588 40.9237 262.26 40.1671 261.168C39.5404 260.273 39.5437 259.093 39.5904 258.001C39.7804 253.658 40.2804 249.346 40.7804 245.033L43.0671 225.293H42.8937C39.5071 224.882 36.7871 224.471 33.4004 224.061C34.8037 208.54 36.6037 193.063 38.8004 177.626C40.7137 164.18 42.9337 150.731 46.8804 137.74C50.3871 126.194 59.6171 110.915 70.1804 105.125L76.7571 106.178C81.0904 110.494 88.3804 111.409 93.6271 108.292L110.754 103.328Z" fill="black"/>
<path fill-rule="evenodd" clip-rule="evenodd" d="M75.6928 158.258L75.9528 108.781C75.9528 106.846 76.3328 100.065 76.9228 99.1263C72.5895 101.973 69.9461 106.689 67.4528 111.226C66.0228 113.828 64.5461 116.618 64.7428 119.577C64.888 121.793 65.9392 123.776 66.9936 125.766C67.9486 127.567 68.9062 129.374 69.1961 131.363C69.5987 134.124 68.6756 136.782 67.745 139.462C67.0497 141.464 66.3501 143.479 66.1961 145.557C66.0128 148.163 67.0328 153.909 67.7161 156.441L72.6961 174.868L72.5261 191.667C78.3128 179.575 85.0728 167.973 92.7428 156.982C95.1295 153.555 97.7428 149.746 97.2295 145.597C97.1167 144.694 96.8599 143.788 96.6044 142.887C96.1044 141.124 95.6094 139.378 96.2095 137.7C96.5961 136.618 97.3995 135.746 98.1795 134.904L109.449 122.791C110.219 121.963 111.013 121.094 111.349 120.012C111.729 118.776 111.459 117.443 111.186 116.177L107.753 100.322C107.449 98.9225 106.866 97.2389 105.453 97.0117C102.063 99.2499 99.0528 102.587 96.4161 106.081C94.72 108.332 93.1577 110.657 91.7142 113.046L93.6262 108.293C88.3796 111.41 81.0896 110.494 76.7562 106.178V150.227L78.9952 144.662C77.7732 149.278 76.7152 153.958 75.7495 158.652L75.6928 158.258ZM32.9629 232.035C33.1629 229.543 33.3829 226.991 34.4496 224.733L42.6129 225.625L41.7096 233.372C38.7462 233.351 35.7996 232.9 32.9629 232.035ZM118.576 239.618C118.393 237.016 118.566 234.404 119.086 231.848L143.666 232.209L143.913 238.366C143.933 239.101 143.883 239.989 143.246 240.353C142.933 240.497 142.59 240.557 142.246 240.53L119.58 240.594C119.336 240.624 119.09 240.567 118.88 240.44C118.776 240.33 118.696 240.2 118.643 240.059C118.593 239.919 118.57 239.769 118.576 239.618Z" fill="white"/>
<path fill-rule="evenodd" clip-rule="evenodd" d="M76.179 270.055C83.5024 271.295 89.299 271.813 94.549 271.813C103.026 271.813 110.082 270.46 119.849 268.582L120.637 268.432C123.169 267.948 125.796 267.445 128.714 266.918C130.508 268.298 132.619 269.026 134.946 269.026C135.192 269.026 135.439 269.02 135.679 269C139.209 268.765 142.279 266.843 144.338 263.781C144.516 263.776 144.694 263.746 144.872 263.688C146.116 263.301 147.539 263.124 149.046 262.937C152.512 262.506 156.439 262.015 159.202 258.691C159.326 258.544 159.426 258.38 159.502 258.203C159.899 257.278 160.069 256.255 159.992 255.25C159.986 255.166 159.972 255.079 159.956 254.996C158.973 250.26 156.084 242.154 153.283 234.297L153.252 234.211L153.19 234.036C151.233 228.545 149.39 223.374 148.556 220.29C148.502 220.092 148.42 219.909 148.316 219.744C148.065 195.344 147.469 172.037 141.786 147.482C141.536 146.403 140.462 145.732 139.386 145.982C138.309 146.233 137.639 147.308 137.889 148.387C143.899 174.361 144.129 199.104 144.369 225.301L144.37 225.371L144.37 225.374C144.383 226.914 144.396 228.459 144.412 230.012L119.176 229.597C115.426 200.234 114.132 170.362 115.329 140.791C115.376 139.685 114.516 138.75 113.412 138.706C112.306 138.666 111.376 139.522 111.332 140.627C110.102 171.003 111.482 201.687 115.432 231.832C115.535 232.611 116.075 233.237 116.785 233.474C116.507 235.524 116.438 237.598 116.576 239.666C116.572 240.037 116.639 240.401 116.769 240.758C116.916 241.156 117.139 241.513 117.429 241.821C117.444 241.836 117.459 241.851 117.474 241.865C117.488 241.879 117.502 241.893 117.517 241.906C116.305 242.822 115.301 243.996 114.859 245.408C114.476 246.628 114.359 248.525 115.959 250.63C117.442 252.584 119.489 253.756 121.296 254.789L121.512 254.913L121.551 254.936C121.819 255.089 122.086 255.243 122.349 255.4C122.842 255.695 123.382 257.664 123.617 258.526L123.622 258.544C123.786 259.145 123.942 259.709 124.126 260.221C124.552 261.392 125.058 262.457 125.637 263.409C123.29 263.843 121.099 264.262 119.099 264.647L119.093 264.648C103.874 267.567 95.43 269.186 77.3357 266.184C75.9973 254.632 75.0257 242.845 74.4305 231.133L74.4857 230.813C74.5525 230.423 74.5019 230.039 74.3595 229.699C73.7619 217.307 73.5868 205.013 73.8457 193.188C74.0457 193.015 74.2157 192.797 74.339 192.54C80.059 180.581 86.8057 169.006 94.3924 158.135C96.8124 154.661 99.8257 150.335 99.2257 145.364C99.0957 144.295 98.8124 143.29 98.5357 142.318C98.099 140.778 97.7224 139.448 98.1024 138.382C98.3493 137.686 98.9996 136.983 99.629 136.303L99.6524 136.278L110.922 124.165L110.928 124.159C111.76 123.261 112.797 122.144 113.269 120.61C113.814 118.844 113.432 117.074 113.152 115.775L113.149 115.76L110.919 105.466C116.406 107.218 120.612 111.924 123.336 115.369C127.226 120.3 130.259 125.805 132.352 131.735C132.789 132.961 133.312 134.247 133.819 135.489L133.833 135.525C134.762 137.805 135.721 140.161 136.199 142.298C136.409 143.23 137.232 143.864 138.149 143.864C138.296 143.864 138.442 143.848 138.589 143.814C139.666 143.57 140.342 142.498 140.102 141.419C139.549 138.944 138.519 136.415 137.522 133.97C137.009 132.713 136.526 131.528 136.122 130.392C133.882 124.048 130.636 118.158 126.472 112.88C123.282 108.845 118.236 103.263 111.269 101.392C110.85 101.279 110.427 101.309 110.05 101.45L109.716 99.9088C109.092 96.9992 107.766 95.3623 105.776 95.0416C105.282 94.9614 104.776 95.0683 104.359 95.3456C101.222 97.4134 98.1057 100.534 94.8257 104.88C94.4737 105.347 94.1274 105.817 93.7867 106.29C93.3985 106.265 92.9989 106.353 92.6391 106.567C88.3819 109.098 82.3636 108.465 78.6483 105.178C79.0021 103.903 79.4016 102.738 79.6157 102.367C80.119 101.569 79.9957 100.53 79.3257 99.8687C78.6557 99.2072 77.6157 99.1037 76.829 99.6215C74.906 100.885 73.133 102.091 71.5276 103.407C71.304 103.442 71.0824 103.515 70.8723 103.63C59.2456 110.004 48.389 125.995 44.999 137.156C40.9856 150.368 38.7123 164.279 36.8523 177.344C34.6623 192.737 32.839 208.391 31.439 223.882C31.3822 224.494 31.6081 225.069 32.0106 225.476C31.4652 227.152 31.2365 228.873 31.0853 230.503C27.6901 232.006 25.9551 235.03 26.7424 238.186C26.8324 238.54 27.0124 238.861 27.2691 239.118C30.5091 242.368 30.1524 247.222 29.8057 251.916L29.7988 252.007L29.7988 252.008L29.7988 252.008L29.7988 252.008L29.7988 252.008L29.7988 252.008C29.7578 252.551 29.7173 253.088 29.6857 253.613C29.6657 253.94 29.7257 254.268 29.8624 254.568C30.6924 256.399 32.0157 257.956 33.6857 259.071C34.9394 259.913 36.3495 260.475 37.8254 260.73C37.9697 261.283 38.2006 261.829 38.5623 262.345C39.8038 264.116 41.8829 264.542 43.2861 264.829L43.2923 264.831C45.436 265.24 49.559 265.993 53.8031 266.768L53.8156 266.77L55.5057 267.079C56.4067 267.244 57.3139 267.41 58.208 267.573L58.2086 267.573L58.2124 267.574C61.918 268.251 65.3997 268.887 67.2923 269.25C67.4157 269.274 67.539 269.287 67.6657 269.287C68.0857 269.287 68.5023 269.153 68.849 268.896C69.299 268.569 69.589 268.068 69.6557 267.516L69.719 266.985C69.7257 266.929 69.729 266.872 69.7323 266.815C69.9427 260.456 70.6364 254.365 71.5497 248.263C72.0902 254.906 72.7495 261.525 73.5257 268.064C73.6224 268.889 74.219 269.571 75.0257 269.771L76.0257 270.022C76.0686 270.033 76.1139 270.042 76.1575 270.051L76.179 270.055ZM63.6928 114.351C56.8409 121.387 51.0534 130.981 48.8223 138.322C45.1056 150.552 42.9323 162.993 40.809 177.908C38.719 192.594 36.9656 207.523 35.599 222.311C36.4228 222.418 37.2162 222.524 37.9948 222.629L37.9983 222.629L38.0007 222.629L38.4456 222.689C39.3839 222.815 40.3432 222.943 41.3433 223.072L42.769 210.753L42.7721 210.726C45.5311 186.903 48.3844 162.265 53.979 138.476C54.2323 137.4 55.309 136.732 56.3857 136.986C57.459 137.24 58.1257 138.319 57.8723 139.398C52.3296 162.967 49.4896 187.491 46.7432 211.207L46.7423 211.214L42.799 245.288C42.3123 249.491 41.809 253.84 41.619 258.113C41.5957 258.644 41.5523 259.639 41.8357 260.04C42.1637 260.505 43.2955 260.739 44.0554 260.896L44.0557 260.896L44.069 260.899C46.4226 261.35 51.285 262.237 56.0224 263.1L56.0264 263.101L56.2223 263.137C59.6857 263.768 63.239 264.416 65.8057 264.894C66.2923 254.518 67.9723 244.891 69.7457 234.729C69.8388 234.191 69.9327 233.653 70.0269 233.113C70.1545 232.381 70.2827 231.646 70.4098 230.908C69.4436 211.61 69.493 192.522 70.6024 175.012C70.6066 174.959 70.6121 174.906 70.6199 174.853L65.7857 156.966C65.1023 154.437 63.989 148.418 64.2023 145.418C64.3757 143.069 65.129 140.901 65.859 138.803L65.8611 138.797C66.7303 136.294 67.5521 133.928 67.219 131.654C66.979 130.008 66.129 128.404 65.229 126.707L65.2211 126.692C64.0902 124.555 62.9219 122.348 62.749 119.708C62.6211 117.798 63.0502 116.002 63.6928 114.351ZM74.6956 174.824L74.8557 173.99L74.8559 173.989C78.9292 151.731 83.5459 126.503 98.0157 107.292C100.602 103.861 103.039 101.295 105.422 99.4912C105.539 99.7618 105.676 100.159 105.802 100.751L109.236 116.605L109.24 116.624C109.446 117.582 109.677 118.661 109.442 119.425C109.241 120.079 108.617 120.752 108.01 121.406L107.989 121.429L96.7157 133.545L96.6977 133.565C95.874 134.457 94.8519 135.564 94.329 137.03C93.5157 139.304 94.1357 141.489 94.6824 143.413C94.929 144.275 95.159 145.087 95.249 145.845C95.6657 149.296 93.2457 152.774 91.109 155.84C84.859 164.8 79.1657 174.23 74.1357 183.958C74.2567 181.124 74.4033 178.321 74.5756 175.557C74.6599 175.326 74.7021 175.077 74.6956 174.824ZM72.3082 165.772L69.6457 155.921C68.9523 153.348 68.0323 147.923 68.189 145.708C68.3222 143.893 68.9578 142.064 69.6304 140.128L69.6323 140.123L69.634 140.118C70.6235 137.267 71.6454 134.322 71.1723 131.077C70.8328 128.748 69.7786 126.759 68.7599 124.838L68.7557 124.83L68.7391 124.798C67.7686 122.963 66.8517 121.228 66.7357 119.448C66.5857 117.163 67.7123 114.908 69.2023 112.195C70.5157 109.807 72.1957 108.013 74.2523 106.353C74.069 107.275 73.9523 108.127 73.9523 108.771L73.6923 158.249C73.6917 158.36 73.7002 158.47 73.7171 158.577C73.2235 160.991 72.7574 163.392 72.3082 165.772ZM77.7804 141.502C80.6837 131.172 84.5362 121.019 90.1543 111.779C89.0277 112.022 87.8751 112.142 86.7224 112.142C83.6434 112.142 80.5552 111.29 77.9478 109.645L77.7804 141.502ZM35.1023 230.546C35.2451 229.113 35.4579 227.693 35.9233 226.403C36.5586 226.486 37.1794 226.569 37.792 226.651L37.8022 226.653L37.8065 226.653L37.8105 226.654L37.8142 226.654L37.9123 226.668L38.4833 226.744C39.2619 226.848 40.057 226.953 40.8818 227.06L40.3879 231.328C38.6057 231.234 36.8359 230.971 35.1023 230.546ZM32.8736 234.1C35.176 234.763 37.5389 235.172 39.9263 235.317L38.8257 244.827L38.8118 244.947C38.3732 248.746 37.9213 252.659 37.6946 256.584C37.0645 256.392 36.4631 256.108 35.9091 255.737C34.9924 255.123 34.2391 254.298 33.7157 253.329C33.7306 253.093 33.7481 252.858 33.7657 252.621C33.7758 252.484 33.786 252.348 33.7957 252.21L33.7961 252.205C34.1561 247.315 34.6009 241.271 30.5591 236.77C30.4989 235.244 32.2074 234.379 32.8736 234.1ZM123.69 242.584C123.491 243.158 123.035 243.636 122.412 243.835C120.559 244.433 118.986 245.599 118.672 246.604C118.612 246.795 118.456 247.302 119.139 248.201C120.12 249.495 121.63 250.363 123.23 251.282L123.276 251.308C123.649 251.522 124.022 251.735 124.389 251.953C126.276 253.078 126.942 255.524 127.476 257.485C127.616 258.002 127.752 258.493 127.879 258.848C128.956 261.807 131.149 265.285 135.422 265.001C138.236 264.814 141.636 262.693 142.752 257.294C143.608 253.157 142.837 248.702 142.092 244.391L142.089 244.376C141.996 243.848 141.907 243.324 141.817 242.799L141.817 242.798L141.816 242.789C141.801 242.703 141.793 242.618 141.789 242.533L123.69 242.584ZM145.276 241.119C145.521 241.392 145.694 241.736 145.759 242.125C145.833 242.567 145.909 243.01 145.985 243.455L145.985 243.456L145.986 243.46L146.026 243.691L146.029 243.708C146.838 248.387 147.674 253.225 146.662 258.106C146.581 258.497 146.489 258.881 146.385 259.257C147.111 259.141 147.839 259.05 148.556 258.961L148.559 258.961H148.56C151.561 258.587 154.166 258.262 155.922 256.366C155.989 256.142 156.019 255.905 156.012 255.671C155.049 251.154 152.096 242.873 149.486 235.56L149.446 235.448L149.446 235.448C149.088 234.445 148.734 233.452 148.389 232.479C148.308 232.851 148.12 233.196 147.846 233.469C147.472 233.843 146.962 234.054 146.436 234.054H146.402L145.739 234.043L145.909 238.283C145.924 238.809 145.958 240.085 145.276 241.119ZM141.734 233.977L120.804 233.632C120.558 235.271 120.466 236.93 120.526 238.587L141.919 238.527C141.919 238.493 141.919 238.457 141.916 238.42L141.734 233.977Z" fill="black"/>
</g>
<path d="M109.547 92.4073C110.737 94.1812 111.974 96.0051 113.744 97.2011C115.514 98.397 117.971 98.8313 119.774 97.6888C121.774 96.416 123.027 93.346 125.381 93.6801C126.311 93.8171 127.047 94.5052 127.747 95.1433C129.704 96.9572 131.967 98.7344 134.631 98.9014C137.294 99.0685 140.214 96.8303 139.751 94.1979C139.587 93.2692 139.041 92.414 139.051 91.472C139.067 89.8284 140.717 88.7126 141.431 87.2361C143.144 83.7518 139.504 79.1953 141.497 75.8614C142.111 74.8425 143.147 74.1677 144.037 73.3793C148.457 69.4541 148.874 61.8275 144.904 57.4413C143.434 55.8178 141.437 54.5484 140.654 52.5006C140.167 51.2278 140.221 49.8281 140.244 48.4618C140.371 40.6582 139.161 32.6708 135.451 25.8059C131.741 18.9409 126.997 17.0502 119.351 15.5703L113.374 11.8489C111.507 8.87573 107.967 7.44595 104.581 6.54399C93.9141 3.71116 80.5941 0.651179 70.4908 5.07747C60.3875 9.50376 51.9108 17.7216 47.5308 27.8637C45.2708 33.0984 43.9975 38.9311 40.3075 43.2738C37.1608 46.9786 32.5875 49.1834 29.1708 52.6275C25.7541 56.0717 23.7341 61.9812 26.8608 65.7026C27.4941 66.4576 28.3208 67.0956 28.6808 68.0176C29.9175 71.1812 25.1708 73.2156 23.6408 76.2489C22.2108 79.0884 23.9008 82.5325 26.0508 84.8743C28.2008 87.216 30.9175 89.2171 32.0908 92.1668C32.9608 94.3582 33.0208 97.1075 34.9108 98.5139C37.0275 100.091 40.0541 98.9616 42.6275 99.5462C45.2008 100.131 47.0475 102.366 49.0541 104.113C51.0608 105.86 54.0375 107.216 56.2908 105.803C57.4908 105.048 58.1808 103.662 59.3741 102.9C61.7775 101.363 64.8475 102.917 67.5641 103.782C70.2808 104.647 74.3708 103.745 74.2075 100.892" fill="black"/>
<path d="M103.214 100.093C102.834 95.5198 103.68 91.5979 105.667 87.4623C106.117 86.5269 107.084 86.5369 108.04 86.2329C108.89 85.9657 109.724 85.6583 110.547 85.3109C112.217 84.6161 113.797 83.7175 115.247 82.6384C118.12 80.4637 120.36 77.4104 121.2 73.8694C121.964 70.6591 121.427 66.8374 117.867 65.0302C115.357 63.7607 113.107 64.2117 109.284 67.579L108.15 64.8765C109.344 59.0204 109.83 53.0374 109.6 47.0644C109.494 44.2583 105.7 39.8488 103.11 38.7764L98.6238 34.1998C96.2904 29.523 79.4138 28.0164 74.4071 29.4695C65.7138 32.299 63.1904 33.7956 60.6738 37.1896C58.1571 40.5837 56.8038 44.6826 55.4938 48.7013L52.9371 53.3514C50.7871 58.8935 49.4938 63.8977 49.1671 66.9276C48.3438 74.5575 49.8804 83.036 55.7038 88.4711C58.8071 91.3641 62.6504 92.7872 66.7604 93.5121C71.0471 94.2704 75.6471 94.9619 79.8071 93.2582C79.5871 96.7357 79.5538 99.5519 79.7138 103.033" fill="#FFD39F"/>
<path fill-rule="evenodd" clip-rule="evenodd" d="M47.7394 105.629C49.486 107.149 51.846 108.405 54.186 108.405C55.266 108.405 56.3427 108.138 57.346 107.486C58.196 106.952 58.8027 106.264 59.336 105.656L59.3553 105.634C59.7348 105.204 60.092 104.8 60.4427 104.577C61.6294 103.818 63.5227 104.483 65.526 105.191C65.9927 105.358 66.476 105.525 66.9527 105.679C69.516 106.497 72.5794 106.076 74.3994 104.66C75.6494 103.688 76.286 102.305 76.1994 100.765C76.136 99.6592 75.1927 98.814 74.0894 98.8775C72.986 98.9409 72.1427 99.8863 72.206 100.992C72.216 101.152 72.2027 101.293 71.946 101.49C71.1727 102.094 69.4394 102.261 68.166 101.857C67.736 101.72 67.2994 101.567 66.856 101.41L66.8471 101.406C64.2953 100.508 61.1194 99.3907 58.296 101.196C57.4706 101.722 56.8774 102.395 56.3545 102.989L56.3394 103.006C55.9494 103.451 55.5827 103.868 55.226 104.092C53.966 104.884 51.876 103.908 50.3627 102.589C49.981 102.257 49.6052 101.904 49.2072 101.53L49.2071 101.53L49.2066 101.53L49.2064 101.529L49.1394 101.466L49.1285 101.456C47.4778 99.9087 45.6104 98.158 43.066 97.5813C41.8194 97.2974 40.556 97.3341 39.4427 97.3675L39.4281 97.3679C38.0376 97.4079 36.8335 97.4424 36.0994 96.8931C35.35 96.3324 35.0333 95.1347 34.667 93.7499L34.666 93.7463C34.466 92.9813 34.256 92.1929 33.946 91.4112C32.926 88.8523 31.056 87.0217 29.246 85.2512L29.0582 85.0661C28.5168 84.5331 28.0007 84.025 27.5194 83.5007C25.9394 81.7803 24.4427 79.0811 25.4227 77.1369C25.8427 76.3051 26.7394 75.4298 27.606 74.5846C29.376 72.8609 31.7994 70.4958 30.5394 67.2721C30.1394 66.2499 29.446 65.525 28.8894 64.9437C28.7027 64.7499 28.5294 64.5662 28.386 64.3958C26.0927 61.6699 27.7427 56.8895 30.5827 54.0266C32.0085 52.5877 33.6674 51.3723 35.4263 50.0837L35.4263 50.0836L35.4263 50.0836L35.4294 50.0814L35.4317 50.0797L35.4317 50.0797L35.4317 50.0797C37.651 48.4533 39.9434 46.7734 41.8227 44.5594C44.6756 41.2031 46.1621 37.1339 47.6004 33.1968L47.606 33.1813L47.6541 33.0502C48.1924 31.581 48.7476 30.0657 49.3594 28.6481C53.4694 19.1308 61.4627 11.2035 71.286 6.90084C80.6427 2.80193 93.1127 5.56126 104.063 8.47092C106.553 9.1357 110.049 10.3149 111.676 12.9072C112.263 13.8426 113.496 14.1232 114.433 13.5353C115.366 12.9473 115.646 11.708 115.059 10.7726C112.683 6.9877 108.229 5.43766 105.086 4.59917C93.4827 1.51914 80.2194 -1.38384 69.6827 3.23287C58.9427 7.93977 50.196 16.6253 45.6894 27.0613C45.0127 28.6281 44.4194 30.2483 43.8494 31.8117C42.4694 35.5899 41.166 39.1576 38.776 41.9704C37.2078 43.8179 35.2107 45.282 33.0999 46.8295L33.0998 46.8296L33.066 46.8544C31.2594 48.1772 29.3927 49.5469 27.7427 51.2105C25.7194 53.2483 24.2094 55.9475 23.6027 58.6099C22.8694 61.8236 23.4794 64.7967 25.3194 66.9881C25.5265 67.2385 25.7365 67.4582 25.9391 67.6701L25.9392 67.6702L25.996 67.7297C26.3594 68.1072 26.6994 68.4613 26.8094 68.7453C27.0594 69.3867 26.426 70.1483 24.8094 71.7251L24.7963 71.7378C23.7495 72.7603 22.5631 73.9191 21.846 75.343C20.5994 77.815 20.6627 81.974 24.5694 86.23C25.1794 86.8947 25.8227 87.5261 26.446 88.1341L26.4548 88.1427C28.0316 89.6862 29.5207 91.1439 30.2227 92.9078C30.4419 93.4637 30.6115 94.1024 30.7907 94.7778L30.7908 94.7779L30.7908 94.7781L30.7909 94.7782L30.7927 94.7852C31.2794 96.6326 31.8327 98.7271 33.7094 100.124C35.5588 101.5 37.6739 101.44 39.5443 101.387H39.5444L39.556 101.386L39.5793 101.386C40.534 101.359 41.4321 101.334 42.1794 101.503C43.6727 101.844 44.9994 103.087 46.4027 104.406L46.5475 104.541L46.5477 104.542C46.9349 104.903 47.3306 105.273 47.7394 105.629ZM134.503 100.919C134.639 100.929 134.779 100.932 134.919 100.932C136.919 100.932 138.949 100.027 140.299 98.5234C141.506 97.1738 142.009 95.5235 141.719 93.8766C141.623 93.3287 141.456 92.851 141.306 92.4301C141.179 92.0727 141.049 91.7052 141.049 91.5181C141.053 91.1675 141.506 90.5964 141.946 90.042L141.946 90.0416C142.376 89.5004 142.863 88.8857 143.226 88.1475C144.374 85.813 143.828 83.3821 143.345 81.2334L143.343 81.2224L143.341 81.213C142.945 79.4531 142.604 77.9368 143.213 76.9197C143.493 76.4554 144.036 76.0077 144.613 75.5367C144.866 75.3296 145.119 75.1225 145.363 74.9053C147.866 72.6905 149.416 69.3466 149.616 65.7321C149.819 62.1109 148.643 58.6066 146.389 56.1178C145.879 55.5566 145.339 55.0522 144.816 54.5678C143.833 53.6558 142.903 52.7906 142.526 51.8085C142.207 50.9693 142.226 49.8878 142.246 48.7459L142.246 48.7351L142.249 48.518C142.399 39.2879 140.706 31.3306 137.216 24.8732C133.226 17.4905 127.993 15.2223 119.736 13.6255C118.649 13.415 117.603 14.1265 117.393 15.2122C117.183 16.2979 117.893 17.3502 118.976 17.5607C126.343 18.9871 130.426 20.7309 133.696 26.7807C136.856 32.6268 138.389 39.9159 138.249 48.4478L138.246 48.6583L138.246 48.6818C138.222 50.0858 138.196 51.6769 138.793 53.2382C139.503 55.0923 140.883 56.3751 142.099 57.5042C142.583 57.9518 143.036 58.3727 143.429 58.807C144.966 60.5074 145.766 62.9494 145.626 65.5082C145.486 68.0605 144.426 70.3889 142.719 71.8988C142.564 72.0366 142.404 72.1688 142.243 72.301C142.19 72.345 142.136 72.3891 142.083 72.4333C141.306 73.068 140.426 73.7896 139.786 74.8519C138.349 77.2504 138.929 79.826 139.443 82.101C139.816 83.7512 140.166 85.308 139.643 86.3703C139.469 86.7244 139.153 87.1252 138.819 87.5462C138.039 88.5249 137.073 89.7476 137.056 91.4914C137.056 92.3899 137.326 93.1514 137.543 93.7627L137.543 93.763L137.553 93.7924C137.653 94.079 137.747 94.3516 137.786 94.5647C137.879 95.0892 137.586 95.5469 137.326 95.8409C136.706 96.5324 135.653 96.9767 134.763 96.9199C132.709 96.7896 130.756 95.2128 129.106 93.6862L129.066 93.6494L129.057 93.6414C128.265 92.9139 127.184 91.9216 125.666 91.7152C123.113 91.3544 121.466 93.1817 120.266 94.518C119.719 95.126 119.203 95.7005 118.709 96.0146C117.586 96.7294 115.929 96.2785 114.866 95.5602C113.392 94.5631 112.287 92.9135 111.218 91.3192L111.213 91.311C110.596 90.3923 109.353 90.1451 108.436 90.7631C107.519 91.3812 107.273 92.6272 107.889 93.5459L107.908 93.5736L107.908 93.5736C109.13 95.3942 110.514 97.455 112.629 98.8841C115.286 100.678 118.513 100.882 120.853 99.3986C121.808 98.788 122.564 97.9474 123.234 97.203L123.236 97.2005L123.251 97.1842C123.943 96.4142 124.656 95.6208 125.113 95.6872C125.4 95.7236 125.943 96.2225 126.345 96.5923L126.345 96.5924L126.356 96.6025L126.389 96.6326C128.546 98.6336 131.199 100.708 134.503 100.919ZM55.4927 50.7094C55.286 50.7094 55.076 50.676 54.8727 50.6092C53.8227 50.2651 53.2494 49.1327 53.5927 48.0804C54.8727 44.1485 56.326 39.6921 59.0694 35.9941C60.8394 33.6056 62.8827 31.9219 65.896 30.3585C71.2427 27.5892 77.3694 26.42 83.6161 26.9745C87.9061 27.3553 98.136 28.735 100.413 33.3016C100.906 34.2904 100.506 35.4963 99.5194 35.9908C98.5327 36.4852 97.3294 36.0843 96.8361 35.0955C96.0861 33.5922 90.8027 31.638 83.2627 30.9665C77.7727 30.4788 72.4027 31.501 67.7327 33.9196C65.2594 35.199 63.6794 36.4918 62.2794 38.386C59.9264 41.559 58.6398 45.5068 57.3967 49.3212L57.3967 49.3212L57.396 49.3231C57.1194 50.1716 56.336 50.7094 55.4927 50.7094ZM111.619 47.0014C111.835 52.7507 111.401 58.5296 110.328 64.1911C114.167 61.6191 116.64 62.1663 118.736 63.2266C122.616 65.1909 124.293 69.4435 123.113 74.3274C122.213 78.1223 119.836 81.64 116.423 84.2223C114.829 85.4082 113.103 86.3903 111.283 87.1453C110.419 87.5094 109.516 87.8435 108.606 88.1274C108.329 88.2143 108.063 88.2811 107.829 88.3379C107.795 88.3464 107.759 88.3553 107.722 88.3644C107.598 88.3946 107.464 88.4273 107.369 88.4581C105.453 92.4668 104.859 93.9734 105.193 97.902C105.286 99.0044 104.469 99.9732 103.369 100.067C103.309 100.08 103.253 100.083 103.196 100.083C102.169 100.083 101.293 99.295 101.206 98.2461C100.783 93.2151 101.759 90.9135 103.833 86.5841C104.593 85.004 106.029 84.6565 106.889 84.4494C106.929 84.4395 106.968 84.43 107.006 84.4205C107.15 84.3853 107.285 84.352 107.406 84.3124C108.199 84.0619 108.983 83.7746 109.739 83.4539C111.269 82.8192 112.706 82.0008 114.026 81.0186C116.686 79.0042 118.539 76.295 119.226 73.3954C119.579 71.9355 120.059 68.3878 116.936 66.8077C115.573 66.1162 114.236 65.8456 110.573 69.0727C109.743 69.8042 108.479 69.7207 107.749 68.8889C107.216 68.2806 107.117 67.4399 107.427 66.746C106.532 66.3984 105.992 65.4466 106.193 64.476C107.359 58.7836 107.839 52.9509 107.619 47.1417C107.559 45.3277 104.463 41.4994 102.363 40.6308C101.343 40.2066 100.856 39.0374 101.279 38.0118C101.703 36.9896 102.869 36.5019 103.893 36.9261C105.456 37.5742 107.316 39.1008 108.863 41.0083C109.859 42.2377 111.539 44.6462 111.619 47.0014ZM62.8094 62.5719C64.0981 62.5719 65.1427 61.3006 65.1427 59.7324C65.1427 58.1642 64.0981 56.8929 62.8094 56.8929C61.5207 56.8929 60.4761 58.1642 60.4761 59.7324C60.4761 61.3006 61.5207 62.5719 62.8094 62.5719ZM76.4761 60.5174C76.4761 62.0856 75.4314 63.3569 74.1428 63.3569C72.8541 63.3569 71.8094 62.0856 71.8094 60.5174C71.8094 58.9492 72.8541 57.6779 74.1428 57.6779C75.4314 57.6779 76.4761 58.9492 76.4761 60.5174ZM77.7161 101.126C77.7661 102.201 78.6494 103.04 79.7127 103.04C79.7428 103.04 79.7727 103.04 79.8094 103.026C80.9127 102.976 81.7661 102.038 81.7161 100.932C81.5561 97.4844 81.5928 96.7428 81.8061 93.3822C81.8494 92.694 81.5361 92.0326 80.9761 91.6283C80.4161 91.2275 79.6894 91.1406 79.0527 91.4012C75.5394 92.841 71.5627 92.3165 67.1094 91.5382C62.7527 90.7698 59.5628 89.33 57.0694 87.005C52.4061 82.6555 50.2527 75.4164 51.1561 67.1485C51.4294 64.6731 52.5294 59.9395 54.8027 54.0801C55.2027 53.0478 54.6927 51.8853 53.6628 51.4844C52.6327 51.0836 51.4727 51.5947 51.0727 52.6269C49.0227 57.9084 47.5694 63.1732 47.1794 66.7109C46.1394 76.2549 48.7494 84.72 54.3427 89.9414C57.3861 92.7775 61.3361 94.5915 66.4194 95.4901C69.5661 96.0413 73.6461 96.7528 77.6527 95.9778C77.5861 97.5913 77.6094 98.7739 77.7161 101.126Z" fill="black"/>
</g>
<defs>
<clipPath id="clip0_805_38887">
<rect width="180" height="180" rx="24" fill="white"/>
</clipPath>
<clipPath id="clip1_805_38887">
<rect width="200" height="200.436" fill="white" transform="translate(-10 95.2734)"/>
</clipPath>
</defs>
</svg>
