<svg width="180" height="180" viewBox="0 0 180 180" fill="none" xmlns="http://www.w3.org/2000/svg">
<g clip-path="url(#clip0_805_37721)">
<rect width="180" height="180" rx="24" fill="white"/>
<g clip-path="url(#clip1_805_37721)">
<path d="M103.124 95.2734C103.424 98.6474 104.8 106.271 109.924 105.128L110.474 105.963C110.224 111.198 107.577 114.889 103.43 118.714C99.2171 122.539 93.8437 124.838 88.1737 125.242C83.1737 125.609 77.8571 124.41 74.1171 121.049C70.3771 117.689 68.4104 113.032 70.8871 109.04H71.2471C72.3737 109.073 73.4104 108.482 74.3637 107.881C75.5771 107.113 76.6104 103.662 77.3604 102.756C78.3604 101.457 80.2337 96.8302 80.7471 95.2734H103.124V95.2734Z" fill="#FFD39F"/>
<path d="M137.443 188.427C144.826 211.337 149.963 228.909 156.71 251.02C157.043 252.149 158.376 256.141 157.76 257.14C157.346 257.808 156.653 258.236 155.976 258.62C152.276 260.728 148.236 260.905 144.063 261.747L128.573 264.837C106.403 268.822 84.1529 269.798 61.9429 266.043L57.7529 265.552L43.4195 262.803C42.1262 262.555 40.7062 262.225 39.9496 261.132C39.3229 260.237 39.3262 259.058 39.3729 257.965C39.5629 253.623 40.0629 249.313 40.5629 245L44.5062 210.926C46.1962 196.328 47.8896 181.706 50.1929 167.198L50.0329 167.148C46.1562 165.812 42.3396 164.328 38.5196 162.842C37.9929 162.692 37.5196 162.398 37.1462 161.997C36.3962 161.028 37.0396 159.638 37.6829 158.593C43.3629 149.339 48.2196 139.605 52.2029 129.499C55.2429 121.783 58.4162 113.1 65.8362 109.422L81.3429 111.196L110.52 103.289C115.623 104.659 119.81 108.327 123.246 112.352C127.59 117.44 131.033 123.236 133.433 129.486C138.743 143.326 138.746 158.927 145.15 172.296C142.113 173.198 139.03 173.923 135.913 174.474L137.443 188.427Z" fill="black"/>
<path fill-rule="evenodd" clip-rule="evenodd" d="M83.266 123C81.7027 119.93 80.766 116.579 80.516 113.142C88.9427 105.772 97.5327 101.683 106.469 98.6402C107.023 98.4531 107.779 98.3362 108.073 98.844C108.183 99.0945 108.209 99.3751 108.153 99.6457L107.556 104.947C107.276 107.429 106.966 110.002 105.666 112.136C104.293 114.398 101.966 115.888 99.666 117.197C95.156 119.766 90.436 121.951 85.5593 123.725C85.0193 123.922 84.3827 124.106 83.8927 123.805C83.616 123.598 83.3993 123.321 83.266 123ZM75.8693 106.297C75.696 104.279 76.696 102.362 77.666 100.584C78.2493 100.544 77.626 99.4987 76.8527 99.3984C76.0793 99.2982 75.3627 99.816 74.746 100.3C72.2127 102.281 69.746 104.376 67.626 106.795C67.2093 107.139 66.9127 107.603 66.7693 108.124C66.6293 108.645 66.6493 109.196 66.8327 109.704C67.636 113.355 68.9293 116.88 70.676 120.184C70.956 120.715 71.436 121.323 72.0093 121.159C72.2493 121.066 72.456 120.905 72.6093 120.698L76.736 116.021C78.3227 114.227 80.0093 112.173 79.896 109.778C77.946 110.305 76.0427 108.314 75.8693 106.297Z" fill="white"/>
<path fill-rule="evenodd" clip-rule="evenodd" d="M39.3859 257.979C39.5759 253.643 40.0759 249.326 40.5759 245.014L44.5226 210.953C46.1893 196.371 47.8893 181.763 50.1893 167.265L50.0359 167.175C47.3126 166.239 44.6193 165.227 41.9326 164.191L41.7959 164.86L36.8326 224.078C36.6293 226.487 36.3359 229.133 34.4826 230.759C33.7605 231.393 32.8412 231.821 31.9344 232.242C30.5137 232.903 29.124 233.549 28.5726 234.952C27.8647 236.755 28.9842 238.42 30.1354 240.131C30.746 241.039 31.3655 241.96 31.7259 242.923C32.4237 244.767 32.1383 246.813 31.856 248.837C31.5313 251.164 31.2106 253.463 32.3926 255.396C33.7526 257.621 36.5726 258.383 39.1359 258.844L39.3859 257.979ZM124.556 241.306C121.873 219.615 120.223 197.865 119.603 176.05L136.056 175.536C136.858 182.798 137.66 190.061 138.463 197.326C140.385 214.729 142.308 232.139 144.229 249.554C144.733 254.103 145.126 259.114 142.486 262.852C141.473 264.286 140.083 265.411 138.469 266.096C136.856 266.781 135.086 267.005 133.353 266.738C131.619 266.47 129.996 265.725 128.663 264.586C127.329 263.447 126.339 261.961 125.803 260.287C125.608 259.677 125.471 259.042 125.335 258.41C125.051 257.095 124.77 255.79 123.973 254.731C123.133 253.614 121.847 252.951 120.572 252.294C119.113 251.541 117.668 250.796 116.919 249.387C115.883 247.426 116.729 244.86 118.399 243.417C120.069 241.974 122.353 241.443 124.556 241.306Z" fill="#FFD39F"/>
<path fill-rule="evenodd" clip-rule="evenodd" d="M84.4997 125.966C83.9764 125.966 83.4031 125.852 82.8497 125.512C82.7997 125.481 82.7531 125.448 82.7064 125.415C82.1597 125.01 81.7297 124.469 81.4564 123.848C80.3186 121.604 79.4985 119.245 79.0045 116.805C78.7904 117.055 78.5851 117.287 78.3964 117.501L74.3131 122.124C73.9464 122.592 73.4598 122.956 72.9064 123.173C72.8431 123.196 72.7798 123.22 72.7164 123.237C72.5664 123.273 72.3064 123.33 71.9798 123.33C71.1764 123.33 69.9831 122.986 69.0731 121.262C67.5121 118.311 66.298 115.188 65.4518 111.958C59.8821 115.473 57.1109 122.527 54.4264 129.363L54.0764 130.252C50.0631 140.437 45.1231 150.332 39.3998 159.659C39.0198 160.277 38.8898 160.641 38.8464 160.828C38.9198 160.872 38.9998 160.908 39.0864 160.932C39.1464 160.949 39.2031 160.969 39.2598 160.989L39.3398 161.019L39.3934 161.04C42.413 162.214 45.5158 163.421 48.6195 164.535C50.0495 155.778 51.7126 147.054 53.7364 138.446C53.9897 137.371 55.0631 136.699 56.1431 136.956C57.2164 137.21 57.8831 138.289 57.6297 139.368C52.1624 162.627 49.3393 186.848 46.6088 210.275L46.5997 210.353L46.5031 211.188L42.5597 245.262L42.5577 245.28C42.0716 249.48 41.5695 253.82 41.3797 258.083C41.3564 258.614 41.3131 259.61 41.5964 260.011C41.9297 260.485 43.1164 260.725 43.8231 260.866L55.4264 263.091C56.5097 263.298 57.2231 264.35 57.0131 265.436C56.8364 266.391 55.9997 267.059 55.0564 267.059C54.9331 267.059 54.8064 267.046 54.6797 267.022L43.0564 264.794C41.7431 264.53 39.5797 264.093 38.3264 262.309C37.9353 261.75 37.6971 261.158 37.5559 260.56C34.9093 259.973 32.2236 258.931 30.6964 256.433C29.1331 253.884 29.5297 251.041 29.8797 248.536C30.1364 246.708 30.3764 244.981 29.8631 243.618C29.5945 242.895 29.0809 242.128 28.5357 241.313L28.5357 241.313L28.4864 241.24L28.4863 241.24C27.213 239.345 25.6298 236.99 26.7197 234.208C27.5714 232.054 29.5453 231.131 31.1304 230.39L31.1397 230.386C31.9364 230.015 32.6864 229.665 33.1764 229.237C34.3931 228.175 34.6597 226.107 34.8464 223.899L39.7423 165.484C39.1217 165.243 38.504 165.003 37.8898 164.763L37.8831 164.76C37.0464 164.5 36.2898 164.025 35.6931 163.38C35.6531 163.337 35.6164 163.294 35.5798 163.247C34.4398 161.774 34.5798 159.863 35.9931 157.561C41.5931 148.435 46.4264 138.75 50.3564 128.782L50.7031 127.897C53.7164 120.22 57.1331 111.521 64.9631 107.643C64.9957 107.626 65.0285 107.611 65.0615 107.597C65.3276 106.823 65.7693 106.116 66.3464 105.538C68.5798 103.089 71.0498 100.838 73.6931 98.8435C74.3798 98.309 75.6398 97.3302 77.2831 97.5507C78.5764 97.7244 80.4264 99.0272 80.3731 100.681C80.3531 101.282 80.0998 101.813 79.6898 102.187L79.6891 102.189L79.6891 102.189C79.5926 102.355 79.4962 102.522 79.3998 102.692L79.3947 102.701C78.6762 103.947 77.9333 105.237 78.0198 106.28C78.0598 106.764 78.4098 107.312 80.6531 108.013C81.289 108.212 81.7724 108.709 81.9661 109.326C88.7645 103.938 96.2688 99.9936 105.83 96.739C107.893 96.0408 109.236 96.8492 109.806 97.8347C109.843 97.9015 109.876 97.9683 109.906 98.0351C110.17 98.6398 110.246 99.2945 110.133 99.9426L109.973 101.371C110.311 101.274 110.679 101.264 111.043 101.362C115.8 102.638 120.293 105.812 124.773 111.06C129.276 116.335 132.82 122.298 135.306 128.779C137.77 135.203 139.126 142.017 140.436 148.608L140.447 148.661L140.447 148.661L140.447 148.661L140.447 148.661L140.447 148.661L140.447 148.661C142.053 156.736 143.57 164.365 146.96 171.441C147.213 171.972 147.223 172.584 146.983 173.122C146.743 173.659 146.283 174.064 145.723 174.231C143.229 174.964 140.72 175.585 138.198 176.093L139.551 188.458C144.766 204.662 148.886 218.288 153.23 232.655L153.37 233.119C155.043 238.661 156.776 244.39 158.62 250.433C158.66 250.567 158.703 250.71 158.756 250.877C159.88 254.539 160.323 256.79 159.46 258.193C158.8 259.262 157.823 259.874 156.96 260.365C153.859 262.131 150.588 262.669 147.423 263.19L147.416 263.191L147.303 263.209L147.302 263.21C146.365 263.364 145.401 263.523 144.456 263.715C144.4 263.725 144.344 263.733 144.288 263.739C144.226 263.833 144.162 263.927 144.096 264.019C142.866 265.756 141.183 267.113 139.226 267.944C137.806 268.546 136.293 268.85 134.766 268.85C134.183 268.85 133.6 268.806 133.016 268.716C131.354 268.46 129.778 267.841 128.391 266.907C115.216 269.246 102.701 270.416 90.6564 270.416C80.6931 270.416 71.0531 269.618 61.6131 268.021C60.5231 267.838 59.7898 266.802 59.9731 265.713C60.1564 264.621 61.1864 263.882 62.2764 264.069C81.9075 267.388 102.469 267.177 125.037 263.418C124.551 262.629 124.159 261.781 123.873 260.889C123.65 260.181 123.5 259.493 123.36 258.825C123.11 257.649 122.89 256.633 122.36 255.925C121.796 255.18 120.753 254.639 119.646 254.068L119.641 254.065C118.019 253.227 116.182 252.278 115.14 250.316C113.743 247.667 114.58 244.046 117.09 241.888C118.44 240.725 120.196 239.944 122.326 239.553C119.877 219.09 118.327 198.301 117.712 177.707C114.867 177.589 112.016 177.329 109.163 176.927C108.153 176.783 107.413 175.904 107.443 174.885L108.353 142.876C108.383 141.77 109.303 140.888 110.41 140.928C111.513 140.958 112.383 141.884 112.353 142.989L111.493 173.188C121.89 174.431 132.26 173.696 142.373 171C139.427 164.058 137.947 156.614 136.511 149.39L136.51 149.383C135.233 142.956 133.913 136.315 131.57 130.212C129.246 124.159 125.936 118.59 121.73 113.662C117.793 109.052 113.956 106.293 110.006 105.234C109.847 105.191 109.697 105.13 109.559 105.054L109.546 105.167C109.273 107.599 108.93 110.623 107.376 113.175C105.72 115.904 103.04 117.578 100.656 118.934C96.0597 121.553 91.2131 123.794 86.2431 125.602C85.9131 125.729 85.2597 125.966 84.4997 125.966ZM82.6031 113.986C82.9164 116.719 83.6931 119.351 84.9164 121.827C89.6597 120.1 94.2897 117.955 98.6797 115.456C100.626 114.347 102.8 113.008 103.96 111.097C105.054 109.304 105.315 106.985 105.568 104.741V104.741L105.57 104.726L105.996 100.928C96.5631 104.252 89.2664 108.324 82.6031 113.986ZM146.77 259.232C146.555 259.267 146.338 259.302 146.121 259.338C146.919 255.811 146.514 252.099 146.214 249.346L146.213 249.341L141.778 208.808C144.415 217.327 146.868 225.443 149.397 233.81L149.398 233.812L149.54 234.281C151.213 239.827 152.946 245.559 154.786 251.589C154.823 251.712 154.873 251.873 154.93 252.057C155.713 254.615 155.913 255.751 155.92 256.246C155.692 256.47 155.3 256.695 155.027 256.852L154.983 256.877C152.508 258.289 149.734 258.745 146.798 259.227L146.77 259.232ZM135.536 189.043C135.427 188.703 135.412 188.355 135.479 188.027L134.25 176.792C130.097 177.429 125.916 177.76 121.718 177.781C122.351 198.859 123.973 220.136 126.54 241.056C126.606 241.604 126.446 242.155 126.093 242.583C125.74 243.007 125.23 243.267 124.68 243.301C122.47 243.438 120.793 243.986 119.7 244.928C118.61 245.866 118.153 247.44 118.68 248.435C119.131 249.287 120.215 249.848 121.469 250.496L121.483 250.503L121.498 250.511C122.881 251.227 124.447 252.038 125.556 253.51C126.622 254.925 126.969 256.546 127.275 257.979L127.276 257.983L127.295 258.071L127.295 258.071L127.296 258.071L127.296 258.072C127.418 258.64 127.534 259.178 127.69 259.67C128.11 260.983 128.89 262.155 129.94 263.057C130.99 263.956 132.27 264.544 133.633 264.754C135 264.965 136.393 264.791 137.666 264.253C138.94 263.712 140.033 262.83 140.833 261.701C142.996 258.644 142.733 254.318 142.236 249.778L135.618 189.296L135.536 189.043ZM47.9767 168.571C45.8344 182.363 44.2205 196.207 42.6378 209.784L42.6264 209.882L38.5864 244.794L38.5725 244.914C38.1393 248.666 37.6931 252.53 37.4638 256.405C36.0321 255.999 34.7481 255.385 34.1031 254.332C33.2931 253.009 33.5464 251.191 33.8397 249.087L33.8397 249.087L33.8423 249.068C34.1384 246.935 34.4739 244.517 33.6064 242.205C33.1631 241.023 32.4731 239.994 31.8031 238.998C30.7564 237.441 30.1397 236.439 30.4397 235.678C30.7028 235.007 31.6847 234.549 32.8234 234.019L32.8264 234.017C33.7931 233.566 34.8864 233.055 35.8031 232.257C38.1497 230.212 38.5864 227.172 38.8331 224.233L43.6319 166.977C45.0724 167.521 46.5227 168.056 47.9767 168.571ZM68.9231 109.286C68.8831 109.139 68.8631 108.992 68.8698 108.842C68.9398 108.665 69.0498 108.501 69.1898 108.364C69.2198 108.334 69.2464 108.307 69.2731 108.277C70.9331 106.453 72.7331 104.75 74.6464 103.19C74.2131 104.235 73.9398 105.371 74.0431 106.61C74.2631 109.243 76.2231 110.556 77.8631 111.26C77.4398 112.46 76.4331 113.672 75.4064 114.835L72.1598 118.51C70.7231 115.62 69.6464 112.563 68.9531 109.406L68.9231 109.286ZM77.4998 129.347C78.5123 129.347 79.3331 128.524 79.3331 127.509C79.3331 126.494 78.5123 125.672 77.4998 125.672C76.4873 125.672 75.6664 126.494 75.6664 127.509C75.6664 128.524 76.4873 129.347 77.4998 129.347ZM77.9997 140.203C77.9997 141.218 77.1789 142.041 76.1664 142.041C75.1539 142.041 74.3331 141.218 74.3331 140.203C74.3331 139.189 75.1539 138.366 76.1664 138.366C77.1789 138.366 77.9997 139.189 77.9997 140.203Z" fill="black"/>
</g>
<path d="M107.087 65.4556C109.397 62.7297 108.68 58.0094 105.667 56.1019C104.587 55.4138 103.22 54.9862 102.63 53.8504C101.964 52.5977 102.567 51.0977 102.917 49.7281C102.917 49.6847 102.94 49.6379 102.954 49.5945C103.954 45.4655 99.2437 42.4022 95.8137 44.9009C91.5303 48.021 86.6637 50.2459 81.5037 51.4452C78.837 52.0598 75.5604 52.1801 73.9137 49.9953C72.9404 48.6992 72.707 46.7416 70.247 46.9253C69.5304 46.9855 68.8404 47.236 68.247 47.6469C63.8437 50.6234 58.807 52.5175 53.537 53.1823C52.0637 53.366 50.537 53.4495 49.1137 53.0253C45.027 51.8059 43.1703 46.5913 44.4037 42.5024C45.637 38.4135 49.1203 35.3902 52.8003 33.2255C55.0803 31.8893 57.6203 30.66 58.9937 28.3917C59.8003 27.0555 60.117 25.4653 60.927 24.1324C61.737 22.7995 63.0037 21.794 64.2937 20.8854C71.2437 16.0649 79.5537 13.6129 88.0003 13.8835C93.0003 14.0572 98.877 16.0716 99.957 20.9555L107.624 24.1926C113.524 25.1012 119.524 27.0922 123.7 31.3682C127.877 35.6441 129.7 42.6293 126.7 47.8039C126.307 48.472 125.82 49.1802 125.84 49.9686C125.867 50.9708 126.704 51.7592 127.397 52.5008C128.61 53.817 129.534 55.3737 130.104 57.0707C130.674 58.7677 130.88 60.565 130.71 62.3489C130.554 63.8989 130.044 65.5024 128.884 66.5279C127.724 67.5535 125.747 67.764 124.65 66.6616L108.017 69.2171L107.087 65.4556Z" fill="black"/>
<path d="M52.9371 53.3582C50.7871 58.9002 49.4938 63.9044 49.1671 66.9344C48.3438 74.5643 49.8804 83.0427 55.7038 88.4779C58.8071 91.3708 62.6504 92.7939 66.7604 93.5188C71.0471 94.2771 75.6471 94.9686 79.8071 93.2649C79.5871 96.7425 79.5538 99.2246 79.7138 102.705L103.214 100.093C102.834 95.5198 103.68 91.598 105.667 87.4623C106.117 86.527 107.084 86.537 108.04 86.233C108.89 85.9657 109.724 85.6584 110.547 85.311C112.217 84.6161 113.794 83.7175 115.247 82.6385C118.12 80.4638 120.36 77.4105 121.2 73.8694C121.964 70.6591 121.427 66.8375 117.867 65.0302C115.357 63.7608 113.107 64.2118 109.284 67.5791L107.117 65.4678C109.427 62.7419 108.71 58.0217 105.697 56.1142C104.617 55.426 103.25 54.9984 102.66 53.8626C101.994 52.6099 102.597 51.11 102.947 49.7403C102.947 49.6969 102.97 49.6501 102.984 49.6067C103.984 45.4777 99.2738 42.4144 95.8438 44.9132C91.5604 48.0333 86.6938 50.2581 81.5338 51.4574C78.8671 52.0721 75.5904 52.1923 73.9438 50.0076C72.9704 48.7114 72.7371 46.7538 70.2771 46.9376C69.5604 46.9977 68.8704 47.2482 68.2771 47.6591C63.8638 50.6356 58.8138 52.5264 53.5371 53.1845" fill="#FFD39F"/>
<path d="M126.573 69.41C125.323 69.41 124.11 68.9657 123.223 68.0771C122.443 67.2921 122.447 66.0226 123.227 65.2409C124.01 64.4592 125.277 64.4626 126.057 65.2443C126.307 65.4948 127.09 65.4314 127.55 65.0238C128.167 64.4793 128.577 63.4571 128.71 62.1442C128.853 60.6409 128.683 59.1477 128.197 57.7079C127.713 56.2681 126.947 54.9753 125.917 53.8595L125.747 53.6791C124.957 52.844 123.873 51.7015 123.83 50.0212C123.797 48.7351 124.4 47.7295 124.84 46.9946L124.967 46.7842C127.62 42.2042 125.557 36.141 122.26 32.7704C118.983 29.4164 113.953 27.1982 107.31 26.1727C106.217 26.0056 105.47 24.9801 105.637 23.8877C105.803 22.7953 106.827 22.0437 107.917 22.2107C115.437 23.3699 121.223 25.9789 125.12 29.9643C127.483 32.3828 129.16 35.5364 129.84 38.8436C130.577 42.4213 130.073 45.959 128.42 48.8119L128.27 49.0624C128.117 49.3163 127.863 49.7372 127.833 49.911C127.903 50.1348 128.37 50.6258 128.65 50.9232L128.847 51.1303C130.27 52.6736 131.323 54.4508 131.99 56.4285C132.657 58.4061 132.89 60.4606 132.693 62.5384C132.453 64.9035 131.593 66.7977 130.2 68.0303C129.157 68.949 127.847 69.41 126.573 69.41Z" fill="black"/>
<path d="M107.087 67.459C106.63 67.459 106.17 67.302 105.793 66.9813C104.95 66.2631 104.85 65.0003 105.563 64.1552C106.28 63.31 106.59 62.0439 106.397 60.7678C106.203 59.495 105.53 58.3826 104.6 57.7947C104.37 57.6477 104.1 57.504 103.813 57.3504C102.817 56.8192 101.573 56.1544 100.857 54.7748C99.9233 53.0209 100.44 51.1736 100.82 49.8207C100.867 49.6536 100.913 49.4866 100.957 49.3229C100.977 49.216 101.003 49.1191 101.03 49.039C101.357 47.5156 100.313 46.6772 99.9799 46.4533C99.2499 45.9623 98.0833 45.7251 96.9933 46.5168C92.4666 49.814 87.4099 52.1257 81.9599 53.3918C77.5099 54.4173 74.1766 53.659 72.3233 51.197C71.9933 50.7594 71.7499 50.3117 71.5366 49.9175C70.9699 48.8753 70.9499 48.8753 70.3999 48.9187C70.0499 48.9488 69.6966 49.0757 69.3932 49.2862C64.7299 52.4363 59.3433 54.4641 53.7933 55.1623C52.2266 55.3594 50.3799 55.483 48.5499 54.9384C46.3866 54.2937 44.5499 52.737 43.3766 50.5589C41.9766 47.9533 41.6466 44.7229 42.4933 41.9135C43.6999 37.9148 46.8266 34.4071 51.7933 31.4875C52.0999 31.3071 52.4066 31.1334 52.7166 30.9563C54.5933 29.884 56.3633 28.8718 57.2899 27.3418C57.5999 26.8307 57.8399 26.2026 58.0966 25.5379C58.4066 24.7328 58.7266 23.901 59.2266 23.0792C60.2333 21.4189 61.7099 20.2497 63.1499 19.2342C70.4133 14.1965 79.2566 11.5875 88.0699 11.8681C93.6199 12.0619 100.573 14.4404 101.917 20.5103C102.157 21.5926 101.477 22.6616 100.397 22.9021C99.3199 23.1393 98.2499 22.4612 98.0099 21.3788C97.2166 17.791 92.3799 16.0305 87.9366 15.8769C79.9799 15.6163 71.9866 17.9814 65.4366 22.5246C64.3599 23.283 63.2666 24.1348 62.6399 25.1671C62.3266 25.6815 62.0833 26.3129 61.8266 26.981C61.5199 27.7794 61.2033 28.6045 60.7099 29.4196C59.2466 31.8382 56.8299 33.2212 54.6966 34.4372C54.3999 34.6076 54.1066 34.7746 53.8133 34.945C49.7466 37.3368 47.2266 40.0728 46.3199 43.0727C45.7833 44.8565 46.0033 46.9945 46.8966 48.6548C47.3666 49.5267 48.2299 50.6591 49.6866 51.0934C50.8099 51.4275 52.1399 51.3273 53.2933 51.1836C58.2233 50.5623 63.0099 48.7617 67.1333 45.9756C67.9899 45.381 69.0166 45.0102 70.0833 44.92C73.2466 44.6795 74.4199 46.8408 75.0499 48C75.2132 48.3007 75.3666 48.5846 75.5166 48.7817C76.6632 50.305 79.7766 49.7806 81.0599 49.4833C85.9832 48.3408 90.5533 46.2496 94.6433 43.2697C96.9132 41.6162 99.8833 41.556 102.21 43.1161C104.497 44.6494 105.553 47.3753 104.903 50.0545C104.893 50.0946 104.883 50.1313 104.87 50.1714C104.87 50.1748 104.87 50.1781 104.867 50.1781C104.863 50.1881 104.86 50.2015 104.86 50.2115C104.803 50.4353 104.74 50.6625 104.677 50.893C104.47 51.6279 104.217 52.5432 104.403 52.894C104.557 53.1913 105.14 53.502 105.703 53.8026C106.043 53.983 106.393 54.1701 106.75 54.3973C108.67 55.6132 109.987 57.7111 110.36 60.1498C110.733 62.5951 110.1 64.997 108.623 66.7374C108.217 67.2185 107.653 67.459 107.087 67.459ZM104.917 49.7305C104.917 49.7338 104.917 49.7338 104.917 49.7305C104.917 49.7338 104.917 49.7338 104.917 49.7305ZM104.917 49.7271V49.7305V49.7271Z" fill="black"/>
<path d="M62.8099 62.5696C64.0986 62.5696 65.1432 61.2983 65.1432 59.7301C65.1432 58.1619 64.0986 56.8906 62.8099 56.8906C61.5212 56.8906 60.4766 58.1619 60.4766 59.7301C60.4766 61.2983 61.5212 62.5696 62.8099 62.5696Z" fill="black"/>
<path d="M74.1439 63.3548C75.4325 63.3548 76.4772 62.0835 76.4772 60.5153C76.4772 58.9471 75.4325 57.6758 74.1439 57.6758C72.8552 57.6758 71.8105 58.9471 71.8105 60.5153C71.8105 62.0835 72.8552 63.3548 74.1439 63.3548Z" fill="black"/>
<path d="M103.196 100.081C102.17 100.081 101.293 99.2927 101.206 98.2438C100.783 93.2128 101.76 90.9112 103.833 86.5818C104.593 85.0017 106.03 84.6542 106.89 84.4471C107.076 84.4003 107.253 84.3603 107.406 84.3101C108.2 84.0596 108.983 83.7723 109.74 83.4516C111.27 82.8169 112.706 81.9985 114.026 81.0163C116.686 79.0019 118.54 76.2927 119.226 73.3931C119.58 71.9332 120.06 68.3855 116.936 66.8054C115.573 66.1139 114.236 65.8433 110.573 69.0704C109.743 69.8019 108.48 69.7184 107.75 68.8866C107.02 68.0548 107.103 66.7887 107.933 66.0571C113.193 61.4237 116.233 61.9582 118.736 63.2243C122.616 65.1886 124.293 69.4412 123.113 74.3251C122.213 78.12 119.836 81.6377 116.423 84.22C114.83 85.4059 113.103 86.388 111.283 87.143C110.42 87.5071 109.516 87.8412 108.606 88.1251C108.33 88.212 108.063 88.2788 107.83 88.3356C107.683 88.3723 107.493 88.4157 107.37 88.4558C105.453 92.4645 104.86 93.9711 105.193 97.8997C105.286 99.0021 104.47 99.9709 103.37 100.064C103.31 100.078 103.253 100.081 103.196 100.081Z" fill="black"/>
<path d="M79.7126 103.036C78.6493 103.036 77.766 102.197 77.716 101.122C77.6093 98.7698 77.586 97.5873 77.6526 95.9738C73.646 96.7488 69.566 96.0372 66.4193 95.486C61.336 94.5874 57.386 92.7735 54.3426 89.9373C48.7493 84.716 46.1393 76.2509 47.1793 66.7068C47.5693 63.1691 49.0226 57.9043 51.0726 52.6229C51.4726 51.5906 52.6326 51.0795 53.6626 51.4804C54.6926 51.8813 55.2026 53.0438 54.8026 54.076C52.5293 59.9354 51.4293 64.669 51.156 67.1444C50.2526 75.4124 52.406 82.6515 57.0693 87.0009C59.5626 89.326 62.7526 90.7658 67.1093 91.5341C71.5626 92.3125 75.5393 92.8369 79.0526 91.3971C79.6893 91.1366 80.416 91.2234 80.976 91.6243C81.536 92.0285 81.8493 92.69 81.806 93.3781C81.5926 96.7388 81.556 97.4804 81.716 100.928C81.766 102.034 80.9126 102.972 79.8093 103.022C79.7726 103.036 79.7426 103.036 79.7126 103.036Z" fill="black"/>
</g>
<defs>
<clipPath id="clip0_805_37721">
<rect width="180" height="180" rx="24" fill="white"/>
</clipPath>
<clipPath id="clip1_805_37721">
<rect width="200" height="200.436" fill="white" transform="translate(-10 95.2734)"/>
</clipPath>
</defs>
</svg>
