<svg width="180" height="180" viewBox="0 0 180 180" fill="none" xmlns="http://www.w3.org/2000/svg">
<g clip-path="url(#clip0_805_33205)">
<rect width="180" height="180" rx="24" fill="white"/>
<g clip-path="url(#clip1_805_33205)">
<path fill-rule="evenodd" clip-rule="evenodd" d="M109.923 105.128C104.8 106.271 103.423 98.6474 103.123 95.2734H80.75C80.565 95.8343 80.3939 96.8327 80.2039 97.9413C79.8666 99.9098 79.4697 102.226 78.83 103.057C78.7458 103.159 78.6395 103.289 78.5155 103.44C77.5343 104.639 75.4404 107.199 74.3633 107.881C73.41 108.482 72.3733 109.073 71.2466 109.04H70.8866C68.41 113.032 70.3766 117.689 74.1166 121.049C77.8566 124.41 83.1733 125.609 88.1733 125.242C93.8433 124.838 99.2166 122.539 103.43 118.714C107.577 114.889 110.223 111.198 110.473 105.963L109.923 105.128ZM115.213 148.723L115.677 149.251C115.393 173.189 117.854 197.106 120.361 221.473C121.041 228.077 121.724 234.715 122.357 241.394C121.2 241.491 120.1 241.942 119.213 242.691C118.323 243.439 117.687 244.444 117.393 245.57C117.097 246.696 117.16 247.885 117.567 248.974C117.973 250.063 118.71 250.999 119.67 251.653C120.216 252.024 120.82 252.294 121.424 252.564L121.424 252.564C121.963 252.805 122.503 253.047 123.003 253.36C125.359 254.832 126.436 257.559 127.505 260.266C128.642 263.143 129.77 265.999 132.417 267.304C136.207 269.171 140.957 266.322 142.673 262.45C144.39 258.578 143.92 254.139 143.41 249.936C141.233 232.057 136.043 179.687 135.137 168.726C135.137 168.726 130.79 128.212 129.67 123.558C128.55 118.905 124.753 114.923 121.293 111.622L120.547 111.138C118.21 117.061 111.777 142.439 115.213 148.723ZM61.7566 115.243L62.3733 113.326C60.42 113.86 58.9466 115.447 57.7066 117.044C53.85 121.985 51.8133 128.252 50.8533 134.449C50.1638 138.902 49.3817 143.904 48.5372 149.306L48.5371 149.306C44.7231 173.701 39.6374 206.229 36.0733 232.983C34.9966 232.852 33.9033 233.04 32.9266 233.514C31.95 233.988 31.13 234.737 30.5666 235.665C30.0033 236.594 29.7133 237.666 29.74 238.752C29.7633 239.841 30.1 240.897 30.7066 241.799C30.8627 242.027 31.0357 242.246 31.2084 242.465L31.2085 242.465C31.4343 242.75 31.6597 243.035 31.8466 243.342C32.69 244.752 32.6433 246.506 32.5433 248.149L32.5267 248.422C32.3436 251.41 32.1522 254.535 33.43 257.232C34.7466 260.012 38.2666 262.006 40.9633 260.536C42.8433 259.507 43.65 257.269 44.2966 255.224C45.2066 252.525 45.98 249.779 46.61 247C47.3266 243.576 50.2766 228.383 50.5633 224.892L47.89 223.579C47.89 223.579 57.4933 151.679 61.7566 115.243Z" fill="#FFD39F"/>
<path d="M115.214 148.724C111.777 142.44 118.21 117.062 120.544 111.139C120.78 110.684 120.457 110.992 120.404 110.484C120.24 109.706 113.557 105.476 110.564 105.129C109.997 110.808 107.624 114.853 103.427 118.715C99.2136 122.54 93.8402 124.838 88.1702 125.243C83.1702 125.61 77.8536 124.411 74.1136 121.05C70.3736 117.69 68.6136 111.93 71.0902 107.948L64.3336 111.055C63.5302 111.423 62.6669 111.83 62.2102 112.582C61.7536 113.333 61.8769 114.339 61.7769 115.254C57.5002 151.69 46.6702 221.529 47.6369 221.636C69.9969 224.288 98.8902 226.676 120.56 220.543H120.614C118.834 196.491 115.417 172.893 115.704 149.258" fill="black"/>
<path fill-rule="evenodd" clip-rule="evenodd" d="M109.369 103.521C109.776 103.218 110.286 103.082 110.79 103.139C112.936 103.39 115.94 104.983 117.54 105.912C121.326 108.11 122.063 109.146 122.276 109.767C122.313 109.822 122.347 109.88 122.378 109.939C122.483 110.007 122.583 110.085 122.676 110.175C126.61 113.923 130.416 118.085 131.62 123.093C132.753 127.82 136.95 166.855 137.126 168.515C137.126 168.523 137.127 168.531 137.128 168.54C137.129 168.548 137.13 168.557 137.13 168.565C138.07 179.926 143.243 232.01 145.396 249.698L145.397 249.7C145.887 253.742 146.496 258.769 144.503 263.267C143.29 266.007 140.813 268.332 138.04 269.341C137.013 269.701 135.98 269.889 134.973 269.889C133.766 269.889 132.596 269.625 131.533 269.1C128.195 267.454 126.842 264.03 125.645 261.005L125.643 260.999L125.638 260.985C124.66 258.512 123.736 256.177 121.943 255.056C121.567 254.82 121.114 254.617 120.634 254.401L120.606 254.388L120.565 254.369L120.565 254.369L120.564 254.369C119.934 254.086 119.221 253.766 118.546 253.306C117.236 252.414 116.25 251.158 115.693 249.671C115.136 248.185 115.056 246.588 115.46 245.055C115.863 243.521 116.716 242.172 117.93 241.149C118.613 240.575 119.38 240.13 120.203 239.83C119.665 234.238 119.09 228.625 118.527 223.151C108.922 225.529 98.0821 226.394 87.0764 226.394C75.2518 226.394 63.2317 225.394 52.3231 224.189C51.5426 230.145 49.2341 244.222 48.5697 247.403C48.5664 247.413 48.5664 247.426 48.563 247.436C47.9197 250.266 47.1264 253.092 46.1997 255.838C45.6097 257.705 44.6197 260.809 41.923 262.285C41.0197 262.786 40.013 263.034 38.973 263.034C38.2564 263.034 37.523 262.917 36.7964 262.68C34.6064 261.965 32.623 260.207 31.623 258.093C30.1244 254.932 30.3393 251.415 30.5292 248.307L30.5297 248.298L30.5464 248.028C30.633 246.611 30.6664 245.268 30.1297 244.373C30.0253 244.201 29.8614 243.991 29.6851 243.766L29.6397 243.708C29.4564 243.478 29.2497 243.217 29.053 242.93C28.223 241.697 27.7697 240.274 27.7364 238.798C27.703 237.324 28.0897 235.878 28.8564 234.619C29.623 233.359 30.7264 232.354 32.0497 231.709C32.7697 231.358 33.5364 231.124 34.3197 231.011C37.8412 205.108 42.4783 175.35 46.2206 151.334L46.2264 151.297L46.7722 147.791L46.7725 147.79C47.5383 142.873 48.2523 138.288 48.8897 134.143C50.0397 126.674 52.4797 120.504 56.143 115.81C57.2196 114.423 58.5222 112.954 60.2444 112.038C60.3157 111.872 60.4 111.706 60.4997 111.541C61.2826 110.251 62.6071 109.643 63.4872 109.238L63.4997 109.233L70.2564 106.129C71.0182 105.781 71.912 105.943 72.497 106.528C73.8351 105.953 74.8071 105.074 75.5238 104.427L75.5363 104.415L75.6563 104.305C76.943 103.143 77.0797 102.832 77.353 102.207C77.3741 102.158 77.3962 102.109 77.4187 102.058C77.4388 102.013 77.4592 101.967 77.4797 101.92C77.9363 100.911 79.1197 100.464 80.1264 100.921C81.133 101.379 81.5797 102.565 81.123 103.574L81.013 103.821C80.543 104.893 80.1297 105.665 78.333 107.285L78.2163 107.389L78.212 107.393C77.1051 108.395 75.1359 110.179 72.0756 110.861C71.5299 113.655 72.8148 117.194 75.4464 119.562C78.4597 122.271 83.043 123.614 88.023 123.246C93.2264 122.876 98.2197 120.741 102.083 117.233C105.432 114.153 107.341 111.106 108.179 107.387C105.411 106.815 104.377 104.97 103.53 103.453L103.492 103.387C103.254 102.963 103.008 102.526 102.72 102.097C102.103 101.178 102.346 99.9324 103.26 99.3144C104.176 98.6963 105.42 98.9402 106.036 99.8555C106.433 100.443 106.743 100.998 107.016 101.489L107.02 101.496C107.828 102.938 108.083 103.392 109.369 103.521ZM50.7297 219.97C50.8049 219.976 50.8788 219.986 50.9512 220.001C72.2328 222.421 98.1502 224.213 118.113 219.121C115.681 195.443 113.457 172.963 113.671 150.008C113.59 149.91 113.517 149.803 113.453 149.687C111.723 146.527 111.82 139.709 113.743 129.426C115.08 122.278 117.056 114.892 118.366 111.227C117.246 110.332 114.386 108.595 112.2 107.686C111.253 112.46 108.903 116.391 104.776 120.186C100.243 124.302 94.3997 126.804 88.3097 127.238C82.2564 127.679 76.5964 125.969 72.7764 122.538C69.8297 119.889 67.7664 115.643 67.9597 111.588L65.163 112.874L65.147 112.881C64.9267 112.983 64.634 113.118 64.3859 113.258C64.4059 113.815 64.1919 114.348 63.8128 114.735C63.8031 114.966 63.7887 115.216 63.7597 115.469C63.753 115.533 63.743 115.596 63.7297 115.657C57.2197 147.292 50.123 209.273 49.5797 219.843C49.9309 219.884 50.2835 219.924 50.6373 219.965C50.668 219.966 50.6988 219.968 50.7297 219.97ZM49.7297 180.741C51.2338 168.645 55.0338 139.429 59.0747 118.572C55.9591 122.69 53.8653 128.132 52.843 134.758C52.1819 139.059 51.4383 143.835 50.64 148.962L50.1797 151.919C46.3564 176.452 41.5997 206.985 38.0564 233.249C37.9097 234.335 36.9197 235.096 35.8397 234.969C35.1397 234.886 34.4364 235.006 33.803 235.313C33.1697 235.621 32.6397 236.102 32.2764 236.706C31.9097 237.308 31.7264 237.999 31.7397 238.704C31.7564 239.409 31.973 240.09 32.3664 240.675C32.4764 240.835 32.623 241.022 32.7764 241.216L32.8168 241.268L32.8169 241.268C33.0534 241.569 33.3166 241.903 33.553 242.292C34.683 244.183 34.6597 246.281 34.5397 248.265L34.523 248.539C34.353 251.291 34.1797 254.138 35.2364 256.366C35.7764 257.502 36.873 258.484 38.0364 258.861C38.5497 259.028 39.3097 259.149 40.0097 258.768C41.1997 258.116 41.8397 256.356 42.393 254.612C42.3964 254.599 42.3997 254.589 42.4064 254.575C43.2897 251.956 44.0464 249.26 44.6597 246.564C45.3026 243.48 47.5929 229.489 48.3496 223.737C48.0318 223.699 47.7152 223.662 47.3997 223.625C46.8464 223.558 46.3264 223.25 45.9964 222.799C45.453 222.051 45.2297 221.741 46.4864 209.187C47.273 201.329 48.423 191.228 49.7297 180.741ZM117.676 130.165C118.829 123.997 120.359 118.173 121.472 114.592C124.362 117.498 126.913 120.631 127.73 124.028C128.586 127.609 131.646 154.942 133.146 168.916C134.093 180.351 139.27 232.467 141.426 250.176C141.973 254.692 142.28 258.404 140.846 261.634C140.07 263.384 138.433 264.928 136.673 265.566C135.82 265.876 134.543 266.114 133.3 265.502C131.35 264.542 130.39 262.115 129.373 259.542L129.366 259.526L129.365 259.522C128.245 256.687 126.978 253.479 124.066 251.659C123.446 251.271 122.806 250.984 122.24 250.73C121.7 250.49 121.19 250.263 120.793 249.992C120.173 249.568 119.703 248.973 119.44 248.268C119.176 247.563 119.14 246.805 119.33 246.077C119.52 245.348 119.923 244.71 120.5 244.226C121.076 243.742 121.773 243.451 122.523 243.391C123.056 243.347 123.55 243.09 123.893 242.679C124.236 242.268 124.4 241.737 124.35 241.203C123.72 234.556 123.032 227.864 122.366 221.391C122.563 220.969 122.616 220.477 122.48 219.993C122.41 219.748 122.299 219.527 122.154 219.334C119.683 195.275 117.404 172.477 117.68 149.273C117.687 148.628 117.389 148.051 116.921 147.678C116.44 146.709 115.309 142.847 117.676 130.165ZM47.8564 219.643C47.861 219.643 47.8656 219.643 47.8706 219.644C47.8764 219.645 47.8825 219.646 47.8897 219.646C47.8829 219.644 47.877 219.643 47.8716 219.643C47.8662 219.643 47.8613 219.643 47.8564 219.643Z" fill="black"/>
</g>
<path d="M50.493 87.6528C49.9497 88.5548 49.1797 89.2998 48.263 89.8109C47.343 90.322 46.3064 90.5825 45.2564 90.5692C44.2064 90.5525 43.1764 90.2619 42.273 89.724C41.3697 89.1862 40.623 88.4212 40.103 87.5025C39.0864 85.6952 38.6464 83.0629 36.6164 82.6653C34.9297 82.3313 33.553 83.898 32.283 85.0572C30.7664 86.4302 28.7997 87.419 26.7564 87.3689C24.713 87.3188 22.6364 86.0627 22.0097 84.1118C21.113 81.3291 23.2297 78.4629 23.213 75.5432C23.253 74.7548 22.993 73.9831 22.4864 73.3785C21.3097 72.1558 19.2964 72.7738 17.6097 72.6135C14.083 72.2794 11.943 68.0101 12.8097 64.5693C13.6764 61.1285 16.653 58.603 19.8097 56.9995C22.9664 55.3961 26.443 54.4774 29.5864 52.8338C33.483 50.786 36.7397 47.6993 38.9997 43.9144C40.7597 40.9647 41.8697 37.6508 43.7364 34.7679C47.0697 29.6367 52.5464 26.2627 58.243 24.0546C63.9397 21.8465 69.9664 20.6539 75.7997 18.8466C80.1797 17.4903 84.623 15.7666 89.1864 16.1741C92.2097 16.4447 95.393 17.9346 96.5197 20.7541L104.336 23.5101C113.576 23.8842 122.42 29.5699 126.61 37.8345C128.05 40.6674 129.003 43.8142 131.07 46.2261C133.903 49.5333 138.736 51.3907 139.896 55.5798C141.433 61.1085 135.496 66.0425 135.13 71.7683C134.923 74.9853 136.463 78.513 134.796 81.269C133.353 83.6475 130.13 84.2922 128.3 86.3901C126.116 88.8889 126.19 93.1214 123.37 94.8652C122.26 95.55 117.966 96.3584 116.786 95.8139C111.946 93.5857 111.436 96.5923 107.343 96.9798" fill="black"/>
<path d="M103.213 100.093C102.833 95.5202 103.68 91.5983 105.667 87.4627C106.117 86.5273 107.083 86.5373 108.04 86.2333C108.89 85.9661 109.723 85.6587 110.547 85.3113C112.217 84.6165 113.793 83.7179 115.247 82.6388C118.12 80.4641 120.36 77.4108 121.2 73.8698C121.963 70.6595 121.427 66.8378 117.867 65.0306C115.357 63.7611 113.107 64.2121 109.283 67.5794L106.313 66.8278C102.52 66.5973 99.53 63.2701 98.2866 59.6756C97.0433 56.0811 97.1233 52.1826 96.8466 48.3877C96.7233 46.694 96.4566 44.86 95.2333 43.6841C93.9 42.408 91.87 42.3112 90.03 42.2844L87.0966 41.2823C85.9666 40.0563 84.5833 39.0908 83.0466 38.4461C81.51 37.8047 79.8533 37.5007 78.1866 37.5575C76.5233 37.6143 74.89 38.0285 73.4 38.7735C71.91 39.5184 70.5966 40.5774 69.55 41.8769C68.3 43.4303 67.3566 45.3845 65.55 46.2364C63.7433 47.0882 61.6933 46.5938 59.73 46.6306C57.7666 46.6673 55.4266 47.733 55.3766 49.6972L52.9566 53.3719C50.8066 58.9139 49.5133 63.9181 49.1866 66.9481C48.3633 74.578 49.9 83.0564 55.7233 88.4916C58.8266 91.3845 62.67 92.8076 66.78 93.5325C71.0666 94.2908 75.6666 94.9823 79.8266 93.2786C79.6066 96.7562 79.5733 99.2383 79.7333 102.719" fill="#FFD39F"/>
<path d="M45.343 92.5836C45.303 92.5836 45.2663 92.5836 45.2263 92.5836C43.8296 92.5635 42.453 92.176 41.2496 91.4578C40.0463 90.7429 39.0496 89.7207 38.3596 88.5014C38.033 87.9201 37.7763 87.3155 37.5263 86.7342C37.1263 85.7955 36.6763 84.7332 36.2296 84.6463C35.763 84.5528 34.773 85.4848 34.1163 86.0995C33.9496 86.2565 33.7863 86.4102 33.623 86.5572C31.5296 88.4379 29.0796 89.4401 26.7063 89.3866C23.673 89.3165 20.9596 87.4057 20.103 84.7399C19.3863 82.5217 20.0163 80.4338 20.573 78.5898C20.8996 77.5008 21.2096 76.4752 21.2096 75.5566C21.2096 75.5232 21.2096 75.4864 21.213 75.453C21.2263 75.2025 21.153 74.9586 21.0096 74.7548C20.7496 74.5744 19.8863 74.6112 19.2496 74.6346C18.663 74.6579 18.0563 74.6813 17.4196 74.6212C15.403 74.4308 13.5863 73.3317 12.3063 71.5211C10.8063 69.3998 10.2563 66.557 10.8696 64.0983C11.7496 60.5606 14.603 57.4071 18.9063 55.2257C20.533 54.4006 22.2196 53.7525 23.8496 53.1278C25.5463 52.4764 27.1463 51.8617 28.6596 51.07C32.2363 49.1926 35.2263 46.3631 37.303 42.8889C38.063 41.6161 38.6963 40.2632 39.3663 38.8301C40.1696 37.1197 40.9963 35.3492 42.0763 33.6789C45.243 28.7949 50.4463 24.9298 57.5396 22.1872C61.1896 20.7775 64.983 19.7653 68.6496 18.7831C70.8196 18.2019 73.063 17.6039 75.2263 16.9325C75.8263 16.7454 76.4263 16.555 77.0263 16.3612C80.9696 15.0951 85.0463 13.789 89.383 14.1798C92.723 14.4805 96.8463 16.1708 98.3929 20.0058C98.8063 21.0314 98.3129 22.2006 97.2863 22.6148C96.2629 23.029 95.0963 22.5346 94.6829 21.5057C93.8096 19.341 91.0896 18.3589 89.023 18.1718C85.493 17.8545 81.973 18.9836 78.243 20.1795C77.6296 20.3766 77.0163 20.5737 76.4063 20.7641C74.1696 21.4556 71.8863 22.067 69.6796 22.6582C66.113 23.6103 62.4263 24.5958 58.9796 25.9287C52.6863 28.3606 48.1263 31.7046 45.4296 35.8636C44.4996 37.3001 43.763 38.8701 42.9863 40.5338C42.303 41.9903 41.5963 43.5002 40.733 44.9467C38.2796 49.0556 34.743 52.4029 30.5096 54.6244C28.7896 55.523 27.003 56.2078 25.2763 56.8726C23.6696 57.4873 22.153 58.0719 20.7096 58.8035C18.8263 59.7589 15.5496 61.8434 14.7463 65.0704C14.413 66.4067 14.7363 68.0302 15.5663 69.2061C15.9863 69.8007 16.7163 70.5323 17.793 70.6325C18.163 70.6693 18.613 70.6492 19.0896 70.6325C20.5196 70.5757 22.4763 70.4989 23.923 72.0022C23.953 72.0356 23.983 72.0657 24.013 72.1024C24.8396 73.0845 25.263 74.3272 25.2096 75.61C25.1996 77.1033 24.7763 78.5097 24.3996 79.7524C23.9563 81.2189 23.5763 82.4816 23.9096 83.5105C24.243 84.5461 25.483 85.3512 26.7996 85.3813C28.1563 85.4046 29.6196 84.7733 30.9463 83.5807C31.0863 83.4537 31.2363 83.3134 31.3896 83.1698C32.7163 81.9271 34.5363 80.2234 37.0063 80.7145C39.5296 81.2089 40.4996 83.4938 41.2096 85.1641C41.4263 85.6685 41.6263 86.1463 41.8463 86.5338C42.1896 87.1451 42.6896 87.6562 43.293 88.0136C43.8963 88.3711 44.583 88.5682 45.283 88.5782C45.9863 88.5882 46.6763 88.4145 47.2896 88.0738C47.903 87.733 48.4163 87.2353 48.7796 86.634C49.3496 85.6853 50.5796 85.3813 51.5263 85.9525C52.473 86.5237 52.7763 87.7564 52.2063 88.7052C51.483 89.9044 50.4563 90.8966 49.233 91.5781C48.043 92.2362 46.6996 92.5836 45.343 92.5836Z" fill="black"/>
<path d="M107.359 98.9878C106.339 98.9878 105.469 98.2095 105.369 97.1705C105.265 96.0681 106.072 95.0894 107.172 94.9858C108.332 94.8756 109.092 94.5014 109.972 94.0638C111.729 93.1952 113.715 92.2097 117.572 93.9636C118.462 94.1506 121.625 93.566 122.345 93.1551C123.355 92.5305 123.869 91.1508 124.465 89.5573C125.012 88.0908 125.632 86.4272 126.815 85.0709C127.852 83.885 129.169 83.1066 130.335 82.4252C131.539 81.7169 132.579 81.1056 133.109 80.2304C133.822 79.0478 133.619 77.4076 133.385 75.5068C133.232 74.2607 133.072 72.9713 133.155 71.6417C133.342 68.7321 134.662 66.1832 135.939 63.7178C137.392 60.9117 138.649 58.4864 137.992 56.1213C137.435 54.1069 135.615 52.6905 133.509 51.0536C132.149 49.9947 130.745 48.9023 129.572 47.536C127.939 45.6318 126.965 43.4204 126.019 41.2824C125.629 40.3971 125.259 39.5586 124.845 38.7469C121.005 31.1737 112.739 25.8588 104.272 25.5148C103.169 25.4713 102.309 24.536 102.355 23.4302C102.399 22.3245 103.339 21.466 104.435 21.5094C114.455 21.9136 123.869 27.9668 128.412 36.9296C128.872 37.8349 129.282 38.7636 129.679 39.6588C130.542 41.6164 131.359 43.4671 132.609 44.9236C133.515 45.9826 134.705 46.9079 135.962 47.8867C138.292 49.7007 140.932 51.7551 141.845 55.0456C142.925 58.9307 141.099 62.4551 139.489 65.5652C138.352 67.7599 137.279 69.8311 137.145 71.8989C137.085 72.851 137.215 73.9 137.352 75.0124C137.639 77.3207 137.962 79.9364 136.525 82.3082C135.469 84.052 133.815 85.0241 132.355 85.8793C131.365 86.4606 130.432 87.0084 129.822 87.71C129.119 88.515 128.679 89.701 128.209 90.957C127.465 92.9547 126.622 95.2196 124.435 96.5726C122.992 97.4612 117.959 98.5569 115.965 97.6349C113.799 96.636 113.155 96.9567 111.742 97.6583C110.719 98.166 109.442 98.7974 107.549 98.9778C107.485 98.9845 107.422 98.9878 107.359 98.9878ZM117.639 93.9936C117.639 93.997 117.639 93.997 117.639 93.9936C117.639 93.997 117.639 93.997 117.639 93.9936Z" fill="black"/>
<path d="M55.3457 51.7033C55.3291 51.7033 55.3124 51.7033 55.2924 51.7033C54.1891 51.6766 53.3157 50.7546 53.3424 49.6489C53.4224 46.4653 56.6557 44.6847 59.6591 44.628C60.2924 44.6146 60.9024 44.6513 61.4924 44.6847C62.7457 44.7582 63.8291 44.8184 64.6657 44.4242C65.5157 44.0233 66.1757 43.0913 66.9357 42.0089C67.2591 41.5513 67.5891 41.0802 67.9624 40.6192C69.1957 39.0859 70.7157 37.8633 72.4757 36.9813C74.2357 36.1028 76.1257 35.6217 78.0891 35.5549C80.0557 35.4881 81.9724 35.8389 83.7857 36.5972C85.5991 37.3555 87.1991 38.4746 88.5324 39.9211C89.2824 40.7328 89.2324 42.0022 88.4224 42.7539C87.6124 43.5055 86.3457 43.4554 85.5957 42.6436C84.6524 41.6214 83.5257 40.833 82.2424 40.2985C80.9624 39.764 79.6057 39.5135 78.2224 39.5636C76.8357 39.6104 75.5024 39.9478 74.2591 40.5691C73.0157 41.1905 71.9457 42.0557 71.0724 43.138C70.7824 43.4988 70.4991 43.8997 70.2024 44.324C69.2524 45.6736 68.1757 47.2002 66.3691 48.0521C64.6157 48.8805 62.8357 48.777 61.2657 48.6868C60.7257 48.6567 60.2157 48.6266 59.7357 48.6367C58.4857 48.6601 57.3557 49.2781 57.3457 49.7491C57.3191 50.8381 56.4291 51.7033 55.3457 51.7033Z" fill="black"/>
<path d="M106.286 68.8179C106.246 68.8179 106.202 68.8179 106.162 68.8146C102.932 68.6175 98.4255 66.2757 96.3655 60.3194C95.2922 57.216 95.1255 54.0157 94.9622 50.919C94.9222 50.1273 94.8788 49.3122 94.8222 48.5205C94.7222 47.1575 94.5322 45.8046 93.8188 45.1164C93.0522 44.3781 91.5589 44.298 89.9722 44.2746C88.8689 44.2579 87.9855 43.3492 88.0022 42.2402C88.0189 41.1344 88.9289 40.2492 90.0322 40.2659C91.8589 40.2926 94.6222 40.3327 96.5888 42.2234C98.2822 43.8537 98.6655 46.172 98.8155 48.2298C98.8755 49.0583 98.9189 49.8968 98.9622 50.7086C99.1155 53.655 99.2622 56.441 100.149 59.0066C101.102 61.7659 103.409 64.6322 106.406 64.8159C107.509 64.8827 108.349 65.8314 108.282 66.9372C108.216 67.9995 107.332 68.8179 106.286 68.8179Z" fill="black"/>
<path d="M62.8099 62.5696C64.0986 62.5696 65.1432 61.2983 65.1432 59.7301C65.1432 58.1619 64.0986 56.8906 62.8099 56.8906C61.5212 56.8906 60.4766 58.1619 60.4766 59.7301C60.4766 61.2983 61.5212 62.5696 62.8099 62.5696Z" fill="black"/>
<path d="M74.1439 63.3548C75.4325 63.3548 76.4772 62.0835 76.4772 60.5153C76.4772 58.9471 75.4325 57.6758 74.1439 57.6758C72.8552 57.6758 71.8105 58.9471 71.8105 60.5153C71.8105 62.0835 72.8552 63.3548 74.1439 63.3548Z" fill="black"/>
<path d="M103.196 100.081C102.17 100.081 101.293 99.2927 101.206 98.2438C100.783 93.2128 101.76 90.9112 103.833 86.5818C104.593 85.0017 106.03 84.6542 106.89 84.4471C107.076 84.4003 107.253 84.3603 107.406 84.3101C108.2 84.0596 108.983 83.7723 109.74 83.4516C111.27 82.8169 112.706 81.9985 114.026 81.0163C116.686 79.0019 118.54 76.2927 119.226 73.3931C119.58 71.9332 120.06 68.3855 116.936 66.8054C115.573 66.1139 114.236 65.8433 110.573 69.0704C109.743 69.8019 108.48 69.7184 107.75 68.8866C107.02 68.0548 107.103 66.7887 107.933 66.0571C113.193 61.4237 116.233 61.9582 118.736 63.2243C122.616 65.1886 124.293 69.4412 123.113 74.3251C122.213 78.12 119.836 81.6377 116.423 84.22C114.83 85.4059 113.103 86.388 111.283 87.143C110.42 87.5071 109.516 87.8412 108.606 88.1251C108.33 88.212 108.063 88.2788 107.83 88.3356C107.683 88.3723 107.493 88.4157 107.37 88.4558C105.453 92.4645 104.86 93.9711 105.193 97.8997C105.286 99.0021 104.47 99.9709 103.37 100.064C103.31 100.078 103.253 100.081 103.196 100.081Z" fill="black"/>
<path d="M79.7126 103.036C78.6493 103.036 77.766 102.197 77.716 101.122C77.6093 98.7698 77.586 97.5873 77.6526 95.9738C73.646 96.7488 69.566 96.0372 66.4193 95.486C61.336 94.5874 57.386 92.7735 54.3426 89.9373C48.7493 84.716 46.1393 76.2509 47.1793 66.7068C47.5693 63.1691 49.0226 57.9043 51.0726 52.6229C51.4726 51.5906 52.6326 51.0795 53.6626 51.4804C54.6926 51.8813 55.2026 53.0438 54.8026 54.076C52.5293 59.9354 51.4293 64.669 51.156 67.1444C50.2526 75.4124 52.406 82.6515 57.0693 87.0009C59.5626 89.326 62.7526 90.7658 67.1093 91.5341C71.5626 92.3125 75.5393 92.8369 79.0526 91.3971C79.6893 91.1366 80.416 91.2234 80.976 91.6243C81.536 92.0285 81.8493 92.69 81.806 93.3781C81.5926 96.7388 81.556 97.4804 81.716 100.928C81.766 102.034 80.9126 102.972 79.8093 103.022C79.7726 103.036 79.7426 103.036 79.7126 103.036Z" fill="black"/>
</g>
<defs>
<clipPath id="clip0_805_33205">
<rect width="180" height="180" rx="24" fill="white"/>
</clipPath>
<clipPath id="clip1_805_33205">
<rect width="200" height="200.436" fill="white" transform="translate(-10 95.2734)"/>
</clipPath>
</defs>
</svg>
