<svg width="180" height="180" viewBox="0 0 180 180" fill="none" xmlns="http://www.w3.org/2000/svg">
<g clip-path="url(#clip0_805_38666)">
<rect width="180" height="180" rx="24" fill="white"/>
<g clip-path="url(#clip1_805_38666)">
<path fill-rule="evenodd" clip-rule="evenodd" d="M103.123 95.2734C103.423 98.6474 104.8 106.271 109.923 105.128L110.473 105.963C110.223 111.198 107.577 114.889 103.43 118.714C99.2167 122.539 93.8433 124.838 88.1733 125.242C83.1733 125.609 77.8567 124.41 74.1167 121.049C70.3767 117.689 68.41 113.032 70.8867 109.04H71.2467C72.3733 109.073 73.41 108.482 74.3633 107.881C75.4405 107.199 77.5343 104.639 78.5155 103.44C78.6395 103.289 78.7458 103.159 78.83 103.057C79.4697 102.226 79.8666 99.9098 80.2039 97.9413C80.3939 96.8327 80.565 95.8343 80.75 95.2734H103.123ZM132.363 136.42C131.637 137.595 130.85 138.731 130.01 139.827C127.133 143.548 123.383 146.745 118.9 148.178L118.253 149.207C117.893 179.633 119.39 210.083 122.357 241.408C121.203 241.505 120.11 241.959 119.223 242.707C118.337 243.456 117.703 244.458 117.41 245.58C117.117 246.703 117.173 247.889 117.58 248.974C117.983 250.06 118.713 250.995 119.67 251.65C120.216 252.021 120.82 252.291 121.424 252.561C121.963 252.802 122.503 253.044 123.003 253.357C125.359 254.829 126.436 257.555 127.505 260.262C128.642 263.14 129.77 265.996 132.417 267.301C136.207 269.168 140.957 266.319 142.673 262.447C144.39 258.575 143.92 254.135 143.41 249.933C141.233 232.054 136.043 179.684 135.137 168.723L132.587 137.899L132.363 136.42ZM47.9697 139.644C48.0908 138.87 48.2121 138.096 48.3333 137.322L48.53 136.667C50.67 138.621 52.3166 141.053 53.3333 143.769L49.5633 216.113L47.8966 236.584L47.8886 236.682C47.6046 240.14 47.3199 243.608 46.61 247C45.98 249.779 45.2066 252.525 44.2966 255.225C43.65 257.269 42.8433 259.507 40.9633 260.536C38.2666 262.006 34.7466 260.012 33.43 257.232C32.1522 254.535 32.3436 251.41 32.5267 248.422C32.5322 248.331 32.5378 248.24 32.5433 248.149C32.6433 246.506 32.69 244.752 31.8466 243.342C31.6597 243.035 31.4342 242.75 31.2085 242.465C31.0357 242.246 30.8627 242.027 30.7066 241.799C30.1 240.897 29.7633 239.841 29.74 238.752C29.7133 237.666 30.0033 236.594 30.5666 235.665C31.13 234.737 31.95 233.988 32.9266 233.514C33.9033 233.04 34.9966 232.853 36.0733 232.983C38.4113 200.675 43.1411 170.475 47.9697 139.644Z" fill="#FFD39F"/>
<path fill-rule="evenodd" clip-rule="evenodd" d="M44.5729 133.916C48.6096 136 51.7329 139.511 53.3329 143.77L53.8729 145.721C51.5696 166.293 48.0296 186.707 43.2729 206.854C41.0162 209.497 42.2629 214.257 45.5229 215.45C47.6068 216.214 49.8228 215.632 52.0243 215.054C52.728 214.869 53.4303 214.684 54.1262 214.544C58.4765 213.678 62.8834 214.583 67.2952 215.489C71.5746 216.367 75.8585 217.247 80.0996 216.512C81.3758 216.291 82.6214 215.925 83.8667 215.559C85.2529 215.152 86.6388 214.745 88.0662 214.538C92.4637 213.901 96.8099 215.178 101.12 216.445C102.191 216.759 103.26 217.073 104.326 217.357C109.686 218.784 115.973 219.275 120.233 215.717L120.25 215.53C118.72 193.201 118.01 171.207 118.27 149.222L118.916 148.193C123.4 146.76 127.15 143.567 130.026 139.842C132.903 136.117 134.996 131.861 137.07 127.635C132.763 125.925 129.533 122.294 126.83 118.512C126.17 117.59 125.53 116.65 124.889 115.711C122.906 112.801 120.923 109.893 118.373 107.488C115 104.308 110.313 102.076 105.776 103.012C105.086 106.653 102.173 108.992 99.1729 110.575C93.5329 113.525 87.1096 114.627 80.8096 113.728C79.3129 113.508 77.8029 113.164 76.5129 112.369C75.2229 111.574 74.1829 110.258 74.0429 108.748C73.8296 106.586 75.4196 104.716 76.3762 103.663C66.3829 107.301 57.9429 114.28 52.4796 123.423C52.0679 124.117 51.6685 124.829 51.2677 125.543C49.4682 128.75 47.6426 132.003 44.5729 133.916ZM144.5 208.311C144.5 208.311 141.326 200.183 137.36 191.975L139.413 211.401C140.413 213.218 143.553 213.145 144.463 211.277C144.81 210.322 144.823 209.276 144.5 208.311Z" fill="black"/>
<path fill-rule="evenodd" clip-rule="evenodd" d="M118.31 146.281C117.65 146.493 117.174 147.016 116.996 147.638C116.553 148 116.267 148.549 116.26 149.167C116.01 170.323 116.64 191.958 118.182 214.725C115.155 216.74 110.664 216.972 104.81 215.414C103.855 215.16 102.87 214.872 101.911 214.591L101.653 214.516C97.193 213.203 92.5797 211.847 87.7497 212.548C86.1797 212.775 84.703 213.21 83.273 213.631C82.0497 213.991 80.893 214.332 79.7297 214.533C75.8678 215.2 71.8927 214.383 67.6877 213.518L67.683 213.517C63.1464 212.582 58.4564 211.616 53.7064 212.572C52.9553 212.72 52.214 212.914 51.4954 213.103L51.495 213.103L51.4948 213.103L51.4942 213.103L51.4697 213.109L51.4571 213.113C49.5051 213.623 47.6632 214.104 46.1797 213.56C45.2664 213.223 44.5397 212.331 44.2364 211.172C43.9364 210.016 44.133 208.887 44.763 208.149C44.9697 207.905 45.1164 207.618 45.1897 207.307C50.573 184.537 54.4297 161.18 56.6564 137.886C56.763 136.787 55.9564 135.808 54.8564 135.701C53.7597 135.598 52.783 136.403 52.6764 137.505C52.6532 137.748 52.6299 137.99 52.6064 138.233C51.3398 136.492 49.8028 134.961 48.0464 133.697C50.1412 131.641 51.5939 129.051 53.0094 126.528L53.0131 126.521C53.4164 125.796 53.7997 125.115 54.1964 124.447C58.2797 117.612 64.3831 112.12 72.0231 108.355C72.0231 108.539 72.0331 108.729 72.0531 108.926C72.2397 110.947 73.5164 112.868 75.4664 114.071C77.1497 115.11 79.053 115.491 80.5297 115.708C87.283 116.673 94.0497 115.511 100.106 112.344C103.896 110.346 106.33 107.817 107.363 104.817C110.49 104.63 114.01 106.12 117.006 108.946C119.396 111.201 121.263 113.937 123.24 116.837L123.391 117.059C123.98 117.922 124.586 118.809 125.206 119.676C127.38 122.72 130.323 126.344 134.38 128.572C132.65 132.057 130.803 135.561 128.446 138.611C126.373 141.293 122.933 144.804 118.31 146.281ZM111.683 220.439C114.246 220.439 116.518 219.997 118.489 219.116C118.981 225.912 119.553 232.812 120.206 239.831C119.383 240.132 118.613 240.576 117.93 241.15C116.716 242.173 115.863 243.522 115.46 245.056C115.056 246.589 115.136 248.186 115.693 249.672C116.25 251.159 117.236 252.415 118.546 253.307C119.221 253.768 119.935 254.088 120.565 254.37L120.565 254.371L120.606 254.389L120.635 254.402L120.635 254.402C121.115 254.618 121.567 254.822 121.943 255.057C123.736 256.178 124.66 258.513 125.638 260.986L125.643 261L125.645 261.007C126.842 264.032 128.195 267.455 131.533 269.101C132.596 269.626 133.766 269.89 134.973 269.89C135.98 269.89 137.013 269.703 138.046 269.328C140.82 268.32 143.296 265.994 144.51 263.255C146.503 258.756 145.893 253.73 145.403 249.688L145.403 249.686C144.498 242.249 143.058 228.731 141.624 214.717C141.711 214.721 141.799 214.723 141.886 214.723H142.023C143.886 214.676 145.51 213.691 146.26 212.154C146.29 212.091 146.32 212.027 146.343 211.96C146.843 210.584 146.86 209.061 146.396 207.671C146.393 207.659 146.389 207.647 146.385 207.636C146.382 207.625 146.378 207.613 146.373 207.602C146.37 207.594 146.367 207.586 146.363 207.577L146.355 207.558C146.178 207.107 143.085 199.257 139.282 191.353C138.267 181.009 137.456 172.421 137.136 168.553L134.586 137.729C134.564 137.468 134.493 137.223 134.383 137.002C136.05 134.257 137.458 131.39 138.835 128.586L138.835 128.586L138.866 128.522C139.113 128.018 139.136 127.437 138.936 126.915C138.733 126.394 138.326 125.98 137.806 125.773C133.69 124.136 130.646 120.408 128.456 117.345C127.81 116.439 127.163 115.494 126.54 114.579C124.53 111.629 122.45 108.579 119.743 106.027C115.413 101.944 110.043 100.084 105.373 101.046C104.576 101.21 103.96 101.838 103.81 102.636C103.353 105.045 101.53 107.062 98.2464 108.796C92.943 111.565 87.0097 112.588 81.0997 111.742C79.943 111.572 78.6164 111.308 77.5597 110.657C76.6897 110.119 76.1031 109.314 76.0331 108.546C75.9564 107.744 76.3997 107.196 77.3597 106.22C77.5497 106.027 77.7331 105.84 77.8997 105.656C78.5197 104.974 78.593 103.956 78.083 103.191C77.573 102.426 76.6064 102.108 75.7397 102.422C64.833 106.394 56.1964 113.296 50.7631 122.392C50.3397 123.107 49.9264 123.842 49.5264 124.554C47.7931 127.647 46.1531 130.567 43.5197 132.207C42.9064 132.588 42.5464 133.269 42.5764 133.991C42.6064 134.712 43.0197 135.36 43.6597 135.691C44.5983 136.176 45.4804 136.746 46.297 137.391L45.993 139.336C41.1597 170.176 36.593 199.34 34.2097 231.032C33.463 231.152 32.7364 231.379 32.0497 231.713C30.7264 232.358 29.623 233.363 28.8564 234.623C28.0897 235.882 27.703 237.329 27.7364 238.802C27.7697 240.279 28.223 241.702 29.053 242.934C29.2497 243.218 29.4564 243.482 29.6397 243.713L29.6493 243.725C29.8391 243.964 30.0182 244.19 30.1297 244.374C30.6664 245.269 30.633 246.612 30.5464 248.029L30.5297 248.299L30.5292 248.308C30.3393 251.416 30.1244 254.933 31.623 258.094C32.623 260.208 34.6064 261.966 36.7964 262.681C37.523 262.918 38.2564 263.035 38.973 263.035C40.013 263.035 41.0197 262.787 41.923 262.293C44.6197 260.816 45.6097 257.713 46.1997 255.846C47.1264 253.1 47.9197 250.274 48.563 247.444C48.5647 247.439 48.5655 247.433 48.5664 247.427C48.5672 247.422 48.568 247.416 48.5697 247.411C49.303 243.896 49.5997 240.312 49.883 236.844L51.4771 217.25C51.8181 217.165 52.1536 217.077 52.483 216.991C53.183 216.807 53.843 216.637 54.493 216.507C58.4497 215.712 62.543 216.554 66.8797 217.446C71.2664 218.351 75.803 219.283 80.413 218.484C81.7755 218.248 83.0768 217.867 84.3328 217.499L84.3997 217.479L84.4503 217.464C85.7882 217.072 87.0524 216.702 88.323 216.517C92.2864 215.942 96.2897 217.118 100.526 218.364L100.697 218.414C101.707 218.709 102.751 219.014 103.783 219.29C106.66 220.055 109.296 220.439 111.683 220.439ZM47.4184 217.809C46.5575 217.787 45.6855 217.647 44.813 217.329C42.663 216.54 41.003 214.619 40.3697 212.191C40.2152 211.598 40.1287 211.001 40.1079 210.414C39.3152 217.876 38.6266 225.428 38.0697 233.13C38.0297 233.677 37.7697 234.182 37.3464 234.529C36.9264 234.877 36.3797 235.04 35.8364 234.974C35.1364 234.89 34.433 235.01 33.7997 235.318C33.1664 235.625 32.6364 236.106 32.273 236.711C31.9064 237.312 31.723 238.004 31.7364 238.708C31.753 239.413 31.9697 240.095 32.363 240.679C32.473 240.84 32.6197 241.027 32.773 241.221L32.8136 241.272C33.0501 241.573 33.3133 241.908 33.5497 242.296C34.6797 244.187 34.6564 246.285 34.5364 248.269L34.5197 248.543C34.3497 251.296 34.1764 254.142 35.233 256.37C35.773 257.506 36.8697 258.488 38.033 258.866C38.5464 259.033 39.3064 259.153 40.0064 258.772C41.1964 258.121 41.8364 256.36 42.3897 254.616C42.393 254.603 42.3964 254.593 42.403 254.58C43.2864 251.961 44.043 249.268 44.6564 246.569C45.3397 243.302 45.623 239.851 45.8964 236.514L47.4184 217.809ZM40.3428 208.233C42.808 185.648 46.2054 163.838 49.76 141.146C50.4466 142.177 51.0193 143.291 51.4631 144.47C51.5611 144.731 51.7074 144.959 51.8878 145.148C49.6233 165.575 46.1031 185.992 41.3997 205.961C40.9117 206.64 40.5567 207.41 40.3428 208.233ZM141.923 210.714C141.605 210.723 141.313 210.623 141.192 210.473C140.968 208.27 140.746 206.069 140.527 203.891C141.709 206.689 142.483 208.649 142.616 208.987C142.766 209.462 142.77 209.976 142.626 210.454C142.506 210.601 142.226 210.708 141.923 210.714ZM120.252 149.855C124.13 148.445 127.787 145.728 130.92 141.933L133.15 168.887C134.09 180.271 139.273 232.452 141.43 250.173C141.976 254.69 142.283 258.401 140.85 261.632C140.073 263.382 138.436 264.925 136.676 265.564C135.823 265.874 134.546 266.111 133.303 265.5C131.354 264.54 130.394 262.112 129.376 259.539L129.37 259.524L129.368 259.52C128.248 256.684 126.982 253.476 124.07 251.657C123.45 251.269 122.81 250.982 122.243 250.728C121.703 250.487 121.193 250.26 120.796 249.99C120.176 249.565 119.706 248.971 119.443 248.266C119.18 247.561 119.143 246.803 119.333 246.075C119.523 245.346 119.926 244.708 120.503 244.224C121.08 243.739 121.776 243.449 122.526 243.389C123.06 243.345 123.553 243.088 123.896 242.677C124.24 242.266 124.403 241.735 124.353 241.201C121.276 208.706 119.936 178.818 120.252 149.855Z" fill="black"/>
</g>
<path d="M115.139 61.2004C114.853 59.3297 113.069 58.1037 111.396 57.2284C109.723 56.3532 107.853 55.4546 107.083 53.7241C105.643 50.4938 108.936 46.5619 107.479 43.3382C106.829 41.8984 105.333 40.9998 103.793 40.6424C102.253 40.2849 100.653 40.4386 99.0794 40.5789L94.9428 38.4142C92.1728 33.9812 86.1261 32.5682 81.0294 33.7106C75.9328 34.8531 71.5594 38.02 67.3328 41.1L54.0961 50.7711C51.9428 52.3445 48.8994 53.9212 46.8428 52.2209C43.7761 49.6887 47.5094 43.8961 44.8794 40.923C44.2494 40.2148 43.3494 39.8139 42.6294 39.1959C40.6294 37.4655 40.3794 34.4389 40.6594 31.7965C41.7428 21.5976 48.4661 12.3409 57.5028 7.52706C66.5394 2.71326 77.6028 2.23222 87.2895 5.5227C92.8494 7.42016 98.5628 11.3287 99.2561 17.1714L102.953 18.3773C107.493 14.3686 114.423 15.2639 120.253 16.844C124.436 17.9764 128.603 19.3762 132.253 21.7112C135.903 24.0463 139.033 27.4203 140.389 31.5459C141.226 34.0848 141.389 36.8909 142.846 39.1425C143.789 40.6056 145.196 41.708 146.233 43.1044C149.209 47.1131 148.273 53.487 144.266 56.4668C142.329 57.9066 139.733 58.7317 138.653 60.8964C137.749 62.7104 138.163 65.0688 136.919 66.6656C135.109 68.9873 130.919 68.3125 129.336 70.7946C128.899 71.4794 128.736 72.3246 128.219 72.9493C127.703 73.574 126.553 73.8145 126.156 73.113L116.376 73.5606L115.139 61.2004Z" fill="black"/>
<path d="M52.9371 53.3573C50.7871 58.8993 49.4938 63.9036 49.1671 66.9335C48.3438 74.5634 49.8804 83.0418 55.7038 88.477C58.8071 91.3699 62.6504 92.793 66.7604 93.5179C71.0471 94.2762 75.6471 94.9678 79.8071 93.2641C79.5871 96.7416 79.5538 98.8896 79.7138 102.371L103.167 99.9519C102.787 95.3787 103.68 91.5971 105.667 87.4614C106.117 86.5261 107.084 86.5361 108.04 86.2321C108.89 85.9648 109.724 85.6575 110.547 85.3101C112.217 84.6153 113.797 83.7166 115.247 82.6376C118.12 80.4629 120.36 77.4096 121.2 73.8686C121.964 70.6582 121.427 66.8366 117.867 65.0293C115.357 63.7599 113.107 64.2109 109.284 67.5782L115.17 61.2311C114.884 59.3603 113.1 58.1343 111.427 57.2591C109.754 56.3839 107.884 55.4853 107.114 53.7548C105.674 50.5245 108.967 46.5926 107.51 43.3689C106.86 41.9291 105.364 41.0305 103.824 40.6731C102.284 40.3156 100.684 40.4693 99.1104 40.6096L94.9738 38.4449C92.2038 34.0119 86.1571 32.5988 81.0604 33.7413C75.9638 34.8838 71.5604 38.0206 67.3338 41.1006L54.0971 50.7717" fill="#FFD39F"/>
<path fill-rule="evenodd" clip-rule="evenodd" d="M48.9431 54.9713C47.4697 54.9713 46.3631 54.4268 45.5697 53.7687C43.1613 51.779 43.476 48.7616 43.7293 46.3338L43.7297 46.3292C43.9064 44.6355 44.0731 43.0321 43.3831 42.2537C43.1864 42.0332 42.8364 41.7994 42.4664 41.5522C42.1164 41.3183 41.7164 41.0511 41.3297 40.7204C39.1564 38.8396 38.2397 35.6827 38.6731 31.5872C39.8064 20.934 46.6597 11.0358 56.5664 5.76103C65.7464 0.870398 77.4697 0.0753368 87.9331 3.62973C95.5897 6.24208 100.563 11.2196 101.243 16.9387C101.373 18.0377 100.59 19.0366 99.4931 19.1668C98.3964 19.2971 97.4031 18.5121 97.2697 17.413C96.5397 11.2596 88.9531 8.21302 86.6431 7.42464C77.2064 4.22101 66.6631 4.92254 58.4397 9.30206C49.6897 13.9622 43.6397 22.6644 42.6464 32.0148C42.4464 33.9189 42.5031 36.4477 43.9331 37.6838C44.1297 37.8508 44.3964 38.0312 44.6764 38.2183L44.6824 38.2223C45.2176 38.5787 45.8284 38.9855 46.3664 39.5946C48.2276 41.6967 47.9371 44.4953 47.7039 46.7422L47.7031 46.7501C47.4897 48.8079 47.4097 50.1007 48.1097 50.6787C49.2931 51.6575 52.0864 49.76 52.9131 49.1554L66.1497 39.4843L66.1658 39.4726C70.3219 36.4456 75.0269 33.0187 80.5864 31.7709C87.4397 30.2342 93.0431 32.0315 95.9597 36.6983C96.5464 37.637 96.2631 38.873 95.3264 39.461C94.3897 40.0489 93.1564 39.7649 92.5697 38.8262C89.7831 34.3666 83.8697 35.1416 81.4597 35.6827C76.7031 36.7484 72.5331 39.785 68.5031 42.7247L55.2697 52.3957C55.1223 52.5035 54.9766 52.6074 54.8325 52.7073C54.9789 53.1385 54.9805 53.6217 54.8031 54.0794C52.5298 59.9388 51.4298 64.6724 51.1564 67.1478C50.2531 75.4158 52.4065 82.6548 57.0698 87.0043C59.5631 89.3294 62.7531 90.7691 67.1098 91.5375C71.5631 92.3158 75.5398 92.8403 79.0531 91.4005C79.6898 91.14 80.4165 91.2268 80.9764 91.6277C81.5364 92.0319 81.8498 92.6933 81.8065 93.3815C81.5931 96.7421 81.5564 97.4837 81.7164 100.931C81.7664 102.037 80.9131 102.976 79.8098 103.026C79.7731 103.039 79.7431 103.039 79.7131 103.039C78.6498 103.039 77.7664 102.201 77.7164 101.125C77.6098 98.7732 77.5864 97.5907 77.6531 95.9771C73.6465 96.7522 69.5664 96.0406 66.4198 95.4894C61.3364 94.5908 57.3864 92.7768 54.3431 89.9407C48.7498 84.7193 46.1398 76.2543 47.1798 66.7102C47.5152 63.6676 48.6371 59.3476 50.2487 54.8382C49.7845 54.93 49.3497 54.9713 48.9431 54.9713ZM126.97 75.5594C126.873 75.5594 126.78 75.5561 126.686 75.5461C125.713 75.4592 124.89 74.9381 124.423 74.1163C123.88 73.1542 124.216 71.9315 125.176 71.3837C125.726 71.0697 126.366 71.0496 126.91 71.2701C126.95 71.1766 126.993 71.0763 127.036 70.9795L127.049 70.9494C127.206 70.5792 127.384 70.1595 127.656 69.7334C128.876 67.8226 130.953 67.2146 132.62 66.7269C133.776 66.3895 134.87 66.0688 135.35 65.4508C135.723 64.9739 135.851 64.1688 135.999 63.2338L136.003 63.2092L136.009 63.1736C136.164 62.1935 136.34 61.085 136.87 60.019C137.881 57.9919 139.713 56.9231 141.33 55.9791L141.34 55.9735C141.973 55.6061 142.57 55.2553 143.083 54.8745C144.57 53.7687 145.596 51.9548 145.9 49.897C146.203 47.8392 145.743 45.8047 144.64 44.3182C144.25 43.7937 143.77 43.2859 143.26 42.7514L143.25 42.7416C142.537 41.9897 141.797 41.2106 141.176 40.246C140.026 38.4688 139.58 36.5379 139.15 34.6705L139.137 34.6144C138.938 33.76 138.751 32.9535 138.5 32.1918C137.4 28.8479 134.803 25.7311 131.186 23.4194C127.55 21.091 123.36 19.7782 119.74 18.796C112.793 16.9119 108.453 17.3228 105.23 20.1724C104.4 20.9039 103.136 20.8238 102.406 19.992C101.676 19.1602 101.756 17.8941 102.586 17.1625C108.093 12.3019 115.203 13.4143 120.783 14.9243C124.693 15.9832 129.243 17.4197 133.336 20.0387C137.726 22.8482 140.91 26.7166 142.296 30.9358C142.609 31.8851 142.828 32.8377 143.041 33.7606L143.043 33.7686C143.413 35.3687 143.763 36.882 144.53 38.0679C144.95 38.7179 145.528 39.3284 146.14 39.9745L146.153 39.9888L146.199 40.0377C146.752 40.6205 147.324 41.2244 147.843 41.9263C149.576 44.2614 150.31 47.3782 149.853 50.4816C149.396 53.585 147.796 56.361 145.463 58.0948C144.775 58.6081 144.053 59.0282 143.354 59.4349L143.354 59.4351L143.35 59.4377C142.05 60.196 140.923 60.8541 140.446 61.8095C140.191 62.322 140.077 63.0346 139.956 63.7919L139.95 63.8306C139.746 65.1334 139.513 66.6133 138.5 67.9161C137.223 69.553 135.373 70.0942 133.74 70.5719C132.503 70.9327 131.436 71.2467 131.026 71.8914C130.93 72.0451 130.826 72.2856 130.72 72.5429C130.51 73.044 130.246 73.6653 129.766 74.2466C129.09 75.0617 128.016 75.5594 126.97 75.5594ZM113.163 61.5055C113.226 61.9243 113.415 62.2926 113.685 62.5783C112.096 63.0016 110.226 64.0394 107.933 66.0588C107.103 66.7904 107.02 68.0564 107.75 68.8883C108.48 69.7201 109.743 69.8036 110.573 69.072C114.236 65.845 115.573 66.1156 116.936 66.8071C120.06 68.3872 119.58 71.9349 119.226 73.3947C118.54 76.2943 116.686 79.0036 114.026 81.018C112.706 82.0001 111.27 82.8185 109.74 83.4532C108.983 83.7739 108.2 84.0612 107.406 84.3118C107.286 84.3513 107.15 84.3846 107.007 84.4199C106.968 84.4293 106.929 84.4389 106.89 84.4487C106.03 84.6559 104.593 85.0033 103.833 86.5834C101.76 90.9128 100.783 93.2145 101.206 98.2454C101.293 99.2943 102.17 100.083 103.196 100.083C103.253 100.083 103.31 100.079 103.37 100.066C104.47 99.9725 105.286 99.0037 105.193 97.9013C104.86 93.9728 105.453 92.4662 107.37 88.4575C107.464 88.4267 107.598 88.3939 107.722 88.3637C107.743 88.3586 107.763 88.3536 107.783 88.3487C107.799 88.3448 107.815 88.341 107.83 88.3372C108.063 88.2804 108.33 88.2136 108.606 88.1267C109.516 87.8428 110.42 87.5087 111.283 87.1446C113.103 86.3896 114.83 85.4075 116.423 84.2216C119.836 81.6393 122.213 78.1217 123.113 74.3267C124.293 69.4428 122.616 65.1902 118.736 63.2259C118.096 62.9019 117.42 62.6258 116.681 62.472C117.027 62.0477 117.199 61.4831 117.11 60.8975C116.673 58.0347 114.166 56.4178 112.316 55.4524L112.046 55.3121C110.723 54.6239 109.353 53.909 108.906 52.9102C108.474 51.9402 108.835 50.5377 109.217 49.0514L109.22 49.0418C109.736 47.0408 110.32 44.7725 109.3 42.5142C108.453 40.6335 106.61 39.2405 104.243 38.6926C102.428 38.2688 100.61 38.4317 99.0083 38.5752H99.0083L99.0031 38.5757L98.9031 38.5857C97.8031 38.6859 96.9931 39.658 97.0897 40.7604C97.1897 41.8628 98.1564 42.6779 99.2597 42.5777L99.3597 42.5677L99.3643 42.5673C100.796 42.4405 102.148 42.3208 103.343 42.5978C104.45 42.855 105.34 43.4563 105.66 44.1678C106.095 45.1377 105.751 46.4766 105.353 48.0286L105.353 48.0287L105.35 48.0396L105.348 48.0474C104.835 50.0398 104.254 52.2951 105.256 54.5437C106.27 56.822 108.453 57.9578 110.206 58.8698L110.47 59.0068C112.16 59.8887 113.04 60.7071 113.163 61.5055ZM62.8098 62.5712C64.0984 62.5712 65.1431 61.2999 65.1431 59.7317C65.1431 58.1635 64.0984 56.8922 62.8098 56.8922C61.5211 56.8922 60.4764 58.1635 60.4764 59.7317C60.4764 61.2999 61.5211 62.5712 62.8098 62.5712ZM76.4765 60.5167C76.4765 62.085 75.4318 63.3562 74.1431 63.3562C72.8545 63.3562 71.8098 62.085 71.8098 60.5167C71.8098 58.9485 72.8545 57.6772 74.1431 57.6772C75.4318 57.6772 76.4765 58.9485 76.4765 60.5167Z" fill="black"/>
</g>
<defs>
<clipPath id="clip0_805_38666">
<rect width="180" height="180" rx="24" fill="white"/>
</clipPath>
<clipPath id="clip1_805_38666">
<rect width="200" height="200.436" fill="white" transform="translate(-10 95.2734)"/>
</clipPath>
</defs>
</svg>
