<svg width="180" height="180" viewBox="0 0 180 180" fill="none" xmlns="http://www.w3.org/2000/svg">
<g clip-path="url(#clip0_805_37255)">
<rect width="180" height="180" rx="24" fill="white"/>
<g clip-path="url(#clip1_805_37255)">
<path fill-rule="evenodd" clip-rule="evenodd" d="M103.124 95.2729C103.424 98.6469 104.8 106.27 109.924 105.128L110.474 105.963C110.224 111.197 107.577 114.889 103.43 118.714C99.217 122.539 93.8436 124.837 88.1736 125.241C83.1736 125.609 77.857 124.41 74.117 121.049C70.377 117.688 68.4103 113.031 70.887 109.039H71.247C72.3736 109.073 73.4103 108.482 74.3636 107.88C75.0632 107.437 75.3317 106.001 75.5768 104.691C75.7568 103.728 75.9242 102.833 76.2403 102.448C77.2403 101.149 80.2336 96.8262 80.747 95.2695H103.124V95.2729ZM121.73 241.611C118.52 242.65 114.604 245.82 117.32 249.388C118.553 251.013 120.307 252.018 122.046 253.015C122.413 253.225 122.78 253.435 123.14 253.65C124.33 254.359 124.868 256.327 125.32 257.985C125.474 258.547 125.618 259.074 125.774 259.503C127.334 263.793 130.364 267.314 135.334 266.979C140.387 266.645 143.53 262.333 144.49 257.683C145.477 252.895 144.519 247.216 143.703 242.386C143.659 242.128 143.616 241.871 143.574 241.618L121.73 241.611ZM28.4503 237.669C27.7836 234.997 29.7836 232.992 32.117 232.12L48.6836 234.612C49.3303 240.241 48.027 245.015 46.4736 249.692C46.2205 250.458 46.0662 251.26 45.9126 252.059C45.6557 253.395 45.4005 254.722 44.687 255.855C43.547 257.666 41.477 258.558 39.2636 258.668C35.7636 258.812 31.4503 258.357 31.4503 253.704C31.4845 253.156 31.5257 252.597 31.5674 252.031C31.9327 247.078 32.3391 241.566 28.4503 237.669Z" fill="#FFD39F"/>
<path d="M56.567 199.756C55.6637 208.825 54.2537 217.835 52.3337 226.744C50.6637 225.999 48.8604 225.595 47.0337 225.558L42.7004 225.274C39.3137 224.86 36.5937 224.449 33.207 224.038C34.6104 208.521 36.4104 193.044 38.607 177.604C40.517 164.158 42.7404 150.709 46.687 137.717C50.1937 126.172 55.757 114.233 66.3204 108.444L67.5504 106.536L77.8004 98.2516C78.417 99.2705 77.9437 100.59 77.577 100.256L76.1937 105.207C76.0137 105.714 75.9437 106.256 75.9804 106.794C76.207 108.35 78.057 108.992 79.5904 109.316L81.0004 109.443C87.5104 106.77 92.4137 104.295 97.3137 101.816C101.007 99.9486 104.82 98.0478 108.947 97.7305L110.52 103.293C116.417 104.876 120.99 109.429 124.674 114.093C128.69 119.184 131.84 124.903 134 131.02C135.21 134.437 137.124 138.282 137.914 141.816L138.967 145.05C145.547 173.445 145.894 202.872 146.207 232.026L117.187 231.548C115.9 221.73 114.887 211.885 114.147 202.007L112.857 202.051C99.917 203.704 86.647 202.321 74.147 200.731C67.517 201.529 60.7437 201.032 54.4537 199.001" fill="black"/>
<path fill-rule="evenodd" clip-rule="evenodd" d="M81.0005 109.443L84.1938 123.333L84.2246 123.322C89.291 121.538 94.3702 119.75 99.1938 117.387C100.934 116.535 102.68 115.573 103.94 114.099C105.43 112.359 106.097 110.091 106.727 107.876L106.755 107.778L106.755 107.778C107.692 104.47 108.63 101.161 108.94 97.7305C104.814 98.0478 101 99.9486 97.3071 101.816L97.1502 101.895C92.299 104.344 87.4311 106.802 81.0005 109.443ZM32.7305 232.002C32.9438 229.514 33.2105 226.54 34.2771 224.282L51.5838 225.886C51.3905 228.294 50.1838 231.662 49.2738 233.903C49.2571 233.967 49.2205 234.023 49.1705 234.067C49.0871 234.11 48.9905 234.124 48.9005 234.097C47.4315 233.864 45.2888 233.657 43.0023 233.436C39.1351 233.064 34.8566 232.651 32.7305 232.002ZM118.334 239.586C118.154 236.983 118.327 234.371 118.854 231.815L143.43 232.159L143.67 238.316C143.694 239.068 143.644 239.956 143.004 240.32C142.69 240.464 142.347 240.528 142.004 240.501L119.337 240.564C119.094 240.591 118.847 240.534 118.637 240.407C118.534 240.297 118.454 240.167 118.4 240.026C118.347 239.886 118.327 239.736 118.334 239.586ZM76.1838 105.207L77.5672 100.256C77.9338 100.563 78.4071 99.2605 77.7871 98.2416L67.5371 106.526C67.2905 109.052 67.5805 111.601 68.3938 114.006C69.2071 116.411 70.5205 118.613 72.2471 120.47C75.3671 117.246 77.8571 113.461 79.5805 109.316C78.0471 108.992 76.1971 108.35 75.9705 106.794C75.9338 106.256 76.0038 105.715 76.1838 105.207Z" fill="white"/>
<path fill-rule="evenodd" clip-rule="evenodd" d="M84.1933 125.337C83.86 125.337 83.5266 125.254 83.23 125.09C82.73 124.816 82.3733 124.338 82.2466 123.784L81.2742 119.554C80.5981 130.978 79.8326 142.45 79.0867 153.612L79.0541 154.1L79.0541 154.1L79.0541 154.101L79.0541 154.101L79.054 154.101C78.0714 168.84 77.0567 184.06 76.2636 199.017C89.5357 201.064 101.254 201.422 112.011 200.113C110.608 180.296 110.302 160.376 111.103 140.587C111.147 139.481 112.08 138.619 113.183 138.666C114.287 138.71 115.147 139.645 115.1 140.751C113.903 170.325 115.197 200.193 118.947 229.557L144.183 229.971C144.174 228.943 144.165 227.919 144.156 226.899C144.147 225.787 144.137 224.68 144.127 223.577L144.126 223.552C143.92 198.394 143.725 174.626 137.843 149.226C137.593 148.147 138.263 147.071 139.34 146.821C140.413 146.57 141.49 147.242 141.74 148.321C147.718 174.152 147.917 198.135 148.126 223.521V223.522L148.127 223.544L148.129 223.794L148.129 223.8C148.151 226.502 148.174 229.227 148.203 231.986C148.21 232.527 147.997 233.048 147.613 233.429C147.243 233.803 146.733 234.013 146.207 234.013H146.173L145.502 234.002L145.667 238.236C145.684 238.757 145.723 240.038 145.041 241.079C145.293 241.354 145.472 241.704 145.54 242.101L145.598 242.443L145.599 242.445C145.666 242.841 145.734 243.239 145.803 243.634L145.806 243.651C146.619 248.34 147.459 253.188 146.45 258.082C145.157 264.343 140.847 268.619 135.467 268.973C135.21 268.996 134.953 269.003 134.703 269.003C129.86 269.003 125.947 265.829 123.897 260.187C123.713 259.679 123.557 259.111 123.393 258.513L123.388 258.496C123.152 257.634 122.613 255.665 122.12 255.373C121.767 255.163 121.413 254.959 121.057 254.755C119.253 253.723 117.21 252.55 115.73 250.6C114.127 248.495 114.247 246.598 114.627 245.378C115.068 243.968 116.069 242.797 117.278 241.881C117.248 241.853 117.218 241.824 117.19 241.794C116.897 241.483 116.67 241.126 116.523 240.725C116.393 240.377 116.33 240.01 116.33 239.636C116.192 237.564 116.265 235.485 116.548 233.431C115.841 233.192 115.306 232.567 115.203 231.792C114 222.608 113.035 213.374 112.31 204.114C107.999 204.635 103.538 204.893 98.9 204.893C91.1833 204.893 82.97 204.175 74.1 202.732C68.7217 203.351 63.3552 203.122 58.3332 202.073C57.4217 210.482 56.0639 218.912 54.2833 227.169C54.1164 227.954 53.5001 228.542 52.7467 228.702C52.4513 230.724 51.9164 232.702 51.15 234.601C51.0262 234.946 50.8258 235.259 50.5611 235.513L48.4567 249.982C48.15 252.096 47.7667 254.725 46.3833 256.927C44.98 259.155 42.4233 260.518 39.3667 260.671C39.0133 260.685 38.64 260.695 38.2533 260.695C35.98 260.695 33.2 260.351 31.3367 258.56C30.0867 257.358 29.45 255.724 29.45 253.706C29.45 253.666 29.45 253.623 29.4533 253.583C29.4849 253.058 29.5254 252.52 29.5664 251.977L29.5733 251.886C29.92 247.192 30.2767 242.338 27.0367 239.088C26.78 238.831 26.6 238.51 26.51 238.156C25.7227 235 27.4576 231.976 30.8527 230.473C31.0043 228.841 31.2337 227.117 31.7778 225.442C31.3694 225.035 31.1394 224.456 31.1967 223.838C32.5967 208.348 34.4167 192.69 36.61 177.3C38.4633 164.255 40.7333 150.358 44.7567 137.113C49.54 121.425 56.0833 111.754 65.3533 106.673C65.4091 106.643 65.4656 106.615 65.5228 106.59C65.5302 106.503 65.5381 106.416 65.5467 106.329C65.6 105.795 65.8633 105.3 66.2833 104.963L76.5333 96.6783C76.9833 96.3175 77.5633 96.1638 78.13 96.2641C78.6967 96.3643 79.1933 96.7017 79.4933 97.1961C80.37 98.6359 80.25 100.61 79.26 101.626L78.11 105.745C78.1033 105.766 78.0967 105.787 78.09 105.808C78.0833 105.829 78.0767 105.85 78.07 105.872C77.9967 106.082 77.96 106.299 77.96 106.52C78.0233 106.61 78.41 107.017 79.9933 107.351C80.1512 107.385 80.3027 107.437 80.4452 107.506C86.7074 104.924 91.5603 102.475 96.2566 100.102L96.41 100.025C100.063 98.1781 104.207 96.0836 108.79 95.7328C109.377 95.6861 109.953 95.9032 110.367 96.3241C110.78 96.745 110.987 97.3263 110.933 97.9109C110.83 99.0513 110.662 100.176 110.451 101.285C110.644 101.278 110.841 101.3 111.037 101.352C118.007 103.223 123.053 108.808 126.24 112.843C130.4 118.118 133.647 124.008 135.883 130.345C136.275 131.45 136.744 132.602 137.241 133.82L137.287 133.933C138.283 136.375 139.31 138.9 139.863 141.372C140.103 142.451 139.427 143.523 138.35 143.767C138.203 143.801 138.057 143.817 137.91 143.817C136.993 143.817 136.17 143.183 135.96 142.251C135.48 140.106 134.517 137.741 133.583 135.453C133.073 134.207 132.55 132.917 132.113 131.688C130.023 125.762 126.99 120.26 123.103 115.332C120.27 111.741 115.827 106.79 110 105.224C109.852 105.184 109.712 105.128 109.582 105.059C109.295 106.154 108.988 107.236 108.685 108.307L108.685 108.307L108.68 108.324L108.653 108.42C108.037 110.592 107.267 113.291 105.46 115.402C103.98 117.133 101.997 118.245 100.073 119.184C95.1466 121.596 89.9366 123.433 84.8966 125.207L84.8566 125.22C84.64 125.3 84.4166 125.337 84.1933 125.337ZM35.6923 226.362C35.2332 227.629 35.016 229.03 34.8733 230.446C37.0633 230.85 40.28 231.161 43.19 231.441C44.89 231.605 46.52 231.762 47.8733 231.932C48.2805 230.73 48.5805 229.496 48.7709 228.242C48.607 228.213 48.4435 228.185 48.2806 228.156L48.2803 228.156L48.2133 228.144L48.0698 228.119L48.0693 228.119C47.2093 227.968 46.3978 227.825 45.7 227.736L40.7533 227.032C39.3293 226.858 38.306 226.719 37.365 226.59L36.8767 226.524L36.6462 226.492C36.3317 226.449 36.0184 226.406 35.6923 226.362ZM32.6579 234.063C32.004 234.334 30.266 235.2 30.3267 236.739C34.3685 241.241 33.9236 247.285 33.5637 252.174L33.5633 252.18L33.5601 252.223C33.5212 252.743 33.4825 253.259 33.4533 253.763C33.4666 255.049 33.9476 255.511 34.1088 255.666L34.11 255.667C34.9067 256.436 36.6167 256.77 39.1867 256.666C40.9067 256.579 42.3033 255.894 43 254.785C43.9293 253.312 44.2175 251.338 44.4964 249.428L44.5 249.404L46.4785 235.801C45.4044 235.681 44.1821 235.563 42.9162 235.44L42.8067 235.43C38.9891 235.063 35.0532 234.682 32.6579 234.063ZM53.84 200.885C54.0321 200.947 54.2249 201.008 54.4184 201.067C53.5872 208.913 52.3574 216.787 50.7567 224.516C50.1467 224.419 49.5233 224.309 48.9067 224.199C47.9467 224.028 47.04 223.868 46.2367 223.765L41.2967 223.06L41.2966 223.06C41.2833 223.056 41.27 223.053 41.2567 223.053C39.7335 222.865 38.6743 222.72 37.6778 222.583L37.6766 222.583L37.4233 222.549C36.78 222.458 36.1267 222.368 35.3533 222.268C36.7233 207.476 38.4767 192.55 40.5667 177.865C42.3967 164.98 44.6367 151.267 48.58 138.282C52.7424 124.629 58.1987 115.941 65.6576 111.149C65.8306 112.331 66.1115 113.499 66.5 114.647C67.41 117.34 68.85 119.758 70.7833 121.836C71.1567 122.237 71.68 122.468 72.2267 122.474H72.2467C72.7867 122.474 73.3067 122.254 73.6833 121.863C75.0408 120.462 76.2794 118.968 77.3945 117.39C76.7011 129.267 75.9044 141.224 75.1294 152.853L75.1293 152.854L75.0967 153.345L75.0635 153.843L75.0634 153.843V153.843C74.0792 168.619 73.0629 183.877 72.2661 198.886C66.2775 199.401 60.3612 198.778 55.0667 197.07C54.5567 196.906 54.34 196.779 54.2533 196.719C54.2211 196.522 54.2605 196.082 54.2782 195.884L54.28 195.864C55.6929 180.665 57.1119 165.47 58.5311 150.272L58.7233 148.214C59.1433 143.734 59.0933 138.225 54.99 135.379C54.08 134.748 52.8333 134.975 52.2066 135.887C51.5766 136.799 51.8033 138.048 52.7133 138.676C55.1133 140.336 55.0567 144.445 54.74 147.839C53.2567 163.721 51.7733 179.605 50.2966 195.49L50.2965 195.492C50.2231 196.287 50.1006 197.615 50.8333 198.824C51.57 200.036 52.9 200.581 53.84 200.885ZM83.33 110.642L85.64 120.697C89.9133 119.18 94.2566 117.574 98.3133 115.586C99.7466 114.884 101.36 114.033 102.42 112.797C103.657 111.35 104.24 109.306 104.803 107.328L104.83 107.231L104.836 107.208C105.521 104.791 106.178 102.47 106.597 100.132C103.707 100.827 100.92 102.234 98.2066 103.607L98.0533 103.683L98.0214 103.7L98.0214 103.7C93.6113 105.926 89.0628 108.222 83.33 110.642ZM141.567 242.506L123.459 242.557C123.26 243.13 122.805 243.606 122.183 243.805C120.33 244.406 118.757 245.572 118.44 246.577C118.38 246.768 118.223 247.272 118.907 248.171C119.897 249.474 121.42 250.349 123.037 251.274L123.17 251.351L123.308 251.431L123.31 251.431L123.31 251.432L123.311 251.432C123.596 251.596 123.88 251.759 124.16 251.926C126.042 253.044 126.709 255.486 127.245 257.449L127.247 257.454L127.279 257.571C127.41 258.045 127.533 258.49 127.65 258.814C128.73 261.784 130.91 265.255 135.197 264.977C138.013 264.79 141.413 262.669 142.53 257.274C143.386 253.125 142.611 248.655 141.862 244.332L141.86 244.323C141.77 243.801 141.68 243.284 141.593 242.769C141.579 242.681 141.57 242.593 141.567 242.506ZM141.496 233.936L120.565 233.592C120.315 235.236 120.22 236.901 120.28 238.563L141.673 238.503V238.502C141.673 238.484 141.673 238.465 141.673 238.445C141.672 238.425 141.672 238.404 141.67 238.383L141.496 233.936ZM70.2867 113.365C69.65 111.477 69.3733 109.52 69.4667 107.542L74.6133 103.38L74.27 104.609C74.0133 105.36 73.9133 106.142 73.97 106.937C73.973 106.982 73.9786 107.024 73.9846 107.069L73.9867 107.084C74.21 108.601 75.1633 109.757 76.83 110.532C75.6133 113 74.1067 115.299 72.3267 117.4C71.46 116.167 70.7767 114.814 70.2867 113.365Z" fill="black"/>
</g>
<path d="M45.9395 67.4937C42.8928 66.1174 41.0228 62.9672 39.9562 59.8103C37.0095 51.068 38.8695 41.1531 43.5828 33.2258C48.2962 25.2986 55.6128 19.1953 63.5828 14.5486C69.7528 10.9508 76.5828 8.09789 83.7261 7.99099C90.8695 7.88409 98.3462 10.9407 102.129 17.0106L106.859 21.1863C112.859 20.2677 118.703 23.6116 123.309 27.5736C128.976 32.4375 133.699 38.5174 136.366 45.4992C139.033 52.481 139.536 60.3882 137.109 67.4569C134.903 73.8742 129.226 79.904 122.473 79.3829" fill="black"/>
<path d="M79.7133 102.704C79.5533 99.223 79.5866 96.741 79.8066 93.2634C75.6466 94.9671 71.0466 94.2656 66.76 93.5173C62.65 92.7924 58.8066 91.3693 55.7033 88.4763C49.88 83.0412 48.3333 74.5628 49.1666 66.9328C49.5 63.9029 50.7866 58.8987 52.9366 53.3567L55.49 49.7221C57.99 45.5998 61.12 41.7915 65.0733 39.0322C69.0266 36.2729 73.8633 34.6493 78.6566 35.0535C79.99 35.1671 81.3666 35.4511 82.4866 36.2027C83.6066 36.9543 84.44 38.2438 84.3433 39.5901L89.3833 42.5031C91.5266 41.0365 94.68 42.169 96.1666 44.317C97.6533 46.465 97.8566 49.2177 97.7666 51.82C97.6766 54.4223 97.3433 57.0681 97.95 59.5969C98.4733 61.638 99.57 63.4853 101.113 64.9185C102.657 66.3516 104.577 67.3103 106.647 67.6778L109.253 67.5509C113.077 64.1835 115.327 63.7326 117.837 65.002C121.41 66.8092 121.947 70.6309 121.17 73.8412C120.33 77.3822 118.09 80.4355 115.217 82.6103C113.767 83.6893 112.187 84.5879 110.517 85.2827C109.697 85.6302 108.86 85.9375 108.01 86.2047C107.053 86.5087 106.087 86.4987 105.637 87.4341C103.657 91.5697 102.813 95.4949 103.2 100.065" fill="#FFD39F"/>
<path fill-rule="evenodd" clip-rule="evenodd" d="M45.1267 69.3097C45.3934 69.4266 45.6667 69.4834 45.9401 69.4834C46.3118 69.4834 46.6763 69.378 46.9907 69.1843C46.6185 77.7081 49.2384 85.1757 54.3434 89.9412C57.3867 92.7773 61.3367 94.5913 66.4201 95.4899C69.5667 96.0411 73.6467 96.7527 77.6534 95.9776C77.5867 97.5911 77.6101 98.7737 77.7167 101.125C77.7667 102.201 78.6501 103.04 79.7134 103.04C79.7434 103.04 79.7734 103.04 79.8101 103.026C80.9134 102.976 81.7667 102.037 81.7167 100.932C81.5567 97.4842 81.5934 96.7426 81.8067 93.382C81.8501 92.6938 81.5367 92.0324 80.9767 91.6282C80.4167 91.2273 79.6901 91.1404 79.0534 91.401C75.5401 92.8408 71.5634 92.3163 67.1101 91.538C62.7534 90.7696 59.5634 89.3298 57.0701 87.0048C52.4067 82.6553 50.2534 75.4163 51.1567 67.1483C51.4301 64.6729 52.5301 59.9393 54.8034 54.0799C55.2034 53.0476 54.6934 51.8851 53.6634 51.4842C52.6334 51.0834 51.4734 51.5945 51.0734 52.6267C49.159 57.5587 47.765 62.4761 47.2713 65.9862C47.1208 65.852 46.9474 65.7383 46.7534 65.6517C44.1067 64.4692 42.6267 61.4693 41.8501 59.1543C39.2634 51.5076 40.5501 42.1941 45.2901 34.2401C49.3634 27.4052 55.8534 21.3588 64.5801 16.2677C71.6801 12.1254 77.9501 10.0709 83.7467 9.9807C90.7567 9.87714 97.2967 13.044 100.423 18.0583C101.01 18.997 102.243 19.2843 103.18 18.6963C104.117 18.1084 104.403 16.8723 103.817 15.9336C99.9067 9.65666 92.1767 5.8417 83.6867 5.97198C77.1834 6.0722 70.2767 8.30372 62.5667 12.8002C53.2501 18.2353 46.2801 24.7562 41.8567 32.1823C36.5267 41.1318 35.1067 51.6947 38.0634 60.4337C39.5434 64.84 41.9834 67.9066 45.1267 69.3097ZM123.287 81.406C122.96 81.406 122.637 81.3926 122.31 81.3692C121.468 81.3053 120.786 80.7246 120.552 79.9612C119.443 81.5466 118.051 82.9907 116.423 84.2221C114.83 85.408 113.103 86.3901 111.283 87.1451C110.42 87.5092 109.517 87.8433 108.607 88.1272C108.33 88.2141 108.063 88.2809 107.83 88.3377C107.796 88.3462 107.76 88.3551 107.722 88.3642C107.599 88.3944 107.465 88.4272 107.37 88.458C105.453 92.4667 104.86 93.9733 105.193 97.9018C105.287 99.0042 104.47 99.973 103.37 100.067C103.31 100.08 103.253 100.083 103.197 100.083C102.17 100.083 101.293 99.2948 101.207 98.2459C100.783 93.215 101.76 90.9133 103.833 86.5839C104.593 85.0038 106.03 84.6564 106.89 84.4492C106.929 84.4395 106.967 84.4301 107.005 84.4208L107.007 84.4203C107.15 84.3851 107.286 84.3518 107.407 84.3123C108.2 84.0617 108.983 83.7744 109.74 83.4537C111.27 82.819 112.707 82.0006 114.027 81.0185C116.687 79.0041 118.54 76.2948 119.227 73.3952C119.58 71.9354 120.06 68.3877 116.937 66.8076C115.573 66.1161 114.237 65.8455 110.573 69.0725C109.84 69.7187 108.769 69.729 108.026 69.1493C107.662 69.4946 107.172 69.7005 106.65 69.7005C106.533 69.7005 106.417 69.6905 106.297 69.6705C103.843 69.2328 101.58 68.1037 99.7534 66.4067C97.9267 64.7097 96.6334 62.5316 96.0134 60.113C95.4567 57.788 95.5767 55.5264 95.6934 53.3349L95.7104 53.0075C95.732 52.5933 95.7535 52.1808 95.7667 51.7682C95.8367 49.7772 95.7567 47.2617 94.5234 45.4779C93.6634 44.2352 91.6801 43.3766 90.5101 44.1784C89.5967 44.8031 88.3534 44.5659 87.7301 43.6539C87.1067 42.7386 87.3434 41.4925 88.2534 40.8679C90.8567 39.0873 95.3167 39.5951 97.8067 43.1962C99.7134 45.9489 99.8534 49.2995 99.7634 51.9119C99.7434 52.4597 99.7167 53.0076 99.6867 53.5554C99.5801 55.5464 99.4801 57.4238 99.8934 59.1509C100.313 60.7945 101.207 62.2978 102.47 63.4737C103.733 64.6495 105.297 65.4279 106.993 65.7319C107.323 65.7907 107.62 65.9275 107.867 66.1201C107.881 66.1068 107.895 66.0937 107.909 66.0808C107.917 66.0736 107.925 66.0664 107.933 66.0593C113.193 61.4259 116.233 61.9604 118.737 63.2264C122.617 65.1907 124.293 69.4433 123.113 74.3272C122.863 75.383 122.498 76.4173 122.029 77.4159C122.217 77.3739 122.415 77.3585 122.617 77.3739C128.347 77.8182 133.287 72.3863 135.21 66.7942C137.39 60.4437 137.133 53.1312 134.49 46.2061C132.11 39.9792 127.793 34.0564 122 29.0856C116.627 24.4655 111.633 22.4712 107.153 23.156C106.06 23.323 105.04 22.5714 104.873 21.479C104.707 20.3866 105.457 19.3611 106.547 19.1941C112.233 18.3222 118.307 20.6272 124.6 26.0423C130.893 31.444 135.607 37.9214 138.223 44.773C141.203 52.5766 141.477 60.858 138.99 68.1004C137.73 71.7617 135.537 75.1056 132.81 77.5175C129.913 80.0697 126.64 81.4026 123.287 81.406ZM54.4434 51.4508C54.7667 51.6479 55.1234 51.7415 55.4767 51.7415C56.1534 51.7415 56.8134 51.3974 57.1867 50.7794C59.8267 46.4132 62.8601 43.0225 66.2001 40.6975C70.0567 38.015 74.4167 36.7255 78.4767 37.0696C79.7567 37.1765 80.7034 37.4437 81.3667 37.888C81.9667 38.2889 82.3734 38.9503 82.3367 39.4614C82.2567 40.5672 83.0867 41.5259 84.1867 41.6061C85.2934 41.6863 86.2467 40.8578 86.3267 39.7521C86.4667 37.7978 85.3901 35.7567 83.5834 34.5508C82.3267 33.7089 80.8101 33.2412 78.8134 33.0709C73.8334 32.65 68.5434 34.1866 63.9234 37.4003C60.1167 40.046 56.7034 43.8476 53.7701 48.6982C53.1967 49.6436 53.5001 50.8763 54.4434 51.4508ZM62.8101 62.5717C64.0987 62.5717 65.1434 61.3004 65.1434 59.7322C65.1434 58.164 64.0987 56.8927 62.8101 56.8927C61.5214 56.8927 60.4767 58.164 60.4767 59.7322C60.4767 61.3004 61.5214 62.5717 62.8101 62.5717ZM76.4767 60.5172C76.4767 62.0854 75.4321 63.3567 74.1434 63.3567C72.8547 63.3567 71.8101 62.0854 71.8101 60.5172C71.8101 58.949 72.8547 57.6777 74.1434 57.6777C75.4321 57.6777 76.4767 58.949 76.4767 60.5172Z" fill="black"/>
</g>
<defs>
<clipPath id="clip0_805_37255">
<rect width="180" height="180" rx="24" fill="white"/>
</clipPath>
<clipPath id="clip1_805_37255">
<rect width="200" height="200.436" fill="white" transform="translate(-10 95.2734)"/>
</clipPath>
</defs>
</svg>
