<svg width="180" height="180" viewBox="0 0 180 180" fill="none" xmlns="http://www.w3.org/2000/svg">
<g clip-path="url(#clip0_805_37747)">
<rect width="180" height="180" rx="24" fill="white"/>
<g clip-path="url(#clip1_805_37747)">
<path d="M103.124 95.2734C103.424 98.6474 104.8 106.271 109.924 105.128L110.474 105.963C110.224 111.198 107.577 114.889 103.43 118.714C99.2171 122.539 93.8437 124.838 88.1737 125.242C83.1737 125.609 77.8571 124.41 74.1171 121.049C70.3771 117.689 68.4104 113.032 70.8871 109.04H71.2471C72.3737 109.073 73.4104 108.482 74.3637 107.881C75.5771 107.113 78.0804 103.962 78.8304 103.057C79.8304 101.758 80.2371 96.8302 80.7504 95.2734H103.124V95.2734Z" fill="#FFD39F"/>
<path d="M110.519 103.289C116.416 104.873 120.989 109.426 124.673 114.089C128.689 119.18 131.839 124.899 133.999 131.016C135.209 134.433 137.123 138.278 137.913 141.813L138.966 145.047C144.673 169.677 145.693 195.082 146.066 220.41L146.399 220.791C148.453 228.321 156.119 247.362 157.786 255.38C157.839 256.065 157.726 256.753 157.453 257.384C154.119 261.393 148.453 260.391 144.069 261.754L128.579 264.844C106.409 268.829 84.1595 269.804 61.9495 266.05L57.7595 265.558L43.4261 262.809C42.1328 262.562 40.7128 262.231 39.9561 261.139C39.3294 260.244 39.3328 259.064 39.3795 257.972C39.5695 253.629 40.0695 249.32 40.5695 245.007L42.8561 225.251H42.6828C39.2961 224.837 36.5761 224.426 33.1895 224.015C34.5928 208.498 36.3928 193.021 38.5895 177.581C40.4995 164.135 42.7228 150.685 46.6695 137.694C50.1761 126.149 55.7395 114.209 66.3028 108.42L80.9695 109.422L110.519 103.289Z" fill="black"/>
<path fill-rule="evenodd" clip-rule="evenodd" d="M84.1938 123.333L81.0005 109.443C87.4311 106.802 92.299 104.344 97.1502 101.895L97.3072 101.816C101 99.9486 104.814 98.0478 108.94 97.7305C108.63 101.161 107.692 104.47 106.755 107.778L106.755 107.778L106.727 107.876C106.097 110.091 105.43 112.359 103.94 114.099C102.68 115.573 100.934 116.535 99.1938 117.387C94.3702 119.75 89.291 121.538 84.2246 123.322L84.1938 123.333ZM76.1838 105.207L77.5671 100.256C77.9338 100.563 78.4071 99.2605 77.7871 98.2416L67.5371 106.526C67.2904 109.052 67.5804 111.601 68.3938 114.006C69.2071 116.411 70.5204 118.613 72.2471 120.47C75.3671 117.246 77.8571 113.461 79.5804 109.316C78.0471 108.992 76.1971 108.35 75.9704 106.794C75.9338 106.256 76.0038 105.715 76.1838 105.207ZM118.854 231.815C118.327 234.371 118.154 236.983 118.334 239.586C118.327 239.736 118.347 239.886 118.4 240.026C118.454 240.167 118.534 240.297 118.637 240.407C118.847 240.534 119.094 240.591 119.337 240.564L142.004 240.501C142.347 240.528 142.69 240.464 143.004 240.32C143.644 239.956 143.694 239.068 143.67 238.316L143.43 232.159L118.854 231.815ZM32.7305 232.002C32.9305 229.514 33.1471 226.958 34.2171 224.703L42.5305 225.482L41.4771 233.339C38.5138 233.319 35.5671 232.868 32.7305 232.002Z" fill="white"/>
<path fill-rule="evenodd" clip-rule="evenodd" d="M83.2434 125.084C83.5367 125.244 83.8734 125.328 84.2067 125.328C84.4367 125.328 84.6667 125.291 84.8767 125.217C89.92 123.444 95.1334 121.606 100.063 119.191C101.987 118.252 103.967 117.143 105.45 115.409C107.26 113.298 108.027 110.599 108.643 108.428L108.673 108.327L108.674 108.324L108.674 108.323L108.675 108.322C108.98 107.246 109.288 106.158 109.577 105.057C109.708 105.127 109.85 105.184 110 105.224C115.823 106.791 120.267 111.742 123.103 115.333C126.99 120.26 130.02 125.762 132.113 131.688C132.55 132.918 133.073 134.207 133.583 135.453C134.517 137.741 135.48 140.107 135.96 142.251C136.17 143.183 136.993 143.818 137.91 143.818C138.057 143.818 138.203 143.801 138.35 143.768C139.427 143.524 140.103 142.452 139.863 141.373C139.31 138.901 138.283 136.375 137.287 133.933L137.241 133.821C136.744 132.603 136.275 131.451 135.883 130.345C133.647 124.005 130.4 118.119 126.24 112.844C123.053 108.809 118.007 103.223 111.037 101.352C110.839 101.299 110.64 101.277 110.445 101.284C110.656 100.176 110.824 99.0532 110.927 97.9148C110.98 97.3302 110.773 96.7489 110.36 96.328C109.947 95.9071 109.37 95.69 108.783 95.7367C104.199 96.0873 100.061 98.1797 96.4095 100.026L96.4034 100.029L96.2434 100.11L96.099 100.182L96.0989 100.182C91.4502 102.527 86.6356 104.955 80.44 107.507C80.299 107.44 80.1492 107.388 79.9933 107.355C78.41 107.021 78.0233 106.614 77.9599 106.524C77.9599 106.33 77.9866 106.139 78.0433 105.956L80.1033 101.563C80.4699 100.781 80.2933 99.849 79.6666 99.2544C79.04 98.6598 78.1033 98.5362 77.3433 98.9471L66.5866 104.76C66.0033 105.077 65.6099 105.665 65.5466 106.33C65.538 106.417 65.53 106.505 65.5226 106.593C65.4666 106.617 65.4112 106.644 65.3566 106.674C56.0866 111.755 49.5433 121.426 44.76 137.113C40.7366 150.359 38.4666 164.256 36.6133 177.301C34.4199 192.691 32.6 208.348 31.2 223.839C31.1428 224.455 31.3717 225.033 31.7786 225.44C31.2344 227.115 31.0048 228.838 30.8531 230.47C27.4577 231.973 25.7227 234.997 26.51 238.153C26.6 238.507 26.78 238.828 27.0367 239.085C30.2767 242.335 29.92 247.189 29.5733 251.883L29.5664 251.974L29.5664 251.975L29.5664 251.975L29.5664 251.975L29.5664 251.975L29.5664 251.975L29.5663 251.975L29.5663 251.976C29.5254 252.519 29.4849 253.055 29.4533 253.58C29.4333 253.907 29.4933 254.235 29.63 254.535C30.46 256.366 31.7833 257.923 33.4533 259.038C34.7087 259.88 36.1186 260.442 37.5937 260.697C37.7381 261.249 37.9689 261.793 38.33 262.309C39.5833 264.093 41.7467 264.53 43.06 264.794L54.3767 266.966C54.5033 266.989 54.63 267.002 54.7533 267.002C55.6933 267.002 56.53 266.334 56.7133 265.379C56.9233 264.293 56.21 263.241 55.1267 263.034L43.8267 260.866C43.12 260.725 41.9333 260.485 41.6 260.011C41.3167 259.61 41.36 258.614 41.3833 258.083C41.5731 253.82 42.0752 249.48 42.5612 245.28L42.5612 245.28L42.5633 245.262L46.5067 211.188L46.6033 210.353L46.6124 210.275C49.3429 186.848 52.166 162.627 57.6333 139.368C57.8867 138.289 57.22 137.21 56.1467 136.956C55.07 136.699 53.9933 137.371 53.74 138.446C48.221 161.922 45.3845 186.253 42.6414 209.784L42.63 209.882L41.1079 223.035C40.3421 222.936 39.6004 222.836 38.8728 222.738L38.2866 222.659C37.3366 222.529 36.37 222.399 35.3566 222.269C36.7266 207.48 38.4766 192.551 40.57 177.865C42.4 164.981 44.64 151.268 48.5833 138.283C52.7451 124.631 58.2006 115.944 65.6581 111.152C65.831 112.332 66.1118 113.5 66.5 114.648C67.41 117.34 68.85 119.759 70.7833 121.837C71.1566 122.238 71.6799 122.468 72.2266 122.475H72.2466C72.7866 122.475 73.3066 122.254 73.6833 121.867C75.0205 120.485 76.2429 119.015 77.3454 117.463L73.5433 177.494L73.5405 177.54C71.7139 206.383 69.8271 236.179 73.0123 265.522C69.3991 265.153 65.8227 264.669 62.2766 264.069C61.1866 263.882 60.1566 264.621 59.9733 265.713C59.7899 266.802 60.5233 267.838 61.6133 268.021C65.8984 268.746 70.2248 269.306 74.6039 269.702C74.8173 269.78 75.0465 269.822 75.2833 269.822C75.3633 269.822 75.4433 269.819 75.5233 269.809C75.5408 269.806 75.5581 269.804 75.5754 269.802C75.595 269.799 75.6145 269.796 75.6338 269.792C80.5681 270.208 85.5702 270.417 90.6566 270.417C102.728 270.417 115.272 269.24 128.479 266.891C130.272 268.274 132.38 269.003 134.703 269.003C134.953 269.003 135.21 268.997 135.467 268.977C139.001 268.744 142.073 266.819 144.132 263.751C144.307 263.745 144.483 263.715 144.66 263.665C145.903 263.278 147.33 263.097 148.837 262.91C152.3 262.479 156.223 261.988 158.987 258.664C159.11 258.517 159.21 258.354 159.287 258.177C159.683 257.251 159.853 256.229 159.777 255.224C159.77 255.137 159.757 255.053 159.74 254.97C158.747 250.194 155.825 242.005 152.998 234.086L152.998 234.085L152.997 234.081C151.027 228.569 149.17 223.361 148.323 220.261C148.269 220.06 148.186 219.875 148.079 219.708C147.804 195.071 147.132 171.515 141.443 146.941C141.193 145.862 140.12 145.191 139.043 145.441C137.967 145.692 137.297 146.768 137.547 147.847C143.64 174.174 143.887 199.509 144.147 226.334C144.153 226.944 144.159 227.556 144.165 228.168V228.168V228.169C144.171 228.769 144.177 229.37 144.183 229.972L118.947 229.558C115.197 200.194 113.903 170.326 115.1 140.751C115.147 139.646 114.287 138.71 113.183 138.667C112.077 138.627 111.147 139.482 111.103 140.588C109.873 170.964 111.253 201.65 115.203 231.792C115.306 232.568 115.841 233.192 116.547 233.431C116.265 235.483 116.192 237.562 116.33 239.633C116.33 240.007 116.393 240.374 116.523 240.725C116.673 241.126 116.897 241.487 117.19 241.794C117.218 241.824 117.247 241.852 117.276 241.88C116.068 242.795 115.067 243.966 114.627 245.375C114.247 246.595 114.13 248.492 115.73 250.597C117.21 252.548 119.253 253.72 121.057 254.753C121.413 254.956 121.767 255.16 122.12 255.371C122.613 255.662 123.153 257.631 123.388 258.493L123.393 258.511C123.557 259.112 123.713 259.68 123.897 260.188C124.32 261.352 124.822 262.411 125.395 263.358C108.292 266.233 92.3418 267.073 77.0783 265.888C73.8065 236.615 75.702 206.698 77.5367 177.748L81.2329 119.389L82.2434 123.784C82.3734 124.339 82.7434 124.81 83.2434 125.084ZM32.6412 234.067C31.975 234.346 30.2665 235.211 30.3267 236.737C34.3685 241.238 33.9236 247.282 33.5637 252.172L33.5633 252.177C33.5536 252.315 33.5434 252.451 33.5333 252.588C33.5156 252.825 33.4981 253.06 33.4833 253.296C34.0067 254.265 34.76 255.09 35.6767 255.704C36.2297 256.074 36.83 256.358 37.4588 256.55C37.6855 252.627 38.1375 248.713 38.5761 244.915L38.59 244.794L39.6905 235.284C37.3043 235.138 34.9425 234.73 32.6412 234.067ZM40.1521 231.295L40.6467 227.02C39.6463 226.891 38.6891 226.761 37.7533 226.635L37.2832 226.572L37.2814 226.571L37.2791 226.571L37.276 226.571L37.2721 226.57C36.754 226.501 36.2289 226.43 35.6934 226.359C35.2259 227.648 35.0099 229.072 34.8667 230.513C36.6002 230.938 38.3699 231.201 40.1521 231.295ZM120.28 238.564C120.22 236.901 120.315 235.237 120.565 233.592L141.496 233.937L141.67 238.383C141.672 238.412 141.673 238.439 141.673 238.464C141.673 238.478 141.673 238.491 141.673 238.504V238.504L120.28 238.564ZM145.667 238.236L145.502 234.003L146.173 234.014H146.207C146.733 234.014 147.243 233.804 147.613 233.433C147.89 233.158 148.078 232.81 148.159 232.434C148.476 233.326 148.801 234.236 149.128 235.155L149.139 235.184L149.139 235.184L149.139 235.185L149.139 235.186L149.227 235.431L149.239 235.465C151.859 242.809 154.821 251.112 155.79 255.641C155.797 255.875 155.767 256.112 155.7 256.336C153.947 258.23 151.337 258.557 148.337 258.932C147.623 259.02 146.899 259.111 146.175 259.227C146.278 258.855 146.37 258.474 146.45 258.086C147.459 253.192 146.619 248.343 145.806 243.655L145.803 243.638C145.713 243.124 145.627 242.613 145.54 242.102C145.473 241.704 145.295 241.354 145.042 241.077C145.723 240.038 145.684 238.757 145.667 238.236ZM123.459 242.555L141.57 242.504C141.573 242.59 141.582 242.678 141.597 242.766C141.669 243.199 141.744 243.631 141.819 244.066L141.82 244.075L141.823 244.089L141.823 244.091L141.823 244.092L141.863 244.323L141.866 244.338C142.615 248.659 143.389 253.124 142.533 257.271C141.417 262.666 138.017 264.788 135.2 264.975C130.913 265.252 128.733 261.781 127.653 258.811C127.527 258.457 127.39 257.966 127.25 257.448L127.247 257.439C126.711 255.48 126.044 253.04 124.163 251.923C123.882 251.756 123.598 251.592 123.312 251.428L123.303 251.423L123.04 251.272L123.038 251.27L123.037 251.27C121.425 250.345 119.899 249.47 118.91 248.168C118.227 247.27 118.383 246.765 118.443 246.575C118.757 245.569 120.33 244.403 122.183 243.802C122.805 243.603 123.26 243.128 123.459 242.555ZM85.64 120.698L83.33 110.642C89.0734 108.217 93.63 105.919 98.0367 103.691L98.2 103.607C100.913 102.234 103.7 100.828 106.59 100.133C106.176 102.462 105.522 104.771 104.841 107.179L104.841 107.179L104.827 107.228L104.8 107.329C104.24 109.306 103.657 111.351 102.42 112.797C101.36 114.033 99.7434 114.885 98.3134 115.587C94.2634 117.571 89.9267 119.178 85.64 120.698ZM69.4599 107.766C69.3966 109.67 69.6766 111.548 70.2899 113.365C70.7799 114.815 71.4633 116.164 72.33 117.401C74.11 115.299 75.6166 113.001 76.8333 110.532C75.1666 109.757 74.2133 108.601 73.9899 107.085L73.9878 107.069L73.9878 107.069L73.9878 107.069C73.9819 107.025 73.9763 106.982 73.9733 106.938C73.9333 106.37 73.9733 105.809 74.09 105.257L69.4599 107.766Z" fill="black"/>
</g>
<path d="M107.087 65.4556C109.397 62.7297 108.68 58.0094 105.667 56.1019C104.587 55.4138 103.22 54.9862 102.63 53.8504C101.964 52.5977 102.567 51.0977 102.917 49.7281C102.917 49.6847 102.94 49.6379 102.954 49.5945C103.954 45.4655 99.2437 42.4022 95.8137 44.9009C91.5303 48.021 86.6637 50.2459 81.5037 51.4452C78.837 52.0598 75.5604 52.1801 73.9137 49.9953C72.9404 48.6992 72.707 46.7416 70.247 46.9253C69.5304 46.9855 68.8404 47.236 68.247 47.6469C63.8437 50.6234 58.807 52.5175 53.537 53.1823C52.0637 53.366 50.537 53.4495 49.1137 53.0253C45.027 51.8059 43.1703 46.5913 44.4037 42.5024C45.637 38.4135 49.1203 35.3902 52.8003 33.2255C55.0803 31.8893 57.6203 30.66 58.9937 28.3917C59.8003 27.0555 60.117 25.4653 60.927 24.1324C61.737 22.7995 63.0037 21.794 64.2937 20.8854C71.2437 16.0649 79.5537 13.6129 88.0003 13.8835C93.0003 14.0572 98.877 16.0716 99.957 20.9555L107.624 24.1926C113.524 25.1012 119.524 27.0922 123.7 31.3682C127.877 35.6441 129.7 42.6293 126.7 47.8039C126.307 48.472 125.82 49.1802 125.84 49.9686C125.867 50.9708 126.704 51.7592 127.397 52.5008C128.61 53.817 129.534 55.3737 130.104 57.0707C130.674 58.7677 130.88 60.565 130.71 62.3489C130.554 63.8989 130.044 65.5024 128.884 66.5279C127.724 67.5535 125.747 67.764 124.65 66.6616L108.017 69.2171L107.087 65.4556Z" fill="black"/>
<path d="M52.9371 53.3582C50.7871 58.9002 49.4938 63.9044 49.1671 66.9344C48.3438 74.5643 49.8804 83.0427 55.7038 88.4779C58.8071 91.3708 62.6504 92.7939 66.7604 93.5188C71.0471 94.2771 75.6471 94.9686 79.8071 93.2649C79.5871 96.7425 79.5538 99.2246 79.7138 102.705L103.214 100.093C102.834 95.5198 103.68 91.598 105.667 87.4623C106.117 86.527 107.084 86.537 108.04 86.233C108.89 85.9657 109.724 85.6584 110.547 85.311C112.217 84.6161 113.794 83.7175 115.247 82.6385C118.12 80.4638 120.36 77.4105 121.2 73.8694C121.964 70.6591 121.427 66.8375 117.867 65.0302C115.357 63.7608 113.107 64.2118 109.284 67.5791L107.117 65.4678C109.427 62.7419 108.71 58.0217 105.697 56.1142C104.617 55.426 103.25 54.9984 102.66 53.8626C101.994 52.6099 102.597 51.11 102.947 49.7403C102.947 49.6969 102.97 49.6501 102.984 49.6067C103.984 45.4777 99.2738 42.4144 95.8438 44.9132C91.5604 48.0333 86.6938 50.2581 81.5338 51.4574C78.8671 52.0721 75.5904 52.1923 73.9438 50.0076C72.9704 48.7114 72.7371 46.7538 70.2771 46.9376C69.5604 46.9977 68.8704 47.2482 68.2771 47.6591C63.8638 50.6356 58.8138 52.5264 53.5371 53.1845" fill="#FFD39F"/>
<path d="M126.573 69.41C125.323 69.41 124.11 68.9657 123.223 68.0771C122.443 67.2921 122.447 66.0226 123.227 65.2409C124.01 64.4592 125.277 64.4626 126.057 65.2443C126.307 65.4948 127.09 65.4314 127.55 65.0238C128.167 64.4793 128.577 63.4571 128.71 62.1442C128.853 60.6409 128.683 59.1477 128.197 57.7079C127.713 56.2681 126.947 54.9753 125.917 53.8595L125.747 53.6791C124.957 52.844 123.873 51.7015 123.83 50.0212C123.797 48.7351 124.4 47.7295 124.84 46.9946L124.967 46.7842C127.62 42.2042 125.557 36.141 122.26 32.7704C118.983 29.4164 113.953 27.1982 107.31 26.1727C106.217 26.0056 105.47 24.9801 105.637 23.8877C105.803 22.7953 106.827 22.0437 107.917 22.2107C115.437 23.3699 121.223 25.9789 125.12 29.9643C127.483 32.3828 129.16 35.5364 129.84 38.8436C130.577 42.4213 130.073 45.959 128.42 48.8119L128.27 49.0624C128.117 49.3163 127.863 49.7372 127.833 49.911C127.903 50.1348 128.37 50.6258 128.65 50.9232L128.847 51.1303C130.27 52.6736 131.323 54.4508 131.99 56.4285C132.657 58.4061 132.89 60.4606 132.693 62.5384C132.453 64.9035 131.593 66.7977 130.2 68.0303C129.157 68.949 127.847 69.41 126.573 69.41Z" fill="black"/>
<path d="M107.087 67.459C106.63 67.459 106.17 67.302 105.793 66.9813C104.95 66.2631 104.85 65.0003 105.563 64.1552C106.28 63.31 106.59 62.0439 106.397 60.7678C106.203 59.495 105.53 58.3826 104.6 57.7947C104.37 57.6477 104.1 57.504 103.813 57.3504C102.817 56.8192 101.573 56.1544 100.857 54.7748C99.9233 53.0209 100.44 51.1736 100.82 49.8207C100.867 49.6536 100.913 49.4866 100.957 49.3229C100.977 49.216 101.003 49.1191 101.03 49.039C101.357 47.5156 100.313 46.6772 99.9799 46.4533C99.2499 45.9623 98.0833 45.7251 96.9933 46.5168C92.4666 49.814 87.4099 52.1257 81.9599 53.3918C77.5099 54.4173 74.1766 53.659 72.3233 51.197C71.9933 50.7594 71.7499 50.3117 71.5366 49.9175C70.9699 48.8753 70.9499 48.8753 70.3999 48.9187C70.0499 48.9488 69.6966 49.0757 69.3932 49.2862C64.7299 52.4363 59.3433 54.4641 53.7933 55.1623C52.2266 55.3594 50.3799 55.483 48.5499 54.9384C46.3866 54.2937 44.5499 52.737 43.3766 50.5589C41.9766 47.9533 41.6466 44.7229 42.4933 41.9135C43.6999 37.9148 46.8266 34.4071 51.7933 31.4875C52.0999 31.3071 52.4066 31.1334 52.7166 30.9563C54.5933 29.884 56.3633 28.8718 57.2899 27.3418C57.5999 26.8307 57.8399 26.2026 58.0966 25.5379C58.4066 24.7328 58.7266 23.901 59.2266 23.0792C60.2333 21.4189 61.7099 20.2497 63.1499 19.2342C70.4133 14.1965 79.2566 11.5875 88.0699 11.8681C93.6199 12.0619 100.573 14.4404 101.917 20.5103C102.157 21.5926 101.477 22.6616 100.397 22.9021C99.3199 23.1393 98.2499 22.4612 98.0099 21.3788C97.2166 17.791 92.3799 16.0305 87.9366 15.8769C79.9799 15.6163 71.9866 17.9814 65.4366 22.5246C64.3599 23.283 63.2666 24.1348 62.6399 25.1671C62.3266 25.6815 62.0833 26.3129 61.8266 26.981C61.5199 27.7794 61.2033 28.6045 60.7099 29.4196C59.2466 31.8382 56.8299 33.2212 54.6966 34.4372C54.3999 34.6076 54.1066 34.7746 53.8133 34.945C49.7466 37.3368 47.2266 40.0728 46.3199 43.0727C45.7833 44.8565 46.0033 46.9945 46.8966 48.6548C47.3666 49.5267 48.2299 50.6591 49.6866 51.0934C50.8099 51.4275 52.1399 51.3273 53.2933 51.1836C58.2233 50.5623 63.0099 48.7617 67.1333 45.9756C67.9899 45.381 69.0166 45.0102 70.0833 44.92C73.2466 44.6795 74.4199 46.8408 75.0499 48C75.2132 48.3007 75.3666 48.5846 75.5166 48.7817C76.6632 50.305 79.7766 49.7806 81.0599 49.4833C85.9832 48.3408 90.5533 46.2496 94.6433 43.2697C96.9132 41.6162 99.8833 41.556 102.21 43.1161C104.497 44.6494 105.553 47.3753 104.903 50.0545C104.893 50.0946 104.883 50.1313 104.87 50.1714C104.87 50.1748 104.87 50.1781 104.867 50.1781C104.863 50.1881 104.86 50.2015 104.86 50.2115C104.803 50.4353 104.74 50.6625 104.677 50.893C104.47 51.6279 104.217 52.5432 104.403 52.894C104.557 53.1913 105.14 53.502 105.703 53.8026C106.043 53.983 106.393 54.1701 106.75 54.3973C108.67 55.6132 109.987 57.7111 110.36 60.1498C110.733 62.5951 110.1 64.997 108.623 66.7374C108.217 67.2185 107.653 67.459 107.087 67.459ZM104.917 49.7305C104.917 49.7338 104.917 49.7338 104.917 49.7305C104.917 49.7338 104.917 49.7338 104.917 49.7305ZM104.917 49.7271V49.7305V49.7271Z" fill="black"/>
<path d="M62.8099 62.5696C64.0986 62.5696 65.1432 61.2983 65.1432 59.7301C65.1432 58.1619 64.0986 56.8906 62.8099 56.8906C61.5212 56.8906 60.4766 58.1619 60.4766 59.7301C60.4766 61.2983 61.5212 62.5696 62.8099 62.5696Z" fill="black"/>
<path d="M74.1439 63.3548C75.4325 63.3548 76.4772 62.0835 76.4772 60.5153C76.4772 58.9471 75.4325 57.6758 74.1439 57.6758C72.8552 57.6758 71.8105 58.9471 71.8105 60.5153C71.8105 62.0835 72.8552 63.3548 74.1439 63.3548Z" fill="black"/>
<path d="M103.196 100.081C102.17 100.081 101.293 99.2927 101.206 98.2438C100.783 93.2128 101.76 90.9112 103.833 86.5818C104.593 85.0017 106.03 84.6542 106.89 84.4471C107.076 84.4003 107.253 84.3603 107.406 84.3101C108.2 84.0596 108.983 83.7723 109.74 83.4516C111.27 82.8169 112.706 81.9985 114.026 81.0163C116.686 79.0019 118.54 76.2927 119.226 73.3931C119.58 71.9332 120.06 68.3855 116.936 66.8054C115.573 66.1139 114.236 65.8433 110.573 69.0704C109.743 69.8019 108.48 69.7184 107.75 68.8866C107.02 68.0548 107.103 66.7887 107.933 66.0571C113.193 61.4237 116.233 61.9582 118.736 63.2243C122.616 65.1886 124.293 69.4412 123.113 74.3251C122.213 78.12 119.836 81.6377 116.423 84.22C114.83 85.4059 113.103 86.388 111.283 87.143C110.42 87.5071 109.516 87.8412 108.606 88.1251C108.33 88.212 108.063 88.2788 107.83 88.3356C107.683 88.3723 107.493 88.4157 107.37 88.4558C105.453 92.4645 104.86 93.9711 105.193 97.8997C105.286 99.0021 104.47 99.9709 103.37 100.064C103.31 100.078 103.253 100.081 103.196 100.081Z" fill="black"/>
<path d="M79.7126 103.036C78.6493 103.036 77.766 102.197 77.716 101.122C77.6093 98.7698 77.586 97.5873 77.6526 95.9738C73.646 96.7488 69.566 96.0372 66.4193 95.486C61.336 94.5874 57.386 92.7735 54.3426 89.9373C48.7493 84.716 46.1393 76.2509 47.1793 66.7068C47.5693 63.1691 49.0226 57.9043 51.0726 52.6229C51.4726 51.5906 52.6326 51.0795 53.6626 51.4804C54.6926 51.8813 55.2026 53.0438 54.8026 54.076C52.5293 59.9354 51.4293 64.669 51.156 67.1444C50.2526 75.4124 52.406 82.6515 57.0693 87.0009C59.5626 89.326 62.7526 90.7658 67.1093 91.5341C71.5626 92.3125 75.5393 92.8369 79.0526 91.3971C79.6893 91.1366 80.416 91.2234 80.976 91.6243C81.536 92.0285 81.8493 92.69 81.806 93.3781C81.5926 96.7388 81.556 97.4804 81.716 100.928C81.766 102.034 80.9126 102.972 79.8093 103.022C79.7726 103.036 79.7426 103.036 79.7126 103.036Z" fill="black"/>
</g>
<defs>
<clipPath id="clip0_805_37747">
<rect width="180" height="180" rx="24" fill="white"/>
</clipPath>
<clipPath id="clip1_805_37747">
<rect width="200" height="200.436" fill="white" transform="translate(-10 95.2734)"/>
</clipPath>
</defs>
</svg>
