<svg width="180" height="180" viewBox="0 0 180 180" fill="none" xmlns="http://www.w3.org/2000/svg">
<g clip-path="url(#clip0_805_33305)">
<rect width="180" height="180" rx="24" fill="white"/>
<g clip-path="url(#clip1_805_33305)">
<path d="M103.124 95.2734C103.424 98.6474 104.8 106.271 109.924 105.128L110.474 105.963C110.224 111.198 107.577 114.889 103.43 118.714C99.2171 122.539 93.8437 124.838 88.1737 125.242C83.1737 125.609 77.8571 124.41 74.1171 121.049C70.3771 117.689 68.4104 113.032 70.8871 109.04H71.2471C72.3737 109.073 73.4104 108.482 74.3637 107.881C75.5771 107.113 76.6104 103.662 77.3604 102.756C78.3604 101.457 80.2337 96.8302 80.7471 95.2734H103.124V95.2734Z" fill="#FFD39F"/>
<path d="M137.443 188.427C144.826 211.337 149.963 228.909 156.71 251.02C157.043 252.149 158.376 256.141 157.76 257.14C157.346 257.808 156.653 258.236 155.976 258.62C152.276 260.728 148.236 260.905 144.063 261.747L128.573 264.837C106.403 268.822 84.1529 269.798 61.9429 266.043L57.7529 265.552L43.4196 262.803C42.1262 262.555 40.7062 262.225 39.9496 261.132C39.3229 260.237 39.3262 259.058 39.3729 257.965C39.5629 253.623 40.0629 249.313 40.5629 245L44.5062 210.926C46.1962 196.328 47.8896 181.706 50.1929 167.198L50.0329 167.148C46.1562 165.812 42.3396 164.328 38.5196 162.842C37.9929 162.692 37.5196 162.398 37.1462 161.997C36.3962 161.028 37.0396 159.638 37.6829 158.593C43.3629 149.339 48.2196 139.605 52.2029 129.499C55.2429 121.783 58.4162 113.1 65.8362 109.422L81.3429 111.196L110.52 103.289C115.623 104.659 119.81 108.327 123.246 112.352C127.59 117.44 131.033 123.236 133.433 129.486C138.743 143.326 138.746 158.927 145.15 172.296C142.113 173.198 139.03 173.923 135.913 174.474L137.443 188.427Z" fill="black"/>
<path fill-rule="evenodd" clip-rule="evenodd" d="M83.266 123C81.7027 119.93 80.766 116.579 80.516 113.142C88.9427 105.772 97.5327 101.683 106.469 98.6402C107.023 98.4531 107.779 98.3362 108.073 98.844C108.183 99.0945 108.209 99.3751 108.153 99.6457L107.556 104.947C107.276 107.429 106.966 110.002 105.666 112.136C104.293 114.398 101.966 115.888 99.666 117.197C95.156 119.766 90.436 121.951 85.5593 123.725C85.0193 123.922 84.3827 124.106 83.8927 123.805C83.616 123.598 83.3993 123.321 83.266 123ZM75.8693 106.297C75.696 104.279 76.696 102.362 77.666 100.584C78.2493 100.544 77.626 99.4987 76.8527 99.3984C76.0793 99.2982 75.3627 99.816 74.746 100.3C72.2127 102.281 69.746 104.376 67.626 106.795C67.2093 107.139 66.9127 107.603 66.7693 108.124C66.6293 108.645 66.6493 109.196 66.8327 109.704C67.636 113.355 68.9293 116.88 70.676 120.184C70.956 120.715 71.436 121.323 72.0093 121.159C72.2493 121.066 72.456 120.905 72.6093 120.698L76.736 116.021C78.3227 114.227 80.0093 112.173 79.896 109.778C77.946 110.305 76.0427 108.314 75.8693 106.297Z" fill="white"/>
<path fill-rule="evenodd" clip-rule="evenodd" d="M39.3859 257.979C39.5759 253.643 40.0759 249.326 40.5759 245.014L44.5226 210.953C46.1893 196.371 47.8893 181.763 50.1893 167.265L50.0359 167.175C47.3126 166.239 44.6193 165.227 41.9326 164.191L41.7959 164.86L36.8326 224.078C36.6293 226.487 36.3359 229.133 34.4826 230.759C33.7605 231.393 32.8412 231.821 31.9344 232.242C30.5137 232.903 29.124 233.549 28.5726 234.952C27.8647 236.755 28.9842 238.42 30.1354 240.131C30.746 241.039 31.3655 241.96 31.7259 242.923C32.4237 244.767 32.1383 246.813 31.856 248.837C31.5313 251.164 31.2106 253.463 32.3926 255.396C33.7526 257.621 36.5726 258.383 39.1359 258.844L39.3859 257.979ZM124.556 241.306C121.873 219.615 120.223 197.865 119.603 176.05L136.056 175.536C136.858 182.798 137.66 190.061 138.463 197.326C140.385 214.729 142.308 232.139 144.229 249.554C144.733 254.103 145.126 259.114 142.486 262.852C141.473 264.286 140.083 265.411 138.469 266.096C136.856 266.781 135.086 267.005 133.353 266.738C131.619 266.47 129.996 265.725 128.663 264.586C127.329 263.447 126.339 261.961 125.803 260.287C125.608 259.677 125.471 259.042 125.335 258.41C125.051 257.095 124.77 255.79 123.973 254.731C123.133 253.614 121.847 252.951 120.572 252.294C119.113 251.541 117.668 250.796 116.919 249.387C115.883 247.426 116.729 244.86 118.399 243.417C120.069 241.974 122.353 241.443 124.556 241.306Z" fill="#FFD39F"/>
<path fill-rule="evenodd" clip-rule="evenodd" d="M84.4997 125.966C83.9764 125.966 83.4031 125.852 82.8497 125.512C82.7997 125.481 82.7531 125.448 82.7064 125.415C82.1597 125.01 81.7297 124.469 81.4564 123.848C80.3186 121.604 79.4985 119.245 79.0045 116.805C78.7904 117.055 78.5851 117.287 78.3964 117.501L74.3131 122.124C73.9464 122.592 73.4598 122.956 72.9064 123.173C72.8431 123.196 72.7798 123.22 72.7164 123.237C72.5664 123.273 72.3064 123.33 71.9798 123.33C71.1764 123.33 69.9831 122.986 69.0731 121.262C67.5121 118.311 66.298 115.188 65.4518 111.958C59.8821 115.473 57.1109 122.527 54.4264 129.363L54.0764 130.252C50.0631 140.437 45.1231 150.332 39.3998 159.659C39.0198 160.277 38.8898 160.641 38.8464 160.828C38.9198 160.872 38.9998 160.908 39.0864 160.932C39.1464 160.949 39.2031 160.969 39.2598 160.989L39.3398 161.019L39.3934 161.04C42.413 162.214 45.5158 163.421 48.6195 164.535C50.0495 155.778 51.7126 147.054 53.7364 138.446C53.9897 137.371 55.0631 136.699 56.1431 136.956C57.2164 137.21 57.8831 138.289 57.6297 139.368C52.1624 162.627 49.3393 186.848 46.6088 210.275L46.5997 210.353L46.5031 211.188L42.5597 245.262L42.5577 245.28C42.0716 249.48 41.5695 253.82 41.3797 258.083C41.3564 258.614 41.3131 259.61 41.5964 260.011C41.9297 260.485 43.1164 260.725 43.8231 260.866L55.4264 263.091C56.5097 263.298 57.2231 264.35 57.0131 265.436C56.8364 266.391 55.9997 267.059 55.0564 267.059C54.9331 267.059 54.8064 267.046 54.6797 267.022L43.0564 264.794C41.7431 264.53 39.5797 264.093 38.3264 262.309C37.9353 261.75 37.6971 261.158 37.5559 260.56C34.9093 259.973 32.2236 258.931 30.6964 256.433C29.1331 253.884 29.5297 251.041 29.8797 248.536C30.1364 246.708 30.3764 244.981 29.8631 243.618C29.5945 242.895 29.0809 242.128 28.5357 241.313L28.5357 241.313L28.4864 241.24L28.4863 241.24C27.213 239.345 25.6298 236.99 26.7197 234.208C27.5714 232.054 29.5453 231.131 31.1304 230.39L31.1397 230.386C31.9364 230.015 32.6864 229.665 33.1764 229.237C34.3931 228.175 34.6597 226.107 34.8464 223.899L39.7423 165.484C39.1217 165.243 38.504 165.003 37.8898 164.763L37.8831 164.76C37.0464 164.5 36.2898 164.025 35.6931 163.38C35.6531 163.337 35.6164 163.294 35.5798 163.247C34.4398 161.774 34.5798 159.863 35.9931 157.561C41.5931 148.435 46.4264 138.75 50.3564 128.782L50.7031 127.897C53.7164 120.22 57.1331 111.521 64.9631 107.643C64.9957 107.626 65.0285 107.611 65.0615 107.597C65.3276 106.823 65.7693 106.116 66.3464 105.538C68.5798 103.089 71.0498 100.838 73.6931 98.8435C74.3798 98.309 75.6398 97.3302 77.2831 97.5507C78.5764 97.7244 80.4264 99.0272 80.3731 100.681C80.3531 101.282 80.0998 101.813 79.6898 102.187L79.6891 102.189L79.6891 102.189C79.5926 102.355 79.4962 102.522 79.3998 102.692L79.3947 102.701C78.6762 103.947 77.9333 105.237 78.0198 106.28C78.0598 106.764 78.4098 107.312 80.6531 108.013C81.289 108.212 81.7724 108.709 81.9661 109.326C88.7645 103.938 96.2688 99.9936 105.83 96.739C107.893 96.0408 109.236 96.8492 109.806 97.8347C109.843 97.9015 109.876 97.9683 109.906 98.0351C110.17 98.6398 110.246 99.2945 110.133 99.9426L109.973 101.371C110.311 101.274 110.679 101.264 111.043 101.362C115.8 102.638 120.293 105.812 124.773 111.06C129.276 116.335 132.82 122.298 135.306 128.779C137.77 135.203 139.126 142.017 140.436 148.608L140.447 148.661L140.447 148.661L140.447 148.661L140.447 148.661L140.447 148.661L140.447 148.661C142.053 156.736 143.57 164.365 146.96 171.441C147.213 171.972 147.223 172.584 146.983 173.122C146.743 173.659 146.283 174.064 145.723 174.231C143.229 174.964 140.72 175.585 138.198 176.093L139.551 188.458C144.766 204.662 148.886 218.288 153.23 232.655L153.37 233.119C155.043 238.661 156.776 244.39 158.62 250.433C158.66 250.567 158.703 250.71 158.756 250.877C159.88 254.539 160.323 256.79 159.46 258.193C158.8 259.262 157.823 259.874 156.96 260.365C153.859 262.131 150.588 262.669 147.423 263.19L147.416 263.191L147.303 263.209L147.302 263.21C146.365 263.364 145.401 263.523 144.456 263.715C144.4 263.725 144.344 263.733 144.288 263.739C144.226 263.833 144.162 263.927 144.096 264.019C142.866 265.756 141.183 267.113 139.226 267.944C137.806 268.546 136.293 268.85 134.766 268.85C134.183 268.85 133.6 268.806 133.016 268.716C131.354 268.46 129.778 267.841 128.391 266.907C115.216 269.246 102.701 270.416 90.6564 270.416C80.6931 270.416 71.0531 269.618 61.6131 268.021C60.5231 267.838 59.7898 266.802 59.9731 265.713C60.1564 264.621 61.1864 263.882 62.2764 264.069C81.9075 267.388 102.469 267.177 125.037 263.418C124.551 262.629 124.159 261.781 123.873 260.889C123.65 260.181 123.5 259.493 123.36 258.825C123.11 257.649 122.89 256.633 122.36 255.925C121.796 255.18 120.753 254.639 119.646 254.068L119.641 254.065C118.019 253.227 116.182 252.278 115.14 250.316C113.743 247.667 114.58 244.046 117.09 241.888C118.44 240.725 120.196 239.944 122.326 239.553C119.877 219.09 118.327 198.301 117.712 177.707C114.867 177.589 112.016 177.329 109.163 176.927C108.153 176.783 107.413 175.904 107.443 174.885L108.353 142.876C108.383 141.77 109.303 140.888 110.41 140.928C111.513 140.958 112.383 141.884 112.353 142.989L111.493 173.188C121.89 174.431 132.26 173.696 142.373 171C139.427 164.058 137.947 156.614 136.511 149.39L136.51 149.383C135.233 142.956 133.913 136.315 131.57 130.212C129.246 124.159 125.936 118.59 121.73 113.662C117.793 109.052 113.956 106.293 110.006 105.234C109.847 105.191 109.697 105.13 109.559 105.054L109.546 105.167C109.273 107.599 108.93 110.623 107.376 113.175C105.72 115.904 103.04 117.578 100.656 118.934C96.0597 121.553 91.2131 123.794 86.2431 125.602C85.9131 125.729 85.2597 125.966 84.4997 125.966ZM82.6031 113.986C82.9164 116.719 83.6931 119.351 84.9164 121.827C89.6597 120.1 94.2897 117.955 98.6797 115.456C100.626 114.347 102.8 113.008 103.96 111.097C105.054 109.304 105.315 106.985 105.568 104.741V104.741L105.57 104.726L105.996 100.928C96.5631 104.252 89.2664 108.324 82.6031 113.986ZM146.77 259.232C146.555 259.267 146.338 259.302 146.121 259.338C146.919 255.811 146.514 252.099 146.214 249.346L146.213 249.341L141.778 208.808C144.415 217.327 146.868 225.443 149.397 233.81L149.398 233.812L149.54 234.281C151.213 239.827 152.946 245.559 154.786 251.589C154.823 251.712 154.873 251.873 154.93 252.057C155.713 254.615 155.913 255.751 155.92 256.246C155.692 256.47 155.3 256.695 155.027 256.852L154.983 256.877C152.508 258.289 149.734 258.745 146.798 259.228L146.77 259.232ZM135.536 189.043C135.427 188.703 135.412 188.355 135.479 188.027L134.25 176.792C130.097 177.429 125.916 177.76 121.718 177.781C122.351 198.859 123.973 220.136 126.54 241.056C126.606 241.604 126.446 242.155 126.093 242.583C125.74 243.007 125.23 243.267 124.68 243.301C122.47 243.438 120.793 243.986 119.7 244.928C118.61 245.866 118.153 247.44 118.68 248.435C119.131 249.287 120.215 249.848 121.469 250.496L121.483 250.503L121.498 250.511C122.881 251.227 124.447 252.038 125.556 253.51C126.622 254.925 126.969 256.546 127.275 257.979L127.276 257.983L127.295 258.071L127.295 258.071L127.296 258.071L127.296 258.072C127.418 258.64 127.534 259.178 127.69 259.67C128.11 260.983 128.89 262.155 129.94 263.057C130.99 263.956 132.27 264.544 133.633 264.754C135 264.965 136.393 264.791 137.666 264.253C138.94 263.712 140.033 262.83 140.833 261.701C142.996 258.644 142.733 254.318 142.236 249.778L135.618 189.296L135.536 189.043ZM47.9767 168.571C45.8344 182.363 44.2205 196.207 42.6378 209.784L42.6264 209.882L38.5864 244.794L38.5725 244.914C38.1393 248.666 37.6931 252.53 37.4638 256.405C36.0321 255.999 34.7481 255.385 34.1031 254.332C33.2931 253.009 33.5464 251.192 33.8397 249.087L33.8397 249.087L33.8423 249.068C34.1384 246.935 34.4739 244.517 33.6064 242.205C33.1631 241.023 32.4731 239.994 31.8031 238.998C30.7564 237.441 30.1397 236.439 30.4397 235.678C30.7028 235.007 31.6847 234.549 32.8234 234.019L32.8264 234.017C33.7931 233.566 34.8864 233.055 35.8031 232.257C38.1497 230.212 38.5864 227.172 38.8331 224.233L43.6319 166.977C45.0724 167.521 46.5227 168.056 47.9767 168.571ZM68.9231 109.286C68.8831 109.139 68.8631 108.992 68.8698 108.842C68.9398 108.665 69.0498 108.501 69.1898 108.364C69.2198 108.334 69.2464 108.307 69.2731 108.277C70.9331 106.453 72.7331 104.75 74.6464 103.19C74.2131 104.235 73.9398 105.371 74.0431 106.61C74.2631 109.243 76.2231 110.556 77.8631 111.26C77.4398 112.46 76.4331 113.672 75.4064 114.835L72.1598 118.51C70.7231 115.62 69.6464 112.563 68.9531 109.406L68.9231 109.286ZM77.4998 129.347C78.5123 129.347 79.3331 128.524 79.3331 127.509C79.3331 126.494 78.5123 125.672 77.4998 125.672C76.4873 125.672 75.6664 126.494 75.6664 127.509C75.6664 128.524 76.4873 129.347 77.4998 129.347ZM77.9997 140.203C77.9997 141.218 77.1789 142.041 76.1664 142.041C75.1539 142.041 74.3331 141.218 74.3331 140.203C74.3331 139.189 75.1539 138.366 76.1664 138.366C77.1789 138.366 77.9997 139.189 77.9997 140.203Z" fill="black"/>
</g>
<path d="M50.493 87.6528C49.9497 88.5548 49.1797 89.2998 48.263 89.8109C47.343 90.322 46.3064 90.5825 45.2564 90.5692C44.2064 90.5525 43.1764 90.2619 42.273 89.724C41.3697 89.1862 40.623 88.4212 40.103 87.5025C39.0864 85.6952 38.6464 83.0629 36.6164 82.6653C34.9297 82.3313 33.553 83.898 32.283 85.0572C30.7664 86.4302 28.7997 87.419 26.7564 87.3689C24.713 87.3188 22.6364 86.0627 22.0097 84.1118C21.113 81.3291 23.2297 78.4629 23.213 75.5432C23.253 74.7548 22.993 73.9831 22.4864 73.3785C21.3097 72.1558 19.2964 72.7738 17.6097 72.6135C14.083 72.2794 11.943 68.0101 12.8097 64.5693C13.6764 61.1285 16.653 58.603 19.8097 56.9995C22.9664 55.3961 26.443 54.4774 29.5864 52.8338C33.483 50.786 36.7397 47.6993 38.9997 43.9144C40.7597 40.9647 41.8697 37.6508 43.7364 34.7679C47.0697 29.6367 52.5464 26.2627 58.243 24.0546C63.9397 21.8465 69.9664 20.6539 75.7997 18.8466C80.1797 17.4903 84.623 15.7666 89.1864 16.1741C92.2097 16.4447 95.393 17.9346 96.5197 20.7541L104.336 23.5101C113.576 23.8842 122.42 29.5699 126.61 37.8345C128.05 40.6674 129.003 43.8142 131.07 46.2261C133.903 49.5333 138.736 51.3907 139.896 55.5798C141.433 61.1085 135.496 66.0425 135.13 71.7683C134.923 74.9853 136.463 78.513 134.796 81.269C133.353 83.6475 130.13 84.2922 128.3 86.3901C126.116 88.8889 126.19 93.1214 123.37 94.8652C122.26 95.55 117.966 96.3584 116.786 95.8139C111.946 93.5857 111.436 96.5923 107.343 96.9798" fill="black"/>
<path d="M103.213 100.093C102.833 95.5202 103.68 91.5983 105.667 87.4627C106.117 86.5273 107.083 86.5373 108.04 86.2333C108.89 85.9661 109.723 85.6587 110.547 85.3113C112.217 84.6165 113.793 83.7179 115.247 82.6388C118.12 80.4641 120.36 77.4108 121.2 73.8698C121.963 70.6595 121.427 66.8378 117.867 65.0306C115.357 63.7611 113.107 64.2121 109.283 67.5794L106.313 66.8278C102.52 66.5973 99.53 63.2701 98.2866 59.6756C97.0433 56.0811 97.1233 52.1826 96.8466 48.3877C96.7233 46.694 96.4566 44.86 95.2333 43.6841C93.9 42.408 91.87 42.3112 90.03 42.2844L87.0966 41.2823C85.9666 40.0563 84.5833 39.0908 83.0466 38.4461C81.51 37.8047 79.8533 37.5007 78.1866 37.5575C76.5233 37.6143 74.89 38.0285 73.4 38.7735C71.91 39.5184 70.5966 40.5774 69.55 41.8769C68.3 43.4303 67.3566 45.3845 65.55 46.2364C63.7433 47.0882 61.6933 46.5938 59.73 46.6306C57.7666 46.6673 55.4266 47.733 55.3766 49.6972L52.9566 53.3719C50.8066 58.9139 49.5133 63.9181 49.1866 66.9481C48.3633 74.578 49.9 83.0564 55.7233 88.4916C58.8266 91.3845 62.67 92.8076 66.78 93.5325C71.0666 94.2908 75.6666 94.9823 79.8266 93.2786C79.6066 96.7562 79.5733 99.2383 79.7333 102.719" fill="#FFD39F"/>
<path d="M45.343 92.5836C45.303 92.5836 45.2663 92.5836 45.2263 92.5836C43.8296 92.5635 42.453 92.176 41.2496 91.4578C40.0463 90.7429 39.0496 89.7207 38.3596 88.5014C38.033 87.9201 37.7763 87.3155 37.5263 86.7342C37.1263 85.7955 36.6763 84.7332 36.2296 84.6463C35.763 84.5528 34.773 85.4848 34.1163 86.0995C33.9496 86.2565 33.7863 86.4102 33.623 86.5572C31.5296 88.4379 29.0796 89.4401 26.7063 89.3866C23.673 89.3165 20.9596 87.4057 20.103 84.7399C19.3863 82.5217 20.0163 80.4338 20.573 78.5898C20.8996 77.5008 21.2096 76.4752 21.2096 75.5566C21.2096 75.5232 21.2096 75.4864 21.213 75.453C21.2263 75.2025 21.153 74.9586 21.0096 74.7548C20.7496 74.5744 19.8863 74.6112 19.2496 74.6346C18.663 74.6579 18.0563 74.6813 17.4196 74.6212C15.403 74.4308 13.5863 73.3317 12.3063 71.5211C10.8063 69.3998 10.2563 66.557 10.8696 64.0983C11.7496 60.5606 14.603 57.4071 18.9063 55.2257C20.533 54.4006 22.2196 53.7525 23.8496 53.1278C25.5463 52.4764 27.1463 51.8617 28.6596 51.07C32.2363 49.1926 35.2263 46.3631 37.303 42.8889C38.063 41.6161 38.6963 40.2632 39.3663 38.8301C40.1696 37.1197 40.9963 35.3492 42.0763 33.6789C45.243 28.7949 50.4463 24.9298 57.5396 22.1872C61.1896 20.7775 64.983 19.7653 68.6496 18.7831C70.8196 18.2019 73.063 17.6039 75.2263 16.9325C75.8263 16.7454 76.4263 16.555 77.0263 16.3612C80.9696 15.0951 85.0463 13.789 89.383 14.1798C92.723 14.4805 96.8463 16.1708 98.3929 20.0058C98.8063 21.0314 98.3129 22.2006 97.2863 22.6148C96.2629 23.029 95.0963 22.5346 94.6829 21.5057C93.8096 19.341 91.0896 18.3589 89.023 18.1718C85.493 17.8545 81.973 18.9836 78.243 20.1795C77.6296 20.3766 77.0163 20.5737 76.4063 20.7641C74.1696 21.4556 71.8863 22.067 69.6796 22.6582C66.113 23.6103 62.4263 24.5958 58.9796 25.9287C52.6863 28.3606 48.1263 31.7046 45.4296 35.8636C44.4996 37.3001 43.763 38.8701 42.9863 40.5338C42.303 41.9903 41.5963 43.5002 40.733 44.9467C38.2796 49.0556 34.743 52.4029 30.5096 54.6244C28.7896 55.523 27.003 56.2078 25.2763 56.8726C23.6696 57.4873 22.153 58.0719 20.7096 58.8035C18.8263 59.7589 15.5496 61.8434 14.7463 65.0704C14.413 66.4067 14.7363 68.0302 15.5663 69.2061C15.9863 69.8007 16.7163 70.5323 17.793 70.6325C18.163 70.6693 18.613 70.6492 19.0896 70.6325C20.5196 70.5757 22.4763 70.4989 23.923 72.0022C23.953 72.0356 23.983 72.0657 24.013 72.1024C24.8396 73.0845 25.263 74.3272 25.2096 75.61C25.1996 77.1033 24.7763 78.5097 24.3996 79.7524C23.9563 81.2189 23.5763 82.4816 23.9096 83.5105C24.243 84.5461 25.483 85.3512 26.7996 85.3813C28.1563 85.4046 29.6196 84.7733 30.9463 83.5807C31.0863 83.4537 31.2363 83.3134 31.3896 83.1698C32.7163 81.9271 34.5363 80.2234 37.0063 80.7145C39.5296 81.2089 40.4996 83.4938 41.2096 85.1641C41.4263 85.6685 41.6263 86.1463 41.8463 86.5338C42.1896 87.1451 42.6896 87.6562 43.293 88.0136C43.8963 88.3711 44.583 88.5682 45.283 88.5782C45.9863 88.5882 46.6763 88.4145 47.2896 88.0738C47.903 87.733 48.4163 87.2353 48.7796 86.634C49.3496 85.6853 50.5796 85.3813 51.5263 85.9525C52.473 86.5237 52.7763 87.7564 52.2063 88.7052C51.483 89.9044 50.4563 90.8966 49.233 91.5781C48.043 92.2362 46.6996 92.5836 45.343 92.5836Z" fill="black"/>
<path d="M107.359 98.9878C106.339 98.9878 105.469 98.2095 105.369 97.1705C105.265 96.0681 106.072 95.0894 107.172 94.9858C108.332 94.8756 109.092 94.5014 109.972 94.0638C111.729 93.1952 113.715 92.2097 117.572 93.9636C118.462 94.1506 121.625 93.566 122.345 93.1551C123.355 92.5305 123.869 91.1508 124.465 89.5573C125.012 88.0908 125.632 86.4272 126.815 85.0709C127.852 83.885 129.169 83.1066 130.335 82.4252C131.539 81.7169 132.579 81.1056 133.109 80.2304C133.822 79.0478 133.619 77.4076 133.385 75.5068C133.232 74.2607 133.072 72.9713 133.155 71.6417C133.342 68.7321 134.662 66.1832 135.939 63.7178C137.392 60.9117 138.649 58.4864 137.992 56.1213C137.435 54.1069 135.615 52.6905 133.509 51.0536C132.149 49.9947 130.745 48.9023 129.572 47.536C127.939 45.6318 126.965 43.4204 126.019 41.2824C125.629 40.3971 125.259 39.5586 124.845 38.7469C121.005 31.1737 112.739 25.8588 104.272 25.5148C103.169 25.4713 102.309 24.536 102.355 23.4302C102.399 22.3245 103.339 21.466 104.435 21.5094C114.455 21.9136 123.869 27.9668 128.412 36.9296C128.872 37.8349 129.282 38.7636 129.679 39.6588C130.542 41.6164 131.359 43.4671 132.609 44.9236C133.515 45.9826 134.705 46.9079 135.962 47.8867C138.292 49.7007 140.932 51.7551 141.845 55.0456C142.925 58.9307 141.099 62.4551 139.489 65.5652C138.352 67.7599 137.279 69.8311 137.145 71.8989C137.085 72.851 137.215 73.9 137.352 75.0124C137.639 77.3207 137.962 79.9364 136.525 82.3082C135.469 84.052 133.815 85.0241 132.355 85.8793C131.365 86.4606 130.432 87.0084 129.822 87.71C129.119 88.515 128.679 89.701 128.209 90.957C127.465 92.9547 126.622 95.2196 124.435 96.5726C122.992 97.4612 117.959 98.5569 115.965 97.6349C113.799 96.636 113.155 96.9567 111.742 97.6583C110.719 98.166 109.442 98.7974 107.549 98.9778C107.485 98.9845 107.422 98.9878 107.359 98.9878ZM117.639 93.9936C117.639 93.997 117.639 93.997 117.639 93.9936C117.639 93.997 117.639 93.997 117.639 93.9936Z" fill="black"/>
<path d="M55.3457 51.7033C55.3291 51.7033 55.3124 51.7033 55.2924 51.7033C54.1891 51.6766 53.3157 50.7546 53.3424 49.6489C53.4224 46.4653 56.6557 44.6847 59.6591 44.628C60.2924 44.6146 60.9024 44.6513 61.4924 44.6847C62.7457 44.7582 63.8291 44.8184 64.6657 44.4242C65.5157 44.0233 66.1757 43.0913 66.9357 42.0089C67.2591 41.5513 67.5891 41.0802 67.9624 40.6192C69.1957 39.0859 70.7157 37.8633 72.4757 36.9813C74.2357 36.1028 76.1257 35.6217 78.0891 35.5549C80.0557 35.4881 81.9724 35.8389 83.7857 36.5972C85.5991 37.3555 87.1991 38.4746 88.5324 39.9211C89.2824 40.7328 89.2324 42.0022 88.4224 42.7539C87.6124 43.5055 86.3457 43.4554 85.5957 42.6436C84.6524 41.6214 83.5257 40.833 82.2424 40.2985C80.9624 39.764 79.6057 39.5135 78.2224 39.5636C76.8357 39.6104 75.5024 39.9478 74.2591 40.5691C73.0157 41.1905 71.9457 42.0557 71.0724 43.138C70.7824 43.4988 70.4991 43.8997 70.2024 44.324C69.2524 45.6736 68.1757 47.2002 66.3691 48.0521C64.6157 48.8805 62.8357 48.777 61.2657 48.6868C60.7257 48.6567 60.2157 48.6266 59.7357 48.6367C58.4857 48.6601 57.3557 49.2781 57.3457 49.7491C57.3191 50.8381 56.4291 51.7033 55.3457 51.7033Z" fill="black"/>
<path d="M106.286 68.8179C106.246 68.8179 106.202 68.8179 106.162 68.8146C102.932 68.6175 98.4255 66.2757 96.3655 60.3194C95.2922 57.216 95.1255 54.0157 94.9622 50.919C94.9222 50.1273 94.8788 49.3122 94.8222 48.5205C94.7222 47.1575 94.5322 45.8046 93.8188 45.1164C93.0522 44.3781 91.5589 44.298 89.9722 44.2746C88.8689 44.2579 87.9855 43.3492 88.0022 42.2402C88.0189 41.1344 88.9289 40.2492 90.0322 40.2659C91.8589 40.2926 94.6222 40.3327 96.5888 42.2234C98.2822 43.8537 98.6655 46.172 98.8155 48.2298C98.8755 49.0583 98.9189 49.8968 98.9622 50.7086C99.1155 53.655 99.2622 56.441 100.149 59.0066C101.102 61.7659 103.409 64.6322 106.406 64.8159C107.509 64.8827 108.349 65.8314 108.282 66.9372C108.216 67.9995 107.332 68.8179 106.286 68.8179Z" fill="black"/>
<path d="M62.8099 62.5696C64.0986 62.5696 65.1432 61.2983 65.1432 59.7301C65.1432 58.1619 64.0986 56.8906 62.8099 56.8906C61.5212 56.8906 60.4766 58.1619 60.4766 59.7301C60.4766 61.2983 61.5212 62.5696 62.8099 62.5696Z" fill="black"/>
<path d="M74.1439 63.3548C75.4325 63.3548 76.4772 62.0835 76.4772 60.5153C76.4772 58.9471 75.4325 57.6758 74.1439 57.6758C72.8552 57.6758 71.8105 58.9471 71.8105 60.5153C71.8105 62.0835 72.8552 63.3548 74.1439 63.3548Z" fill="black"/>
<path d="M103.196 100.081C102.17 100.081 101.293 99.2927 101.206 98.2438C100.783 93.2128 101.76 90.9112 103.833 86.5818C104.593 85.0017 106.03 84.6542 106.89 84.4471C107.076 84.4003 107.253 84.3603 107.406 84.3101C108.2 84.0596 108.983 83.7723 109.74 83.4516C111.27 82.8169 112.706 81.9985 114.026 81.0163C116.686 79.0019 118.54 76.2927 119.226 73.3931C119.58 71.9332 120.06 68.3855 116.936 66.8054C115.573 66.1139 114.236 65.8433 110.573 69.0704C109.743 69.8019 108.48 69.7184 107.75 68.8866C107.02 68.0548 107.103 66.7887 107.933 66.0571C113.193 61.4237 116.233 61.9582 118.736 63.2243C122.616 65.1886 124.293 69.4412 123.113 74.3251C122.213 78.12 119.836 81.6377 116.423 84.22C114.83 85.4059 113.103 86.388 111.283 87.143C110.42 87.5071 109.516 87.8412 108.606 88.1251C108.33 88.212 108.063 88.2788 107.83 88.3356C107.683 88.3723 107.493 88.4157 107.37 88.4558C105.453 92.4645 104.86 93.9711 105.193 97.8997C105.286 99.0021 104.47 99.9709 103.37 100.064C103.31 100.078 103.253 100.081 103.196 100.081Z" fill="black"/>
<path d="M79.7126 103.036C78.6493 103.036 77.766 102.197 77.716 101.122C77.6093 98.7698 77.586 97.5873 77.6526 95.9738C73.646 96.7488 69.566 96.0372 66.4193 95.486C61.336 94.5874 57.386 92.7735 54.3426 89.9373C48.7493 84.716 46.1393 76.2509 47.1793 66.7068C47.5693 63.1691 49.0226 57.9043 51.0726 52.6229C51.4726 51.5906 52.6326 51.0795 53.6626 51.4804C54.6926 51.8813 55.2026 53.0438 54.8026 54.076C52.5293 59.9354 51.4293 64.669 51.156 67.1444C50.2526 75.4124 52.406 82.6515 57.0693 87.0009C59.5626 89.326 62.7526 90.7658 67.1093 91.5341C71.5626 92.3125 75.5393 92.8369 79.0526 91.3971C79.6893 91.1366 80.416 91.2234 80.976 91.6243C81.536 92.0285 81.8493 92.69 81.806 93.3781C81.5926 96.7388 81.556 97.4804 81.716 100.928C81.766 102.034 80.9126 102.972 79.8093 103.022C79.7726 103.036 79.7426 103.036 79.7126 103.036Z" fill="black"/>
</g>
<defs>
<clipPath id="clip0_805_33305">
<rect width="180" height="180" rx="24" fill="white"/>
</clipPath>
<clipPath id="clip1_805_33305">
<rect width="200" height="200.436" fill="white" transform="translate(-10 95.2734)"/>
</clipPath>
</defs>
</svg>
