<svg width="180" height="180" viewBox="0 0 180 180" fill="none" xmlns="http://www.w3.org/2000/svg">
<g clip-path="url(#clip0_805_38562)">
<rect width="180" height="180" rx="24" fill="white"/>
<g clip-path="url(#clip1_805_38562)">
<path fill-rule="evenodd" clip-rule="evenodd" d="M103.124 95.2729C103.424 98.6469 104.8 106.27 109.924 105.128L110.474 105.963C110.224 111.197 107.577 114.889 103.43 118.714C99.217 122.539 93.8436 124.837 88.1736 125.241C83.1736 125.609 77.857 124.41 74.117 121.049C70.377 117.688 68.4103 113.031 70.887 109.039H71.247C72.3736 109.073 73.4103 108.482 74.3636 107.88C75.0632 107.437 75.3317 106.001 75.5768 104.691C75.7568 103.728 75.9242 102.833 76.2403 102.448C77.2403 101.149 80.2336 96.8262 80.747 95.2695H103.124V95.2729ZM121.73 241.611C118.52 242.65 114.604 245.82 117.32 249.388C118.553 251.013 120.307 252.018 122.046 253.015C122.413 253.225 122.78 253.435 123.14 253.65C124.33 254.359 124.868 256.327 125.32 257.985C125.474 258.547 125.618 259.074 125.774 259.503C127.334 263.793 130.364 267.314 135.334 266.979C140.387 266.645 143.53 262.333 144.49 257.683C145.477 252.895 144.519 247.216 143.703 242.386C143.659 242.128 143.616 241.871 143.574 241.618L121.73 241.611ZM28.4503 237.669C27.7836 234.997 29.7836 232.992 32.117 232.12L48.6836 234.612C49.3303 240.241 48.027 245.015 46.4736 249.692C46.2205 250.458 46.0662 251.26 45.9126 252.059C45.6557 253.395 45.4005 254.722 44.687 255.855C43.547 257.666 41.477 258.558 39.2636 258.668C35.7636 258.812 31.4503 258.357 31.4503 253.704C31.4845 253.156 31.5257 252.597 31.5674 252.031C31.9327 247.078 32.3391 241.566 28.4503 237.669Z" fill="#FFD39F"/>
<path d="M56.567 199.756C55.6637 208.825 54.2537 217.835 52.3337 226.744C50.6637 225.999 48.8604 225.595 47.0337 225.558L42.7004 225.274C39.3137 224.86 36.5937 224.449 33.207 224.038C34.6104 208.521 36.4104 193.044 38.607 177.604C40.517 164.158 42.7404 150.709 46.687 137.717C50.1937 126.172 55.757 114.233 66.3204 108.444L67.5504 106.536L77.8004 98.2516C78.417 99.2705 77.9437 100.59 77.577 100.256L76.1937 105.207C76.0137 105.714 75.9437 106.256 75.9804 106.794C76.207 108.35 78.057 108.992 79.5904 109.316L81.0004 109.443C87.5104 106.77 92.4137 104.295 97.3137 101.816C101.007 99.9486 104.82 98.0478 108.947 97.7305L110.52 103.293C116.417 104.876 120.99 109.429 124.674 114.093C128.69 119.184 131.84 124.903 134 131.02C135.21 134.437 137.124 138.282 137.914 141.816L138.967 145.05C145.547 173.445 145.894 202.872 146.207 232.026L117.187 231.548C115.9 221.73 114.887 211.885 114.147 202.007L112.857 202.051C99.917 203.704 86.647 202.321 74.147 200.731C67.517 201.529 60.7437 201.032 54.4537 199.001" fill="black"/>
<path fill-rule="evenodd" clip-rule="evenodd" d="M81.0005 109.443L84.1938 123.333L84.2246 123.322C89.291 121.538 94.3702 119.75 99.1938 117.387C100.934 116.535 102.68 115.573 103.94 114.099C105.43 112.359 106.097 110.091 106.727 107.876L106.755 107.778L106.755 107.778C107.692 104.47 108.63 101.161 108.94 97.7305C104.814 98.0478 101 99.9486 97.3071 101.816L97.1502 101.895C92.299 104.344 87.4311 106.802 81.0005 109.443ZM32.7305 232.002C32.9438 229.514 33.2105 226.54 34.2771 224.282L51.5838 225.886C51.3905 228.294 50.1838 231.662 49.2738 233.903C49.2571 233.967 49.2205 234.023 49.1705 234.067C49.0871 234.11 48.9905 234.124 48.9005 234.097C47.4315 233.864 45.2888 233.657 43.0023 233.436C39.1351 233.064 34.8566 232.651 32.7305 232.002ZM118.334 239.586C118.154 236.983 118.327 234.371 118.854 231.815L143.43 232.159L143.67 238.316C143.694 239.068 143.644 239.956 143.004 240.32C142.69 240.464 142.347 240.528 142.004 240.501L119.337 240.564C119.094 240.591 118.847 240.534 118.637 240.407C118.534 240.297 118.454 240.167 118.4 240.026C118.347 239.886 118.327 239.736 118.334 239.586ZM76.1838 105.207L77.5672 100.256C77.9338 100.563 78.4071 99.2605 77.7871 98.2416L67.5371 106.526C67.2905 109.052 67.5805 111.601 68.3938 114.006C69.2071 116.411 70.5205 118.613 72.2471 120.47C75.3671 117.246 77.8571 113.461 79.5805 109.316C78.0471 108.992 76.1971 108.35 75.9705 106.794C75.9338 106.256 76.0038 105.715 76.1838 105.207Z" fill="white"/>
<path fill-rule="evenodd" clip-rule="evenodd" d="M84.1933 125.337C83.86 125.337 83.5266 125.254 83.23 125.09C82.73 124.816 82.3733 124.338 82.2466 123.784L81.2742 119.554C80.5981 130.978 79.8326 142.45 79.0867 153.612L79.0541 154.1L79.0541 154.1L79.0541 154.101L79.0541 154.101L79.054 154.101C78.0714 168.84 77.0567 184.06 76.2636 199.017C89.5357 201.064 101.254 201.422 112.011 200.113C110.608 180.296 110.302 160.376 111.103 140.587C111.147 139.481 112.08 138.619 113.183 138.666C114.287 138.71 115.147 139.645 115.1 140.751C113.903 170.325 115.197 200.193 118.947 229.557L144.183 229.971C144.174 228.943 144.165 227.919 144.156 226.899C144.147 225.787 144.137 224.68 144.127 223.577L144.126 223.552C143.92 198.394 143.725 174.626 137.843 149.226C137.593 148.147 138.263 147.071 139.34 146.821C140.413 146.57 141.49 147.242 141.74 148.321C147.718 174.152 147.917 198.135 148.126 223.521V223.522L148.127 223.544L148.129 223.794L148.129 223.8C148.151 226.502 148.174 229.227 148.203 231.986C148.21 232.527 147.997 233.048 147.613 233.429C147.243 233.803 146.733 234.013 146.207 234.013H146.173L145.502 234.002L145.667 238.236C145.684 238.757 145.723 240.038 145.041 241.079C145.293 241.354 145.472 241.704 145.54 242.101L145.598 242.443L145.599 242.445C145.666 242.841 145.734 243.239 145.803 243.634L145.806 243.651C146.619 248.34 147.459 253.188 146.45 258.082C145.157 264.343 140.847 268.619 135.467 268.973C135.21 268.996 134.953 269.003 134.703 269.003C129.86 269.003 125.947 265.829 123.897 260.187C123.713 259.679 123.557 259.111 123.393 258.513L123.388 258.496C123.152 257.634 122.613 255.665 122.12 255.373C121.767 255.163 121.413 254.959 121.057 254.755C119.253 253.723 117.21 252.55 115.73 250.6C114.127 248.495 114.247 246.598 114.627 245.378C115.068 243.968 116.069 242.797 117.278 241.881C117.248 241.853 117.218 241.824 117.19 241.794C116.897 241.483 116.67 241.126 116.523 240.725C116.393 240.377 116.33 240.01 116.33 239.636C116.192 237.564 116.265 235.485 116.548 233.431C115.841 233.192 115.306 232.567 115.203 231.792C114 222.608 113.035 213.374 112.31 204.114C107.999 204.635 103.538 204.893 98.9 204.893C91.1833 204.893 82.97 204.175 74.1 202.732C68.7217 203.351 63.3552 203.122 58.3332 202.073C57.4217 210.482 56.0639 218.912 54.2833 227.169C54.1164 227.954 53.5001 228.542 52.7467 228.702C52.4513 230.724 51.9164 232.702 51.15 234.601C51.0262 234.946 50.8258 235.259 50.5611 235.513L48.4567 249.982C48.15 252.096 47.7667 254.725 46.3833 256.927C44.98 259.155 42.4233 260.518 39.3667 260.671C39.0133 260.685 38.64 260.695 38.2533 260.695C35.98 260.695 33.2 260.351 31.3367 258.56C30.0867 257.358 29.45 255.724 29.45 253.706C29.45 253.666 29.45 253.623 29.4533 253.583C29.4849 253.058 29.5254 252.52 29.5664 251.977L29.5733 251.886C29.92 247.192 30.2767 242.338 27.0367 239.088C26.78 238.831 26.6 238.51 26.51 238.156C25.7227 235 27.4576 231.976 30.8527 230.473C31.0043 228.841 31.2337 227.117 31.7778 225.442C31.3694 225.035 31.1394 224.456 31.1967 223.838C32.5967 208.348 34.4167 192.69 36.61 177.3C38.4633 164.255 40.7333 150.358 44.7567 137.113C49.54 121.425 56.0833 111.754 65.3533 106.673C65.4091 106.643 65.4656 106.615 65.5228 106.59C65.5302 106.503 65.5381 106.416 65.5467 106.329C65.6 105.795 65.8633 105.3 66.2833 104.963L76.5333 96.6783C76.9833 96.3175 77.5633 96.1638 78.13 96.2641C78.6967 96.3643 79.1933 96.7017 79.4933 97.1961C80.37 98.6359 80.25 100.61 79.26 101.626L78.11 105.745C78.1033 105.766 78.0967 105.787 78.09 105.808C78.0833 105.829 78.0767 105.85 78.07 105.872C77.9967 106.082 77.96 106.299 77.96 106.52C78.0233 106.61 78.41 107.017 79.9933 107.351C80.1512 107.385 80.3027 107.437 80.4452 107.506C86.7074 104.924 91.5603 102.475 96.2566 100.102L96.41 100.025C100.063 98.1781 104.207 96.0836 108.79 95.7328C109.377 95.6861 109.953 95.9032 110.367 96.3241C110.78 96.745 110.987 97.3263 110.933 97.9109C110.83 99.0513 110.662 100.176 110.451 101.285C110.644 101.278 110.841 101.3 111.037 101.352C118.007 103.223 123.053 108.808 126.24 112.843C130.4 118.118 133.647 124.008 135.883 130.345C136.275 131.45 136.744 132.602 137.241 133.82L137.287 133.933C138.283 136.375 139.31 138.9 139.863 141.372C140.103 142.451 139.427 143.523 138.35 143.767C138.203 143.801 138.057 143.817 137.91 143.817C136.993 143.817 136.17 143.183 135.96 142.251C135.48 140.106 134.517 137.741 133.583 135.453C133.073 134.207 132.55 132.917 132.113 131.688C130.023 125.762 126.99 120.26 123.103 115.332C120.27 111.741 115.827 106.79 110 105.224C109.852 105.184 109.712 105.128 109.582 105.059C109.295 106.154 108.988 107.236 108.685 108.307L108.685 108.307L108.68 108.324L108.653 108.42C108.037 110.592 107.267 113.291 105.46 115.402C103.98 117.133 101.997 118.245 100.073 119.184C95.1466 121.596 89.9366 123.433 84.8966 125.207L84.8566 125.22C84.64 125.3 84.4166 125.337 84.1933 125.337ZM35.6923 226.362C35.2332 227.629 35.016 229.03 34.8733 230.446C37.0633 230.85 40.28 231.161 43.19 231.441C44.89 231.605 46.52 231.762 47.8733 231.932C48.2805 230.73 48.5805 229.496 48.7709 228.242C48.607 228.213 48.4435 228.185 48.2806 228.156L48.2803 228.156L48.2133 228.144L48.0698 228.119L48.0693 228.119C47.2093 227.968 46.3978 227.825 45.7 227.736L40.7533 227.032C39.3293 226.858 38.306 226.719 37.365 226.59L36.8767 226.524L36.6462 226.492C36.3317 226.449 36.0184 226.406 35.6923 226.362ZM32.6579 234.063C32.004 234.334 30.266 235.2 30.3267 236.739C34.3685 241.241 33.9236 247.285 33.5637 252.174L33.5633 252.18L33.5601 252.223C33.5212 252.743 33.4825 253.259 33.4533 253.763C33.4666 255.049 33.9476 255.511 34.1088 255.666L34.11 255.667C34.9067 256.436 36.6167 256.77 39.1867 256.666C40.9067 256.579 42.3033 255.894 43 254.785C43.9293 253.312 44.2175 251.338 44.4964 249.428L44.5 249.404L46.4785 235.801C45.4044 235.681 44.1821 235.563 42.9162 235.44L42.8067 235.43C38.9891 235.063 35.0532 234.682 32.6579 234.063ZM53.84 200.885C54.0321 200.947 54.2249 201.008 54.4184 201.067C53.5872 208.913 52.3574 216.787 50.7567 224.516C50.1467 224.419 49.5233 224.309 48.9067 224.199C47.9467 224.028 47.04 223.868 46.2367 223.765L41.2967 223.06L41.2966 223.06C41.2833 223.056 41.27 223.053 41.2567 223.053C39.7335 222.865 38.6743 222.72 37.6778 222.583L37.6766 222.583L37.4233 222.549C36.78 222.458 36.1267 222.368 35.3533 222.268C36.7233 207.476 38.4767 192.55 40.5667 177.865C42.3967 164.98 44.6367 151.267 48.58 138.282C52.7424 124.629 58.1987 115.941 65.6576 111.149C65.8306 112.331 66.1115 113.499 66.5 114.647C67.41 117.34 68.85 119.758 70.7833 121.836C71.1567 122.237 71.68 122.468 72.2267 122.474H72.2467C72.7867 122.474 73.3067 122.254 73.6833 121.863C75.0408 120.462 76.2794 118.968 77.3945 117.39C76.7011 129.267 75.9044 141.224 75.1294 152.853L75.1293 152.854L75.0967 153.345L75.0635 153.843L75.0634 153.843V153.843C74.0792 168.619 73.0629 183.877 72.2661 198.886C66.2775 199.401 60.3612 198.778 55.0667 197.07C54.5567 196.906 54.34 196.779 54.2533 196.719C54.2211 196.522 54.2605 196.082 54.2782 195.884L54.28 195.864C55.6929 180.665 57.1119 165.47 58.5311 150.272L58.7233 148.214C59.1433 143.734 59.0933 138.225 54.99 135.379C54.08 134.748 52.8333 134.975 52.2066 135.887C51.5766 136.799 51.8033 138.048 52.7133 138.676C55.1133 140.336 55.0567 144.445 54.74 147.839C53.2567 163.721 51.7733 179.605 50.2966 195.49L50.2965 195.492C50.2231 196.287 50.1006 197.615 50.8333 198.824C51.57 200.036 52.9 200.581 53.84 200.885ZM83.33 110.642L85.64 120.697C89.9133 119.18 94.2566 117.574 98.3133 115.586C99.7466 114.884 101.36 114.033 102.42 112.797C103.657 111.35 104.24 109.306 104.803 107.328L104.83 107.231L104.836 107.208C105.521 104.791 106.178 102.47 106.597 100.132C103.707 100.827 100.92 102.234 98.2066 103.607L98.0533 103.683L98.0214 103.7L98.0214 103.7C93.6113 105.926 89.0628 108.222 83.33 110.642ZM141.567 242.506L123.459 242.557C123.26 243.13 122.805 243.606 122.183 243.805C120.33 244.406 118.757 245.572 118.44 246.577C118.38 246.768 118.223 247.272 118.907 248.171C119.897 249.474 121.42 250.349 123.037 251.274L123.17 251.351L123.308 251.431L123.31 251.431L123.31 251.432L123.311 251.432C123.596 251.596 123.88 251.759 124.16 251.926C126.042 253.044 126.709 255.486 127.245 257.449L127.247 257.454L127.279 257.571C127.41 258.045 127.533 258.49 127.65 258.814C128.73 261.784 130.91 265.255 135.197 264.977C138.013 264.79 141.413 262.669 142.53 257.274C143.386 253.125 142.611 248.655 141.862 244.332L141.86 244.323C141.77 243.801 141.68 243.284 141.593 242.769C141.579 242.681 141.57 242.593 141.567 242.506ZM141.496 233.936L120.565 233.592C120.315 235.236 120.22 236.901 120.28 238.563L141.673 238.503V238.502C141.673 238.484 141.673 238.465 141.673 238.445C141.672 238.425 141.672 238.404 141.67 238.383L141.496 233.936ZM70.2867 113.365C69.65 111.477 69.3733 109.52 69.4667 107.542L74.6133 103.38L74.27 104.609C74.0133 105.36 73.9133 106.142 73.97 106.937C73.973 106.982 73.9786 107.024 73.9846 107.069L73.9867 107.084C74.21 108.601 75.1633 109.757 76.83 110.532C75.6133 113 74.1067 115.299 72.3267 117.4C71.46 116.167 70.7767 114.814 70.2867 113.365Z" fill="black"/>
</g>
<path d="M115.139 61.2004C114.853 59.3297 113.069 58.1037 111.396 57.2284C109.723 56.3532 107.853 55.4546 107.083 53.7241C105.643 50.4938 108.936 46.5619 107.479 43.3382C106.829 41.8984 105.333 40.9998 103.793 40.6424C102.253 40.2849 100.653 40.4386 99.0794 40.5789L94.9428 38.4142C92.1728 33.9812 86.1261 32.5682 81.0294 33.7106C75.9328 34.8531 71.5594 38.02 67.3328 41.1L54.0961 50.7711C51.9428 52.3445 48.8994 53.9212 46.8428 52.2209C43.7761 49.6887 47.5094 43.8961 44.8794 40.923C44.2494 40.2148 43.3494 39.8139 42.6294 39.1959C40.6294 37.4655 40.3794 34.4389 40.6594 31.7965C41.7428 21.5976 48.4661 12.3409 57.5028 7.52706C66.5394 2.71326 77.6028 2.23222 87.2895 5.5227C92.8494 7.42016 98.5628 11.3287 99.2561 17.1714L102.953 18.3773C107.493 14.3686 114.423 15.2639 120.253 16.844C124.436 17.9764 128.603 19.3762 132.253 21.7112C135.903 24.0463 139.033 27.4203 140.389 31.5459C141.226 34.0848 141.389 36.8909 142.846 39.1425C143.789 40.6056 145.196 41.708 146.233 43.1044C149.209 47.1131 148.273 53.487 144.266 56.4668C142.329 57.9066 139.733 58.7317 138.653 60.8964C137.749 62.7104 138.163 65.0688 136.919 66.6656C135.109 68.9873 130.919 68.3125 129.336 70.7946C128.899 71.4794 128.736 72.3246 128.219 72.9493C127.703 73.574 126.553 73.8145 126.156 73.113L116.376 73.5606L115.139 61.2004Z" fill="black"/>
<path d="M52.9371 53.3573C50.7871 58.8993 49.4938 63.9036 49.1671 66.9335C48.3438 74.5634 49.8804 83.0418 55.7038 88.477C58.8071 91.3699 62.6504 92.793 66.7604 93.5179C71.0471 94.2762 75.6471 94.9678 79.8071 93.2641C79.5871 96.7416 79.5538 98.8896 79.7138 102.371L103.167 99.9519C102.787 95.3787 103.68 91.5971 105.667 87.4614C106.117 86.5261 107.084 86.5361 108.04 86.2321C108.89 85.9648 109.724 85.6575 110.547 85.3101C112.217 84.6153 113.797 83.7166 115.247 82.6376C118.12 80.4629 120.36 77.4096 121.2 73.8686C121.964 70.6582 121.427 66.8366 117.867 65.0293C115.357 63.7599 113.107 64.2109 109.284 67.5782L115.17 61.2311C114.884 59.3603 113.1 58.1343 111.427 57.2591C109.754 56.3839 107.884 55.4853 107.114 53.7548C105.674 50.5245 108.967 46.5926 107.51 43.3689C106.86 41.9291 105.364 41.0305 103.824 40.6731C102.284 40.3156 100.684 40.4693 99.1104 40.6096L94.9738 38.4449C92.2038 34.0119 86.1571 32.5988 81.0604 33.7413C75.9638 34.8838 71.5604 38.0206 67.3338 41.1006L54.0971 50.7717" fill="#FFD39F"/>
<path fill-rule="evenodd" clip-rule="evenodd" d="M48.9431 54.9713C47.4697 54.9713 46.3631 54.4268 45.5697 53.7687C43.1613 51.779 43.476 48.7616 43.7293 46.3338L43.7297 46.3292C43.9064 44.6355 44.0731 43.0321 43.3831 42.2537C43.1864 42.0332 42.8364 41.7994 42.4664 41.5522C42.1164 41.3183 41.7164 41.0511 41.3297 40.7204C39.1564 38.8396 38.2397 35.6827 38.6731 31.5872C39.8064 20.934 46.6597 11.0358 56.5664 5.76103C65.7464 0.870398 77.4697 0.0753368 87.9331 3.62973C95.5897 6.24208 100.563 11.2196 101.243 16.9387C101.373 18.0377 100.59 19.0366 99.4931 19.1668C98.3964 19.2971 97.4031 18.5121 97.2697 17.413C96.5397 11.2596 88.9531 8.21302 86.6431 7.42464C77.2064 4.22101 66.6631 4.92254 58.4397 9.30206C49.6897 13.9622 43.6397 22.6644 42.6464 32.0148C42.4464 33.9189 42.5031 36.4477 43.9331 37.6838C44.1297 37.8508 44.3964 38.0312 44.6764 38.2183L44.6824 38.2223C45.2176 38.5787 45.8284 38.9855 46.3664 39.5946C48.2276 41.6967 47.9371 44.4953 47.7039 46.7422L47.7031 46.7501C47.4897 48.8079 47.4097 50.1007 48.1097 50.6787C49.2931 51.6575 52.0864 49.76 52.9131 49.1554L66.1497 39.4843L66.1658 39.4726C70.3219 36.4456 75.0269 33.0187 80.5864 31.7709C87.4397 30.2342 93.0431 32.0315 95.9597 36.6983C96.5464 37.637 96.2631 38.873 95.3264 39.461C94.3897 40.0489 93.1564 39.7649 92.5697 38.8262C89.7831 34.3666 83.8697 35.1416 81.4597 35.6827C76.7031 36.7484 72.5331 39.785 68.5031 42.7247L55.2697 52.3957C55.1223 52.5035 54.9766 52.6074 54.8325 52.7073C54.9789 53.1385 54.9805 53.6217 54.8031 54.0794C52.5298 59.9388 51.4298 64.6724 51.1564 67.1478C50.2531 75.4158 52.4065 82.6548 57.0698 87.0043C59.5631 89.3294 62.7531 90.7691 67.1098 91.5375C71.5631 92.3158 75.5398 92.8403 79.0531 91.4005C79.6898 91.14 80.4165 91.2268 80.9764 91.6277C81.5364 92.0319 81.8498 92.6933 81.8065 93.3815C81.5931 96.7421 81.5564 97.4837 81.7164 100.931C81.7664 102.037 80.9131 102.976 79.8098 103.026C79.7731 103.039 79.7431 103.039 79.7131 103.039C78.6498 103.039 77.7664 102.201 77.7164 101.125C77.6098 98.7732 77.5864 97.5907 77.6531 95.9771C73.6465 96.7522 69.5664 96.0406 66.4198 95.4894C61.3364 94.5908 57.3864 92.7768 54.3431 89.9407C48.7498 84.7193 46.1398 76.2543 47.1798 66.7102C47.5152 63.6676 48.6371 59.3476 50.2487 54.8382C49.7845 54.93 49.3497 54.9713 48.9431 54.9713ZM126.97 75.5594C126.873 75.5594 126.78 75.5561 126.686 75.5461C125.713 75.4592 124.89 74.9381 124.423 74.1163C123.88 73.1542 124.216 71.9315 125.176 71.3837C125.726 71.0697 126.366 71.0496 126.91 71.2701C126.95 71.1766 126.993 71.0763 127.036 70.9795L127.049 70.9494C127.206 70.5792 127.384 70.1595 127.656 69.7334C128.876 67.8226 130.953 67.2146 132.62 66.7269C133.776 66.3895 134.87 66.0688 135.35 65.4508C135.723 64.9739 135.851 64.1688 135.999 63.2338L136.003 63.2092L136.009 63.1736C136.164 62.1935 136.34 61.085 136.87 60.019C137.881 57.9919 139.713 56.9231 141.33 55.9791L141.34 55.9735C141.973 55.6061 142.57 55.2553 143.083 54.8745C144.57 53.7687 145.596 51.9548 145.9 49.897C146.203 47.8392 145.743 45.8047 144.64 44.3182C144.25 43.7937 143.77 43.2859 143.26 42.7514L143.25 42.7416C142.537 41.9897 141.797 41.2106 141.176 40.246C140.026 38.4688 139.58 36.5379 139.15 34.6705L139.137 34.6144C138.938 33.76 138.751 32.9535 138.5 32.1918C137.4 28.8479 134.803 25.7311 131.186 23.4194C127.55 21.091 123.36 19.7782 119.74 18.796C112.793 16.9119 108.453 17.3228 105.23 20.1724C104.4 20.9039 103.136 20.8238 102.406 19.992C101.676 19.1602 101.756 17.8941 102.586 17.1625C108.093 12.3019 115.203 13.4143 120.783 14.9243C124.693 15.9832 129.243 17.4197 133.336 20.0387C137.726 22.8482 140.91 26.7166 142.296 30.9358C142.609 31.8851 142.828 32.8377 143.041 33.7606L143.043 33.7686C143.413 35.3687 143.763 36.882 144.53 38.0679C144.95 38.7179 145.528 39.3284 146.14 39.9745L146.153 39.9888L146.199 40.0377C146.752 40.6205 147.324 41.2244 147.843 41.9263C149.576 44.2614 150.31 47.3782 149.853 50.4816C149.396 53.585 147.796 56.361 145.463 58.0948C144.775 58.6081 144.053 59.0282 143.354 59.4349L143.354 59.4351L143.35 59.4377C142.05 60.196 140.923 60.8541 140.446 61.8095C140.191 62.322 140.077 63.0346 139.956 63.7919L139.95 63.8306C139.746 65.1334 139.513 66.6133 138.5 67.9161C137.223 69.553 135.373 70.0942 133.74 70.5719C132.503 70.9327 131.436 71.2467 131.026 71.8914C130.93 72.0451 130.826 72.2856 130.72 72.5429C130.51 73.044 130.246 73.6653 129.766 74.2466C129.09 75.0617 128.016 75.5594 126.97 75.5594ZM113.163 61.5055C113.226 61.9243 113.415 62.2926 113.685 62.5783C112.096 63.0016 110.226 64.0394 107.933 66.0588C107.103 66.7904 107.02 68.0564 107.75 68.8883C108.48 69.7201 109.743 69.8036 110.573 69.072C114.236 65.845 115.573 66.1156 116.936 66.8071C120.06 68.3872 119.58 71.9349 119.226 73.3947C118.54 76.2943 116.686 79.0036 114.026 81.018C112.706 82.0001 111.27 82.8185 109.74 83.4532C108.983 83.7739 108.2 84.0612 107.406 84.3118C107.286 84.3513 107.15 84.3846 107.007 84.4199C106.968 84.4293 106.929 84.4389 106.89 84.4487C106.03 84.6559 104.593 85.0033 103.833 86.5834C101.76 90.9128 100.783 93.2145 101.206 98.2454C101.293 99.2943 102.17 100.083 103.196 100.083C103.253 100.083 103.31 100.079 103.37 100.066C104.47 99.9725 105.286 99.0037 105.193 97.9013C104.86 93.9728 105.453 92.4662 107.37 88.4575C107.464 88.4267 107.598 88.3939 107.722 88.3637C107.743 88.3586 107.763 88.3536 107.783 88.3487C107.799 88.3448 107.815 88.341 107.83 88.3372C108.063 88.2804 108.33 88.2136 108.606 88.1267C109.516 87.8428 110.42 87.5087 111.283 87.1446C113.103 86.3896 114.83 85.4075 116.423 84.2216C119.836 81.6393 122.213 78.1217 123.113 74.3267C124.293 69.4428 122.616 65.1902 118.736 63.2259C118.096 62.9019 117.42 62.6258 116.681 62.472C117.027 62.0477 117.199 61.4831 117.11 60.8975C116.673 58.0347 114.166 56.4178 112.316 55.4524L112.046 55.3121C110.723 54.6239 109.353 53.909 108.906 52.9102C108.474 51.9402 108.835 50.5377 109.217 49.0514L109.22 49.0418C109.736 47.0408 110.32 44.7725 109.3 42.5142C108.453 40.6335 106.61 39.2405 104.243 38.6926C102.428 38.2688 100.61 38.4317 99.0083 38.5752H99.0083L99.0031 38.5757L98.9031 38.5857C97.8031 38.6859 96.9931 39.658 97.0897 40.7604C97.1897 41.8628 98.1564 42.6779 99.2597 42.5777L99.3597 42.5677L99.3643 42.5673C100.796 42.4405 102.148 42.3208 103.343 42.5978C104.45 42.855 105.34 43.4563 105.66 44.1678C106.095 45.1377 105.751 46.4766 105.353 48.0286L105.353 48.0287L105.35 48.0396L105.348 48.0474C104.835 50.0398 104.254 52.2951 105.256 54.5437C106.27 56.822 108.453 57.9578 110.206 58.8698L110.47 59.0068C112.16 59.8887 113.04 60.7071 113.163 61.5055ZM62.8098 62.5712C64.0984 62.5712 65.1431 61.2999 65.1431 59.7317C65.1431 58.1635 64.0984 56.8922 62.8098 56.8922C61.5211 56.8922 60.4764 58.1635 60.4764 59.7317C60.4764 61.2999 61.5211 62.5712 62.8098 62.5712ZM76.4765 60.5167C76.4765 62.085 75.4318 63.3562 74.1431 63.3562C72.8545 63.3562 71.8098 62.085 71.8098 60.5167C71.8098 58.9485 72.8545 57.6772 74.1431 57.6772C75.4318 57.6772 76.4765 58.9485 76.4765 60.5167Z" fill="black"/>
</g>
<defs>
<clipPath id="clip0_805_38562">
<rect width="180" height="180" rx="24" fill="white"/>
</clipPath>
<clipPath id="clip1_805_38562">
<rect width="200" height="200.436" fill="white" transform="translate(-10 95.2734)"/>
</clipPath>
</defs>
</svg>
