<svg width="180" height="180" viewBox="0 0 180 180" fill="none" xmlns="http://www.w3.org/2000/svg">
<g clip-path="url(#clip0_805_38588)">
<rect width="180" height="180" rx="24" fill="white"/>
<g clip-path="url(#clip1_805_38588)">
<path fill-rule="evenodd" clip-rule="evenodd" d="M109.923 105.128C104.8 106.271 103.423 98.6474 103.123 95.2734H80.75C80.565 95.8343 80.3939 96.8327 80.2039 97.9413C79.8666 99.9098 79.4697 102.226 78.83 103.057C78.7458 103.159 78.6395 103.289 78.5155 103.44C77.5343 104.639 75.4404 107.199 74.3633 107.881C73.41 108.482 72.3733 109.073 71.2466 109.04H70.8866C68.41 113.032 70.3766 117.689 74.1166 121.049C77.8566 124.41 83.1733 125.609 88.1733 125.242C93.8433 124.838 99.2166 122.539 103.43 118.714C107.577 114.889 110.223 111.198 110.473 105.963L109.923 105.128ZM115.213 148.723L115.677 149.251C115.393 173.189 117.854 197.106 120.361 221.473C121.041 228.077 121.724 234.715 122.357 241.394C121.2 241.491 120.1 241.942 119.213 242.691C118.323 243.439 117.687 244.444 117.393 245.57C117.097 246.696 117.16 247.885 117.567 248.974C117.973 250.063 118.71 250.999 119.67 251.653C120.216 252.024 120.82 252.294 121.424 252.564L121.424 252.564C121.963 252.805 122.503 253.047 123.003 253.36C125.359 254.832 126.436 257.559 127.505 260.266C128.642 263.143 129.77 265.999 132.417 267.304C136.207 269.171 140.957 266.322 142.673 262.45C144.39 258.578 143.92 254.139 143.41 249.936C141.233 232.057 136.043 179.687 135.137 168.726C135.137 168.726 130.79 128.212 129.67 123.558C128.55 118.905 124.753 114.923 121.293 111.622L120.547 111.138C118.21 117.061 111.777 142.439 115.213 148.723ZM61.7566 115.243L62.3733 113.326C60.42 113.86 58.9466 115.447 57.7066 117.044C53.85 121.985 51.8133 128.252 50.8533 134.449C50.1638 138.902 49.3817 143.904 48.5372 149.306L48.5371 149.306C44.7231 173.701 39.6374 206.229 36.0733 232.983C34.9966 232.852 33.9033 233.04 32.9266 233.514C31.95 233.988 31.13 234.737 30.5666 235.665C30.0033 236.594 29.7133 237.666 29.74 238.752C29.7633 239.841 30.1 240.897 30.7066 241.799C30.8627 242.027 31.0357 242.246 31.2084 242.465L31.2085 242.465C31.4343 242.75 31.6597 243.035 31.8466 243.342C32.69 244.752 32.6433 246.506 32.5433 248.149L32.5267 248.422C32.3436 251.41 32.1522 254.535 33.43 257.232C34.7466 260.012 38.2666 262.006 40.9633 260.536C42.8433 259.507 43.65 257.269 44.2966 255.224C45.2066 252.525 45.98 249.779 46.61 247C47.3266 243.576 50.2766 228.383 50.5633 224.892L47.89 223.579C47.89 223.579 57.4933 151.679 61.7566 115.243Z" fill="#FFD39F"/>
<path d="M115.214 148.724C111.777 142.44 118.21 117.062 120.544 111.139C120.78 110.684 120.457 110.992 120.404 110.484C120.24 109.706 113.557 105.476 110.564 105.129C109.997 110.808 107.624 114.853 103.427 118.715C99.2136 122.54 93.8402 124.838 88.1702 125.243C83.1702 125.61 77.8536 124.411 74.1136 121.05C70.3736 117.69 68.6136 111.93 71.0902 107.948L64.3336 111.055C63.5302 111.423 62.6669 111.83 62.2102 112.582C61.7536 113.333 61.8769 114.339 61.7769 115.254C57.5002 151.69 46.6702 221.529 47.6369 221.636C69.9969 224.288 98.8902 226.676 120.56 220.543H120.614C118.834 196.491 115.417 172.893 115.704 149.258" fill="black"/>
<path fill-rule="evenodd" clip-rule="evenodd" d="M109.369 103.521C109.776 103.218 110.286 103.082 110.79 103.139C112.936 103.39 115.94 104.983 117.54 105.912C121.326 108.11 122.063 109.146 122.276 109.767C122.313 109.822 122.347 109.88 122.378 109.939C122.483 110.007 122.583 110.085 122.676 110.175C126.61 113.923 130.416 118.085 131.62 123.093C132.753 127.82 136.95 166.855 137.126 168.515C137.126 168.523 137.127 168.532 137.128 168.54C137.129 168.548 137.13 168.557 137.13 168.565C138.07 179.926 143.243 232.01 145.396 249.698L145.397 249.7C145.887 253.742 146.496 258.769 144.503 263.267C143.29 266.007 140.813 268.332 138.04 269.341C137.013 269.701 135.98 269.889 134.973 269.889C133.766 269.889 132.596 269.625 131.533 269.1C128.195 267.454 126.842 264.03 125.645 261.005L125.643 260.999L125.638 260.985C124.66 258.512 123.736 256.177 121.943 255.056C121.567 254.82 121.114 254.617 120.634 254.401L120.606 254.388L120.565 254.369L120.565 254.369L120.564 254.369C119.934 254.086 119.221 253.766 118.546 253.306C117.236 252.414 116.25 251.158 115.693 249.671C115.136 248.185 115.056 246.588 115.46 245.055C115.863 243.521 116.716 242.172 117.93 241.149C118.613 240.575 119.38 240.13 120.203 239.83C119.665 234.238 119.09 228.625 118.527 223.151C108.922 225.529 98.0821 226.394 87.0764 226.394C75.2518 226.394 63.2317 225.394 52.3231 224.189C51.5426 230.145 49.2341 244.222 48.5697 247.403C48.5664 247.413 48.5664 247.426 48.563 247.436C47.9197 250.266 47.1264 253.092 46.1997 255.838C45.6097 257.705 44.6197 260.809 41.923 262.285C41.0197 262.786 40.013 263.034 38.973 263.034C38.2564 263.034 37.523 262.917 36.7964 262.68C34.6064 261.965 32.623 260.207 31.623 258.093C30.1244 254.932 30.3393 251.415 30.5292 248.307L30.5297 248.298L30.5464 248.028C30.633 246.611 30.6664 245.268 30.1297 244.373C30.0253 244.201 29.8614 243.991 29.6851 243.766L29.6397 243.708C29.4564 243.478 29.2497 243.217 29.053 242.93C28.223 241.697 27.7697 240.274 27.7364 238.798C27.703 237.324 28.0897 235.878 28.8564 234.619C29.623 233.359 30.7264 232.354 32.0497 231.709C32.7697 231.358 33.5364 231.124 34.3197 231.011C37.8412 205.108 42.4783 175.35 46.2206 151.334L46.2264 151.297L46.7722 147.791L46.7725 147.79C47.5383 142.873 48.2523 138.288 48.8897 134.143C50.0397 126.674 52.4797 120.504 56.143 115.81C57.2196 114.423 58.5222 112.954 60.2444 112.038C60.3157 111.872 60.4 111.706 60.4997 111.541C61.2826 110.251 62.6071 109.643 63.4872 109.238L63.4997 109.233L70.2564 106.129C71.0182 105.781 71.912 105.943 72.497 106.528C73.8351 105.953 74.8071 105.074 75.5238 104.427L75.5363 104.415L75.6563 104.305C76.943 103.143 77.0797 102.832 77.353 102.207C77.3741 102.158 77.3962 102.109 77.4187 102.058C77.4388 102.013 77.4592 101.967 77.4797 101.92C77.9363 100.911 79.1197 100.464 80.1264 100.921C81.133 101.379 81.5797 102.565 81.123 103.574L81.013 103.821C80.543 104.893 80.1297 105.665 78.333 107.285L78.2163 107.389L78.212 107.393C77.1051 108.395 75.1359 110.179 72.0756 110.861C71.5299 113.655 72.8148 117.194 75.4464 119.562C78.4597 122.271 83.043 123.614 88.023 123.246C93.2264 122.876 98.2197 120.741 102.083 117.233C105.432 114.153 107.341 111.106 108.179 107.387C105.411 106.815 104.377 104.97 103.53 103.453L103.492 103.387C103.254 102.963 103.008 102.526 102.72 102.097C102.103 101.178 102.346 99.9324 103.26 99.3144C104.176 98.6963 105.42 98.9402 106.036 99.8555C106.433 100.443 106.743 100.998 107.016 101.489L107.02 101.496C107.828 102.938 108.083 103.392 109.369 103.521ZM50.7297 219.97C50.8049 219.976 50.8788 219.986 50.9512 220.001C72.2328 222.421 98.1502 224.213 118.113 219.121C115.681 195.443 113.457 172.963 113.671 150.008C113.59 149.91 113.517 149.803 113.453 149.687C111.723 146.527 111.82 139.709 113.743 129.426C115.08 122.278 117.056 114.892 118.366 111.227C117.246 110.332 114.386 108.595 112.2 107.686C111.253 112.46 108.903 116.391 104.776 120.186C100.243 124.302 94.3997 126.804 88.3097 127.238C82.2564 127.679 76.5964 125.969 72.7764 122.538C69.8297 119.889 67.7664 115.643 67.9597 111.588L65.163 112.874L65.147 112.881C64.9267 112.983 64.634 113.118 64.3859 113.258C64.4059 113.815 64.1919 114.348 63.8128 114.735C63.8031 114.966 63.7887 115.216 63.7597 115.469C63.753 115.533 63.743 115.596 63.7297 115.657C57.2197 147.292 50.123 209.273 49.5797 219.843C49.9309 219.884 50.2835 219.924 50.6373 219.965C50.668 219.966 50.6988 219.968 50.7297 219.97ZM49.7297 180.741C51.2338 168.645 55.0338 139.429 59.0747 118.572C55.9591 122.69 53.8653 128.132 52.843 134.758C52.1819 139.059 51.4383 143.835 50.64 148.962L50.1797 151.919C46.3564 176.452 41.5997 206.985 38.0564 233.249C37.9097 234.335 36.9197 235.096 35.8397 234.969C35.1397 234.886 34.4364 235.006 33.803 235.313C33.1697 235.621 32.6397 236.102 32.2764 236.706C31.9097 237.308 31.7264 237.999 31.7397 238.704C31.7564 239.409 31.973 240.09 32.3664 240.675C32.4764 240.835 32.623 241.022 32.7764 241.216L32.8168 241.268L32.8169 241.268C33.0534 241.569 33.3166 241.903 33.553 242.292C34.683 244.183 34.6597 246.281 34.5397 248.265L34.523 248.539C34.353 251.291 34.1797 254.138 35.2364 256.366C35.7764 257.502 36.873 258.484 38.0364 258.861C38.5497 259.028 39.3097 259.149 40.0097 258.768C41.1997 258.116 41.8397 256.356 42.393 254.612C42.3964 254.599 42.3997 254.589 42.4064 254.575C43.2897 251.956 44.0464 249.26 44.6597 246.564C45.3026 243.48 47.5929 229.489 48.3496 223.737C48.0318 223.699 47.7152 223.662 47.3997 223.625C46.8464 223.558 46.3264 223.25 45.9964 222.799C45.453 222.051 45.2297 221.741 46.4864 209.187C47.273 201.329 48.423 191.228 49.7297 180.741ZM117.676 130.165C118.829 123.997 120.359 118.173 121.472 114.592C124.362 117.497 126.913 120.631 127.73 124.028C128.586 127.609 131.646 154.942 133.146 168.916C134.093 180.351 139.27 232.467 141.426 250.176C141.973 254.692 142.28 258.404 140.846 261.634C140.07 263.384 138.433 264.928 136.673 265.566C135.82 265.876 134.543 266.114 133.3 265.502C131.35 264.542 130.39 262.115 129.373 259.542L129.366 259.526L129.365 259.522C128.245 256.687 126.978 253.479 124.066 251.659C123.446 251.271 122.806 250.984 122.24 250.73C121.7 250.49 121.19 250.263 120.793 249.992C120.173 249.568 119.703 248.973 119.44 248.268C119.176 247.563 119.14 246.805 119.33 246.077C119.52 245.348 119.923 244.71 120.5 244.226C121.076 243.742 121.773 243.451 122.523 243.391C123.056 243.347 123.55 243.09 123.893 242.679C124.236 242.268 124.4 241.737 124.35 241.203C123.72 234.556 123.032 227.864 122.366 221.391C122.563 220.969 122.616 220.477 122.48 219.993C122.41 219.748 122.299 219.527 122.154 219.334C119.683 195.275 117.404 172.477 117.68 149.273C117.687 148.628 117.389 148.051 116.921 147.678C116.44 146.709 115.309 142.847 117.676 130.165ZM47.8564 219.643C47.861 219.643 47.8656 219.643 47.8706 219.644C47.8764 219.645 47.8825 219.646 47.8897 219.646C47.8829 219.644 47.877 219.643 47.8716 219.643C47.8662 219.643 47.8613 219.643 47.8564 219.643Z" fill="black"/>
</g>
<path d="M115.667 84.789C116.334 86.8401 119.454 86.0384 121.144 84.6954C129.197 78.2915 133.984 68.086 134.217 57.7836C134.45 47.4812 130.254 37.2356 123.197 29.7426C118.98 25.2696 113.294 21.5882 107.164 21.9023L97.3337 17.0183C95.9704 13.9817 92.367 12.5887 89.0504 12.4283C85.7337 12.268 82.417 13.023 79.1004 12.8726C76.457 12.7524 73.8504 12.0609 71.2071 12.1344C65.0637 12.3014 59.8037 16.4972 55.5071 20.9034C48.2837 28.3095 42.0437 37.6632 42.0637 48.0224C42.0637 53.8951 43.7304 60.8569 39.3971 64.8189C38.8371 65.3333 38.1271 65.9881 38.3971 66.6996C38.4937 66.8867 38.6237 67.0538 38.7871 67.1874C38.9504 67.321 39.1371 67.4212 39.3371 67.478C42.9604 68.9512 47.6037 66.85 48.8937 63.1352L55.4204 50.7951C57.6071 47.4545 62.1337 46.4723 66.1037 46.8799C70.0737 47.2875 73.8804 48.764 77.8571 49.1214C81.0571 49.382 84.277 48.921 87.277 47.7718C90.277 46.6227 92.9804 44.8087 95.1904 42.4703L97.1904 43.0115C99.1037 43.9602 100.717 45.4267 101.85 47.2407C102.98 49.058 103.587 51.1525 103.597 53.2938C103.577 55.4886 102.93 57.6199 102.57 59.788C102.21 61.956 102.214 64.3145 103.37 66.1785C104.527 68.0426 107.16 69.1049 109.01 67.9257" fill="black"/>
<path d="M103.199 99.7467C102.816 95.1767 103.703 91.609 105.686 87.4733C106.133 86.5379 107.103 86.548 108.059 86.244C108.906 85.9767 109.746 85.6694 110.566 85.322C112.236 84.6271 113.813 83.7285 115.266 82.6495C118.139 80.4748 120.376 77.4215 121.219 73.8804C121.983 70.6701 121.446 66.8485 117.869 65.0412C115.363 63.7718 113.113 64.2228 109.289 67.5901L109.019 67.9475C107.169 69.1268 104.533 68.0678 103.379 66.2004C102.226 64.333 102.229 61.9779 102.579 59.8098C102.929 57.6418 103.579 55.5105 103.606 53.3157C103.596 51.1744 102.989 49.0798 101.859 47.2626C100.729 45.4453 99.116 43.9821 97.1994 43.0334L95.1994 42.4922C92.9894 44.8306 90.286 46.6412 87.286 47.7937C84.286 48.9462 81.066 49.4072 77.866 49.1433C73.8894 48.7859 70.0827 47.3127 66.1127 46.9018C62.1427 46.4909 57.616 47.4697 55.4294 50.817L53.3327 52.848C51.3327 55.8546 50.9994 59.5292 49.9994 63.2039C49.9994 64.2595 45.946 78.5172 55.3327 87.9243C58.666 91.2649 62.9994 92.6011 67.4994 93.6033C71.536 94.228 75.946 94.856 79.8327 93.2692C79.6094 96.7468 79.646 99.8068 79.806 103.288" fill="#FFD39F"/>
<path fill-rule="evenodd" clip-rule="evenodd" d="M38.6668 69.3661C39.6601 69.7603 40.7335 69.9541 41.8235 69.9541C43.1635 69.9541 44.5301 69.6634 45.8235 69.0755C46.2434 68.885 46.6459 68.6674 47.0283 68.4257C46.4626 77.2641 49.0843 85.0345 54.3401 89.9408C57.3835 92.777 61.3335 94.591 66.4168 95.4896C69.5635 96.0408 73.6435 96.7523 77.6501 95.9773C77.5835 97.5908 77.6068 98.7734 77.7135 101.125C77.7635 102.201 78.6468 103.039 79.7101 103.039C79.7435 103.039 79.7735 103.039 79.8068 103.026C80.9101 102.976 81.7635 102.037 81.7135 100.931C81.5535 97.4839 81.5901 96.7423 81.8035 93.3817C81.8468 92.6935 81.5335 92.0287 80.9735 91.6278C80.4135 91.227 79.6868 91.1401 79.0501 91.4007C75.5334 92.8405 71.5601 92.316 67.1068 91.5377C62.7501 90.7693 59.5601 89.3295 57.0668 87.0045C52.4035 82.655 50.2501 75.4159 51.1535 67.148C51.4268 64.6726 52.5268 59.939 54.8001 54.0796C54.9748 53.6287 54.9759 53.1531 54.836 52.7269C55.0265 52.7849 55.2221 52.8135 55.4168 52.8135C56.0701 52.8135 56.7068 52.4961 57.0868 51.9048C58.8601 49.1956 62.8001 48.5676 65.8934 48.8849C67.6853 49.0672 69.4541 49.4893 71.3269 49.9361L71.3269 49.9361L71.3734 49.9472C73.3968 50.4316 75.4934 50.9327 77.6868 51.1298C81.1668 51.4138 84.7268 50.9026 87.9868 49.6533C90.935 48.5234 93.6625 46.7759 95.9324 44.5741C96.0482 44.6695 96.1767 44.7533 96.3168 44.8228C97.9001 45.6078 99.2301 46.8171 100.167 48.317C101.1 49.8203 101.6 51.5507 101.61 53.2912C101.6 54.5974 101.32 55.9369 101.023 57.3534L101.01 57.4191L101.01 57.4197L101.009 57.4201L101.009 57.4201C100.87 58.0844 100.726 58.7732 100.61 59.4746C100.077 62.6816 100.427 65.2271 101.683 67.2515C102.62 68.7581 104.21 69.8939 105.94 70.2881C106.383 70.3884 106.827 70.4385 107.263 70.4385C108.28 70.4385 109.257 70.1645 110.097 69.6334C110.398 69.4406 110.631 69.1805 110.788 68.885C114.29 65.856 115.6 66.1294 116.937 66.8072C120.06 68.3873 119.58 71.935 119.227 73.3949C118.54 76.2912 116.687 79.0037 114.027 81.0181C112.707 82.0003 111.27 82.8187 109.74 83.4534C108.983 83.7741 108.2 84.0614 107.407 84.3119C107.286 84.3515 107.15 84.3848 107.007 84.42L107.005 84.4205C106.967 84.4298 106.929 84.4392 106.89 84.4489C106.03 84.656 104.593 85.0034 103.833 86.5835C101.76 90.9096 100.783 93.2146 101.207 98.2456C101.293 99.2912 102.17 100.083 103.197 100.083C103.253 100.083 103.31 100.08 103.37 100.066C104.47 99.976 105.287 99.0039 105.193 97.9015C104.86 93.9729 105.453 92.4663 107.37 88.4576C107.465 88.4268 107.599 88.3941 107.722 88.3639L107.761 88.3544C107.785 88.3486 107.808 88.3429 107.83 88.3374C108.063 88.2806 108.33 88.2138 108.607 88.1269C109.517 87.8429 110.42 87.5089 111.283 87.1448C112.188 86.7694 113.07 86.338 113.924 85.8532C114.375 86.8301 115.187 87.5308 116.247 87.8496C116.68 87.9799 117.133 88.0367 117.593 88.0367C119.33 88.0367 121.177 87.2116 122.373 86.2628C130.78 79.5783 135.953 68.9485 136.203 57.8277C136.443 47.1645 132.23 36.4245 124.637 28.3637C119.203 22.6011 112.96 19.5946 107.047 19.8986C105.943 19.9554 105.093 20.8974 105.15 22.0032C105.207 23.1089 106.147 23.9641 107.25 23.904C113.62 23.5833 119.057 28.2868 121.727 31.1196C128.603 38.4222 132.42 48.1233 132.203 57.7409C131.977 67.6858 127.373 77.1764 119.89 83.126C119.023 83.8109 117.937 84.0814 117.503 84.0347C117.435 83.8654 117.345 83.7102 117.239 83.5709C120.215 81.0632 122.287 77.812 123.113 74.3269C124.293 69.443 122.617 65.1904 118.737 63.2261C116.237 61.96 113.193 61.4255 107.933 66.0589C107.819 66.16 107.718 66.2713 107.632 66.3902C107.347 66.4653 107.052 66.4337 106.83 66.383C106.14 66.2226 105.453 65.7349 105.083 65.1369C104.373 63.9911 104.197 62.3074 104.557 60.1327C104.647 59.5689 104.763 59.0102 104.884 58.4254L104.884 58.4251L104.937 58.1718C105.26 56.6251 105.593 55.0283 105.61 53.2979C105.597 50.7824 104.89 48.3271 103.56 46.1924C102.23 44.0611 100.34 42.3441 98.0901 41.2283C97.6198 40.995 97.102 40.9645 96.6355 41.1032C96.6112 41.0776 96.5861 41.0525 96.5601 41.0279C95.7601 40.2662 94.4935 40.2996 93.7334 41.1047C91.7401 43.2126 89.2601 44.8729 86.5568 45.9118C83.8535 46.9507 80.8968 47.3716 78.0301 47.1378C76.1589 46.9724 74.3137 46.532 72.3621 46.0661L72.3034 46.0521C70.3734 45.5911 68.3734 45.1134 66.3034 44.8996C60.7834 44.335 56.0868 46.1323 53.7434 49.7101C53.3977 50.2403 53.3344 50.8748 53.5171 51.4343C52.5249 51.1312 51.4517 51.6417 51.0701 52.6264C49.9152 55.6019 48.9497 58.572 48.2569 61.231C47.6935 61.4228 47.221 61.8643 47.0101 62.4711C46.5735 63.7239 45.5401 64.7995 44.1701 65.4209C43.1801 65.8719 42.1301 66.0322 41.1601 65.8986C44.8301 62.1471 44.5068 56.6685 44.2201 51.8113C44.1401 50.4817 44.0668 49.2257 44.0668 48.013C44.0501 39.7284 48.3835 31.0762 56.9401 22.3005C60.2868 18.8697 65.4101 14.2931 71.2668 14.1327C72.6135 14.096 73.9901 14.2864 75.4501 14.4902C76.6001 14.6505 77.7901 14.8142 79.0135 14.871C80.7935 14.9512 82.5435 14.7942 84.2301 14.6405L84.2618 14.6377C85.8934 14.4917 87.4366 14.3537 88.9568 14.4267C91.4401 14.547 94.4668 15.5057 95.5135 17.8374C95.9668 18.8463 97.1501 19.2973 98.1568 18.843C99.1635 18.3886 99.6135 17.2027 99.1601 16.1939C97.3735 12.2119 92.8168 10.6017 89.1501 10.4247C87.3526 10.3382 85.5947 10.4965 83.8961 10.6495L83.8701 10.6518C82.2435 10.7988 80.7068 10.9358 79.1935 10.869C78.1749 10.8232 77.1499 10.6812 76.0653 10.531L75.9968 10.5215C74.4401 10.3044 72.8301 10.0806 71.1535 10.1273C63.8435 10.3244 57.9068 15.5692 54.0768 19.4977C44.7601 29.0485 40.0468 38.646 40.0635 48.0164C40.0635 49.2803 40.1392 50.5898 40.2126 51.861L40.2235 52.0485L40.2239 52.0552C40.4904 56.5892 40.7421 60.8722 38.0468 63.3364C37.3668 63.961 35.7768 65.4242 36.5301 67.4085C36.5535 67.4787 36.5835 67.5455 36.6168 67.609C36.8368 68.0399 37.1401 68.4174 37.5135 68.7281C37.8568 69.0154 38.2435 69.2292 38.6668 69.3661ZM65.1435 59.7319C65.1435 61.3001 64.0988 62.5714 62.8101 62.5714C61.5215 62.5714 60.4768 61.3001 60.4768 59.7319C60.4768 58.1637 61.5215 56.8924 62.8101 56.8924C64.0988 56.8924 65.1435 58.1637 65.1435 59.7319ZM76.4768 60.5169C76.4768 62.0851 75.4321 63.3564 74.1435 63.3564C72.8548 63.3564 71.8101 62.0851 71.8101 60.5169C71.8101 58.9487 72.8548 57.6774 74.1435 57.6774C75.4321 57.6774 76.4768 58.9487 76.4768 60.5169Z" fill="black"/>
</g>
<defs>
<clipPath id="clip0_805_38588">
<rect width="180" height="180" rx="24" fill="white"/>
</clipPath>
<clipPath id="clip1_805_38588">
<rect width="200" height="200.436" fill="white" transform="translate(-10 95.2734)"/>
</clipPath>
</defs>
</svg>
