<svg width="48" height="48" viewBox="0 0 48 48" fill="none" xmlns="http://www.w3.org/2000/svg">
<mask id="mask0_664_33111" style="mask-type:alpha" maskUnits="userSpaceOnUse" x="0" y="0" width="48" height="48">
<rect y="48" width="48" height="48" transform="rotate(-90 0 48)" fill="#D9D9D9"/>
</mask>
<g mask="url(#mask0_664_33111)">
<path d="M23.9758 15.4504L38.6758 0.75039C39.1758 0.25039 39.7591 0.00872269 40.4258 0.0253891C41.0925 0.0420555 41.6758 0.300389 42.1758 0.800389C42.6758 1.30039 42.9258 1.88372 42.9258 2.55039C42.9258 3.21705 42.6758 3.80039 42.1758 4.30039L26.8258 19.7004C26.4258 20.1004 25.9758 20.4004 25.4758 20.6004C24.9758 20.8004 24.4758 20.9004 23.9758 20.9004C23.4758 20.9004 22.9758 20.8004 22.4758 20.6004C21.9758 20.4004 21.5258 20.1004 21.1258 19.7004L5.72581 4.30039C5.22581 3.80039 4.98414 3.20872 5.00081 2.52539C5.01747 1.84206 5.27581 1.25039 5.77581 0.750391C6.27581 0.250391 6.85914 0.000390925 7.52581 0.000390896C8.19247 0.000390867 8.77581 0.250391 9.27581 0.750391L23.9758 15.4504Z" fill="white"/>
</g>
</svg>
