<svg width="886" height="96" viewBox="0 0 886 96" fill="none" xmlns="http://www.w3.org/2000/svg">
<g filter="url(#filter0_f_397_488)">
<path d="M77.68 35.0337C77.68 47.8497 67.888 55.1937 46 55.1937C24.112 55.1937 14.32 47.8497 14.32 35.0337C14.32 22.2897 24.112 14.8737 46 14.8737C67.888 14.8737 77.68 22.2177 77.68 35.0337ZM12.88 58.0737H79.12V72.4738H68.68V82.5538H52.12V72.4738H39.88V82.5538H23.32V72.4738H12.88V58.0737ZM61.84 35.0337C61.84 30.3537 58.528 28.5537 46 28.5537C33.472 28.5537 30.16 30.3537 30.16 35.0337C30.16 39.7137 33.472 41.5137 46 41.5137C58.528 41.5137 61.84 39.7137 61.84 35.0337ZM104.32 64.0497L130.24 60.9537V75.3538L87.76 80.3938V17.0337H104.32V64.0497ZM153.28 14.8737V80.3938H136.72V14.8737H153.28ZM211.6 53.7537H205.12V75.3538L162.64 80.3938V17.0337H178.48V35.0337H189.28V17.0337H205.12V38.6337H211.6V14.8737H228.16V80.3938H211.6V53.7537ZM178.48 48.7137V64.8418L189.28 63.5457V48.7137H178.48ZM270.712 34.6737L256.744 58.7937H236.944L262.72 15.5937H281.8L273.448 29.9937H286.912L304.336 58.7937H284.248L270.712 34.6737ZM237.52 65.9937H303.76V80.3938H237.52V65.9937ZM376.48 81.8338H314.56V65.3457H358.48V63.5457H314.56V55.8417H376.48V72.3298H332.56V74.1298H376.48V81.8338ZM359.92 24.0177H314.56V16.3137H376.48V32.8017H331.12V34.6017H376.48V42.3057H314.56V25.8177H359.92V24.0177ZM312.4 44.4657H378.64V53.6817H312.4V44.4657ZM410.34 58.0737H472.98V82.5538H410.34V58.0737ZM410.34 30.3537H452.1V40.4337H426.9V43.6017L452.82 42.2337V53.0337L410.34 55.1937V30.3537ZM472.98 27.4737H478.74V42.5937H472.98V55.1937H456.42V14.8737H472.98V27.4737ZM410.34 17.0337H452.82V27.8337H410.34V17.0337ZM426.18 68.5137V72.1138H457.14V68.5137H426.18ZM485.22 59.5137H550.74V82.5538H485.22V59.5137ZM506.1 30.7137C521.004 30.7137 527.7 34.9617 527.7 43.6737C527.7 52.5297 521.004 56.6337 506.1 56.6337C491.196 56.6337 484.5 52.5297 484.5 43.6737C484.5 34.9617 491.196 30.7137 506.1 30.7137ZM550.74 14.8737V56.6337H534.18V46.5537H529.14V32.1537H534.18V14.8737H550.74ZM514.38 17.7537H526.98V29.2737H485.22V17.7537H497.82V12.7137H514.38V17.7537ZM501.06 69.2337V72.8338H534.9V69.2337H501.06ZM506.1 41.5137C500.34 41.5137 498.9 41.9457 498.9 43.6737C498.9 45.4017 500.34 45.8337 506.1 45.8337C511.86 45.8337 513.3 45.4017 513.3 43.6737C513.3 41.9457 511.86 41.5137 506.1 41.5137ZM602.58 56.9937C602.58 71.6098 596.244 81.1138 581.34 81.1138C566.436 81.1138 560.1 71.6098 560.1 56.9937C560.1 42.3777 566.436 32.8737 581.34 32.8737C596.244 32.8737 602.58 42.3777 602.58 56.9937ZM622.74 38.2737H628.5V54.1137H622.74V80.3938H606.18V14.8737H622.74V38.2737ZM589.62 18.4737H602.58V31.4337H560.1V18.4737H573.06V12.7137H589.62V18.4737ZM586.74 56.9937C586.74 49.3617 585.156 46.5537 581.34 46.5537C577.524 46.5537 575.94 49.3617 575.94 56.9937C575.94 64.6257 577.524 67.4337 581.34 67.4337C585.156 67.4337 586.74 64.6257 586.74 56.9937ZM653.7 30.7137H699.06V41.8737H637.14V16.3137H653.7V30.7137ZM653.7 70.6738H699.06V81.8338H637.14V59.1537H653.7V70.6738ZM634.98 44.7537H701.22V56.2737H634.98V44.7537ZM760.279 17.0337H775.399V51.5938L732.919 55.1937V17.0337H748.039V23.1537H760.279V17.0337ZM796.639 70.0978C796.639 78.7378 788.071 83.6338 765.319 83.6338C742.567 83.6338 733.999 78.7378 733.999 70.0978C733.999 61.4577 742.567 56.5617 765.319 56.5617C788.071 56.5617 796.639 61.4577 796.639 70.0978ZM795.559 27.4737H801.319V42.5937H795.559V55.1937H778.999V14.8737H795.559V27.4737ZM780.079 70.0978C780.079 68.4417 778.423 67.3617 765.319 67.3617C752.215 67.3617 750.559 68.4417 750.559 70.0978C750.559 71.7538 752.215 72.8338 765.319 72.8338C778.423 72.8338 780.079 71.7538 780.079 70.0978ZM748.039 35.3937V41.6577L760.279 40.6497V35.3937H748.039ZM873.319 14.8737V50.1537H856.759V39.3537H850.279V47.2737L807.799 50.1537V17.0337H822.919V22.7937H835.159V17.0337H850.279V25.6737H856.759V14.8737H873.319ZM856.759 52.3137H873.319V82.5538H807.799V52.3137H824.359V58.4337H856.759V52.3137ZM824.359 68.1537V72.1138H856.759V68.1537H824.359ZM822.919 32.8737V38.3457L835.159 37.5537V32.8737H822.919Z" fill="#D9D9D9" fill-opacity="0.1"/>
<path d="M12.88 58.0737V56.0737H10.88V58.0737H12.88ZM79.12 58.0737H81.12V56.0737H79.12V58.0737ZM79.12 72.4738V74.4738H81.12V72.4738H79.12ZM68.68 72.4738V70.4738H66.68V72.4738H68.68ZM68.68 82.5537V84.5537H70.68V82.5537H68.68ZM52.12 82.5537H50.12V84.5537H52.12V82.5537ZM52.12 72.4738H54.12V70.4738H52.12V72.4738ZM39.88 72.4738V70.4738H37.88V72.4738H39.88ZM39.88 82.5537V84.5537H41.88V82.5537H39.88ZM23.32 82.5537H21.32V84.5537H23.32V82.5537ZM23.32 72.4738H25.32V70.4738H23.32V72.4738ZM12.88 72.4738H10.88V74.4738H12.88V72.4738ZM75.68 35.0337C75.68 40.8464 73.5081 45.2252 68.9426 48.253C64.2368 51.3739 56.7818 53.1937 46 53.1937V57.1937C57.1062 57.1937 65.4912 55.3416 71.1534 51.5865C76.9559 47.7383 79.68 42.0371 79.68 35.0337H75.68ZM46 53.1937C35.2182 53.1937 27.7632 51.3739 23.0574 48.253C18.4919 45.2252 16.32 40.8464 16.32 35.0337H12.32C12.32 42.0371 15.0441 47.7383 20.8466 51.5865C26.5088 55.3416 34.8938 57.1937 46 57.1937V53.1937ZM16.32 35.0337C16.32 29.2599 18.4899 24.8786 23.0594 21.8402C27.7662 18.7105 35.2216 16.8737 46 16.8737V12.8737C34.8904 12.8737 26.5058 14.745 20.8446 18.5093C15.0461 22.3649 12.32 28.0636 12.32 35.0337H16.32ZM46 16.8737C56.7818 16.8737 64.2368 18.6936 68.9426 21.8145C73.5081 24.8423 75.68 29.2211 75.68 35.0337H79.68C79.68 28.0304 76.9559 22.3292 71.1534 18.481C65.4912 14.7259 57.1062 12.8737 46 12.8737V16.8737ZM12.88 60.0737H79.12V56.0737H12.88V60.0737ZM77.12 58.0737V72.4738H81.12V58.0737H77.12ZM79.12 70.4738H68.68V74.4738H79.12V70.4738ZM66.68 72.4738V82.5537H70.68V72.4738H66.68ZM68.68 80.5537H52.12V84.5537H68.68V80.5537ZM54.12 82.5537V72.4738H50.12V82.5537H54.12ZM52.12 70.4738H39.88V74.4738H52.12V70.4738ZM37.88 72.4738V82.5537H41.88V72.4738H37.88ZM39.88 80.5537H23.32V84.5537H39.88V80.5537ZM25.32 82.5537V72.4738H21.32V82.5537H25.32ZM23.32 70.4738H12.88V74.4738H23.32V70.4738ZM14.88 72.4738V58.0737H10.88V72.4738H14.88ZM63.84 35.0337C63.84 33.6371 63.5938 32.2461 62.8325 31.0026C62.0611 29.7427 60.8886 28.8415 59.4117 28.203C56.5944 26.985 52.2474 26.5537 46 26.5537V30.5537C52.2806 30.5537 55.8536 31.0225 57.8243 31.8745C58.7414 32.271 59.1799 32.6973 59.4211 33.0912C59.6722 33.5014 59.84 34.0904 59.84 35.0337H63.84ZM46 26.5537C39.7526 26.5537 35.4056 26.985 32.5883 28.203C31.1114 28.8415 29.9389 29.7427 29.1675 31.0026C28.4062 32.2461 28.16 33.6371 28.16 35.0337H32.16C32.16 34.0904 32.3278 33.5014 32.579 33.0912C32.8201 32.6973 33.2586 32.271 34.1757 31.8745C36.1464 31.0225 39.7194 30.5537 46 30.5537V26.5537ZM28.16 35.0337C28.16 36.4304 28.4062 37.8214 29.1675 39.0649C29.9389 40.3248 31.1114 41.226 32.5883 41.8645C35.4056 43.0825 39.7526 43.5137 46 43.5137V39.5137C39.7194 39.5137 36.1464 39.045 34.1757 38.193C33.2586 37.7965 32.8201 37.3702 32.579 36.9763C32.3278 36.5661 32.16 35.9771 32.16 35.0337H28.16ZM46 43.5137C52.2474 43.5137 56.5944 43.0825 59.4117 41.8645C60.8886 41.226 62.0611 40.3248 62.8325 39.0649C63.5938 37.8214 63.84 36.4304 63.84 35.0337H59.84C59.84 35.9771 59.6722 36.5661 59.4211 36.9763C59.1799 37.3702 58.7414 37.7965 57.8243 38.193C55.8536 39.045 52.2806 39.5137 46 39.5137V43.5137ZM104.32 64.0498H102.32V66.3029L104.557 66.0356L104.32 64.0498ZM130.24 60.9538H132.24V58.7006L130.003 58.9679L130.24 60.9538ZM130.24 75.3538L130.476 77.3398L132.24 77.1305V75.3538H130.24ZM87.76 80.3938H85.76V82.6451L87.9956 82.3798L87.76 80.3938ZM87.76 17.0337V15.0337H85.76V17.0337H87.76ZM104.32 17.0337H106.32V15.0337H104.32V17.0337ZM153.28 14.8737H155.28V12.8737H153.28V14.8737ZM153.28 80.3938V82.3938H155.28V80.3938H153.28ZM136.72 80.3938H134.72V82.3938H136.72V80.3938ZM136.72 14.8737V12.8737H134.72V14.8737H136.72ZM104.557 66.0356L130.477 62.9396L130.003 58.9679L104.083 62.0639L104.557 66.0356ZM128.24 60.9538V75.3538H132.24V60.9538H128.24ZM130.004 73.3677L87.5244 78.4077L87.9956 82.3798L130.476 77.3398L130.004 73.3677ZM89.76 80.3938V17.0337H85.76V80.3938H89.76ZM87.76 19.0337H104.32V15.0337H87.76V19.0337ZM102.32 17.0337V64.0498H106.32V17.0337H102.32ZM151.28 14.8737V80.3938H155.28V14.8737H151.28ZM153.28 78.3937H136.72V82.3938H153.28V78.3937ZM138.72 80.3938V14.8737H134.72V80.3938H138.72ZM136.72 16.8737H153.28V12.8737H136.72V16.8737ZM211.6 53.7537H213.6V51.7537H211.6V53.7537ZM205.12 53.7537V51.7537H203.12V53.7537H205.12ZM205.12 75.3538L205.356 77.3398L207.12 77.1305V75.3538H205.12ZM162.64 80.3938H160.64V82.6451L162.876 82.3798L162.64 80.3938ZM162.64 17.0337V15.0337H160.64V17.0337H162.64ZM178.48 17.0337H180.48V15.0337H178.48V17.0337ZM178.48 35.0337H176.48V37.0337H178.48V35.0337ZM189.28 35.0337V37.0337H191.28V35.0337H189.28ZM189.28 17.0337V15.0337H187.28V17.0337H189.28ZM205.12 17.0337H207.12V15.0337H205.12V17.0337ZM205.12 38.6337H203.12V40.6337H205.12V38.6337ZM211.6 38.6337V40.6337H213.6V38.6337H211.6ZM211.6 14.8737V12.8737H209.6V14.8737H211.6ZM228.16 14.8737H230.16V12.8737H228.16V14.8737ZM228.16 80.3938V82.3938H230.16V80.3938H228.16ZM211.6 80.3938H209.6V82.3938H211.6V80.3938ZM178.48 48.7137V46.7137H176.48V48.7137H178.48ZM178.48 64.8418H176.48V67.0961L178.718 66.8275L178.48 64.8418ZM189.28 63.5457L189.518 65.5315L191.28 65.3201V63.5457H189.28ZM189.28 48.7137H191.28V46.7137H189.28V48.7137ZM211.6 51.7537H205.12V55.7537H211.6V51.7537ZM203.12 53.7537V75.3538H207.12V53.7537H203.12ZM204.884 73.3677L162.404 78.4077L162.876 82.3798L205.356 77.3398L204.884 73.3677ZM164.64 80.3938V17.0337H160.64V80.3938H164.64ZM162.64 19.0337H178.48V15.0337H162.64V19.0337ZM176.48 17.0337V35.0337H180.48V17.0337H176.48ZM178.48 37.0337H189.28V33.0337H178.48V37.0337ZM191.28 35.0337V17.0337H187.28V35.0337H191.28ZM189.28 19.0337H205.12V15.0337H189.28V19.0337ZM203.12 17.0337V38.6337H207.12V17.0337H203.12ZM205.12 40.6337H211.6V36.6337H205.12V40.6337ZM213.6 38.6337V14.8737H209.6V38.6337H213.6ZM211.6 16.8737H228.16V12.8737H211.6V16.8737ZM226.16 14.8737V80.3938H230.16V14.8737H226.16ZM228.16 78.3937H211.6V82.3938H228.16V78.3937ZM213.6 80.3938V53.7537H209.6V80.3938H213.6ZM176.48 48.7137V64.8418H180.48V48.7137H176.48ZM178.718 66.8275L189.518 65.5315L189.042 61.56L178.242 62.856L178.718 66.8275ZM191.28 63.5457V48.7137H187.28V63.5457H191.28ZM189.28 46.7137H178.48V50.7137H189.28V46.7137ZM270.712 34.6737L272.456 33.695L270.739 30.6357L268.981 33.6715L270.712 34.6737ZM256.744 58.7938V60.7938H257.897L258.475 59.796L256.744 58.7938ZM236.944 58.7938L235.226 57.769L233.422 60.7938H236.944V58.7938ZM262.72 15.5937V13.5937H261.584L261.002 14.569L262.72 15.5937ZM281.8 15.5937L283.53 16.5972L285.272 13.5937H281.8V15.5937ZM273.448 29.9937L271.718 28.9903L269.976 31.9937H273.448V29.9937ZM286.912 29.9937L288.623 28.9585L288.04 27.9937H286.912V29.9937ZM304.336 58.7938V60.7938H307.884L306.047 57.7585L304.336 58.7938ZM284.248 58.7938L282.504 59.7725L283.077 60.7938H284.248V58.7938ZM237.52 65.9938V63.9938H235.52V65.9938H237.52ZM303.76 65.9938H305.76V63.9938H303.76V65.9938ZM303.76 80.3938V82.3938H305.76V80.3938H303.76ZM237.52 80.3938H235.52V82.3938H237.52V80.3938ZM268.981 33.6715L255.013 57.7915L258.475 59.796L272.443 35.676L268.981 33.6715ZM256.744 56.7938H236.944V60.7938H256.744V56.7938ZM238.661 59.8185L264.438 16.6185L261.002 14.569L235.226 57.769L238.661 59.8185ZM262.72 17.5937H281.8V13.5937H262.72V17.5937ZM280.07 14.5903L271.718 28.9903L275.178 30.9972L283.53 16.5972L280.07 14.5903ZM273.448 31.9937H286.912V27.9937H273.448V31.9937ZM285.201 31.029L302.625 59.829L306.047 57.7585L288.623 28.9585L285.201 31.029ZM304.336 56.7938H284.248V60.7938H304.336V56.7938ZM285.992 57.815L272.456 33.695L268.968 35.6525L282.504 59.7725L285.992 57.815ZM237.52 67.9938H303.76V63.9938H237.52V67.9938ZM301.76 65.9938V80.3938H305.76V65.9938H301.76ZM303.76 78.3937H237.52V82.3938H303.76V78.3937ZM239.52 80.3938V65.9938H235.52V80.3938H239.52ZM376.48 81.8337V83.8337H378.48V81.8337H376.48ZM314.56 81.8337H312.56V83.8337H314.56V81.8337ZM314.56 65.3457V63.3457H312.56V65.3457H314.56ZM358.48 65.3457V67.3457H360.48V65.3457H358.48ZM358.48 63.5457H360.48V61.5457H358.48V63.5457ZM314.56 63.5457H312.56V65.5457H314.56V63.5457ZM314.56 55.8417V53.8417H312.56V55.8417H314.56ZM376.48 55.8417H378.48V53.8417H376.48V55.8417ZM376.48 72.3298V74.3298H378.48V72.3298H376.48ZM332.56 72.3298V70.3298H330.56V72.3298H332.56ZM332.56 74.1297H330.56V76.1297H332.56V74.1297ZM376.48 74.1297H378.48V72.1297H376.48V74.1297ZM359.92 24.0177H361.92V22.0177H359.92V24.0177ZM314.56 24.0177H312.56V26.0177H314.56V24.0177ZM314.56 16.3137V14.3137H312.56V16.3137H314.56ZM376.48 16.3137H378.48V14.3137H376.48V16.3137ZM376.48 32.8017V34.8017H378.48V32.8017H376.48ZM331.12 32.8017V30.8017H329.12V32.8017H331.12ZM331.12 34.6017H329.12V36.6017H331.12V34.6017ZM376.48 34.6017H378.48V32.6017H376.48V34.6017ZM376.48 42.3057V44.3057H378.48V42.3057H376.48ZM314.56 42.3057H312.56V44.3057H314.56V42.3057ZM314.56 25.8177V23.8177H312.56V25.8177H314.56ZM359.92 25.8177V27.8177H361.92V25.8177H359.92ZM312.4 44.4657V42.4657H310.4V44.4657H312.4ZM378.64 44.4657H380.64V42.4657H378.64V44.4657ZM378.64 53.6817V55.6817H380.64V53.6817H378.64ZM312.4 53.6817H310.4V55.6817H312.4V53.6817ZM376.48 79.8337H314.56V83.8337H376.48V79.8337ZM316.56 81.8337V65.3457H312.56V81.8337H316.56ZM314.56 67.3457H358.48V63.3457H314.56V67.3457ZM360.48 65.3457V63.5457H356.48V65.3457H360.48ZM358.48 61.5457H314.56V65.5457H358.48V61.5457ZM316.56 63.5457V55.8417H312.56V63.5457H316.56ZM314.56 57.8417H376.48V53.8417H314.56V57.8417ZM374.48 55.8417V72.3298H378.48V55.8417H374.48ZM376.48 70.3298H332.56V74.3298H376.48V70.3298ZM330.56 72.3298V74.1297H334.56V72.3298H330.56ZM332.56 76.1297H376.48V72.1297H332.56V76.1297ZM374.48 74.1297V81.8337H378.48V74.1297H374.48ZM359.92 22.0177H314.56V26.0177H359.92V22.0177ZM316.56 24.0177V16.3137H312.56V24.0177H316.56ZM314.56 18.3137H376.48V14.3137H314.56V18.3137ZM374.48 16.3137V32.8017H378.48V16.3137H374.48ZM376.48 30.8017H331.12V34.8017H376.48V30.8017ZM329.12 32.8017V34.6017H333.12V32.8017H329.12ZM331.12 36.6017H376.48V32.6017H331.12V36.6017ZM374.48 34.6017V42.3057H378.48V34.6017H374.48ZM376.48 40.3057H314.56V44.3057H376.48V40.3057ZM316.56 42.3057V25.8177H312.56V42.3057H316.56ZM314.56 27.8177H359.92V23.8177H314.56V27.8177ZM361.92 25.8177V24.0177H357.92V25.8177H361.92ZM312.4 46.4657H378.64V42.4657H312.4V46.4657ZM376.64 44.4657V53.6817H380.64V44.4657H376.64ZM378.64 51.6817H312.4V55.6817H378.64V51.6817ZM314.4 53.6817V44.4657H310.4V53.6817H314.4ZM410.34 58.0737V56.0737H408.34V58.0737H410.34ZM472.98 58.0737H474.98V56.0737H472.98V58.0737ZM472.98 82.5537V84.5537H474.98V82.5537H472.98ZM410.34 82.5537H408.34V84.5537H410.34V82.5537ZM410.34 30.3537V28.3537H408.34V30.3537H410.34ZM452.1 30.3537H454.1V28.3537H452.1V30.3537ZM452.1 40.4337V42.4337H454.1V40.4337H452.1ZM426.9 40.4337V38.4337H424.9V40.4337H426.9ZM426.9 43.6017H424.9V45.7101L427.005 45.599L426.9 43.6017ZM452.82 42.2337H454.82V40.1254L452.714 40.2365L452.82 42.2337ZM452.82 53.0337L452.921 55.0312L454.82 54.9346V53.0337H452.82ZM410.34 55.1937H408.34V57.298L410.441 57.1912L410.34 55.1937ZM472.98 27.4737H470.98V29.4737H472.98V27.4737ZM478.74 27.4737H480.74V25.4737H478.74V27.4737ZM478.74 42.5937V44.5937H480.74V42.5937H478.74ZM472.98 42.5937V40.5937H470.98V42.5937H472.98ZM472.98 55.1937V57.1937H474.98V55.1937H472.98ZM456.42 55.1937H454.42V57.1937H456.42V55.1937ZM456.42 14.8737V12.8737H454.42V14.8737H456.42ZM472.98 14.8737H474.98V12.8737H472.98V14.8737ZM410.34 17.0337V15.0337H408.34V17.0337H410.34ZM452.82 17.0337H454.82V15.0337H452.82V17.0337ZM452.82 27.8337V29.8337H454.82V27.8337H452.82ZM410.34 27.8337H408.34V29.8337H410.34V27.8337ZM426.18 68.5137V66.5137H424.18V68.5137H426.18ZM426.18 72.1138H424.18V74.1138H426.18V72.1138ZM457.14 72.1138V74.1138H459.14V72.1138H457.14ZM457.14 68.5137H459.14V66.5137H457.14V68.5137ZM410.34 60.0737H472.98V56.0737H410.34V60.0737ZM470.98 58.0737V82.5537H474.98V58.0737H470.98ZM472.98 80.5537H410.34V84.5537H472.98V80.5537ZM412.34 82.5537V58.0737H408.34V82.5537H412.34ZM410.34 32.3537H452.1V28.3537H410.34V32.3537ZM450.1 30.3537V40.4337H454.1V30.3537H450.1ZM452.1 38.4337H426.9V42.4337H452.1V38.4337ZM424.9 40.4337V43.6017H428.9V40.4337H424.9ZM427.005 45.599L452.925 44.231L452.714 40.2365L426.794 41.6045L427.005 45.599ZM450.82 42.2337V53.0337H454.82V42.2337H450.82ZM452.718 51.0363L410.238 53.1963L410.441 57.1912L452.921 55.0312L452.718 51.0363ZM412.34 55.1937V30.3537H408.34V55.1937H412.34ZM472.98 29.4737H478.74V25.4737H472.98V29.4737ZM476.74 27.4737V42.5937H480.74V27.4737H476.74ZM478.74 40.5937H472.98V44.5937H478.74V40.5937ZM470.98 42.5937V55.1937H474.98V42.5937H470.98ZM472.98 53.1937H456.42V57.1937H472.98V53.1937ZM458.42 55.1937V14.8737H454.42V55.1937H458.42ZM456.42 16.8737H472.98V12.8737H456.42V16.8737ZM470.98 14.8737V27.4737H474.98V14.8737H470.98ZM410.34 19.0337H452.82V15.0337H410.34V19.0337ZM450.82 17.0337V27.8337H454.82V17.0337H450.82ZM452.82 25.8337H410.34V29.8337H452.82V25.8337ZM412.34 27.8337V17.0337H408.34V27.8337H412.34ZM424.18 68.5137V72.1138H428.18V68.5137H424.18ZM426.18 74.1138H457.14V70.1138H426.18V74.1138ZM459.14 72.1138V68.5137H455.14V72.1138H459.14ZM457.14 66.5137H426.18V70.5137H457.14V66.5137ZM485.22 59.5137V57.5137H483.22V59.5137H485.22ZM550.74 59.5137H552.74V57.5137H550.74V59.5137ZM550.74 82.5537V84.5537H552.74V82.5537H550.74ZM485.22 82.5537H483.22V84.5537H485.22V82.5537ZM550.74 14.8737H552.74V12.8737H550.74V14.8737ZM550.74 56.6338V58.6338H552.74V56.6338H550.74ZM534.18 56.6338H532.18V58.6338H534.18V56.6338ZM534.18 46.5537H536.18V44.5537H534.18V46.5537ZM529.14 46.5537H527.14V48.5537H529.14V46.5537ZM529.14 32.1537V30.1537H527.14V32.1537H529.14ZM534.18 32.1537V34.1537H536.18V32.1537H534.18ZM534.18 14.8737V12.8737H532.18V14.8737H534.18ZM514.38 17.7537H512.38V19.7537H514.38V17.7537ZM526.98 17.7537H528.98V15.7537H526.98V17.7537ZM526.98 29.2738V31.2738H528.98V29.2738H526.98ZM485.22 29.2738H483.22V31.2738H485.22V29.2738ZM485.22 17.7537V15.7537H483.22V17.7537H485.22ZM497.82 17.7537V19.7537H499.82V17.7537H497.82ZM497.82 12.7137V10.7137H495.82V12.7137H497.82ZM514.38 12.7137H516.38V10.7137H514.38V12.7137ZM501.06 69.2337V67.2337H499.06V69.2337H501.06ZM501.06 72.8338H499.06V74.8338H501.06V72.8338ZM534.9 72.8338V74.8338H536.9V72.8338H534.9ZM534.9 69.2337H536.9V67.2337H534.9V69.2337ZM485.22 61.5137H550.74V57.5137H485.22V61.5137ZM548.74 59.5137V82.5537H552.74V59.5137H548.74ZM550.74 80.5537H485.22V84.5537H550.74V80.5537ZM487.22 82.5537V59.5137H483.22V82.5537H487.22ZM506.1 32.7137C513.436 32.7137 518.387 33.773 521.449 35.6356C524.327 37.3853 525.7 39.9387 525.7 43.6737H529.7C529.7 38.6968 527.725 34.7702 523.528 32.2179C519.517 29.7785 513.667 28.7137 506.1 28.7137V32.7137ZM525.7 43.6737C525.7 47.4897 524.32 50.0347 521.456 51.7621C518.395 53.6077 513.446 54.6338 506.1 54.6338V58.6338C513.657 58.6338 519.508 57.6078 523.522 55.1874C527.731 52.6488 529.7 48.7138 529.7 43.6737H525.7ZM506.1 54.6338C498.753 54.6338 493.804 53.6077 490.744 51.7621C487.879 50.0347 486.5 47.4897 486.5 43.6737H482.5C482.5 48.7138 484.468 52.6488 488.678 55.1874C492.691 57.6078 498.542 58.6338 506.1 58.6338V54.6338ZM486.5 43.6737C486.5 39.9387 487.873 37.3853 490.75 35.6356C493.813 33.773 498.763 32.7137 506.1 32.7137V28.7137C498.532 28.7137 492.683 29.7785 488.671 32.2179C484.475 34.7702 482.5 38.6968 482.5 43.6737H486.5ZM548.74 14.8737V56.6338H552.74V14.8737H548.74ZM550.74 54.6338H534.18V58.6338H550.74V54.6338ZM536.18 56.6338V46.5537H532.18V56.6338H536.18ZM534.18 44.5537H529.14V48.5537H534.18V44.5537ZM531.14 46.5537V32.1537H527.14V46.5537H531.14ZM529.14 34.1537H534.18V30.1537H529.14V34.1537ZM536.18 32.1537V14.8737H532.18V32.1537H536.18ZM534.18 16.8737H550.74V12.8737H534.18V16.8737ZM514.38 19.7537H526.98V15.7537H514.38V19.7537ZM524.98 17.7537V29.2738H528.98V17.7537H524.98ZM526.98 27.2738H485.22V31.2738H526.98V27.2738ZM487.22 29.2738V17.7537H483.22V29.2738H487.22ZM485.22 19.7537H497.82V15.7537H485.22V19.7537ZM499.82 17.7537V12.7137H495.82V17.7537H499.82ZM497.82 14.7137H514.38V10.7137H497.82V14.7137ZM512.38 12.7137V17.7537H516.38V12.7137H512.38ZM499.06 69.2337V72.8338H503.06V69.2337H499.06ZM501.06 74.8338H534.9V70.8338H501.06V74.8338ZM536.9 72.8338V69.2337H532.9V72.8338H536.9ZM534.9 67.2337H501.06V71.2337H534.9V67.2337ZM506.1 39.5137C503.276 39.5137 501.175 39.6072 499.765 40.0301C499.016 40.2549 498.224 40.638 497.648 41.3639C497.05 42.117 496.9 42.9647 496.9 43.6737H500.9C500.9 43.5188 500.929 43.6645 500.781 43.8506C500.655 44.0095 500.584 43.9606 500.914 43.8614C501.665 43.6363 503.163 43.5137 506.1 43.5137V39.5137ZM496.9 43.6737C496.9 44.3828 497.05 45.2305 497.648 45.9836C498.224 46.7095 499.016 47.0926 499.765 47.3174C501.175 47.7403 503.276 47.8337 506.1 47.8337V43.8337C503.163 43.8337 501.665 43.7112 500.914 43.4861C500.584 43.3869 500.655 43.338 500.781 43.4969C500.929 43.683 500.9 43.8287 500.9 43.6737H496.9ZM506.1 47.8337C508.923 47.8337 511.025 47.7403 512.434 47.3174C513.184 47.0926 513.975 46.7095 514.551 45.9836C515.149 45.2305 515.3 44.3828 515.3 43.6737H511.3C511.3 43.8287 511.27 43.683 511.418 43.4969C511.544 43.338 511.616 43.3869 511.285 43.4861C510.535 43.7112 509.036 43.8337 506.1 43.8337V47.8337ZM515.3 43.6737C515.3 42.9647 515.149 42.117 514.551 41.3639C513.975 40.638 513.184 40.2549 512.434 40.0301C511.025 39.6072 508.923 39.5137 506.1 39.5137V43.5137C509.036 43.5137 510.535 43.6363 511.285 43.8614C511.616 43.9606 511.544 44.0095 511.418 43.8506C511.27 43.6645 511.3 43.5188 511.3 43.6737H515.3ZM622.74 38.2737H620.74V40.2737H622.74V38.2737ZM628.5 38.2737H630.5V36.2737H628.5V38.2737ZM628.5 54.1138V56.1138H630.5V54.1138H628.5ZM622.74 54.1138V52.1138H620.74V54.1138H622.74ZM622.74 80.3938V82.3938H624.74V80.3938H622.74ZM606.18 80.3938H604.18V82.3938H606.18V80.3938ZM606.18 14.8737V12.8737H604.18V14.8737H606.18ZM622.74 14.8737H624.74V12.8737H622.74V14.8737ZM589.62 18.4737H587.62V20.4737H589.62V18.4737ZM602.58 18.4737H604.58V16.4737H602.58V18.4737ZM602.58 31.4337V33.4337H604.58V31.4337H602.58ZM560.1 31.4337H558.1V33.4337H560.1V31.4337ZM560.1 18.4737V16.4737H558.1V18.4737H560.1ZM573.06 18.4737V20.4737H575.06V18.4737H573.06ZM573.06 12.7137V10.7137H571.06V12.7137H573.06ZM589.62 12.7137H591.62V10.7137H589.62V12.7137ZM600.58 56.9937C600.58 64.0562 599.043 69.559 596.002 73.2665C593.02 76.9032 588.34 79.1138 581.34 79.1138V83.1138C589.243 83.1138 595.184 80.5723 599.095 75.803C602.948 71.1045 604.58 64.5473 604.58 56.9937H600.58ZM581.34 79.1138C574.339 79.1138 569.66 76.9032 566.677 73.2665C563.636 69.559 562.1 64.0562 562.1 56.9937H558.1C558.1 64.5473 559.731 71.1045 563.584 75.803C567.496 80.5723 573.436 83.1138 581.34 83.1138V79.1138ZM562.1 56.9937C562.1 49.9313 563.636 44.4285 566.677 40.721C569.66 37.0843 574.339 34.8737 581.34 34.8737V30.8737C573.436 30.8737 567.496 33.4152 563.584 38.1845C559.731 42.883 558.1 49.4402 558.1 56.9937H562.1ZM581.34 34.8737C588.34 34.8737 593.02 37.0843 596.002 40.721C599.043 44.4285 600.58 49.9313 600.58 56.9937H604.58C604.58 49.4402 602.948 42.883 599.095 38.1845C595.184 33.4152 589.243 30.8737 581.34 30.8737V34.8737ZM622.74 40.2737H628.5V36.2737H622.74V40.2737ZM626.5 38.2737V54.1138H630.5V38.2737H626.5ZM628.5 52.1138H622.74V56.1138H628.5V52.1138ZM620.74 54.1138V80.3938H624.74V54.1138H620.74ZM622.74 78.3937H606.18V82.3938H622.74V78.3937ZM608.18 80.3938V14.8737H604.18V80.3938H608.18ZM606.18 16.8737H622.74V12.8737H606.18V16.8737ZM620.74 14.8737V38.2737H624.74V14.8737H620.74ZM589.62 20.4737H602.58V16.4737H589.62V20.4737ZM600.58 18.4737V31.4337H604.58V18.4737H600.58ZM602.58 29.4337H560.1V33.4337H602.58V29.4337ZM562.1 31.4337V18.4737H558.1V31.4337H562.1ZM560.1 20.4737H573.06V16.4737H560.1V20.4737ZM575.06 18.4737V12.7137H571.06V18.4737H575.06ZM573.06 14.7137H589.62V10.7137H573.06V14.7137ZM587.62 12.7137V18.4737H591.62V12.7137H587.62ZM588.74 56.9937C588.74 53.1375 588.357 50.0983 587.24 47.9791C586.652 46.8643 585.842 45.9651 584.768 45.3655C583.709 44.7741 582.536 44.5537 581.34 44.5537V48.5537C582.052 48.5537 582.507 48.6844 582.818 48.858C583.115 49.0234 583.416 49.3032 583.701 49.8444C584.33 51.0372 584.74 53.218 584.74 56.9937H588.74ZM581.34 44.5537C580.144 44.5537 578.97 44.7741 577.911 45.3655C576.837 45.9651 576.027 46.8643 575.439 47.9791C574.322 50.0983 573.94 53.1375 573.94 56.9937H577.94C577.94 53.218 578.349 51.0372 578.978 49.8444C579.263 49.3032 579.565 49.0234 579.861 48.858C580.172 48.6844 580.628 48.5537 581.34 48.5537V44.5537ZM573.94 56.9937C573.94 60.85 574.322 63.8892 575.439 66.0084C576.027 67.1232 576.837 68.0224 577.911 68.622C578.97 69.2134 580.144 69.4338 581.34 69.4338V65.4338C580.628 65.4338 580.172 65.3031 579.861 65.1295C579.565 64.9641 579.263 64.6843 578.978 64.1431C578.349 62.9503 577.94 60.7695 577.94 56.9937H573.94ZM581.34 69.4338C582.536 69.4338 583.709 69.2134 584.768 68.622C585.842 68.0224 586.652 67.1232 587.24 66.0084C588.357 63.8892 588.74 60.85 588.74 56.9937H584.74C584.74 60.7695 584.33 62.9503 583.701 64.1431C583.416 64.6843 583.115 64.9641 582.818 65.1295C582.507 65.3031 582.052 65.4338 581.34 65.4338V69.4338ZM653.7 30.7137H651.7V32.7137H653.7V30.7137ZM699.06 30.7137H701.06V28.7137H699.06V30.7137ZM699.06 41.8737V43.8737H701.06V41.8737H699.06ZM637.14 41.8737H635.14V43.8737H637.14V41.8737ZM637.14 16.3137V14.3137H635.14V16.3137H637.14ZM653.7 16.3137H655.7V14.3137H653.7V16.3137ZM653.7 70.6738H651.7V72.6738H653.7V70.6738ZM699.06 70.6738H701.06V68.6738H699.06V70.6738ZM699.06 81.8337V83.8337H701.06V81.8337H699.06ZM637.14 81.8337H635.14V83.8337H637.14V81.8337ZM637.14 59.1537V57.1537H635.14V59.1537H637.14ZM653.7 59.1537H655.7V57.1537H653.7V59.1537ZM634.98 44.7537V42.7537H632.98V44.7537H634.98ZM701.22 44.7537H703.22V42.7537H701.22V44.7537ZM701.22 56.2738V58.2738H703.22V56.2738H701.22ZM634.98 56.2738H632.98V58.2738H634.98V56.2738ZM653.7 32.7137H699.06V28.7137H653.7V32.7137ZM697.06 30.7137V41.8737H701.06V30.7137H697.06ZM699.06 39.8737H637.14V43.8737H699.06V39.8737ZM639.14 41.8737V16.3137H635.14V41.8737H639.14ZM637.14 18.3137H653.7V14.3137H637.14V18.3137ZM651.7 16.3137V30.7137H655.7V16.3137H651.7ZM653.7 72.6738H699.06V68.6738H653.7V72.6738ZM697.06 70.6738V81.8337H701.06V70.6738H697.06ZM699.06 79.8337H637.14V83.8337H699.06V79.8337ZM639.14 81.8337V59.1537H635.14V81.8337H639.14ZM637.14 61.1537H653.7V57.1537H637.14V61.1537ZM651.7 59.1537V70.6738H655.7V59.1537H651.7ZM634.98 46.7537H701.22V42.7537H634.98V46.7537ZM699.22 44.7537V56.2738H703.22V44.7537H699.22ZM701.22 54.2738H634.98V58.2738H701.22V54.2738ZM636.98 56.2738V44.7537H632.98V56.2738H636.98ZM760.279 17.0337V15.0337H758.279V17.0337H760.279ZM775.399 17.0337H777.399V15.0337H775.399V17.0337ZM775.399 51.5938L775.568 53.5866L777.399 53.4314V51.5938H775.399ZM732.919 55.1937H730.919V57.3704L733.088 57.1866L732.919 55.1937ZM732.919 17.0337V15.0337H730.919V17.0337H732.919ZM748.039 17.0337H750.039V15.0337H748.039V17.0337ZM748.039 23.1537H746.039V25.1537H748.039V23.1537ZM760.279 23.1537V25.1537H762.279V23.1537H760.279ZM795.559 27.4737H793.559V29.4737H795.559V27.4737ZM801.319 27.4737H803.319V25.4737H801.319V27.4737ZM801.319 42.5937V44.5937H803.319V42.5937H801.319ZM795.559 42.5937V40.5937H793.559V42.5937H795.559ZM795.559 55.1937V57.1937H797.559V55.1937H795.559ZM778.999 55.1937H776.999V57.1937H778.999V55.1937ZM778.999 14.8737V12.8737H776.999V14.8737H778.999ZM795.559 14.8737H797.559V12.8737H795.559V14.8737ZM748.039 35.3937V33.3937H746.039V35.3937H748.039ZM748.039 41.6577H746.039V43.8292L748.203 43.651L748.039 41.6577ZM760.279 40.6497L760.444 42.643L762.279 42.4918V40.6497H760.279ZM760.279 35.3937H762.279V33.3937H760.279V35.3937ZM760.279 19.0337H775.399V15.0337H760.279V19.0337ZM773.399 17.0337V51.5938H777.399V17.0337H773.399ZM775.23 49.6009L732.75 53.2009L733.088 57.1866L775.568 53.5866L775.23 49.6009ZM734.919 55.1937V17.0337H730.919V55.1937H734.919ZM732.919 19.0337H748.039V15.0337H732.919V19.0337ZM746.039 17.0337V23.1537H750.039V17.0337H746.039ZM748.039 25.1537H760.279V21.1537H748.039V25.1537ZM762.279 23.1537V17.0337H758.279V23.1537H762.279ZM794.639 70.0978C794.639 71.9098 794.197 73.4252 793.301 74.7194C792.394 76.0292 790.929 77.2473 788.672 78.2902C784.094 80.406 776.624 81.6338 765.319 81.6338V85.6338C776.767 85.6338 784.957 84.4135 790.35 81.9213C793.079 80.6602 795.179 79.0343 796.59 76.9961C798.011 74.9423 798.639 72.6057 798.639 70.0978H794.639ZM765.319 81.6338C754.015 81.6338 746.545 80.406 741.966 78.2902C739.709 77.2473 738.245 76.0292 737.338 74.7194C736.442 73.4252 735.999 71.9098 735.999 70.0978H731.999C731.999 72.6057 732.628 74.9423 734.049 76.9961C735.46 79.0343 737.559 80.6602 740.288 81.9213C745.682 84.4135 753.872 85.6338 765.319 85.6338V81.6338ZM735.999 70.0978C735.999 68.2857 736.442 66.7703 737.338 65.4761C738.245 64.1663 739.709 62.9482 741.966 61.9053C746.545 59.7895 754.015 58.5617 765.319 58.5617V54.5617C753.872 54.5617 745.682 55.782 740.288 58.2742C737.559 59.5353 735.46 61.1612 734.049 63.1994C732.628 65.2532 731.999 67.5898 731.999 70.0978H735.999ZM765.319 58.5617C776.624 58.5617 784.094 59.7895 788.672 61.9053C790.929 62.9482 792.394 64.1663 793.301 65.4761C794.197 66.7703 794.639 68.2857 794.639 70.0978H798.639C798.639 67.5898 798.011 65.2532 796.59 63.1994C795.179 61.1612 793.079 59.5353 790.35 58.2742C784.957 55.782 776.767 54.5617 765.319 54.5617V58.5617ZM795.559 29.4737H801.319V25.4737H795.559V29.4737ZM799.319 27.4737V42.5937H803.319V27.4737H799.319ZM801.319 40.5937H795.559V44.5937H801.319V40.5937ZM793.559 42.5937V55.1937H797.559V42.5937H793.559ZM795.559 53.1937H778.999V57.1937H795.559V53.1937ZM780.999 55.1937V14.8737H776.999V55.1937H780.999ZM778.999 16.8737H795.559V12.8737H778.999V16.8737ZM793.559 14.8737V27.4737H797.559V14.8737H793.559ZM782.079 70.0978C782.079 69.2839 781.846 68.313 780.976 67.5057C780.233 66.8157 779.207 66.4258 778.066 66.1607C775.763 65.6252 771.858 65.3618 765.319 65.3618V69.3618C771.885 69.3618 775.36 69.6383 777.161 70.0568C778.072 70.2687 778.279 70.4593 778.255 70.4375C778.106 70.2985 778.079 70.0836 778.079 70.0978H782.079ZM765.319 65.3618C758.781 65.3618 754.876 65.6252 752.573 66.1607C751.432 66.4258 750.406 66.8157 749.662 67.5057C748.793 68.313 748.559 69.2839 748.559 70.0978H752.559C752.559 70.0836 752.533 70.2985 752.383 70.4375C752.36 70.4593 752.567 70.2687 753.478 70.0568C755.279 69.6383 758.754 69.3618 765.319 69.3618V65.3618ZM748.559 70.0978C748.559 70.9116 748.793 71.8825 749.662 72.6898C750.406 73.3798 751.432 73.7696 752.573 74.0348C754.876 74.5703 758.781 74.8338 765.319 74.8338V70.8338C758.754 70.8338 755.279 70.5572 753.478 70.1387C752.567 69.9268 752.36 69.7362 752.383 69.758C752.533 69.897 752.559 70.1119 752.559 70.0978H748.559ZM765.319 74.8338C771.858 74.8338 775.763 74.5703 778.066 74.0348C779.207 73.7696 780.233 73.3798 780.976 72.6898C781.846 71.8825 782.079 70.9116 782.079 70.0978H778.079C778.079 70.1119 778.106 69.897 778.255 69.758C778.279 69.7362 778.072 69.9268 777.161 70.1387C775.36 70.5572 771.885 70.8338 765.319 70.8338V74.8338ZM746.039 35.3937V41.6577H750.039V35.3937H746.039ZM748.203 43.651L760.444 42.643L760.115 38.6565L747.875 39.6645L748.203 43.651ZM762.279 40.6497V35.3937H758.279V40.6497H762.279ZM760.279 33.3937H748.039V37.3937H760.279V33.3937ZM873.319 14.8737H875.319V12.8737H873.319V14.8737ZM873.319 50.1537V52.1537H875.319V50.1537H873.319ZM856.759 50.1537H854.759V52.1537H856.759V50.1537ZM856.759 39.3537H858.759V37.3537H856.759V39.3537ZM850.279 39.3537V37.3537H848.279V39.3537H850.279ZM850.279 47.2738L850.415 49.2692L852.279 49.1427V47.2738H850.279ZM807.799 50.1537H805.799V52.2939L807.935 52.1492L807.799 50.1537ZM807.799 17.0337V15.0337H805.799V17.0337H807.799ZM822.919 17.0337H824.919V15.0337H822.919V17.0337ZM822.919 22.7937H820.919V24.7937H822.919V22.7937ZM835.159 22.7937V24.7937H837.159V22.7937H835.159ZM835.159 17.0337V15.0337H833.159V17.0337H835.159ZM850.279 17.0337H852.279V15.0337H850.279V17.0337ZM850.279 25.6737H848.279V27.6737H850.279V25.6737ZM856.759 25.6737V27.6737H858.759V25.6737H856.759ZM856.759 14.8737V12.8737H854.759V14.8737H856.759ZM856.759 52.3138V50.3138H854.759V52.3138H856.759ZM873.319 52.3138H875.319V50.3138H873.319V52.3138ZM873.319 82.5537V84.5537H875.319V82.5537H873.319ZM807.799 82.5537H805.799V84.5537H807.799V82.5537ZM807.799 52.3138V50.3138H805.799V52.3138H807.799ZM824.359 52.3138H826.359V50.3138H824.359V52.3138ZM824.359 58.4338H822.359V60.4338H824.359V58.4338ZM856.759 58.4338V60.4338H858.759V58.4338H856.759ZM824.359 68.1538V66.1538H822.359V68.1538H824.359ZM824.359 72.1138H822.359V74.1138H824.359V72.1138ZM856.759 72.1138V74.1138H858.759V72.1138H856.759ZM856.759 68.1538H858.759V66.1538H856.759V68.1538ZM822.919 32.8737V30.8737H820.919V32.8737H822.919ZM822.919 38.3457H820.919V40.4793L823.049 40.3416L822.919 38.3457ZM835.159 37.5537L835.289 39.5496L837.159 39.4285V37.5537H835.159ZM835.159 32.8737H837.159V30.8737H835.159V32.8737ZM871.319 14.8737V50.1537H875.319V14.8737H871.319ZM873.319 48.1537H856.759V52.1537H873.319V48.1537ZM858.759 50.1537V39.3537H854.759V50.1537H858.759ZM856.759 37.3537H850.279V41.3537H856.759V37.3537ZM848.279 39.3537V47.2738H852.279V39.3537H848.279ZM850.144 45.2783L807.664 48.1583L807.935 52.1492L850.415 49.2692L850.144 45.2783ZM809.799 50.1537V17.0337H805.799V50.1537H809.799ZM807.799 19.0337H822.919V15.0337H807.799V19.0337ZM820.919 17.0337V22.7937H824.919V17.0337H820.919ZM822.919 24.7937H835.159V20.7937H822.919V24.7937ZM837.159 22.7937V17.0337H833.159V22.7937H837.159ZM835.159 19.0337H850.279V15.0337H835.159V19.0337ZM848.279 17.0337V25.6737H852.279V17.0337H848.279ZM850.279 27.6737H856.759V23.6737H850.279V27.6737ZM858.759 25.6737V14.8737H854.759V25.6737H858.759ZM856.759 16.8737H873.319V12.8737H856.759V16.8737ZM856.759 54.3138H873.319V50.3138H856.759V54.3138ZM871.319 52.3138V82.5537H875.319V52.3138H871.319ZM873.319 80.5537H807.799V84.5537H873.319V80.5537ZM809.799 82.5537V52.3138H805.799V82.5537H809.799ZM807.799 54.3138H824.359V50.3138H807.799V54.3138ZM822.359 52.3138V58.4338H826.359V52.3138H822.359ZM824.359 60.4338H856.759V56.4338H824.359V60.4338ZM858.759 58.4338V52.3138H854.759V58.4338H858.759ZM822.359 68.1538V72.1138H826.359V68.1538H822.359ZM824.359 74.1138H856.759V70.1138H824.359V74.1138ZM858.759 72.1138V68.1538H854.759V72.1138H858.759ZM856.759 66.1538H824.359V70.1538H856.759V66.1538ZM820.919 32.8737V38.3457H824.919V32.8737H820.919ZM823.049 40.3416L835.289 39.5496L835.03 35.5579L822.79 36.3499L823.049 40.3416ZM837.159 37.5537V32.8737H833.159V37.5537H837.159ZM835.159 30.8737H822.919V34.8737H835.159V30.8737Z" fill="url(#paint0_linear_397_488)"/>
</g>
<path d="M77.68 35.0337C77.68 47.8497 67.888 55.1937 46 55.1937C24.112 55.1937 14.32 47.8497 14.32 35.0337C14.32 22.2897 24.112 14.8737 46 14.8737C67.888 14.8737 77.68 22.2177 77.68 35.0337ZM12.88 58.0737H79.12V72.4738H68.68V82.5538H52.12V72.4738H39.88V82.5538H23.32V72.4738H12.88V58.0737ZM61.84 35.0337C61.84 30.3537 58.528 28.5537 46 28.5537C33.472 28.5537 30.16 30.3537 30.16 35.0337C30.16 39.7137 33.472 41.5137 46 41.5137C58.528 41.5137 61.84 39.7137 61.84 35.0337ZM104.32 64.0497L130.24 60.9537V75.3538L87.76 80.3938V17.0337H104.32V64.0497ZM153.28 14.8737V80.3938H136.72V14.8737H153.28ZM211.6 53.7537H205.12V75.3538L162.64 80.3938V17.0337H178.48V35.0337H189.28V17.0337H205.12V38.6337H211.6V14.8737H228.16V80.3938H211.6V53.7537ZM178.48 48.7137V64.8418L189.28 63.5457V48.7137H178.48ZM270.712 34.6737L256.744 58.7937H236.944L262.72 15.5937H281.8L273.448 29.9937H286.912L304.336 58.7937H284.248L270.712 34.6737ZM237.52 65.9937H303.76V80.3938H237.52V65.9937ZM376.48 81.8338H314.56V65.3457H358.48V63.5457H314.56V55.8417H376.48V72.3298H332.56V74.1298H376.48V81.8338ZM359.92 24.0177H314.56V16.3137H376.48V32.8017H331.12V34.6017H376.48V42.3057H314.56V25.8177H359.92V24.0177ZM312.4 44.4657H378.64V53.6817H312.4V44.4657ZM410.34 58.0737H472.98V82.5538H410.34V58.0737ZM410.34 30.3537H452.1V40.4337H426.9V43.6017L452.82 42.2337V53.0337L410.34 55.1937V30.3537ZM472.98 27.4737H478.74V42.5937H472.98V55.1937H456.42V14.8737H472.98V27.4737ZM410.34 17.0337H452.82V27.8337H410.34V17.0337ZM426.18 68.5137V72.1138H457.14V68.5137H426.18ZM485.22 59.5137H550.74V82.5538H485.22V59.5137ZM506.1 30.7137C521.004 30.7137 527.7 34.9617 527.7 43.6737C527.7 52.5297 521.004 56.6337 506.1 56.6337C491.196 56.6337 484.5 52.5297 484.5 43.6737C484.5 34.9617 491.196 30.7137 506.1 30.7137ZM550.74 14.8737V56.6337H534.18V46.5537H529.14V32.1537H534.18V14.8737H550.74ZM514.38 17.7537H526.98V29.2737H485.22V17.7537H497.82V12.7137H514.38V17.7537ZM501.06 69.2337V72.8338H534.9V69.2337H501.06ZM506.1 41.5137C500.34 41.5137 498.9 41.9457 498.9 43.6737C498.9 45.4017 500.34 45.8337 506.1 45.8337C511.86 45.8337 513.3 45.4017 513.3 43.6737C513.3 41.9457 511.86 41.5137 506.1 41.5137ZM602.58 56.9937C602.58 71.6098 596.244 81.1138 581.34 81.1138C566.436 81.1138 560.1 71.6098 560.1 56.9937C560.1 42.3777 566.436 32.8737 581.34 32.8737C596.244 32.8737 602.58 42.3777 602.58 56.9937ZM622.74 38.2737H628.5V54.1137H622.74V80.3938H606.18V14.8737H622.74V38.2737ZM589.62 18.4737H602.58V31.4337H560.1V18.4737H573.06V12.7137H589.62V18.4737ZM586.74 56.9937C586.74 49.3617 585.156 46.5537 581.34 46.5537C577.524 46.5537 575.94 49.3617 575.94 56.9937C575.94 64.6257 577.524 67.4337 581.34 67.4337C585.156 67.4337 586.74 64.6257 586.74 56.9937ZM653.7 30.7137H699.06V41.8737H637.14V16.3137H653.7V30.7137ZM653.7 70.6738H699.06V81.8338H637.14V59.1537H653.7V70.6738ZM634.98 44.7537H701.22V56.2737H634.98V44.7537ZM760.279 17.0337H775.399V51.5938L732.919 55.1937V17.0337H748.039V23.1537H760.279V17.0337ZM796.639 70.0978C796.639 78.7378 788.071 83.6338 765.319 83.6338C742.567 83.6338 733.999 78.7378 733.999 70.0978C733.999 61.4577 742.567 56.5617 765.319 56.5617C788.071 56.5617 796.639 61.4577 796.639 70.0978ZM795.559 27.4737H801.319V42.5937H795.559V55.1937H778.999V14.8737H795.559V27.4737ZM780.079 70.0978C780.079 68.4417 778.423 67.3617 765.319 67.3617C752.215 67.3617 750.559 68.4417 750.559 70.0978C750.559 71.7538 752.215 72.8338 765.319 72.8338C778.423 72.8338 780.079 71.7538 780.079 70.0978ZM748.039 35.3937V41.6577L760.279 40.6497V35.3937H748.039ZM873.319 14.8737V50.1537H856.759V39.3537H850.279V47.2737L807.799 50.1537V17.0337H822.919V22.7937H835.159V17.0337H850.279V25.6737H856.759V14.8737H873.319ZM856.759 52.3137H873.319V82.5538H807.799V52.3137H824.359V58.4337H856.759V52.3137ZM824.359 68.1537V72.1138H856.759V68.1537H824.359ZM822.919 32.8737V38.3457L835.159 37.5537V32.8737H822.919Z" fill="#D9D9D9" fill-opacity="0.1"/>
<path d="M12.88 58.0737V56.0737H10.88V58.0737H12.88ZM79.12 58.0737H81.12V56.0737H79.12V58.0737ZM79.12 72.4738V74.4738H81.12V72.4738H79.12ZM68.68 72.4738V70.4738H66.68V72.4738H68.68ZM68.68 82.5537V84.5537H70.68V82.5537H68.68ZM52.12 82.5537H50.12V84.5537H52.12V82.5537ZM52.12 72.4738H54.12V70.4738H52.12V72.4738ZM39.88 72.4738V70.4738H37.88V72.4738H39.88ZM39.88 82.5537V84.5537H41.88V82.5537H39.88ZM23.32 82.5537H21.32V84.5537H23.32V82.5537ZM23.32 72.4738H25.32V70.4738H23.32V72.4738ZM12.88 72.4738H10.88V74.4738H12.88V72.4738ZM75.68 35.0337C75.68 40.8464 73.5081 45.2252 68.9426 48.253C64.2368 51.3739 56.7818 53.1937 46 53.1937V57.1937C57.1062 57.1937 65.4912 55.3416 71.1534 51.5865C76.9559 47.7383 79.68 42.0371 79.68 35.0337H75.68ZM46 53.1937C35.2182 53.1937 27.7632 51.3739 23.0574 48.253C18.4919 45.2252 16.32 40.8464 16.32 35.0337H12.32C12.32 42.0371 15.0441 47.7383 20.8466 51.5865C26.5088 55.3416 34.8938 57.1937 46 57.1937V53.1937ZM16.32 35.0337C16.32 29.2599 18.4899 24.8786 23.0594 21.8402C27.7662 18.7105 35.2216 16.8737 46 16.8737V12.8737C34.8904 12.8737 26.5058 14.745 20.8446 18.5093C15.0461 22.3649 12.32 28.0636 12.32 35.0337H16.32ZM46 16.8737C56.7818 16.8737 64.2368 18.6936 68.9426 21.8145C73.5081 24.8423 75.68 29.2211 75.68 35.0337H79.68C79.68 28.0304 76.9559 22.3292 71.1534 18.481C65.4912 14.7259 57.1062 12.8737 46 12.8737V16.8737ZM12.88 60.0737H79.12V56.0737H12.88V60.0737ZM77.12 58.0737V72.4738H81.12V58.0737H77.12ZM79.12 70.4738H68.68V74.4738H79.12V70.4738ZM66.68 72.4738V82.5537H70.68V72.4738H66.68ZM68.68 80.5537H52.12V84.5537H68.68V80.5537ZM54.12 82.5537V72.4738H50.12V82.5537H54.12ZM52.12 70.4738H39.88V74.4738H52.12V70.4738ZM37.88 72.4738V82.5537H41.88V72.4738H37.88ZM39.88 80.5537H23.32V84.5537H39.88V80.5537ZM25.32 82.5537V72.4738H21.32V82.5537H25.32ZM23.32 70.4738H12.88V74.4738H23.32V70.4738ZM14.88 72.4738V58.0737H10.88V72.4738H14.88ZM63.84 35.0337C63.84 33.6371 63.5938 32.2461 62.8325 31.0026C62.0611 29.7427 60.8886 28.8415 59.4117 28.203C56.5944 26.985 52.2474 26.5537 46 26.5537V30.5537C52.2806 30.5537 55.8536 31.0225 57.8243 31.8745C58.7414 32.271 59.1799 32.6973 59.4211 33.0912C59.6722 33.5014 59.84 34.0904 59.84 35.0337H63.84ZM46 26.5537C39.7526 26.5537 35.4056 26.985 32.5883 28.203C31.1114 28.8415 29.9389 29.7427 29.1675 31.0026C28.4062 32.2461 28.16 33.6371 28.16 35.0337H32.16C32.16 34.0904 32.3278 33.5014 32.579 33.0912C32.8201 32.6973 33.2586 32.271 34.1757 31.8745C36.1464 31.0225 39.7194 30.5537 46 30.5537V26.5537ZM28.16 35.0337C28.16 36.4304 28.4062 37.8214 29.1675 39.0649C29.9389 40.3248 31.1114 41.226 32.5883 41.8645C35.4056 43.0825 39.7526 43.5137 46 43.5137V39.5137C39.7194 39.5137 36.1464 39.045 34.1757 38.193C33.2586 37.7965 32.8201 37.3702 32.579 36.9763C32.3278 36.5661 32.16 35.9771 32.16 35.0337H28.16ZM46 43.5137C52.2474 43.5137 56.5944 43.0825 59.4117 41.8645C60.8886 41.226 62.0611 40.3248 62.8325 39.0649C63.5938 37.8214 63.84 36.4304 63.84 35.0337H59.84C59.84 35.9771 59.6722 36.5661 59.4211 36.9763C59.1799 37.3702 58.7414 37.7965 57.8243 38.193C55.8536 39.045 52.2806 39.5137 46 39.5137V43.5137ZM104.32 64.0498H102.32V66.3029L104.557 66.0356L104.32 64.0498ZM130.24 60.9538H132.24V58.7006L130.003 58.9679L130.24 60.9538ZM130.24 75.3538L130.476 77.3398L132.24 77.1305V75.3538H130.24ZM87.76 80.3938H85.76V82.6451L87.9956 82.3798L87.76 80.3938ZM87.76 17.0337V15.0337H85.76V17.0337H87.76ZM104.32 17.0337H106.32V15.0337H104.32V17.0337ZM153.28 14.8737H155.28V12.8737H153.28V14.8737ZM153.28 80.3938V82.3938H155.28V80.3938H153.28ZM136.72 80.3938H134.72V82.3938H136.72V80.3938ZM136.72 14.8737V12.8737H134.72V14.8737H136.72ZM104.557 66.0356L130.477 62.9396L130.003 58.9679L104.083 62.0639L104.557 66.0356ZM128.24 60.9538V75.3538H132.24V60.9538H128.24ZM130.004 73.3677L87.5244 78.4077L87.9956 82.3798L130.476 77.3398L130.004 73.3677ZM89.76 80.3938V17.0337H85.76V80.3938H89.76ZM87.76 19.0337H104.32V15.0337H87.76V19.0337ZM102.32 17.0337V64.0498H106.32V17.0337H102.32ZM151.28 14.8737V80.3938H155.28V14.8737H151.28ZM153.28 78.3937H136.72V82.3938H153.28V78.3937ZM138.72 80.3938V14.8737H134.72V80.3938H138.72ZM136.72 16.8737H153.28V12.8737H136.72V16.8737ZM211.6 53.7537H213.6V51.7537H211.6V53.7537ZM205.12 53.7537V51.7537H203.12V53.7537H205.12ZM205.12 75.3538L205.356 77.3398L207.12 77.1305V75.3538H205.12ZM162.64 80.3938H160.64V82.6451L162.876 82.3798L162.64 80.3938ZM162.64 17.0337V15.0337H160.64V17.0337H162.64ZM178.48 17.0337H180.48V15.0337H178.48V17.0337ZM178.48 35.0337H176.48V37.0337H178.48V35.0337ZM189.28 35.0337V37.0337H191.28V35.0337H189.28ZM189.28 17.0337V15.0337H187.28V17.0337H189.28ZM205.12 17.0337H207.12V15.0337H205.12V17.0337ZM205.12 38.6337H203.12V40.6337H205.12V38.6337ZM211.6 38.6337V40.6337H213.6V38.6337H211.6ZM211.6 14.8737V12.8737H209.6V14.8737H211.6ZM228.16 14.8737H230.16V12.8737H228.16V14.8737ZM228.16 80.3938V82.3938H230.16V80.3938H228.16ZM211.6 80.3938H209.6V82.3938H211.6V80.3938ZM178.48 48.7137V46.7137H176.48V48.7137H178.48ZM178.48 64.8418H176.48V67.0961L178.718 66.8275L178.48 64.8418ZM189.28 63.5457L189.518 65.5315L191.28 65.3201V63.5457H189.28ZM189.28 48.7137H191.28V46.7137H189.28V48.7137ZM211.6 51.7537H205.12V55.7537H211.6V51.7537ZM203.12 53.7537V75.3538H207.12V53.7537H203.12ZM204.884 73.3677L162.404 78.4077L162.876 82.3798L205.356 77.3398L204.884 73.3677ZM164.64 80.3938V17.0337H160.64V80.3938H164.64ZM162.64 19.0337H178.48V15.0337H162.64V19.0337ZM176.48 17.0337V35.0337H180.48V17.0337H176.48ZM178.48 37.0337H189.28V33.0337H178.48V37.0337ZM191.28 35.0337V17.0337H187.28V35.0337H191.28ZM189.28 19.0337H205.12V15.0337H189.28V19.0337ZM203.12 17.0337V38.6337H207.12V17.0337H203.12ZM205.12 40.6337H211.6V36.6337H205.12V40.6337ZM213.6 38.6337V14.8737H209.6V38.6337H213.6ZM211.6 16.8737H228.16V12.8737H211.6V16.8737ZM226.16 14.8737V80.3938H230.16V14.8737H226.16ZM228.16 78.3937H211.6V82.3938H228.16V78.3937ZM213.6 80.3938V53.7537H209.6V80.3938H213.6ZM176.48 48.7137V64.8418H180.48V48.7137H176.48ZM178.718 66.8275L189.518 65.5315L189.042 61.56L178.242 62.856L178.718 66.8275ZM191.28 63.5457V48.7137H187.28V63.5457H191.28ZM189.28 46.7137H178.48V50.7137H189.28V46.7137ZM270.712 34.6737L272.456 33.695L270.739 30.6357L268.981 33.6715L270.712 34.6737ZM256.744 58.7938V60.7938H257.897L258.475 59.796L256.744 58.7938ZM236.944 58.7938L235.226 57.769L233.422 60.7938H236.944V58.7938ZM262.72 15.5937V13.5937H261.584L261.002 14.569L262.72 15.5937ZM281.8 15.5937L283.53 16.5972L285.272 13.5937H281.8V15.5937ZM273.448 29.9937L271.718 28.9903L269.976 31.9937H273.448V29.9937ZM286.912 29.9937L288.623 28.9585L288.04 27.9937H286.912V29.9937ZM304.336 58.7938V60.7938H307.884L306.047 57.7585L304.336 58.7938ZM284.248 58.7938L282.504 59.7725L283.077 60.7938H284.248V58.7938ZM237.52 65.9938V63.9938H235.52V65.9938H237.52ZM303.76 65.9938H305.76V63.9938H303.76V65.9938ZM303.76 80.3938V82.3938H305.76V80.3938H303.76ZM237.52 80.3938H235.52V82.3938H237.52V80.3938ZM268.981 33.6715L255.013 57.7915L258.475 59.796L272.443 35.676L268.981 33.6715ZM256.744 56.7938H236.944V60.7938H256.744V56.7938ZM238.661 59.8185L264.438 16.6185L261.002 14.569L235.226 57.769L238.661 59.8185ZM262.72 17.5937H281.8V13.5937H262.72V17.5937ZM280.07 14.5903L271.718 28.9903L275.178 30.9972L283.53 16.5972L280.07 14.5903ZM273.448 31.9937H286.912V27.9937H273.448V31.9937ZM285.201 31.029L302.625 59.829L306.047 57.7585L288.623 28.9585L285.201 31.029ZM304.336 56.7938H284.248V60.7938H304.336V56.7938ZM285.992 57.815L272.456 33.695L268.968 35.6525L282.504 59.7725L285.992 57.815ZM237.52 67.9938H303.76V63.9938H237.52V67.9938ZM301.76 65.9938V80.3938H305.76V65.9938H301.76ZM303.76 78.3937H237.52V82.3938H303.76V78.3937ZM239.52 80.3938V65.9938H235.52V80.3938H239.52ZM376.48 81.8337V83.8337H378.48V81.8337H376.48ZM314.56 81.8337H312.56V83.8337H314.56V81.8337ZM314.56 65.3457V63.3457H312.56V65.3457H314.56ZM358.48 65.3457V67.3457H360.48V65.3457H358.48ZM358.48 63.5457H360.48V61.5457H358.48V63.5457ZM314.56 63.5457H312.56V65.5457H314.56V63.5457ZM314.56 55.8417V53.8417H312.56V55.8417H314.56ZM376.48 55.8417H378.48V53.8417H376.48V55.8417ZM376.48 72.3298V74.3298H378.48V72.3298H376.48ZM332.56 72.3298V70.3298H330.56V72.3298H332.56ZM332.56 74.1297H330.56V76.1297H332.56V74.1297ZM376.48 74.1297H378.48V72.1297H376.48V74.1297ZM359.92 24.0177H361.92V22.0177H359.92V24.0177ZM314.56 24.0177H312.56V26.0177H314.56V24.0177ZM314.56 16.3137V14.3137H312.56V16.3137H314.56ZM376.48 16.3137H378.48V14.3137H376.48V16.3137ZM376.48 32.8017V34.8017H378.48V32.8017H376.48ZM331.12 32.8017V30.8017H329.12V32.8017H331.12ZM331.12 34.6017H329.12V36.6017H331.12V34.6017ZM376.48 34.6017H378.48V32.6017H376.48V34.6017ZM376.48 42.3057V44.3057H378.48V42.3057H376.48ZM314.56 42.3057H312.56V44.3057H314.56V42.3057ZM314.56 25.8177V23.8177H312.56V25.8177H314.56ZM359.92 25.8177V27.8177H361.92V25.8177H359.92ZM312.4 44.4657V42.4657H310.4V44.4657H312.4ZM378.64 44.4657H380.64V42.4657H378.64V44.4657ZM378.64 53.6817V55.6817H380.64V53.6817H378.64ZM312.4 53.6817H310.4V55.6817H312.4V53.6817ZM376.48 79.8337H314.56V83.8337H376.48V79.8337ZM316.56 81.8337V65.3457H312.56V81.8337H316.56ZM314.56 67.3457H358.48V63.3457H314.56V67.3457ZM360.48 65.3457V63.5457H356.48V65.3457H360.48ZM358.48 61.5457H314.56V65.5457H358.48V61.5457ZM316.56 63.5457V55.8417H312.56V63.5457H316.56ZM314.56 57.8417H376.48V53.8417H314.56V57.8417ZM374.48 55.8417V72.3298H378.48V55.8417H374.48ZM376.48 70.3298H332.56V74.3298H376.48V70.3298ZM330.56 72.3298V74.1297H334.56V72.3298H330.56ZM332.56 76.1297H376.48V72.1297H332.56V76.1297ZM374.48 74.1297V81.8337H378.48V74.1297H374.48ZM359.92 22.0177H314.56V26.0177H359.92V22.0177ZM316.56 24.0177V16.3137H312.56V24.0177H316.56ZM314.56 18.3137H376.48V14.3137H314.56V18.3137ZM374.48 16.3137V32.8017H378.48V16.3137H374.48ZM376.48 30.8017H331.12V34.8017H376.48V30.8017ZM329.12 32.8017V34.6017H333.12V32.8017H329.12ZM331.12 36.6017H376.48V32.6017H331.12V36.6017ZM374.48 34.6017V42.3057H378.48V34.6017H374.48ZM376.48 40.3057H314.56V44.3057H376.48V40.3057ZM316.56 42.3057V25.8177H312.56V42.3057H316.56ZM314.56 27.8177H359.92V23.8177H314.56V27.8177ZM361.92 25.8177V24.0177H357.92V25.8177H361.92ZM312.4 46.4657H378.64V42.4657H312.4V46.4657ZM376.64 44.4657V53.6817H380.64V44.4657H376.64ZM378.64 51.6817H312.4V55.6817H378.64V51.6817ZM314.4 53.6817V44.4657H310.4V53.6817H314.4ZM410.34 58.0737V56.0737H408.34V58.0737H410.34ZM472.98 58.0737H474.98V56.0737H472.98V58.0737ZM472.98 82.5537V84.5537H474.98V82.5537H472.98ZM410.34 82.5537H408.34V84.5537H410.34V82.5537ZM410.34 30.3537V28.3537H408.34V30.3537H410.34ZM452.1 30.3537H454.1V28.3537H452.1V30.3537ZM452.1 40.4337V42.4337H454.1V40.4337H452.1ZM426.9 40.4337V38.4337H424.9V40.4337H426.9ZM426.9 43.6017H424.9V45.7101L427.005 45.599L426.9 43.6017ZM452.82 42.2337H454.82V40.1254L452.714 40.2365L452.82 42.2337ZM452.82 53.0337L452.921 55.0312L454.82 54.9346V53.0337H452.82ZM410.34 55.1937H408.34V57.298L410.441 57.1912L410.34 55.1937ZM472.98 27.4737H470.98V29.4737H472.98V27.4737ZM478.74 27.4737H480.74V25.4737H478.74V27.4737ZM478.74 42.5937V44.5937H480.74V42.5937H478.74ZM472.98 42.5937V40.5937H470.98V42.5937H472.98ZM472.98 55.1937V57.1937H474.98V55.1937H472.98ZM456.42 55.1937H454.42V57.1937H456.42V55.1937ZM456.42 14.8737V12.8737H454.42V14.8737H456.42ZM472.98 14.8737H474.98V12.8737H472.98V14.8737ZM410.34 17.0337V15.0337H408.34V17.0337H410.34ZM452.82 17.0337H454.82V15.0337H452.82V17.0337ZM452.82 27.8337V29.8337H454.82V27.8337H452.82ZM410.34 27.8337H408.34V29.8337H410.34V27.8337ZM426.18 68.5137V66.5137H424.18V68.5137H426.18ZM426.18 72.1138H424.18V74.1138H426.18V72.1138ZM457.14 72.1138V74.1138H459.14V72.1138H457.14ZM457.14 68.5137H459.14V66.5137H457.14V68.5137ZM410.34 60.0737H472.98V56.0737H410.34V60.0737ZM470.98 58.0737V82.5537H474.98V58.0737H470.98ZM472.98 80.5537H410.34V84.5537H472.98V80.5537ZM412.34 82.5537V58.0737H408.34V82.5537H412.34ZM410.34 32.3537H452.1V28.3537H410.34V32.3537ZM450.1 30.3537V40.4337H454.1V30.3537H450.1ZM452.1 38.4337H426.9V42.4337H452.1V38.4337ZM424.9 40.4337V43.6017H428.9V40.4337H424.9ZM427.005 45.599L452.925 44.231L452.714 40.2365L426.794 41.6045L427.005 45.599ZM450.82 42.2337V53.0337H454.82V42.2337H450.82ZM452.718 51.0363L410.238 53.1963L410.441 57.1912L452.921 55.0312L452.718 51.0363ZM412.34 55.1937V30.3537H408.34V55.1937H412.34ZM472.98 29.4737H478.74V25.4737H472.98V29.4737ZM476.74 27.4737V42.5937H480.74V27.4737H476.74ZM478.74 40.5937H472.98V44.5937H478.74V40.5937ZM470.98 42.5937V55.1937H474.98V42.5937H470.98ZM472.98 53.1937H456.42V57.1937H472.98V53.1937ZM458.42 55.1937V14.8737H454.42V55.1937H458.42ZM456.42 16.8737H472.98V12.8737H456.42V16.8737ZM470.98 14.8737V27.4737H474.98V14.8737H470.98ZM410.34 19.0337H452.82V15.0337H410.34V19.0337ZM450.82 17.0337V27.8337H454.82V17.0337H450.82ZM452.82 25.8337H410.34V29.8337H452.82V25.8337ZM412.34 27.8337V17.0337H408.34V27.8337H412.34ZM424.18 68.5137V72.1138H428.18V68.5137H424.18ZM426.18 74.1138H457.14V70.1138H426.18V74.1138ZM459.14 72.1138V68.5137H455.14V72.1138H459.14ZM457.14 66.5137H426.18V70.5137H457.14V66.5137ZM485.22 59.5137V57.5137H483.22V59.5137H485.22ZM550.74 59.5137H552.74V57.5137H550.74V59.5137ZM550.74 82.5537V84.5537H552.74V82.5537H550.74ZM485.22 82.5537H483.22V84.5537H485.22V82.5537ZM550.74 14.8737H552.74V12.8737H550.74V14.8737ZM550.74 56.6338V58.6338H552.74V56.6338H550.74ZM534.18 56.6338H532.18V58.6338H534.18V56.6338ZM534.18 46.5537H536.18V44.5537H534.18V46.5537ZM529.14 46.5537H527.14V48.5537H529.14V46.5537ZM529.14 32.1537V30.1537H527.14V32.1537H529.14ZM534.18 32.1537V34.1537H536.18V32.1537H534.18ZM534.18 14.8737V12.8737H532.18V14.8737H534.18ZM514.38 17.7537H512.38V19.7537H514.38V17.7537ZM526.98 17.7537H528.98V15.7537H526.98V17.7537ZM526.98 29.2738V31.2738H528.98V29.2738H526.98ZM485.22 29.2738H483.22V31.2738H485.22V29.2738ZM485.22 17.7537V15.7537H483.22V17.7537H485.22ZM497.82 17.7537V19.7537H499.82V17.7537H497.82ZM497.82 12.7137V10.7137H495.82V12.7137H497.82ZM514.38 12.7137H516.38V10.7137H514.38V12.7137ZM501.06 69.2337V67.2337H499.06V69.2337H501.06ZM501.06 72.8338H499.06V74.8338H501.06V72.8338ZM534.9 72.8338V74.8338H536.9V72.8338H534.9ZM534.9 69.2337H536.9V67.2337H534.9V69.2337ZM485.22 61.5137H550.74V57.5137H485.22V61.5137ZM548.74 59.5137V82.5537H552.74V59.5137H548.74ZM550.74 80.5537H485.22V84.5537H550.74V80.5537ZM487.22 82.5537V59.5137H483.22V82.5537H487.22ZM506.1 32.7137C513.436 32.7137 518.387 33.773 521.449 35.6356C524.327 37.3853 525.7 39.9387 525.7 43.6737H529.7C529.7 38.6968 527.725 34.7702 523.528 32.2179C519.517 29.7785 513.667 28.7137 506.1 28.7137V32.7137ZM525.7 43.6737C525.7 47.4897 524.32 50.0347 521.456 51.7621C518.395 53.6077 513.446 54.6338 506.1 54.6338V58.6338C513.657 58.6338 519.508 57.6078 523.522 55.1874C527.731 52.6488 529.7 48.7138 529.7 43.6737H525.7ZM506.1 54.6338C498.753 54.6338 493.804 53.6077 490.744 51.7621C487.879 50.0347 486.5 47.4897 486.5 43.6737H482.5C482.5 48.7138 484.468 52.6488 488.678 55.1874C492.691 57.6078 498.542 58.6338 506.1 58.6338V54.6338ZM486.5 43.6737C486.5 39.9387 487.873 37.3853 490.75 35.6356C493.813 33.773 498.763 32.7137 506.1 32.7137V28.7137C498.532 28.7137 492.683 29.7785 488.671 32.2179C484.475 34.7702 482.5 38.6968 482.5 43.6737H486.5ZM548.74 14.8737V56.6338H552.74V14.8737H548.74ZM550.74 54.6338H534.18V58.6338H550.74V54.6338ZM536.18 56.6338V46.5537H532.18V56.6338H536.18ZM534.18 44.5537H529.14V48.5537H534.18V44.5537ZM531.14 46.5537V32.1537H527.14V46.5537H531.14ZM529.14 34.1537H534.18V30.1537H529.14V34.1537ZM536.18 32.1537V14.8737H532.18V32.1537H536.18ZM534.18 16.8737H550.74V12.8737H534.18V16.8737ZM514.38 19.7537H526.98V15.7537H514.38V19.7537ZM524.98 17.7537V29.2738H528.98V17.7537H524.98ZM526.98 27.2738H485.22V31.2738H526.98V27.2738ZM487.22 29.2738V17.7537H483.22V29.2738H487.22ZM485.22 19.7537H497.82V15.7537H485.22V19.7537ZM499.82 17.7537V12.7137H495.82V17.7537H499.82ZM497.82 14.7137H514.38V10.7137H497.82V14.7137ZM512.38 12.7137V17.7537H516.38V12.7137H512.38ZM499.06 69.2337V72.8338H503.06V69.2337H499.06ZM501.06 74.8338H534.9V70.8338H501.06V74.8338ZM536.9 72.8338V69.2337H532.9V72.8338H536.9ZM534.9 67.2337H501.06V71.2337H534.9V67.2337ZM506.1 39.5137C503.276 39.5137 501.175 39.6072 499.765 40.0301C499.016 40.2549 498.224 40.638 497.648 41.3639C497.05 42.117 496.9 42.9647 496.9 43.6737H500.9C500.9 43.5188 500.929 43.6645 500.781 43.8506C500.655 44.0095 500.584 43.9606 500.914 43.8614C501.665 43.6363 503.163 43.5137 506.1 43.5137V39.5137ZM496.9 43.6737C496.9 44.3828 497.05 45.2305 497.648 45.9836C498.224 46.7095 499.016 47.0926 499.765 47.3174C501.175 47.7403 503.276 47.8337 506.1 47.8337V43.8337C503.163 43.8337 501.665 43.7112 500.914 43.4861C500.584 43.3869 500.655 43.338 500.781 43.4969C500.929 43.683 500.9 43.8287 500.9 43.6737H496.9ZM506.1 47.8337C508.923 47.8337 511.025 47.7403 512.434 47.3174C513.184 47.0926 513.975 46.7095 514.551 45.9836C515.149 45.2305 515.3 44.3828 515.3 43.6737H511.3C511.3 43.8287 511.27 43.683 511.418 43.4969C511.544 43.338 511.616 43.3869 511.285 43.4861C510.535 43.7112 509.036 43.8337 506.1 43.8337V47.8337ZM515.3 43.6737C515.3 42.9647 515.149 42.117 514.551 41.3639C513.975 40.638 513.184 40.2549 512.434 40.0301C511.025 39.6072 508.923 39.5137 506.1 39.5137V43.5137C509.036 43.5137 510.535 43.6363 511.285 43.8614C511.616 43.9606 511.544 44.0095 511.418 43.8506C511.27 43.6645 511.3 43.5188 511.3 43.6737H515.3ZM622.74 38.2737H620.74V40.2737H622.74V38.2737ZM628.5 38.2737H630.5V36.2737H628.5V38.2737ZM628.5 54.1138V56.1138H630.5V54.1138H628.5ZM622.74 54.1138V52.1138H620.74V54.1138H622.74ZM622.74 80.3938V82.3938H624.74V80.3938H622.74ZM606.18 80.3938H604.18V82.3938H606.18V80.3938ZM606.18 14.8737V12.8737H604.18V14.8737H606.18ZM622.74 14.8737H624.74V12.8737H622.74V14.8737ZM589.62 18.4737H587.62V20.4737H589.62V18.4737ZM602.58 18.4737H604.58V16.4737H602.58V18.4737ZM602.58 31.4337V33.4337H604.58V31.4337H602.58ZM560.1 31.4337H558.1V33.4337H560.1V31.4337ZM560.1 18.4737V16.4737H558.1V18.4737H560.1ZM573.06 18.4737V20.4737H575.06V18.4737H573.06ZM573.06 12.7137V10.7137H571.06V12.7137H573.06ZM589.62 12.7137H591.62V10.7137H589.62V12.7137ZM600.58 56.9937C600.58 64.0562 599.043 69.559 596.002 73.2665C593.02 76.9032 588.34 79.1138 581.34 79.1138V83.1138C589.243 83.1138 595.184 80.5723 599.095 75.803C602.948 71.1045 604.58 64.5473 604.58 56.9937H600.58ZM581.34 79.1138C574.339 79.1138 569.66 76.9032 566.677 73.2665C563.636 69.559 562.1 64.0562 562.1 56.9937H558.1C558.1 64.5473 559.731 71.1045 563.584 75.803C567.496 80.5723 573.436 83.1138 581.34 83.1138V79.1138ZM562.1 56.9937C562.1 49.9313 563.636 44.4285 566.677 40.721C569.66 37.0843 574.339 34.8737 581.34 34.8737V30.8737C573.436 30.8737 567.496 33.4152 563.584 38.1845C559.731 42.883 558.1 49.4402 558.1 56.9937H562.1ZM581.34 34.8737C588.34 34.8737 593.02 37.0843 596.002 40.721C599.043 44.4285 600.58 49.9313 600.58 56.9937H604.58C604.58 49.4402 602.948 42.883 599.095 38.1845C595.184 33.4152 589.243 30.8737 581.34 30.8737V34.8737ZM622.74 40.2737H628.5V36.2737H622.74V40.2737ZM626.5 38.2737V54.1138H630.5V38.2737H626.5ZM628.5 52.1138H622.74V56.1138H628.5V52.1138ZM620.74 54.1138V80.3938H624.74V54.1138H620.74ZM622.74 78.3937H606.18V82.3938H622.74V78.3937ZM608.18 80.3938V14.8737H604.18V80.3938H608.18ZM606.18 16.8737H622.74V12.8737H606.18V16.8737ZM620.74 14.8737V38.2737H624.74V14.8737H620.74ZM589.62 20.4737H602.58V16.4737H589.62V20.4737ZM600.58 18.4737V31.4337H604.58V18.4737H600.58ZM602.58 29.4337H560.1V33.4337H602.58V29.4337ZM562.1 31.4337V18.4737H558.1V31.4337H562.1ZM560.1 20.4737H573.06V16.4737H560.1V20.4737ZM575.06 18.4737V12.7137H571.06V18.4737H575.06ZM573.06 14.7137H589.62V10.7137H573.06V14.7137ZM587.62 12.7137V18.4737H591.62V12.7137H587.62ZM588.74 56.9937C588.74 53.1375 588.357 50.0983 587.24 47.9791C586.652 46.8643 585.842 45.9651 584.768 45.3655C583.709 44.7741 582.536 44.5537 581.34 44.5537V48.5537C582.052 48.5537 582.507 48.6844 582.818 48.858C583.115 49.0234 583.416 49.3032 583.701 49.8444C584.33 51.0372 584.74 53.218 584.74 56.9937H588.74ZM581.34 44.5537C580.144 44.5537 578.97 44.7741 577.911 45.3655C576.837 45.9651 576.027 46.8643 575.439 47.9791C574.322 50.0983 573.94 53.1375 573.94 56.9937H577.94C577.94 53.218 578.349 51.0372 578.978 49.8444C579.263 49.3032 579.565 49.0234 579.861 48.858C580.172 48.6844 580.628 48.5537 581.34 48.5537V44.5537ZM573.94 56.9937C573.94 60.85 574.322 63.8892 575.439 66.0084C576.027 67.1232 576.837 68.0224 577.911 68.622C578.97 69.2134 580.144 69.4338 581.34 69.4338V65.4338C580.628 65.4338 580.172 65.3031 579.861 65.1295C579.565 64.9641 579.263 64.6843 578.978 64.1431C578.349 62.9503 577.94 60.7695 577.94 56.9937H573.94ZM581.34 69.4338C582.536 69.4338 583.709 69.2134 584.768 68.622C585.842 68.0224 586.652 67.1232 587.24 66.0084C588.357 63.8892 588.74 60.85 588.74 56.9937H584.74C584.74 60.7695 584.33 62.9503 583.701 64.1431C583.416 64.6843 583.115 64.9641 582.818 65.1295C582.507 65.3031 582.052 65.4338 581.34 65.4338V69.4338ZM653.7 30.7137H651.7V32.7137H653.7V30.7137ZM699.06 30.7137H701.06V28.7137H699.06V30.7137ZM699.06 41.8737V43.8737H701.06V41.8737H699.06ZM637.14 41.8737H635.14V43.8737H637.14V41.8737ZM637.14 16.3137V14.3137H635.14V16.3137H637.14ZM653.7 16.3137H655.7V14.3137H653.7V16.3137ZM653.7 70.6738H651.7V72.6738H653.7V70.6738ZM699.06 70.6738H701.06V68.6738H699.06V70.6738ZM699.06 81.8337V83.8337H701.06V81.8337H699.06ZM637.14 81.8337H635.14V83.8337H637.14V81.8337ZM637.14 59.1537V57.1537H635.14V59.1537H637.14ZM653.7 59.1537H655.7V57.1537H653.7V59.1537ZM634.98 44.7537V42.7537H632.98V44.7537H634.98ZM701.22 44.7537H703.22V42.7537H701.22V44.7537ZM701.22 56.2738V58.2738H703.22V56.2738H701.22ZM634.98 56.2738H632.98V58.2738H634.98V56.2738ZM653.7 32.7137H699.06V28.7137H653.7V32.7137ZM697.06 30.7137V41.8737H701.06V30.7137H697.06ZM699.06 39.8737H637.14V43.8737H699.06V39.8737ZM639.14 41.8737V16.3137H635.14V41.8737H639.14ZM637.14 18.3137H653.7V14.3137H637.14V18.3137ZM651.7 16.3137V30.7137H655.7V16.3137H651.7ZM653.7 72.6738H699.06V68.6738H653.7V72.6738ZM697.06 70.6738V81.8337H701.06V70.6738H697.06ZM699.06 79.8337H637.14V83.8337H699.06V79.8337ZM639.14 81.8337V59.1537H635.14V81.8337H639.14ZM637.14 61.1537H653.7V57.1537H637.14V61.1537ZM651.7 59.1537V70.6738H655.7V59.1537H651.7ZM634.98 46.7537H701.22V42.7537H634.98V46.7537ZM699.22 44.7537V56.2738H703.22V44.7537H699.22ZM701.22 54.2738H634.98V58.2738H701.22V54.2738ZM636.98 56.2738V44.7537H632.98V56.2738H636.98ZM760.279 17.0337V15.0337H758.279V17.0337H760.279ZM775.399 17.0337H777.399V15.0337H775.399V17.0337ZM775.399 51.5938L775.568 53.5866L777.399 53.4314V51.5938H775.399ZM732.919 55.1937H730.919V57.3704L733.088 57.1866L732.919 55.1937ZM732.919 17.0337V15.0337H730.919V17.0337H732.919ZM748.039 17.0337H750.039V15.0337H748.039V17.0337ZM748.039 23.1537H746.039V25.1537H748.039V23.1537ZM760.279 23.1537V25.1537H762.279V23.1537H760.279ZM795.559 27.4737H793.559V29.4737H795.559V27.4737ZM801.319 27.4737H803.319V25.4737H801.319V27.4737ZM801.319 42.5937V44.5937H803.319V42.5937H801.319ZM795.559 42.5937V40.5937H793.559V42.5937H795.559ZM795.559 55.1937V57.1937H797.559V55.1937H795.559ZM778.999 55.1937H776.999V57.1937H778.999V55.1937ZM778.999 14.8737V12.8737H776.999V14.8737H778.999ZM795.559 14.8737H797.559V12.8737H795.559V14.8737ZM748.039 35.3937V33.3937H746.039V35.3937H748.039ZM748.039 41.6577H746.039V43.8292L748.203 43.651L748.039 41.6577ZM760.279 40.6497L760.444 42.643L762.279 42.4918V40.6497H760.279ZM760.279 35.3937H762.279V33.3937H760.279V35.3937ZM760.279 19.0337H775.399V15.0337H760.279V19.0337ZM773.399 17.0337V51.5938H777.399V17.0337H773.399ZM775.23 49.6009L732.75 53.2009L733.088 57.1866L775.568 53.5866L775.23 49.6009ZM734.919 55.1937V17.0337H730.919V55.1937H734.919ZM732.919 19.0337H748.039V15.0337H732.919V19.0337ZM746.039 17.0337V23.1537H750.039V17.0337H746.039ZM748.039 25.1537H760.279V21.1537H748.039V25.1537ZM762.279 23.1537V17.0337H758.279V23.1537H762.279ZM794.639 70.0978C794.639 71.9098 794.197 73.4252 793.301 74.7194C792.394 76.0292 790.929 77.2473 788.672 78.2902C784.094 80.406 776.624 81.6338 765.319 81.6338V85.6338C776.767 85.6338 784.957 84.4135 790.35 81.9213C793.079 80.6602 795.179 79.0343 796.59 76.9961C798.011 74.9423 798.639 72.6057 798.639 70.0978H794.639ZM765.319 81.6338C754.015 81.6338 746.545 80.406 741.966 78.2902C739.709 77.2473 738.245 76.0292 737.338 74.7194C736.442 73.4252 735.999 71.9098 735.999 70.0978H731.999C731.999 72.6057 732.628 74.9423 734.049 76.9961C735.46 79.0343 737.559 80.6602 740.288 81.9213C745.682 84.4135 753.872 85.6338 765.319 85.6338V81.6338ZM735.999 70.0978C735.999 68.2857 736.442 66.7703 737.338 65.4761C738.245 64.1663 739.709 62.9482 741.966 61.9053C746.545 59.7895 754.015 58.5617 765.319 58.5617V54.5617C753.872 54.5617 745.682 55.782 740.288 58.2742C737.559 59.5353 735.46 61.1612 734.049 63.1994C732.628 65.2532 731.999 67.5898 731.999 70.0978H735.999ZM765.319 58.5617C776.624 58.5617 784.094 59.7895 788.672 61.9053C790.929 62.9482 792.394 64.1663 793.301 65.4761C794.197 66.7703 794.639 68.2857 794.639 70.0978H798.639C798.639 67.5898 798.011 65.2532 796.59 63.1994C795.179 61.1612 793.079 59.5353 790.35 58.2742C784.957 55.782 776.767 54.5617 765.319 54.5617V58.5617ZM795.559 29.4737H801.319V25.4737H795.559V29.4737ZM799.319 27.4737V42.5937H803.319V27.4737H799.319ZM801.319 40.5937H795.559V44.5937H801.319V40.5937ZM793.559 42.5937V55.1937H797.559V42.5937H793.559ZM795.559 53.1937H778.999V57.1937H795.559V53.1937ZM780.999 55.1937V14.8737H776.999V55.1937H780.999ZM778.999 16.8737H795.559V12.8737H778.999V16.8737ZM793.559 14.8737V27.4737H797.559V14.8737H793.559ZM782.079 70.0978C782.079 69.2839 781.846 68.313 780.976 67.5057C780.233 66.8157 779.207 66.4258 778.066 66.1607C775.763 65.6252 771.858 65.3618 765.319 65.3618V69.3618C771.885 69.3618 775.36 69.6383 777.161 70.0568C778.072 70.2687 778.279 70.4593 778.255 70.4375C778.106 70.2985 778.079 70.0836 778.079 70.0978H782.079ZM765.319 65.3618C758.781 65.3618 754.876 65.6252 752.573 66.1607C751.432 66.4258 750.406 66.8157 749.662 67.5057C748.793 68.313 748.559 69.2839 748.559 70.0978H752.559C752.559 70.0836 752.533 70.2985 752.383 70.4375C752.36 70.4593 752.567 70.2687 753.478 70.0568C755.279 69.6383 758.754 69.3618 765.319 69.3618V65.3618ZM748.559 70.0978C748.559 70.9116 748.793 71.8825 749.662 72.6898C750.406 73.3798 751.432 73.7696 752.573 74.0348C754.876 74.5703 758.781 74.8338 765.319 74.8338V70.8338C758.754 70.8338 755.279 70.5572 753.478 70.1387C752.567 69.9268 752.36 69.7362 752.383 69.758C752.533 69.897 752.559 70.1119 752.559 70.0978H748.559ZM765.319 74.8338C771.858 74.8338 775.763 74.5703 778.066 74.0348C779.207 73.7696 780.233 73.3798 780.976 72.6898C781.846 71.8825 782.079 70.9116 782.079 70.0978H778.079C778.079 70.1119 778.106 69.897 778.255 69.758C778.279 69.7362 778.072 69.9268 777.161 70.1387C775.36 70.5572 771.885 70.8338 765.319 70.8338V74.8338ZM746.039 35.3937V41.6577H750.039V35.3937H746.039ZM748.203 43.651L760.444 42.643L760.115 38.6565L747.875 39.6645L748.203 43.651ZM762.279 40.6497V35.3937H758.279V40.6497H762.279ZM760.279 33.3937H748.039V37.3937H760.279V33.3937ZM873.319 14.8737H875.319V12.8737H873.319V14.8737ZM873.319 50.1537V52.1537H875.319V50.1537H873.319ZM856.759 50.1537H854.759V52.1537H856.759V50.1537ZM856.759 39.3537H858.759V37.3537H856.759V39.3537ZM850.279 39.3537V37.3537H848.279V39.3537H850.279ZM850.279 47.2738L850.415 49.2692L852.279 49.1427V47.2738H850.279ZM807.799 50.1537H805.799V52.2939L807.935 52.1492L807.799 50.1537ZM807.799 17.0337V15.0337H805.799V17.0337H807.799ZM822.919 17.0337H824.919V15.0337H822.919V17.0337ZM822.919 22.7937H820.919V24.7937H822.919V22.7937ZM835.159 22.7937V24.7937H837.159V22.7937H835.159ZM835.159 17.0337V15.0337H833.159V17.0337H835.159ZM850.279 17.0337H852.279V15.0337H850.279V17.0337ZM850.279 25.6737H848.279V27.6737H850.279V25.6737ZM856.759 25.6737V27.6737H858.759V25.6737H856.759ZM856.759 14.8737V12.8737H854.759V14.8737H856.759ZM856.759 52.3138V50.3138H854.759V52.3138H856.759ZM873.319 52.3138H875.319V50.3138H873.319V52.3138ZM873.319 82.5537V84.5537H875.319V82.5537H873.319ZM807.799 82.5537H805.799V84.5537H807.799V82.5537ZM807.799 52.3138V50.3138H805.799V52.3138H807.799ZM824.359 52.3138H826.359V50.3138H824.359V52.3138ZM824.359 58.4338H822.359V60.4338H824.359V58.4338ZM856.759 58.4338V60.4338H858.759V58.4338H856.759ZM824.359 68.1538V66.1538H822.359V68.1538H824.359ZM824.359 72.1138H822.359V74.1138H824.359V72.1138ZM856.759 72.1138V74.1138H858.759V72.1138H856.759ZM856.759 68.1538H858.759V66.1538H856.759V68.1538ZM822.919 32.8737V30.8737H820.919V32.8737H822.919ZM822.919 38.3457H820.919V40.4793L823.049 40.3416L822.919 38.3457ZM835.159 37.5537L835.289 39.5496L837.159 39.4285V37.5537H835.159ZM835.159 32.8737H837.159V30.8737H835.159V32.8737ZM871.319 14.8737V50.1537H875.319V14.8737H871.319ZM873.319 48.1537H856.759V52.1537H873.319V48.1537ZM858.759 50.1537V39.3537H854.759V50.1537H858.759ZM856.759 37.3537H850.279V41.3537H856.759V37.3537ZM848.279 39.3537V47.2738H852.279V39.3537H848.279ZM850.144 45.2783L807.664 48.1583L807.935 52.1492L850.415 49.2692L850.144 45.2783ZM809.799 50.1537V17.0337H805.799V50.1537H809.799ZM807.799 19.0337H822.919V15.0337H807.799V19.0337ZM820.919 17.0337V22.7937H824.919V17.0337H820.919ZM822.919 24.7937H835.159V20.7937H822.919V24.7937ZM837.159 22.7937V17.0337H833.159V22.7937H837.159ZM835.159 19.0337H850.279V15.0337H835.159V19.0337ZM848.279 17.0337V25.6737H852.279V17.0337H848.279ZM850.279 27.6737H856.759V23.6737H850.279V27.6737ZM858.759 25.6737V14.8737H854.759V25.6737H858.759ZM856.759 16.8737H873.319V12.8737H856.759V16.8737ZM856.759 54.3138H873.319V50.3138H856.759V54.3138ZM871.319 52.3138V82.5537H875.319V52.3138H871.319ZM873.319 80.5537H807.799V84.5537H873.319V80.5537ZM809.799 82.5537V52.3138H805.799V82.5537H809.799ZM807.799 54.3138H824.359V50.3138H807.799V54.3138ZM822.359 52.3138V58.4338H826.359V52.3138H822.359ZM824.359 60.4338H856.759V56.4338H824.359V60.4338ZM858.759 58.4338V52.3138H854.759V58.4338H858.759ZM822.359 68.1538V72.1138H826.359V68.1538H822.359ZM824.359 74.1138H856.759V70.1138H824.359V74.1138ZM858.759 72.1138V68.1538H854.759V72.1138H858.759ZM856.759 66.1538H824.359V70.1538H856.759V66.1538ZM820.919 32.8737V38.3457H824.919V32.8737H820.919ZM823.049 40.3416L835.289 39.5496L835.03 35.5579L822.79 36.3499L823.049 40.3416ZM837.159 37.5537V32.8737H833.159V37.5537H837.159ZM835.159 30.8737H822.919V34.8737H835.159V30.8737Z" fill="url(#paint1_linear_397_488)"/>
<defs>
<filter id="filter0_f_397_488" x="0.879883" y="0.714844" width="884.439" height="94.918" filterUnits="userSpaceOnUse" color-interpolation-filters="sRGB">
<feFlood flood-opacity="0" result="BackgroundImageFix"/>
<feBlend mode="normal" in="SourceGraphic" in2="BackgroundImageFix" result="shape"/>
<feGaussianBlur stdDeviation="6" result="effect1_foregroundBlur_397_488"/>
</filter>
<linearGradient id="paint0_linear_397_488" x1="11.651" y1="50.7318" x2="747.003" y2="366.744" gradientUnits="userSpaceOnUse">
<stop offset="0.0001" stop-color="#8C8AFF"/>
<stop offset="0.46875" stop-color="#A98AFF"/>
<stop offset="1" stop-color="#DB74FF"/>
</linearGradient>
<linearGradient id="paint1_linear_397_488" x1="11.651" y1="50.7318" x2="747.003" y2="366.744" gradientUnits="userSpaceOnUse">
<stop offset="0.0001" stop-color="#8C8AFF"/>
<stop offset="0.46875" stop-color="#A98AFF"/>
<stop offset="1" stop-color="#DB74FF"/>
</linearGradient>
</defs>
</svg>
