<svg width="343" height="64" viewBox="0 0 343 64" fill="none" xmlns="http://www.w3.org/2000/svg">
<g filter="url(#filter0_b_1923_8492)">
<rect width="343" height="64" rx="32" fill="white" fill-opacity="0.2"/>
<rect x="18" y="11" width="146" height="42" rx="21" fill="white"/>
<mask id="mask0_1923_8492" style="mask-type:alpha" maskUnits="userSpaceOnUse" x="36" y="19" width="26" height="26">
<rect x="36" y="19" width="26" height="26" fill="#D9D9D9"/>
</mask>
<g mask="url(#mask0_1923_8492)">
<path d="M48.7835 40.6951C48.1877 40.6951 47.6776 40.4784 47.2533 40.0451C46.829 39.6117 46.6169 39.0971 46.6169 38.5013C46.6169 37.9055 46.829 37.3954 47.2533 36.9711C47.6776 36.5468 48.1877 36.3346 48.7835 36.3346L49.4335 35.7117C49.578 35.5673 49.745 35.4544 49.9346 35.3732C50.1242 35.2919 50.3183 35.2513 50.5169 35.2513C50.9321 35.2513 51.2887 35.4048 51.5867 35.7117C51.8846 36.0187 52.0335 36.3798 52.0335 36.7951V37.2555C52.0335 37.6166 52.1509 37.9145 52.3856 38.1492C52.6203 38.3839 52.9183 38.5013 53.2794 38.5013C53.5502 38.5013 53.7939 38.4201 54.0106 38.2576C54.2273 38.0951 54.3807 37.8874 54.471 37.6346L54.796 36.7409C54.9585 36.3076 55.2203 35.951 55.5814 35.6711C55.9426 35.3912 56.3578 35.2513 56.8273 35.2513C57.0259 34.7457 57.1839 34.2221 57.3012 33.6805C57.4186 33.1388 57.4773 32.5791 57.4773 32.0013C57.4773 30.3944 57.0755 28.9273 56.2721 27.6003C55.4686 26.2732 54.4169 25.2305 53.1169 24.4721V25.5013C53.1169 26.0971 52.9047 26.6072 52.4804 27.0315C52.0561 27.4558 51.546 27.668 50.9502 27.668H49.8669V29.8346C49.8669 30.1416 49.763 30.3989 49.5554 30.6065C49.3478 30.8141 49.0905 30.918 48.7835 30.918H47.7002V32.7596C47.7002 33.1569 47.5648 33.4909 47.2939 33.7617C47.0231 34.0326 46.6891 34.168 46.2919 34.168C46.0391 34.168 45.8089 34.1138 45.6012 34.0055C45.3936 33.8971 45.2266 33.7437 45.1002 33.5451L43.3669 30.918H42.2835V32.0013C42.2835 32.561 42.0939 33.0395 41.7148 33.4367C41.3356 33.8339 40.8842 34.0687 40.3606 34.1409C40.8301 36.0187 41.8457 37.5805 43.4075 38.8263C44.9693 40.0721 46.7613 40.6951 48.7835 40.6951ZM50.9502 34.168C50.6432 34.168 50.386 34.0641 50.1783 33.8565C49.9707 33.6489 49.8669 33.3916 49.8669 33.0846C49.8669 32.7777 49.9707 32.5204 50.1783 32.3128C50.386 32.1051 50.6432 32.0013 50.9502 32.0013H52.0335C52.3405 32.0013 52.5978 32.1051 52.8054 32.3128C53.013 32.5204 53.1169 32.7777 53.1169 33.0846C53.1169 33.3916 53.013 33.6489 52.8054 33.8565C52.5978 34.0641 52.3405 34.168 52.0335 34.168H50.9502ZM53.4689 30.918C53.1078 30.918 52.8235 30.778 52.6158 30.4982C52.4082 30.2183 52.3585 29.9069 52.4669 29.5638L52.8731 28.3721C52.9453 28.1555 53.0717 27.9839 53.2523 27.8576C53.4328 27.7312 53.6314 27.668 53.8481 27.668C54.2092 27.668 54.4936 27.8079 54.7012 28.0878C54.9089 28.3676 54.9585 28.6791 54.8502 29.0221L54.4439 30.2138C54.3717 30.4305 54.2453 30.602 54.0648 30.7284C53.8842 30.8548 53.6856 30.918 53.4689 30.918ZM48.7835 42.8346C47.2849 42.8346 45.8766 42.5503 44.5585 41.9815C43.2405 41.4128 42.0939 40.6409 41.1189 39.6659C40.1439 38.6909 39.3721 37.5444 38.8033 36.2263C38.2346 34.9082 37.9502 33.4999 37.9502 32.0013C37.9502 30.5027 38.2346 29.0944 38.8033 27.7763C39.3721 26.4582 40.1439 25.3117 41.1189 24.3367C42.0939 23.3617 43.2405 22.5898 44.5585 22.0211C45.8766 21.4523 47.2849 21.168 48.7835 21.168C50.2821 21.168 51.6905 21.4523 53.0085 22.0211C54.3266 22.5898 55.4731 23.3617 56.4481 24.3367C57.4231 25.3117 58.195 26.4582 58.7637 27.7763C59.3325 29.0944 59.6169 30.5027 59.6169 32.0013C59.6169 33.4999 59.3325 34.9082 58.7637 36.2263C58.195 37.5444 57.4231 38.6909 56.4481 39.6659C55.4731 40.6409 54.3266 41.4128 53.0085 41.9815C51.6905 42.5503 50.2821 42.8346 48.7835 42.8346Z" fill="black"/>
</g>
<path d="M82.168 24.384H84.274V34.5H82.168V30.198H80.89V33.942H78.802V24.69H80.89V28.398H82.168V24.384ZM70.468 27.786V26.058H73.312V24.546H75.508V26.058H78.334V27.786H70.468ZM70.954 31.134C70.954 29.478 72.412 28.326 74.41 28.326C76.444 28.326 77.902 29.478 77.902 31.134C77.902 32.808 76.444 33.942 74.41 33.942C72.412 33.942 70.954 32.808 70.954 31.134ZM72.916 31.134C72.916 31.908 73.546 32.358 74.41 32.358C75.292 32.358 75.922 31.908 75.922 31.134C75.922 30.36 75.292 29.928 74.41 29.928C73.546 29.928 72.916 30.36 72.916 31.134ZM73.294 37.596C73.294 35.724 75.382 34.662 78.838 34.662C82.294 34.662 84.364 35.724 84.364 37.596C84.364 39.45 82.294 40.512 78.838 40.512C75.382 40.512 73.294 39.45 73.294 37.596ZM75.526 37.596C75.526 38.442 76.66 38.838 78.838 38.838C81.016 38.838 82.132 38.442 82.132 37.596C82.132 36.714 81.016 36.336 78.838 36.336C76.66 36.336 75.526 36.714 75.526 37.596ZM90.0524 25.23H92.3204V26.58C92.3204 28.74 93.4184 30.738 95.9564 31.548L94.7864 33.294C93.0944 32.7 91.9244 31.584 91.2404 30.162C90.5204 31.818 89.2244 33.132 87.3164 33.78L86.1464 31.98C88.8644 31.098 90.0524 28.938 90.0524 26.688V25.23ZM88.7744 37.362C88.7744 35.418 90.8984 34.248 94.3004 34.248C97.7024 34.248 99.8084 35.418 99.8084 37.362C99.8084 39.36 97.7024 40.512 94.3004 40.512C90.8984 40.512 88.7744 39.36 88.7744 37.362ZM91.0244 37.362C91.0244 38.316 92.1584 38.802 94.3004 38.802C96.4244 38.802 97.5944 38.316 97.5944 37.362C97.5944 36.444 96.4244 35.976 94.3004 35.976C92.1584 35.976 91.0244 36.444 91.0244 37.362ZM94.4984 29.172V27.354H97.5044V24.384H99.7544V33.834H97.5044V29.172H94.4984ZM102.041 36.786H108.197V33.78H103.589V25.392H105.803V27.912H112.823V25.392H115.037V33.78H110.429V36.786H116.639V38.604H102.041V36.786ZM105.803 31.998H112.823V29.676H105.803V31.998ZM128.933 24.366H131.165V40.494H128.933V24.366ZM117.809 35.976C121.949 34.014 123.749 31.422 124.091 27.822H118.637V26.04H126.377C126.377 30.954 124.667 34.986 118.961 37.74L117.809 35.976Z" fill="black"/>
<path fill-rule="evenodd" clip-rule="evenodd" d="M217.556 25.6111C217.556 24.9975 217.058 24.5 216.445 24.5H214.778C213.551 24.5 212.556 25.4949 212.556 26.7222V37.2778C212.556 38.5051 213.551 39.5 214.778 39.5H216.445C217.058 39.5 217.556 39.0025 217.556 38.3889V25.6111Z" fill="white"/>
<rect x="219.778" y="24.5" width="9" height="15" rx="2.22222" fill="white"/>
<path fill-rule="evenodd" clip-rule="evenodd" d="M231 25.6111C231 24.9975 231.497 24.5 232.111 24.5H233.778C235.005 24.5 236 25.4949 236 26.7222V37.2778C236 38.5051 235.005 39.5 233.778 39.5H232.111C231.497 39.5 231 39.0025 231 38.3889V25.6111Z" fill="white"/>
<path d="M244.576 36.786H250.732V33.456H246.106V25.572H257.554V33.456H252.964V36.786H259.174V38.604H244.576V36.786ZM248.302 31.692H255.376V27.336H248.302V31.692ZM264.61 25.5C267.058 25.5 268.822 27.714 268.822 31.242C268.822 34.788 267.058 37.002 264.61 37.002C262.162 37.002 260.398 34.788 260.398 31.242C260.398 27.714 262.162 25.5 264.61 25.5ZM262.54 31.242C262.54 33.654 263.368 34.986 264.61 34.986C265.852 34.986 266.698 33.654 266.698 31.242C266.698 28.83 265.852 27.516 264.61 27.516C263.368 27.516 262.54 28.83 262.54 31.242ZM270.676 40.512V24.384H272.908V30.504H275.284V32.34H272.908V40.512H270.676ZM276.041 36.786H282.197V33.78H277.589V25.392H279.803V27.912H286.823V25.392H289.037V33.78H284.429V36.786H290.639V38.604H276.041V36.786ZM279.803 31.998H286.823V29.676H279.803V31.998ZM302.933 24.366H305.165V40.494H302.933V24.366ZM291.809 35.976C295.949 34.014 297.749 31.422 298.091 27.822H292.637V26.04H300.377C300.377 30.954 298.667 34.986 292.961 37.74L291.809 35.976Z" fill="white"/>
<rect x="1" y="1" width="341" height="62" rx="31" stroke="url(#paint0_linear_1923_8492)" stroke-width="2"/>
</g>
<defs>
<filter id="filter0_b_1923_8492" x="-12" y="-12" width="367" height="88" filterUnits="userSpaceOnUse" color-interpolation-filters="sRGB">
<feFlood flood-opacity="0" result="BackgroundImageFix"/>
<feGaussianBlur in="BackgroundImageFix" stdDeviation="6"/>
<feComposite in2="SourceAlpha" operator="in" result="effect1_backgroundBlur_1923_8492"/>
<feBlend mode="normal" in="SourceGraphic" in2="effect1_backgroundBlur_1923_8492" result="shape"/>
</filter>
<linearGradient id="paint0_linear_1923_8492" x1="10.4125" y1="10.9866" x2="303.522" y2="116.872" gradientUnits="userSpaceOnUse">
<stop offset="0.0001" stop-color="#8C8AFF"/>
<stop offset="0.197917" stop-color="#A98AFF" stop-opacity="0"/>
<stop offset="0.786458" stop-color="#DB74FF" stop-opacity="0.0714286"/>
<stop offset="0.999819" stop-color="#DB74FF"/>
</linearGradient>
</defs>
</svg>
