<svg width="64" height="64" viewBox="0 0 64 64" fill="none" xmlns="http://www.w3.org/2000/svg">
<rect width="64" height="64" rx="32" transform="matrix(-1 0 0 1 64 0)" fill="white" fill-opacity="0.2"/>
<g filter="url(#filter0_b_611_922)">
<mask id="mask0_611_922" style="mask-type:alpha" maskUnits="userSpaceOnUse" x="20" y="20" width="24" height="24">
<rect width="24" height="24" transform="matrix(-1 0 0 1 44 20)" fill="#D9D9D9"/>
</mask>
<g mask="url(#mask0_611_922)">
<path d="M28.8752 41.1004L37.3002 32.7004C37.4002 32.6004 37.471 32.4921 37.5127 32.3754C37.5544 32.2587 37.5752 32.1337 37.5752 32.0004C37.5752 31.8671 37.5544 31.7421 37.5127 31.6254C37.471 31.5087 37.4002 31.4004 37.3002 31.3004L28.8752 22.8754C28.6419 22.6421 28.3502 22.5254 28.0002 22.5254C27.6502 22.5254 27.3502 22.6504 27.1002 22.9004C26.8502 23.1504 26.7252 23.4421 26.7252 23.7754C26.7252 24.1087 26.8502 24.4004 27.1002 24.6504L34.4502 32.0004L27.1002 39.3504C26.8669 39.5837 26.7502 39.8712 26.7502 40.2129C26.7502 40.5546 26.8752 40.8504 27.1252 41.1004C27.3752 41.3504 27.6669 41.4754 28.0002 41.4754C28.3335 41.4754 28.6252 41.3504 28.8752 41.1004Z" fill="white"/>
</g>
</g>
<defs>
<filter id="filter0_b_611_922" x="22.7256" y="18.5254" width="18.8496" height="26.9492" filterUnits="userSpaceOnUse" color-interpolation-filters="sRGB">
<feFlood flood-opacity="0" result="BackgroundImageFix"/>
<feGaussianBlur in="BackgroundImageFix" stdDeviation="2"/>
<feComposite in2="SourceAlpha" operator="in" result="effect1_backgroundBlur_611_922"/>
<feBlend mode="normal" in="SourceGraphic" in2="effect1_backgroundBlur_611_922" result="shape"/>
</filter>
</defs>
</svg>
