<svg width="85" height="85" viewBox="0 0 85 85" fill="none" xmlns="http://www.w3.org/2000/svg">
<mask id="mask0_1317_6327" style="mask-type:alpha" maskUnits="userSpaceOnUse" x="0" y="0" width="85" height="85">
<rect x="0.5" y="0.59375" width="84" height="84" fill="#D9D9D9"/>
</mask>
<g mask="url(#mask0_1317_6327)">
<path d="M35.5 67.0938V60.0938H14.5C12.575 60.0938 10.9271 59.4083 9.55625 58.0375C8.18542 56.6667 7.5 55.0187 7.5 53.0938V18.0938C7.5 16.1687 8.18542 14.5208 9.55625 13.15C10.9271 11.7792 12.575 11.0938 14.5 11.0938H70.5C72.425 11.0938 74.0729 11.7792 75.4437 13.15C76.8146 14.5208 77.5 16.1687 77.5 18.0938V53.0938C77.5 55.0187 76.8146 56.6667 75.4437 58.0375C74.0729 59.4083 72.425 60.0938 70.5 60.0938H49.5V67.0938H53C53.9917 67.0938 54.8229 67.4292 55.4938 68.1C56.1646 68.7708 56.5 69.6021 56.5 70.5938C56.5 71.5854 56.1646 72.4167 55.4938 73.0875C54.8229 73.7583 53.9917 74.0938 53 74.0938H32C31.0083 74.0938 30.1771 73.7583 29.5063 73.0875C28.8354 72.4167 28.5 71.5854 28.5 70.5938C28.5 69.6021 28.8354 68.7708 29.5063 68.1C30.1771 67.4292 31.0083 67.0938 32 67.0938H35.5ZM14.5 53.0938H70.5V18.0938H14.5V53.0938Z" fill="white"/>
</g>
</svg>
