<svg width="85" height="85" viewBox="0 0 85 85" fill="none" xmlns="http://www.w3.org/2000/svg">
<mask id="mask0_397_471" style="mask-type:alpha" maskUnits="userSpaceOnUse" x="0" y="0" width="85" height="85">
<rect x="0.5" y="0.59375" width="84" height="84" fill="#D9D9D9"/>
</mask>
<g mask="url(#mask0_397_471)">
<path d="M68.35 15.7577C64.2667 15.8744 59.9062 17.0702 55.2687 19.3452C50.6312 21.6202 46.4167 24.6535 42.625 28.4452C40.175 30.8952 37.9875 33.5202 36.0625 36.3202C34.1375 39.1202 32.7083 41.7452 31.775 44.1952L41.75 54.0827C44.2 53.1494 46.825 51.7202 49.625 49.7952C52.425 47.8702 55.05 45.6827 57.5 43.2327C61.2917 39.441 64.325 35.241 66.6 30.6327C68.875 26.0244 70.0708 21.6785 70.1875 17.5952C70.1875 17.3619 70.1437 17.1285 70.0562 16.8952C69.9687 16.6619 69.8375 16.4577 69.6625 16.2827C69.4875 16.1077 69.2833 15.9764 69.05 15.8889C68.8167 15.8014 68.5833 15.7577 68.35 15.7577ZM49.1 36.7577C47.7583 35.416 47.0875 33.7681 47.0875 31.8139C47.0875 29.8598 47.7583 28.2119 49.1 26.8702C50.4417 25.5285 52.1042 24.8577 54.0875 24.8577C56.0708 24.8577 57.7333 25.5285 59.075 26.8702C60.4167 28.2119 61.0875 29.8598 61.0875 31.8139C61.0875 33.7681 60.4167 35.416 59.075 36.7577C57.7333 38.0994 56.0708 38.7702 54.0875 38.7702C52.1042 38.7702 50.4417 38.0994 49.1 36.7577ZM76.8375 12.9577C77.3042 19.3744 76.2542 25.6306 73.6875 31.7264C71.1208 37.8223 67.0667 43.641 61.525 49.1827L63.275 57.8452C63.5083 59.0119 63.45 60.1494 63.1 61.2577C62.75 62.366 62.1667 63.3285 61.35 64.1452L50.325 75.1702C49.45 76.0452 48.4 76.3806 47.175 76.1764C45.95 75.9723 45.1042 75.2869 44.6375 74.1202L39.3 61.6077L24.3375 46.6452L11.825 41.3077C10.6583 40.841 9.95833 39.9952 9.725 38.7702C9.49167 37.5452 9.8125 36.4952 10.6875 35.6202L21.7125 24.5952C22.5292 23.7785 23.5063 23.1952 24.6438 22.8452C25.7813 22.4952 26.9333 22.4369 28.1 22.6702L36.7625 24.4202C42.3042 18.8785 48.1229 14.8244 54.2188 12.2577C60.3146 9.69103 66.5708 8.64103 72.9875 9.10769C73.4542 9.16603 73.9208 9.29728 74.3875 9.50144C74.8542 9.70561 75.2625 9.98269 75.6125 10.3327C75.9625 10.6827 76.2396 11.091 76.4437 11.5577C76.6479 12.0244 76.7792 12.491 76.8375 12.9577ZM15.0625 56.0077C17.1042 53.966 19.5979 52.9306 22.5438 52.9014C25.4896 52.8723 27.9833 53.8785 30.025 55.9202C32.0667 57.9619 33.0729 60.4556 33.0438 63.4014C33.0146 66.3473 31.9792 68.841 29.9375 70.8827C28.4792 72.341 26.0437 73.5952 22.6312 74.6452C19.2187 75.6952 14.5083 76.6285 8.5 77.4452C9.31667 71.4369 10.25 66.7264 11.3 63.3139C12.35 59.9014 13.6042 57.466 15.0625 56.0077ZM20.05 60.9077C19.4667 61.491 18.8833 62.5556 18.3 64.1014C17.7167 65.6473 17.3083 67.2077 17.075 68.7827C18.65 68.5494 20.2104 68.1556 21.7563 67.6014C23.3021 67.0473 24.3667 66.4785 24.95 65.8952C25.65 65.1952 26.0292 64.3494 26.0875 63.3577C26.1458 62.366 25.825 61.5202 25.125 60.8202C24.425 60.1202 23.5792 59.7848 22.5875 59.8139C21.5958 59.8431 20.75 60.2077 20.05 60.9077Z" fill="white"/>
</g>
</svg>
