<svg width="85" height="85" viewBox="0 0 85 85" fill="none" xmlns="http://www.w3.org/2000/svg">
<mask id="mask0_397_477" style="mask-type:alpha" maskUnits="userSpaceOnUse" x="0" y="0" width="85" height="85">
<rect x="0.5" y="0.59375" width="84" height="84" fill="#D9D9D9"/>
</mask>
<g mask="url(#mask0_397_477)">
<path d="M68.05 31.8313L53.175 17.1312L58.075 12.2313C59.4167 10.8896 61.0646 10.2188 63.0187 10.2188C64.9729 10.2188 66.6208 10.8896 67.9625 12.2313L72.8625 17.1312C74.2042 18.4729 74.9042 20.0917 74.9625 21.9875C75.0208 23.8833 74.3792 25.5021 73.0375 26.8438L68.05 31.8313ZM14.5 74.0938C13.5083 74.0938 12.6771 73.7583 12.0063 73.0875C11.3354 72.4167 11 71.5854 11 70.5938V60.7062C11 60.2396 11.0875 59.7875 11.2625 59.35C11.4375 58.9125 11.7 58.5187 12.05 58.1688L48.1 22.1188L62.975 36.9937L26.925 73.0438C26.575 73.3938 26.1813 73.6563 25.7438 73.8313C25.3063 74.0063 24.8542 74.0938 24.3875 74.0938H14.5Z" fill="white"/>
</g>
</svg>
