<svg width="70" height="64" viewBox="0 0 70 64" fill="none" xmlns="http://www.w3.org/2000/svg">
<path d="M35 51.25C39.375 51.25 43.0938 49.7188 46.1562 46.6562C49.2188 43.5938 50.75 39.875 50.75 35.5C50.75 31.125 49.2188 27.4062 46.1562 24.3438C43.0938 21.2812 39.375 19.75 35 19.75C30.625 19.75 26.9062 21.2812 23.8438 24.3438C20.7812 27.4062 19.25 31.125 19.25 35.5C19.25 39.875 20.7812 43.5938 23.8438 46.6562C26.9062 49.7188 30.625 51.25 35 51.25ZM35 44.25C32.55 44.25 30.4792 43.4042 28.7875 41.7125C27.0958 40.0208 26.25 37.95 26.25 35.5C26.25 33.05 27.0958 30.9792 28.7875 29.2875C30.4792 27.5958 32.55 26.75 35 26.75C37.45 26.75 39.5208 27.5958 41.2125 29.2875C42.9042 30.9792 43.75 33.05 43.75 35.5C43.75 37.95 42.9042 40.0208 41.2125 41.7125C39.5208 43.4042 37.45 44.25 35 44.25ZM7 63.5C5.075 63.5 3.42708 62.8146 2.05625 61.4438C0.685417 60.0729 0 58.425 0 56.5V14.5C0 12.575 0.685417 10.9271 2.05625 9.55625C3.42708 8.18542 5.075 7.5 7 7.5H18.025L22.4 2.775C23.0417 2.075 23.8146 1.52083 24.7188 1.1125C25.6229 0.704167 26.5708 0.5 27.5625 0.5H42.4375C43.4292 0.5 44.3771 0.704167 45.2812 1.1125C46.1854 1.52083 46.9583 2.075 47.6 2.775L51.975 7.5H63C64.925 7.5 66.5729 8.18542 67.9437 9.55625C69.3146 10.9271 70 12.575 70 14.5V56.5C70 58.425 69.3146 60.0729 67.9437 61.4438C66.5729 62.8146 64.925 63.5 63 63.5H7ZM7 56.5H63V14.5H48.825L42.4375 7.5H27.5625L21.175 14.5H7V56.5Z" fill="white"/>
</svg>
