<svg width="85" height="84" viewBox="0 0 85 84" fill="none" xmlns="http://www.w3.org/2000/svg">
<path d="M26.8881 7.05376V8.68233H28.5167H72.6908C73.3816 8.68233 73.8519 8.92642 74.2574 9.51777C74.6496 10.0898 74.7131 10.6185 74.4411 11.2984L69.3271 24.0833L69.0852 24.6882L69.3271 25.293L74.4411 38.0779C74.7131 38.7579 74.6496 39.2865 74.2574 39.8586C73.8519 40.4499 73.3816 40.694 72.6908 40.694H28.5167H26.8881V42.3226V68.909H23.0915V3.43871C23.0915 2.85006 23.2714 2.4635 23.6026 2.14677C23.9535 1.81113 24.3784 1.62857 24.9898 1.62857C25.5789 1.62857 25.9956 1.81006 26.3511 2.16555C26.7066 2.52105 26.8881 2.93773 26.8881 3.52688V7.05376ZM26.8881 35.2688V36.8974H28.5167H67.4887H69.8941L69.0008 34.664L65.0105 24.6882L69.0008 14.7124L69.8941 12.479H67.4887H28.5167H26.8881V14.1075V35.2688Z" fill="white" stroke="white" stroke-width="3.25714"/>
<path d="M76.2254 83.6481C79.591 83.6481 81.3834 79.8438 78.9306 77.5392C69.41 68.5934 56.5949 63.1133 42.5 63.1133C28.405 63.1133 15.59 68.5934 6.06941 77.5392C3.61664 79.8438 5.409 83.6481 8.77464 83.6481C9.8338 83.6481 10.845 83.2262 11.627 82.5118C19.7681 75.0747 30.6043 70.5383 42.5 70.5383C54.3957 70.5383 65.2319 75.0747 73.373 82.5118C74.155 83.2262 75.1662 83.6481 76.2254 83.6481Z" fill="white"/>
</svg>
