<svg width="280" height="43" viewBox="0 0 280 43" fill="none" xmlns="http://www.w3.org/2000/svg">
<path d="M0.467773 43L0.467773 0.519998L4.78777 0.519998L4.78777 43H0.467773ZM6.94777 43L6.94777 0.519998L9.10777 0.519998L9.10777 43H6.94777ZM15.5878 43L15.5878 0.519998L22.0678 0.519998L22.0678 43H15.5878ZM24.2334 43L24.2334 0.519998L30.7134 0.519998V43H24.2334ZM32.8734 43V0.519998L35.0334 0.519998V43H32.8734ZM41.5134 43V0.519998L45.8334 0.519998V43H41.5134ZM47.999 43V0.519998L50.159 0.519998V43H47.999ZM56.639 43V0.519998L60.959 0.519998V43L56.639 43ZM63.119 43V0.519998L65.279 0.519998V43H63.119ZM71.7646 43V0.519998L76.0846 0.519998V43H71.7646ZM82.5646 43V0.519998L84.7246 0.519998V43H82.5646ZM86.8846 43V0.519998L93.3646 0.519998V43H86.8846ZM95.5303 43V0.519998L99.8503 0.519998V43H95.5303ZM102.01 43V0.519998L108.49 0.519998V43H102.01ZM114.97 43V0.519998L117.13 0.519998V43H114.97ZM119.296 43V0.519998L125.776 0.519998V43H119.296ZM127.936 43V0.519998L132.256 0.519998V43H127.936ZM134.416 43V0.519998L136.576 0.519998V43H134.416ZM143.062 43V0.519998L147.382 0.519998V43H143.062ZM149.542 43V0.519998L151.702 0.519998V43H149.542ZM158.182 43V0.519998L164.662 0.519998V43H158.182ZM166.827 43V0.519998L173.307 0.519998V43H166.827ZM175.467 43V0.519998L177.627 0.519998V43H175.467ZM184.107 43V0.519998L188.427 0.519998V43L184.107 43ZM190.593 43V0.519998L192.753 0.519998V43H190.593ZM199.233 43V0.519998L203.553 0.519998V43H199.233ZM205.713 43V0.519998L207.873 0.519998V43H205.713ZM214.358 43V0.519998L218.678 0.519998V43H214.358ZM225.158 43V0.519998L227.318 0.519998V43H225.158ZM229.478 43V0.519998L235.958 0.519998V43H229.478ZM238.124 43V0.519998L242.444 0.519998V43H238.124ZM244.604 43V0.519998L251.084 0.519998V43H244.604ZM257.564 43V0.519998L259.724 0.519998V43H257.564ZM261.89 43V0.519998L268.37 0.519998V43H261.89ZM270.53 43V0.519998L274.85 0.519998V43H270.53ZM277.01 43V0.519998L279.17 0.519998V43H277.01Z" fill="white"/>
</svg>
