<svg width="487" height="633" viewBox="0 0 487 633" fill="none" xmlns="http://www.w3.org/2000/svg">
<g filter="url(#filter0_b_467_986)">
<g clip-path="url(#clip0_467_986)">
<rect x="0.0576172" y="91.6211" width="354" height="560" rx="32" transform="rotate(-15 0.0576172 91.6211)" fill="url(#paint0_linear_467_986)" fill-opacity="0.2"/>
<g filter="url(#filter1_f_467_986)">
<path d="M103.957 126.085L103.698 125.119L102.888 125.336L102.961 126.171L103.957 126.085ZM105.719 146.404L106.543 146.97L106.746 146.675L106.715 146.318L105.719 146.404ZM100.72 153.684L100.979 154.65L101.336 154.554L101.545 154.25L100.72 153.684ZM88.2518 157.025L87.6738 157.841L88.057 158.112L88.5106 157.991L88.2518 157.025ZM82.1672 152.715L81.171 152.801L81.211 153.263L81.5892 153.531L82.1672 152.715ZM80.4052 132.396L81.4015 132.309L81.2984 131.121L80.1464 131.43L80.4052 132.396ZM77.6344 133.138L76.6385 133.228L76.7455 134.411L77.8932 134.104L77.6344 133.138ZM76.8476 124.438L76.5888 123.472L75.7758 123.69L75.8517 124.528L76.8476 124.438ZM87.9307 121.469L88.9268 121.381L88.8221 120.194L87.6719 120.503L87.9307 121.469ZM90.2357 147.582L89.2396 147.67L89.3443 148.857L90.4946 148.548L90.2357 147.582ZM97.1627 145.726L97.4215 146.692L98.2326 146.475L98.1588 145.638L97.1627 145.726ZM94.8576 119.613L94.5988 118.647L93.7877 118.864L93.8615 119.7L94.8576 119.613ZM105.941 116.643L106.937 116.553L106.83 115.369L105.682 115.677L105.941 116.643ZM106.728 125.342L106.986 126.308L107.799 126.091L107.723 125.252L106.728 125.342ZM125.347 111.443L125.088 110.477L124.276 110.694L124.351 111.531L125.347 111.443ZM136.43 108.473L137.426 108.383L137.319 107.2L136.171 107.507L136.43 108.473ZM137.217 117.173L137.476 118.139L138.289 117.921L138.213 117.083L137.217 117.173ZM134.446 117.915L134.187 116.949L133.377 117.167L133.45 118.002L134.446 117.915ZM135.964 135.33L134.968 135.416L135.072 136.604L136.223 136.295L135.964 135.33ZM138.735 134.587L139.731 134.497L139.624 133.314L138.476 133.621L138.735 134.587ZM139.522 143.287L139.781 144.253L140.594 144.035L140.518 143.197L139.522 143.287ZM130.101 145.811L129.259 146.351L129.654 146.966L130.36 146.777L130.101 145.811ZM121.526 132.426L122.368 131.887L120.53 132.516L121.526 132.426ZM122.897 147.741L123.156 148.707L123.968 148.49L123.893 147.652L122.897 147.741ZM111.814 150.711L110.818 150.801L110.925 151.985L112.073 151.677L111.814 150.711ZM111.027 142.011L110.769 141.045L109.956 141.263L110.031 142.101L111.027 142.011ZM113.798 141.269L114.057 142.235L114.867 142.018L114.794 141.182L113.798 141.269ZM112.28 123.855L113.276 123.768L113.173 122.58L112.021 122.889L112.28 123.855ZM109.509 124.597L108.513 124.687L108.62 125.871L109.768 125.563L109.509 124.597ZM108.722 115.897L108.463 114.932L107.651 115.149L107.726 115.988L108.722 115.897ZM118.143 113.373L118.984 112.833L118.59 112.218L117.884 112.407L118.143 113.373ZM126.704 126.703L125.862 127.243L127.7 126.614L126.704 126.703ZM153.044 104.022L154.04 103.931L153.933 102.748L152.785 103.056L153.044 104.022ZM153.831 112.721L154.09 113.687L154.902 113.469L154.827 112.631L153.831 112.721ZM151.06 113.464L150.801 112.498L149.991 112.715L150.064 113.551L151.06 113.464ZM152.578 130.878L151.582 130.965L151.685 132.152L152.837 131.844L152.578 130.878ZM155.349 130.135L156.345 130.045L156.238 128.862L155.09 129.17L155.349 130.135ZM156.136 138.835L156.395 139.801L157.207 139.583L157.132 138.745L156.136 138.835ZM142.282 142.547L141.286 142.637L141.393 143.821L142.541 143.513L142.282 142.547ZM141.495 133.848L141.236 132.882L140.423 133.099L140.499 133.938L141.495 133.848ZM144.266 133.105L144.525 134.071L145.335 133.854L145.262 133.018L144.266 133.105ZM142.748 115.691L143.744 115.604L143.64 114.416L142.489 114.725L142.748 115.691ZM139.977 116.433L138.981 116.523L139.088 117.707L140.236 117.399L139.977 116.433ZM139.19 107.734L138.931 106.768L138.118 106.986L138.194 107.824L139.19 107.734ZM171.963 125.684L170.993 125.928L172.961 125.746L171.963 125.684ZM173.648 98.5008L173.389 97.5349L172.694 97.721L172.65 98.4389L173.648 98.5008ZM183.512 95.8578L184.507 95.7677L184.4 94.5843L183.253 94.8918L183.512 95.8578ZM184.298 104.557L184.557 105.523L185.37 105.306L185.294 104.467L184.298 104.557ZM181.528 105.3L181.269 104.334L180.573 104.521L180.529 105.24L181.528 105.3ZM179.898 132.468L180.157 133.434L180.853 133.247L180.896 132.528L179.898 132.468ZM165.601 136.299L164.631 136.541L164.877 137.528L165.86 137.265L165.601 136.299ZM159.361 111.239L160.332 110.998L160.086 110.01L159.103 110.273L159.361 111.239ZM156.591 111.982L155.595 112.072L155.702 113.255L156.849 112.948L156.591 111.982ZM155.804 103.282L155.545 102.316L154.732 102.534L154.808 103.372L155.804 103.282ZM165.668 100.639L166.638 100.395L166.39 99.4102L165.409 99.6731L165.668 100.639ZM205.201 116.778L205.46 117.744L206.273 117.526L206.197 116.688L205.201 116.778ZM204.808 112.428L204.549 111.462L203.736 111.68L203.812 112.518L204.808 112.428ZM213.12 110.2L214.116 110.11L214.009 108.927L212.861 109.235L213.12 110.2ZM214.3 123.25L214.559 124.216L215.372 123.998L215.296 123.16L214.3 123.25ZM189.363 129.932L188.367 130.022L188.474 131.205L189.622 130.898L189.363 129.932ZM188.577 121.232L188.318 120.266L187.505 120.484L187.581 121.322L188.577 121.232ZM191.347 120.49L191.606 121.456L192.416 121.239L192.344 120.403L191.347 120.49ZM189.829 103.075L190.825 102.989L190.722 101.801L189.57 102.11L189.829 103.075ZM187.058 103.818L186.062 103.908L186.169 105.091L187.317 104.784L187.058 103.818ZM186.271 95.1182L186.013 94.1523L185.2 94.3701L185.276 95.2083L186.271 95.1182ZM211.208 88.4364L212.204 88.3463L212.097 87.1629L210.95 87.4705L211.208 88.4364ZM212.389 101.486L212.648 102.452L213.46 102.234L213.385 101.396L212.389 101.486ZM204.076 103.713L203.08 103.803L203.187 104.987L204.335 104.679L204.076 103.713ZM203.683 99.3634L204.679 99.2733L204.572 98.0899L203.424 98.3974L203.683 99.3634ZM198.141 100.848L197.883 99.8823L197.075 100.099L197.145 100.932L198.141 100.848ZM198.629 106.658L197.633 106.742L197.733 107.933L198.888 107.624L198.629 106.658ZM204.171 105.173L205.166 105.08L205.056 103.901L203.912 104.207L204.171 105.173ZM204.714 110.968L204.972 111.934L205.788 111.715L205.709 110.875L204.714 110.968ZM199.172 112.453L198.913 111.487L198.106 111.703L198.176 112.536L199.172 112.453ZM199.66 118.262L198.663 118.346L198.763 119.538L199.918 119.228L199.66 118.262ZM227.988 97.6488L228.857 97.154L228.592 96.6884L228.058 96.6512L227.988 97.6488ZM229.577 97.2231L228.987 96.4157L228.574 96.7175L228.577 97.2291L229.577 97.2231ZM227.56 96.05L228.016 96.9399L228.563 96.6593L228.56 96.044L227.56 96.05ZM228.045 107.686L227.786 106.721L226.974 106.938L227.049 107.775L228.045 107.686ZM229.075 119.291L229.334 120.257L230.146 120.039L230.071 119.203L229.075 119.291ZM217.992 122.261L216.996 122.351L217.103 123.534L218.251 123.227L217.992 122.261ZM217.205 113.561L216.947 112.595L216.134 112.813L216.21 113.651L217.205 113.561ZM219.976 112.819L220.235 113.785L221.045 113.567L220.972 112.732L219.976 112.819ZM218.458 95.4044L219.454 95.3175L219.351 94.1299L218.199 94.4385L218.458 95.4044ZM215.687 96.1468L214.691 96.2369L214.798 97.4203L215.946 97.1127L215.687 96.1468ZM214.9 87.4471L214.642 86.4812L213.829 86.699L213.905 87.5372L214.9 87.4471ZM234.296 82.2501L234.874 81.4341L234.491 81.1627L234.037 81.2842L234.296 82.2501ZM240.38 86.5601L241.377 86.4737L241.337 86.012L240.958 85.7441L240.38 86.5601ZM241.261 96.7197L242.083 97.2892L242.289 96.9927L242.258 96.6333L241.261 96.7197ZM238.734 100.367L237.912 99.7974L237.615 100.227L237.798 100.717L238.734 100.367ZM241.256 107.117L240.319 107.467L240.637 108.318L241.515 108.083L241.256 107.117ZM244.027 106.374L245.023 106.284L244.915 105.101L243.768 105.408L244.027 106.374ZM244.813 115.074L245.072 116.04L245.885 115.822L245.809 114.984L244.813 115.074ZM235.725 117.509L234.79 117.863L235.11 118.709L235.984 118.475L235.725 117.509ZM231.647 106.721L232.582 106.368L232.262 105.521L231.388 105.755L231.647 106.721ZM268.85 102.693L269.675 103.259L269.878 102.963L269.846 102.606L268.85 102.693ZM263.852 109.973L264.111 110.939L264.467 110.843L264.676 110.539L263.852 109.973ZM246.673 114.576L245.677 114.664L245.782 115.85L246.932 115.542L246.673 114.576ZM245.642 102.971L245.383 102.005L244.572 102.223L244.646 103.06L245.642 102.971ZM253.955 100.744L254.951 100.66L254.851 99.4685L253.696 99.778L253.955 100.744ZM254.198 103.649L253.202 103.732L253.302 104.924L254.457 104.615L254.198 103.649ZM260.294 102.015L260.553 102.981L261.359 102.765L261.291 101.934L260.294 102.015ZM260.031 98.8187L261.028 98.7368L260.957 97.866L260.084 97.82L260.031 98.8187ZM245.211 98.0375L244.215 98.1242L244.29 98.9903L245.159 99.0361L245.211 98.0375ZM244.124 85.557L243.3 84.991L243.097 85.2866L243.128 85.6438L244.124 85.557ZM249.123 78.2773L248.864 77.3114L248.507 77.407L248.298 77.7113L249.123 78.2773ZM266.301 73.6743L267.297 73.5858L267.192 72.4003L266.043 72.7084L266.301 73.6743ZM267.332 85.2788L267.591 86.2447L268.402 86.0273L268.328 85.1904L267.332 85.2788ZM259.02 87.5061L258.023 87.5897L258.123 88.7816L259.279 88.472L259.02 87.5061ZM258.776 84.6013L259.772 84.5176L259.672 83.3258L258.517 83.6353L258.776 84.6013ZM252.68 86.2346L252.421 85.2687L251.615 85.4847L251.684 86.3165L252.68 86.2346ZM252.943 89.4314L251.946 89.5133L252.018 90.384L252.89 90.43L252.943 89.4314ZM267.763 90.2126L268.759 90.1258L268.684 89.2597L267.816 89.214L267.763 90.2126ZM288 94.5918L288.259 95.5577L289.071 95.3399L288.996 94.5017L288 94.5918ZM287.606 90.2419L287.347 89.276L286.535 89.4938L286.61 90.332L287.606 90.2419ZM295.919 88.0147L296.915 87.9246L296.808 86.7412L295.66 87.0487L295.919 88.0147ZM297.099 101.064L297.358 102.03L298.171 101.812L298.095 100.974L297.099 101.064ZM272.162 107.746L271.166 107.836L271.273 109.019L272.421 108.712L272.162 107.746ZM271.375 99.0463L271.116 98.0804L270.303 98.2982L270.379 99.1364L271.375 99.0463ZM274.146 98.3039L274.405 99.2698L275.215 99.0527L275.142 98.2171L274.146 98.3039ZM272.628 80.8897L273.624 80.8028L273.52 79.6152L272.369 79.9238L272.628 80.8897ZM269.857 81.6321L268.861 81.7222L268.968 82.9056L270.116 82.5981L269.857 81.6321ZM269.07 72.9324L268.811 71.9665L267.998 72.1843L268.074 73.0225L269.07 72.9324ZM294.007 66.2506L295.003 66.1605L294.896 64.9771L293.748 65.2847L294.007 66.2506ZM295.187 79.3001L295.446 80.2661L296.259 80.0482L296.183 79.2101L295.187 79.3001ZM286.875 81.5274L285.879 81.6175L285.986 82.8009L287.134 82.4933L286.875 81.5274ZM286.481 77.1776L287.477 77.0875L287.37 75.9041L286.223 76.2116L286.481 77.1776ZM280.94 78.6624L280.681 77.6965L279.873 77.9129L279.943 78.7461L280.94 78.6624ZM281.428 84.4721L280.431 84.5557L280.531 85.7476L281.686 85.438L281.428 84.4721ZM286.969 82.9873L287.965 82.894L287.854 81.7148L286.71 82.0213L286.969 82.9873ZM287.512 88.7821L287.771 89.748L288.587 89.5295L288.508 88.6888L287.512 88.7821ZM281.971 90.267L281.712 89.301L280.904 89.5174L280.974 90.3506L281.971 90.267ZM282.458 96.0766L281.462 96.1603L281.562 97.3521L282.717 97.0426L282.458 96.0766ZM229.149 95.6243L228.28 96.1191L228.575 96.6386L229.173 96.624L229.149 95.6243ZM229.597 100.474L228.727 100.968L230.62 104.291L230.596 100.468L229.597 100.474ZM224.865 97.4311L224.409 96.5411L221.213 98.1789L224.795 98.4286L224.865 97.4311ZM231.855 95.558L232.445 96.3653L235.025 94.48L231.831 94.5583L231.855 95.558ZM227.54 92.7995L228.409 92.3047L226.517 88.9816L226.54 92.8055L227.54 92.7995ZM237.412 67.3639L238.345 67.0017C238.16 66.5261 237.646 66.2659 237.154 66.3979C236.661 66.53 236.346 67.012 236.424 67.5163L237.412 67.3639ZM240.781 76.0337L239.849 76.3958C240.018 76.8326 240.468 77.093 240.932 77.0222L240.781 76.0337ZM249.919 74.6369L250.282 75.5685C250.757 75.3833 251.017 74.8705 250.885 74.3781C250.753 73.8857 250.272 73.5713 249.768 73.6484L249.919 74.6369ZM241.307 77.9963L240.943 77.0646C240.507 77.2349 240.247 77.6856 240.318 78.1487L241.307 77.9963ZM242.724 87.1887L241.792 87.5508C241.977 88.0264 242.49 88.2867 242.983 88.1546C243.476 88.0225 243.791 87.5405 243.713 87.0362L242.724 87.1887ZM239.356 78.5188L240.288 78.1567C240.119 77.7199 239.668 77.4595 239.205 77.5303L239.356 78.5188ZM230.218 79.9156L229.855 78.984C229.38 79.1692 229.12 79.6821 229.252 80.1745C229.384 80.6668 229.865 80.9812 230.369 80.9042L230.218 79.9156ZM238.83 76.5563L239.194 77.4879C239.63 77.3176 239.89 76.867 239.819 76.4038L238.83 76.5563ZM102.961 126.171L104.723 146.49L106.715 146.318L104.953 125.999L102.961 126.171ZM104.894 145.838L99.8959 153.118L101.545 154.25L106.543 146.97L104.894 145.838ZM100.461 152.718L87.993 156.059L88.5106 157.991L100.979 154.65L100.461 152.718ZM88.8298 156.209L82.7453 151.899L81.5892 153.531L87.6738 157.841L88.8298 156.209ZM83.1635 152.628L81.4015 132.309L79.4089 132.482L81.171 152.801L83.1635 152.628ZM80.1464 131.43L77.3756 132.172L77.8932 134.104L80.664 133.361L80.1464 131.43ZM78.6304 133.048L77.8435 124.348L75.8517 124.528L76.6385 133.228L78.6304 133.048ZM77.1064 125.404L88.1895 122.434L87.6719 120.503L76.5888 123.472L77.1064 125.404ZM86.9346 121.557L89.2396 147.67L91.2319 147.495L88.9268 121.381L86.9346 121.557ZM90.4946 148.548L97.4215 146.692L96.9039 144.76L89.9769 146.617L90.4946 148.548ZM98.1588 145.638L95.8537 119.525L93.8615 119.7L96.1666 145.814L98.1588 145.638ZM95.1164 120.578L106.2 117.609L105.682 115.677L94.5988 118.647L95.1164 120.578ZM104.945 116.733L105.732 125.433L107.723 125.252L106.937 116.553L104.945 116.733ZM106.469 124.377L103.698 125.119L104.216 127.051L106.986 126.308L106.469 124.377ZM125.606 112.409L136.689 109.439L136.171 107.507L125.088 110.477L125.606 112.409ZM135.434 108.563L136.221 117.263L138.213 117.083L137.426 108.383L135.434 108.563ZM136.958 116.207L134.187 116.949L134.705 118.881L137.476 118.139L136.958 116.207ZM133.45 118.002L134.968 135.416L136.961 135.243L135.442 117.828L133.45 118.002ZM136.223 136.295L138.994 135.553L138.476 133.621L135.706 134.364L136.223 136.295ZM137.739 134.677L138.526 143.377L140.518 143.197L139.731 134.497L137.739 134.677ZM139.263 142.321L129.842 144.845L130.36 146.777L139.781 144.253L139.263 142.321ZM130.943 145.272L122.368 131.887L120.684 132.966L129.259 146.351L130.943 145.272ZM120.53 132.516L121.901 147.831L123.893 147.652L122.522 132.337L120.53 132.516ZM122.638 146.775L111.555 149.745L112.073 151.677L123.156 148.707L122.638 146.775ZM112.81 150.621L112.023 141.921L110.031 142.101L110.818 150.801L112.81 150.621ZM111.286 142.977L114.057 142.235L113.539 140.303L110.769 141.045L111.286 142.977ZM114.794 141.182L113.276 123.768L111.284 123.942L112.802 141.356L114.794 141.182ZM112.021 122.889L109.25 123.631L109.768 125.563L112.539 124.821L112.021 122.889ZM110.505 124.507L109.718 115.807L107.726 115.988L108.513 124.687L110.505 124.507ZM108.981 116.863L118.402 114.339L117.884 112.407L108.463 114.932L108.981 116.863ZM117.302 113.914L125.862 127.243L127.545 126.162L118.984 112.833L117.302 113.914ZM127.7 126.614L126.343 111.354L124.351 111.531L125.708 126.791L127.7 126.614ZM152.048 104.112L152.835 112.811L154.827 112.631L154.04 103.931L152.048 104.112ZM153.572 111.755L150.801 112.498L151.319 114.43L154.09 113.687L153.572 111.755ZM150.064 113.551L151.582 130.965L153.574 130.791L152.056 113.377L150.064 113.551ZM152.837 131.844L155.608 131.101L155.09 129.17L152.319 129.912L152.837 131.844ZM154.353 130.226L155.14 138.925L157.132 138.745L156.345 130.045L154.353 130.226ZM155.877 137.869L142.023 141.581L142.541 143.513L156.395 139.801L155.877 137.869ZM143.278 142.457L142.491 133.758L140.499 133.938L141.286 142.637L143.278 142.457ZM141.754 134.814L144.525 134.071L144.007 132.139L141.236 132.882L141.754 134.814ZM145.262 133.018L143.744 115.604L141.751 115.778L143.27 133.192L145.262 133.018ZM142.489 114.725L139.718 115.467L140.236 117.399L143.006 116.657L142.489 114.725ZM140.973 116.343L140.186 107.644L138.194 107.824L138.981 116.523L140.973 116.343ZM139.449 108.7L153.303 104.987L152.785 103.056L138.931 106.768L139.449 108.7ZM172.961 125.746L174.646 98.5627L172.65 98.4389L170.965 125.622L172.961 125.746ZM173.906 99.4667L183.77 96.8237L183.253 94.8918L173.389 97.5349L173.906 99.4667ZM182.516 95.9478L183.302 104.648L185.294 104.467L184.507 95.7677L182.516 95.9478ZM184.04 103.592L181.269 104.334L181.786 106.266L184.557 105.523L184.04 103.592ZM180.529 105.24L178.9 132.408L180.896 132.528L182.526 105.36L180.529 105.24ZM179.639 131.502L165.342 135.333L165.86 137.265L180.157 133.434L179.639 131.502ZM166.571 136.057L160.332 110.998L158.391 111.481L164.631 136.541L166.571 136.057ZM159.103 110.273L156.332 111.016L156.849 112.948L159.62 112.205L159.103 110.273ZM157.587 111.892L156.8 103.192L154.808 103.372L155.595 112.072L157.587 111.892ZM156.063 104.248L165.927 101.605L165.409 99.6731L155.545 102.316L156.063 104.248ZM164.698 100.883L170.993 125.928L172.933 125.44L166.638 100.395L164.698 100.883ZM206.197 116.688L205.804 112.338L203.812 112.518L204.205 116.868L206.197 116.688ZM205.067 113.394L213.379 111.166L212.861 109.235L204.549 111.462L205.067 113.394ZM212.124 110.291L213.304 123.34L215.296 123.16L214.116 110.11L212.124 110.291ZM214.042 122.284L189.105 128.966L189.622 130.898L214.559 124.216L214.042 122.284ZM190.359 129.842L189.572 121.142L187.581 121.322L188.367 130.022L190.359 129.842ZM188.835 122.198L191.606 121.456L191.089 119.524L188.318 120.266L188.835 122.198ZM192.344 120.403L190.825 102.989L188.833 103.162L190.351 120.577L192.344 120.403ZM189.57 102.11L186.799 102.852L187.317 104.784L190.088 104.041L189.57 102.11ZM188.054 103.728L187.267 95.0282L185.276 95.2083L186.062 103.908L188.054 103.728ZM186.53 96.0842L211.467 89.4023L210.95 87.4705L186.013 94.1523L186.53 96.0842ZM210.213 88.5265L211.393 101.576L213.385 101.396L212.204 88.3463L210.213 88.5265ZM212.13 100.52L203.818 102.747L204.335 104.679L212.648 102.452L212.13 100.52ZM205.072 103.623L204.679 99.2733L202.687 99.4534L203.08 103.803L205.072 103.623ZM203.424 98.3974L197.883 99.8823L198.4 101.814L203.942 100.329L203.424 98.3974ZM197.145 100.932L197.633 106.742L199.626 106.574L199.138 100.765L197.145 100.932ZM198.888 107.624L204.429 106.139L203.912 104.207L198.37 105.692L198.888 107.624ZM203.175 105.266L203.718 111.061L205.709 110.875L205.166 105.08L203.175 105.266ZM204.455 110.002L198.913 111.487L199.431 113.419L204.972 111.934L204.455 110.002ZM198.176 112.536L198.663 118.346L200.656 118.179L200.169 112.369L198.176 112.536ZM199.918 119.228L205.46 117.744L204.942 115.812L199.401 117.297L199.918 119.228ZM227.049 107.775L228.079 119.379L230.071 119.203L229.041 107.598L227.049 107.775ZM228.817 118.325L217.734 121.295L218.251 123.227L229.334 120.257L228.817 118.325ZM218.988 122.171L218.201 113.471L216.21 113.651L216.996 122.351L218.988 122.171ZM217.464 114.527L220.235 113.785L219.717 111.853L216.947 112.595L217.464 114.527ZM220.972 112.732L219.454 95.3175L217.462 95.4912L218.98 112.905L220.972 112.732ZM218.199 94.4385L215.428 95.1809L215.946 97.1127L218.717 96.3703L218.199 94.4385ZM216.683 96.0567L215.896 87.3571L213.905 87.5372L214.691 96.2369L216.683 96.0567ZM215.159 88.4131L234.555 83.2161L234.037 81.2842L214.642 86.4812L215.159 88.4131ZM233.718 83.0662L239.802 87.3762L240.958 85.7441L234.874 81.4341L233.718 83.0662ZM239.384 86.6465L240.265 96.8061L242.258 96.6333L241.377 86.4737L239.384 86.6465ZM240.439 96.1502L237.912 99.7974L239.556 100.936L242.083 97.2892L240.439 96.1502ZM237.798 100.717L240.319 107.467L242.193 106.767L239.671 100.017L237.798 100.717ZM241.515 108.083L244.285 107.34L243.768 105.408L240.997 106.151L241.515 108.083ZM243.031 106.464L243.817 115.164L245.809 114.984L245.023 106.284L243.031 106.464ZM244.555 114.108L235.466 116.543L235.984 118.475L245.072 116.04L244.555 114.108ZM236.661 117.156L232.582 106.368L230.711 107.075L234.79 117.863L236.661 117.156ZM231.388 105.755L227.786 106.721L228.304 108.652L231.906 107.687L231.388 105.755ZM268.026 102.127L263.027 109.407L264.676 110.539L269.675 103.259L268.026 102.127ZM263.593 109.007L246.414 113.61L246.932 115.542L264.111 110.939L263.593 109.007ZM247.669 114.487L246.638 102.883L244.646 103.06L245.677 114.664L247.669 114.487ZM245.901 103.937L254.213 101.71L253.696 99.778L245.383 102.005L245.901 103.937ZM252.958 100.828L253.202 103.732L255.195 103.565L254.951 100.66L252.958 100.828ZM254.457 104.615L260.553 102.981L260.035 101.05L253.94 102.683L254.457 104.615ZM261.291 101.934L261.028 98.7368L259.035 98.9005L259.297 102.097L261.291 101.934ZM260.084 97.82L245.264 97.0388L245.159 99.0361L259.979 99.8173L260.084 97.82ZM246.207 97.9507L245.12 85.4702L243.128 85.6438L244.215 98.1242L246.207 97.9507ZM244.948 86.1231L249.947 78.8434L248.298 77.7113L243.3 84.991L244.948 86.1231ZM249.381 79.2433L266.56 74.6402L266.043 72.7084L248.864 77.3114L249.381 79.2433ZM265.305 73.7628L266.336 85.3673L268.328 85.1904L267.297 73.5858L265.305 73.7628ZM267.073 84.3129L258.761 86.5402L259.279 88.472L267.591 86.2447L267.073 84.3129ZM260.016 87.4225L259.772 84.5176L257.779 84.6849L258.023 87.5897L260.016 87.4225ZM258.517 83.6353L252.421 85.2687L252.939 87.2005L259.035 85.5672L258.517 83.6353ZM251.684 86.3165L251.946 89.5133L253.939 89.3495L253.677 86.1527L251.684 86.3165ZM252.89 90.43L267.71 91.2112L267.816 89.214L252.995 88.4328L252.89 90.43ZM266.767 90.2994L267.854 102.78L269.846 102.606L268.759 90.1258L266.767 90.2994ZM288.996 94.5017L288.602 90.1519L286.61 90.332L287.004 94.6819L288.996 94.5017ZM287.865 91.2079L296.177 88.9806L295.66 87.0487L287.347 89.276L287.865 91.2079ZM294.923 88.1047L296.103 101.154L298.095 100.974L296.915 87.9246L294.923 88.1047ZM296.84 100.098L271.903 106.78L272.421 108.712L297.358 102.03L296.84 100.098ZM273.158 107.656L272.371 98.9563L270.379 99.1364L271.166 107.836L273.158 107.656ZM271.634 100.012L274.405 99.2698L273.887 97.338L271.116 98.0804L271.634 100.012ZM275.142 98.2171L273.624 80.8028L271.631 80.9766L273.15 98.3908L275.142 98.2171ZM272.369 79.9238L269.598 80.6662L270.116 82.5981L272.886 81.8556L272.369 79.9238ZM270.853 81.5421L270.066 72.8424L268.074 73.0225L268.861 81.7222L270.853 81.5421ZM269.329 73.8984L294.266 67.2165L293.748 65.2847L268.811 71.9665L269.329 73.8984ZM293.011 66.3407L294.191 79.3902L296.183 79.2101L295.003 66.1605L293.011 66.3407ZM294.928 78.3342L286.616 80.5615L287.134 82.4933L295.446 80.2661L294.928 78.3342ZM287.871 81.4373L287.477 77.0875L285.486 77.2676L285.879 81.6175L287.871 81.4373ZM286.223 76.2116L280.681 77.6965L281.199 79.6283L286.74 78.1435L286.223 76.2116ZM279.943 78.7461L280.431 84.5557L282.424 84.3885L281.936 78.5788L279.943 78.7461ZM281.686 85.438L287.228 83.9532L286.71 82.0213L281.169 83.5062L281.686 85.438ZM285.973 83.0806L286.516 88.8754L288.508 88.6888L287.965 82.894L285.973 83.0806ZM287.253 87.8162L281.712 89.301L282.229 91.2329L287.771 89.748L287.253 87.8162ZM280.974 90.3506L281.462 96.1603L283.455 95.993L282.967 90.1833L280.974 90.3506ZM282.717 97.0426L288.259 95.5577L287.741 93.6259L282.199 95.1107L282.717 97.0426ZM227.119 98.1435L228.727 100.968L230.466 99.9788L228.857 97.154L227.119 98.1435ZM230.596 100.468L230.577 97.217L228.577 97.2291L228.597 100.48L230.596 100.468ZM227.104 95.16L224.409 96.5411L225.321 98.321L228.016 96.9399L227.104 95.16ZM224.795 98.4286L227.919 98.6463L228.058 96.6512L224.934 96.4335L224.795 98.4286ZM230.167 98.0304L232.445 96.3653L231.265 94.7506L228.987 96.4157L230.167 98.0304ZM231.831 94.5583L229.124 94.6246L229.173 96.624L231.88 96.5577L231.831 94.5583ZM230.018 95.1295L228.409 92.3047L226.671 93.2942L228.28 96.1191L230.018 95.1295ZM226.54 92.8055L226.56 96.056L228.56 96.044L228.54 92.7934L226.54 92.8055ZM236.48 67.726L239.849 76.3958L241.713 75.6716L238.345 67.0017L236.48 67.726ZM240.932 77.0222L250.07 75.6254L249.768 73.6484L240.63 75.0452L240.932 77.0222ZM249.555 73.7053L240.943 77.0646L241.67 78.9279L250.282 75.5685L249.555 73.7053ZM240.318 78.1487L241.736 87.3411L243.713 87.0362L242.295 77.8438L240.318 78.1487ZM243.657 86.8265L240.288 78.1567L238.424 78.881L241.792 87.5508L243.657 86.8265ZM239.205 77.5303L230.067 78.9271L230.369 80.9042L239.507 79.5073L239.205 77.5303ZM230.582 80.8473L239.194 77.4879L238.467 75.6246L229.855 78.984L230.582 80.8473ZM239.819 76.4038L238.401 67.2114L236.424 67.5163L237.842 76.7087L239.819 76.4038Z" fill="url(#paint1_linear_467_986)" fill-opacity="0.5"/>
</g>
<mask id="path-4-inside-1_467_986" fill="white">
<path d="M103.955 126.085L105.717 146.404L100.719 153.684L88.2514 157.025L82.1672 152.715L80.4049 132.396L77.6344 133.138L76.8474 124.438L87.9296 121.469L90.235 147.583L97.1614 145.727L94.856 119.613L105.938 116.643L106.725 125.343L103.955 126.085Z"/>
<path d="M125.343 111.444L136.425 108.475L137.212 117.174L134.442 117.917L135.96 135.331L138.731 134.588L139.517 143.288L130.098 145.812L121.522 132.427L122.894 147.742L111.812 150.712L111.025 142.012L113.796 141.27L112.277 123.855L109.507 124.598L108.72 115.898L118.139 113.374L126.7 126.704L125.343 111.444Z"/>
<path d="M153.038 104.023L153.825 112.723L151.054 113.465L152.572 130.879L155.343 130.137L156.13 138.837L142.277 142.549L141.49 133.849L144.261 133.107L142.742 115.692L139.972 116.435L139.185 107.735L153.038 104.023Z"/>
<path d="M171.956 125.686L173.64 98.5029L183.503 95.8601L184.29 104.56L181.519 105.302L179.891 132.47L165.594 136.301L159.355 111.241L156.584 111.983L155.797 103.284L165.661 100.641L171.956 125.686Z"/>
<path d="M205.191 116.78L204.798 112.43L213.11 110.203L214.29 123.253L189.355 129.934L188.568 121.234L191.339 120.492L189.82 103.078L187.05 103.82L186.263 95.1206L211.198 88.4393L212.378 101.489L204.066 103.716L203.673 99.3661L198.132 100.851L198.619 106.66L204.161 105.176L204.704 110.971L199.163 112.455L199.65 118.265L205.191 116.78Z"/>
<path d="M228.033 107.69L229.064 119.294L217.982 122.264L217.195 113.564L219.965 112.822L218.447 95.4074L215.676 96.1498L214.889 87.4501L234.283 82.2535L240.367 86.5636L241.249 96.7231L238.722 100.37L241.243 107.12L244.014 106.378L244.801 115.077L235.713 117.512L231.635 106.725L228.033 107.69Z"/>
<path d="M268.835 102.697L263.837 109.977L246.66 114.579L245.629 102.975L253.941 100.748L254.185 103.652L260.28 102.019L260.017 98.8225L245.198 98.041L244.111 85.5606L249.109 78.281L266.286 73.6784L267.317 85.2829L259.005 87.51L258.761 84.6051L252.666 86.2383L252.929 89.4351L267.748 90.2166L268.835 102.697Z"/>
<path d="M287.983 94.5962L287.59 90.2464L295.901 88.0193L297.082 101.069L272.147 107.75L271.36 99.0504L274.131 98.308L272.612 80.8939L269.841 81.6362L269.055 72.9366L293.99 66.2553L295.17 79.3048L286.858 81.5319L286.465 77.182L280.924 78.6668L281.411 84.4764L286.952 82.9917L287.496 88.7865L281.954 90.2713L282.442 96.0809L287.983 94.5962Z"/>
<path d="M237.399 67.3674L240.767 76.0373L249.905 74.6406L241.293 77.9998L242.711 87.1922L239.343 78.5223L230.206 79.919L238.817 76.5598L237.399 67.3674Z"/>
</mask>
<path d="M103.955 126.085L105.717 146.404L100.719 153.684L88.2514 157.025L82.1672 152.715L80.4049 132.396L77.6344 133.138L76.8474 124.438L87.9296 121.469L90.235 147.583L97.1614 145.727L94.856 119.613L105.938 116.643L106.725 125.343L103.955 126.085Z" fill="white" fill-opacity="0.15"/>
<path d="M125.343 111.444L136.425 108.475L137.212 117.174L134.442 117.917L135.96 135.331L138.731 134.588L139.517 143.288L130.098 145.812L121.522 132.427L122.894 147.742L111.812 150.712L111.025 142.012L113.796 141.27L112.277 123.855L109.507 124.598L108.72 115.898L118.139 113.374L126.7 126.704L125.343 111.444Z" fill="white" fill-opacity="0.15"/>
<path d="M153.038 104.023L153.825 112.723L151.054 113.465L152.572 130.879L155.343 130.137L156.13 138.837L142.277 142.549L141.49 133.849L144.261 133.107L142.742 115.692L139.972 116.435L139.185 107.735L153.038 104.023Z" fill="white" fill-opacity="0.15"/>
<path d="M171.956 125.686L173.64 98.5029L183.503 95.8601L184.29 104.56L181.519 105.302L179.891 132.47L165.594 136.301L159.355 111.241L156.584 111.983L155.797 103.284L165.661 100.641L171.956 125.686Z" fill="white" fill-opacity="0.15"/>
<path d="M205.191 116.78L204.798 112.43L213.11 110.203L214.29 123.253L189.355 129.934L188.568 121.234L191.339 120.492L189.82 103.078L187.05 103.82L186.263 95.1206L211.198 88.4393L212.378 101.489L204.066 103.716L203.673 99.3661L198.132 100.851L198.619 106.66L204.161 105.176L204.704 110.971L199.163 112.455L199.65 118.265L205.191 116.78Z" fill="white" fill-opacity="0.15"/>
<path d="M228.033 107.69L229.064 119.294L217.982 122.264L217.195 113.564L219.965 112.822L218.447 95.4074L215.676 96.1498L214.889 87.4501L234.283 82.2535L240.367 86.5636L241.249 96.7231L238.722 100.37L241.243 107.12L244.014 106.378L244.801 115.077L235.713 117.512L231.635 106.725L228.033 107.69Z" fill="white" fill-opacity="0.15"/>
<path d="M268.835 102.697L263.837 109.977L246.66 114.579L245.629 102.975L253.941 100.748L254.185 103.652L260.28 102.019L260.017 98.8225L245.198 98.041L244.111 85.5606L249.109 78.281L266.286 73.6784L267.317 85.2829L259.005 87.51L258.761 84.6051L252.666 86.2383L252.929 89.4351L267.748 90.2166L268.835 102.697Z" fill="white" fill-opacity="0.15"/>
<path d="M287.983 94.5962L287.59 90.2464L295.901 88.0193L297.082 101.069L272.147 107.75L271.36 99.0504L274.131 98.308L272.612 80.8939L269.841 81.6362L269.055 72.9366L293.99 66.2553L295.17 79.3048L286.858 81.5319L286.465 77.182L280.924 78.6668L281.411 84.4764L286.952 82.9917L287.496 88.7865L281.954 90.2713L282.442 96.0809L287.983 94.5962Z" fill="white" fill-opacity="0.15"/>
<path d="M237.399 67.3674L240.767 76.0373L249.905 74.6406L241.293 77.9998L242.711 87.1922L239.343 78.5223L230.206 79.919L238.817 76.5598L237.399 67.3674Z" fill="white" fill-opacity="0.15"/>
<path d="M103.955 126.085L105.717 146.404L100.719 153.684L88.2514 157.025L82.1672 152.715L80.4049 132.396L77.6344 133.138L76.8474 124.438L87.9296 121.469L90.235 147.583L97.1614 145.727L94.856 119.613L105.938 116.643L106.725 125.343L103.955 126.085Z" stroke="url(#paint2_linear_467_986)" stroke-width="2" mask="url(#path-4-inside-1_467_986)"/>
<path d="M125.343 111.444L136.425 108.475L137.212 117.174L134.442 117.917L135.96 135.331L138.731 134.588L139.517 143.288L130.098 145.812L121.522 132.427L122.894 147.742L111.812 150.712L111.025 142.012L113.796 141.27L112.277 123.855L109.507 124.598L108.72 115.898L118.139 113.374L126.7 126.704L125.343 111.444Z" stroke="url(#paint3_linear_467_986)" stroke-width="2" mask="url(#path-4-inside-1_467_986)"/>
<path d="M153.038 104.023L153.825 112.723L151.054 113.465L152.572 130.879L155.343 130.137L156.13 138.837L142.277 142.549L141.49 133.849L144.261 133.107L142.742 115.692L139.972 116.435L139.185 107.735L153.038 104.023Z" stroke="url(#paint4_linear_467_986)" stroke-width="2" mask="url(#path-4-inside-1_467_986)"/>
<path d="M171.956 125.686L173.64 98.5029L183.503 95.8601L184.29 104.56L181.519 105.302L179.891 132.47L165.594 136.301L159.355 111.241L156.584 111.983L155.797 103.284L165.661 100.641L171.956 125.686Z" stroke="url(#paint5_linear_467_986)" stroke-width="2" mask="url(#path-4-inside-1_467_986)"/>
<path d="M205.191 116.78L204.798 112.43L213.11 110.203L214.29 123.253L189.355 129.934L188.568 121.234L191.339 120.492L189.82 103.078L187.05 103.82L186.263 95.1206L211.198 88.4393L212.378 101.489L204.066 103.716L203.673 99.3661L198.132 100.851L198.619 106.66L204.161 105.176L204.704 110.971L199.163 112.455L199.65 118.265L205.191 116.78Z" stroke="url(#paint6_linear_467_986)" stroke-width="2" mask="url(#path-4-inside-1_467_986)"/>
<path d="M228.033 107.69L229.064 119.294L217.982 122.264L217.195 113.564L219.965 112.822L218.447 95.4074L215.676 96.1498L214.889 87.4501L234.283 82.2535L240.367 86.5636L241.249 96.7231L238.722 100.37L241.243 107.12L244.014 106.378L244.801 115.077L235.713 117.512L231.635 106.725L228.033 107.69Z" stroke="url(#paint7_linear_467_986)" stroke-width="2" mask="url(#path-4-inside-1_467_986)"/>
<path d="M268.835 102.697L263.837 109.977L246.66 114.579L245.629 102.975L253.941 100.748L254.185 103.652L260.28 102.019L260.017 98.8225L245.198 98.041L244.111 85.5606L249.109 78.281L266.286 73.6784L267.317 85.2829L259.005 87.51L258.761 84.6051L252.666 86.2383L252.929 89.4351L267.748 90.2166L268.835 102.697Z" stroke="url(#paint8_linear_467_986)" stroke-width="2" mask="url(#path-4-inside-1_467_986)"/>
<path d="M287.983 94.5962L287.59 90.2464L295.901 88.0193L297.082 101.069L272.147 107.75L271.36 99.0504L274.131 98.308L272.612 80.8939L269.841 81.6362L269.055 72.9366L293.99 66.2553L295.17 79.3048L286.858 81.5319L286.465 77.182L280.924 78.6668L281.411 84.4764L286.952 82.9917L287.496 88.7865L281.954 90.2713L282.442 96.0809L287.983 94.5962Z" stroke="url(#paint9_linear_467_986)" stroke-width="2" mask="url(#path-4-inside-1_467_986)"/>
<path d="M237.399 67.3674L240.767 76.0373L249.905 74.6406L241.293 77.9998L242.711 87.1922L239.343 78.5223L230.206 79.919L238.817 76.5598L237.399 67.3674Z" stroke="url(#paint10_linear_467_986)" stroke-width="2" mask="url(#path-4-inside-1_467_986)"/>
<g clip-path="url(#clip1_467_986)">
<rect x="113.598" y="179.221" width="180" height="180" rx="24" transform="rotate(-15 113.598 179.221)" fill="white"/>
<g clip-path="url(#clip2_467_986)">
<path d="M237.866 244.559C239.029 247.74 242.332 254.747 246.985 252.318L247.732 252.982C248.846 258.103 247.245 262.354 244.229 267.122C241.15 271.907 236.554 275.518 231.182 277.376C226.447 279.025 221.002 279.242 216.519 276.964C212.037 274.686 208.932 270.697 210.291 266.2L210.639 266.107C211.736 265.847 212.584 265.008 213.349 264.18C214.322 263.124 215.925 259.433 216.415 258.365C217.045 256.851 216.162 251.986 216.255 250.349L237.866 244.559V244.559Z" fill="#FFD39F"/>
<path fill-rule="evenodd" clip-rule="evenodd" d="M208.537 386.359C210.044 386.116 211.544 385.874 213.135 385.757L213.295 385.735L216.196 405.383L216.198 405.399C216.831 409.689 217.462 413.975 218.402 418.214C218.639 419.281 218.941 420.421 219.778 421.124C220.792 421.983 222.249 421.935 223.563 421.839L238.119 420.785L242.293 420.175C264.718 418.054 285.958 411.353 306.341 401.765L320.503 394.771C321.755 393.98 323.2 393.393 324.657 392.801C327.714 391.557 330.822 390.294 332.3 387.087C332.4 386.406 332.332 385.712 332.103 385.064C329.971 380.834 324.944 373.559 320.325 366.872C316.959 362.001 313.809 357.443 312.152 354.601L311.689 354.162C304.784 329.846 297.235 305.626 285.371 283.361L283.516 280.534C278.469 272.514 272.679 265.074 265.664 258.83L263.36 252.807C263.102 251.793 262.58 250.861 261.848 250.113C261.116 249.365 260.201 248.822 259.193 248.538C258.185 248.255 257.123 248.246 256.11 248.507C255.096 248.768 254.171 249.293 253.426 250.029C254.183 248.166 252.95 245.895 251.102 245.118C249.254 244.34 247.067 244.819 245.378 245.894C243.689 246.969 242.414 248.573 241.224 250.185C240.363 251.356 239.522 252.557 238.68 253.761C235.141 258.816 231.57 263.92 226.309 267.006L222.183 266.832C219.933 266.923 217.975 265.306 216.606 263.519C216.131 262.899 215.699 262.245 215.267 261.592C214.452 260.36 213.639 259.13 212.548 258.139C210.879 256.622 208.268 255.789 206.379 257.008C204.063 258.5 204.223 261.867 204.457 264.62C204.522 265.031 204.487 265.455 204.351 265.848C204.111 266.394 203.538 266.686 203.001 266.96C202.967 266.977 202.933 266.994 202.899 267.012C201.686 267.634 200.509 268.482 199.817 269.674C199.125 270.866 198.992 272.454 199.761 273.6L198.855 276.734C198.226 277.992 196.798 281.937 196.798 281.937C193.536 293.584 194.017 304.555 194.54 316.481C194.555 316.807 194.569 317.133 194.583 317.461C195.794 339.838 199.185 360.449 202.692 381.759C202.978 383.499 203.265 385.243 203.552 386.993C205.305 386.881 206.926 386.619 208.537 386.359ZM214.054 393.873C211.186 394.621 208.223 394.948 205.259 394.846C204.808 392.391 204.356 389.866 204.806 387.411L213.007 386.168L214.054 393.873Z" fill="black"/>
<path fill-rule="evenodd" clip-rule="evenodd" d="M236.063 276.839C236.406 277.847 237.466 278.403 238.473 278.133C238.519 278.121 238.56 278.11 238.596 278.09C247.058 275.218 254.766 270.254 260.893 263.743C262.159 262.4 263.168 261.08 263.918 259.786C264.025 259.979 264.165 260.157 264.339 260.312C270.611 265.894 276.331 272.856 281.828 281.588C282.309 282.352 283.215 282.68 284.039 282.459C284.229 282.408 284.414 282.327 284.586 282.219C285.521 281.63 285.801 280.393 285.211 279.454C279.509 270.396 273.552 263.156 266.995 257.318C266.483 256.862 265.803 256.717 265.185 256.87C265.629 255.306 265.667 253.789 265.295 252.326C264.949 250.97 264.249 249.726 263.274 248.725C262.298 247.724 261.071 246.994 259.724 246.619C258.381 246.242 256.956 246.229 255.603 246.578C255.475 246.613 255.349 246.646 255.222 246.687C254.629 245.221 253.449 243.946 251.87 243.283C249.571 242.315 246.738 242.663 244.3 244.215C242.292 245.493 240.828 247.355 239.61 249.006C238.275 250.819 237.21 252.533 236.181 254.191L236.143 254.251L236.14 254.255C233.702 258.182 231.776 261.284 227.587 263.741C226.633 264.301 226.313 265.528 226.873 266.485C227.433 267.441 228.662 267.762 229.613 267.203C234.656 264.247 237.03 260.422 239.541 256.374L239.581 256.311C240.569 254.72 241.592 253.074 242.83 251.391C243.879 249.972 245.019 248.508 246.449 247.599C247.764 246.763 249.249 246.524 250.327 246.978C251.249 247.368 251.875 248.532 251.57 249.284C251.212 250.165 251.522 251.179 252.312 251.707C253.102 252.235 254.153 252.137 254.83 251.471C255.316 250.992 255.921 250.647 256.577 250.471L256.61 250.462C257.28 250.286 257.989 250.293 258.657 250.481C259.325 250.668 259.933 251.028 260.418 251.527C260.904 252.026 261.252 252.642 261.422 253.316C261.959 255.423 260.802 258.006 257.986 260.994C252.305 267.033 245.155 271.633 237.311 274.298C236.268 274.654 235.706 275.79 236.063 276.839ZM236.025 422.927C235.906 422.959 235.78 422.979 235.652 422.989L223.722 423.851C222.385 423.936 220.182 424.073 218.51 422.675C218.027 422.27 217.664 421.803 217.381 421.308C215.891 421.442 214.385 421.264 212.956 420.777C211.054 420.131 209.373 418.97 208.098 417.417C207.888 417.162 207.745 416.861 207.68 416.54C207.574 416.025 207.475 415.496 207.374 414.961L207.374 414.961L207.373 414.96L207.373 414.96L207.373 414.96L207.373 414.96L207.373 414.96L207.373 414.959L207.356 414.869C206.476 410.246 205.565 405.465 201.594 403.164C201.279 402.982 201.022 402.719 200.844 402.4C199.266 399.555 200.16 396.185 203.05 393.855C202.775 392.243 202.551 390.523 202.642 388.769C202.097 388.486 201.693 387.958 201.587 387.312C201.353 385.878 201.117 384.447 200.882 383.02L200.727 382.079L200.712 381.987C197.162 360.407 193.809 340.019 192.595 317.561L192.551 316.56C192.026 304.62 191.534 293.343 194.88 281.386C194.894 281.337 194.91 281.292 194.925 281.246L194.947 281.186C195.175 280.56 196.437 277.101 197.076 275.828C197.315 275.348 197.721 275.007 198.189 274.84C198.16 274.8 198.132 274.76 198.104 274.719C196.951 273.005 196.946 270.63 198.09 268.664C198.891 267.287 200.164 266.164 201.989 265.225L202.095 265.169C202.214 265.11 202.372 265.03 202.488 264.96C202.487 264.956 202.486 264.951 202.486 264.947L202.486 264.947C202.486 264.943 202.485 264.939 202.484 264.934C202.477 264.88 202.47 264.83 202.467 264.779L202.466 264.77C202.244 262.058 201.872 257.533 205.298 255.319C207.341 254.004 210.904 253.869 213.914 256.666C214.239 256.968 214.54 257.283 214.823 257.606C214.981 256.672 215.788 255.954 216.767 255.943C217.871 255.928 218.781 256.815 218.795 257.921C218.814 259.158 218.556 260.058 217.666 261.566C217.841 261.815 218.016 262.058 218.196 262.294C218.943 263.266 220.445 264.89 222.105 264.826C223.208 264.783 224.139 265.644 224.187 266.748C224.231 267.853 223.373 268.785 222.271 268.831C219.703 268.935 217.129 267.48 215.024 264.738C214.505 264.061 214.039 263.366 213.592 262.691L213.57 262.658C212.806 261.514 212.083 260.432 211.192 259.606C210.158 258.644 208.481 258.039 207.465 258.692C206.177 259.524 206.259 262.058 206.448 264.387C206.548 265.097 206.478 265.825 206.245 266.503C206.227 266.552 206.206 266.603 206.185 266.653C205.66 267.849 204.617 268.383 203.922 268.738L203.915 268.742L203.818 268.792C202.711 269.362 201.949 269.995 201.55 270.68C201.198 271.286 201.143 272.061 201.425 272.48C201.689 272.873 202.303 273.207 202.865 273.478C207.988 276.006 213.686 277.091 219.356 276.616C220.457 276.525 221.425 277.344 221.517 278.447C221.594 279.43 220.956 280.306 220.041 280.551C219.928 280.581 219.81 280.603 219.688 280.611C213.295 281.145 206.87 279.923 201.111 277.081C201.026 277.04 200.94 276.997 200.853 276.953C200.827 277.183 200.761 277.412 200.651 277.63C200.187 278.553 199.118 281.426 198.71 282.545C195.558 293.859 196.036 304.801 196.546 316.389L196.588 317.37C197.79 339.612 201.132 359.915 204.671 381.413L204.673 381.429C204.858 382.556 205.043 383.685 205.229 384.818C206.228 384.696 207.208 384.54 208.223 384.376L208.277 384.367C209.17 384.223 210.08 384.076 211.019 383.956L209.094 370.921L209.08 370.824C205.639 347.385 202.082 323.148 201.337 299.044C201.303 297.939 202.169 297.012 203.276 296.982C204.378 296.949 205.302 297.819 205.336 298.927C206.075 322.808 209.617 346.935 213.043 370.27L213.054 370.347L213.177 371.179L218.187 405.113L218.189 405.13C218.807 409.313 219.445 413.635 220.365 417.802C220.48 418.322 220.696 419.294 221.074 419.608C221.518 419.98 222.727 419.905 223.446 419.858L235.355 418.994C236.455 418.914 237.416 419.746 237.494 420.849C237.572 421.821 236.937 422.683 236.025 422.927ZM204.164 400.044C203.711 398.586 205.137 397.308 205.709 396.867C208.102 396.911 210.488 396.695 212.829 396.218L214.228 405.689L214.246 405.809C214.805 409.592 215.381 413.489 216.178 417.337C215.522 417.314 214.87 417.194 214.241 416.981C213.196 416.625 212.255 416.023 211.499 415.222C211.452 414.991 211.408 414.759 211.364 414.525C211.338 414.391 211.313 414.256 211.286 414.121L211.285 414.115C210.368 409.299 209.233 403.346 204.164 400.044ZM211.605 387.924L212.243 392.246C210.498 392.615 208.722 392.82 206.938 392.858C206.706 391.444 206.547 390.027 206.658 388.674C207.41 388.568 208.142 388.45 208.863 388.334L209.016 388.309C209.894 388.169 210.745 388.033 211.605 387.924ZM242.481 422.165C252.013 421.264 261.531 419.541 271.155 416.962C282.815 413.838 294.628 409.455 306.777 403.768C308.866 404.639 311.092 404.798 313.335 404.197C313.577 404.132 313.823 404.059 314.066 403.973C317.419 402.834 319.889 400.179 321.083 396.683C321.25 396.632 321.413 396.558 321.571 396.464C322.672 395.767 324.003 395.224 325.41 394.653C328.644 393.341 332.306 391.851 334.115 387.925C334.196 387.751 334.25 387.567 334.279 387.376C334.422 386.38 334.322 385.348 333.988 384.397C333.973 384.356 333.958 384.317 333.941 384.278C333.924 384.238 333.906 384.2 333.887 384.161C331.691 379.805 326.749 372.652 321.97 365.734L321.969 365.733L321.967 365.73C318.637 360.915 315.496 356.365 313.876 353.59C313.766 353.402 313.631 353.238 313.477 353.101C306.908 329.855 300.038 307.631 288.217 285.431C287.696 284.453 286.486 284.082 285.511 284.603C284.536 285.124 284.167 286.336 284.688 287.314C297.88 312.094 304.86 337.086 312.25 363.545L312.252 363.553L312.39 364.042L287.906 370.173C276.684 342.781 267.704 314.265 261.206 285.388C260.965 284.308 259.892 283.627 258.815 283.871C257.739 284.118 257.059 285.185 257.303 286.265C263.977 315.924 273.252 345.208 284.869 373.301C285.168 374.023 285.847 374.488 286.591 374.536C286.85 376.591 287.317 378.618 287.986 380.582C288.083 380.944 288.239 381.282 288.456 381.588C288.704 381.936 289.013 382.227 289.376 382.448C289.411 382.469 289.446 382.489 289.482 382.508C288.552 383.705 287.888 385.095 287.827 386.57C287.776 387.846 288.154 389.709 290.244 391.328C292.179 392.829 294.456 393.433 296.465 393.964C296.862 394.068 297.256 394.173 297.652 394.285C298.204 394.44 299.235 396.202 299.686 396.973L299.695 396.989C300.008 397.527 300.307 398.035 300.615 398.478C301.325 399.493 302.084 400.386 302.883 401.153C281.936 410.717 262.025 416.291 242.099 418.176C240.998 418.278 240.194 419.257 240.3 420.36C240.405 421.459 241.381 422.27 242.481 422.165ZM295.629 381.559C295.585 382.164 295.268 382.741 294.719 383.095C293.085 384.155 291.867 385.688 291.824 386.741C291.816 386.94 291.795 387.468 292.688 388.159C293.98 389.161 295.68 389.611 297.477 390.087L297.477 390.087L297.48 390.088C297.581 390.115 297.682 390.142 297.783 390.169C298.102 390.253 298.419 390.337 298.734 390.426C300.839 391.019 302.115 393.202 303.14 394.956L303.145 394.965C303.414 395.428 303.674 395.867 303.888 396.177C305.699 398.766 308.703 401.554 312.772 400.177C315.445 399.267 318.18 396.338 317.862 390.838C317.615 386.61 315.712 382.498 313.87 378.518L313.864 378.504L313.765 378.291C313.576 377.883 313.389 377.477 313.203 377.07C313.166 376.988 313.135 376.906 313.109 376.823L295.629 381.559ZM316.093 374.547C316.409 374.748 316.673 375.04 316.84 375.407C317.056 375.878 317.272 376.35 317.492 376.823L317.499 376.839C319.497 381.157 321.564 385.622 321.856 390.612C321.879 391.007 321.889 391.398 321.886 391.784C322.555 391.485 323.231 391.21 323.897 390.94C326.698 389.802 329.134 388.81 330.338 386.527C330.344 386.293 330.312 386.056 330.245 385.832C328.137 381.708 323.127 374.455 318.695 368.039L318.674 368.009L318.527 367.795L318.526 367.794L318.526 367.794L318.526 367.794C317.965 366.982 317.41 366.178 316.867 365.389C316.886 365.773 316.794 366.157 316.598 366.494C316.338 366.951 315.899 367.286 315.391 367.422L315.358 367.431L314.707 367.594L315.962 371.641C316.113 372.139 316.482 373.366 316.093 374.547ZM310.821 368.567L290.514 373.652C290.698 375.305 291.037 376.937 291.525 378.528L312.174 372.932L312.174 372.932C312.169 372.916 312.165 372.899 312.16 372.881C312.154 372.861 312.147 372.839 312.139 372.817L310.821 368.567Z" fill="black"/>
</g>
<path d="M175.441 232.525C172.142 231.984 169.521 229.426 167.673 226.652C162.564 218.971 161.795 208.912 164.296 200.035C166.797 191.158 172.285 183.369 178.78 176.818C183.809 171.746 189.668 167.222 196.54 165.27C203.412 163.318 211.425 164.336 216.651 169.219L222.3 172.029C227.858 169.588 234.368 171.306 239.843 173.941C246.576 177.172 252.712 181.822 257.094 187.876C261.477 193.93 264.01 201.437 263.495 208.893C263.025 215.663 259.102 222.957 252.444 224.201" fill="black"/>
<path d="M217.177 257.794C216.122 254.473 215.512 252.067 214.824 248.651C211.247 251.373 206.622 251.886 202.288 252.273C198.13 252.636 194.049 252.256 190.303 250.265C183.271 246.523 179.583 238.733 178.413 231.148C177.951 228.135 177.899 222.968 178.541 217.058L180.067 212.887C181.414 208.258 183.452 203.769 186.557 200.081C189.661 196.392 193.913 193.572 198.647 192.722C199.965 192.487 201.368 192.405 202.644 192.841C203.921 193.277 205.059 194.307 205.314 195.632L210.937 197.141C212.627 195.17 215.966 195.448 217.958 197.138C219.95 198.828 220.859 201.434 221.446 203.971C222.032 206.508 222.395 209.15 223.636 211.436C224.669 213.272 226.207 214.772 228.068 215.757C229.93 216.742 232.033 217.171 234.127 216.99L236.612 216.193C239.434 211.951 241.491 210.933 244.244 211.509C248.163 212.33 249.67 215.883 249.751 219.185C249.856 222.823 248.483 226.352 246.27 229.196C245.149 230.613 243.855 231.89 242.422 232.994C241.72 233.542 240.991 234.055 240.239 234.533C239.394 235.074 238.458 235.315 238.265 236.335C237.423 240.842 237.624 244.852 239.181 249.166" fill="#FFD39F"/>
<path fill-rule="evenodd" clip-rule="evenodd" d="M175.126 234.487C175.414 234.531 175.692 234.515 175.956 234.445C176.315 234.348 176.64 234.152 176.894 233.884C178.74 242.214 183.204 248.749 189.368 252.03C193.042 253.982 197.327 254.712 202.469 254.264C205.652 253.982 209.777 253.614 213.446 251.828C213.799 253.404 214.128 254.54 214.84 256.784C215.166 257.81 216.237 258.392 217.264 258.116C217.293 258.109 217.322 258.101 217.354 258.078C218.406 257.744 218.988 256.617 218.653 255.562C217.606 252.273 217.45 251.547 216.786 248.246C216.65 247.57 216.176 247.012 215.531 246.767C214.886 246.524 214.162 246.629 213.614 247.045C210.593 249.345 206.616 249.868 202.113 250.269C197.706 250.654 194.252 250.089 191.242 248.488C185.612 245.494 181.658 239.059 180.391 230.839C180.014 228.377 179.852 223.52 180.531 217.272C180.65 216.171 179.857 215.181 178.758 215.06C177.659 214.939 176.671 215.733 176.552 216.834C175.979 222.093 175.905 227.204 176.337 230.722C176.157 230.631 175.96 230.567 175.75 230.533C172.888 230.076 170.682 227.561 169.332 225.526C164.855 218.809 163.687 209.48 166.207 200.571C168.372 192.914 173.076 185.394 180.188 178.218C185.974 172.379 191.498 168.772 197.074 167.184C203.819 165.27 210.955 166.636 215.273 170.671C216.083 171.425 217.349 171.384 218.101 170.573C218.854 169.763 218.811 168.495 218.001 167.74C212.6 162.689 204.146 161.005 195.979 163.328C189.723 165.108 183.629 169.051 177.346 175.39C169.753 183.051 164.708 191.153 162.358 199.471C159.526 209.495 160.888 220.066 166.006 227.742C168.576 231.615 171.726 233.946 175.126 234.487ZM253.753 225.942C253.438 226.027 253.122 226.098 252.8 226.16C251.97 226.316 251.161 225.931 250.737 225.255C250.077 227.073 249.106 228.828 247.853 230.439C246.62 231.997 245.207 233.392 243.644 234.592C242.905 235.168 242.118 235.724 241.313 236.234C241.068 236.389 240.828 236.523 240.617 236.638C240.587 236.655 240.554 236.673 240.52 236.692C240.409 236.753 240.288 236.819 240.204 236.873C239.39 241.242 239.207 242.85 240.546 246.559C240.921 247.6 240.383 248.747 239.345 249.122C239.29 249.15 239.237 249.168 239.182 249.183C238.19 249.448 237.139 248.914 236.784 247.923C235.073 243.173 235.421 240.697 236.303 235.979C236.628 234.256 237.926 233.548 238.703 233.126C238.738 233.106 238.772 233.087 238.807 233.068L238.808 233.067C238.938 232.996 239.06 232.929 239.166 232.86C239.868 232.412 240.55 231.932 241.198 231.426C242.512 230.417 243.688 229.255 244.708 227.965C246.756 225.33 247.845 222.234 247.758 219.255C247.722 217.754 247.267 214.203 243.841 213.485C242.345 213.17 240.984 213.254 238.281 217.319C237.74 218.133 236.708 218.421 235.84 218.053C235.578 218.481 235.158 218.806 234.654 218.942C234.541 218.972 234.426 218.992 234.305 219.004C231.822 219.216 229.343 218.711 227.14 217.545C224.936 216.378 223.123 214.609 221.898 212.434C220.759 210.332 220.289 208.116 219.835 205.969L219.766 205.649C219.68 205.243 219.594 204.839 219.5 204.437C219.052 202.496 218.324 200.087 216.671 198.683C215.519 197.705 213.381 197.389 212.458 198.466C211.738 199.306 210.475 199.399 209.637 198.679C208.798 197.956 208.704 196.692 209.422 195.853C211.475 193.459 215.915 192.795 219.252 195.629C221.806 197.795 222.809 200.995 223.398 203.541C223.52 204.076 223.636 204.612 223.749 205.149C224.161 207.1 224.551 208.939 225.397 210.5C226.228 211.979 227.48 213.2 229.005 214.009C230.529 214.818 232.241 215.165 233.958 215.019C234.292 214.991 234.614 215.046 234.903 215.168C234.913 215.152 234.923 215.135 234.933 215.119C234.939 215.11 234.945 215.101 234.951 215.092C238.833 209.255 241.907 208.985 244.653 209.56C248.909 210.453 251.629 214.127 251.754 219.15C251.785 220.234 251.701 221.328 251.505 222.414C251.676 222.324 251.863 222.258 252.062 222.221C257.712 221.167 261.078 214.642 261.488 208.742C261.951 202.044 259.81 195.047 255.464 189.042C251.554 183.643 245.851 179.04 238.969 175.738C232.583 172.666 227.243 172.032 223.093 173.853C222.081 174.297 220.901 173.835 220.457 172.823C220.013 171.811 220.472 170.626 221.482 170.183C226.749 167.869 233.212 168.523 240.693 172.125C248.17 175.714 254.399 180.751 258.7 186.692C263.598 193.458 266.005 201.386 265.478 209.026C265.208 212.888 263.955 216.686 261.946 219.721C259.808 222.936 256.991 225.071 253.753 225.942ZM179.503 214.826C179.866 214.932 180.235 214.93 180.576 214.839C181.23 214.664 181.778 214.161 181.979 213.467C183.399 208.566 185.451 204.506 188.076 201.396C191.107 197.807 194.984 195.433 198.995 194.714C200.259 194.486 201.243 194.499 201.998 194.757C202.682 194.989 203.246 195.522 203.342 196.026C203.551 197.114 204.601 197.826 205.685 197.618C206.774 197.409 207.481 196.362 207.272 195.274C206.901 193.35 205.333 191.657 203.276 190.96C201.844 190.472 200.258 190.412 198.285 190.765C193.366 191.647 188.654 194.5 185.023 198.8C182.031 202.341 179.718 206.897 178.14 212.341C177.831 213.403 178.443 214.515 179.503 214.826ZM190.463 223.402C191.707 223.069 192.387 221.57 191.981 220.056C191.576 218.541 190.237 217.583 188.993 217.917C187.748 218.25 187.068 219.749 187.474 221.263C187.88 222.778 189.218 223.736 190.463 223.402ZM203.132 217.881C203.538 219.395 202.858 220.894 201.613 221.227C200.368 221.561 199.03 220.603 198.624 219.088C198.218 217.574 198.898 216.075 200.143 215.742C201.388 215.408 202.726 216.366 203.132 217.881Z" fill="black"/>
</g>
<path d="M196.166 377.237L189.824 389.67L202.455 399.967L198.468 401.036L188.253 392.708L185.452 398.328L187.001 404.108L183.786 404.97L177.699 382.251L180.913 381.39L184.143 393.445L191.808 378.404L196.166 377.237ZM202.179 382.814L205.394 381.953L209.701 398.026L206.486 398.887L202.179 382.814ZM200.524 377.626C200.242 376.575 200.808 375.595 201.89 375.305C202.941 375.024 203.89 375.598 204.171 376.649C204.453 377.7 203.918 378.671 202.867 378.953C201.785 379.243 200.806 378.677 200.524 377.626ZM232.449 382.025C231.787 379.552 229.909 378.233 227.9 378.771C225.675 379.368 224.571 381.552 225.167 383.777L227.693 393.205L224.478 394.066L222.002 384.824C221.339 382.352 219.493 381.024 217.515 381.554C215.258 382.159 214.212 384.559 214.858 386.97L217.276 395.996L214.062 396.857L209.73 380.692L212.945 379.83L213.682 382.581C214.148 380.734 215.58 379.157 217.157 378.735C219.166 378.196 221.539 379.018 222.91 380.672C223.456 378.505 225.255 376.565 227.295 376.018C231.128 374.991 234.562 377.053 235.623 381.009L238.14 390.406L234.926 391.267L232.449 382.025ZM250.331 381.077C252.295 382.472 254.767 383.168 256.815 382.652C259.783 381.857 261.423 379.695 260.849 377.43C259.588 372.6 247.86 378.161 245.826 370.324C244.871 366.638 247.345 363.258 251.773 362.105C254.471 361.415 257.549 362.147 259.765 363.74L257.882 366.232C256.271 365.041 254.258 364.454 252.519 364.887C249.953 365.574 248.511 367.484 249.049 369.494C250.335 374.417 262.107 369.142 264.072 376.6C265.093 380.533 262.391 384.173 257.53 385.442C254.523 386.215 250.931 385.421 248.417 383.577L250.331 381.077ZM270.894 374.076C271.598 376.703 273.669 378.004 275.987 377.382C278.46 376.72 279.694 374.401 278.967 371.813L276.549 362.788L279.763 361.926L284.095 378.092L280.88 378.953L280.168 376.295C279.624 378.097 278.067 379.707 276.367 380.163C272.38 381.231 268.822 379.203 267.72 375.092L265.236 365.819L268.45 364.958L270.894 374.076ZM296.831 365.072C296.102 362.352 294.146 360.988 291.735 361.634C289.364 362.302 288.023 364.716 288.733 367.242L291.134 376.206L287.92 377.067L283.588 360.901L286.803 360.04L287.532 362.76C288.068 360.927 289.593 359.326 291.355 358.853C294.693 357.959 298.671 359.08 300.012 364.087L302.447 373.175L299.233 374.036L296.831 365.072ZM305.247 358.378C305.646 356.283 307.431 354.413 309.564 353.842L310.351 356.778C307.383 357.573 305.917 360.882 306.597 363.416L308.758 371.484L305.575 372.337L301.243 356.171L304.427 355.318L305.247 358.378ZM312.989 353.123L316.204 352.262L320.51 368.335L317.296 369.196L312.989 353.123ZM311.334 347.934C311.052 346.884 311.618 345.904 312.7 345.614C313.751 345.332 314.7 345.906 314.981 346.957C315.263 348.008 314.728 348.98 313.677 349.261C312.595 349.551 311.615 348.985 311.334 347.934ZM333.566 355.229C332.837 352.509 330.882 351.145 328.471 351.791C326.099 352.459 324.758 354.872 325.468 357.399L327.87 366.363L324.655 367.224L320.324 351.058L323.538 350.197L324.267 352.917C324.803 351.084 326.328 349.482 328.09 349.01C331.428 348.116 335.406 349.237 336.748 354.244L339.183 363.331L335.968 364.193L333.566 355.229Z" fill="white"/>
<path d="M232.738 412.114L232.497 422.846L231.172 423.201L226.639 416.183L226.344 424.495L225.019 424.85L219.188 415.745L220.662 415.35L225.079 422.37L225.273 414.114L226.774 413.712L231.138 420.746L231.264 412.509L232.738 412.114ZM239.771 416.549C239.407 415.675 238.639 414.866 237.395 415.2C236.313 415.49 235.706 416.522 235.84 417.617L239.771 416.549ZM234.629 418.506C234.067 416.41 235.065 414.563 237.053 414.031C239.271 413.436 240.412 415.044 240.502 415.164C241.193 416.066 241.327 417.161 241.359 417.283L236.126 418.685C236.582 419.737 237.674 420.242 238.661 419.977C240.027 419.611 240.225 418.674 240.257 418.578L241.517 418.791C241.517 418.791 241.288 420.534 238.962 421.157C236.975 421.69 235.187 420.589 234.629 418.506ZM247.169 418.987C246.628 419.132 245.549 419.16 244.635 418.347L244.95 419.524L243.544 419.9L240.874 409.934L242.28 409.557L243.381 413.668C243.755 412.467 244.711 411.978 245.266 411.83C247.24 411.301 249.032 412.415 249.593 414.511C250.155 416.607 249.157 418.454 247.169 418.987ZM244.012 416.021C244.371 417.36 245.621 418.185 246.784 417.873C248.014 417.543 248.575 416.335 248.191 414.902C247.806 413.468 246.721 412.716 245.49 413.045C244.327 413.357 243.657 414.696 244.012 416.021ZM258.225 414.633C260.362 414.061 261.403 412.159 260.805 409.927C260.207 407.696 258.354 406.569 256.218 407.142L254.378 407.634L256.386 415.126L258.225 414.633ZM255.309 416.734L252.642 406.781L255.901 405.907C258.809 405.128 261.415 406.633 262.198 409.554C262.98 412.475 261.476 415.081 258.568 415.86L255.309 416.734ZM268.732 408.789C268.368 407.915 267.6 407.106 266.356 407.44C265.274 407.73 264.667 408.762 264.801 409.857L268.732 408.789ZM263.59 410.746C263.028 408.65 264.026 406.803 266.014 406.27C268.231 405.676 269.372 407.284 269.463 407.404C270.154 408.306 270.288 409.401 270.32 409.523L265.087 410.925C265.543 411.977 266.634 412.481 267.622 412.217C268.987 411.851 269.186 410.914 269.218 410.818L270.478 411.031C270.478 411.031 270.249 412.774 267.923 413.397C265.935 413.93 264.148 412.829 263.59 410.746ZM276.88 403.373L275.773 411.25L274.516 411.587L269.659 405.308L271.187 404.899L274.673 409.632L275.339 403.786L276.88 403.373ZM283.338 404.875C282.973 404.002 282.206 403.193 280.962 403.526C279.88 403.816 279.272 404.848 279.406 405.943L283.338 404.875ZM278.195 406.833C277.634 404.737 278.632 402.89 280.62 402.357C282.837 401.763 283.978 403.37 284.069 403.491C284.76 404.393 284.893 405.487 284.926 405.609L279.693 407.011C280.148 408.063 281.24 408.568 282.227 408.303C283.593 407.937 283.791 407 283.824 406.905L285.084 407.118C285.084 407.118 284.855 408.86 282.529 409.483C280.541 410.016 278.753 408.915 278.195 406.833ZM284.318 398.293L285.725 397.916L288.392 407.869L286.985 408.246L284.318 398.293ZM292.664 405.521C293.854 405.202 294.418 404.008 294.038 402.588C293.654 401.154 292.571 400.415 291.381 400.734C290.191 401.053 289.637 402.231 290.021 403.664C290.402 405.084 291.474 405.84 292.664 405.521ZM288.615 404.041C288.053 401.945 289.061 400.08 291.062 399.544C293.077 399.004 294.882 400.115 295.444 402.211C296.002 404.294 294.994 406.158 292.979 406.698C290.978 407.234 289.173 406.123 288.615 404.041ZM300.989 403.32C302.206 402.994 302.766 401.785 302.382 400.352C302.002 398.932 300.916 398.179 299.699 398.506C298.549 398.814 297.879 400.153 298.23 401.464C298.589 402.803 299.839 403.628 300.989 403.32ZM298.564 408.39L295.858 398.288L297.264 397.911L297.59 399.129C297.892 398.091 298.873 397.48 299.468 397.321C301.443 396.792 303.227 397.879 303.788 399.975C304.354 402.085 303.356 403.932 301.381 404.461C300.773 404.624 299.62 404.542 298.844 403.807L299.971 408.013L298.564 408.39ZM310.014 397.727C309.65 396.854 308.882 396.045 307.638 396.378C306.556 396.668 305.949 397.701 306.083 398.795L310.014 397.727ZM304.872 399.685C304.31 397.589 305.308 395.742 307.296 395.209C309.513 394.615 310.654 396.222 310.745 396.343C311.436 397.245 311.57 398.34 311.602 398.461L306.369 399.864C306.825 400.915 307.916 401.42 308.904 401.155C310.269 400.79 310.468 399.852 310.5 399.757L311.76 399.97C311.76 399.97 311.531 401.712 309.205 402.336C307.217 402.868 305.43 401.767 304.872 399.685ZM313.559 394.98C313.733 394.064 314.514 393.246 315.447 392.996L315.792 394.28C314.493 394.628 313.852 396.076 314.149 397.185L315.095 400.714L313.702 401.087L311.807 394.015L313.2 393.641L313.559 394.98Z" fill="white"/>
<path d="M176.084 523.788L165.089 482.755L169.262 481.637L180.257 522.67L176.084 523.788ZM188.602 520.433L177.608 479.401L179.694 478.842L190.689 519.874L188.602 520.433ZM194.862 518.756L183.867 477.724L185.953 477.165L196.948 518.197L194.862 518.756ZM199.04 517.637L188.045 476.604L190.132 476.045L201.126 517.078L199.04 517.637ZM209.472 514.842L198.477 473.809L202.65 472.691L213.645 513.723L209.472 514.842ZM215.731 513.164L204.736 472.132L206.823 471.573L217.818 512.605L215.731 513.164ZM221.996 511.486L211.001 470.453L219.347 468.217L230.341 509.25L221.996 511.486ZM232.428 508.691L221.433 467.658L227.692 465.981L238.687 507.013L232.428 508.691ZM240.773 506.454L229.779 465.422L231.865 464.863L242.86 505.895L240.773 506.454ZM244.952 505.335L233.957 464.302L238.13 463.184L249.124 504.217L244.952 505.335ZM251.211 503.658L240.216 462.625L244.389 461.507L255.384 502.54L251.211 503.658ZM259.556 501.421L248.562 460.389L252.735 459.271L263.729 500.303L259.556 501.421ZM267.907 499.184L256.913 458.151L258.999 457.592L269.994 498.625L267.907 499.184ZM272.08 498.066L261.086 457.033L269.431 454.797L280.426 495.829L272.08 498.066ZM284.599 494.711L273.604 453.679L275.69 453.12L286.685 494.152L284.599 494.711ZM290.863 493.033L279.869 452L281.955 451.441L292.95 492.474L290.863 493.033ZM297.122 491.356L286.128 450.323L294.473 448.087L305.468 489.119L297.122 491.356ZM309.641 488.001L298.646 446.969L300.733 446.41L311.727 487.442L309.641 488.001ZM313.819 486.882L302.824 445.849L306.997 444.731L317.992 485.764L313.819 486.882ZM326.337 483.527L315.343 442.495L317.429 441.936L328.424 482.968L326.337 483.527ZM330.51 482.409L319.516 441.377L321.602 440.818L332.597 481.85L330.51 482.409ZM336.775 480.731L325.78 439.698L327.867 439.139L338.861 480.172L336.775 480.731ZM343.034 479.054L332.039 438.021L334.126 437.462L345.121 478.495L343.034 479.054ZM349.293 477.376L338.299 436.344L346.644 434.108L357.639 475.14L349.293 477.376ZM359.731 474.58L348.736 433.547L350.823 432.988L361.817 474.021L359.731 474.58ZM370.163 471.785L359.168 430.752L363.341 429.634L374.336 470.666L370.163 471.785ZM376.422 470.107L365.427 429.075L367.514 428.516L378.508 469.548L376.422 470.107ZM382.687 468.429L371.692 427.396L375.865 426.278L386.859 467.311L382.687 468.429ZM395.205 465.074L384.21 424.042L386.297 423.483L397.291 464.515L395.205 465.074ZM399.378 463.956L388.383 422.924L390.47 422.365L401.464 463.397L399.378 463.956Z" fill="white"/>
<path d="M244.11 561.349C246.602 557.203 250.361 552.593 249.597 549.742C249.081 547.818 247.516 546.796 245.777 547.262C244.456 547.616 243.343 548.933 243.113 550.485L240.748 550.1C241.11 547.742 242.961 545.656 245.187 545.06C248.316 544.221 251.145 545.873 252.008 549.096C252.958 552.643 249.921 556.885 247.518 560.436L254.797 558.486L255.363 560.595L244.907 563.397L244.11 561.349ZM263.236 556.374C265.554 555.752 266.429 552.71 265.398 548.862C264.36 544.991 262.088 542.817 259.77 543.438C257.428 544.065 256.548 547.084 257.585 550.956C258.616 554.804 260.895 557.001 263.236 556.374ZM255.174 551.602C253.826 546.571 255.489 542.299 259.198 541.305C262.908 540.311 266.461 543.186 267.808 548.216C269.156 553.247 267.51 557.489 263.801 558.483C260.092 559.477 256.522 556.632 255.174 551.602ZM271.933 553.894C274.425 549.748 278.184 545.138 277.42 542.286C276.905 540.362 275.339 539.341 273.6 539.807C272.279 540.161 271.166 541.478 270.936 543.03L268.571 542.645C268.933 540.287 270.785 538.201 273.01 537.604C276.14 536.766 278.968 538.418 279.831 541.64C280.782 545.187 277.744 549.43 275.341 552.981L282.62 551.03L283.186 553.14L272.731 555.941L271.933 553.894ZM291.894 541.464C293.637 541.941 295.006 543.339 295.384 544.753C296.155 547.628 294.354 550.272 291.015 551.166C287.677 552.061 284.76 550.631 283.965 547.664L286.376 547.018C286.835 548.733 288.52 549.549 290.444 549.034C292.414 548.506 293.465 546.957 293.012 545.264C292.565 543.595 290.886 542.803 288.962 543.318L287.757 543.641L287.216 541.624L288.422 541.301C290.207 540.823 291.196 539.415 290.792 537.908C290.389 536.401 288.88 535.687 287.142 536.153C285.426 536.613 284.507 538.002 284.91 539.509L282.499 540.155C281.754 537.373 283.441 534.859 286.57 534.021C289.677 533.188 292.382 534.476 293.103 537.165C293.451 538.463 293.026 540.217 291.894 541.464ZM299.757 546.141C300.592 545.917 301.327 546.341 301.55 547.176C301.78 548.033 301.356 548.768 300.521 548.992C299.687 549.216 298.929 548.797 298.699 547.94C298.475 547.105 298.923 546.364 299.757 546.141ZM310.981 543.58C313.3 542.959 314.174 539.917 313.143 536.069C312.106 532.197 309.833 530.023 307.515 530.645C305.174 531.272 304.293 534.291 305.331 538.162C306.362 542.01 308.64 544.208 310.981 543.58ZM302.92 538.808C301.572 533.778 303.235 529.506 306.944 528.512C310.653 527.518 314.206 530.392 315.554 535.423C316.902 540.453 315.256 544.696 311.547 545.69C307.837 546.684 304.267 543.839 302.92 538.808ZM321.755 526.779C319.715 527.326 318.692 529.165 319.239 531.205C319.798 533.292 321.597 534.35 323.637 533.804C325.608 533.276 326.613 531.466 326.054 529.379C325.508 527.339 323.726 526.251 321.755 526.779ZM316.828 531.851C315.946 528.56 317.736 525.595 321.167 524.676C324.574 523.763 327.583 525.441 328.465 528.733C328.795 529.962 328.669 531.163 328.418 532.175L325.976 541.699L323.218 542.438L324.989 535.603C324.729 535.747 324.44 535.874 324.116 535.961C320.719 536.822 317.71 535.143 316.828 531.851ZM334.621 536.799C335.456 536.575 336.191 536.999 336.414 537.834C336.644 538.692 336.22 539.427 335.385 539.65C334.551 539.874 333.793 539.456 333.563 538.598C333.339 537.763 333.787 537.022 334.621 536.799ZM345.845 534.239C348.163 533.617 349.038 530.575 348.007 526.727C346.969 522.856 344.697 520.682 342.379 521.303C340.038 521.93 339.157 524.949 340.194 528.82C341.226 532.669 343.504 534.866 345.845 534.239ZM337.783 529.466C336.436 524.436 338.099 520.164 341.808 519.17C345.517 518.176 349.07 521.051 350.418 526.081C351.766 531.112 350.12 535.354 346.411 536.348C342.701 537.342 339.131 534.497 337.783 529.466ZM355.812 525.555L353.344 525.893L351.49 516.75L360.485 514.339L361.05 516.449L354.374 518.238L355.22 522.509C355.892 521.956 356.693 521.517 357.482 521.306C360.959 520.374 364.037 522.034 364.926 525.349C365.826 528.711 363.996 531.711 360.519 532.642C357.807 533.369 354.981 532.188 353.665 529.783L355.858 528.599C356.651 530.076 358.317 530.822 359.917 530.394C361.98 529.841 363.061 528.035 362.515 525.995C361.987 524.025 360.154 523.025 358.09 523.578C357.233 523.808 356.309 524.627 355.812 525.555Z" fill="white"/>
</g>
<rect x="1.28236" y="92.3282" width="352" height="558" rx="31" transform="rotate(-15 1.28236 92.3282)" stroke="url(#paint11_angular_467_986)" stroke-width="2"/>
</g>
<defs>
<filter id="filter0_b_467_986" x="-11.9424" y="-12" width="510.876" height="656.539" filterUnits="userSpaceOnUse" color-interpolation-filters="sRGB">
<feFlood flood-opacity="0" result="BackgroundImageFix"/>
<feGaussianBlur in="BackgroundImageFix" stdDeviation="6"/>
<feComposite in2="SourceAlpha" operator="in" result="effect1_backgroundBlur_467_986"/>
<feBlend mode="normal" in="SourceGraphic" in2="effect1_backgroundBlur_467_986" result="shape"/>
</filter>
<filter id="filter1_f_467_986" x="73.7759" y="62.9766" width="226.395" height="97.1348" filterUnits="userSpaceOnUse" color-interpolation-filters="sRGB">
<feFlood flood-opacity="0" result="BackgroundImageFix"/>
<feBlend mode="normal" in="SourceGraphic" in2="BackgroundImageFix" result="shape"/>
<feGaussianBlur stdDeviation="1" result="effect1_foregroundBlur_467_986"/>
</filter>
<linearGradient id="paint0_linear_467_986" x1="23.626" y1="105.374" x2="346.126" y2="639.874" gradientUnits="userSpaceOnUse">
<stop stop-color="#8995FF"/>
<stop offset="0.5" stop-color="white" stop-opacity="0.01"/>
<stop offset="1" stop-color="#C882FF"/>
</linearGradient>
<linearGradient id="paint1_linear_467_986" x1="68.4013" y1="116.591" x2="302.859" y2="98.9686" gradientUnits="userSpaceOnUse">
<stop stop-color="#8C8AFF"/>
<stop offset="0.5625" stop-color="#A98AFF"/>
<stop offset="1" stop-color="#DB74FF"/>
</linearGradient>
<linearGradient id="paint2_linear_467_986" x1="68.4016" y1="116.591" x2="302.841" y2="98.9664" gradientUnits="userSpaceOnUse">
<stop stop-color="#8C8AFF"/>
<stop offset="0.5625" stop-color="#A98AFF"/>
<stop offset="1" stop-color="#DB74FF"/>
</linearGradient>
<linearGradient id="paint3_linear_467_986" x1="68.4016" y1="116.591" x2="302.841" y2="98.9664" gradientUnits="userSpaceOnUse">
<stop stop-color="#8C8AFF"/>
<stop offset="0.5625" stop-color="#A98AFF"/>
<stop offset="1" stop-color="#DB74FF"/>
</linearGradient>
<linearGradient id="paint4_linear_467_986" x1="68.4016" y1="116.591" x2="302.841" y2="98.9664" gradientUnits="userSpaceOnUse">
<stop stop-color="#8C8AFF"/>
<stop offset="0.5625" stop-color="#A98AFF"/>
<stop offset="1" stop-color="#DB74FF"/>
</linearGradient>
<linearGradient id="paint5_linear_467_986" x1="68.4016" y1="116.591" x2="302.841" y2="98.9664" gradientUnits="userSpaceOnUse">
<stop stop-color="#8C8AFF"/>
<stop offset="0.5625" stop-color="#A98AFF"/>
<stop offset="1" stop-color="#DB74FF"/>
</linearGradient>
<linearGradient id="paint6_linear_467_986" x1="68.4016" y1="116.591" x2="302.841" y2="98.9664" gradientUnits="userSpaceOnUse">
<stop stop-color="#8C8AFF"/>
<stop offset="0.5625" stop-color="#A98AFF"/>
<stop offset="1" stop-color="#DB74FF"/>
</linearGradient>
<linearGradient id="paint7_linear_467_986" x1="68.4016" y1="116.591" x2="302.841" y2="98.9664" gradientUnits="userSpaceOnUse">
<stop stop-color="#8C8AFF"/>
<stop offset="0.5625" stop-color="#A98AFF"/>
<stop offset="1" stop-color="#DB74FF"/>
</linearGradient>
<linearGradient id="paint8_linear_467_986" x1="68.4016" y1="116.591" x2="302.841" y2="98.9664" gradientUnits="userSpaceOnUse">
<stop stop-color="#8C8AFF"/>
<stop offset="0.5625" stop-color="#A98AFF"/>
<stop offset="1" stop-color="#DB74FF"/>
</linearGradient>
<linearGradient id="paint9_linear_467_986" x1="68.4016" y1="116.591" x2="302.841" y2="98.9664" gradientUnits="userSpaceOnUse">
<stop stop-color="#8C8AFF"/>
<stop offset="0.5625" stop-color="#A98AFF"/>
<stop offset="1" stop-color="#DB74FF"/>
</linearGradient>
<linearGradient id="paint10_linear_467_986" x1="68.4016" y1="116.591" x2="302.841" y2="98.9664" gradientUnits="userSpaceOnUse">
<stop stop-color="#8C8AFF"/>
<stop offset="0.5625" stop-color="#A98AFF"/>
<stop offset="1" stop-color="#DB74FF"/>
</linearGradient>
<radialGradient id="paint11_angular_467_986" cx="0" cy="0" r="1" gradientUnits="userSpaceOnUse" gradientTransform="translate(184.138 372.741) rotate(57.3749) scale(315.169 287.835)">
<stop offset="0.196322" stop-color="#5C68D6" stop-opacity="0"/>
<stop offset="0.50673" stop-color="#5C68D6"/>
<stop offset="0.688066" stop-color="#BC94FE" stop-opacity="0"/>
<stop offset="1" stop-color="#BC94FE"/>
</radialGradient>
<clipPath id="clip0_467_986">
<rect x="0.0576172" y="91.6211" width="354" height="560" rx="32" transform="rotate(-15 0.0576172 91.6211)" fill="white"/>
</clipPath>
<clipPath id="clip1_467_986">
<rect x="113.598" y="179.221" width="180" height="180" rx="24" transform="rotate(-15 113.598 179.221)" fill="white"/>
</clipPath>
<clipPath id="clip2_467_986">
<rect width="200" height="200.436" fill="white" transform="translate(128.598 273.838) rotate(-15)"/>
</clipPath>
</defs>
</svg>
