<svg width="245" height="64" viewBox="0 0 245 64" fill="none" xmlns="http://www.w3.org/2000/svg">
<g filter="url(#filter0_b_470_2717)">
<rect x="0.5" width="244" height="64" rx="32" fill="white" fill-opacity="0.2"/>
<path d="M61.54 19.572H63.668V37.464H61.54V19.572ZM44.18 27.3C44.18 23.744 46.924 21.28 50.536 21.28C54.176 21.28 56.892 23.744 56.892 27.3C56.892 30.8 54.176 33.292 50.536 33.292C46.924 33.292 44.18 30.8 44.18 27.3ZM46.224 27.3C46.224 29.708 48.1 31.444 50.536 31.444C53 31.444 54.876 29.708 54.876 27.3C54.876 24.836 53 23.1 50.536 23.1C48.1 23.1 46.224 24.836 46.224 27.3ZM48.016 43.484V35.644H50.088V41.748H64.424V43.484H48.016ZM68.0927 31.248H90.2127V32.956H68.0927V31.248ZM69.3527 28.028C73.6087 27.552 77.7527 25.396 77.8087 22.54H70.1367V20.804H88.2247V22.54H80.5247C80.5807 25.396 84.6967 27.552 88.9807 28.028L88.1967 29.708C84.2487 29.204 80.4967 27.412 79.1807 24.696C77.8367 27.44 74.0847 29.204 70.1367 29.708L69.3527 28.028ZM70.7807 39.592C70.7807 36.792 73.9167 35.168 79.1527 35.168C84.3607 35.168 87.5247 36.792 87.5247 39.592C87.5247 42.392 84.3607 44.016 79.1527 44.016C73.9167 44.016 70.7807 42.392 70.7807 39.592ZM72.8807 39.592C72.8807 41.328 75.2327 42.336 79.1527 42.336C83.0447 42.336 85.3967 41.328 85.3967 39.592C85.3967 37.856 83.0447 36.848 79.1527 36.848C75.2327 36.848 72.8807 37.856 72.8807 39.592ZM111.618 22.092C111.618 29.148 109.182 35.644 100.446 39.984L99.2984 38.36C103.862 36.092 106.606 33.236 108.09 29.932L99.7464 30.744L99.4104 28.868L108.762 28.224C109.182 26.824 109.434 25.368 109.518 23.828H100.642V22.092H111.618ZM115.706 44.044V19.516H117.834V29.54H121.782V31.304H117.834V44.044H115.706ZM126.347 21.812H142.839V23.548H128.419V31.332H143.119V33.04H126.347V21.812ZM123.491 40.656V38.92H145.695V40.656H123.491ZM171.329 19.544H173.429V25.452H177.069V27.244H173.429V33.88H171.329V19.544ZM155.509 32.312V20.888H157.581V24.724H164.721V20.888H166.793V32.312H155.509ZM157.581 30.576H164.721V26.404H157.581V30.576ZM158.197 43.708V35.252H173.625V36.96H160.297V41.972H174.101V43.708H158.197ZM196.838 19.544H198.938V44.044H196.838V19.544ZM179.198 37.744C185.806 34.58 189.138 29.792 189.586 23.912H180.29V22.176H191.714C191.714 29.232 188.466 35.448 180.318 39.424L179.198 37.744Z" fill="white"/>
<rect x="1.5" y="1" width="242" height="62" rx="31" stroke="url(#paint0_angular_470_2717)" stroke-width="2"/>
</g>
<defs>
<filter id="filter0_b_470_2717" x="-3.5" y="-4" width="252" height="72" filterUnits="userSpaceOnUse" color-interpolation-filters="sRGB">
<feFlood flood-opacity="0" result="BackgroundImageFix"/>
<feGaussianBlur in="BackgroundImageFix" stdDeviation="2"/>
<feComposite in2="SourceAlpha" operator="in" result="effect1_backgroundBlur_470_2717"/>
<feBlend mode="normal" in="SourceGraphic" in2="effect1_backgroundBlur_470_2717" result="shape"/>
</filter>
<radialGradient id="paint0_angular_470_2717" cx="0" cy="0" r="1" gradientUnits="userSpaceOnUse" gradientTransform="translate(119.668 34.72) rotate(-2.37689) scale(124.94 63.8682)">
<stop offset="0.12686" stop-color="#8C8AFF"/>
<stop offset="0.388199" stop-color="#A98AFF" stop-opacity="0"/>
<stop offset="0.619706" stop-color="#DB74FF"/>
<stop offset="0.920561" stop-color="#DB74FF" stop-opacity="0.0714286"/>
</radialGradient>
</defs>
</svg>
