<svg width="708" height="115" viewBox="0 0 708 115" fill="none" xmlns="http://www.w3.org/2000/svg">
<g filter="url(#filter0_f_1351_6531)">
<path d="M24.88 59.344V28.888H40.936V59.344C40.936 71.224 42.736 76.408 51.376 76.408C60.016 76.408 61.816 71.224 61.816 59.344V28.888H77.872V59.344C77.872 78.712 72.112 90.52 51.376 90.52C30.64 90.52 24.88 78.712 24.88 59.344ZM105.477 89.08H89.4213V28.888H107.637L127.365 65.896V28.888H143.421V89.08H125.205L105.477 53.44V89.08ZM189.291 74.968V89.08H154.947V74.968H164.091V43H154.947V28.888H189.291V43H180.147V74.968H189.291ZM241.825 89.08H218.065L199.345 28.888H216.121L229.945 73.672L243.769 28.888H260.545L241.825 89.08ZM314.664 52.288V65.68H286.656V74.968H317.472V89.08H270.6V28.888H317.472V43H286.656V52.288H314.664ZM345.08 89.08H329.024V28.888H354.584C373.664 28.888 382.304 35.296 382.304 49.984C382.304 59.128 378.92 65.104 371.792 68.272L383.744 89.08H364.592L354.224 71.08H345.08V89.08ZM345.08 56.968H354.584C361.928 56.968 366.248 56.104 366.248 49.984C366.248 43.864 361.928 43 354.584 43H345.08V56.968ZM418.273 66.04C398.905 66.04 391.633 58.912 391.633 46.888C391.633 34.864 398.905 27.448 417.553 27.448C436.201 27.448 443.473 34.864 443.473 46.888H427.273C427.273 42.496 424.897 41.2 417.553 41.2C409.561 41.2 407.833 43.144 407.833 46.528C407.833 50.416 410.209 51.928 418.273 51.928C437.641 51.928 444.913 59.056 444.913 71.08C444.913 83.104 437.641 90.52 418.273 90.52C398.905 90.52 391.633 83.104 391.633 71.08H407.833C407.833 75.472 410.209 76.768 418.273 76.768C426.985 76.768 428.713 74.824 428.713 71.44C428.713 67.552 426.337 66.04 418.273 66.04ZM499.077 52.288V65.68H471.069V74.968H501.885V89.08H455.013V28.888H501.885V43H471.069V52.288H499.077ZM577.536 89.8H560.976C562.488 82.024 563.496 75.112 564.144 68.2H540.096V53.8H565.08C565.224 49.696 565.296 45.376 565.296 40.84H539.376V26.44H581.856V39.4C581.856 48.4 581.64 56.536 581.064 64.6C580.416 72.664 579.336 80.8 577.536 89.8ZM602.016 47.68H607.776V63.52H602.016V89.8H585.456V24.28H602.016V47.68ZM635.856 53.8H681.216V68.2H619.296V25.72H681.216V40.12H635.856V53.8ZM617.136 75.4H683.376V89.8H617.136V75.4Z" fill="white" fill-opacity="0.1"/>
<path d="M24.88 28.888V26.888H22.88V28.888H24.88ZM40.936 28.888H42.936V26.888H40.936V28.888ZM61.816 28.888V26.888H59.816V28.888H61.816ZM77.872 28.888H79.872V26.888H77.872V28.888ZM26.88 59.344V28.888H22.88V59.344H26.88ZM24.88 30.888H40.936V26.888H24.88V30.888ZM38.936 28.888V59.344H42.936V28.888H38.936ZM38.936 59.344C38.936 65.248 39.3556 70.0085 41.1637 73.2951C42.1126 75.0199 43.4423 76.3457 45.2264 77.2116C46.9719 78.0588 49.0319 78.408 51.376 78.408V74.408C49.4001 74.408 47.9951 74.1092 46.9731 73.6131C45.9897 73.1358 45.2494 72.4231 44.6683 71.3669C43.4164 69.0915 42.936 65.32 42.936 59.344H38.936ZM51.376 78.408C53.7201 78.408 55.7801 78.0588 57.5256 77.2116C59.3097 76.3457 60.6394 75.0199 61.5883 73.2951C63.3964 70.0085 63.816 65.248 63.816 59.344H59.816C59.816 65.32 59.3356 69.0915 58.0837 71.3669C57.5026 72.4231 56.7623 73.1358 55.7789 73.6131C54.7569 74.1092 53.3519 74.408 51.376 74.408V78.408ZM63.816 59.344V28.888H59.816V59.344H63.816ZM61.816 30.888H77.872V26.888H61.816V30.888ZM75.872 28.888V59.344H79.872V28.888H75.872ZM75.872 59.344C75.872 68.918 74.4293 76.1587 70.8003 80.9946C67.2719 85.6965 61.3591 88.52 51.376 88.52V92.52C62.129 92.52 69.4641 89.4395 73.9997 83.3954C78.4347 77.4853 79.872 69.138 79.872 59.344H75.872ZM51.376 88.52C41.393 88.52 35.4801 85.6965 31.9517 80.9946C28.3227 76.1587 26.88 68.918 26.88 59.344H22.88C22.88 69.138 24.3173 77.4853 28.7523 83.3954C33.2879 89.4395 40.6231 92.52 51.376 92.52V88.52ZM105.477 89.08V91.08H107.477V89.08H105.477ZM89.4212 89.08H87.4212V91.08H89.4212V89.08ZM89.4212 28.888V26.888H87.4212V28.888H89.4212ZM107.637 28.888L109.402 27.9472L108.838 26.888H107.637V28.888ZM127.365 65.896L125.6 66.8368L129.365 65.896H127.365ZM127.365 28.888V26.888H125.365V28.888H127.365ZM143.421 28.888H145.421V26.888H143.421V28.888ZM143.421 89.08V91.08H145.421V89.08H143.421ZM125.205 89.08L123.455 90.0486L124.026 91.08H125.205V89.08ZM105.477 53.44L107.227 52.4714L103.477 45.6971V53.44H105.477ZM105.477 87.08H89.4212V91.08H105.477V87.08ZM91.4212 89.08V28.888H87.4212V89.08H91.4212ZM89.4212 30.888H107.637V26.888H89.4212V30.888ZM105.872 29.8288L125.6 66.8368L129.13 64.9552L109.402 27.9472L105.872 29.8288ZM129.365 65.896V28.888H125.365V65.896H129.365ZM127.365 30.888H143.421V26.888H127.365V30.888ZM141.421 28.888V89.08H145.421V28.888H141.421ZM143.421 87.08H125.205V91.08H143.421V87.08ZM126.955 88.1114L107.227 52.4714L103.727 54.4086L123.455 90.0486L126.955 88.1114ZM103.477 53.44V89.08H107.477V53.44H103.477ZM189.291 74.968H191.291V72.968H189.291V74.968ZM189.291 89.08V91.08H191.291V89.08H189.291ZM154.947 89.08H152.947V91.08H154.947V89.08ZM154.947 74.968V72.968H152.947V74.968H154.947ZM164.091 74.968V76.968H166.091V74.968H164.091ZM164.091 43H166.091V41H164.091V43ZM154.947 43H152.947V45H154.947V43ZM154.947 28.888V26.888H152.947V28.888H154.947ZM189.291 28.888H191.291V26.888H189.291V28.888ZM189.291 43V45H191.291V43H189.291ZM180.147 43V41H178.147V43H180.147ZM180.147 74.968H178.147V76.968H180.147V74.968ZM187.291 74.968V89.08H191.291V74.968H187.291ZM189.291 87.08H154.947V91.08H189.291V87.08ZM156.947 89.08V74.968H152.947V89.08H156.947ZM154.947 76.968H164.091V72.968H154.947V76.968ZM166.091 74.968V43H162.091V74.968H166.091ZM164.091 41H154.947V45H164.091V41ZM156.947 43V28.888H152.947V43H156.947ZM154.947 30.888H189.291V26.888H154.947V30.888ZM187.291 28.888V43H191.291V28.888H187.291ZM189.291 41H180.147V45H189.291V41ZM178.147 43V74.968H182.147V43H178.147ZM180.147 76.968H189.291V72.968H180.147V76.968ZM241.825 89.08V91.08H243.297L243.735 89.674L241.825 89.08ZM218.065 89.08L216.155 89.674L216.593 91.08H218.065V89.08ZM199.345 28.888V26.888H196.628L197.435 29.4819L199.345 28.888ZM216.121 28.888L218.032 28.2981L217.597 26.888H216.121V28.888ZM229.945 73.672L228.034 74.2619L229.945 80.4528L231.856 74.2619L229.945 73.672ZM243.769 28.888V26.888H242.293L241.858 28.2981L243.769 28.888ZM260.545 28.888L262.455 29.4819L263.262 26.888H260.545V28.888ZM241.825 87.08H218.065V91.08H241.825V87.08ZM219.975 88.4861L201.255 28.294L197.435 29.4819L216.155 89.674L219.975 88.4861ZM199.345 30.888H216.121V26.888H199.345V30.888ZM214.21 29.4779L228.034 74.2619L231.856 73.0821L218.032 28.2981L214.21 29.4779ZM231.856 74.2619L245.68 29.4779L241.858 28.2981L228.034 73.0821L231.856 74.2619ZM243.769 30.888H260.545V26.888H243.769V30.888ZM258.635 28.294L239.915 88.4861L243.735 89.674L262.455 29.4819L258.635 28.294ZM314.664 52.288H316.664V50.288H314.664V52.288ZM314.664 65.68V67.68H316.664V65.68H314.664ZM286.656 65.68V63.68H284.656V65.68H286.656ZM286.656 74.968H284.656V76.968H286.656V74.968ZM317.472 74.968H319.472V72.968H317.472V74.968ZM317.472 89.08V91.08H319.472V89.08H317.472ZM270.6 89.08H268.6V91.08H270.6V89.08ZM270.6 28.888V26.888H268.6V28.888H270.6ZM317.472 28.888H319.472V26.888H317.472V28.888ZM317.472 43V45H319.472V43H317.472ZM286.656 43V41H284.656V43H286.656ZM286.656 52.288H284.656V54.288H286.656V52.288ZM312.664 52.288V65.68H316.664V52.288H312.664ZM314.664 63.68H286.656V67.68H314.664V63.68ZM284.656 65.68V74.968H288.656V65.68H284.656ZM286.656 76.968H317.472V72.968H286.656V76.968ZM315.472 74.968V89.08H319.472V74.968H315.472ZM317.472 87.08H270.6V91.08H317.472V87.08ZM272.6 89.08V28.888H268.6V89.08H272.6ZM270.6 30.888H317.472V26.888H270.6V30.888ZM315.472 28.888V43H319.472V28.888H315.472ZM317.472 41H286.656V45H317.472V41ZM284.656 43V52.288H288.656V43H284.656ZM286.656 54.288H314.664V50.288H286.656V54.288ZM345.08 89.08V91.08H347.08V89.08H345.08ZM329.024 89.08H327.024V91.08H329.024V89.08ZM329.024 28.888V26.888H327.024V28.888H329.024ZM371.792 68.272L370.979 66.4444L368.953 67.3451L370.057 69.2682L371.792 68.272ZM383.744 89.08V91.08H387.199L385.478 88.0838L383.744 89.08ZM364.592 89.08L362.859 90.0782L363.436 91.08H364.592V89.08ZM354.224 71.08L355.957 70.0818L355.38 69.08H354.224V71.08ZM345.08 71.08V69.08H343.08V71.08H345.08ZM345.08 56.968H343.08V58.968H345.08V56.968ZM345.08 43V41H343.08V43H345.08ZM345.08 87.08H329.024V91.08H345.08V87.08ZM331.024 89.08V28.888H327.024V89.08H331.024ZM329.024 30.888H354.584V26.888H329.024V30.888ZM354.584 30.888C363.977 30.888 370.37 32.4804 374.392 35.5231C378.288 38.4697 380.304 43.0514 380.304 49.984H384.304C384.304 42.2286 382 36.2622 376.805 32.3329C371.738 28.4996 364.271 26.888 354.584 26.888V30.888ZM380.304 49.984C380.304 54.3186 379.501 57.7285 377.985 60.3751C376.484 62.9959 374.203 65.0117 370.979 66.4444L372.604 70.0996C376.509 68.3643 379.483 65.8081 381.456 62.3629C383.415 58.9435 384.304 54.7934 384.304 49.984H380.304ZM370.057 69.2682L382.009 90.0762L385.478 88.0838L373.526 67.2758L370.057 69.2682ZM383.744 87.08H364.592V91.08H383.744V87.08ZM366.325 88.0818L355.957 70.0818L352.491 72.0782L362.859 90.0782L366.325 88.0818ZM354.224 69.08H345.08V73.08H354.224V69.08ZM343.08 71.08V89.08H347.08V71.08H343.08ZM345.08 58.968H354.584V54.968H345.08V58.968ZM354.584 58.968C358.206 58.968 361.578 58.7804 364.051 57.5663C365.364 56.9216 366.464 55.9732 367.209 54.6236C367.939 53.301 368.248 51.7394 368.248 49.984H364.248C364.248 51.2886 364.016 52.13 363.707 52.6906C363.412 53.2242 362.973 53.6394 362.288 53.9757C360.765 54.7236 358.306 54.968 354.584 54.968V58.968ZM368.248 49.984C368.248 48.2286 367.939 46.667 367.209 45.3444C366.464 43.9947 365.364 43.0464 364.051 42.4017C361.578 41.1876 358.206 41 354.584 41V45C358.306 45 360.765 45.2444 362.288 45.9923C362.973 46.3286 363.412 46.7437 363.707 47.2774C364.016 47.838 364.248 48.6794 364.248 49.984H368.248ZM354.584 41H345.08V45H354.584V41ZM343.08 43V56.968H347.08V43H343.08ZM443.473 46.888V48.888H445.473V46.888H443.473ZM427.273 46.888H425.273V48.888H427.273V46.888ZM391.633 71.08V69.08H389.633V71.08H391.633ZM407.833 71.08H409.833V69.08H407.833V71.08ZM418.273 64.04C408.769 64.04 402.64 62.2792 398.915 59.3921C395.298 56.5891 393.633 52.4721 393.633 46.888H389.633C389.633 53.3279 391.604 58.7869 396.465 62.5539C401.217 66.2368 408.408 68.04 418.273 68.04V64.04ZM393.633 46.888C393.633 41.2979 395.303 37.0898 398.858 34.2138C402.497 31.2695 408.439 29.448 417.553 29.448V25.448C408.019 25.448 401.001 27.3345 396.342 31.1042C391.598 34.9421 389.633 40.4541 389.633 46.888H393.633ZM417.553 29.448C426.667 29.448 432.609 31.2695 436.248 34.2138C439.802 37.0898 441.473 41.2979 441.473 46.888H445.473C445.473 40.4541 443.507 34.9422 438.764 31.1042C434.105 27.3345 427.087 25.448 417.553 25.448V29.448ZM443.473 44.888H427.273V48.888H443.473V44.888ZM429.273 46.888C429.273 45.6286 429.106 44.4095 428.606 43.3156C428.087 42.1777 427.263 41.2979 426.167 40.665C424.14 39.4948 421.205 39.2 417.553 39.2V43.2C421.245 43.2 423.169 43.5532 424.167 44.129C424.583 44.3691 424.812 44.6368 424.967 44.9771C425.143 45.3615 425.273 45.9514 425.273 46.888H429.273ZM417.553 39.2C413.51 39.2 410.572 39.669 408.623 40.9068C407.585 41.5665 406.847 42.4305 406.394 43.4687C405.958 44.4699 405.833 45.5274 405.833 46.528H409.833C409.833 45.8366 409.924 45.3821 410.061 45.067C410.182 44.789 410.376 44.5325 410.768 44.2832C411.682 43.7029 413.604 43.2 417.553 43.2V39.2ZM405.833 46.528C405.833 47.69 406.008 48.8542 406.546 49.9157C407.1 51.0104 407.963 51.8443 409.079 52.4463C411.166 53.5715 414.235 53.928 418.273 53.928V49.928C414.247 49.928 412.096 49.5285 410.978 48.9257C410.492 48.6637 410.257 48.3906 410.114 48.1083C409.954 47.7928 409.833 47.31 409.833 46.528H405.833ZM418.273 53.928C427.776 53.928 433.905 55.6888 437.631 58.5759C441.248 61.3789 442.913 65.4959 442.913 71.08H446.913C446.913 64.6401 444.942 59.1811 440.081 55.4141C435.328 51.7312 428.137 49.928 418.273 49.928V53.928ZM442.913 71.08C442.913 76.667 441.245 80.8656 437.614 83.7411C433.887 86.6927 427.762 88.52 418.273 88.52V92.52C428.152 92.52 435.347 90.6393 440.097 86.8769C444.945 83.0384 446.913 77.517 446.913 71.08H442.913ZM418.273 88.52C408.784 88.52 402.659 86.6927 398.931 83.7411C395.301 80.8656 393.633 76.667 393.633 71.08H389.633C389.633 77.517 391.601 83.0384 396.448 86.8769C401.199 90.6393 408.394 92.52 418.273 92.52V88.52ZM391.633 73.08H407.833V69.08H391.633V73.08ZM405.833 71.08C405.833 72.3373 405.999 73.5688 406.521 74.6751C407.066 75.829 407.93 76.7049 409.072 77.3272C411.176 78.4737 414.275 78.768 418.273 78.768V74.768C414.207 74.768 412.086 74.4143 410.986 73.8148C410.526 73.5641 410.292 73.2924 410.139 72.9682C409.963 72.5962 409.833 72.0187 409.833 71.08H405.833ZM418.273 78.768C422.659 78.768 425.758 78.3014 427.786 77.0898C428.871 76.4412 429.65 75.5807 430.128 74.5254C430.588 73.5101 430.713 72.439 430.713 71.44H426.713C426.713 72.133 426.621 72.5739 426.485 72.8749C426.367 73.1358 426.17 73.3958 425.734 73.6562C424.719 74.2626 422.599 74.768 418.273 74.768V78.768ZM430.713 71.44C430.713 70.278 430.537 69.1138 430 68.0523C429.445 66.9576 428.582 66.1237 427.466 65.5217C425.38 64.3965 422.311 64.04 418.273 64.04V68.04C422.299 68.04 424.45 68.4395 425.567 69.0423C426.053 69.3043 426.288 69.5774 426.431 69.8597C426.591 70.1752 426.713 70.658 426.713 71.44H430.713ZM499.077 52.288H501.077V50.288H499.077V52.288ZM499.077 65.68V67.68H501.077V65.68H499.077ZM471.069 65.68V63.68H469.069V65.68H471.069ZM471.069 74.968H469.069V76.968H471.069V74.968ZM501.885 74.968H503.885V72.968H501.885V74.968ZM501.885 89.08V91.08H503.885V89.08H501.885ZM455.013 89.08H453.013V91.08H455.013V89.08ZM455.013 28.888V26.888H453.013V28.888H455.013ZM501.885 28.888H503.885V26.888H501.885V28.888ZM501.885 43V45H503.885V43H501.885ZM471.069 43V41H469.069V43H471.069ZM471.069 52.288H469.069V54.288H471.069V52.288ZM497.077 52.288V65.68H501.077V52.288H497.077ZM499.077 63.68H471.069V67.68H499.077V63.68ZM469.069 65.68V74.968H473.069V65.68H469.069ZM471.069 76.968H501.885V72.968H471.069V76.968ZM499.885 74.968V89.08H503.885V74.968H499.885ZM501.885 87.08H455.013V91.08H501.885V87.08ZM457.013 89.08V28.888H453.013V89.08H457.013ZM455.013 30.888H501.885V26.888H455.013V30.888ZM499.885 28.888V43H503.885V28.888H499.885ZM501.885 41H471.069V45H501.885V41ZM469.069 43V52.288H473.069V43H469.069ZM471.069 54.288H499.077V50.288H471.069V54.288ZM577.536 89.8V91.8H579.176L579.497 90.1922L577.536 89.8ZM560.976 89.8L559.013 89.4183L558.55 91.8H560.976V89.8ZM564.144 68.2L566.136 68.3867L566.341 66.2H564.144V68.2ZM540.096 68.2H538.096V70.2H540.096V68.2ZM540.096 53.8V51.8H538.096V53.8H540.096ZM565.08 53.8V55.8H567.011L567.079 53.8701L565.08 53.8ZM565.296 40.84H567.296V38.84H565.296V40.84ZM539.376 40.84H537.376V42.84H539.376V40.84ZM539.376 26.44V24.44H537.376V26.44H539.376ZM581.856 26.44H583.856V24.44H581.856V26.44ZM581.064 64.6L583.058 64.7602L583.059 64.7514L583.059 64.7425L581.064 64.6ZM602.016 47.68H600.016V49.68H602.016V47.68ZM607.776 47.68H609.776V45.68H607.776V47.68ZM607.776 63.52V65.52H609.776V63.52H607.776ZM602.016 63.52V61.52H600.016V63.52H602.016ZM602.016 89.8V91.8H604.016V89.8H602.016ZM585.456 89.8H583.456V91.8H585.456V89.8ZM585.456 24.28V22.28H583.456V24.28H585.456ZM602.016 24.28H604.016V22.28H602.016V24.28ZM577.536 87.8H560.976V91.8H577.536V87.8ZM562.94 90.1817C564.463 82.3484 565.481 75.371 566.136 68.3867L562.153 68.0133C561.512 74.853 560.514 81.6996 559.013 89.4183L562.94 90.1817ZM564.144 66.2H540.096V70.2H564.144V66.2ZM542.096 68.2V53.8H538.096V68.2H542.096ZM540.096 55.8H565.08V51.8H540.096V55.8ZM567.079 53.8701C567.224 49.7405 567.296 45.397 567.296 40.84H563.296C563.296 45.355 563.225 49.6515 563.081 53.7299L567.079 53.8701ZM565.296 38.84H539.376V42.84H565.296V38.84ZM541.376 40.84V26.44H537.376V40.84H541.376ZM539.376 28.44H581.856V24.44H539.376V28.44ZM579.856 26.44V39.4H583.856V26.44H579.856ZM579.856 39.4C579.856 48.368 579.641 56.4543 579.069 64.4575L583.059 64.7425C583.64 56.6177 583.856 48.432 583.856 39.4H579.856ZM579.071 64.4398C578.429 72.4297 577.359 80.4881 575.575 89.4078L579.497 90.1922C581.314 81.1119 582.404 72.8983 583.058 64.7602L579.071 64.4398ZM602.016 49.68H607.776V45.68H602.016V49.68ZM605.776 47.68V63.52H609.776V47.68H605.776ZM607.776 61.52H602.016V65.52H607.776V61.52ZM600.016 63.52V89.8H604.016V63.52H600.016ZM602.016 87.8H585.456V91.8H602.016V87.8ZM587.456 89.8V24.28H583.456V89.8H587.456ZM585.456 26.28H602.016V22.28H585.456V26.28ZM600.016 24.28V47.68H604.016V24.28H600.016ZM635.856 53.8H633.856V55.8H635.856V53.8ZM681.216 53.8H683.216V51.8H681.216V53.8ZM681.216 68.2V70.2H683.216V68.2H681.216ZM619.296 68.2H617.296V70.2H619.296V68.2ZM619.296 25.72V23.72H617.296V25.72H619.296ZM681.216 25.72H683.216V23.72H681.216V25.72ZM681.216 40.12V42.12H683.216V40.12H681.216ZM635.856 40.12V38.12H633.856V40.12H635.856ZM617.136 75.4V73.4H615.136V75.4H617.136ZM683.376 75.4H685.376V73.4H683.376V75.4ZM683.376 89.8V91.8H685.376V89.8H683.376ZM617.136 89.8H615.136V91.8H617.136V89.8ZM635.856 55.8H681.216V51.8H635.856V55.8ZM679.216 53.8V68.2H683.216V53.8H679.216ZM681.216 66.2H619.296V70.2H681.216V66.2ZM621.296 68.2V25.72H617.296V68.2H621.296ZM619.296 27.72H681.216V23.72H619.296V27.72ZM679.216 25.72V40.12H683.216V25.72H679.216ZM681.216 38.12H635.856V42.12H681.216V38.12ZM633.856 40.12V53.8H637.856V40.12H633.856ZM617.136 77.4H683.376V73.4H617.136V77.4ZM681.376 75.4V89.8H685.376V75.4H681.376ZM683.376 87.8H617.136V91.8H683.376V87.8ZM619.136 89.8V75.4H615.136V89.8H619.136Z" fill="url(#paint0_linear_1351_6531)"/>
</g>
<path d="M24.88 59.344V28.888H40.936V59.344C40.936 71.224 42.736 76.408 51.376 76.408C60.016 76.408 61.816 71.224 61.816 59.344V28.888H77.872V59.344C77.872 78.712 72.112 90.52 51.376 90.52C30.64 90.52 24.88 78.712 24.88 59.344ZM105.477 89.08H89.4213V28.888H107.637L127.365 65.896V28.888H143.421V89.08H125.205L105.477 53.44V89.08ZM189.291 74.968V89.08H154.947V74.968H164.091V43H154.947V28.888H189.291V43H180.147V74.968H189.291ZM241.825 89.08H218.065L199.345 28.888H216.121L229.945 73.672L243.769 28.888H260.545L241.825 89.08ZM314.664 52.288V65.68H286.656V74.968H317.472V89.08H270.6V28.888H317.472V43H286.656V52.288H314.664ZM345.08 89.08H329.024V28.888H354.584C373.664 28.888 382.304 35.296 382.304 49.984C382.304 59.128 378.92 65.104 371.792 68.272L383.744 89.08H364.592L354.224 71.08H345.08V89.08ZM345.08 56.968H354.584C361.928 56.968 366.248 56.104 366.248 49.984C366.248 43.864 361.928 43 354.584 43H345.08V56.968ZM418.273 66.04C398.905 66.04 391.633 58.912 391.633 46.888C391.633 34.864 398.905 27.448 417.553 27.448C436.201 27.448 443.473 34.864 443.473 46.888H427.273C427.273 42.496 424.897 41.2 417.553 41.2C409.561 41.2 407.833 43.144 407.833 46.528C407.833 50.416 410.209 51.928 418.273 51.928C437.641 51.928 444.913 59.056 444.913 71.08C444.913 83.104 437.641 90.52 418.273 90.52C398.905 90.52 391.633 83.104 391.633 71.08H407.833C407.833 75.472 410.209 76.768 418.273 76.768C426.985 76.768 428.713 74.824 428.713 71.44C428.713 67.552 426.337 66.04 418.273 66.04ZM499.077 52.288V65.68H471.069V74.968H501.885V89.08H455.013V28.888H501.885V43H471.069V52.288H499.077ZM577.536 89.8H560.976C562.488 82.024 563.496 75.112 564.144 68.2H540.096V53.8H565.08C565.224 49.696 565.296 45.376 565.296 40.84H539.376V26.44H581.856V39.4C581.856 48.4 581.64 56.536 581.064 64.6C580.416 72.664 579.336 80.8 577.536 89.8ZM602.016 47.68H607.776V63.52H602.016V89.8H585.456V24.28H602.016V47.68ZM635.856 53.8H681.216V68.2H619.296V25.72H681.216V40.12H635.856V53.8ZM617.136 75.4H683.376V89.8H617.136V75.4Z" fill="white" fill-opacity="0.15"/>
<path d="M24.88 28.888V26.888H22.88V28.888H24.88ZM40.936 28.888H42.936V26.888H40.936V28.888ZM61.816 28.888V26.888H59.816V28.888H61.816ZM77.872 28.888H79.872V26.888H77.872V28.888ZM26.88 59.344V28.888H22.88V59.344H26.88ZM24.88 30.888H40.936V26.888H24.88V30.888ZM38.936 28.888V59.344H42.936V28.888H38.936ZM38.936 59.344C38.936 65.248 39.3556 70.0085 41.1637 73.2951C42.1126 75.0199 43.4423 76.3457 45.2264 77.2116C46.9719 78.0588 49.0319 78.408 51.376 78.408V74.408C49.4001 74.408 47.9951 74.1092 46.9731 73.6131C45.9897 73.1358 45.2494 72.4231 44.6683 71.3669C43.4164 69.0915 42.936 65.32 42.936 59.344H38.936ZM51.376 78.408C53.7201 78.408 55.7801 78.0588 57.5256 77.2116C59.3097 76.3457 60.6394 75.0199 61.5883 73.2951C63.3964 70.0085 63.816 65.248 63.816 59.344H59.816C59.816 65.32 59.3356 69.0915 58.0837 71.3669C57.5026 72.4231 56.7623 73.1358 55.7789 73.6131C54.7569 74.1092 53.3519 74.408 51.376 74.408V78.408ZM63.816 59.344V28.888H59.816V59.344H63.816ZM61.816 30.888H77.872V26.888H61.816V30.888ZM75.872 28.888V59.344H79.872V28.888H75.872ZM75.872 59.344C75.872 68.918 74.4293 76.1587 70.8003 80.9946C67.2719 85.6965 61.3591 88.52 51.376 88.52V92.52C62.129 92.52 69.4641 89.4395 73.9997 83.3954C78.4347 77.4853 79.872 69.138 79.872 59.344H75.872ZM51.376 88.52C41.393 88.52 35.4801 85.6965 31.9517 80.9946C28.3227 76.1587 26.88 68.918 26.88 59.344H22.88C22.88 69.138 24.3173 77.4853 28.7523 83.3954C33.2879 89.4395 40.6231 92.52 51.376 92.52V88.52ZM105.477 89.08V91.08H107.477V89.08H105.477ZM89.4212 89.08H87.4212V91.08H89.4212V89.08ZM89.4212 28.888V26.888H87.4212V28.888H89.4212ZM107.637 28.888L109.402 27.9472L108.838 26.888H107.637V28.888ZM127.365 65.896L125.6 66.8368L129.365 65.896H127.365ZM127.365 28.888V26.888H125.365V28.888H127.365ZM143.421 28.888H145.421V26.888H143.421V28.888ZM143.421 89.08V91.08H145.421V89.08H143.421ZM125.205 89.08L123.455 90.0486L124.026 91.08H125.205V89.08ZM105.477 53.44L107.227 52.4714L103.477 45.6971V53.44H105.477ZM105.477 87.08H89.4212V91.08H105.477V87.08ZM91.4212 89.08V28.888H87.4212V89.08H91.4212ZM89.4212 30.888H107.637V26.888H89.4212V30.888ZM105.872 29.8288L125.6 66.8368L129.13 64.9552L109.402 27.9472L105.872 29.8288ZM129.365 65.896V28.888H125.365V65.896H129.365ZM127.365 30.888H143.421V26.888H127.365V30.888ZM141.421 28.888V89.08H145.421V28.888H141.421ZM143.421 87.08H125.205V91.08H143.421V87.08ZM126.955 88.1114L107.227 52.4714L103.727 54.4086L123.455 90.0486L126.955 88.1114ZM103.477 53.44V89.08H107.477V53.44H103.477ZM189.291 74.968H191.291V72.968H189.291V74.968ZM189.291 89.08V91.08H191.291V89.08H189.291ZM154.947 89.08H152.947V91.08H154.947V89.08ZM154.947 74.968V72.968H152.947V74.968H154.947ZM164.091 74.968V76.968H166.091V74.968H164.091ZM164.091 43H166.091V41H164.091V43ZM154.947 43H152.947V45H154.947V43ZM154.947 28.888V26.888H152.947V28.888H154.947ZM189.291 28.888H191.291V26.888H189.291V28.888ZM189.291 43V45H191.291V43H189.291ZM180.147 43V41H178.147V43H180.147ZM180.147 74.968H178.147V76.968H180.147V74.968ZM187.291 74.968V89.08H191.291V74.968H187.291ZM189.291 87.08H154.947V91.08H189.291V87.08ZM156.947 89.08V74.968H152.947V89.08H156.947ZM154.947 76.968H164.091V72.968H154.947V76.968ZM166.091 74.968V43H162.091V74.968H166.091ZM164.091 41H154.947V45H164.091V41ZM156.947 43V28.888H152.947V43H156.947ZM154.947 30.888H189.291V26.888H154.947V30.888ZM187.291 28.888V43H191.291V28.888H187.291ZM189.291 41H180.147V45H189.291V41ZM178.147 43V74.968H182.147V43H178.147ZM180.147 76.968H189.291V72.968H180.147V76.968ZM241.825 89.08V91.08H243.297L243.735 89.674L241.825 89.08ZM218.065 89.08L216.155 89.674L216.593 91.08H218.065V89.08ZM199.345 28.888V26.888H196.628L197.435 29.4819L199.345 28.888ZM216.121 28.888L218.032 28.2981L217.597 26.888H216.121V28.888ZM229.945 73.672L228.034 74.2619L229.945 80.4528L231.856 74.2619L229.945 73.672ZM243.769 28.888V26.888H242.293L241.858 28.2981L243.769 28.888ZM260.545 28.888L262.455 29.4819L263.262 26.888H260.545V28.888ZM241.825 87.08H218.065V91.08H241.825V87.08ZM219.975 88.4861L201.255 28.294L197.435 29.4819L216.155 89.674L219.975 88.4861ZM199.345 30.888H216.121V26.888H199.345V30.888ZM214.21 29.4779L228.034 74.2619L231.856 73.0821L218.032 28.2981L214.21 29.4779ZM231.856 74.2619L245.68 29.4779L241.858 28.2981L228.034 73.0821L231.856 74.2619ZM243.769 30.888H260.545V26.888H243.769V30.888ZM258.635 28.294L239.915 88.4861L243.735 89.674L262.455 29.4819L258.635 28.294ZM314.664 52.288H316.664V50.288H314.664V52.288ZM314.664 65.68V67.68H316.664V65.68H314.664ZM286.656 65.68V63.68H284.656V65.68H286.656ZM286.656 74.968H284.656V76.968H286.656V74.968ZM317.472 74.968H319.472V72.968H317.472V74.968ZM317.472 89.08V91.08H319.472V89.08H317.472ZM270.6 89.08H268.6V91.08H270.6V89.08ZM270.6 28.888V26.888H268.6V28.888H270.6ZM317.472 28.888H319.472V26.888H317.472V28.888ZM317.472 43V45H319.472V43H317.472ZM286.656 43V41H284.656V43H286.656ZM286.656 52.288H284.656V54.288H286.656V52.288ZM312.664 52.288V65.68H316.664V52.288H312.664ZM314.664 63.68H286.656V67.68H314.664V63.68ZM284.656 65.68V74.968H288.656V65.68H284.656ZM286.656 76.968H317.472V72.968H286.656V76.968ZM315.472 74.968V89.08H319.472V74.968H315.472ZM317.472 87.08H270.6V91.08H317.472V87.08ZM272.6 89.08V28.888H268.6V89.08H272.6ZM270.6 30.888H317.472V26.888H270.6V30.888ZM315.472 28.888V43H319.472V28.888H315.472ZM317.472 41H286.656V45H317.472V41ZM284.656 43V52.288H288.656V43H284.656ZM286.656 54.288H314.664V50.288H286.656V54.288ZM345.08 89.08V91.08H347.08V89.08H345.08ZM329.024 89.08H327.024V91.08H329.024V89.08ZM329.024 28.888V26.888H327.024V28.888H329.024ZM371.792 68.272L370.979 66.4444L368.953 67.3451L370.057 69.2682L371.792 68.272ZM383.744 89.08V91.08H387.199L385.478 88.0838L383.744 89.08ZM364.592 89.08L362.859 90.0782L363.436 91.08H364.592V89.08ZM354.224 71.08L355.957 70.0818L355.38 69.08H354.224V71.08ZM345.08 71.08V69.08H343.08V71.08H345.08ZM345.08 56.968H343.08V58.968H345.08V56.968ZM345.08 43V41H343.08V43H345.08ZM345.08 87.08H329.024V91.08H345.08V87.08ZM331.024 89.08V28.888H327.024V89.08H331.024ZM329.024 30.888H354.584V26.888H329.024V30.888ZM354.584 30.888C363.977 30.888 370.37 32.4804 374.392 35.5231C378.288 38.4697 380.304 43.0514 380.304 49.984H384.304C384.304 42.2286 382 36.2622 376.805 32.3329C371.738 28.4996 364.271 26.888 354.584 26.888V30.888ZM380.304 49.984C380.304 54.3186 379.501 57.7285 377.985 60.3751C376.484 62.9959 374.203 65.0117 370.979 66.4444L372.604 70.0996C376.509 68.3643 379.483 65.8081 381.456 62.3629C383.415 58.9435 384.304 54.7934 384.304 49.984H380.304ZM370.057 69.2682L382.009 90.0762L385.478 88.0838L373.526 67.2758L370.057 69.2682ZM383.744 87.08H364.592V91.08H383.744V87.08ZM366.325 88.0818L355.957 70.0818L352.491 72.0782L362.859 90.0782L366.325 88.0818ZM354.224 69.08H345.08V73.08H354.224V69.08ZM343.08 71.08V89.08H347.08V71.08H343.08ZM345.08 58.968H354.584V54.968H345.08V58.968ZM354.584 58.968C358.206 58.968 361.578 58.7804 364.051 57.5663C365.364 56.9216 366.464 55.9732 367.209 54.6236C367.939 53.301 368.248 51.7394 368.248 49.984H364.248C364.248 51.2886 364.016 52.13 363.707 52.6906C363.412 53.2242 362.973 53.6394 362.288 53.9757C360.765 54.7236 358.306 54.968 354.584 54.968V58.968ZM368.248 49.984C368.248 48.2286 367.939 46.667 367.209 45.3444C366.464 43.9947 365.364 43.0464 364.051 42.4017C361.578 41.1876 358.206 41 354.584 41V45C358.306 45 360.765 45.2444 362.288 45.9923C362.973 46.3286 363.412 46.7437 363.707 47.2774C364.016 47.838 364.248 48.6794 364.248 49.984H368.248ZM354.584 41H345.08V45H354.584V41ZM343.08 43V56.968H347.08V43H343.08ZM443.473 46.888V48.888H445.473V46.888H443.473ZM427.273 46.888H425.273V48.888H427.273V46.888ZM391.633 71.08V69.08H389.633V71.08H391.633ZM407.833 71.08H409.833V69.08H407.833V71.08ZM418.273 64.04C408.769 64.04 402.64 62.2792 398.915 59.3921C395.298 56.5891 393.633 52.4721 393.633 46.888H389.633C389.633 53.3279 391.604 58.7869 396.465 62.5539C401.217 66.2368 408.408 68.04 418.273 68.04V64.04ZM393.633 46.888C393.633 41.2979 395.303 37.0898 398.858 34.2138C402.497 31.2695 408.439 29.448 417.553 29.448V25.448C408.019 25.448 401.001 27.3345 396.342 31.1042C391.598 34.9421 389.633 40.4541 389.633 46.888H393.633ZM417.553 29.448C426.667 29.448 432.609 31.2695 436.248 34.2138C439.802 37.0898 441.473 41.2979 441.473 46.888H445.473C445.473 40.4541 443.507 34.9422 438.764 31.1042C434.105 27.3345 427.087 25.448 417.553 25.448V29.448ZM443.473 44.888H427.273V48.888H443.473V44.888ZM429.273 46.888C429.273 45.6286 429.106 44.4095 428.606 43.3156C428.087 42.1777 427.263 41.2979 426.167 40.665C424.14 39.4948 421.205 39.2 417.553 39.2V43.2C421.245 43.2 423.169 43.5532 424.167 44.129C424.583 44.3691 424.812 44.6368 424.967 44.9771C425.143 45.3615 425.273 45.9514 425.273 46.888H429.273ZM417.553 39.2C413.51 39.2 410.572 39.669 408.623 40.9068C407.585 41.5665 406.847 42.4305 406.394 43.4687C405.958 44.4699 405.833 45.5274 405.833 46.528H409.833C409.833 45.8366 409.924 45.3821 410.061 45.067C410.182 44.789 410.376 44.5325 410.768 44.2832C411.682 43.7029 413.604 43.2 417.553 43.2V39.2ZM405.833 46.528C405.833 47.69 406.008 48.8542 406.546 49.9157C407.1 51.0104 407.963 51.8443 409.079 52.4463C411.166 53.5715 414.235 53.928 418.273 53.928V49.928C414.247 49.928 412.096 49.5285 410.978 48.9257C410.492 48.6637 410.257 48.3906 410.114 48.1083C409.954 47.7928 409.833 47.31 409.833 46.528H405.833ZM418.273 53.928C427.776 53.928 433.905 55.6888 437.631 58.5759C441.248 61.3789 442.913 65.4959 442.913 71.08H446.913C446.913 64.6401 444.942 59.1811 440.081 55.4141C435.328 51.7312 428.137 49.928 418.273 49.928V53.928ZM442.913 71.08C442.913 76.667 441.245 80.8656 437.614 83.7411C433.887 86.6927 427.762 88.52 418.273 88.52V92.52C428.152 92.52 435.347 90.6393 440.097 86.8769C444.945 83.0384 446.913 77.517 446.913 71.08H442.913ZM418.273 88.52C408.784 88.52 402.659 86.6927 398.931 83.7411C395.301 80.8656 393.633 76.667 393.633 71.08H389.633C389.633 77.517 391.601 83.0384 396.448 86.8769C401.199 90.6393 408.394 92.52 418.273 92.52V88.52ZM391.633 73.08H407.833V69.08H391.633V73.08ZM405.833 71.08C405.833 72.3373 405.999 73.5688 406.521 74.6751C407.066 75.829 407.93 76.7049 409.072 77.3272C411.176 78.4737 414.275 78.768 418.273 78.768V74.768C414.207 74.768 412.086 74.4143 410.986 73.8148C410.526 73.5641 410.292 73.2924 410.139 72.9682C409.963 72.5962 409.833 72.0187 409.833 71.08H405.833ZM418.273 78.768C422.659 78.768 425.758 78.3014 427.786 77.0898C428.871 76.4412 429.65 75.5807 430.128 74.5254C430.588 73.5101 430.713 72.439 430.713 71.44H426.713C426.713 72.133 426.621 72.5739 426.485 72.8749C426.367 73.1358 426.17 73.3958 425.734 73.6562C424.719 74.2626 422.599 74.768 418.273 74.768V78.768ZM430.713 71.44C430.713 70.278 430.537 69.1138 430 68.0523C429.445 66.9576 428.582 66.1237 427.466 65.5217C425.38 64.3965 422.311 64.04 418.273 64.04V68.04C422.299 68.04 424.45 68.4395 425.567 69.0423C426.053 69.3043 426.288 69.5774 426.431 69.8597C426.591 70.1752 426.713 70.658 426.713 71.44H430.713ZM499.077 52.288H501.077V50.288H499.077V52.288ZM499.077 65.68V67.68H501.077V65.68H499.077ZM471.069 65.68V63.68H469.069V65.68H471.069ZM471.069 74.968H469.069V76.968H471.069V74.968ZM501.885 74.968H503.885V72.968H501.885V74.968ZM501.885 89.08V91.08H503.885V89.08H501.885ZM455.013 89.08H453.013V91.08H455.013V89.08ZM455.013 28.888V26.888H453.013V28.888H455.013ZM501.885 28.888H503.885V26.888H501.885V28.888ZM501.885 43V45H503.885V43H501.885ZM471.069 43V41H469.069V43H471.069ZM471.069 52.288H469.069V54.288H471.069V52.288ZM497.077 52.288V65.68H501.077V52.288H497.077ZM499.077 63.68H471.069V67.68H499.077V63.68ZM469.069 65.68V74.968H473.069V65.68H469.069ZM471.069 76.968H501.885V72.968H471.069V76.968ZM499.885 74.968V89.08H503.885V74.968H499.885ZM501.885 87.08H455.013V91.08H501.885V87.08ZM457.013 89.08V28.888H453.013V89.08H457.013ZM455.013 30.888H501.885V26.888H455.013V30.888ZM499.885 28.888V43H503.885V28.888H499.885ZM501.885 41H471.069V45H501.885V41ZM469.069 43V52.288H473.069V43H469.069ZM471.069 54.288H499.077V50.288H471.069V54.288ZM577.536 89.8V91.8H579.176L579.497 90.1922L577.536 89.8ZM560.976 89.8L559.013 89.4183L558.55 91.8H560.976V89.8ZM564.144 68.2L566.136 68.3867L566.341 66.2H564.144V68.2ZM540.096 68.2H538.096V70.2H540.096V68.2ZM540.096 53.8V51.8H538.096V53.8H540.096ZM565.08 53.8V55.8H567.011L567.079 53.8701L565.08 53.8ZM565.296 40.84H567.296V38.84H565.296V40.84ZM539.376 40.84H537.376V42.84H539.376V40.84ZM539.376 26.44V24.44H537.376V26.44H539.376ZM581.856 26.44H583.856V24.44H581.856V26.44ZM581.064 64.6L583.058 64.7602L583.059 64.7514L583.059 64.7425L581.064 64.6ZM602.016 47.68H600.016V49.68H602.016V47.68ZM607.776 47.68H609.776V45.68H607.776V47.68ZM607.776 63.52V65.52H609.776V63.52H607.776ZM602.016 63.52V61.52H600.016V63.52H602.016ZM602.016 89.8V91.8H604.016V89.8H602.016ZM585.456 89.8H583.456V91.8H585.456V89.8ZM585.456 24.28V22.28H583.456V24.28H585.456ZM602.016 24.28H604.016V22.28H602.016V24.28ZM577.536 87.8H560.976V91.8H577.536V87.8ZM562.94 90.1817C564.463 82.3484 565.481 75.371 566.136 68.3867L562.153 68.0133C561.512 74.853 560.514 81.6996 559.013 89.4183L562.94 90.1817ZM564.144 66.2H540.096V70.2H564.144V66.2ZM542.096 68.2V53.8H538.096V68.2H542.096ZM540.096 55.8H565.08V51.8H540.096V55.8ZM567.079 53.8701C567.224 49.7405 567.296 45.397 567.296 40.84H563.296C563.296 45.355 563.225 49.6515 563.081 53.7299L567.079 53.8701ZM565.296 38.84H539.376V42.84H565.296V38.84ZM541.376 40.84V26.44H537.376V40.84H541.376ZM539.376 28.44H581.856V24.44H539.376V28.44ZM579.856 26.44V39.4H583.856V26.44H579.856ZM579.856 39.4C579.856 48.368 579.641 56.4543 579.069 64.4575L583.059 64.7425C583.64 56.6177 583.856 48.432 583.856 39.4H579.856ZM579.071 64.4398C578.429 72.4297 577.359 80.4881 575.575 89.4078L579.497 90.1922C581.314 81.1119 582.404 72.8983 583.058 64.7602L579.071 64.4398ZM602.016 49.68H607.776V45.68H602.016V49.68ZM605.776 47.68V63.52H609.776V47.68H605.776ZM607.776 61.52H602.016V65.52H607.776V61.52ZM600.016 63.52V89.8H604.016V63.52H600.016ZM602.016 87.8H585.456V91.8H602.016V87.8ZM587.456 89.8V24.28H583.456V89.8H587.456ZM585.456 26.28H602.016V22.28H585.456V26.28ZM600.016 24.28V47.68H604.016V24.28H600.016ZM635.856 53.8H633.856V55.8H635.856V53.8ZM681.216 53.8H683.216V51.8H681.216V53.8ZM681.216 68.2V70.2H683.216V68.2H681.216ZM619.296 68.2H617.296V70.2H619.296V68.2ZM619.296 25.72V23.72H617.296V25.72H619.296ZM681.216 25.72H683.216V23.72H681.216V25.72ZM681.216 40.12V42.12H683.216V40.12H681.216ZM635.856 40.12V38.12H633.856V40.12H635.856ZM617.136 75.4V73.4H615.136V75.4H617.136ZM683.376 75.4H685.376V73.4H683.376V75.4ZM683.376 89.8V91.8H685.376V89.8H683.376ZM617.136 89.8H615.136V91.8H617.136V89.8ZM635.856 55.8H681.216V51.8H635.856V55.8ZM679.216 53.8V68.2H683.216V53.8H679.216ZM681.216 66.2H619.296V70.2H681.216V66.2ZM621.296 68.2V25.72H617.296V68.2H621.296ZM619.296 27.72H681.216V23.72H619.296V27.72ZM679.216 25.72V40.12H683.216V25.72H679.216ZM681.216 38.12H635.856V42.12H681.216V38.12ZM633.856 40.12V53.8H637.856V40.12H633.856ZM617.136 77.4H683.376V73.4H617.136V77.4ZM681.376 75.4V89.8H685.376V75.4H681.376ZM683.376 87.8H617.136V91.8H683.376V87.8ZM619.136 89.8V75.4H615.136V89.8H619.136Z" fill="url(#paint1_linear_1351_6531)"/>
<defs>
<filter id="filter0_f_1351_6531" x="0.879883" y="0.28125" width="706.496" height="114.238" filterUnits="userSpaceOnUse" color-interpolation-filters="sRGB">
<feFlood flood-opacity="0" result="BackgroundImageFix"/>
<feBlend mode="normal" in="SourceGraphic" in2="BackgroundImageFix" result="shape"/>
<feGaussianBlur stdDeviation="12" result="effect1_foregroundBlur_1351_6531"/>
</filter>
<linearGradient id="paint0_linear_1351_6531" x1="10.4357" y1="30.7103" x2="627.375" y2="258.409" gradientUnits="userSpaceOnUse">
<stop stop-color="#8C8AFF"/>
<stop offset="0.5625" stop-color="#A98AFF"/>
<stop offset="1" stop-color="#DB74FF"/>
</linearGradient>
<linearGradient id="paint1_linear_1351_6531" x1="10.4357" y1="30.7103" x2="627.375" y2="258.409" gradientUnits="userSpaceOnUse">
<stop stop-color="#8C8AFF"/>
<stop offset="0.5625" stop-color="#A98AFF"/>
<stop offset="1" stop-color="#DB74FF"/>
</linearGradient>
</defs>
</svg>
