<svg width="355" height="561" viewBox="0 0 355 561" fill="none" xmlns="http://www.w3.org/2000/svg">
<g filter="url(#filter0_b_1287_7374)">
<rect x="0.438477" y="0.269531" width="354" height="560" rx="32" fill="url(#paint0_linear_1287_7374)" fill-opacity="0.2"/>
<g filter="url(#filter1_f_1287_7374)">
<path d="M91.8778 60.4488V59.4488H91.0394L90.8931 60.2744L91.8778 60.4488ZM88.3209 80.5316L88.9706 81.2917L89.243 81.0589L89.3055 80.706L88.3209 80.5316ZM81.6085 86.2695V87.2695H81.9777L82.2583 87.0297L81.6085 86.2695ZM68.7002 86.2695L67.9307 86.9081L68.2306 87.2695H68.7002V86.2695ZM63.9385 80.5316L62.9538 80.3572L62.873 80.8136L63.1689 81.1702L63.9385 80.5316ZM67.4954 60.4488L68.4801 60.6232L68.6881 59.4488H67.4954V60.4488ZM64.6269 60.4488L63.6416 60.2781L63.4387 61.4488H64.6269V60.4488ZM66.1185 51.8419V50.8419H65.2769L65.1332 51.6712L66.1185 51.8419ZM77.5926 51.8419L78.5776 52.0148L78.7834 50.8419H77.5926V51.8419ZM73.0604 77.6626L72.0754 77.4898L71.8695 78.6626H73.0604V77.6626ZM80.2316 77.6626V78.6626H81.0714L81.2166 77.8355L80.2316 77.6626ZM84.7639 51.8419V50.8419H83.9241L83.779 51.6691L84.7639 51.8419ZM96.238 51.8419L97.2233 52.0127L97.4262 50.8419H96.238V51.8419ZM94.7463 60.4488V61.4488H95.5879L95.7317 60.6196L94.7463 60.4488ZM116.329 51.8419V50.8419H115.488L115.344 51.6697L116.329 51.8419ZM127.803 51.8419L128.788 52.0127L128.991 50.8419H127.803V51.8419ZM126.311 60.4488V61.4488H127.153L127.297 60.6196L126.311 60.4488ZM123.443 60.4488V59.4488H122.604L122.458 60.2749L123.443 60.4488ZM120.402 77.6626L119.417 77.4887L119.21 78.6626H120.402V77.6626ZM123.271 77.6626L124.256 77.8334L124.459 76.6626H123.271V77.6626ZM121.779 86.2695V87.2695H122.621L122.764 86.4403L121.779 86.2695ZM112.026 86.2695L111.073 86.5727L111.295 87.2695H112.026V86.2695ZM107.207 71.1214L108.16 70.8182L106.222 70.9498L107.207 71.1214ZM104.568 86.2695V87.2695H105.409L105.553 86.4412L104.568 86.2695ZM93.0938 86.2695L92.1085 86.0988L91.9056 87.2695H93.0938V86.2695ZM94.5854 77.6626V76.6626H93.7438L93.6001 77.4919L94.5854 77.6626ZM97.4539 77.6626V78.6626H98.2928L98.4387 77.8366L97.4539 77.6626ZM100.495 60.4488L101.479 60.6228L101.687 59.4488H100.495V60.4488ZM97.6261 60.4488L96.6407 60.2781L96.4378 61.4488H97.6261V60.4488ZM99.1177 51.8419V50.8419H98.2761L98.1324 51.6712L99.1177 51.8419ZM108.871 51.8419L109.823 51.5377L109.601 50.8419H108.871V51.8419ZM113.69 66.9327L112.737 67.2369L114.675 67.105L113.69 66.9327ZM145.003 51.8419L145.988 52.0127L146.191 50.8419H145.003V51.8419ZM143.511 60.4488V61.4488H144.353L144.496 60.6196L143.511 60.4488ZM140.643 60.4488V59.4488H139.804L139.658 60.2749L140.643 60.4488ZM137.602 77.6626L136.617 77.4887L136.41 78.6626H137.602V77.6626ZM140.47 77.6626L141.456 77.8334L141.659 76.6626H140.47V77.6626ZM138.979 86.2695V87.2695H139.82L139.964 86.4403L138.979 86.2695ZM124.636 86.2695L123.651 86.0988L123.448 87.2695H124.636V86.2695ZM126.128 77.6626V76.6626H125.286L125.143 77.4919L126.128 77.6626ZM128.996 77.6626V78.6626H129.835L129.981 77.8366L128.996 77.6626ZM132.037 60.4488L133.022 60.6228L133.229 59.4488H132.037V60.4488ZM129.169 60.4488L128.183 60.2781L127.98 61.4488H129.169V60.4488ZM130.66 51.8419V50.8419H129.819L129.675 51.6712L130.66 51.8419ZM157.67 77.6626L156.67 77.6471L158.618 77.9807L157.67 77.6626ZM166.333 51.8419V50.8419H165.614L165.385 51.5239L166.333 51.8419ZM176.545 51.8419L177.531 52.0127L177.733 50.8419H176.545V51.8419ZM175.054 60.4488V61.4488H175.895L176.039 60.6196L175.054 60.4488ZM172.185 60.4488V59.4488H171.464L171.236 60.1327L172.185 60.4488ZM163.58 86.2695V87.2695H164.3L164.528 86.5857L163.58 86.2695ZM148.778 86.2695L147.778 86.2518L147.76 87.2695H148.778V86.2695ZM149.237 60.4488L150.237 60.4666L150.255 59.4488H149.237V60.4488ZM146.368 60.4488L145.383 60.2781L145.18 61.4488H146.368V60.4488ZM147.86 51.8419V50.8419H147.018L146.875 51.6712L147.86 51.8419ZM158.072 51.8419L159.072 51.8575L159.088 50.8419H158.072V51.8419ZM192.081 77.6626V78.6626H192.923L193.067 77.8334L192.081 77.6626ZM192.827 73.3592V72.3592H191.986L191.842 73.1884L192.827 73.3592ZM201.433 73.3592L202.418 73.5299L202.621 72.3592H201.433V73.3592ZM199.195 86.2695V87.2695H200.037L200.181 86.4403L199.195 86.2695ZM173.379 86.2695L172.393 86.0988L172.19 87.2695H173.379V86.2695ZM174.87 77.6626V76.6626H174.029L173.885 77.4919L174.87 77.6626ZM177.739 77.6626V78.6626H178.578L178.724 77.8366L177.739 77.6626ZM180.779 60.4488L181.764 60.6228L181.972 59.4488H180.779V60.4488ZM177.911 60.4488L176.926 60.2781L176.723 61.4488H177.911V60.4488ZM179.403 51.8419V50.8419H178.561L178.417 51.6712L179.403 51.8419ZM205.219 51.8419L206.204 52.0127L206.407 50.8419H205.219V51.8419ZM202.982 64.7523V65.7523H203.823L203.967 64.923L202.982 64.7523ZM194.376 64.7523L193.391 64.5815L193.188 65.7523H194.376V64.7523ZM195.122 60.4488L196.107 60.6196L196.31 59.4488H195.122V60.4488ZM189.385 60.4488V59.4488H188.549L188.401 60.2717L189.385 60.4488ZM188.352 66.1868L187.368 66.0096L187.156 67.1868H188.352V66.1868ZM194.089 66.1868L195.075 66.3543L195.274 65.1868H194.089V66.1868ZM193.114 71.9247V72.9247H193.958L194.1 72.0923L193.114 71.9247ZM187.377 71.9247V70.9247H186.541L186.393 71.7476L187.377 71.9247ZM186.344 77.6626L185.36 77.4855L185.148 78.6626H186.344V77.6626ZM219.043 65.0833L220.01 64.8303L219.875 64.312L219.368 64.1377L219.043 65.0833ZM220.688 65.0833L220.327 64.1508L219.85 64.3354L219.72 64.8303L220.688 65.0833ZM219.043 63.4282L219.253 64.4058L219.855 64.2765L220.01 63.6812L219.043 63.4282ZM216.5 74.7937V73.7937H215.659L215.514 74.6213L216.5 74.7937ZM214.492 86.2695V87.2695H215.332L215.477 86.4419L214.492 86.2695ZM203.017 86.2695L202.032 86.0988L201.829 87.2695H203.017V86.2695ZM204.509 77.6626V76.6626H203.668L203.524 77.4919L204.509 77.6626ZM207.378 77.6626V78.6626H208.216L208.362 77.8366L207.378 77.6626ZM210.418 60.4488L211.403 60.6228L211.61 59.4488H210.418V60.4488ZM207.55 60.4488L206.564 60.2781L206.362 61.4488H207.55V60.4488ZM209.041 51.8419V50.8419H208.2L208.056 51.6712L209.041 51.8419ZM229.121 51.8419L229.891 51.2033L229.591 50.8419H229.121V51.8419ZM233.883 57.5799L234.867 57.7543L234.948 57.2979L234.652 56.9413L233.883 57.5799ZM232.104 67.6213L232.751 68.3841L233.026 68.1509L233.089 67.7957L232.104 67.6213ZM228.719 70.4902L228.073 69.7274L227.674 70.0654L227.724 70.5858L228.719 70.4902ZM229.408 77.6626L228.412 77.7582L228.499 78.6626H229.408V77.6626ZM232.276 77.6626L233.262 77.8334L233.465 76.6626H232.276V77.6626ZM230.785 86.2695V87.2695H231.626L231.77 86.4403L230.785 86.2695ZM221.376 86.2695L220.381 86.369L220.471 87.2695H221.376V86.2695ZM220.229 74.7937L221.224 74.6942L221.134 73.7937H220.229V74.7937ZM257.207 80.5316L257.857 81.2917L258.129 81.0587L258.192 80.7056L257.207 80.5316ZM250.495 86.2695V87.2695H250.864L251.144 87.0297L250.495 86.2695ZM232.71 86.2695L231.725 86.0972L231.52 87.2695H232.71V86.2695ZM234.718 74.7937V73.7937H233.878L233.733 74.6213L234.718 74.7937ZM243.323 74.7937L244.308 74.9708L244.519 73.7937H243.323V74.7937ZM242.807 77.6626L241.823 77.4855L241.611 78.6626H242.807V77.6626ZM249.118 77.6626V78.6626H249.952L250.102 77.8415L249.118 77.6626ZM249.691 74.5068L250.675 74.6856L250.832 73.826L250.001 73.5558L249.691 74.5068ZM235.578 69.9164L234.594 69.7424L234.442 70.5985L235.269 70.8674L235.578 69.9164ZM237.758 57.5799L237.109 56.8198L236.836 57.0527L236.774 57.4059L237.758 57.5799ZM244.471 51.8419V50.8419H244.102L243.821 51.0818L244.471 51.8419ZM262.256 51.8419L263.241 52.0143L263.446 50.8419H262.256V51.8419ZM260.248 63.3178V64.3178H261.088L261.233 63.4902L260.248 63.3178ZM251.642 63.3178L250.658 63.1407L250.446 64.3178H251.642V63.3178ZM252.158 60.4488L253.143 60.626L253.354 59.4488H252.158V60.4488ZM245.848 60.4488V59.4488H245.013L244.864 60.27L245.848 60.4488ZM245.274 63.6047L244.29 63.4259L244.134 64.2854L244.965 64.5557L245.274 63.6047ZM259.387 68.195L260.372 68.3691L260.523 67.513L259.696 67.2441L259.387 68.195ZM277.801 77.6626V78.6626H278.642L278.786 77.8334L277.801 77.6626ZM278.546 73.3592V72.3592H277.705L277.561 73.1884L278.546 73.3592ZM287.152 73.3592L288.137 73.5299L288.34 72.3592H287.152V73.3592ZM284.915 86.2695V87.2695H285.756L285.9 86.4403L284.915 86.2695ZM259.098 86.2695L258.113 86.0988L257.91 87.2695H259.098V86.2695ZM260.59 77.6626V76.6626H259.748L259.604 77.4919L260.59 77.6626ZM263.458 77.6626V78.6626H264.297L264.443 77.8366L263.458 77.6626ZM266.499 60.4488L267.483 60.6228L267.691 59.4488H266.499V60.4488ZM263.63 60.4488L262.645 60.2781L262.442 61.4488H263.63V60.4488ZM265.122 51.8419V50.8419H264.28L264.137 51.6712L265.122 51.8419ZM290.938 51.8419L291.924 52.0127L292.127 50.8419H290.938V51.8419ZM288.701 64.7523V65.7523H289.543L289.686 64.9231L288.701 64.7523ZM280.095 64.7523L279.11 64.5815L278.907 65.7523H280.095V64.7523ZM280.841 60.4488L281.827 60.6196L282.029 59.4488H280.841V60.4488ZM275.104 60.4488V59.4488H274.268L274.12 60.2717L275.104 60.4488ZM274.072 66.1868L273.087 66.0096L272.876 67.1868H274.072V66.1868ZM279.809 66.1868L280.794 66.3543L280.993 65.1868H279.809V66.1868ZM278.833 71.9247V72.9247H279.678L279.819 72.0923L278.833 71.9247ZM273.096 71.9247V70.9247H272.26L272.112 71.7476L273.096 71.9247ZM272.064 77.6626L271.079 77.4855L270.868 78.6626H272.064V77.6626ZM220.688 63.4282L219.72 63.6812L219.871 64.2596L220.453 64.4001L220.688 63.4282ZM219.865 68.2282L218.898 68.4812L219.865 72.1807L220.833 68.4812L219.865 68.2282ZM216.082 64.0646L215.872 63.087L212.361 63.8418L215.757 65.0102L216.082 64.0646ZM223.319 64.0646L223.68 64.9972L226.66 63.8438L223.554 63.0927L223.319 64.0646ZM219.865 60.2833L220.833 60.0303L219.865 56.3308L218.898 60.0303L219.865 60.2833ZM235.984 38.2695L236.978 38.161C236.923 37.6537 236.494 37.2695 235.984 37.2695C235.474 37.2695 235.046 37.6537 234.99 38.161L235.984 38.2695ZM236.994 47.5157L236 47.6242C236.051 48.0901 236.418 48.4582 236.884 48.5097L236.994 47.5157ZM246.182 48.5316L246.292 49.5255C246.799 49.4695 247.182 49.0414 247.182 48.5316C247.182 48.0218 246.799 47.5937 246.292 47.5377L246.182 48.5316ZM236.994 49.5475L236.884 48.5535C236.418 48.605 236.051 48.9731 236 49.439L236.994 49.5475ZM235.984 58.7937L234.99 58.9022C235.046 59.4095 235.474 59.7937 235.984 59.7937C236.494 59.7937 236.923 59.4095 236.978 58.9022L235.984 58.7937ZM234.975 49.5475L235.969 49.439C235.918 48.9731 235.55 48.605 235.085 48.5535L234.975 49.5475ZM225.786 48.5316L225.677 47.5377C225.17 47.5937 224.786 48.0218 224.786 48.5316C224.786 49.0414 225.17 49.4695 225.677 49.5255L225.786 48.5316ZM234.975 47.5157L235.085 48.5097C235.55 48.4582 235.918 48.0901 235.969 47.6242L234.975 47.5157ZM90.8931 60.2744L87.3362 80.3572L89.3055 80.706L92.8625 60.6232L90.8931 60.2744ZM87.6711 79.7715L80.9588 85.5094L82.2583 87.0297L88.9706 81.2917L87.6711 79.7715ZM81.6085 85.2695H68.7002V87.2695H81.6085V85.2695ZM69.4697 85.6309L64.708 79.893L63.1689 81.1702L67.9307 86.9081L69.4697 85.6309ZM64.9232 80.706L68.4801 60.6232L66.5108 60.2744L62.9538 80.3572L64.9232 80.706ZM67.4954 59.4488H64.6269V61.4488H67.4954V59.4488ZM65.6122 60.6196L67.1039 52.0127L65.1332 51.6712L63.6416 60.2781L65.6122 60.6196ZM66.1185 52.8419H77.5926V50.8419H66.1185V52.8419ZM76.6077 51.6691L72.0754 77.4898L74.0453 77.8355L78.5776 52.0148L76.6077 51.6691ZM73.0604 78.6626H80.2316V76.6626H73.0604V78.6626ZM81.2166 77.8355L85.7488 52.0148L83.779 51.6691L79.2467 77.4898L81.2166 77.8355ZM84.7639 52.8419H96.238V50.8419H84.7639V52.8419ZM95.2527 51.6712L93.761 60.2781L95.7317 60.6196L97.2233 52.0127L95.2527 51.6712ZM94.7463 59.4488H91.8778V61.4488H94.7463V59.4488ZM116.329 52.8419L127.803 52.8419V50.8419L116.329 50.8419V52.8419ZM126.818 51.6712L125.326 60.2781L127.297 60.6196L128.788 52.0127L126.818 51.6712ZM126.311 59.4488H123.443V61.4488H126.311V59.4488ZM122.458 60.2749L119.417 77.4887L121.387 77.8366L124.427 60.6228L122.458 60.2749ZM120.402 78.6626H123.271V76.6626H120.402V78.6626ZM122.285 77.4919L120.794 86.0988L122.764 86.4403L124.256 77.8334L122.285 77.4919ZM121.779 85.2695H112.026V87.2695H121.779V85.2695ZM112.979 85.9664L108.16 70.8182L106.254 71.4246L111.073 86.5727L112.979 85.9664ZM106.222 70.9498L103.583 86.0979L105.553 86.4412L108.192 71.293L106.222 70.9498ZM104.568 85.2695H93.0938V87.2695H104.568V85.2695ZM94.0791 86.4403L95.5707 77.8334L93.6001 77.4919L92.1085 86.0988L94.0791 86.4403ZM94.5854 78.6626H97.4539V76.6626H94.5854V78.6626ZM98.4387 77.8366L101.479 60.6228L99.5098 60.2749L96.4692 77.4887L98.4387 77.8366ZM100.495 59.4488H97.6261V61.4488H100.495V59.4488ZM98.6114 60.6196L100.103 52.0127L98.1324 51.6712L96.6407 60.2781L98.6114 60.6196ZM99.1177 52.8419H108.871V50.8419H99.1177V52.8419ZM107.918 52.1462L112.737 67.2369L114.642 66.6285L109.823 51.5377L107.918 52.1462ZM114.675 67.105L117.314 52.0142L115.344 51.6697L112.705 66.7604L114.675 67.105ZM144.017 51.6712L142.526 60.2781L144.496 60.6196L145.988 52.0127L144.017 51.6712ZM143.511 59.4488H140.643V61.4488H143.511V59.4488ZM139.658 60.2749L136.617 77.4887L138.587 77.8366L141.627 60.6228L139.658 60.2749ZM137.602 78.6626H140.47V76.6626H137.602V78.6626ZM139.485 77.4919L137.994 86.0988L139.964 86.4403L141.456 77.8334L139.485 77.4919ZM138.979 85.2695H124.636V87.2695H138.979V85.2695ZM125.622 86.4403L127.113 77.8334L125.143 77.4919L123.651 86.0988L125.622 86.4403ZM126.128 78.6626H128.996V76.6626H126.128V78.6626ZM129.981 77.8366L133.022 60.6228L131.052 60.2749L128.012 77.4887L129.981 77.8366ZM132.037 59.4488H129.169V61.4488H132.037V59.4488ZM130.154 60.6196L131.645 52.0127L129.675 51.6712L128.183 60.2781L130.154 60.6196ZM130.66 52.8419H145.003V50.8419H130.66V52.8419ZM158.618 77.9807L167.281 52.16L165.385 51.5239L156.722 77.3446L158.618 77.9807ZM166.333 52.8419H176.545V50.8419H166.333V52.8419ZM175.56 51.6712L174.068 60.2781L176.039 60.6196L177.531 52.0127L175.56 51.6712ZM175.054 59.4488H172.185V61.4488H175.054V59.4488ZM171.236 60.1327L162.631 85.9534L164.528 86.5857L173.134 60.765L171.236 60.1327ZM163.58 85.2695H148.778V87.2695H163.58V85.2695ZM149.778 86.2873L150.237 60.4666L148.237 60.4311L147.778 86.2518L149.778 86.2873ZM149.237 59.4488H146.368V61.4488H149.237V59.4488ZM147.354 60.6196L148.845 52.0127L146.875 51.6712L145.383 60.2781L147.354 60.6196ZM147.86 52.8419H158.072V50.8419H147.86V52.8419ZM157.072 51.8264L156.67 77.6471L158.67 77.6782L159.072 51.8575L157.072 51.8264ZM193.067 77.8334L193.812 73.5299L191.842 73.1884L191.096 77.4919L193.067 77.8334ZM192.827 74.3592H201.433V72.3592H192.827V74.3592ZM200.447 73.1884L198.21 86.0988L200.181 86.4403L202.418 73.5299L200.447 73.1884ZM199.195 85.2695L173.379 85.2695V87.2695L199.195 87.2695V85.2695ZM174.364 86.4403L175.856 77.8334L173.885 77.4919L172.393 86.0988L174.364 86.4403ZM174.87 78.6626H177.739V76.6626H174.87V78.6626ZM178.724 77.8366L181.764 60.6228L179.795 60.2749L176.754 77.4887L178.724 77.8366ZM180.779 59.4488H177.911V61.4488H180.779V59.4488ZM178.896 60.6196L180.388 52.0127L178.417 51.6712L176.926 60.2781L178.896 60.6196ZM179.403 52.8419L205.219 52.8419V50.8419L179.403 50.8419V52.8419ZM204.234 51.6712L201.996 64.5815L203.967 64.923L206.204 52.0127L204.234 51.6712ZM202.982 63.7523H194.376V65.7523H202.982V63.7523ZM195.361 64.923L196.107 60.6196L194.137 60.2781L193.391 64.5815L195.361 64.923ZM195.122 59.4488H189.385V61.4488H195.122V59.4488ZM188.401 60.2717L187.368 66.0096L189.336 66.3639L190.369 60.626L188.401 60.2717ZM188.352 67.1868H194.089V65.1868H188.352V67.1868ZM193.103 66.0192L192.128 71.7571L194.1 72.0923L195.075 66.3543L193.103 66.0192ZM193.114 70.9247L187.377 70.9247V72.9247L193.114 72.9247V70.9247ZM186.393 71.7476L185.36 77.4855L187.329 77.8398L188.361 72.1018L186.393 71.7476ZM186.344 78.6626L192.081 78.6626V76.6626L186.344 76.6626V78.6626ZM215.514 74.6213L213.507 86.0972L215.477 86.4419L217.485 74.966L215.514 74.6213ZM214.492 85.2695H203.017V87.2695H214.492V85.2695ZM204.003 86.4403L205.494 77.8334L203.524 77.4919L202.032 86.0988L204.003 86.4403ZM204.509 78.6626H207.378V76.6626H204.509V78.6626ZM208.362 77.8366L211.403 60.6228L209.434 60.2749L206.393 77.4887L208.362 77.8366ZM210.418 59.4488H207.55V61.4488H210.418V59.4488ZM208.535 60.6196L210.027 52.0127L208.056 51.6712L206.564 60.2781L208.535 60.6196ZM209.041 52.8419H229.121V50.8419H209.041V52.8419ZM228.351 52.4806L233.113 58.2185L234.652 56.9413L229.891 51.2033L228.351 52.4806ZM232.898 57.4055L231.12 67.4469L233.089 67.7957L234.867 57.7543L232.898 57.4055ZM231.458 66.8584L228.073 69.7274L229.366 71.2531L232.751 68.3841L231.458 66.8584ZM227.724 70.5858L228.412 77.7582L230.403 77.5671L229.715 70.3947L227.724 70.5858ZM229.408 78.6626H232.276V76.6626H229.408V78.6626ZM231.291 77.4919L229.799 86.0988L231.77 86.4403L233.262 77.8334L231.291 77.4919ZM230.785 85.2695H221.376V87.2695H230.785V85.2695ZM222.371 86.17L221.224 74.6942L219.234 74.8932L220.381 86.369L222.371 86.17ZM220.229 73.7937H216.5V75.7937H220.229V73.7937ZM256.557 79.7715L249.845 85.5094L251.144 87.0297L257.857 81.2917L256.557 79.7715ZM250.495 85.2695H232.71V87.2695H250.495V85.2695ZM233.695 86.4419L235.703 74.966L233.733 74.6213L231.725 86.0972L233.695 86.4419ZM234.718 75.7937H243.323V73.7937H234.718V75.7937ZM242.339 74.6165L241.823 77.4855L243.791 77.8398L244.308 74.9708L242.339 74.6165ZM242.807 78.6626H249.118V76.6626H242.807V78.6626ZM250.102 77.8415L250.675 74.6856L248.708 74.3279L248.134 77.4838L250.102 77.8415ZM250.001 73.5558L235.888 68.9655L235.269 70.8674L249.382 75.4577L250.001 73.5558ZM236.563 70.0904L238.743 57.7539L236.774 57.4059L234.594 69.7424L236.563 70.0904ZM238.408 58.34L245.121 52.6021L243.821 51.0818L237.109 56.8198L238.408 58.34ZM244.471 52.8419H262.256V50.8419H244.471V52.8419ZM261.271 51.6696L259.263 63.1455L261.233 63.4902L263.241 52.0143L261.271 51.6696ZM260.248 62.3178H251.642V64.3178H260.248V62.3178ZM252.626 63.4949L253.143 60.626L251.174 60.2717L250.658 63.1407L252.626 63.4949ZM252.158 59.4488H245.848V61.4488H252.158V59.4488ZM244.864 60.27L244.29 63.4259L246.258 63.7836L246.832 60.6277L244.864 60.27ZM244.965 64.5557L259.078 69.146L259.696 67.2441L245.583 62.6537L244.965 64.5557ZM258.402 68.021L256.222 80.3576L258.192 80.7056L260.372 68.3691L258.402 68.021ZM278.786 77.8334L279.532 73.5299L277.561 73.1884L276.815 77.4919L278.786 77.8334ZM278.546 74.3592H287.152V72.3592H278.546V74.3592ZM286.167 73.1884L283.929 86.0988L285.9 86.4403L288.137 73.5299L286.167 73.1884ZM284.915 85.2695L259.098 85.2695V87.2695L284.915 87.2695V85.2695ZM260.083 86.4403L261.575 77.8334L259.604 77.4919L258.113 86.0988L260.083 86.4403ZM260.59 78.6626H263.458V76.6626H260.59V78.6626ZM264.443 77.8366L267.483 60.6228L265.514 60.2749L262.473 77.4887L264.443 77.8366ZM266.499 59.4488H263.63V61.4488H266.499V59.4488ZM264.616 60.6196L266.107 52.0127L264.137 51.6712L262.645 60.2781L264.616 60.6196ZM265.122 52.8419L290.938 52.8419V50.8419L265.122 50.8419V52.8419ZM289.953 51.6712L287.716 64.5815L289.686 64.9231L291.924 52.0127L289.953 51.6712ZM288.701 63.7523H280.095V65.7523H288.701V63.7523ZM281.081 64.9231L281.827 60.6196L279.856 60.2781L279.11 64.5815L281.081 64.9231ZM280.841 59.4488H275.104V61.4488H280.841V59.4488ZM274.12 60.2717L273.087 66.0096L275.056 66.3639L276.088 60.626L274.12 60.2717ZM274.072 67.1868H279.809V65.1868H274.072V67.1868ZM278.823 66.0192L277.847 71.7571L279.819 72.0923L280.794 66.3543L278.823 66.0192ZM278.833 70.9247L273.096 70.9247V72.9247L278.833 72.9247V70.9247ZM272.112 71.7476L271.079 77.4855L273.048 77.8398L274.08 72.1018L272.112 71.7476ZM272.064 78.6626L277.801 78.6626V76.6626L272.064 76.6626V78.6626ZM218.075 65.3363L218.898 68.4812L220.833 67.9752L220.01 64.8303L218.075 65.3363ZM220.833 68.4812L221.655 65.3363L219.72 64.8303L218.898 67.9752L220.833 68.4812ZM218.833 62.4505L215.872 63.087L216.292 65.0423L219.253 64.4058L218.833 62.4505ZM215.757 65.0102L218.717 66.0289L219.368 64.1377L216.408 63.119L215.757 65.0102ZM221.049 66.0159L223.68 64.9972L222.958 63.1321L220.327 64.1508L221.049 66.0159ZM223.554 63.0927L220.923 62.4562L220.453 64.4001L223.084 65.0366L223.554 63.0927ZM221.655 63.1752L220.833 60.0303L218.898 60.5363L219.72 63.6812L221.655 63.1752ZM218.898 60.0303L218.075 63.1752L220.01 63.6812L220.833 60.5363L218.898 60.0303ZM234.99 38.3781L236 47.6242L237.988 47.4072L236.978 38.161L234.99 38.3781ZM236.884 48.5097L246.072 49.5255L246.292 47.5377L237.104 46.5218L236.884 48.5097ZM246.072 47.5377L236.884 48.5535L237.104 50.5414L246.292 49.5255L246.072 47.5377ZM236 49.439L234.99 58.6851L236.978 58.9022L237.988 49.656L236 49.439ZM236.978 58.6851L235.969 49.439L233.981 49.656L234.99 58.9022L236.978 58.6851ZM235.085 48.5535L225.896 47.5377L225.677 49.5255L234.865 50.5414L235.085 48.5535ZM225.896 49.5255L235.085 48.5097L234.865 46.5218L225.677 47.5377L225.896 49.5255ZM235.969 47.6242L236.978 38.3781L234.99 38.161L233.981 47.4072L235.969 47.6242Z" fill="url(#paint1_linear_1287_7374)" fill-opacity="0.5"/>
</g>
<mask id="path-4-inside-1_1287_7374" fill="white">
<path d="M91.8756 60.4488L88.3189 80.5316L81.6071 86.2695H68.6998L63.9385 80.5316L67.4952 60.4488H64.6269L66.1184 51.8419H77.5915L73.0596 77.6626H80.2304L84.7622 51.8419H96.2354L94.7439 60.4488H91.8756Z"/>
<path d="M116.325 51.8419L127.798 51.8419L126.306 60.4488H123.438L120.398 77.6626H123.266L121.774 86.2695H112.022L107.203 71.1214L104.565 86.2695H93.0915L94.583 77.6626H97.4513L100.492 60.4488H97.6234L99.1149 51.8419H108.867L113.686 66.9327L116.325 51.8419Z"/>
<path d="M144.996 51.8419L143.505 60.4488H140.636L137.596 77.6626H140.464L138.973 86.2695H124.631L126.123 77.6626H128.991L132.032 60.4488H129.163L130.655 51.8419H144.996Z"/>
<path d="M157.663 77.6626L166.325 51.8419H176.536L175.045 60.4488H172.176L163.572 86.2695H148.771L149.23 60.4488H146.362L147.853 51.8419H158.064L157.663 77.6626Z"/>
<path d="M192.071 77.6626L192.817 73.3592H201.422L199.185 86.2695L173.37 86.2695L174.861 77.6626H177.73L180.77 60.4488H177.902L179.393 51.8419L205.208 51.8419L202.971 64.7523H194.366L195.112 60.4488H189.375L188.342 66.1868H194.079L193.104 71.9247L187.367 71.9247L186.335 77.6626L192.071 77.6626Z"/>
<path d="M216.487 74.7937L214.48 86.2695H203.006L204.498 77.6626H207.366L210.407 60.4488H207.538L209.03 51.8419H229.108L233.869 57.5799L232.091 67.6213L228.706 70.4902L229.395 77.6626H232.263L230.771 86.2695H221.363L220.216 74.7937H216.487Z"/>
<path d="M257.192 80.5316L250.48 86.2695H232.696L234.704 74.7937H243.309L242.793 77.6626H249.103L249.677 74.5068L235.565 69.9164L237.745 57.5799L244.456 51.8419H262.24L260.232 63.3178H251.627L252.143 60.4488H245.833L245.26 63.6047L259.371 68.195L257.192 80.5316Z"/>
<path d="M277.784 77.6626L278.529 73.3592H287.134L284.897 86.2695L259.082 86.2695L260.574 77.6626H263.442L266.483 60.4488H263.614L265.106 51.8419L290.92 51.8419L288.683 64.7523H280.078L280.824 60.4488H275.087L274.055 66.1868H279.791L278.816 71.9247L273.08 71.9247L272.047 77.6626L277.784 77.6626Z"/>
<path d="M235.971 38.2695L236.98 47.5157L246.167 48.5316L236.98 49.5475L235.971 58.7937L234.961 49.5475L225.774 48.5316L234.961 47.5157L235.971 38.2695Z"/>
</mask>
<path d="M91.8756 60.4488L88.3189 80.5316L81.6071 86.2695H68.6998L63.9385 80.5316L67.4952 60.4488H64.6269L66.1184 51.8419H77.5915L73.0596 77.6626H80.2304L84.7622 51.8419H96.2354L94.7439 60.4488H91.8756Z" fill="white" fill-opacity="0.15"/>
<path d="M116.325 51.8419L127.798 51.8419L126.306 60.4488H123.438L120.398 77.6626H123.266L121.774 86.2695H112.022L107.203 71.1214L104.565 86.2695H93.0915L94.583 77.6626H97.4513L100.492 60.4488H97.6234L99.1149 51.8419H108.867L113.686 66.9327L116.325 51.8419Z" fill="white" fill-opacity="0.15"/>
<path d="M144.996 51.8419L143.505 60.4488H140.636L137.596 77.6626H140.464L138.973 86.2695H124.631L126.123 77.6626H128.991L132.032 60.4488H129.163L130.655 51.8419H144.996Z" fill="white" fill-opacity="0.15"/>
<path d="M157.663 77.6626L166.325 51.8419H176.536L175.045 60.4488H172.176L163.572 86.2695H148.771L149.23 60.4488H146.362L147.853 51.8419H158.064L157.663 77.6626Z" fill="white" fill-opacity="0.15"/>
<path d="M192.071 77.6626L192.817 73.3592H201.422L199.185 86.2695L173.37 86.2695L174.861 77.6626H177.73L180.77 60.4488H177.902L179.393 51.8419L205.208 51.8419L202.971 64.7523H194.366L195.112 60.4488H189.375L188.342 66.1868H194.079L193.104 71.9247L187.367 71.9247L186.335 77.6626L192.071 77.6626Z" fill="white" fill-opacity="0.15"/>
<path d="M216.487 74.7937L214.48 86.2695H203.006L204.498 77.6626H207.366L210.407 60.4488H207.538L209.03 51.8419H229.108L233.869 57.5799L232.091 67.6213L228.706 70.4902L229.395 77.6626H232.263L230.771 86.2695H221.363L220.216 74.7937H216.487Z" fill="white" fill-opacity="0.15"/>
<path d="M257.192 80.5316L250.48 86.2695H232.696L234.704 74.7937H243.309L242.793 77.6626H249.103L249.677 74.5068L235.565 69.9164L237.745 57.5799L244.456 51.8419H262.24L260.232 63.3178H251.627L252.143 60.4488H245.833L245.26 63.6047L259.371 68.195L257.192 80.5316Z" fill="white" fill-opacity="0.15"/>
<path d="M277.784 77.6626L278.529 73.3592H287.134L284.897 86.2695L259.082 86.2695L260.574 77.6626H263.442L266.483 60.4488H263.614L265.106 51.8419L290.92 51.8419L288.683 64.7523H280.078L280.824 60.4488H275.087L274.055 66.1868H279.791L278.816 71.9247L273.08 71.9247L272.047 77.6626L277.784 77.6626Z" fill="white" fill-opacity="0.15"/>
<path d="M235.971 38.2695L236.98 47.5157L246.167 48.5316L236.98 49.5475L235.971 58.7937L234.961 49.5475L225.774 48.5316L234.961 47.5157L235.971 38.2695Z" fill="white" fill-opacity="0.15"/>
<path d="M91.8756 60.4488L88.3189 80.5316L81.6071 86.2695H68.6998L63.9385 80.5316L67.4952 60.4488H64.6269L66.1184 51.8419H77.5915L73.0596 77.6626H80.2304L84.7622 51.8419H96.2354L94.7439 60.4488H91.8756Z" stroke="url(#paint2_linear_1287_7374)" stroke-width="2" mask="url(#path-4-inside-1_1287_7374)"/>
<path d="M116.325 51.8419L127.798 51.8419L126.306 60.4488H123.438L120.398 77.6626H123.266L121.774 86.2695H112.022L107.203 71.1214L104.565 86.2695H93.0915L94.583 77.6626H97.4513L100.492 60.4488H97.6234L99.1149 51.8419H108.867L113.686 66.9327L116.325 51.8419Z" stroke="url(#paint3_linear_1287_7374)" stroke-width="2" mask="url(#path-4-inside-1_1287_7374)"/>
<path d="M144.996 51.8419L143.505 60.4488H140.636L137.596 77.6626H140.464L138.973 86.2695H124.631L126.123 77.6626H128.991L132.032 60.4488H129.163L130.655 51.8419H144.996Z" stroke="url(#paint4_linear_1287_7374)" stroke-width="2" mask="url(#path-4-inside-1_1287_7374)"/>
<path d="M157.663 77.6626L166.325 51.8419H176.536L175.045 60.4488H172.176L163.572 86.2695H148.771L149.23 60.4488H146.362L147.853 51.8419H158.064L157.663 77.6626Z" stroke="url(#paint5_linear_1287_7374)" stroke-width="2" mask="url(#path-4-inside-1_1287_7374)"/>
<path d="M192.071 77.6626L192.817 73.3592H201.422L199.185 86.2695L173.37 86.2695L174.861 77.6626H177.73L180.77 60.4488H177.902L179.393 51.8419L205.208 51.8419L202.971 64.7523H194.366L195.112 60.4488H189.375L188.342 66.1868H194.079L193.104 71.9247L187.367 71.9247L186.335 77.6626L192.071 77.6626Z" stroke="url(#paint6_linear_1287_7374)" stroke-width="2" mask="url(#path-4-inside-1_1287_7374)"/>
<path d="M216.487 74.7937L214.48 86.2695H203.006L204.498 77.6626H207.366L210.407 60.4488H207.538L209.03 51.8419H229.108L233.869 57.5799L232.091 67.6213L228.706 70.4902L229.395 77.6626H232.263L230.771 86.2695H221.363L220.216 74.7937H216.487Z" stroke="url(#paint7_linear_1287_7374)" stroke-width="2" mask="url(#path-4-inside-1_1287_7374)"/>
<path d="M257.192 80.5316L250.48 86.2695H232.696L234.704 74.7937H243.309L242.793 77.6626H249.103L249.677 74.5068L235.565 69.9164L237.745 57.5799L244.456 51.8419H262.24L260.232 63.3178H251.627L252.143 60.4488H245.833L245.26 63.6047L259.371 68.195L257.192 80.5316Z" stroke="url(#paint8_linear_1287_7374)" stroke-width="2" mask="url(#path-4-inside-1_1287_7374)"/>
<path d="M277.784 77.6626L278.529 73.3592H287.134L284.897 86.2695L259.082 86.2695L260.574 77.6626H263.442L266.483 60.4488H263.614L265.106 51.8419L290.92 51.8419L288.683 64.7523H280.078L280.824 60.4488H275.087L274.055 66.1868H279.791L278.816 71.9247L273.08 71.9247L272.047 77.6626L277.784 77.6626Z" stroke="url(#paint9_linear_1287_7374)" stroke-width="2" mask="url(#path-4-inside-1_1287_7374)"/>
<path d="M235.971 38.2695L236.98 47.5157L246.167 48.5316L236.98 49.5475L235.971 58.7937L234.961 49.5475L225.774 48.5316L234.961 47.5157L235.971 38.2695Z" stroke="url(#paint10_linear_1287_7374)" stroke-width="2" mask="url(#path-4-inside-1_1287_7374)"/>
<g clip-path="url(#clip0_1287_7374)">
<rect x="87.4385" y="114.27" width="180" height="180" rx="24" fill="white"/>
<g clip-path="url(#clip1_1287_7374)">
<path d="M190.562 209.543C190.862 212.917 192.238 220.54 197.362 219.398L197.912 220.233C197.662 225.468 195.015 229.159 190.868 232.984C186.655 236.809 181.282 239.107 175.612 239.511C170.612 239.879 165.295 238.68 161.555 235.319C157.815 231.958 155.848 227.302 158.325 223.31H158.685C159.812 223.343 160.848 222.752 161.802 222.15C163.015 221.382 165.518 218.232 166.268 217.327C167.268 216.027 167.675 211.1 168.188 209.543H190.562V209.543Z" fill="#FFD39F"/>
<path fill-rule="evenodd" clip-rule="evenodd" d="M125.531 338.919C127.05 339.074 128.561 339.229 130.128 339.527L130.288 339.547L128.005 359.277L128.003 359.293C127.504 363.6 127.005 367.904 126.815 372.242C126.768 373.334 126.765 374.513 127.392 375.409C128.148 376.501 129.568 376.832 130.862 377.079L145.195 379.828L149.385 380.319C171.595 384.074 193.845 383.099 216.015 379.113L231.505 376.023C232.919 375.584 234.467 375.39 236.027 375.195C239.302 374.785 242.631 374.369 244.888 371.654C245.162 371.022 245.275 370.334 245.222 369.649C244.258 365.011 241.285 356.683 238.553 349.029C236.563 343.453 234.701 338.234 233.835 335.061L233.502 334.516C233.125 309.241 232.102 283.893 226.405 259.316L225.345 256.106C222.545 247.053 218.878 238.367 213.718 230.52L213.052 224.106C213.065 223.061 212.802 222.025 212.288 221.113C211.775 220.201 211.032 219.44 210.132 218.905C209.232 218.371 208.208 218.087 207.162 218.077C206.115 218.067 205.085 218.334 204.175 218.852C205.388 217.248 204.785 214.736 203.202 213.507C201.618 212.277 199.382 212.174 197.472 212.775C195.562 213.376 193.915 214.596 192.348 215.845C191.214 216.753 190.091 217.695 188.966 218.64C184.239 222.608 179.468 226.613 173.588 228.232L169.648 226.996C167.452 226.502 165.978 224.434 165.118 222.353C164.82 221.631 164.572 220.888 164.324 220.145C163.856 218.744 163.389 217.345 162.592 216.106C161.372 214.208 159.065 212.728 156.925 213.416C154.302 214.258 153.585 217.552 153.098 220.271C153.055 220.686 152.912 221.086 152.678 221.431C152.305 221.896 151.676 222.03 151.086 222.155C151.049 222.163 151.012 222.171 150.975 222.179C149.642 222.466 148.285 222.981 147.308 223.953C146.332 224.925 145.792 226.425 146.238 227.731L144.552 230.524C143.618 231.576 141.218 235.017 141.218 235.017C135.054 245.422 132.679 256.144 130.097 267.799C130.027 268.118 129.956 268.437 129.885 268.757C125.262 290.685 123.204 311.471 121.076 332.963C120.902 334.717 120.728 336.476 120.552 338.241C122.274 338.586 123.907 338.753 125.531 338.919ZM128.915 347.605C125.952 347.585 123.005 347.134 120.168 346.269C120.368 343.78 120.585 341.224 121.655 338.969L129.898 339.891L128.915 347.605Z" fill="black"/>
<path fill-rule="evenodd" clip-rule="evenodd" d="M180.465 240.255C180.535 241.317 181.415 242.129 182.459 242.129C182.505 242.129 182.549 242.129 182.589 242.119C191.505 241.534 200.235 238.735 207.839 234.031C209.409 233.062 210.725 232.048 211.785 230.992C211.838 231.206 211.928 231.415 212.055 231.609C216.669 238.625 220.392 246.829 223.442 256.687C223.709 257.549 224.499 258.1 225.352 258.1C225.549 258.1 225.749 258.07 225.942 258.01C226.999 257.683 227.589 256.56 227.262 255.501C224.099 245.276 220.219 236.741 215.395 229.405C215.019 228.831 214.4 228.516 213.764 228.503C214.597 227.108 215.026 225.652 215.045 224.143C215.062 222.743 214.709 221.36 214.025 220.141C213.342 218.922 212.345 217.9 211.142 217.188C209.942 216.476 208.569 216.096 207.172 216.082C207.039 216.082 206.909 216.082 206.775 216.089C206.582 214.519 205.772 212.982 204.419 211.933C202.449 210.403 199.622 210.006 196.865 210.874C194.595 211.589 192.699 213.009 191.095 214.288C189.337 215.694 187.864 217.074 186.44 218.409L186.389 218.457L186.385 218.461C183.013 221.623 180.35 224.12 175.669 225.409C174.602 225.703 173.975 226.806 174.269 227.875C174.562 228.944 175.665 229.572 176.729 229.278C182.365 227.728 185.649 224.648 189.122 221.387L189.176 221.336C190.543 220.056 191.957 218.731 193.589 217.425C194.969 216.326 196.449 215.207 198.065 214.699C199.552 214.232 201.049 214.385 201.972 215.103C202.762 215.718 203.065 217.004 202.575 217.652C202.002 218.411 202.039 219.47 202.665 220.185C203.292 220.899 204.332 221.076 205.159 220.609C205.752 220.271 206.425 220.094 207.105 220.094H207.139C207.832 220.098 208.515 220.288 209.112 220.642C209.709 220.996 210.202 221.501 210.542 222.109C210.882 222.717 211.059 223.402 211.049 224.096C211.022 226.271 209.235 228.466 205.742 230.624C198.692 234.987 190.595 237.579 182.329 238.124C181.229 238.197 180.392 239.149 180.465 240.255ZM142.619 381.355C142.495 381.355 142.369 381.342 142.242 381.318L130.495 379.063C129.182 378.799 127.019 378.362 125.765 376.578C125.404 376.062 125.173 375.517 125.029 374.965C123.555 374.71 122.146 374.148 120.892 373.307C119.222 372.192 117.898 370.635 117.068 368.804C116.932 368.504 116.872 368.176 116.892 367.849C116.923 367.324 116.964 366.788 117.005 366.245L117.005 366.244L117.005 366.244L117.005 366.244L117.005 366.244L117.005 366.244L117.005 366.244L117.005 366.243L117.012 366.152C117.358 361.458 117.715 356.604 114.475 353.354C114.218 353.097 114.038 352.776 113.948 352.422C113.161 349.266 114.896 346.242 118.292 344.739C118.443 343.111 118.672 341.392 119.213 339.721C118.76 339.307 118.506 338.692 118.572 338.041C118.717 336.595 118.859 335.151 119.001 333.712L119.095 332.763L119.104 332.67C121.261 310.907 123.298 290.346 127.938 268.339L128.155 267.36C130.738 255.692 133.182 244.671 139.508 233.988C139.535 233.944 139.562 233.904 139.588 233.864L139.625 233.812C140.008 233.266 142.122 230.252 143.068 229.187C143.424 228.786 143.904 228.562 144.399 228.521C144.381 228.475 144.365 228.429 144.349 228.382C143.679 226.428 144.289 224.133 145.902 222.53C147.032 221.407 148.552 220.652 150.559 220.218L150.675 220.191C150.805 220.164 150.979 220.128 151.109 220.091C151.109 220.086 151.109 220.082 151.11 220.078L151.11 220.078C151.111 220.073 151.112 220.069 151.112 220.064C151.119 220.011 151.125 219.961 151.135 219.911L151.137 219.902C151.624 217.225 152.436 212.757 156.319 211.506C158.632 210.764 162.109 211.556 164.292 215.037C164.528 215.413 164.737 215.794 164.927 216.18C165.321 215.319 166.286 214.834 167.235 215.077C168.305 215.347 168.955 216.44 168.682 217.512C168.38 218.712 167.898 219.514 166.648 220.74C166.752 221.026 166.859 221.306 166.972 221.581C167.442 222.713 168.472 224.671 170.092 225.038C171.169 225.282 171.845 226.355 171.605 227.434C171.362 228.513 170.292 229.191 169.215 228.95C166.709 228.386 164.599 226.314 163.275 223.121C162.949 222.333 162.679 221.541 162.422 220.772L162.409 220.736C161.967 219.433 161.549 218.201 160.902 217.171C160.152 215.975 158.689 214.956 157.539 215.324C156.079 215.795 155.502 218.264 155.082 220.562C154.995 221.274 154.739 221.958 154.339 222.553C154.309 222.596 154.275 222.64 154.242 222.683C153.425 223.702 152.279 223.948 151.516 224.111L151.509 224.113L151.402 224.136C150.185 224.4 149.285 224.815 148.722 225.372C148.225 225.867 147.972 226.602 148.135 227.079C148.289 227.527 148.795 228.008 149.269 228.416C153.562 232.184 158.785 234.706 164.385 235.715C165.472 235.912 166.195 236.954 165.999 238.043C165.819 239.012 164.975 239.694 164.029 239.694C163.912 239.694 163.792 239.684 163.672 239.66C157.359 238.521 151.469 235.678 146.642 231.442C146.57 231.38 146.498 231.317 146.425 231.252C146.341 231.467 146.218 231.671 146.055 231.853C145.368 232.625 143.592 235.124 142.908 236.099C136.935 246.211 134.565 256.904 132.058 268.229L131.845 269.188C127.25 290.983 125.223 311.459 123.077 333.14L123.075 333.157C122.962 334.293 122.848 335.432 122.735 336.574C123.732 336.715 124.718 336.818 125.742 336.922L125.796 336.927C126.695 337.019 127.612 337.113 128.551 337.24L130.065 324.151L130.077 324.053C132.82 300.522 135.656 276.191 141.175 252.715C141.429 251.64 142.505 250.968 143.582 251.225C144.655 251.479 145.322 252.558 145.069 253.637C139.601 276.896 136.778 301.117 134.048 324.544L134.039 324.622L133.942 325.457L129.999 359.531L129.996 359.549C129.51 363.749 129.008 368.089 128.819 372.352C128.795 372.883 128.752 373.879 129.035 374.28C129.369 374.754 130.555 374.994 131.262 375.135L142.989 377.383C144.072 377.59 144.785 378.642 144.575 379.728C144.399 380.687 143.562 381.355 142.619 381.355ZM117.765 351.006C117.705 349.48 119.413 348.615 120.08 348.336C122.38 348.998 124.741 349.407 127.126 349.553L126.025 359.063L126.011 359.183C125.573 362.982 125.121 366.895 124.894 370.818C124.266 370.626 123.667 370.342 123.115 369.973C122.198 369.359 121.445 368.534 120.922 367.565C120.937 367.329 120.954 367.094 120.972 366.857C120.982 366.72 120.992 366.584 121.002 366.446L121.002 366.441C121.362 361.551 121.807 355.507 117.765 351.006ZM128.089 341.224L127.587 345.564C125.806 345.469 124.038 345.207 122.305 344.782C122.447 343.356 122.66 341.946 123.117 340.669C123.871 340.761 124.609 340.837 125.335 340.91L125.489 340.926C126.374 341.018 127.231 341.107 128.089 341.224ZM149.052 382.29C158.492 383.887 168.132 384.686 178.095 384.686C190.167 384.686 202.711 383.509 215.918 381.16C217.71 382.543 219.819 383.272 222.142 383.272C222.392 383.272 222.648 383.266 222.905 383.246C226.439 383.013 229.512 381.088 231.571 378.02C231.745 378.014 231.922 377.984 232.098 377.934C233.342 377.547 234.768 377.366 236.275 377.179C239.738 376.748 243.662 376.257 246.425 372.933C246.548 372.786 246.648 372.623 246.725 372.446C247.122 371.52 247.292 370.498 247.215 369.493C247.212 369.449 247.207 369.407 247.201 369.365C247.194 369.323 247.187 369.281 247.178 369.239C246.185 364.463 243.263 356.274 240.437 348.355L240.437 348.354L240.435 348.35C238.465 342.838 236.608 337.63 235.762 334.53C235.705 334.32 235.616 334.126 235.503 333.954C235.174 309.8 234.291 286.555 228.619 262.052C228.369 260.973 227.295 260.302 226.218 260.552C225.142 260.803 224.472 261.878 224.722 262.957C231.051 290.308 231.325 316.255 231.615 343.725L231.615 343.733L231.622 344.241L206.385 343.827C202.635 314.463 201.342 284.595 202.538 255.02C202.585 253.914 201.725 252.979 200.622 252.936C199.519 252.896 198.585 253.751 198.542 254.857C197.312 285.233 198.692 315.919 202.642 346.061C202.744 346.837 203.28 347.461 203.986 347.7C203.704 349.752 203.63 351.831 203.768 353.902C203.768 354.276 203.832 354.643 203.962 354.994C204.112 355.395 204.335 355.756 204.628 356.063C204.656 356.093 204.685 356.121 204.715 356.149C203.506 357.064 202.506 358.235 202.065 359.644C201.685 360.864 201.568 362.761 203.168 364.866C204.648 366.817 206.692 367.989 208.495 369.021C208.852 369.225 209.205 369.429 209.558 369.64C210.052 369.931 210.591 371.9 210.827 372.762L210.832 372.78C210.995 373.381 211.152 373.949 211.335 374.457C211.758 375.621 212.26 376.679 212.834 377.627C190.125 381.444 169.45 381.675 149.715 378.338C148.625 378.151 147.595 378.89 147.412 379.982C147.228 381.071 147.962 382.107 149.052 382.29ZM210.898 356.824C210.699 357.396 210.243 357.872 209.622 358.071C207.768 358.672 206.195 359.838 205.882 360.844C205.822 361.034 205.665 361.539 206.349 362.437C207.338 363.739 208.863 364.614 210.476 365.539L210.476 365.539L210.478 365.541C210.569 365.593 210.66 365.645 210.75 365.697C211.036 365.861 211.321 366.025 211.602 366.192C213.482 367.309 214.15 369.749 214.686 371.708L214.688 371.717C214.828 372.235 214.965 372.726 215.092 373.08C216.172 376.05 218.352 379.521 222.638 379.244C225.455 379.057 228.855 376.935 229.972 371.54C230.828 367.393 230.054 362.928 229.304 358.607L229.302 358.592L229.262 358.361C229.185 357.918 229.109 357.477 229.035 357.035C229.02 356.947 229.012 356.859 229.008 356.772L210.898 356.824ZM232.48 355.346C232.733 355.623 232.912 355.973 232.978 356.371C233.065 356.882 233.152 357.393 233.242 357.907L233.245 357.924C234.057 362.612 234.897 367.461 233.888 372.355C233.808 372.743 233.717 373.124 233.614 373.496C234.337 373.38 235.062 373.289 235.775 373.201C238.775 372.826 241.385 372.499 243.138 370.605C243.205 370.381 243.235 370.144 243.228 369.91C242.26 365.381 239.298 357.078 236.677 349.734L236.665 349.699L236.578 349.455L236.577 349.454L236.577 349.453L236.577 349.453C236.246 348.524 235.918 347.604 235.597 346.701C235.516 347.077 235.328 347.424 235.052 347.698C234.682 348.073 234.172 348.283 233.645 348.283H233.612L232.94 348.272L233.105 352.505C233.122 353.026 233.161 354.306 232.48 355.346ZM228.935 348.206L208.004 347.861C207.754 349.506 207.658 351.17 207.718 352.833L229.112 352.773V352.773C229.112 352.756 229.112 352.738 229.111 352.72C229.111 352.698 229.11 352.676 229.108 352.652L228.935 348.206Z" fill="black"/>
</g>
<path d="M133.378 181.763C130.332 180.387 128.462 177.237 127.395 174.08C124.448 165.338 126.308 155.423 131.022 147.495C135.735 139.568 143.052 133.465 151.022 128.818C157.192 125.22 164.022 122.367 171.165 122.261C178.308 122.154 185.785 125.21 189.568 131.28L194.298 135.456C200.298 134.537 206.142 137.881 210.748 141.843C216.415 146.707 221.138 152.787 223.805 159.769C226.472 166.751 226.975 174.658 224.548 181.726C222.342 188.144 216.665 194.174 209.912 193.652" fill="black"/>
<path d="M167.152 216.973C166.992 213.493 167.025 211.011 167.245 207.533C163.085 209.237 158.485 208.535 154.198 207.787C150.088 207.062 146.245 205.639 143.142 202.746C137.318 197.311 135.772 188.832 136.605 181.202C136.938 178.172 138.225 173.168 140.375 167.626L142.928 163.992C145.428 159.869 148.558 156.061 152.512 153.302C156.465 150.542 161.302 148.919 166.095 149.323C167.428 149.437 168.805 149.721 169.925 150.472C171.045 151.224 171.878 152.513 171.782 153.86L176.822 156.773C178.965 155.306 182.118 156.439 183.605 158.587C185.092 160.735 185.295 163.487 185.205 166.09C185.115 168.692 184.782 171.338 185.388 173.866C185.912 175.908 187.008 177.755 188.552 179.188C190.095 180.621 192.015 181.58 194.085 181.947L196.692 181.82C200.515 178.453 202.765 178.002 205.275 179.272C208.848 181.079 209.385 184.9 208.608 188.111C207.768 191.652 205.528 194.705 202.655 196.88C201.205 197.959 199.625 198.857 197.955 199.552C197.135 199.9 196.298 200.207 195.448 200.474C194.492 200.778 193.525 200.768 193.075 201.704C191.095 205.839 190.252 209.764 190.638 214.334" fill="#FFD39F"/>
<path fill-rule="evenodd" clip-rule="evenodd" d="M132.565 183.579C132.832 183.696 133.105 183.753 133.379 183.753C133.75 183.753 134.115 183.648 134.429 183.454C134.057 191.978 136.677 199.445 141.782 204.211C144.825 207.047 148.775 208.861 153.859 209.759C157.005 210.311 161.085 211.022 165.092 210.247C165.025 211.861 165.049 213.043 165.155 215.395C165.205 216.471 166.089 217.309 167.152 217.309C167.182 217.309 167.212 217.309 167.249 217.296C168.352 217.246 169.205 216.307 169.155 215.201C168.995 211.754 169.032 211.012 169.245 207.652C169.289 206.963 168.975 206.302 168.415 205.898C167.855 205.497 167.129 205.41 166.492 205.671C162.979 207.11 159.002 206.586 154.549 205.808C150.192 205.039 147.002 203.599 144.509 201.274C139.845 196.925 137.692 189.686 138.595 181.418C138.869 178.942 139.969 174.209 142.242 168.349C142.642 167.317 142.132 166.155 141.102 165.754C140.072 165.353 138.912 165.864 138.512 166.896C136.598 171.828 135.203 176.746 134.71 180.256C134.559 180.121 134.386 180.008 134.192 179.921C131.545 178.739 130.065 175.739 129.289 173.424C126.702 165.777 127.989 156.464 132.729 148.51C136.802 141.675 143.292 135.628 152.019 130.537C159.119 126.395 165.389 124.34 171.185 124.25C178.195 124.147 184.735 127.314 187.862 132.328C188.449 133.266 189.682 133.554 190.619 132.966C191.555 132.378 191.842 131.142 191.255 130.203C187.345 123.926 179.615 120.111 171.125 120.242C164.622 120.342 157.715 122.573 150.005 127.07C140.689 132.505 133.719 139.026 129.295 146.452C123.965 155.401 122.545 165.964 125.502 174.703C126.982 179.109 129.422 182.176 132.565 183.579ZM210.725 195.675C210.399 195.675 210.075 195.662 209.749 195.639C208.906 195.575 208.225 194.994 207.99 194.231C206.881 195.816 205.49 197.26 203.862 198.492C202.269 199.678 200.542 200.66 198.722 201.415C197.859 201.779 196.955 202.113 196.045 202.397C195.769 202.484 195.502 202.55 195.269 202.607C195.234 202.616 195.198 202.625 195.161 202.634C195.037 202.664 194.903 202.697 194.809 202.727C192.892 206.736 192.299 208.243 192.632 212.171C192.725 213.274 191.909 214.243 190.809 214.336C190.749 214.349 190.692 214.353 190.635 214.353C189.609 214.353 188.732 213.564 188.645 212.515C188.222 207.484 189.199 205.183 191.272 200.853C192.032 199.273 193.469 198.926 194.329 198.719C194.367 198.709 194.406 198.7 194.443 198.69L194.445 198.69C194.589 198.655 194.724 198.621 194.845 198.582C195.639 198.331 196.422 198.044 197.179 197.723C198.709 197.089 200.145 196.27 201.465 195.288C204.125 193.274 205.979 190.564 206.665 187.665C207.019 186.205 207.499 182.657 204.375 181.077C203.012 180.386 201.675 180.115 198.012 183.342C197.279 183.988 196.208 183.998 195.464 183.419C195.101 183.764 194.611 183.97 194.089 183.97C193.972 183.97 193.855 183.96 193.735 183.94C191.282 183.502 189.019 182.373 187.192 180.676C185.365 178.979 184.072 176.801 183.452 174.383C182.895 172.057 183.015 169.796 183.132 167.604L183.149 167.277C183.17 166.863 183.192 166.45 183.205 166.038C183.275 164.047 183.195 161.531 181.962 159.747C181.102 158.505 179.119 157.646 177.949 158.448C177.035 159.073 175.792 158.835 175.169 157.923C174.545 157.008 174.782 155.762 175.692 155.137C178.295 153.357 182.755 153.865 185.245 157.466C187.152 160.218 187.292 163.569 187.202 166.181C187.182 166.729 187.155 167.277 187.125 167.825C187.019 169.816 186.919 171.693 187.332 173.42C187.752 175.064 188.645 176.567 189.909 177.743C191.172 178.919 192.735 179.697 194.432 180.001C194.762 180.06 195.058 180.197 195.306 180.39C195.32 180.376 195.334 180.363 195.348 180.35C195.356 180.343 195.364 180.336 195.372 180.329C200.632 175.695 203.672 176.23 206.175 177.496C210.055 179.46 211.732 183.713 210.552 188.597C210.301 189.653 209.937 190.687 209.467 191.685C209.656 191.643 209.853 191.628 210.055 191.643C215.785 192.088 220.725 186.656 222.649 181.064C224.829 174.713 224.572 167.401 221.929 160.476C219.549 154.249 215.232 148.326 209.439 143.355C204.065 138.735 199.072 136.741 194.592 137.426C193.499 137.593 192.479 136.841 192.312 135.749C192.145 134.656 192.895 133.631 193.985 133.464C199.672 132.592 205.745 134.897 212.039 140.312C218.332 145.714 223.045 152.191 225.662 159.043C228.642 166.846 228.915 175.127 226.429 182.37C225.169 186.031 222.975 189.375 220.249 191.787C217.352 194.339 214.079 195.672 210.725 195.675ZM141.882 165.72C142.205 165.917 142.562 166.011 142.915 166.011C143.592 166.011 144.252 165.667 144.625 165.049C147.265 160.683 150.299 157.292 153.639 154.967C157.495 152.284 161.855 150.995 165.915 151.339C167.195 151.446 168.142 151.713 168.805 152.158C169.405 152.558 169.812 153.22 169.775 153.731C169.695 154.837 170.525 155.795 171.625 155.876C172.732 155.956 173.685 155.127 173.765 154.022C173.905 152.067 172.829 150.026 171.022 148.82C169.765 147.978 168.249 147.511 166.252 147.34C161.272 146.919 155.982 148.456 151.362 151.67C147.555 154.316 144.142 158.117 141.209 162.968C140.635 163.913 140.939 165.146 141.882 165.72ZM150.249 176.841C151.537 176.841 152.582 175.57 152.582 174.002C152.582 172.434 151.537 171.162 150.249 171.162C148.96 171.162 147.915 172.434 147.915 174.002C147.915 175.57 148.96 176.841 150.249 176.841ZM163.915 174.787C163.915 176.355 162.871 177.626 161.582 177.626C160.293 177.626 159.249 176.355 159.249 174.787C159.249 173.219 160.293 171.947 161.582 171.947C162.871 171.947 163.915 173.219 163.915 174.787Z" fill="black"/>
</g>
<path d="M118.374 327.006L109.094 337.406L118.598 350.43H114.79L106.982 339.742L104.102 342.91V350.43H101.094V327.038H104.102V338.398L114.31 327.006H118.374ZM123.218 335.358H126.258V350.43H123.218V335.358ZM122.962 329.598C122.962 328.574 123.698 327.838 124.722 327.838C125.746 327.838 126.482 328.574 126.482 329.598C126.482 330.622 125.746 331.358 124.722 331.358C123.698 331.358 122.962 330.622 122.962 329.598ZM150.258 341.662C150.258 339.518 149.01 338.046 147.218 338.046C145.17 338.046 143.762 339.518 143.762 341.47V350.462H140.722V341.662C140.722 339.518 139.506 338.046 137.746 338.046C135.698 338.046 134.258 339.774 134.258 341.918V350.462H131.218V335.358H134.258V337.47C135.154 336.254 136.562 335.39 137.97 335.39C139.794 335.39 141.618 336.542 142.482 338.142C143.506 336.542 145.522 335.39 147.378 335.39C150.866 335.39 153.298 337.95 153.298 341.502V350.462H150.258V341.662ZM168.025 343.934C169.337 346.526 171.321 348.03 173.561 348.062C176.633 348.094 178.457 346.558 178.457 344.158C178.457 338.494 166.521 340.926 166.521 332.734C166.521 328.926 169.721 326.686 173.977 326.75C177.113 326.782 179.833 328.478 181.081 331.998L178.329 332.99C177.593 330.622 175.865 329.406 173.945 329.374C171.353 329.374 169.561 330.654 169.561 332.766C169.561 338.334 181.465 336.126 181.465 344.19C181.465 348.094 178.393 350.782 173.529 350.686C170.105 350.654 167.417 348.702 165.497 345.342L168.025 343.934ZM189.128 344.062C189.128 346.43 190.536 347.998 192.584 347.998C194.824 347.998 196.392 346.526 196.36 344.19V335.358H199.432V350.462H196.36V348.67C195.4 349.854 193.768 350.622 192.296 350.622C188.68 350.622 186.088 347.966 186.088 344.222V335.358H189.128V344.062ZM214.142 341.95C214.142 339.55 212.83 338.014 210.718 338.014C208.51 338.046 206.846 339.774 206.878 341.95V350.462H203.838V335.358H206.878V337.502C207.87 336.254 209.502 335.39 211.006 335.39C214.078 335.39 217.182 337.47 217.182 341.822V350.462H214.142V341.95ZM220.74 350.462V335.358H223.78V337.726C224.804 336.19 226.724 335.198 228.612 335.262V338.11C225.892 338.014 223.78 340.382 223.78 342.878V350.462H220.74ZM232.53 335.358H235.57V350.43H232.53V335.358ZM232.274 329.598C232.274 328.574 233.01 327.838 234.034 327.838C235.058 327.838 235.794 328.574 235.794 329.598C235.794 330.622 235.058 331.358 234.034 331.358C233.01 331.358 232.274 330.622 232.274 329.598ZM250.61 341.95C250.61 339.55 249.298 338.014 247.186 338.014C244.978 338.046 243.314 339.774 243.346 341.95V350.462H240.306V335.358H243.346V337.502C244.338 336.254 245.97 335.39 247.474 335.39C250.546 335.39 253.65 337.47 253.65 341.822V350.462H250.61V341.95Z" fill="white"/>
<path d="M144.072 370.092L141.174 380.34H139.9L137.478 372.402L135.168 380.34H133.88L130.8 370.092H132.186L134.524 377.988L136.778 370.092H138.178L140.474 377.988L142.686 370.092H144.072ZM147.631 380.396C145.769 380.396 144.453 379.024 144.453 377.078C144.453 375.132 145.769 373.746 147.631 373.746C149.675 373.746 150.319 375.412 150.361 375.538C150.767 376.518 150.627 377.54 150.627 377.61H145.783C145.951 378.576 146.735 379.248 147.631 379.248C148.835 379.248 149.297 378.52 149.395 378.352L150.445 378.856C150.123 379.598 149.199 380.396 147.631 380.396ZM145.783 376.532H149.367C149.241 375.622 148.751 374.894 147.631 374.894C146.693 374.894 145.951 375.566 145.783 376.532ZM155.556 380.438C155.024 380.438 154.17 380.2 153.568 379.374V380.368H152.238V370.4H153.568V374.824C154.17 373.984 155.024 373.76 155.57 373.76C157.404 373.76 158.72 375.146 158.72 377.092C158.72 379.052 157.404 380.438 155.556 380.438ZM153.568 377.106C153.568 378.338 154.436 379.304 155.5 379.304C156.634 379.304 157.39 378.422 157.39 377.106C157.39 375.79 156.634 374.922 155.5 374.922C154.436 374.922 153.568 375.902 153.568 377.106ZM166.746 379.178C169.014 379.178 170.568 377.568 170.568 375.216C170.568 372.864 169.014 371.254 166.746 371.254L165.22 371.268V379.164L166.746 379.178ZM163.904 380.34V370.092H166.76C169.756 370.092 171.87 372.206 171.87 375.216C171.87 378.226 169.756 380.34 166.76 380.34H163.904ZM176.301 380.396C174.439 380.396 173.123 379.024 173.123 377.078C173.123 375.132 174.439 373.746 176.301 373.746C178.345 373.746 178.989 375.412 179.031 375.538C179.437 376.518 179.297 377.54 179.297 377.61H174.453C174.621 378.576 175.405 379.248 176.301 379.248C177.505 379.248 177.967 378.52 178.065 378.352L179.115 378.856C178.793 379.598 177.869 380.396 176.301 380.396ZM174.453 376.532H178.037C177.911 375.622 177.421 374.894 176.301 374.894C175.363 374.894 174.621 375.566 174.453 376.532ZM186.648 373.746L183.876 380.354H182.7L179.928 373.746H181.384L183.288 378.562L185.192 373.746H186.648ZM190.396 380.396C188.534 380.396 187.218 379.024 187.218 377.078C187.218 375.132 188.534 373.746 190.396 373.746C192.44 373.746 193.084 375.412 193.126 375.538C193.532 376.518 193.392 377.54 193.392 377.61H188.548C188.716 378.576 189.5 379.248 190.396 379.248C191.6 379.248 192.062 378.52 192.16 378.352L193.21 378.856C192.888 379.598 191.964 380.396 190.396 380.396ZM188.548 376.532H192.132C192.006 375.622 191.516 374.894 190.396 374.894C189.458 374.894 188.716 375.566 188.548 376.532ZM194.878 370.4H196.208V380.34H194.878V370.4ZM200.801 379.276C201.893 379.276 202.649 378.394 202.649 377.078C202.649 375.776 201.893 374.894 200.801 374.894C199.695 374.894 198.953 375.762 198.953 377.078C198.953 378.394 199.695 379.276 200.801 379.276ZM197.623 377.078C197.623 375.132 198.939 373.746 200.801 373.746C202.663 373.746 203.965 375.132 203.965 377.078C203.965 379.024 202.663 380.424 200.801 380.424C198.939 380.424 197.623 379.024 197.623 377.078ZM208.863 379.276C209.983 379.276 210.739 378.38 210.739 377.064C210.739 375.762 209.983 374.866 208.863 374.866C207.813 374.866 206.945 375.86 206.945 377.064C206.945 378.282 207.813 379.276 208.863 379.276ZM205.601 383.322V373.746H206.931V374.796C207.421 374.068 208.331 373.746 208.919 373.746C210.767 373.746 212.069 375.118 212.069 377.064C212.069 379.038 210.767 380.41 208.919 380.41C208.317 380.41 207.421 380.06 206.931 379.36V383.322H205.601ZM216.551 380.396C214.689 380.396 213.373 379.024 213.373 377.078C213.373 375.132 214.689 373.746 216.551 373.746C218.595 373.746 219.239 375.412 219.281 375.538C219.687 376.518 219.547 377.54 219.547 377.61H214.703C214.871 378.576 215.655 379.248 216.551 379.248C217.755 379.248 218.217 378.52 218.315 378.352L219.365 378.856C219.043 379.598 218.119 380.396 216.551 380.396ZM214.703 376.532H218.287C218.161 375.622 217.671 374.894 216.551 374.894C215.613 374.894 214.871 375.566 214.703 376.532ZM221.074 380.354V373.746H222.404V374.782C222.852 374.11 223.692 373.676 224.518 373.704V374.95C223.328 374.908 222.404 375.944 222.404 377.036V380.354H221.074Z" fill="white"/>
<path d="M58.6143 463.27V420.79H62.9343V463.27H58.6143ZM71.5743 463.27V420.79H73.7343V463.27H71.5743ZM78.0543 463.27V420.79H80.2143V463.27H78.0543ZM82.3799 463.27V420.79H84.5399V463.27H82.3799ZM93.1799 463.27V420.79H97.4999V463.27H93.1799ZM99.6599 463.27V420.79H101.82V463.27H99.6599ZM106.146 463.27V420.79H114.786V463.27H106.146ZM116.946 463.27V420.79H123.426V463.27H116.946ZM125.586 463.27V420.79H127.746V463.27H125.586ZM129.911 463.27V420.79H134.231V463.27H129.911ZM136.391 463.27V420.79H140.711V463.27H136.391ZM145.031 463.27V420.79H149.351V463.27H145.031ZM153.677 463.27V420.79H155.837V463.27H153.677ZM157.997 463.27V420.79H166.637V463.27H157.997ZM170.957 463.27V420.79H173.117V463.27H170.957ZM177.442 463.27V420.79H179.602V463.27H177.442ZM183.922 463.27V420.79H192.562V463.27H183.922ZM196.882 463.27V420.79H199.042V463.27H196.882ZM201.208 463.27V420.79H205.528V463.27H201.208ZM214.168 463.27V420.79H216.328V463.27H214.168ZM218.488 463.27V420.79H220.648V463.27H218.488ZM224.974 463.27V420.79H227.134V463.27H224.974ZM231.454 463.27V420.79H233.614V463.27H231.454ZM237.934 463.27V420.79H246.574V463.27H237.934ZM248.739 463.27V420.79H250.899V463.27H248.739ZM259.539 463.27V420.79H263.859V463.27H259.539ZM266.019 463.27V420.79H268.179V463.27H266.019ZM272.505 463.27V420.79H276.825V463.27H272.505ZM285.465 463.27V420.79H287.625V463.27H285.465ZM289.785 463.27V420.79H291.945V463.27H289.785Z" fill="white"/>
<path d="M116.704 517.326C120.184 513.966 125.104 510.294 125.104 507.294C125.104 505.23 123.808 503.766 121.936 503.766C120.544 503.766 119.128 504.798 118.48 506.262L116.464 505.398C117.4 503.214 119.68 501.702 121.936 501.702C125.152 501.702 127.384 504.006 127.384 507.294C127.384 510.966 123.184 514.422 119.872 517.326H127.672V519.318H116.944L116.704 517.326ZM136.535 517.47C139.007 517.47 140.687 514.662 140.687 510.606C140.687 506.526 139.007 503.742 136.535 503.742C134.063 503.742 132.383 506.526 132.383 510.606C132.383 514.662 134.063 517.47 136.535 517.47ZM130.103 510.606C130.103 505.398 132.767 501.726 136.535 501.726C140.303 501.726 142.967 505.398 142.967 510.606C142.967 515.814 140.303 519.486 136.535 519.486C132.767 519.486 130.103 515.814 130.103 510.606ZM145.673 517.326C149.153 513.966 154.073 510.294 154.073 507.294C154.073 505.23 152.777 503.766 150.905 503.766C149.513 503.766 148.097 504.798 147.449 506.262L145.433 505.398C146.369 503.214 148.649 501.702 150.905 501.702C154.121 501.702 156.353 504.006 156.353 507.294C156.353 510.966 152.153 514.422 148.841 517.326H156.641V519.318H145.913L145.673 517.326ZM168.216 510.318C169.776 511.23 170.712 512.934 170.712 514.398C170.712 517.35 168.312 519.462 164.88 519.462C161.496 519.462 159.096 517.326 159.096 514.302H161.376C161.376 516.15 162.816 517.446 164.88 517.446C166.992 517.446 168.48 516.15 168.48 514.302C168.48 512.526 167.016 511.278 164.928 511.278H163.68V509.334H164.952C166.872 509.334 168.216 508.182 168.216 506.574C168.216 504.918 166.92 503.766 165.048 503.766C163.176 503.766 161.88 504.942 161.88 506.598H159.6C159.6 503.742 161.856 501.75 165.048 501.75C168.216 501.75 170.448 503.718 170.448 506.502C170.448 507.822 169.632 509.406 168.216 510.318ZM174.695 516.966C175.511 516.966 176.063 517.542 176.063 518.334C176.063 519.174 175.511 519.75 174.695 519.75C173.855 519.75 173.279 519.174 173.279 518.334C173.279 517.542 173.855 516.966 174.695 516.966ZM186.129 517.47C188.601 517.47 190.281 514.662 190.281 510.606C190.281 506.526 188.601 503.742 186.129 503.742C183.657 503.742 181.977 506.526 181.977 510.606C181.977 514.662 183.657 517.47 186.129 517.47ZM179.697 510.606C179.697 505.398 182.361 501.726 186.129 501.726C189.897 501.726 192.561 505.398 192.561 510.606C192.561 515.814 189.897 519.486 186.129 519.486C182.361 519.486 179.697 515.814 179.697 510.606ZM200.978 503.694C198.794 503.694 197.282 505.254 197.282 507.486C197.282 509.718 198.794 511.278 200.978 511.278C203.09 511.278 204.602 509.718 204.602 507.486C204.602 505.254 203.09 503.694 200.978 503.694ZM195.002 507.486C195.002 504.078 197.45 501.702 200.93 501.702C204.434 501.702 206.882 504.078 206.882 507.486C206.882 508.734 206.45 509.862 205.946 510.774L201.098 519.342H198.482L202.01 513.15C201.65 513.222 201.29 513.27 200.906 513.27C197.426 513.27 195.002 510.87 195.002 507.486ZM210.859 516.966C211.675 516.966 212.227 517.542 212.227 518.334C212.227 519.174 211.675 519.75 210.859 519.75C210.019 519.75 209.443 519.174 209.443 518.334C209.443 517.542 210.019 516.966 210.859 516.966ZM221.957 501.918V519.318L219.677 519.294V504.39L216.749 506.142L215.717 504.27L219.701 501.918H221.957ZM228.589 511.374L226.309 511.062L226.885 501.894H236.005V503.886H229.069L228.781 508.518C229.597 508.11 230.533 507.87 231.373 507.87C234.925 507.87 237.421 510.27 237.421 513.678C237.421 517.134 234.925 519.558 231.373 519.558C228.589 519.558 226.213 517.686 225.589 515.046L227.797 514.542C228.181 516.222 229.645 517.422 231.373 517.422C233.581 517.422 235.141 515.862 235.141 513.678C235.141 511.542 233.581 510.006 231.373 510.006C230.437 510.006 229.285 510.582 228.589 511.374Z" fill="white"/>
<rect x="1.43848" y="1.26953" width="352" height="558" rx="31" stroke="url(#paint11_angular_1287_7374)" stroke-width="2"/>
</g>
<defs>
<filter id="filter0_b_1287_7374" x="-239.562" y="-239.73" width="834" height="1040" filterUnits="userSpaceOnUse" color-interpolation-filters="sRGB">
<feFlood flood-opacity="0" result="BackgroundImageFix"/>
<feGaussianBlur in="BackgroundImageFix" stdDeviation="120"/>
<feComposite in2="SourceAlpha" operator="in" result="effect1_backgroundBlur_1287_7374"/>
<feBlend mode="normal" in="SourceGraphic" in2="effect1_backgroundBlur_1287_7374" result="shape"/>
</filter>
<filter id="filter1_f_1287_7374" x="60.873" y="35.2695" width="233.253" height="54" filterUnits="userSpaceOnUse" color-interpolation-filters="sRGB">
<feFlood flood-opacity="0" result="BackgroundImageFix"/>
<feBlend mode="normal" in="SourceGraphic" in2="BackgroundImageFix" result="shape"/>
<feGaussianBlur stdDeviation="1" result="effect1_foregroundBlur_1287_7374"/>
</filter>
<linearGradient id="paint0_linear_1287_7374" x1="24.0068" y1="14.0225" x2="346.507" y2="548.522" gradientUnits="userSpaceOnUse">
<stop stop-color="#8995FF"/>
<stop offset="0.5" stop-color="white" stop-opacity="0.01"/>
<stop offset="1" stop-color="#C882FF"/>
</linearGradient>
<linearGradient id="paint1_linear_1287_7374" x1="59.991" y1="42.0764" x2="291.021" y2="85.7363" gradientUnits="userSpaceOnUse">
<stop stop-color="#8C8AFF"/>
<stop offset="0.5625" stop-color="#A98AFF"/>
<stop offset="1" stop-color="#DB74FF"/>
</linearGradient>
<linearGradient id="paint2_linear_1287_7374" x1="59.9913" y1="42.0764" x2="291.004" y2="85.7295" gradientUnits="userSpaceOnUse">
<stop stop-color="#8C8AFF"/>
<stop offset="0.5625" stop-color="#A98AFF"/>
<stop offset="1" stop-color="#DB74FF"/>
</linearGradient>
<linearGradient id="paint3_linear_1287_7374" x1="59.9913" y1="42.0764" x2="291.004" y2="85.7295" gradientUnits="userSpaceOnUse">
<stop stop-color="#8C8AFF"/>
<stop offset="0.5625" stop-color="#A98AFF"/>
<stop offset="1" stop-color="#DB74FF"/>
</linearGradient>
<linearGradient id="paint4_linear_1287_7374" x1="59.9913" y1="42.0764" x2="291.004" y2="85.7295" gradientUnits="userSpaceOnUse">
<stop stop-color="#8C8AFF"/>
<stop offset="0.5625" stop-color="#A98AFF"/>
<stop offset="1" stop-color="#DB74FF"/>
</linearGradient>
<linearGradient id="paint5_linear_1287_7374" x1="59.9913" y1="42.0764" x2="291.004" y2="85.7295" gradientUnits="userSpaceOnUse">
<stop stop-color="#8C8AFF"/>
<stop offset="0.5625" stop-color="#A98AFF"/>
<stop offset="1" stop-color="#DB74FF"/>
</linearGradient>
<linearGradient id="paint6_linear_1287_7374" x1="59.9913" y1="42.0764" x2="291.004" y2="85.7295" gradientUnits="userSpaceOnUse">
<stop stop-color="#8C8AFF"/>
<stop offset="0.5625" stop-color="#A98AFF"/>
<stop offset="1" stop-color="#DB74FF"/>
</linearGradient>
<linearGradient id="paint7_linear_1287_7374" x1="59.9913" y1="42.0764" x2="291.004" y2="85.7295" gradientUnits="userSpaceOnUse">
<stop stop-color="#8C8AFF"/>
<stop offset="0.5625" stop-color="#A98AFF"/>
<stop offset="1" stop-color="#DB74FF"/>
</linearGradient>
<linearGradient id="paint8_linear_1287_7374" x1="59.9913" y1="42.0764" x2="291.004" y2="85.7295" gradientUnits="userSpaceOnUse">
<stop stop-color="#8C8AFF"/>
<stop offset="0.5625" stop-color="#A98AFF"/>
<stop offset="1" stop-color="#DB74FF"/>
</linearGradient>
<linearGradient id="paint9_linear_1287_7374" x1="59.9913" y1="42.0764" x2="291.004" y2="85.7295" gradientUnits="userSpaceOnUse">
<stop stop-color="#8C8AFF"/>
<stop offset="0.5625" stop-color="#A98AFF"/>
<stop offset="1" stop-color="#DB74FF"/>
</linearGradient>
<linearGradient id="paint10_linear_1287_7374" x1="59.9913" y1="42.0764" x2="291.004" y2="85.7295" gradientUnits="userSpaceOnUse">
<stop stop-color="#8C8AFF"/>
<stop offset="0.5625" stop-color="#A98AFF"/>
<stop offset="1" stop-color="#DB74FF"/>
</linearGradient>
<radialGradient id="paint11_angular_1287_7374" cx="0" cy="0" r="1" gradientUnits="userSpaceOnUse" gradientTransform="translate(184.518 281.39) rotate(57.3749) scale(315.169 287.835)">
<stop offset="0.196322" stop-color="#5C68D6" stop-opacity="0"/>
<stop offset="0.50673" stop-color="#5C68D6"/>
<stop offset="0.688066" stop-color="#BC94FE" stop-opacity="0"/>
<stop offset="1" stop-color="#BC94FE"/>
</radialGradient>
<clipPath id="clip0_1287_7374">
<rect x="87.4385" y="114.27" width="180" height="180" rx="24" fill="white"/>
</clipPath>
<clipPath id="clip1_1287_7374">
<rect width="200" height="200.436" fill="white" transform="translate(77.4385 209.543)"/>
</clipPath>
</defs>
</svg>
